<svg width="56" height="56" viewBox="0 0 56 56" fill="none" xmlns="http://www.w3.org/2000/svg">
<g clip-path="url(#clip0_20123_435281)">
<path d="M26.5391 56C41.1962 56 53.0782 44.1181 53.0782 29.461C53.0782 14.8038 41.1962 2.92188 26.5391 2.92188C11.882 2.92188 0 14.8038 0 29.461C0 44.1181 11.882 56 26.5391 56Z" fill="#3EA8FF"/>
<path d="M53.0789 29.4613C53.0789 44.1181 41.1964 56.0006 26.5396 56.0006C25.8095 56.0006 25.086 55.9706 24.3702 55.9134C38.0121 54.8099 48.7402 43.3881 48.7402 29.4613C48.7402 15.5345 38.012 4.11264 24.3701 3.00905C25.0859 2.95184 25.8094 2.92188 26.5395 2.92188C41.1964 2.92188 53.0789 14.8043 53.0789 29.4613Z" fill="#3EA8FF"/>
<path d="M26.5389 50.0251C37.8968 50.0251 47.1042 40.8177 47.1042 29.4598C47.1042 18.1019 37.8968 8.89453 26.5389 8.89453C15.181 8.89453 5.97363 18.1019 5.97363 29.4598C5.97363 40.8177 15.181 50.0251 26.5389 50.0251Z" fill="#EEF4F5"/>
<path d="M47.1044 29.4614C47.1044 40.8194 37.8975 50.0264 26.5395 50.0264C25.8068 50.0264 25.0832 49.9886 24.3701 49.9132C34.7079 48.8291 42.7657 40.0868 42.7657 29.4614C42.7657 18.836 34.708 10.0937 24.3701 9.00969C25.0832 8.93422 25.8068 8.89648 26.5395 8.89648C37.8975 8.89648 47.1044 18.1034 47.1044 29.4614Z" fill="#CBE5E7"/>
<path d="M26.5396 44.0518C34.5981 44.0518 41.1309 37.519 41.1309 29.4605C41.1309 21.4019 34.5981 14.8691 26.5396 14.8691C18.481 14.8691 11.9482 21.4019 11.9482 29.4605C11.9482 37.519 18.481 44.0518 26.5396 44.0518Z" fill="#3EA8FF"/>
<path d="M41.1312 29.4609C41.1312 37.5201 34.5985 44.0527 26.5395 44.0527C25.8029 44.0527 25.0781 43.998 24.3701 43.8927C31.3999 42.8438 36.7913 36.7822 36.7913 29.4609C36.7913 22.1396 31.3999 16.0781 24.3701 15.0292C25.078 14.9237 25.8029 14.8691 26.5395 14.8691C34.5985 14.869 41.1312 21.4018 41.1312 29.4609Z" fill="#3EA8FF"/>
<path d="M26.539 38.0156C31.2636 38.0156 35.0937 34.1855 35.0937 29.4609C35.0937 24.7363 31.2636 20.9062 26.539 20.9062C21.8144 20.9062 17.9844 24.7363 17.9844 29.4609C17.9844 34.1855 21.8144 38.0156 26.539 38.0156Z" fill="#EEF4F5"/>
<path d="M35.0942 29.4612C35.0942 34.1863 31.2643 38.0162 26.5392 38.0162C25.8365 38.0162 25.1533 37.9316 24.5 37.7715C28.2401 36.8567 31.0145 33.4836 31.0145 29.4612C31.0145 25.4387 28.2401 22.0657 24.5 21.1509C25.1533 20.9908 25.8365 20.9062 26.5392 20.9062C31.2644 20.9062 35.0942 24.736 35.0942 29.4612Z" fill="#CBE5E7"/>
<path d="M26.5392 32.5803C28.2619 32.5803 29.6585 31.1838 29.6585 29.4611C29.6585 27.7383 28.2619 26.3418 26.5392 26.3418C24.8165 26.3418 23.4199 27.7383 23.4199 29.4611C23.4199 31.1838 24.8165 32.5803 26.5392 32.5803Z" fill="#3EA8FF"/>
<path d="M29.6581 29.4611C29.6581 31.184 28.2617 32.5803 26.5389 32.5803C26.0093 32.5803 25.5095 32.4489 25.0723 32.2147C26.3684 31.9687 27.3483 30.8288 27.3483 29.4611C27.3483 28.0933 26.3684 26.9534 25.0723 26.7074C25.5095 26.4733 26.0092 26.3418 26.5389 26.3418C28.2617 26.3417 29.6581 27.7381 29.6581 29.4611Z" fill="#3EA8FF"/>
<path d="M26.5394 30.3062C26.3232 30.3062 26.1068 30.2236 25.9419 30.0587C25.6118 29.7286 25.6118 29.1935 25.9419 28.8634L48.9935 5.81186C49.3234 5.48198 49.8585 5.48198 50.1886 5.81186C50.5187 6.14195 50.5187 6.67691 50.1886 7.00711L27.137 30.0587C26.972 30.2236 26.7558 30.3062 26.5394 30.3062Z" fill="#688D97"/>
<path d="M38.9503 6.10885C38.5549 6.50424 38.385 7.07201 38.4984 7.61954L40.1925 15.8087L43.0027 12.9984L41.7508 6.94677C41.4831 5.65276 39.8847 5.17446 38.9503 6.10885Z" fill="#FF0059"/>
<path d="M41.7608 3.29834C41.3654 3.69373 41.1956 4.26149 41.3089 4.80903L43.003 12.9982L45.8133 10.1879L44.5614 4.13615C44.2937 2.84213 42.6952 2.36395 41.7608 3.29834Z" fill="#A3E440"/>
<path d="M44.5714 0.487791C44.176 0.883182 44.0061 1.45095 44.1194 1.99848L45.8136 10.1876L48.6238 7.37732L47.3718 1.3256C47.1042 0.031588 45.5057 -0.446599 44.5714 0.487791Z" fill="#FF0059"/>
<path d="M49.8922 17.0505C49.4968 17.4459 48.929 17.6157 48.3815 17.5024L40.1924 15.8083L43.0027 12.998L49.0543 14.25C50.3483 14.5177 50.8266 16.1161 49.8922 17.0505Z" fill="#FF0059"/>
<path d="M52.7027 14.24C52.3074 14.6353 51.7396 14.8052 51.1921 14.6919L43.0029 12.9978L45.8132 10.1875L51.8649 11.4394C53.1589 11.707 53.6371 13.3056 52.7027 14.24Z" fill="#8DC637"/>
<path d="M55.5123 11.4294C55.1169 11.8248 54.5492 11.9947 54.0016 11.8813L45.8125 10.1872L48.6228 7.37695L54.6744 8.62886C55.9685 8.89661 56.4467 10.4951 55.5123 11.4294Z" fill="#FF0059"/>
</g>
<defs>
<clipPath id="clip0_20123_435281">
<rect width="56" height="56" fill="white"/>
</clipPath>
</defs>
</svg>
