<svg width="20" height="21" viewBox="0 0 20 21" fill="none" xmlns="http://www.w3.org/2000/svg">
<path d="M5.48644 17.0521C5.02599 17.0521 4.5844 16.8692 4.25882 16.5436C3.93324 16.218 3.75033 15.7764 3.75033 15.316V3.51042C3.75033 3.23415 3.64058 2.9692 3.44523 2.77385C3.24988 2.5785 2.98493 2.46875 2.70866 2.46875C2.43239 2.46875 2.16744 2.5785 1.97209 2.77385C1.77674 2.9692 1.66699 3.23415 1.66699 3.51042L1.66699 15.316C1.66699 16.329 2.0694 17.3004 2.78568 18.0167C3.50197 18.733 4.47346 19.1354 5.48644 19.1354H17.292C17.5683 19.1354 17.8332 19.0257 18.0286 18.8303C18.2239 18.635 18.3337 18.37 18.3337 18.0938C18.3337 17.8175 18.2239 17.5525 18.0286 17.3572C17.8332 17.1618 17.5683 17.0521 17.292 17.0521H5.48644Z" fill="#FF8A00"/>
<path d="M15.417 14.9681C15.7485 14.9681 16.0665 14.8657 16.3009 14.6833C16.5353 14.501 16.667 14.2537 16.667 13.9959V10.107C16.667 9.84914 16.5353 9.60185 16.3009 9.41952C16.0665 9.2372 15.7485 9.13477 15.417 9.13477C15.0855 9.13477 14.7675 9.2372 14.5331 9.41952C14.2987 9.60185 14.167 9.84914 14.167 10.107V13.9959C14.167 14.2537 14.2987 14.501 14.5331 14.6833C14.7675 14.8657 15.0855 14.9681 15.417 14.9681Z" fill="#FF8A00"/>
<path d="M7.08301 14.9681C7.41453 14.9681 7.73247 14.8657 7.96689 14.6833C8.20131 14.501 8.33301 14.2537 8.33301 13.9959V10.107C8.33301 9.84914 8.20131 9.60185 7.96689 9.41952C7.73247 9.2372 7.41453 9.13477 7.08301 9.13477C6.75149 9.13477 6.43354 9.2372 6.19912 9.41952C5.9647 9.60185 5.83301 9.84914 5.83301 10.107V13.9959C5.83301 14.2537 5.9647 14.501 6.19912 14.6833C6.43354 14.8657 6.75149 14.9681 7.08301 14.9681Z" fill="#FF8A00"/>
<path d="M11.25 14.9688C11.5815 14.9688 11.8995 14.8559 12.1339 14.6549C12.3683 14.454 12.5 14.1815 12.5 13.8973V6.04018C12.5 5.75602 12.3683 5.4835 12.1339 5.28256C11.8995 5.08163 11.5815 4.96875 11.25 4.96875C10.9185 4.96875 10.6005 5.08163 10.3661 5.28256C10.1317 5.4835 10 5.75602 10 6.04018V13.8973C10 14.1815 10.1317 14.454 10.3661 14.6549C10.6005 14.8559 10.9185 14.9688 11.25 14.9688Z" fill="#FF8A00"/>
</svg>
