<svg width="20" height="20" viewBox="0 0 20 20" fill="none" xmlns="http://www.w3.org/2000/svg">
<path d="M5.48644 16.2503C5.02599 16.2503 4.5844 16.0674 4.25882 15.7418C3.93324 15.4162 3.75033 14.9747 3.75033 14.5142V2.70866C3.75033 2.43239 3.64058 2.16744 3.44523 1.97209C3.24988 1.77674 2.98493 1.66699 2.70866 1.66699C2.43239 1.66699 2.16744 1.77674 1.97209 1.97209C1.77674 2.16744 1.66699 2.43239 1.66699 2.70866L1.66699 14.5142C1.66699 15.5272 2.0694 16.4987 2.78568 17.215C3.50197 17.9313 4.47346 18.3337 5.48644 18.3337H17.292C17.5683 18.3337 17.8332 18.2239 18.0286 18.0286C18.2239 17.8332 18.3337 17.5683 18.3337 17.292C18.3337 17.0157 18.2239 16.7508 18.0286 16.5554C17.8332 16.3601 17.5683 16.2503 17.292 16.2503H5.48644Z" fill="white"/>
<path d="M15.417 14.1663C15.7485 14.1663 16.0665 14.0639 16.3009 13.8816C16.5353 13.6993 16.667 13.452 16.667 13.1941V9.30523C16.667 9.04738 16.5353 8.80009 16.3009 8.61777C16.0665 8.43544 15.7485 8.33301 15.417 8.33301C15.0855 8.33301 14.7675 8.43544 14.5331 8.61777C14.2987 8.80009 14.167 9.04738 14.167 9.30523V13.1941C14.167 13.452 14.2987 13.6993 14.5331 13.8816C14.7675 14.0639 15.0855 14.1663 15.417 14.1663Z" fill="white"/>
<path d="M7.08301 14.1663C7.41453 14.1663 7.73247 14.0639 7.96689 13.8816C8.20131 13.6993 8.33301 13.452 8.33301 13.1941V9.30523C8.33301 9.04738 8.20131 8.80009 7.96689 8.61777C7.73247 8.43544 7.41453 8.33301 7.08301 8.33301C6.75149 8.33301 6.43354 8.43544 6.19912 8.61777C5.9647 8.80009 5.83301 9.04738 5.83301 9.30523V13.1941C5.83301 13.452 5.9647 13.6993 6.19912 13.8816C6.43354 14.0639 6.75149 14.1663 7.08301 14.1663Z" fill="white"/>
<path d="M11.25 14.167C11.5815 14.167 11.8995 14.0541 12.1339 13.8532C12.3683 13.6522 12.5 13.3797 12.5 13.0956V5.23842C12.5 4.95426 12.3683 4.68174 12.1339 4.48081C11.8995 4.27987 11.5815 4.16699 11.25 4.16699C10.9185 4.16699 10.6005 4.27987 10.3661 4.48081C10.1317 4.68174 10 4.95426 10 5.23842V13.0956C10 13.3797 10.1317 13.6522 10.3661 13.8532C10.6005 14.0541 10.9185 14.167 11.25 14.167Z" fill="white"/>
</svg>
