<svg width="28" height="28" viewBox="0 0 28 28" fill="none" xmlns="http://www.w3.org/2000/svg">
<g clip-path="url(#clip0_20565_114029)">
<path d="M21.8086 8.86685C21.8347 8.61763 21.7434 8.38867 21.5832 8.22852L13.2192 16.5925C17.6815 16.5925 21.3534 13.2085 21.8086 8.86685Z" fill="#64AD36"/>
<path d="M21.5418 8.59941C21.6368 8.4191 21.6445 8.28904 21.5832 8.22779C21.4231 8.06764 21.1941 7.97634 20.9449 8.00248C16.6032 8.45769 13.2192 12.1296 13.2192 16.5918C16.3034 15.2137 19.8863 11.7408 21.5418 8.59941Z" fill="#75C231"/>
<path d="M6.64854 8.00153C6.59816 7.99681 6.54894 7.99735 6.50049 8.0004L13.1769 15.9831C13.1784 15.9833 13.1784 27.1647 13.1784 27.1647H14.8338V16.117C14.8338 11.9009 11.2485 8.43163 6.64854 8.00153Z" fill="#64AD36"/>
<path d="M6.9368 8.00315C6.92987 8.00227 6.92315 8.00258 6.91628 8.00195C6.72232 8.01565 6.54732 8.09888 6.41774 8.22846C6.25758 8.38862 6.16628 8.61758 6.19242 8.8668C6.59315 12.6889 9.48685 15.7682 13.2179 16.4507C13.1602 12.0527 10.4299 8.45352 6.9368 8.00315Z" fill="#75C231"/>
</g>
<defs>
<clipPath id="clip0_20565_114029">
<rect width="26.6667" height="26.6667" fill="white" transform="translate(0.666992 0.664062)"/>
</clipPath>
</defs>
</svg>
