<svg width="24" height="24" viewBox="0 0 24 24" fill="none" xmlns="http://www.w3.org/2000/svg">
<path d="M5.27312 17H17.7659C18.1504 17 18.5293 16.9033 18.8704 16.7181C19.2115 16.5328 19.5049 16.2645 19.7257 15.9358C19.9465 15.6071 20.0883 15.2277 20.139 14.8297C20.1897 14.4316 20.1478 14.0267 20.017 13.6492L17.7412 7.07833C17.3525 5.61809 16.5166 4.33099 15.3611 3.41389C14.2057 2.49679 12.7945 2.00018 11.3432 2C9.83243 1.99998 8.36684 2.53799 7.18839 3.52521C6.00993 4.51244 5.18909 5.88984 4.86137 7.43L2.98617 13.7633C2.87577 14.1372 2.85094 14.533 2.91371 14.9188C2.97647 15.3045 3.12506 15.6695 3.34753 15.9844C3.56999 16.2992 3.86012 16.5551 4.19457 16.7315C4.52901 16.9079 4.89844 16.9999 5.27312 17Z" fill="#FF8A00"/>
<path d="M7.68018 19C7.86004 19.8467 8.3406 20.6078 9.04043 21.1546C9.74026 21.7013 10.6163 22 11.5202 22C12.424 22 13.3001 21.7013 13.9999 21.1546C14.6998 20.6078 15.1803 19.8467 15.3602 19H7.68018Z" fill="#FF8A00"/>
</svg>
