<svg width="30" height="30" viewBox="0 0 30 30" fill="none" xmlns="http://www.w3.org/2000/svg">
<path d="M11.5123 23.4195C11.5123 25.3426 13.0769 26.9072 15 26.9072C16.9231 26.9072 18.4877 25.3426 18.4877 23.4195V20.5363C18.4877 18.9532 19.153 17.4068 20.313 16.2935C21.1975 15.4446 21.8728 14.387 22.2657 13.2354C22.6842 12.0084 22.7819 10.7233 22.5557 9.41592C22.2585 7.69815 21.3586 6.11505 20.0218 4.95829C18.6351 3.75846 16.8517 3.0977 15 3.09766C13.1551 3.09766 11.3753 3.75586 9.98851 4.95103C8.64569 6.10831 7.74214 7.69396 7.44429 9.41592C7.21814 10.7234 7.31571 12.0084 7.73428 13.2354C8.12718 14.387 8.80241 15.4445 9.68699 16.2935C10.847 17.4068 11.5123 18.9528 11.5123 20.5352V23.4195ZM10.653 15.287C9.1223 13.8179 8.45382 11.7646 8.81896 9.65369C9.33626 6.66327 11.9357 4.49279 15 4.49275C18.0643 4.49275 20.6637 6.66327 21.181 9.65369C21.5462 11.7646 20.8777 13.8179 19.347 15.287C18.0849 16.4982 17.297 18.1272 17.1273 19.8386L12.8728 19.8378C12.703 18.127 11.9151 16.4982 10.653 15.287ZM17.0926 21.2337V23.4195C17.0926 24.5733 16.1539 25.5121 15 25.5121C13.8461 25.5121 12.9074 24.5733 12.9074 23.4195V21.2329L17.0926 21.2337Z" fill="#3EA8FF"/>
<path d="M14.3021 9.37388C14.3021 8.98926 14.615 8.67634 14.9996 8.67634C15.3842 8.67634 15.6972 8.98926 15.6972 9.37388C15.6972 9.59807 15.5934 9.80306 15.4123 9.93634C14.7171 10.4482 14.3021 11.2687 14.3021 12.1311V12.8616H15.6972V12.1311C15.6972 11.7103 15.8999 11.3098 16.2395 11.0598C16.7735 10.6666 17.0922 10.0364 17.0922 9.37388C17.0922 8.22001 16.1535 7.28125 14.9996 7.28125C13.8457 7.28125 12.907 8.22001 12.907 9.37388V10.0714H14.3021V9.37388Z" fill="#3EA8FF"/>
<path d="M3.82935 6.16797L4.81567 5.18164L6.86918 7.23514L5.88285 8.22147L3.82935 6.16797Z" fill="#3EA8FF"/>
<path d="M3.09497 10.0742H5.93435V11.4693H3.09497V10.0742Z" fill="#3EA8FF"/>
<path d="M3.84424 15.3555L5.89626 13.3034L6.88259 14.2898L4.83057 16.3418L3.84424 15.3555Z" fill="#3EA8FF"/>
<path d="M23.1272 7.23828L25.1807 5.18481L26.167 6.17114L24.1135 8.22461L23.1272 7.23828Z" fill="#3EA8FF"/>
<path d="M24.0649 10.0742H26.9044V11.4693H24.0649V10.0742Z" fill="#3EA8FF"/>
<path d="M23.1121 14.293L24.0984 13.3066L26.1504 15.3587L25.1641 16.345L23.1121 14.293Z" fill="#3EA8FF"/>
<path d="M14.3022 14.2578H15.6973V15.6529H14.3022V14.2578Z" fill="#3EA8FF"/>
</svg>
