<svg width="329" height="115" viewBox="0 0 329 115" fill="none" xmlns="http://www.w3.org/2000/svg">
<path d="M250.801 57.0833C265.655 49.5775 272.01 47.3632 281.113 46.5218C304.007 44.4053 322.997 56.3588 328.141 76.1261C329.297 80.5675 329.284 88.0507 328.113 92.0256C323.501 107.686 305.919 118.104 290.751 114.163C279.794 111.317 273.011 103.531 273.042 93.8362C273.071 85.0295 278.701 79.2112 287.012 79.3984L290.639 79.4801L286.887 79.8735C282.406 80.3434 280.073 81.4607 277.782 84.2319C275.731 86.7146 274.762 89.699 274.762 93.5345C274.762 102.044 281.183 108.962 291.272 111.324C303.138 114.101 316.757 107.222 322.553 95.5242C324.462 91.6709 324.692 90.7022 324.895 85.651C325.276 76.1998 322.062 68.3491 314.88 61.1848C305.75 52.0792 291.406 48.1677 276.601 50.7483C269.413 52.0015 265.779 53.2783 254.843 58.3946C249.762 60.7719 243.396 63.4528 240.697 64.3529C228.378 68.4597 214.785 68.0525 201.83 63.1884C197.116 61.4187 198.022 61.2361 203.268 62.8976C210.267 65.1148 214.732 65.6677 223.021 65.3446C233.153 64.9495 238.207 63.447 250.801 57.0833Z" fill="#1477F8"/>
<path d="M274.473 63.1665C276.379 62.5515 279.496 61.8063 281.402 61.5097C291.58 59.9248 302.828 63.333 308.662 69.7698C312.6 74.1144 314.243 78.0461 314.502 83.7458C314.69 87.8929 314.53 88.8679 313.183 91.8085C310.231 98.2528 304.984 101.921 298.718 101.921C293.851 101.921 288.552 99.1778 286.759 95.7298C286.287 94.8234 286.514 94.9011 287.822 96.0961C297.119 104.584 310.742 97.7749 310.666 84.6777C310.613 75.6089 302.973 67.3695 292.018 64.5689C287.996 63.5409 280.665 63.2489 274.762 63.8818L271.009 64.2838L274.473 63.1665Z" fill="#1477F8"/>
<path d="M191.332 74.5504C187.749 72.7645 181.229 68.5587 181.229 68.0323C181.229 67.8676 182.333 68.417 183.682 69.2533C193.486 75.3262 207.501 78.7672 218.967 77.9171C221.853 77.7029 227.942 76.5448 232.932 75.2599C246.784 71.6934 252.169 72.2548 257.78 77.852C261.829 81.8914 263.418 86.0374 263.418 92.5624C263.418 99.3926 261.862 103.226 257.203 107.875C252.781 112.286 249.44 113.565 243.365 113.169C230.335 112.32 223.968 100.315 231.034 89.9201C234.253 85.1845 239.57 83.4389 244.35 85.5479C249.173 87.6758 250.836 93.1745 247.586 96.2464L246.304 97.4575L247.253 96.0333C248.79 93.7297 248.486 90.4528 246.558 88.5293C243.23 85.2098 237.729 85.7051 234.159 89.646C230.963 93.1757 230.036 98.0657 231.776 102.219C233.791 107.031 237.827 109.461 243.873 109.503C248.541 109.536 251.295 108.445 254.429 105.319C263.411 96.3593 259.803 79.3552 248.42 76.998C244.808 76.2499 243.249 76.4382 232.903 78.8714C226.491 80.3791 224.304 80.6325 217.891 80.6118C207.738 80.579 199.793 78.7654 191.332 74.5504Z" fill="#1477F8"/>
<path d="M41.4476 22.7928C39.7023 18.8187 35.1158 14.9969 30.1844 13.4077C28.6638 12.9173 26.3973 12.6336 23.9139 12.6223C13.0651 12.5731 3.05031 20.4278 0.596725 30.9094C-0.686668 36.3921 0.094162 41.857 3.01314 47.8193C5.4935 52.8865 10.7204 58.2056 15.7957 60.8277C21.2979 63.6705 24.9463 64.4937 32.1242 64.512C41.3681 64.5355 46.1832 63.1087 58.9156 56.5734C65.7189 53.0814 69.7943 51.6433 75.0977 50.8622C81.3008 49.9488 89.7556 50.8587 95.1658 53.0214C97.338 53.8899 96.8489 53.2215 94.5988 52.2468C89.9954 50.2526 85.2499 49.408 78.7932 49.4341C70.8862 49.4658 67.0417 50.4741 56.8695 55.1835C44.4534 60.9322 40.0052 62.0426 30.9406 61.6553C21.9966 61.2733 15.8065 58.6225 10.3631 52.8443C1.02495 42.9318 0.544441 30.171 9.18166 21.473C17.312 13.2859 29.9204 12.5505 37.2582 19.8356C43.8338 26.3635 42.1822 37.0609 34.2399 39.3859C32.7797 39.8136 31.0746 40.009 30.0323 39.868C28.885 39.7131 28.4961 39.7688 28.9058 40.0299C30.0941 40.787 33.7745 40.4702 36.0133 39.4181C41.8996 36.6519 44.3044 29.2955 41.4476 22.7928Z" fill="#1477F8"/>
<path d="M74.4594 19.739C73.0939 17.505 69.9788 15.0617 67.6164 14.3724C66.8714 14.1549 65.0535 13.9595 63.5773 13.9377C57.9788 13.8559 53.4165 16.911 50.7857 22.5034C49.5235 25.186 49.409 25.7922 49.409 29.7811C49.409 33.5785 49.5546 34.4453 50.5532 36.5901C51.1824 37.9417 52.5146 39.8706 53.5137 40.8767C57.6659 45.0579 62.0135 45.5191 71.8792 42.8261C77.6104 41.2613 78.2815 41.1721 84.6268 41.1377C90.2214 41.1073 91.9516 41.2613 95.1303 42.0746C99.8906 43.2926 104.54 45.2263 108.056 47.4507C110.508 49.0015 110.624 49.0377 109.258 47.8206C105.801 44.7424 99.3219 41.6103 92.9948 39.9585C89.8459 39.1365 88.0487 38.9594 82.8983 38.9642C77.3836 38.9695 75.9269 39.1365 70.7436 40.3588C63.6465 42.0319 61.4029 42.0946 58.433 40.7022C50.3489 36.9117 50.1492 23.3411 58.1028 18.2617C63.1681 15.0269 70.3435 16.7065 72.8515 21.7145C76.5142 29.0283 69.2433 37.6288 62.5839 33.8601C60.0145 32.4058 59.2782 29.6975 60.67 26.8222L61.3442 25.4297L60.4704 26.5176C58.5488 28.9091 58.9744 32.0512 61.5256 34.307C65.3322 37.6727 71.5379 36.0188 74.4262 30.8689C75.6007 28.775 75.7683 28.0632 75.7683 25.1782C75.7683 22.2684 75.6145 21.6283 74.4594 19.739Z" fill="#1477F8"/>
<path d="M29.6032 25.7604C27.9201 24.1983 26.5736 23.5186 23.9139 22.8885C22.5376 22.5626 19.7306 23.0704 17.9844 23.9616C15.3826 25.2892 13.4428 27.2786 12.1745 29.9195C11.175 32.0007 10.9879 32.9519 10.9935 35.9335C10.9996 39.0304 11.1737 39.8297 12.3828 42.3022C14.6259 46.8907 18.1412 49.9941 23.2199 51.87C26.9357 53.2424 34.8418 53.2059 39.3786 51.7951C41.2294 51.2194 42.8213 50.6224 42.916 50.4684C43.0106 50.3144 41.6909 50.4349 39.9827 50.7369C33.7101 51.8456 27.7455 51.1855 23.0294 48.8597C16.2326 45.5087 12.5276 38.3781 14.3407 32.1382C16.4456 24.8958 24.601 22.1048 29.8106 26.8443C30.7267 27.6776 31.476 28.1659 31.476 27.9291C31.476 27.6924 30.6334 26.7164 29.6032 25.7604Z" fill="#1477F8"/>
<path d="M100.977 40.554V71.6539C100.967 76.4574 101.945 81.2109 103.849 85.6159C105.695 89.8938 108.356 93.7662 111.683 97.014C115.038 100.303 118.991 102.911 123.326 104.698C127.845 106.571 132.686 107.53 137.573 107.519H168.584C173.472 107.529 178.314 106.571 182.833 104.698C187.164 102.909 191.113 100.3 194.466 97.014C197.791 93.7649 200.452 89.8928 202.3 85.6159C204.201 81.21 205.179 76.457 205.172 71.6539V40.554C205.181 35.7498 204.203 30.9956 202.3 26.5894C200.452 22.3125 197.791 18.4404 194.466 15.1913C191.113 11.9049 187.164 9.29649 182.833 7.50759C178.316 5.63441 173.475 4.67483 168.589 4.68367H137.578C130.675 4.66951 123.904 6.58775 118.023 10.2238C115.74 11.6419 113.619 13.3077 111.698 15.1913C108.605 18.2145 106.086 21.7797 104.264 25.712C104.128 26.001 104.003 26.2952 103.87 26.5894C101.958 30.9937 100.973 35.7482 100.977 40.554Z" fill="#D58900"/>
<path d="M206.716 24.7639C204.627 19.9275 201.616 15.55 197.853 11.8789C194.059 8.16223 189.59 5.21312 184.69 3.19176C179.58 1.07423 174.105 -0.0102996 168.579 7.37156e-05H137.578C132.052 -0.0102996 126.577 1.07423 121.467 3.19176C121.117 3.33624 120.772 3.48597 120.423 3.64096C115.93 5.63889 111.828 8.42877 108.312 11.8789C105.322 14.7964 102.802 18.1641 100.841 21.8611C100.338 22.8068 99.8731 23.7744 99.4466 24.7639L99.4231 24.8164C99.303 25.0975 99.1855 25.3812 99.0706 25.6649C98.6424 26.7262 98.262 27.7997 97.9295 28.8855C97.0412 31.78 96.4891 34.7683 96.2844 37.7907C96.2218 38.7075 96.1904 39.6295 96.1904 40.5542V71.6541C96.1856 77.083 97.2959 82.4544 99.4519 87.4312C101.542 92.2685 104.553 96.6469 108.317 100.319C112.107 104.034 116.571 106.982 121.467 109.003C126.577 111.121 132.052 112.205 137.578 112.195H168.589C171.021 112.197 173.449 111.989 175.846 111.575C177.174 111.344 178.488 111.05 179.789 110.692C181.459 110.232 183.099 109.668 184.7 109.003C184.915 108.917 185.126 108.825 185.338 108.741C189.986 106.734 194.229 103.884 197.853 100.335C201.117 97.1436 203.818 93.4182 205.841 89.3174C206.146 88.7027 206.436 88.0748 206.708 87.4417C208.864 82.4614 209.974 77.0863 209.967 71.6541V40.5542C209.977 35.1216 208.87 29.7456 206.716 24.7639ZM197.908 83.7904C196.3 87.5101 193.984 90.8771 191.09 93.7017C188.174 96.5595 184.74 98.8273 180.974 100.382C180.462 100.596 179.946 100.794 179.426 100.978C177.126 101.794 174.741 102.346 172.318 102.623C171.08 102.764 169.835 102.834 168.589 102.833H137.578C133.33 102.842 129.122 102.009 125.193 100.382C121.428 98.8273 117.995 96.5595 115.08 93.7017C112.185 90.8779 109.867 87.5107 108.26 83.7904C106.605 79.9612 105.754 75.8295 105.761 71.6541V40.5542C105.758 38.6148 105.94 36.6796 106.304 34.775C106.49 33.7933 106.726 32.8218 107.011 31.8644C107.144 31.4073 107.289 30.9529 107.447 30.501C107.693 29.8005 107.964 29.1 108.26 28.3995C108.395 28.0895 108.536 27.7796 108.68 27.4722C110.263 24.1178 112.43 21.076 115.08 18.4908C117.995 15.6322 121.428 13.3635 125.193 11.808C125.901 11.5138 126.619 11.2458 127.342 11.0068C130.644 9.90818 134.1 9.35116 137.578 9.3571H168.589C172.837 9.34805 177.046 10.1809 180.974 11.808C184.74 13.3635 188.175 15.6322 191.09 18.4908C193.984 21.3144 196.3 24.6806 197.908 28.3995C199.564 32.2293 200.416 36.362 200.41 40.5384V71.6541C200.416 75.8249 199.566 79.9521 197.913 83.7772L197.908 83.7904Z" fill="#1477F8"/>
<path d="M127.342 11.0233C126.618 11.2623 125.9 11.5303 125.193 11.8245C121.427 13.38 117.994 15.6487 115.079 18.5073C112.43 21.0924 110.262 24.1343 108.679 27.4887C105.319 25.994 102.624 23.6823 100.846 21.8619C102.806 18.1648 105.327 14.7971 108.316 11.8796C111.832 8.42666 115.934 5.63409 120.427 3.63379C123.374 5.39801 125.769 7.9581 127.342 11.0233Z" fill="#5E93D9"/>
<path opacity="0.33" d="M107.536 25.6213C108.986 25.5828 110.412 25.5635 111.813 25.5635C172.375 25.6213 192.735 62.3717 198.216 76.0499C198.897 77.6939 199.474 79.3793 199.945 81.0962C199.945 81.0962 200.328 80.9202 201.02 80.5918C201.852 77.6886 202.272 74.6818 202.269 71.6604V40.5552C202.276 36.1347 201.374 31.7604 199.621 27.7071C197.919 23.77 195.467 20.2065 192.403 17.2178C189.318 14.1928 185.683 11.7921 181.697 10.1462C177.539 8.42415 173.084 7.54227 168.586 7.55084H137.578C133.082 7.54228 128.628 8.42416 124.47 10.1462C120.484 11.7917 116.849 14.1924 113.764 17.2178C111.257 19.6679 109.155 22.5047 107.536 25.6213Z" fill="#D58900"/>
<path d="M164.343 14.5798C164.343 14.5798 176.164 13.9283 184.734 19.852C193.304 25.7756 188.453 27.47 177.295 23.6925C166.137 19.915 153.849 15.36 164.343 14.5798Z" fill="#D58900"/>
<path d="M154.645 14.319C150.911 14.0905 146.608 14.1246 146.078 16.0107C145.548 17.8968 152.454 17.6394 155.045 17.0615C157.635 16.4836 156.771 14.4503 154.645 14.319Z" fill="#D58900"/>
<path d="M107.011 31.8681C106.726 32.8256 106.49 33.7971 106.303 34.7787C103.718 33.108 100.48 30.9198 97.9473 28.8866C98.278 27.8026 98.6584 26.729 99.0884 25.666C101.198 27.4313 104.355 29.9899 107.011 31.8681Z" fill="#5E93D9"/>
<path d="M103.898 40.5552V71.6551C103.891 76.0748 104.793 80.4483 106.546 84.5007C108.247 88.4381 110.699 92.0018 113.764 94.9899C116.848 98.017 120.483 100.418 124.47 102.062C128.627 103.785 133.081 104.667 137.578 104.657H168.589C173.086 104.667 177.541 103.785 181.7 102.062C185.687 100.418 189.322 98.0167 192.406 94.9899C196.475 91.0271 199.446 86.0641 201.023 80.5918C201.855 77.6886 202.275 74.6818 202.271 71.6604V40.5552C202.278 36.1347 201.377 31.7604 199.623 27.7071C197.921 23.77 195.469 20.2065 192.406 17.2178C189.32 14.1928 185.686 11.7921 181.7 10.1462C177.541 8.42415 173.086 7.54227 168.589 7.55084H137.578C133.082 7.54228 128.628 8.42416 124.47 10.1462C120.484 11.7917 116.849 14.1924 113.764 17.2178C111.256 19.6687 109.154 22.5064 107.536 25.6239C107.188 26.3034 106.858 26.9987 106.546 27.7097C104.793 31.7622 103.892 36.1356 103.898 40.5552ZM107.619 40.5552C107.615 35.2644 109.067 30.0756 111.813 25.5635C114.525 21.1492 118.318 17.5097 122.83 14.9941C127.341 12.4784 132.42 11.1709 137.578 11.197H168.589C185.136 11.197 198.55 24.3315 198.55 40.5552V71.6551C198.55 73.1265 198.438 74.5957 198.216 76.0499C196.051 90.1774 183.611 101.005 168.589 101.005H137.578C121.033 101.005 107.619 87.871 107.619 71.6472V40.5552Z" fill="#D58900"/>
<path d="M104.474 38.8315V68.6258C104.471 73.1378 105.352 77.606 107.067 81.775C108.782 85.944 111.298 89.7321 114.469 92.9225C117.64 96.1129 121.406 98.6432 125.55 100.369C129.694 102.094 134.136 102.981 138.621 102.978H167.548C175.408 102.98 183.028 100.254 189.123 95.2603C195.217 90.2665 199.412 83.3104 201 75.5661C201.464 73.2822 201.697 70.9569 201.695 68.6258V38.8315C201.697 34.3196 200.816 29.8513 199.101 25.6823C197.386 21.5133 194.871 17.7252 191.699 14.5348C188.528 11.3444 184.763 8.81413 180.618 7.08876C176.474 5.36339 172.033 4.47674 167.548 4.4795H138.621C132.064 4.4823 125.647 6.38199 120.133 9.95206C114.62 13.5221 110.244 18.612 107.526 24.6147C107.401 24.8932 107.265 25.1742 107.161 25.4579C105.379 29.6883 104.465 34.2371 104.474 38.8315Z" fill="#F4F9FF"/>
<path d="M203.118 23.7183C200.165 16.6837 195.215 10.6815 188.888 6.46265C182.561 2.24384 175.138 -0.00413329 167.548 5.14913e-05H138.621C133.456 -0.00843247 128.343 1.03156 123.588 3.05776C123.261 3.19699 122.938 3.33884 122.616 3.48595C114.76 7.0912 108.326 13.2342 104.338 20.9391C103.868 21.8454 103.437 22.7779 103.032 23.7183C103.032 23.7341 103.019 23.7525 103.011 23.7683C102.899 24.0309 102.789 24.3094 102.682 24.5826C102.284 25.6001 101.929 26.6281 101.617 27.6666C100.793 30.4467 100.284 33.3116 100.1 36.2066C100.042 37.084 100.014 37.964 100.014 38.8519V68.6279C100.011 73.7291 101.008 78.7809 102.947 83.4945C104.886 88.208 107.73 92.4908 111.315 96.0981C114.901 99.7054 119.158 102.566 123.843 104.517C128.528 106.469 133.55 107.472 138.621 107.469H167.548C169.818 107.471 172.083 107.271 174.319 106.873C175.558 106.654 176.786 106.372 177.998 106.03C179.557 105.587 181.088 105.046 182.581 104.412C182.779 104.327 182.977 104.241 183.173 104.149C191.536 100.417 198.315 93.826 202.308 85.5451C202.593 84.954 202.864 84.3551 203.118 83.7483C205.132 78.9643 206.166 73.8206 206.157 68.6252V38.8335C206.165 33.6408 205.131 28.4999 203.118 23.7183ZM194.9 80.2519C191.886 87.4115 186.221 93.1108 179.105 96.1446C178.625 96.3469 178.144 96.5387 177.658 96.7147C175.516 97.4945 173.291 98.0233 171.028 98.2908C169.873 98.4256 168.711 98.4932 167.548 98.4931H138.621C134.721 98.4962 130.86 97.7258 127.257 96.226C123.654 94.7262 120.38 92.5264 117.623 89.7525C114.866 86.9787 112.679 83.6851 111.189 80.0603C109.698 76.4355 108.933 72.5506 108.936 68.6279V38.8335C108.936 36.9829 109.105 35.1363 109.443 33.317C109.617 32.3766 109.836 31.4476 110.101 30.5299C110.229 30.0912 110.362 29.6578 110.511 29.2165C110.738 28.5413 110.991 27.8767 111.268 27.2174C111.393 26.9179 111.524 26.6211 111.66 26.3269C114.764 19.5745 120.256 14.2266 127.066 11.3246C127.727 11.0435 128.395 10.7861 129.071 10.5576C132.146 9.50663 135.373 8.97408 138.621 8.98143H167.548C171.445 8.98039 175.304 9.75181 178.905 11.2516C182.506 12.7514 185.778 14.9502 188.534 17.7224C191.289 20.4946 193.475 23.7859 194.967 27.4082C196.458 31.0305 197.225 34.9129 197.224 38.8335V68.6279C197.232 72.6164 196.44 76.5655 194.895 80.2388L194.9 80.2519Z" fill="#8AB9F7"/>
<path d="M129.071 10.5589C128.394 10.7875 127.726 11.0449 127.065 11.326C120.256 14.2279 114.764 19.5759 111.659 26.3282C108.526 24.8966 106.011 22.6847 104.348 20.9404C108.336 13.2356 114.77 7.09256 122.626 3.4873C125.387 5.1949 127.619 7.64407 129.071 10.5589Z" fill="#1477F8"/>
<path opacity="0.12" d="M110.594 24.5375C111.943 24.5007 113.273 24.4832 114.584 24.4849C171.08 24.5401 190.074 59.738 195.187 72.8357C195.822 74.4131 196.361 76.0281 196.801 77.6718C196.801 77.6718 197.158 77.5037 197.803 77.1858C198.581 74.4005 198.973 71.5205 198.968 68.6274V38.8331C198.97 34.6818 198.159 30.5709 196.58 26.7354C195.002 22.8999 192.687 19.4149 189.769 16.4799C186.851 13.5449 183.386 11.2174 179.573 9.6305C175.76 8.04357 171.674 7.22835 167.547 7.23145H138.62C132.816 7.23414 127.126 8.8522 122.18 11.9066C117.233 14.9609 113.223 19.3325 110.594 24.5375Z" fill="white"/>
<path d="M163.587 13.9635C163.587 13.9635 174.616 13.341 182.609 19.0124C190.602 24.6839 186.08 26.3047 175.671 22.6901C165.263 19.0755 153.797 14.7122 163.587 13.9635Z" fill="#1477F8"/>
<path d="M154.54 13.715C151.057 13.4969 147.041 13.5285 146.547 15.3358C146.054 17.1431 152.496 16.8935 154.903 16.334C157.311 15.7745 156.522 13.8384 154.54 13.715Z" fill="#1477F8"/>
<path d="M110.1 30.5215C109.837 31.4391 109.618 32.3682 109.442 33.3086C107.032 31.7088 104.011 29.6125 101.635 27.666C101.946 26.6258 102.302 25.5978 102.7 24.582C104.682 26.2711 107.625 28.722 110.1 30.5215Z" fill="#1477F8"/>
<g clip-path="url(#clip0_19897_200829)">
<path d="M159.401 69.5117H152.788L152.331 71.8732L151.079 73.9292L156.098 74.2398L161.331 73.9292L160.424 71.5822L159.401 69.5117Z" fill="#FFD064"/>
<path d="M160.423 71.5829L155.148 71.5826C154.966 71.5826 154.802 71.695 154.737 71.8655L153.939 73.9299L152.531 74.3034L151.079 73.9299L152.788 69.5118L156.06 69.1045L159.623 69.5118L160.423 71.5829Z" fill="#FFC250"/>
<path d="M160.049 32.798C160.049 31.4657 158.586 29.3911 157.445 27.9763C156.762 27.129 155.476 27.129 154.793 27.9763C154.551 28.2762 154.295 28.6056 154.041 28.9514C154.041 28.9514 153.999 29.0482 153.965 29.0954C153.059 30.3494 152.337 31.7574 152.337 32.7693C152.337 34.9529 153.949 36.8793 156.119 36.8793C157.553 36.8793 158.714 36.1208 159.4 34.8873C159.472 34.7595 159.688 34.5058 159.688 34.5058C159.92 33.9721 160.049 33.3903 160.049 32.798Z" fill="#FFE07D"/>
<path d="M159.688 34.5055C159.066 35.9402 157.701 37.0235 156.118 37.0235C153.948 37.0235 152.188 34.9808 152.188 32.7977C152.188 31.7461 153.097 30.238 154.041 28.9512C153.891 29.3638 153.806 29.7478 153.806 30.091C153.806 32.527 155.769 34.8048 158.192 34.8048C158.717 34.8047 159.221 34.6992 159.688 34.5055Z" fill="#FFD064"/>
<path d="M157.585 37.0234H154.826C154.267 37.0234 153.72 37.0904 153.192 37.2182C153.192 37.2182 152.674 37.5178 152.378 37.6343C150.382 38.4194 148.892 39.9804 148.189 42.1803H164.439H164.156C163.915 41.4243 163.414 40.1096 163.414 40.1096C162.079 38.2061 159.931 37.0234 157.585 37.0234Z" fill="#FFE07D"/>
<path d="M164.438 42.1806L156.193 42.7698L147.971 42.1806C148.778 39.6528 150.78 37.8005 153.191 37.2178C152.637 37.8085 152.173 38.4979 151.825 39.265C151.646 39.6599 151.926 40.1098 152.357 40.1098L163.414 40.1091C163.849 40.729 164.197 41.4248 164.438 42.1806Z" fill="#FFD064"/>
<path d="M164.321 42.1797H148.088C147.627 42.1797 147.181 42.2409 146.756 42.3556C146.756 42.3556 146.519 42.4956 146.383 42.5453C144.413 43.2645 143.121 45.1062 143.121 47.3365H169.204C169.204 46.6025 169.141 45.9632 168.866 45.3312C168.822 45.2285 168.876 44.9697 168.876 44.9697C168.024 43.3124 166.304 42.1797 164.321 42.1797Z" fill="#FFE07D"/>
<path d="M169.447 47.3365L157.049 48.113L142.962 47.3365C142.962 44.9522 144.572 42.9441 146.757 42.3555C146.412 42.9425 146.18 43.605 146.091 44.3113C146.047 44.6617 146.325 44.9698 146.676 44.9698L168.877 44.9696C169.242 45.6782 169.447 46.483 169.447 47.3365Z" fill="#FFD064"/>
<path d="M170.227 32.5396L170.984 32.9011C171.87 33.4001 172.748 34.2839 173.244 35.175L173.604 35.9366C173.747 36.1941 174.115 36.1941 174.259 35.9366L174.618 35.175C174.93 34.6155 175.419 34.0134 175.896 33.5964C176.055 33.4574 176.458 33.3114 176.458 33.3114C176.594 33.2179 176.734 33.1303 176.878 33.049L177.783 32.5396C178.039 32.3954 178.039 32.0249 177.783 31.8806L176.878 31.3712C175.993 30.8722 175.261 30.1364 174.765 29.2452L174.259 28.3357C174.115 28.0782 173.747 28.0782 173.604 28.3357L173.097 29.2452C172.824 29.7357 172.48 30.179 172.078 30.5617C172.078 30.5617 171.883 30.8692 171.754 30.9717C171.527 31.1518 171.238 31.3761 170.984 31.5192L170.227 31.8806C169.971 32.0249 169.971 32.3954 170.227 32.5396Z" fill="#FEE581"/>
<path d="M176.458 33.311C175.76 33.7917 175.181 34.4285 174.765 35.1754L174.259 36.0836C174.115 36.3424 173.748 36.3424 173.603 36.0836L173.098 35.1754C172.601 34.2835 171.87 33.5484 170.983 33.0485L170.081 32.5397C169.823 32.3947 169.823 32.0249 170.081 31.88L170.983 31.3712C171.382 31.1464 171.75 30.8751 172.078 30.5615C172.759 32.1826 174.352 33.3191 176.21 33.3191C176.294 33.3191 176.376 33.3156 176.458 33.311Z" fill="#FEE581"/>
<path d="M129.459 83.1566L130.709 83.7959C132.078 84.5673 133.356 85.8523 134.122 87.2295L134.611 88.3394C134.832 88.7373 135.401 88.7373 135.623 88.3394L136.258 87.2295C136.641 86.5411 137.142 85.8884 137.719 85.3358C137.795 85.2621 138.035 85.1435 138.035 85.1435C138.529 84.6817 139.078 84.2784 139.671 83.9438L141.069 83.1566C141.464 82.9337 141.464 82.3612 141.069 82.1383L139.671 81.3511C138.302 80.5798 137.172 79.4426 136.405 78.0655L135.623 76.6597C135.401 76.2619 134.832 76.2619 134.611 76.6597L133.828 78.0655C133.441 78.76 132.962 79.3935 132.407 79.9498C132.407 79.9498 132.383 80.0022 132.365 80.0202C131.832 80.5441 131.221 81.0269 130.565 81.3965L129.459 82.1383C129.063 82.3612 129.063 82.9337 129.459 83.1566Z" fill="#FEE581"/>
<path d="M138.035 85.1439C137.39 85.7491 136.839 86.4501 136.405 87.2295L135.622 88.6359C135.4 89.0328 134.833 89.0328 134.611 88.6359L133.827 87.2295C133.062 85.8521 131.931 84.7151 130.562 83.9446L129.164 83.1561C128.77 82.9334 128.77 82.3623 129.164 82.1395L130.562 81.351C131.24 80.9703 131.86 80.4979 132.406 79.9502C133.326 82.4772 135.426 84.4344 138.035 85.1439Z" fill="#FEE581"/>
<path d="M175.594 77.8904L176.623 78.4169C177.751 79.0521 178.803 80.1105 179.434 81.2447L179.837 82.1587C180.019 82.4865 180.488 82.4865 180.67 82.1587L181.194 81.2447C181.509 80.6779 181.922 80.1402 182.396 79.6851C182.46 79.6245 182.657 79.5267 182.657 79.5267C183.064 79.1463 183.516 78.8142 184.005 78.5387L185.155 77.8904C185.481 77.7068 185.481 77.2353 185.155 77.0517L184.005 76.4034C182.877 75.7683 181.946 74.8318 181.315 73.6975L180.67 72.5398C180.488 72.212 180.019 72.212 179.837 72.5398L179.192 73.6975C178.874 74.2694 178.479 74.7912 178.022 75.2493C178.022 75.2493 178.002 75.2925 177.987 75.3073C177.548 75.7387 177.045 76.1363 176.505 76.4407L175.594 77.0516C175.268 77.2351 175.268 77.7068 175.594 77.8904Z" fill="#FEE581"/>
<path d="M182.657 79.5263C182.126 80.0247 181.672 80.602 181.315 81.2439L180.669 82.4021C180.487 82.7289 180.019 82.7289 179.837 82.4021L179.192 81.2439C178.561 80.1095 177.63 79.1732 176.502 78.5385L175.351 77.8892C175.026 77.7058 175.026 77.2354 175.351 77.052L176.502 76.4027C177.061 76.0891 177.571 75.7001 178.021 75.249C178.778 77.3303 180.508 78.942 182.657 79.5263Z" fill="#FEE581"/>
<path d="M165.947 66.5904C165.35 66.5904 164.772 66.3415 164.359 65.8905C163.84 65.3248 163.657 64.5255 163.878 63.7889L166.439 55.2561C166.547 54.8973 166.745 54.5727 167.014 54.3137L174.319 47.2846C176.512 45.1742 179.595 44.2879 182.565 44.9136C185.535 45.5394 188.006 47.5955 189.173 50.4138C190.227 52.959 190.103 55.82 188.833 58.2634C187.563 60.7069 185.298 62.4417 182.619 63.023L166.402 66.5418C166.251 66.5743 166.098 66.5904 165.947 66.5904ZM170.411 57.0596L169.074 61.5148L181.708 58.7734C183.129 58.4652 184.331 57.545 185.004 56.2489C185.678 54.9528 185.743 53.4352 185.184 52.0853C184.556 50.568 183.278 49.5047 181.679 49.1679C180.08 48.831 178.486 49.2895 177.305 50.4256L170.411 57.0596Z" fill="#FFE07D"/>
<path d="M176.057 59.9994C175.841 61.0259 175.516 62.0391 175.078 63.0242C174.791 63.6676 174.463 64.2845 174.096 64.8717L166.402 66.5413C166.25 66.5738 166.097 66.5901 165.946 66.5901C165.35 66.5901 164.773 66.3416 164.358 65.8905C163.841 65.324 163.657 64.5253 163.879 63.7887L166.438 55.2558C166.547 54.8964 166.744 54.5725 167.013 54.3136L173.456 48.1133C174.368 49.3439 175.072 50.6913 175.559 52.1054L170.411 57.0588L169.075 61.5139L176.057 59.9994Z" fill="#FFD064"/>
<path d="M169.447 47.3369L142.964 47.3371H126.915C123.637 47.3371 120.499 48.5791 118.11 50.7822C118.11 50.7822 118.056 50.948 117.995 51.0058C117.678 51.3093 117.455 51.5779 117.167 51.9154C116.69 52.4762 117.091 53.1938 117.825 53.1863L121.931 53.1426C128.533 53.0749 134.853 56.5743 138.42 62.1632C141.343 66.743 146.507 69.3181 151.918 69.3181L161.143 69.3559C163.802 69.3559 166.365 68.6416 168.463 67.1761C168.555 67.1118 168.807 66.9974 168.807 66.9974C170.507 65.7256 171.896 64.02 172.798 61.9949C174.808 57.4857 173.942 52.2048 170.599 48.5836L169.447 47.3369Z" fill="#FFE07D"/>
<path d="M168.808 66.9977C166.669 68.5981 164.036 69.5116 161.259 69.5116H151.644C148.938 69.5116 146.326 68.8194 144.025 67.5547C141.724 66.2901 139.733 64.4531 138.271 62.1635C134.705 56.574 128.531 53.2223 121.93 53.2904L117.676 53.3348C117.163 53.3407 116.812 52.9162 116.812 52.4695C116.812 52.2787 116.876 52.0834 117.019 51.9148C117.361 51.5125 117.726 51.1358 118.11 50.7823C120.564 50.7823 122.697 50.7818 122.713 50.7833C129.903 50.9756 136.472 54.6911 140.375 60.8042C142.85 64.6823 147.062 66.9971 151.644 66.9971L168.808 66.9977Z" fill="#FFD064"/>
<path d="M162.473 73.9297H149.936C149.57 73.9297 149.218 73.9781 148.887 74.0689C148.718 74.1152 148.535 74.2356 148.377 74.3033C146.931 74.9214 145.986 76.3319 145.986 78.0513V77.9034C145.986 78.3118 146.316 78.643 146.721 78.643H165.688C166.094 78.643 166.423 78.3118 166.423 77.9034C166.423 77.5885 166.443 77.4461 166.377 77.1514C166.356 77.0609 166.398 76.8672 166.398 76.8672C165.893 75.1678 164.326 73.9297 162.473 73.9297Z" fill="#FFE07D"/>
<path d="M166.57 78.0501C166.57 78.4598 166.24 78.7896 165.834 78.7896H146.574C146.371 78.7896 146.187 78.7068 146.055 78.5737C145.921 78.4406 145.839 78.2542 145.839 78.0501C145.839 76.1406 147.133 74.5328 148.887 74.0684C148.539 74.6748 148.338 75.3774 148.338 76.1273V76.4231C148.338 76.6686 148.537 76.8668 148.779 76.8668L166.398 76.8665C166.51 77.2409 166.57 77.6389 166.57 78.0501Z" fill="#FFD064"/>
<path d="M127.548 30.057L128.798 30.6963C130.167 31.4676 131.444 32.7527 132.211 34.1299L132.699 35.2398C132.921 35.6376 133.49 35.6376 133.712 35.2398L134.347 34.1299C134.73 33.4415 135.231 32.7888 135.807 32.2362C135.884 32.1625 136.124 32.0439 136.124 32.0439C136.618 31.582 137.167 31.1788 137.76 30.8442L139.158 30.057C139.553 29.8341 139.553 29.2616 139.158 29.0387L137.76 28.2515C136.391 27.4802 135.261 26.343 134.494 24.9659L133.712 23.5601C133.49 23.1622 132.921 23.1622 132.699 23.5601L131.917 24.9659C131.53 25.6604 131.051 26.2939 130.495 26.8502C130.495 26.8502 130.472 26.9026 130.454 26.9206C129.921 27.4445 129.31 27.9273 128.654 28.2969L127.548 29.0387C127.152 29.2616 127.152 29.8341 127.548 30.057Z" fill="#FEE581"/>
<path d="M136.124 32.0433C135.479 32.6485 134.928 33.3495 134.494 34.129L133.711 35.5353C133.489 35.9323 132.921 35.9323 132.7 35.5353L131.916 34.129C131.15 32.7515 130.02 31.6145 128.651 30.844L127.253 30.0555C126.858 29.8328 126.858 29.2617 127.253 29.039L128.651 28.2505C129.329 27.8697 129.949 27.3973 130.495 26.8496C131.415 29.3768 133.515 31.3339 136.124 32.0433Z" fill="#FEE581"/>
<path d="M120.385 67.2984L121.142 67.6599C122.028 68.1589 122.907 69.0427 123.403 69.9338L123.762 70.6954C123.905 70.9529 124.274 70.9529 124.417 70.6954L124.776 69.9338C125.088 69.3743 125.577 68.7721 126.054 68.3552C126.213 68.2163 126.616 68.0702 126.616 68.0702C126.752 67.9767 126.892 67.8891 127.037 67.8078L127.941 67.2984C128.197 67.1542 128.197 66.7837 127.941 66.6394L127.037 66.13C126.151 65.631 125.419 64.8951 124.923 64.004L124.417 63.0945C124.274 62.837 123.905 62.837 123.762 63.0945L123.256 64.004C122.983 64.4945 122.638 64.9377 122.236 65.3205C122.236 65.3205 122.041 65.628 121.912 65.7305C121.686 65.9105 121.396 66.1349 121.142 66.278L120.385 66.6394C120.129 66.7837 120.129 67.1542 120.385 67.2984Z" fill="#FEE581"/>
<path d="M126.616 68.0698C125.918 68.5505 125.339 69.1872 124.923 69.9342L124.417 70.8423C124.273 71.1012 123.906 71.1012 123.762 70.8423L123.256 69.9342C122.759 69.0423 122.028 68.3072 121.142 67.8073L120.239 67.2984C119.982 67.1535 119.982 66.7837 120.239 66.6388L121.142 66.13C121.54 65.9051 121.908 65.6339 122.236 65.3203C122.917 66.9414 124.51 68.0779 126.368 68.0779C126.452 68.0779 126.534 68.0744 126.616 68.0698Z" fill="#FEE581"/>
<path d="M190.192 49.9859C188.885 46.8299 186.119 44.5274 182.792 43.8266C179.465 43.1257 176.013 44.1186 173.558 46.4817L171.753 48.2183C171.621 48.0542 170.752 47.1197 170.533 46.8818C170.322 43.9495 168.079 41.5624 165.231 41.1379C164.238 38.7459 162.266 36.9734 159.912 36.2597C160.681 35.3199 161.153 34.105 161.153 32.797C161.153 32.306 161.153 30.8117 158.303 27.2765C157.767 26.6116 156.971 26.2305 156.12 26.2305C155.27 26.2305 154.474 26.6118 153.938 27.2765C151.088 30.8117 151.088 32.306 151.088 32.797C151.088 34.1242 151.574 35.3562 152.363 36.3015C150.068 37.0406 148.154 38.7899 147.18 41.1381C144.549 41.5312 142.433 43.6014 141.961 46.227H126.915C122.783 46.227 118.872 48.037 116.183 51.1928C115.677 51.787 115.566 52.5966 115.895 53.3058C116.223 54.0151 116.915 54.4539 117.689 54.4428L121.942 54.3992C124.871 54.3714 127.805 55.0682 130.413 56.4207C130.575 56.5044 130.747 56.5442 130.918 56.5442C131.317 56.5442 131.703 56.325 131.899 55.9429C132.178 55.3983 131.965 54.7293 131.424 54.4486C128.498 52.9312 125.21 52.1476 121.919 52.1807L118.231 52.2185C120.481 49.8141 123.615 48.4458 126.914 48.4458H148.878C149.487 48.4458 149.981 47.9492 149.981 47.3365C149.981 46.7239 149.487 46.2272 148.878 46.2272H144.222C144.705 44.5359 146.263 43.2888 148.089 43.2888H164.322C166.15 43.2888 167.707 44.5354 168.19 46.2272H154.024C153.415 46.2272 152.922 46.7239 152.922 47.3365C152.922 47.9492 153.415 48.4458 154.024 48.4458H168.968C172.573 51.8115 173.817 57.0209 171.792 61.5405C169.934 65.7088 165.8 68.402 161.26 68.402H151.644C146.586 68.402 141.934 65.8454 139.2 61.5632C138.258 60.0858 137.128 58.7359 135.844 57.5504C135.395 57.1362 134.697 57.1664 134.286 57.618C133.874 58.0694 133.904 58.7711 134.353 59.1854C135.498 60.2419 136.504 61.4451 137.345 62.762C140.401 67.5511 145.547 70.4611 151.179 70.6134L150.325 72.8195H149.937C147.07 72.8195 144.738 75.1661 144.738 78.0504C144.738 79.07 145.562 79.8993 146.576 79.8993H153.029C153.638 79.8993 154.131 79.4026 154.131 78.79C154.131 78.1773 153.638 77.6807 153.029 77.6807H146.966C147.147 76.1936 148.411 75.0381 149.937 75.0381H162.474C164.001 75.0381 165.264 76.1936 165.446 77.6807H158.174C157.565 77.6807 157.072 78.1773 157.072 78.79C157.072 79.4026 157.565 79.8993 158.174 79.8993H165.836C166.849 79.8993 167.674 79.07 167.674 78.0504C167.674 75.1662 165.341 72.8195 162.474 72.8195H162.086L161.235 70.6207H161.26C164.893 70.6207 168.306 69.1712 170.827 66.7154L182.853 64.1062C185.853 63.4552 188.389 61.5126 189.812 58.7762C191.234 56.0399 191.373 52.8361 190.192 49.9859ZM155.651 28.6741C155.809 28.4782 156.013 28.4491 156.121 28.4491C156.228 28.4491 156.432 28.4782 156.59 28.6741C158.329 30.8301 158.948 32.2175 158.948 32.797C158.948 34.4279 157.6 35.9132 156.121 35.9132C154.641 35.9132 153.293 34.4279 153.293 32.797C153.293 32.2175 153.912 30.8301 155.651 28.6741ZM154.826 38.1318H157.585C159.687 38.1318 161.613 39.2691 162.725 41.0702H149.687C150.797 39.2682 152.72 38.1318 154.826 38.1318ZM159.72 72.8193H152.692L153.543 70.6205H158.869L159.72 72.8193ZM187.857 57.7481C186.74 59.8987 184.746 61.4256 182.388 61.9372L173.005 63.9732C173.483 63.1264 173.688 62.8066 174.169 61.5436L181.942 59.8569C183.684 59.4788 185.157 58.3509 185.983 56.762C186.53 55.7085 186.755 54.5292 186.633 53.3517C186.57 52.7423 186.028 52.2989 185.422 52.3635C184.816 52.4271 184.376 52.9726 184.44 53.582C184.517 54.3242 184.374 55.0683 184.028 55.7341C183.507 56.7373 182.577 57.4495 181.477 57.6881L174.797 59.1376C175.055 57.568 175.03 55.9757 174.736 54.4336L178.069 51.2262C178.983 50.3468 180.217 49.9918 181.455 50.2527C181.705 50.3053 181.947 50.3814 182.177 50.4787C182.738 50.7171 183.385 50.4527 183.621 49.8884C183.858 49.324 183.596 48.6732 183.035 48.4349C182.675 48.2819 182.295 48.163 181.907 48.0811C179.947 47.6681 177.992 48.2299 176.545 49.6229L174.042 52.0307C173.772 51.3426 173.442 50.6748 173.057 50.0333L175.082 48.0849C177.013 46.2275 179.726 45.4473 182.34 45.9981C184.955 46.5489 187.129 48.3586 188.157 50.839C189.084 53.0794 188.975 55.5975 187.857 57.7481Z" fill="#331E00"/>
<path d="M185.695 76.0825L184.544 75.4344C183.594 74.8988 182.81 74.1104 182.278 73.1543L181.633 71.9967C181.354 71.4952 180.826 71.1836 180.254 71.1836C179.683 71.1836 179.155 71.4951 178.876 71.9967L178.231 73.1543C177.699 74.1104 176.915 74.8988 175.965 75.4344L174.814 76.0826C174.316 76.3635 174.006 76.895 174.006 77.4697C174.006 78.0445 174.315 78.5759 174.814 78.8568L175.965 79.505C176.915 80.0405 177.699 80.8289 178.231 81.785L178.876 82.9427C179.155 83.4441 179.683 83.7557 180.254 83.7557C180.826 83.7557 181.354 83.4442 181.633 82.9427L182.278 81.785C182.81 80.8289 183.594 80.0405 184.544 79.505L185.695 78.8567C186.193 78.5758 186.503 78.0444 186.503 77.4696C186.503 76.8948 186.193 76.3635 185.695 76.0825ZM183.467 77.5696C182.161 78.305 181.085 79.388 180.354 80.7013L180.254 80.8793L180.155 80.7013C179.424 79.388 178.348 78.305 177.042 77.5696L176.865 77.4699L177.042 77.3702C178.348 76.6348 179.424 75.5518 180.155 74.2385L180.254 74.0604L180.354 74.2385C181.085 75.5518 182.161 76.6348 183.467 77.3702L183.644 77.4699L183.467 77.5696Z" fill="#1477F8"/>
<path d="M141.608 81.1702L140.211 80.3831C139.019 79.7114 138.036 78.7226 137.368 77.5234L136.586 76.1177C136.289 75.5837 135.726 75.252 135.118 75.252C134.509 75.252 133.947 75.5837 133.65 76.1177L132.867 77.5234C132.199 78.7226 131.217 79.7116 130.024 80.3831L128.627 81.1702C128.096 81.4693 127.767 82.0352 127.767 82.6473C127.767 83.2593 128.096 83.8252 128.627 84.1243L130.024 84.9115C131.217 85.5831 132.2 86.5719 132.867 87.7711L133.65 89.1769C133.947 89.7108 134.509 90.0426 135.118 90.0426C135.726 90.0426 136.289 89.7108 136.586 89.1769L137.368 87.7711C138.036 86.5719 139.019 85.583 140.211 84.9115L141.608 84.1243C142.139 83.8252 142.469 83.2593 142.469 82.6473C142.469 82.0352 142.139 81.4693 141.608 81.1702ZM139.133 82.9758C137.586 83.8474 136.311 85.1308 135.444 86.6873L135.118 87.2739L134.791 86.6873C133.925 85.1308 132.649 83.8474 131.102 82.9758L130.519 82.6473L131.102 82.3188C132.649 81.4471 133.925 80.1637 134.791 78.6073L135.118 78.0207L135.444 78.6073C136.311 80.1637 137.586 81.4471 139.133 82.3188L139.717 82.6473L139.133 82.9758Z" fill="#1477F8"/>
<path d="M126.715 31.0247L128.112 31.8118C129.304 32.4835 130.287 33.4723 130.955 34.6715L131.737 36.0773C132.035 36.6112 132.597 36.943 133.206 36.943C133.814 36.943 134.377 36.6112 134.674 36.0773L135.456 34.6715C136.124 33.4723 137.107 32.4834 138.299 31.8118L139.696 31.0247C140.227 30.7256 140.557 30.1597 140.557 29.5477C140.557 28.9356 140.227 28.3697 139.696 28.0706L138.299 27.2835C137.107 26.6118 136.124 25.623 135.456 24.4238L134.674 23.0181C134.377 22.4841 133.814 22.1523 133.206 22.1523C132.597 22.1523 132.035 22.4841 131.737 23.0181L130.955 24.4238C130.287 25.623 129.304 26.612 128.112 27.2835L126.715 28.0706C126.184 28.3697 125.854 28.9356 125.854 29.5477C125.854 30.1597 126.184 30.7256 126.715 31.0247ZM129.19 29.2191C130.737 28.3475 132.013 27.0641 132.879 25.5077L133.206 24.9211L133.532 25.5077C134.399 27.0641 135.675 28.3475 137.222 29.2191L137.805 29.5477L137.222 29.8762C135.675 30.7478 134.399 32.0312 133.532 33.5876L133.206 34.1743L132.879 33.5876C132.013 32.0312 130.737 30.7478 129.19 29.8762L128.607 29.5477L129.19 29.2191Z" fill="#1477F8"/>
<path d="M169.542 33.5072L170.446 34.0166C171.155 34.4158 171.739 35.0037 172.136 35.7167L172.642 36.6263C172.903 37.0952 173.398 37.3865 173.932 37.3865C174.466 37.3865 174.96 37.0952 175.221 36.6261L175.728 35.7167C176.125 35.0037 176.709 34.4158 177.418 34.0166L178.322 33.5072C178.788 33.2445 179.078 32.7474 179.078 32.2099C179.078 31.6724 178.788 31.1753 178.322 30.9126L177.418 30.4032C176.709 30.004 176.125 29.416 175.728 28.7031L175.221 27.7935C174.96 27.3246 174.466 27.0332 173.932 27.0332C173.398 27.0332 172.903 27.3246 172.642 27.7936L172.136 28.7031C171.739 29.416 171.155 30.004 170.446 30.4032L169.542 30.9126C169.076 31.1753 168.786 31.6724 168.786 32.2099C168.786 32.7474 169.076 33.2445 169.542 33.5072ZM173.932 30.0075C174.478 30.9059 175.228 31.6604 176.121 32.2099C175.228 32.7594 174.478 33.5138 173.932 34.4122C173.386 33.5138 172.636 32.7594 171.743 32.2099C172.636 31.6605 173.386 30.9059 173.932 30.0075Z" fill="#1477F8"/>
<path d="M129.236 66.9687C129.236 66.4312 128.946 65.934 128.48 65.6714L127.576 65.162C126.867 64.7627 126.283 64.1748 125.886 63.4619L125.38 62.5522C125.119 62.0834 124.624 61.792 124.09 61.792C123.556 61.792 123.062 62.0834 122.801 62.5524L122.294 63.4619C121.897 64.1748 121.313 64.7627 120.604 65.162L119.7 65.6714C119.234 65.934 118.944 66.4312 118.944 66.9687C118.944 67.5062 119.234 68.0033 119.7 68.266L120.604 68.7754C121.313 69.1746 121.897 69.7625 122.294 70.4754L122.801 71.3851C123.062 71.854 123.556 72.1453 124.09 72.1453C124.624 72.1453 125.119 71.854 125.38 71.3849L125.886 70.4754C126.283 69.7625 126.867 69.1746 127.576 68.7754L128.48 68.266C128.946 68.0033 129.236 67.5062 129.236 66.9687ZM124.09 69.1712C123.544 68.2728 122.794 67.5183 121.901 66.9688C122.794 66.4193 123.544 65.6648 124.09 64.7664C124.636 65.6648 125.386 66.4193 126.279 66.9688C125.386 67.5181 124.636 68.2726 124.09 69.1712Z" fill="#1477F8"/>
</g>
<defs>
<clipPath id="clip0_19897_200829">
<rect width="75.2797" height="75.7317" fill="white" transform="matrix(-1 0 0 1 190.987 18.2314)"/>
</clipPath>
</defs>
</svg>
