<svg width="25" height="25" viewBox="0 0 25 25" fill="none" xmlns="http://www.w3.org/2000/svg">
<mask id="path-1-inside-1_25398_329295" fill="white">
<path d="M21.5858 7.36064C21.0225 7.06487 20.3583 7.127 19.855 7.52515C19.8225 7.55053 19.7917 7.5794 19.7633 7.60915L18.2992 9.16063C18.1233 6.91611 16.3483 5.14063 14.1667 5.14063H6.66667C4.36917 5.13975 2.5 7.1025 2.5 9.51502V14.7654C2.5 17.1779 4.36917 19.1406 6.66667 19.1406H14.1667C16.3575 19.1406 18.14 17.3494 18.3017 15.0917L19.765 16.6266C19.7933 16.6555 19.8225 16.6817 19.8542 16.7071C20.1475 16.9381 20.4942 17.0554 20.8442 17.0554C21.0967 17.0554 21.3492 16.995 21.5858 16.8707C22.15 16.575 22.5 15.9791 22.5 15.3184V8.91474C22.5 8.25232 22.15 7.65641 21.5858 7.36064ZM14.1667 17.3905H6.66667C5.28833 17.3905 4.16667 16.2127 4.16667 14.7654V9.51502C4.16667 8.06768 5.28833 6.88986 6.66667 6.88986H14.1667C15.545 6.88986 16.6667 8.06768 16.6667 9.51502V14.7654C16.6667 16.2127 15.545 17.3905 14.1667 17.3905ZM18.3333 12.6503V11.6099L20.8333 8.96024L20.8542 15.2939L18.3333 12.6495V12.6503Z"/>
</mask>
<path d="M21.5858 7.36064C21.0225 7.06487 20.3583 7.127 19.855 7.52515C19.8225 7.55053 19.7917 7.5794 19.7633 7.60915L18.2992 9.16063C18.1233 6.91611 16.3483 5.14063 14.1667 5.14063H6.66667C4.36917 5.13975 2.5 7.1025 2.5 9.51502V14.7654C2.5 17.1779 4.36917 19.1406 6.66667 19.1406H14.1667C16.3575 19.1406 18.14 17.3494 18.3017 15.0917L19.765 16.6266C19.7933 16.6555 19.8225 16.6817 19.8542 16.7071C20.1475 16.9381 20.4942 17.0554 20.8442 17.0554C21.0967 17.0554 21.3492 16.995 21.5858 16.8707C22.15 16.575 22.5 15.9791 22.5 15.3184V8.91474C22.5 8.25232 22.15 7.65641 21.5858 7.36064ZM14.1667 17.3905H6.66667C5.28833 17.3905 4.16667 16.2127 4.16667 14.7654V9.51502C4.16667 8.06768 5.28833 6.88986 6.66667 6.88986H14.1667C15.545 6.88986 16.6667 8.06768 16.6667 9.51502V14.7654C16.6667 16.2127 15.545 17.3905 14.1667 17.3905ZM18.3333 12.6503V11.6099L20.8333 8.96024L20.8542 15.2939L18.3333 12.6495V12.6503Z" fill="#3EA8FF"/>
<path d="M21.5858 7.36064L11.6689 26.2489L11.6804 26.2549L21.5858 7.36064ZM19.855 7.52515L32.9842 24.3399L33.0373 24.2984L33.0901 24.2567L19.855 7.52515ZM19.7633 7.60915L4.3146 -7.10301L4.2813 -7.06804L4.24816 -7.03293L19.7633 7.60915ZM18.2992 9.16063L-2.96901 10.8268L0.788966 58.7973L33.8143 23.8027L18.2992 9.16063ZM6.66667 5.14063L6.65854 26.474H6.66667V5.14063ZM18.3017 15.0917L33.742 0.370796L0.467074 -34.5303L-2.97718 13.568L18.3017 15.0917ZM19.765 16.6266L4.32464 31.3475L4.43025 31.4583L4.53744 31.5676L19.765 16.6266ZM19.8542 16.7071L6.51348 33.3545L6.58398 33.411L6.65497 33.4669L19.8542 16.7071ZM21.5858 16.8707L11.6804 -2.02353L11.6689 -2.0175L21.5858 16.8707ZM18.3333 11.6099L2.81652 -3.03044L-3 3.1343V11.6099H18.3333ZM20.8333 8.96024L42.1665 8.89007L41.9908 -44.5499L5.31652 -5.68011L20.8333 8.96024ZM20.8542 15.2939L5.41272 30.0137L42.3635 68.776L42.1874 15.2237L20.8542 15.2939ZM18.3333 12.6495L33.7748 -2.07034L-3 -40.648V12.6495H18.3333ZM31.5028 -11.5276C23.4301 -15.766 13.6973 -14.8048 6.61992 -9.20638L33.0901 24.2567C27.0194 29.0588 18.6149 29.8957 11.6689 26.2489L31.5028 -11.5276ZM6.72577 -9.28956C5.69594 -8.48545 4.89367 -7.71107 4.3146 -7.10301L35.2121 22.3213C34.6897 22.8699 33.9491 23.5865 32.9842 24.3399L6.72577 -9.28956ZM4.24816 -7.03293L2.784 -5.48146L33.8143 23.8027L35.2785 22.2512L4.24816 -7.03293ZM39.5673 7.4945C38.6125 -4.69374 28.6094 -16.1927 14.1667 -16.1927V26.474C4.08723 26.474 -2.36586 18.526 -2.96901 10.8268L39.5673 7.4945ZM14.1667 -16.1927H6.66667V26.474H14.1667V-16.1927ZM6.67479 -16.1927C-8.38302 -16.1984 -18.8333 -3.68347 -18.8333 9.51502H23.8333C23.8333 17.8885 17.1214 26.4779 6.65854 26.474L6.67479 -16.1927ZM-18.8333 9.51502V14.7654H23.8333V9.51502H-18.8333ZM-18.8333 14.7654C-18.8333 27.9659 -8.38302 40.474 6.66667 40.474V-2.19271C17.1213 -2.19271 23.8333 6.38989 23.8333 14.7654H-18.8333ZM6.66667 40.474H14.1667V-2.19271H6.66667V40.474ZM14.1667 40.474C28.6637 40.474 38.7017 28.8874 39.5805 16.6155L-2.97718 13.568C-2.42174 5.81135 4.05129 -2.19271 14.1667 -2.19271V40.474ZM2.86131 29.8127L4.32464 31.3475L35.2054 1.90564L33.742 0.370796L2.86131 29.8127ZM4.53744 31.5676C5.18458 32.2271 5.84718 32.8206 6.51348 33.3545L33.1949 0.0596604C33.7978 0.54286 34.4021 1.08382 34.9926 1.68562L4.53744 31.5676ZM6.65497 33.4669C10.6725 36.6309 15.6582 38.3887 20.8442 38.3887V-4.27796C25.3302 -4.27796 29.6226 -2.75468 33.0534 -0.052743L6.65497 33.4669ZM20.8442 38.3887C24.5487 38.3887 28.2047 37.4906 31.5028 35.759L11.6689 -2.0175C14.4937 -3.5006 17.6447 -4.27796 20.8442 -4.27796V38.3887ZM31.4913 35.765C39.4334 31.6013 43.8333 23.5067 43.8333 15.3184H1.16667C1.16667 8.45144 4.86662 1.54864 11.6804 -2.02353L31.4913 35.765ZM43.8333 15.3184V8.91474H1.16667V15.3184H43.8333ZM43.8333 8.91474C43.8333 0.736773 39.4436 -7.36454 31.4913 -11.5336L11.6804 26.2549C4.85635 22.6774 1.16667 15.7679 1.16667 8.91474H43.8333ZM14.1667 -3.94282H6.66667V38.7239H14.1667V-3.94282ZM6.66667 -3.94282C18.0405 -3.94282 25.5 5.42471 25.5 14.7654H-17.1667C-17.1667 27.0007 -7.46385 38.7239 6.66667 38.7239V-3.94282ZM25.5 14.7654V9.51502H-17.1667V14.7654H25.5ZM25.5 9.51502C25.5 18.8557 18.0405 28.2232 6.66667 28.2232V-14.4435C-7.46385 -14.4435 -17.1667 -2.7203 -17.1667 9.51502H25.5ZM6.66667 28.2232H14.1667V-14.4435H6.66667V28.2232ZM14.1667 28.2232C2.79282 28.2232 -4.66667 18.8557 -4.66667 9.51502H38C38 -2.7203 28.2972 -14.4435 14.1667 -14.4435V28.2232ZM-4.66667 9.51502V14.7654H38V9.51502H-4.66667ZM-4.66667 14.7654C-4.66667 5.42471 2.79282 -3.94282 14.1667 -3.94282V38.7239C28.2972 38.7239 38 27.0007 38 14.7654H-4.66667ZM39.6667 12.6503V11.6099H-3V12.6503H39.6667ZM33.8501 26.2503L36.3501 23.6006L5.31652 -5.68011L2.81652 -3.03044L33.8501 26.2503ZM-0.499886 9.03041L-0.479053 15.3641L42.1874 15.2237L42.1665 8.89007L-0.499886 9.03041ZM36.2956 0.574071L33.7748 -2.07034L2.89189 27.3693L5.41272 30.0137L36.2956 0.574071ZM-3 12.6495V12.6503H39.6667V12.6495H-3Z" fill="#3EA8FF" mask="url(#path-1-inside-1_25398_329295)"/>
</svg>
