<svg width="32" height="32" viewBox="0 0 32 32" fill="none" xmlns="http://www.w3.org/2000/svg">
<path fill-rule="evenodd" clip-rule="evenodd" d="M3.26898 2.73161C2.96277 2.82034 2.48195 3.17117 2.25316 3.47276C1.84565 4.00996 1.84931 3.96092 1.86916 8.64298L1.88711 12.8696L2.10306 13.2678C2.34291 13.7102 2.53971 13.9007 3.01795 14.1529L3.34071 14.3232H7.70152H12.0623L12.4201 14.1475C12.813 13.9546 13.1476 13.6226 13.371 13.2043L13.5159 12.9328L13.5334 8.63773C13.5539 3.61888 13.5837 3.8938 12.9506 3.25819C12.3232 2.62834 12.6216 2.6619 7.70607 2.66847C5.37121 2.67163 3.37812 2.70001 3.26898 2.73161ZM19.7412 2.77206C19.5559 2.83785 19.3244 3.00716 19.077 3.25769C18.4557 3.88704 18.4765 3.74073 18.4768 7.47004L18.4772 10.6657L18.8521 10.6385C19.6859 10.5782 20.7696 10.9888 21.4608 11.627C22.1385 12.2526 22.5221 12.9776 22.6577 13.8893L22.7278 14.3606L25.7059 14.3419L28.684 14.3232L29.0822 14.1073C29.5245 13.8674 29.715 13.6706 29.9673 13.1924L30.1376 12.8696V8.5088V4.14799L29.9619 3.79021C29.7689 3.39736 29.437 3.06272 29.0186 2.8393L28.7472 2.69438L24.3864 2.68269C20.5322 2.67239 19.9925 2.68276 19.7412 2.77206ZM6.74189 6.33547C6.81779 6.37415 7.0656 6.58752 7.29249 6.80966L7.70506 7.21358L8.08249 6.82938C8.52768 6.37624 8.71658 6.2652 9.04238 6.2652C9.6898 6.2652 10.1101 6.89056 9.87852 7.50929C9.84192 7.60712 9.6285 7.87288 9.40433 8.09977L8.99675 8.51234L9.38094 8.88977C9.82973 9.33066 9.94513 9.52424 9.94513 9.83601C9.94513 10.4508 9.35446 10.8801 8.77277 10.6881C8.63113 10.6414 8.38301 10.4496 8.13868 10.1979L7.73723 9.78444L7.26778 10.2304C6.77286 10.7005 6.56247 10.7958 6.17884 10.7239C5.90954 10.6733 5.54791 10.3231 5.48926 10.056C5.40312 9.66379 5.505 9.4283 5.96744 8.95146L6.40352 8.50172L6.08379 8.18926C5.62148 7.73751 5.43377 7.39534 5.47593 7.08117C5.51808 6.76713 5.65845 6.54802 5.91953 6.38881C6.14339 6.25237 6.52948 6.22734 6.74189 6.33547ZM26.7934 6.73692C27.1765 6.98795 27.3127 7.56282 27.0796 7.94506C27.0144 8.05205 26.2591 8.70396 25.4014 9.39373C23.8786 10.6182 23.8341 10.6484 23.5137 10.672C23.0495 10.7063 22.9063 10.5945 22.1206 9.58498C21.4577 8.73323 21.4134 8.64386 21.4458 8.2244C21.4893 7.66116 22.1935 7.29283 22.713 7.56156C22.8146 7.61414 23.0448 7.83452 23.2244 8.05136C23.4041 8.2682 23.5712 8.45369 23.596 8.46355C23.6208 8.47347 24.1216 8.0925 24.7089 7.61705C25.2962 7.14153 25.8621 6.7136 25.9664 6.66601C26.1947 6.56186 26.5761 6.59459 26.7934 6.73692ZM18.3738 12.5276C17.84 12.6824 17.2398 13.2944 17.0888 13.838C17.0481 13.9847 17.0241 15.5219 17.0239 18.0046C17.0237 20.1685 17.0056 21.9388 16.9837 21.9388C16.9618 21.9388 16.317 21.5515 15.5509 21.0781C14.7847 20.6048 14.032 20.1745 13.8781 20.1221C13.5039 19.9946 12.8445 20.0427 12.4906 20.2234C11.5813 20.6877 11.1889 21.8267 11.6357 22.7051C11.8203 23.068 16.7936 28.7635 17.1434 29.0127C17.591 29.3313 17.6171 29.3333 21.3449 29.3326L24.8288 29.332L25.1448 29.1832C25.9265 28.8152 25.9792 28.7024 26.9489 25.3231C27.7542 22.517 27.7814 22.4028 27.7538 21.9419C27.7182 21.347 27.5107 20.8836 27.0924 20.4653C26.5127 19.8857 26.4366 19.8672 22.8563 19.4351L20.8839 19.197L20.8655 16.539L20.8472 13.8808L20.6921 13.5658C20.2741 12.7162 19.2719 12.2674 18.3738 12.5276Z" fill="#3EA8FF"/>
</svg>
