<svg width="38" height="38" viewBox="0 0 38 38" fill="none" xmlns="http://www.w3.org/2000/svg">
<g clip-path="url(#clip0_21825_417189)">
<path d="M37.1936 23.8645L11.1064 3.16442C10.2903 2.517 9.08203 3.09879 9.08203 4.14237V24.8425C9.08203 25.5319 9.64095 26.0908 10.3305 26.0908H36.4177C37.5976 26.0908 38.1173 24.5974 37.1936 23.8645ZM11.5788 23.594V6.72667L32.836 23.5941L11.5788 23.594Z" fill="#3EA8FF"/>
<path d="M29.3574 13.7995C31.9837 15.1703 35.1978 13.2705 35.1978 10.2542C35.1978 7.38008 32.2452 5.45326 29.6257 6.58065V1.88314C29.6257 1.21414 29.0833 0.671875 28.4144 0.671875C27.7455 0.671875 27.2031 1.21414 27.2031 1.88314V13.0402C27.2031 14.1775 28.6409 14.6883 29.3574 13.7995ZM31.2004 8.67931C32.0687 8.67931 32.7752 9.38578 32.7752 10.2542C32.7752 11.1225 32.0687 11.829 31.2004 11.829C30.332 11.829 29.6256 11.1225 29.6256 10.2542C29.6257 9.38578 30.332 8.67931 31.2004 8.67931Z" fill="#3EA8FF"/>
<path d="M3.90562 8.76172H2.84478C2.17586 8.76172 1.63352 9.30399 1.63352 9.97298C1.63352 10.642 2.17586 11.1842 2.84478 11.1842H3.9057C4.53336 11.1842 5.04406 11.6949 5.04406 12.3226V12.701C2.7282 11.9146 0.333984 13.65 0.333984 16.0781C0.333984 18.6823 3.05584 20.4183 5.41599 19.3052C6.18174 20.0421 7.46651 19.4995 7.46651 18.4331V12.3226C7.46651 10.3591 5.86908 8.76172 3.90562 8.76172ZM3.90025 17.2218C3.26956 17.2218 2.75651 16.7087 2.75651 16.0781C2.75651 15.4474 3.26956 14.9344 3.90025 14.9344C4.53094 14.9344 5.04398 15.4474 5.04398 16.0781C5.04398 16.7087 4.53086 17.2218 3.90025 17.2218Z" fill="#3EA8FF"/>
<path d="M22.5589 29.9069C23.2278 29.9069 23.7702 29.3646 23.7702 28.6956C23.7702 28.0266 23.2278 27.4844 22.5589 27.4844C19.8437 27.4844 17.6348 29.6933 17.6348 32.4085C17.6348 35.1237 19.8437 37.3328 22.5589 37.3328C23.2278 37.3328 23.7702 36.7905 23.7702 36.1215C23.7702 35.4525 23.2278 34.9103 22.5589 34.9103C21.1795 34.9103 20.0573 33.788 20.0573 32.4085C20.0572 31.0291 21.1795 29.9069 22.5589 29.9069Z" fill="#3EA8FF"/>
</g>
<defs>
<clipPath id="clip0_21825_417189">
<rect width="37.3333" height="37.3333" fill="white" transform="translate(0.333984 0.335938)"/>
</clipPath>
</defs>
</svg>
