<svg width="32" height="32" viewBox="0 0 32 32" fill="none" xmlns="http://www.w3.org/2000/svg">
<rect x="0.5" y="0.5" width="31" height="31" rx="3.5" fill="#ECF6FF" stroke="#3EA8FF"/>
<path d="M24.3337 9.7468V21.9561L16.0003 24.3334L7.66699 21.9561V10.4401C7.66699 9.78146 7.96908 9.17623 8.49616 8.77968C8.66908 8.64934 8.85935 8.5606 9.05588 8.48989V20.9106L16.0003 22.8913L22.9448 20.9106V7.79661C23.1413 7.86733 23.3323 7.95607 23.5045 8.0864C24.0316 8.48296 24.3337 9.08819 24.3337 9.7468ZM16.6948 10.004V19.8922L16.0003 20.0905L15.3059 19.8922V10.004C15.3059 9.08056 14.6844 8.25764 13.7427 7.99142L12.5837 7.71481C11.4927 7.45483 10.4448 8.28121 10.4448 9.40086V19.9477L16.0003 21.5325L21.5559 19.9477V9.42443C21.5559 8.31726 20.5302 7.49365 19.4469 7.73144L18.2052 8.0039C17.3156 8.25764 16.6941 9.08056 16.6941 10.004H16.6948Z" fill="#3EA8FF"/>
</svg>
