<svg width="657" height="215" viewBox="0 0 657 215" fill="none" xmlns="http://www.w3.org/2000/svg">
<path d="M576.683 212.526C576.683 205.901 575.712 187.518 571.827 166.981C566.971 141.31 579.111 128.889 642.24 93.2813C705.369 57.6735 527.291 27.7994 439.881 5.44111C352.472 -16.9172 423.695 75.8285 401.033 106.468C382.903 130.979 242.814 103.281 242.814 103.281C209.709 96.3907 135.2 74.8928 102 44.0254" stroke="#949494" stroke-width="3" stroke-linecap="round" stroke-dasharray="10 10"/>
<path opacity="0.3" d="M496.336 131.007C496.336 131.007 496.301 131.007 496.283 131.007C495.933 131.13 495.566 131.252 495.18 131.375C495.145 131.375 495.11 131.392 495.075 131.41C494.97 131.445 494.883 131.462 494.795 131.497C497.754 131.778 497.789 132.373 497.456 132.881C496.914 133.703 489.911 135.787 483.713 137.467C485.779 137.853 485.604 138.448 485.184 138.938C484.886 139.288 483.626 139.813 481.875 140.426C481.875 140.426 481.875 140.426 481.857 140.426C481.49 140.549 481.087 140.689 480.685 140.811C479.862 141.074 478.951 141.354 478.023 141.652C478.023 141.652 478.023 141.652 478.006 141.652C476.903 141.984 475.747 142.317 474.592 142.65C476.238 143.105 475.94 143.7 475.467 144.19C474.364 145.346 462.652 148.269 457.663 149.495C457.663 149.495 457.645 149.495 457.628 149.495C457.295 149.582 457.015 149.652 456.752 149.705C456.735 149.705 456.717 149.705 456.7 149.705C456.472 149.757 456.262 149.81 456.104 149.845C455.982 149.88 455.912 149.897 455.824 149.915C455.754 149.915 455.684 149.95 455.649 149.95C455.544 149.968 455.474 149.985 455.474 149.985C455.474 149.985 449.014 152.121 444.2 153.294C441.994 153.819 440.19 154.134 439.613 153.907C439.49 153.854 439.403 153.784 439.315 153.714C439.175 153.574 439.088 153.381 439.035 153.154C439.035 153.066 439.018 152.979 439 152.874C439 152.839 439 152.804 439 152.751C439 152.664 439 152.559 439 152.454C439 152.401 439 152.348 439 152.296C439 152.191 439.035 152.086 439.053 151.981C439.053 151.928 439.07 151.858 439.088 151.806C439.105 151.701 439.14 151.596 439.158 151.473C439.158 151.403 439.193 151.333 439.21 151.263C439.245 151.158 439.28 151.035 439.315 150.93C439.333 150.86 439.368 150.79 439.385 150.72C439.42 150.598 439.455 150.493 439.508 150.37C439.525 150.3 439.56 150.213 439.595 150.143C439.63 150.02 439.683 149.897 439.735 149.775C439.77 149.705 439.788 149.617 439.823 149.547C439.875 149.425 439.91 149.302 439.963 149.18C439.998 149.092 440.033 149.022 440.068 148.935C440.12 148.812 440.173 148.707 440.208 148.584C440.243 148.514 440.278 148.427 440.313 148.357C440.366 148.234 440.418 148.112 440.471 148.007C440.506 147.937 440.541 147.867 440.576 147.779C440.628 147.657 440.681 147.534 440.733 147.411C440.768 147.341 440.803 147.254 440.838 147.184C441.048 146.711 441.258 146.256 441.433 145.836C441.574 145.503 441.731 145.153 441.871 144.768C441.906 144.663 441.959 144.575 441.994 144.47C442.064 144.278 442.151 144.085 442.221 143.875C442.274 143.752 442.309 143.647 442.361 143.525C442.431 143.35 442.501 143.175 442.571 143C442.589 142.947 442.606 142.912 442.624 142.86C442.676 142.737 442.729 142.597 442.781 142.474C442.799 142.422 442.834 142.352 442.852 142.299C442.904 142.177 442.957 142.054 443.009 141.949C443.027 141.897 443.044 141.862 443.079 141.809C443.149 141.652 443.219 141.494 443.289 141.337C443.359 141.179 443.429 141.039 443.499 140.881C443.517 140.846 443.534 140.794 443.569 140.759C443.622 140.654 443.674 140.549 443.727 140.461C443.744 140.426 443.779 140.374 443.797 140.339C443.849 140.251 443.902 140.146 443.954 140.058C443.972 140.023 443.99 139.988 444.025 139.953C444.095 139.831 444.165 139.726 444.252 139.621C444.322 139.516 444.41 139.411 444.48 139.323C444.497 139.288 444.532 139.271 444.55 139.253C444.602 139.183 444.655 139.131 444.725 139.078C444.76 139.043 444.777 139.026 444.812 139.008C444.865 138.956 444.935 138.903 444.987 138.868C445.005 138.85 445.04 138.833 445.057 138.815C445.145 138.763 445.233 138.71 445.32 138.658C445.46 138.57 445.618 138.483 445.775 138.413C445.81 138.395 445.863 138.378 445.898 138.36C446.02 138.308 446.16 138.255 446.283 138.22C446.318 138.22 446.353 138.203 446.388 138.185C446.738 138.08 447.106 138.045 447.473 138.045C447.473 138.045 447.473 138.028 447.473 138.01C447.473 138.01 447.473 138.01 447.473 137.993C447.561 137.713 447.666 137.45 447.754 137.17C447.754 137.17 447.754 137.152 447.754 137.135C447.859 136.872 447.964 136.627 448.069 136.382C448.069 136.382 448.069 136.364 448.069 136.347C448.121 136.224 448.174 136.119 448.226 136.014C448.314 135.839 448.419 135.664 448.506 135.507C448.541 135.437 448.594 135.367 448.646 135.314C448.646 135.314 448.664 135.279 448.681 135.262C448.716 135.209 448.751 135.174 448.786 135.121C448.786 135.104 448.822 135.086 448.839 135.069C448.874 135.034 448.909 134.999 448.944 134.964C448.962 134.946 448.979 134.929 448.997 134.911C449.032 134.876 449.067 134.841 449.102 134.824C449.119 134.824 449.137 134.789 449.154 134.771C449.189 134.736 449.224 134.719 449.259 134.684C449.259 134.684 449.294 134.666 449.312 134.649C449.364 134.614 449.417 134.579 449.469 134.561C449.609 134.474 449.749 134.404 449.889 134.334C449.907 134.334 449.942 134.316 449.959 134.299C450.099 134.246 450.222 134.194 450.362 134.141H450.397C450.555 134.089 450.712 134.054 450.887 134.019C451.062 133.983 451.237 133.966 451.43 133.948C451.483 133.686 451.535 133.423 451.605 133.178C451.605 133.178 451.605 133.178 451.605 133.161C451.798 132.338 452.06 131.533 452.41 130.972C452.445 130.92 452.481 130.867 452.516 130.815C452.516 130.815 452.516 130.815 452.516 130.797C452.551 130.745 452.586 130.71 452.621 130.657C452.621 130.657 452.621 130.64 452.638 130.622C452.673 130.587 452.691 130.552 452.726 130.517C452.726 130.517 452.743 130.5 452.761 130.482C452.796 130.447 452.813 130.43 452.848 130.395C452.848 130.395 452.883 130.36 452.901 130.342C452.918 130.325 452.953 130.289 452.971 130.272C452.988 130.254 453.023 130.237 453.041 130.219C453.058 130.219 453.076 130.184 453.111 130.184C453.163 130.167 453.198 130.132 453.251 130.114C453.321 130.062 453.408 130.027 453.496 129.992C453.513 129.992 453.531 129.974 453.548 129.957C453.618 129.922 453.706 129.887 453.794 129.852C453.794 129.852 453.794 129.852 453.829 129.852C454.424 129.624 455.159 129.467 455.912 129.449C455.912 129.414 455.929 129.379 455.947 129.362C455.947 129.327 455.964 129.309 455.982 129.274C455.982 129.239 455.999 129.222 456.017 129.187C456.017 129.152 456.034 129.134 456.052 129.099C456.052 129.064 456.069 129.046 456.087 129.011C456.087 128.994 456.104 128.959 456.122 128.941C456.122 128.924 456.139 128.889 456.157 128.871C456.157 128.854 456.192 128.819 456.192 128.801C456.192 128.784 456.227 128.749 456.227 128.731C456.227 128.714 456.262 128.679 456.28 128.661C456.28 128.644 456.315 128.626 456.332 128.609C456.35 128.574 456.385 128.556 456.402 128.521C456.455 128.469 456.525 128.416 456.577 128.364C456.577 128.364 456.595 128.346 456.612 128.329C456.665 128.294 456.735 128.259 456.805 128.224C457.523 127.821 458.696 127.541 459.939 127.628C460.044 127.628 460.149 127.628 460.254 127.663C460.446 127.681 460.656 127.716 460.866 127.751C460.866 127.751 460.901 127.751 460.919 127.751C460.919 127.751 460.919 127.751 460.936 127.751C460.936 127.751 460.971 127.751 460.989 127.751C460.989 127.751 460.989 127.751 461.006 127.751C461.024 127.751 461.041 127.751 461.059 127.751C461.339 127.698 461.847 127.506 463.125 127.418C463.247 127.418 463.37 127.418 463.51 127.401C463.65 127.401 463.79 127.401 463.93 127.383C464.053 127.383 464.175 127.383 464.315 127.383C466.889 127.331 466.889 127.768 467.222 127.751C467.729 127.733 468.535 127.243 471.913 127.243C472.001 127.243 472.088 127.243 472.176 127.243C472.789 126.385 473.086 125.79 473.086 125.79C473.086 125.79 474.312 125.58 478.128 125.58C482.225 125.58 482.348 126.158 482.348 126.158C482.348 126.158 481.455 126.525 479.494 127.488C480.054 127.453 480.685 127.436 481.402 127.453C484.711 127.523 484.606 128.224 485.516 128.189C486.287 128.171 488.423 127.856 490.541 127.926C494.077 128.049 494.323 128.626 495.163 128.644C499.102 128.766 499.19 129.327 498.857 129.817C498.682 130.079 497.719 130.482 496.266 130.972L496.336 131.007Z" fill="url(#paint0_linear_21825_411557)"/>
<path d="M482.397 126.195C482.397 126.195 481.4 127.106 477.671 127.106C473.942 127.106 473.014 126.195 473.014 126.195C473.014 126.195 474.747 118.685 475.307 112.487C475.832 106.675 474.659 98.7266 474.659 98.7266H480.437C480.437 98.7266 479.386 105.502 479.876 112.33C480.332 118.737 482.397 126.195 482.397 126.195Z" fill="#6E92CC"/>
<path d="M495.495 114.411C495.547 115.689 495.337 117.229 492.921 117.282C492.378 117.282 491.993 118.928 489.595 119.103C488.089 119.208 486.758 118.07 486.216 117.965C485.568 117.825 485.13 120.066 482.487 120.136C479.756 120.206 478.828 118.262 478.302 118.332C477.882 118.385 477.602 120.538 473.926 120.328C470.599 120.136 470.547 118.227 470.074 118.105C469.759 118.035 469.059 119.698 466.398 119.313C463.474 118.893 463.772 117.247 463.316 117.44C460.778 118.578 459.535 117.264 459.622 115.164C459.22 112.52 468.288 98.2867 468.288 98.2867L486.198 98.1992C486.198 98.1992 495.354 111.26 495.477 114.411H495.495Z" fill="#5E77B0"/>
<path d="M463.353 113.851C463.598 113.623 464.035 113.641 464.193 113.956C465.576 116.687 468.815 116.319 471.056 114.919C471.423 114.691 471.844 114.989 471.861 115.374C471.966 117.895 476.833 116.144 477.936 115.444C478.181 115.286 478.531 115.391 478.671 115.636C480.299 118.49 483.853 116.897 485.342 114.831C485.517 114.568 485.937 114.428 486.182 114.726C487.6 116.424 490.366 116.932 491.417 114.568C491.504 114.376 491.819 114.236 492.029 114.323C493.57 113.763 494.463 113.063 494.795 112.24C492.66 107.425 486.199 98.1992 486.199 98.1992L468.29 98.2867C468.29 98.2867 460.849 109.947 459.746 114.113C460.762 114.884 462.005 115.111 463.335 113.851H463.353Z" fill="white"/>
<path d="M495.495 107.165C495.547 108.443 495.337 109.983 492.921 110.036C492.378 110.036 491.993 111.682 489.595 111.857C488.089 111.962 486.758 110.841 486.216 110.719C485.568 110.579 485.13 112.82 482.487 112.89C479.756 112.96 478.828 111.016 478.302 111.086C477.882 111.139 477.602 113.292 473.926 113.082C470.599 112.89 470.547 110.981 470.074 110.859C469.759 110.789 469.059 112.452 466.398 112.067C463.474 111.647 463.772 110.001 463.316 110.193C460.778 111.331 459.535 110.018 459.622 107.918C459.22 105.274 468.288 91.0406 468.288 91.0406L486.198 90.9531C486.198 90.9531 495.354 104.013 495.477 107.165H495.495Z" fill="#6B87C6"/>
<path d="M467.134 103.839C467.484 103.611 467.782 103.944 467.939 104.294C468.605 105.887 470.005 106.605 471.021 106.622C474.434 106.692 475.187 103.804 475.853 103.804C476.395 103.804 478.916 108.933 483.398 103.051C483.556 102.841 484.676 105.624 486.654 105.694C488.685 106.044 488.51 104.294 489.386 102.753C489.788 102.561 490.086 102.806 491.154 103.261C492.047 103.646 493.185 103.839 494.13 103.611C491.556 98.6039 486.217 90.9883 486.217 90.9883L468.307 91.0758C468.307 91.0758 462.985 99.4267 460.674 104.521C462.687 105.432 465.278 105.064 467.134 103.856V103.839Z" fill="white"/>
<path d="M491.205 94.3836C491.24 95.364 491.083 96.5194 489.245 96.572C488.842 96.572 488.544 97.8325 486.706 97.955C485.568 98.0426 484.553 97.1847 484.133 97.0797C483.642 96.9746 483.31 98.6903 481.296 98.7253C479.213 98.7778 478.513 97.3072 478.128 97.3598C477.812 97.3948 477.585 99.0405 474.801 98.8654C472.263 98.7078 472.228 97.2547 471.878 97.1672C471.632 97.1147 471.107 98.3752 469.076 98.0776C466.853 97.7449 467.081 96.5019 466.748 96.6595C464.822 97.5349 463.877 96.5194 463.947 94.9263C463.649 92.913 470.547 82.0935 470.547 82.0935L484.168 82.041C484.168 82.041 491.135 91.9676 491.223 94.3661L491.205 94.3836Z" fill="#7898DF"/>
<path d="M469.148 92.6854C469.428 92.5979 469.725 92.7905 469.813 93.0531C470.443 95.0664 473.892 93.9635 474.82 93.0006C475.083 92.738 475.468 92.843 475.66 93.1056C477.096 95.1714 478.934 94.191 480.177 93.0881C480.387 92.8955 480.737 92.8605 480.93 93.0881C481.735 93.9809 483.399 95.0139 484.466 93.4732C484.659 93.1931 485.062 93.1056 485.307 93.3682C486.917 95.0314 487.88 91.7751 487.985 91.0047C488.09 90.322 488.721 92.7204 490.489 92.3178C488.703 88.5713 484.134 82.0586 484.134 82.0586L470.513 82.1111C470.513 82.1111 467.012 87.6084 465.104 91.4949C466.066 92.6504 467.327 93.2632 469.13 92.6679L469.148 92.6854Z" fill="white"/>
<path d="M488.562 85.437C488.597 86.2249 488.457 87.1703 486.969 87.2228C486.637 87.2228 486.391 88.2382 484.903 88.3607C483.975 88.4308 483.153 87.7305 482.82 87.643C482.417 87.5554 482.155 88.956 480.509 88.991C478.811 89.026 478.251 87.8355 477.918 87.8705C477.655 87.9056 477.48 89.2361 475.204 89.096C473.139 88.9735 473.121 87.783 472.823 87.713C472.631 87.6605 472.193 88.6934 470.547 88.4658C468.744 88.2032 468.919 87.1878 468.639 87.3103C467.064 88.0281 466.293 87.2053 466.346 85.9097C466.101 84.2641 469.742 78.5918 471.615 75.3004C473.471 72.0091 475.537 67.9824 476.833 67.9824C478.128 67.9824 482.015 75.0553 482.015 75.0553C482.015 75.0553 488.492 83.4938 488.562 85.437Z" fill="#7FA0EB"/>
<path d="M470.145 80.9202C471.055 80.4825 471.755 79.4671 472.403 78.7318C472.648 78.4342 473.051 78.5917 473.243 78.8368C474.802 80.8852 477.41 80.5 478.303 78.1541C478.443 77.7864 478.636 77.8215 478.951 78.1191C480.666 79.7647 482.995 79.4846 484.5 78.4342C483.17 76.5609 482.014 75.0553 482.014 75.0553C482.014 75.0553 478.145 67.9824 476.832 67.9824C475.519 67.9824 473.471 72.0091 471.615 75.3004C470.705 76.9111 469.339 79.117 468.236 81.1303C468.849 81.2704 469.514 81.2353 470.145 80.9377V80.9202Z" fill="white"/>
<g style="mix-blend-mode:multiply">
<path d="M461.041 110.929C460.988 111.035 460.936 111.14 460.883 111.245C460.831 111.35 460.796 111.437 460.743 111.542C460.691 111.647 460.656 111.752 460.603 111.857C460.568 111.945 460.516 112.05 460.481 112.137C460.446 112.242 460.393 112.33 460.358 112.418C460.323 112.505 460.288 112.593 460.253 112.68C460.218 112.768 460.183 112.873 460.148 112.96C460.113 113.048 460.078 113.118 460.06 113.205C460.025 113.31 459.99 113.398 459.955 113.486C459.938 113.556 459.903 113.626 459.885 113.678C459.833 113.818 459.798 113.976 459.763 114.098C459.64 114.536 459.605 114.886 459.64 115.131C459.553 117.215 460.813 118.545 463.334 117.407C463.754 117.215 463.527 118.685 466.013 119.193C468.394 116.952 471.545 114.378 472.14 111.21C472.771 107.918 469.252 106.763 469.129 103.804C469.007 100.81 472.158 98.9196 472.42 95.9609C472.718 92.5645 472.245 89.6758 473.856 86.5245C474.714 84.8613 475.799 83.3907 475.939 81.4474C476.044 79.9593 475.764 78.4712 475.484 77.0356C474.836 73.5692 474.276 70.2079 476.552 68.002C475.239 68.4746 473.348 72.1862 471.598 75.2499C471.37 75.6351 471.125 76.0727 470.862 76.5279C470.775 76.668 470.687 76.808 470.6 76.9656C470.495 77.1407 470.39 77.3158 470.285 77.4908C468.411 80.6771 466.118 84.5462 466.328 85.8592C466.293 86.6996 466.608 87.3298 467.256 87.4874C467.256 87.5224 467.221 87.5399 467.203 87.5749C467.203 87.5749 467.203 87.5749 467.203 87.5924C466.906 88.1001 466.608 88.6253 466.328 89.1506C466.328 89.1681 466.31 89.1856 466.293 89.2031C466.013 89.7108 465.733 90.2185 465.488 90.7087C465.488 90.7262 465.47 90.7437 465.453 90.7612C465.33 91.0063 465.207 91.2339 465.102 91.479C464.332 93.0372 463.824 94.3502 463.912 94.9279C463.877 95.8208 464.175 96.5036 464.752 96.8012C463.264 99.3222 461.671 102.211 460.638 104.452C459.938 106.01 459.518 107.253 459.605 107.866C459.553 109.249 460.095 110.282 461.198 110.492C461.198 110.509 461.181 110.544 461.163 110.562C461.111 110.667 461.058 110.772 461.006 110.877L461.041 110.929Z" fill="#C6CEEF"/>
</g>
<path d="M522.776 98.2109C522.776 98.2109 521.779 99.1213 518.049 99.1213C514.32 99.1213 513.393 98.2109 513.393 98.2109C513.393 98.2109 515.126 90.7003 515.686 84.5028C516.211 78.6904 515.038 70.7422 515.038 70.7422H520.816C520.816 70.7422 519.765 77.5175 520.255 84.3452C520.711 90.7529 522.776 98.2109 522.776 98.2109Z" fill="#6E92CC"/>
<path d="M535.873 86.4284C535.926 87.7064 535.716 89.2471 533.3 89.2996C532.757 89.2996 532.372 90.9453 529.974 91.1203C528.468 91.2254 527.137 90.0874 526.595 89.9824C525.947 89.8423 525.509 92.0832 522.866 92.1533C520.135 92.2233 519.207 90.28 518.681 90.35C518.261 90.4025 517.981 92.5559 514.305 92.3458C510.978 92.1533 510.926 90.245 510.453 90.1224C510.138 90.0524 509.438 91.7156 506.777 91.3304C503.853 90.9102 504.15 89.2646 503.695 89.4572C501.157 90.5951 499.914 89.2821 500.001 87.1812C499.599 84.5376 508.667 70.3043 508.667 70.3043L526.577 70.2168C526.577 70.2168 535.733 83.2771 535.856 86.4284H535.873Z" fill="#5E77B0"/>
<path d="M503.728 85.8682C503.973 85.6406 504.41 85.6581 504.568 85.9732C505.951 88.7043 509.19 88.3367 511.431 86.9361C511.798 86.7085 512.219 87.0061 512.236 87.3913C512.341 89.9123 517.208 88.1616 518.311 87.4613C518.556 87.3038 518.906 87.4088 519.046 87.6539C520.674 90.5076 524.228 88.9144 525.717 86.8486C525.892 86.586 526.312 86.4459 526.557 86.7435C527.975 88.4417 530.741 88.9495 531.792 86.586C531.879 86.3934 532.194 86.2534 532.404 86.3409C533.945 85.7807 534.838 85.0804 535.17 84.2575C533.035 79.4431 526.574 70.2168 526.574 70.2168L508.665 70.3043C508.665 70.3043 501.224 81.9641 500.121 86.1308C501.137 86.9011 502.379 87.1287 503.71 85.8682H503.728Z" fill="white"/>
<path d="M535.873 79.1804C535.926 80.4584 535.716 81.999 533.3 82.0515C532.757 82.0515 532.372 83.6972 529.974 83.8723C528.468 83.9773 527.137 82.8569 526.595 82.7343C525.947 82.5943 525.509 84.8352 522.866 84.9052C520.135 84.9752 519.207 83.0319 518.681 83.102C518.261 83.1545 517.981 85.3079 514.305 85.0978C510.978 84.9052 510.926 82.9969 510.453 82.8744C510.138 82.8043 509.438 84.4675 506.777 84.0824C503.853 83.6622 504.15 82.0165 503.695 82.2091C501.157 83.3471 499.914 82.034 500.001 79.9332C499.599 77.2896 508.667 63.0563 508.667 63.0563L526.577 62.9688C526.577 62.9688 535.733 76.0291 535.856 79.1804H535.873Z" fill="#6B87C6"/>
<path d="M507.511 75.8541C507.861 75.6266 508.159 75.9592 508.316 76.3093C508.982 77.9025 510.382 78.6203 511.397 78.6378C514.811 78.7078 515.564 75.8191 516.229 75.8191C516.772 75.8191 519.293 80.9487 523.775 75.0663C523.933 74.8562 525.053 77.6399 527.031 77.7099C529.062 78.06 528.887 76.3093 529.762 74.7687C530.165 74.5761 530.463 74.8212 531.531 75.2764C532.424 75.6616 533.562 75.8541 534.507 75.6265C531.933 70.6195 526.594 63.0039 526.594 63.0039L508.684 63.0914C508.684 63.0914 503.362 71.4423 501.051 76.5369C503.064 77.4473 505.655 77.0796 507.511 75.8716V75.8541Z" fill="white"/>
<path d="M531.584 66.4187C531.619 67.3991 531.462 68.5546 529.624 68.6071C529.221 68.6071 528.923 69.8676 527.085 69.9902C525.947 70.0777 524.932 69.2198 524.512 69.1148C524.021 69.0098 523.689 70.7255 521.675 70.7605C519.592 70.813 518.892 69.3424 518.507 69.3949C518.191 69.4299 517.964 71.0756 515.18 70.9005C512.642 70.743 512.607 69.2899 512.257 69.2023C512.011 69.1498 511.486 70.4103 509.455 70.1127C507.232 69.7801 507.46 68.5371 507.127 68.6946C505.201 69.57 504.256 68.5546 504.326 66.9614C504.028 64.9481 510.926 54.1287 510.926 54.1287L524.547 54.0762C524.547 54.0762 531.514 64.0027 531.602 66.4012L531.584 66.4187Z" fill="#7898DF"/>
<path d="M509.507 64.703C509.787 64.6155 510.085 64.8081 510.172 65.0707C510.803 67.084 514.251 65.981 515.179 65.0181C515.442 64.7555 515.827 64.8606 516.02 65.1232C517.455 67.189 519.294 66.2086 520.537 65.1057C520.747 64.9131 521.097 64.8781 521.289 65.1057C522.095 65.9985 523.758 67.0315 524.826 65.4908C525.018 65.2107 525.421 65.1232 525.666 65.3858C527.277 67.049 528.24 63.7926 528.345 63.0223C528.45 62.3395 529.08 64.738 530.848 64.3354C529.063 60.5888 524.493 54.0762 524.493 54.0762L510.873 54.1287C510.873 54.1287 507.371 59.6259 505.463 63.5125C506.426 64.668 507.686 65.2807 509.49 64.6855L509.507 64.703Z" fill="white"/>
<path d="M528.922 57.4546C528.957 58.2425 528.817 59.1878 527.329 59.2403C526.996 59.2403 526.751 60.2558 525.263 60.3783C524.335 60.4483 523.512 59.7481 523.179 59.6605C522.777 59.573 522.514 60.9736 520.868 61.0086C519.17 61.0436 518.61 59.8531 518.277 59.8881C518.015 59.9231 517.84 61.2537 515.564 61.1136C513.498 60.9911 513.48 59.8006 513.183 59.7305C512.99 59.678 512.553 60.711 510.907 60.4834C509.104 60.2208 509.279 59.2053 508.999 59.3279C507.423 60.0457 506.653 59.2228 506.705 57.9273C506.46 56.2816 510.102 50.6093 511.975 47.318C513.831 44.0266 515.896 40 517.192 40C518.487 40 522.374 47.0729 522.374 47.0729C522.374 47.0729 528.852 55.5113 528.922 57.4546Z" fill="#7FA0EB"/>
<path d="M510.506 52.9554C511.416 52.5177 512.117 51.5023 512.764 50.767C513.009 50.4693 513.412 50.6269 513.605 50.872C515.163 52.9203 517.771 52.5352 518.664 50.1892C518.804 49.8216 518.997 49.8566 519.312 50.1542C521.028 51.7999 523.356 51.5198 524.862 50.4693C523.531 48.5961 522.376 47.0905 522.376 47.0905C522.376 47.0905 518.507 40.0176 517.194 40.0176C515.881 40.0176 513.832 44.0442 511.977 47.3356C511.066 48.9462 509.701 51.1521 508.598 53.1654C509.21 53.3055 509.876 53.2705 510.506 52.9729V52.9554Z" fill="white"/>
<g style="mix-blend-mode:multiply">
<path d="M501.42 82.9432C501.367 83.0482 501.315 83.1532 501.262 83.2583C501.21 83.3633 501.175 83.4509 501.122 83.5559C501.07 83.6609 501.035 83.766 500.982 83.871C500.947 83.9586 500.894 84.0636 500.859 84.1512C500.824 84.2562 500.772 84.3437 500.737 84.4313C500.702 84.5188 500.667 84.6063 500.632 84.6939C500.597 84.7814 500.562 84.8865 500.527 84.974C500.492 85.0615 500.457 85.1316 500.439 85.2191C500.404 85.3241 500.369 85.4117 500.334 85.4992C500.317 85.5692 500.282 85.6392 500.264 85.6918C500.212 85.8318 500.177 85.9894 500.142 86.1119C500.019 86.5496 499.984 86.8998 500.019 87.1449C499.932 89.2282 501.192 90.5588 503.713 89.4208C504.133 89.2282 503.906 90.6988 506.392 91.2065C508.773 88.9656 511.924 86.3921 512.519 83.2233C513.15 79.9319 509.631 78.7764 509.508 75.8177C509.385 72.824 512.537 70.9333 512.799 67.9745C513.097 64.5782 512.624 61.6895 514.235 58.5382C515.093 56.875 516.178 55.4044 516.318 53.4611C516.423 51.973 516.143 50.4849 515.863 49.0493C515.215 45.5829 514.655 42.2215 516.931 40.0156C515.618 40.4883 513.727 44.1998 511.977 47.2636C511.749 47.6487 511.504 48.0864 511.241 48.5416C511.154 48.6817 511.066 48.8217 510.979 48.9793C510.874 49.1543 510.769 49.3294 510.663 49.5045C508.79 52.6908 506.497 56.5599 506.707 57.8729C506.672 58.7133 506.987 59.3435 507.635 59.5011C507.635 59.5361 507.6 59.5536 507.582 59.5886C507.582 59.5886 507.582 59.5886 507.582 59.6061C507.285 60.1138 506.987 60.639 506.707 61.1643C506.707 61.1818 506.689 61.1993 506.672 61.2168C506.392 61.7245 506.112 62.2322 505.867 62.7224C505.867 62.7399 505.849 62.7574 505.832 62.7749C505.709 63.02 505.586 63.2476 505.481 63.4927C504.711 65.0509 504.203 66.3639 504.291 66.9416C504.256 67.8345 504.553 68.5173 505.131 68.8149C503.643 71.3359 502.05 74.2246 501.017 76.4655C500.317 78.0237 499.897 79.2667 499.984 79.8794C499.932 81.2625 500.474 82.2954 501.577 82.5055C501.577 82.523 501.56 82.558 501.542 82.5755C501.49 82.6805 501.437 82.7856 501.385 82.8906L501.42 82.9432Z" fill="#C6CEEF"/>
</g>
<path opacity="0.3" d="M9.66009 175.452L0 178.629V180.816L24.661 195.169L71.8793 171.324L9.66009 175.452Z" fill="#E2E7FD"/>
<path d="M47.5712 176.496L22.3691 169.971V142.516L47.5712 149.041V176.496Z" fill="#6798DE"/>
<path d="M74.8027 149.307L66.8125 147.269L69.6811 144.064L74.1544 147.861L74.8027 149.307Z" fill="#5B86C4"/>
<path d="M47.5723 176.496L71.8788 171.323V144.992L60.6281 134.865L47.5723 149.041V176.496Z" fill="#79B3FA"/>
<path d="M60.6282 134.866L44.1999 152.755L17.7012 145.837L36.2657 129.633L60.6282 134.866Z" fill="#FBFEFE"/>
<path d="M60.6282 134.866L44.1999 152.755L17.7012 145.837L36.2657 129.633L60.6282 134.866Z" fill="url(#paint1_linear_21825_411557)"/>
<path d="M44.1993 152.753V154.67L17.6445 147.804V145.836L44.1993 152.753Z" fill="#5B86C4"/>
<path d="M44.1992 154.671L60.4828 136.89V134.865L44.1992 152.753V154.671Z" fill="#699BE3"/>
<path d="M74.8023 147.277L60.4824 134.865V136.89L74.8023 149.306V147.277Z" fill="#699BE3"/>
<path d="M28.6621 135.701L31.7873 134.903L30.6678 133.648L28.914 135.136L28.6621 135.701Z" fill="#5B86C4"/>
<path d="M31.1807 133.219C30.9848 133.457 30.7609 133.658 30.5137 133.821V143.789L40.379 146.345V135.598L34.2686 130.393L31.1807 133.219Z" fill="#6798DE"/>
<path d="M31.9316 135.738V142.124L38.2053 143.523V136.736L31.9316 135.738Z" fill="#79B3FA"/>
<path d="M32.6074 141.583V136.531L37.5284 137.31V142.684L32.6074 141.583Z" fill="#FFFEBC"/>
<path d="M35.2947 136.443H34.5391V142.549H35.2947V136.443Z" fill="#79B3FA"/>
<path d="M37.6515 140.448L37.791 139.705L32.3037 138.674L32.1641 139.417L37.6515 140.448Z" fill="#79B3FA"/>
<path d="M40.3789 146.346L49.8897 136.742V134.014L45.4865 130.049L40.3789 135.6V146.346Z" fill="#79B3FA"/>
<path d="M34.2129 130.048L40.6405 137.054L51.0143 134.344L43.747 128L34.2129 130.048Z" fill="#FBFEFE"/>
<path d="M34.2129 130.048L40.6405 137.054L51.0143 134.344L43.747 128L34.2129 130.048Z" fill="url(#paint2_linear_21825_411557)"/>
<path d="M40.6406 137.054V137.8L51.033 135.113V134.344L40.6406 137.054Z" fill="#699BE3"/>
<path d="M40.6412 137.801L34.2695 130.842V130.049L40.6412 137.055V137.801Z" fill="#5B86C4"/>
<path d="M28.6621 134.909L34.2688 130.049V130.842L28.6621 135.702V134.909Z" fill="#5B86C4"/>
<path d="M64.9557 172.839V163.967C64.9557 162.783 63.8875 161.887 62.7214 162.097L59.1951 162.727C57.8891 162.96 56.9375 164.098 56.9375 165.423V174.523L64.9557 172.835V172.839Z" fill="#FFFEBC"/>
<path d="M64.6483 151.043C64.6483 153.632 62.8712 155.731 60.6835 155.731C58.4959 155.731 56.7188 153.632 56.7188 151.043C56.7188 148.454 58.4959 146.355 60.6835 146.355C62.8712 146.355 64.6483 148.454 64.6483 151.043Z" fill="#699BE3"/>
<path d="M60.6836 154.863C62.4689 154.863 63.9161 153.153 63.9161 151.043C63.9161 148.933 62.4689 147.223 60.6836 147.223C58.8984 147.223 57.4512 148.933 57.4512 151.043C57.4512 153.153 58.8984 154.863 60.6836 154.863Z" fill="#FFFEBC"/>
<path d="M61.2711 146.785H60.3242V155.246H61.2711V146.785Z" fill="#699BE3"/>
<path d="M64.55 151.299L64.502 150.354L57.0391 150.733L57.0872 151.679L64.55 151.299Z" fill="#699BE3"/>
<path d="M28.9943 180.462L8.38672 175.014V153.949L28.9943 159.397V180.462Z" fill="#6798DE"/>
<path d="M49.8869 159.597L43.7578 158.039L45.9594 155.576L49.3925 158.491L49.8869 159.597Z" fill="#5B86C4"/>
<path d="M28.9941 180.462L47.6426 176.492V156.291L39.0087 148.52L28.9941 159.397V180.462Z" fill="#79B3FA"/>
<path d="M39.0091 148.519L26.4058 162.247L4.80469 156.495L19.0453 144.064L39.0091 148.519Z" fill="#FBFEFE"/>
<path d="M39.0091 148.519L26.4058 162.247L4.80469 156.495L19.0453 144.064L39.0091 148.519Z" fill="url(#paint3_linear_21825_411557)"/>
<path d="M26.4056 162.247V163.712L4.75781 158.007V156.496L26.4056 162.247Z" fill="#5B86C4"/>
<path d="M26.4062 163.712L38.9023 150.073V148.52L26.4062 162.247V163.712Z" fill="#699BE3"/>
<path d="M49.8871 158.044L38.9023 148.52V150.073L49.8871 159.598V158.044Z" fill="#699BE3"/>
<path d="M22.6611 173.622L14.9414 171.621V163.211L22.6611 165.207V173.622Z" fill="#79B3FA"/>
<path d="M15.627 171.081V164.107L21.9753 165.754V172.723L15.627 171.081Z" fill="#FFFEBC"/>
<path d="M18.9754 164.424H18.2617V172.353H18.9754V164.424Z" fill="#79B3FA"/>
<path d="M22.3897 169.758L22.5566 169.064L15.2417 167.304L15.0747 167.998L22.3897 169.758Z" fill="#79B3FA"/>
<path d="M35.1426 172.975L42.8623 171.356V162.941L35.1426 164.565V172.975Z" fill="#699BE3"/>
<path d="M42.1765 170.777V163.809L35.8281 165.138V172.111L42.1765 170.777Z" fill="#FFFEBC"/>
<path d="M38.832 171.893L39.541 171.926V163.996L38.832 163.959V171.893Z" fill="#699BE3"/>
<path d="M42.7279 167.723L42.56 167.023L35.2461 168.423L35.414 169.122L42.7279 167.723Z" fill="#699BE3"/>
<path opacity="0.3" d="M88.1356 136.811C88.1356 136.811 88.1199 136.811 88.1121 136.811C87.9553 136.866 87.7906 136.921 87.6181 136.976C87.6024 136.976 87.5868 136.984 87.5711 136.992C87.524 137.007 87.4849 137.015 87.4457 137.031C88.7706 137.156 88.7863 137.423 88.6374 137.65C88.3943 138.019 85.2582 138.952 82.4828 139.704C83.408 139.877 83.3296 140.143 83.1414 140.363C83.0081 140.52 82.4436 140.755 81.6596 141.029C81.6596 141.029 81.6596 141.029 81.6518 141.029C81.4871 141.084 81.3068 141.147 81.1265 141.202C80.758 141.319 80.3503 141.445 79.9348 141.578C79.9348 141.578 79.9348 141.578 79.9269 141.578C79.433 141.727 78.9155 141.876 78.3981 142.025C79.1351 142.229 79.0018 142.495 78.7901 142.715C78.2962 143.232 73.0511 144.542 70.8166 145.091C70.8166 145.091 70.8088 145.091 70.8009 145.091C70.652 145.13 70.5265 145.161 70.4089 145.185C70.4011 145.185 70.3933 145.185 70.3854 145.185C70.2835 145.208 70.1894 145.232 70.1188 145.247C70.064 145.263 70.0326 145.271 69.9934 145.279C69.962 145.279 69.9307 145.294 69.915 145.294C69.868 145.302 69.8366 145.31 69.8366 145.31C69.8366 145.31 66.9436 146.267 64.7875 146.792C63.7997 147.027 62.9921 147.168 62.7334 147.066C62.6785 147.043 62.6393 147.011 62.6001 146.98C62.5374 146.917 62.4982 146.831 62.4747 146.729C62.4747 146.69 62.4668 146.651 62.459 146.604C62.459 146.588 62.459 146.572 62.459 146.549C62.459 146.51 62.459 146.463 62.459 146.416C62.459 146.392 62.459 146.368 62.459 146.345C62.459 146.298 62.4747 146.251 62.4825 146.204C62.4825 146.18 62.4903 146.149 62.4982 146.125C62.506 146.078 62.5217 146.031 62.5295 145.976C62.5295 145.945 62.5452 145.914 62.5531 145.882C62.5688 145.835 62.5844 145.78 62.6001 145.733C62.608 145.702 62.6236 145.671 62.6315 145.639C62.6471 145.584 62.6628 145.537 62.6864 145.483C62.6942 145.451 62.7099 145.412 62.7255 145.381C62.7412 145.326 62.7648 145.271 62.7883 145.216C62.804 145.185 62.8118 145.145 62.8275 145.114C62.851 145.059 62.8667 145.004 62.8902 144.949C62.9059 144.91 62.9216 144.879 62.9372 144.84C62.9608 144.785 62.9843 144.738 63 144.683C63.0156 144.651 63.0313 144.612 63.047 144.581C63.0705 144.526 63.094 144.471 63.1176 144.424C63.1332 144.393 63.1489 144.361 63.1646 144.322C63.1881 144.267 63.2116 144.212 63.2352 144.158C63.2508 144.126 63.2665 144.087 63.2822 144.056C63.3763 143.844 63.4704 143.64 63.5488 143.452C63.6115 143.303 63.6821 143.146 63.7448 142.974C63.7605 142.927 63.784 142.887 63.7997 142.84C63.831 142.754 63.8702 142.668 63.9016 142.574C63.9251 142.519 63.9408 142.472 63.9643 142.417C63.9957 142.339 64.027 142.26 64.0584 142.182C64.0662 142.158 64.0741 142.143 64.0819 142.119C64.1054 142.064 64.1289 142.002 64.1525 141.947C64.1603 141.923 64.176 141.892 64.1838 141.868C64.2073 141.813 64.2309 141.758 64.2544 141.711C64.2622 141.688 64.2701 141.672 64.2857 141.649C64.3171 141.578 64.3485 141.508 64.3798 141.437C64.4112 141.366 64.4426 141.304 64.4739 141.233C64.4818 141.217 64.4896 141.194 64.5053 141.178C64.5288 141.131 64.5523 141.084 64.5758 141.045C64.5837 141.029 64.5994 141.006 64.6072 140.99C64.6307 140.951 64.6542 140.904 64.6778 140.865C64.6856 140.849 64.6934 140.833 64.7091 140.818C64.7405 140.763 64.7718 140.716 64.811 140.669C64.8424 140.622 64.8816 140.575 64.913 140.535C64.9208 140.52 64.9365 140.512 64.9443 140.504C64.9678 140.473 64.9914 140.449 65.0227 140.426C65.0384 140.41 65.0463 140.402 65.0619 140.394C65.0855 140.371 65.1168 140.347 65.1403 140.332C65.1482 140.324 65.1639 140.316 65.1717 140.308C65.2109 140.285 65.2501 140.261 65.2893 140.237C65.352 140.198 65.4226 140.159 65.4931 140.128C65.5088 140.12 65.5323 140.112 65.548 140.104C65.6029 140.081 65.6656 140.057 65.7205 140.041C65.7362 140.041 65.7519 140.034 65.7675 140.026C65.9243 139.979 66.089 139.963 66.2536 139.963C66.2536 139.963 66.2536 139.955 66.2536 139.947C66.2536 139.947 66.2536 139.947 66.2536 139.94C66.2928 139.814 66.3399 139.697 66.3791 139.571C66.3791 139.571 66.3791 139.563 66.3791 139.555C66.4261 139.438 66.4732 139.328 66.5202 139.218C66.5202 139.218 66.5202 139.21 66.5202 139.203C66.5437 139.148 66.5672 139.101 66.5908 139.054C66.63 138.975 66.677 138.897 66.7162 138.826C66.7319 138.795 66.7554 138.764 66.7789 138.74C66.7789 138.74 66.7868 138.724 66.7946 138.716C66.8103 138.693 66.826 138.677 66.8416 138.654C66.8416 138.646 66.8573 138.638 66.8652 138.63C66.8809 138.615 66.8965 138.599 66.9122 138.583C66.9201 138.575 66.9279 138.568 66.9357 138.56C66.9514 138.544 66.9671 138.528 66.9828 138.52C66.9906 138.52 66.9985 138.505 67.0063 138.497C67.022 138.481 67.0377 138.473 67.0533 138.458C67.0533 138.458 67.069 138.45 67.0769 138.442C67.1004 138.426 67.1239 138.411 67.1474 138.403C67.2101 138.364 67.2729 138.332 67.3356 138.301C67.3434 138.301 67.3591 138.293 67.3669 138.285C67.4297 138.262 67.4845 138.238 67.5473 138.215H67.563C67.6335 138.191 67.7041 138.176 67.7825 138.16C67.8609 138.144 67.9393 138.136 68.0255 138.128C68.049 138.011 68.0726 137.893 68.1039 137.783C68.1039 137.783 68.1039 137.783 68.1039 137.776C68.1902 137.407 68.3078 137.047 68.4646 136.796C68.4802 136.772 68.4959 136.749 68.5116 136.725C68.5116 136.725 68.5116 136.725 68.5116 136.717C68.5273 136.694 68.543 136.678 68.5586 136.655C68.5586 136.655 68.5587 136.647 68.5665 136.639C68.5822 136.623 68.59 136.607 68.6057 136.592C68.6057 136.592 68.6135 136.584 68.6214 136.576C68.637 136.56 68.6449 136.553 68.6606 136.537C68.6606 136.537 68.6763 136.521 68.6841 136.513C68.6919 136.506 68.7076 136.49 68.7154 136.482C68.7233 136.474 68.739 136.466 68.7468 136.459C68.7547 136.459 68.7625 136.443 68.7782 136.443C68.8017 136.435 68.8174 136.419 68.8409 136.411C68.8723 136.388 68.9115 136.372 68.9507 136.357C68.9585 136.357 68.9663 136.349 68.9742 136.341C69.0055 136.325 69.0447 136.31 69.0839 136.294C69.0839 136.294 69.0839 136.294 69.0996 136.294C69.3662 136.192 69.6955 136.121 70.0326 136.114C70.0326 136.098 70.0404 136.082 70.0483 136.074C70.0483 136.059 70.0561 136.051 70.064 136.035C70.064 136.019 70.0718 136.012 70.0796 135.996C70.0796 135.98 70.0875 135.972 70.0953 135.957C70.0953 135.941 70.1032 135.933 70.111 135.918C70.111 135.91 70.1188 135.894 70.1267 135.886C70.1267 135.878 70.1345 135.863 70.1424 135.855C70.1424 135.847 70.1581 135.831 70.1581 135.823C70.1581 135.816 70.1737 135.8 70.1737 135.792C70.1737 135.784 70.1894 135.769 70.1973 135.761C70.1973 135.753 70.2129 135.745 70.2208 135.737C70.2286 135.722 70.2443 135.714 70.2521 135.698C70.2756 135.674 70.307 135.651 70.3305 135.627C70.3305 135.627 70.3384 135.62 70.3462 135.612C70.3697 135.596 70.4011 135.58 70.4324 135.565C70.7539 135.384 71.2792 135.259 71.8358 135.298C71.8829 135.298 71.9299 135.298 71.977 135.314C72.0632 135.322 72.1573 135.337 72.2514 135.353C72.2514 135.353 72.2671 135.353 72.2749 135.353C72.2749 135.353 72.2749 135.353 72.2827 135.353C72.2827 135.353 72.2984 135.353 72.3063 135.353C72.3063 135.353 72.3063 135.353 72.3141 135.353C72.3219 135.353 72.3298 135.353 72.3376 135.353C72.4631 135.33 72.6904 135.243 73.2628 135.204C73.3176 135.204 73.3725 135.204 73.4352 135.196C73.498 135.196 73.5607 135.196 73.6234 135.188C73.6783 135.188 73.7332 135.188 73.7959 135.188C74.9484 135.165 74.9484 135.361 75.0974 135.353C75.3247 135.345 75.6854 135.126 77.1985 135.126C77.2377 135.126 77.2769 135.126 77.3161 135.126C77.5905 134.742 77.7238 134.475 77.7238 134.475C77.7238 134.475 78.2726 134.381 79.9818 134.381C81.8164 134.381 81.8713 134.64 81.8713 134.64C81.8713 134.64 81.4714 134.804 80.5933 135.235C80.8442 135.22 81.1265 135.212 81.4479 135.22C82.9297 135.251 82.8827 135.565 83.2904 135.549C83.6353 135.541 84.5918 135.4 85.5405 135.431C87.1242 135.486 87.234 135.745 87.6103 135.753C89.3743 135.808 89.4135 136.059 89.2646 136.278C89.1862 136.396 88.755 136.576 88.1042 136.796L88.1356 136.811Z" fill="url(#paint4_linear_21825_411557)"/>
<path d="M81.8957 134.655C81.8957 134.655 81.4488 135.062 79.7788 135.062C78.1089 135.062 77.6934 134.655 77.6934 134.655C77.6934 134.655 78.4695 131.291 78.7204 128.516C78.9556 125.913 78.4303 122.354 78.4303 122.354H81.0176C81.0176 122.354 80.5472 125.388 80.7667 128.445C80.9706 131.315 81.8957 134.655 81.8957 134.655Z" fill="#6E92CC"/>
<path d="M87.7598 129.377C87.7833 129.95 87.6893 130.639 86.6073 130.663C86.3643 130.663 86.1918 131.4 85.1177 131.478C84.4434 131.525 83.8476 131.016 83.6045 130.969C83.3144 130.906 83.1184 131.91 81.9346 131.941C80.7115 131.972 80.296 131.102 80.0608 131.133C79.8726 131.157 79.7472 132.121 78.1007 132.027C76.6111 131.941 76.5876 131.086 76.3759 131.031C76.2348 131 75.9212 131.745 74.7294 131.572C73.4201 131.384 73.5534 130.647 73.3496 130.734C72.2127 131.243 71.6561 130.655 71.6953 129.714C71.515 128.53 75.5762 122.156 75.5762 122.156L83.5967 122.117C83.5967 122.117 87.6971 127.966 87.752 129.377H87.7598Z" fill="#5E77B0"/>
<path d="M73.3651 129.126C73.4748 129.024 73.6708 129.032 73.7414 129.173C74.3608 130.396 75.8112 130.232 76.8148 129.605C76.9794 129.503 77.1676 129.636 77.1754 129.808C77.2224 130.937 79.402 130.153 79.8959 129.84C80.0057 129.769 80.1625 129.816 80.2252 129.926C80.9544 131.204 82.5459 130.491 83.2123 129.565C83.2907 129.448 83.4789 129.385 83.5887 129.518C84.2237 130.279 85.4625 130.506 85.9329 129.448C85.9721 129.362 86.1132 129.299 86.2073 129.338C86.8972 129.087 87.2971 128.773 87.446 128.405C86.4895 126.249 83.5965 122.117 83.5965 122.117L75.576 122.156C75.576 122.156 72.2439 127.378 71.75 129.244C72.2047 129.589 72.7614 129.691 73.3572 129.126H73.3651Z" fill="white"/>
<path d="M87.7598 126.133C87.7833 126.705 87.6893 127.395 86.6073 127.419C86.3643 127.419 86.1918 128.156 85.1177 128.234C84.4434 128.281 83.8476 127.779 83.6045 127.725C83.3144 127.662 83.1184 128.665 81.9346 128.697C80.7115 128.728 80.296 127.858 80.0608 127.889C79.8726 127.913 79.7472 128.877 78.1007 128.783C76.6111 128.697 76.5876 127.842 76.3759 127.787C76.2348 127.756 75.9212 128.501 74.7294 128.328C73.4201 128.14 73.5534 127.403 73.3496 127.489C72.2127 127.999 71.6561 127.411 71.6953 126.47C71.515 125.286 75.5762 118.912 75.5762 118.912L83.5967 118.873C83.5967 118.873 87.6971 124.722 87.752 126.133H87.7598Z" fill="#6B87C6"/>
<path d="M75.059 124.643C75.2158 124.541 75.3491 124.69 75.4197 124.847C75.7176 125.561 76.3448 125.882 76.7996 125.89C78.3284 125.921 78.6655 124.628 78.9635 124.628C79.2065 124.628 80.3355 126.925 82.3426 124.291C82.4131 124.196 82.9149 125.443 83.8008 125.474C84.7103 125.631 84.6319 124.847 85.0239 124.157C85.2042 124.071 85.3375 124.181 85.8158 124.385C86.2156 124.557 86.7252 124.643 87.1486 124.541C85.9961 122.299 83.6048 118.889 83.6048 118.889L75.5843 118.928C75.5843 118.928 73.2009 122.668 72.166 124.949C73.0676 125.357 74.228 125.192 75.059 124.651V124.643Z" fill="white"/>
<path d="M85.8383 120.408C85.854 120.847 85.7834 121.365 84.9602 121.388C84.7799 121.388 84.6466 121.953 83.8234 122.008C83.3138 122.047 82.859 121.663 82.6709 121.616C82.4514 121.569 82.3024 122.337 81.4008 122.353C80.4678 122.376 80.1542 121.717 79.9817 121.741C79.8406 121.757 79.7386 122.494 78.4921 122.415C77.3552 122.345 77.3396 121.694 77.1827 121.655C77.073 121.631 76.8378 122.196 75.9283 122.062C74.9326 121.914 75.0345 121.357 74.8856 121.427C74.0232 121.819 73.5998 121.365 73.6311 120.651C73.4979 119.75 76.5869 114.904 76.5869 114.904L82.6866 114.881C82.6866 114.881 85.807 119.326 85.8462 120.4L85.8383 120.408Z" fill="#7898DF"/>
<path d="M75.9595 119.65C76.085 119.61 76.2182 119.697 76.2574 119.814C76.5397 120.716 78.0842 120.222 78.4997 119.791C78.6173 119.673 78.7898 119.72 78.8761 119.838C79.519 120.763 80.3422 120.324 80.8988 119.83C80.9929 119.744 81.1497 119.728 81.236 119.83C81.5966 120.23 82.3414 120.692 82.8197 120.002C82.9059 119.877 83.0862 119.838 83.196 119.955C83.9173 120.7 84.3485 119.242 84.3955 118.897C84.4426 118.591 84.7248 119.665 85.5167 119.485C84.717 117.807 82.6707 114.891 82.6707 114.891L76.5711 114.914C76.5711 114.914 75.003 117.376 74.1484 119.116C74.5796 119.634 75.1441 119.908 75.9517 119.642L75.9595 119.65Z" fill="white"/>
<path d="M84.6556 116.403C84.6713 116.755 84.6086 117.179 83.9422 117.202C83.7932 117.202 83.6834 117.657 83.017 117.712C82.6015 117.743 82.233 117.43 82.084 117.39C81.9037 117.351 81.7861 117.978 81.0492 117.994C80.2887 118.01 80.0378 117.477 79.8888 117.492C79.7712 117.508 79.6928 118.104 78.6736 118.041C77.7484 117.986 77.7406 117.453 77.6073 117.422C77.5211 117.398 77.3251 117.861 76.5881 117.759C75.7805 117.641 75.859 117.187 75.7335 117.241C75.0279 117.563 74.6829 117.194 74.7064 116.614C74.5967 115.877 76.2274 113.337 77.0663 111.863C77.8974 110.389 78.8225 108.586 79.4027 108.586C79.9829 108.586 81.7234 111.753 81.7234 111.753C81.7234 111.753 84.6243 115.532 84.6556 116.403Z" fill="#7FA0EB"/>
<path d="M76.4073 114.38C76.815 114.184 77.1286 113.729 77.4187 113.4C77.5285 113.267 77.7088 113.337 77.795 113.447C78.4928 114.364 79.661 114.192 80.0608 113.141C80.1236 112.976 80.2098 112.992 80.3509 113.125C81.1193 113.862 82.162 113.737 82.8363 113.267C82.2404 112.428 81.723 111.753 81.723 111.753C81.723 111.753 79.9903 108.586 79.4023 108.586C78.8143 108.586 77.897 110.389 77.0659 111.863C76.6582 112.584 76.0467 113.572 75.5527 114.474C75.8271 114.537 76.1251 114.521 76.4073 114.388V114.38Z" fill="white"/>
<g style="mix-blend-mode:multiply">
<path d="M72.3297 127.818C72.3061 127.865 72.2826 127.912 72.2591 127.959C72.2356 128.006 72.2199 128.045 72.1964 128.092C72.1729 128.139 72.1572 128.186 72.1337 128.233C72.118 128.273 72.0945 128.32 72.0788 128.359C72.0631 128.406 72.0396 128.445 72.0239 128.484C72.0082 128.523 71.9925 128.563 71.9769 128.602C71.9612 128.641 71.9455 128.688 71.9298 128.727C71.9141 128.767 71.8985 128.798 71.8906 128.837C71.8749 128.884 71.8593 128.923 71.8436 128.963C71.8357 128.994 71.8201 129.025 71.8122 129.049C71.7887 129.112 71.773 129.182 71.7573 129.237C71.7025 129.433 71.6868 129.59 71.7025 129.7C71.6633 130.633 72.2278 131.228 73.3567 130.719C73.5449 130.633 73.443 131.291 74.5563 131.518C75.6226 130.515 77.0338 129.362 77.3004 127.943C77.5826 126.469 76.0067 125.952 75.9518 124.627C75.897 123.286 77.3082 122.44 77.4258 121.115C77.5591 119.594 77.3474 118.3 78.0687 116.889C78.4529 116.144 78.9389 115.485 79.0017 114.615C79.0487 113.949 78.9233 113.282 78.7978 112.639C78.5077 111.087 78.2568 109.582 79.2761 108.594C78.6881 108.805 77.8413 110.468 77.0573 111.84C76.9554 112.012 76.8456 112.208 76.728 112.412C76.6888 112.475 76.6496 112.537 76.6104 112.608C76.5634 112.686 76.5163 112.765 76.4693 112.843C75.6304 114.27 74.6033 116.003 74.6974 116.591C74.6817 116.967 74.8228 117.249 75.1129 117.32C75.1129 117.336 75.0973 117.343 75.0894 117.359C75.0894 117.359 75.0894 117.359 75.0894 117.367C74.9561 117.594 74.8228 117.829 74.6974 118.065C74.6974 118.073 74.6896 118.08 74.6817 118.088C74.5563 118.316 74.4308 118.543 74.3211 118.762C74.3211 118.77 74.3132 118.778 74.3054 118.786C74.2505 118.896 74.1956 118.998 74.1486 119.107C73.8036 119.805 73.5763 120.393 73.6155 120.652C73.5998 121.052 73.7331 121.358 73.9918 121.491C73.3254 122.62 72.6119 123.913 72.1493 124.917C71.8357 125.615 71.6476 126.171 71.6868 126.446C71.6633 127.065 71.9063 127.528 72.4002 127.622C72.4002 127.63 72.3924 127.645 72.3846 127.653C72.361 127.7 72.3375 127.747 72.314 127.794L72.3297 127.818Z" fill="#C6CEEF"/>
</g>
<path opacity="0.3" d="M22.1463 124.928C22.209 124.991 22.2717 125.061 22.3266 125.139C22.0992 125.139 21.8326 125.155 21.5269 125.194C21.5269 125.194 20.6409 125.367 20.8918 125.994C20.9075 126.033 20.931 126.08 20.9545 126.127C20.9859 126.174 21.0173 126.229 21.0565 126.276C21.1192 126.355 21.1741 126.449 21.2211 126.543C21.033 126.543 20.8134 126.543 20.5704 126.574C20.5704 126.574 19.8491 126.708 19.9824 127.248C19.9824 127.248 19.998 127.296 20.0059 127.319C20.0137 127.35 20.0294 127.374 20.0451 127.405C20.0451 127.421 20.0608 127.429 20.0686 127.444C20.0921 127.484 20.1156 127.531 20.147 127.57C20.2019 127.656 20.2489 127.75 20.2881 127.86C20.0451 127.821 19.7236 127.797 19.2924 127.844C19.2924 127.844 18.7907 127.931 18.7201 128.299C18.7201 128.299 18.7122 128.362 18.7122 128.401C18.7122 128.432 18.7123 128.472 18.7279 128.503C18.7279 128.503 18.7279 128.511 18.7279 128.519C18.7279 128.55 18.7514 128.589 18.7593 128.628C18.7593 128.636 18.7593 128.644 18.7671 128.652C18.7828 128.699 18.8142 128.754 18.8377 128.809C18.8847 128.895 18.9239 129.005 18.9553 129.114C18.8298 129.114 18.6887 129.122 18.5319 129.146C18.5319 129.146 18.5319 129.146 18.5162 129.146C18.5084 129.146 18.4927 129.146 18.4771 129.154C18.383 129.177 18.2026 129.248 18.0537 129.389C18.0537 129.389 17.9988 129.452 17.9753 129.491C17.8812 129.64 17.8185 129.844 17.8734 130.134C17.9204 130.416 17.8498 130.863 17.7244 131.349C17.6068 131.811 17.4343 132.313 17.2775 132.752C17.2775 132.752 17.2775 132.76 17.2775 132.768C17.2461 132.846 17.2226 132.925 17.1912 133.003C17.1912 133.011 17.1834 133.027 17.1756 133.035C17.1521 133.105 17.1285 133.168 17.105 133.231C17.105 133.246 17.0972 133.254 17.0893 133.27C17.0658 133.34 17.0344 133.403 17.0109 133.466C16.9796 133.536 17.0188 133.599 17.0893 133.638C17.1129 133.654 17.1442 133.662 17.1756 133.67C17.2618 133.693 17.3794 133.701 17.497 133.67C17.5049 133.67 17.5127 133.67 17.5284 133.67C17.5441 133.67 17.5597 133.662 17.5754 133.654C17.5989 133.654 17.6303 133.638 17.6538 133.63C17.8498 133.552 18.0537 133.474 18.2654 133.387C18.3359 133.364 18.4143 133.332 18.4849 133.309C18.6339 133.254 18.775 133.199 18.9318 133.144C19.0259 133.113 19.1199 133.082 19.214 133.05C19.3551 133.003 19.4963 132.948 19.6452 132.901C19.7472 132.87 19.8491 132.839 19.9432 132.799C20.0921 132.752 20.2411 132.705 20.39 132.65C20.492 132.619 20.5861 132.588 20.688 132.556C20.8448 132.509 21.0016 132.454 21.1662 132.407C21.2603 132.376 21.3466 132.352 21.4406 132.321C21.6131 132.266 21.7856 132.211 21.9581 132.164C22.0365 132.141 22.1071 132.117 22.1855 132.094C22.3815 132.039 22.5775 131.976 22.7656 131.921C22.8127 131.906 22.8597 131.89 22.9067 131.882C23.1341 131.811 23.3615 131.749 23.5888 131.678C25.1334 131.223 26.474 130.847 27.0777 130.643C27.1326 130.62 27.1718 130.612 27.2189 130.588C27.2424 130.581 27.2737 130.565 27.2973 130.557C27.4619 130.486 27.556 130.4 27.5011 130.33C27.4541 130.267 27.3678 130.196 27.2267 130.134C28.6458 129.804 29.7747 129.538 30.1432 129.405C30.3236 129.342 30.9743 129.099 30.8724 129.028C30.6685 128.887 30.5274 128.738 29.5474 128.769C30.6842 128.503 31.6407 128.276 32.2444 128.111C32.4718 128.048 32.6599 128.001 32.7697 127.962C32.9657 127.891 33.6713 127.633 33.5537 127.562C33.3812 127.46 33.2479 127.358 32.8246 127.327C34.5573 126.911 35.9215 126.582 36.3683 126.425C36.5957 126.339 37.4424 126.033 37.2778 125.955C37.0348 125.845 36.8388 125.727 36.2507 125.704C38.1716 125.265 39.6769 124.92 40.1944 124.755C40.4688 124.661 41.6605 124.285 41.4253 124.222C39.5279 123.697 35.0982 123.72 35.255 124.003C35.0277 123.587 33.8987 123.454 32.5267 123.587C33.3342 123.148 33.9536 122.834 33.9536 122.834C33.9536 122.834 33.734 122.701 32.1974 122.701C30.6607 122.701 30.1668 122.827 30.1668 122.827C30.1668 122.827 30.0021 123.077 29.6964 123.454C29.6728 123.454 29.6415 123.454 29.6179 123.454C28.1283 123.454 27.8853 123.666 26.4505 123.658C25.6195 123.407 24.7414 123.368 22.844 123.634C22.844 123.634 21.229 123.987 22.1619 124.912L22.1463 124.928Z" fill="url(#paint5_linear_21825_411557)"/>
<path d="M30.1191 122.857C30.1191 122.857 30.519 123.225 32.0008 123.225C33.4826 123.225 33.8589 122.857 33.8589 122.857C33.8589 122.857 33.169 119.862 32.9494 117.4C32.7378 115.087 33.2082 111.92 33.2082 111.92H30.9032C30.9032 111.92 31.3187 114.617 31.1305 117.337C30.9502 119.893 30.127 122.857 30.127 122.857H30.1191Z" fill="#6E92CC"/>
<path d="M32.487 108.776C34.4549 112.57 40.0292 117.447 40.7192 118.584C40.8368 118.788 41.3856 119.611 41.1739 119.768C40.6016 120.215 39.9116 120.285 38.3514 119.627C38.3514 119.627 38.077 120.458 37.097 120.614C36.117 120.763 35.8112 120.121 35.4898 119.721C35.5995 120.983 33.5924 121.704 32.2674 119.964C31.9538 121.014 30.8248 121.155 30.4485 121.14C28.8962 121.085 28.5904 119.744 28.5982 119.744C28.5982 119.744 28.2141 120.787 26.6304 120.756C25.0466 120.724 25.2034 119.446 25.2034 119.446C25.2034 119.446 24.5213 120.552 22.7024 119.682C22.7024 119.682 21.7302 119.219 24.6468 116.773C26.7401 115.017 29.8997 110.728 31.1698 108.823C31.4442 108.415 32.2596 108.352 32.487 108.776Z" fill="white"/>
<path d="M38.0146 116.984C37.9049 116.914 37.8186 116.937 37.8186 117.071C37.8343 118.85 36.0311 118.827 35.4666 117.565C35.396 117.4 35.3254 117.8 35.3019 117.965C35.2 118.733 33.9534 119.525 33.2164 118.427C33.138 118.309 32.8558 117.753 32.7852 117.902C32.0875 119.391 30.3783 118.984 30.0725 117.337C30.0333 117.141 29.9236 117.055 29.8295 117.22C28.8808 118.858 26.8973 118.858 26.7326 117.502C26.7169 117.361 26.811 116.914 26.6777 116.992C24.8039 118.161 24.0434 117.91 24.5766 116.836C24.6001 116.812 24.6236 116.796 24.6471 116.773C26.7404 115.017 29.9 110.728 31.1701 108.823C31.4445 108.415 32.2599 108.352 32.4873 108.776C33.9769 111.653 37.5364 115.142 39.4729 117.157C38.9476 117.259 38.5478 117.329 38.0146 116.984Z" fill="#4F679C"/>
<path d="M32.4165 106.229C34.157 109.529 38.8141 113.896 39.3472 114.915C39.4413 115.096 39.7941 115.778 39.6138 115.919C39.1199 116.295 38.7357 116.719 36.76 115.652C36.76 115.652 36.4934 116.303 35.6702 116.421C34.847 116.538 34.3452 116.099 34.0786 115.747C33.6474 116.256 33.3103 116.805 32.4008 116.805C30.9974 116.805 30.4565 115.833 30.4565 115.833C30.4565 115.833 30.0488 116.742 28.7238 116.742C27.3988 116.742 27.1636 115.684 27.1636 115.684C27.1636 115.684 25.9484 116.711 24.396 116.005C24.396 116.005 23.4473 115.3 25.7367 113.3C27.5007 111.756 30.1429 107.938 31.264 106.276C31.5071 105.915 32.2127 105.86 32.4087 106.236L32.4165 106.229Z" fill="white"/>
<path d="M37.0422 114.061C36.8776 113.959 36.7757 114.327 36.76 114.492C36.6424 115.66 34.6745 115.323 34.3139 114.461C34.1492 114.061 33.9532 114.092 33.8199 114.296C33.2398 115.159 32.3303 116.115 31.0445 114.429C30.9661 114.32 30.8642 114.226 30.7466 114.312C29.6489 115.096 28.7708 115.621 27.634 114.555C27.5086 114.437 27.2969 114.429 27.1715 114.555C26.5442 115.19 25.3133 114.672 25.0781 113.951C25.2663 113.747 25.4858 113.536 25.7524 113.3C27.5164 111.756 30.1586 107.938 31.2797 106.276C31.5227 105.915 32.2284 105.86 32.4244 106.236C33.9767 109.176 37.8341 112.955 39.0415 114.469C38.3986 114.633 37.5675 114.39 37.0501 114.061H37.0422Z" fill="#5E77B0"/>
<path d="M32.3312 104.433C33.7738 107.17 37.6311 110.776 38.0702 111.623C38.1486 111.772 38.4387 112.336 38.2897 112.454C37.882 112.767 37.5606 113.112 35.9298 112.234C35.9298 112.234 35.7103 112.767 35.0282 112.869C34.3461 112.971 33.9306 112.603 33.711 112.313C33.3504 112.736 33.076 113.191 32.3233 113.191C31.163 113.191 30.7161 112.391 30.7161 112.391C30.7161 112.391 30.379 113.144 29.2813 113.144C28.1837 113.144 27.9877 112.266 27.9877 112.266C27.9877 112.266 26.9842 113.12 25.6984 112.532C25.6984 112.532 24.9143 111.944 26.8038 110.29C28.2621 109.012 30.4495 105.852 31.3747 104.473C31.5707 104.175 32.1587 104.128 32.3233 104.441L32.3312 104.433Z" fill="#6B87C6"/>
<path d="M37.3403 111.537C36.7366 111.693 36.1878 111.364 35.686 111.058C35.5449 110.972 35.3959 111.113 35.4194 111.262C35.6154 112.375 34.0631 112.226 33.6789 111.623C33.5927 111.482 33.3575 111.458 33.2791 111.623C32.8635 112.438 31.2406 112.728 31.0368 111.599C30.9976 111.38 30.7232 111.356 30.5742 111.482C29.9392 112.015 28.6534 112.125 28.1124 111.395C28.0261 111.278 27.8537 111.192 27.7125 111.293C27.2421 111.638 26.5208 111.38 26.1523 110.933C26.3248 110.737 26.5365 110.525 26.8109 110.282C28.2692 109.004 30.4566 105.845 31.3817 104.465C31.5777 104.167 32.1658 104.12 32.3304 104.433C33.624 106.887 36.862 110.047 37.8264 111.278C37.6853 111.395 37.5285 111.489 37.3403 111.537Z" fill="white"/>
<path d="M32.2911 102.299C33.5847 104.753 37.0422 107.984 37.4342 108.744C37.5048 108.877 37.7635 109.387 37.6302 109.489C37.2617 109.771 36.9795 110.085 35.5134 109.293C35.5134 109.293 35.3174 109.771 34.7058 109.857C34.0943 109.944 33.7258 109.614 33.5298 109.356C33.2084 109.732 32.9653 110.14 32.2832 110.14C31.2405 110.14 30.8406 109.418 30.8406 109.418C30.8406 109.418 30.5349 110.093 29.5548 110.093C28.5748 110.093 28.3945 109.308 28.3945 109.308C28.3945 109.308 27.4929 110.069 26.3404 109.552C26.3404 109.552 25.6347 109.026 27.3361 107.544C28.6454 106.4 30.6054 103.562 31.4365 102.331C31.6168 102.064 32.1421 102.025 32.2911 102.299Z" fill="white"/>
<path d="M35.6301 108.283C35.4889 108.229 35.4341 108.636 35.3949 108.762C35.1361 109.593 33.9209 108.652 33.5681 108.229C33.4191 108.048 33.474 108.526 33.4191 108.722C33.0899 109.898 31.7335 109.585 31.0906 108.77C30.9808 108.628 30.9338 108.887 30.8162 108.989C30.0792 109.671 29.209 109.224 28.8954 108.472C28.7542 108.127 28.3857 109.185 26.8177 108.738C26.6687 108.699 26.559 108.597 26.4492 108.511C26.6217 108.244 26.8961 107.923 27.343 107.539C28.6523 106.394 30.6124 103.556 31.4434 102.325C31.6237 102.058 32.149 102.019 32.298 102.294C33.4191 104.418 36.1554 107.123 37.1275 108.307C36.8845 108.691 35.9986 108.417 35.6379 108.276L35.6301 108.283Z" fill="#7898DF"/>
<path d="M32.2126 99.6822C33.2397 102.136 36.0935 105.633 36.4071 106.393C36.462 106.527 36.4541 106.683 36.3522 106.785C36.0621 107.068 35.3722 107.467 34.204 106.676C34.204 106.676 33.7258 107.42 32.8947 107.42C32.0637 107.42 31.7579 106.809 31.7579 106.809C31.7579 106.809 31.2796 107.42 30.4956 107.42C29.7116 107.42 29.3196 106.723 29.3196 106.723C29.3196 106.723 28.4493 107.381 27.532 106.856C27.532 106.856 26.9205 106.417 28.2768 104.935C29.3196 103.79 30.8876 100.952 31.5462 99.7214C31.6873 99.4548 32.1107 99.4156 32.2283 99.69L32.2126 99.6822Z" fill="#7FA0EB"/>
<path d="M27.7277 106.23C28.2295 106.449 28.7313 106.308 29.0841 105.971C29.7348 106.974 31.2009 107.131 31.9928 106.182C32.5573 106.669 33.4119 106.622 33.6627 105.947C34.1724 106.331 34.7525 106.339 35.4425 106.253C35.7326 106.214 36.007 106.167 36.1873 106.01C36.2892 106.175 36.3676 106.308 36.4068 106.394C36.4617 106.527 36.4538 106.684 36.3519 106.786C36.0618 107.068 35.3719 107.468 34.2037 106.676C34.2037 106.676 33.7255 107.421 32.8944 107.421C32.0634 107.421 31.7576 106.81 31.7576 106.81C31.7576 106.81 31.2793 107.421 30.4953 107.421C29.7113 107.421 29.3193 106.723 29.3193 106.723C29.3193 106.723 28.449 107.382 27.5317 106.857C27.5317 106.857 27.2573 106.661 27.4847 106.081C27.5552 106.143 27.6336 106.198 27.7277 106.237V106.23Z" fill="white"/>
<path d="M33.8035 104.112C33.3488 103.861 32.996 103.336 32.7059 102.92C32.6432 102.834 32.5178 102.803 32.4394 102.889C31.9846 103.367 31.3417 103.281 30.934 102.787C30.8556 102.693 30.691 102.701 30.6204 102.787C30.299 103.14 29.9854 103.116 29.7031 102.928C30.4401 101.752 31.1536 100.451 31.5456 99.7135C31.6867 99.447 32.1101 99.4078 32.2277 99.6822C32.7765 100.984 33.8349 102.583 34.76 103.916C34.5405 104.198 34.2426 104.355 33.8114 104.112H33.8035Z" fill="white"/>
<g style="mix-blend-mode:multiply">
<path d="M29.9479 116.931C30.0263 115.739 29.5166 114.618 29.7048 113.387C29.7754 112.917 30.0106 112.462 30.1047 112.023C30.2693 111.254 30.0263 110.925 29.8381 110.251C29.2344 108.071 30.1203 106.221 30.4888 104.081C30.6535 103.14 30.3477 102.387 30.7711 101.517C31.1317 100.788 31.6335 100.184 32.0961 99.5412C32.0412 99.5098 31.9863 99.4941 31.9158 99.4941C31.9079 99.4941 31.8922 99.4941 31.8844 99.4941C31.8138 99.4941 31.7433 99.5177 31.6884 99.5569C31.6257 99.5961 31.5708 99.6431 31.5394 99.7137C31.4689 99.8391 31.3904 99.9959 31.3042 100.153C31.2807 100.2 31.2572 100.247 31.2258 100.294C31.1396 100.451 31.0455 100.623 30.9514 100.796C30.9122 100.858 30.8808 100.929 30.8416 100.992C30.7554 101.148 30.6613 101.305 30.5672 101.47C30.5202 101.556 30.4732 101.642 30.4183 101.729C30.332 101.878 30.2379 102.034 30.1439 102.191C30.0968 102.27 30.0498 102.356 30.0027 102.434C29.4147 103.414 28.7797 104.371 28.2779 104.927C27.831 105.413 27.6037 105.79 27.4939 106.072C27.4625 106.143 27.4468 106.205 27.4312 106.268C27.3606 106.574 27.4468 106.738 27.5017 106.801C27.5096 106.817 27.5174 106.825 27.5252 106.833H27.5331C27.6507 106.895 27.7605 106.942 27.8702 106.982C27.8859 106.982 27.8937 106.982 27.9016 106.982C27.7056 107.185 27.5174 107.374 27.3449 107.53C27.2352 107.624 27.1332 107.718 27.047 107.805C27.0313 107.82 27.0156 107.836 27 107.852C26.9294 107.922 26.8588 107.993 26.8039 108.056C26.7961 108.063 26.7883 108.079 26.7804 108.087C26.7177 108.158 26.6628 108.228 26.6079 108.291C26.6079 108.291 26.6079 108.291 26.6001 108.299C26.5452 108.369 26.4982 108.432 26.459 108.495C25.9729 109.239 26.3571 109.53 26.3571 109.53C26.7412 109.71 27.1019 109.733 27.4076 109.694C27.4076 109.694 27.4076 109.694 27.4076 109.702C27.2038 109.914 27.0156 110.102 26.8275 110.259C26.6942 110.376 26.5766 110.486 26.4668 110.596C26.459 110.604 26.4511 110.612 26.4433 110.619C26.3414 110.721 26.2551 110.815 26.1689 110.909C25.1497 112.07 25.7142 112.501 25.7142 112.501C25.9494 112.603 26.1611 112.65 26.3727 112.681C26.1611 112.901 25.9494 113.105 25.7534 113.277C25.6201 113.395 25.4946 113.505 25.3849 113.614C23.5738 115.355 24.4127 115.982 24.4127 115.982C24.7106 116.115 24.985 116.178 25.2516 116.202C25.0478 116.398 24.8439 116.586 24.6557 116.743C24.6322 116.766 24.6087 116.782 24.5852 116.805C21.7627 119.197 22.7035 119.651 22.7114 119.659C24.5303 120.522 25.2124 119.416 25.2124 119.424C25.2124 119.424 25.0556 120.702 26.6393 120.733C28.223 120.757 28.6072 119.714 28.6072 119.722C28.6072 119.722 28.7405 120.286 29.2579 120.702C28.9914 119.463 29.8538 118.389 29.9479 116.923V116.931Z" fill="#C6CEEF"/>
</g>
<path opacity="0.3" d="M62.8585 132.893C62.3489 132.995 61.8079 133.12 61.2512 133.246C61.706 133.316 62.1529 133.434 62.5762 133.606C62.5762 133.606 63.6425 134.383 58.1936 135.464C58.0446 135.496 57.8878 135.527 57.7232 135.559C57.2606 135.645 56.7588 135.755 56.2414 135.872C56.5471 135.943 56.8451 136.045 57.1195 136.178C57.1195 136.178 57.8408 136.797 54.0461 137.487C54.0461 137.487 54.0304 137.487 54.0226 137.487C53.8893 137.511 53.756 137.534 53.6149 137.558C53.2307 137.621 52.8152 137.707 52.3762 137.801C52.8309 137.864 53.3091 137.981 53.7325 138.224C53.7325 138.224 54.0696 138.546 52.7917 138.93C52.7525 138.946 52.7055 138.953 52.6584 138.969C52.58 138.993 52.5016 139.008 52.4232 139.032C52.384 139.04 52.3448 139.047 52.3056 139.063C52.2037 139.087 52.0939 139.11 51.9763 139.134C51.9449 139.134 51.9214 139.142 51.8901 139.149C51.7568 139.173 51.6078 139.204 51.4589 139.228C51.4432 139.228 51.4275 139.228 51.4118 139.228C51.2393 139.259 51.059 139.283 50.863 139.314C50.5494 139.361 50.2044 139.424 49.8359 139.494C49.8124 139.494 49.7811 139.502 49.7575 139.51C49.7889 139.526 49.8203 139.541 49.8595 139.557C49.9535 139.604 50.0476 139.659 50.1339 139.73C50.1339 139.73 50.1339 139.73 50.1339 139.737C50.1339 139.737 50.1417 139.753 50.1496 139.769C50.1731 139.831 50.1652 139.973 49.8673 140.145C49.8046 140.184 49.734 140.216 49.6478 140.255C49.3107 140.404 48.7775 140.568 47.9151 140.733C47.1232 140.882 46.0883 141.172 45.0613 141.494C44.1518 141.776 43.258 142.082 42.5289 142.332C42.5289 142.332 42.5132 142.332 42.5054 142.332C42.3799 142.38 42.2545 142.419 42.1447 142.458C42.1212 142.458 42.1055 142.474 42.082 142.481C41.9801 142.521 41.886 142.552 41.7919 142.583C41.7684 142.583 41.7527 142.599 41.7292 142.607C41.6273 142.646 41.5254 142.677 41.4391 142.709C41.3685 142.732 41.298 142.748 41.2196 142.74C41.1412 142.74 41.0706 142.724 41.0079 142.709C40.8825 142.67 40.7884 142.591 40.8119 142.497C40.8354 142.387 40.8511 142.27 40.8668 142.152C40.8668 142.152 40.8668 142.136 40.8668 142.129C40.8824 142.019 40.8903 141.901 40.8981 141.784C40.8981 141.776 40.8981 141.76 40.8981 141.752C40.8981 141.635 40.8981 141.517 40.8981 141.399C40.8981 141.384 40.8981 141.376 40.8981 141.36C40.8981 141.243 40.8981 141.117 40.8903 141C40.8903 140.992 40.8903 140.976 40.8903 140.968C40.8903 140.843 40.8746 140.717 40.8668 140.584C40.8668 140.584 40.8668 140.584 40.8668 140.576C40.8354 140.176 40.7884 139.784 40.7335 139.416C40.6159 138.561 40.4904 137.864 40.5375 137.628C40.5532 137.542 40.6394 137.456 40.7805 137.417C40.8981 137.385 41.0549 137.362 41.2274 137.354C40.9922 136.742 40.8119 136.264 40.8276 136.076C40.8276 135.982 40.8589 135.645 41.0314 135.613C41.3685 135.543 41.69 135.449 42.1996 135.7C41.9252 135.018 41.7135 134.5 41.7292 134.288C41.7292 134.187 41.7684 133.81 41.9566 133.763C42.2231 133.7 42.474 133.622 42.7955 133.661C42.5838 133.159 42.4034 132.736 42.325 132.446C42.2858 132.313 42.2702 132.211 42.2702 132.132C42.278 132.007 42.3172 131.56 42.5446 131.489C42.8895 131.388 43.211 131.286 43.6422 131.325C43.2423 130.572 42.9366 130 42.9209 129.749C42.9209 129.616 42.8425 129.067 43.1247 128.973C43.8931 128.706 44.5909 128.691 45.7826 129.208C45.7826 129.208 46.5509 128.659 47.7034 128.596C48.9108 128.534 48.8559 129.004 48.9735 129.31C49.4675 128.644 51.1688 128.22 52.2899 128.565C52.8231 127.671 53.168 127.013 53.168 127.013C53.168 127.013 53.9442 126.723 56.0846 126.723C58.4053 126.723 58.7424 127.036 58.7424 127.036C58.7424 127.036 57.8329 127.64 56.6491 128.479C56.6961 128.479 56.7353 128.479 56.7745 128.479C59.2285 128.596 58.5699 129.765 58.5699 129.765C58.5699 129.765 60.1301 128.902 62.9761 129.028C66.0886 129.169 64.45 130.353 64.45 130.345C64.45 130.345 67.0059 129.373 70.1107 130.4C70.1185 130.4 71.8904 130.988 62.882 132.822L62.8585 132.893Z" fill="url(#paint6_linear_21825_411557)"/>
<path d="M58.5858 127.305C58.5858 127.305 57.9978 127.838 55.8182 127.838C53.6387 127.838 53.0898 127.305 53.0898 127.305C53.0898 127.305 54.1012 122.914 54.4305 119.292C54.7363 115.897 54.0542 111.248 54.0542 111.248H57.4333C57.4333 111.248 56.8218 115.207 57.104 119.198C57.3706 122.946 58.578 127.297 58.578 127.297L58.5858 127.305Z" fill="#6EA5CC"/>
<path d="M55.1121 106.63C52.2269 112.196 44.0417 119.362 43.0225 121.024C42.85 121.33 42.0503 122.529 42.3561 122.765C43.195 123.423 44.2064 123.525 46.4957 122.553C46.4957 122.553 46.8955 123.776 48.3381 123.996C49.7807 124.215 50.2276 123.274 50.6902 122.686C50.5255 124.544 53.4813 125.603 55.4178 123.039C55.8804 124.576 57.5268 124.787 58.0913 124.764C60.365 124.686 60.8119 122.718 60.8119 122.718C60.8119 122.718 61.3764 124.246 63.7049 124.207C66.0334 124.16 65.7982 122.286 65.7982 122.286C65.7982 122.286 66.8018 123.901 69.4753 122.639C69.4831 122.639 70.9022 121.965 66.6215 118.366C63.5481 115.787 58.9067 109.491 57.0486 106.692C56.6409 106.096 55.4492 106.002 55.1199 106.622L55.1121 106.63Z" fill="white"/>
<path d="M46.99 118.688C47.1468 118.586 47.28 118.617 47.28 118.805C47.2565 121.416 49.8987 121.377 50.7297 119.534C50.8395 119.299 50.9414 119.887 50.9728 120.115C51.1217 121.244 52.9485 122.404 54.0304 120.797C54.148 120.624 54.5636 119.809 54.6577 120.021C55.6769 122.208 58.1857 121.604 58.6405 119.197C58.6953 118.907 58.86 118.782 59.0011 119.033C60.3888 121.432 63.3132 121.432 63.5484 119.44C63.5719 119.237 63.4386 118.57 63.6268 118.696C66.3787 120.413 67.492 120.044 66.7158 118.46C66.6766 118.429 66.6531 118.405 66.6139 118.374C63.5406 115.795 58.8992 109.499 57.0411 106.7C56.6334 106.104 55.4417 106.01 55.1124 106.63C52.925 110.848 47.7034 115.975 44.8574 118.939C45.6258 119.08 46.2216 119.19 46.9978 118.688H46.99Z" fill="#4F769C"/>
<path d="M55.2149 102.897C52.659 107.742 45.8224 114.148 45.0384 115.645C44.8972 115.912 44.3876 116.907 44.6464 117.111C45.3677 117.668 45.94 118.287 48.833 116.719C48.833 116.719 49.225 117.668 50.4324 117.84C51.6398 118.013 52.3768 117.362 52.7609 116.845C53.396 117.589 53.8821 118.397 55.2228 118.397C57.2769 118.397 58.0766 116.97 58.0766 116.97C58.0766 116.97 58.6725 118.311 60.6247 118.311C62.5769 118.311 62.914 116.758 62.914 116.758C62.914 116.758 64.7015 118.271 66.9752 117.237C66.9752 117.237 68.3629 116.202 65.0073 113.262C62.4201 110.996 58.5392 105.39 56.9006 102.944C56.5478 102.419 55.505 102.332 55.2149 102.881V102.897Z" fill="white"/>
<path d="M48.4244 114.391C48.6596 114.242 48.8164 114.783 48.8399 115.026C49.0124 116.743 51.9054 116.241 52.4307 114.979C52.6738 114.398 52.956 114.438 53.1599 114.735C54.0144 115.998 55.3394 117.401 57.2368 114.931C57.3544 114.775 57.4955 114.634 57.668 114.759C59.283 115.911 60.561 116.688 62.2309 115.12C62.4191 114.939 62.7249 114.931 62.9131 115.12C63.8304 116.045 65.6414 115.292 65.9942 114.234C65.7198 113.944 65.3984 113.622 65.0064 113.277C62.4191 111.011 58.5382 105.406 56.8996 102.96C56.5468 102.434 55.5041 102.348 55.214 102.897C52.9403 107.217 47.2719 112.76 45.5 114.986C46.4408 115.222 47.6639 114.869 48.4244 114.391Z" fill="#5E87B0"/>
<path d="M55.3313 100.263C53.2145 104.277 47.5538 109.577 46.911 110.816C46.7933 111.036 46.37 111.867 46.5895 112.031C47.1854 112.494 47.6558 113.004 50.0549 111.71C50.0549 111.71 50.3763 112.494 51.3799 112.635C52.3834 112.776 52.9871 112.243 53.3085 111.812C53.8338 112.431 54.2337 113.098 55.347 113.098C57.0483 113.098 57.7069 111.922 57.7069 111.922C57.7069 111.922 58.2008 113.027 59.8159 113.027C61.431 113.027 61.7132 111.741 61.7132 111.741C61.7132 111.741 63.1872 112.996 65.0688 112.133C65.0688 112.133 66.2213 111.279 63.4381 108.848C61.2977 106.974 58.0832 102.333 56.7269 100.31C56.4368 99.8791 55.5744 99.8086 55.3313 100.263Z" fill="#6B99C6"/>
<path d="M47.9772 110.691C48.8631 110.926 49.6707 110.44 50.3998 109.993C50.6115 109.86 50.831 110.079 50.7918 110.291C50.5017 111.929 52.7832 111.71 53.3477 110.824C53.481 110.62 53.8181 110.581 53.9357 110.824C54.5394 112.024 56.9307 112.447 57.2286 110.793C57.2835 110.471 57.6912 110.44 57.9029 110.612C58.8358 111.396 60.7253 111.553 61.5172 110.487C61.6426 110.314 61.9014 110.189 62.1052 110.33C62.7951 110.84 63.8536 110.463 64.3867 109.797C64.1358 109.507 63.8222 109.193 63.4223 108.848C61.282 106.974 58.0675 102.333 56.7112 100.31C56.4211 99.8791 55.5586 99.8086 55.3156 100.263C53.4183 103.87 48.6671 108.503 47.248 110.307C47.4519 110.479 47.6871 110.612 47.9615 110.683L47.9772 110.691Z" fill="white"/>
<path d="M55.3951 97.1352C53.4977 100.734 48.4252 105.485 47.845 106.598C47.7431 106.794 47.3589 107.539 47.5549 107.688C48.0959 108.104 48.5114 108.558 50.6596 107.398C50.6596 107.398 50.9497 108.104 51.8435 108.229C52.7372 108.354 53.2861 107.876 53.5762 107.492C54.0466 108.049 54.4072 108.645 55.4029 108.645C56.9318 108.645 57.5198 107.586 57.5198 107.586C57.5198 107.586 57.9667 108.582 59.4092 108.582C60.8518 108.582 61.1106 107.429 61.1106 107.429C61.1106 107.429 62.4356 108.551 64.1212 107.782C64.1212 107.782 65.1561 107.014 62.6629 104.834C60.7421 103.156 57.8647 98.9933 56.6495 97.1822C56.3908 96.7902 55.6146 96.7275 55.4029 97.1352H55.3951Z" fill="white"/>
<path d="M50.4862 105.908C50.6979 105.822 50.7684 106.426 50.8312 106.614C51.2075 107.837 52.995 106.457 53.5125 105.838C53.732 105.579 53.6458 106.269 53.732 106.567C54.2181 108.292 56.2017 107.829 57.1582 106.637C57.3228 106.434 57.3856 106.81 57.558 106.967C58.64 107.97 59.9179 107.304 60.3805 106.214C60.5922 105.712 61.1253 107.265 63.4303 106.606C63.6498 106.543 63.8145 106.394 63.9713 106.269C63.7204 105.877 63.3127 105.407 62.662 104.842C60.7411 103.164 57.8638 99.0011 56.6486 97.19C56.3898 96.798 55.6137 96.7353 55.402 97.143C53.7634 100.256 49.7414 104.238 48.3145 105.971C48.6673 106.536 49.9687 106.136 50.5019 105.924L50.4862 105.908Z" fill="#78ADDF"/>
<path d="M55.5043 93.2856C53.9912 96.8843 49.8123 102.027 49.3498 103.133C49.2635 103.329 49.2714 103.556 49.4282 103.705C49.8594 104.121 50.8708 104.701 52.5799 103.541C52.5799 103.541 53.2855 104.63 54.5008 104.63C55.716 104.63 56.1707 103.737 56.1707 103.737C56.1707 103.737 56.8763 104.63 58.0289 104.63C59.1814 104.63 59.7615 103.603 59.7615 103.603C59.7615 103.603 61.0395 104.568 62.388 103.799C62.388 103.799 63.2818 103.156 61.2982 100.977C59.7694 99.299 57.4722 95.1359 56.5 93.3248C56.2883 92.9328 55.6768 92.8701 55.5043 93.2778V93.2856Z" fill="white"/>
<path d="M62.0901 102.898C61.3453 103.219 60.624 103.008 60.0987 102.514C59.1422 103.988 56.9862 104.215 55.8258 102.82C54.9948 103.533 53.7403 103.47 53.3718 102.475C52.6192 103.039 51.7724 103.055 50.7532 102.929C50.322 102.874 49.9222 102.796 49.6556 102.569C49.5066 102.804 49.389 103 49.3341 103.133C49.2479 103.329 49.2557 103.557 49.4126 103.706C49.8438 104.121 50.8551 104.701 52.5643 103.541C52.5643 103.541 53.2699 104.631 54.4852 104.631C55.7004 104.631 56.1551 103.737 56.1551 103.737C56.1551 103.737 56.8607 104.631 58.0132 104.631C59.1657 104.631 59.7459 103.604 59.7459 103.604C59.7459 103.604 61.0239 104.568 62.3724 103.8C62.3724 103.8 62.7722 103.51 62.4351 102.655C62.3332 102.741 62.2156 102.827 62.0744 102.882L62.0901 102.898Z" fill="#94C4F2"/>
<path d="M53.1749 99.7929C53.8491 99.4244 54.3587 98.6561 54.7821 98.0446C54.8683 97.9191 55.0722 98.3817 55.1349 98.5463C55.6837 100.02 57.0087 100.914 57.338 99.4715C57.5654 98.4758 57.8006 98.8443 57.9103 98.9697C58.3886 99.4872 59.3764 99.5342 59.1961 98.0524C58.122 96.3276 57.0714 94.4146 56.4913 93.3326C56.2796 92.9406 55.668 92.8779 55.4955 93.2856C54.688 95.1986 53.1356 97.5506 51.7793 99.495C52.1007 99.9184 52.5398 100.138 53.167 99.7851L53.1749 99.7929Z" fill="white"/>
<g style="mix-blend-mode:multiply">
<path d="M57.9738 124.772C57.2996 124.364 56.7037 123.87 56.3666 123.141C56.0373 122.412 55.7237 121.322 55.6688 120.515C55.6296 120.013 55.8805 119.723 56.2412 119.511C54.728 118.312 53.6696 115.991 55.1435 114.439C53.9675 112.628 53.748 110.809 54.1792 108.684C54.3203 108.002 54.579 107.304 54.6418 106.614C54.6967 105.979 54.5242 105.344 54.5712 104.709C54.6731 103.525 55.5356 102.616 55.5356 101.416C55.5356 100.789 55.3944 100.17 55.3552 99.5424C55.316 98.8995 55.4336 98.3585 55.5277 97.7313C55.708 96.5475 55.5748 95.3479 55.81 94.164C55.8805 93.7877 55.9903 93.4114 56.1157 93.0429C56.0687 93.0272 56.0295 93.0194 55.9824 93.0194C55.7786 93.0037 55.5826 93.0899 55.4963 93.2938C55.3944 93.529 55.2847 93.772 55.1671 94.0151C55.1671 94.0308 55.1514 94.0464 55.1435 94.0543C55.0259 94.2895 54.9083 94.5247 54.7751 94.7677C54.7594 94.7913 54.7515 94.8148 54.7358 94.8383C54.6104 95.0735 54.4771 95.3087 54.336 95.5518C54.3203 95.5753 54.3046 95.5988 54.289 95.6223C54.1478 95.8654 53.9989 96.1084 53.8499 96.3515C53.8342 96.375 53.8264 96.3907 53.8107 96.4142C53.6539 96.6651 53.4971 96.9238 53.3325 97.1747C53.3325 97.1747 53.3325 97.1904 53.3246 97.1904C52.815 97.9901 52.274 98.7741 51.7723 99.5032C50.5806 101.22 49.5535 102.624 49.334 103.141C49.2477 103.337 49.2556 103.564 49.4124 103.713C49.5378 103.839 49.7181 103.972 49.9533 104.074C48.8792 105.258 48.0403 106.175 47.8208 106.591C47.7189 106.787 47.3347 107.532 47.5307 107.681C47.9306 107.986 48.2599 108.308 49.2712 107.994C48.0717 109.311 47.1309 110.346 46.8878 110.809C46.7702 111.028 46.3469 111.859 46.5664 112.024C46.8721 112.259 47.1387 112.502 47.6405 112.518C46.731 113.521 45.9627 114.368 45.4766 114.98C45.2571 115.254 45.0924 115.482 45.0062 115.646C44.8651 115.913 44.3554 116.908 44.6142 117.112C44.9983 117.41 45.3433 117.716 46.0019 117.708C44.4966 119.253 43.3284 120.452 42.9913 121.017C42.8188 121.322 42.0191 122.522 42.3248 122.757C43.1637 123.416 44.1751 123.518 46.4645 122.546C46.4645 122.546 46.8643 123.769 48.3069 123.988C49.7495 124.208 50.1964 123.267 50.659 122.679C50.5414 124.027 52.0702 124.952 53.6617 124.372C53.3481 126.066 53.0659 127.289 53.0659 127.289C53.0659 127.289 53.6069 127.822 55.7943 127.822C57.9817 127.822 58.5619 127.289 58.5619 127.289C58.5619 127.289 58.2718 126.254 57.9503 124.756L57.9738 124.772Z" fill="#C6CEEF"/>
</g>
<defs>
<linearGradient id="paint0_linear_21825_411557" x1="517.012" y1="72.8661" x2="442.239" y2="175.545" gradientUnits="userSpaceOnUse">
<stop stop-color="#7393FF"/>
<stop offset="0.04" stop-color="#7393FF" stop-opacity="0.92"/>
<stop offset="0.2" stop-color="#7393FF" stop-opacity="0.68"/>
<stop offset="0.35" stop-color="#7393FF" stop-opacity="0.47"/>
<stop offset="0.5" stop-color="#7393FF" stop-opacity="0.3"/>
<stop offset="0.64" stop-color="#7393FF" stop-opacity="0.17"/>
<stop offset="0.77" stop-color="#7393FF" stop-opacity="0.08"/>
<stop offset="0.9" stop-color="#7393FF" stop-opacity="0.02"/>
<stop offset="1" stop-color="#7393FF" stop-opacity="0"/>
</linearGradient>
<linearGradient id="paint1_linear_21825_411557" x1="34.6005" y1="177.304" x2="41.1307" y2="124.437" gradientUnits="userSpaceOnUse">
<stop stop-color="#7393FF"/>
<stop offset="0.07" stop-color="#7393FF" stop-opacity="0.94"/>
<stop offset="0.21" stop-color="#7393FF" stop-opacity="0.79"/>
<stop offset="0.4" stop-color="#7393FF" stop-opacity="0.55"/>
<stop offset="0.64" stop-color="#7393FF" stop-opacity="0.22"/>
<stop offset="0.78" stop-color="#7393FF" stop-opacity="0"/>
</linearGradient>
<linearGradient id="paint2_linear_21825_411557" x1="33.0001" y1="161.398" x2="45.1277" y2="124.548" gradientUnits="userSpaceOnUse">
<stop stop-color="#7393FF"/>
<stop offset="0.07" stop-color="#7393FF" stop-opacity="0.94"/>
<stop offset="0.21" stop-color="#7393FF" stop-opacity="0.79"/>
<stop offset="0.4" stop-color="#7393FF" stop-opacity="0.55"/>
<stop offset="0.64" stop-color="#7393FF" stop-opacity="0.22"/>
<stop offset="0.78" stop-color="#7393FF" stop-opacity="0"/>
</linearGradient>
<linearGradient id="paint3_linear_21825_411557" x1="17.1375" y1="181.641" x2="25.6501" y2="129.623" gradientUnits="userSpaceOnUse">
<stop stop-color="#7393FF"/>
<stop offset="0.07" stop-color="#7393FF" stop-opacity="0.94"/>
<stop offset="0.21" stop-color="#7393FF" stop-opacity="0.79"/>
<stop offset="0.4" stop-color="#7393FF" stop-opacity="0.55"/>
<stop offset="0.64" stop-color="#7393FF" stop-opacity="0.22"/>
<stop offset="0.78" stop-color="#7393FF" stop-opacity="0"/>
</linearGradient>
<linearGradient id="paint4_linear_21825_411557" x1="97.3948" y1="110.774" x2="63.9094" y2="156.757" gradientUnits="userSpaceOnUse">
<stop stop-color="#7393FF"/>
<stop offset="0.04" stop-color="#7393FF" stop-opacity="0.92"/>
<stop offset="0.2" stop-color="#7393FF" stop-opacity="0.68"/>
<stop offset="0.35" stop-color="#7393FF" stop-opacity="0.47"/>
<stop offset="0.5" stop-color="#7393FF" stop-opacity="0.3"/>
<stop offset="0.64" stop-color="#7393FF" stop-opacity="0.17"/>
<stop offset="0.77" stop-color="#7393FF" stop-opacity="0.08"/>
<stop offset="0.9" stop-color="#7393FF" stop-opacity="0.02"/>
<stop offset="1" stop-color="#7393FF" stop-opacity="0"/>
</linearGradient>
<linearGradient id="paint5_linear_21825_411557" x1="34.2907" y1="107.601" x2="25.6038" y2="143.901" gradientUnits="userSpaceOnUse">
<stop stop-color="#7393FF"/>
<stop offset="0.04" stop-color="#7393FF" stop-opacity="0.92"/>
<stop offset="0.2" stop-color="#7393FF" stop-opacity="0.68"/>
<stop offset="0.35" stop-color="#7393FF" stop-opacity="0.47"/>
<stop offset="0.5" stop-color="#7393FF" stop-opacity="0.3"/>
<stop offset="0.64" stop-color="#7393FF" stop-opacity="0.17"/>
<stop offset="0.77" stop-color="#7393FF" stop-opacity="0.08"/>
<stop offset="0.9" stop-color="#7393FF" stop-opacity="0.02"/>
<stop offset="1" stop-color="#7393FF" stop-opacity="0"/>
</linearGradient>
<linearGradient id="paint6_linear_21825_411557" x1="80.2402" y1="70.9633" x2="36.2019" y2="180.765" gradientUnits="userSpaceOnUse">
<stop stop-color="#73ADFF"/>
<stop offset="0.04" stop-color="#73ADFF" stop-opacity="0.92"/>
<stop offset="0.2" stop-color="#73ADFF" stop-opacity="0.68"/>
<stop offset="0.35" stop-color="#73ADFF" stop-opacity="0.47"/>
<stop offset="0.5" stop-color="#73ADFF" stop-opacity="0.3"/>
<stop offset="0.64" stop-color="#73ADFF" stop-opacity="0.17"/>
<stop offset="0.77" stop-color="#73ADFF" stop-opacity="0.08"/>
<stop offset="0.9" stop-color="#73ADFF" stop-opacity="0.02"/>
<stop offset="1" stop-color="#73ADFF" stop-opacity="0"/>
</linearGradient>
</defs>
</svg>
