<svg width="118" height="30" viewBox="0 0 118 30" fill="none" xmlns="http://www.w3.org/2000/svg">
<path d="M2.78906 13C1.68449 13 0.789062 13.8954 0.789062 15C0.789062 16.1046 1.68449 17 2.78906 17V13ZM116.629 16.4142C117.41 15.6332 117.41 14.3668 116.629 13.5858L103.901 0.857864C103.12 0.0768156 101.854 0.0768156 101.073 0.857864C100.292 1.63891 100.292 2.90524 101.073 3.68629L112.386 15L101.073 26.3137C100.292 27.0948 100.292 28.3611 101.073 29.1421C101.854 29.9232 103.12 29.9232 103.901 29.1421L116.629 16.4142ZM2.78906 17H115.215V13H2.78906V17Z" fill="#3EA8FF"/>
</svg>
