<svg width="101" height="100" viewBox="0 0 101 100" fill="none" xmlns="http://www.w3.org/2000/svg">
<circle cx="50.7891" cy="50" r="48.5" fill="#EDEDED" stroke="#D1D1D1" stroke-width="3"/>
<path d="M60.155 33.4548C58.4769 38.3222 53.9552 39.1599 53.9552 39.1599C53.9552 39.1599 50.9589 35.5724 52.5933 30.8315C54.3149 25.8375 58.8368 25 58.8368 25C58.8368 25 61.8549 28.5241 60.155 33.4548Z" fill="#A4C400"/>
<path d="M58.8377 25C58.8377 25 57.6426 25.2215 56.2473 26.1151C57.014 27.5292 57.9643 30.1819 56.8361 33.4547C56.0243 35.8094 54.5471 37.2208 53.2383 38.0507C53.6223 38.7596 53.9562 39.1597 53.9562 39.1597C53.9562 39.1597 58.478 38.3221 60.156 33.4546C61.8558 28.5241 58.8377 25 58.8377 25Z" fill="#A4C400"/>
<path d="M50.5947 50.6843C50.5201 50.6843 50.4441 50.6731 50.3692 50.6496C49.9715 50.5251 49.75 50.1018 49.8745 49.7041C50.0593 49.1136 54.4266 35.1815 56.5543 29.964C56.7115 29.5782 57.1518 29.3928 57.5378 29.5502C57.9237 29.7075 58.1089 30.1479 57.9514 30.5338C55.8477 35.6926 51.3596 50.0109 51.3144 50.155C51.2135 50.4776 50.9158 50.6843 50.5947 50.6843Z" fill="#535353"/>
<path d="M50.5944 73.0053C50.1776 73.0053 49.8398 72.6675 49.8398 72.2508V49.5709C49.8398 49.1542 50.1776 48.8164 50.5944 48.8164C51.0112 48.8164 51.3489 49.1542 51.3489 49.5709V72.2508C51.3489 72.6675 51.0111 73.0053 50.5944 73.0053Z" fill="#535353"/>
<path d="M55.6471 56.3367C52.8904 56.7285 50.861 56.1654 50.861 56.1654C50.861 56.1654 49.1059 49.1226 54.5907 43.6204C60.3681 37.8247 67.2424 39.7322 67.2424 39.7322C67.2424 39.7322 68.7504 45.4807 64.7544 50.8226" fill="#60A917"/>
<path d="M44.2866 52.6433C49.1795 56.4996 48.3446 62.0272 48.3446 62.0272C48.3446 62.0272 43.0615 64.049 38.2957 60.2928C33.2757 56.3362 34.1106 50.8088 34.1106 50.8088C34.1106 50.8088 39.3301 48.7368 44.2866 52.6433Z" fill="#A4C400"/>
<path d="M38.6749 44.6908C43.6012 50.9676 50.652 49.8882 50.652 49.8882C50.652 49.8882 53.2244 43.1028 48.426 36.989C43.3716 30.5493 36.3208 31.6286 36.3208 31.6286C36.3208 31.6286 33.6845 38.3326 38.6749 44.6908Z" fill="#60A917"/>
<path d="M50.5917 71.1982C50.1749 71.1982 49.8372 70.8604 49.8372 70.4437C49.8372 66.0601 48.2172 62.3175 45.0222 59.3198C42.6297 57.075 40.2353 56.1272 40.2114 56.118C39.8231 55.9668 39.6308 55.5293 39.7821 55.1411C39.9333 54.7529 40.3707 54.5605 40.759 54.7118C40.8678 54.7542 43.4517 55.7769 46.0548 58.2194C48.4688 60.4843 51.3463 64.4437 51.3463 70.4438C51.3462 70.8604 51.0084 71.1982 50.5917 71.1982Z" fill="#535353"/>
<path d="M63.4781 59.1831C59.2509 62.1058 55.114 60.0919 55.114 60.0919C55.114 60.0919 54.8201 55.421 58.9376 52.5742C63.2747 49.5756 67.4115 51.5895 67.4115 51.5895C67.4115 51.5895 67.7603 56.2225 63.4781 59.1831Z" fill="#A4C400"/>
<path d="M67.4114 51.5891C67.4114 51.5891 65.255 50.5399 62.4238 51.0845C63.4566 51.2802 64.0914 51.5891 64.0914 51.5891C64.0914 51.5891 64.4401 56.222 60.1579 59.1827C59.0118 59.9752 57.8725 60.4041 56.8203 60.6094C58.4166 60.9124 60.9306 60.9439 63.4779 59.1827C67.7602 56.2221 67.4114 51.5891 67.4114 51.5891Z" fill="#A4C400"/>
<path d="M50.5891 71.1995C50.1887 71.1995 49.8549 70.8847 49.836 70.4804C49.8309 70.3702 49.7246 67.7424 51.048 64.4936C52.2654 61.5049 54.9758 57.4029 60.9751 54.8326C61.3582 54.6686 61.8017 54.846 61.9658 55.229C62.13 55.6121 61.9524 56.0556 61.5694 56.2198C57.131 58.1213 54.0613 61.0966 52.4457 65.0629C51.2464 68.0071 51.3424 70.3861 51.3436 70.4097C51.3631 70.826 51.0415 71.1792 50.6252 71.1987C50.6131 71.1993 50.601 71.1995 50.5891 71.1995Z" fill="#535353"/>
<path d="M50.3356 50.3314C50.0607 50.3314 49.7956 50.1806 49.6624 49.9187C46.7769 44.2452 41.9007 39.2982 41.8517 39.2488C41.5582 38.953 41.5601 38.4752 41.8559 38.1818C42.1518 37.8882 42.6293 37.8902 42.9229 38.186C43.1294 38.3942 48.0158 43.3523 51.0075 49.2346C51.1963 49.606 51.0483 50.0603 50.677 50.2492C50.5675 50.3049 50.4506 50.3314 50.3356 50.3314Z" fill="#535353"/>
<path d="M50.8281 56.887C50.6828 56.887 50.536 56.8451 50.4066 56.7577C50.0612 56.5245 49.9704 56.0555 50.2035 55.7101C50.4113 55.4022 55.3632 48.1315 61.3883 44.626C61.7484 44.4163 62.2102 44.5384 62.4198 44.8986C62.6294 45.2589 62.5073 45.7206 62.1471 45.9302C56.4176 49.2639 51.503 56.482 51.4542 56.5544C51.3084 56.7705 51.0704 56.887 50.8281 56.887Z" fill="#535353"/>
</svg>
