<svg width="101" height="100" viewBox="0 0 101 100" fill="none" xmlns="http://www.w3.org/2000/svg">
<circle cx="50.2148" cy="50" r="48.5" fill="#EDEDED" stroke="#D1D1D1" stroke-width="3"/>
<path d="M72.6965 48.5317C72.6965 45.1353 70.6311 42.2214 67.6878 40.9773C68.2075 39.9726 68.5029 38.8329 68.5029 37.6236C68.5029 33.5856 65.2295 30.3121 61.1914 30.3121C60.0409 30.3121 58.953 30.5786 57.9847 31.0521C57.1242 27.9716 54.299 25.7109 50.9439 25.7109C47.5889 25.7109 44.7637 27.9716 43.9032 31.0521C42.935 30.5787 41.847 30.3122 40.6965 30.3122C36.6585 30.3122 33.385 33.5856 33.385 37.6237C33.385 38.833 33.6804 39.9727 34.2001 40.9774C31.2568 42.2215 29.1914 45.1354 29.1914 48.5318C29.1914 52.9335 32.6616 56.52 37.0148 56.7164C37.6218 58.9147 39.9655 60.5535 42.7664 60.5535C44.3539 60.5535 45.7938 60.0263 46.8552 59.1701C47.9164 60.0263 49.3564 60.5535 50.9439 60.5535C52.5314 60.5535 53.9714 60.0263 55.0327 59.1701C56.0939 60.0263 57.534 60.5535 59.1215 60.5535C61.9225 60.5535 64.2662 58.9146 64.8731 56.7164C69.2263 56.5199 72.6965 52.9334 72.6965 48.5317Z" fill="#60A917"/>
<path d="M50.5054 25.7254C50.4153 25.7308 50.3257 25.7373 50.2366 25.746C50.2094 25.7486 50.1822 25.7517 50.155 25.7546C50.0593 25.7649 49.9641 25.7769 49.8694 25.7909C49.8518 25.7936 49.834 25.7961 49.8163 25.7988C49.7037 25.8164 49.5919 25.8359 49.4811 25.8585C49.4809 25.8585 49.4807 25.8586 49.4805 25.8586C51.3998 26.2489 53.1969 27.5857 54.3354 29.2708C55.1416 30.4641 56.5191 31.1519 57.9559 31.0542C57.9654 31.0535 57.975 31.0529 57.9846 31.0522C57.1242 27.9716 54.299 25.7109 50.9439 25.7109C50.8264 25.7109 50.7096 25.7144 50.5933 25.7199C50.5639 25.7213 50.5347 25.7236 50.5054 25.7254Z" fill="#A4C400"/>
<path d="M67.6862 40.9777C68.2061 39.9729 68.5014 38.8333 68.5014 37.624C68.5014 33.586 65.2279 30.3125 61.1898 30.3125C60.6888 30.3125 60.1995 30.3632 59.7269 30.4594C63.0633 31.1375 65.5744 34.0874 65.5744 37.624C65.5744 38.8333 65.279 39.9729 64.7593 40.9777C67.7025 42.2218 69.768 45.1357 69.768 48.5321C69.768 52.9338 66.2978 56.5203 61.9446 56.7166C61.4472 58.5184 59.7826 59.9436 57.6562 60.3994C58.1243 60.4999 58.6146 60.5538 59.1199 60.5538C61.9208 60.5538 64.2646 58.9149 64.8715 56.7167C69.2247 56.5204 72.6948 52.9339 72.6948 48.5322C72.695 45.1357 70.6297 42.2219 67.6862 40.9777Z" fill="#A4C400"/>
<path d="M45.7102 57.9593C45.0508 59.0776 42.3181 60.3282 41.3047 60.3993C41.4162 60.4232 41.5292 60.4441 41.6431 60.4627C41.6522 60.4642 41.6613 60.4658 41.6705 60.4673C41.786 60.4856 41.9026 60.5014 42.0204 60.514C42.0234 60.5143 42.0265 60.5145 42.0295 60.5148C42.1354 60.5261 42.2426 60.5341 42.3503 60.5405C42.3766 60.5421 42.4027 60.5436 42.4291 60.5448C42.5413 60.5502 42.6541 60.5538 42.768 60.5538C44.2158 60.5538 45.5399 60.1143 46.567 59.3876L46.7471 59.2566L45.83 57.752L45.7102 57.9593Z" fill="#009000"/>
<path d="M54.6028 59.8264L57.7353 54.8834C57.9831 54.4924 57.9082 53.9791 57.5589 53.6753C57.1859 53.3509 56.6251 53.3721 56.2777 53.7237L53.9708 56.0593C53.6648 56.369 53.1406 56.1114 53.1989 55.68L53.8773 50.6538C53.9498 50.1168 53.5528 49.6305 53.0122 49.5939L52.3766 49.551C51.899 49.5188 51.4739 49.8518 51.391 50.3231L50.1801 57.2029C50.1128 57.5855 49.6269 57.7118 49.3818 57.4104L45.5894 52.7464C45.327 52.4236 44.8832 52.3126 44.4998 52.4738L43.8358 52.7529C43.3101 52.9739 43.1021 53.6094 43.3955 54.0983L47.2926 60.5942C47.857 61.535 48.0897 62.6386 47.9486 63.7265C47.4435 67.6218 46.8162 71.2955 44.2487 74.2881H57.6457C54.8972 71.0845 54.2193 67.1005 53.8555 62.8996C53.7619 61.8209 54.0232 60.7409 54.6028 59.8264Z" fill="#BF6101"/>
<path d="M57.7351 54.8842C57.9829 54.4932 57.908 53.9799 57.5587 53.6761C57.1857 53.3517 56.6249 53.3729 56.2775 53.7245L55.2472 54.7675L53.9706 56.0601C53.6646 56.3698 53.1405 56.1122 53.1987 55.6808L53.8771 50.6546C53.9478 50.1312 53.5719 49.6571 53.0522 49.5996L51.1447 61.4559C51.1127 61.609 51.0876 61.7636 51.0702 61.9192C51.0339 62.2433 51.029 62.5719 51.0574 62.9003C51.4212 67.1013 52.0991 71.0853 54.8475 74.2888H57.6453C54.8968 71.0852 54.2189 67.1012 53.8552 62.9003C53.7618 61.8216 54.023 60.7416 54.6026 59.827L57.7351 54.8842Z" fill="#9A4D01"/>
<path d="M49.5523 31.4512C47.5011 31.4512 45.7353 32.6687 44.9348 34.4198C44.1078 33.8354 43.0992 33.491 42.0097 33.491C39.2063 33.491 36.9338 35.7636 36.9338 38.5669C36.9338 39.4919 37.1824 40.3582 37.6146 41.1051C35.1805 41.4793 33.3164 43.5827 33.3164 46.1217C33.3164 48.925 35.589 51.1976 38.3923 51.1976C41.1956 51.1976 54.6282 39.3304 54.6282 36.5271C54.6282 33.7237 52.3556 31.4512 49.5523 31.4512Z" fill="#A4C400"/>
</svg>
