<svg width="684" height="258" viewBox="0 0 684 258" fill="none" xmlns="http://www.w3.org/2000/svg">
<g opacity="0.7">
<path fill-rule="evenodd" clip-rule="evenodd" d="M47.9688 120.499V121.025C48.2634 121.025 48.7743 121.13 49.0674 121.488V124.819V125.266H49.2882V125.27H51.7803V124.823V121.485C52.0734 121.126 52.5843 121.021 52.8789 121.021V120.503C52.8792 120.503 52.8795 120.503 52.8798 120.503L53.173 119.61L54.3458 119.833L54.9322 119.61V120.28C55.1032 120.206 55.4306 120.012 55.3719 119.833C55.3133 119.654 55.8362 120.206 56.1049 120.503H57.8641L58.3039 121.323C58.5482 121.074 59.0662 120.623 59.1835 120.801C59.3301 121.025 61.1625 121.695 61.8222 121.621C62.25 121.572 63.2327 121.117 63.9107 120.803C64.2781 120.632 64.556 120.503 64.6076 120.503C64.7542 120.503 63.6547 116.705 59.9898 117.003L60.3563 116.258C60.8693 116.333 61.9981 116.437 62.4086 116.258H64.0212C64.2478 116.258 64.0255 115.891 63.7267 115.398C63.2524 114.614 62.5854 113.513 63.2149 113.056C63.7524 112.981 64.3437 112.46 62.4086 110.971L58.3039 110.449C58.6751 110.237 59.2931 109.716 58.9527 109.256C59.2439 109.425 60.6213 109.7 64.6076 109.854C64.8275 109.729 65.0327 109.392 64.0945 109.034L64.6076 108.811L63.8746 107.024L63.1416 106.875C62.7751 106.279 61.6023 105.162 59.8432 105.46L59.55 104.045C60.2585 104.119 62.35 104.089 65.0474 103.374L60.6494 101.14L64.3877 100.023C62.9217 99.5015 59.8432 98.4887 59.2568 98.6078V98.012L58.7437 98.0865C58.6704 97.8879 58.5971 97.4758 58.8903 97.4162C58.9591 97.4023 59.0743 97.383 59.2209 97.3586C59.8559 97.2527 61.0802 97.0485 61.6756 96.746L61.0892 95.9267L60.5029 96.2991V95.5544L60.0631 95.9267L60.283 95.1075C60.2341 94.9586 59.8871 94.7054 58.8903 94.8841L60.0631 93.8414C60.0631 94.0897 60.4442 94.3479 61.9688 93.3946C61.7245 92.8733 60.7374 91.8902 58.7437 92.1285L58.5971 91.5327L60.5029 91.3838L57.6555 90.0432H56.8379C56.8135 89.7702 56.8379 89.224 57.1311 89.224H58.084C58.6948 88.7523 59.9898 87.809 60.283 87.809C60.4023 87.809 60.374 87.7695 60.284 87.6442C60.0976 87.3847 59.6471 86.7574 59.6966 85.3513C59.6477 85.0534 58.817 84.4427 55.885 84.3831L55.6651 83.6384L56.8379 83.9363L58.8903 82.2978C58.5971 82.2234 57.8348 81.9404 57.1311 81.4041C57.1631 81.2055 57.3127 80.7934 57.6555 80.7339C58.084 80.6594 57.9374 78.6486 55.885 78.872V78.1272H55.3719V77.3825H54.7856L55.0788 76.7867L54.2725 77.0101V76.1909L50.5342 71.7969C50.5263 71.8178 50.5185 71.8391 50.5107 71.8606C50.4942 71.8118 50.4774 71.7645 50.4601 71.7188L46.5753 76.1872V77.0065L45.769 76.783L46.0622 77.3788H45.4758V78.1236H44.9627V78.8683C42.9103 78.6449 42.7637 80.6557 43.1922 80.7302C43.535 80.7898 43.6847 81.2019 43.7166 81.4005C43.013 81.9367 42.2507 82.2197 41.9575 82.2942L44.0098 83.9326L45.1826 83.6347L44.9627 84.3795C42.0308 84.4391 41.2 85.0498 41.1512 85.3477C41.2006 86.7538 40.7501 87.3811 40.5638 87.6405C40.4738 87.7658 40.4454 87.8053 40.5648 87.8053C40.858 87.8053 42.1529 88.7487 42.7637 89.2204H43.7166C44.0098 89.2204 44.0343 89.7665 44.0098 90.0396H43.1922L40.3449 91.3801L42.2507 91.5291L42.1041 92.1249C40.1103 91.8866 39.1232 92.8696 38.8789 93.3909C40.4035 94.3442 40.7847 94.086 40.7847 93.8378L41.9575 94.8804C40.9606 94.7017 40.6137 94.9549 40.5648 95.1039L40.7847 95.9231L40.3449 95.5507V96.2955L39.7585 95.9231L39.1721 96.7423C39.7676 97.0448 40.9918 97.249 41.6268 97.3549C41.7735 97.3794 41.8887 97.3986 41.9575 97.4126C42.2507 97.4722 42.1774 97.8843 42.1041 98.0829L41.591 98.0084V98.6042C41.0046 98.485 37.926 99.4979 36.4601 100.019L40.1983 101.136L35.8004 103.371C38.4978 104.086 40.5892 104.115 41.2978 104.041L41.0046 105.456C39.2454 105.158 38.0726 106.275 37.7061 106.871L36.9732 107.02L36.2402 108.807L36.7533 109.031C35.815 109.388 36.0203 109.726 36.2402 109.85C40.2264 109.696 41.6038 109.421 41.895 109.252C41.5546 109.712 42.1726 110.234 42.5438 110.446L38.4391 110.967C36.504 112.457 37.0953 112.978 37.6328 113.052C38.2624 113.509 37.5954 114.611 37.1211 115.394C36.8222 115.888 36.5999 116.255 36.8266 116.255H38.4391C38.8496 116.433 39.9784 116.329 40.4915 116.255L40.858 116.999C37.1931 116.702 36.0936 120.5 36.2402 120.5C36.2917 120.5 36.5696 120.629 36.9371 120.799C37.615 121.113 38.5977 121.569 39.0255 121.617C39.6852 121.691 41.5177 121.021 41.6643 120.798C41.7815 120.619 42.2995 121.071 42.5438 121.319L42.9836 120.5H44.7428C45.0116 120.202 45.5344 119.651 45.4758 119.83C45.4172 120.008 45.7446 120.202 45.9156 120.276V119.606L46.502 119.83L47.6747 119.606L47.9679 120.5C47.9682 120.5 47.9685 120.499 47.9688 120.499Z" fill="#B97545"/>
<path fill-rule="evenodd" clip-rule="evenodd" d="M82.5274 104.89V105.415C82.822 105.415 83.3329 105.52 83.626 105.879V109.21V109.657H83.8468V109.66H86.3389V109.214V105.875C86.632 105.517 87.1429 105.412 87.4375 105.412V104.893C87.4378 104.894 87.4381 104.894 87.4384 104.894L87.7316 104L88.9044 104.224L89.4908 104V104.671C89.6618 104.596 89.9892 104.403 89.9305 104.224C89.8719 104.045 90.3948 104.596 90.6635 104.894H92.4227L92.8625 105.713C93.1068 105.465 93.6248 105.013 93.7421 105.192C93.8887 105.415 95.7211 106.086 96.3808 106.011C96.8086 105.963 97.7913 105.507 98.4693 105.193C98.8367 105.023 99.1146 104.894 99.1662 104.894C99.3128 104.894 98.2133 101.096 94.5484 101.394L94.9148 100.649C95.4279 100.723 96.5567 100.828 96.9672 100.649H98.5798C98.8064 100.649 98.5841 100.282 98.2853 99.7883C97.811 99.005 97.144 97.9035 97.7735 97.4466C98.311 97.3721 98.9023 96.8508 96.9672 95.3613L92.8625 94.84C93.2337 94.6278 93.8517 94.1067 93.5113 93.6466C93.8025 93.8152 95.1799 94.0904 99.1662 94.2442C99.3861 94.1201 99.5913 93.7824 98.6531 93.425L99.1662 93.2015L98.4332 91.4141L97.7002 91.2652C97.3337 90.6694 96.1609 89.5523 94.4018 89.8502L94.1086 88.4351C94.8171 88.5096 96.9086 88.4798 99.606 87.7649L95.208 85.5306L98.9463 84.4135C97.4803 83.8922 94.4018 82.8793 93.8154 82.9985V82.4027L93.3023 82.4771C93.229 82.2785 93.1557 81.8664 93.4489 81.8069C93.5176 81.7929 93.6329 81.7737 93.7795 81.7492C94.4145 81.6433 95.6388 81.4391 96.2342 81.1366L95.6478 80.3174L95.0614 80.6897V79.945L94.6217 80.3174L94.8415 79.4981C94.7927 79.3492 94.4457 79.096 93.4489 79.2747L94.6217 78.2321C94.6217 78.4803 95.0028 78.7385 96.5274 77.7852C96.2831 77.2639 95.296 76.2808 93.3023 76.5191L93.1557 75.9233L95.0614 75.7744L92.2141 74.4339H91.3965C91.3721 74.1608 91.3965 73.6146 91.6897 73.6146H92.6426C93.2534 73.143 94.5484 72.1996 94.8415 72.1996C94.9609 72.1996 94.9325 72.1601 94.8425 72.0348C94.6562 71.7753 94.2057 71.1481 94.2552 69.7419C94.2063 69.444 93.3756 68.8333 90.4436 68.7738L90.2237 68.029L91.3965 68.3269L93.4489 66.6885C93.1557 66.614 92.3934 66.331 91.6897 65.7948C91.7217 65.5962 91.8713 65.1841 92.2141 65.1245C92.6426 65.05 92.496 63.0392 90.4436 63.2626V62.5179H89.9305V61.7731H89.3442L89.6373 61.1773L88.8311 61.4007V60.5815L85.0928 56.1875C85.0849 56.2084 85.0771 56.2297 85.0693 56.2512C85.0528 56.2025 85.036 56.1552 85.0187 56.1094L81.1339 60.5779V61.3971L80.3276 61.1737L80.6208 61.7695H80.0344V62.5142H79.5213V63.259C77.4689 63.0355 77.3223 65.0464 77.7508 65.1208C78.0936 65.1804 78.2432 65.5925 78.2752 65.7911C77.5716 66.3273 76.8092 66.6103 76.5161 66.6848L78.5684 68.3233L79.7412 68.0254L79.5213 68.7701C76.5894 68.8297 75.7586 69.4404 75.7098 69.7383C75.7592 71.1444 75.3087 71.7717 75.1224 72.0311C75.0324 72.1565 75.004 72.196 75.1234 72.196C75.4166 72.196 76.7115 73.1393 77.3223 73.611H78.2752C78.5684 73.611 78.5928 74.1571 78.5684 74.4302H77.7508L74.9035 75.7707L76.8092 75.9197L76.6626 76.5155C74.6689 76.2772 73.6818 77.2602 73.4375 77.7816C74.9621 78.7348 75.3433 78.4767 75.3433 78.2284L76.5161 79.2711C75.5192 79.0923 75.1722 79.3455 75.1234 79.4945L75.3433 80.3137L74.9035 79.9413V80.6861L74.3171 80.3137L73.7307 81.1329C74.3261 81.4354 75.5504 81.6396 76.1854 81.7456C76.3321 81.77 76.4473 81.7892 76.5161 81.8032C76.8092 81.8628 76.7359 82.2749 76.6626 82.4735L76.1496 82.399V82.9948C75.5632 82.8757 72.4846 83.8885 71.0187 84.4098L74.7569 85.527L70.359 87.7612C73.0564 88.4762 75.1478 88.506 75.8564 88.4315L75.5632 89.8465C73.804 89.5486 72.6312 90.6657 72.2647 91.2615L71.5317 91.4105L70.7988 93.1979L71.3119 93.4213C70.3736 93.7788 70.5789 94.1164 70.7988 94.2405C74.785 94.0867 76.1624 93.8116 76.4536 93.6429C76.1132 94.1031 76.7312 94.6242 77.1024 94.8363L72.9977 95.3576C71.0626 96.8471 71.6539 97.3685 72.1914 97.443C72.821 97.8998 72.154 99.0014 71.6797 99.7847C71.3808 100.278 71.1585 100.645 71.3852 100.645H72.9977C73.4082 100.824 74.537 100.72 75.0501 100.645L75.4166 101.39C71.7516 101.092 70.6522 104.89 70.7988 104.89C70.8503 104.89 71.1282 105.019 71.4957 105.19C72.1736 105.504 73.1563 105.959 73.5841 106.008C74.2438 106.082 76.0763 105.412 76.2229 105.188C76.3401 105.01 76.8581 105.461 77.1024 105.71L77.5422 104.89H79.3014C79.5702 104.593 80.093 104.041 80.0344 104.22C79.9757 104.399 80.3031 104.593 80.4742 104.667V103.997L81.0606 104.22L82.2333 103.997L82.5265 104.89C82.5268 104.89 82.5271 104.89 82.5274 104.89Z" fill="#E39E67"/>
<path fill-rule="evenodd" clip-rule="evenodd" d="M115.459 123.835V124.209C115.668 124.209 116.031 124.283 116.239 124.539V126.898V127.214H116.394V127.216H118.16V126.9V124.537C118.367 124.281 118.73 124.207 118.94 124.207V123.837L119.146 123.206L119.977 123.364L120.393 123.206V123.681C120.514 123.628 120.746 123.491 120.705 123.364C120.663 123.238 121.033 123.628 121.224 123.839H122.47L122.782 124.42C122.955 124.244 123.322 123.924 123.405 124.05C123.509 124.209 124.807 124.683 125.275 124.631C125.578 124.596 126.274 124.274 126.755 124.051C127.015 123.93 127.212 123.839 127.248 123.839C127.352 123.839 126.573 121.148 123.976 121.359L124.236 120.831C124.6 120.884 125.4 120.958 125.69 120.831H126.833C126.994 120.831 126.836 120.571 126.624 120.221C126.288 119.666 125.816 118.886 126.262 118.562C126.643 118.509 127.061 118.14 125.69 117.085L122.782 116.715C123.045 116.565 123.483 116.196 123.242 115.87C123.448 115.989 124.424 116.184 127.248 116.293C127.404 116.205 127.55 115.966 126.885 115.713L127.248 115.554L126.729 114.288L126.21 114.182C125.95 113.76 125.119 112.969 123.873 113.18L123.665 112.177C124.167 112.23 125.649 112.209 127.56 111.702L124.444 110.119L127.093 109.328C126.054 108.958 123.873 108.241 123.457 108.325V107.903L123.094 107.956C123.042 107.815 122.99 107.523 123.197 107.481C123.246 107.471 123.328 107.457 123.432 107.44C123.882 107.365 124.749 107.22 125.171 107.006L124.756 106.425L124.34 106.689V106.161L124.028 106.425L124.184 105.845C124.15 105.739 123.904 105.56 123.197 105.687L124.028 104.948C124.028 105.124 124.298 105.307 125.379 104.631C125.206 104.262 124.506 103.565 123.094 103.734L122.99 103.312L124.34 103.206L122.323 102.257H121.743C121.726 102.063 121.743 101.676 121.951 101.676H122.626C123.059 101.342 123.976 100.673 124.184 100.673C124.269 100.673 124.249 100.646 124.185 100.557C124.053 100.373 123.734 99.9284 123.769 98.9321C123.734 98.721 123.146 98.2883 121.068 98.2461L120.912 97.7184L121.743 97.9295L123.197 96.7686C122.99 96.7158 122.45 96.5153 121.951 96.1353C121.974 95.9946 122.08 95.7026 122.323 95.6604C122.626 95.6077 122.522 94.1829 121.068 94.3412V93.8135H120.705V93.2858H120.289L120.497 92.8637L119.926 93.022V92.4415L117.277 89.3281C117.271 89.3424 117.266 89.3569 117.261 89.3716C117.249 89.3379 117.238 89.3051 117.226 89.2734L114.473 92.4396V93.02L113.902 92.8617L114.109 93.2839H113.694V93.8116H113.33V94.3393C111.876 94.181 111.772 95.6057 112.076 95.6585C112.319 95.7007 112.425 95.9927 112.448 96.1334C111.949 96.5134 111.409 96.7139 111.201 96.7667L112.655 97.9276L113.486 97.7165L113.33 98.2442C111.253 98.2864 110.664 98.7191 110.63 98.9302C110.665 99.9265 110.346 100.371 110.214 100.555C110.15 100.644 110.13 100.672 110.214 100.672C110.422 100.672 111.34 101.34 111.772 101.674H112.448C112.655 101.674 112.673 102.061 112.655 102.255H112.076L110.059 103.204L111.409 103.31L111.305 103.732C109.892 103.563 109.193 104.26 109.02 104.629C110.1 105.305 110.37 105.122 110.37 104.946L111.201 105.685C110.495 105.558 110.249 105.737 110.214 105.843L110.37 106.423L110.059 106.16V106.687L109.643 106.423L109.228 107.004C109.649 107.218 110.517 107.363 110.967 107.438C111.071 107.455 111.152 107.469 111.201 107.479C111.409 107.521 111.357 107.813 111.305 107.954L110.941 107.901V108.323C110.526 108.239 108.345 108.956 107.306 109.326L109.955 110.117L106.838 111.7C108.75 112.207 110.232 112.228 110.734 112.175L110.526 113.178C109.279 112.967 108.449 113.758 108.189 114.18L107.669 114.286L107.15 115.552L107.514 115.711C106.849 115.964 106.994 116.203 107.15 116.291C109.975 116.182 110.951 115.987 111.157 115.868C110.916 116.194 111.354 116.563 111.617 116.713L108.708 117.083C107.337 118.138 107.756 118.508 108.137 118.56C108.583 118.884 108.11 119.665 107.774 120.22C107.563 120.569 107.405 120.829 107.566 120.829H108.708C108.999 120.956 109.799 120.882 110.162 120.829L110.422 121.357C107.825 121.146 107.046 123.837 107.15 123.837C107.187 123.837 107.384 123.929 107.644 124.049C108.124 124.272 108.821 124.595 109.124 124.629C109.591 124.682 110.889 124.207 110.993 124.048C111.076 123.922 111.443 124.242 111.617 124.418L111.928 123.837H113.175C113.365 123.626 113.736 123.236 113.694 123.362C113.652 123.489 113.884 123.626 114.006 123.679V123.204L114.421 123.362L115.252 123.204L115.459 123.835Z" fill="#642E15"/>
</g>
<g opacity="0.7">
<path fill-rule="evenodd" clip-rule="evenodd" d="M636.959 184.78V185.306C637.254 185.306 637.765 185.411 638.058 185.77V189.101V189.547H638.278V189.551H640.771V189.104V185.766C641.064 185.407 641.575 185.302 641.869 185.302V184.784C641.869 184.784 641.87 184.785 641.87 184.785L642.163 183.891L643.336 184.114L643.922 183.891V184.561C644.093 184.487 644.421 184.293 644.362 184.114C644.304 183.936 644.826 184.487 645.095 184.785H646.854L647.294 185.604C647.538 185.356 648.056 184.904 648.174 185.083C648.32 185.306 650.153 185.976 650.812 185.902C651.24 185.854 652.223 185.398 652.901 185.084C653.268 184.914 653.546 184.785 653.598 184.785C653.744 184.785 652.645 180.986 648.98 181.284L649.346 180.54C649.86 180.614 650.988 180.718 651.399 180.54H653.011C653.238 180.54 653.016 180.172 652.717 179.679C652.243 178.896 651.576 177.794 652.205 177.337C652.743 177.263 653.334 176.741 651.399 175.252L647.294 174.731C647.665 174.518 648.283 173.997 647.943 173.537C648.234 173.706 649.612 173.981 653.598 174.135C653.818 174.011 654.023 173.673 653.085 173.316L653.598 173.092L652.865 171.305L652.132 171.156C651.765 170.56 650.593 169.443 648.833 169.741L648.54 168.326C649.249 168.4 651.34 168.37 654.038 167.655L649.64 165.421L653.378 164.304C651.912 163.783 648.833 162.77 648.247 162.889V162.293L647.734 162.368C647.661 162.169 647.587 161.757 647.881 161.697C647.949 161.684 648.065 161.664 648.211 161.64C648.846 161.534 650.07 161.33 650.666 161.027L650.079 160.208L649.493 160.58V159.836L649.053 160.208L649.273 159.389C649.224 159.24 648.877 158.987 647.881 159.165L649.053 158.123C649.053 158.371 649.434 158.629 650.959 157.676C650.715 157.155 649.728 156.171 647.734 156.41L647.587 155.814L649.493 155.665L646.646 154.324H645.828C645.804 154.051 645.828 153.505 646.121 153.505H647.074C647.685 153.034 648.98 152.09 649.273 152.09C649.393 152.09 649.364 152.051 649.274 151.925C649.088 151.666 648.637 151.039 648.687 149.633C648.638 149.335 647.807 148.724 644.875 148.664L644.655 147.92L645.828 148.218L647.881 146.579C647.587 146.505 646.825 146.222 646.121 145.685C646.153 145.487 646.303 145.075 646.646 145.015C647.074 144.941 646.928 142.93 644.875 143.153V142.408H644.362V141.664H643.776L644.069 141.068L643.263 141.291V140.472L639.524 136.078C639.517 136.099 639.509 136.12 639.501 136.142C639.484 136.093 639.468 136.046 639.45 136L635.566 140.468V141.288L634.759 141.064L635.052 141.66H634.466V142.405H633.953V143.15C631.901 142.926 631.754 144.937 632.182 145.011C632.525 145.071 632.675 145.483 632.707 145.682C632.003 146.218 631.241 146.501 630.948 146.575L633 148.214L634.173 147.916L633.953 148.661C631.021 148.72 630.19 149.331 630.141 149.629C630.191 151.035 629.74 151.662 629.554 151.922C629.464 152.047 629.436 152.087 629.555 152.087C629.848 152.087 631.143 153.03 631.754 153.502H632.707C633 153.502 633.024 154.048 633 154.321H632.182L629.335 155.661L631.241 155.81L631.094 156.406C629.101 156.168 628.113 157.151 627.869 157.672C629.394 158.625 629.775 158.367 629.775 158.119L630.948 159.162C629.951 158.983 629.604 159.236 629.555 159.385L629.775 160.204L629.335 159.832V160.577L628.749 160.204L628.162 161.024C628.758 161.326 629.982 161.53 630.617 161.636C630.764 161.661 630.879 161.68 630.948 161.694C631.241 161.753 631.168 162.166 631.094 162.364L630.581 162.29V162.885C629.995 162.766 626.916 163.779 625.45 164.3L629.189 165.418L624.791 167.652C627.488 168.367 629.579 168.397 630.288 168.322L629.995 169.737C628.236 169.439 627.063 170.556 626.696 171.152L625.963 171.301L625.23 173.089L625.743 173.312C624.805 173.669 625.011 174.007 625.23 174.131C629.217 173.977 630.594 173.702 630.885 173.534C630.545 173.994 631.163 174.515 631.534 174.727L627.429 175.248C625.494 176.738 626.086 177.259 626.623 177.334C627.253 177.79 626.586 178.892 626.111 179.675C625.812 180.169 625.59 180.536 625.817 180.536H627.429C627.84 180.715 628.969 180.61 629.482 180.536L629.848 181.281C626.183 180.983 625.084 184.781 625.23 184.781C625.282 184.781 625.56 184.91 625.927 185.08C626.605 185.394 627.588 185.85 628.016 185.898C628.675 185.973 630.508 185.302 630.654 185.079C630.772 184.9 631.29 185.352 631.534 185.6L631.974 184.781H633.733C634.002 184.483 634.525 183.932 634.466 184.111C634.407 184.29 634.735 184.483 634.906 184.558V183.887L635.492 184.111L636.665 183.887L636.958 184.781C636.958 184.781 636.959 184.781 636.959 184.78Z" fill="#B97545"/>
<path fill-rule="evenodd" clip-rule="evenodd" d="M671.398 186.561V186.935C671.608 186.935 671.971 187.01 672.178 187.265V189.624V189.941H672.333V189.943H674.099V189.626V187.263C674.307 187.008 674.67 186.933 674.879 186.933V186.563L675.086 185.932L675.917 186.091L676.332 185.932V186.407C676.454 186.355 676.686 186.217 676.644 186.091C676.602 185.964 676.973 186.355 677.163 186.566H678.41L678.721 187.146C678.895 186.97 679.262 186.65 679.345 186.777C679.449 186.935 680.747 187.41 681.214 187.357C681.517 187.323 682.214 187 682.694 186.778C682.954 186.657 683.151 186.566 683.188 186.566C683.292 186.566 682.513 183.874 679.916 184.086L680.176 183.558C680.539 183.611 681.339 183.685 681.63 183.558H682.772C682.933 183.558 682.775 183.298 682.564 182.948C682.228 182.393 681.755 181.613 682.201 181.289C682.582 181.236 683.001 180.867 681.63 179.811L678.721 179.442C678.984 179.292 679.422 178.922 679.181 178.596C679.387 178.716 680.363 178.911 683.188 179.02C683.344 178.932 683.489 178.693 682.824 178.439L683.188 178.281L682.669 177.015L682.149 176.909C681.89 176.487 681.059 175.695 679.812 175.906L679.604 174.904C680.106 174.957 681.588 174.935 683.5 174.429L680.383 172.846L683.032 172.054C681.993 171.685 679.812 170.967 679.397 171.052V170.629L679.033 170.682C678.981 170.541 678.929 170.249 679.137 170.207C679.186 170.197 679.267 170.184 679.371 170.166C679.821 170.091 680.689 169.947 681.11 169.732L680.695 169.152L680.28 169.416V168.888L679.968 169.152L680.124 168.571C680.089 168.466 679.843 168.286 679.137 168.413L679.968 167.674C679.968 167.85 680.238 168.033 681.318 167.358C681.145 166.988 680.446 166.292 679.033 166.461L678.929 166.039L680.28 165.933L678.262 164.983H677.683C677.665 164.79 677.683 164.403 677.89 164.403H678.566C678.998 164.068 679.916 163.4 680.124 163.4C680.208 163.4 680.188 163.372 680.124 163.283C679.992 163.099 679.673 162.655 679.708 161.659C679.674 161.448 679.085 161.015 677.008 160.973L676.852 160.445L677.683 160.656L679.137 159.495C678.929 159.442 678.389 159.242 677.89 158.862C677.913 158.721 678.019 158.429 678.262 158.387C678.566 158.334 678.462 156.909 677.008 157.068V156.54H676.644V156.012H676.229L676.436 155.59L675.865 155.749V155.168L673.216 152.055C673.211 152.069 673.205 152.083 673.2 152.098C673.189 152.064 673.177 152.032 673.165 152L670.412 155.166V155.747L669.841 155.588L670.049 156.01H669.633V156.538H669.27V157.066C667.816 156.908 667.712 158.332 668.015 158.385C668.258 158.427 668.364 158.719 668.387 158.86C667.888 159.24 667.348 159.44 667.141 159.493L668.595 160.654L669.426 160.443L669.27 160.971C667.192 161.013 666.604 161.446 666.569 161.657C666.604 162.653 666.285 163.098 666.153 163.281C666.089 163.37 666.069 163.398 666.154 163.398C666.362 163.398 667.279 164.067 667.712 164.401H668.387C668.595 164.401 668.612 164.788 668.595 164.981H668.015L665.998 165.931L667.348 166.037L667.244 166.459C665.832 166.29 665.132 166.986 664.959 167.356C666.04 168.031 666.31 167.848 666.31 167.672L667.141 168.411C666.434 168.285 666.188 168.464 666.154 168.57L666.31 169.15L665.998 168.886V169.414L665.582 169.15L665.167 169.73C665.589 169.945 666.456 170.089 666.906 170.165C667.01 170.182 667.092 170.195 667.141 170.205C667.348 170.248 667.296 170.54 667.244 170.68L666.881 170.628V171.05C666.465 170.965 664.284 171.683 663.245 172.052L665.894 172.844L662.778 174.427C664.689 174.933 666.171 174.955 666.673 174.902L666.465 175.904C665.219 175.693 664.388 176.485 664.128 176.907L663.609 177.013L663.09 178.279L663.453 178.437C662.788 178.691 662.934 178.93 663.09 179.018C665.914 178.909 666.89 178.714 667.096 178.594C666.855 178.92 667.293 179.29 667.556 179.44L664.648 179.809C663.277 180.865 663.695 181.234 664.076 181.287C664.522 181.611 664.05 182.391 663.714 182.946C663.502 183.296 663.344 183.556 663.505 183.556H664.648C664.938 183.683 665.738 183.609 666.102 183.556L666.362 184.084C663.765 183.873 662.986 186.564 663.09 186.564C663.126 186.564 663.323 186.655 663.583 186.776C664.064 186.998 664.76 187.321 665.063 187.355C665.531 187.408 666.829 186.933 666.933 186.775C667.016 186.648 667.383 186.968 667.556 187.144L667.868 186.564H669.114C669.305 186.353 669.675 185.962 669.633 186.089C669.592 186.216 669.824 186.353 669.945 186.405V185.931L670.361 186.089L671.192 185.931L671.398 186.561Z" fill="#642E15"/>
</g>
<path d="M565.621 9.20256C547.627 24.0779 509.588 15.4006 492.818 9.20256C397.189 -16.4735 369.556 32.0402 363.565 67.724C350.622 144.801 237.231 192.108 163.243 105.008C149.126 -32.2521 -45.8466 49.9037 13.0558 144.695C63.0277 225.114 88.4417 176.108 88.4417 256.108" stroke="#949494" stroke-width="3" stroke-linecap="round" stroke-dasharray="10 10"/>
<path fill-rule="evenodd" clip-rule="evenodd" d="M440.207 74.3105V74.8679C440.522 74.8679 441.068 74.98 441.382 75.3632V78.9341V79.4123H444.049V79.4107H444.286V78.9325V75.3648C444.6 74.9816 445.146 74.8695 445.461 74.8695V74.309C445.461 74.3093 445.462 74.3097 445.462 74.31L445.776 73.3537L447.031 73.5928L447.659 73.3537V74.0709C447.842 73.9912 448.192 73.784 448.129 73.5928C448.067 73.4015 448.626 73.9913 448.914 74.31H450.796L451.267 75.1867C451.528 74.9211 452.083 74.4375 452.208 74.6288C452.365 74.8679 454.326 75.5852 455.032 75.5055C455.49 75.4538 456.541 74.9664 457.267 74.6302C457.66 74.4479 457.958 74.31 458.013 74.31C458.17 74.31 456.993 70.2454 453.071 70.5642L453.463 69.7673C454.012 69.847 455.22 69.9585 455.66 69.7673H457.385C457.628 69.7673 457.39 69.3743 457.07 68.8462C456.563 68.008 455.849 66.8292 456.522 66.3402C457.098 66.2605 457.73 65.7026 455.66 64.1087L451.267 63.5508C451.664 63.3237 452.326 62.7661 451.961 62.2737C452.273 62.4542 453.747 62.7486 458.013 62.9132C458.248 62.7804 458.468 62.4191 457.464 62.0365L458.013 61.7974L457.228 59.8847L456.444 59.7253C456.052 59.0877 454.797 57.8922 452.914 58.211L452.6 56.6968C453.359 56.7765 455.597 56.7446 458.483 55.9795L453.777 53.5885L457.777 52.3931C456.209 51.8352 452.914 50.7513 452.287 50.8788V50.2412L451.738 50.3209C451.659 50.1084 451.581 49.6674 451.895 49.6036C451.968 49.5887 452.091 49.5681 452.248 49.5419C452.928 49.4286 454.238 49.2101 454.875 48.8864L454.248 48.0097L453.62 48.4082V47.6112L453.15 48.0097L453.385 47.133C453.333 46.9736 452.961 46.7026 451.895 46.8939L453.15 45.7781C453.15 46.0438 453.557 46.3201 455.189 45.2999C454.927 44.7421 453.871 43.69 451.738 43.9451L451.581 43.3075L453.62 43.1481L450.573 41.7135H449.698C449.672 41.4213 449.698 40.8368 450.012 40.8368H451.032C451.685 40.3321 453.071 39.3226 453.385 39.3226C453.513 39.3226 453.482 39.2803 453.386 39.1462C453.187 38.8686 452.704 38.1973 452.757 36.6925C452.705 36.3738 451.816 35.7202 448.678 35.6565L448.443 34.8595L449.698 35.1783L451.895 33.4249C451.581 33.3452 450.765 33.0424 450.012 32.4686C450.046 32.256 450.206 31.815 450.573 31.7513C451.032 31.6716 450.875 29.5197 448.678 29.7588V28.9618H448.129V28.1649H447.502L447.816 27.5273L446.953 27.7664V26.8897L442.952 22.1875C442.944 22.211 442.935 22.235 442.926 22.2592C442.909 22.2077 442.891 22.1578 442.872 22.1094L438.715 26.8913V27.7679L437.852 27.5288L438.166 28.1664H437.539V28.9634H436.99V29.7604C434.793 29.5213 434.636 31.6731 435.095 31.7528C435.462 31.8166 435.622 32.2576 435.656 32.4701C434.903 33.0439 434.087 33.3468 433.774 33.4265L435.97 35.1799L437.225 34.8611L436.99 35.658C433.852 35.7218 432.963 36.3753 432.911 36.6941C432.964 38.1989 432.481 38.8701 432.282 39.1478C432.186 39.2819 432.155 39.3242 432.283 39.3242C432.597 39.3242 433.983 40.3337 434.636 40.8384H435.656C435.97 40.8384 435.996 41.4229 435.97 41.7151H435.095L432.048 43.1497L434.087 43.3091L433.93 43.9466C431.797 43.6916 430.741 44.7436 430.479 45.3015C432.111 46.3216 432.518 46.0454 432.518 45.7797L433.774 46.8955C432.707 46.7042 432.335 46.9752 432.283 47.1346L432.518 48.0112L432.048 47.6128V48.4097L431.42 48.0112L430.793 48.8879C431.43 49.2116 432.74 49.4302 433.42 49.5435C433.577 49.5697 433.7 49.5903 433.774 49.6052C434.087 49.669 434.009 50.11 433.93 50.3225L433.381 50.2428V50.8804C432.754 50.7529 429.459 51.8368 427.891 52.3946L431.891 53.5901L427.185 55.9811C430.071 56.7462 432.309 56.778 433.068 56.6983L432.754 58.2126C430.871 57.8938 429.616 59.0893 429.224 59.7269L428.44 59.8863L427.655 61.799L428.204 62.0381C427.2 62.4207 427.42 62.782 427.655 62.9148C431.921 62.7502 433.395 62.4558 433.707 62.2753C433.342 62.7677 434.004 63.3253 434.401 63.5524L430.008 64.1103C427.938 65.7042 428.57 66.2621 429.146 66.3418C429.819 66.8307 429.105 68.0095 428.598 68.8478C428.278 69.3759 428.04 69.7688 428.283 69.7688H430.008C430.448 69.9601 431.656 69.8485 432.205 69.7688L432.597 70.5658C428.675 70.247 427.498 74.3116 427.655 74.3116C427.71 74.3116 428.008 74.4495 428.401 74.6317C429.127 74.968 430.178 75.4554 430.636 75.5071C431.342 75.5868 433.303 74.8695 433.46 74.6304C433.585 74.4391 434.14 74.9226 434.401 75.1883L434.872 74.3116H436.754C437.042 73.9928 437.601 73.403 437.539 73.5943C437.476 73.7856 437.826 73.9928 438.009 74.0725V73.3552L438.637 73.5943L439.892 73.3552L440.206 74.3116C440.206 74.3113 440.207 74.3109 440.207 74.3105Z" fill="#B97545"/>
<path d="M486.601 90.6953H464.826V67.5528H486.601V90.6953Z" fill="#EBB88D"/>
<path d="M486.602 67.5528L520.019 56.5481V79.6887L486.602 90.6953V67.5528Z" fill="#E39E67"/>
<path d="M464.826 67.5547L475.614 57.8287L486.601 67.5547H464.826Z" fill="#EBB88D"/>
<path d="M485.259 67.5547H486.601L475.614 57.8287L464.826 67.5547H466.185L475.829 59.1019L485.259 67.5547Z" fill="#E39E67"/>
<path d="M462.914 69.375L475.615 57.8233L488.333 69.1417L521.683 57.5041L508.745 46.7701L475.008 57.2054L462.113 68.8075L462.914 69.375Z" fill="#B97545"/>
<rect x="472.387" y="81.7188" width="6.16394" height="8.22135" fill="#B97545"/>
<path d="M422.311 81.7969H420.201V77.2512H422.311V81.7969Z" fill="#B5ACBF"/>
<path d="M413.877 81.7969H411.768V77.2512H413.877V81.7969Z" fill="#B5ACBF"/>
<path d="M414.339 110.43L436.097 109.657L435.113 86.5348L413.355 87.3058L414.339 110.43Z" fill="#EBB88D"/>
<path d="M380.479 100.625L402.235 99.8503L401.252 76.7283L379.494 77.4992L380.479 100.625Z" fill="#E72F51"/>
<path d="M413.356 87.3058L379.494 77.4921L380.479 100.618L414.339 110.43L413.356 87.3058Z" fill="#E39E67"/>
<path d="M435.113 86.5415L423.918 77.2057L413.355 87.3125L435.113 86.5415Z" fill="#EBB88D"/>
<path d="M414.697 87.264L413.355 87.3125L423.918 77.2057L435.113 86.5415L433.754 86.5882L423.757 78.4826L414.697 87.264Z" fill="#E39E67"/>
<path d="M401.537 76.6665L390.344 67.3288L379.781 77.4375L401.537 76.6665Z" fill="#C7BDCF"/>
<path d="M390.344 67.3323L423.918 77.2057L413.355 87.3125L379.781 77.4409L390.344 67.3323Z" fill="#B5ACBF"/>
<path d="M437.103 88.2945L423.919 77.2039L411.693 88.9609L377.873 78.5163L390.345 67.3305L424.501 76.5636L437.881 87.7009L437.103 88.2945Z" fill="#B97545"/>
<rect x="425.129" y="101.719" width="6.16394" height="8.22135" fill="#B97545"/>
</svg>
