<svg width="40" height="40" viewBox="0 0 40 40" fill="none" xmlns="http://www.w3.org/2000/svg">
<g id="Group 33458">
<circle id="Ellipse 69" opacity="0.1" cx="20" cy="20" r="20" fill="#FF8A00"/>
<g id="camera 1" clip-path="url(#clip0_24199_289690)">
<g id="Vector">
<mask id="path-2-inside-1_24199_289690" fill="white">
<path d="M27 12H26.492L24.308 9.168C24.0265 8.80581 23.6663 8.51242 23.2547 8.31005C22.843 8.10769 22.3907 8.00166 21.932 8H18.068C17.6093 8.00166 17.157 8.10769 16.7453 8.31005C16.3337 8.51242 15.9735 8.80581 15.692 9.168L13.508 12H13C11.6744 12.0016 10.4036 12.5289 9.46622 13.4662C8.52888 14.4036 8.00159 15.6744 8 17V27C8.00159 28.3256 8.52888 29.5964 9.46622 30.5338C10.4036 31.4711 11.6744 31.9984 13 32H27C28.3256 31.9984 29.5964 31.4711 30.5338 30.5338C31.4711 29.5964 31.9984 28.3256 32 27V17C31.9984 15.6744 31.4711 14.4036 30.5338 13.4662C29.5964 12.5289 28.3256 12.0016 27 12ZM17.276 10.39C17.3697 10.2691 17.4897 10.1711 17.6269 10.1035C17.7642 10.0359 17.915 10.0005 18.068 10H21.932C22.085 10.0007 22.2357 10.0361 22.373 10.1037C22.5102 10.1713 22.6302 10.2692 22.724 10.39L23.966 12H16.034L17.276 10.39ZM30 27C30 27.7956 29.6839 28.5587 29.1213 29.1213C28.5587 29.6839 27.7956 30 27 30H13C12.2044 30 11.4413 29.6839 10.8787 29.1213C10.3161 28.5587 10 27.7956 10 27V17C10 16.2044 10.3161 15.4413 10.8787 14.8787C11.4413 14.3161 12.2044 14 13 14H27C27.7956 14 28.5587 14.3161 29.1213 14.8787C29.6839 15.4413 30 16.2044 30 17V27Z"/>
</mask>
<path d="M27 12H26.492L24.308 9.168C24.0265 8.80581 23.6663 8.51242 23.2547 8.31005C22.843 8.10769 22.3907 8.00166 21.932 8H18.068C17.6093 8.00166 17.157 8.10769 16.7453 8.31005C16.3337 8.51242 15.9735 8.80581 15.692 9.168L13.508 12H13C11.6744 12.0016 10.4036 12.5289 9.46622 13.4662C8.52888 14.4036 8.00159 15.6744 8 17V27C8.00159 28.3256 8.52888 29.5964 9.46622 30.5338C10.4036 31.4711 11.6744 31.9984 13 32H27C28.3256 31.9984 29.5964 31.4711 30.5338 30.5338C31.4711 29.5964 31.9984 28.3256 32 27V17C31.9984 15.6744 31.4711 14.4036 30.5338 13.4662C29.5964 12.5289 28.3256 12.0016 27 12ZM17.276 10.39C17.3697 10.2691 17.4897 10.1711 17.6269 10.1035C17.7642 10.0359 17.915 10.0005 18.068 10H21.932C22.085 10.0007 22.2357 10.0361 22.373 10.1037C22.5102 10.1713 22.6302 10.2692 22.724 10.39L23.966 12H16.034L17.276 10.39ZM30 27C30 27.7956 29.6839 28.5587 29.1213 29.1213C28.5587 29.6839 27.7956 30 27 30H13C12.2044 30 11.4413 29.6839 10.8787 29.1213C10.3161 28.5587 10 27.7956 10 27V17C10 16.2044 10.3161 15.4413 10.8787 14.8787C11.4413 14.3161 12.2044 14 13 14H27C27.7956 14 28.5587 14.3161 29.1213 14.8787C29.6839 15.4413 30 16.2044 30 17V27Z" fill="#FF8A00" stroke="#FF8A00" stroke-width="42.6667" mask="url(#path-2-inside-1_24199_289690)"/>
</g>
<g id="Vector_2">
<mask id="path-3-inside-2_24199_289690" fill="white">
<path d="M20 16C18.8133 16 17.6533 16.3519 16.6666 17.0112C15.6799 17.6705 14.9109 18.6075 14.4567 19.7039C14.0026 20.8003 13.8838 22.0067 14.1153 23.1705C14.3468 24.3344 14.9182 25.4035 15.7574 26.2426C16.5965 27.0818 17.6656 27.6532 18.8295 27.8847C19.9933 28.1162 21.1997 27.9974 22.2961 27.5433C23.3925 27.0892 24.3295 26.3201 24.9888 25.3334C25.6481 24.3467 26 23.1867 26 22C25.9984 20.4092 25.3658 18.884 24.2409 17.7591C23.116 16.6342 21.5908 16.0016 20 16ZM20 26C19.2089 26 18.4355 25.7654 17.7777 25.3259C17.1199 24.8864 16.6072 24.2616 16.3045 23.5307C16.0017 22.7998 15.9225 21.9956 16.0769 21.2196C16.2312 20.4437 16.6122 19.731 17.1716 19.1716C17.731 18.6122 18.4437 18.2312 19.2196 18.0769C19.9956 17.9225 20.7998 18.0017 21.5307 18.3045C22.2616 18.6072 22.8864 19.1199 23.3259 19.7777C23.7654 20.4355 24 21.2089 24 22C24 23.0609 23.5786 24.0783 22.8284 24.8284C22.0783 25.5786 21.0609 26 20 26Z"/>
</mask>
<path d="M20 16C18.8133 16 17.6533 16.3519 16.6666 17.0112C15.6799 17.6705 14.9109 18.6075 14.4567 19.7039C14.0026 20.8003 13.8838 22.0067 14.1153 23.1705C14.3468 24.3344 14.9182 25.4035 15.7574 26.2426C16.5965 27.0818 17.6656 27.6532 18.8295 27.8847C19.9933 28.1162 21.1997 27.9974 22.2961 27.5433C23.3925 27.0892 24.3295 26.3201 24.9888 25.3334C25.6481 24.3467 26 23.1867 26 22C25.9984 20.4092 25.3658 18.884 24.2409 17.7591C23.116 16.6342 21.5908 16.0016 20 16ZM20 26C19.2089 26 18.4355 25.7654 17.7777 25.3259C17.1199 24.8864 16.6072 24.2616 16.3045 23.5307C16.0017 22.7998 15.9225 21.9956 16.0769 21.2196C16.2312 20.4437 16.6122 19.731 17.1716 19.1716C17.731 18.6122 18.4437 18.2312 19.2196 18.0769C19.9956 17.9225 20.7998 18.0017 21.5307 18.3045C22.2616 18.6072 22.8864 19.1199 23.3259 19.7777C23.7654 20.4355 24 21.2089 24 22C24 23.0609 23.5786 24.0783 22.8284 24.8284C22.0783 25.5786 21.0609 26 20 26Z" fill="#FF8A00" stroke="#FF8A00" stroke-width="42.6667" mask="url(#path-3-inside-2_24199_289690)"/>
</g>
</g>
</g>
<defs>
<clipPath id="clip0_24199_289690">
<rect width="24" height="24" fill="white" transform="translate(8 8)"/>
</clipPath>
</defs>
</svg>
