<svg width="55" height="40" viewBox="0 0 55 40" fill="none" xmlns="http://www.w3.org/2000/svg">
<g clip-path="url(#clip0_21825_468430)">
<path opacity="0.7" d="M18.1179 36.0884C28.1241 36.0884 36.2358 33.5323 36.2358 30.3791C36.2358 27.226 28.1241 24.6699 18.1179 24.6699C8.11166 24.6699 0 27.226 0 30.3791C0 33.5323 8.11166 36.0884 18.1179 36.0884Z" fill="#767676"/>
<path fill-rule="evenodd" clip-rule="evenodd" d="M18.1178 20.1553C12.8866 20.1553 8.28179 21.3923 5.59509 23.2672H3.12847V26.7319C3.11493 26.8501 3.10815 26.9699 3.10815 27.0897C3.10815 27.2095 3.11493 27.3294 3.12847 27.4475C3.53139 31.1113 10.0882 34.0241 18.1195 34.0241C26.1491 34.0241 32.7076 31.1113 33.1105 27.4475H33.1308V23.2672H30.6439C27.9538 21.3923 23.3507 20.1553 18.1178 20.1553Z" fill="#DBA731"/>
<path d="M18.1178 30.7622C26.4074 30.7622 33.1275 27.5321 33.1275 23.5476C33.1275 19.5631 26.4074 16.333 18.1178 16.333C9.8282 16.333 3.10815 19.5631 3.10815 23.5476C3.10815 27.5321 9.8282 30.7622 18.1178 30.7622Z" fill="#F3E490"/>
<path d="M18.1178 30.2019C26.4074 30.2019 33.1275 27.0972 33.1275 23.2674C33.1275 19.4377 26.4074 16.333 18.1178 16.333C9.8282 16.333 3.10815 19.4377 3.10815 23.2674C3.10815 27.0972 9.8282 30.2019 18.1178 30.2019Z" fill="#EED957"/>
<path d="M18.1178 28.4354C24.9572 28.4354 30.5017 25.9979 30.5017 22.9911C30.5017 19.9844 24.9572 17.5469 18.1178 17.5469C11.2783 17.5469 5.73389 19.9844 5.73389 22.9911C5.73389 25.9979 11.2783 28.4354 18.1178 28.4354Z" fill="#B88F24"/>
<path d="M18.1178 28.4348C24.9572 28.4348 30.5017 26.2882 30.5017 23.6402C30.5017 20.9923 24.9572 18.8457 18.1178 18.8457C11.2783 18.8457 5.73389 20.9923 5.73389 23.6402C5.73389 26.2882 11.2783 28.4348 18.1178 28.4348Z" fill="#D1992A"/>
<path fill-rule="evenodd" clip-rule="evenodd" d="M13.2454 22.7128C13.8447 22.4917 14.5067 22.3263 15.2346 22.2268V21.0893L17.8011 21.5315V22.161C20.454 22.3483 22.5278 23.2984 22.8918 24.6434L28.4887 22.5964V24.208L22.9562 26.2433H20.3897V25.1396C20.3897 24.3346 19.2994 23.6494 17.8231 23.484V26.5403L15.2566 26.0982V23.5819C14.08 23.8351 13.2674 24.4426 13.2674 25.1379V26.5386L10.7009 26.0965V21.0859L13.2674 21.5281V22.7094H13.2454V22.7128Z" fill="#B88F24"/>
<path fill-rule="evenodd" clip-rule="evenodd" d="M12.7139 21.997C13.3132 21.7759 13.9752 21.6105 14.7031 21.5109V20.3735L17.2696 20.8156V21.4451C19.9225 21.6325 21.9963 22.5826 22.3603 23.9276L27.9572 21.8805V23.4922L22.4247 25.5275H19.8582V24.4238C19.8582 23.6188 18.7679 22.9336 17.2917 22.7682V25.8245L14.7251 25.3824V22.8661C13.5486 23.1193 12.7359 23.7268 12.7359 24.4221V25.8228L10.1694 25.3807V20.3701L12.7359 20.8123V21.9936H12.7139V21.997Z" fill="#EED957"/>
<path fill-rule="evenodd" clip-rule="evenodd" d="M19.6669 14.1016C14.4357 14.1016 9.83087 15.3386 7.14416 17.2135H4.67754V20.6782C4.664 20.7964 4.65723 20.9162 4.65723 21.036C4.65723 21.1558 4.664 21.2756 4.67754 21.3938C5.08046 25.0576 11.6372 27.9704 19.6686 27.9704C27.6982 27.9704 34.2567 25.0576 34.6596 21.3938H34.6799V17.2135H32.193C29.5029 15.3386 24.8998 14.1016 19.6669 14.1016Z" fill="#DBA731"/>
<path d="M19.6669 24.7085C27.9565 24.7085 34.6765 21.4784 34.6765 17.4939C34.6765 13.5094 27.9565 10.2793 19.6669 10.2793C11.3773 10.2793 4.65723 13.5094 4.65723 17.4939C4.65723 21.4784 11.3773 24.7085 19.6669 24.7085Z" fill="#F3E490"/>
<path d="M19.6669 24.1482C27.9565 24.1482 34.6765 21.0435 34.6765 17.2137C34.6765 13.3839 27.9565 10.2793 19.6669 10.2793C11.3773 10.2793 4.65723 13.3839 4.65723 17.2137C4.65723 21.0435 11.3773 24.1482 19.6669 24.1482Z" fill="#EED957"/>
<path d="M19.6669 22.3797C26.5063 22.3797 32.0507 19.9423 32.0507 16.9355C32.0507 13.9287 26.5063 11.4912 19.6669 11.4912C12.8274 11.4912 7.28296 13.9287 7.28296 16.9355C7.28296 19.9423 12.8274 22.3797 19.6669 22.3797Z" fill="#B88F24"/>
<path d="M19.6669 22.3791C26.5063 22.3791 32.0507 20.2325 32.0507 17.5846C32.0507 14.9366 26.5063 12.79 19.6669 12.79C12.8274 12.79 7.28296 14.9366 7.28296 17.5846C7.28296 20.2325 12.8274 22.3791 19.6669 22.3791Z" fill="#CC9C27"/>
<path fill-rule="evenodd" clip-rule="evenodd" d="M14.7945 16.6586C15.3938 16.4376 16.0557 16.2722 16.7837 16.1726V15.0352L19.3502 15.4773V16.1068C22.0031 16.2941 24.0769 17.2443 24.4409 18.5893L30.0378 16.5422V18.1539L24.5052 20.1892H21.9387V19.0854C21.9387 18.2805 20.8485 17.5953 19.3722 17.4299V20.4862L16.8057 20.044V17.5278C15.6291 17.7809 14.8165 18.3885 14.8165 19.0838V20.4845L12.25 20.0423V15.0352L14.8165 15.4773V16.6586H14.7945Z" fill="#B88F24"/>
<path fill-rule="evenodd" clip-rule="evenodd" d="M14.263 15.9428C14.8623 15.7218 15.5242 15.5564 16.2522 15.4568V14.3193L18.8187 14.7615V15.391C21.4716 15.5783 23.5454 16.5284 23.9094 17.8735L29.5063 15.8264V17.4381L23.9737 19.4733H21.4072V18.3696C21.4072 17.5646 20.317 16.8795 18.8407 16.7141V19.7704L16.2742 19.3282V16.8136C15.0976 17.0668 14.285 17.6743 14.285 18.3696V19.7704L11.7185 19.3282V14.321L14.285 14.7632V15.9445H14.263V15.9428Z" fill="#EED957"/>
<path fill-rule="evenodd" clip-rule="evenodd" d="M16.0152 9.15039C10.784 9.15039 6.17924 10.3874 3.49254 12.2624H1.02422V15.7287C1.01068 15.8469 1.00391 15.9667 1.00391 16.0865C1.00391 16.2063 1.01068 16.3262 1.02422 16.4443C1.42714 20.1081 7.98392 23.021 16.0152 23.021C24.0449 23.021 30.6034 20.1081 31.0063 16.4443H31.0266V12.2641H28.5397C25.8513 10.3891 21.2464 9.15039 16.0152 9.15039Z" fill="#DBA731"/>
<path d="M16.0155 19.7573C24.3051 19.7573 31.0252 16.5272 31.0252 12.5427C31.0252 8.5582 24.3051 5.32812 16.0155 5.32812C7.72591 5.32812 1.00586 8.5582 1.00586 12.5427C1.00586 16.5272 7.72591 19.7573 16.0155 19.7573Z" fill="#F3E490"/>
<path d="M16.0155 19.1989C24.3051 19.1989 31.0252 16.0943 31.0252 12.2645C31.0252 8.43473 24.3051 5.33008 16.0155 5.33008C7.72591 5.33008 1.00586 8.43473 1.00586 12.2645C1.00586 16.0943 7.72591 19.1989 16.0155 19.1989Z" fill="#EED957"/>
<path d="M16.0152 17.4305C22.8547 17.4305 28.3991 14.993 28.3991 11.9863C28.3991 8.97947 22.8547 6.54199 16.0152 6.54199C9.17581 6.54199 3.63135 8.97947 3.63135 11.9863C3.63135 14.993 9.17581 17.4305 16.0152 17.4305Z" fill="#BC8522"/>
<path d="M16.0152 17.4299C22.8547 17.4299 28.3991 15.2833 28.3991 12.6354C28.3991 9.98741 22.8547 7.84082 16.0152 7.84082C9.17581 7.84082 3.63135 9.98741 3.63135 12.6354C3.63135 15.2833 9.17581 17.4299 16.0152 17.4299Z" fill="#D1992A"/>
<path fill-rule="evenodd" clip-rule="evenodd" d="M11.1429 11.7075C11.7422 11.4864 12.4041 11.321 13.1321 11.2214V10.084L15.6986 10.5261V11.1556C18.3514 11.3429 20.4253 12.2931 20.7893 13.6381L26.3862 11.591V13.2027L20.8536 15.2397H18.2871V14.136C18.2871 13.331 17.1969 12.6458 15.7206 12.4804V15.5367L13.1541 15.0945V12.58C11.9775 12.8331 11.1649 13.4407 11.1649 14.136V15.5367L8.59839 15.0945V10.0857L11.1649 10.5278V11.7092H11.1429V11.7075Z" fill="#B88F24"/>
<path fill-rule="evenodd" clip-rule="evenodd" d="M10.6097 10.9936C11.209 10.7725 11.8709 10.6071 12.5989 10.5076V9.37012L15.1654 9.81227V10.4418C17.8182 10.6291 19.8921 11.5792 20.2561 12.9242L25.853 10.8772V12.4888L20.3204 14.5241H17.7539V13.4204C17.7539 12.6154 16.6637 11.9302 15.1874 11.7649V14.8211L12.6209 14.379V11.8644C11.4443 12.1176 10.6317 12.7251 10.6317 13.4204V14.8211L8.06519 14.379V9.37012L10.6317 9.81227V10.9936H10.6097Z" fill="#EED957"/>
<path fill-rule="evenodd" clip-rule="evenodd" d="M19.6737 3.82227C14.4425 3.82227 9.8377 5.05929 7.151 6.93424H4.68438V10.3989C4.67083 10.5171 4.66406 10.6369 4.66406 10.7567C4.66406 10.8765 4.67083 10.9963 4.68438 11.1145C5.0873 14.7783 11.6441 17.6911 19.6754 17.6911C27.705 17.6911 34.2635 14.7783 34.6664 11.1145H34.6868V6.93424H32.1998C29.5097 5.05929 24.9066 3.82227 19.6737 3.82227Z" fill="#DBA731"/>
<path d="M19.6737 14.4292C27.9633 14.4292 34.6834 11.1991 34.6834 7.21458C34.6834 3.23008 27.9633 0 19.6737 0C11.3841 0 4.66406 3.23008 4.66406 7.21458C4.66406 11.1991 11.3841 14.4292 19.6737 14.4292Z" fill="#F3E490"/>
<path d="M19.6737 13.8689C27.9633 13.8689 34.6834 10.7642 34.6834 6.93444C34.6834 3.10465 27.9633 0 19.6737 0C11.3841 0 4.66406 3.10465 4.66406 6.93444C4.66406 10.7642 11.3841 13.8689 19.6737 13.8689Z" fill="#EED957"/>
<path d="M19.6737 12.1024C26.5131 12.1024 32.0576 9.66492 32.0576 6.65813C32.0576 3.65135 26.5131 1.21387 19.6737 1.21387C12.8343 1.21387 7.28979 3.65135 7.28979 6.65813C7.28979 9.66492 12.8343 12.1024 19.6737 12.1024Z" fill="#C99328"/>
<path d="M19.6737 12.0998C26.5131 12.0998 32.0576 9.95322 32.0576 7.30527C32.0576 4.65733 26.5131 2.51074 19.6737 2.51074C12.8343 2.51074 7.28979 4.65733 7.28979 7.30527C7.28979 9.95322 12.8343 12.0998 19.6737 12.0998Z" fill="#DBA731"/>
<path opacity="0.7" d="M48.4537 37.6405C50.1422 34.1197 44.5331 27.9402 35.9256 23.8383C27.318 19.7364 18.9715 19.2653 17.283 22.7861C15.5946 26.3069 21.2036 32.4864 29.8112 36.5883C38.4187 40.6903 46.7653 41.1613 48.4537 37.6405Z" fill="#767676"/>
<path fill-rule="evenodd" clip-rule="evenodd" d="M46.3933 19.5343C41.8325 14.7736 35.7887 12.821 31.4632 14.3196L30.9841 13.8184L28.7224 15.9718C24.6034 19.8921 25.8359 27.8442 31.4751 33.734C37.116 39.6221 45.0271 41.2169 49.1461 37.2965L51.4078 35.1431L50.9287 34.6419C52.6301 30.4026 50.9524 24.2951 46.3933 19.5343Z" fill="#DBA731"/>
<path d="M51.4215 35.144C55.6523 31.1172 54.5097 23.0791 48.8695 17.1904C43.2293 11.3017 35.2272 9.79235 30.9965 13.8192C26.7657 17.846 27.9082 25.8841 33.5484 31.7728C39.1887 37.6615 47.1907 39.1708 51.4215 35.144Z" fill="#F3E490"/>
<path d="M51.6178 34.9475C55.7371 31.0262 54.5042 23.0743 48.864 17.1864C43.2238 11.2986 35.3121 9.70428 31.1928 13.6255C27.0735 17.5468 28.3064 25.4987 33.9466 31.3865C39.5868 37.2744 47.4985 38.8687 51.6178 34.9475Z" fill="#EED957"/>
<path d="M33.3136 15.2225C33.163 15.3659 33.0241 15.5178 32.8921 15.6747C36.3017 13.0724 42.3624 14.5407 46.7912 19.1631C51.2199 23.7871 52.4101 29.8896 49.6455 33.1653C49.808 33.0404 49.9688 32.9104 50.1195 32.767C53.4174 29.628 52.3271 23.1577 47.6867 18.3125C43.0464 13.4673 36.6115 12.0852 33.3136 15.2225Z" fill="#C99328"/>
<path opacity="0.39" d="M49.6446 33.164C52.6941 30.261 51.4158 23.9925 46.7894 19.1629C42.1629 14.3333 35.9402 12.7714 32.8907 15.6744C29.8411 18.5773 31.1194 24.8458 35.7458 29.6755C40.3723 34.5051 46.595 36.0669 49.6446 33.164Z" fill="#BE7F15"/>
<path d="M49.6446 33.164C52.6941 30.261 51.4158 23.9925 46.7894 19.1629C42.1629 14.3333 35.9402 12.7714 32.8907 15.6744C29.8411 18.5773 31.1194 24.8458 35.7458 29.6755C40.3723 34.5051 46.595 36.0669 49.6446 33.164Z" fill="#DBA731"/>
<path d="M28.1476 11.164C33.5953 9.2508 34.0941 5.64328 29.2616 3.1064C24.4291 0.569522 16.0952 0.0639587 10.6475 1.97719C5.19973 3.89042 4.70097 7.49795 9.53349 10.0348C14.366 12.5717 22.6998 13.0773 28.1476 11.164Z" fill="#F0BB1F"/>
<path d="M24.7275 2.89544C29.6295 4.34475 31.2174 7.16662 28.2725 9.19798C25.3307 11.2282 18.9693 11.6986 14.0645 10.2478C9.16251 8.7985 7.57465 5.97662 10.5196 3.94527C13.4613 1.91501 19.8227 1.44468 24.7275 2.89544Z" fill="#D19C00"/>
<path d="M26.1639 5.8044C25.1913 5.74573 24.2164 5.75891 23.2807 5.84336L23.1918 5.8506C22.6045 5.90627 22.0374 5.98926 21.4997 6.0982L21.2977 6.14145C21.2606 6.14911 21.2169 6.14993 21.1757 6.14373L21.1631 6.1371L17.2198 5.22989L13.3312 4.33481C13.3073 4.32905 13.2865 4.32091 13.2707 4.31112C13.2549 4.30132 13.2445 4.29018 13.2405 4.27865C13.2365 4.26713 13.2389 4.25559 13.2477 4.24504C13.2564 4.23449 13.2712 4.22526 13.2906 4.21815L15.8339 3.32496C15.8571 3.31698 15.8856 3.31226 15.9161 3.31136C15.9466 3.31046 15.9777 3.31342 16.0059 3.31989L26.2401 5.6744C26.2741 5.68213 26.3019 5.69465 26.3183 5.70975C26.3348 5.72486 26.339 5.74159 26.3302 5.757C26.3214 5.77242 26.3002 5.78553 26.2702 5.79405C26.2402 5.80256 26.2034 5.80593 26.1663 5.80357" fill="#B08300"/>
<path d="M16.892 9.06085C16.9509 8.63946 17.1751 8.23145 17.5551 7.85434L17.5869 7.8192C17.8304 7.58309 18.1324 7.36087 18.4877 7.15617L18.6264 7.07978C18.6521 7.06547 18.6634 7.04698 18.6582 7.02805L18.6456 7.02142L17.3567 5.18197L16.0848 3.36795C16.077 3.35653 16.0629 3.34592 16.0438 3.33711C16.0246 3.32829 16.0011 3.32156 15.9753 3.31754C15.9495 3.31353 15.9223 3.31235 15.8963 3.31413C15.8703 3.31592 15.8463 3.32059 15.8265 3.32773L13.2785 4.22258C13.2557 4.23076 13.2392 4.24183 13.2311 4.25448C13.2231 4.26712 13.2236 4.28081 13.2328 4.29394L16.5825 9.06628C16.5934 9.08215 16.6165 9.0963 16.6477 9.10623C16.6789 9.11617 16.7162 9.12126 16.7532 9.12061C16.7901 9.11996 16.8242 9.11362 16.8496 9.10269C16.875 9.09176 16.89 9.07695 16.892 9.06085Z" fill="#B08300"/>
<path d="M29.0658 6.3267L28.98 6.31071L28.9653 6.30297C27.7955 6.07547 26.5481 5.95612 25.3067 5.95291C24.0653 5.9497 22.8585 6.06271 21.7672 6.28437C20.6198 6.52013 19.6276 6.86857 18.8619 7.30468C17.6956 7.97878 17.1328 8.82774 17.2688 9.70818C17.3009 9.9157 17.3724 10.1231 17.4826 10.3283L17.4973 10.336L17.5168 10.3753C17.5236 10.387 17.5371 10.3981 17.556 10.4074C17.5749 10.4166 17.5986 10.4238 17.6248 10.4281C17.651 10.4325 17.6788 10.4339 17.7054 10.4322C17.7321 10.4305 17.7567 10.4258 17.7769 10.4185L20.3912 9.50041C20.4231 9.48915 20.4424 9.47243 20.4448 9.45393C20.4751 9.13231 20.6545 8.822 20.9722 8.5415C21.29 8.26101 21.7395 8.01607 22.2941 7.82129C22.8488 7.62651 23.497 7.48589 24.2003 7.4078C24.9036 7.32971 25.6476 7.31576 26.3877 7.36678C26.4089 7.36825 26.4302 7.36783 26.4503 7.36554C26.4704 7.36324 26.4888 7.35912 26.5045 7.35344L29.1211 6.4345C29.1415 6.42757 29.157 6.41827 29.166 6.40753C29.175 6.39678 29.1772 6.38497 29.1724 6.37325C29.1676 6.36153 29.156 6.3503 29.1387 6.34068C29.1213 6.33106 29.0989 6.32338 29.0736 6.31839" fill="#B08300"/>
<path d="M25.2269 5.85323C24.2543 5.79456 23.2794 5.80773 22.3437 5.89219L22.2548 5.89943C21.6675 5.9551 21.1004 6.03809 20.5626 6.14703L20.3607 6.19028C20.3236 6.19794 20.2799 6.19876 20.2387 6.19256L20.2261 6.18593L16.2828 5.27872L12.3942 4.38364C12.3703 4.37787 12.3495 4.36974 12.3337 4.35994C12.3178 4.35015 12.3075 4.339 12.3035 4.32748C12.2995 4.31596 12.3019 4.30442 12.3107 4.29387C12.3194 4.28332 12.3342 4.27408 12.3536 4.26698L14.8969 3.37379C14.9201 3.36581 14.9486 3.36109 14.9791 3.36019C15.0096 3.35929 15.0407 3.36225 15.0688 3.36872L25.3031 5.72323C25.3371 5.73096 25.3648 5.74347 25.3813 5.75858C25.3978 5.77369 25.402 5.79041 25.3932 5.80583C25.3844 5.82124 25.3632 5.83436 25.3332 5.84288C25.3032 5.85139 25.2664 5.85476 25.2293 5.8524" fill="#FFD866"/>
<path d="M15.955 9.10968C16.0139 8.68829 16.2381 8.28028 16.6181 7.90317L16.6499 7.86803C16.8934 7.63192 17.1953 7.40969 17.5507 7.205L17.6894 7.12861C17.7151 7.11429 17.7264 7.09581 17.7212 7.07688L17.7086 7.07025L16.4197 5.2308L15.1478 3.41678C15.14 3.40536 15.1259 3.39475 15.1068 3.38594C15.0876 3.37712 15.064 3.37039 15.0383 3.36637C15.0125 3.36235 14.9853 3.36118 14.9593 3.36296C14.9333 3.36474 14.9093 3.36942 14.8895 3.37656L12.3415 4.2714C12.3187 4.27959 12.3022 4.29066 12.2941 4.3033C12.286 4.31595 12.2866 4.32964 12.2958 4.34277L15.6455 9.11511C15.6564 9.13098 15.6794 9.14513 15.7107 9.15506C15.7419 9.16499 15.7792 9.17008 15.8161 9.16944C15.8531 9.16879 15.8872 9.16244 15.9126 9.15152C15.938 9.14059 15.953 9.12578 15.955 9.10968Z" fill="#FFD866"/>
<path d="M28.1287 6.37552L28.043 6.35953L28.0283 6.3518C26.8585 6.1243 25.6111 6.00495 24.3697 6.00174C23.1282 5.99853 21.9214 6.11154 20.8302 6.3332C19.6828 6.56895 18.6906 6.9174 17.9249 7.3535C16.7585 8.02761 16.1958 8.87657 16.3318 9.757C16.3639 9.96452 16.4354 10.1719 16.5456 10.3771L16.5603 10.3848L16.5798 10.4241C16.5866 10.4359 16.6001 10.4469 16.619 10.4562C16.6379 10.4655 16.6616 10.4726 16.6878 10.477C16.714 10.4813 16.7418 10.4827 16.7684 10.481C16.7951 10.4794 16.8197 10.4746 16.8399 10.4674L19.4542 9.54924C19.4861 9.53798 19.5053 9.52126 19.5078 9.50276C19.5381 9.18114 19.7175 8.87083 20.0352 8.59033C20.3529 8.30984 20.8025 8.0649 21.3571 7.87012C21.9117 7.67534 22.56 7.53472 23.2633 7.45663C23.9666 7.37854 24.7106 7.36459 25.4507 7.41561C25.4719 7.41708 25.4932 7.41666 25.5133 7.41436C25.5334 7.41207 25.5518 7.40795 25.5675 7.40227L28.1841 6.48333C28.2045 6.47639 28.22 6.4671 28.229 6.45635C28.238 6.44561 28.2402 6.4338 28.2354 6.42208C28.2306 6.41036 28.219 6.39913 28.2017 6.38951C28.1843 6.37989 28.1619 6.37221 28.1366 6.36722" fill="#FFD866"/>
<g style="mix-blend-mode:multiply" opacity="0.28">
<path d="M28.1476 11.164C33.5953 9.2508 34.0941 5.64328 29.2616 3.1064C24.4291 0.569522 16.0952 0.0639587 10.6475 1.97719C5.19973 3.89042 4.70097 7.49795 9.53349 10.0348C14.366 12.5717 22.6998 13.0773 28.1476 11.164Z" fill="#F0BB1F"/>
</g>
<path d="M43.8294 34.6868C49.5366 35.6943 53.151 31.7436 51.9024 25.8625C50.6538 19.9815 45.015 14.3972 39.3079 13.3897C33.6007 12.3822 29.9863 16.333 31.2349 22.214C32.4835 28.095 38.1222 33.6793 43.8294 34.6868Z" fill="#F0BB1F"/>
<path d="M48.7772 22.8996C51.0563 27.5412 49.6755 31.8156 45.6922 32.4455C41.7121 33.076 36.6366 29.822 34.3568 25.177C32.0777 20.5354 33.4585 16.261 37.4418 15.6311C41.4219 15.0006 46.4974 18.2546 48.7772 22.8996Z" fill="#D19C00"/>
<path d="M47.2071 27.1854C46.5487 26.5341 45.8239 25.966 45.0636 25.5054L44.9921 25.4607C44.5125 25.1747 44.023 24.933 43.5317 24.7394L43.345 24.6695C43.311 24.6562 43.2783 24.631 43.2538 24.5991L43.2505 24.5838L41.1842 21.1546L39.1469 17.7725C39.1346 17.7514 39.1267 17.7294 39.124 17.7084C39.1212 17.6873 39.1237 17.668 39.1311 17.652C39.1386 17.6361 39.1508 17.6239 39.1667 17.6168C39.1826 17.6096 39.2017 17.6075 39.2223 17.6108L41.8867 18.0811C41.9108 18.0856 41.9359 18.0971 41.959 18.1143C41.9821 18.1315 42.0022 18.1536 42.017 18.1781L47.3799 27.0779C47.3978 27.1074 47.4068 27.1387 47.4053 27.1664C47.4037 27.1941 47.3917 27.2163 47.3714 27.2292C47.3511 27.2421 47.3237 27.2448 47.2941 27.2369C47.2645 27.2289 47.2346 27.2109 47.2096 27.1859" fill="#B08300"/>
<path d="M37.4937 25.4706C37.9164 25.0095 38.4479 24.6632 39.0655 24.4464L39.1204 24.4241C39.5112 24.2918 39.9321 24.2107 40.3764 24.1823L40.5467 24.1754C40.5783 24.1739 40.6032 24.1589 40.6165 24.1335L40.6132 24.1181L41.3277 21.1799L42.0317 18.2817C42.0363 18.2636 42.0355 18.2427 42.0295 18.2208C42.0234 18.199 42.0122 18.177 41.997 18.1568C41.9818 18.1366 41.963 18.119 41.9423 18.1055C41.9217 18.092 41.8999 18.0832 41.879 18.0797L39.2097 17.6085C39.1857 17.6045 39.1637 17.6077 39.1464 17.6177C39.129 17.6278 39.1171 17.6443 39.112 17.6652L37.2625 25.2918C37.2562 25.317 37.2603 25.3475 37.2742 25.3778C37.2881 25.4082 37.3108 25.4366 37.3384 25.4579C37.366 25.4793 37.3967 25.4923 37.4251 25.4946C37.4535 25.4969 37.4778 25.4884 37.4937 25.4706Z" fill="#B08300"/>
<path d="M48.8587 29.5375L48.8104 29.4673L48.8066 29.4494C48.1562 28.4812 47.3515 27.5939 46.4466 26.8469C45.5417 26.1 44.5574 25.5107 43.5597 25.1185C42.5083 24.7094 41.4689 24.5259 40.5161 24.5812C39.056 24.6771 37.8797 25.3402 37.186 26.4587C37.0226 26.7223 36.888 27.0094 36.7838 27.3171L36.7876 27.335L36.7665 27.3929C36.7608 27.4108 36.7607 27.4319 36.7662 27.4542C36.7717 27.4764 36.7826 27.499 36.7978 27.5198C36.8131 27.5406 36.8321 27.5589 36.8531 27.5729C36.8741 27.5869 36.8964 27.5961 36.9177 27.5996L39.6565 28.0831C39.6899 28.0889 39.7191 28.0807 39.7375 28.0604C40.0494 27.6997 40.4601 27.4416 40.9452 27.3014C41.4302 27.1612 41.9796 27.1418 42.5606 27.2443C43.1416 27.3469 43.7424 27.5694 44.327 27.8984C44.9116 28.2274 45.4682 28.6563 45.9635 29.1595C45.9777 29.1739 45.9936 29.1861 46.0104 29.1955C46.0271 29.2048 46.0443 29.211 46.0609 29.2137L48.8021 29.6976C48.8233 29.7016 48.843 29.6999 48.8592 29.6927C48.8755 29.6854 48.8877 29.6728 48.8948 29.6561C48.9018 29.6395 48.9035 29.6193 48.8995 29.5976C48.8955 29.5759 48.886 29.5534 48.872 29.5324" fill="#B08300"/>
<path d="M46.4776 26.6825C45.8192 26.0312 45.0944 25.4631 44.3341 25.0024L44.2626 24.9578C43.783 24.6718 43.2935 24.43 42.8022 24.2365L42.6156 24.1665C42.5815 24.1533 42.5488 24.1281 42.5243 24.0962L42.521 24.0808L40.4547 20.6517L38.4174 17.2696C38.4051 17.2485 38.3972 17.2264 38.3945 17.2054C38.3917 17.1844 38.3942 17.1651 38.4016 17.1491C38.4091 17.1331 38.4213 17.121 38.4372 17.1138C38.4531 17.1066 38.4722 17.1046 38.4928 17.1079L41.1572 17.5782C41.1813 17.5827 41.2064 17.5942 41.2295 17.6114C41.2526 17.6286 41.2727 17.6507 41.2875 17.6752L46.6504 26.575C46.6683 26.6045 46.6773 26.6358 46.6758 26.6635C46.6742 26.6911 46.6622 26.7133 46.6419 26.7262C46.6216 26.7391 46.5942 26.7418 46.5646 26.7339C46.5351 26.726 46.5051 26.708 46.4801 26.683" fill="#FFD866"/>
<path d="M36.7643 24.9677C37.1869 24.5066 37.7184 24.1602 38.336 23.9435L38.3909 23.9211C38.7817 23.7888 39.2027 23.7078 39.6469 23.6794L39.8172 23.6725C39.8488 23.671 39.8738 23.656 39.887 23.6306L39.8837 23.6152L40.5982 20.677L41.3022 17.7788C41.3068 17.7607 41.306 17.7398 41.3 17.7179C41.2939 17.6961 41.2828 17.674 41.2675 17.6539C41.2523 17.6337 41.2335 17.616 41.2128 17.6026C41.1922 17.5891 41.1704 17.5802 41.1496 17.5768L38.4802 17.1056C38.4562 17.1015 38.4342 17.1047 38.4169 17.1148C38.3995 17.1248 38.3876 17.1413 38.3825 17.1623L36.533 24.7888C36.5267 24.8141 36.5309 24.8445 36.5447 24.8749C36.5586 24.9053 36.5813 24.9337 36.6089 24.955C36.6365 24.9763 36.6672 24.9893 36.6956 24.9916C36.724 24.994 36.7483 24.9855 36.7643 24.9677Z" fill="#FFD866"/>
<path d="M48.1292 29.0345L48.081 28.9644L48.0772 28.9464C47.4267 27.9782 46.622 27.0909 45.7171 26.344C44.8122 25.5971 43.8279 25.0078 42.8302 24.6156C41.7788 24.2065 40.7394 24.023 39.7866 24.0783C38.3265 24.1741 37.1502 24.8373 36.4566 25.9557C36.2931 26.2194 36.1586 26.5065 36.0543 26.8141L36.0581 26.8321L36.037 26.89C36.0313 26.9079 36.0313 26.929 36.0367 26.9512C36.0422 26.9735 36.0531 26.9961 36.0683 27.0169C36.0836 27.0377 36.1026 27.056 36.1236 27.07C36.1447 27.0839 36.1669 27.0931 36.1883 27.0966L38.927 27.5801C38.9605 27.586 38.9896 27.5778 39.008 27.5575C39.3199 27.1968 39.7306 26.9386 40.2157 26.7984C40.7007 26.6582 41.2501 26.6388 41.8311 26.7414C42.4121 26.844 43.0129 27.0664 43.5975 27.3955C44.1821 27.7245 44.7387 28.1534 45.234 28.6565C45.2482 28.671 45.2641 28.6832 45.2809 28.6925C45.2976 28.7018 45.3148 28.708 45.3314 28.7107L48.0726 29.1946C48.0938 29.1987 48.1135 29.197 48.1297 29.1897C48.146 29.1825 48.1582 29.1699 48.1653 29.1532C48.1723 29.1365 48.174 29.1164 48.17 29.0947C48.166 29.073 48.1565 29.0505 48.1425 29.0295" fill="#FFD866"/>
<g style="mix-blend-mode:multiply" opacity="0.28">
<path d="M43.8294 34.6868C49.5366 35.6943 53.151 31.7436 51.9024 25.8625C50.6538 19.9815 45.015 14.3972 39.3079 13.3897C33.6007 12.3822 29.9863 16.333 31.2349 22.214C32.4835 28.095 38.1222 33.6793 43.8294 34.6868Z" fill="#F0BB1F"/>
</g>
</g>
<defs>
<clipPath id="clip0_21825_468430">
<rect width="54.054" height="40" fill="white"/>
</clipPath>
</defs>
</svg>
