<svg width="24" height="24" viewBox="0 0 24 24" fill="none" xmlns="http://www.w3.org/2000/svg">
<path d="M12 24C18.6274 24 24 18.6274 24 12C24 5.37258 18.6274 0 12 0C5.37258 0 0 5.37258 0 12C0 18.6274 5.37258 24 12 24Z" fill="#F0BB1F"/>
<path d="M20.9884 9.17646C22.5492 14.1397 19.7884 19.4296 14.8213 20.9904C9.85805 22.5511 4.56817 19.7904 3.00741 14.8233C1.44665 9.86 4.20741 4.57013 9.1745 3.00937C14.1378 1.44861 19.4277 4.20937 20.9884 9.17646Z" fill="#D19C00"/>
<path d="M17.9965 14.5196C17.3689 13.893 16.64 13.3777 15.8408 12.9956L15.7659 12.958C15.2606 12.7224 14.7319 12.5405 14.1887 12.4154L13.9815 12.3721C13.9438 12.3637 13.9108 12.3409 13.8894 12.3086V12.2913L12.2748 8.70356L10.6832 5.16489C10.6737 5.14271 10.6699 5.11854 10.6719 5.09452C10.674 5.07049 10.6819 5.04734 10.695 5.0271C10.7081 5.00686 10.7259 4.99015 10.7469 4.97845C10.7679 4.96674 10.7915 4.96039 10.8155 4.95996H13.9095C13.9375 4.96022 13.9649 4.96852 13.9883 4.98386C14.0118 4.9992 14.0304 5.02095 14.0419 5.04655L18.2325 14.3579C18.2466 14.3888 18.2494 14.4236 18.2404 14.4563C18.2315 14.489 18.2113 14.5175 18.1835 14.5368C18.1557 14.5561 18.122 14.5649 18.0883 14.5618C18.0546 14.5586 18.0231 14.5437 17.9993 14.5196" fill="#B08300"/>
<path d="M6.71693 14.5196C7.34496 13.8924 8.07493 13.377 8.87552 12.9956L8.94747 12.9581C9.45284 12.7224 9.98148 12.5405 10.5247 12.4154L10.7319 12.3721C10.7705 12.3638 10.8044 12.3411 10.8269 12.3086V12.2913L12.4415 8.70357L14.0331 5.1649C14.0433 5.14277 14.0478 5.11841 14.0461 5.09409C14.0443 5.06976 14.0365 5.04627 14.0233 5.02581C14.0101 5.00534 13.9919 4.98857 13.9705 4.97706C13.949 4.96555 13.925 4.95967 13.9007 4.95997H10.801C10.773 4.96023 10.7456 4.96853 10.7222 4.98387C10.6987 4.99921 10.6801 5.02097 10.6686 5.04656L6.4838 14.3579C6.4697 14.3888 6.46688 14.4236 6.47584 14.4563C6.4848 14.489 6.50495 14.5175 6.53277 14.5368C6.56059 14.5561 6.5943 14.5649 6.62798 14.5618C6.66165 14.5586 6.69314 14.5437 6.71693 14.5196Z" fill="#B08300"/>
<path d="M19.3867 16.9319L19.3464 16.8598V16.8396C18.8096 15.8404 18.0661 14.9679 17.1657 14.2804C16.2652 13.593 15.2287 13.1064 14.1255 12.8535C12.9618 12.5918 11.7548 12.5918 10.5911 12.8535C8.80496 13.2675 7.21601 14.287 6.09263 15.7399C5.82789 16.0823 5.59202 16.4463 5.38748 16.828V16.8482L5.34718 16.9204C5.33575 16.9425 5.33023 16.9672 5.33115 16.9921C5.33208 17.017 5.33941 17.0413 5.35245 17.0625C5.3655 17.0837 5.3838 17.1012 5.40558 17.1132C5.42735 17.1252 5.45185 17.1314 5.4767 17.1311H8.65703C8.69592 17.131 8.73319 17.1154 8.76064 17.0878C9.22932 16.601 9.79093 16.2139 10.412 15.9495C11.0331 15.6851 11.7009 15.5489 12.3756 15.5489C13.0503 15.5489 13.7181 15.6851 14.3391 15.9495C14.9602 16.2139 15.5218 16.601 15.9905 17.0878C16.0039 17.1017 16.02 17.1128 16.0378 17.1202C16.0556 17.1277 16.0748 17.1314 16.0941 17.1311H19.2773C19.3018 17.1314 19.326 17.1254 19.3475 17.1135C19.369 17.1017 19.387 17.0844 19.3998 17.0634C19.4125 17.0424 19.4197 17.0185 19.4204 16.9939C19.4211 16.9693 19.4155 16.945 19.4039 16.9233" fill="#B08300"/>
<path d="M17.245 14.0811C16.6175 13.4546 15.8886 12.9393 15.0893 12.5571L15.0145 12.5196C14.5091 12.2839 13.9805 12.102 13.4372 11.9769L13.23 11.9336C13.1923 11.9252 13.1593 11.9024 13.1379 11.8701V11.8528L11.5233 8.26508L9.93169 4.72642C9.92225 4.70423 9.9184 4.68007 9.92046 4.65604C9.92253 4.63201 9.93044 4.60886 9.94352 4.58862C9.95659 4.56839 9.97442 4.55168 9.99545 4.53997C10.0165 4.52826 10.04 4.52192 10.0641 4.52148H13.1581C13.1861 4.52175 13.2134 4.53004 13.2369 4.54538C13.2603 4.56072 13.2789 4.58248 13.2905 4.60807L17.481 13.9194C17.4951 13.9503 17.4979 13.9851 17.489 14.0178C17.48 14.0505 17.4599 14.079 17.432 14.0983C17.4042 14.1176 17.3705 14.1264 17.3368 14.1233C17.3032 14.1201 17.2717 14.1052 17.2479 14.0811" fill="#FFD866"/>
<path d="M5.96546 14.0811C6.59349 13.4539 7.32346 12.9385 8.12405 12.5571L8.19601 12.5196C8.70138 12.2839 9.23001 12.102 9.77322 11.9769L9.98045 11.9337C10.019 11.9253 10.0529 11.9026 10.0754 11.8702V11.8528L11.6901 8.26509L13.2817 4.72643C13.2919 4.7043 13.2963 4.67993 13.2946 4.65561C13.2929 4.63129 13.2851 4.6078 13.2718 4.58733C13.2586 4.56687 13.2404 4.55009 13.219 4.53858C13.1976 4.52707 13.1736 4.52119 13.1493 4.5215H10.0495C10.0215 4.52176 9.99416 4.53005 9.97071 4.54539C9.94725 4.56074 9.92866 4.58249 9.91713 4.60808L5.73233 13.9195C5.71824 13.9503 5.71542 13.9851 5.72438 14.0178C5.73333 14.0505 5.75349 14.079 5.78131 14.0983C5.80913 14.1176 5.84284 14.1265 5.87651 14.1233C5.91019 14.1202 5.94168 14.1052 5.96546 14.0811Z" fill="#FFD866"/>
<path d="M18.6352 16.4934L18.5949 16.4213V16.4011C18.0582 15.4019 17.3146 14.5294 16.4142 13.8419C15.5138 13.1545 14.4772 12.668 13.374 12.415C12.2103 12.1533 11.0033 12.1533 9.83966 12.415C8.0535 12.829 6.46455 13.8485 5.34116 15.3014C5.07642 15.6439 4.84056 16.0078 4.63602 16.3895V16.4097L4.59572 16.4819C4.58428 16.504 4.57877 16.5287 4.57969 16.5537C4.58061 16.5786 4.58795 16.6028 4.60099 16.624C4.61403 16.6452 4.63234 16.6627 4.65411 16.6747C4.67588 16.6867 4.70039 16.6929 4.72524 16.6926H7.90556C7.94445 16.6925 7.98172 16.6769 8.00918 16.6493C8.47785 16.1626 9.03947 15.7755 9.66053 15.5111C10.2816 15.2467 10.9494 15.1104 11.6241 15.1104C12.2988 15.1104 12.9666 15.2467 13.5877 15.5111C14.2087 15.7755 14.7703 16.1626 15.239 16.6493C15.2524 16.6632 15.2685 16.6743 15.2863 16.6817C15.3042 16.6892 15.3233 16.6929 15.3426 16.6926H18.5258C18.5504 16.693 18.5746 16.6869 18.596 16.6751C18.6175 16.6632 18.6355 16.6459 18.6483 16.6249C18.6611 16.604 18.6682 16.58 18.6689 16.5554C18.6697 16.5308 18.664 16.5065 18.6525 16.4848" fill="#FFD866"/>
<g style="mix-blend-mode:multiply" opacity="0.28">
<path d="M12 24C18.6274 24 24 18.6274 24 12C24 5.37258 18.6274 0 12 0C5.37258 0 0 5.37258 0 12C0 18.6274 5.37258 24 12 24Z" fill="#F0BB1F"/>
</g>
</svg>
