<svg width="337" height="204" viewBox="0 0 337 204" fill="none" xmlns="http://www.w3.org/2000/svg">
<g clip-path="url(#clip0_21065_145639)">
<path d="M66.8457 58.6831V180.989C66.8457 191.757 75.5748 200.486 86.343 200.486H135.135L167.954 196.416L200.631 200.486H249.564C260.332 200.486 269.061 191.757 269.061 180.989V58.6831L168.547 51.8516L66.8457 58.6831Z" fill="#F3E8E5"/>
<path d="M256.855 51.8516V169.197C256.855 179.961 248.129 188.688 237.365 188.688H74.1302C72.0003 188.688 69.9522 188.341 68.0332 187.709C70.7688 195.166 77.931 200.487 86.3361 200.487H140.152L170.799 196.417L195.754 200.487H249.571C260.335 200.487 269.061 191.761 269.061 180.997V58.6831L256.855 51.8516Z" fill="#EBE1DC"/>
<path d="M259.213 18.8594H76.5531C71.153 18.8594 66.7754 23.237 66.7754 28.6371V58.6844H268.991V28.6371C268.991 23.237 264.613 18.8594 259.213 18.8594Z" fill="#60B7FF"/>
<path d="M259.212 18.8594H247.006C252.406 18.8594 256.784 23.237 256.784 28.6371V58.6844H268.99V28.6371C268.99 23.237 264.612 18.8594 259.212 18.8594Z" fill="#26A6FE"/>
<path d="M96.8791 33.6022H96.4532C92.5572 33.6022 89.3984 30.4438 89.3984 26.5474V10.7383C89.3984 6.84234 92.5568 3.68359 96.4532 3.68359H96.8791C100.775 3.68359 103.934 6.84194 103.934 10.7383V26.5474C103.933 30.4438 100.775 33.6022 96.8791 33.6022Z" fill="#537983"/>
<path d="M129.008 33.6022H128.582C124.686 33.6022 121.527 30.4438 121.527 26.5474V10.7383C121.527 6.84234 124.686 3.68359 128.582 3.68359H129.008C132.904 3.68359 136.063 6.84194 136.063 10.7383V26.5474C136.063 30.4438 132.904 33.6022 129.008 33.6022Z" fill="#537983"/>
<path d="M206.088 33.6022H205.662C201.766 33.6022 198.607 30.4438 198.607 26.5474V10.7383C198.607 6.84234 201.766 3.68359 205.662 3.68359H206.088C209.984 3.68359 213.143 6.84194 213.143 10.7383V26.5474C213.143 30.4438 209.984 33.6022 206.088 33.6022Z" fill="#537983"/>
<path d="M238.217 33.6022H237.791C233.895 33.6022 230.736 30.4438 230.736 26.5474V10.7383C230.736 6.84234 233.895 3.68359 237.791 3.68359H238.217C242.113 3.68359 245.272 6.84194 245.272 10.7383V26.5474C245.271 30.4438 242.113 33.6022 238.217 33.6022Z" fill="#537983"/>
<path d="M146.737 133.097C146.502 133.097 146.264 133.07 146.024 133.013L139.208 131.383C128.452 128.812 120.939 119.292 120.939 108.232V86.9086C120.939 83.2671 123.902 80.3047 127.543 80.3047H141.227C142.914 80.3047 144.28 81.6713 144.28 83.3572C144.28 85.0434 142.913 86.4096 141.227 86.4096H127.543C127.268 86.4096 127.044 86.6332 127.044 86.9086V108.232C127.044 116.455 132.63 123.533 140.627 125.445L147.444 127.075C149.084 127.467 150.095 129.114 149.703 130.754C149.369 132.155 148.117 133.097 146.737 133.097Z" fill="#FDAF23"/>
<path d="M189.029 133.097C187.649 133.097 186.398 132.155 186.063 130.754C185.671 129.114 186.682 127.467 188.322 127.075L195.138 125.445C203.136 123.533 208.721 116.455 208.721 108.232V86.9086C208.721 86.6336 208.498 86.4096 208.222 86.4096H194.538C192.852 86.4096 191.486 85.043 191.486 83.3572C191.486 81.6709 192.853 80.3047 194.538 80.3047H208.222C211.864 80.3047 214.826 83.2671 214.826 86.9086V108.232C214.826 119.292 207.314 128.812 196.558 131.383L189.741 133.013C189.503 133.07 189.264 133.097 189.029 133.097Z" fill="#FDAF23"/>
<path d="M100.789 141.934C99.2948 141.934 97.9886 140.836 97.7713 139.313C97.5327 137.644 98.6927 136.098 100.362 135.86L114.394 133.855C116.058 133.617 117.609 134.776 117.847 136.445C118.086 138.114 116.926 139.661 115.257 139.899L101.225 141.903C101.079 141.924 100.933 141.934 100.789 141.934Z" fill="#8EBAC5"/>
<path d="M107.17 157.54C105.967 157.54 104.826 156.824 104.343 155.641C103.705 154.08 104.454 152.298 106.014 151.66L118.741 146.462C120.302 145.824 122.084 146.573 122.722 148.134C123.359 149.695 122.611 151.476 121.05 152.114L108.323 157.312C107.946 157.467 107.554 157.54 107.17 157.54Z" fill="#8EBAC5"/>
<path d="M113.545 173.147C112.607 173.147 111.681 172.716 111.083 171.902C110.085 170.543 110.377 168.633 111.736 167.634L123.158 159.241C124.516 158.243 126.427 158.535 127.426 159.894C128.424 161.253 128.132 163.163 126.773 164.161L115.35 172.554C114.806 172.954 114.173 173.147 113.545 173.147Z" fill="#8EBAC5"/>
<path d="M234.976 141.933C234.832 141.933 234.687 141.923 234.54 141.902L220.508 139.898C218.839 139.659 217.679 138.113 217.918 136.445C218.156 134.775 219.706 133.62 221.371 133.854L235.403 135.859C237.072 136.097 238.232 137.643 237.994 139.312C237.777 140.835 236.47 141.933 234.976 141.933Z" fill="#8EBAC5"/>
<path d="M228.597 157.539C228.213 157.539 227.822 157.466 227.445 157.312L214.718 152.114C213.157 151.476 212.408 149.694 213.046 148.134C213.684 146.573 215.464 145.824 217.026 146.462L229.753 151.661C231.314 152.298 232.062 154.08 231.425 155.641C230.942 156.824 229.801 157.539 228.597 157.539Z" fill="#8EBAC5"/>
<path d="M222.221 173.147C221.593 173.147 220.96 172.954 220.416 172.554L208.994 164.161C207.634 163.163 207.343 161.253 208.341 159.894C209.339 158.535 211.25 158.243 212.608 159.241L224.031 167.634C225.39 168.633 225.681 170.543 224.683 171.902C224.085 172.716 223.159 173.147 222.221 173.147Z" fill="#8EBAC5"/>
<path d="M193.101 46.2963H142.664C140.978 46.2963 139.611 44.9297 139.611 43.2439C139.611 41.558 140.978 40.1914 142.664 40.1914H193.101C194.788 40.1914 196.154 41.558 196.154 43.2439C196.154 44.9297 194.788 46.2963 193.101 46.2963Z" fill="#0593FC"/>
<path d="M160.803 118.523H175.106V179.773H160.803V118.523Z" fill="#FDD602"/>
<path d="M188.051 175.648H147.856C143.601 175.648 140.152 179.097 140.152 183.352V200.487H195.754V183.352C195.754 179.098 192.305 175.648 188.051 175.648Z" fill="#8EBAC5"/>
<path d="M140.152 188.707H195.754V200.489H140.152V188.707Z" fill="#7CA1B1"/>
<path d="M137.273 95.8194V120.61C137.273 124.741 138.857 128.715 141.698 131.713L150.062 140.542C151.729 142.303 154.048 143.3 156.473 143.3H179.435C181.86 143.3 184.178 142.302 185.846 140.542L194.21 131.713C197.051 128.715 198.634 124.741 198.634 120.61V95.8194L167.883 92.793L137.273 95.8194Z" fill="#FDC102"/>
<path d="M198.635 95.8201V79.9553C198.635 77.2726 196.46 75.0977 193.778 75.0977H142.131C139.448 75.0977 137.273 77.2726 137.273 79.9553V95.8201H198.635Z" fill="#FDA302"/>
<path d="M178.413 191.757H155.838C154.151 191.757 152.785 190.391 152.785 188.705C152.785 187.019 154.152 185.652 155.838 185.652H178.413C180.1 185.652 181.466 187.019 181.466 188.705C181.466 190.391 180.1 191.757 178.413 191.757Z" fill="#537983"/>
</g>
<path opacity="0.7" fill-rule="evenodd" clip-rule="evenodd" d="M14.2492 134.154C10.8057 135.793 7.21982 135.633 4.86123 134.992C2.47856 134.344 1.07225 131.887 1.72015 129.504C2.36805 127.122 4.82481 125.715 7.20748 126.363C7.97397 126.572 9.29281 126.61 10.4071 126.08C11.2526 125.677 12.5274 124.704 13.1638 121.738C13.587 118.391 15.3931 113.978 19.4117 110.636C23.655 107.106 29.8834 105.162 38.3315 106.267C40.7798 106.587 42.5049 108.831 42.1847 111.28C41.8644 113.728 39.62 115.453 37.1717 115.133C30.7175 114.289 27.1177 115.857 25.1298 117.51C23.0122 119.272 22.1731 121.582 22.0255 122.94L22.0036 123.142L21.9635 123.34C20.8505 128.861 17.9459 132.395 14.2492 134.154Z" fill="#F15959"/>
<path opacity="0.7" fill-rule="evenodd" clip-rule="evenodd" d="M315.221 47.5846C315.173 47.4757 315.122 47.3712 315.071 47.2744C315.052 47.2531 315.034 47.232 315.016 47.211C315.101 47.4302 315.185 47.5426 315.221 47.5846ZM308.048 44.2839C307.782 47.6096 308.488 50.3343 310.284 52.2473C312.367 54.4663 315.156 54.7751 316.986 54.4917C318.449 54.2719 319.867 53.669 320.908 52.4743C321.943 51.2853 322.265 49.8989 322.294 48.763C322.348 46.6636 321.442 44.685 320.784 43.5859L320.654 43.3685L320.493 43.1728C319.319 41.7465 318.084 40.6147 316.814 39.7433C317.251 39.27 317.775 38.8256 318.399 38.4431C320.549 37.1255 324.49 36.1759 331.384 38.2928C333.177 38.8432 335.076 37.8363 335.627 36.0437C336.177 34.2512 335.17 32.3518 333.378 31.8014C325.249 29.3054 319.149 30.0187 314.85 32.6536C312.724 33.9568 311.188 35.641 310.13 37.3881C308.981 37.3183 307.842 37.4042 306.728 37.6228C302.501 38.4532 299.058 41.1052 297.135 43.2314C295.877 44.6222 295.985 46.7693 297.376 48.027C298.767 49.2847 300.914 49.1767 302.172 47.7859C303.454 46.3681 305.678 44.7495 308.037 44.286C308.041 44.2853 308.044 44.2846 308.048 44.2839Z" fill="#F15959"/>
<path d="M283.229 156.968C283.939 154.318 286.664 152.745 289.315 153.456C291.966 154.166 293.539 156.89 292.829 159.541C292.119 162.191 289.394 163.764 286.743 163.054C284.092 162.343 282.519 159.619 283.229 156.968Z" fill="#C15DFF"/>
<path d="M31.344 145.134C32.4854 140.875 36.8639 138.347 41.1236 139.488C45.3833 140.629 47.9112 145.008 46.7698 149.268C45.6284 153.527 41.2499 156.055 36.9902 154.914C32.7305 153.772 30.2026 149.394 31.344 145.134Z" fill="#F9C160"/>
<path d="M304.651 146.126C305.792 141.867 310.17 139.339 314.43 140.48C318.69 141.622 321.218 146 320.076 150.26C318.935 154.519 314.557 157.047 310.297 155.906C306.037 154.765 303.509 150.386 304.651 146.126Z" fill="#F68B8B"/>
<path fill-rule="evenodd" clip-rule="evenodd" d="M36.0937 54.1424C35.7142 56.4595 33.5281 58.0301 31.2111 57.6506C28.1496 57.1491 23.7333 55.5975 20.1873 52.3942C16.4556 49.0231 13.8079 43.8902 14.7346 36.9504C15.0454 34.6231 17.1839 32.9884 19.5112 33.2992C21.8385 33.6099 23.4732 35.7485 23.1625 38.0758C22.6443 41.9559 24.0123 44.3912 25.887 46.0848C27.9474 47.9461 30.7284 48.9556 32.5856 49.2598C34.9026 49.6393 36.4733 51.8254 36.0937 54.1424Z" fill="#C15DFF"/>
<path fill-rule="evenodd" clip-rule="evenodd" d="M308.968 105.512C306.84 106.48 305.899 108.99 306.867 111.118C308.146 113.929 310.788 117.77 314.79 120.344C319.001 123.052 324.623 124.26 331.052 121.563C333.208 120.658 334.222 118.177 333.317 116.021C332.413 113.866 329.932 112.851 327.776 113.756C324.182 115.264 321.485 114.584 319.369 113.223C317.044 111.727 315.35 109.318 314.574 107.612C313.605 105.484 311.096 104.544 308.968 105.512Z" fill="#72C045"/>
<path d="M43.4995 30.7356C44.2965 27.7611 47.354 25.9958 50.3285 26.7929C53.3031 27.5899 55.0683 30.6474 54.2713 33.6219C53.4742 36.5965 50.4168 38.3617 47.4422 37.5647C44.4677 36.7676 42.7025 33.7102 43.4995 30.7356Z" fill="#14A4BE"/>
<path d="M310.252 174.753C310.685 173.139 312.344 172.182 313.958 172.614C315.572 173.047 316.53 174.706 316.098 176.32C315.665 177.934 314.006 178.892 312.392 178.459C310.778 178.027 309.82 176.368 310.252 174.753Z" fill="#14A4BE"/>
<path d="M263.867 30.2915C264.743 27.0224 268.103 25.0824 271.372 25.9583C274.641 26.8343 276.581 30.1945 275.705 33.4636C274.829 36.7327 271.469 38.6727 268.2 37.7968C264.931 36.9208 262.991 33.5606 263.867 30.2915Z" fill="#72C045"/>
<path d="M317.657 78.4011C318.379 75.7066 321.149 74.1076 323.843 74.8296C326.538 75.5516 328.137 78.3212 327.415 81.0157C326.693 83.7102 323.923 85.3092 321.229 84.5873C318.534 83.8653 316.935 81.0956 317.657 78.4011Z" fill="#F9C160"/>
<path d="M61.6564 143.805C62.1637 141.912 64.1096 140.789 66.0028 141.296C67.896 141.803 69.0195 143.749 68.5123 145.642C68.005 147.536 66.059 148.659 64.1658 148.152C62.2726 147.645 61.1491 145.699 61.6564 143.805Z" fill="#72C045"/>
<path d="M47.8907 170.348C48.398 168.455 50.344 167.332 52.2372 167.839C54.1304 168.346 55.2539 170.292 54.7466 172.185C54.2394 174.079 52.2934 175.202 50.4002 174.695C48.507 174.187 47.3835 172.241 47.8907 170.348Z" fill="#C15DFF"/>
<path d="M11.7462 77.8055C12.3803 75.439 14.8128 74.0346 17.1793 74.6687C19.5458 75.3028 20.9502 77.7353 20.3161 80.1018C19.682 82.4683 17.2495 83.8727 14.883 83.2386C12.5165 82.6045 11.1121 80.172 11.7462 77.8055Z" fill="#72C045"/>
<defs>
<clipPath id="clip0_21065_145639">
<rect width="202.286" height="202.286" fill="white" transform="translate(66.7754 0.941406)"/>
</clipPath>
</defs>
</svg>
