<svg width="48" height="48" viewBox="0 0 48 48" fill="none" xmlns="http://www.w3.org/2000/svg">
<g clip-path="url(#clip0_21032_144254)">
<path d="M0.0168457 13.6992V42.721C0.0168457 45.276 2.08816 47.3473 4.64331 47.3473H16.221L24.0085 46.3815L31.7625 47.3473H43.3737C45.9288 47.3473 48.0002 45.276 48.0002 42.721V13.6992L24.1494 12.0781L0.0168457 13.6992Z" fill="#F3E8E5"/>
<path d="M45.1035 12.0781V39.9228C45.1035 42.4769 43.033 44.5477 40.4787 44.5477H1.74509C1.23968 44.5477 0.753684 44.4654 0.29834 44.3156C0.947465 46.085 2.64696 47.3475 4.6414 47.3475H17.4114L24.6834 46.3817L30.605 47.3475H43.375C45.9292 47.3475 47.9997 45.2769 47.9997 42.7227V13.6992L45.1035 12.0781Z" fill="#EBE1DC"/>
<path d="M45.6631 4.25H2.32012C1.03875 4.25 0 5.28875 0 6.57012V13.7H47.9832V6.57012C47.9832 5.28875 46.9445 4.25 45.6631 4.25Z" fill="#60B7FF"/>
<path d="M45.663 4.25H42.7666C44.048 4.25 45.0867 5.28875 45.0867 6.57012V13.7H47.9831V6.57012C47.9831 5.28875 46.9444 4.25 45.663 4.25Z" fill="#26A6FE"/>
<path d="M7.14347 7.74775H7.04241C6.11794 7.74775 5.36841 6.99831 5.36841 6.07375V2.32244C5.36841 1.39797 6.11785 0.648438 7.04241 0.648438H7.14347C8.06794 0.648438 8.81747 1.39787 8.81747 2.32244V6.07375C8.81738 6.99831 8.06794 7.74775 7.14347 7.74775Z" fill="#537983"/>
<path d="M14.7673 7.74775H14.6662C13.7417 7.74775 12.9922 6.99831 12.9922 6.07375V2.32244C12.9922 1.39797 13.7416 0.648438 14.6662 0.648438H14.7673C15.6917 0.648438 16.4412 1.39787 16.4412 2.32244V6.07375C16.4412 6.99831 15.6917 7.74775 14.7673 7.74775Z" fill="#537983"/>
<path d="M33.0575 7.74775H32.9565C32.032 7.74775 31.2825 6.99831 31.2825 6.07375V2.32244C31.2825 1.39797 32.0319 0.648438 32.9565 0.648438H33.0575C33.982 0.648438 34.7315 1.39787 34.7315 2.32244V6.07375C34.7315 6.99831 33.9821 7.74775 33.0575 7.74775Z" fill="#537983"/>
<path d="M40.6813 7.74775H40.5802C39.6558 7.74775 38.9062 6.99831 38.9062 6.07375V2.32244C38.9062 1.39797 39.6557 0.648438 40.5802 0.648438H40.6813C41.6058 0.648438 42.3553 1.39787 42.3553 2.32244V6.07375C42.3552 6.99831 41.6058 7.74775 40.6813 7.74775Z" fill="#537983"/>
<path d="M18.9739 31.3552C18.9182 31.3552 18.8616 31.3487 18.8049 31.3352L17.1874 30.9485C14.6351 30.3383 12.8525 28.0793 12.8525 25.455V20.3952C12.8525 19.5311 13.5555 18.8281 14.4195 18.8281H17.6666C18.0667 18.8281 18.3909 19.1524 18.3909 19.5524C18.3909 19.9526 18.0666 20.2767 17.6666 20.2767H14.4195C14.3543 20.2767 14.3012 20.3298 14.3012 20.3952V25.455C14.3012 27.4062 15.6265 29.0857 17.5242 29.5394L19.1418 29.9261C19.5308 30.0192 19.7708 30.4099 19.6777 30.7991C19.5984 31.1316 19.3015 31.3552 18.9739 31.3552Z" fill="#FDAF23"/>
<path d="M29.0093 31.3552C28.6818 31.3552 28.3849 31.1316 28.3054 30.7991C28.2124 30.41 28.4524 30.0192 28.8414 29.9261L30.4589 29.5394C32.3566 29.0857 33.682 27.4061 33.682 25.455V20.3952C33.682 20.3299 33.6289 20.2767 33.5636 20.2767H30.3166C29.9164 20.2767 29.5923 19.9525 29.5923 19.5524C29.5923 19.1523 29.9165 18.8281 30.3166 18.8281H33.5636C34.4277 18.8281 35.1306 19.5311 35.1306 20.3952V25.455C35.1306 28.0793 33.3481 30.3383 30.7957 30.9485L29.1783 31.3351C29.1218 31.3487 29.0651 31.3552 29.0093 31.3552Z" fill="#FDAF23"/>
<path d="M8.0712 33.4557C7.71654 33.4557 7.4066 33.195 7.35504 32.8337C7.29841 32.4377 7.57366 32.0707 7.96966 32.0142L11.2993 31.5386C11.6944 31.4821 12.0622 31.7571 12.1188 32.1532C12.1754 32.5492 11.9001 32.9162 11.5041 32.9727L8.17451 33.4483C8.13991 33.4533 8.10532 33.4557 8.0712 33.4557Z" fill="#8EBAC5"/>
<path d="M9.58497 37.1592C9.29941 37.1592 9.02875 36.9892 8.91409 36.7085C8.76278 36.3381 8.94044 35.9153 9.31075 35.7641L12.3307 34.5306C12.7009 34.3792 13.1238 34.5569 13.2752 34.9272C13.4265 35.2976 13.2488 35.7204 12.8785 35.8716L9.85853 37.1052C9.769 37.1419 9.67619 37.1592 9.58497 37.1592Z" fill="#8EBAC5"/>
<path d="M11.098 40.8623C10.8753 40.8623 10.6557 40.7599 10.5137 40.5667C10.2769 40.2443 10.3461 39.791 10.6686 39.5541L13.379 37.5626C13.7013 37.3258 14.1547 37.3948 14.3916 37.7174C14.6284 38.0398 14.5592 38.4931 14.2367 38.73L11.5263 40.7216C11.3971 40.8164 11.2469 40.8623 11.098 40.8623Z" fill="#8EBAC5"/>
<path d="M39.9122 33.4554C39.8781 33.4554 39.8436 33.4529 39.8088 33.4481L36.4792 32.9725C36.0832 32.9159 35.8079 32.549 35.8646 32.153C35.9212 31.7569 36.289 31.4829 36.684 31.5384L40.0137 32.014C40.4097 32.0706 40.6849 32.4375 40.6283 32.8334C40.5768 33.1948 40.2669 33.4554 39.9122 33.4554Z" fill="#8EBAC5"/>
<path d="M38.3982 37.1591C38.307 37.1591 38.2143 37.1418 38.1247 37.1052L35.1047 35.8717C34.7343 35.7203 34.5567 35.2975 34.7081 34.9272C34.8594 34.5568 35.2819 34.3793 35.6525 34.5306L38.6725 35.7641C39.0429 35.9154 39.2204 36.3382 39.0691 36.7086C38.9545 36.9892 38.6839 37.1591 38.3982 37.1591Z" fill="#8EBAC5"/>
<path d="M36.8854 40.8623C36.7364 40.8623 36.5862 40.8164 36.4571 40.7216L33.7467 38.73C33.4242 38.4931 33.355 38.0398 33.5918 37.7174C33.8287 37.3948 34.2822 37.3258 34.6044 37.5626L37.3148 39.5541C37.6373 39.791 37.7065 40.2443 37.4697 40.5667C37.3278 40.76 37.1081 40.8623 36.8854 40.8623Z" fill="#8EBAC5"/>
<path d="M29.9757 10.7611H18.0075C17.6074 10.7611 17.2832 10.4368 17.2832 10.0368C17.2832 9.63678 17.6075 9.3125 18.0075 9.3125H29.9757C30.3759 9.3125 30.7 9.63678 30.7 10.0368C30.7 10.4368 30.3759 10.7611 29.9757 10.7611Z" fill="#0593FC"/>
<path d="M22.3115 27.8984H25.7055V42.4323H22.3115V27.8984Z" fill="#FDD602"/>
<path d="M28.7773 41.4531H19.2396C18.2301 41.4531 17.4116 42.2715 17.4116 43.2811V47.347H30.6052V43.2811C30.6052 42.2716 29.7869 41.4531 28.7773 41.4531Z" fill="#8EBAC5"/>
<path d="M17.4116 44.5508H30.6052V47.3465H17.4116V44.5508Z" fill="#7CA1B1"/>
<path d="M16.7283 22.5111V28.3936C16.7283 29.3738 17.104 30.3167 17.7781 31.0283L19.7628 33.1233C20.1585 33.5411 20.7086 33.7776 21.2841 33.7776H26.7327C27.3081 33.7776 27.8582 33.541 28.254 33.1233L30.2387 31.0283C30.9128 30.3167 31.2885 29.3738 31.2885 28.3936V22.5111L23.9916 21.793L16.7283 22.5111Z" fill="#FDC102"/>
<path d="M31.2887 22.5109V18.7464C31.2887 18.1098 30.7726 17.5938 30.136 17.5938H17.8809C17.2444 17.5938 16.7283 18.1098 16.7283 18.7464V22.5109H31.2887Z" fill="#FDA302"/>
<path d="M26.4905 45.2768H21.1335C20.7334 45.2768 20.4092 44.9525 20.4092 44.5524C20.4092 44.1523 20.7335 43.8281 21.1335 43.8281H26.4905C26.8906 43.8281 27.2148 44.1524 27.2148 44.5524C27.2149 44.9525 26.8906 45.2768 26.4905 45.2768Z" fill="#537983"/>
</g>
<defs>
<clipPath id="clip0_21032_144254">
<rect width="48" height="48" fill="white"/>
</clipPath>
</defs>
</svg>
