<svg width="56" height="56" viewBox="0 0 56 56" fill="none" xmlns="http://www.w3.org/2000/svg">
<g clip-path="url(#clip0_20123_435289)">
<path d="M28 56C43.464 56 56 43.464 56 28C56 12.536 43.464 0 28 0C12.536 0 0 12.536 0 28C0 43.464 12.536 56 28 56Z" fill="#9DCA45"/>
<path d="M20.8457 40.6318L35.2432 55.0293C47.1675 51.8494 56.0003 40.9851 56.0003 28.0009C56.0003 27.7359 56.0003 27.4709 56.0003 27.2059L44.6943 16.7832L20.8457 40.6318Z" fill="#8AB33B"/>
<path d="M28.7069 34.2725C29.9435 35.5091 29.9435 37.629 28.7069 38.8656L26.1454 41.4271C24.9088 42.6637 22.7889 42.6637 21.5523 41.4271L10.3347 30.1211C9.09808 28.8845 9.09808 26.7646 10.3347 25.528L12.8962 22.9665C14.1328 21.7299 16.2527 21.7299 17.4892 22.9665L28.7069 34.2725Z" fill="white"/>
<path d="M38.511 14.7517C39.7476 13.5151 41.8675 13.5151 43.104 14.7517L45.6656 17.3132C46.9022 18.5498 46.9022 20.6696 45.6656 21.9062L26.2334 41.2501C24.9968 42.4867 22.8769 42.4867 21.6403 41.2501L19.0788 38.6886C17.8422 37.452 17.8422 35.3321 19.0788 34.0955L38.511 14.7517Z" fill="white"/>
</g>
<defs>
<clipPath id="clip0_20123_435289">
<rect width="56" height="56" fill="white"/>
</clipPath>
</defs>
</svg>
