<svg width="28" height="28" viewBox="0 0 28 28" fill="none" xmlns="http://www.w3.org/2000/svg">
<g clip-path="url(#clip0_20168_172546)">
<path d="M18.9952 5.1733C18.1002 7.76925 15.6887 8.21599 15.6887 8.21599C15.6887 8.21599 14.0906 6.30269 14.9623 3.77419C15.8805 1.11074 18.2922 0.664062 18.2922 0.664062C18.2922 0.664062 19.9018 2.54361 18.9952 5.1733Z" fill="#A4C400"/>
<path d="M18.2921 0.664063C18.2921 0.664063 17.6548 0.782211 16.9106 1.25878C17.3195 2.01296 17.8263 3.42774 17.2246 5.17325C16.7917 6.42905 16.0038 7.18184 15.3058 7.62444C15.5106 8.00249 15.6887 8.21588 15.6887 8.21588C15.6887 8.21588 18.1003 7.7692 18.9952 5.1732C19.9018 2.54361 18.2921 0.664063 18.2921 0.664063Z" fill="#A4C400"/>
<path d="M13.8958 14.3639C13.8559 14.3639 13.8154 14.358 13.7755 14.3454C13.5634 14.279 13.4453 14.0532 13.5116 13.8411C13.6102 13.5262 15.9394 6.09574 17.0742 3.31307C17.1581 3.10731 17.3928 3.00847 17.5987 3.09239C17.8045 3.17631 17.9033 3.41116 17.8194 3.61698C16.6974 6.36837 14.3037 14.0048 14.2796 14.0816C14.2258 14.2537 14.067 14.3639 13.8958 14.3639Z" fill="#535353"/>
<path d="M13.8957 26.268C13.6734 26.268 13.4933 26.0878 13.4933 25.8655V13.7696C13.4933 13.5474 13.6734 13.3672 13.8957 13.3672C14.118 13.3672 14.2981 13.5474 14.2981 13.7696V25.8655C14.2981 26.0878 14.1179 26.268 13.8957 26.268Z" fill="#535353"/>
<path d="M16.5907 17.3793C15.1205 17.5883 14.0382 17.2879 14.0382 17.2879C14.0382 17.2879 13.1021 13.5318 16.0273 10.5973C19.1086 7.50627 22.7749 8.52358 22.7749 8.52358C22.7749 8.52358 23.5792 11.5894 21.448 14.4385" fill="#60A917"/>
<path d="M22.7749 8.52344C22.7749 8.52344 21.7918 8.25082 20.4161 8.41694C20.7876 8.46351 21.0043 8.52344 21.0043 8.52344C21.0043 8.52344 21.8085 11.5893 19.6773 14.4383L14.8201 17.3792C14.7663 17.3868 14.7132 17.3936 14.6605 17.3999C15.1188 17.4564 15.7982 17.4918 16.5907 17.3792L21.448 14.4383C23.5792 11.5893 22.7749 8.52344 22.7749 8.52344Z" fill="#60A917"/>
<path d="M10.5319 15.4079C13.1415 17.4646 12.6962 20.4127 12.6962 20.4127C12.6962 20.4127 9.87858 21.491 7.33683 19.4876C4.65948 17.3775 5.10477 14.4295 5.10477 14.4295C5.10477 14.4295 7.88851 13.3245 10.5319 15.4079Z" fill="#A4C400"/>
<path d="M7.53943 11.1669C10.1668 14.5145 13.9273 13.9388 13.9273 13.9388C13.9273 13.9388 15.2992 10.3199 12.74 7.05925C10.0444 3.62473 6.28395 4.20034 6.28395 4.20034C6.28395 4.20034 4.87792 7.77582 7.53943 11.1669Z" fill="#60A917"/>
<path d="M13.8957 25.3047C13.6734 25.3047 13.4933 25.1245 13.4933 24.9023C13.4933 22.5643 12.6293 20.5683 10.9253 18.9695C9.6493 17.7723 8.37225 17.2668 8.35954 17.2619C8.15243 17.1812 8.04989 16.9479 8.13059 16.7409C8.21118 16.5338 8.44447 16.4312 8.65158 16.5119C8.70958 16.5345 10.0877 17.08 11.476 18.3826C12.7635 19.5906 14.2982 21.7023 14.2982 24.9023C14.2981 25.1245 14.1179 25.3047 13.8957 25.3047Z" fill="#535353"/>
<path d="M20.7684 18.895C18.5139 20.4538 16.3075 19.3797 16.3075 19.3797C16.3075 19.3797 16.1508 16.8886 18.3468 15.3703C20.6599 13.7711 22.8662 14.8451 22.8662 14.8451C22.8662 14.8451 23.0522 17.3161 20.7684 18.895Z" fill="#A4C400"/>
<path d="M22.8662 14.8449C22.8662 14.8449 21.7162 14.2853 20.2062 14.5758C20.757 14.6802 21.0956 14.8449 21.0956 14.8449C21.0956 14.8449 21.2816 17.3158 18.9977 18.8948C18.3864 19.3175 17.7788 19.5463 17.2177 19.6557C18.069 19.8173 19.4098 19.8341 20.7683 18.8948C23.0522 17.3159 22.8662 14.8449 22.8662 14.8449Z" fill="#A4C400"/>
<path d="M13.8952 25.3046C13.6817 25.3046 13.5037 25.1367 13.4936 24.9211C13.4908 24.8623 13.4342 23.4608 14.14 21.7281C14.7892 20.1341 16.2348 17.9464 19.4344 16.5756C19.6388 16.4881 19.8753 16.5827 19.9628 16.787C20.0504 16.9913 19.9557 17.2278 19.7514 17.3154C17.3842 18.3295 15.747 19.9164 14.8854 22.0317C14.2458 23.602 14.297 24.8707 14.2977 24.8834C14.308 25.1054 14.1365 25.2938 13.9145 25.3042C13.908 25.3045 13.9016 25.3046 13.8952 25.3046Z" fill="#535353"/>
<path d="M13.7591 14.1747C13.6126 14.1747 13.4712 14.0942 13.4001 13.9546C11.8612 10.9287 9.26053 8.29028 9.2344 8.26394C9.07789 8.10619 9.07891 7.85138 9.23665 7.69487C9.39445 7.5383 9.64915 7.53938 9.80572 7.69712C9.91588 7.80814 12.5219 10.4525 14.1175 13.5897C14.2182 13.7878 14.1393 14.0301 13.9413 14.1308C13.8828 14.1605 13.8205 14.1747 13.7591 14.1747Z" fill="#535353"/>
<path d="M14.0221 17.672C13.9446 17.672 13.8663 17.6497 13.7972 17.603C13.6131 17.4787 13.5646 17.2285 13.6889 17.0443C13.7998 16.8801 16.4408 13.0024 19.6541 11.1328C19.8462 11.021 20.0925 11.0861 20.2043 11.2782C20.3161 11.4704 20.251 11.7166 20.0589 11.8284C17.0031 13.6064 14.382 17.456 14.356 17.4947C14.2782 17.6099 14.1513 17.672 14.0221 17.672Z" fill="#535353"/>
</g>
<defs>
<clipPath id="clip0_20168_172546">
<rect width="26.6667" height="26.6667" fill="white" transform="translate(0.666992 0.664062)"/>
</clipPath>
</defs>
</svg>
