<svg width="100" height="100" viewBox="0 0 100 100" fill="none" xmlns="http://www.w3.org/2000/svg">
<rect x="0.5" y="0.5" width="99" height="99" rx="7.5" fill="#FDC013" fill-opacity="0.1" stroke="#FDC013"/>
<path d="M66.17 16H33.83C23.9828 16 16 23.9828 16 33.83V66.17C16 76.0172 23.9828 84 33.83 84H66.17C76.0172 84 84 76.0172 84 66.17V33.83C84 23.9828 76.0172 16 66.17 16Z" fill="#FDC013"/>
<path d="M35.2647 48.0872C36.8945 48.0872 38.2158 45.8667 38.2158 43.1276C38.2158 40.3885 36.8945 38.168 35.2647 38.168C33.6348 38.168 32.3135 40.3885 32.3135 43.1276C32.3135 45.8667 33.6348 48.0872 35.2647 48.0872Z" fill="#333333"/>
<path d="M64.7764 48.0872C66.4063 48.0872 67.7275 45.8667 67.7275 43.1276C67.7275 40.3885 66.4063 38.168 64.7764 38.168C63.1465 38.168 61.8252 40.3885 61.8252 43.1276C61.8252 45.8667 63.1465 48.0872 64.7764 48.0872Z" fill="#333333"/>
<path d="M31.125 60.793C31.5349 63.0883 33.5843 64.8508 36.0026 64.8508H36.6174V60.793H31.084H31.125Z" fill="white"/>
<path d="M64.5713 64.8508C66.7437 64.6049 68.5062 62.9244 68.9161 60.793H64.5713V64.8508Z" fill="white"/>
<path d="M68.9161 58.9875C68.5472 56.8151 66.7847 55.0936 64.5713 54.8477V58.9875H68.9161Z" fill="white"/>
<path d="M62.7674 54.8047H58.0537V58.9855H62.7674V54.8047Z" fill="white"/>
<path d="M43.1756 54.8047H38.4619V58.9855H43.1756V54.8047Z" fill="white"/>
<path d="M49.6912 54.8047H44.9775V58.9855H49.6912V54.8047Z" fill="white"/>
<path d="M56.2098 54.8047H51.4961V58.9855H56.2098V54.8047Z" fill="white"/>
<path d="M36.6174 54.8047H36.0026C33.5433 54.8047 31.4939 56.6082 31.084 58.9855H36.6174V54.8047Z" fill="white"/>
<path d="M56.2098 60.793H51.4961V64.8508H56.2098V60.793Z" fill="white"/>
<path d="M49.6922 60.793H44.9785V64.8508H49.6922V60.793Z" fill="white"/>
<path d="M43.1756 60.793H38.4619V64.8508H43.1756V60.793Z" fill="white"/>
<path d="M62.7674 60.793H58.0537V64.8508H62.7674V60.793Z" fill="white"/>
<path d="M63.9975 53.0039H36.0023C32.2314 53.0039 29.1982 56.037 29.1982 59.8079V59.8899C29.1982 59.3981 29.6081 58.9882 30.1 58.9882H30.182C30.5919 56.119 33.0512 53.9056 36.0023 53.9056H36.6992C36.8631 53.6187 37.15 53.3728 37.5189 53.3728C37.8878 53.3728 38.1747 53.5777 38.3387 53.9056H43.2573C43.4213 53.6187 43.7082 53.3728 44.0771 53.3728C44.446 53.3728 44.7329 53.5777 44.8969 53.9056H49.8155C49.9794 53.6187 50.2664 53.3728 50.6353 53.3728C51.0042 53.3728 51.2911 53.5777 51.455 53.9056H56.3737C56.5376 53.6187 56.8245 53.3728 57.1934 53.3728C57.5623 53.3728 57.8492 53.5777 58.0132 53.9056H62.9318C63.0958 53.6187 63.3827 53.3728 63.7516 53.3728C64.1205 53.3728 64.4484 53.5777 64.5714 53.9056C67.3176 54.1515 69.572 56.2829 69.8999 58.9882C70.2688 59.1111 70.5557 59.4391 70.5557 59.8489C70.5557 60.2588 70.2688 60.6277 69.8589 60.7097C69.449 63.374 67.3176 65.4234 64.6123 65.7103C64.6123 66.1612 64.2025 66.5301 63.7106 66.5301C63.2187 66.5301 62.8498 66.1612 62.8088 65.7103H58.0952C58.0542 66.1612 57.6443 66.5301 57.1934 66.5301C56.7426 66.5301 56.3327 66.1612 56.2917 65.7103H51.578C51.537 66.1612 51.1271 66.5301 50.6762 66.5301C50.2254 66.5301 49.8155 66.1612 49.7745 65.7103H45.0608C45.0198 66.1612 44.6099 66.5301 44.1591 66.5301C43.7082 66.5301 43.2983 66.1612 43.2573 65.7103H38.5436C38.5026 66.1612 38.0928 66.5301 37.6419 66.5301C37.191 66.5301 36.7811 66.1612 36.7401 65.7103H36.1253C33.1741 65.7103 30.7558 63.5379 30.3049 60.7097H30.223C29.7311 60.7097 29.3212 60.2998 29.3212 59.8079C29.3212 63.5789 32.3544 66.612 36.1253 66.612H64.1205C67.8914 66.612 70.9246 63.5789 70.9246 59.8079V59.726C70.9246 55.955 67.8914 52.9219 64.1205 52.9219L63.9975 53.0039Z" fill="#333333"/>
<path d="M56.2098 64.8867H51.4961V65.7065V65.7885H56.2098V65.7065V64.8867Z" fill="#333333"/>
<path d="M36.6169 64.8938H36.002C33.5837 64.8938 31.5343 63.1313 31.1244 60.8359H30.2227C30.6735 63.6641 33.0919 65.8365 36.043 65.8365H36.6579V65.7546V64.9348L36.6169 64.8938Z" fill="#333333"/>
<path d="M58.0536 54.806H62.7673V54.2732C62.7673 54.1502 62.7673 53.9862 62.8493 53.8633H57.9307C57.9717 53.9862 58.0126 54.1092 58.0126 54.2732V54.806H58.0536Z" fill="#333333"/>
<path d="M49.6912 64.8867H44.9775V65.7065V65.7885H49.6912V65.7065V64.8867Z" fill="#333333"/>
<path d="M36.002 54.806H36.6168V54.2732C36.6168 54.1502 36.6168 53.9862 36.6988 53.8633H36.002C33.0098 53.8633 30.5915 56.0767 30.1816 58.9459H31.0834C31.4933 56.5685 33.5427 54.765 36.002 54.765V54.806Z" fill="#333333"/>
<path d="M62.7674 64.8867H58.0537V65.7065V65.7885H62.7674V65.7065V64.8867Z" fill="#333333"/>
<path d="M43.1756 64.8867H38.4619V65.7065V65.7885H43.1756V65.7065V64.8867Z" fill="#333333"/>
<path d="M51.495 54.806H56.2087V54.2732C56.2087 54.1502 56.2087 53.9862 56.2907 53.8633H51.3721C51.4131 53.9862 51.4541 54.1092 51.4541 54.2732V54.806H51.495Z" fill="#333333"/>
<path d="M44.9784 54.806H49.6921V54.2732C49.6921 54.1502 49.6921 53.9862 49.7741 53.8633H44.8555C44.8965 53.9862 44.9374 54.1092 44.9374 54.2732V54.806H44.9784Z" fill="#333333"/>
<path d="M64.5713 54.849C66.7846 55.0949 68.5471 56.8164 68.916 58.9888H69.6129C69.6948 58.9888 69.7768 58.9888 69.8588 58.9888C69.4899 56.2836 67.2765 54.1112 64.5303 53.9062C64.5713 54.0292 64.6122 54.1522 64.6122 54.2751V54.808L64.5713 54.849Z" fill="#333333"/>
<path d="M38.4618 54.806H43.1755V54.2732C43.1755 54.1502 43.1755 53.9862 43.2575 53.8633H38.3389C38.3799 53.9862 38.4208 54.1092 38.4208 54.2732V54.806H38.4618Z" fill="#333333"/>
<path d="M68.9161 60.793C68.5062 62.9244 66.7847 64.5639 64.5713 64.8508V65.7116C64.5713 65.7116 64.5713 65.7526 64.5713 65.7936C67.2765 65.5476 69.4489 63.4572 69.8178 60.793C69.7358 60.793 69.6539 60.793 69.6129 60.793H68.9161Z" fill="#333333"/>
<path d="M49.6912 59.8945H44.9775V60.7963H49.6912V59.8945Z" fill="#333333"/>
<path d="M62.7674 58.9883H58.0537V59.89H62.7674V58.9883Z" fill="#333333"/>
<path d="M56.2098 58.9883H51.4961V59.89H56.2098V58.9883Z" fill="#333333"/>
<path d="M56.2098 59.8945H51.4961V60.7963H56.2098V59.8945Z" fill="#333333"/>
<path d="M64.5703 59.89H68.9971V59.8081C68.9971 59.5211 68.9971 59.2752 68.9151 58.9883H64.5703V59.89Z" fill="#333333"/>
<path d="M49.6912 58.9883H44.9775V59.89H49.6912V58.9883Z" fill="#333333"/>
<path d="M64.5703 60.0518H68.9151C68.9561 59.601 68.9971 59.1501 68.9971 58.6992H64.5703V60.0518Z" fill="#333333"/>
<path d="M62.7674 59.8945H58.0537V60.7963H62.7674V59.8945Z" fill="#333333"/>
<path d="M43.1756 58.9883H38.4619V59.89H43.1756V58.9883Z" fill="#333333"/>
<path d="M36.6174 58.9883H31.0839C31.0429 59.2752 31.002 59.5211 31.002 59.8081V59.89H36.6174V58.9883Z" fill="#333333"/>
<path d="M43.1756 59.8945H38.4619V60.7963H43.1756V59.8945Z" fill="#333333"/>
<path d="M36.6174 60.7963V59.8945H31.002C31.002 60.2224 31.002 60.5094 31.0839 60.7963H36.6174Z" fill="#333333"/>
<path d="M69.8994 59.892C69.8994 60.1789 69.8994 60.4659 69.8174 60.7528C70.2273 60.6708 70.5142 60.3019 70.5142 59.892C70.5142 59.4821 70.2273 59.1132 69.8584 59.0312C69.8584 59.2772 69.8994 59.5641 69.8994 59.81V59.892Z" fill="#333333"/>
<path d="M30.1 60.7918H30.182C30.141 60.5049 30.1 60.177 30.1 59.89V59.8081C30.1 59.5211 30.1 59.2752 30.182 58.9883H30.1C29.6081 58.9883 29.1982 59.3982 29.1982 59.89C29.1982 60.3819 29.6081 60.7918 30.1 60.7918Z" fill="#333333"/>
<path d="M68.916 58.9883C68.957 59.2752 68.998 59.5211 68.998 59.8081V59.89C68.998 60.2179 68.998 60.5049 68.916 60.7918H69.6128C69.6948 60.7918 69.7768 60.7918 69.8178 60.7918C69.8588 60.5049 69.8997 60.2179 69.8997 59.931V59.849C69.8997 59.5621 69.8997 59.3162 69.8588 59.0703C69.7768 59.0703 69.6948 59.0703 69.6128 59.0703H68.916V58.9883Z" fill="#333333"/>
<path d="M30.0996 59.89H31.0014V59.8081C31.0014 59.5211 31.0014 59.2752 31.0833 58.9883H30.1816C30.1816 59.2752 30.0996 59.5211 30.0996 59.8081V59.89Z" fill="#333333"/>
<path d="M31.0433 59.8945H30.1416C30.1416 60.2224 30.1416 60.5094 30.2236 60.7963H31.1253C31.0843 60.5094 31.0433 60.1815 31.0433 59.8945Z" fill="#333333"/>
<path d="M37.518 54.8047H36.6162V58.9855H37.518V54.8047Z" fill="#333333"/>
<path d="M37.5189 60.793H36.6172V64.8508H37.5189V60.793Z" fill="#333333"/>
<path d="M38.4613 54.8047H37.5596V58.9855H38.4613V54.8047Z" fill="#333333"/>
<path d="M38.4613 60.793H37.5596V64.8508H38.4613V60.793Z" fill="#333333"/>
<path d="M37.5599 66.6127C38.0108 66.6127 38.4207 66.2438 38.4617 65.793H36.6582C36.6992 66.2438 37.1091 66.6127 37.5599 66.6127Z" fill="#333333"/>
<path d="M37.561 53.4102C37.1921 53.4102 36.9052 53.6151 36.7412 53.943H38.3808C38.2168 53.6561 37.9299 53.4102 37.561 53.4102Z" fill="#333333"/>
<path d="M38.4617 64.8867H37.5599H36.6582V65.7065V65.7885H38.4617V65.7065V64.8867Z" fill="#333333"/>
<path d="M36.6162 54.806H37.518H38.4197V54.2732C38.4197 54.1502 38.4197 53.9862 38.3377 53.8633H36.6982C36.6572 53.9862 36.6162 54.1092 36.6162 54.2732V54.806Z" fill="#333333"/>
<path d="M37.518 59.8945H36.6162V60.7963H37.518V59.8945Z" fill="#333333"/>
<path d="M37.518 58.9883H36.6162V59.89H37.518V58.9883Z" fill="#333333"/>
<path d="M38.4613 58.9883H37.5596V59.89H38.4613V58.9883Z" fill="#333333"/>
<path d="M38.4613 59.8945H37.5596V60.7963H38.4613V59.8945Z" fill="#333333"/>
<path d="M44.9789 60.793H44.0771V64.8508H44.9789V60.793Z" fill="#333333"/>
<path d="M44.9789 54.8047H44.0771V58.9855H44.9789V54.8047Z" fill="#333333"/>
<path d="M44.0775 54.8047H43.1758V58.9855H44.0775V54.8047Z" fill="#333333"/>
<path d="M44.0775 60.793H43.1758V64.8508H44.0775V60.793Z" fill="#333333"/>
<path d="M44.0776 53.4102C43.7087 53.4102 43.4218 53.6151 43.2578 53.943H44.8974C44.7334 53.6561 44.4465 53.4102 44.0776 53.4102Z" fill="#333333"/>
<path d="M44.0775 66.6127C44.5284 66.6127 44.9383 66.2438 44.9793 65.793H43.1758C43.2168 66.2438 43.6267 66.6127 44.0775 66.6127Z" fill="#333333"/>
<path d="M44.9793 64.8867H44.0775H43.1758V65.7065V65.7885H44.9793V65.7065V64.8867Z" fill="#333333"/>
<path d="M43.1758 54.806H44.0775H44.9793V54.2732C44.9793 54.1502 44.9793 53.9862 44.8973 53.8633H43.2578C43.2168 53.9862 43.1758 54.1092 43.1758 54.2732V54.806Z" fill="#333333"/>
<path d="M44.0775 58.9883H43.1758V59.89H44.0775V58.9883Z" fill="#333333"/>
<path d="M44.0775 59.8945H43.1758V60.7963H44.0775V59.8945Z" fill="#333333"/>
<path d="M44.9789 58.9883H44.0771V59.89H44.9789V58.9883Z" fill="#333333"/>
<path d="M44.9789 59.8945H44.0771V60.7963H44.9789V59.8945Z" fill="#333333"/>
<path d="M51.4965 54.8047H50.5947V58.9855H51.4965V54.8047Z" fill="#333333"/>
<path d="M50.5941 60.793H49.6924V64.8508H50.5941V60.793Z" fill="#333333"/>
<path d="M50.5941 54.8047H49.6924V58.9855H50.5941V54.8047Z" fill="#333333"/>
<path d="M51.4965 60.793H50.5947V64.8508H51.4965V60.793Z" fill="#333333"/>
<path d="M50.5941 66.6127C51.045 66.6127 51.4549 66.2438 51.4959 65.793H49.6924C49.7334 66.2438 50.1433 66.6127 50.5941 66.6127Z" fill="#333333"/>
<path d="M50.5942 53.4102C50.2253 53.4102 49.9384 53.6151 49.7744 53.943H51.414C51.25 53.6561 50.9631 53.4102 50.5942 53.4102Z" fill="#333333"/>
<path d="M51.4959 64.8867H50.5941H49.6924V65.7065V65.7885H51.4959V65.7065V64.8867Z" fill="#333333"/>
<path d="M49.6924 54.806H50.5941H51.4959V54.2732C51.4959 54.1502 51.4959 53.9862 51.4139 53.8633H49.7744C49.7334 53.9862 49.6924 54.1092 49.6924 54.2732V54.806Z" fill="#333333"/>
<path d="M51.4965 59.8945H50.5947V60.7963H51.4965V59.8945Z" fill="#333333"/>
<path d="M50.5941 59.8945H49.6924V60.7963H50.5941V59.8945Z" fill="#333333"/>
<path d="M51.4965 58.9883H50.5947V59.89H51.4965V58.9883Z" fill="#333333"/>
<path d="M50.5941 58.9883H49.6924V59.89H50.5941V58.9883Z" fill="#333333"/>
<path d="M57.1117 60.793H56.21V64.8508H57.1117V60.793Z" fill="#333333"/>
<path d="M58.0541 60.793H57.1523V64.8508H58.0541V60.793Z" fill="#333333"/>
<path d="M58.0541 54.8047H57.1523V58.9855H58.0541V54.8047Z" fill="#333333"/>
<path d="M57.1107 54.8047H56.209V58.9855H57.1107V54.8047Z" fill="#333333"/>
<path d="M57.1527 66.6127C57.6036 66.6127 58.0135 66.2438 58.0545 65.793H56.251C56.292 66.2438 56.7019 66.6127 57.1527 66.6127Z" fill="#333333"/>
<path d="M57.1528 53.4102C56.7839 53.4102 56.497 53.6151 56.333 53.943H57.9725C57.8086 53.6561 57.5217 53.4102 57.1528 53.4102Z" fill="#333333"/>
<path d="M58.0545 64.8867H57.1527H56.251V65.7065V65.7885H58.0545V65.7065V64.8867Z" fill="#333333"/>
<path d="M56.209 54.806H57.1107H58.0125V54.2732C58.0125 54.1502 58.0125 53.9862 57.9305 53.8633H56.291C56.25 53.9862 56.209 54.1092 56.209 54.2732V54.806Z" fill="#333333"/>
<path d="M57.1107 59.8945H56.209V60.7963H57.1107V59.8945Z" fill="#333333"/>
<path d="M58.0541 58.9883H57.1523V59.89H58.0541V58.9883Z" fill="#333333"/>
<path d="M58.0541 59.8945H57.1523V60.7963H58.0541V59.8945Z" fill="#333333"/>
<path d="M57.1107 58.9883H56.209V59.89H57.1107V58.9883Z" fill="#333333"/>
<path d="M63.6693 54.8047H62.7676V58.9855H63.6693V54.8047Z" fill="#333333"/>
<path d="M63.6699 60.793V64.8508H63.9978C64.2028 64.8508 64.3667 64.8508 64.5717 64.8508V60.793H63.6699Z" fill="#333333"/>
<path d="M63.6693 60.793H62.7676V64.8508H63.6693V60.793Z" fill="#333333"/>
<path d="M64.5717 58.9875V54.8477C64.3667 54.8477 64.2028 54.8477 63.9978 54.8477H63.6699V59.0285H64.5717V58.9875Z" fill="#333333"/>
<path d="M64.4892 53.943C64.3662 53.6151 64.0383 53.4102 63.6694 53.4102C63.3005 53.4102 63.0136 53.6151 62.8496 53.943H63.9973C64.1612 53.943 64.3252 53.943 64.4892 53.943Z" fill="#333333"/>
<path d="M62.7676 65.793C62.8086 66.2438 63.2185 66.6127 63.6693 66.6127C64.1202 66.6127 64.5301 66.2438 64.5711 65.793C64.3661 65.793 64.2022 65.793 63.9972 65.793H62.7676Z" fill="#333333"/>
<path d="M64.5711 64.8496C64.3661 64.8496 64.2022 64.8496 63.9972 64.8496H63.6693H62.7676V65.6694V65.7513H63.9972C64.2022 65.7513 64.3661 65.7513 64.5711 65.7513C64.5711 65.7513 64.5711 65.7103 64.5711 65.6694V64.8086V64.8496Z" fill="#333333"/>
<path d="M62.7676 54.808H63.6693H63.9972C64.2022 54.808 64.3661 54.808 64.5711 54.808V54.2751C64.5711 54.1522 64.5711 54.0292 64.4891 53.9062C64.3251 53.9062 64.1612 53.9062 63.9972 53.9062H62.8496C62.8086 54.0292 62.7676 54.1522 62.7676 54.3161V54.849V54.808Z" fill="#333333"/>
<path d="M64.5717 59.8945H63.6699V60.7963H64.5717V59.8945Z" fill="#333333"/>
<path d="M63.6693 59.8945H62.7676V60.7963H63.6693V59.8945Z" fill="#333333"/>
<path d="M64.5717 58.9883H63.6699V59.89H64.5717V58.9883Z" fill="#333333"/>
<path d="M63.6693 58.9883H62.7676V59.89H63.6693V58.9883Z" fill="#333333"/>
</svg>
