<svg width="100" height="100" viewBox="0 0 100 100" fill="none" xmlns="http://www.w3.org/2000/svg">
<rect x="0.5" y="0.5" width="99" height="99" rx="7.5" fill="#FDC013" fill-opacity="0.1" stroke="#FDC013"/>
<path d="M65.965 16H34.035C24.0745 16 16 24.0745 16 34.035V65.965C16 75.9255 24.0745 84 34.035 84H65.965C75.9255 84 84 75.9255 84 65.965V34.035C84 24.0745 75.9255 16 65.965 16Z" fill="#FDC013"/>
<path d="M63.3826 57.5156H58.6689V61.5735H63.3826V57.5156Z" fill="white"/>
<path d="M50.3484 57.5156H45.6348V61.5735H50.3484V57.5156Z" fill="white"/>
<path d="M43.7908 51.5273H39.0771V55.7082H43.7908V51.5273Z" fill="white"/>
<path d="M43.7908 57.5156H39.0771V61.5735H43.7908V57.5156Z" fill="white"/>
<path d="M37.2737 51.5273H36.6589C34.1995 51.5273 32.1501 53.3308 31.7402 55.7082H37.2737V51.5273Z" fill="white"/>
<path d="M56.866 57.5156H52.1523V61.5735H56.866V57.5156Z" fill="white"/>
<path d="M69.5723 55.6672C69.2034 53.4948 67.4409 51.7733 65.2275 51.5273V55.6672H69.5723Z" fill="white"/>
<path d="M63.3826 51.5273H58.6689V55.7082H63.3826V51.5273Z" fill="white"/>
<path d="M56.866 51.5273H52.1523V55.7082H56.866V51.5273Z" fill="white"/>
<path d="M65.2275 61.5305C67.3999 61.2846 69.1624 59.6041 69.5723 57.4727H65.2275V61.5305Z" fill="white"/>
<path d="M50.3484 51.5273H45.6348V55.7082H50.3484V51.5273Z" fill="white"/>
<path d="M31.7402 57.5156C32.1501 59.811 34.1995 61.5735 36.6178 61.5735H37.2327V57.5156H31.6992H31.7402Z" fill="white"/>
<path d="M64.6537 49.6835H36.6586C32.8876 49.6835 29.8545 52.7167 29.8545 56.4877V56.5696C29.8545 56.0778 30.2644 55.6679 30.7562 55.6679H30.8382C31.2481 52.7987 33.7074 50.5853 36.6586 50.5853H37.3554C37.5193 50.2984 37.8063 50.0525 38.1752 50.0525C38.5441 50.0525 38.831 50.2574 38.9949 50.5853H43.9136C44.0775 50.2984 44.3644 50.0525 44.7333 50.0525C45.1022 50.0525 45.3891 50.2574 45.5531 50.5853H50.4717C50.6357 50.2984 50.9226 50.0525 51.2915 50.0525C51.6604 50.0525 51.9473 50.2574 52.1113 50.5853H57.0299C57.1938 50.2984 57.4808 50.0525 57.8497 50.0525C58.2186 50.0525 58.5055 50.2574 58.6694 50.5853H63.5881C63.752 50.2984 64.0389 50.0525 64.4078 50.0525C64.7767 50.0525 65.1046 50.2574 65.2276 50.5853C67.9738 50.8312 70.2282 52.9626 70.5561 55.6679C70.925 55.7909 71.2119 56.1188 71.2119 56.5286C71.2119 56.9385 70.925 57.3074 70.5151 57.3894C70.1052 60.0536 67.9738 62.1031 65.2686 62.39C65.2686 62.8409 64.8587 63.2098 64.3668 63.2098C63.875 63.2098 63.5061 62.8409 63.4651 62.39H58.7514C58.7104 62.8409 58.3005 63.2098 57.8497 63.2098C57.3988 63.2098 56.9889 62.8409 56.9479 62.39H52.2342C52.1932 62.8409 51.7833 63.2098 51.3325 63.2098C50.8816 63.2098 50.4717 62.8409 50.4307 62.39H45.717C45.676 62.8409 45.2662 63.2098 44.8153 63.2098C44.3644 63.2098 43.9545 62.8409 43.9136 62.39H39.1999C39.1589 62.8409 38.749 63.2098 38.2981 63.2098C37.8472 63.2098 37.4374 62.8409 37.3964 62.39H36.7815C33.8304 62.39 31.412 60.2176 30.9612 57.3894H30.8792C30.3873 57.3894 29.9775 56.9795 29.9775 56.4877C29.9775 60.2586 33.0106 63.2917 36.7815 63.2917H64.7767C68.5477 63.2917 71.5808 60.2586 71.5808 56.4877V56.4057C71.5808 52.6347 68.5477 49.6016 64.7767 49.6016L64.6537 49.6835Z" fill="#333333"/>
<path d="M56.866 61.5664H52.1523V62.3862V62.4682H56.866V62.3862V61.5664Z" fill="#333333"/>
<path d="M37.2731 61.5735H36.6583C34.24 61.5735 32.1905 59.811 31.7806 57.5156H30.8789C31.3298 60.3438 33.7481 62.5162 36.6993 62.5162H37.3141V62.4343V61.6145L37.2731 61.5735Z" fill="#333333"/>
<path d="M43.7908 61.5664H39.0771V62.3862V62.4682H43.7908V62.3862V61.5664Z" fill="#333333"/>
<path d="M50.3484 61.5664H45.6348V62.3862V62.4682H50.3484V62.3862V61.5664Z" fill="#333333"/>
<path d="M58.6698 51.5287H63.3835V50.9958C63.3835 50.8729 63.3835 50.7089 63.4655 50.5859H58.5469C58.5879 50.7089 58.6288 50.8319 58.6288 50.9958V51.5287H58.6698Z" fill="#333333"/>
<path d="M36.6583 51.5287H37.2731V50.9958C37.2731 50.8729 37.2731 50.7089 37.3551 50.5859H36.6583C33.6661 50.5859 31.2478 52.7993 30.8379 55.6685H31.7396C32.1495 53.2912 34.199 51.4877 36.6583 51.4877V51.5287Z" fill="#333333"/>
<path d="M52.1513 51.5287H56.865V50.9958C56.865 50.8729 56.865 50.7089 56.9469 50.5859H52.0283C52.0693 50.7089 52.1103 50.8319 52.1103 50.9958V51.5287H52.1513Z" fill="#333333"/>
<path d="M45.6347 51.5287H50.3484V50.9958C50.3484 50.8729 50.3484 50.7089 50.4303 50.5859H45.5117C45.5527 50.7089 45.5937 50.8319 45.5937 50.9958V51.5287H45.6347Z" fill="#333333"/>
<path d="M39.0771 51.5287H43.7908V50.9958C43.7908 50.8729 43.7907 50.7089 43.8727 50.5859H38.9541C38.9951 50.7089 39.0361 50.8319 39.0361 50.9958V51.5287H39.0771Z" fill="#333333"/>
<path d="M63.3826 61.5664H58.6689V62.3862V62.4682H63.3826V62.3862V61.5664Z" fill="#333333"/>
<path d="M65.2275 51.5287C67.4409 51.7746 69.2034 53.4961 69.5723 55.6685H70.2691C70.3511 55.6685 70.4331 55.6685 70.515 55.6685C70.1461 52.9633 67.9328 50.7909 65.1865 50.5859C65.2275 50.7089 65.2685 50.8319 65.2685 50.9548V51.4877L65.2275 51.5287Z" fill="#333333"/>
<path d="M69.5313 57.5156C69.1214 59.647 67.3999 61.2866 65.1865 61.5735V62.4343C65.1865 62.4343 65.1865 62.4752 65.1865 62.5162C67.8918 62.2703 70.0642 60.1799 70.4331 57.5156C70.3511 57.5156 70.2691 57.5156 70.2281 57.5156H69.5313Z" fill="#333333"/>
<path d="M50.3484 56.5742H45.6348V57.476H50.3484V56.5742Z" fill="#333333"/>
<path d="M43.7908 56.5742H39.0771V57.476H43.7908V56.5742Z" fill="#333333"/>
<path d="M65.2266 56.5697H69.6533V56.4877C69.6533 56.2008 69.6533 55.9549 69.5713 55.668H65.2266V56.5697Z" fill="#333333"/>
<path d="M56.866 56.5742H52.1523V57.476H56.866V56.5742Z" fill="#333333"/>
<path d="M63.3826 55.668H58.6689V56.5697H63.3826V55.668Z" fill="#333333"/>
<path d="M65.2266 57.5111H69.5713C69.6123 57.2242 69.6533 56.8963 69.6533 56.6094H65.2266V57.5111Z" fill="#333333"/>
<path d="M56.866 55.668H52.1523V56.5697H56.866V55.668Z" fill="#333333"/>
<path d="M50.3484 55.668H45.6348V56.5697H50.3484V55.668Z" fill="#333333"/>
<path d="M63.3826 56.5742H58.6689V57.476H63.3826V56.5742Z" fill="#333333"/>
<path d="M31.7402 57.5111H37.2736V56.6094H31.6582C31.6582 56.9373 31.6582 57.2242 31.7402 57.5111Z" fill="#333333"/>
<path d="M43.7908 55.668H39.0771V56.5697H43.7908V55.668Z" fill="#333333"/>
<path d="M37.2736 55.668H31.7402C31.6992 55.9549 31.6582 56.2008 31.6582 56.4877V56.5697H37.2736V55.668Z" fill="#333333"/>
<path d="M30.7562 57.5144H30.8382C30.7972 57.2275 30.7562 56.8996 30.7562 56.6127V56.5307C30.7562 56.2438 30.7562 55.9979 30.8382 55.7109H30.7562C30.2644 55.7109 29.8545 56.1208 29.8545 56.6127C29.8545 57.1046 30.2644 57.5144 30.7562 57.5144Z" fill="#333333"/>
<path d="M70.5556 56.5717C70.5556 56.8586 70.5556 57.1455 70.4736 57.4325C70.8835 57.3505 71.1704 56.9816 71.1704 56.5717C71.1704 56.1618 70.8835 55.7929 70.5146 55.7109C70.5146 55.9569 70.5556 56.2438 70.5556 56.4897V56.5717Z" fill="#333333"/>
<path d="M31.6576 56.5742H30.7559C30.7559 56.9021 30.7559 57.1891 30.8378 57.476H31.7396C31.6986 57.1891 31.6576 56.8611 31.6576 56.5742Z" fill="#333333"/>
<path d="M30.7559 56.5697H31.6576V56.4877C31.6576 56.2008 31.6576 55.9549 31.7396 55.668H30.8378C30.8378 55.9549 30.7559 56.2008 30.7559 56.4877V56.5697Z" fill="#333333"/>
<path d="M69.5723 55.668C69.6133 55.9549 69.6542 56.2008 69.6542 56.4877V56.5697C69.6542 56.8976 69.6542 57.1845 69.5723 57.4714H70.2691C70.3511 57.4714 70.433 57.4714 70.474 57.4714C70.515 57.1845 70.556 56.8976 70.556 56.6107V56.5287C70.556 56.2418 70.556 55.9959 70.515 55.7499C70.433 55.7499 70.3511 55.7499 70.2691 55.7499H69.5723V55.668Z" fill="#333333"/>
<path d="M39.0766 57.5156H38.1748V61.5735H39.0766V57.5156Z" fill="#333333"/>
<path d="M38.1742 57.5156H37.2725V61.5735H38.1742V57.5156Z" fill="#333333"/>
<path d="M38.1752 51.5273H37.2734V55.7082H38.1752V51.5273Z" fill="#333333"/>
<path d="M39.0766 51.5273H38.1748V55.7082H39.0766V51.5273Z" fill="#333333"/>
<path d="M38.1752 50.0898C37.8063 50.0898 37.5194 50.2948 37.3555 50.6227H38.995C38.8311 50.3358 38.5441 50.0898 38.1752 50.0898Z" fill="#333333"/>
<path d="M38.1742 63.2924C38.6251 63.2924 39.035 62.9235 39.076 62.4727H37.2725C37.3134 62.9235 37.7233 63.2924 38.1742 63.2924Z" fill="#333333"/>
<path d="M39.076 61.5664H38.1742H37.2725V62.3862V62.4682H39.076V62.3862V61.5664Z" fill="#333333"/>
<path d="M37.2725 51.5287H38.1742H39.076V50.9958C39.076 50.8729 39.076 50.7089 38.994 50.5859H37.3544C37.3135 50.7089 37.2725 50.8319 37.2725 50.9958V51.5287Z" fill="#333333"/>
<path d="M39.0766 55.668H38.1748V56.5697H39.0766V55.668Z" fill="#333333"/>
<path d="M38.1742 56.5742H37.2725V57.476H38.1742V56.5742Z" fill="#333333"/>
<path d="M39.0766 56.5742H38.1748V57.476H39.0766V56.5742Z" fill="#333333"/>
<path d="M38.1742 55.668H37.2725V56.5697H38.1742V55.668Z" fill="#333333"/>
<path d="M44.6927 51.5273H43.791V55.7082H44.6927V51.5273Z" fill="#333333"/>
<path d="M45.5941 51.5273H44.6924V55.7082H45.5941V51.5273Z" fill="#333333"/>
<path d="M44.6918 57.5156H43.79V61.5735H44.6918V57.5156Z" fill="#333333"/>
<path d="M45.5941 57.5156H44.6924V61.5735H45.5941V57.5156Z" fill="#333333"/>
<path d="M44.6918 63.2924C45.1426 63.2924 45.5525 62.9235 45.5935 62.4727H43.79C43.831 62.9235 44.2409 63.2924 44.6918 63.2924Z" fill="#333333"/>
<path d="M44.6918 50.0898C44.3229 50.0898 44.036 50.2948 43.8721 50.6227H45.5116C45.3477 50.3358 45.0607 50.0898 44.6918 50.0898Z" fill="#333333"/>
<path d="M45.6355 61.5664H44.7338H43.832V62.3862V62.4682H45.6355V62.3862V61.5664Z" fill="#333333"/>
<path d="M43.79 51.5287H44.6918H45.5935V50.9958C45.5935 50.8729 45.5935 50.7089 45.5115 50.5859H43.872C43.831 50.7089 43.79 50.8319 43.79 50.9958V51.5287Z" fill="#333333"/>
<path d="M44.6918 55.668H43.79V56.5697H44.6918V55.668Z" fill="#333333"/>
<path d="M45.5941 56.5742H44.6924V57.476H45.5941V56.5742Z" fill="#333333"/>
<path d="M44.6918 56.5742H43.79V57.476H44.6918V56.5742Z" fill="#333333"/>
<path d="M45.5941 55.668H44.6924V56.5697H45.5941V55.668Z" fill="#333333"/>
<path d="M51.2504 51.5273H50.3486V55.7082H51.2504V51.5273Z" fill="#333333"/>
<path d="M51.2504 57.5156H50.3486V61.5735H51.2504V57.5156Z" fill="#333333"/>
<path d="M52.1527 57.5156H51.251V61.5735H52.1527V57.5156Z" fill="#333333"/>
<path d="M52.1527 51.5273H51.251V55.7082H52.1527V51.5273Z" fill="#333333"/>
<path d="M51.2504 63.2924C51.7012 63.2924 52.1111 62.9235 52.1521 62.4727H50.3486C50.3896 62.9235 50.7995 63.2924 51.2504 63.2924Z" fill="#333333"/>
<path d="M51.2504 50.0898C50.8815 50.0898 50.5946 50.2948 50.4307 50.6227H52.0702C51.9063 50.3358 51.6193 50.0898 51.2504 50.0898Z" fill="#333333"/>
<path d="M50.3486 51.5287H51.2504H52.1521V50.9958C52.1521 50.8729 52.1521 50.7089 52.0701 50.5859H50.4306C50.3896 50.7089 50.3486 50.8319 50.3486 50.9958V51.5287Z" fill="#333333"/>
<path d="M52.1521 61.5664H51.2504H50.3486V62.3862V62.4682H52.1521V62.3862V61.5664Z" fill="#333333"/>
<path d="M51.2504 55.668H50.3486V56.5697H51.2504V55.668Z" fill="#333333"/>
<path d="M52.1527 55.668H51.251V56.5697H52.1527V55.668Z" fill="#333333"/>
<path d="M51.2504 56.5742H50.3486V57.476H51.2504V56.5742Z" fill="#333333"/>
<path d="M52.1527 56.5742H51.251V57.476H52.1527V56.5742Z" fill="#333333"/>
<path d="M57.767 57.5156H56.8652V61.5735H57.767V57.5156Z" fill="#333333"/>
<path d="M58.6693 51.5273H57.7676V55.7082H58.6693V51.5273Z" fill="#333333"/>
<path d="M57.767 51.5273H56.8652V55.7082H57.767V51.5273Z" fill="#333333"/>
<path d="M58.6693 57.5156H57.7676V61.5735H58.6693V57.5156Z" fill="#333333"/>
<path d="M57.767 63.2924C58.2179 63.2924 58.6278 62.9235 58.6687 62.4727H56.8652C56.9062 62.9235 57.3161 63.2924 57.767 63.2924Z" fill="#333333"/>
<path d="M57.768 50.0898C57.3991 50.0898 57.1122 50.2948 56.9482 50.6227H58.5878C58.4238 50.3358 58.1369 50.0898 57.768 50.0898Z" fill="#333333"/>
<path d="M56.8652 51.5287H57.767H58.6687V50.9958C58.6687 50.8729 58.6687 50.7089 58.5868 50.5859H56.9472C56.9062 50.7089 56.8652 50.8319 56.8652 50.9958V51.5287Z" fill="#333333"/>
<path d="M58.6687 61.5664H57.767H56.8652V62.3862V62.4682H58.6687V62.3862V61.5664Z" fill="#333333"/>
<path d="M58.6693 56.5742H57.7676V57.476H58.6693V56.5742Z" fill="#333333"/>
<path d="M57.767 55.668H56.8652V56.5697H57.767V55.668Z" fill="#333333"/>
<path d="M58.6693 55.668H57.7676V56.5697H58.6693V55.668Z" fill="#333333"/>
<path d="M57.767 56.5742H56.8652V57.476H57.767V56.5742Z" fill="#333333"/>
<path d="M65.2279 55.6672V51.5273C65.023 51.5273 64.859 51.5273 64.6541 51.5273H64.3262V55.7082H65.2279V55.6672Z" fill="#333333"/>
<path d="M64.2846 57.5156H63.3828V61.5735H64.2846V57.5156Z" fill="#333333"/>
<path d="M64.2846 51.5273H63.3828V55.7082H64.2846V51.5273Z" fill="#333333"/>
<path d="M64.3262 57.5156V61.5735H64.6541C64.859 61.5735 65.023 61.5735 65.2279 61.5735V57.5156H64.3262Z" fill="#333333"/>
<path d="M65.1454 50.6227C65.0224 50.2948 64.6945 50.0898 64.3256 50.0898C63.9567 50.0898 63.6698 50.2948 63.5059 50.6227H64.6535C64.8175 50.6227 64.9814 50.6227 65.1454 50.6227Z" fill="#333333"/>
<path d="M63.4238 62.4727C63.4648 62.9235 63.8747 63.2924 64.3256 63.2924C64.7765 63.2924 65.1863 62.9235 65.2273 62.4727C65.0224 62.4727 64.8584 62.4727 64.6535 62.4727H63.4238Z" fill="#333333"/>
<path d="M63.3828 51.5346H64.2846H64.6125C64.8174 51.5346 64.9814 51.5346 65.1863 51.5346V51.0017C65.1863 50.8788 65.1863 50.7558 65.1043 50.6328C64.9404 50.6328 64.7764 50.6328 64.6125 50.6328H63.4648C63.4238 50.7558 63.3828 50.8787 63.3828 51.0427V51.5756V51.5346Z" fill="#333333"/>
<path d="M65.2273 61.5293C65.0224 61.5293 64.8584 61.5293 64.6535 61.5293H64.3256H63.4238V62.3491V62.431H64.6535C64.8584 62.431 65.0224 62.431 65.2273 62.431C65.2273 62.431 65.2273 62.39 65.2273 62.3491V61.4883V61.5293Z" fill="#333333"/>
<path d="M64.2846 56.5742H63.3828V57.476H64.2846V56.5742Z" fill="#333333"/>
<path d="M65.2279 56.5742H64.3262V57.476H65.2279V56.5742Z" fill="#333333"/>
<path d="M64.2846 55.668H63.3828V56.5697H64.2846V55.668Z" fill="#333333"/>
<path d="M65.2279 55.668H64.3262V56.5697H65.2279V55.668Z" fill="#333333"/>
<path d="M26.9447 42.8801C26.9447 42.8391 26.9447 42.7571 26.9037 42.7161C26.2479 39.0681 33.2159 38.1254 35.4703 38.8222C36.618 39.1911 37.7657 39.8059 38.7084 40.5847C39.0773 40.8716 41.3317 43.7408 39.6921 43.7818C39.4462 43.7818 39.2412 43.6588 39.0363 43.4949C37.5197 42.4292 36.7409 40.8716 34.8555 40.4208C32.765 39.9289 30.5107 40.5847 29.0761 42.1833C28.6252 42.6751 27.4775 44.1097 26.9857 42.8801H26.9447Z" fill="#333333"/>
<path d="M73.0569 42.8801C73.0569 42.8391 73.0569 42.7571 73.0979 42.7161C73.7537 39.0681 66.7857 38.1254 64.5313 38.8222C63.3836 39.1911 62.2359 39.8059 61.2932 40.5847C60.9243 40.8716 58.67 43.7408 60.3095 43.7818C60.5554 43.7818 60.7604 43.6588 60.9653 43.4949C62.4819 42.4292 63.2607 40.8716 65.1461 40.4208C67.2366 39.9289 69.4909 40.5847 70.9255 42.1833C71.3764 42.6751 72.5241 44.1097 73.0159 42.8801H73.0569Z" fill="#333333"/>
</svg>
