<svg width="100" height="100" viewBox="0 0 100 100" fill="none" xmlns="http://www.w3.org/2000/svg">
<rect x="0.5" y="0.5" width="99" height="99" rx="7.5" fill="#F8D45A" fill-opacity="0.1" stroke="#F8D45A"/>
<path d="M66.17 16H33.83C23.9828 16 16 23.9828 16 33.83V66.17C16 76.0172 23.9828 84 33.83 84H66.17C76.0172 84 84 76.0172 84 66.17V33.83C84 23.9828 76.0172 16 66.17 16Z" fill="#F8D45A"/>
<path d="M35.2647 47.888C36.8945 47.888 38.2158 45.6675 38.2158 42.9284C38.2158 40.1892 36.8945 37.9688 35.2647 37.9688C33.6348 37.9688 32.3135 40.1892 32.3135 42.9284C32.3135 45.6675 33.6348 47.888 35.2647 47.888Z" fill="#333333"/>
<path d="M64.7354 47.888C66.3652 47.888 67.6865 45.6675 67.6865 42.9284C67.6865 40.1892 66.3652 37.9688 64.7354 37.9688C63.1055 37.9688 61.7842 40.1892 61.7842 42.9284C61.7842 45.6675 63.1055 47.888 64.7354 47.888Z" fill="#333333"/>
<path d="M60.1039 54.1992C62.7682 54.1992 64.4897 57.0274 63.301 59.4048C61.0467 63.9135 56.0051 67.0696 50.1027 67.0696C44.2004 67.0696 39.1588 63.9135 36.9044 59.4048C35.7157 57.0274 37.4373 54.1992 40.1015 54.1992H60.0629H60.1039Z" fill="#333333"/>
</svg>
