<svg width="100" height="100" viewBox="0 0 100 100" fill="none" xmlns="http://www.w3.org/2000/svg">
<rect x="0.5" y="0.5" width="99" height="99" rx="7.5" fill="#FDC013" fill-opacity="0.1" stroke="#FDC013"/>
<path d="M66.17 16H33.83C23.9828 16 16 23.9828 16 33.83V66.17C16 76.0172 23.9828 84 33.83 84H66.17C76.0172 84 84 76.0172 84 66.17V33.83C84 23.9828 76.0172 16 66.17 16Z" fill="#FDC013"/>
<path d="M26.4525 43.0051C26.4525 42.9641 26.4525 42.8821 26.4115 42.8411C25.7557 39.1931 32.7237 38.2504 34.9781 38.9472C36.1258 39.3161 37.2735 39.9309 38.2162 40.7097C38.5851 40.9966 40.8395 43.8658 39.1999 43.9068C38.954 43.9068 38.7491 43.7838 38.5441 43.6199C37.0275 42.5542 36.2488 40.9966 34.3633 40.5457C32.2729 40.0539 30.0185 40.7097 28.5839 42.3083C28.133 42.8001 26.9854 44.2347 26.4935 43.0051H26.4525Z" fill="#333333"/>
<path d="M72.5647 43.0051C72.5647 42.9641 72.5647 42.8821 72.6057 42.8411C73.2615 39.1931 66.2935 38.2504 64.0391 38.9472C62.8915 39.3161 61.7438 39.9309 60.801 40.7097C60.4321 40.9966 58.1778 43.8658 59.8173 43.9068C60.0632 43.9068 60.2682 43.7838 60.4731 43.6199C61.9897 42.5542 62.7685 40.9966 64.654 40.5457C66.7444 40.0539 68.9987 40.7097 70.4333 42.3083C70.8842 42.8001 72.0319 44.2347 72.5238 43.0051H72.5647Z" fill="#333333"/>
<path d="M36.2893 55.75C44.692 58.6602 54.4472 58.4553 62.8499 55.5861C65.883 54.5204 68.7932 53.0448 71.3345 51.0773C72.1133 50.4625 73.5889 49.1919 74.5316 50.3805C75.0645 51.0773 74.6136 52.225 74.2447 52.8808C73.3429 54.4794 71.7854 55.5861 70.3508 56.6518C68.4653 58.0454 66.3749 59.1521 64.2025 60.0538C60.5135 61.5704 56.5377 62.3492 52.5618 62.6361C51.0452 62.7181 49.5696 62.7591 48.053 62.7181C48.012 62.7181 47.971 62.7181 47.9301 62.7181C45.7987 62.6361 43.6672 62.4312 41.5768 62.0623C37.56 61.3655 33.666 59.9719 30.1 58.0044C29.7311 57.7995 29.3213 57.5535 28.9524 57.3486C27.6817 56.5698 26.4521 55.791 25.7143 54.4384C25.4683 53.9465 25.3044 53.3727 25.4683 52.8399C25.7553 51.9381 26.698 51.6102 27.5588 51.7742C28.9114 52.0611 30.0181 52.8399 31.1657 53.4957C32.3954 54.1925 33.707 54.8073 35.0187 55.3402C35.4285 55.5041 35.8794 55.6681 36.2893 55.791V55.75Z" fill="#333333"/>
</svg>
