<svg width="100" height="100" viewBox="0 0 100 100" fill="none" xmlns="http://www.w3.org/2000/svg">
<rect x="0.5" y="0.5" width="99" height="99" rx="7.5" fill="#FDC013" fill-opacity="0.1" stroke="#FDC013"/>
<path d="M66.17 16H33.83C23.9828 16 16 23.9828 16 33.83V66.17C16 76.0172 23.9828 84 33.83 84H66.17C76.0172 84 84 76.0172 84 66.17V33.83C84 23.9828 76.0172 16 66.17 16Z" fill="#FDC013"/>
<path d="M65.5967 38.3359H58.3007C55.2676 38.3359 52.7673 40.7543 52.6853 43.7874H47.1928C47.1109 40.7543 44.6106 38.3359 41.5774 38.3359H34.2815C31.1663 38.3359 28.666 40.8362 28.666 43.9514V47.9682C28.666 51.0834 31.1663 53.5837 34.2815 53.5837H41.5774C44.6925 53.5837 47.1928 51.0834 47.1928 47.9682V46.4927H52.6443V47.9682C52.6443 51.0834 55.1446 53.5837 58.2597 53.5837H65.5557C68.6708 53.5837 71.1711 51.0834 71.1711 47.9682V43.9514C71.1711 40.8362 68.6708 38.3359 65.5557 38.3359H65.5967Z" fill="#333333"/>
<path d="M30.058 39.8887L29.4022 39.6838C28.9103 39.5198 28.4184 39.7657 28.2135 40.2166L27.5577 41.7742C27.3527 42.266 27.5577 42.8399 28.0905 43.0448L28.7873 43.2908C29.2792 43.4957 29.812 43.2498 30.017 42.7579L30.6728 41.1594C30.8777 40.6265 30.5908 40.0527 30.058 39.8887Z" fill="#333333"/>
<path d="M70.1051 39.8887L70.761 39.6838C71.2528 39.5198 71.7447 39.7657 71.9496 40.2166L72.6054 41.7742C72.8104 42.266 72.6054 42.8399 72.0726 43.0448L71.3758 43.2908C70.8839 43.4957 70.3511 43.2498 70.1461 42.7579L69.4903 41.1594C69.2853 40.6265 69.5723 40.0527 70.1051 39.8887Z" fill="#333333"/>
<path d="M28.2146 40.2187L16 34.1523V36.8986L27.5588 41.7762L28.2146 40.2187Z" fill="#333333"/>
<path d="M71.6621 40.2206L83.9587 34.1953V36.9415L72.3179 41.7782L71.6621 40.2206Z" fill="#333333"/>
<path d="M42.8885 63.7012C43.9542 63.7012 44.9789 63.7831 46.0036 63.7831C49.6516 63.8241 53.3406 63.7832 56.9476 63.2093C58.915 62.8814 61.2514 62.5945 62.9729 61.5698C64.0796 60.914 65.0223 60.0532 66.047 59.3154C66.6209 58.9055 67.8915 57.8398 68.6703 58.3727C68.9162 58.5366 68.9162 58.9055 68.8343 59.1924C68.3424 61.7747 66.6209 63.9881 64.7354 65.7916C63.0549 67.4311 61.1284 68.7837 58.833 69.4806C56.1688 70.3003 53.2586 70.5872 50.4714 70.6282C47.4382 70.6282 44.0772 70.6282 41.3309 69.1936C40.6751 68.8657 40.0603 68.4149 39.4864 67.882C38.9946 67.4311 38.6257 66.7753 38.4617 66.1195C38.3388 65.5457 38.3798 64.8898 38.7487 64.439C39.1585 63.9471 39.8144 63.7422 40.4292 63.7012C41.208 63.6602 41.9867 63.6192 42.7655 63.6602L42.8885 63.7012Z" fill="#333333"/>
</svg>
