<svg width="100" height="100" viewBox="0 0 100 100" fill="none" xmlns="http://www.w3.org/2000/svg">
<rect x="0.5" y="0.5" width="99" height="99" rx="7.5" fill="#F47D20" fill-opacity="0.1" stroke="#F47D20"/>
<path d="M65.965 16H34.035C24.0745 16 16 24.0745 16 34.035V65.965C16 75.9255 24.0745 84 34.035 84H65.965C75.9255 84 84 75.9255 84 65.965V34.035C84 24.0745 75.9255 16 65.965 16Z" fill="#F47D20"/>
<path d="M39.4867 47.929C39.6507 47.929 39.8966 47.888 39.9786 48.011C40.0196 48.093 40.0605 48.1749 40.0605 48.2569C40.0605 48.9127 39.6916 49.4866 39.1588 49.8555C38.2161 50.5523 36.9864 50.6342 35.8387 50.6752C34.5271 50.7162 33.1745 50.6752 32.0678 49.9784C31.6169 49.6915 31.207 49.2816 31.166 48.7488C31.0841 48.052 31.6579 47.5191 32.3137 47.7241C32.9285 47.888 33.4204 48.2979 34.0762 48.4619C35.9207 48.8717 37.7242 48.2979 39.4867 47.929Z" fill="#333333"/>
<path d="M60.4733 47.929C60.3093 47.929 60.0634 47.888 59.9814 48.011C59.9404 48.093 59.8994 48.1749 59.8994 48.2569C59.8994 48.9127 60.2683 49.4866 60.8012 49.8555C61.7439 50.5523 62.9736 50.6342 64.1212 50.6752C65.4329 50.7162 66.7855 50.6752 67.8922 49.9784C68.3431 49.6915 68.7529 49.2816 68.7939 48.7488C68.8759 48.052 68.3021 47.5191 67.6462 47.7241C67.0314 47.888 66.5396 48.2979 65.8837 48.4619C64.0393 48.8717 62.2358 48.2979 60.4733 47.929Z" fill="#333333"/>
<path d="M50.472 54.6106C52.0295 54.6106 53.5871 55.1434 54.8168 56.2501C56.7842 57.9306 57.686 60.9638 57.645 63.4641C57.645 65.8824 56.8662 68.3827 54.9397 69.9403C51.8656 72.5225 47.4798 71.8667 44.7336 69.0795C39.692 63.9969 42.9711 54.4876 50.472 54.6106Z" fill="#333333"/>
<path d="M65.3502 37.6439C65.9651 36.9471 66.6619 36.2913 67.4816 35.8404C67.8096 35.6765 68.1785 35.5535 68.5064 35.6355C68.8753 35.7174 68.9162 36.0454 68.9572 36.3733C69.0802 37.1111 69.1622 37.8489 69.2442 38.5866C69.2852 38.9146 69.3671 39.2835 69.4081 39.6114C69.4901 40.1442 69.5721 41.2509 70.4328 40.964C70.5968 40.923 70.7607 40.8 70.9247 40.6361C71.1706 40.3901 71.4165 40.1032 71.7445 39.9393C72.4003 39.6933 72.8512 40.3492 72.5232 40.923C72.4003 41.1689 72.1953 41.3739 71.9904 41.5788C71.5805 41.9887 71.2116 42.3576 70.8017 42.7265C70.4738 43.0544 70.1459 43.4643 69.695 43.6692C69.2851 43.8332 68.9162 43.6692 68.7113 43.3003C68.5473 43.0134 68.5064 42.7265 68.4654 42.3986C68.4244 42.0297 68.3424 41.6198 68.3014 41.2509C68.1785 40.3901 68.0555 39.5294 67.9325 38.6686C67.9325 38.4227 67.9325 38.0538 67.7276 37.8489C67.5636 37.6439 67.2357 37.6029 66.9898 37.6849C66.7439 37.7669 66.5389 37.9718 66.4159 38.1768C66.088 38.7096 65.9241 39.4064 65.3912 39.7343C65.0633 39.9393 64.6124 39.8983 64.4075 39.5294C64.1206 39.0785 64.4895 38.5457 64.7764 38.1768C64.9404 37.9718 65.1043 37.7669 65.2683 37.5619L65.3502 37.6439Z" fill="#333333"/>
<path d="M70.72 33.627C71.2119 33.0532 71.8267 32.5203 72.4826 32.1514C72.7285 32.0285 73.0564 31.9055 73.3433 31.9875C73.6302 32.0695 73.6712 32.3564 73.7122 32.6023C73.7942 33.2171 73.8762 33.832 73.9582 34.4468C73.9582 34.7337 74.0401 35.0206 74.0811 35.3076C74.1631 35.7584 74.2041 36.6602 74.9009 36.4142C75.0648 36.3733 75.1878 36.2503 75.2698 36.1683C75.4747 35.9634 75.6797 35.7174 75.9666 35.5945C76.4994 35.3895 76.8683 35.9634 76.6224 36.4142C76.4994 36.6192 76.3355 36.7831 76.1715 36.9471C75.8436 37.275 75.5157 37.6029 75.1878 37.8898C74.9009 38.1768 74.655 38.5047 74.2861 38.6686C73.9581 38.8326 73.6302 38.6686 73.4663 38.3407C73.3433 38.1358 73.3023 37.8488 73.2613 37.6029C73.2204 37.275 73.1794 36.9881 73.1384 36.6602C73.0564 35.9634 72.9334 35.2256 72.8515 34.5288C72.8515 34.3238 72.8515 33.9959 72.6875 33.832C72.5236 33.668 72.2776 33.627 72.0727 33.709C71.8677 33.791 71.7038 33.9549 71.6218 34.1189C71.3349 34.5698 71.2529 35.1436 70.761 35.3895C70.4741 35.5535 70.1462 35.5125 69.9413 35.2256C69.6953 34.8567 70.0233 34.4058 70.2282 34.1189C70.3512 33.9549 70.5151 33.791 70.6381 33.627H70.72Z" fill="#333333"/>
<path d="M75.8021 29.7723C76.212 29.2805 76.7038 28.8296 77.2777 28.5427C77.4826 28.4197 77.7695 28.3377 78.0155 28.4197C78.2614 28.4607 78.3024 28.7066 78.3434 28.9116C78.4254 29.4444 78.4663 29.9363 78.5483 30.4691C78.5483 30.7151 78.6303 30.961 78.6713 31.1659C78.7533 31.5348 78.7943 32.3136 79.3681 32.1087C79.4911 32.0677 79.614 31.9857 79.696 31.9037C79.86 31.7398 80.0239 31.5348 80.2698 31.4529C80.7207 31.2889 81.0076 31.7398 80.8027 32.1497C80.7207 32.3136 80.5568 32.4776 80.4338 32.6005C80.1469 32.8875 79.9009 33.1334 79.614 33.4203C79.3681 33.6662 79.1632 33.9122 78.8352 34.0761C78.5483 34.1991 78.3024 34.0761 78.1384 33.8302C78.0565 33.6253 78.0155 33.4203 77.9745 33.2154C77.9745 32.9285 77.8925 32.6825 77.8515 32.3956C77.7695 31.7808 77.6876 31.2069 77.6056 30.5921C77.6056 30.4282 77.6056 30.1412 77.4416 30.0183C77.3187 29.8953 77.1137 29.8543 76.9498 29.8953C76.7858 29.9363 76.6628 30.1002 76.5399 30.2232C76.294 30.5921 76.212 31.084 75.8021 31.3299C75.5562 31.4529 75.2692 31.4119 75.1053 31.2069C74.9003 30.879 75.1873 30.5101 75.3512 30.2642C75.4742 30.1002 75.5562 29.9773 75.6791 29.8543L75.8021 29.7723Z" fill="#333333"/>
</svg>
