<svg width="24" height="24" viewBox="0 0 24 24" fill="none" xmlns="http://www.w3.org/2000/svg">
<path d="M17.0628 9.09375C15.9774 9.09375 15.0942 9.97688 15.0942 11.0624C15.0942 12.5031 16.5973 13.4532 17.8944 12.8461L17.5485 12.5002C17.2739 12.2257 17.2739 11.7805 17.5485 11.5059C17.8231 11.2313 18.2683 11.2313 18.5429 11.5059L18.8728 11.8358C19.4279 10.5422 18.4729 9.09375 17.0628 9.09375Z" fill="#FF8A00"/>
<path d="M21.8906 3.30469H2.10938C0.946266 3.30469 0 4.25095 0 5.41406V16.7112C0 17.8744 0.946266 18.8206 2.10938 18.8206H10.2422L11.4375 20.4143C11.7188 20.7894 12.2818 20.7886 12.5625 20.4143L13.7578 18.8206H21.8906C23.0537 18.8206 24 17.8744 24 16.7112V5.41406C24 4.25095 23.0537 3.30469 21.8906 3.30469ZM6.22439 10.3288C6.6127 10.3288 6.92752 10.6436 6.92752 11.0319C6.92752 11.4202 6.6127 11.7351 6.22439 11.7351H4.94841V13.7343C4.94841 14.1226 4.63355 14.4374 4.24528 14.4374C3.85697 14.4374 3.54216 14.1226 3.54216 13.7343V8.43C3.54216 8.04169 3.85697 7.72688 4.24528 7.72688H6.39511C6.78342 7.72688 7.09823 8.04169 7.09823 8.43C7.09823 8.81831 6.78342 9.13313 6.39511 9.13313H4.94841V10.3288H6.22439ZM12.5531 14.3921C12.1897 14.5293 11.7841 14.3458 11.647 13.9825L11.3235 13.1253H9.07045L8.74317 13.9846C8.6047 14.3481 8.19797 14.5294 7.83586 14.3914C7.473 14.2532 7.29084 13.847 7.42903 13.484L9.43547 8.21583C9.55008 7.91081 9.84966 7.68806 10.2039 7.68769C10.5385 7.68736 10.8388 7.88667 10.9669 8.19839C10.9737 8.21494 10.8846 7.97934 12.9627 13.486C13.0998 13.8493 12.9164 14.2551 12.5531 14.3921ZM20.2521 14.2099C19.9775 14.4845 19.5323 14.4845 19.2577 14.2099L18.9238 13.8759C18.3898 14.2303 17.75 14.4374 17.0625 14.4374C15.2016 14.4374 13.6877 12.9235 13.6877 11.0626C13.6877 9.2017 15.2016 7.68773 17.0625 7.68773C18.9234 7.68773 20.4374 9.2017 20.4374 11.0626C20.4374 11.7282 20.2429 12.3489 19.9089 12.8723L20.2521 13.2155C20.5267 13.4901 20.5267 13.9353 20.2521 14.2099Z" fill="#FF8A00"/>
<path d="M9.60596 11.7195H10.7927L10.2021 10.1543L9.60596 11.7195Z" fill="#FF8A00"/>
</svg>
