<svg width="213" height="200" viewBox="0 0 213 200" fill="none" xmlns="http://www.w3.org/2000/svg">
<path d="M195.591 126.928C202.049 128.181 206.314 125.844 207.64 124.518L208.242 124.037L207.76 125.241L204.628 135.363L203.543 135.001C199.446 134.037 189.687 136.206 183.18 139.098C176.674 141.99 173.541 142.351 164.505 143.315C157.275 144.086 150.809 151.509 148.48 155.124C144.528 153.485 133.9 160.465 129.081 164.161C120.285 163.076 116.309 166.932 111.851 173.8C107.393 180.668 100.163 180.547 95.3438 182.234C90.5243 183.921 79.0778 176.451 72.6919 173.8C71.3424 168.98 63.6953 168.82 60.0405 169.342C54.8595 167.775 47.3891 171.029 42.8105 171.511C38.232 171.993 29.1953 163.92 31.9665 159.823C34.1835 156.545 26.3839 149.942 22.2069 147.051C21.2832 145.042 18.2308 141.46 13.4112 143.195C8.59163 144.93 5.53923 143.355 4.61548 142.351L3.16962 135.001L1.48277 123.916L1.84424 124.157C2.24586 124.478 3.4106 125.579 4.85646 127.41C6.6638 129.7 14.6161 130.664 18.8332 131.146C23.0503 131.628 32.81 148.135 36.3041 152.593C39.7983 157.051 55.5824 156.328 60.0405 156.569C63.607 156.762 73.4148 161.229 77.8729 163.438C81.2868 165.687 89.3194 169.534 94.1389 166.932C100.163 163.679 106.911 165.847 110.405 164.642C113.899 163.438 120.044 156.088 120.888 155.124C121.731 154.16 131.491 150.665 135.226 149.219C138.961 147.774 144.262 139.219 147.757 137.05C151.251 134.881 162.215 137.17 164.505 135.001C166.336 133.266 173.863 129.7 177.397 128.133C180.771 127.209 189.133 125.675 195.591 126.928Z" fill="#B4543E" stroke="#B4543E"/>
<path d="M195.563 101.201C204.056 101.78 209.477 104.338 211.125 105.544C211.898 106.03 212.332 107.436 212.452 108.078C212.549 113.386 209.919 120.424 208.592 123.279C207.064 127.341 203.815 136.646 203.043 141.376C202.077 147.287 195.563 147.408 194.115 147.529C191.799 147.046 187.842 149.941 187.6 151.148C187.359 152.354 184.021 155.411 182.654 156.336C180.338 158.942 173.566 160.156 170.469 160.438C169.022 160.341 166.73 160.88 165.764 161.161C163.159 161.451 153.017 166.832 148.272 169.486C144.122 172.574 135.283 174.312 131.382 174.794C129.741 178.365 125.068 182.636 122.937 184.325C120.235 187.027 114.653 188.588 112.2 189.03C109.401 188.741 104.037 192.127 101.704 193.856C100.417 195.263 96.6855 198.368 92.0529 199.526C87.4203 200.684 83.3668 199.446 81.9191 198.682C81.2435 198.006 78.4205 196.792 77.0935 196.269C75.4045 194.459 65.15 193.494 63.823 193.615C62.7613 193.711 59.3593 191.885 57.7909 190.96C58.3941 190.719 53.2066 186.979 52.2415 186.014C49.5391 184.856 45.2443 180.062 43.4347 177.81C41.6975 177.617 37.8048 175.96 36.0756 175.156C33.5019 173.708 28.0892 169.655 27.0275 165.022C25.7005 159.231 24.0115 159.472 19.4272 159.593C15.7597 159.69 12.8321 157.381 11.8268 156.215C10.4997 154.204 7.70087 149.845 7.1218 148.494C5.48108 146.756 4.10576 140.853 3.6232 138.118C3.26128 135.585 2.46506 129.963 2.17551 127.743C0.124619 116.644 1.33104 110.973 1.57233 110.008C0.365921 105.786 29.8023 102.046 30.888 101.804C34.652 101.611 55.0564 98.2656 64.7881 96.6167C71.1821 95.4907 84.5973 93.1422 87.1067 92.7561C90.0021 91.9116 100.618 91.6704 104.962 91.1878C109.425 90.2226 131.141 93.1181 135.242 93.6007C138.331 94.1797 155.751 96.4157 164.076 97.4613C172.319 98.4264 190.158 100.526 195.563 101.201Z" fill="#B5553D"/>
<path fill-rule="evenodd" clip-rule="evenodd" d="M212.356 108.217L212.574 108.176C212.512 107.847 212.371 107.326 212.147 106.824C211.925 106.327 211.612 105.828 211.196 105.565C209.521 104.342 204.08 101.782 195.578 101.202C190.168 100.526 172.335 98.4271 164.093 97.4622C155.766 96.4162 138.351 94.1809 135.268 93.6027L135.264 93.602L135.26 93.6015C134.782 93.5453 134.065 93.4563 133.164 93.3445C130.198 92.9765 125.238 92.3609 120.253 91.852C117.003 91.5201 113.739 91.2334 111.009 91.0899C108.289 90.9471 106.082 90.9452 104.945 91.1892C103.358 91.3653 100.933 91.5092 98.3507 91.6625C97.406 91.7186 96.4402 91.7759 95.4867 91.8365C93.7069 91.9496 91.9709 92.0741 90.4982 92.2233C89.0336 92.3716 87.8203 92.5452 87.0837 92.7588C84.5529 93.1487 71.157 95.4939 64.7706 96.6186C59.905 97.4429 52.3718 98.6914 45.5847 99.758C38.7928 100.825 32.759 101.709 30.885 101.805L30.8749 101.805L30.8651 101.807C30.7396 101.835 30.2036 101.914 29.3481 102.04L29.2528 102.054C28.3463 102.188 27.1116 102.37 25.6644 102.596C22.77 103.046 19.0244 103.669 15.3498 104.416C11.6766 105.163 8.06895 106.035 5.45322 106.986C4.14668 107.461 3.07857 107.96 2.37296 108.477C2.19278 108.609 2.03316 108.744 1.8985 108.884L1.72726 108.718C1.44069 109.014 1.30051 109.422 1.41902 109.91C1.42198 109.993 1.43526 110.077 1.4595 110.162L1.49689 110.151C1.49924 110.157 1.50165 110.163 1.50407 110.169C1.74741 110.761 2.35722 111.448 3.49022 112.205C5.75844 113.72 10.1789 115.554 18.1929 117.485C26.1961 119.413 30.1425 121.858 31.8387 124.106C32.6845 125.227 32.9704 126.298 32.9247 127.236C32.879 128.175 32.5002 128.991 32.0016 129.597L31.9999 129.599L31.9983 129.601C30.8275 131.162 30.5684 132.402 30.7458 133.327C30.9229 134.251 31.5302 134.834 32.0408 135.09C43.1172 140.604 61.891 142.976 80.8381 143.707C99.7918 144.438 118.943 143.527 130.79 142.461L130.794 142.461L130.799 142.46C132.373 142.198 134.195 141.757 135.896 141.132C137.595 140.508 139.183 139.695 140.283 138.684C141.385 137.67 142.007 136.444 141.735 135.005C141.465 133.577 140.319 131.972 137.97 130.181C136.51 129.067 135.857 128.132 135.805 127.356C135.754 126.595 136.281 125.926 137.359 125.336C138.433 124.748 140.015 124.261 141.984 123.857C143.951 123.452 146.296 123.131 148.887 122.871C155.509 122.207 163.724 121.943 171.36 121.697C175.685 121.558 179.825 121.425 183.385 121.228C199.154 120.357 209.311 112.24 212.427 108.273L212.356 108.217ZM164.064 97.7016C155.746 96.6569 138.332 94.4218 135.227 93.8407C134.748 93.7843 134.031 93.6953 133.131 93.5836C130.165 93.2155 125.211 92.6006 120.229 92.092C116.98 91.7603 113.721 91.474 110.996 91.3309C108.265 91.1875 106.088 91.1891 104.99 91.4264L104.984 91.4277L104.978 91.4283C103.384 91.6055 100.946 91.7502 98.3577 91.9038C97.4146 91.9598 96.4515 92.0169 95.502 92.0773C93.7229 92.1904 91.9905 92.3147 90.5226 92.4634C89.0517 92.6123 87.8555 92.785 87.1436 92.9926L87.136 92.9948L87.1282 92.996C84.6205 93.3818 71.2072 95.73 64.8122 96.8562L64.8114 96.8564C59.9453 97.6808 52.4108 98.9296 45.6221 99.9964C38.8494 101.061 32.8082 101.946 30.9072 102.045C30.7574 102.077 30.2272 102.155 29.4195 102.274L29.2879 102.293C28.3815 102.427 27.1477 102.609 25.7015 102.834C22.8089 103.285 19.0673 103.906 15.3978 104.652C11.727 105.399 8.1339 106.268 5.53569 107.213C4.23524 107.686 3.19308 108.175 2.51558 108.671C1.9389 109.094 1.65865 109.497 1.66048 109.881C1.67735 109.944 1.69946 110.01 1.72725 110.077C1.94386 110.605 2.50728 111.258 3.62424 112.004C5.85591 113.495 10.2422 115.321 18.2494 117.25C26.2672 119.182 30.2831 121.644 32.0313 123.96C32.9076 125.122 33.2144 126.247 33.1657 127.247C33.1172 128.245 32.7158 129.107 32.1897 129.748C31.0456 131.274 30.8224 132.446 30.9828 133.282C31.1435 134.12 31.6943 134.646 32.1488 134.874C43.1738 140.362 61.8993 142.735 80.8474 143.466C99.7866 144.197 118.925 143.286 130.764 142.221C132.325 141.961 134.13 141.524 135.813 140.906C137.499 140.286 139.053 139.487 140.119 138.506C141.183 137.527 141.749 136.38 141.498 135.05C141.244 133.71 140.156 132.152 137.824 130.372C136.358 129.254 135.624 128.262 135.564 127.372C135.504 126.465 136.142 125.727 137.243 125.124C138.349 124.519 139.959 124.026 141.936 123.62C143.914 123.214 146.267 122.892 148.863 122.631C155.491 121.966 163.725 121.701 171.368 121.455C175.69 121.316 179.824 121.183 183.372 120.987C199.066 120.12 209.161 112.04 212.237 108.124L212.333 108.199C212.272 107.885 212.137 107.394 211.926 106.922C211.709 106.436 211.419 105.99 211.064 105.767L211.061 105.765L211.057 105.762C209.431 104.572 204.034 102.02 195.558 101.442L195.554 101.442L195.551 101.442C190.147 100.766 172.309 98.6669 164.065 97.7018L164.064 97.7016Z" fill="#68AA0C"/>
<path d="M135.227 93.8407C138.332 94.4218 155.746 96.6569 164.064 97.7016L164.065 97.7018C172.309 98.6669 190.147 100.766 195.551 101.442L195.554 101.442L195.558 101.442C204.034 102.02 209.431 104.572 211.057 105.762L211.061 105.765L211.064 105.767C211.419 105.99 211.709 106.436 211.926 106.922C212.137 107.394 212.272 107.885 212.333 108.199L212.237 108.124C209.161 112.04 199.066 120.12 183.372 120.987C179.824 121.183 175.69 121.316 171.368 121.455C163.725 121.701 155.491 121.966 148.863 122.631C146.267 122.892 143.914 123.214 141.936 123.62C139.959 124.026 138.349 124.519 137.243 125.124C136.142 125.727 135.504 126.465 135.564 127.372C135.624 128.262 136.358 129.254 137.824 130.372C140.156 132.152 141.244 133.71 141.498 135.05C141.749 136.38 141.183 137.527 140.119 138.506C139.053 139.487 137.499 140.286 135.813 140.906C134.13 141.524 132.325 141.961 130.764 142.221C118.925 143.286 99.7866 144.197 80.8474 143.466C61.8993 142.735 43.1738 140.362 32.1488 134.874C31.6943 134.646 31.1435 134.12 30.9828 133.282C30.8224 132.446 31.0456 131.274 32.1897 129.748C32.7158 129.107 33.1172 128.245 33.1657 127.247C33.2144 126.247 32.9076 125.122 32.0313 123.96C30.2831 121.644 26.2672 119.182 18.2494 117.25C10.2422 115.321 5.85591 113.495 3.62424 112.004C2.50728 111.258 1.94386 110.605 1.72725 110.077C1.69946 110.01 1.67735 109.944 1.66048 109.881C1.65865 109.497 1.9389 109.094 2.51558 108.671C3.19308 108.175 4.23524 107.686 5.53569 107.213C8.1339 106.268 11.727 105.399 15.3978 104.652C19.0673 103.906 22.8089 103.285 25.7015 102.834C27.1477 102.609 28.3815 102.427 29.2879 102.293L29.4195 102.274C30.2272 102.155 30.7574 102.077 30.9072 102.045C32.8082 101.946 38.8494 101.061 45.6221 99.9964C52.4108 98.9296 59.9453 97.6808 64.8114 96.8564L64.8122 96.8562C71.2072 95.73 84.6205 93.3818 87.1282 92.996L87.136 92.9948L87.1436 92.9926C87.8555 92.785 89.0517 92.6123 90.5226 92.4634C91.9905 92.3147 93.7229 92.1904 95.502 92.0773C96.4515 92.0169 97.4146 91.9598 98.3577 91.9038C100.946 91.7502 103.384 91.6055 104.978 91.4283L104.984 91.4277L104.99 91.4264C106.088 91.1891 108.265 91.1875 110.996 91.3309C113.721 91.474 116.98 91.7603 120.229 92.092C125.211 92.6006 130.165 93.2155 133.131 93.5836C134.031 93.6953 134.748 93.7843 135.227 93.8407Z" fill="#68AA0C"/>
<path d="M197.151 131.02C197.922 131.117 199.882 121.742 200.766 117.043V116.682L200.284 117.043L193.898 119.332L189.44 120.537L183.174 121.26L164.498 121.863C158.635 122.264 145.75 123.236 141.124 123.911C136.497 124.586 135.581 126.602 135.701 127.526C135.862 128.169 136.882 129.96 139.678 131.984C142.473 134.008 141.806 136.844 141.124 138.009C141.413 140.515 140.039 147.488 139.316 150.661C138.449 152.299 137.348 158.252 136.906 161.023C136.81 163.722 133.412 170.984 131.725 174.277C136.834 173.891 143.975 170.743 146.907 169.216C146.867 159.135 146.811 138.659 146.907 137.406C146.329 134.033 147.389 132.787 147.991 132.587C148.281 134.611 149.799 138.732 150.522 140.539C153.293 143.31 152.449 124.152 152.69 123.55C152.931 122.947 165.703 122.706 168.595 122.345C170.908 122.056 179.278 122.465 183.174 122.706C184.909 132.346 183.897 148.411 183.174 155.239C184.861 154.396 186.668 151.383 189.199 148.853C191.223 146.829 194.058 146.644 195.223 146.805C192.524 141.792 194.5 129.534 195.826 124.032C196.308 124.417 196.91 128.851 197.151 131.02Z" fill="#8A4130"/>
<path d="M119.562 145.001C119.852 145.29 124.342 143.595 126.551 142.711H125.225L116.671 143.314L104.622 143.796H87.5123L77.0297 143.434L61.0047 142.109L53.1729 141.025L41.6059 138.494L33.1717 135.602L31.1234 134.156L30.7619 132.831L31.1234 131.024L32.2078 129.578L33.1717 127.65L32.6897 125.24L28.8341 121.143L22.8096 118.613L14.0139 116.203L5.09769 113.07V113.914C7.98943 116.709 14.0942 118.211 16.7851 118.613C16.8815 120.252 19.1548 129.176 20.2793 133.434C22.5927 141.049 23.894 142.631 24.2555 142.47C25.9905 143.434 26.7456 137.57 26.9062 134.518C29.0268 138.759 31.0832 161.107 31.8463 171.75C36.2803 175.51 41.6461 176.771 43.7747 176.931C42.4252 176.16 39.9191 170.425 38.8347 167.653C35.3646 161.773 32.2479 143.675 31.1234 135.361C33.244 138.253 37.6298 140.02 39.5576 140.543C41.871 142.085 55.5425 143.193 62.0891 143.555C65.27 145.965 64.298 177.574 63.4145 193.077C70.8366 192.595 78.6363 196.17 81.6083 198.018C78.331 181.438 79.8411 155.765 81.0059 145.001L90.645 144.519C91.0065 145.362 97.3924 166.087 99.9227 168.256C102.453 170.425 103.176 164.28 103.899 162.593C104.477 161.243 105.907 157.853 106.55 156.327C106.646 154.978 109 152.953 110.164 152.11C111.514 154.713 115.305 154.239 117.032 153.676C119.803 151.989 119.201 144.639 119.562 145.001Z" fill="#8A4130"/>
<path d="M174.855 134.89C175.337 137.782 174.333 140.915 173.771 142.12C169.722 139.132 170.638 134.208 171.602 132.119C172.486 131.838 174.373 131.998 174.855 134.89Z" fill="#8A4130"/>
<path d="M124.25 171.52C128.009 169.881 126.86 162.644 125.816 159.23C125.294 158.467 124.202 157.181 124.009 158.145C123.816 159.109 122.161 161.117 121.358 162.001C120.756 165.857 120.491 173.159 124.25 171.52Z" fill="#8A4130"/>
<path d="M116.057 173.93C117.31 171.52 118.266 173.408 118.587 174.653C118.968 175.617 118.746 176.5 118.587 176.822C117.221 176.862 114.804 176.34 116.057 173.93Z" fill="#8A4130"/>
<path d="M23.6414 149.108C24.6053 150.169 25.9709 157.824 26.5332 161.519C26.6273 162.124 26.4117 162.333 26.2922 162.363L25.9307 161.519L25.3283 160.676L24.7258 160.194L23.5209 159.712L21.7136 159.471L20.0267 159.591L17.7375 159.471L18.8219 158.627C20.0267 158.266 22.4365 147.783 23.6414 149.108Z" fill="#8A4130"/>
<path d="M193.96 126.139C185.883 123.1 182.931 115.744 182.465 112.446C208.181 107.667 205.375 125.833 205.675 130.797C202.956 130.397 193.295 120.176 191.862 119.043C194.101 121.282 194.194 124.707 193.96 126.139Z" fill="#68AA0C"/>
<path d="M185.244 92.981C181.628 94.444 177.422 99.758 175.771 102.232C175.762 104.49 179.431 107.355 181.266 108.505C182.895 108.233 186.857 105.876 189.681 98.6237C186.189 98.6557 183.493 100.926 182.581 102.057C182.549 101.392 183.038 98.6465 185.244 92.981Z" fill="#6EBC30"/>
<path d="M184.111 93.9088C180.496 95.3718 176.29 100.686 174.639 103.16C174.63 105.418 178.298 108.283 180.134 109.433C181.762 109.161 185.724 106.803 188.548 99.5514C185.056 99.5834 182.36 101.854 181.448 102.985C181.417 102.32 181.905 99.5743 184.111 93.9088Z" fill="#68AA0C"/>
<path d="M94.3143 83.0641C96.921 85.9654 98.3682 92.5862 98.766 95.534C97.7831 97.5667 93.2296 98.5308 91.0757 98.7587C89.7319 97.7996 87.2058 93.9424 87.8509 86.1869C90.9748 87.7483 92.4013 90.9717 92.7241 92.3882C93.0441 91.8047 93.8103 89.123 94.3143 83.0641Z" fill="#6EBC30"/>
<path d="M94.9237 84.4039C97.5303 87.3052 98.9776 93.9261 99.3754 96.8738C98.3925 98.9066 93.8389 99.8706 91.685 100.099C90.3413 99.1394 87.8151 95.2823 88.4603 87.5267C91.5842 89.0881 93.0107 92.3115 93.3334 93.728C93.6535 93.1446 94.4197 90.4629 94.9237 84.4039Z" fill="#68AA0C"/>
<path d="M16.6366 96.8552C30.4127 88.0389 35.3718 103.466 32.2027 109.804C32.2027 113.387 22.4229 119.721 19.3924 112.145C16.9679 106.083 12.3211 104.201 10.3008 104.017C14.1579 99.3872 21.2751 99.8838 24.3516 100.711C22.5883 97.6251 18.4735 96.8547 16.6366 96.8552Z" fill="#68AA0C"/>
<path fill-rule="evenodd" clip-rule="evenodd" d="M26.3757 94.4795C23.8526 93.7882 20.6124 94.314 16.6385 96.8572C18.3852 96.8567 22.1911 97.5531 24.0769 100.274C25.7594 100.293 27.2622 100.535 28.3027 100.814C26.5395 97.7286 22.4247 96.9582 20.5877 96.9587C22.7293 95.5882 24.6577 94.8036 26.3757 94.4795ZM26.1721 115.417C25.0178 114.923 24.015 113.927 23.3435 112.248C20.9191 106.187 16.2723 104.304 14.252 104.121C16.3814 101.564 19.5046 100.571 22.3928 100.333C18.8721 99.8698 13.4808 100.204 10.3027 104.019C12.3231 104.203 16.9699 106.085 19.3943 112.147C20.7743 115.597 23.5538 116.162 26.1721 115.417Z" fill="#6EBC30"/>
<path d="M151.382 131.988C143.305 128.948 140.353 121.592 139.887 118.294C152.841 114.776 156.681 123.825 156.981 128.79C154.262 128.39 150.717 126.024 149.284 124.891C151.523 127.13 151.616 130.555 151.382 131.988Z" fill="#68AA0C"/>
<path opacity="0.2" d="M91.5601 129.079C97.7993 122.831 105.901 123.181 109.172 124.137C106.989 137.696 96.9347 137.46 92.1805 135.646C93.6997 133.28 97.3999 130.973 99.0601 130.115C96.0286 131.258 92.797 129.901 91.5601 129.079Z" fill="#949494"/>
<path d="M91.8611 128.135C97.1287 122.859 103.969 123.155 106.73 123.962C104.887 135.41 96.3988 135.21 92.3849 133.679C93.6675 131.682 96.7915 129.734 98.1931 129.009C95.6338 129.975 92.9054 128.828 91.8611 128.135Z" fill="#6EBC30"/>
<path d="M94.5527 127.354C99.6318 121.993 106.015 122.082 108.572 122.797C106.511 134.146 98.584 134.2 94.8782 132.809C96.1359 130.8 99.1131 128.785 100.444 128.029C98.0241 129.057 95.5082 128.007 94.5527 127.354Z" fill="#68AA0C"/>
<path d="M79.9472 153.784C75.6429 144.181 78.6359 139.091 80.6704 137.746C91.3467 133.939 93.3997 148.316 82.7422 155.543C83.3173 154.968 84.3371 151.658 83.9072 143.017C83.9083 146.107 81.3171 151.403 79.9472 153.784Z" fill="#68AA0C"/>
<ellipse cx="89.8326" cy="113.066" rx="30.5983" ry="7.26374" fill="#366C00" fill-opacity="0.75"/>
<ellipse cx="104.514" cy="113.066" rx="30.5983" ry="7.26374" fill="#366C00" fill-opacity="0.75"/>
<path d="M80.5739 66.5609V61.1641H62.585L66.0658 71.6051C67.2099 75.0375 70.4227 77.3545 74.0421 77.3545C75.841 77.3545 77.5122 78.1425 78.7966 79.4017C82.0364 82.5822 86.467 84.5503 91.3672 84.5503V77.3545C85.4057 77.3545 80.5739 72.5226 80.5739 66.5609Z" fill="#9A4D01"/>
<path d="M91.3672 77.3545V84.5503C89.4784 84.5503 87.6615 84.2625 85.9705 83.7228V81.3842C85.9705 80.1429 84.9812 79.1535 83.7399 79.1535C82.9124 79.1535 82.1389 78.6857 81.7611 77.9302C81.0056 76.4191 79.6384 75.3217 78.0015 74.908C74.9613 74.1524 71.7953 74.1524 68.7552 74.908L68.3414 75.0159C68.3054 75.0159 68.2874 75.0339 68.2515 75.0519C67.2621 74.1164 66.5065 72.9471 66.0568 71.5979L62.585 61.1641H80.5739V66.5609C80.5739 72.5154 85.4129 77.3545 91.3672 77.3545Z" fill="#BF6101"/>
<path d="M120.149 61.1641L116.173 64.3896C115.175 65.1991 114.61 66.426 114.643 67.7104C114.704 70.0382 112.833 71.9577 110.505 71.9577H103.959V79.1535H110.18C114.085 79.1535 117.654 76.948 119.401 73.4544C119.895 72.4632 120.548 71.5583 121.333 70.774L125.546 66.5609L120.149 61.1641Z" fill="#9A4D01"/>
<path d="M125.546 66.5609L121.336 70.7704C120.545 71.5619 119.897 72.4614 119.393 73.4508C119.124 73.9905 118.8 74.5122 118.44 74.9799L114.752 73.7566C113.601 74.908 112.036 75.5556 110.417 75.5556C109.949 75.5556 109.59 75.9334 109.59 76.3831C109.59 76.4551 109.59 76.509 109.607 76.581L110.255 79.1535H103.959V71.9577H110.507C112.792 71.9577 114.644 70.0868 114.644 67.8021V67.7122C114.608 66.435 115.184 65.1937 116.173 64.3842L120.149 61.1641L125.546 66.5609Z" fill="#BF6101"/>
<path d="M107.557 91.1762V53.9688H89.5681V89.1938C89.5681 94.963 85.7436 100.034 80.1959 101.619C78.084 102.222 76.1609 103.353 74.6085 104.908L69.7803 109.736H83.513C87.4328 109.736 91.2356 108.403 94.2991 105.956C95.6105 104.909 97.2385 104.339 98.9169 104.339C100.942 104.339 102.835 105.352 103.959 107.037C105.083 108.723 106.976 109.736 109.001 109.736H120.149L114.182 104.962C112.187 103.366 110.563 101.356 109.421 99.0718C108.196 96.6198 107.557 93.9178 107.557 91.1762Z" fill="#9A4D01"/>
<path d="M107.291 102.008C106.323 100.074 104.517 98.694 102.398 98.2695C99.122 97.6146 96.7636 94.7381 96.7636 91.3975V70.1592C100.919 70.1592 104.837 68.3477 107.557 65.2535V53.9688H89.5681V89.1938C89.5681 94.963 85.7436 100.034 80.1959 101.619C78.084 102.222 76.1609 103.353 74.6085 104.908L69.7803 109.736H83.513C87.4328 109.736 91.2356 108.403 94.2991 105.956C95.6105 104.909 97.2385 104.339 98.9169 104.339C100.942 104.339 102.835 105.352 103.959 107.037C105.083 108.723 106.976 109.736 109.001 109.736H120.149L113.736 107.599C110.932 106.663 108.613 104.652 107.291 102.008Z" fill="#BF6101"/>
<path d="M93.1656 100.74C92.705 100.74 92.2445 100.563 91.8937 100.213C91.1904 99.5093 91.1904 98.3723 91.8937 97.669C94.8475 94.7151 96.1211 90.5092 95.3026 86.413C95.0706 85.2527 94.9644 84.1931 94.9644 83.1371V79.1525C94.9644 78.1576 95.7685 77.3535 96.7633 77.3535C97.7581 77.3535 98.5622 78.1576 98.5622 79.1525V83.1371C98.5622 83.9556 98.6432 84.7777 98.8051 85.5801C99.8862 90.9841 98.2438 96.4079 94.4374 100.213C94.0866 100.563 93.6261 100.74 93.1656 100.74Z" fill="#9A4D01"/>
<path d="M150.73 52.1689C150.73 46.9808 147.069 42.6525 142.191 41.6146C143.044 39.9182 143.535 38.0077 143.535 35.9785C143.535 29.0238 137.897 23.3859 130.942 23.3859C130.248 23.3859 129.573 23.4561 128.91 23.564C129.054 22.9272 129.144 22.2687 129.144 21.587C129.144 16.6201 125.116 12.5922 120.149 12.5922C118.453 12.5922 116.884 13.0906 115.53 13.9073C114.038 11.002 111.047 8.99437 107.557 8.99437C106.976 8.99437 106.409 9.05913 105.859 9.16526C104.225 6.8914 101.576 5.39648 98.5624 5.39648C94.961 5.39648 91.8759 7.52823 90.4404 10.5864C88.8933 9.58262 87.0513 8.99437 85.0707 8.99437C81.1149 8.99437 77.7132 11.3204 76.1284 14.6754C70.4457 15.8915 66.1823 20.9375 66.1823 26.9838C66.1823 29.0022 66.6698 30.9037 67.5135 32.5947C62.3813 33.5283 58.341 37.5687 57.4037 42.6993C54.0596 44.5342 51.7912 48.0854 51.7912 52.1689C51.7912 52.419 51.811 52.6637 51.829 52.9083C48.6342 54.2881 46.3945 57.4614 46.3945 61.1636C46.3945 66.1305 50.4222 70.1584 55.389 70.1584C56.9216 70.1584 58.3446 69.7392 59.6074 69.0628C61.2498 70.833 63.5775 71.9573 66.1823 71.9573C68.931 71.9573 71.3613 70.698 73.0109 68.7534C74.7397 69.6457 76.695 70.1584 78.7746 70.1584C84.263 70.1584 88.9167 66.6414 90.6418 61.7429C92.1511 64.596 95.1121 66.5605 98.5624 66.5605C102.759 66.5605 106.254 63.6732 107.247 59.7857C108.962 60.6599 110.897 61.1636 112.953 61.1636C113.218 61.1636 113.475 61.1403 113.734 61.1241C113.24 62.2376 112.953 63.4645 112.953 64.7615C112.953 69.7284 116.981 73.7562 121.948 73.7562C124.902 73.7562 127.499 72.3135 129.14 70.1134C130.647 71.2557 132.504 71.9573 134.54 71.9573C139.507 71.9573 143.535 67.9295 143.535 62.9626C143.535 62.7557 143.488 62.5614 143.473 62.3581C147.695 60.892 150.73 56.8894 150.73 52.1689Z" fill="#A4C400"/>
<path d="M150.527 54.1682C148.878 56.2244 146.377 57.5664 143.537 57.5664C143.197 57.5664 142.862 57.5466 142.535 57.5088C139.797 57.194 137.057 57.4908 134.537 58.6062C133.044 59.2682 131.335 59.5326 129.534 59.2556C126.005 58.7141 123.055 55.9887 122.211 52.5186C121.702 50.4246 121.97 48.4458 122.731 46.7332C122.472 46.7493 122.214 46.7727 121.95 46.7727C121.925 46.7727 121.901 46.7727 121.876 46.7727C118.924 46.7547 115.931 47.5247 113.828 49.5971C112.216 51.1873 110.007 52.1696 107.559 52.1696C106.525 52.1696 105.533 51.9933 104.612 51.6677C101.594 50.6045 98.2298 50.8617 95.7617 52.8981C93.5887 54.6899 90.8076 55.7674 87.7711 55.7674C86.4057 55.7674 85.1015 55.5282 83.8729 55.1234C81.9391 55.888 79.7048 56.0625 77.3339 55.1486C74.6392 54.1088 72.5381 51.7702 71.8491 48.9656C71.4515 47.3448 71.5109 45.7905 71.912 44.3783C72.333 42.8942 72.3582 41.3507 71.8995 39.8792C71.6926 39.2154 71.5793 38.5102 71.5793 37.778C71.5793 35.0095 73.1605 32.6331 75.4541 31.4296C75.2922 30.8719 75.177 30.2926 75.177 29.6828C75.177 29.4345 75.1914 29.1917 75.2202 28.9506C75.4559 27.0006 75.2598 25.0181 74.2974 23.3074C73.7127 22.2676 73.3781 21.0677 73.3781 19.7886C73.3781 17.9069 74.1175 16.2105 75.2994 14.9297C70.0448 16.4426 66.1826 21.2422 66.1826 26.9844C66.1826 29.0028 66.6701 30.9043 67.5138 32.5953C62.3815 33.5289 58.3412 37.5694 57.404 42.6999C54.0599 44.5349 51.7915 48.086 51.7915 52.1696C51.7915 52.4196 51.8112 52.6643 51.8292 52.9089C48.3052 54.4308 45.9433 58.1366 46.4685 62.3246C46.9003 65.7749 49.4331 68.7108 52.7521 69.747C55.3029 70.5439 57.6468 70.114 59.6094 69.0634C61.25 70.8336 63.5778 71.9579 66.1826 71.9579C68.9313 71.9579 71.3616 70.6986 73.0112 68.754C74.7399 69.6463 76.6953 70.159 78.7748 70.159C84.2632 70.159 88.917 66.642 90.6421 61.7435C92.1514 64.5966 95.1123 66.5611 98.5626 66.5611C102.759 66.5611 106.255 63.6738 107.248 59.7863C108.962 60.6606 110.898 61.1643 112.954 61.1643C113.218 61.1643 113.475 61.1409 113.734 61.1247C112.974 62.8373 112.705 64.8161 113.215 66.9101C114.058 70.3802 117.008 73.1056 120.538 73.6471C124.065 74.1886 127.242 72.6559 129.14 70.114C130.648 71.2563 132.504 71.9579 134.54 71.9579C139.507 71.9579 143.535 67.9301 143.535 62.9632C143.535 62.7563 143.488 62.562 143.474 62.3588C147.082 61.1049 149.808 57.9927 150.527 54.1682Z" fill="#60A917"/>
<path d="M127.705 52.1699C126.929 52.1699 126.203 52.3552 125.546 52.6592C124.89 52.3552 124.163 52.1699 123.387 52.1699C120.606 52.1699 118.351 54.3628 118.351 57.0666C118.351 59.7722 120.606 64.7625 123.387 64.7625C124.163 64.7625 124.89 64.5772 125.546 64.2732C126.203 64.5772 126.929 64.7625 127.705 64.7625C130.486 64.7625 132.742 59.7722 132.742 57.0666C132.742 54.3628 130.486 52.1699 127.705 52.1699Z" fill="#40916C"/>
<path d="M114.842 30.582C114.164 30.582 113.527 30.7403 112.953 31.0012C112.379 30.7403 111.743 30.582 111.065 30.582C108.631 30.582 106.657 32.4619 106.657 34.779C106.657 37.0978 108.631 41.3757 111.065 41.3757C111.743 41.3757 112.379 41.2174 112.953 40.9565C113.527 41.2174 114.164 41.3757 114.842 41.3757C117.276 41.3757 119.249 37.0978 119.249 34.779C119.249 32.4619 117.276 30.582 114.842 30.582Z" fill="#40916C"/>
<path d="M98.6527 48.5723C97.9745 48.5723 97.3377 48.7306 96.7639 48.9914C96.19 48.7306 95.5532 48.5723 94.8751 48.5723C92.4412 48.5723 90.4678 50.4522 90.4678 52.7692C90.4678 55.088 92.4412 59.3659 94.8751 59.3659C95.5532 59.3659 96.19 59.2076 96.7639 58.9467C97.3377 59.2076 97.9745 59.3659 98.6527 59.3659C101.087 59.3659 103.06 55.088 103.06 52.7692C103.06 50.4522 101.087 48.5723 98.6527 48.5723Z" fill="#40916C"/>
<path d="M82.7322 28.7832C81.9568 28.7832 81.2301 28.9685 80.5735 29.2725C79.9169 28.9685 79.1901 28.7832 78.4148 28.7832C75.6337 28.7832 73.3779 30.9761 73.3779 33.6799C73.3779 36.3855 75.6337 41.3758 78.4148 41.3758C79.1901 41.3758 79.9169 41.1905 80.5735 40.8865C81.2301 41.1905 81.9568 41.3758 82.7322 41.3758C85.5132 41.3758 87.7691 36.3855 87.7691 33.6799C87.7691 30.9761 85.5132 28.7832 82.7322 28.7832Z" fill="#40916C"/>
<path d="M138.537 96.8079L136.769 97.1425L136.434 95.3741C135.88 92.4454 137.803 89.6211 140.732 89.067L142.5 88.7324L142.834 90.5008C143.388 93.4295 141.465 96.2538 138.537 96.8079Z" fill="#5F9B22"/>
<path d="M142.835 90.5005L142.757 90.0957C142.176 92.4757 139.194 94.5427 136.736 95.0086L136.407 95.0716C136.42 95.1741 136.414 95.2731 136.434 95.3756L136.769 97.1422L138.537 96.8076C141.464 96.2517 143.389 93.4291 142.835 90.5005Z" fill="#6FBE20"/>
<path d="M136.339 100.741C135.344 100.741 134.54 99.9367 134.54 98.9419C134.54 96.9576 132.927 95.344 130.942 95.344C129.948 95.344 129.144 94.5398 129.144 93.545C129.144 92.5502 129.948 91.7461 130.942 91.7461C134.911 91.7461 138.138 94.9734 138.138 98.9419C138.138 99.9367 137.334 100.741 136.339 100.741Z" fill="#6FBE20"/>
<path d="M138.498 97.1426C137.722 97.1426 136.996 97.3279 136.339 97.6319C135.683 97.3279 134.956 97.1426 134.18 97.1426C131.399 97.1426 129.144 99.3355 129.144 102.039C129.144 104.745 131.399 109.735 134.18 109.735C134.956 109.735 135.683 109.55 136.339 109.246C136.996 109.55 137.722 109.735 138.498 109.735C141.279 109.735 143.535 104.745 143.535 102.039C143.535 99.3355 141.279 97.1426 138.498 97.1426Z" fill="#FF7373"/>
<path d="M142.945 104.964C142.096 107.342 140.426 109.735 138.498 109.735C137.721 109.735 137.001 109.553 136.339 109.246C135.677 109.553 134.958 109.735 134.18 109.735C131.403 109.735 129.144 104.739 129.144 102.039C129.144 100.08 130.324 98.4015 132.036 97.6172C132.022 97.6873 132.022 97.7719 132.022 97.8421C132.022 102.095 135.562 105.538 139.937 105.538C141.002 105.538 142.024 105.327 142.945 104.964Z" fill="#EF5350"/>
<path d="M131.342 50.0364L129.573 50.371L129.239 48.6026C128.685 45.674 130.608 42.8496 133.536 42.2955L135.305 41.9609L135.639 43.7293C136.193 46.658 134.27 49.4823 131.342 50.0364Z" fill="#5F9B22"/>
<path d="M135.639 43.729L135.562 43.3242C134.981 45.7042 131.998 47.7712 129.541 48.2371L129.212 48.3001C129.225 48.4026 129.219 48.5016 129.239 48.6041L129.573 50.3707L131.342 50.0361C134.269 49.4802 136.193 46.6577 135.639 43.729Z" fill="#6FBE20"/>
<path d="M129.144 53.9693C128.149 53.9693 127.345 53.1652 127.345 52.1704C127.345 50.1861 125.731 48.5725 123.747 48.5725C122.752 48.5725 121.948 47.7684 121.948 46.7735C121.948 45.7787 122.752 44.9746 123.747 44.9746C127.715 44.9746 130.943 48.2019 130.943 52.1704C130.943 53.1652 130.139 53.9693 129.144 53.9693Z" fill="#6FBE20"/>
<path d="M131.302 50.3711C130.527 50.3711 129.8 50.5564 129.144 50.8604C128.487 50.5564 127.76 50.3711 126.985 50.3711C124.204 50.3711 121.948 52.564 121.948 55.2678C121.948 57.9734 124.204 62.9637 126.985 62.9637C127.76 62.9637 128.487 62.7784 129.144 62.4744C129.8 62.7784 130.527 62.9637 131.302 62.9637C134.084 62.9637 136.339 57.9734 136.339 55.2678C136.339 52.564 134.084 50.3711 131.302 50.3711Z" fill="#FF7373"/>
<path d="M135.749 58.1926C134.9 60.5708 133.231 62.9634 131.302 62.9634C130.525 62.9634 129.806 62.7817 129.144 62.474C128.482 62.7817 127.762 62.9634 126.985 62.9634C124.208 62.9634 121.948 57.9677 121.948 55.2675C121.948 53.3085 123.128 51.63 124.841 50.8457C124.826 50.9159 124.826 51.0004 124.826 51.0706C124.826 55.3233 128.367 58.7664 132.742 58.7664C133.807 58.7664 134.828 58.556 135.749 58.1926Z" fill="#EF5350"/>
<path d="M84.5701 26.6497L82.8018 26.9843L82.4672 25.2159C81.9131 22.2872 83.8361 19.4629 86.7647 18.9088L88.5331 18.5742L88.8676 20.3426C89.4217 23.2713 87.4987 26.0956 84.5701 26.6497Z" fill="#5F9B22"/>
<path d="M88.8679 20.3423L88.7905 19.9375C88.2095 22.3175 85.2269 24.3845 82.7696 24.8504L82.4404 24.9134C82.453 25.0159 82.4476 25.1149 82.4674 25.2174L82.802 26.9839L84.5703 26.6493C87.4971 26.0935 89.4219 23.2709 88.8679 20.3423Z" fill="#6FBE20"/>
<path d="M82.3723 30.5826C81.3775 30.5826 80.5734 29.7785 80.5734 28.7837C80.5734 26.7994 78.9598 25.1858 76.9756 25.1858C75.9809 25.1858 75.1768 24.3816 75.1768 23.3868C75.1768 22.392 75.9809 21.5879 76.9756 21.5879C80.944 21.5879 84.1712 24.8152 84.1712 28.7837C84.1712 29.7785 83.3671 30.5826 82.3723 30.5826Z" fill="#6FBE20"/>
<path d="M84.531 26.9844C83.7557 26.9844 83.0289 27.1697 82.3723 27.4737C81.7157 27.1697 80.989 26.9844 80.2137 26.9844C77.4326 26.9844 75.1768 29.1773 75.1768 31.8811C75.1768 34.5867 77.4326 39.577 80.2137 39.577C80.989 39.577 81.7157 39.3917 82.3723 39.0876C83.0289 39.3917 83.7557 39.577 84.531 39.577C87.3121 39.577 89.5679 34.5867 89.5679 31.8811C89.5679 29.1773 87.3121 26.9844 84.531 26.9844Z" fill="#FF7373"/>
<path d="M88.9778 34.8059C88.1288 37.1841 86.4594 39.5766 84.531 39.5766C83.7539 39.5766 83.0343 39.395 82.3723 39.0873C81.7103 39.395 80.9908 39.5766 80.2137 39.5766C77.4362 39.5766 75.1768 34.581 75.1768 31.8808C75.1768 29.9217 76.3568 28.2433 78.0694 27.459C78.055 27.5291 78.055 27.6137 78.055 27.6839C78.055 31.9365 81.5952 35.3797 85.9701 35.3797C87.035 35.3797 88.0568 35.1692 88.9778 34.8059Z" fill="#EF5350"/>
<path d="M59.3855 98.6067L57.6172 98.9413L57.2826 97.1729C56.7286 94.2443 58.6516 91.4199 61.5802 90.8659L63.3485 90.5312L63.6831 92.2996C64.2371 95.2283 62.3141 98.0526 59.3855 98.6067Z" fill="#5F9B22"/>
<path d="M63.6833 92.2993L63.6059 91.8945C63.0249 94.2745 60.0423 96.3415 57.5851 96.8074L57.2559 96.8704C57.2685 96.9729 57.2631 97.0719 57.2828 97.1744L57.6174 98.941L59.3857 98.6064C62.3125 98.0505 64.2374 95.228 63.6833 92.2993Z" fill="#6FBE20"/>
<path d="M57.1878 102.54C56.193 102.54 55.3889 101.735 55.3889 100.741C55.3889 98.7564 53.7753 97.1428 51.7911 97.1428C50.7963 97.1428 49.9922 96.3387 49.9922 95.3439C49.9922 94.349 50.7963 93.5449 51.7911 93.5449C55.7594 93.5449 58.9866 96.7722 58.9866 100.741C58.9866 101.735 58.1825 102.54 57.1878 102.54Z" fill="#6FBE20"/>
<path d="M59.0766 98.9414C58.3984 98.9414 57.7616 99.0997 57.1877 99.3606C56.6139 99.0997 55.9771 98.9414 55.2989 98.9414C52.865 98.9414 50.8916 100.821 50.8916 103.138C50.8916 105.457 52.865 109.735 55.2989 109.735C55.9771 109.735 56.6139 109.577 57.1877 109.316C57.7616 109.577 58.3984 109.735 59.0766 109.735C61.5105 109.735 63.4838 105.457 63.4838 103.138C63.4838 100.821 61.5105 98.9414 59.0766 98.9414Z" fill="#FF7373"/>
<path d="M62.9676 105.646C62.2246 107.684 60.7639 109.735 59.0766 109.735C58.3966 109.735 57.767 109.578 57.1877 109.316C56.6085 109.578 55.9789 109.735 55.2989 109.735C52.8686 109.735 50.8916 105.453 50.8916 103.138C50.8916 101.46 51.9242 100.02 53.4226 99.3477C53.41 99.4088 53.41 99.4808 53.41 99.5401C53.41 103.187 56.5077 106.137 60.3358 106.137C61.2676 106.137 62.1616 105.957 62.9676 105.646Z" fill="#EF5350"/>
<path d="M68.3797 51.8352L66.6113 52.1698L66.2768 50.4015C65.7227 47.4728 67.6457 44.6484 70.5743 44.0944L72.3426 43.7598L72.6772 45.5281C73.2313 48.4568 71.3083 51.2811 68.3797 51.8352Z" fill="#5F9B22"/>
<path d="M72.6774 45.5278L72.6001 45.123C72.019 47.503 69.0365 49.57 66.5792 50.036L66.25 50.0989C66.2626 50.2015 66.2572 50.3004 66.277 50.4029L66.6116 52.1695L68.3799 51.8349C71.3067 51.279 73.2315 48.4565 72.6774 45.5278Z" fill="#6FBE20"/>
<path d="M66.1819 55.7681C65.1871 55.7681 64.383 54.964 64.383 53.9692C64.383 51.985 62.7694 50.3713 60.7852 50.3713C59.7904 50.3713 58.9863 49.5672 58.9863 48.5724C58.9863 47.5776 59.7904 46.7734 60.7852 46.7734C64.7536 46.7734 67.9808 50.0007 67.9808 53.9692C67.9808 54.964 67.1767 55.7681 66.1819 55.7681Z" fill="#6FBE20"/>
<path d="M68.0707 52.1699C67.3925 52.1699 66.7557 52.3282 66.1819 52.5891C65.608 52.3282 64.9712 52.1699 64.293 52.1699C61.8591 52.1699 59.8857 54.0498 59.8857 56.3669C59.8857 58.6839 61.8591 62.9636 64.293 62.9636C64.9712 62.9636 65.608 62.8053 66.1819 62.5444C66.7557 62.8053 67.3925 62.9636 68.0707 62.9636C70.5046 62.9636 72.478 58.6857 72.478 56.3669C72.478 54.048 70.5046 52.1699 68.0707 52.1699Z" fill="#FF7373"/>
<path d="M71.9617 58.8743C71.2188 60.9125 69.7581 62.9633 68.0707 62.9633C67.3907 62.9633 66.7611 62.8067 66.1819 62.5441C65.6026 62.8067 64.973 62.9633 64.293 62.9633C61.8627 62.9633 59.8857 58.6818 59.8857 56.3665C59.8857 54.6881 60.9183 53.249 62.4168 52.5762C62.4042 52.6373 62.4042 52.7093 62.4042 52.7687C62.4042 56.4151 65.5019 59.3654 69.3299 59.3654C70.2617 59.3654 71.1558 59.1855 71.9617 58.8743Z" fill="#EF5350"/>
<path d="M100.76 46.4387L98.9912 46.7733L98.6566 45.005C98.1026 42.0763 100.026 39.252 102.954 38.6979L104.722 38.3633L105.057 40.1316C105.611 43.0603 103.688 45.8846 100.76 46.4387Z" fill="#5F9B22"/>
<path d="M105.057 40.1313L104.98 39.7266C104.399 42.1066 101.416 44.1735 98.9591 44.6395L98.6299 44.7024C98.6425 44.805 98.6371 44.9039 98.6569 45.0065L98.9915 46.773L100.76 46.4384C103.687 45.8825 105.611 43.06 105.057 40.1313Z" fill="#6FBE20"/>
<path d="M98.5618 50.3717C97.567 50.3717 96.7629 49.5675 96.7629 48.5727C96.7629 46.5885 95.1493 44.9748 93.1651 44.9748C92.1703 44.9748 91.3662 44.1707 91.3662 43.1759C91.3662 42.1811 92.1703 41.377 93.1651 41.377C97.1335 41.377 100.361 44.6043 100.361 48.5727C100.361 49.5675 99.5566 50.3717 98.5618 50.3717Z" fill="#6FBE20"/>
<path d="M100.451 46.7734C99.7724 46.7734 99.1356 46.9317 98.5617 47.1926C97.9879 46.9317 97.3511 46.7734 96.6729 46.7734C94.239 46.7734 92.2656 48.6533 92.2656 50.9704C92.2656 53.2892 94.239 57.5671 96.6729 57.5671C97.3511 57.5671 97.9879 57.4088 98.5617 57.1479C99.1356 57.4088 99.7724 57.5671 100.451 57.5671C102.884 57.5671 104.858 53.2892 104.858 50.9704C104.858 48.6533 102.884 46.7734 100.451 46.7734Z" fill="#FF7373"/>
<path d="M104.342 53.4778C103.599 55.516 102.138 57.5668 100.451 57.5668C99.7706 57.5668 99.141 57.4103 98.5617 57.1476C97.9825 57.4103 97.3529 57.5668 96.6729 57.5668C94.2426 57.5668 92.2656 53.2853 92.2656 50.9701C92.2656 49.2916 93.2982 47.8525 94.7967 47.1797C94.7841 47.2409 94.7841 47.3128 94.7841 47.3722C94.7841 51.0186 97.8818 53.9689 101.71 53.9689C102.642 53.9689 103.536 53.789 104.342 53.4778Z" fill="#EF5350"/>
<path d="M116.95 28.4485L115.182 28.7831L114.847 27.0147C114.293 24.0861 116.216 21.2617 119.145 20.7076L120.913 20.373L121.248 22.1414C121.802 25.0701 119.879 27.8944 116.95 28.4485Z" fill="#5F9B22"/>
<path d="M121.248 22.1411L121.17 21.7363C120.589 24.1163 117.607 26.1833 115.15 26.6492L114.82 26.7122C114.833 26.8147 114.828 26.9137 114.847 27.0162L115.182 28.7828L116.95 28.4482C119.877 27.8923 121.802 25.0698 121.248 22.1411Z" fill="#6FBE20"/>
<path d="M114.752 32.3814C113.757 32.3814 112.953 31.5773 112.953 30.5825C112.953 28.5982 111.34 26.9846 109.356 26.9846C108.361 26.9846 107.557 26.1805 107.557 25.1857C107.557 24.1908 108.361 23.3867 109.356 23.3867C113.324 23.3867 116.551 26.614 116.551 30.5825C116.551 31.5773 115.747 32.3814 114.752 32.3814Z" fill="#6FBE20"/>
<path d="M116.641 28.7832C115.963 28.7832 115.326 28.9415 114.752 29.2024C114.178 28.9415 113.542 28.7832 112.863 28.7832C110.429 28.7832 108.456 30.6631 108.456 32.9801C108.456 35.299 110.429 39.5768 112.863 39.5768C113.542 39.5768 114.178 39.4185 114.752 39.1577C115.326 39.4185 115.963 39.5768 116.641 39.5768C119.075 39.5768 121.048 35.299 121.048 32.9801C121.048 30.6631 119.075 28.7832 116.641 28.7832Z" fill="#FF7373"/>
<path d="M120.532 35.4875C119.789 37.5257 118.328 39.5765 116.641 39.5765C115.961 39.5765 115.331 39.42 114.752 39.1574C114.173 39.42 113.543 39.5765 112.863 39.5765C110.433 39.5765 108.456 35.2951 108.456 32.9798C108.456 31.3014 109.489 29.8623 110.987 29.1895C110.975 29.2506 110.975 29.3226 110.975 29.3819C110.975 33.0284 114.072 35.9787 117.9 35.9787C118.832 35.9787 119.726 35.7988 120.532 35.4875Z" fill="#EF5350"/>
</svg>
