<svg width="213" height="183" viewBox="0 0 213 183" fill="none" xmlns="http://www.w3.org/2000/svg">
<path d="M195.591 109.928C202.049 111.181 206.314 108.844 207.64 107.518L208.242 107.037L207.76 108.241L204.628 118.363L203.543 118.001C199.446 117.037 189.687 119.206 183.18 122.098C176.674 124.99 173.541 125.351 164.505 126.315C157.275 127.086 150.809 134.509 148.48 138.124C144.528 136.485 133.9 143.465 129.081 147.161C120.285 146.076 116.309 149.932 111.851 156.8C107.393 163.668 100.163 163.547 95.3438 165.234C90.5243 166.921 79.0778 159.451 72.6919 156.8C71.3424 151.98 63.6953 151.82 60.0405 152.342C54.8595 150.775 47.3891 154.029 42.8105 154.511C38.232 154.993 29.1953 146.92 31.9665 142.823C34.1835 139.545 26.3839 132.942 22.2069 130.051C21.2832 128.042 18.2308 124.46 13.4112 126.195C8.59163 127.93 5.53923 126.355 4.61548 125.351L3.16962 118.001L1.48277 106.916L1.84424 107.157C2.24586 107.478 3.4106 108.579 4.85646 110.41C6.6638 112.7 14.6161 113.664 18.8332 114.146C23.0503 114.628 32.81 131.135 36.3041 135.593C39.7983 140.051 55.5824 139.328 60.0405 139.569C63.607 139.762 73.4148 144.229 77.8729 146.438C81.2868 148.687 89.3194 152.534 94.1389 149.932C100.163 146.679 106.911 148.847 110.405 147.642C113.899 146.438 120.044 139.088 120.888 138.124C121.731 137.16 131.491 133.665 135.226 132.219C138.961 130.774 144.262 122.219 147.757 120.05C151.251 117.881 162.215 120.17 164.505 118.001C166.336 116.266 173.863 112.7 177.397 111.133C180.771 110.209 189.133 108.675 195.591 109.928Z" fill="#B4543E" stroke="#B4543E"/>
<path d="M195.563 84.2012C204.056 84.7803 209.477 87.338 211.125 88.5444C211.898 89.0299 212.332 90.4357 212.452 91.0779C212.549 96.3863 209.919 103.424 208.592 106.279C207.064 110.341 203.815 119.646 203.043 124.376C202.077 130.287 195.563 130.408 194.115 130.529C191.799 130.046 187.842 132.941 187.6 134.148C187.359 135.354 184.021 138.411 182.654 139.336C180.338 141.942 173.566 143.156 170.469 143.438C169.022 143.341 166.73 143.88 165.764 144.161C163.159 144.451 153.017 149.832 148.272 152.486C144.122 155.574 135.283 157.312 131.382 157.794C129.741 161.365 125.068 165.636 122.937 167.325C120.235 170.027 114.653 171.588 112.2 172.03C109.401 171.741 104.037 175.127 101.704 176.856C100.417 178.263 96.6855 181.368 92.0529 182.526C87.4203 183.684 83.3668 182.446 81.9191 181.682C81.2435 181.006 78.4205 179.792 77.0935 179.269C75.4045 177.459 65.15 176.494 63.823 176.615C62.7613 176.711 59.3593 174.885 57.7909 173.96C58.3941 173.719 53.2066 169.979 52.2415 169.014C49.5391 167.856 45.2443 163.062 43.4347 160.81C41.6975 160.617 37.8048 158.96 36.0756 158.156C33.5019 156.708 28.0892 152.655 27.0275 148.022C25.7005 142.231 24.0115 142.472 19.4272 142.593C15.7597 142.69 12.8321 140.381 11.8268 139.215C10.4997 137.204 7.70087 132.845 7.1218 131.494C5.48108 129.756 4.10576 123.853 3.6232 121.118C3.26128 118.585 2.46506 112.963 2.17551 110.743C0.124619 99.6437 1.33104 93.9734 1.57233 93.0082C0.365921 88.7857 29.8023 85.0457 30.888 84.8044C34.652 84.6114 55.0564 81.2656 64.7881 79.6167C71.1821 78.4907 84.5973 76.1422 87.1067 75.7561C90.0021 74.9116 100.618 74.6704 104.962 74.1878C109.425 73.2226 131.141 76.1181 135.242 76.6007C138.331 77.1797 155.751 79.4157 164.076 80.4613C172.319 81.4264 190.158 83.5256 195.563 84.2012Z" fill="#B5553D"/>
<path fill-rule="evenodd" clip-rule="evenodd" d="M212.356 91.2173L212.574 91.1763C212.512 90.8473 212.371 90.326 212.147 89.8238C211.925 89.3271 211.612 88.8282 211.196 88.5653C209.521 87.3415 204.08 84.7821 195.578 84.2018C190.168 83.5257 172.335 81.4271 164.093 80.4622C155.766 79.4162 138.351 77.1809 135.268 76.6027L135.264 76.602L135.26 76.6015C134.782 76.5453 134.065 76.4563 133.164 76.3445C130.198 75.9765 125.238 75.3609 120.253 74.852C117.003 74.5201 113.739 74.2334 111.009 74.0899C108.289 73.9471 106.082 73.9452 104.945 74.1892C103.358 74.3653 100.933 74.5092 98.3507 74.6625C97.406 74.7186 96.4402 74.7759 95.4867 74.8365C93.7069 74.9496 91.9709 75.0741 90.4982 75.2233C89.0336 75.3716 87.8203 75.5452 87.0837 75.7588C84.5529 76.1487 71.157 78.4939 64.7706 79.6186C59.905 80.4429 52.3718 81.6914 45.5847 82.758C38.7928 83.8253 32.759 84.7085 30.885 84.8046L30.8749 84.8051L30.8651 84.8073C30.7396 84.8352 30.2036 84.9142 29.3481 85.0403L29.2528 85.0543C28.3463 85.188 27.1116 85.3704 25.6644 85.5957C22.77 86.0464 19.0244 86.6688 15.3498 87.4158C11.6766 88.1625 8.06895 89.0349 5.45322 89.9862C4.14668 90.4614 3.07857 90.9595 2.37296 91.4767C2.19278 91.6087 2.03316 91.7445 1.8985 91.8836L1.72726 91.7179C1.44069 92.0141 1.30051 92.4222 1.41902 92.9097C1.42198 92.993 1.43526 93.0771 1.4595 93.1621L1.49689 93.1514C1.49924 93.1573 1.50165 93.1632 1.50407 93.1691C1.74741 93.7615 2.35722 94.4479 3.49022 95.2048C5.75844 96.72 10.1789 98.5537 18.1929 100.485C26.1961 102.413 30.1425 104.858 31.8387 107.106C32.6845 108.227 32.9704 109.298 32.9247 110.236C32.879 111.175 32.5002 111.991 32.0016 112.597L31.9999 112.599L31.9983 112.601C30.8275 114.162 30.5684 115.402 30.7458 116.327C30.9229 117.251 31.5302 117.834 32.0408 118.09C43.1172 123.604 61.891 125.976 80.8381 126.707C99.7918 127.438 118.943 126.527 130.79 125.461L130.794 125.461L130.799 125.46C132.373 125.198 134.195 124.757 135.896 124.132C137.595 123.508 139.183 122.695 140.283 121.684C141.385 120.67 142.007 119.444 141.735 118.005C141.465 116.577 140.319 114.972 137.97 113.181C136.51 112.067 135.857 111.132 135.805 110.356C135.754 109.595 136.281 108.926 137.359 108.336C138.433 107.748 140.015 107.261 141.984 106.857C143.951 106.452 146.296 106.131 148.887 105.871C155.509 105.207 163.724 104.943 171.36 104.697C175.685 104.558 179.825 104.425 183.385 104.228C199.154 103.357 209.311 95.2396 212.427 91.2731L212.356 91.2173ZM164.064 80.7016C155.746 79.6569 138.332 77.4218 135.227 76.8407C134.748 76.7843 134.031 76.6953 133.131 76.5836C130.165 76.2155 125.211 75.6006 120.229 75.092C116.98 74.7603 113.721 74.474 110.996 74.3309C108.265 74.1875 106.088 74.1891 104.99 74.4264L104.984 74.4277L104.978 74.4283C103.384 74.6055 100.946 74.7502 98.3577 74.9038C97.4146 74.9598 96.4515 75.0169 95.502 75.0773C93.7229 75.1904 91.9905 75.3147 90.5226 75.4634C89.0517 75.6123 87.8555 75.785 87.1436 75.9926L87.136 75.9948L87.1282 75.996C84.6205 76.3818 71.2072 78.73 64.8122 79.8562L64.8114 79.8564C59.9453 80.6808 52.4108 81.9296 45.6221 82.9964C38.8494 84.0606 32.8082 84.9456 30.9072 85.0451C30.7574 85.0765 30.2272 85.1546 29.4195 85.2737L29.2879 85.2931C28.3815 85.4267 27.1477 85.609 25.7015 85.8342C22.8089 86.2846 19.0673 86.9063 15.3978 87.6523C11.727 88.3985 8.1339 89.268 5.53569 90.213C4.23524 90.686 3.19308 91.1747 2.51558 91.6713C1.9389 92.0939 1.65865 92.4965 1.66048 92.8805C1.67735 92.9441 1.69946 93.0098 1.72725 93.0774C1.94386 93.6048 2.50728 94.258 3.62424 95.0041C5.85591 96.495 10.2422 98.3208 18.2494 100.25C26.2672 102.182 30.2831 104.644 32.0313 106.96C32.9076 108.122 33.2144 109.247 33.1657 110.247C33.1172 111.245 32.7158 112.107 32.1897 112.748C31.0456 114.274 30.8224 115.446 30.9828 116.282C31.1435 117.12 31.6943 117.646 32.1488 117.874C43.1738 123.362 61.8993 125.735 80.8474 126.466C99.7866 127.197 118.925 126.286 130.764 125.221C132.325 124.961 134.13 124.524 135.813 123.906C137.499 123.286 139.053 122.487 140.119 121.506C141.183 120.527 141.749 119.38 141.498 118.05C141.244 116.71 140.156 115.152 137.824 113.372C136.358 112.254 135.624 111.262 135.564 110.372C135.504 109.465 136.142 108.727 137.243 108.124C138.349 107.519 139.959 107.026 141.936 106.62C143.914 106.214 146.267 105.892 148.863 105.631C155.491 104.966 163.725 104.701 171.368 104.455C175.69 104.316 179.824 104.183 183.372 103.987C199.066 103.12 209.161 95.0397 212.237 91.1241L212.333 91.1992C212.272 90.8848 212.137 90.3939 211.926 89.9223C211.709 89.4356 211.419 88.9903 211.064 88.7672L211.061 88.765L211.057 88.7625C209.431 87.5725 204.034 85.0202 195.558 84.4423L195.554 84.442L195.551 84.4416C190.147 83.7661 172.309 81.6669 164.065 80.7018L164.064 80.7016Z" fill="#68AA0C"/>
<path d="M135.227 76.8407C138.332 77.4218 155.746 79.6569 164.064 80.7016L164.065 80.7018C172.309 81.6669 190.147 83.7661 195.551 84.4416L195.554 84.442L195.558 84.4423C204.034 85.0202 209.431 87.5725 211.057 88.7625L211.061 88.765L211.064 88.7672C211.419 88.9903 211.709 89.4356 211.926 89.9223C212.137 90.3939 212.272 90.8848 212.333 91.1992L212.237 91.1241C209.161 95.0397 199.066 103.12 183.372 103.987C179.824 104.183 175.69 104.316 171.368 104.455C163.725 104.701 155.491 104.966 148.863 105.631C146.267 105.892 143.914 106.214 141.936 106.62C139.959 107.026 138.349 107.519 137.243 108.124C136.142 108.727 135.504 109.465 135.564 110.372C135.624 111.262 136.358 112.254 137.824 113.372C140.156 115.152 141.244 116.71 141.498 118.05C141.749 119.38 141.183 120.527 140.119 121.506C139.053 122.487 137.499 123.286 135.813 123.906C134.13 124.524 132.325 124.961 130.764 125.221C118.925 126.286 99.7866 127.197 80.8474 126.466C61.8993 125.735 43.1738 123.362 32.1488 117.874C31.6943 117.646 31.1435 117.12 30.9828 116.282C30.8224 115.446 31.0456 114.274 32.1897 112.748C32.7158 112.107 33.1172 111.245 33.1657 110.247C33.2144 109.247 32.9076 108.122 32.0313 106.96C30.2831 104.644 26.2672 102.182 18.2494 100.25C10.2422 98.3208 5.85591 96.495 3.62424 95.0041C2.50728 94.258 1.94386 93.6048 1.72725 93.0774C1.69946 93.0098 1.67735 92.9441 1.66048 92.8805C1.65865 92.4965 1.9389 92.0939 2.51558 91.6713C3.19308 91.1747 4.23524 90.686 5.53569 90.213C8.1339 89.268 11.727 88.3985 15.3978 87.6523C19.0673 86.9063 22.8089 86.2846 25.7015 85.8342C27.1477 85.609 28.3815 85.4267 29.2879 85.2931L29.4195 85.2737C30.2272 85.1546 30.7574 85.0765 30.9072 85.0451C32.8082 84.9456 38.8494 84.0606 45.6221 82.9964C52.4108 81.9296 59.9453 80.6808 64.8114 79.8564L64.8122 79.8562C71.2072 78.73 84.6205 76.3818 87.1282 75.996L87.136 75.9948L87.1436 75.9926C87.8555 75.785 89.0517 75.6123 90.5226 75.4634C91.9905 75.3147 93.7229 75.1904 95.502 75.0773C96.4515 75.0169 97.4146 74.9598 98.3577 74.9038C100.946 74.7502 103.384 74.6055 104.978 74.4283L104.984 74.4277L104.99 74.4264C106.088 74.1891 108.265 74.1875 110.996 74.3309C113.721 74.474 116.98 74.7603 120.229 75.092C125.211 75.6006 130.165 76.2155 133.131 76.5836C134.031 76.6953 134.748 76.7843 135.227 76.8407Z" fill="#68AA0C"/>
<path d="M197.151 114.02C197.922 114.117 199.882 104.742 200.766 100.043V99.6816L200.284 100.043L193.898 102.332L189.44 103.537L183.174 104.26L164.498 104.863C158.635 105.264 145.75 106.236 141.124 106.911C136.497 107.586 135.581 109.602 135.701 110.526C135.862 111.169 136.882 112.96 139.678 114.984C142.473 117.008 141.806 119.844 141.124 121.009C141.413 123.515 140.039 130.488 139.316 133.661C138.449 135.299 137.348 141.252 136.906 144.023C136.81 146.722 133.412 153.984 131.725 157.277C136.834 156.891 143.975 153.743 146.907 152.216C146.867 142.135 146.811 121.659 146.907 120.406C146.329 117.033 147.389 115.787 147.991 115.587C148.281 117.611 149.799 121.732 150.522 123.539C153.293 126.31 152.449 107.152 152.69 106.55C152.931 105.947 165.703 105.706 168.595 105.345C170.908 105.056 179.278 105.465 183.174 105.706C184.909 115.346 183.897 131.411 183.174 138.239C184.861 137.396 186.668 134.383 189.199 131.853C191.223 129.829 194.058 129.644 195.223 129.805C192.524 124.792 194.5 112.534 195.826 107.032C196.308 107.417 196.91 111.851 197.151 114.02Z" fill="#8A4130"/>
<path d="M119.562 128.001C119.852 128.29 124.342 126.595 126.551 125.711H125.225L116.671 126.314L104.622 126.796H87.5123L77.0297 126.434L61.0047 125.109L53.1729 124.025L41.6059 121.494L33.1717 118.602L31.1234 117.156L30.7619 115.831L31.1234 114.024L32.2078 112.578L33.1717 110.65L32.6897 108.24L28.8341 104.143L22.8096 101.613L14.0139 99.2031L5.09769 96.0703V96.9138C7.98943 99.7092 14.0942 101.211 16.7851 101.613C16.8815 103.252 19.1548 112.176 20.2793 116.434C22.5927 124.049 23.894 125.631 24.2555 125.47C25.9905 126.434 26.7456 120.57 26.9062 117.518C29.0268 121.759 31.0832 144.107 31.8463 154.75C36.2803 158.51 41.6461 159.771 43.7747 159.931C42.4252 159.16 39.9191 153.425 38.8347 150.653C35.3646 144.773 32.2479 126.675 31.1234 118.361C33.244 121.253 37.6298 123.02 39.5576 123.543C41.871 125.085 55.5425 126.193 62.0891 126.555C65.27 128.965 64.298 160.574 63.4145 176.077C70.8366 175.595 78.6363 179.17 81.6083 181.018C78.331 164.438 79.8411 138.765 81.0059 128.001L90.645 127.519C91.0065 128.362 97.3924 149.087 99.9227 151.256C102.453 153.425 103.176 147.28 103.899 145.593C104.477 144.243 105.907 140.853 106.55 139.327C106.646 137.978 109 135.953 110.164 135.11C111.514 137.713 115.305 137.239 117.032 136.676C119.803 134.989 119.201 127.639 119.562 128.001Z" fill="#8A4130"/>
<path d="M174.855 117.89C175.337 120.782 174.333 123.915 173.771 125.12C169.722 122.132 170.638 117.208 171.602 115.119C172.486 114.838 174.373 114.998 174.855 117.89Z" fill="#8A4130"/>
<path d="M124.25 154.52C128.009 152.881 126.86 145.644 125.816 142.23C125.294 141.467 124.202 140.181 124.009 141.145C123.816 142.109 122.161 144.117 121.358 145.001C120.756 148.857 120.491 156.159 124.25 154.52Z" fill="#8A4130"/>
<path d="M116.057 156.93C117.31 154.52 118.266 156.408 118.587 157.653C118.968 158.617 118.746 159.5 118.587 159.822C117.221 159.862 114.804 159.34 116.057 156.93Z" fill="#8A4130"/>
<path d="M23.6414 132.108C24.6053 133.169 25.9709 140.824 26.5332 144.519C26.6273 145.124 26.4117 145.333 26.2922 145.363L25.9307 144.519L25.3283 143.676L24.7258 143.194L23.5209 142.712L21.7136 142.471L20.0267 142.591L17.7375 142.471L18.8219 141.627C20.0267 141.266 22.4365 130.783 23.6414 132.108Z" fill="#8A4130"/>
<path d="M193.96 109.139C185.883 106.1 182.931 98.7437 182.465 95.4457C208.181 90.6669 205.375 108.833 205.675 113.797C202.956 113.397 193.295 103.176 191.862 102.043C194.101 104.282 194.194 107.707 193.96 109.139Z" fill="#68AA0C"/>
<path d="M185.244 75.981C181.628 77.444 177.422 82.758 175.771 85.2322C175.762 87.4901 179.431 90.3548 181.266 91.5049C182.895 91.2328 186.857 88.8756 189.681 81.6237C186.189 81.6557 183.493 83.926 182.581 85.0572C182.549 84.3924 183.038 81.6465 185.244 75.981Z" fill="#6EBC30"/>
<path d="M184.111 76.9088C180.496 78.3718 176.29 83.6858 174.639 86.1599C174.63 88.4178 178.298 91.2825 180.134 92.4326C181.762 92.1605 185.724 89.8033 188.548 82.5514C185.056 82.5834 182.36 84.8538 181.448 85.9849C181.417 85.3202 181.905 82.5743 184.111 76.9088Z" fill="#68AA0C"/>
<path d="M16.6366 79.8552C30.4127 71.0389 35.3718 86.4663 32.2027 92.8043C32.2027 96.3874 22.4229 102.721 19.3924 95.1446C16.9679 89.0833 12.3211 87.2007 10.3008 87.017C14.1579 82.3872 21.2751 82.8838 24.3516 83.7108C22.5883 80.6251 18.4735 79.8547 16.6366 79.8552Z" fill="#68AA0C"/>
<path fill-rule="evenodd" clip-rule="evenodd" d="M26.3757 77.4795C23.8526 76.7882 20.6124 77.314 16.6385 79.8572C18.3852 79.8567 22.1911 80.5531 24.0769 83.2741C25.7594 83.2927 27.2622 83.5346 28.3027 83.8143C26.5395 80.7286 22.4247 79.9582 20.5877 79.9587C22.7293 78.5882 24.6577 77.8036 26.3757 77.4795ZM26.1721 98.4169C25.0178 97.9227 24.015 96.9269 23.3435 95.2481C20.9191 89.1869 16.2723 87.3042 14.252 87.1205C16.3814 84.5644 19.5046 83.5709 22.3928 83.3329C18.8721 82.8698 13.4808 83.2042 10.3027 87.0189C12.3231 87.2026 16.9699 89.0853 19.3943 95.1466C20.7743 98.5967 23.5538 99.1624 26.1721 98.4169Z" fill="#6EBC30"/>
<path d="M151.382 114.988C143.305 111.948 140.353 104.592 139.887 101.294C152.841 97.776 156.681 106.825 156.981 111.79C154.262 111.39 150.717 109.024 149.284 107.891C151.523 110.13 151.616 113.555 151.382 114.988Z" fill="#68AA0C"/>
<path opacity="0.2" d="M91.561 112.079C97.8003 105.831 105.902 106.181 109.173 107.137C106.99 120.696 96.9357 120.46 92.1815 118.646C93.7006 116.28 97.4008 113.973 99.061 113.115C96.0296 114.258 92.7979 112.901 91.561 112.079Z" fill="#949494"/>
<path d="M91.8621 111.135C97.1297 105.859 103.97 106.155 106.731 106.962C104.888 118.41 96.3998 118.21 92.3859 116.679C93.6685 114.682 96.7924 112.734 98.1941 112.009C95.6348 112.975 92.9064 111.828 91.8621 111.135Z" fill="#6EBC30"/>
<path d="M94.5537 110.354C99.6327 104.993 106.016 105.082 108.573 105.797C106.512 117.146 98.585 117.2 94.8791 115.809C96.1369 113.8 99.1141 111.785 100.445 111.029C98.0251 112.057 95.5091 111.007 94.5537 110.354Z" fill="#68AA0C"/>
<path d="M79.9472 136.784C75.6429 127.181 78.6359 122.091 80.6704 120.746C91.3467 116.939 93.3997 131.316 82.7422 138.543C83.3173 137.968 84.3371 134.658 83.9072 126.017C83.9083 129.107 81.3171 134.403 79.9472 136.784Z" fill="#68AA0C"/>
<ellipse cx="89.8326" cy="96.0665" rx="30.5983" ry="7.26374" fill="#366C00" fill-opacity="0.75"/>
<ellipse cx="104.514" cy="96.0665" rx="30.5983" ry="7.26374" fill="#366C00" fill-opacity="0.75"/>
<g clip-path="url(#clip0_25197_560061)">
<path d="M132.272 18.1388C132.385 17.0628 131.991 16.0743 131.3 15.3828L95.1895 51.4941C114.454 51.4941 130.307 36.8837 132.272 18.1388Z" fill="#64AD36"/>
<path d="M131.121 16.987C131.531 16.2085 131.564 15.647 131.3 15.3825C130.608 14.6911 129.62 14.2969 128.544 14.4098C109.799 16.3751 95.1895 32.2283 95.1895 51.4938C108.505 45.5438 123.974 30.5496 131.121 16.987Z" fill="#75C231"/>
<path d="M66.8218 14.4057C66.6043 14.3853 66.3918 14.3876 66.1826 14.4008L95.0071 48.8657C95.0133 48.8667 95.0133 97.1419 95.0133 97.1419H102.16V49.444C102.16 31.2412 86.6814 16.2626 66.8218 14.4057Z" fill="#64AD36"/>
<path d="M68.0659 14.4095C68.036 14.4056 68.007 14.407 67.9773 14.4043C67.1399 14.4634 66.3844 14.8228 65.8249 15.3822C65.1335 16.0737 64.7393 17.0622 64.8522 18.1382C66.5822 34.6399 79.0753 47.9348 95.1835 50.8814C94.9346 31.8934 83.1469 16.3539 68.0659 14.4095Z" fill="#75C231"/>
</g>
<defs>
<clipPath id="clip0_25197_560061">
<rect width="115.129" height="115.132" fill="white" transform="translate(40.998)"/>
</clipPath>
</defs>
</svg>
