<svg width="14" height="14" viewBox="0 0 14 14" fill="none" xmlns="http://www.w3.org/2000/svg">
<path d="M11.9587 2.30492C11.6854 2.08056 11.3651 1.91803 11.0207 1.82886C10.6762 1.73969 10.316 1.72608 9.9656 1.78898L8.10769 2.12021C7.67874 2.19755 7.28873 2.41423 7.00032 2.73542C6.71117 2.41367 6.32004 2.19695 5.89005 2.12021L4.03505 1.78898C3.68464 1.72602 3.32442 1.73946 2.97988 1.82834C2.63535 1.91722 2.31493 2.07938 2.04129 2.30332C1.76766 2.52727 1.54751 2.80753 1.39643 3.12427C1.24534 3.44101 1.16702 3.78648 1.16699 4.13624L1.16699 9.28753C1.16702 9.84632 1.36677 10.3874 1.73143 10.8164C2.09609 11.2455 2.60253 11.5352 3.16248 11.6353L6.21817 12.1808C6.73537 12.2731 7.26528 12.2731 7.78248 12.1808L10.8406 11.6353C11.4001 11.5347 11.906 11.2447 12.2702 10.8158C12.6343 10.3868 12.8337 9.84598 12.8337 9.28753V4.13624C12.8339 3.78661 12.7556 3.44123 12.6043 3.12469C12.4531 2.80816 12.2326 2.52825 11.9587 2.30492ZM6.51421 11.2611C6.47338 11.2554 6.43255 11.2487 6.39171 11.2415L3.33651 10.6965C3.00049 10.6364 2.69659 10.4625 2.47778 10.205C2.25898 9.94756 2.13916 9.62285 2.13921 9.28753V4.13624C2.13921 3.75649 2.29286 3.3923 2.56635 3.12378C2.83984 2.85526 3.21077 2.7044 3.59755 2.7044C3.68558 2.70461 3.77342 2.71243 3.86005 2.72779L5.71699 3.06188C5.94041 3.10202 6.14247 3.2177 6.2881 3.38884C6.43372 3.55998 6.51372 3.77578 6.51421 3.99878V11.2611ZM11.8614 9.28753C11.8615 9.62285 11.7417 9.94756 11.5229 10.205C11.3041 10.4625 11.0002 10.6364 10.6641 10.6965L7.60894 11.2415C7.5681 11.2487 7.52727 11.2554 7.48644 11.2611V3.99878C7.4864 3.77523 7.56628 3.55876 7.71215 3.38711C7.85802 3.21545 8.06062 3.09951 8.28463 3.0595L10.1421 2.7254C10.3524 2.68783 10.5686 2.69612 10.7753 2.7497C10.982 2.80328 11.1742 2.90083 11.3383 3.03545C11.5023 3.17006 11.6342 3.33845 11.7247 3.52867C11.8151 3.7189 11.8618 3.92632 11.8614 4.13624V9.28753Z" fill="#FF8A00"/>
</svg>
