<svg width="24" height="24" viewBox="0 0 24 24" fill="none" xmlns="http://www.w3.org/2000/svg">
<g clip-path="url(#clip0_24631_516331)">
<path d="M13.5124 15.8325L8.59868 10.9188L13.5124 15.8325ZM13.5124 15.8325C12.3241 16.3923 11.5 17.6006 11.5 19V21.5H5C2.51914 21.5 0.5 19.4809 0.5 17V16.9941L6.57508 10.919C6.57514 10.919 6.5752 10.9189 6.57525 10.9189C7.134 10.3618 8.04165 10.3628 8.59845 10.9186L13.5124 15.8325ZM20 19.5H19.5V20V23C19.5 23.2765 19.2762 23.5 19 23.5C18.7238 23.5 18.5 23.2765 18.5 23V20V19.5H18H15C14.7238 19.5 14.5 19.2765 14.5 19C14.5 18.7235 14.7238 18.5 15 18.5H18H18.5V18V15C18.5 14.7235 18.7238 14.5 19 14.5C19.2762 14.5 19.5 14.7235 19.5 15V18V18.5H20H23C23.2762 18.5 23.5 18.7235 23.5 19C23.5 19.2765 23.2762 19.5 23 19.5H20ZM16.5 6C16.5 6.27553 16.2752 6.5 16 6.5C15.7248 6.5 15.5 6.27553 15.5 6C15.5 5.72447 15.7248 5.5 16 5.5C16.2752 5.5 16.5 5.72447 16.5 6ZM4.45433 8.79756L0.5 12.7519V5C0.5 2.51914 2.51914 0.5 5 0.5H17C19.4809 0.5 21.5 2.51914 21.5 5V11.5H19C17.4929 11.5 16.2076 12.4561 15.7153 13.7932L10.7196 8.79745C8.99139 7.06929 6.18181 7.06908 4.45445 8.79745C4.45441 8.79748 4.45437 8.79752 4.45433 8.79756ZM12.5 6C12.5 7.93014 14.0699 9.5 16 9.5C17.9301 9.5 19.5 7.93014 19.5 6C19.5 4.06986 17.9301 2.5 16 2.5C14.0699 2.5 12.5 4.06986 12.5 6Z" fill="#FF8A00" stroke="#FF8A00"/>
</g>
<defs>
<clipPath id="clip0_24631_516331">
<rect width="24" height="24" fill="white"/>
</clipPath>
</defs>
</svg>
