<svg width="64" height="64" viewBox="0 0 64 64" fill="none" xmlns="http://www.w3.org/2000/svg">
<g opacity="0.14" filter="url(#filter0_d_24356_511907)">
<rect x="8" y="4" width="48" height="48" rx="2" fill="#FF8A00"/>
</g>
<path d="M38.3279 24.3672C36.9711 24.3672 35.8672 25.4711 35.8672 26.828C35.8672 28.6289 37.746 29.8165 39.3673 29.0576L38.935 28.6253C38.5918 28.2821 38.5918 27.7256 38.935 27.3824C39.2782 27.0392 39.8347 27.0392 40.178 27.3824L40.5904 27.7948C41.2843 26.1778 40.0905 24.3672 38.3279 24.3672Z" fill="#FF8A00"/>
<path d="M44.3632 17.1289H19.6367C18.1828 17.1289 17 18.3117 17 19.7656V33.8871C17 35.341 18.1828 36.5238 19.6367 36.5238H29.8027L31.2969 38.5159C31.6486 38.9848 32.3522 38.9838 32.7031 38.5159L34.1973 36.5238H44.3632C45.8172 36.5238 46.9999 35.341 46.9999 33.8871V19.7656C46.9999 18.3117 45.8171 17.1289 44.3632 17.1289ZM24.7805 25.9091C25.2659 25.9091 25.6594 26.3026 25.6594 26.788C25.6594 27.2734 25.2659 27.6669 24.7805 27.6669H23.1855V30.1659C23.1855 30.6513 22.7919 31.0448 22.3066 31.0448C21.8212 31.0448 21.4277 30.6513 21.4277 30.1659V23.5355C21.4277 23.0502 21.8212 22.6566 22.3066 22.6566H24.9939C25.4793 22.6566 25.8728 23.0502 25.8728 23.5355C25.8728 24.0209 25.4793 24.4145 24.9939 24.4145H23.1855V25.9091H24.7805ZM32.6913 30.9882C32.2371 31.1597 31.7301 30.9303 31.5587 30.4762L31.1543 29.4047H28.3381L27.929 30.4788C27.7559 30.9331 27.2475 31.1598 26.7948 30.9873C26.3412 30.8145 26.1136 30.3068 26.2863 29.8531L28.7943 23.2678C28.9376 22.8866 29.3121 22.6081 29.7549 22.6077C30.1732 22.6072 30.5485 22.8564 30.7087 23.246C30.7171 23.2667 30.6058 22.9722 33.2034 29.8556C33.3747 30.3097 33.1454 30.8169 32.6913 30.9882ZM42.3151 30.7605C41.9718 31.1037 41.4154 31.1037 41.0721 30.7605L40.6547 30.343C39.9873 30.7859 39.1875 31.0448 38.3282 31.0448C36.002 31.0448 34.1097 29.1524 34.1097 26.8263C34.1097 24.5002 36.002 22.6077 38.3282 22.6077C40.6542 22.6077 42.5468 24.5002 42.5468 26.8263C42.5468 27.6583 42.3036 28.4342 41.8861 29.0885L42.3151 29.5174C42.6583 29.8607 42.6583 30.4172 42.3151 30.7605Z" fill="#FF8A00"/>
<path d="M29.0078 27.648H30.4913L29.7529 25.6914L29.0078 27.648Z" fill="#FF8A00"/>
<defs>
<filter id="filter0_d_24356_511907" x="0" y="0" width="64" height="64" filterUnits="userSpaceOnUse" color-interpolation-filters="sRGB">
<feFlood flood-opacity="0" result="BackgroundImageFix"/>
<feColorMatrix in="SourceAlpha" type="matrix" values="0 0 0 0 0 0 0 0 0 0 0 0 0 0 0 0 0 0 127 0" result="hardAlpha"/>
<feOffset dy="4"/>
<feGaussianBlur stdDeviation="4"/>
<feComposite in2="hardAlpha" operator="out"/>
<feColorMatrix type="matrix" values="0 0 0 0 0.0980392 0 0 0 0 0.145098 0 0 0 0 0.270588 0 0 0 0.24 0"/>
<feBlend mode="normal" in2="BackgroundImageFix" result="effect1_dropShadow_24356_511907"/>
<feBlend mode="normal" in="SourceGraphic" in2="effect1_dropShadow_24356_511907" result="shape"/>
</filter>
</defs>
</svg>
