<svg width="213" height="197" viewBox="0 0 213 197" fill="none" xmlns="http://www.w3.org/2000/svg">
<path d="M195.591 123.928C202.049 125.181 206.314 122.844 207.64 121.518L208.242 121.037L207.76 122.241L204.628 132.363L203.543 132.001C199.446 131.037 189.687 133.206 183.18 136.098C176.674 138.99 173.541 139.351 164.505 140.315C157.275 141.086 150.809 148.509 148.48 152.124C144.528 150.485 133.9 157.465 129.081 161.161C120.285 160.076 116.309 163.932 111.851 170.8C107.393 177.668 100.163 177.547 95.3438 179.234C90.5243 180.921 79.0778 173.451 72.6919 170.8C71.3424 165.98 63.6953 165.82 60.0405 166.342C54.8595 164.775 47.3891 168.029 42.8105 168.511C38.232 168.993 29.1953 160.92 31.9665 156.823C34.1835 153.545 26.3839 146.942 22.2069 144.051C21.2832 142.042 18.2308 138.46 13.4112 140.195C8.59163 141.93 5.53923 140.355 4.61548 139.351L3.16962 132.001L1.48277 120.916L1.84424 121.157C2.24586 121.478 3.4106 122.579 4.85646 124.41C6.6638 126.7 14.6161 127.664 18.8332 128.146C23.0503 128.628 32.81 145.135 36.3041 149.593C39.7983 154.051 55.5824 153.328 60.0405 153.569C63.607 153.762 73.4148 158.229 77.8729 160.438C81.2868 162.687 89.3194 166.534 94.1389 163.932C100.163 160.679 106.911 162.847 110.405 161.642C113.899 160.438 120.044 153.088 120.888 152.124C121.731 151.16 131.491 147.665 135.226 146.219C138.961 144.774 144.262 136.219 147.757 134.05C151.251 131.881 162.215 134.17 164.505 132.001C166.336 130.266 173.863 126.7 177.397 125.133C180.771 124.209 189.133 122.675 195.591 123.928Z" fill="#B4543E" stroke="#B4543E"/>
<path d="M195.563 98.2012C204.056 98.7803 209.477 101.338 211.125 102.544C211.898 103.03 212.332 104.436 212.452 105.078C212.549 110.386 209.919 117.424 208.592 120.279C207.064 124.341 203.815 133.646 203.043 138.376C202.077 144.287 195.563 144.408 194.115 144.529C191.799 144.046 187.842 146.941 187.6 148.148C187.359 149.354 184.021 152.411 182.654 153.336C180.338 155.942 173.566 157.156 170.469 157.438C169.022 157.341 166.73 157.88 165.764 158.161C163.159 158.451 153.017 163.832 148.272 166.486C144.122 169.574 135.283 171.312 131.382 171.794C129.741 175.365 125.068 179.636 122.937 181.325C120.235 184.027 114.653 185.588 112.2 186.03C109.401 185.741 104.037 189.127 101.704 190.856C100.417 192.263 96.6855 195.368 92.0529 196.526C87.4203 197.684 83.3668 196.446 81.9191 195.682C81.2435 195.006 78.4205 193.792 77.0935 193.269C75.4045 191.459 65.15 190.494 63.823 190.615C62.7613 190.711 59.3593 188.885 57.7909 187.96C58.3941 187.719 53.2066 183.979 52.2415 183.014C49.5391 181.856 45.2443 177.062 43.4347 174.81C41.6975 174.617 37.8048 172.96 36.0756 172.156C33.5019 170.708 28.0892 166.655 27.0275 162.022C25.7005 156.231 24.0115 156.472 19.4272 156.593C15.7597 156.69 12.8321 154.381 11.8268 153.215C10.4997 151.204 7.70087 146.845 7.1218 145.494C5.48108 143.756 4.10576 137.853 3.6232 135.118C3.26128 132.585 2.46506 126.963 2.17551 124.743C0.124619 113.644 1.33104 107.973 1.57233 107.008C0.365921 102.786 29.8023 99.0457 30.888 98.8044C34.652 98.6114 55.0564 95.2656 64.7881 93.6167C71.1821 92.4907 84.5973 90.1422 87.1067 89.7561C90.0021 88.9116 100.618 88.6704 104.962 88.1878C109.425 87.2226 131.141 90.1181 135.242 90.6007C138.331 91.1797 155.751 93.4157 164.076 94.4613C172.319 95.4264 190.158 97.5256 195.563 98.2012Z" fill="#B5553D"/>
<path fill-rule="evenodd" clip-rule="evenodd" d="M212.356 105.217L212.574 105.176C212.512 104.847 212.371 104.326 212.147 103.824C211.925 103.327 211.612 102.828 211.196 102.565C209.521 101.342 204.08 98.7821 195.578 98.2018C190.168 97.5257 172.335 95.4271 164.093 94.4622C155.766 93.4162 138.351 91.1809 135.268 90.6027L135.264 90.602L135.26 90.6015C134.782 90.5453 134.065 90.4563 133.164 90.3445C130.198 89.9765 125.238 89.3609 120.253 88.852C117.003 88.5201 113.739 88.2334 111.009 88.0899C108.289 87.9471 106.082 87.9452 104.945 88.1892C103.358 88.3653 100.933 88.5092 98.3507 88.6625C97.406 88.7186 96.4402 88.7759 95.4867 88.8365C93.7069 88.9496 91.9709 89.0741 90.4982 89.2233C89.0336 89.3716 87.8203 89.5452 87.0837 89.7588C84.5529 90.1487 71.157 92.4939 64.7706 93.6186C59.905 94.4429 52.3718 95.6914 45.5847 96.758C38.7928 97.8253 32.759 98.7085 30.885 98.8046L30.8749 98.8051L30.8651 98.8073C30.7396 98.8352 30.2036 98.9142 29.3481 99.0403L29.2528 99.0543C28.3463 99.188 27.1116 99.3704 25.6644 99.5957C22.77 100.046 19.0244 100.669 15.3498 101.416C11.6766 102.163 8.06895 103.035 5.45322 103.986C4.14668 104.461 3.07857 104.96 2.37296 105.477C2.19278 105.609 2.03316 105.744 1.8985 105.884L1.72726 105.718C1.44069 106.014 1.30051 106.422 1.41902 106.91C1.42198 106.993 1.43526 107.077 1.4595 107.162L1.49689 107.151C1.49924 107.157 1.50165 107.163 1.50407 107.169C1.74741 107.761 2.35722 108.448 3.49022 109.205C5.75844 110.72 10.1789 112.554 18.1929 114.485C26.1961 116.413 30.1425 118.858 31.8387 121.106C32.6845 122.227 32.9704 123.298 32.9247 124.236C32.879 125.175 32.5002 125.991 32.0016 126.597L31.9999 126.599L31.9983 126.601C30.8275 128.162 30.5684 129.402 30.7458 130.327C30.9229 131.251 31.5302 131.834 32.0408 132.09C43.1172 137.604 61.891 139.976 80.8381 140.707C99.7918 141.438 118.943 140.527 130.79 139.461L130.794 139.461L130.799 139.46C132.373 139.198 134.195 138.757 135.896 138.132C137.595 137.508 139.183 136.695 140.283 135.684C141.385 134.67 142.007 133.444 141.735 132.005C141.465 130.577 140.319 128.972 137.97 127.181C136.51 126.067 135.857 125.132 135.805 124.356C135.754 123.595 136.281 122.926 137.359 122.336C138.433 121.748 140.015 121.261 141.984 120.857C143.951 120.452 146.296 120.131 148.887 119.871C155.509 119.207 163.724 118.943 171.36 118.697C175.685 118.558 179.825 118.425 183.385 118.228C199.154 117.357 209.311 109.24 212.427 105.273L212.356 105.217ZM164.064 94.7016C155.746 93.6569 138.332 91.4218 135.227 90.8407C134.748 90.7843 134.031 90.6953 133.131 90.5836C130.165 90.2155 125.211 89.6006 120.229 89.092C116.98 88.7603 113.721 88.474 110.996 88.3309C108.265 88.1875 106.088 88.1891 104.99 88.4264L104.984 88.4277L104.978 88.4283C103.384 88.6055 100.946 88.7502 98.3577 88.9038C97.4146 88.9598 96.4515 89.0169 95.502 89.0773C93.7229 89.1904 91.9905 89.3147 90.5226 89.4634C89.0517 89.6123 87.8555 89.785 87.1436 89.9926L87.136 89.9948L87.1282 89.996C84.6205 90.3818 71.2072 92.73 64.8122 93.8562L64.8114 93.8564C59.9453 94.6808 52.4108 95.9296 45.6221 96.9964C38.8494 98.0606 32.8082 98.9456 30.9072 99.0451C30.7574 99.0765 30.2272 99.1546 29.4195 99.2737L29.2879 99.2931C28.3815 99.4267 27.1477 99.609 25.7015 99.8342C22.8089 100.285 19.0673 100.906 15.3978 101.652C11.727 102.399 8.1339 103.268 5.53569 104.213C4.23524 104.686 3.19308 105.175 2.51558 105.671C1.9389 106.094 1.65865 106.497 1.66048 106.881C1.67735 106.944 1.69946 107.01 1.72725 107.077C1.94386 107.605 2.50728 108.258 3.62424 109.004C5.85591 110.495 10.2422 112.321 18.2494 114.25C26.2672 116.182 30.2831 118.644 32.0313 120.96C32.9076 122.122 33.2144 123.247 33.1657 124.247C33.1172 125.245 32.7158 126.107 32.1897 126.748C31.0456 128.274 30.8224 129.446 30.9828 130.282C31.1435 131.12 31.6943 131.646 32.1488 131.874C43.1738 137.362 61.8993 139.735 80.8474 140.466C99.7866 141.197 118.925 140.286 130.764 139.221C132.325 138.961 134.13 138.524 135.813 137.906C137.499 137.286 139.053 136.487 140.119 135.506C141.183 134.527 141.749 133.38 141.498 132.05C141.244 130.71 140.156 129.152 137.824 127.372C136.358 126.254 135.624 125.262 135.564 124.372C135.504 123.465 136.142 122.727 137.243 122.124C138.349 121.519 139.959 121.026 141.936 120.62C143.914 120.214 146.267 119.892 148.863 119.631C155.491 118.966 163.725 118.701 171.368 118.455C175.69 118.316 179.824 118.183 183.372 117.987C199.066 117.12 209.161 109.04 212.237 105.124L212.333 105.199C212.272 104.885 212.137 104.394 211.926 103.922C211.709 103.436 211.419 102.99 211.064 102.767L211.061 102.765L211.057 102.762C209.431 101.572 204.034 99.0202 195.558 98.4423L195.554 98.442L195.551 98.4416C190.147 97.7661 172.309 95.6669 164.065 94.7018L164.064 94.7016Z" fill="#68AA0C"/>
<path d="M135.227 90.8407C138.332 91.4218 155.746 93.6569 164.064 94.7016L164.065 94.7018C172.309 95.6669 190.147 97.7661 195.551 98.4416L195.554 98.442L195.558 98.4423C204.034 99.0202 209.431 101.572 211.057 102.762L211.061 102.765L211.064 102.767C211.419 102.99 211.709 103.436 211.926 103.922C212.137 104.394 212.272 104.885 212.333 105.199L212.237 105.124C209.161 109.04 199.066 117.12 183.372 117.987C179.824 118.183 175.69 118.316 171.368 118.455C163.725 118.701 155.491 118.966 148.863 119.631C146.267 119.892 143.914 120.214 141.936 120.62C139.959 121.026 138.349 121.519 137.243 122.124C136.142 122.727 135.504 123.465 135.564 124.372C135.624 125.262 136.358 126.254 137.824 127.372C140.156 129.152 141.244 130.71 141.498 132.05C141.749 133.38 141.183 134.527 140.119 135.506C139.053 136.487 137.499 137.286 135.813 137.906C134.13 138.524 132.325 138.961 130.764 139.221C118.925 140.286 99.7866 141.197 80.8474 140.466C61.8993 139.735 43.1738 137.362 32.1488 131.874C31.6943 131.646 31.1435 131.12 30.9828 130.282C30.8224 129.446 31.0456 128.274 32.1897 126.748C32.7158 126.107 33.1172 125.245 33.1657 124.247C33.2144 123.247 32.9076 122.122 32.0313 120.96C30.2831 118.644 26.2672 116.182 18.2494 114.25C10.2422 112.321 5.85591 110.495 3.62424 109.004C2.50728 108.258 1.94386 107.605 1.72725 107.077C1.69946 107.01 1.67735 106.944 1.66048 106.881C1.65865 106.497 1.9389 106.094 2.51558 105.671C3.19308 105.175 4.23524 104.686 5.53569 104.213C8.1339 103.268 11.727 102.399 15.3978 101.652C19.0673 100.906 22.8089 100.285 25.7015 99.8342C27.1477 99.609 28.3815 99.4267 29.2879 99.2931L29.4195 99.2737C30.2272 99.1546 30.7574 99.0765 30.9072 99.0451C32.8082 98.9456 38.8494 98.0606 45.6221 96.9964C52.4108 95.9296 59.9453 94.6808 64.8114 93.8564L64.8122 93.8562C71.2072 92.73 84.6205 90.3818 87.1282 89.996L87.136 89.9948L87.1436 89.9926C87.8555 89.785 89.0517 89.6123 90.5226 89.4634C91.9905 89.3147 93.7229 89.1904 95.502 89.0773C96.4515 89.0169 97.4146 88.9598 98.3577 88.9038C100.946 88.7502 103.384 88.6055 104.978 88.4283L104.984 88.4277L104.99 88.4264C106.088 88.1891 108.265 88.1875 110.996 88.3309C113.721 88.474 116.98 88.7603 120.229 89.092C125.211 89.6006 130.165 90.2155 133.131 90.5836C134.031 90.6953 134.748 90.7843 135.227 90.8407Z" fill="#68AA0C"/>
<path d="M197.151 128.02C197.922 128.117 199.882 118.742 200.766 114.043V113.682L200.284 114.043L193.898 116.332L189.44 117.537L183.174 118.26L164.498 118.863C158.635 119.264 145.75 120.236 141.124 120.911C136.497 121.586 135.581 123.602 135.701 124.526C135.862 125.169 136.882 126.96 139.678 128.984C142.473 131.008 141.806 133.844 141.124 135.009C141.413 137.515 140.039 144.488 139.316 147.661C138.449 149.299 137.348 155.252 136.906 158.023C136.81 160.722 133.412 167.984 131.725 171.277C136.834 170.891 143.975 167.743 146.907 166.216C146.867 156.135 146.811 135.659 146.907 134.406C146.329 131.033 147.389 129.787 147.991 129.587C148.281 131.611 149.799 135.732 150.522 137.539C153.293 140.31 152.449 121.152 152.69 120.55C152.931 119.947 165.703 119.706 168.595 119.345C170.908 119.056 179.278 119.465 183.174 119.706C184.909 129.346 183.897 145.411 183.174 152.239C184.861 151.396 186.668 148.383 189.199 145.853C191.223 143.829 194.058 143.644 195.223 143.805C192.524 138.792 194.5 126.534 195.826 121.032C196.308 121.417 196.91 125.851 197.151 128.02Z" fill="#8A4130"/>
<path d="M119.562 142.001C119.852 142.29 124.342 140.595 126.551 139.711H125.225L116.671 140.314L104.622 140.796H87.5123L77.0297 140.434L61.0047 139.109L53.1729 138.025L41.6059 135.494L33.1717 132.602L31.1234 131.156L30.7619 129.831L31.1234 128.024L32.2078 126.578L33.1717 124.65L32.6897 122.24L28.8341 118.143L22.8096 115.613L14.0139 113.203L5.09769 110.07V110.914C7.98943 113.709 14.0942 115.211 16.7851 115.613C16.8815 117.252 19.1548 126.176 20.2793 130.434C22.5927 138.049 23.894 139.631 24.2555 139.47C25.9905 140.434 26.7456 134.57 26.9062 131.518C29.0268 135.759 31.0832 158.107 31.8463 168.75C36.2803 172.51 41.6461 173.771 43.7747 173.931C42.4252 173.16 39.9191 167.425 38.8347 164.653C35.3646 158.773 32.2479 140.675 31.1234 132.361C33.244 135.253 37.6298 137.02 39.5576 137.543C41.871 139.085 55.5425 140.193 62.0891 140.555C65.27 142.965 64.298 174.574 63.4145 190.077C70.8366 189.595 78.6363 193.17 81.6083 195.018C78.331 178.438 79.8411 152.765 81.0059 142.001L90.645 141.519C91.0065 142.362 97.3924 163.087 99.9227 165.256C102.453 167.425 103.176 161.28 103.899 159.593C104.477 158.243 105.907 154.853 106.55 153.327C106.646 151.978 109 149.953 110.164 149.11C111.514 151.713 115.305 151.239 117.032 150.676C119.803 148.989 119.201 141.639 119.562 142.001Z" fill="#8A4130"/>
<path d="M174.855 131.89C175.337 134.782 174.333 137.915 173.771 139.12C169.722 136.132 170.638 131.208 171.602 129.119C172.486 128.838 174.373 128.998 174.855 131.89Z" fill="#8A4130"/>
<path d="M124.25 168.52C128.009 166.881 126.86 159.644 125.816 156.23C125.294 155.467 124.202 154.181 124.009 155.145C123.816 156.109 122.161 158.117 121.358 159.001C120.756 162.857 120.491 170.159 124.25 168.52Z" fill="#8A4130"/>
<path d="M116.057 170.93C117.31 168.52 118.266 170.408 118.587 171.653C118.968 172.617 118.746 173.5 118.587 173.822C117.221 173.862 114.804 173.34 116.057 170.93Z" fill="#8A4130"/>
<path d="M23.6414 146.108C24.6053 147.169 25.9709 154.824 26.5332 158.519C26.6273 159.124 26.4117 159.333 26.2922 159.363L25.9307 158.519L25.3283 157.676L24.7258 157.194L23.5209 156.712L21.7136 156.471L20.0267 156.591L17.7375 156.471L18.8219 155.627C20.0267 155.266 22.4365 144.783 23.6414 146.108Z" fill="#8A4130"/>
<path d="M193.96 123.139C185.883 120.1 182.931 112.744 182.465 109.446C208.181 104.667 205.375 122.833 205.675 127.797C202.956 127.397 193.295 117.176 191.862 116.043C194.101 118.282 194.194 121.707 193.96 123.139Z" fill="#68AA0C"/>
<path d="M185.244 89.981C181.628 91.444 177.422 96.758 175.771 99.2322C175.762 101.49 179.431 104.355 181.266 105.505C182.895 105.233 186.857 102.876 189.681 95.6237C186.189 95.6557 183.493 97.926 182.581 99.0572C182.549 98.3924 183.038 95.6465 185.244 89.981Z" fill="#6EBC30"/>
<path d="M184.111 90.9088C180.496 92.3718 176.29 97.6858 174.639 100.16C174.63 102.418 178.298 105.283 180.134 106.433C181.762 106.161 185.724 103.803 188.548 96.5514C185.056 96.5834 182.36 98.8538 181.448 99.9849C181.417 99.3202 181.905 96.5743 184.111 90.9088Z" fill="#68AA0C"/>
<path d="M16.6366 93.8552C30.4127 85.0389 35.3718 100.466 32.2027 106.804C32.2027 110.387 22.4229 116.721 19.3924 109.145C16.9679 103.083 12.3211 101.201 10.3008 101.017C14.1579 96.3872 21.2751 96.8838 24.3516 97.7108C22.5883 94.6251 18.4735 93.8547 16.6366 93.8552Z" fill="#68AA0C"/>
<path fill-rule="evenodd" clip-rule="evenodd" d="M26.3757 91.4795C23.8526 90.7882 20.6124 91.314 16.6385 93.8572C18.3852 93.8567 22.1911 94.5531 24.0769 97.2741C25.7594 97.2927 27.2622 97.5346 28.3027 97.8143C26.5395 94.7286 22.4247 93.9582 20.5877 93.9587C22.7293 92.5882 24.6577 91.8036 26.3757 91.4795ZM26.1721 112.417C25.0178 111.923 24.015 110.927 23.3435 109.248C20.9191 103.187 16.2723 101.304 14.252 101.121C16.3814 98.5644 19.5046 97.5709 22.3928 97.3329C18.8721 96.8698 13.4808 97.2042 10.3027 101.019C12.3231 101.203 16.9699 103.085 19.3943 109.147C20.7743 112.597 23.5538 113.162 26.1721 112.417Z" fill="#6EBC30"/>
<path d="M151.382 128.988C143.305 125.948 140.353 118.592 139.887 115.294C152.841 111.776 156.681 120.825 156.981 125.79C154.262 125.39 150.717 123.024 149.284 121.891C151.523 124.13 151.616 127.555 151.382 128.988Z" fill="#68AA0C"/>
<path opacity="0.2" d="M91.561 126.079C97.8003 119.831 105.902 120.181 109.173 121.137C106.99 134.696 96.9357 134.46 92.1815 132.646C93.7006 130.28 97.4008 127.973 99.061 127.115C96.0296 128.258 92.7979 126.901 91.561 126.079Z" fill="#949494"/>
<path d="M91.8621 125.135C97.1297 119.859 103.97 120.155 106.731 120.962C104.888 132.41 96.3998 132.21 92.3859 130.679C93.6685 128.682 96.7924 126.734 98.1941 126.009C95.6348 126.975 92.9064 125.828 91.8621 125.135Z" fill="#6EBC30"/>
<path d="M94.5537 124.354C99.6327 118.993 106.016 119.082 108.573 119.797C106.512 131.146 98.585 131.2 94.8791 129.809C96.1369 127.8 99.1141 125.785 100.445 125.029C98.0251 126.057 95.5091 125.007 94.5537 124.354Z" fill="#68AA0C"/>
<path d="M79.9472 150.784C75.6429 141.181 78.6359 136.091 80.6704 134.746C91.3467 130.939 93.3997 145.316 82.7422 152.543C83.3173 151.968 84.3371 148.658 83.9072 140.017C83.9083 143.107 81.3171 148.403 79.9472 150.784Z" fill="#68AA0C"/>
<ellipse cx="89.8326" cy="110.066" rx="30.5983" ry="7.26374" fill="#366C00" fill-opacity="0.75"/>
<ellipse cx="104.514" cy="110.066" rx="30.5983" ry="7.26374" fill="#366C00" fill-opacity="0.75"/>
<path d="M120.127 19.4685C116.264 30.6764 105.852 32.6051 105.852 32.6051C105.852 32.6051 98.9527 24.3446 102.716 13.4278C106.68 1.92852 117.092 0 117.092 0C117.092 0 124.042 8.11485 120.127 19.4685Z" fill="#A4C400"/>
<path d="M117.092 0C117.092 0 114.341 0.510103 111.128 2.56766C112.893 5.82379 115.081 11.9321 112.483 19.4682C110.614 24.8901 107.213 28.1402 104.199 30.0511C105.083 31.6834 105.852 32.6046 105.852 32.6046C105.852 32.6046 116.264 30.6761 120.128 19.468C124.042 8.11485 117.092 0 117.092 0Z" fill="#A4C400"/>
<path d="M98.1112 59.141C97.9393 59.141 97.7644 59.1153 97.5918 59.0611C96.6761 58.7745 96.1663 57.7997 96.4528 56.884C96.8783 55.5242 106.934 23.4436 111.834 11.4295C112.196 10.5411 113.209 10.1144 114.098 10.4767C114.987 10.839 115.413 11.853 115.051 12.7416C110.207 24.6206 99.8724 57.5906 99.7684 57.9223C99.536 58.6652 98.8506 59.141 98.1112 59.141Z" fill="#535353"/>
<path d="M98.1104 110.54C97.1507 110.54 96.373 109.762 96.373 108.803V56.5792C96.373 55.6197 97.1507 54.8418 98.1104 54.8418C99.0701 54.8418 99.8478 55.6197 99.8478 56.5792V108.803C99.8478 109.762 99.0699 110.54 98.1104 110.54Z" fill="#535353"/>
<path d="M109.746 72.1588C103.399 73.0609 98.7258 71.7643 98.7258 71.7643C98.7258 71.7643 94.6845 55.5473 107.314 42.8777C120.617 29.5323 136.445 33.9245 136.445 33.9245C136.445 33.9245 139.917 47.1612 130.716 59.4618" fill="#60A917"/>
<path d="M83.5878 63.6544C94.8543 72.5341 92.9318 85.2621 92.9318 85.2621C92.9318 85.2621 80.7671 89.9177 69.7934 81.2684C58.2344 72.1579 60.1569 59.4301 60.1569 59.4301C60.1569 59.4301 72.1752 54.6592 83.5878 63.6544Z" fill="#A4C400"/>
<path d="M70.669 45.3399C82.0124 59.793 98.2474 57.3076 98.2474 57.3076C98.2474 57.3076 104.17 41.6832 93.1217 27.6053C81.4837 12.7769 65.2487 15.2621 65.2487 15.2621C65.2487 15.2621 59.1784 30.6991 70.669 45.3399Z" fill="#60A917"/>
<path d="M98.1104 106.38C97.1507 106.38 96.3731 105.602 96.3731 104.643C96.3731 94.5489 92.6428 85.9309 85.2862 79.0283C79.7773 73.8594 74.2639 71.6769 74.209 71.6556C73.3148 71.3075 72.8722 70.3002 73.2206 69.4063C73.5685 68.5123 74.5757 68.0694 75.4699 68.4178C75.7203 68.5153 81.6699 70.8703 87.6638 76.4944C93.2222 81.7097 99.848 90.8269 99.848 104.643C99.8478 105.602 99.0699 106.38 98.1104 106.38Z" fill="#535353"/>
<path d="M127.782 78.7122C118.049 85.4422 108.523 80.805 108.523 80.805C108.523 80.805 107.847 70.0495 117.327 63.4944C127.314 56.5897 136.839 61.2269 136.839 61.2269C136.839 61.2269 137.643 71.8951 127.782 78.7122Z" fill="#A4C400"/>
<path d="M136.84 61.2261C136.84 61.2261 131.875 58.81 125.356 60.0642C127.734 60.5147 129.195 61.2261 129.195 61.2261C129.195 61.2261 129.998 71.894 120.138 78.7114C117.499 80.5361 114.876 81.5239 112.453 81.9965C116.129 82.6942 121.917 82.7667 127.783 78.7114C137.643 71.8943 136.84 61.2261 136.84 61.2261Z" fill="#A4C400"/>
<path d="M98.1085 106.381C97.1865 106.381 96.4179 105.656 96.3744 104.725C96.3626 104.471 96.1179 98.4201 99.165 90.9393C101.968 84.0573 108.209 74.6119 122.023 68.6936C122.905 68.3157 123.926 68.7244 124.304 69.6063C124.682 70.4884 124.273 71.5095 123.391 71.8876C113.172 76.2661 106.103 83.1173 102.383 92.2503C99.6219 99.0296 99.8431 104.508 99.8459 104.562C99.8906 105.521 99.1502 106.334 98.1917 106.379C98.1636 106.38 98.1358 106.381 98.1085 106.381Z" fill="#535353"/>
<path d="M97.5212 58.3279C96.8884 58.3279 96.278 57.9806 95.9713 57.3776C89.3271 44.3135 78.0992 32.9224 77.9864 32.8086C77.3106 32.1276 77.315 31.0274 77.9961 30.3517C78.6774 29.6757 79.777 29.6804 80.4529 30.3614C80.9285 30.8407 92.1797 42.2576 99.0684 55.8024C99.5032 56.6577 99.1624 57.7036 98.3074 58.1386C98.0552 58.267 97.786 58.3279 97.5212 58.3279Z" fill="#535353"/>
<path d="M98.6568 73.4221C98.3223 73.4221 97.9843 73.3255 97.6862 73.1242C96.8909 72.5872 96.6817 71.5072 97.2185 70.712C97.6971 70.0031 109.099 53.2612 122.972 45.1892C123.802 44.7065 124.865 44.9877 125.348 45.817C125.83 46.6466 125.549 47.7099 124.72 48.1924C111.527 55.8687 100.211 72.4895 100.098 72.6562C99.7627 73.1538 99.2146 73.4221 98.6568 73.4221Z" fill="#535353"/>
</svg>
