<svg width="14" height="14" viewBox="0 0 14 14" fill="none" xmlns="http://www.w3.org/2000/svg">
<path d="M10.4031 2.14019H9.91699V1.65408C9.91699 1.38575 9.69921 1.16797 9.43088 1.16797C9.16255 1.16797 8.94477 1.38575 8.94477 1.65408V2.14019H5.05588V1.65408C5.05588 1.38575 4.8381 1.16797 4.56977 1.16797C4.30144 1.16797 4.08366 1.38575 4.08366 1.65408V2.14019H3.59755C2.25734 2.14019 1.16699 3.23054 1.16699 4.57075V10.4041C1.16699 11.7443 2.25734 12.8346 3.59755 12.8346H10.4031C11.7433 12.8346 12.8337 11.7443 12.8337 10.4041V4.57075C12.8337 3.23054 11.7433 2.14019 10.4031 2.14019ZM3.59755 3.11241H10.4031C11.2071 3.11241 11.8614 3.76672 11.8614 4.57075V5.05686H2.13921V4.57075C2.13921 3.76672 2.79352 3.11241 3.59755 3.11241ZM10.4031 11.8624H3.59755C2.79352 11.8624 2.13921 11.2081 2.13921 10.4041V6.02908H11.8614V10.4041C11.8614 11.2081 11.2071 11.8624 10.4031 11.8624ZM8.94477 8.94575C8.94477 9.21408 8.72699 9.43186 8.45866 9.43186H5.54199C5.27366 9.43186 5.05588 9.21408 5.05588 8.94575C5.05588 8.67741 5.27366 8.45963 5.54199 8.45963H8.45866C8.72699 8.45963 8.94477 8.67741 8.94477 8.94575Z" fill="#FF8A00"/>
</svg>
