<svg width="16" height="24" viewBox="0 0 16 24" fill="none" xmlns="http://www.w3.org/2000/svg">
<path d="M15.4695 10.9606L8.7601 0.417328C8.58305 0.139125 8.29144 0 7.99984 0L0.227539 12C0.227539 12.3612 0.328414 12.7223 0.530211 13.0394L7.23957 23.5826C7.41662 23.8609 7.70823 24 7.99984 24L15.7721 12C15.7721 11.6388 15.6713 11.2777 15.4695 10.9606Z" fill="#00A763"/>
<path d="M7.99984 0C7.70823 0 7.41662 0.139125 7.23957 0.417328L0.530211 10.9606C0.328461 11.2777 0.227539 11.6389 0.227539 12H3.11504C3.37979 12 3.62621 11.8647 3.76834 11.6414L7.81819 5.27752C7.93679 5.09114 7.99979 4.87481 7.99979 4.65389V0L7.99984 0Z" fill="#70D840"/>
<path d="M12.2313 12.3586L8.18159 18.7224C8.063 18.9088 8 19.1251 8 19.3461V24C8.29161 24 8.58322 23.8608 8.76027 23.5826L15.4696 13.0394C15.6714 12.7223 15.7723 12.3611 15.7723 12H12.8846C12.6199 12 12.3734 12.1352 12.2313 12.3586Z" fill="#008475"/>
<path d="M7.34659 7.46117L4.98727 11.1685C4.6644 11.6758 4.6644 12.3242 4.98727 12.8315L7.34659 16.5389C7.6509 17.0171 8.34896 17.0171 8.65323 16.5388L11.0123 12.8314C11.3351 12.3241 11.3351 11.6758 11.0123 11.1686L8.65323 7.46117C8.34891 6.983 7.6509 6.983 7.34659 7.46117Z" fill="#8EE26B"/>
</svg>
