<svg width="337" height="207" viewBox="0 0 337 207" fill="none" xmlns="http://www.w3.org/2000/svg">
<g clip-path="url(#clip0_25362_360314)">
<path d="M246.125 139.73L261.75 164.73L256.794 169.687C253.966 172.515 250.128 174.105 246.125 174.105C242.122 174.105 238.284 172.515 235.456 169.687L231.794 166.024C228.966 163.196 225.128 161.605 221.125 161.605C217.172 161.605 213.378 163.155 210.559 165.921L199.25 117.855L230.5 124.105C230.5 132.734 237.494 139.73 246.125 139.73Z" fill="#CCAC71"/>
<path d="M89.875 139.73L74.25 164.73L79.2062 169.687C82.0344 172.515 85.8719 174.105 89.875 174.105C93.8781 174.105 97.7156 172.515 100.544 169.687L104.206 166.024C107.034 163.196 110.872 161.605 114.875 161.605C118.828 161.605 122.622 163.155 125.441 165.921L136.75 117.855L105.5 124.105C105.5 132.734 98.5063 139.73 89.875 139.73Z" fill="#CCAC71"/>
<path d="M129.428 148.97L141.691 150.502C150.831 151.645 159.709 154.333 167.95 158.452L168 158.48L168.053 158.455C176.291 154.336 185.172 151.645 194.313 150.505L206.575 148.973L203.756 136.995L177.375 142.855H158.625L132.247 136.992L129.428 148.97Z" fill="#EDD07A"/>
<path d="M164.875 124.105L133.031 133.659L132.247 136.993L158.625 142.855H177.375L203.753 136.993L202.969 133.659L171.125 124.105" fill="#FFB99C"/>
<path d="M117.388 121.727L94.8721 173.193C96.9783 172.449 98.9346 171.296 100.544 169.687L104.206 166.024C104.506 165.724 104.856 165.499 105.178 165.227L124.866 120.23L117.388 121.727Z" fill="#EDD07A"/>
<path d="M218.613 121.728L211.138 120.234L230.825 165.231C231.147 165.503 231.497 165.728 231.797 166.028L235.46 169.691C237.069 171.3 239.025 172.456 241.135 173.197L218.613 121.728Z" fill="#EDD07A"/>
<path d="M136.453 95.832L89.5781 117.707C80.95 117.707 73.9531 124.704 73.9531 133.332C73.9531 141.96 80.95 148.957 89.5781 148.957C98.2062 148.957 105.203 141.96 105.203 133.332L133.328 127.082L130.203 148.957L117.703 186.457C117.703 191.635 121.9 195.832 127.078 195.832H145.828L158.328 170.832H177.078L189.578 195.832H208.328C213.506 195.832 217.703 191.635 217.703 186.457L205.203 148.957L202.078 127.082L230.203 133.332C230.203 141.96 237.2 148.957 245.828 148.957C254.456 148.957 261.453 141.96 261.453 133.332C261.453 124.704 254.456 117.707 245.828 117.707L198.953 95.832" fill="#67AC5B"/>
<path d="M189.578 98.957L202.078 127.082L205.203 148.957L177.078 158.332H158.328L130.203 148.957L133.328 127.082L145.828 98.957" fill="#FAE0B8"/>
<path d="M230.575 110.59L221.644 131.43L211.565 129.193L214.469 103.074L230.575 110.59Z" fill="#9037AA"/>
<path d="M113.762 131.43L104.831 110.59L120.937 103.074L123.84 129.193L113.762 131.43Z" fill="#9037AA"/>
<path d="M185.716 127.082H170.828V105.207H164.578V127.082H149.691L136.303 120.388L133.763 126.107L147.556 133.004C147.988 133.22 148.469 133.332 148.953 133.332H164.578V148.957H170.828V133.332H186.453C186.938 133.332 187.419 133.22 187.85 133.004L201.635 126.088L199.103 120.388L185.716 127.082Z" fill="#D5AC90"/>
<path d="M215.556 180.01L184.75 186.173L180.203 177.082L211.141 166.77L215.556 180.01Z" fill="#9037AA"/>
<path d="M119.853 180.013L150.656 186.173L155.203 177.082L124.266 166.77L119.853 180.013Z" fill="#9037AA"/>
<path d="M132.287 86.9023L119.191 103.312L159.816 112.687V102.334C148.382 100.006 139.034 95.9148 132.287 86.9023Z" fill="#CCAC71"/>
<path d="M175.144 102.336V112.689L215.769 103.314L203.24 84.5234C196.494 93.5359 186.578 100.008 175.144 102.336Z" fill="#CCAC71"/>
<path d="M223.953 70.832C223.953 62.4227 217.941 54.8008 208.216 49.1852C207.034 21.8227 189.378 8.33203 167.703 8.33203C146.028 8.33203 128.372 21.8227 127.191 49.1852C117.466 54.8008 111.453 62.4227 111.453 70.832C111.453 83.9758 126.078 95.2039 146.766 99.8195C152.884 105.132 160.031 108.332 167.703 108.332C175.375 108.332 182.522 105.132 188.641 99.8195C209.328 95.2039 223.953 83.9758 223.953 70.832Z" fill="#97C05C"/>
<path d="M216.644 55.5102C214.3 53.2102 211.487 51.0758 208.212 49.1852C208.016 44.6008 207.319 40.4414 206.253 36.632L186.453 33.332L167.703 39.582L148.953 33.332L129.15 36.632C128.084 40.4383 127.387 44.6008 127.191 49.1852C123.916 51.0758 121.106 53.2102 118.759 55.5102L139.578 61.457L149.669 58.0945C155.403 56.182 161.409 55.207 167.456 55.207H167.95C173.997 55.207 180.003 56.182 185.737 58.0945L195.828 61.457L216.644 55.5102Z" fill="#9037AA"/>
<path d="M145.828 52.082C149.28 52.082 152.078 49.2838 152.078 45.832C152.078 42.3803 149.28 39.582 145.828 39.582C142.376 39.582 139.578 42.3803 139.578 45.832C139.578 49.2838 142.376 52.082 145.828 52.082Z" fill="#657B88"/>
<path d="M189.578 52.082C193.03 52.082 195.828 49.2838 195.828 45.832C195.828 42.3803 193.03 39.582 189.578 39.582C186.126 39.582 183.328 42.3803 183.328 45.832C183.328 49.2838 186.126 52.082 189.578 52.082Z" fill="#657B88"/>
<path d="M167.215 92.7055H168.19C178.712 92.7055 188.9 89.6211 197.659 83.7836L203.812 79.6805L200.347 74.4805L194.194 78.5836C186.462 83.7336 177.472 86.4555 168.19 86.4555H167.215C157.931 86.4555 148.94 83.7336 141.215 78.5836L135.062 74.4805L131.597 79.6805L137.75 83.7836C146.506 89.6211 156.697 92.7055 167.215 92.7055Z" fill="#657B88"/>
<path d="M167.703 154.685C178.223 154.685 186.751 146.157 186.751 135.637C186.751 125.118 178.223 116.59 167.703 116.59C157.183 116.59 148.655 125.118 148.655 135.637C148.655 146.157 157.183 154.685 167.703 154.685Z" fill="#FED984"/>
<path d="M181.97 131.157C184.448 139.035 180.066 147.432 172.181 149.909C164.303 152.387 155.906 148.005 153.429 140.12C150.952 132.242 155.334 123.845 163.218 121.368C171.096 118.891 179.493 123.273 181.97 131.157Z" fill="#D19C00"/>
<path d="M177.221 139.635C176.225 138.64 175.068 137.822 173.8 137.216L173.681 137.156C172.879 136.782 172.04 136.494 171.177 136.295L170.848 136.226C170.788 136.213 170.736 136.177 170.702 136.125V136.098L168.139 130.403L165.613 124.786C165.598 124.751 165.592 124.713 165.595 124.675C165.598 124.636 165.611 124.6 165.632 124.568C165.652 124.535 165.681 124.509 165.714 124.49C165.747 124.472 165.785 124.462 165.823 124.461H170.734C170.779 124.461 170.822 124.475 170.859 124.499C170.896 124.523 170.926 124.558 170.944 124.598L177.596 139.378C177.618 139.427 177.623 139.483 177.609 139.534C177.594 139.586 177.562 139.632 177.518 139.662C177.474 139.693 177.421 139.707 177.367 139.702C177.314 139.697 177.264 139.673 177.226 139.635" fill="#B08300"/>
<path d="M159.317 139.635C160.314 138.639 161.473 137.821 162.743 137.216L162.858 137.156C163.66 136.782 164.499 136.494 165.361 136.295L165.69 136.226C165.751 136.213 165.805 136.177 165.841 136.125V136.098L168.404 130.403L170.93 124.786C170.946 124.751 170.953 124.712 170.951 124.674C170.948 124.635 170.936 124.598 170.915 124.565C170.894 124.533 170.865 124.506 170.831 124.488C170.797 124.47 170.759 124.46 170.72 124.461H165.8C165.755 124.461 165.712 124.475 165.675 124.499C165.637 124.523 165.608 124.558 165.59 124.598L158.947 139.378C158.925 139.427 158.92 139.483 158.934 139.534C158.949 139.586 158.981 139.632 159.025 139.662C159.069 139.693 159.122 139.707 159.176 139.702C159.229 139.697 159.279 139.673 159.317 139.635Z" fill="#B08300"/>
<path d="M179.428 143.465L179.364 143.35V143.318C178.512 141.732 177.332 140.347 175.902 139.256C174.473 138.165 172.828 137.393 171.077 136.991C169.229 136.576 167.314 136.576 165.467 136.991C162.631 137.648 160.109 139.267 158.326 141.573C157.906 142.116 157.531 142.694 157.207 143.3V143.332L157.143 143.447C157.125 143.482 157.116 143.521 157.117 143.56C157.119 143.6 157.13 143.639 157.151 143.672C157.172 143.706 157.201 143.734 157.235 143.753C157.27 143.772 157.309 143.782 157.348 143.781H162.397C162.458 143.781 162.517 143.756 162.561 143.712C163.305 142.94 164.196 142.325 165.182 141.906C166.168 141.486 167.228 141.27 168.299 141.27C169.37 141.27 170.43 141.486 171.416 141.906C172.402 142.325 173.293 142.94 174.037 143.712C174.058 143.734 174.084 143.752 174.112 143.764C174.14 143.776 174.171 143.781 174.201 143.781H179.254C179.293 143.782 179.331 143.772 179.365 143.753C179.4 143.734 179.428 143.707 179.448 143.674C179.469 143.64 179.48 143.602 179.481 143.563C179.482 143.524 179.473 143.486 179.455 143.451" fill="#B08300"/>
<path d="M176.029 138.94C175.033 137.945 173.876 137.127 172.607 136.521L172.488 136.461C171.686 136.087 170.847 135.798 169.985 135.6L169.656 135.531C169.596 135.518 169.544 135.481 169.51 135.43V135.403L166.947 129.708L164.421 124.091C164.406 124.056 164.399 124.017 164.403 123.979C164.406 123.941 164.419 123.904 164.439 123.872C164.46 123.84 164.488 123.814 164.522 123.795C164.555 123.776 164.593 123.766 164.631 123.766H169.542C169.586 123.766 169.63 123.779 169.667 123.804C169.704 123.828 169.734 123.862 169.752 123.903L176.404 138.683C176.426 138.732 176.43 138.787 176.416 138.839C176.402 138.891 176.37 138.936 176.326 138.967C176.282 138.998 176.228 139.012 176.175 139.007C176.121 139.002 176.071 138.978 176.034 138.94" fill="#FFD866"/>
<path d="M158.125 138.94C159.122 137.944 160.28 137.126 161.551 136.521L161.665 136.461C162.467 136.087 163.307 135.798 164.169 135.6L164.498 135.531C164.559 135.518 164.613 135.482 164.648 135.43V135.403L167.211 129.708L169.738 124.091C169.754 124.056 169.761 124.017 169.758 123.979C169.756 123.94 169.743 123.903 169.722 123.87C169.701 123.838 169.672 123.811 169.638 123.793C169.604 123.774 169.566 123.765 169.528 123.766H164.607C164.563 123.766 164.519 123.779 164.482 123.804C164.445 123.828 164.416 123.862 164.397 123.903L157.755 138.683C157.732 138.732 157.728 138.787 157.742 138.839C157.756 138.891 157.788 138.936 157.832 138.967C157.877 138.998 157.93 139.012 157.984 139.007C158.037 139.002 158.087 138.978 158.125 138.94Z" fill="#FFD866"/>
<path d="M178.235 142.77L178.171 142.655V142.623C177.319 141.037 176.139 139.652 174.71 138.561C173.281 137.47 171.635 136.697 169.884 136.296C168.037 135.881 166.121 135.881 164.274 136.296C161.439 136.953 158.917 138.571 157.134 140.877C156.713 141.421 156.339 141.999 156.014 142.605V142.637L155.95 142.751C155.932 142.786 155.923 142.826 155.925 142.865C155.926 142.905 155.938 142.943 155.959 142.977C155.979 143.011 156.009 143.038 156.043 143.057C156.078 143.076 156.117 143.086 156.156 143.086H161.204C161.266 143.086 161.325 143.061 161.369 143.017C162.113 142.244 163.004 141.63 163.99 141.21C164.976 140.791 166.036 140.574 167.107 140.574C168.178 140.574 169.238 140.791 170.223 141.21C171.209 141.63 172.101 142.244 172.845 143.017C172.866 143.039 172.891 143.057 172.92 143.068C172.948 143.08 172.978 143.086 173.009 143.086H178.062C178.101 143.086 178.139 143.077 178.173 143.058C178.207 143.039 178.236 143.012 178.256 142.978C178.276 142.945 178.288 142.907 178.289 142.868C178.29 142.829 178.281 142.79 178.263 142.756" fill="#FFD866"/>
<g style="mix-blend-mode:multiply" opacity="0.28">
<path d="M167.703 154.685C178.223 154.685 186.751 146.157 186.751 135.637C186.751 125.118 178.223 116.59 167.703 116.59C157.183 116.59 148.655 125.118 148.655 135.637C148.655 146.157 157.183 154.685 167.703 154.685Z" fill="#FDCE71"/>
</g>
</g>
<path opacity="0.7" fill-rule="evenodd" clip-rule="evenodd" d="M14.2492 161.783C10.8057 163.421 7.21982 163.262 4.86123 162.621C2.47856 161.973 1.07225 159.516 1.72015 157.133C2.36805 154.751 4.82481 153.344 7.20748 153.992C7.97397 154.201 9.29281 154.239 10.4071 153.709C11.2526 153.306 12.5274 152.333 13.1638 149.367C13.587 146.02 15.3931 141.607 19.4117 138.265C23.655 134.735 29.8834 132.79 38.3315 133.896C40.7798 134.216 42.5049 136.46 42.1847 138.909C41.8644 141.357 39.62 143.082 37.1717 142.762C30.7175 141.917 27.1177 143.486 25.1298 145.139C23.0122 146.901 22.1731 149.211 22.0255 150.569L22.0036 150.771L21.9635 150.969C20.8505 156.49 17.9459 160.024 14.2492 161.783Z" fill="#F15959"/>
<path opacity="0.7" fill-rule="evenodd" clip-rule="evenodd" d="M315.221 75.2135C315.173 75.1046 315.122 75.0002 315.071 74.9033C315.052 74.882 315.034 74.8609 315.016 74.8399C315.101 75.0591 315.185 75.1715 315.221 75.2135ZM308.048 71.9128C307.782 75.2385 308.488 77.9632 310.284 79.8762C312.367 82.0952 315.156 82.404 316.986 82.1206C318.449 81.9008 319.867 81.298 320.908 80.1032C321.943 78.9143 322.265 77.5278 322.294 76.3919C322.348 74.2925 321.442 72.3139 320.784 71.2149L320.654 70.9974L320.493 70.8017C319.319 69.3754 318.084 68.2436 316.814 67.3722C317.251 66.8989 317.775 66.4546 318.399 66.072C320.549 64.7544 324.49 63.8048 331.384 65.9217C333.177 66.4721 335.076 65.4652 335.627 63.6726C336.177 61.8801 335.17 59.9807 333.378 59.4303C325.249 56.9343 319.149 57.6476 314.85 60.2826C312.724 61.5857 311.188 63.2699 310.13 65.017C308.981 64.9472 307.842 65.0331 306.728 65.2517C302.501 66.0821 299.058 68.7341 297.135 70.8603C295.877 72.2512 295.985 74.3982 297.376 75.6559C298.767 76.9136 300.914 76.8056 302.172 75.4148C303.454 73.997 305.678 72.3784 308.037 71.9149C308.041 71.9142 308.044 71.9135 308.048 71.9128Z" fill="#F15959"/>
<path d="M283.229 184.597C283.939 181.947 286.664 180.374 289.315 181.085C291.966 181.795 293.539 184.519 292.829 187.17C292.119 189.82 289.394 191.393 286.743 190.683C284.092 189.972 282.519 187.248 283.229 184.597Z" fill="#C15DFF"/>
<path d="M31.344 172.763C32.4854 168.503 36.8639 165.976 41.1236 167.117C45.3833 168.258 47.9112 172.637 46.7698 176.896C45.6284 181.156 41.2499 183.684 36.9902 182.543C32.7305 181.401 30.2026 177.023 31.344 172.763Z" fill="#F9C160"/>
<path d="M304.651 173.755C305.792 169.496 310.17 166.968 314.43 168.109C318.69 169.251 321.218 173.629 320.076 177.889C318.935 182.148 314.557 184.676 310.297 183.535C306.037 182.394 303.509 178.015 304.651 173.755Z" fill="#F68B8B"/>
<path fill-rule="evenodd" clip-rule="evenodd" d="M36.0937 81.7713C35.7142 84.0884 33.5281 85.659 31.2111 85.2795C28.1496 84.778 23.7333 83.2264 20.1873 80.0231C16.4556 76.652 13.8079 71.5191 14.7346 64.5793C15.0454 62.252 17.1839 60.6173 19.5112 60.9281C21.8385 61.2388 23.4732 63.3774 23.1625 65.7047C22.6443 69.5848 24.0123 72.0201 25.887 73.7137C27.9474 75.575 30.7284 76.5845 32.5856 76.8887C34.9026 77.2682 36.4733 79.4543 36.0937 81.7713Z" fill="#C15DFF"/>
<path fill-rule="evenodd" clip-rule="evenodd" d="M308.968 133.141C306.84 134.109 305.899 136.619 306.867 138.747C308.146 141.558 310.788 145.399 314.79 147.973C319.001 150.681 324.623 151.889 331.052 149.192C333.208 148.287 334.222 145.806 333.317 143.65C332.413 141.494 329.932 140.48 327.776 141.385C324.182 142.893 321.485 142.213 319.369 140.852C317.044 139.356 315.35 136.946 314.574 135.241C313.605 133.113 311.096 132.173 308.968 133.141Z" fill="#72C045"/>
<path d="M43.4995 58.3645C44.2965 55.39 47.354 53.6248 50.3285 54.4218C53.3031 55.2188 55.0683 58.2763 54.2713 61.2508C53.4742 64.2254 50.4168 65.9906 47.4422 65.1936C44.4677 64.3965 42.7025 61.3391 43.4995 58.3645Z" fill="#14A4BE"/>
<path d="M310.252 202.382C310.685 200.768 312.344 199.81 313.958 200.243C315.572 200.675 316.53 202.334 316.098 203.949C315.665 205.563 314.006 206.52 312.392 206.088C310.778 205.656 309.82 203.996 310.252 202.382Z" fill="#14A4BE"/>
<path d="M263.867 57.9204C264.743 54.6513 268.103 52.7113 271.372 53.5872C274.641 54.4632 276.581 57.8234 275.705 61.0925C274.829 64.3616 271.469 66.3016 268.2 65.4257C264.931 64.5497 262.991 61.1895 263.867 57.9204Z" fill="#72C045"/>
<path d="M317.657 106.03C318.379 103.336 321.149 101.736 323.843 102.458C326.538 103.18 328.137 105.95 327.415 108.645C326.693 111.339 323.923 112.938 321.229 112.216C318.534 111.494 316.935 108.725 317.657 106.03Z" fill="#F9C160"/>
<path d="M61.6564 171.434C62.1637 169.541 64.1096 168.417 66.0028 168.925C67.896 169.432 69.0195 171.378 68.5123 173.271C68.005 175.164 66.059 176.288 64.1658 175.781C62.2726 175.273 61.1491 173.327 61.6564 171.434Z" fill="#72C045"/>
<path d="M47.8907 197.977C48.398 196.084 50.344 194.96 52.2372 195.468C54.1304 195.975 55.2539 197.921 54.7466 199.814C54.2394 201.707 52.2934 202.831 50.4002 202.324C48.507 201.816 47.3835 199.87 47.8907 197.977Z" fill="#C15DFF"/>
<path d="M11.7462 105.434C12.3803 103.068 14.8128 101.664 17.1793 102.298C19.5458 102.932 20.9502 105.364 20.3161 107.731C19.682 110.097 17.2495 111.502 14.883 110.867C12.5165 110.233 11.1121 107.801 11.7462 105.434Z" fill="#72C045"/>
<defs>
<clipPath id="clip0_25362_360314">
<rect width="200" height="200" fill="white" transform="translate(68)"/>
</clipPath>
</defs>
</svg>
