<svg width="60" height="60" viewBox="0 0 60 60" fill="none" xmlns="http://www.w3.org/2000/svg">
<g clip-path="url(#clip0_20602_141294)">
<path d="M58.125 23.6719H1.875C0.968908 23.6719 0.234375 24.4064 0.234375 25.3125V58.125C0.234375 59.0311 0.968908 59.7656 1.875 59.7656H58.125C59.0311 59.7656 59.7656 59.0311 59.7656 58.125V25.3125C59.7656 24.4064 59.0311 23.6719 58.125 23.6719Z" fill="#F4CE2F"/>
<path d="M6.79688 31.1719H53.2031V54.1406H6.79688V31.1719Z" fill="#BA7A5D"/>
<path d="M6.79688 38.8281H53.2031V46.4847H6.79688V38.8281Z" fill="#B26547"/>
<path d="M24.375 23.6719V35.8594C24.3752 36.2944 24.5482 36.7116 24.8558 37.0192C25.1634 37.3268 25.5806 37.4998 26.0156 37.5H33.9844C34.4194 37.4998 34.8366 37.3268 35.1442 37.0192C35.4518 36.7116 35.6248 36.2944 35.625 35.8594V23.6719H24.375Z" fill="#FFE473"/>
<path d="M30 33.9844C29.5649 33.9844 29.1476 33.8115 28.8399 33.5038C28.5322 33.1962 28.3594 32.7789 28.3594 32.3438V29.5312C28.3594 29.0961 28.5322 28.6788 28.8399 28.3712C29.1476 28.0635 29.5649 27.8906 30 27.8906C30.4351 27.8906 30.8524 28.0635 31.1601 28.3712C31.4678 28.6788 31.6406 29.0961 31.6406 29.5312V32.3438C31.6406 32.7789 31.4678 33.1962 31.1601 33.5038C30.8524 33.8115 30.4351 33.9844 30 33.9844Z" fill="#496191"/>
<path d="M54.375 12.4219H5.625C4.19585 12.4236 2.82573 12.9921 1.81517 14.0027C0.804609 15.0132 0.236112 16.3834 0.234375 17.8125V25.3125H59.7656V17.8125C59.7639 16.3834 59.1954 15.0132 58.1848 14.0027C57.1743 12.9921 55.8041 12.4236 54.375 12.4219Z" fill="#FFE473"/>
<path d="M9.375 12.4219H50.625V25.3125H9.375V12.4219Z" fill="#BA7A5D"/>
<path d="M38.0208 2.84413L36.1453 5.65568C35.6425 6.40945 35.8459 7.42812 36.5997 7.93094C37.3535 8.43376 38.3721 8.23032 38.875 7.47654L40.7505 4.665C41.2533 3.91122 41.0498 2.89255 40.2961 2.38973C39.5423 1.88691 38.5236 2.09035 38.0208 2.84413Z" fill="#FFE473"/>
<path d="M31.6406 1.875C31.6406 0.968908 30.9061 0.234375 30 0.234375C29.0939 0.234375 28.3594 0.968908 28.3594 1.875V6.5625C28.3594 7.46859 29.0939 8.20312 30 8.20312C30.9061 8.20312 31.6406 7.46859 31.6406 6.5625V1.875Z" fill="#FFE473"/>
<path d="M21.9892 2.83303C21.4864 2.07925 20.4677 1.87581 19.714 2.37863C18.9602 2.88145 18.7567 3.90012 19.2596 4.65389L21.135 7.46544C21.6379 8.21922 22.6565 8.42266 23.4103 7.91984C24.1641 7.41702 24.3675 6.39835 23.8647 5.64458L21.9892 2.83303Z" fill="#FFE473"/>
</g>
<defs>
<clipPath id="clip0_20602_141294">
<rect width="60" height="60" fill="white"/>
</clipPath>
</defs>
</svg>
