<svg width="32" height="32" viewBox="0 0 32 32" fill="none" xmlns="http://www.w3.org/2000/svg">
<path fill-rule="evenodd" clip-rule="evenodd" d="M16 32C18.1012 32 20.1817 31.5861 22.1229 30.7821C24.0641 29.978 25.828 28.7994 27.3137 27.3137C28.7994 25.828 29.978 24.0641 30.7821 22.1229C31.5861 20.1817 32 18.1012 32 16C32 13.8989 31.5861 11.8183 30.7821 9.87706C29.978 7.93586 28.7994 6.17203 27.3137 4.68629C25.828 3.20055 24.0641 2.022 22.1229 1.21793C20.1817 0.413852 18.1012 -3.13096e-08 16 0C11.7565 6.32325e-08 7.68687 1.68571 4.68629 4.68629C1.68571 7.68687 0 11.7565 0 16C0 20.2435 1.68571 24.3131 4.68629 27.3137C7.68687 30.3143 11.7565 32 16 32ZM24.4764 11.8044C24.6325 11.626 24.7514 11.4182 24.8259 11.1932C24.9005 10.9682 24.9293 10.7305 24.9107 10.4942C24.8921 10.2579 24.8264 10.0277 24.7175 9.81712C24.6086 9.60656 24.4586 9.41992 24.2765 9.26816C24.0944 9.11641 23.8838 9.0026 23.6571 8.93344C23.4303 8.86429 23.192 8.84118 22.9562 8.86547C22.7204 8.88976 22.4919 8.96097 22.284 9.0749C22.0761 9.18884 21.8931 9.34319 21.7458 9.52889L15.3493 17.2036C14.7324 17.9431 14.3858 18.3538 14.1102 18.6044L14.0996 18.6151L14.0871 18.6062C13.7884 18.3804 13.4062 18.0036 12.7271 17.3227L10.1458 14.7431C9.81048 14.4193 9.36141 14.2401 8.89529 14.2441C8.42916 14.2482 7.98327 14.4352 7.65366 14.7648C7.32404 15.0944 7.13707 15.5403 7.13302 16.0064C7.12897 16.4725 7.30816 16.9216 7.632 17.2569L10.2116 19.8364L10.2844 19.9093C10.8658 20.4907 11.4222 21.0489 11.9431 21.4418C12.5244 21.8827 13.2871 22.2951 14.2631 22.2524C15.2409 22.208 15.9627 21.7262 16.5031 21.2356C16.9831 20.7964 17.4898 20.1902 18.0142 19.5591L18.08 19.4809L24.4764 11.8044Z" fill="#6FCF97"/>
</svg>
