<svg width="862" height="42" viewBox="0 0 862 42" fill="none" xmlns="http://www.w3.org/2000/svg">
<path d="M0 38V18.9808C16.6787 20.1923 51.5544 15.3462 57.6277 15.3462C65.2194 15.3462 107.664 16.5577 118.706 16.5577C129.749 16.5577 190.827 16.1538 213.257 15.3462C235.687 14.5385 325.407 15.3462 341.28 16.1538C357.154 16.9615 450.324 10.5 516.579 10.5C582.833 10.5 651.504 16.9615 689.807 10.5C720.45 5.33077 817.37 1.34615 862 0V38C862 40.2091 860.209 42 858 42H4C1.79086 42 0 40.2091 0 38Z" fill="#B3B3B3"/>
</svg>
