<svg width="24" height="24" viewBox="0 0 24 24" fill="none" xmlns="http://www.w3.org/2000/svg">
<path d="M14.8964 17.4005C14.8268 17.3308 14.7441 17.2755 14.6531 17.2378C14.5621 17.2001 14.4645 17.1807 14.366 17.1807C14.2675 17.1807 14.17 17.2001 14.079 17.2378C13.988 17.2755 13.9053 17.3308 13.8356 17.4005C13.3485 17.8867 12.6883 18.1599 12 18.1599C11.3117 18.1599 10.6515 17.8867 10.1644 17.4005C10.0237 17.2598 9.83292 17.1808 9.63398 17.1808C9.43505 17.1808 9.24426 17.2598 9.10359 17.4005C8.96293 17.5411 8.8839 17.7319 8.8839 17.9309C8.8839 18.1298 8.96293 18.3206 9.10359 18.4613C9.87241 19.2282 10.914 19.6589 12 19.6589C13.086 19.6589 14.1276 19.2282 14.8964 18.4613C14.9661 18.3916 15.0213 18.3089 15.059 18.2179C15.0967 18.1269 15.1161 18.0294 15.1161 17.9309C15.1161 17.8324 15.0967 17.7348 15.059 17.6438C15.0213 17.5528 14.9661 17.4701 14.8964 17.4005ZM21.6094 9.01219V7.66406C21.6094 3.645 18.3394 0.375 14.3203 0.375H9.65625C5.63719 0.375 2.36719 3.645 2.36719 7.66406V9.015C1.819 9.07885 1.31333 9.3417 0.946102 9.75368C0.578878 10.1657 0.375658 10.6981 0.375 11.25V16.2188C0.37562 16.8153 0.612873 17.3872 1.0347 17.8091C1.45652 18.2309 2.02845 18.4681 2.625 18.4688H5.10938C5.90476 18.4679 6.66732 18.1515 7.22974 17.5891C7.79216 17.0267 8.10851 16.2641 8.10938 15.4688V12C8.10851 11.2046 7.79216 10.4421 7.22974 9.87964C6.66732 9.31722 5.90476 9.00087 5.10938 9H3.86719V7.66406C3.86892 6.12924 4.4794 4.65778 5.56468 3.5725C6.64997 2.48721 8.12143 1.87674 9.65625 1.875H14.3203C15.8551 1.87674 17.3266 2.48721 18.4119 3.5725C19.4972 4.65778 20.1076 6.12924 20.1094 7.66406V9H18.8906C18.0952 9.00087 17.3327 9.31722 16.7703 9.87964C16.2078 10.4421 15.8915 11.2046 15.8906 12V15.4688C15.8915 16.2641 16.2078 17.0267 16.7703 17.5891C17.3327 18.1515 18.0952 18.4679 18.8906 18.4688H20.033C19.8594 19.3025 19.4041 20.0512 18.7437 20.5889C18.0833 21.1267 17.2579 21.4208 16.4062 21.4219H13.875C13.6761 21.4219 13.4853 21.5009 13.3447 21.6415C13.204 21.7822 13.125 21.973 13.125 22.1719C13.125 22.3708 13.204 22.5616 13.3447 22.7022C13.4853 22.8429 13.6761 22.9219 13.875 22.9219H16.4062C17.6572 22.9202 18.8658 22.4686 19.8113 21.6495C20.7569 20.8305 21.3763 19.6987 21.5564 18.4608C22.1195 18.4146 22.6448 18.1584 23.0279 17.7432C23.4111 17.3279 23.6242 16.7838 23.625 16.2188V11.25C23.6244 10.694 23.4182 10.1579 23.0461 9.74477C22.674 9.33165 22.1623 9.07072 21.6094 9.01219ZM4.21875 12.4219C4.21875 12.223 4.29777 12.0322 4.43842 11.8915C4.57907 11.7509 4.76984 11.6719 4.96875 11.6719C5.16766 11.6719 5.35843 11.7509 5.49908 11.8915C5.63973 12.0322 5.71875 12.223 5.71875 12.4219V15.0469C5.71875 15.2458 5.63973 15.4366 5.49908 15.5772C5.35843 15.7179 5.16766 15.7969 4.96875 15.7969C4.76984 15.7969 4.57907 15.7179 4.43842 15.5772C4.29777 15.4366 4.21875 15.2458 4.21875 15.0469V12.4219ZM19.7812 15.0469C19.7812 15.2458 19.7022 15.4366 19.5616 15.5772C19.4209 15.7179 19.2302 15.7969 19.0312 15.7969C18.8323 15.7969 18.6416 15.7179 18.5009 15.5772C18.3603 15.4366 18.2812 15.2458 18.2812 15.0469V12.4219C18.2812 12.223 18.3603 12.0322 18.5009 11.8915C18.6416 11.7509 18.8323 11.6719 19.0312 11.6719C19.2302 11.6719 19.4209 11.7509 19.5616 11.8915C19.7022 12.0322 19.7812 12.223 19.7812 12.4219V15.0469Z" fill="#FF8A00"/>
</svg>
