<svg width="22" height="22" viewBox="0 0 22 22" fill="none" xmlns="http://www.w3.org/2000/svg">
<g clip-path="url(#clip0_20136_497918)">
<path d="M21.358 8.70489L18.1641 3.23121C17.3494 1.83542 15.8405 0.96875 14.2249 0.96875H7.77323C6.15758 0.96875 4.64776 1.83633 3.83309 3.23121L0.64011 8.70489C-0.187328 10.1226 -0.187328 11.8842 0.64011 13.3019L3.83309 18.7756C4.64776 20.1713 6.15667 21.038 7.77323 21.038H14.2249C15.8405 21.038 17.3504 20.1704 18.165 18.7756L21.358 13.3019C22.1845 11.8842 22.1845 10.1226 21.358 8.70489ZM16.6543 9.64545L12.6165 13.6093C11.9022 14.3099 10.9826 14.6593 10.0631 14.6593C9.1526 14.6593 8.24123 14.3163 7.52965 13.6294L5.79723 11.9252C5.43779 11.5722 5.43323 10.9947 5.78628 10.6353C6.13934 10.2749 6.7159 10.2704 7.07625 10.6243L8.8032 12.3221C9.51295 13.0063 10.6296 13.0026 11.3403 12.3057L15.3771 8.34272C15.7356 7.98875 16.3113 7.99514 16.6671 8.35458C17.0201 8.71401 17.0146 9.2924 16.6543 9.64545Z" fill="#6FCF97"/>
</g>
<defs>
<clipPath id="clip0_20136_497918">
<rect width="21.8947" height="21.8947" fill="white" transform="translate(0.0507812 0.0546875)"/>
</clipPath>
</defs>
</svg>
