<svg width="20" height="21" viewBox="0 0 20 21" fill="none" xmlns="http://www.w3.org/2000/svg">
<path d="M10.0003 12.624C8.84974 12.624 7.91699 13.5568 7.91699 14.7074V18.874H12.0836V14.7074C12.0836 13.5568 11.1509 12.624 10.0003 12.624Z" fill="white"/>
<path d="M13.4725 14.7074V18.874H16.2503C17.4009 18.874 18.3336 17.9413 18.3336 16.7907V10.4567C18.3338 10.0959 18.1936 9.74924 17.9426 9.49002L12.0413 3.11016C11 1.98354 9.24259 1.91436 8.11597 2.95564C8.06245 3.00511 8.01089 3.05664 7.96144 3.11016L2.07047 9.48794C1.81195 9.74823 1.66689 10.1002 1.66699 10.4671V16.7907C1.66699 17.9413 2.59974 18.874 3.75032 18.874H6.52808V14.7074C6.54107 12.8137 8.06994 11.2674 9.91586 11.2229C11.8235 11.1768 13.458 12.7495 13.4725 14.7074Z" fill="white"/>
<path d="M10.0003 12.624C8.84974 12.624 7.91699 13.5568 7.91699 14.7074V18.874H12.0836V14.7074C12.0836 13.5568 11.1509 12.624 10.0003 12.624Z" fill="white"/>
</svg>
