<svg width="20" height="20" viewBox="0 0 20 20" fill="none" xmlns="http://www.w3.org/2000/svg">
<path d="M10.0003 12.0732C8.84974 12.0732 7.91699 13.006 7.91699 14.1566V18.3232H12.0836V14.1566C12.0836 13.006 11.1509 12.0732 10.0003 12.0732Z" fill="#FF8A00"/>
<path d="M13.4725 14.1566V18.3232H16.2503C17.4009 18.3232 18.3336 17.3905 18.3336 16.2399V9.90591C18.3338 9.54513 18.1936 9.19846 17.9426 8.93924L12.0413 2.55938C11 1.43275 9.24259 1.36358 8.11597 2.40485C8.06245 2.45433 8.01089 2.50586 7.96144 2.55938L2.07047 8.93716C1.81195 9.19745 1.66689 9.54946 1.66699 9.91632V16.2399C1.66699 17.3905 2.59974 18.3232 3.75032 18.3232H6.52808V14.1566C6.54107 12.263 8.06994 10.7166 9.91586 10.6721C11.8235 10.6261 13.458 12.1987 13.4725 14.1566Z" fill="#FF8A00"/>
<path d="M10.0003 12.0732C8.84974 12.0732 7.91699 13.006 7.91699 14.1566V18.3232H12.0836V14.1566C12.0836 13.006 11.1509 12.0732 10.0003 12.0732Z" fill="#FF8A00"/>
</svg>
