<svg width="284" height="213" viewBox="0 0 284 213" fill="none" xmlns="http://www.w3.org/2000/svg">
<path d="M272.549 115.363C277.4 109.992 282.416 104.439 283.796 99.1635C284.624 95.9942 282.889 90.5011 279.269 84.8314C274.979 78.113 267.424 70.4023 259.085 68.9051C251.877 67.608 245.058 75.2984 240.604 81.9762C235.791 89.1915 232.629 96.8084 232.598 96.885C232.582 96.9225 232.59 96.9632 232.615 96.9944C236.602 101.603 239.697 106.618 241.811 111.897C241.823 111.93 241.853 111.953 241.887 111.961C241.921 111.967 241.957 111.958 241.982 111.933C241.992 111.924 242 111.911 242.004 111.9C242.089 111.709 244.11 107.173 247.013 102.664C250.817 96.7522 254.382 93.6282 257.324 93.6282H257.349C259.674 93.6423 261.683 95.5832 263.321 99.3979C266.262 106.254 259.309 115.499 252.585 124.44C248.783 129.494 245.194 134.268 243.739 138.25C243.57 138.905 243.402 139.51 243.217 140.11C243.213 140.133 243.206 140.157 243.202 140.18C243.194 140.21 243.188 140.239 243.181 140.269C242.457 144.506 244.341 148.647 248.223 151.349C250.767 153.121 254.391 154.378 258.767 154.378C263.088 154.378 268.142 153.151 273.609 149.982C274.79 149.297 275.875 147.745 276.665 145.612C277.349 143.763 277.728 141.654 277.658 140.105C277.603 138.925 277.3 138.175 276.78 137.934C276.363 137.742 275.837 137.886 275.219 138.364C268.689 143.418 263.502 145.189 260.992 143.221C258.595 141.344 258.964 136.314 262.003 129.419C264.045 124.787 268.37 119.998 272.553 115.368L272.549 115.363Z" fill="#EF7917"/>
<path d="M259.367 78.4421C262.52 75.5572 257.042 69.0952 257 68.8936C244.003 69.5077 232.693 96.9219 232.693 96.9219C236.014 100.76 237.201 102.545 239.004 105.812C240.599 103.289 246.24 90.4551 259.367 78.4421Z" fill="#F4993D"/>
<path d="M257.826 68.9869C268.055 74.4176 273.568 84.5568 272.701 96.126C271.863 107.317 266.152 115.095 260.268 124.182C257.443 128.544 254.054 133.623 253.951 139.007C253.86 143.744 257.186 148.094 261.998 148.612C267.023 149.152 272.3 146.982 277.074 143.942C278.031 140.234 277.65 136.61 275.283 138.441C261.607 149.023 255.434 144.056 261.907 129.371C266.335 119.324 281.144 108.908 283.698 99.1359C285.667 91.5987 272.91 71.4921 259.07 69.0072C258.564 68.9166 258.062 68.8822 257.559 68.876C257.65 68.9166 257.737 68.9385 257.829 68.9869H257.826Z" fill="#EB5D0B"/>
<path d="M244.569 120.675C242.19 107.46 233.566 94.9327 220.908 86.3094C219.891 85.6171 216.468 83.9793 211.198 82.3071C211.156 82.293 211.109 82.3087 211.083 82.3446C211.056 82.3806 211.055 82.4306 211.081 82.4665C216.984 90.9336 218.318 100.235 216.61 102.672C211.387 110.118 196.453 115.202 178.563 115.622C169.661 115.832 161.135 114.847 153.897 112.773C145.997 110.51 140.043 107.016 136.677 102.667C135.334 100.931 135.072 97.777 135.96 94.0123C135.97 93.9732 135.956 93.9326 135.924 93.906C135.893 93.881 135.851 93.8763 135.814 93.8919C131.096 96.1173 124.601 98.5849 116.213 97.9239C100.168 96.658 83.8892 89.2943 75.6132 85.0185C63.5513 78.7862 55.3065 72.3944 54.5852 70.0487C54.2714 69.0282 53.0662 68.6813 51.0975 69.0439C45.9158 70.0034 36.319 75.7919 36.4986 78.4596C36.5501 79.23 37.3651 79.6582 38.9216 79.7332C45.5037 80.052 51.3754 84.3528 56.8709 92.8824C61.6841 100.352 65.609 110.142 69.0718 118.779C72.4237 127.14 75.5898 135.038 79.0214 139.584C86.1249 148.998 95.1612 157.259 105.879 164.135C116.344 170.851 127.848 175.894 140.073 179.127C150.004 181.754 159.925 183.056 169.573 183.056C184.917 183.056 199.561 179.76 212.404 173.26C223.073 167.861 231.34 161.085 236.977 153.123C243.986 143.224 246.611 132.002 244.573 120.673L244.569 120.675Z" fill="#F7C100"/>
<path d="M200.948 177.843C200.923 177.827 200.891 177.826 200.864 177.835C185.519 183.008 168.144 184.166 150.618 181.185C150.591 181.179 150.565 181.185 150.543 181.201C143.343 185.896 131.264 194.447 131.264 198.962C131.264 200.234 132.923 201.927 135.938 203.725C143.149 208.031 158.373 213 176.487 213C190.023 213 205.176 210.223 219.795 202.319C221.956 201.15 223.06 199.647 223.079 197.848C223.143 191.389 209.242 182.542 200.948 177.843Z" fill="#EF7917"/>
<path d="M213.245 134.444C199.232 139.709 157.374 152.534 109.479 125.972C91.3751 115.931 78.9322 92.2456 58.3133 87.9933C56.4133 87.6011 54.518 87.2948 52.6289 87.0713C64.7736 100.635 71.1043 128.924 79.104 139.524C107.982 177.793 168.459 195.387 212.355 173.171C221.882 168.349 230.718 161.784 236.891 153.066C246.416 139.61 247.116 124.864 241.909 111.858C236.15 122.645 225.329 129.904 213.247 134.444H213.245Z" fill="#F2A500"/>
<path d="M217.403 100.585H217.34C217.242 101.519 217.025 102.257 216.692 102.731C205.477 118.722 153.487 120.913 137.756 104.067C140.482 109.086 158.938 125.847 195.997 125.003C220.263 124.452 234.832 114.522 217.401 100.587L217.403 100.585Z" fill="#EF9500"/>
<path d="M215.698 90.7877C213.592 85.1492 206.758 71.5531 188.837 67.1023C188.809 67.0945 188.779 67.0992 188.756 67.1148C188.733 67.1305 188.715 67.1539 188.709 67.182C187.783 71.7532 182.594 75.0694 176.369 75.0694C170.145 75.0694 165.133 71.8625 164.065 67.4446C164.059 67.4165 164.042 67.393 164.017 67.379C163.992 67.3649 163.965 67.3602 163.936 67.368C156.776 69.2793 150.564 72.7643 145.471 77.7261C141.29 81.7987 138.071 86.762 136.407 91.7019C134.796 96.4793 134.835 100.625 136.511 102.791C139.904 107.175 145.896 110.696 153.838 112.97C160.459 114.865 168.153 115.855 176.222 115.855C177 115.855 177.782 115.845 178.566 115.826C196.52 115.404 211.518 110.285 216.778 102.787C218.235 100.708 217.337 95.176 215.698 90.7846V90.7877Z" fill="#EF7917"/>
<path d="M176.369 56.3477C169.347 56.3477 163.633 60.5937 163.633 65.8149C163.633 71.0362 169.345 75.2822 176.369 75.2822C183.393 75.2822 189.106 71.0362 189.106 65.8149C189.106 60.5937 183.393 56.3477 176.369 56.3477Z" fill="#F2A500"/>
<path d="M241.908 111.858C241.538 112.552 241.144 113.23 240.732 113.894C240.816 116.229 240.732 118.595 240.456 120.991C238.548 137.498 229.265 151.92 215.276 160.784C201.155 169.731 183.89 172.389 167.456 170.925C149.606 169.335 132.395 163.756 115.585 157.802C107.201 154.833 98.4243 152.059 90.4762 148.035C87.4318 146.494 84.5639 144.657 81.7021 142.809C111.485 178.781 169.733 194.74 212.352 173.169C221.879 168.348 230.715 161.782 236.888 153.064C246.413 139.608 247.113 124.862 241.906 111.856L241.908 111.858Z" fill="#EF9500"/>
<path d="M208.552 79.0723C207.472 83.534 205.709 87.8269 203.363 91.6776C196.428 103.061 184.435 106.59 171.764 106.266C159.124 105.943 146.012 102.79 135.57 95.4314C135.055 98.5803 135.406 101.196 136.595 102.731C150.755 121.028 205.188 119.137 216.694 102.731C218.63 99.9712 216.813 88.5052 208.552 79.0723Z" fill="#EB5D0B"/>
<path d="M187.601 61.5449C186.329 64.5658 184.065 67.0912 180.858 68.368C174.985 70.7059 169.185 69.0712 163.788 66.5474C164.294 71.3748 169.727 75.1785 176.37 75.1785C183.347 75.1785 189.002 70.9872 189.002 65.816C189.002 64.2767 188.491 62.8264 187.603 61.5449H187.601Z" fill="#EF9500"/>
<path d="M42.0037 76.9047C42.1301 76.5562 42.3893 76.264 42.65 75.9967C44.4735 74.1324 47.0401 72.3977 49.6536 71.9398C50.4576 71.7991 52.4778 71.5491 52.5824 72.7446C52.7745 74.9309 48.7091 77.4282 47.037 78.1002C45.8286 78.5863 44.4751 78.7722 43.2105 78.4628C42.5157 78.2925 41.7492 77.8471 41.9662 77.0235C41.9771 76.9829 41.9896 76.9438 42.0037 76.9047Z" fill="#EB5D0B"/>
<path d="M46.74 65.9036C47.416 63.3735 43.7909 61.7826 47.2724 59.6135C49.9951 57.9179 53.8248 57.9632 56.9082 57.074C60.538 56.0285 64.0601 54.5548 67.2091 52.4466C77.3554 45.6563 80.4732 32.39 75.3133 21.4506C69.8725 9.91732 55.5218 2.2613 43.4521 0.42348C28.8797 -1.79566 -3.19386 4.45387 0.257987 25.1793C3.68641 45.7704 27.4606 34.1168 40.3359 35.9906C43.2523 36.4157 47.288 37.9597 48.4089 40.993C49.1021 42.8684 48.3496 44.9781 47.2724 46.6628C44.6605 50.7494 39.9347 53.2967 37.0324 57.224C35.9364 58.7071 35.2104 60.6433 35.7803 62.3983C36.6343 65.0347 39.9924 66.5069 42.4951 66.9929C43.5145 67.1913 46.2576 67.2945 46.6776 66.1021C46.701 66.0349 46.7213 65.9693 46.7384 65.9036H46.74Z" fill="#FDDCB1"/>
<path d="M9.64568 14.0358C9.83302 13.8702 10.0235 13.7092 10.2155 13.5529C21.678 4.22007 40.4672 2.88703 54.0934 7.88634C55.9607 8.57083 57.7514 10.118 57.792 12.1074C57.8482 14.8954 54.9396 16.3456 52.5322 16.4238C50.9835 16.4738 49.452 16.1331 47.9282 15.8565C41.1198 14.6203 34.1364 15.1704 27.4732 16.941C24.0791 17.8428 20.7678 19.0461 17.5485 20.4479C14.7118 21.6825 11.7533 23.4531 8.8479 21.2558C6.0502 19.1383 7.51306 15.9237 9.64724 14.0358H9.64568Z" fill="#FFF0DB"/>
<path d="M125.508 106.458C122.711 105.126 119.818 104.156 116.778 103.887C113.374 103.587 108.249 104.992 107.114 108.7C105.776 113.074 111.129 117.264 114.168 119.48C123.296 126.141 138.17 132.509 149.641 132.367C152.397 132.332 155.932 130.412 155.832 127.258C155.669 122.206 148.428 119.544 144.778 117.367C138.44 113.587 132.181 109.633 125.508 106.456V106.458Z" fill="#FCDA4F"/>
<path d="M143.864 87.799C144.76 86.2159 147.157 84.6047 148.215 83.6749C150.135 81.9917 152.128 80.393 154.103 78.774C154.819 78.1864 155.545 77.5925 156.376 77.1815C159.006 75.8798 161.306 76.9331 163.623 78.2552C165.064 79.0772 166.53 79.6226 168.111 80.1117C172.125 81.3526 176.453 81.7058 180.637 81.4917C181.577 81.4432 182.737 81.4807 183.165 82.3184C183.909 83.7764 181.816 86.9661 180.957 88.0459C178.097 91.6372 173.007 93.264 168.6 93.8563C164.288 94.4361 159.916 94.2408 155.608 93.7454C152.04 93.3344 147.641 93.1281 144.685 90.8464C144.037 90.3463 143.455 89.615 143.525 88.7976C143.553 88.4694 143.677 88.1334 143.867 87.7974L143.864 87.799Z" fill="#F59D40"/>
<path d="M169.111 61.6749C169.998 59.8995 172.101 58.2211 176.549 58.9119C180.995 59.6026 181.456 62.6719 180.076 64.2847C178.695 65.8959 167.007 65.8897 169.111 61.6749Z" fill="#FCBF37"/>
<path d="M211.792 184.796C210.818 189.278 208.371 193.619 205.572 196.634C199.185 203.511 189.631 205.655 180.621 206.282C170.927 206.956 160.728 206.917 151.206 204.816C146.735 203.83 142.479 202.238 138.393 200.181C136.318 199.137 134.173 197.884 132.418 196.265C131.752 197.27 131.369 198.182 131.369 198.96C131.369 205.44 177.94 224.829 219.746 202.225C227.34 198.12 220.238 190.809 211.792 184.794V184.796Z" fill="#EB5D0B"/>
<path d="M152.993 187.97C153.717 188.104 172.372 193.136 183.605 187.232C194.838 181.328 187.925 198.618 175.582 201.044C163.239 203.469 149.29 199.989 146.328 197.143C143.365 194.297 145.624 186.601 152.993 187.971V187.97Z" fill="#F59D40"/>
</svg>
