<svg width="40" height="40" viewBox="0 0 40 40" fill="none" xmlns="http://www.w3.org/2000/svg">
<circle cx="20" cy="20" r="20" fill="#FFD599"/>
<path d="M27 16.424V15C27 11.134 23.866 8 20 8C16.134 8 13 11.134 13 15V16.424C11.18 17.2183 10.0026 19.0143 10 21V27C10.0033 29.76 12.2399 31.9967 15 32H25C27.76 31.9967 29.9966 29.76 30 27V21C29.9974 19.0143 28.8199 17.2183 27 16.424ZM21 25C21 25.5523 20.5523 26 20 26C19.4477 26 19 25.5523 19 25V23C19 22.4477 19.4477 22 20 22C20.5523 22 21 22.4477 21 23V25ZM25 16H15V15C15 12.2386 17.2385 10 20 10C22.7614 10 25 12.2386 25 15V16Z" fill="#FF8A00"/>
</svg>
