<svg width="83" height="83" viewBox="0 0 83 83" fill="none" xmlns="http://www.w3.org/2000/svg">
<g filter="url(#filter0_d_20727_22631)">
<circle cx="41" cy="39" r="39" fill="#949494"/>
<circle cx="41" cy="39" r="38.5" stroke="#666666"/>
</g>
<path d="M53.8333 37.167H28.1667C26.1416 37.167 24.5 38.8086 24.5 40.8337V53.667C24.5 55.692 26.1416 57.3337 28.1667 57.3337H53.8333C55.8584 57.3337 57.5 55.692 57.5 53.667V40.8337C57.5 38.8086 55.8584 37.167 53.8333 37.167Z" stroke="white" stroke-width="2" stroke-linecap="round" stroke-linejoin="round"/>
<path d="M31.8335 37.167V29.8337C31.8335 27.4025 32.7993 25.0709 34.5184 23.3518C36.2374 21.6328 38.569 20.667 41.0002 20.667C43.4313 20.667 45.7629 21.6328 47.482 23.3518C49.2011 25.0709 50.1668 27.4025 50.1668 29.8337V37.167" stroke="white" stroke-width="2" stroke-linecap="round" stroke-linejoin="round"/>
<defs>
<filter id="filter0_d_20727_22631" x="2" y="0" width="78" height="83" filterUnits="userSpaceOnUse" color-interpolation-filters="sRGB">
<feFlood flood-opacity="0" result="BackgroundImageFix"/>
<feColorMatrix in="SourceAlpha" type="matrix" values="0 0 0 0 0 0 0 0 0 0 0 0 0 0 0 0 0 0 127 0" result="hardAlpha"/>
<feOffset dy="5"/>
<feComposite in2="hardAlpha" operator="out"/>
<feColorMatrix type="matrix" values="0 0 0 0 0.4 0 0 0 0 0.4 0 0 0 0 0.4 0 0 0 1 0"/>
<feBlend mode="normal" in2="BackgroundImageFix" result="effect1_dropShadow_20727_22631"/>
<feBlend mode="normal" in="SourceGraphic" in2="effect1_dropShadow_20727_22631" result="shape"/>
</filter>
</defs>
</svg>
