<svg width="38" height="38" viewBox="0 0 38 38" fill="none" xmlns="http://www.w3.org/2000/svg">
<path d="M29.8894 17.4473H8.1116C6.39338 17.4473 5.00049 18.8402 5.00049 20.5584V31.4473C5.00049 33.1655 6.39338 34.5584 8.1116 34.5584H29.8894C31.6076 34.5584 33.0005 33.1655 33.0005 31.4473V20.5584C33.0005 18.8402 31.6076 17.4473 29.8894 17.4473Z" stroke="#535353" stroke-width="2" stroke-linecap="round" stroke-linejoin="round"/>
<path d="M11.2227 17.4473V11.225C11.2227 9.16225 12.0421 7.18394 13.5007 5.72532C14.9593 4.26671 16.9376 3.44727 19.0004 3.44727C21.0632 3.44727 23.0415 4.26671 24.5002 5.72532C25.9588 7.18394 26.7782 9.16225 26.7782 11.225V17.4473" stroke="#535353" stroke-width="2" stroke-linecap="round" stroke-linejoin="round"/>
</svg>
