<svg width="236" height="82" viewBox="0 0 236 82" fill="none" xmlns="http://www.w3.org/2000/svg">
<path d="M179.906 40.703C190.561 35.3511 195.12 33.7722 201.65 33.1722C218.072 31.6631 231.694 40.1864 235.384 54.2814C236.213 57.4483 236.204 62.7842 235.364 65.6184C232.056 76.7851 219.444 84.2136 208.563 81.4036C200.703 79.3738 195.838 73.8223 195.86 66.9095C195.881 60.6299 199.92 56.4812 205.881 56.6147L208.483 56.6729L205.791 56.9534C202.577 57.2885 200.903 58.0851 199.26 60.0612C197.789 61.8315 197.094 63.9594 197.094 66.6943C197.094 72.762 201.7 77.6951 208.937 79.3787C217.449 81.3588 227.218 76.4541 231.375 68.1131C232.745 65.3655 232.91 64.6748 233.056 61.073C233.329 54.3339 231.023 48.736 225.871 43.6276C219.323 37.1349 209.033 34.3458 198.413 36.1859C193.257 37.0795 190.65 37.9899 182.805 41.638C179.161 43.3332 174.595 45.2447 172.658 45.8866C163.822 48.8149 154.071 48.5245 144.778 45.0562C141.396 43.7943 142.046 43.6642 145.81 44.8489C150.83 46.4298 154.033 46.8241 159.979 46.5937C167.247 46.312 170.872 45.2406 179.906 40.703Z" fill="#1477F8"/>
<path d="M196.887 45.0406C198.254 44.6021 200.49 44.0707 201.857 43.8592C209.158 42.7291 217.227 45.1593 221.411 49.7491C224.236 52.847 225.414 55.6504 225.6 59.7146C225.735 62.6716 225.621 63.3668 224.655 65.4636C222.537 70.0587 218.773 72.6741 214.278 72.6741C210.787 72.6741 206.986 70.7182 205.7 68.2597C205.361 67.6133 205.524 67.6688 206.462 68.5208C213.131 74.5733 222.903 69.7179 222.849 60.379C222.811 53.9126 217.33 48.0375 209.472 46.0406C206.587 45.3076 201.328 45.0993 197.094 45.5506L194.402 45.8373L196.887 45.0406Z" fill="#1477F8"/>
<path d="M137.248 53.1578C134.677 51.8844 130 48.8855 130 48.5102C130 48.3927 130.792 48.7845 131.76 49.3807C138.793 53.711 148.846 56.1646 157.071 55.5585C159.141 55.4057 163.508 54.5799 167.088 53.6637C177.025 51.1206 180.887 51.521 184.913 55.512C187.817 58.3923 188.957 61.3485 188.957 66.0011C188.957 70.8714 187.841 73.6046 184.498 76.9198C181.326 80.0653 178.93 80.9769 174.572 80.6944C165.226 80.0891 160.658 71.5292 165.727 64.1171C168.036 60.7404 171.85 59.4957 175.278 60.9995C178.738 62.5168 179.932 66.4376 177.6 68.628L176.68 69.4916L177.361 68.4761C178.464 66.8335 178.245 64.497 176.862 63.1254C174.475 60.7585 170.529 61.1116 167.969 63.9216C165.676 66.4385 165.011 69.9253 166.259 72.8868C167.705 76.3182 170.599 78.0503 174.936 78.0807C178.285 78.1041 180.261 77.3259 182.509 75.0969C188.952 68.7085 186.364 56.5838 178.198 54.9031C175.607 54.3696 174.489 54.5039 167.067 56.2389C162.468 57.314 160.899 57.4947 156.299 57.4799C149.016 57.4565 143.316 56.1633 137.248 53.1578Z" fill="#1477F8"/>
<path d="M29.7311 16.2522C28.4791 13.4184 25.1891 10.6933 21.6517 9.56021C20.5609 9.21054 18.9351 9.00823 17.1537 9.00016C9.37159 8.9651 2.18771 14.5658 0.427704 22.0397C-0.492912 25.9491 0.0671997 29.8458 2.16106 34.0971C3.94028 37.7103 7.68969 41.503 11.3303 43.3727C15.2772 45.3997 17.8942 45.9868 23.0432 45.9998C29.674 46.0165 33.128 44.9992 42.2613 40.3392C47.1415 37.8493 50.0648 36.8238 53.8691 36.2669C58.3187 35.6156 64.3836 36.2644 68.2645 37.8064C69.8227 38.4257 69.4718 37.9492 67.8578 37.2542C64.5557 35.8322 61.1516 35.2299 56.52 35.2486C50.8481 35.2712 48.0903 35.9901 40.7936 39.3482C31.8872 43.4472 28.6964 44.239 22.1941 43.9629C15.7784 43.6904 11.338 41.8003 7.43334 37.6802C0.734879 30.6122 0.390198 21.5131 6.58589 15.3111C12.418 9.47334 21.4623 8.94898 26.7259 14.1436C31.4427 18.7983 30.258 26.426 24.5608 28.0838C23.5134 28.3888 22.2902 28.5281 21.5426 28.4275C20.7196 28.3171 20.4406 28.3568 20.7345 28.543C21.5869 29.0828 24.2269 28.857 25.8329 28.1067C30.0553 26.1343 31.7803 20.8889 29.7311 16.2522Z" fill="#1477F8"/>
<path d="M53.4113 14.0747C52.4318 12.4817 50.1972 10.7395 48.5026 10.2481C47.9682 10.0929 46.6642 9.95363 45.6053 9.93812C41.5893 9.87979 38.3166 12.0582 36.4295 16.0458C35.5241 17.9587 35.442 18.3909 35.442 21.2351C35.442 23.9429 35.5464 24.5609 36.2628 26.0903C36.7141 27.054 37.6697 28.4294 38.3864 29.1468C41.3649 32.1282 44.4835 32.457 51.5604 30.5368C55.6716 29.421 56.153 29.3574 60.7046 29.3329C64.7178 29.3112 65.9589 29.421 68.239 30.0009C71.6537 30.8694 74.989 32.2482 77.5112 33.8343C79.2697 34.9402 79.353 34.9659 78.3729 34.0981C75.8935 31.9032 71.2457 29.6699 66.7072 28.4921C64.4484 27.906 63.1592 27.7797 59.4647 27.7831C55.5089 27.7868 54.4639 27.906 50.7458 28.7775C45.6549 29.9705 44.0455 30.0152 41.9151 29.0223C36.1162 26.3196 35.973 16.6431 41.6783 13.0213C45.3117 10.7147 50.4588 11.9124 52.2579 15.4833C54.8852 20.6984 49.6696 26.8309 44.8927 24.1436C43.0496 23.1067 42.5214 21.1756 43.5198 19.1253L44.0034 18.1324L43.3766 18.9081C41.9982 20.6133 42.3035 22.8538 44.1335 24.4623C46.8641 26.8622 51.3156 25.6829 53.3874 22.0108C54.2299 20.5178 54.3502 20.0102 54.3502 17.9531C54.3502 15.8783 54.2398 15.4219 53.4113 14.0747Z" fill="#1477F8"/>
<path d="M21.2348 18.3682C20.0274 17.2543 19.0616 16.7697 17.1537 16.3204C16.1665 16.088 14.1529 16.4501 12.9003 17.0856C11.034 18.0322 9.6425 19.4507 8.73274 21.3338C8.01578 22.8178 7.88156 23.4961 7.88559 25.6221C7.88993 27.8303 8.01485 28.4002 8.88215 30.1632C10.4912 33.435 13.0128 35.6479 16.6559 36.9855C19.3213 37.9641 24.9926 37.938 28.2469 36.9321C29.5745 36.5216 30.7165 36.0959 30.7844 35.9861C30.8522 35.8762 29.9056 35.9622 28.6803 36.1775C24.1807 36.9681 19.9022 36.4974 16.5192 34.839C11.6437 32.4496 8.98598 27.3652 10.2866 22.9159C11.7965 17.7517 17.6466 15.7616 21.3836 19.1411C22.0407 19.7353 22.5782 20.0834 22.5782 19.9146C22.5782 19.7458 21.9738 19.0499 21.2348 18.3682Z" fill="#1477F8"/>
<path d="M72.4336 28.917V51.0926C72.4267 54.5176 73.1282 57.9071 74.4941 61.0481C75.8179 64.0984 77.727 66.8596 80.1133 69.1754C82.5203 71.5204 85.3559 73.3804 88.4655 74.6542C91.7067 75.9899 95.1794 76.6735 98.6851 76.6659H120.93C124.436 76.6733 127.91 75.9897 131.151 74.6542C134.258 73.3787 137.091 71.5188 139.496 69.1754C141.881 66.8587 143.79 64.0977 145.115 61.0481C146.479 57.9065 147.181 54.5174 147.176 51.0926V28.917C147.182 25.4914 146.481 22.1014 145.115 18.9596C143.79 15.91 141.881 13.1491 139.496 10.8323C137.091 8.48895 134.258 6.62904 131.151 5.35348C127.911 4.01781 124.439 3.3336 120.934 3.3399H98.6888C93.737 3.3298 88.8801 4.69759 84.6612 7.29026C83.024 8.30144 81.5027 9.48923 80.1246 10.8323C77.9058 12.9879 76.0987 15.5301 74.7919 18.334C74.6945 18.5401 74.6046 18.7499 74.509 18.9596C73.1378 22.1001 72.4312 25.4903 72.4336 28.917Z" fill="#D58900"/>
<path d="M148.282 17.6577C146.784 14.2092 144.624 11.0878 141.925 8.47019C139.203 5.82003 135.998 3.71718 132.483 2.27586C128.817 0.765971 124.89 -0.00734406 120.926 5.25625e-05H98.6886C94.7242 -0.00734406 90.7972 0.765971 87.1316 2.27586C86.8806 2.37889 86.6333 2.48565 86.3823 2.59616C83.1596 4.02077 80.2175 6.01008 77.6949 8.47019C75.5503 10.5505 73.7424 12.9518 72.336 15.5879C71.9751 16.2623 71.6417 16.9522 71.3358 17.6577L71.3189 17.6952C71.2327 17.8956 71.1484 18.0979 71.066 18.3002C70.7588 19.0569 70.486 19.8224 70.2475 20.5966C69.6103 22.6605 69.2143 24.7913 69.0674 26.9464C69.0225 27.6001 69 28.2576 69 28.9169V51.0925C68.9965 54.9635 69.793 58.7935 71.3395 62.3423C72.8385 65.7915 74.9989 68.9134 77.6987 71.5317C80.4174 74.1808 83.6197 76.2831 87.1316 77.7241C90.7972 79.234 94.7242 80.0073 98.6886 79.9999H120.933C122.678 80.0011 124.419 79.8532 126.139 79.5579C127.092 79.3931 128.034 79.1833 128.967 78.9285C130.165 78.6 131.342 78.1978 132.49 77.7241C132.644 77.6623 132.796 77.5968 132.947 77.5368C136.282 76.1059 139.325 74.0742 141.925 71.5429C144.266 69.2676 146.204 66.6113 147.655 63.6872C147.874 63.2489 148.082 62.8012 148.277 62.3498C149.824 58.7986 150.62 54.9659 150.615 51.0925V28.9169C150.622 25.0432 149.828 21.2099 148.282 17.6577ZM141.965 59.7462C140.811 62.3985 139.15 64.7993 137.074 66.8134C134.982 68.8511 132.519 70.4682 129.818 71.5766C129.45 71.729 129.08 71.8707 128.707 72.0018C127.057 72.5837 125.347 72.977 123.608 73.1744C122.72 73.2752 121.827 73.3252 120.933 73.3242H98.6886C95.6412 73.3305 92.6224 72.7367 89.8045 71.5766C87.1036 70.4682 84.6407 68.8511 82.55 66.8134C80.473 64.7999 78.8109 62.3989 77.6575 59.7462C76.4704 57.0158 75.8601 54.0697 75.8649 51.0925V28.9169C75.8631 27.534 75.9936 26.1541 76.2545 24.7961C76.3883 24.0961 76.5577 23.4034 76.7621 22.7207C76.857 22.3948 76.9613 22.0707 77.0749 21.7486C77.251 21.2491 77.4452 20.7496 77.6575 20.2501C77.7549 20.0291 77.856 19.808 77.959 19.5889C79.0945 17.1971 80.6494 15.0281 82.55 13.1848C84.6407 11.1465 87.1035 9.52877 89.8045 8.41961C90.3121 8.20983 90.8272 8.01877 91.346 7.84832C93.7146 7.06497 96.1938 6.66779 98.6886 6.67202H120.933C123.981 6.66557 127 7.2594 129.818 8.41961C132.519 9.52872 134.983 11.1464 137.074 13.1848C139.15 15.1981 140.811 17.5984 141.965 20.2501C143.152 22.9809 143.763 25.9277 143.759 28.9057V51.0925C143.763 54.0665 143.154 57.0093 141.968 59.7368L141.965 59.7462Z" fill="#1477F8"/>
<path d="M91.3461 7.85984C90.8273 8.03029 90.3122 8.22134 89.8046 8.43113C87.1036 9.54028 84.6408 11.158 82.5501 13.1963C80.6495 15.0396 79.0946 17.2086 77.9591 19.6004C75.5485 18.5346 73.6154 16.8863 72.3398 15.5882C73.7462 12.9521 75.5541 10.5508 77.6988 8.47047C80.2209 6.00835 83.163 4.01712 86.3862 2.59082C88.4997 3.84879 90.2181 5.67424 91.3461 7.85984Z" fill="#5E93D9"/>
<path opacity="0.33" d="M77.1387 18.2689C78.1789 18.2414 79.2016 18.2276 80.2068 18.2276C123.649 18.2689 138.254 44.4735 142.186 54.2267C142.674 55.3989 143.088 56.6007 143.426 57.8249C143.426 57.8249 143.701 57.6994 144.197 57.4652C144.794 55.3951 145.095 53.2511 145.093 51.0967V28.9174C145.098 25.7654 144.451 22.6463 143.193 19.7561C141.973 16.9488 140.214 14.4079 138.016 12.2768C135.803 10.1198 133.196 8.40802 130.336 7.23445C127.353 6.00654 124.158 5.37772 120.932 5.38383H98.6886C95.4632 5.37772 92.2682 6.00655 89.2857 7.23445C86.4264 8.40773 83.8192 10.1196 81.606 12.2768C79.8077 14.0238 78.2996 16.0466 77.1387 18.2689Z" fill="#D58900"/>
<path d="M117.888 10.396C117.888 10.396 126.367 9.93143 132.515 14.1553C138.662 18.3791 135.182 19.5872 127.178 16.8937C119.174 14.2002 110.36 10.9523 117.888 10.396Z" fill="#D58900"/>
<path d="M110.931 10.21C108.252 10.0471 105.166 10.0714 104.785 11.4163C104.405 12.7612 109.359 12.5776 111.218 12.1655C113.076 11.7535 112.456 10.3037 110.931 10.21Z" fill="#D58900"/>
<path d="M76.7623 22.7232C76.5579 23.4059 76.3884 24.0986 76.2546 24.7985C74.4003 23.6073 72.0776 22.047 70.2607 20.5972C70.498 19.8242 70.7708 19.0588 71.0793 18.3008C72.5927 19.5595 74.8573 21.3839 76.7623 22.7232Z" fill="#5E93D9"/>
<path d="M74.5293 28.9174V51.093C74.5241 54.2444 75.1707 57.3629 76.4286 60.2524C77.6489 63.06 79.4078 65.601 81.6059 67.7317C83.8181 69.8901 86.4256 71.6021 89.2856 72.774C92.2678 74.0029 95.463 74.6318 98.6885 74.6247H120.933C124.159 74.6317 127.355 74.0028 130.338 72.774C133.198 71.6019 135.805 69.8899 138.018 67.7317C140.937 64.9061 143.068 61.3672 144.199 57.4652C144.796 55.3951 145.097 53.2511 145.094 51.0967V28.9174C145.1 25.7654 144.453 22.6463 143.195 19.7561C141.974 16.9488 140.216 14.4079 138.018 12.2768C135.804 10.1198 133.197 8.40802 130.338 7.23445C127.355 6.00654 124.159 5.37772 120.933 5.38383H98.6885C95.4631 5.37772 92.2681 6.00655 89.2856 7.23445C86.4263 8.40773 83.8191 10.1196 81.6059 12.2768C79.8074 14.0244 78.2993 16.0478 77.1386 18.2707C76.8888 18.7552 76.6522 19.251 76.4286 19.758C75.171 22.6476 74.5244 25.766 74.5293 28.9174ZM77.1985 28.9174C77.1955 25.1448 78.2366 21.445 80.2067 18.2276C82.1518 15.08 84.873 12.4849 88.1093 10.6912C91.3456 8.89739 94.9884 7.9651 98.6885 7.98369H120.933C132.803 7.98369 142.425 17.3492 142.425 28.9174V51.093C142.425 52.1421 142.345 53.1897 142.186 54.2267C140.633 64.3002 131.709 72.0211 120.933 72.0211H98.6885C86.8206 72.0211 77.1985 62.6556 77.1985 51.0873V28.9174Z" fill="#D58900"/>
<path d="M74.9414 27.6888V48.9335C74.9395 52.1507 75.5717 55.3367 76.802 58.3094C78.0322 61.2821 79.8364 63.9831 82.1113 66.258C84.3862 68.533 87.0873 70.3371 90.06 71.5674C93.0327 72.7977 96.2187 73.4299 99.4359 73.4279H120.186C125.824 73.4295 131.291 71.4859 135.662 67.925C140.034 64.3642 143.043 59.4042 144.182 53.8822C144.515 52.2537 144.682 50.5956 144.681 48.9335V27.6888C144.683 24.4716 144.05 21.2855 142.82 18.3128C141.59 15.3402 139.786 12.6391 137.511 10.3642C135.236 8.0893 132.535 6.28512 129.562 5.05486C126.589 3.8246 123.403 3.19237 120.186 3.19434H99.4359C94.7327 3.19634 90.1293 4.5509 86.1745 7.09652C82.2197 9.64214 79.0805 13.2714 77.1311 17.5516C77.0412 17.7502 76.9438 17.9506 76.8689 18.1529C75.5909 21.1693 74.9354 24.4128 74.9414 27.6888Z" fill="#F4F9FF"/>
<path d="M145.701 16.9122C143.583 11.8962 140.033 7.61635 135.494 4.60815C130.956 1.59995 125.631 -0.00294721 120.186 3.67156e-05H99.4359C95.7314 -0.00601272 92.0637 0.735548 88.6525 2.18032C88.4184 2.27959 88.1861 2.38074 87.9557 2.48563C82.3201 5.05634 77.7051 9.43658 74.844 14.9305C74.5069 15.5767 74.1978 16.2416 73.9075 16.9122C73.9075 16.9235 73.8981 16.9366 73.8925 16.9478C73.812 17.1351 73.7333 17.3337 73.6565 17.5285C73.3705 18.254 73.1158 18.987 72.8923 19.7275C72.3013 21.7098 71.9362 23.7526 71.804 25.8169C71.7628 26.4425 71.7422 27.07 71.7422 27.7031V48.9346C71.7402 52.5721 72.4552 56.1742 73.8462 59.5352C75.2372 62.8961 77.277 65.95 79.849 68.5221C82.421 71.0943 85.4747 73.1343 88.8355 74.5255C92.1964 75.9167 95.7985 76.632 99.4359 76.6302H120.186C121.814 76.6313 123.44 76.489 125.043 76.205C125.932 76.0488 126.813 75.8481 127.682 75.6038C128.801 75.2879 129.899 74.9026 130.969 74.45C131.112 74.39 131.254 74.3282 131.395 74.2626C137.394 71.6015 142.256 66.902 145.121 60.9974C145.325 60.5759 145.52 60.1489 145.701 59.7162C147.146 56.305 147.888 52.6373 147.882 48.9328V27.69C147.887 23.9874 147.145 20.3217 145.701 16.9122ZM139.807 57.2231C137.644 62.3282 133.581 66.3921 128.476 68.5553C128.132 68.6995 127.787 68.8363 127.439 68.9618C125.902 69.5178 124.306 69.8949 122.683 70.0856C121.854 70.1818 121.02 70.2299 120.186 70.2299H99.4359C96.6388 70.2321 93.8688 69.6828 91.2842 68.6133C88.6997 67.5439 86.3514 65.9754 84.3736 63.9975C82.3959 62.0196 80.8276 59.6711 79.7584 57.0865C78.6892 54.5018 78.1401 51.7317 78.1426 48.9346V27.69C78.1423 26.3704 78.2639 25.0537 78.5059 23.7565C78.6308 23.0859 78.7882 22.4235 78.978 21.7692C79.0697 21.4563 79.1653 21.1473 79.272 20.8326C79.435 20.3512 79.6167 19.8773 79.8152 19.4072C79.9051 19.1936 79.9988 18.982 80.0962 18.7722C82.3233 13.9575 86.2628 10.1442 91.1475 8.07495C91.6214 7.87453 92.1009 7.69097 92.586 7.52801C94.7918 6.77864 97.1063 6.39891 99.4359 6.40415H120.186C122.982 6.40341 125.75 6.95347 128.333 8.0229C130.916 9.09233 133.263 10.6602 135.24 12.6369C137.217 14.6136 138.785 16.9604 139.854 19.5432C140.924 22.1261 141.474 24.8944 141.474 27.69V48.9346C141.479 51.7786 140.911 54.5945 139.803 57.2137L139.807 57.2231Z" fill="#8AB9F7"/>
<path d="M92.586 7.5287C92.1009 7.69166 91.6214 7.87522 91.1475 8.07564C86.2629 10.1449 82.3233 13.9582 80.0962 18.7729C77.8485 17.7521 76.0447 16.1749 74.8516 14.9312C77.7127 9.43728 82.3276 5.05703 87.9632 2.48633C89.9436 3.70392 91.5446 5.45028 92.586 7.5287Z" fill="#1477F8"/>
<path opacity="0.12" d="M79.332 17.4962C80.2998 17.47 81.2538 17.4575 82.1941 17.4587C122.72 17.4981 136.345 42.5957 140.013 51.9349C140.469 53.0597 140.855 54.2113 141.17 55.3833C141.17 55.3833 141.427 55.2634 141.89 55.0368C142.447 53.0507 142.729 50.9972 142.725 48.9342V27.6896C142.727 24.7296 142.145 21.7983 141.012 19.0634C139.88 16.3285 138.22 13.8436 136.127 11.7508C134.033 9.65805 131.548 7.99843 128.813 6.86688C126.078 5.73533 123.146 5.15404 120.186 5.15626H99.436C95.2727 5.15817 91.1911 6.31192 87.643 8.48981C84.0948 10.6677 81.2184 13.7848 79.332 17.4962Z" fill="white"/>
<path d="M117.344 9.95677C117.344 9.95677 125.256 9.51285 130.99 13.5569C136.723 17.6009 133.479 18.7566 126.013 16.1792C118.547 13.6018 110.322 10.4906 117.344 9.95677Z" fill="#1477F8"/>
<path d="M110.856 9.77913C108.358 9.62366 105.477 9.64614 105.123 10.9348C104.769 12.2235 109.39 12.0456 111.117 11.6466C112.844 11.2476 112.278 9.86716 110.856 9.77913Z" fill="#1477F8"/>
<path d="M78.9778 21.7634C78.7893 22.4177 78.632 23.0802 78.5058 23.7507C76.777 22.61 74.6098 21.1153 72.9053 19.7273C73.1288 18.9856 73.3835 18.2526 73.6695 17.5283C75.0912 18.7327 77.2022 20.4803 78.9778 21.7634Z" fill="#1477F8"/>
<path d="M114.342 49.5654H109.598L109.271 51.2493L108.373 52.7153L111.973 52.9367L115.727 52.7153L115.076 51.0417L114.342 49.5654Z" fill="#FFD064"/>
<path d="M115.076 51.0416L111.291 51.0414C111.161 51.0414 111.044 51.1215 110.997 51.2431L110.424 52.7151L109.415 52.9814L108.373 52.7151L109.599 49.5649L111.946 49.2744L114.502 49.5649L115.076 51.0416Z" fill="#FFC250"/>
<path d="M114.808 23.3864C114.808 22.4363 113.758 20.9571 112.94 19.9483C112.449 19.3441 111.527 19.3441 111.037 19.9483C110.864 20.1621 110.68 20.3969 110.498 20.6435C110.498 20.6435 110.468 20.7126 110.443 20.7462C109.794 21.6404 109.275 22.6443 109.275 23.3659C109.275 24.9229 110.432 26.2965 111.988 26.2965C113.017 26.2965 113.85 25.7556 114.342 24.8761C114.393 24.7849 114.548 24.6041 114.548 24.6041C114.715 24.2235 114.808 23.8086 114.808 23.3864Z" fill="#FFE07D"/>
<path d="M114.548 24.604C114.102 25.627 113.123 26.3994 111.988 26.3994C110.431 26.3994 109.169 24.943 109.169 23.3863C109.169 22.6364 109.821 21.5611 110.498 20.6436C110.39 20.9378 110.329 21.2116 110.329 21.4563C110.329 23.1933 111.737 24.8175 113.475 24.8175C113.852 24.8174 114.214 24.7422 114.548 24.604Z" fill="#FFD064"/>
<path d="M113.039 26.3994H111.06C110.659 26.3994 110.267 26.4472 109.888 26.5383C109.888 26.5383 109.517 26.7519 109.304 26.835C107.873 27.3948 106.804 28.5079 106.3 30.0765H117.956H117.753C117.58 29.5374 117.221 28.6 117.221 28.6C116.263 27.2427 114.722 26.3994 113.039 26.3994Z" fill="#FFE07D"/>
<path d="M117.956 30.0768L112.042 30.497L106.144 30.0768C106.723 28.2744 108.159 26.9536 109.889 26.5381C109.491 26.9593 109.158 27.4509 108.908 27.9978C108.78 28.2794 108.98 28.6003 109.29 28.6003L117.221 28.5997C117.533 29.0417 117.783 29.5378 117.956 30.0768Z" fill="#FFD064"/>
<path d="M117.872 30.0762H106.227C105.897 30.0762 105.577 30.1198 105.272 30.2016C105.272 30.2016 105.102 30.3014 105.004 30.3369C103.591 30.8497 102.665 32.1629 102.665 33.7532H121.375C121.375 33.2298 121.329 32.774 121.132 32.3233C121.1 32.2501 121.139 32.0656 121.139 32.0656C120.528 30.8838 119.294 30.0762 117.872 30.0762Z" fill="#FFE07D"/>
<path d="M121.549 33.7538L112.655 34.3075L102.55 33.7538C102.55 32.0537 103.705 30.6219 105.272 30.2021C105.025 30.6207 104.859 31.0931 104.795 31.5967C104.763 31.8466 104.963 32.0663 105.215 32.0663L121.14 32.0661C121.401 32.5714 121.549 33.1453 121.549 33.7538Z" fill="#FFD064"/>
<path d="M122.108 23.2026L122.651 23.4604C123.287 23.8162 123.917 24.4464 124.273 25.0818L124.531 25.6249C124.633 25.8085 124.898 25.8085 125 25.6249L125.258 25.0818C125.482 24.6829 125.833 24.2535 126.175 23.9562C126.289 23.8571 126.578 23.753 126.578 23.753C126.676 23.6863 126.776 23.6239 126.88 23.5659L127.528 23.2026C127.712 23.0998 127.712 22.8356 127.528 22.7328L126.88 22.3696C126.244 22.0137 125.719 21.489 125.364 20.8536L125 20.2051C124.898 20.0215 124.633 20.0215 124.531 20.2051L124.167 20.8536C123.971 21.2033 123.725 21.5194 123.436 21.7924C123.436 21.7924 123.296 22.0116 123.204 22.0847C123.041 22.2131 122.834 22.373 122.651 22.475L122.108 22.7328C121.925 22.8356 121.925 23.0998 122.108 23.2026Z" fill="#FEE581"/>
<path d="M126.578 23.7525C126.077 24.0953 125.662 24.5493 125.363 25.0819L125.001 25.7294C124.897 25.914 124.633 25.914 124.53 25.7294L124.167 25.0819C123.811 24.4459 123.287 23.9218 122.651 23.5653L122.003 23.2025C121.819 23.0991 121.819 22.8355 122.003 22.7321L122.651 22.3693C122.937 22.209 123.201 22.0156 123.436 21.792C123.924 22.9479 125.067 23.7583 126.4 23.7583C126.46 23.7583 126.519 23.7558 126.578 23.7525Z" fill="#FEE581"/>
<path d="M92.8637 59.2946L93.7605 59.7504C94.7426 60.3004 95.6589 61.2167 96.2088 62.1987L96.5592 62.9901C96.7181 63.2738 97.1264 63.2738 97.2853 62.9901L97.7411 62.1987C98.016 61.7078 98.3754 61.2424 98.7886 60.8484C98.8437 60.7959 99.0157 60.7113 99.0157 60.7113C99.3698 60.382 99.7635 60.0944 100.189 59.8559L101.192 59.2946C101.475 59.1356 101.475 58.7274 101.192 58.5684L100.189 58.0072C99.2073 57.4572 98.3965 56.6463 97.8466 55.6643L97.2853 54.662C97.1264 54.3783 96.7181 54.3783 96.5592 54.662L95.9979 55.6643C95.7205 56.1596 95.3768 56.6113 94.9782 57.008C94.9782 57.008 94.9613 57.0453 94.9482 57.0582C94.5661 57.4317 94.128 57.776 93.6573 58.0395L92.8637 58.5684C92.58 58.7274 92.58 59.1356 92.8637 59.2946Z" fill="#FEE581"/>
<path d="M99.0159 60.7111C98.5535 61.1427 98.1583 61.6425 97.8471 62.1983L97.2849 63.2011C97.1261 63.4841 96.7189 63.4841 96.56 63.2011L95.9978 62.1983C95.4484 61.2161 94.6377 60.4054 93.6555 59.856L92.6527 59.2938C92.3697 59.1349 92.3697 58.7277 92.6527 58.5689L93.6555 58.0067C94.1421 57.7352 94.5866 57.3984 94.9785 57.0078C95.6379 58.8097 97.1448 60.2052 99.0159 60.7111Z" fill="#FEE581"/>
<path d="M125.958 55.5393L126.696 55.9148C127.505 56.3677 128.26 57.1224 128.713 57.9311L129.001 58.5829C129.132 58.8166 129.468 58.8166 129.599 58.5829L129.975 57.9311C130.201 57.5269 130.497 57.1436 130.837 56.8191C130.883 56.7758 131.024 56.7061 131.024 56.7061C131.316 56.4348 131.64 56.1981 131.991 56.0016L132.817 55.5393C133.05 55.4084 133.05 55.0722 132.817 54.9413L131.991 54.4791C131.182 54.0262 130.515 53.3584 130.062 52.5496L129.599 51.7241C129.469 51.4904 129.132 51.4904 129.001 51.7241L128.539 52.5496C128.311 52.9574 128.028 53.3295 127.699 53.6561C127.699 53.6561 127.685 53.6869 127.675 53.6975C127.36 54.0051 126.999 54.2886 126.612 54.5057L125.958 54.9412C125.724 55.0721 125.724 55.4084 125.958 55.5393Z" fill="#FEE581"/>
<path d="M131.025 56.7061C130.644 57.0615 130.318 57.4732 130.062 57.9309L129.599 58.7567C129.468 58.9897 129.133 58.9897 129.002 58.7567L128.539 57.9309C128.087 57.122 127.419 56.4544 126.61 56.0018L125.784 55.5388C125.551 55.408 125.551 55.0727 125.784 54.9419L126.61 54.4789C127.011 54.2553 127.377 53.9779 127.699 53.6562C128.243 55.1403 129.484 56.2895 131.025 56.7061Z" fill="#FEE581"/>
<path d="M119.038 47.4816C118.61 47.4816 118.195 47.3041 117.899 46.9826C117.527 46.5791 117.396 46.0092 117.554 45.484L119.391 39.3998C119.468 39.1439 119.611 38.9124 119.804 38.7278L125.044 33.7157C126.617 32.2109 128.828 31.579 130.959 32.0251C133.09 32.4713 134.862 33.9374 135.699 35.9469C136.455 37.7618 136.366 39.8018 135.455 41.5441C134.544 43.2864 132.92 44.5234 130.998 44.9379L119.365 47.4469C119.256 47.4701 119.147 47.4816 119.038 47.4816ZM122.241 40.6857L121.282 43.8625L130.344 41.9078C131.364 41.688 132.225 41.0319 132.708 40.1077C133.192 39.1835 133.239 38.1014 132.838 37.1388C132.387 36.0569 131.471 35.2988 130.323 35.0586C129.177 34.8184 128.033 35.1453 127.186 35.9554L122.241 40.6857Z" fill="#FFE07D"/>
<path d="M126.29 42.782C126.135 43.5139 125.902 44.2363 125.588 44.9387C125.382 45.3975 125.147 45.8374 124.884 46.2561L119.365 47.4466C119.256 47.4698 119.146 47.4814 119.038 47.4814C118.61 47.4814 118.196 47.3042 117.899 46.9826C117.527 46.5786 117.395 46.0091 117.555 45.4839L119.391 39.3996C119.469 39.1433 119.61 38.9123 119.803 38.7278L124.425 34.3066C125.079 35.1841 125.584 36.1449 125.933 37.1532L122.241 40.6852L121.282 43.8618L126.29 42.782Z" fill="#FFD064"/>
<path d="M121.548 33.7539L102.551 33.754H91.0394C88.6877 33.754 86.4372 34.6396 84.7232 36.2105C84.7232 36.2105 84.6843 36.3287 84.6411 36.37C84.4138 36.5864 84.2535 36.7779 84.0472 37.0186C83.7045 37.4184 83.9923 37.9301 84.5187 37.9248L87.4643 37.8936C92.2 37.8453 96.7333 40.3406 99.2923 44.3257C101.389 47.5913 105.094 49.4275 108.974 49.4275L115.592 49.4544C117.5 49.4544 119.338 48.9451 120.843 47.9001C120.909 47.8542 121.09 47.7727 121.09 47.7727C122.309 46.8658 123.305 45.6497 123.953 44.2057C125.394 40.9904 124.773 37.2249 122.375 34.6429L121.548 33.7539Z" fill="#FFE07D"/>
<path d="M121.09 47.7723C119.556 48.9134 117.668 49.5648 115.675 49.5648H108.778C106.837 49.5648 104.963 49.0712 103.313 48.1695C101.662 47.2678 100.234 45.9579 99.1858 44.3253C96.6272 40.3397 92.1987 37.9499 87.4633 37.9984L84.4121 38.03C84.0441 38.0342 83.792 37.7316 83.792 37.4131C83.792 37.277 83.8384 37.1378 83.9407 37.0176C84.1864 36.7307 84.4482 36.4621 84.7235 36.21C86.4837 36.21 88.0138 36.2097 88.0254 36.2107C93.1827 36.3478 97.8949 38.9971 100.695 43.356C102.47 46.1213 105.492 47.7719 108.778 47.7719L121.09 47.7723Z" fill="#FFD064"/>
<path d="M116.546 52.7148H107.553C107.29 52.7148 107.038 52.7493 106.8 52.8141C106.679 52.8471 106.548 52.9329 106.434 52.9813C105.397 53.422 104.72 54.4277 104.72 55.6538V55.5483C104.72 55.8395 104.956 56.0756 105.247 56.0756H118.852C119.143 56.0756 119.379 55.8395 119.379 55.5483C119.379 55.3238 119.394 55.2222 119.346 55.0121C119.331 54.9476 119.362 54.8094 119.362 54.8094C118.999 53.5977 117.876 52.7148 116.546 52.7148Z" fill="#FFE07D"/>
<path d="M119.485 55.6536C119.485 55.9457 119.249 56.1809 118.958 56.1809H105.142C104.996 56.1809 104.864 56.1219 104.769 56.0269C104.673 55.932 104.614 55.7991 104.614 55.6536C104.614 54.292 105.543 53.1456 106.801 52.8145C106.551 53.2469 106.407 53.7478 106.407 54.2825V54.4935C106.407 54.6685 106.55 54.8099 106.724 54.8099L119.362 54.8097C119.442 55.0766 119.485 55.3604 119.485 55.6536Z" fill="#FFD064"/>
<path d="M91.4926 21.4323L92.3894 21.8881C93.3715 22.4381 94.2878 23.3544 94.8377 24.3364L95.1881 25.1278C95.347 25.4115 95.7553 25.4115 95.9142 25.1278L96.37 24.3364C96.6449 23.8455 97.0043 23.3801 97.4175 22.9861C97.4726 22.9336 97.6446 22.849 97.6446 22.849C97.9987 22.5196 98.3924 22.2321 98.8183 21.9936L99.8207 21.4323C100.104 21.2733 100.104 20.8651 99.8207 20.7061L98.8183 20.1449C97.8362 19.5948 97.0254 18.784 96.4755 17.802L95.9142 16.7997C95.7553 16.516 95.347 16.516 95.1881 16.7997L94.6268 17.802C94.3494 18.2973 94.0057 18.749 93.6071 19.1457C93.6071 19.1457 93.5902 19.183 93.5771 19.1959C93.195 19.5694 92.7569 19.9137 92.2862 20.1772L91.4926 20.7061C91.2089 20.8651 91.2089 21.2733 91.4926 21.4323Z" fill="#FEE581"/>
<path d="M97.6448 22.8488C97.1824 23.2804 96.7872 23.7802 96.476 24.336L95.9138 25.3388C95.755 25.6218 95.3478 25.6218 95.1889 25.3388L94.6267 24.336C94.0773 23.3538 93.2666 22.5431 92.2844 21.9937L91.2816 21.4315C90.9986 21.2726 90.9986 20.8654 91.2816 20.7066L92.2844 20.1444C92.771 19.8729 93.2155 19.536 93.6074 19.1455C94.2668 20.9475 95.7738 22.343 97.6448 22.8488Z" fill="#FEE581"/>
<path d="M86.3554 47.9868L86.8984 48.2446C87.5339 48.6004 88.164 49.2306 88.5199 49.866L88.7776 50.4091C88.8805 50.5927 89.1447 50.5927 89.2475 50.4091L89.5052 49.866C89.7286 49.467 90.0797 49.0377 90.4218 48.7404C90.5359 48.6413 90.8253 48.5371 90.8253 48.5371C90.9226 48.4705 91.0232 48.408 91.1267 48.35L91.7752 47.9868C91.9588 47.884 91.9588 47.6198 91.7752 47.517L91.1267 47.1537C90.4912 46.7979 89.9666 46.2732 89.6107 45.6378L89.2475 44.9893C89.1447 44.8057 88.8805 44.8057 88.7776 44.9893L88.4144 45.6378C88.2186 45.9875 87.9717 46.3036 87.6832 46.5765C87.6832 46.5765 87.5433 46.7958 87.4508 46.8689C87.2883 46.9972 87.0806 47.1572 86.8984 47.2592L86.3554 47.517C86.1719 47.6198 86.1719 47.884 86.3554 47.9868Z" fill="#FEE581"/>
<path d="M90.825 48.5367C90.3241 48.8794 89.9088 49.3335 89.6104 49.8661L89.2476 50.5136C89.1442 50.6982 88.8806 50.6982 88.7772 50.5136L88.4144 49.8661C88.0579 49.2301 87.5338 48.7059 86.8978 48.3495L86.2502 47.9867C86.0657 47.8833 86.0657 47.6196 86.2502 47.5163L86.8978 47.1535C87.1836 46.9932 87.4479 46.7998 87.6831 46.5762C88.1714 47.7321 89.314 48.5425 90.6471 48.5425C90.7073 48.5425 90.766 48.5399 90.825 48.5367Z" fill="#FEE581"/>
<path d="M136.429 35.6427C135.492 33.3924 133.507 31.7506 131.121 31.2509C128.735 30.7511 126.259 31.4591 124.497 33.1441L123.202 34.3824C123.108 34.2653 122.484 33.599 122.328 33.4294C122.176 31.3386 120.567 29.6365 118.524 29.3338C117.811 27.6282 116.397 26.3643 114.709 25.8554C115.26 25.1853 115.599 24.319 115.599 23.3864C115.599 23.0362 115.599 21.9707 113.554 19.45C113.17 18.9759 112.599 18.7041 111.989 18.7041C111.378 18.7041 110.808 18.976 110.423 19.45C108.379 21.9707 108.379 23.0362 108.379 23.3864C108.379 24.3327 108.728 25.2111 109.294 25.8852C107.647 26.4122 106.274 27.6595 105.576 29.3339C103.688 29.6142 102.17 31.0903 101.832 32.9625H91.0388C88.0751 32.9625 85.2693 34.2531 83.3405 36.5033C82.9774 36.927 82.8983 37.5043 83.134 38.01C83.3697 38.5157 83.8658 38.8286 84.4207 38.8207L87.4717 38.7896C89.5728 38.7698 91.6777 39.2666 93.5484 40.231C93.6644 40.2907 93.7882 40.3191 93.9102 40.3191C94.1968 40.3191 94.4735 40.1628 94.614 39.8904C94.8141 39.502 94.6616 39.025 94.2733 38.8248C92.1744 37.7429 89.8162 37.1841 87.4555 37.2077L84.8095 37.2347C86.4235 35.5203 88.6716 34.5446 91.0387 34.5446H106.794C107.231 34.5446 107.585 34.1905 107.585 33.7536C107.585 33.3168 107.231 32.9626 106.794 32.9626H103.454C103.8 31.7566 104.918 30.8675 106.228 30.8675H117.872C119.183 30.8675 120.3 31.7563 120.647 32.9626H110.485C110.048 32.9626 109.694 33.3168 109.694 33.7536C109.694 34.1905 110.048 34.5446 110.485 34.5446H121.204C123.791 36.9445 124.683 40.659 123.23 43.8817C121.898 46.8538 118.933 48.7743 115.675 48.7743H108.778C105.149 48.7743 101.812 46.9513 99.8517 43.8978C99.1754 42.8444 98.3652 41.8819 97.4438 41.0366C97.1219 40.7413 96.6215 40.7628 96.3262 41.0848C96.0309 41.4066 96.0524 41.907 96.3744 42.2024C97.1956 42.9557 97.9176 43.8137 98.5205 44.7526C100.713 48.1675 104.404 50.2424 108.444 50.3511L107.832 51.9241H107.554C105.497 51.9241 103.824 53.5973 103.824 55.654C103.824 56.381 104.415 56.9723 105.142 56.9723H109.771C110.208 56.9723 110.562 56.6182 110.562 56.1813C110.562 55.7445 110.208 55.3903 109.771 55.3903H105.422C105.552 54.33 106.459 53.5061 107.554 53.5061H116.547C117.642 53.5061 118.548 54.33 118.678 55.3903H113.462C113.025 55.3903 112.671 55.7445 112.671 56.1813C112.671 56.6182 113.025 56.9723 113.462 56.9723H118.958C119.685 56.9723 120.276 56.381 120.276 55.654C120.276 53.5974 118.603 51.9241 116.546 51.9241H116.268L115.658 50.3562H115.675C118.282 50.3562 120.73 49.3227 122.538 47.5716L131.165 45.7111C133.317 45.247 135.136 43.8618 136.156 41.9107C137.177 39.9595 137.276 37.6751 136.429 35.6427ZM111.652 20.4465C111.765 20.3069 111.912 20.2861 111.989 20.2861C112.066 20.2861 112.212 20.3069 112.326 20.4465C113.573 21.9839 114.017 22.9731 114.017 23.3864C114.017 24.5492 113.05 25.6083 111.989 25.6083C110.928 25.6083 109.961 24.5492 109.961 23.3864C109.961 22.9731 110.405 21.9839 111.652 20.4465ZM111.061 27.1903H113.04C114.548 27.1903 115.929 28.0012 116.726 29.2855H107.374C108.171 28.0006 109.55 27.1903 111.061 27.1903ZM114.571 51.924H109.53L110.14 50.3561H113.961L114.571 51.924ZM134.755 41.1776C133.953 42.711 132.523 43.7998 130.831 44.1646L124.101 45.6163C124.444 45.0125 124.59 44.7845 124.935 43.8839L130.511 42.6812C131.761 42.4116 132.818 41.6073 133.41 40.4744C133.803 39.7232 133.964 38.8823 133.876 38.0427C133.831 37.6082 133.442 37.292 133.008 37.3381C132.573 37.3834 132.258 37.7724 132.303 38.2069C132.358 38.7361 132.256 39.2667 132.008 39.7414C131.634 40.4568 130.967 40.9646 130.178 41.1347L125.386 42.1683C125.571 41.0491 125.553 39.9138 125.342 38.8142L127.733 36.5272C128.389 35.9001 129.274 35.6469 130.162 35.833C130.341 35.8705 130.515 35.9247 130.68 35.9941C131.082 36.1642 131.546 35.9756 131.716 35.5732C131.886 35.1708 131.698 34.7067 131.295 34.5368C131.037 34.4278 130.765 34.343 130.486 34.2845C129.08 33.9901 127.678 34.3906 126.64 35.3839L124.845 37.1008C124.651 36.6102 124.414 36.134 124.138 35.6766L125.591 34.2873C126.975 32.9628 128.922 32.4065 130.797 32.7993C132.673 33.192 134.232 34.4824 134.969 36.2511C135.635 37.8485 135.556 39.6441 134.755 41.1776Z" fill="#331E00"/>
<path d="M133.203 54.2509L132.378 53.7888C131.696 53.4069 131.134 52.8448 130.752 52.163L130.29 51.3376C130.089 50.98 129.71 50.7578 129.301 50.7578C128.891 50.7578 128.512 50.9799 128.311 51.3376L127.849 52.163C127.467 52.8448 126.905 53.4069 126.224 53.7888L125.398 54.251C125.041 54.4513 124.818 54.8303 124.818 55.2401C124.818 55.6499 125.04 56.0289 125.398 56.2292L126.224 56.6913C126.905 57.0732 127.467 57.6353 127.849 58.3171L128.312 59.1425C128.512 59.5001 128.891 59.7223 129.301 59.7223C129.71 59.7223 130.089 59.5002 130.29 59.1425L130.752 58.3171C131.134 57.6353 131.696 57.0732 132.378 56.6913L133.203 56.2291C133.561 56.0288 133.783 55.6498 133.783 55.24C133.783 54.8302 133.561 54.4513 133.203 54.2509ZM131.605 55.3113C130.668 55.8357 129.896 56.6079 129.372 57.5443L129.301 57.6713L129.23 57.5443C128.705 56.6079 127.933 55.8357 126.997 55.3113L126.87 55.2402L126.997 55.1691C127.933 54.6448 128.705 53.8725 129.23 52.9361L129.301 52.8091L129.372 52.9361C129.896 53.8725 130.668 54.6448 131.605 55.1691L131.732 55.2402L131.605 55.3113Z" fill="#1477F8"/>
<path d="M101.579 57.8782L100.577 57.3169C99.7215 56.838 99.0164 56.133 98.5375 55.2778L97.9763 54.2755C97.763 53.8948 97.3595 53.6582 96.9231 53.6582C96.4867 53.6582 96.0832 53.8948 95.8699 54.2755L95.3086 55.2778C94.8297 56.133 94.1247 56.8381 93.2695 57.3169L92.2672 57.8782C91.8865 58.0915 91.6499 58.495 91.6499 58.9314C91.6499 59.3678 91.8865 59.7713 92.2672 59.9846L93.2695 60.5458C94.1247 61.0248 94.8298 61.7298 95.3086 62.5849L95.8699 63.5873C96.0832 63.968 96.4867 64.2046 96.9231 64.2046C97.3595 64.2046 97.763 63.968 97.9763 63.5873L98.5375 62.5849C99.0165 61.7298 99.7215 61.0247 100.577 60.5458L101.579 59.9846C101.96 59.7713 102.196 59.3678 102.196 58.9314C102.196 58.495 101.96 58.0915 101.579 57.8782ZM99.8037 59.1656C98.6938 59.7871 97.7787 60.7023 97.1572 61.8121L96.923 62.2303L96.6887 61.8121C96.0672 60.7023 95.1521 59.7871 94.0423 59.1656L93.624 58.9314L94.0423 58.6971C95.1521 58.0756 96.0672 57.1605 96.6887 56.0507L96.923 55.6324L97.1572 56.0507C97.7787 57.1605 98.6938 58.0756 99.8037 58.6971L100.222 58.9314L99.8037 59.1656Z" fill="#1477F8"/>
<path d="M90.8956 22.1223L91.898 22.6835C92.7531 23.1625 93.4582 23.8675 93.937 24.7226L94.4983 25.725C94.7116 26.1057 95.1151 26.3423 95.5515 26.3423C95.9879 26.3423 96.3914 26.1057 96.6047 25.725L97.166 24.7226C97.6449 23.8675 98.3499 23.1624 99.205 22.6835L100.207 22.1223C100.588 21.909 100.825 21.5055 100.825 21.0691C100.825 20.6327 100.588 20.2291 100.207 20.0159L99.205 19.4546C98.3499 18.9757 97.6448 18.2707 97.166 17.4155L96.6047 16.4132C96.3914 16.0325 95.9879 15.7959 95.5515 15.7959C95.1151 15.7959 94.7116 16.0325 94.4983 16.4132L93.937 17.4155C93.4581 18.2707 92.7531 18.9758 91.898 19.4546L90.8956 20.0159C90.5149 20.2291 90.2783 20.6327 90.2783 21.0691C90.2783 21.5055 90.5148 21.909 90.8956 22.1223ZM92.6709 20.8348C93.7807 20.2133 94.6959 19.2982 95.3174 18.1884L95.5516 17.7701L95.7858 18.1884C96.4074 19.2982 97.3225 20.2133 98.4323 20.8348L98.8506 21.0691L98.4323 21.3033C97.3225 21.9248 96.4074 22.84 95.7858 23.9498L95.5516 24.368L95.3174 23.9498C94.6959 22.84 93.7807 21.9248 92.6709 21.3033L92.2526 21.0691L92.6709 20.8348Z" fill="#1477F8"/>
<path d="M121.616 23.8926L122.265 24.2558C122.773 24.5405 123.192 24.9597 123.477 25.468L123.84 26.1167C124.028 26.451 124.382 26.6588 124.765 26.6588C125.149 26.6588 125.503 26.451 125.69 26.1166L126.054 25.468C126.338 24.9597 126.758 24.5405 127.266 24.2558L127.915 23.8926C128.249 23.7053 128.457 23.3508 128.457 22.9676C128.457 22.5843 128.249 22.2298 127.914 22.0425L127.266 21.6793C126.758 21.3946 126.338 20.9754 126.054 20.4671L125.69 19.8185C125.503 19.4841 125.149 19.2764 124.765 19.2764C124.382 19.2764 124.028 19.4841 123.84 19.8186L123.477 20.4671C123.192 20.9754 122.773 21.3946 122.265 21.6793L121.616 22.0425C121.282 22.2298 121.074 22.5843 121.074 22.9676C121.074 23.3508 121.282 23.7053 121.616 23.8926ZM124.766 21.3972C125.157 22.0378 125.695 22.5758 126.336 22.9676C125.695 23.3594 125.157 23.8973 124.766 24.5379C124.374 23.8973 123.836 23.3594 123.195 22.9676C123.836 22.5759 124.374 22.0378 124.766 21.3972Z" fill="#1477F8"/>
<path d="M92.7042 47.7517C92.7042 47.3685 92.4964 47.014 92.162 46.8267L91.5135 46.4635C91.0051 46.1788 90.5859 45.7596 90.3012 45.2513L89.938 44.6026C89.7507 44.2683 89.3962 44.0605 89.013 44.0605C88.6297 44.0605 88.2752 44.2683 88.0879 44.6027L87.7247 45.2513C87.4401 45.7596 87.0208 46.1788 86.5125 46.4635L85.8639 46.8267C85.5295 47.014 85.3218 47.3685 85.3218 47.7517C85.3218 48.135 85.5295 48.4895 85.8639 48.6768L86.5125 49.04C87.0208 49.3247 87.4401 49.7439 87.7247 50.2522L88.0879 50.9008C88.2752 51.2352 88.6297 51.4429 89.013 51.4429C89.3962 51.4429 89.7507 51.2352 89.938 50.9007L90.3012 50.2522C90.5859 49.7439 91.0051 49.3247 91.5135 49.04L92.1621 48.6768C92.4964 48.4895 92.7042 48.135 92.7042 47.7517ZM89.0129 49.3222C88.6211 48.6816 88.0831 48.1437 87.4425 47.7518C88.0831 47.36 88.6211 46.8221 89.0129 46.1815C89.4047 46.8221 89.9426 47.36 90.5832 47.7518C89.9426 48.1435 89.4047 48.6815 89.0129 49.3222Z" fill="#1477F8"/>
</svg>
