<svg width="204" height="198" viewBox="0 0 204 198" fill="none" xmlns="http://www.w3.org/2000/svg">
<path d="M0.8461 55.6831V177.989C0.8461 188.757 9.57521 197.486 20.3434 197.486H69.135L101.954 193.416L134.631 197.486H183.564C194.333 197.486 203.062 188.757 203.062 177.989V55.6831L102.548 48.8516L0.8461 55.6831Z" fill="#F3E8E5"/>
<path d="M190.855 48.8516V166.197C190.855 176.961 182.129 185.688 171.365 185.688H8.12998C6.00006 185.688 3.95191 185.341 2.03296 184.709C4.76856 192.166 11.9307 197.487 20.3359 197.487H74.1523L104.799 193.417L129.754 197.487H183.57C194.335 197.487 203.061 188.761 203.061 177.997V55.6831L190.855 48.8516Z" fill="#EBE1DC"/>
<path d="M193.213 15.8594H10.5531C5.15298 15.8594 0.775391 20.237 0.775391 25.6371V55.6844H202.991V25.6371C202.991 20.237 198.613 15.8594 193.213 15.8594Z" fill="#60B7FF"/>
<path d="M193.213 15.8594H181.007C186.407 15.8594 190.784 20.237 190.784 25.6371V55.6844H202.991V25.6371C202.991 20.237 198.613 15.8594 193.213 15.8594Z" fill="#26A6FE"/>
<path d="M30.8796 30.6022H30.4537C26.5578 30.6022 23.399 27.4438 23.399 23.5474V7.73832C23.399 3.84234 26.5574 0.683594 30.4537 0.683594H30.8796C34.7756 0.683594 37.9344 3.84194 37.9344 7.73832V23.5474C37.934 27.4438 34.7756 30.6022 30.8796 30.6022Z" fill="#537983"/>
<path d="M63.0083 30.6022H62.5824C58.6865 30.6022 55.5277 27.4438 55.5277 23.5474V7.73832C55.5277 3.84234 58.6861 0.683594 62.5824 0.683594H63.0083C66.9043 0.683594 70.0631 3.84194 70.0631 7.73832V23.5474C70.0631 27.4438 66.9043 30.6022 63.0083 30.6022Z" fill="#537983"/>
<path d="M140.089 30.6022H139.663C135.767 30.6022 132.609 27.4438 132.609 23.5474V7.73832C132.609 3.84234 135.767 0.683594 139.663 0.683594H140.089C143.985 0.683594 147.144 3.84194 147.144 7.73832V23.5474C147.144 27.4438 143.986 30.6022 140.089 30.6022Z" fill="#537983"/>
<path d="M172.218 30.6022H171.792C167.896 30.6022 164.738 27.4438 164.738 23.5474V7.73832C164.738 3.84234 167.896 0.683594 171.792 0.683594H172.218C176.114 0.683594 179.273 3.84194 179.273 7.73832V23.5474C179.273 27.4438 176.114 30.6022 172.218 30.6022Z" fill="#537983"/>
<path d="M80.7368 130.097C80.5018 130.097 80.2635 130.07 80.0245 130.013L73.2076 128.383C62.4517 125.812 54.9395 116.292 54.9395 105.232V83.9086C54.9395 80.2671 57.9018 77.3047 61.543 77.3047H75.2273C76.9136 77.3047 78.2798 78.6713 78.2798 80.3572C78.2798 82.0434 76.9132 83.4096 75.2273 83.4096H61.543C61.2684 83.4096 61.0444 83.6332 61.0444 83.9086V105.232C61.0444 113.455 66.6298 120.533 74.6272 122.445L81.444 124.075C83.0837 124.467 84.0951 126.114 83.7028 127.754C83.3685 129.155 82.1173 130.097 80.7368 130.097Z" fill="#FDAF23"/>
<path d="M123.029 130.097C121.649 130.097 120.398 129.155 120.063 127.754C119.671 126.114 120.682 124.467 122.322 124.075L129.138 122.445C137.135 120.533 142.721 113.455 142.721 105.232V83.9086C142.721 83.6336 142.498 83.4096 142.222 83.4096H128.538C126.852 83.4096 125.486 82.043 125.486 80.3572C125.486 78.6709 126.853 77.3047 128.538 77.3047H142.222C145.864 77.3047 148.826 80.2671 148.826 83.9086V105.232C148.826 116.292 141.314 125.812 130.558 128.383L123.741 130.013C123.503 130.07 123.264 130.097 123.029 130.097Z" fill="#FDAF23"/>
<path d="M34.7895 138.934C33.2948 138.934 31.9887 137.836 31.7714 136.313C31.5327 134.644 32.6927 133.098 34.3616 132.86L48.3936 130.855C50.0585 130.617 51.6088 131.776 51.8471 133.445C52.0857 135.114 50.9257 136.661 49.2569 136.899L35.2249 138.903C35.0791 138.924 34.9333 138.934 34.7895 138.934Z" fill="#8EBAC5"/>
<path d="M41.1694 154.54C39.966 154.54 38.8253 153.824 38.3421 152.641C37.7045 151.08 38.4532 149.298 40.0138 148.66L52.7408 143.462C54.301 142.824 56.0833 143.573 56.7209 145.134C57.3586 146.695 56.6099 148.476 55.0493 149.114L42.3223 154.312C41.945 154.467 41.5538 154.54 41.1694 154.54Z" fill="#8EBAC5"/>
<path d="M47.5449 170.147C46.6066 170.147 45.6809 169.716 45.0827 168.902C44.0847 167.543 44.3763 165.633 45.7354 164.634L57.1579 156.241C58.5162 155.243 60.4269 155.535 61.4252 156.894C62.4232 158.253 62.1317 160.163 60.7726 161.161L49.3501 169.554C48.8057 169.954 48.1727 170.147 47.5449 170.147Z" fill="#8EBAC5"/>
<path d="M168.977 138.933C168.833 138.933 168.687 138.923 168.541 138.902L154.509 136.898C152.84 136.659 151.68 135.113 151.919 133.445C152.157 131.775 153.707 130.62 155.372 130.854L169.404 132.859C171.073 133.097 172.233 134.643 171.994 136.312C171.777 137.835 170.471 138.933 168.977 138.933Z" fill="#8EBAC5"/>
<path d="M162.597 154.539C162.212 154.539 161.821 154.466 161.444 154.312L148.717 149.114C147.156 148.476 146.407 146.694 147.045 145.134C147.683 143.573 149.463 142.824 151.025 143.462L163.752 148.661C165.313 149.298 166.062 151.08 165.424 152.641C164.941 153.824 163.8 154.539 162.597 154.539Z" fill="#8EBAC5"/>
<path d="M156.221 170.147C155.593 170.147 154.96 169.954 154.416 169.554L142.994 161.161C141.635 160.163 141.343 158.253 142.341 156.894C143.339 155.535 145.251 155.243 146.609 156.241L158.031 164.634C159.39 165.633 159.682 167.543 158.684 168.902C158.086 169.716 157.16 170.147 156.221 170.147Z" fill="#8EBAC5"/>
<path d="M127.102 43.2963H76.6642C74.978 43.2963 73.6118 41.9297 73.6118 40.2439C73.6118 38.558 74.9784 37.1914 76.6642 37.1914H127.102C128.788 37.1914 130.154 38.558 130.154 40.2439C130.154 41.9297 128.788 43.2963 127.102 43.2963Z" fill="#0593FC"/>
<path d="M94.8024 115.523H109.105V176.773H94.8024V115.523Z" fill="#FDD602"/>
<path d="M122.051 172.648H81.8561C77.6018 172.648 74.1526 176.097 74.1526 180.352V197.487H129.754V180.352C129.754 176.098 126.306 172.648 122.051 172.648Z" fill="#8EBAC5"/>
<path d="M74.1526 185.707H129.754V197.489H74.1526V185.707Z" fill="#7CA1B1"/>
<path d="M71.2728 92.8194V117.61C71.2728 121.741 72.8563 125.715 75.697 128.713L84.0611 137.542C85.7288 139.303 88.0472 140.3 90.4722 140.3H113.434C115.859 140.3 118.177 139.302 119.846 137.542L128.21 128.713C131.051 125.715 132.634 121.741 132.634 117.61V92.8194L101.882 89.793L71.2728 92.8194Z" fill="#FDC102"/>
<path d="M132.635 92.8201V76.9553C132.635 74.2726 130.46 72.0977 127.777 72.0977H76.1305C73.4478 72.0977 71.2728 74.2726 71.2728 76.9553V92.8201H132.635Z" fill="#FDA302"/>
<path d="M112.414 188.757H89.8385C88.1523 188.757 86.7861 187.391 86.7861 185.705C86.7861 184.019 88.1527 182.652 89.8385 182.652H112.414C114.101 182.652 115.467 184.019 115.467 185.705C115.467 187.391 114.101 188.757 112.414 188.757Z" fill="#537983"/>
</svg>
