<svg width="124" height="124" viewBox="0 0 124 124" fill="none" xmlns="http://www.w3.org/2000/svg">
<circle cx="62" cy="62" r="61" fill="#EDEDED" stroke="#B3B3B3" stroke-width="2"/>
<path d="M52.3125 66.8438V63.9375H42.625L44.4995 69.5601C45.1157 71.4085 46.8458 72.6562 48.795 72.6562C49.7637 72.6562 50.6637 73.0806 51.3554 73.7587C53.1001 75.4714 55.4861 76.5312 58.125 76.5312V72.6562C54.9146 72.6562 52.3125 70.0542 52.3125 66.8438Z" fill="#9A4D01"/>
<path d="M58.125 72.6562V76.5312C57.1078 76.5312 56.1294 76.3763 55.2188 76.0856V74.8263C55.2188 74.1578 54.6859 73.625 54.0175 73.625C53.5719 73.625 53.1553 73.3731 52.9519 72.9662C52.545 72.1525 51.8088 71.5616 50.9272 71.3387C49.29 70.9319 47.585 70.9319 45.9478 71.3387L45.725 71.3969C45.7056 71.3969 45.6959 71.4066 45.6766 71.4163C45.1437 70.9125 44.7369 70.2828 44.4947 69.5562L42.625 63.9375H52.3125V66.8438C52.3125 70.0503 54.9184 72.6562 58.125 72.6562Z" fill="#BF6101"/>
<path d="M73.625 63.9375L71.4841 65.6745C70.9464 66.1104 70.6422 66.7711 70.6597 67.4628C70.6926 68.7163 69.6851 69.75 68.4315 69.75H64.9062V73.625H68.2562C70.3593 73.625 72.2813 72.4373 73.222 70.556C73.4884 70.0222 73.8401 69.5349 74.2624 69.1126L76.5312 66.8438L73.625 63.9375Z" fill="#9A4D01"/>
<path d="M76.5312 66.8438L74.2644 69.1106C73.8381 69.5369 73.4894 70.0213 73.2181 70.5541C73.0728 70.8447 72.8984 71.1256 72.7047 71.3775L70.7187 70.7188C70.0987 71.3387 69.2559 71.6875 68.3841 71.6875C68.1322 71.6875 67.9384 71.8909 67.9384 72.1331C67.9384 72.1719 67.9384 72.2009 67.9481 72.2397L68.2969 73.625H64.9062V69.75H68.4325C69.6628 69.75 70.6606 68.7425 70.6606 67.5122V67.4637C70.6412 66.7759 70.9512 66.1075 71.4841 65.6716L73.625 63.9375L76.5312 66.8438Z" fill="#BF6101"/>
<path d="M66.8437 80.0992V60.0625H57.1562V79.0316C57.1562 82.1384 55.0967 84.8693 52.1091 85.7228C50.9718 86.0473 49.9362 86.6566 49.1001 87.4936L46.5 90.0938H53.8954C56.0063 90.0938 58.0543 89.3759 59.7041 88.0584C60.4103 87.4946 61.287 87.1875 62.1908 87.1875C63.2817 87.1875 64.3008 87.7329 64.9062 88.6406C65.5117 89.5483 66.5308 90.0938 67.6217 90.0938H73.625L70.4117 87.5227C69.3373 86.6634 68.4625 85.5813 67.8474 84.351C67.1877 83.0306 66.8437 81.5755 66.8437 80.0992Z" fill="#9A4D01"/>
<path d="M66.7004 85.932C66.1792 84.8906 65.2066 84.1476 64.0654 83.9189C62.3013 83.5663 61.0312 82.0173 61.0312 80.2183V68.7813C63.2691 68.7813 65.379 67.8057 66.8437 66.1395V60.0625H57.1562V79.0316C57.1562 82.1384 55.0967 84.8693 52.1091 85.7228C50.9718 86.0473 49.9362 86.6566 49.1001 87.4936L46.5 90.0938H53.8954C56.0063 90.0938 58.0543 89.3759 59.7041 88.0584C60.4103 87.4946 61.287 87.1875 62.1908 87.1875C63.2817 87.1875 64.3008 87.7329 64.9062 88.6406C65.5117 89.5483 66.5308 90.0938 67.6217 90.0938H73.625L70.1714 88.9429C68.6611 88.4391 67.4124 87.3561 66.7004 85.932Z" fill="#BF6101"/>
<path d="M59.094 85.25C58.846 85.25 58.598 85.1551 58.4091 84.9662C58.0303 84.5874 58.0303 83.9751 58.4091 83.5963C59.9998 82.0057 60.6856 79.7407 60.2449 77.5349C60.1199 76.91 60.0627 76.3394 60.0627 75.7708V73.625C60.0627 73.0893 60.4958 72.6562 61.0315 72.6562C61.5672 72.6562 62.0002 73.0893 62.0002 73.625V75.7708C62.0002 76.2116 62.0438 76.6543 62.131 77.0863C62.7132 79.9965 61.8288 82.9173 59.7789 84.9662C59.59 85.1551 59.342 85.25 59.094 85.25Z" fill="#9A4D01"/>
<path d="M90.0938 59.0938C90.0938 56.2999 88.1223 53.9691 85.4951 53.4101C85.9543 52.4966 86.2188 51.4678 86.2188 50.375C86.2188 46.6298 83.1827 43.5938 79.4375 43.5938C79.0636 43.5938 78.7003 43.6315 78.3428 43.6897C78.4203 43.3467 78.4688 42.9922 78.4688 42.625C78.4688 39.9503 76.2997 37.7813 73.625 37.7813C72.7115 37.7813 71.8667 38.0496 71.1373 38.4894C70.3342 36.9249 68.7231 35.8438 66.8438 35.8438C66.5308 35.8438 66.2257 35.8786 65.9293 35.9358C65.0496 34.7113 63.6227 33.9062 62 33.9062C60.0606 33.9062 58.3992 35.0542 57.6261 36.7011C56.793 36.1605 55.801 35.8438 54.7344 35.8438C52.6041 35.8438 50.7722 37.0963 49.9187 38.9031C46.8584 39.5579 44.5625 42.2753 44.5625 45.5313C44.5625 46.6182 44.825 47.6422 45.2794 48.5528C42.5155 49.0556 40.3397 51.2314 39.835 53.9943C38.0341 54.9824 36.8125 56.8947 36.8125 59.0938C36.8125 59.2284 36.8232 59.3602 36.8328 59.4919C35.1123 60.2349 33.9062 61.9438 33.9062 63.9375C33.9062 66.6122 36.0753 68.7813 38.75 68.7813C39.5754 68.7813 40.3417 68.5555 41.0217 68.1913C41.9062 69.1445 43.1598 69.75 44.5625 69.75C46.0428 69.75 47.3515 69.0719 48.2399 68.0247C49.1708 68.5052 50.2239 68.7813 51.3438 68.7813C54.2994 68.7813 56.8056 66.8873 57.7346 64.2494C58.5474 65.7859 60.1419 66.8438 62 66.8438C64.2601 66.8438 66.1424 65.2889 66.6771 63.1954C67.6003 63.6663 68.6427 63.9375 69.75 63.9375C69.8924 63.9375 70.0309 63.9249 70.1704 63.9162C69.904 64.5158 69.75 65.1765 69.75 65.875C69.75 68.5497 71.919 70.7188 74.5938 70.7188C76.1844 70.7188 77.5833 69.9418 78.4668 68.757C79.2786 69.3722 80.2784 69.75 81.375 69.75C84.0497 69.75 86.2188 67.581 86.2188 64.9063C86.2188 64.7948 86.1936 64.6902 86.1858 64.5808C88.4595 63.7912 90.0938 61.6358 90.0938 59.0938Z" fill="#A4C400"/>
<path d="M89.9839 60.1704C89.0955 61.2777 87.749 62.0004 86.2193 62.0004C86.0362 62.0004 85.856 61.9897 85.6797 61.9694C84.2053 61.7999 82.7299 61.9597 81.3727 62.5603C80.5686 62.9168 79.6483 63.0592 78.6786 62.91C76.7779 62.6184 75.1891 61.1508 74.7348 59.2821C74.4606 58.1544 74.605 57.0888 75.0148 56.1666C74.8753 56.1753 74.7367 56.1879 74.5943 56.1879C74.5808 56.1879 74.5682 56.1879 74.5546 56.1879C72.9649 56.1782 71.3529 56.5928 70.2204 57.7088C69.3524 58.5652 68.1628 59.0941 66.8443 59.0941C66.2873 59.0941 65.7535 58.9992 65.2575 58.8239C63.632 58.2513 61.8204 58.3899 60.4913 59.4865C59.321 60.4514 57.8233 61.0316 56.1881 61.0316C55.4528 61.0316 54.7505 60.9028 54.0888 60.6848C53.0474 61.0965 51.8442 61.1905 50.5674 60.6984C49.1162 60.1384 47.9847 58.8791 47.6137 57.3688C47.3996 56.4959 47.4315 55.6589 47.6476 54.8985C47.8743 54.0993 47.8878 53.2681 47.6408 52.4756C47.5294 52.1182 47.4684 51.7384 47.4684 51.3441C47.4684 49.8532 48.3199 48.5735 49.555 47.9254C49.4679 47.6251 49.4059 47.3132 49.4059 46.9848C49.4059 46.8511 49.4136 46.7203 49.4291 46.5905C49.556 45.5404 49.4504 44.4728 48.9321 43.5515C48.6173 42.9916 48.4371 42.3454 48.4371 41.6566C48.4371 40.6433 48.8353 39.7298 49.4717 39.04C46.642 39.8548 44.5621 42.4394 44.5621 45.5316C44.5621 46.6186 44.8246 47.6425 45.279 48.5532C42.5151 49.0559 40.3393 51.2318 39.8346 53.9946C38.0337 54.9828 36.8121 56.8951 36.8121 59.0941C36.8121 59.2288 36.8228 59.3605 36.8325 59.4923C34.9347 60.3119 33.6627 62.3075 33.9456 64.5627C34.1781 66.4208 35.5421 68.0018 37.3294 68.5598C38.7031 68.9889 39.9654 68.7574 41.0223 68.1917C41.9058 69.1449 43.1594 69.7504 44.5621 69.7504C46.0424 69.7504 47.3511 69.0723 48.2395 68.025C49.1705 68.5055 50.2235 68.7816 51.3434 68.7816C54.299 68.7816 56.8052 66.8877 57.7342 64.2498C58.547 65.7863 60.1415 66.8441 61.9996 66.8441C64.2597 66.8441 66.142 65.2893 66.6767 63.1958C67.6 63.6666 68.6423 63.9379 69.7496 63.9379C69.892 63.9379 70.0305 63.9253 70.17 63.9166C69.7603 64.8388 69.6159 65.9044 69.8901 67.0321C70.3444 68.9008 71.9332 70.3684 73.8339 70.66C75.7336 70.9516 77.4444 70.1263 78.4664 68.7574C79.2782 69.3726 80.278 69.7504 81.3746 69.7504C84.0493 69.7504 86.2184 67.5814 86.2184 64.9066C86.2184 64.7952 86.1932 64.6906 86.1854 64.5811C88.1287 63.9059 89.5964 62.23 89.9839 60.1704Z" fill="#60A917"/>
<path d="M77.6938 59.0938C77.2762 59.0938 76.8848 59.1935 76.5312 59.3572C76.1777 59.1935 75.7863 59.0938 75.3687 59.0938C73.8711 59.0938 72.6562 60.2747 72.6562 61.7307C72.6562 63.1877 73.8711 65.875 75.3687 65.875C75.7863 65.875 76.1777 65.7752 76.5312 65.6115C76.8848 65.7752 77.2762 65.875 77.6938 65.875C79.1914 65.875 80.4062 63.1877 80.4062 61.7307C80.4062 60.2747 79.1914 59.0938 77.6938 59.0938Z" fill="#40916C"/>
<path d="M70.7672 47.4688C70.402 47.4688 70.059 47.554 69.75 47.6945C69.441 47.554 69.098 47.4688 68.7328 47.4688C67.4221 47.4688 66.3594 48.4811 66.3594 49.7288C66.3594 50.9776 67.4221 53.2813 68.7328 53.2813C69.098 53.2813 69.441 53.196 69.75 53.0555C70.059 53.196 70.402 53.2813 70.7672 53.2813C72.0779 53.2813 73.1406 50.9776 73.1406 49.7288C73.1406 48.4811 72.0779 47.4688 70.7672 47.4688Z" fill="#40916C"/>
<path d="M62.0484 57.1562C61.6832 57.1562 61.3403 57.2415 61.0312 57.382C60.7222 57.2415 60.3793 57.1562 60.0141 57.1562C58.7033 57.1562 57.6406 58.1686 57.6406 59.4163C57.6406 60.6651 58.7033 62.9687 60.0141 62.9687C60.3793 62.9687 60.7222 62.8835 61.0312 62.743C61.3403 62.8835 61.6832 62.9687 62.0484 62.9687C63.3592 62.9687 64.4219 60.6651 64.4219 59.4163C64.4219 58.1686 63.3592 57.1562 62.0484 57.1562Z" fill="#40916C"/>
<path d="M53.475 46.5C53.0575 46.5 52.6661 46.5998 52.3125 46.7635C51.9589 46.5998 51.5675 46.5 51.15 46.5C49.6523 46.5 48.4375 47.6809 48.4375 49.1369C48.4375 50.5939 49.6523 53.2812 51.15 53.2812C51.5675 53.2812 51.9589 53.1815 52.3125 53.0178C52.6661 53.1815 53.0575 53.2812 53.475 53.2812C54.9727 53.2812 56.1875 50.5939 56.1875 49.1369C56.1875 47.6809 54.9727 46.5 53.475 46.5Z" fill="#40916C"/>
<path d="M83.5274 83.1319L82.5752 83.3121L82.395 82.3598C82.0966 80.7827 83.1322 79.2618 84.7093 78.9634L85.6616 78.7832L85.8418 79.7355C86.1402 81.3126 85.1046 82.8335 83.5274 83.1319Z" fill="#5F9B22"/>
<path d="M85.8422 79.7355L85.8005 79.5176C85.4876 80.7992 83.8815 81.9123 82.5581 82.1632L82.3809 82.1971C82.3876 82.2524 82.3847 82.3056 82.3954 82.3609L82.5756 83.3122L83.5279 83.132C85.104 82.8326 86.1406 81.3127 85.8422 79.7355Z" fill="#6FBE20"/>
<path d="M82.3438 85.25C81.808 85.25 81.375 84.817 81.375 84.2812C81.375 83.2127 80.506 82.3438 79.4375 82.3438C78.9018 82.3438 78.4688 81.9107 78.4688 81.375C78.4688 80.8393 78.9018 80.4062 79.4375 80.4062C81.5746 80.4062 83.3125 82.1442 83.3125 84.2812C83.3125 84.817 82.8795 85.25 82.3438 85.25Z" fill="#6FBE20"/>
<path d="M83.5062 83.3125C83.0887 83.3125 82.6973 83.4123 82.3437 83.576C81.9902 83.4123 81.5988 83.3125 81.1812 83.3125C79.6836 83.3125 78.4688 84.4934 78.4688 85.9494C78.4688 87.4064 79.6836 90.0938 81.1812 90.0938C81.5988 90.0938 81.9902 89.994 82.3437 89.8303C82.6973 89.994 83.0887 90.0938 83.5062 90.0938C85.0039 90.0938 86.2187 87.4064 86.2187 85.9494C86.2187 84.4934 85.0039 83.3125 83.5062 83.3125Z" fill="#FF7373"/>
<path d="M85.901 87.5247C85.4438 88.8054 84.5448 90.0939 83.5063 90.0939C83.0878 90.0939 82.7003 89.996 82.3438 89.8304C81.9873 89.996 81.5998 90.0939 81.1813 90.0939C79.6855 90.0939 78.4688 87.4036 78.4688 85.9495C78.4688 84.8946 79.1043 83.9907 80.0265 83.5684C80.0188 83.6061 80.0187 83.6517 80.0187 83.6895C80.0187 85.9796 81.9253 87.8338 84.2813 87.8338C84.8548 87.8338 85.405 87.7204 85.901 87.5247Z" fill="#EF5350"/>
<path d="M79.6524 57.9444L78.7002 58.1246L78.52 57.1723C78.2216 55.5952 79.2572 54.0743 80.8343 53.7759L81.7866 53.5957L81.9668 54.548C82.2652 56.1251 81.2296 57.646 79.6524 57.9444Z" fill="#5F9B22"/>
<path d="M81.9672 54.548L81.9256 54.3301C81.6126 55.6117 80.0065 56.7248 78.6831 56.9757L78.5059 57.0096C78.5126 57.0649 78.5097 57.1181 78.5204 57.1734L78.7006 58.1247L79.6529 57.9445C81.229 57.6451 82.2656 56.1252 81.9672 54.548Z" fill="#6FBE20"/>
<path d="M78.4688 60.0625C77.933 60.0625 77.5 59.6295 77.5 59.0938C77.5 58.0252 76.631 57.1562 75.5625 57.1562C75.0268 57.1562 74.5938 56.7232 74.5938 56.1875C74.5938 55.6518 75.0268 55.2188 75.5625 55.2188C77.6996 55.2188 79.4375 56.9567 79.4375 59.0938C79.4375 59.6295 79.0045 60.0625 78.4688 60.0625Z" fill="#6FBE20"/>
<path d="M79.6313 58.125C79.2137 58.125 78.8223 58.2248 78.4688 58.3885C78.1152 58.2248 77.7238 58.125 77.3062 58.125C75.8086 58.125 74.5938 59.3059 74.5938 60.7619C74.5938 62.2189 75.8086 64.9062 77.3062 64.9062C77.7238 64.9062 78.1152 64.8065 78.4688 64.6428C78.8223 64.8065 79.2137 64.9062 79.6313 64.9062C81.1289 64.9062 82.3438 62.2189 82.3438 60.7619C82.3438 59.3059 81.1289 58.125 79.6313 58.125Z" fill="#FF7373"/>
<path d="M82.026 62.3372C81.5688 63.6179 80.6698 64.9064 79.6313 64.9064C79.2128 64.9064 78.8253 64.8085 78.4688 64.6429C78.1123 64.8085 77.7247 64.9064 77.3062 64.9064C75.8105 64.9064 74.5938 62.2161 74.5938 60.762C74.5938 59.7071 75.2293 58.8032 76.1515 58.3809C76.1438 58.4186 76.1437 58.4642 76.1437 58.502C76.1437 60.7921 78.0503 62.6463 80.4062 62.6463C80.9798 62.6463 81.53 62.5329 82.026 62.3372Z" fill="#EF5350"/>
<path d="M54.4649 45.3507L53.5127 45.5309L53.3325 44.5786C53.0341 43.0015 54.0697 41.4805 55.6468 41.1821L56.5991 41.002L56.7793 41.9542C57.0777 43.5314 56.0421 45.0523 54.4649 45.3507Z" fill="#5F9B22"/>
<path d="M56.7797 41.9543L56.738 41.7363C56.4251 43.018 54.819 44.1311 53.4956 44.382L53.3184 44.4159C53.3251 44.4711 53.3222 44.5244 53.3329 44.5796L53.5131 45.5309L54.4654 45.3507C56.0415 45.0514 57.0781 43.5314 56.7797 41.9543Z" fill="#6FBE20"/>
<path d="M53.2812 47.4688C52.7455 47.4688 52.3125 47.0357 52.3125 46.5C52.3125 45.4315 51.4435 44.5625 50.375 44.5625C49.8393 44.5625 49.4062 44.1295 49.4062 43.5938C49.4062 43.058 49.8393 42.625 50.375 42.625C52.5121 42.625 54.25 44.3629 54.25 46.5C54.25 47.0357 53.817 47.4688 53.2812 47.4688Z" fill="#6FBE20"/>
<path d="M54.4438 45.5312C54.0262 45.5312 53.6348 45.631 53.2812 45.7948C52.9277 45.631 52.5363 45.5312 52.1187 45.5312C50.6211 45.5312 49.4062 46.7122 49.4062 48.1682C49.4062 49.6252 50.6211 52.3125 52.1187 52.3125C52.5363 52.3125 52.9277 52.2127 53.2812 52.049C53.6348 52.2127 54.0262 52.3125 54.4438 52.3125C55.9414 52.3125 57.1562 49.6252 57.1562 48.1682C57.1562 46.7122 55.9414 45.5312 54.4438 45.5312Z" fill="#FF7373"/>
<path d="M56.8385 49.7435C56.3812 51.0242 55.4822 52.3126 54.4437 52.3126C54.0252 52.3126 53.6377 52.2148 53.2812 52.0491C52.9247 52.2148 52.5372 52.3126 52.1187 52.3126C50.623 52.3126 49.4062 49.6224 49.4062 48.1683C49.4062 47.1133 50.0417 46.2095 50.964 45.7871C50.9562 45.8249 50.9562 45.8704 50.9562 45.9082C50.9562 48.1983 52.8627 50.0525 55.2187 50.0525C55.7922 50.0525 56.3425 49.9392 56.8385 49.7435Z" fill="#EF5350"/>
<path d="M40.9024 84.1007L39.9502 84.2809L39.77 83.3286C39.4716 81.7514 40.5072 80.2305 42.0843 79.9321L43.0366 79.752L43.2168 80.7042C43.5152 82.2814 42.4796 83.8023 40.9024 84.1007Z" fill="#5F9B22"/>
<path d="M43.2172 80.7043L43.1755 80.4863C42.8626 81.768 41.2565 82.8811 39.9331 83.132L39.7559 83.1659C39.7626 83.2211 39.7597 83.2744 39.7704 83.3296L39.9506 84.2809L40.9029 84.1007C42.479 83.8014 43.5156 82.2814 43.2172 80.7043Z" fill="#6FBE20"/>
<path d="M39.7188 86.2188C39.183 86.2188 38.75 85.7857 38.75 85.25C38.75 84.1815 37.881 83.3125 36.8125 83.3125C36.2768 83.3125 35.8438 82.8795 35.8438 82.3438C35.8438 81.808 36.2768 81.375 36.8125 81.375C38.9496 81.375 40.6875 83.1129 40.6875 85.25C40.6875 85.7857 40.2545 86.2188 39.7188 86.2188Z" fill="#6FBE20"/>
<path d="M40.7359 84.2812C40.3707 84.2812 40.0278 84.3665 39.7188 84.507C39.4097 84.3665 39.0668 84.2812 38.7016 84.2812C37.3908 84.2812 36.3281 85.2936 36.3281 86.5413C36.3281 87.7901 37.3908 90.0938 38.7016 90.0938C39.0668 90.0938 39.4097 90.0085 39.7188 89.868C40.0278 90.0085 40.3707 90.0938 40.7359 90.0938C42.0467 90.0938 43.1094 87.7901 43.1094 86.5413C43.1094 85.2936 42.0467 84.2812 40.7359 84.2812Z" fill="#FF7373"/>
<path d="M42.8313 87.8916C42.4312 88.9892 41.6446 90.0936 40.7359 90.0936C40.3697 90.0936 40.0307 90.0093 39.7187 89.8678C39.4068 90.0093 39.0677 90.0936 38.7016 90.0936C37.3928 90.0936 36.3281 87.7879 36.3281 86.5412C36.3281 85.6373 36.8842 84.8623 37.6912 84.5C37.6844 84.5329 37.6844 84.5717 37.6844 84.6037C37.6844 86.5673 39.3526 88.1561 41.4141 88.1561C41.9159 88.1561 42.3973 88.0592 42.8313 87.8916Z" fill="#EF5350"/>
<path d="M45.7462 58.9132L44.7939 59.0934L44.6137 58.1411C44.3153 56.564 45.3509 55.043 46.9281 54.7446L47.8803 54.5645L48.0605 55.5167C48.3589 57.0939 47.3233 58.6148 45.7462 58.9132Z" fill="#5F9B22"/>
<path d="M48.061 55.5168L48.0193 55.2988C47.7064 56.5805 46.1002 57.6936 44.7769 57.9445L44.5996 57.9784C44.6064 58.0336 44.6035 58.0869 44.6141 58.1421L44.7943 59.0934L45.7466 58.9132C47.3228 58.6139 48.3593 57.0939 48.061 55.5168Z" fill="#6FBE20"/>
<path d="M44.5625 61.0312C44.0268 61.0312 43.5938 60.5982 43.5938 60.0625C43.5938 58.994 42.7248 58.125 41.6562 58.125C41.1205 58.125 40.6875 57.692 40.6875 57.1562C40.6875 56.6205 41.1205 56.1875 41.6562 56.1875C43.7933 56.1875 45.5312 57.9254 45.5312 60.0625C45.5312 60.5982 45.0982 61.0312 44.5625 61.0312Z" fill="#6FBE20"/>
<path d="M45.5797 59.0938C45.2145 59.0938 44.8715 59.179 44.5625 59.3195C44.2535 59.179 43.9105 59.0938 43.5453 59.0938C42.2346 59.0938 41.1719 60.1061 41.1719 61.3538C41.1719 62.6016 42.2346 64.9062 43.5453 64.9062C43.9105 64.9062 44.2535 64.821 44.5625 64.6805C44.8715 64.821 45.2145 64.9062 45.5797 64.9062C46.8904 64.9062 47.9531 62.6026 47.9531 61.3538C47.9531 60.1051 46.8904 59.0938 45.5797 59.0938Z" fill="#FF7373"/>
<path d="M47.6751 62.7041C47.275 63.8017 46.4884 64.9061 45.5797 64.9061C45.2135 64.9061 44.8744 64.8218 44.5625 64.6803C44.2506 64.8218 43.9115 64.9061 43.5453 64.9061C42.2365 64.9061 41.1719 62.6004 41.1719 61.3537C41.1719 60.4498 41.7279 59.6748 42.5349 59.3125C42.5281 59.3454 42.5281 59.3842 42.5281 59.4162C42.5281 61.3798 44.1963 62.9686 46.2578 62.9686C46.7596 62.9686 47.2411 62.8717 47.6751 62.7041Z" fill="#EF5350"/>
<path d="M63.1837 56.0069L62.2314 56.1871L62.0512 55.2348C61.7528 53.6577 62.7884 52.1368 64.3656 51.8384L65.3178 51.6582L65.498 52.6105C65.7964 54.1876 64.7608 55.7085 63.1837 56.0069Z" fill="#5F9B22"/>
<path d="M65.4985 52.6105L65.4568 52.3926C65.1439 53.6742 63.5377 54.7873 62.2144 55.0382L62.0371 55.0721C62.0439 55.1274 62.041 55.1806 62.0516 55.2359L62.2318 56.1872L63.1841 56.007C64.7603 55.7076 65.7968 54.1877 65.4985 52.6105Z" fill="#6FBE20"/>
<path d="M62 58.125C61.4643 58.125 61.0312 57.692 61.0312 57.1562C61.0312 56.0877 60.1623 55.2188 59.0938 55.2188C58.558 55.2188 58.125 54.7857 58.125 54.25C58.125 53.7143 58.558 53.2812 59.0938 53.2812C61.2308 53.2812 62.9688 55.0192 62.9688 57.1562C62.9688 57.692 62.5357 58.125 62 58.125Z" fill="#6FBE20"/>
<path d="M63.0172 56.1875C62.652 56.1875 62.309 56.2727 62 56.4132C61.691 56.2727 61.348 56.1875 60.9828 56.1875C59.6721 56.1875 58.6094 57.1998 58.6094 58.4476C58.6094 59.6963 59.6721 62 60.9828 62C61.348 62 61.691 61.9148 62 61.7743C62.309 61.9148 62.652 62 63.0172 62C64.3279 62 65.3906 59.6963 65.3906 58.4476C65.3906 57.1998 64.3279 56.1875 63.0172 56.1875Z" fill="#FF7373"/>
<path d="M65.1126 59.7978C64.7125 60.8954 63.9259 61.9998 63.0172 61.9998C62.651 61.9998 62.3119 61.9155 62 61.7741C61.6881 61.9155 61.349 61.9998 60.9828 61.9998C59.674 61.9998 58.6094 59.6942 58.6094 58.4474C58.6094 57.5436 59.1654 56.7686 59.9724 56.4062C59.9656 56.4392 59.9656 56.4779 59.9656 56.5099C59.9656 58.4736 61.6338 60.0623 63.6953 60.0623C64.1971 60.0623 64.6786 59.9654 65.1126 59.7978Z" fill="#EF5350"/>
<path d="M71.9024 46.3194L70.9502 46.4996L70.77 45.5473C70.4716 43.9702 71.5072 42.4493 73.0843 42.1509L74.0366 41.9707L74.2168 42.923C74.5152 44.5001 73.4796 46.021 71.9024 46.3194Z" fill="#5F9B22"/>
<path d="M74.2172 42.923L74.1756 42.7051C73.8626 43.9867 72.2565 45.0998 70.9331 45.3507L70.7559 45.3846C70.7626 45.4399 70.7597 45.4931 70.7704 45.5484L70.9506 46.4997L71.9029 46.3195C73.479 46.0201 74.5156 44.5002 74.2172 42.923Z" fill="#6FBE20"/>
<path d="M70.7188 48.4375C70.183 48.4375 69.75 48.0045 69.75 47.4688C69.75 46.4002 68.881 45.5312 67.8125 45.5312C67.2768 45.5312 66.8438 45.0982 66.8438 44.5625C66.8438 44.0268 67.2768 43.5938 67.8125 43.5938C69.9496 43.5938 71.6875 45.3317 71.6875 47.4688C71.6875 48.0045 71.2545 48.4375 70.7188 48.4375Z" fill="#6FBE20"/>
<path d="M71.7359 46.5C71.3707 46.5 71.0278 46.5852 70.7187 46.7257C70.4097 46.5852 70.0668 46.5 69.7016 46.5C68.3908 46.5 67.3281 47.5123 67.3281 48.7601C67.3281 50.0088 68.3908 52.3125 69.7016 52.3125C70.0668 52.3125 70.4097 52.2273 70.7187 52.0868C71.0278 52.2273 71.3707 52.3125 71.7359 52.3125C73.0467 52.3125 74.1094 50.0088 74.1094 48.7601C74.1094 47.5123 73.0467 46.5 71.7359 46.5Z" fill="#FF7373"/>
<path d="M73.8313 50.1103C73.4313 51.2079 72.6446 52.3123 71.7359 52.3123C71.3697 52.3123 71.0307 52.228 70.7187 52.0866C70.4068 52.228 70.0678 52.3123 69.7016 52.3123C68.3928 52.3123 67.3281 50.0067 67.3281 48.7599C67.3281 47.8561 67.8842 47.0811 68.6912 46.7188C68.6844 46.7517 68.6844 46.7904 68.6844 46.8224C68.6844 48.7861 70.3526 50.3748 72.4141 50.3748C72.9159 50.3748 73.3973 50.2779 73.8313 50.1103Z" fill="#EF5350"/>
</svg>
