<svg width="48" height="48" viewBox="0 0 48 48" fill="none" xmlns="http://www.w3.org/2000/svg">
<g clip-path="url(#clip0_21074_122313)">
<path fill-rule="evenodd" clip-rule="evenodd" d="M7.6205 39.9297C7.31118 39.9297 7.05811 39.6766 7.05811 39.3673V6.80492C7.05811 3.06503 10.095 0 13.8349 0H39.0581C40.0985 0 40.9421 0.843585 40.9421 1.88401V34.2214C40.9421 34.7557 40.3516 34.8963 40.0142 34.6714L8.18289 39.3954C8.18289 39.7048 7.92981 39.9297 7.6205 39.9297Z" fill="#8078BE"/>
<path fill-rule="evenodd" clip-rule="evenodd" d="M14.3973 38.4394V0L13.2725 0.0281195C9.7857 0.309315 7.05811 3.23374 7.05811 6.80492V39.3673L14.3973 38.4394Z" fill="#5E54AC"/>
<path d="M12.7664 45.1048C9.61698 45.1048 7.05811 42.5178 7.05811 39.3684C7.05811 36.219 9.61698 33.6602 12.7664 33.6602H40.3797C40.689 33.6602 40.9421 33.9132 40.9421 34.2225V44.5424C40.9421 44.8517 40.689 45.1048 40.3797 45.1048C30.9316 45.1048 21.8208 45.1048 12.7664 45.1048Z" fill="#5E54AC"/>
<path d="M39.8173 43.9802V34.7852H12.7663C10.2356 34.7852 8.18286 36.8379 8.18286 39.3686C8.18286 41.8994 10.2356 43.9802 12.7663 43.9802H39.8173Z" fill="#F9F2F2"/>
<path fill-rule="evenodd" clip-rule="evenodd" d="M21.5115 47.9715C21.1741 47.9715 19.1776 46.5936 18.7558 46.3125L16.3094 47.8871C15.9439 48.1402 15.4658 47.859 15.4658 47.4091V41.4478C15.4658 40.7448 16.4781 40.7167 16.5625 41.3353H20.9491C21.0616 40.7167 22.0739 40.7448 22.0739 41.4478V47.4091C22.0739 47.7184 21.8208 47.9715 21.5115 47.9715Z" fill="#C2C2EF"/>
<path d="M39.8173 41.8123V40.6875H14.2004C13.4693 40.6875 13.4693 41.8123 14.2004 41.8123H39.8173Z" fill="#CDD5F6"/>
<path d="M39.8174 38.3006V37.1758H20.3025C19.5714 37.1758 19.5714 38.3006 20.3025 38.3006H39.8174Z" fill="#CDD5F6"/>
<path fill-rule="evenodd" clip-rule="evenodd" d="M30.8472 31.3257C30.7066 31.3257 30.566 31.2414 30.4535 31.1289L27.1073 27.614L23.761 31.1289C23.4236 31.4945 22.7769 31.2695 22.7769 30.7633V19.5437C22.7769 18.8969 23.7048 18.8126 23.8735 19.3468H30.3129C30.5097 18.8126 31.4095 18.8969 31.4095 19.5437V30.7352C31.4095 31.0727 31.1565 31.3257 30.8472 31.3257Z" fill="#FA3C48"/>
<path fill-rule="evenodd" clip-rule="evenodd" d="M27.1073 22.6345C26.8542 22.6345 26.1793 21.9034 25.9544 21.6785C24.211 20.0475 24.211 20.0475 21.8208 19.9632C19.993 19.907 20.2461 20.16 20.1899 18.3323C20.1055 15.9421 20.1055 15.9421 18.4746 14.2268C17.2373 12.8771 17.2373 13.2426 18.4746 11.8929C20.1055 10.1495 20.1055 10.1495 20.1899 7.78744C20.2461 5.95967 19.993 6.18463 21.8208 6.12839C24.211 6.04403 24.211 6.04403 25.9544 4.44122C27.276 3.17584 26.9385 3.17584 28.2602 4.44122C30.0036 6.04403 30.0036 6.04403 32.3937 6.12839C34.2215 6.21275 33.9684 5.95967 34.0247 7.78744C34.109 10.1495 34.109 10.1495 35.74 11.8929C36.9772 13.2426 36.9772 12.8771 35.74 14.2268C34.109 15.9702 34.109 15.9702 34.0247 18.3323C33.9684 20.16 34.2215 19.907 32.3937 19.9632C30.0036 20.0475 30.0036 20.0475 28.2602 21.6785C28.0352 21.9034 27.3603 22.6345 27.1073 22.6345Z" fill="#FFA725"/>
<path fill-rule="evenodd" clip-rule="evenodd" d="M27.1073 20.1883C26.7417 20.1883 26.0669 19.1198 24.8015 18.6136C23.2549 17.9669 21.9895 18.5293 21.9614 17.8825C21.877 15.6048 21.5958 14.9581 20.0493 13.299C19.5994 12.7929 20.921 12.3148 21.5677 10.7683C22.2145 9.2217 21.624 7.9282 22.2988 7.90008C24.5484 7.81572 25.1951 7.56265 26.8823 6.01607C27.3603 5.53804 27.8384 6.85966 29.4131 7.50641C30.9596 8.15316 32.225 7.56265 32.2531 8.23751C32.3375 10.5152 32.6187 11.1619 34.1653 12.821C34.6152 13.299 33.2936 13.8052 32.6468 15.3518C32.0001 16.8983 32.5906 18.1637 31.9157 18.1918C29.6099 18.3043 29.0194 18.5574 27.3322 20.1039C27.276 20.1602 27.1916 20.1883 27.1073 20.1883Z" fill="#FFE479"/>
<path fill-rule="evenodd" clip-rule="evenodd" d="M29.2162 16.872C28.9631 16.872 27.4447 16.0846 27.1072 15.9159L25.2513 16.8157C24.8577 17.0126 24.3796 16.6751 24.4359 16.2252L24.7171 14.1725L23.3111 12.6821C23.0018 12.3728 23.1705 11.8386 23.5923 11.7542L25.645 11.3886L26.6011 9.56088C26.826 9.16721 27.3884 9.16721 27.6134 9.56088L28.5695 11.3886L30.6222 11.7542C31.044 11.8386 31.2127 12.3728 30.9034 12.6821L29.4974 14.1725L29.7786 16.2252C29.8067 16.5626 29.5536 16.872 29.2162 16.872Z" fill="#FFA725"/>
</g>
<defs>
<clipPath id="clip0_21074_122313">
<rect width="48" height="48" fill="white"/>
</clipPath>
</defs>
</svg>
