<svg width="336" height="203" viewBox="0 0 336 203" fill="none" xmlns="http://www.w3.org/2000/svg">
<g clip-path="url(#clip0_21065_372460)">
<path fill-rule="evenodd" clip-rule="evenodd" d="M98.124 168.275C96.8204 168.275 95.7539 167.209 95.7539 165.905V28.6779C95.7539 12.9169 108.552 0 124.313 0H230.611C234.996 0 238.551 3.55511 238.551 7.93976V144.219C238.551 146.471 236.062 147.063 234.64 146.115L100.494 166.024C100.494 167.327 99.4275 168.275 98.124 168.275Z" fill="#8078BE"/>
<path fill-rule="evenodd" clip-rule="evenodd" d="M126.683 161.995V0L121.943 0.118504C107.249 1.30354 95.7539 13.6279 95.7539 28.6779V165.905L126.683 161.995Z" fill="#5E54AC"/>
<path d="M119.81 190.079C106.538 190.079 95.7539 179.176 95.7539 165.904C95.7539 152.632 106.538 141.848 119.81 141.848H236.181C237.484 141.848 238.551 142.914 238.551 144.218V187.709C238.551 189.012 237.484 190.079 236.181 190.079C196.364 190.079 157.968 190.079 119.81 190.079Z" fill="#5E54AC"/>
<path d="M233.811 185.341V146.59H119.81C109.145 146.59 100.494 155.241 100.494 165.906C100.494 176.571 109.145 185.341 119.81 185.341H233.811Z" fill="#F9F2F2"/>
<path fill-rule="evenodd" clip-rule="evenodd" d="M156.666 202.168C155.244 202.168 146.83 196.361 145.052 195.176L134.743 201.813C133.202 202.879 131.188 201.694 131.188 199.798V174.675C131.188 171.713 135.454 171.594 135.809 174.201H154.296C154.77 171.594 159.036 171.713 159.036 174.675V199.798C159.036 201.102 157.969 202.168 156.666 202.168Z" fill="#C2C2EF"/>
<path d="M233.811 176.217V171.477H125.854C122.773 171.477 122.773 176.217 125.854 176.217H233.811Z" fill="#CDD5F6"/>
<path d="M233.81 161.4V156.66H151.569C148.488 156.66 148.488 161.4 151.569 161.4H233.81Z" fill="#CDD5F6"/>
<path fill-rule="evenodd" clip-rule="evenodd" d="M196.009 132.011C195.416 132.011 194.824 131.656 194.35 131.182L180.248 116.369L166.146 131.182C164.724 132.722 161.998 131.774 161.998 129.641V82.3584C161.998 79.6328 165.909 79.2773 166.62 81.5289H193.757C194.587 79.2773 198.379 79.6328 198.379 82.3584V129.523C198.379 130.945 197.312 132.011 196.009 132.011Z" fill="#FA3C48"/>
<path fill-rule="evenodd" clip-rule="evenodd" d="M180.246 95.3941C179.18 95.3941 176.336 92.313 175.388 91.365C168.04 84.4918 168.04 84.4918 157.968 84.1362C150.265 83.8992 151.331 84.9658 151.094 77.263C150.739 67.1902 150.739 67.1902 143.866 59.9615C138.652 54.2733 138.652 55.8138 143.866 50.1257C150.739 42.7784 150.739 42.7784 151.094 32.8241C151.331 25.1214 150.265 26.0694 157.968 25.8324C168.04 25.4769 168.04 25.4769 175.388 18.7222C180.957 13.3895 179.535 13.3895 185.105 18.7222C192.452 25.4769 192.452 25.4769 202.525 25.8324C210.228 26.1879 209.161 25.1214 209.398 32.8241C209.754 42.7784 209.754 42.7784 216.627 50.1257C221.841 55.8138 221.841 54.2733 216.627 59.9615C209.754 67.3087 209.754 67.3087 209.398 77.263C209.161 84.9658 210.228 83.8992 202.525 84.1362C192.452 84.4918 192.452 84.4918 185.105 91.365C184.157 92.313 181.313 95.3941 180.246 95.3941Z" fill="#FFA725"/>
<path fill-rule="evenodd" clip-rule="evenodd" d="M180.247 85.0855C178.707 85.0855 175.863 80.5824 170.53 78.4493C164.012 75.7237 158.68 78.0938 158.561 75.3682C158.206 65.7694 157.021 63.0438 150.503 56.0521C148.607 53.919 154.176 51.9044 156.902 45.3867C159.628 38.869 157.139 33.4178 159.983 33.2993C169.463 32.9438 172.189 31.8773 179.299 25.3596C181.314 23.345 183.328 28.9147 189.965 31.6403C196.482 34.3659 201.815 31.8773 201.933 34.7214C202.289 44.3202 203.474 47.0458 209.992 54.0375C211.888 56.0521 206.318 58.1851 203.593 64.7029C200.867 71.2206 203.356 76.5532 200.511 76.6717C190.794 77.1458 188.306 78.2123 181.195 84.73C180.958 84.967 180.603 85.0855 180.247 85.0855Z" fill="#FFE479"/>
<path fill-rule="evenodd" clip-rule="evenodd" d="M189.135 71.1022C188.068 71.1022 181.669 67.784 180.247 67.073L172.426 70.8651C170.767 71.6947 168.752 70.2726 168.989 68.3766L170.174 59.7258L164.249 53.4451C162.946 52.1415 163.657 49.89 165.434 49.5345L174.085 47.9939L178.114 40.2912C179.062 38.6321 181.432 38.6321 182.38 40.2912L186.409 47.9939L195.06 49.5345C196.838 49.89 197.549 52.1415 196.245 53.4451L190.32 59.7258L191.505 68.3766C191.623 69.7986 190.557 71.1022 189.135 71.1022Z" fill="#FFA725"/>
</g>
<path opacity="0.7" fill-rule="evenodd" clip-rule="evenodd" d="M13.4835 133.154C10.0401 134.793 6.4542 134.633 4.09561 133.992C1.71294 133.344 0.306629 130.887 0.954529 128.504C1.60243 126.122 4.05919 124.715 6.44186 125.363C7.20835 125.572 8.52719 125.61 9.64145 125.08C10.487 124.677 11.7618 123.704 12.3982 120.738C12.8214 117.391 14.6274 112.978 18.646 109.636C22.8894 106.106 29.1178 104.162 37.5659 105.267C40.0142 105.587 41.7393 107.831 41.419 110.28C41.0988 112.728 38.8544 114.453 36.406 114.133C29.9519 113.289 26.352 114.857 24.3641 116.51C22.2465 118.272 21.4075 120.582 21.2599 121.94L21.238 122.142L21.1979 122.34C20.0849 127.861 17.1802 131.395 13.4835 133.154Z" fill="#F15959"/>
<path opacity="0.7" fill-rule="evenodd" clip-rule="evenodd" d="M314.455 46.5846C314.407 46.4757 314.356 46.3712 314.305 46.2744C314.287 46.2531 314.269 46.232 314.251 46.211C314.336 46.4302 314.42 46.5426 314.455 46.5846ZM307.282 43.2839C307.017 46.6096 307.722 49.3343 309.518 51.2473C311.601 53.4663 314.39 53.7751 316.22 53.4917C317.683 53.2719 319.102 52.669 320.142 51.4743C321.177 50.2853 321.499 48.8989 321.528 47.763C321.582 45.6636 320.677 43.685 320.019 42.5859L319.888 42.3685L319.727 42.1728C318.553 40.7465 317.318 39.6147 316.049 38.7433C316.485 38.27 317.009 37.8256 317.633 37.4431C319.783 36.1255 323.725 35.1759 330.619 37.2928C332.411 37.8432 334.311 36.8363 334.861 35.0437C335.412 33.2512 334.405 31.3518 332.612 30.8014C324.483 28.3054 318.384 29.0187 314.085 31.6536C311.959 32.9568 310.422 34.641 309.364 36.3881C308.216 36.3183 307.076 36.4042 305.963 36.6228C301.735 37.4532 298.292 40.1052 296.369 42.2314C295.112 43.6222 295.22 45.7693 296.61 47.027C298.001 48.2847 300.148 48.1767 301.406 46.7859C302.688 45.3681 304.912 43.7495 307.272 43.286C307.275 43.2853 307.279 43.2846 307.282 43.2839Z" fill="#F15959"/>
<path d="M282.463 155.968C283.173 153.318 285.898 151.745 288.549 152.456C291.2 153.166 292.773 155.89 292.063 158.541C291.353 161.191 288.628 162.764 285.977 162.054C283.326 161.343 281.753 158.619 282.463 155.968Z" fill="#C15DFF"/>
<path d="M30.5784 144.134C31.7198 139.875 36.0982 137.347 40.3579 138.488C44.6176 139.629 47.1455 144.008 46.0042 148.268C44.8628 152.527 40.4843 155.055 36.2246 153.914C31.9649 152.772 29.437 148.394 30.5784 144.134Z" fill="#F9C160"/>
<path d="M303.885 145.126C305.026 140.867 309.405 138.339 313.665 139.48C317.924 140.622 320.452 145 319.311 149.26C318.169 153.519 313.791 156.047 309.531 154.906C305.272 153.765 302.744 149.386 303.885 145.126Z" fill="#F68B8B"/>
<path fill-rule="evenodd" clip-rule="evenodd" d="M35.3281 53.1424C34.9485 55.4595 32.7625 57.0301 30.4454 56.6506C27.384 56.1491 22.9677 54.5975 19.4217 51.3942C15.69 48.0231 13.0423 42.8902 13.969 35.9504C14.2798 33.6231 16.4183 31.9884 18.7456 32.2992C21.0729 32.6099 22.7076 34.7485 22.3968 37.0758C21.8787 40.9559 23.2466 43.3912 25.1214 45.0848C27.1818 46.9461 29.9628 47.9556 31.8199 48.2598C34.137 48.6393 35.7076 50.8254 35.3281 53.1424Z" fill="#C15DFF"/>
<path fill-rule="evenodd" clip-rule="evenodd" d="M308.202 104.512C306.074 105.48 305.134 107.99 306.102 110.118C307.381 112.929 310.022 116.77 314.024 119.344C318.235 122.052 323.858 123.26 330.286 120.563C332.442 119.658 333.456 117.177 332.552 115.021C331.647 112.866 329.166 111.851 327.01 112.756C323.416 114.264 320.719 113.584 318.604 112.223C316.278 110.727 314.584 108.318 313.808 106.612C312.84 104.484 310.33 103.544 308.202 104.512Z" fill="#72C045"/>
<path d="M42.7339 29.7356C43.5309 26.7611 46.5884 24.9958 49.5629 25.7929C52.5374 26.5899 54.3027 29.6474 53.5056 32.6219C52.7086 35.5965 49.6512 37.3617 46.6766 36.5647C43.7021 35.7676 41.9368 32.7102 42.7339 29.7356Z" fill="#14A4BE"/>
<path d="M309.487 173.753C309.919 172.139 311.578 171.182 313.192 171.614C314.807 172.047 315.764 173.706 315.332 175.32C314.899 176.934 313.24 177.892 311.626 177.459C310.012 177.027 309.054 175.368 309.487 173.753Z" fill="#14A4BE"/>
<path d="M263.101 29.2915C263.977 26.0224 267.337 24.0824 270.606 24.9583C273.875 25.8343 275.816 29.1945 274.94 32.4636C274.064 35.7327 270.703 37.6727 267.434 36.7968C264.165 35.9208 262.225 32.5606 263.101 29.2915Z" fill="#72C045"/>
<path d="M316.891 77.4011C317.613 74.7066 320.383 73.1076 323.078 73.8296C325.772 74.5516 327.371 77.3212 326.649 80.0157C325.927 82.7102 323.157 84.3092 320.463 83.5873C317.768 82.8653 316.169 80.0956 316.891 77.4011Z" fill="#F9C160"/>
<path d="M60.8907 142.805C61.398 140.912 63.344 139.789 65.2372 140.296C67.1304 140.803 68.2539 142.749 67.7466 144.642C67.2394 146.536 65.2934 147.659 63.4002 147.152C61.507 146.645 60.3835 144.699 60.8907 142.805Z" fill="#72C045"/>
<path d="M47.1251 169.348C47.6324 167.455 49.5784 166.332 51.4716 166.839C53.3648 167.346 54.4883 169.292 53.981 171.185C53.4737 173.079 51.5278 174.202 49.6346 173.695C47.7414 173.187 46.6178 171.241 47.1251 169.348Z" fill="#C15DFF"/>
<path d="M10.9806 76.8055C11.6147 74.439 14.0472 73.0346 16.4137 73.6687C18.7802 74.3028 20.1846 76.7353 19.5505 79.1018C18.9164 81.4683 16.4839 82.8727 14.1174 82.2386C11.7509 81.6045 10.3465 79.172 10.9806 76.8055Z" fill="#72C045"/>
<defs>
<clipPath id="clip0_21065_372460">
<rect width="202.286" height="202.286" fill="white" transform="translate(66.0098)"/>
</clipPath>
</defs>
</svg>
