<svg width="24" height="24" viewBox="0 0 24 24" fill="none" xmlns="http://www.w3.org/2000/svg">
<path d="M8.25 13.875V12.75H4.5L5.22563 14.9265C5.46413 15.642 6.13387 16.125 6.88838 16.125C7.26338 16.125 7.61175 16.2892 7.8795 16.5517C8.55487 17.2147 9.4785 17.625 10.5 17.625V16.125C9.25725 16.125 8.25 15.1177 8.25 13.875Z" fill="#9A4D01"/>
<path d="M10.5 16.125V17.625C10.1063 17.625 9.7275 17.565 9.375 17.4525V16.965C9.375 16.7063 9.16875 16.5 8.91 16.5C8.7375 16.5 8.57625 16.4025 8.4975 16.245C8.34 15.93 8.055 15.7012 7.71375 15.615C7.08 15.4575 6.42 15.4575 5.78625 15.615L5.7 15.6375C5.6925 15.6375 5.68875 15.6413 5.68125 15.645C5.475 15.45 5.3175 15.2062 5.22375 14.925L4.5 12.75H8.25V13.875C8.25 15.1162 9.25875 16.125 10.5 16.125Z" fill="#BF6101"/>
<path d="M16.5 12.75L15.6712 13.4224C15.4631 13.5911 15.3454 13.8469 15.3521 14.1146C15.3649 14.5999 14.9749 15 14.4896 15H13.125V16.5H14.4217C15.2359 16.5 15.9799 16.0403 16.344 15.312C16.4471 15.1054 16.5832 14.9167 16.7467 14.7532L17.625 13.875L16.5 12.75Z" fill="#9A4D01"/>
<path d="M17.625 13.875L16.7475 14.7525C16.5825 14.9175 16.4475 15.105 16.3425 15.3113C16.2862 15.4238 16.2187 15.5325 16.1437 15.63L15.375 15.375C15.135 15.615 14.8087 15.75 14.4712 15.75C14.3737 15.75 14.2988 15.8287 14.2988 15.9225C14.2988 15.9375 14.2987 15.9487 14.3025 15.9637L14.4375 16.5H13.125V15H14.49C14.9662 15 15.3525 14.61 15.3525 14.1337V14.115C15.345 13.8487 15.465 13.59 15.6712 13.4213L16.5 12.75L17.625 13.875Z" fill="#BF6101"/>
<path d="M13.875 19.0061V11.25H10.125V18.5929C10.125 19.7955 9.32775 20.8526 8.17125 21.183C7.731 21.3086 7.33012 21.5445 7.0065 21.8685L6 22.875H8.86275C9.67987 22.875 10.4726 22.5971 11.1112 22.0871C11.3846 21.8689 11.724 21.75 12.0739 21.75C12.4961 21.75 12.8906 21.9611 13.125 22.3125C13.3594 22.6639 13.7539 22.875 14.1761 22.875H16.5L15.2561 21.8798C14.8402 21.5471 14.5016 21.1283 14.2635 20.652C14.0081 20.1409 13.875 19.5776 13.875 19.0061Z" fill="#9A4D01"/>
<path d="M13.8195 21.264C13.6177 20.8609 13.2412 20.5733 12.7995 20.4848C12.1166 20.3483 11.625 19.7486 11.625 19.0523V14.625C12.4912 14.625 13.308 14.2474 13.875 13.6024V11.25H10.125V18.5929C10.125 19.7955 9.32775 20.8526 8.17125 21.183C7.731 21.3086 7.33012 21.5445 7.0065 21.8685L6 22.875H8.86275C9.67987 22.875 10.4726 22.5971 11.1112 22.0871C11.3846 21.8689 11.724 21.75 12.0739 21.75C12.4961 21.75 12.8906 21.9611 13.125 22.3125C13.3594 22.6639 13.7539 22.875 14.1761 22.875H16.5L15.1631 22.4295C14.5785 22.2345 14.0951 21.8153 13.8195 21.264Z" fill="#BF6101"/>
<path d="M10.8751 21C10.7791 21 10.6831 20.9633 10.61 20.8901C10.4633 20.7435 10.4633 20.5065 10.61 20.3599C11.2257 19.7441 11.4912 18.8674 11.3206 18.0135C11.2722 17.7716 11.2501 17.5508 11.2501 17.3306V16.5C11.2501 16.2926 11.4177 16.125 11.6251 16.125C11.8325 16.125 12.0001 16.2926 12.0001 16.5V17.3306C12.0001 17.5013 12.017 17.6726 12.0507 17.8399C12.2761 18.9664 11.9337 20.097 11.1402 20.8901C11.0671 20.9633 10.9711 21 10.8751 21Z" fill="#9A4D01"/>
<path d="M12.375 15.375C12.1676 15.375 12 15.2074 12 15V13.5C12 13.2926 12.1676 13.125 12.375 13.125C12.5824 13.125 12.75 13.2926 12.75 13.5V15C12.75 15.2074 12.5824 15.375 12.375 15.375Z" fill="#9A4D01"/>
<path d="M22.875 10.875C22.875 9.7935 22.1119 8.89125 21.0949 8.67488C21.2726 8.32125 21.375 7.923 21.375 7.5C21.375 6.05025 20.1998 4.875 18.75 4.875C18.6053 4.875 18.4646 4.88963 18.3263 4.91213C18.3563 4.77938 18.375 4.64213 18.375 4.5C18.375 3.46463 17.5354 2.625 16.5 2.625C16.1464 2.625 15.8194 2.72888 15.537 2.89913C15.2261 2.2935 14.6025 1.875 13.875 1.875C13.7539 1.875 13.6358 1.8885 13.521 1.91062C13.1805 1.43662 12.6281 1.125 12 1.125C11.2493 1.125 10.6061 1.56938 10.3069 2.20688C9.98438 1.99763 9.60038 1.875 9.1875 1.875C8.36288 1.875 7.65375 2.35988 7.32338 3.05925C6.13875 3.31275 5.25 4.36463 5.25 5.625C5.25 6.04575 5.35163 6.44213 5.5275 6.79463C4.45763 6.98925 3.61538 7.8315 3.42 8.901C2.72288 9.2835 2.25 10.0238 2.25 10.875C2.25 10.9271 2.25412 10.9781 2.25788 11.0291C1.59187 11.3168 1.125 11.9783 1.125 12.75C1.125 13.7854 1.96463 14.625 3 14.625C3.3195 14.625 3.61613 14.5376 3.87938 14.3966C4.22175 14.7656 4.707 15 5.25 15C5.823 15 6.32963 14.7375 6.6735 14.3321C7.03388 14.5181 7.4415 14.625 7.875 14.625C9.01913 14.625 9.98925 13.8919 10.3489 12.8708C10.6635 13.4655 11.2808 13.875 12 13.875C12.8749 13.875 13.6035 13.2731 13.8105 12.4628C14.1679 12.645 14.5714 12.75 15 12.75C15.0551 12.75 15.1088 12.7451 15.1628 12.7418C15.0596 12.9739 15 13.2296 15 13.5C15 14.5354 15.8396 15.375 16.875 15.375C17.4908 15.375 18.0323 15.0743 18.3743 14.6156C18.6885 14.8538 19.0755 15 19.5 15C20.5354 15 21.375 14.1604 21.375 13.125C21.375 13.0819 21.3653 13.0414 21.3623 12.999C22.2424 12.6934 22.875 11.859 22.875 10.875Z" fill="#A4C400"/>
<path d="M22.8325 11.2928C22.4886 11.7214 21.9673 12.0012 21.3752 12.0012C21.3043 12.0012 21.2346 11.997 21.1663 11.9892C20.5956 11.9235 20.0245 11.9854 19.4991 12.2179C19.1878 12.3559 18.8316 12.411 18.4562 12.3533C17.7205 12.2404 17.1055 11.6723 16.9296 10.9489C16.8235 10.5124 16.8793 10.0999 17.038 9.74291C16.984 9.74628 16.9303 9.75116 16.8752 9.75116C16.87 9.75116 16.8651 9.75116 16.8598 9.75116C16.2445 9.74741 15.6205 9.90791 15.1821 10.3399C14.8461 10.6714 14.3856 10.8762 13.8752 10.8762C13.6596 10.8762 13.453 10.8394 13.261 10.7715C12.6317 10.5499 11.9305 10.6035 11.416 11.028C10.963 11.4015 10.3832 11.6262 9.75022 11.6262C9.4656 11.6262 9.19372 11.5763 8.9376 11.4919C8.53447 11.6513 8.06872 11.6877 7.57447 11.4972C7.01272 11.2804 6.57472 10.7929 6.4311 10.2083C6.34822 9.87041 6.3606 9.54641 6.44422 9.25203C6.53197 8.94266 6.53722 8.62091 6.4416 8.31416C6.39847 8.17578 6.37485 8.02878 6.37485 7.87616C6.37485 7.29903 6.70447 6.80366 7.1826 6.55278C7.14885 6.43653 7.12485 6.31578 7.12485 6.18866C7.12485 6.13691 7.12785 6.08628 7.13385 6.03603C7.18297 5.62953 7.1421 5.21628 6.94147 4.85966C6.8196 4.64291 6.74985 4.39278 6.74985 4.12616C6.74985 3.73391 6.90397 3.38028 7.15035 3.11328C6.05497 3.42866 5.24985 4.42916 5.24985 5.62616C5.24985 6.04691 5.35147 6.44328 5.52735 6.79578C4.45747 6.99041 3.61522 7.83266 3.41985 8.90216C2.72272 9.28466 2.24985 10.0249 2.24985 10.8762C2.24985 10.9283 2.25397 10.9793 2.25772 11.0303C1.5231 11.3475 1.03072 12.12 1.14022 12.993C1.23022 13.7123 1.75822 14.3243 2.4501 14.5403C2.98185 14.7064 3.47047 14.6168 3.8796 14.3978C4.2216 14.7668 4.70685 15.0012 5.24985 15.0012C5.82285 15.0012 6.32947 14.7387 6.67335 14.3333C7.03372 14.5193 7.44135 14.6262 7.87485 14.6262C9.01897 14.6262 9.9891 13.893 10.3487 12.8719C10.6633 13.4667 11.2806 13.8762 11.9998 13.8762C12.8747 13.8762 13.6033 13.2743 13.8103 12.4639C14.1677 12.6462 14.5712 12.7512 14.9998 12.7512C15.055 12.7512 15.1086 12.7463 15.1626 12.7429C15.004 13.0999 14.9481 13.5124 15.0542 13.9489C15.2301 14.6723 15.8451 15.2404 16.5808 15.3533C17.3162 15.4662 17.9785 15.1467 18.3741 14.6168C18.6883 14.8549 19.0753 15.0012 19.4998 15.0012C20.5352 15.0012 21.3748 14.1615 21.3748 13.1262C21.3748 13.083 21.3651 13.0425 21.3621 13.0002C22.1143 12.7388 22.6825 12.09 22.8325 11.2928Z" fill="#60A917"/>
<path d="M18.075 10.875C17.9134 10.875 17.7619 10.9136 17.625 10.977C17.4881 10.9136 17.3366 10.875 17.175 10.875C16.5952 10.875 16.125 11.3321 16.125 11.8957C16.125 12.4597 16.5952 13.5 17.175 13.5C17.3366 13.5 17.4881 13.4614 17.625 13.398C17.7619 13.4614 17.9134 13.5 18.075 13.5C18.6547 13.5 19.125 12.4597 19.125 11.8957C19.125 11.3321 18.6547 10.875 18.075 10.875Z" fill="#40916C"/>
<path d="M15.3937 6.375C15.2524 6.375 15.1196 6.408 15 6.46237C14.8804 6.408 14.7476 6.375 14.6063 6.375C14.0989 6.375 13.6875 6.76688 13.6875 7.24988C13.6875 7.73325 14.0989 8.625 14.6063 8.625C14.7476 8.625 14.8804 8.592 15 8.53763C15.1196 8.592 15.2524 8.625 15.3937 8.625C15.9011 8.625 16.3125 7.73325 16.3125 7.24988C16.3125 6.76688 15.9011 6.375 15.3937 6.375Z" fill="#40916C"/>
<path d="M12.0187 10.125C11.8774 10.125 11.7446 10.158 11.625 10.2124C11.5054 10.158 11.3726 10.125 11.2313 10.125C10.7239 10.125 10.3125 10.5169 10.3125 10.9999C10.3125 11.4832 10.7239 12.375 11.2313 12.375C11.3726 12.375 11.5054 12.342 11.625 12.2876C11.7446 12.342 11.8774 12.375 12.0187 12.375C12.5261 12.375 12.9375 11.4832 12.9375 10.9999C12.9375 10.5169 12.5261 10.125 12.0187 10.125Z" fill="#40916C"/>
<path d="M8.7 6C8.53838 6 8.38687 6.03862 8.25 6.102C8.11312 6.03862 7.96162 6 7.8 6C7.22025 6 6.75 6.45713 6.75 7.02075C6.75 7.58475 7.22025 8.625 7.8 8.625C7.96162 8.625 8.11312 8.58638 8.25 8.523C8.38687 8.58638 8.53838 8.625 8.7 8.625C9.27975 8.625 9.75 7.58475 9.75 7.02075C9.75 6.45713 9.27975 6 8.7 6Z" fill="#40916C"/>
<path d="M20.3332 20.1795L19.9646 20.2492L19.8948 19.8806C19.7793 19.2701 20.1802 18.6813 20.7907 18.5658L21.1593 18.4961L21.2291 18.8647C21.3446 19.4752 20.9437 20.064 20.3332 20.1795Z" fill="#5F9B22"/>
<path d="M21.2295 18.8656L21.2134 18.7812C21.0923 19.2774 20.4705 19.7082 19.9583 19.8054L19.8896 19.8185C19.8923 19.8399 19.8911 19.8605 19.8953 19.8819L19.965 20.2501L20.3336 20.1804C20.9438 20.0645 21.345 19.4761 21.2295 18.8656Z" fill="#6FBE20"/>
<path d="M19.875 21C19.6676 21 19.5 20.8324 19.5 20.625C19.5 20.2114 19.1636 19.875 18.75 19.875C18.5426 19.875 18.375 19.7074 18.375 19.5C18.375 19.2926 18.5426 19.125 18.75 19.125C19.5773 19.125 20.25 19.7977 20.25 20.625C20.25 20.8324 20.0824 21 19.875 21Z" fill="#6FBE20"/>
<path d="M20.325 20.25C20.1634 20.25 20.0119 20.2886 19.875 20.352C19.7381 20.2886 19.5866 20.25 19.425 20.25C18.8452 20.25 18.375 20.7071 18.375 21.2708C18.375 21.8348 18.8452 22.875 19.425 22.875C19.5866 22.875 19.7381 22.8364 19.875 22.773C20.0119 22.8364 20.1634 22.875 20.325 22.875C20.9047 22.875 21.375 21.8348 21.375 21.2708C21.375 20.7071 20.9047 20.25 20.325 20.25Z" fill="#FF7373"/>
<path d="M21.252 21.8792C21.075 22.3749 20.727 22.8737 20.325 22.8737C20.163 22.8737 20.013 22.8358 19.875 22.7717C19.737 22.8358 19.587 22.8737 19.425 22.8737C18.846 22.8737 18.375 21.8323 18.375 21.2694C18.375 20.861 18.621 20.5112 18.978 20.3477C18.975 20.3623 18.975 20.3799 18.975 20.3945C18.975 21.281 19.713 21.9988 20.625 21.9988C20.847 21.9988 21.06 21.9549 21.252 21.8792Z" fill="#EF5350"/>
<path d="M18.8332 10.4295L18.4646 10.4992L18.3948 10.1306C18.2793 9.52009 18.6802 8.93134 19.2907 8.81584L19.6593 8.74609L19.7291 9.11472C19.8446 9.72522 19.4437 10.314 18.8332 10.4295Z" fill="#5F9B22"/>
<path d="M19.7295 9.11563L19.7134 9.03125C19.5923 9.52738 18.9705 9.95825 18.4583 10.0554L18.3896 10.0685C18.3923 10.0899 18.3911 10.1105 18.3953 10.1319L18.465 10.5001L18.8336 10.4304C19.4438 10.3145 19.845 9.72613 19.7295 9.11563Z" fill="#6FBE20"/>
<path d="M18.375 11.25C18.1676 11.25 18 11.0824 18 10.875C18 10.4614 17.6636 10.125 17.25 10.125C17.0426 10.125 16.875 9.95737 16.875 9.75C16.875 9.54263 17.0426 9.375 17.25 9.375C18.0773 9.375 18.75 10.0477 18.75 10.875C18.75 11.0824 18.5824 11.25 18.375 11.25Z" fill="#6FBE20"/>
<path d="M18.825 10.5C18.6634 10.5 18.5119 10.5386 18.375 10.602C18.2381 10.5386 18.0866 10.5 17.925 10.5C17.3452 10.5 16.875 10.9571 16.875 11.5207C16.875 12.0847 17.3452 13.125 17.925 13.125C18.0866 13.125 18.2381 13.0864 18.375 13.023C18.5119 13.0864 18.6634 13.125 18.825 13.125C19.4047 13.125 19.875 12.0847 19.875 11.5207C19.875 10.9571 19.4047 10.5 18.825 10.5Z" fill="#FF7373"/>
<path d="M19.752 12.1292C19.575 12.6249 19.227 13.1237 18.825 13.1237C18.663 13.1237 18.513 13.0858 18.375 13.0217C18.237 13.0858 18.087 13.1237 17.925 13.1237C17.346 13.1237 16.875 12.0823 16.875 11.5194C16.875 11.111 17.121 10.7612 17.478 10.5977C17.475 10.6123 17.475 10.6299 17.475 10.6445C17.475 11.531 18.213 12.2488 19.125 12.2488C19.347 12.2488 19.56 12.2049 19.752 12.1292Z" fill="#EF5350"/>
<path d="M9.0832 5.55447L8.71458 5.62422L8.64483 5.25559C8.52933 4.64509 8.9302 4.05634 9.5407 3.94084L9.90933 3.87109L9.97908 4.23972C10.0946 4.85022 9.6937 5.43897 9.0832 5.55447Z" fill="#5F9B22"/>
<path d="M9.97952 4.24062L9.9634 4.15625C9.84227 4.65238 9.22052 5.08325 8.70827 5.18038L8.63965 5.1935C8.64227 5.21488 8.64115 5.2355 8.64527 5.25687L8.71502 5.62513L9.08365 5.55538C9.69377 5.4395 10.095 4.85112 9.97952 4.24062Z" fill="#6FBE20"/>
<path d="M8.625 6.375C8.41762 6.375 8.25 6.20738 8.25 6C8.25 5.58637 7.91363 5.25 7.5 5.25C7.29263 5.25 7.125 5.08237 7.125 4.875C7.125 4.66763 7.29263 4.5 7.5 4.5C8.32725 4.5 9 5.17275 9 6C9 6.20738 8.83238 6.375 8.625 6.375Z" fill="#6FBE20"/>
<path d="M9.075 5.625C8.91338 5.625 8.76188 5.66363 8.625 5.727C8.48813 5.66363 8.33662 5.625 8.175 5.625C7.59525 5.625 7.125 6.08213 7.125 6.64575C7.125 7.20975 7.59525 8.25 8.175 8.25C8.33662 8.25 8.48813 8.21137 8.625 8.148C8.76188 8.21137 8.91338 8.25 9.075 8.25C9.65475 8.25 10.125 7.20975 10.125 6.64575C10.125 6.08213 9.65475 5.625 9.075 5.625Z" fill="#FF7373"/>
<path d="M10.002 7.25416C9.825 7.74991 9.477 8.24866 9.075 8.24866C8.913 8.24866 8.763 8.21078 8.625 8.14666C8.487 8.21078 8.337 8.24866 8.175 8.24866C7.596 8.24866 7.125 7.20728 7.125 6.64441C7.125 6.23603 7.371 5.88616 7.728 5.72266C7.725 5.73728 7.725 5.75491 7.725 5.76953C7.725 6.65603 8.463 7.37378 9.375 7.37378C9.597 7.37378 9.81 7.32991 10.002 7.25416Z" fill="#EF5350"/>
<path d="M3.8332 20.5545L3.46458 20.6242L3.39483 20.2556C3.27933 19.6451 3.6802 19.0563 4.2907 18.9408L4.65933 18.8711L4.72908 19.2397C4.84458 19.8502 4.4437 20.439 3.8332 20.5545Z" fill="#5F9B22"/>
<path d="M4.72952 19.2406L4.7134 19.1562C4.59227 19.6524 3.97052 20.0832 3.45827 20.1804L3.38965 20.1935C3.39227 20.2149 3.39115 20.2355 3.39527 20.2569L3.46502 20.6251L3.83365 20.5554C4.44377 20.4395 4.84502 19.8511 4.72952 19.2406Z" fill="#6FBE20"/>
<path d="M3.375 21.375C3.16762 21.375 3 21.2074 3 21C3 20.5864 2.66363 20.25 2.25 20.25C2.04263 20.25 1.875 20.0824 1.875 19.875C1.875 19.6676 2.04263 19.5 2.25 19.5C3.07725 19.5 3.75 20.1727 3.75 21C3.75 21.2074 3.58238 21.375 3.375 21.375Z" fill="#6FBE20"/>
<path d="M3.76875 20.625C3.62738 20.625 3.49462 20.658 3.375 20.7124C3.25538 20.658 3.12262 20.625 2.98125 20.625C2.47387 20.625 2.0625 21.0169 2.0625 21.4999C2.0625 21.9833 2.47387 22.875 2.98125 22.875C3.12262 22.875 3.25538 22.842 3.375 22.7876C3.49462 22.842 3.62738 22.875 3.76875 22.875C4.27613 22.875 4.6875 21.9833 4.6875 21.4999C4.6875 21.0169 4.27613 20.625 3.76875 20.625Z" fill="#FF7373"/>
<path d="M4.57987 22.0238C4.425 22.4487 4.1205 22.8762 3.76875 22.8762C3.627 22.8762 3.49575 22.8436 3.375 22.7888C3.25425 22.8436 3.123 22.8762 2.98125 22.8762C2.47462 22.8762 2.0625 21.9837 2.0625 21.5011C2.0625 21.1512 2.27775 20.8512 2.59012 20.7109C2.5875 20.7237 2.5875 20.7387 2.5875 20.7511C2.5875 21.5112 3.23325 22.1262 4.03125 22.1262C4.2255 22.1262 4.41187 22.0887 4.57987 22.0238Z" fill="#EF5350"/>
<path d="M5.7082 10.8045L5.33958 10.8742L5.26983 10.5056C5.15433 9.89509 5.5552 9.30634 6.1657 9.19084L6.53433 9.12109L6.60408 9.48972C6.71958 10.1002 6.3187 10.689 5.7082 10.8045Z" fill="#5F9B22"/>
<path d="M6.60452 9.49063L6.5884 9.40625C6.46727 9.90238 5.84552 10.3332 5.33327 10.4304L5.26465 10.4435C5.26727 10.4649 5.26615 10.4855 5.27027 10.5069L5.34002 10.8751L5.70865 10.8054C6.31877 10.6895 6.72002 10.1011 6.60452 9.49063Z" fill="#6FBE20"/>
<path d="M5.25 11.625C5.04262 11.625 4.875 11.4574 4.875 11.25C4.875 10.8364 4.53863 10.5 4.125 10.5C3.91763 10.5 3.75 10.3324 3.75 10.125C3.75 9.91763 3.91763 9.75 4.125 9.75C4.95225 9.75 5.625 10.4227 5.625 11.25C5.625 11.4574 5.45738 11.625 5.25 11.625Z" fill="#6FBE20"/>
<path d="M5.64375 10.875C5.50238 10.875 5.36963 10.908 5.25 10.9624C5.13038 10.908 4.99762 10.875 4.85625 10.875C4.34887 10.875 3.9375 11.2669 3.9375 11.7499C3.9375 12.2329 4.34887 13.125 4.85625 13.125C4.99762 13.125 5.13038 13.092 5.25 13.0376C5.36963 13.092 5.50238 13.125 5.64375 13.125C6.15113 13.125 6.5625 12.2333 6.5625 11.7499C6.5625 11.2665 6.15113 10.875 5.64375 10.875Z" fill="#FF7373"/>
<path d="M6.45487 12.2738C6.3 12.6987 5.9955 13.1262 5.64375 13.1262C5.502 13.1262 5.37075 13.0936 5.25 13.0388C5.12925 13.0936 4.998 13.1262 4.85625 13.1262C4.34962 13.1262 3.9375 12.2337 3.9375 11.7511C3.9375 11.4012 4.15275 11.1012 4.46512 10.9609C4.4625 10.9737 4.4625 10.9887 4.4625 11.0011C4.4625 11.7612 5.10825 12.3762 5.90625 12.3762C6.1005 12.3762 6.28688 12.3387 6.45487 12.2738Z" fill="#EF5350"/>
<path d="M12.4582 9.67947L12.0896 9.74922L12.0198 9.38059C11.9043 8.77009 12.3052 8.18134 12.9157 8.06584L13.2843 7.99609L13.3541 8.36472C13.4696 8.97522 13.0687 9.56397 12.4582 9.67947Z" fill="#5F9B22"/>
<path d="M13.3545 8.36563L13.3384 8.28125C13.2173 8.77737 12.5955 9.20825 12.0833 9.30537L12.0146 9.3185C12.0173 9.33987 12.0161 9.3605 12.0203 9.38187L12.09 9.75012L12.4586 9.68037C13.0688 9.5645 13.47 8.97612 13.3545 8.36563Z" fill="#6FBE20"/>
<path d="M12 10.5C11.7926 10.5 11.625 10.3324 11.625 10.125C11.625 9.71137 11.2886 9.375 10.875 9.375C10.6676 9.375 10.5 9.20737 10.5 9C10.5 8.79263 10.6676 8.625 10.875 8.625C11.7023 8.625 12.375 9.29775 12.375 10.125C12.375 10.3324 12.2074 10.5 12 10.5Z" fill="#6FBE20"/>
<path d="M12.3938 9.75C12.2524 9.75 12.1196 9.783 12 9.83737C11.8804 9.783 11.7476 9.75 11.6063 9.75C11.0989 9.75 10.6875 10.1419 10.6875 10.6249C10.6875 11.1083 11.0989 12 11.6063 12C11.7476 12 11.8804 11.967 12 11.9126C12.1196 11.967 12.2524 12 12.3938 12C12.9011 12 13.3125 11.1083 13.3125 10.6249C13.3125 10.1419 12.9011 9.75 12.3938 9.75Z" fill="#FF7373"/>
<path d="M13.2049 11.1488C13.05 11.5737 12.7455 12.0012 12.3937 12.0012C12.252 12.0012 12.1207 11.9686 12 11.9138C11.8793 11.9686 11.748 12.0012 11.6063 12.0012C11.0996 12.0012 10.6875 11.1087 10.6875 10.6261C10.6875 10.2762 10.9027 9.97619 11.2151 9.83594C11.2125 9.84869 11.2125 9.86369 11.2125 9.87606C11.2125 10.6362 11.8583 11.2512 12.6562 11.2512C12.8505 11.2512 13.0369 11.2137 13.2049 11.1488Z" fill="#EF5350"/>
<path d="M15.8332 5.92947L15.4646 5.99922L15.3948 5.63059C15.2793 5.02009 15.6802 4.43134 16.2907 4.31584L16.6593 4.24609L16.7291 4.61472C16.8446 5.22522 16.4437 5.81397 15.8332 5.92947Z" fill="#5F9B22"/>
<path d="M16.7295 4.61562L16.7134 4.53125C16.5923 5.02738 15.9705 5.45825 15.4583 5.55538L15.3896 5.5685C15.3923 5.58988 15.3911 5.6105 15.3953 5.63187L15.465 6.00013L15.8336 5.93038C16.4438 5.8145 16.845 5.22612 16.7295 4.61562Z" fill="#6FBE20"/>
<path d="M15.375 6.75C15.1676 6.75 15 6.58238 15 6.375C15 5.96137 14.6636 5.625 14.25 5.625C14.0426 5.625 13.875 5.45737 13.875 5.25C13.875 5.04263 14.0426 4.875 14.25 4.875C15.0773 4.875 15.75 5.54775 15.75 6.375C15.75 6.58238 15.5824 6.75 15.375 6.75Z" fill="#6FBE20"/>
<path d="M15.7687 6C15.6274 6 15.4946 6.033 15.375 6.08737C15.2554 6.033 15.1226 6 14.9812 6C14.4739 6 14.0625 6.39188 14.0625 6.87488C14.0625 7.35825 14.4739 8.25 14.9812 8.25C15.1226 8.25 15.2554 8.217 15.375 8.16263C15.4946 8.217 15.6274 8.25 15.7687 8.25C16.2761 8.25 16.6875 7.35825 16.6875 6.87488C16.6875 6.39188 16.2761 6 15.7687 6Z" fill="#FF7373"/>
<path d="M16.5799 7.39881C16.425 7.82369 16.1205 8.25119 15.7687 8.25119C15.627 8.25119 15.4957 8.21856 15.375 8.16381C15.2543 8.21856 15.123 8.25119 14.9813 8.25119C14.4746 8.25119 14.0625 7.35869 14.0625 6.87606C14.0625 6.52619 14.2778 6.22619 14.5901 6.08594C14.5875 6.09869 14.5875 6.11369 14.5875 6.12606C14.5875 6.88619 15.2333 7.50119 16.0312 7.50119C16.2255 7.50119 16.4119 7.46369 16.5799 7.39881Z" fill="#EF5350"/>
</svg>
