<svg width="84" height="84" viewBox="0 0 84 84" fill="none" xmlns="http://www.w3.org/2000/svg">
<circle cx="41.709" cy="44" r="39" fill="#B36800"/>
<circle cx="42" cy="39" r="38.5" fill="#FF8A00" stroke="#B36800"/>
<path fill-rule="evenodd" clip-rule="evenodd" d="M41.0263 18.9507C40.3318 19.1375 39.7643 19.4658 39.2171 19.9975L38.7108 20.4892L38.0775 20.3274C37.3219 20.1344 36.6915 20.1238 35.9763 20.2923C34.9936 20.5237 34.0508 21.1415 33.4452 21.9508C33.1689 22.3201 33.0206 22.4301 32.538 22.6236C30.0832 23.6081 28.7263 26.3895 29.4313 28.992C29.4843 29.1879 29.452 29.2212 29.0427 29.3922C27.7941 29.9138 26.573 31.2499 26.1673 32.5383C26.0515 32.9059 25.9467 33.0512 25.6149 33.304C24.71 33.9933 24.0342 35.2083 23.8829 36.4179C23.8506 36.6759 23.7922 36.887 23.7529 36.887C23.7137 36.887 23.44 37.1127 23.1449 37.3886C21.4227 38.9978 21.3937 41.6112 23.08 43.218C24.1117 44.201 25.4109 44.5584 26.7802 44.236C27.3141 44.1103 27.3223 44.1111 27.6214 44.3174C28.0397 44.6058 28.6206 44.8514 29.0453 44.9192C29.3408 44.9664 29.4447 45.0368 29.6426 45.324C29.9473 45.7664 30.5201 46.2947 30.9991 46.575C31.4343 46.8298 32.2336 47.0543 32.7051 47.0543C33.2782 47.0543 33.6607 47.2308 34.3502 47.8136C35.4133 48.7119 36.4277 49.2539 37.5221 49.508L37.9757 49.6134V50.381C37.9757 50.8033 37.9379 51.3524 37.8917 51.6014C37.7022 52.6221 36.8724 53.8157 35.9955 54.3291C35.7958 54.446 35.2493 54.6868 34.7811 54.8641C33.6151 55.3058 33.1616 55.6283 31.7719 57.0036C30.7142 58.0504 30.5732 58.2224 30.5732 58.4658C30.5732 58.6489 30.6447 58.8132 30.7857 58.954L30.9982 59.1663L34.2977 59.135L37.5972 59.1037L38.338 58.8759C39.2284 58.602 39.7521 58.3462 40.5607 57.7896C41.9263 56.8497 42.6256 56.9011 43.6363 58.0158C44.0272 58.447 44.3481 58.7101 44.6839 58.8748L45.1679 59.1122L47.7529 59.1387L50.338 59.1652L50.5499 58.9534C50.8005 58.7032 50.8286 58.3243 50.6147 58.0815C50.5337 57.9895 49.8987 57.4616 49.2036 56.9082C48.5086 56.3549 47.7704 55.7131 47.5633 55.482C47.0452 54.9039 46.5939 54.113 46.3265 53.3143C46.1067 52.6581 46.1006 52.5838 46.0696 50.1843L46.0379 47.7265L46.4441 47.7253C47.5856 47.7218 48.7846 47.177 49.6369 46.2744L50.1958 45.6826L50.7101 45.6993C51.5765 45.7273 52.62 45.3648 53.2781 44.8073L53.5652 44.5641L54.0658 44.7661C56.3226 45.6766 58.984 44.1592 59.4416 41.701C59.5299 41.2268 59.554 41.191 59.9147 40.9998C60.76 40.5518 61.6187 39.4472 62.0013 38.3155C62.237 37.6185 62.2191 36.2673 61.9644 35.5266C61.5817 34.4133 60.712 33.3659 59.7414 32.8491C59.3176 32.6234 59.2507 32.5568 59.2948 32.4036C59.5673 31.4559 59.5558 30.2498 59.2655 29.3245C58.8511 28.0039 57.7988 26.7658 56.5661 26.1489C55.8822 25.8066 54.9626 25.5478 54.4186 25.5447C54.1686 25.5433 54.1622 25.5325 54.0722 24.9618C53.8198 23.3606 52.6276 22.0484 51.0528 21.6386C50.4315 21.477 49.8606 21.4771 49.173 21.639L48.6357 21.7655L48.1585 21.3109C47.3942 20.5827 46.3912 20.1656 45.4046 20.1656C45.0698 20.1656 44.969 20.12 44.6456 19.8223C43.7418 18.9901 42.2317 18.6264 41.0263 18.9507ZM43.1352 20.4425C43.41 20.5682 43.7758 20.8377 44.0229 21.0963L44.4431 21.5365L45.2261 21.5458C45.8795 21.5536 46.0857 21.591 46.4718 21.7718C46.9434 21.9926 47.4051 22.4122 47.7543 22.9374C48.0559 23.391 48.295 23.4328 48.9263 23.1419C49.3758 22.9348 49.5621 22.8974 50.131 22.8995C50.7327 22.9017 50.86 22.932 51.334 23.1863C51.9233 23.5024 52.1778 23.765 52.5098 24.3999C52.7087 24.7803 52.7345 24.9246 52.7365 25.6693C52.7396 26.8616 52.8584 26.991 53.8799 26.914C55.8343 26.7668 57.6765 28.1814 58.0846 30.1427C58.224 30.8132 58.1407 31.708 57.8774 32.3654C57.7576 32.6643 57.6597 32.9927 57.6597 33.0952C57.6597 33.3237 58.0144 33.694 58.2334 33.694C58.5481 33.694 59.5736 34.2827 59.9281 34.6671C60.1226 34.8778 60.4016 35.3028 60.5479 35.6115C60.7887 36.1191 60.8142 36.2491 60.8142 36.971C60.8142 37.6929 60.7887 37.823 60.5479 38.3306C60.1811 39.1041 59.7168 39.5776 58.9181 39.9926C58.1916 40.3702 58.2074 40.3452 58.1281 41.2439C58.0737 41.8611 57.6969 42.652 57.2972 42.988C56.7408 43.4556 56.2348 43.6418 55.5071 43.6467C54.8829 43.6509 54.7751 43.6251 54.2033 43.3358C53.8604 43.1622 53.4922 43.0204 53.3851 43.0207C53.2641 43.0208 53.0253 43.1837 52.7542 43.4507C52.1065 44.0888 51.5542 44.3245 50.7198 44.3189C50.0003 44.314 49.4914 44.126 48.9372 43.6602C48.3124 43.1349 47.9387 41.9058 48.1552 41.0884C48.3549 40.3346 48.3558 40.0843 48.1596 39.8758C48.005 39.7113 47.8697 39.6765 47.246 39.6407C46.7272 39.611 46.3526 39.5342 45.9605 39.3772C45.6561 39.2554 45.33 39.1557 45.2357 39.1557C45.0371 39.1557 44.6216 39.4577 44.6203 39.603C44.6185 39.8304 44.1979 40.5813 43.9129 40.8659C43.7442 41.0345 43.4087 41.2757 43.1673 41.4019C42.5703 41.714 41.6019 41.7283 40.945 41.4347C40.5322 41.2503 39.9265 40.6855 39.549 40.1331C39.4304 39.9596 39.3291 39.912 39.0783 39.912C38.6905 39.912 38.5837 40.0194 38.1906 40.8042C37.2758 42.6309 35.0494 43.4873 33.1692 42.736C32.4004 42.4287 32.2393 42.4467 31.761 42.8936C31.1556 43.4593 30.6719 43.6505 29.8582 43.6461C29.1005 43.642 28.7466 43.5028 28.0091 42.9191C27.5441 42.5509 27.5046 42.5491 26.6616 42.8558C26.0261 43.087 25.309 43.0428 24.7011 42.7351C24.0935 42.4276 23.8191 42.1644 23.5184 41.6008C22.8307 40.312 23.2561 38.743 24.4803 38.0528C24.7374 37.9079 24.9978 37.7092 25.0589 37.6112C25.12 37.5133 25.1906 37.1385 25.2156 36.7783C25.2907 35.7007 25.8181 34.774 26.6957 34.1777C27.1658 33.8583 27.1727 33.8487 27.3407 33.2774C27.767 31.8281 28.8058 30.795 30.2577 30.3764C31.0814 30.1388 31.191 29.8952 30.8632 29.0299C30.446 27.9287 30.5056 26.7565 31.0316 25.7198C31.494 24.8084 32.5211 23.969 33.5174 23.6883C33.9718 23.5603 34.1583 23.413 34.3606 23.0225C34.5911 22.5776 35.1829 22.0502 35.7465 21.7874C36.175 21.5875 36.3594 21.552 36.9663 21.552C37.5984 21.552 37.7482 21.5836 38.2585 21.8251C39.1409 22.2425 39.2558 22.212 39.768 21.4241C40.1575 20.8248 40.7173 20.414 41.3826 20.2392C41.8307 20.1214 42.6377 20.215 43.1352 20.4425ZM37.4077 23.8999C36.7925 24.0488 36.224 24.4236 35.8455 24.93L35.5238 25.3603L35.0463 25.1419C34.7837 25.0217 34.3729 24.9072 34.1333 24.8874C33.7517 24.8558 33.671 24.8781 33.4814 25.0675C33.0182 25.5301 33.2841 26.1065 34.0138 26.2217C34.425 26.2866 35.0315 26.6281 35.0315 26.7946C35.0315 26.8311 34.8269 26.9067 34.5769 26.9626C34.0478 27.0809 33.4325 27.4621 33.1291 27.8594C32.8425 28.2347 32.5921 28.9164 32.5921 29.3213C32.5921 30.5612 33.49 32.2673 34.398 32.7525C34.7904 32.9622 36.9667 32.9783 37.4289 32.7749C38.1753 32.4465 39.0012 31.1992 39.2383 30.0421C39.4228 29.1416 39.2065 28.3157 38.625 27.6998L38.3213 27.378L38.5643 27.0428C38.9614 26.4953 39.0996 25.9559 39.0442 25.1709C38.9912 24.4202 38.8842 24.0586 38.6664 23.8933C38.4872 23.7573 37.9861 23.76 37.4077 23.8999ZM49.5421 24.5691C48.7996 24.7524 48.1691 25.1853 47.8178 25.7532L47.6432 26.0354L47.1627 25.8156C46.8984 25.6946 46.4861 25.5794 46.2465 25.5596C45.8649 25.528 45.7842 25.5503 45.5946 25.7397C45.1314 26.2023 45.3973 26.7787 46.1271 26.894C46.5514 26.9609 47.1447 27.3018 47.1447 27.4786C47.1447 27.5216 47.0406 27.5818 46.9134 27.6124C46.5313 27.7043 45.9396 28.0331 45.6986 28.2874C44.8089 29.2264 44.9842 31.0536 46.0782 32.2448C46.5991 32.812 46.9178 32.92 48.0701 32.92C49.2223 32.92 49.541 32.812 50.0619 32.2448C50.6626 31.5908 51.0142 30.6921 51.0142 29.8107C51.0142 29.2748 50.8722 28.8547 50.5471 28.429L50.3376 28.1545L50.6257 27.7774C51.0656 27.2017 51.2151 26.657 51.1562 25.8442C51.0992 25.057 50.9755 24.6492 50.7586 24.5332C50.5569 24.4254 50.0655 24.4399 49.5421 24.5691ZM37.7234 25.5055C37.7234 25.6695 37.6679 25.9108 37.6002 26.0417C37.4378 26.3553 36.9974 26.7197 36.7805 26.7197C36.6263 26.7197 36.6127 26.682 36.6546 26.3699C36.709 25.9645 36.9095 25.663 37.3019 25.3963C37.6742 25.1431 37.7234 25.1559 37.7234 25.5055ZM49.8366 26.1777C49.8366 26.3417 49.7811 26.583 49.7134 26.7139C49.551 27.0276 49.1106 27.3919 48.8937 27.3919C48.7395 27.3919 48.7259 27.3543 48.7678 27.0421C48.8222 26.6368 49.0227 26.3353 49.4151 26.0685C49.7874 25.8153 49.8366 25.8281 49.8366 26.1777ZM43.4643 31.2943C42.8491 31.4432 42.2806 31.818 41.9021 32.3244L41.5804 32.7547L41.1029 32.5363C40.8403 32.4162 40.4295 32.3016 40.1899 32.2818C39.8083 32.2502 39.7276 32.2725 39.538 32.4619C39.0748 32.9245 39.3407 33.5009 40.0705 33.6161C40.4948 33.6831 41.0881 34.024 41.0881 34.2008C41.0881 34.2437 40.984 34.304 40.8568 34.3346C40.4747 34.4265 39.883 34.7553 39.642 35.0096C38.7523 35.9486 38.9276 37.7758 40.0216 38.967C40.5424 39.5342 40.8612 39.6422 42.0134 39.6422C43.1657 39.6422 43.4844 39.5342 44.0053 38.967C44.606 38.3129 44.9576 37.4143 44.9576 36.5329C44.9576 35.997 44.8156 35.5769 44.4905 35.1512L44.281 34.8766L44.5691 34.4996C45.009 33.9239 45.1585 33.3792 45.0996 32.5664C45.0426 31.7791 44.9189 31.3714 44.702 31.2554C44.4989 31.1468 44.0102 31.1622 43.4643 31.2943ZM54.9046 32.6387C54.2893 32.7876 53.7209 33.1624 53.3423 33.6688L53.0207 34.0991L52.5432 33.8808C52.2806 33.7606 51.8697 33.6461 51.6302 33.6262C51.2486 33.5946 51.1678 33.6169 50.9782 33.8063C50.5151 34.269 50.781 34.8453 51.5107 34.9606C51.9219 35.0255 52.5284 35.3669 52.5284 35.5335C52.5284 35.57 52.3238 35.6456 52.0737 35.7015C51.5447 35.8198 50.9294 36.2009 50.6259 36.5982C50.3393 36.9735 50.0889 37.6553 50.0889 38.0602C50.0889 39.3001 50.9868 41.0062 51.8949 41.4914C52.2872 41.7011 54.4636 41.7171 54.9258 41.5138C55.6722 41.1853 56.4981 39.938 56.7351 38.781C56.9197 37.8805 56.7034 37.0545 56.1219 36.4386L55.8181 36.1168L56.0612 35.7816C56.4583 35.2341 56.5965 34.6947 56.5411 33.9097C56.4881 33.159 56.3811 32.7975 56.1633 32.6321C55.9841 32.4961 55.4829 32.4988 54.9046 32.6387ZM43.78 32.8999C43.78 33.0639 43.7245 33.3052 43.6568 33.4361C43.4944 33.7498 43.054 34.1141 42.8371 34.1141C42.6829 34.1141 42.6693 34.0764 42.7112 33.7643C42.7656 33.3589 42.9661 33.0574 43.3585 32.7907C43.7308 32.5375 43.78 32.5503 43.78 32.8999ZM31.3511 33.311C30.7359 33.4599 30.1674 33.8346 29.7889 34.3411L29.4672 34.7714L28.9897 34.553C28.7271 34.4328 28.3163 34.3183 28.0767 34.2984C27.6951 34.2669 27.6144 34.2891 27.4248 34.4785C26.9616 34.9412 27.2275 35.5175 27.9572 35.6328C28.3815 35.6998 28.9749 36.0407 28.9749 36.2175C28.9749 36.2604 28.8709 36.3207 28.7436 36.3512C28.3615 36.4432 27.7697 36.772 27.5288 37.0262C26.6391 37.9652 26.8144 39.7924 27.9084 40.9837C28.4292 41.5508 28.748 41.6588 29.9002 41.6588C31.0525 41.6588 31.3712 41.5508 31.8921 40.9837C32.4928 40.3296 32.8444 39.4309 32.8444 38.5496C32.8444 38.0136 32.7024 37.5936 32.3773 37.1678L32.1678 36.8933L32.4559 36.5163C32.8958 35.9405 33.0453 35.3958 32.9864 34.583C32.9294 33.7958 32.8056 33.388 32.5888 33.2721C32.3857 33.1635 31.897 33.1789 31.3511 33.311ZM55.2202 34.2443C55.2202 34.4084 55.1648 34.6496 55.0971 34.7805C54.9346 35.0942 54.4943 35.4585 54.2774 35.4585C54.1231 35.4585 54.1096 35.4209 54.1515 35.1087C54.2059 34.7034 54.4064 34.4019 54.7988 34.1351C55.1711 33.8819 55.2202 33.8947 55.2202 34.2443ZM31.6667 34.9166C31.6667 35.0806 31.6113 35.3218 31.5436 35.4527C31.3812 35.7664 30.9408 36.1307 30.7239 36.1307C30.5697 36.1307 30.5561 36.0931 30.598 35.7809C30.6524 35.3756 30.8529 35.0741 31.2453 34.8073C31.6176 34.5541 31.6667 34.5669 31.6667 34.9166ZM46.7052 40.9616C46.7179 40.972 46.7404 41.3357 46.755 41.7697C46.7735 42.317 46.835 42.6945 46.9558 43.0017L47.1298 43.4445L46.8891 43.5688C46.7567 43.6372 46.514 43.6932 46.3498 43.6932H46.0512V42.261V40.8286L46.3666 40.8856C46.5402 40.9169 46.6925 40.9511 46.7052 40.9616ZM44.4988 43.2273C44.6998 43.428 44.7053 43.4673 44.7053 44.7015C44.7053 45.9358 44.6998 45.9751 44.4988 46.1758C44.3686 46.3059 44.1962 46.3821 44.0323 46.3821C43.8685 46.3821 43.696 46.3059 43.5659 46.1758C43.3648 45.9751 43.3594 45.9358 43.3594 44.7015C43.3594 43.4673 43.3648 43.428 43.5659 43.2273C43.696 43.0972 43.8685 43.021 44.0323 43.021C44.1962 43.021 44.3686 43.0972 44.4988 43.2273ZM37.9441 45.3494C37.8154 45.478 36.4616 44.3515 36.4616 44.1158C36.4616 44.075 36.6603 43.9481 36.9032 43.834C37.146 43.7198 37.4773 43.5324 37.6392 43.4177L37.9337 43.209L37.9573 44.2608C37.9702 44.8393 37.9644 45.3291 37.9441 45.3494ZM33.4753 44.2301C33.7992 44.3029 34.2914 44.3632 34.569 44.364L35.0738 44.3654L35.2826 44.7585C35.6035 45.3627 36.4482 46.1537 37.1435 46.5012C37.4749 46.6668 37.7976 46.8022 37.8608 46.8022C37.949 46.8022 37.9757 46.9691 37.9757 47.5181V48.2339L37.7444 48.179C36.913 47.9818 36.0062 47.4702 35.1529 46.7169C34.4572 46.1026 33.7866 45.8026 32.9069 45.712C32.124 45.6313 31.7335 45.4973 31.2843 45.155C30.9579 44.9063 30.9739 44.8524 31.4162 44.7115C31.5792 44.6596 31.9009 44.4855 32.1313 44.3246C32.3739 44.155 32.6207 44.0458 32.7182 44.0648C32.8108 44.0828 33.1515 44.1572 33.4753 44.2301ZM48.2611 44.8276C48.4503 44.9893 48.6361 45.1217 48.674 45.1217C48.8491 45.1217 48.7121 45.3841 48.4138 45.6201C47.9108 46.0181 47.2244 46.297 46.6062 46.3546L46.0512 46.4064V45.7336V45.0607L46.5908 45.0174C46.9546 44.9882 47.2492 44.9051 47.4951 44.7622C47.6956 44.6457 47.8726 44.5465 47.8884 44.5419C47.9043 44.5373 48.0719 44.6658 48.2611 44.8276ZM41.8069 47.2606C41.9953 47.4486 42.0134 47.5326 42.0134 48.2154C42.0134 48.6271 42.0526 49.1677 42.1006 49.4167C42.2283 50.0805 42.2071 51.4142 42.0585 52.054C41.8217 53.0739 40.9565 54.5983 40.3889 54.9954C40.1198 55.1837 39.764 55.1503 39.5281 54.9146C39.2076 54.5945 39.2553 54.2873 39.7074 53.7624C40.6941 52.6165 41.0728 51.0801 40.7578 49.5007C40.7082 49.2517 40.6675 48.6922 40.6675 48.2574C40.6675 47.5301 40.684 47.4503 40.874 47.2606C41.0042 47.1305 41.1766 47.0543 41.3405 47.0543C41.5044 47.0543 41.6768 47.1305 41.8069 47.2606ZM57.5964 50.1164C56.9812 50.2653 56.4127 50.6401 56.0342 51.1465L55.7125 51.5768L55.235 51.3584C54.9724 51.2383 54.5616 51.1237 54.322 51.1039C53.9404 51.0723 53.8597 51.0946 53.6701 51.284C53.2069 51.7466 53.4728 52.323 54.2025 52.4383C54.6137 52.5031 55.2202 52.8446 55.2202 53.0112C55.2202 53.0476 55.0156 53.1233 54.7655 53.1791C54.2365 53.2975 53.6212 53.6786 53.3178 54.0759C53.0312 54.4512 52.7807 55.1329 52.7807 55.5379C52.7807 56.7778 53.6786 58.4839 54.5867 58.969C54.979 59.1788 57.1554 59.1948 57.6176 58.9915C58.364 58.663 59.1899 57.4157 59.4269 56.2587C59.6115 55.3581 59.3952 54.5322 58.8137 53.9163L58.51 53.5945L58.753 53.2593C59.1501 52.7118 59.2883 52.1724 59.2329 51.3874C59.1799 50.6367 59.0729 50.2752 58.8551 50.1098C58.6759 49.9738 58.1747 49.9765 57.5964 50.1164ZM28.0075 50.7856C27.265 50.9689 26.6345 51.4019 26.2832 51.9697L26.1086 52.2519L25.6281 52.0321C25.3638 51.9112 24.9515 51.796 24.7119 51.7761C24.3303 51.7445 24.2496 51.7668 24.06 51.9562C23.5968 52.4189 23.8627 52.9952 24.5925 53.1105C25.0168 53.1775 25.6101 53.5184 25.6101 53.6952C25.6101 53.7381 25.5061 53.7983 25.3788 53.8289C24.9967 53.9208 24.405 54.2497 24.164 54.5039C23.2743 55.4429 23.4496 57.2701 24.5436 58.4614C25.0645 59.0285 25.3832 59.1365 26.5355 59.1365C27.6877 59.1365 28.0065 59.0285 28.5273 58.4614C29.128 57.8073 29.4796 56.9086 29.4796 56.0272C29.4796 55.4913 29.3376 55.0713 29.0125 54.6455L28.803 54.371L29.0911 53.994C29.531 53.4182 29.6805 52.8735 29.6216 52.0607C29.5646 51.2735 29.4409 50.8657 29.224 50.7497C29.0223 50.6419 28.5309 50.6564 28.0075 50.7856ZM57.912 51.722C57.912 51.886 57.8566 52.1273 57.7889 52.2582C57.6264 52.5719 57.1861 52.9362 56.9692 52.9362C56.8149 52.9362 56.8014 52.8986 56.8433 52.5864C56.8977 52.1811 57.0982 51.8796 57.4906 51.6128C57.8629 51.3596 57.912 51.3724 57.912 51.722ZM28.302 52.3942C28.302 52.5583 28.2465 52.7995 28.1788 52.9304C28.0164 53.2441 27.576 53.6084 27.3592 53.6084C27.2049 53.6084 27.1913 53.5708 27.2332 53.2586C27.2877 52.8533 27.4881 52.5518 27.8805 52.285C28.2528 52.0318 28.302 52.0446 28.302 52.3942Z" fill="white"/>
</svg>
