<svg width="32" height="32" viewBox="0 0 32 32" fill="none" xmlns="http://www.w3.org/2000/svg">
<g clip-path="url(#clip0_5673_158202)">
<path d="M31.272 20.573L31.5947 20.1664L31.272 20.573C31.6788 20.8958 31.4488 21.5555 30.9296 21.5555H8.56911C8.26478 21.5555 8.01814 21.3089 8.01814 21.0046V3.26168C8.01814 2.80234 8.55161 2.54459 8.91155 2.83008C8.91157 2.8301 8.91158 2.83011 8.91159 2.83012L31.272 20.573ZM9.12002 19.9345V20.4537L9.63913 20.4537L27.8595 20.4537L29.3489 20.4537L28.1822 19.528L9.9618 5.07015L9.12002 4.4022V5.4768V19.9345Z" stroke="#FF8A00" stroke-width="1.03823"/>
<path d="M25.118 11.0802L24.7408 10.8833L24.4737 11.2146C24.1676 11.5941 23.5504 11.3759 23.5504 10.8895V1.32631C23.5504 1.03961 23.7828 0.807199 24.0695 0.807199C24.3562 0.807199 24.5886 1.03961 24.5886 1.32631V5.35275V6.14131L25.3129 5.82957C27.2167 5.01024 29.3647 6.41218 29.3647 8.50149C29.3647 10.6924 27.0275 12.0769 25.118 11.0802ZM24.5885 8.50144V8.50149C24.5885 9.53247 25.4265 10.3704 26.4575 10.3704C27.4884 10.3704 28.3264 9.53247 28.3264 8.50149C28.3264 7.47046 27.4885 6.63249 26.4575 6.63249C25.4264 6.63249 24.5886 7.4705 24.5885 8.50144Z" stroke="#FF8A00" stroke-width="1.03823"/>
<path d="M3.0614 7.22168H2.15211C1.57875 7.22168 1.11389 7.68648 1.11389 8.25991C1.11389 8.83333 1.57875 9.29813 2.15211 9.29813H3.06147C3.59946 9.29813 4.03721 9.73587 4.03721 10.2739V10.5982C2.05218 9.92412 0 11.4116 0 13.4928C0 15.7251 2.33302 17.213 4.35601 16.259C5.01236 16.8906 6.11359 16.4255 6.11359 15.5114V10.2739C6.11359 8.5909 4.74437 7.22168 3.0614 7.22168ZM3.0568 14.4732C2.51621 14.4732 2.07645 14.0334 2.07645 13.4928C2.07645 12.9523 2.51621 12.5125 3.0568 12.5125C3.59739 12.5125 4.03714 12.9523 4.03714 13.4928C4.03714 14.0334 3.59732 14.4732 3.0568 14.4732Z" fill="#FF8A00"/>
<path d="M19.0503 25.346C19.6237 25.346 20.0885 24.8812 20.0885 24.3078C20.0885 23.7343 19.6237 23.2695 19.0503 23.2695C16.723 23.2695 14.8296 25.1629 14.8296 27.4902C14.8296 29.8176 16.723 31.711 19.0503 31.711C19.6237 31.711 20.0885 31.2462 20.0885 30.6728C20.0885 30.0994 19.6237 29.6346 19.0503 29.6346C17.868 29.6346 16.906 28.6727 16.906 27.4902C16.906 26.3079 17.8679 25.346 19.0503 25.346Z" fill="#FF8A00"/>
</g>
<defs>
<clipPath id="clip0_5673_158202">
<rect width="32" height="32" fill="white"/>
</clipPath>
</defs>
</svg>
