<svg width="32" height="32" viewBox="0 0 32 32" fill="none" xmlns="http://www.w3.org/2000/svg">
<g clip-path="url(#clip0_25861_681359)">
<path d="M31.2719 20.5701L31.5946 20.1635L31.2719 20.5701C31.6787 20.8929 31.4487 21.5526 30.9295 21.5526H8.56899C8.26465 21.5526 8.01801 21.3059 8.01801 21.0017V3.25875C8.01801 2.79941 8.55149 2.54166 8.91143 2.82716C8.91144 2.82717 8.91146 2.82718 8.91147 2.82719L31.2719 20.5701ZM9.1199 19.9316V20.4507L9.63901 20.4507L27.8594 20.4508L29.3488 20.4508L28.1821 19.525L9.96168 5.06722L9.1199 4.39927V5.47387V19.9316Z" stroke="#666666" stroke-width="1.03823"/>
<path d="M25.1178 11.0812L24.7405 10.8843L24.4734 11.2155C24.1674 11.5951 23.5501 11.3769 23.5501 10.8905V1.32729C23.5501 1.04058 23.7825 0.808175 24.0692 0.808175C24.3559 0.808175 24.5883 1.04058 24.5883 1.32729V5.35372V6.14229L25.3127 5.83055C27.2164 5.01122 29.3644 6.41315 29.3644 8.50247C29.3644 10.6934 27.0273 12.0778 25.1178 11.0812ZM24.5883 8.50242V8.50247C24.5883 9.53344 25.4262 10.3714 26.4572 10.3714C27.4882 10.3714 28.3262 9.53344 28.3262 8.50247C28.3262 7.47144 27.4882 6.63347 26.4572 6.63347C25.4262 6.63347 24.5884 7.47147 24.5883 8.50242Z" stroke="#666666" stroke-width="1.03823"/>
<path d="M3.0614 7.21875H2.15211C1.57875 7.21875 1.11389 7.68355 1.11389 8.25698C1.11389 8.8304 1.57875 9.2952 2.15211 9.2952H3.06147C3.59946 9.2952 4.03721 9.73294 4.03721 10.2709V10.5953C2.05218 9.92119 0 11.4087 0 13.4899C0 15.7221 2.33302 17.2101 4.35601 16.2561C5.01236 16.8877 6.11359 16.4226 6.11359 15.5085V10.2709C6.11359 8.58798 4.74437 7.21875 3.0614 7.21875ZM3.0568 14.4702C2.51621 14.4702 2.07645 14.0305 2.07645 13.4899C2.07645 12.9494 2.51621 12.5096 3.0568 12.5096C3.59739 12.5096 4.03714 12.9494 4.03714 13.4899C4.03714 14.0305 3.59732 14.4702 3.0568 14.4702Z" fill="#666666"/>
<path d="M19.0503 25.3499C19.6237 25.3499 20.0885 24.8851 20.0885 24.3117C20.0885 23.7382 19.6237 23.2734 19.0503 23.2734C16.723 23.2734 14.8296 25.1668 14.8296 27.4942C14.8296 29.8215 16.723 31.7149 19.0503 31.7149C19.6237 31.7149 20.0885 31.2501 20.0885 30.6767C20.0885 30.1033 19.6237 29.6385 19.0503 29.6385C17.868 29.6385 16.906 28.6766 16.906 27.4942C16.906 26.3118 17.8679 25.3499 19.0503 25.3499Z" fill="#666666"/>
</g>
<defs>
<clipPath id="clip0_25861_681359">
<rect width="32" height="32" fill="white"/>
</clipPath>
</defs>
</svg>
