<svg width="84" height="84" viewBox="0 0 84 84" fill="none" xmlns="http://www.w3.org/2000/svg">
<circle cx="41.709" cy="44" r="39" fill="#B36800"/>
<circle cx="42" cy="39" r="38.5" fill="#FF8A00" stroke="#B36800"/>
<path d="M54.3371 20.6666H29.8128C28.5976 20.6666 27.609 21.6553 27.609 22.8704V55.1289C27.609 56.3441 28.5976 57.3328 29.8128 57.3328H54.3371C55.5523 57.3328 56.5409 56.3441 56.5409 55.129V22.8704C56.5409 21.6553 55.5523 20.6666 54.3371 20.6666ZM55.1086 55.129C55.1086 55.5544 54.7625 55.9006 54.3371 55.9006H29.8128C29.3874 55.9006 29.0413 55.5544 29.0413 55.129V22.8704C29.0413 22.445 29.3874 22.0989 29.8128 22.0989H54.3371C54.7625 22.0989 55.1086 22.445 55.1086 22.8704V55.129Z" fill="white"/>
<path fill-rule="evenodd" clip-rule="evenodd" d="M27.334 22.8704C27.334 21.5034 28.4457 20.3916 29.8128 20.3916H54.3371C55.7042 20.3916 56.8159 21.5034 56.8159 22.8704V55.129C56.8159 56.496 55.7042 57.6078 54.3371 57.6078H29.8128C28.4457 57.6078 27.334 56.496 27.334 55.1289V22.8704ZM29.8128 20.9416C28.7495 20.9416 27.884 21.8072 27.884 22.8704V55.1289C27.884 56.1923 28.7495 57.0578 29.8128 57.0578H54.3371C55.4004 57.0578 56.2659 56.1923 56.2659 55.129V22.8704C56.2659 21.8072 55.4004 20.9416 54.3371 20.9416H29.8128ZM29.8128 22.3739C29.5392 22.3739 29.3163 22.5969 29.3163 22.8704V55.129C29.3163 55.4026 29.5392 55.6256 29.8128 55.6256H54.3371C54.6107 55.6256 54.8336 55.4026 54.8336 55.129V22.8704C54.8336 22.5969 54.6107 22.3739 54.3371 22.3739H29.8128ZM28.7663 22.8704C28.7663 22.2931 29.2355 21.8239 29.8128 21.8239H54.3371C54.9144 21.8239 55.3836 22.2931 55.3836 22.8704V55.129C55.3836 55.7063 54.9144 56.1755 54.3371 56.1755H29.8128C29.2355 56.1755 28.7663 55.7063 28.7663 55.129V22.8704Z" fill="white"/>
<path d="M51.9578 30.8356H41.3589C40.9634 30.8356 40.6428 31.1563 40.6428 31.5518C40.6428 31.9472 40.9634 32.2679 41.3589 32.2679H51.9578C52.3533 32.2679 52.6739 31.9472 52.6739 31.5518C52.6739 31.1563 52.3533 30.8356 51.9578 30.8356Z" fill="white"/>
<path fill-rule="evenodd" clip-rule="evenodd" d="M40.3678 31.5518C40.3678 31.0045 40.8115 30.5606 41.3589 30.5606H51.9578C52.5052 30.5606 52.9489 31.0045 52.9489 31.5518C52.9489 32.0991 52.5052 32.5429 51.9578 32.5429H41.3589C40.8115 32.5429 40.3678 32.0991 40.3678 31.5518ZM41.3589 31.1106C41.1153 31.1106 40.9178 31.3082 40.9178 31.5518C40.9178 31.7954 41.1153 31.9929 41.3589 31.9929H51.9578C52.2014 31.9929 52.3989 31.7954 52.3989 31.5518C52.3989 31.3082 52.2014 31.1106 51.9578 31.1106H41.3589Z" fill="white"/>
<path d="M41.3589 27.6849H46.0996C46.4951 27.6849 46.8157 27.3642 46.8157 26.9688C46.8157 26.5733 46.4951 26.2527 46.0996 26.2527H41.3589C40.9634 26.2527 40.6428 26.5733 40.6428 26.9688C40.6428 27.3642 40.9634 27.6849 41.3589 27.6849Z" fill="white"/>
<path fill-rule="evenodd" clip-rule="evenodd" d="M40.3678 26.9688C40.3678 26.4215 40.8115 25.9777 41.3589 25.9777H46.0996C46.647 25.9777 47.0907 26.4215 47.0907 26.9688C47.0907 27.5161 46.647 27.9599 46.0996 27.9599H41.3589C40.8115 27.9599 40.3678 27.5161 40.3678 26.9688ZM41.3589 26.5277C41.1153 26.5277 40.9178 26.7252 40.9178 26.9688C40.9178 27.2124 41.1153 27.4099 41.3589 27.4099H46.0996C46.3432 27.4099 46.5407 27.2124 46.5407 26.9688C46.5407 26.7252 46.3432 26.5277 46.0996 26.5277H41.3589Z" fill="white"/>
<path d="M51.9574 26.2527H49.4032C49.0077 26.2527 48.6871 26.5733 48.6871 26.9688C48.6871 27.3642 49.0077 27.6849 49.4032 27.6849H51.9574C52.353 27.6849 52.6736 27.3642 52.6736 26.9688C52.6736 26.5733 52.353 26.2527 51.9574 26.2527Z" fill="white"/>
<path fill-rule="evenodd" clip-rule="evenodd" d="M48.4121 26.9688C48.4121 26.4215 48.8558 25.9777 49.4032 25.9777H51.9574C52.5049 25.9777 52.9486 26.4215 52.9486 26.9688C52.9486 27.5161 52.5049 27.9599 51.9574 27.9599H49.4032C48.8558 27.9599 48.4121 27.5161 48.4121 26.9688ZM49.4032 26.5277C49.1596 26.5277 48.9621 26.7252 48.9621 26.9688C48.9621 27.2124 49.1596 27.4099 49.4032 27.4099H51.9574C52.2011 27.4099 52.3986 27.2124 52.3986 26.9688C52.3986 26.7252 52.2011 26.5277 51.9574 26.5277H49.4032Z" fill="white"/>
<path d="M51.9578 40.5751H41.3589C40.9634 40.5751 40.6428 40.8958 40.6428 41.2913C40.6428 41.6867 40.9634 42.0074 41.3589 42.0074H51.9578C52.3533 42.0074 52.6739 41.6867 52.6739 41.2913C52.6739 40.8958 52.3533 40.5751 51.9578 40.5751Z" fill="white"/>
<path fill-rule="evenodd" clip-rule="evenodd" d="M40.3678 41.2913C40.3678 40.744 40.8115 40.3001 41.3589 40.3001H51.9578C52.5052 40.3001 52.9489 40.744 52.9489 41.2913C52.9489 41.8386 52.5052 42.2824 51.9578 42.2824H41.3589C40.8115 42.2824 40.3678 41.8386 40.3678 41.2913ZM41.3589 40.8501C41.1153 40.8501 40.9178 41.0477 40.9178 41.2913C40.9178 41.5349 41.1153 41.7324 41.3589 41.7324H51.9578C52.2014 41.7324 52.3989 41.5349 52.3989 41.2913C52.3989 41.0477 52.2014 40.8501 51.9578 40.8501H41.3589Z" fill="white"/>
<path d="M41.3589 37.4244H46.0996C46.4951 37.4244 46.8157 37.1037 46.8157 36.7083C46.8157 36.3128 46.4951 35.9921 46.0996 35.9921H41.3589C40.9634 35.9921 40.6428 36.3128 40.6428 36.7083C40.6428 37.1037 40.9634 37.4244 41.3589 37.4244Z" fill="white"/>
<path fill-rule="evenodd" clip-rule="evenodd" d="M40.3678 36.7083C40.3678 36.161 40.8115 35.7171 41.3589 35.7171H46.0996C46.647 35.7171 47.0907 36.161 47.0907 36.7083C47.0907 37.2556 46.647 37.6994 46.0996 37.6994H41.3589C40.8115 37.6994 40.3678 37.2556 40.3678 36.7083ZM41.3589 36.2671C41.1153 36.2671 40.9178 36.4647 40.9178 36.7083C40.9178 36.9519 41.1153 37.1494 41.3589 37.1494H46.0996C46.3432 37.1494 46.5407 36.9519 46.5407 36.7083C46.5407 36.4647 46.3432 36.2671 46.0996 36.2671H41.3589Z" fill="white"/>
<path d="M51.9574 35.9921H49.4032C49.0077 35.9921 48.6871 36.3128 48.6871 36.7083C48.6871 37.1037 49.0077 37.4244 49.4032 37.4244H51.9574C52.353 37.4244 52.6736 37.1037 52.6736 36.7083C52.6736 36.3128 52.353 35.9921 51.9574 35.9921Z" fill="white"/>
<path fill-rule="evenodd" clip-rule="evenodd" d="M48.4121 36.7083C48.4121 36.161 48.8558 35.7171 49.4032 35.7171H51.9574C52.5049 35.7171 52.9486 36.161 52.9486 36.7083C52.9486 37.2556 52.5049 37.6994 51.9574 37.6994H49.4032C48.8558 37.6994 48.4121 37.2556 48.4121 36.7083ZM49.4032 36.2671C49.1596 36.2671 48.9621 36.4647 48.9621 36.7083C48.9621 36.9519 49.1596 37.1494 49.4032 37.1494H51.9574C52.2011 37.1494 52.3986 36.9519 52.3986 36.7083C52.3986 36.4647 52.2011 36.2671 51.9574 36.2671H49.4032Z" fill="white"/>
<path d="M51.9578 50.3146H41.3589C40.9634 50.3146 40.6428 50.6353 40.6428 51.0308C40.6428 51.4262 40.9634 51.7469 41.3589 51.7469H51.9578C52.3533 51.7469 52.6739 51.4262 52.6739 51.0308C52.6739 50.6353 52.3533 50.3146 51.9578 50.3146Z" fill="white"/>
<path fill-rule="evenodd" clip-rule="evenodd" d="M40.3678 51.0308C40.3678 50.4834 40.8115 50.0396 41.3589 50.0396H51.9578C52.5052 50.0396 52.9489 50.4834 52.9489 51.0308C52.9489 51.5781 52.5052 52.0219 51.9578 52.0219H41.3589C40.8115 52.0219 40.3678 51.5781 40.3678 51.0308ZM41.3589 50.5896C41.1153 50.5896 40.9178 50.7872 40.9178 51.0308C40.9178 51.2743 41.1153 51.4719 41.3589 51.4719H51.9578C52.2014 51.4719 52.3989 51.2743 52.3989 51.0308C52.3989 50.7872 52.2014 50.5896 51.9578 50.5896H41.3589Z" fill="white"/>
<path d="M41.3589 47.1639H46.0996C46.4951 47.1639 46.8157 46.8432 46.8157 46.4478C46.8157 46.0523 46.4951 45.7316 46.0996 45.7316H41.3589C40.9634 45.7316 40.6428 46.0523 40.6428 46.4478C40.6428 46.8432 40.9634 47.1639 41.3589 47.1639Z" fill="white"/>
<path fill-rule="evenodd" clip-rule="evenodd" d="M40.3678 46.4478C40.3678 45.9005 40.8115 45.4566 41.3589 45.4566H46.0996C46.647 45.4566 47.0907 45.9005 47.0907 46.4478C47.0907 46.9951 46.647 47.4389 46.0996 47.4389H41.3589C40.8115 47.4389 40.3678 46.9951 40.3678 46.4478ZM41.3589 46.0066C41.1153 46.0066 40.9178 46.2042 40.9178 46.4478C40.9178 46.6914 41.1153 46.8889 41.3589 46.8889H46.0996C46.3432 46.8889 46.5407 46.6914 46.5407 46.4478C46.5407 46.2042 46.3432 46.0066 46.0996 46.0066H41.3589Z" fill="white"/>
<path d="M51.9574 45.7316H49.4032C49.0077 45.7316 48.6871 46.0523 48.6871 46.4478C48.6871 46.8432 49.0077 47.1639 49.4032 47.1639H51.9574C52.353 47.1639 52.6736 46.8432 52.6736 46.4478C52.6736 46.0523 52.353 45.7316 51.9574 45.7316Z" fill="white"/>
<path fill-rule="evenodd" clip-rule="evenodd" d="M48.4121 46.4478C48.4121 45.9005 48.8558 45.4566 49.4032 45.4566H51.9574C52.5049 45.4566 52.9486 45.9005 52.9486 46.4478C52.9486 46.9951 52.5049 47.4389 51.9574 47.4389H49.4032C48.8558 47.4389 48.4121 46.9951 48.4121 46.4478ZM49.4032 46.0066C49.1596 46.0066 48.9621 46.2042 48.9621 46.4478C48.9621 46.6914 49.1596 46.8889 49.4032 46.8889H51.9574C52.2011 46.8889 52.3986 46.6914 52.3986 46.4478C52.3986 46.2042 52.2011 46.0066 51.9574 46.0066H49.4032Z" fill="white"/>
<path d="M36.2709 27.9602L35.6324 28.5987L35.329 28.9021L34.7424 29.4886L33.6919 30.5392L33.0308 29.8781L32.7003 29.5476C32.6858 29.5331 32.6708 29.5193 32.6554 29.5063C32.374 29.2688 31.9527 29.2825 31.6875 29.5476C31.4079 29.8272 31.4079 30.2807 31.6875 30.5604L33.1855 32.0584C33.3253 32.1982 33.5086 32.2681 33.6918 32.2681C33.8751 32.2681 34.0584 32.1982 34.1982 32.0584L37.2835 28.973C37.5632 28.6934 37.5632 28.2399 37.2835 27.9602C37.2685 27.9452 37.253 27.931 37.237 27.9175C37.1445 27.8399 37.037 27.7893 36.9249 27.7658C36.8276 27.7454 36.7269 27.7454 36.6296 27.7658C36.4982 27.7933 36.3729 27.8581 36.2709 27.9602Z" fill="white"/>
<path d="M37.2817 36.2019C37.0021 35.9223 36.5486 35.9223 36.2689 36.2019L36.0744 36.3964L34.4837 37.9871L32.893 36.3963L32.6985 36.2018C32.4188 35.9222 31.9654 35.9222 31.6856 36.2018C31.406 36.4815 31.406 36.9349 31.6856 37.2147L33.4709 38.9999L31.6856 40.7852C31.406 41.0648 31.406 41.5183 31.6856 41.798C31.8255 41.9377 32.0088 42.0077 32.1921 42.0077C32.3753 42.0077 32.5587 41.9377 32.6985 41.7979L34.4837 40.0128L36.269 41.798C36.4088 41.9378 36.5921 42.0078 36.7754 42.0078C36.9586 42.0078 37.142 41.9378 37.2817 41.798C37.5614 41.5184 37.5614 41.0649 37.2817 40.7852L35.4966 38.9999L37.2818 37.2147C37.5614 36.935 37.5614 36.4816 37.2817 36.2019Z" fill="white"/>
<path d="M37.2817 45.9414C37.0021 45.6618 36.5486 45.6618 36.2689 45.9414L36.0744 46.1359L34.4837 47.7266L32.893 46.1358L32.6985 45.9413C32.4188 45.6617 31.9654 45.6617 31.6856 45.9413C31.406 46.221 31.406 46.6744 31.6856 46.9542L33.4709 48.7394L31.6856 50.5247C31.406 50.8043 31.406 51.2578 31.6856 51.5375C31.8255 51.6772 32.0088 51.7472 32.1921 51.7472C32.3753 51.7472 32.5587 51.6772 32.6985 51.5374L34.4837 49.7522L36.269 51.5375C36.4088 51.6773 36.5921 51.7473 36.7754 51.7473C36.9586 51.7473 37.142 51.6773 37.2817 51.5375C37.5614 51.2578 37.5614 50.8044 37.2817 50.5247L35.4966 48.7394L37.2818 46.9542C37.5614 46.6745 37.5614 46.221 37.2817 45.9414Z" fill="white"/>
<path fill-rule="evenodd" clip-rule="evenodd" d="M37.0873 46.1358L36.4633 46.1359C36.6357 45.9637 36.915 45.9637 37.0873 46.1358ZM33.8598 48.7394L31.8801 46.7597L37.0873 50.7191C37.2596 50.8915 37.2595 51.1708 37.0873 51.343C37.0011 51.4292 36.8886 51.4723 36.7754 51.4723C36.6621 51.4723 36.5497 51.4292 36.4634 51.343L34.4837 49.3633L32.504 51.343C32.4179 51.4291 32.3054 51.4722 32.1921 51.4722C32.0789 51.4722 31.9664 51.4292 31.8801 51.3431C31.7078 51.1707 31.7078 50.8914 31.8801 50.7191L33.8598 48.7394Z" fill="white"/>
<path fill-rule="evenodd" clip-rule="evenodd" d="M31.88 36.3963C32.0524 36.2241 32.3318 36.2241 32.504 36.3963L31.88 36.3963ZM37.0873 36.3964L36.4633 36.3964C36.6357 36.2241 36.915 36.2242 37.0873 36.3964Z" fill="white"/>
<path d="M35.6324 28.5987L36.2709 27.9602C36.3729 27.8581 36.4982 27.7933 36.6296 27.7658L36.0764 27.7657L35.0729 28.7693L35.6324 28.5987Z" fill="white"/>
<path d="M35.329 28.9021L34.791 29.1306L34.653 29.1892L33.6919 30.1502L34.2886 29.7745L34.7424 29.4886L35.329 28.9021Z" fill="white"/>
<path d="M31.6875 30.5604C31.4079 30.2807 31.4079 29.8272 31.6875 29.5476C31.9527 29.2825 32.374 29.2688 32.6554 29.5063L32.9562 29.4145L32.8948 29.3531C32.5077 28.9662 31.8802 28.9662 31.4931 29.3531C31.106 29.7401 31.106 30.3678 31.493 30.7549L32.991 32.2528C33.1844 32.4462 33.4386 32.5431 33.6918 32.5431C33.9451 32.5431 34.1992 32.4462 34.3927 32.2528L37.478 29.1675C37.8651 28.7804 37.865 28.1529 37.478 27.7658L37.237 27.9175C37.253 27.931 37.2685 27.9452 37.2835 27.9602C37.5632 28.2399 37.5632 28.6934 37.2835 28.973L34.1982 32.0584C34.0584 32.1982 33.8751 32.2681 33.6918 32.2681C33.5086 32.2681 33.3253 32.1982 33.1855 32.0584L31.6875 30.5604Z" fill="white"/>
<path d="M35.6324 28.5987L35.0729 28.7693L34.791 29.1306L35.329 28.9021L35.6324 28.5987Z" fill="white"/>
<path d="M37.478 27.7658C37.0911 27.3787 36.4634 27.3787 36.0764 27.7657L36.6296 27.7658C36.7269 27.7454 36.8276 27.7454 36.9249 27.7658L37.478 27.7658Z" fill="white"/>
<path d="M37.237 27.9175L37.478 27.7658L36.9249 27.7658C37.037 27.7893 37.1445 27.8399 37.237 27.9175Z" fill="white"/>
<path d="M33.6919 30.5392L34.7424 29.4886L34.2886 29.7745L33.6919 30.5392Z" fill="white"/>
<path d="M33.0308 29.8781L33.6919 30.5392L33.2097 29.8021L33.0308 29.8781Z" fill="white"/>
<path d="M36.2689 45.9414C36.5486 45.6618 37.0021 45.6618 37.2817 45.9414C37.5614 46.221 37.5614 46.6745 37.2818 46.9542L35.4966 48.7394L37.2817 50.5247C37.5614 50.8044 37.5614 51.2578 37.2817 51.5375C37.142 51.6773 36.9586 51.7473 36.7754 51.7473C36.5921 51.7473 36.4088 51.6773 36.269 51.5375L34.4837 49.7522L32.6985 51.5374C32.5587 51.6772 32.3753 51.7472 32.1921 51.7472C32.0088 51.7472 31.8255 51.6772 31.6856 51.5375C31.406 51.2578 31.406 50.8043 31.6856 50.5247L33.4709 48.7394L31.6856 46.9542C31.406 46.6744 31.406 46.221 31.6856 45.9413C31.9654 45.6617 32.4188 45.6617 32.6985 45.9413L32.893 46.1358L33.2819 46.1358L32.8929 45.7468C32.5058 45.3599 31.8783 45.3599 31.4912 45.7468C31.1042 46.1339 31.1042 46.7615 31.4912 47.1486L33.082 48.7394L31.4912 50.3302C31.1041 50.7173 31.1043 51.345 31.4913 51.7321C31.6847 51.9253 31.9388 52.0222 32.1921 52.0222C32.4453 52.0222 32.6995 51.9253 32.8929 51.7319L34.4837 50.1411L36.0746 51.732C36.268 51.9253 36.5221 52.0223 36.7754 52.0223C37.0286 52.0223 37.2828 51.9254 37.4762 51.732C37.8633 51.3449 37.8632 50.7173 37.4762 50.3302L35.8855 48.7394L37.4763 47.1486C37.8632 46.7615 37.8632 46.134 37.4762 45.7469C37.0891 45.36 36.4615 45.36 36.0745 45.7469L34.4837 47.3377L33.2819 46.1358L32.893 46.1358L34.4837 47.7266L36.0744 46.1359L36.2689 45.9414Z" fill="white"/>
<path d="M36.2689 36.2019C36.5486 35.9223 37.0021 35.9223 37.2817 36.2019C37.5614 36.4816 37.5614 36.935 37.2818 37.2147L35.4966 38.9999L37.2817 40.7852C37.5614 41.0649 37.5614 41.5184 37.2817 41.798C37.142 41.9378 36.9586 42.0078 36.7754 42.0078C36.5921 42.0078 36.4088 41.9378 36.269 41.798L34.4837 40.0128L32.6985 41.7979C32.5587 41.9377 32.3753 42.0077 32.1921 42.0077C32.0088 42.0077 31.8255 41.9377 31.6856 41.798C31.406 41.5183 31.406 41.0648 31.6856 40.7852L33.4709 38.9999L31.6856 37.2147C31.406 36.9349 31.406 36.4815 31.6856 36.2018C31.9654 35.9222 32.4188 35.9222 32.6985 36.2018L32.893 36.3963L34.4837 37.9871L36.0744 36.3964L35.6856 36.3964L34.4837 37.5982L32.8929 36.0074C32.5058 35.6204 31.8783 35.6204 31.4912 36.0073C31.1042 36.3944 31.1042 37.022 31.4912 37.4091L33.082 38.9999L31.4912 40.5907C31.1041 40.9778 31.1043 41.6055 31.4913 41.9926C31.6847 42.1858 31.9388 42.2827 32.1921 42.2827C32.4453 42.2827 32.6995 42.1858 32.8929 41.9924L34.4837 40.4017L36.0746 41.9925C36.268 42.1859 36.5221 42.2828 36.7754 42.2828C37.0286 42.2828 37.2828 42.1859 37.4762 41.9925C37.8633 41.6054 37.8632 40.9778 37.4762 40.5907L35.8855 38.9999L37.4763 37.4091C37.8632 37.022 37.8632 36.3945 37.4762 36.0074C37.0891 35.6205 36.4615 35.6206 36.0745 36.0074L35.6856 36.3964L36.0744 36.3964L36.2689 36.2019Z" fill="white"/>
<path d="M35.0729 28.7693L34.653 29.1892L34.791 29.1306L35.0729 28.7693Z" fill="white"/>
<path d="M32.7003 29.5476L33.0308 29.8781L33.2097 29.8021L32.9562 29.4145L32.6554 29.5063C32.6708 29.5193 32.6858 29.5331 32.7003 29.5476Z" fill="white"/>
<path d="M34.2886 29.7745L33.6919 30.1502L32.9562 29.4145L33.2097 29.8021L33.6919 30.5392L34.2886 29.7745Z" fill="white"/>
<path d="M33.6919 30.5392L34.7424 29.4886M33.6919 30.5392L33.0308 29.8781M33.6919 30.5392L33.2097 29.8021M33.6919 30.5392L34.2886 29.7745M37.478 27.7658C37.0911 27.3787 36.4634 27.3787 36.0764 27.7657M37.478 27.7658C37.865 28.1529 37.8651 28.7804 37.478 29.1675L34.3927 32.2528C34.1992 32.4462 33.9451 32.5431 33.6918 32.5431C33.4386 32.5431 33.1844 32.4462 32.991 32.2528L31.493 30.7549C31.106 30.3678 31.106 29.7401 31.4931 29.3531C31.8802 28.9662 32.5077 28.9662 32.8948 29.3531L32.9562 29.4145M37.478 27.7658L37.237 27.9175M37.478 27.7658L36.9249 27.7658M36.0764 27.7657L36.6296 27.7658M36.0764 27.7657L35.0729 28.7693M37.089 28.1546C36.917 27.9824 36.6376 27.9824 36.4653 28.1547L33.6919 30.9281L32.5059 29.7421C32.3337 29.5699 32.0543 29.5698 31.882 29.742M37.089 28.1546C37.2613 28.327 37.2613 28.6063 37.0891 28.7786L34.0038 31.8639C33.9176 31.9501 33.8051 31.9931 33.6918 31.9931C33.5786 31.9931 33.4661 31.9501 33.3799 31.8639L31.882 30.366M37.089 28.1546L35.6324 28.5987M37.089 28.1546L35.329 28.9021M31.882 29.742C31.7098 29.9143 31.7097 30.1937 31.882 30.366M31.882 29.742L31.882 30.366M31.882 29.742L32.6554 29.5063M31.882 30.366L33.0308 29.8781M33.6919 30.1502L34.653 29.1892M33.6919 30.1502L34.2886 29.7745M33.6919 30.1502L32.9562 29.4145M31.88 36.3963C32.0524 36.2241 32.3318 36.2241 32.504 36.3963M31.88 36.3963L32.504 36.3963M31.88 36.3963L32.893 36.3963M32.504 36.3963L34.4837 38.376L36.4633 36.3964M32.504 36.3963L32.893 36.3963M36.4633 36.3964C36.6357 36.2241 36.915 36.2242 37.0873 36.3964M36.4633 36.3964L37.0873 36.3964M36.4633 36.3964L36.0744 36.3964M37.0873 36.3964L36.0744 36.3964M36.4633 46.1359C36.6357 45.9637 36.915 45.9637 37.0873 46.1358M36.4633 46.1359L34.4837 48.1155L32.504 46.1358L32.893 46.1358M36.4633 46.1359L37.0873 46.1358M36.4633 46.1359L36.0744 46.1359M37.0873 46.1358L36.0744 46.1359M33.2819 46.1358L32.8929 45.7468C32.5058 45.3599 31.8783 45.3599 31.4912 45.7468C31.1042 46.1339 31.1042 46.7615 31.4912 47.1486L33.082 48.7394L31.4912 50.3302C31.1041 50.7173 31.1043 51.345 31.4913 51.7321C31.6847 51.9253 31.9388 52.0222 32.1921 52.0222C32.4453 52.0222 32.6995 51.9253 32.8929 51.7319L34.4837 50.1411L36.0746 51.732C36.268 51.9253 36.5221 52.0223 36.7754 52.0223C37.0286 52.0223 37.2828 51.9254 37.4762 51.732C37.8633 51.3449 37.8632 50.7173 37.4762 50.3302L35.8855 48.7394L37.4763 47.1486C37.8632 46.7615 37.8632 46.134 37.4762 45.7469C37.0891 45.36 36.4615 45.36 36.0745 45.7469L34.4837 47.3377L33.2819 46.1358ZM33.2819 46.1358L32.893 46.1358M35.6856 36.3964L36.0745 36.0074C36.4615 35.6206 37.0891 35.6205 37.4762 36.0074C37.8632 36.3945 37.8632 37.022 37.4763 37.4091L35.8855 38.9999L37.4762 40.5907C37.8632 40.9778 37.8633 41.6054 37.4762 41.9925C37.2828 42.1859 37.0286 42.2828 36.7754 42.2828C36.5221 42.2828 36.268 42.1859 36.0746 41.9925L34.4837 40.4017L32.8929 41.9924C32.6995 42.1858 32.4453 42.2827 32.1921 42.2827C31.9388 42.2827 31.6847 42.1858 31.4913 41.9926C31.1043 41.6055 31.1041 40.9778 31.4912 40.5907L33.082 38.9999L31.4912 37.4091C31.1042 37.022 31.1042 36.3944 31.4912 36.0073C31.8783 35.6204 32.5058 35.6204 32.8929 36.0074L34.4837 37.5982L35.6856 36.3964ZM35.6856 36.3964L36.0744 36.3964M35.6324 28.5987L36.2709 27.9602C36.3729 27.8581 36.4982 27.7933 36.6296 27.7658M35.6324 28.5987L35.0729 28.7693M35.6324 28.5987L35.329 28.9021M36.6296 27.7658C36.7269 27.7454 36.8276 27.7454 36.9249 27.7658M36.6296 27.7658L36.9249 27.7658M35.0729 28.7693L34.653 29.1892M35.0729 28.7693L34.791 29.1306M35.329 28.9021L34.7424 29.4886M35.329 28.9021L34.791 29.1306M34.653 29.1892L34.791 29.1306M34.7424 29.4886L37.237 27.9175M34.7424 29.4886L34.2886 29.7745M33.0308 29.8781L32.7003 29.5476C32.6858 29.5331 32.6708 29.5193 32.6554 29.5063M33.0308 29.8781L33.2097 29.8021M32.9562 29.4145L32.6554 29.5063M32.9562 29.4145L33.2097 29.8021M32.6554 29.5063C32.374 29.2688 31.9527 29.2825 31.6875 29.5476C31.4079 29.8272 31.4079 30.2807 31.6875 30.5604L33.1855 32.0584C33.3253 32.1982 33.5086 32.2681 33.6918 32.2681C33.8751 32.2681 34.0584 32.1982 34.1982 32.0584L37.2835 28.973C37.5632 28.6934 37.5632 28.2399 37.2835 27.9602C37.2685 27.9452 37.253 27.931 37.237 27.9175M37.237 27.9175C37.1445 27.8399 37.037 27.7893 36.9249 27.7658M34.2886 29.7745L34.791 29.1306M36.0744 36.3964L34.4837 37.9871L32.893 36.3963M36.0744 36.3964L36.2689 36.2019C36.5486 35.9223 37.0021 35.9223 37.2817 36.2019C37.5614 36.4816 37.5614 36.935 37.2818 37.2147L35.4966 38.9999L37.2817 40.7852C37.5614 41.0649 37.5614 41.5184 37.2817 41.798C37.142 41.9378 36.9586 42.0078 36.7754 42.0078C36.5921 42.0078 36.4088 41.9378 36.269 41.798L34.4837 40.0128L32.6985 41.7979C32.5587 41.9377 32.3753 42.0077 32.1921 42.0077C32.0088 42.0077 31.8255 41.9377 31.6856 41.798C31.406 41.5183 31.406 41.0648 31.6856 40.7852L33.4709 38.9999L31.6856 37.2147C31.406 36.9349 31.406 36.4815 31.6856 36.2018C31.9654 35.9222 32.4188 35.9222 32.6985 36.2018L32.893 36.3963M36.0744 46.1359L34.4837 47.7266L32.893 46.1358M36.0744 46.1359L36.2689 45.9414C36.5486 45.6618 37.0021 45.6618 37.2817 45.9414C37.5614 46.221 37.5614 46.6745 37.2818 46.9542L35.4966 48.7394L37.2817 50.5247C37.5614 50.8044 37.5614 51.2578 37.2817 51.5375C37.142 51.6773 36.9586 51.7473 36.7754 51.7473C36.5921 51.7473 36.4088 51.6773 36.269 51.5375L34.4837 49.7522L32.6985 51.5374C32.5587 51.6772 32.3753 51.7472 32.1921 51.7472C32.0088 51.7472 31.8255 51.6772 31.6856 51.5375C31.406 51.2578 31.406 50.8043 31.6856 50.5247L33.4709 48.7394L31.6856 46.9542C31.406 46.6744 31.406 46.221 31.6856 45.9413C31.9654 45.6617 32.4188 45.6617 32.6985 45.9413L32.893 46.1358M54.3371 20.6666H29.8128C28.5976 20.6666 27.609 21.6553 27.609 22.8704V55.1289C27.609 56.3441 28.5976 57.3328 29.8128 57.3328H54.3371C55.5523 57.3328 56.5409 56.3441 56.5409 55.129V22.8704C56.5409 21.6553 55.5523 20.6666 54.3371 20.6666ZM55.1086 55.129C55.1086 55.5544 54.7625 55.9006 54.3371 55.9006H29.8128C29.3874 55.9006 29.0413 55.5544 29.0413 55.129V22.8704C29.0413 22.445 29.3874 22.0989 29.8128 22.0989H54.3371C54.7625 22.0989 55.1086 22.445 55.1086 22.8704V55.129ZM29.8128 20.3916C28.4457 20.3916 27.334 21.5034 27.334 22.8704V55.1289C27.334 56.496 28.4457 57.6078 29.8128 57.6078H54.3371C55.7042 57.6078 56.8159 56.496 56.8159 55.129V22.8704C56.8159 21.5034 55.7042 20.3916 54.3371 20.3916H29.8128ZM27.884 22.8704C27.884 21.8072 28.7495 20.9416 29.8128 20.9416H54.3371C55.4004 20.9416 56.2659 21.8072 56.2659 22.8704V55.129C56.2659 56.1923 55.4004 57.0578 54.3371 57.0578H29.8128C28.7495 57.0578 27.884 56.1923 27.884 55.1289V22.8704ZM29.3163 22.8704C29.3163 22.5969 29.5392 22.3739 29.8128 22.3739H54.3371C54.6107 22.3739 54.8336 22.5969 54.8336 22.8704V55.129C54.8336 55.4026 54.6107 55.6256 54.3371 55.6256H29.8128C29.5392 55.6256 29.3163 55.4026 29.3163 55.129V22.8704ZM29.8128 21.8239C29.2355 21.8239 28.7663 22.2931 28.7663 22.8704V55.129C28.7663 55.7063 29.2355 56.1755 29.8128 56.1755H54.3371C54.9144 56.1755 55.3836 55.7063 55.3836 55.129V22.8704C55.3836 22.2931 54.9144 21.8239 54.3371 21.8239H29.8128ZM51.9578 30.8356H41.3589C40.9634 30.8356 40.6428 31.1563 40.6428 31.5518C40.6428 31.9472 40.9634 32.2679 41.3589 32.2679H51.9578C52.3533 32.2679 52.6739 31.9472 52.6739 31.5518C52.6739 31.1563 52.3533 30.8356 51.9578 30.8356ZM41.3589 30.5606C40.8115 30.5606 40.3678 31.0045 40.3678 31.5518C40.3678 32.0991 40.8115 32.5429 41.3589 32.5429H51.9578C52.5052 32.5429 52.9489 32.0991 52.9489 31.5518C52.9489 31.0045 52.5052 30.5606 51.9578 30.5606H41.3589ZM40.9178 31.5518C40.9178 31.3082 41.1153 31.1106 41.3589 31.1106H51.9578C52.2014 31.1106 52.3989 31.3082 52.3989 31.5518C52.3989 31.7954 52.2014 31.9929 51.9578 31.9929H41.3589C41.1153 31.9929 40.9178 31.7954 40.9178 31.5518ZM41.3589 27.6849H46.0996C46.4951 27.6849 46.8157 27.3642 46.8157 26.9688C46.8157 26.5733 46.4951 26.2527 46.0996 26.2527H41.3589C40.9634 26.2527 40.6428 26.5733 40.6428 26.9688C40.6428 27.3642 40.9634 27.6849 41.3589 27.6849ZM41.3589 25.9777C40.8115 25.9777 40.3678 26.4215 40.3678 26.9688C40.3678 27.5161 40.8115 27.9599 41.3589 27.9599H46.0996C46.647 27.9599 47.0907 27.5161 47.0907 26.9688C47.0907 26.4215 46.647 25.9777 46.0996 25.9777H41.3589ZM40.9178 26.9688C40.9178 26.7252 41.1153 26.5277 41.3589 26.5277H46.0996C46.3432 26.5277 46.5407 26.7252 46.5407 26.9688C46.5407 27.2124 46.3432 27.4099 46.0996 27.4099H41.3589C41.1153 27.4099 40.9178 27.2124 40.9178 26.9688ZM51.9574 26.2527H49.4032C49.0077 26.2527 48.6871 26.5733 48.6871 26.9688C48.6871 27.3642 49.0077 27.6849 49.4032 27.6849H51.9574C52.353 27.6849 52.6736 27.3642 52.6736 26.9688C52.6736 26.5733 52.353 26.2527 51.9574 26.2527ZM49.4032 25.9777C48.8558 25.9777 48.4121 26.4215 48.4121 26.9688C48.4121 27.5161 48.8558 27.9599 49.4032 27.9599H51.9574C52.5049 27.9599 52.9486 27.5161 52.9486 26.9688C52.9486 26.4215 52.5049 25.9777 51.9574 25.9777H49.4032ZM48.9621 26.9688C48.9621 26.7252 49.1596 26.5277 49.4032 26.5277H51.9574C52.2011 26.5277 52.3986 26.7252 52.3986 26.9688C52.3986 27.2124 52.2011 27.4099 51.9574 27.4099H49.4032C49.1596 27.4099 48.9621 27.2124 48.9621 26.9688ZM51.9578 40.5751H41.3589C40.9634 40.5751 40.6428 40.8958 40.6428 41.2913C40.6428 41.6867 40.9634 42.0074 41.3589 42.0074H51.9578C52.3533 42.0074 52.6739 41.6867 52.6739 41.2913C52.6739 40.8958 52.3533 40.5751 51.9578 40.5751ZM41.3589 40.3001C40.8115 40.3001 40.3678 40.744 40.3678 41.2913C40.3678 41.8386 40.8115 42.2824 41.3589 42.2824H51.9578C52.5052 42.2824 52.9489 41.8386 52.9489 41.2913C52.9489 40.744 52.5052 40.3001 51.9578 40.3001H41.3589ZM40.9178 41.2913C40.9178 41.0477 41.1153 40.8501 41.3589 40.8501H51.9578C52.2014 40.8501 52.3989 41.0477 52.3989 41.2913C52.3989 41.5349 52.2014 41.7324 51.9578 41.7324H41.3589C41.1153 41.7324 40.9178 41.5349 40.9178 41.2913ZM41.3589 37.4244H46.0996C46.4951 37.4244 46.8157 37.1037 46.8157 36.7083C46.8157 36.3128 46.4951 35.9921 46.0996 35.9921H41.3589C40.9634 35.9921 40.6428 36.3128 40.6428 36.7083C40.6428 37.1037 40.9634 37.4244 41.3589 37.4244ZM41.3589 35.7171C40.8115 35.7171 40.3678 36.161 40.3678 36.7083C40.3678 37.2556 40.8115 37.6994 41.3589 37.6994H46.0996C46.647 37.6994 47.0907 37.2556 47.0907 36.7083C47.0907 36.161 46.647 35.7171 46.0996 35.7171H41.3589ZM40.9178 36.7083C40.9178 36.4647 41.1153 36.2671 41.3589 36.2671H46.0996C46.3432 36.2671 46.5407 36.4647 46.5407 36.7083C46.5407 36.9519 46.3432 37.1494 46.0996 37.1494H41.3589C41.1153 37.1494 40.9178 36.9519 40.9178 36.7083ZM51.9574 35.9921H49.4032C49.0077 35.9921 48.6871 36.3128 48.6871 36.7083C48.6871 37.1037 49.0077 37.4244 49.4032 37.4244H51.9574C52.353 37.4244 52.6736 37.1037 52.6736 36.7083C52.6736 36.3128 52.353 35.9921 51.9574 35.9921ZM49.4032 35.7171C48.8558 35.7171 48.4121 36.161 48.4121 36.7083C48.4121 37.2556 48.8558 37.6994 49.4032 37.6994H51.9574C52.5049 37.6994 52.9486 37.2556 52.9486 36.7083C52.9486 36.161 52.5049 35.7171 51.9574 35.7171H49.4032ZM48.9621 36.7083C48.9621 36.4647 49.1596 36.2671 49.4032 36.2671H51.9574C52.2011 36.2671 52.3986 36.4647 52.3986 36.7083C52.3986 36.9519 52.2011 37.1494 51.9574 37.1494H49.4032C49.1596 37.1494 48.9621 36.9519 48.9621 36.7083ZM51.9578 50.3146H41.3589C40.9634 50.3146 40.6428 50.6353 40.6428 51.0308C40.6428 51.4262 40.9634 51.7469 41.3589 51.7469H51.9578C52.3533 51.7469 52.6739 51.4262 52.6739 51.0308C52.6739 50.6353 52.3533 50.3146 51.9578 50.3146ZM41.3589 50.0396C40.8115 50.0396 40.3678 50.4834 40.3678 51.0308C40.3678 51.5781 40.8115 52.0219 41.3589 52.0219H51.9578C52.5052 52.0219 52.9489 51.5781 52.9489 51.0308C52.9489 50.4834 52.5052 50.0396 51.9578 50.0396H41.3589ZM40.9178 51.0308C40.9178 50.7872 41.1153 50.5896 41.3589 50.5896H51.9578C52.2014 50.5896 52.3989 50.7872 52.3989 51.0308C52.3989 51.2743 52.2014 51.4719 51.9578 51.4719H41.3589C41.1153 51.4719 40.9178 51.2743 40.9178 51.0308ZM41.3589 47.1639H46.0996C46.4951 47.1639 46.8157 46.8432 46.8157 46.4478C46.8157 46.0523 46.4951 45.7316 46.0996 45.7316H41.3589C40.9634 45.7316 40.6428 46.0523 40.6428 46.4478C40.6428 46.8432 40.9634 47.1639 41.3589 47.1639ZM41.3589 45.4566C40.8115 45.4566 40.3678 45.9005 40.3678 46.4478C40.3678 46.9951 40.8115 47.4389 41.3589 47.4389H46.0996C46.647 47.4389 47.0907 46.9951 47.0907 46.4478C47.0907 45.9005 46.647 45.4566 46.0996 45.4566H41.3589ZM40.9178 46.4478C40.9178 46.2042 41.1153 46.0066 41.3589 46.0066H46.0996C46.3432 46.0066 46.5407 46.2042 46.5407 46.4478C46.5407 46.6914 46.3432 46.8889 46.0996 46.8889H41.3589C41.1153 46.8889 40.9178 46.6914 40.9178 46.4478ZM51.9574 45.7316H49.4032C49.0077 45.7316 48.6871 46.0523 48.6871 46.4478C48.6871 46.8432 49.0077 47.1639 49.4032 47.1639H51.9574C52.353 47.1639 52.6736 46.8432 52.6736 46.4478C52.6736 46.0523 52.353 45.7316 51.9574 45.7316ZM49.4032 45.4566C48.8558 45.4566 48.4121 45.9005 48.4121 46.4478C48.4121 46.9951 48.8558 47.4389 49.4032 47.4389H51.9574C52.5049 47.4389 52.9486 46.9951 52.9486 46.4478C52.9486 45.9005 52.5049 45.4566 51.9574 45.4566H49.4032ZM48.9621 46.4478C48.9621 46.2042 49.1596 46.0066 49.4032 46.0066H51.9574C52.2011 46.0066 52.3986 46.2042 52.3986 46.4478C52.3986 46.6914 52.2011 46.8889 51.9574 46.8889H49.4032C49.1596 46.8889 48.9621 46.6914 48.9621 46.4478ZM31.8801 46.7597L37.0873 50.7191C37.2596 50.8915 37.2595 51.1708 37.0873 51.343C37.0011 51.4292 36.8886 51.4723 36.7754 51.4723C36.6621 51.4723 36.5497 51.4292 36.4634 51.343L34.4837 49.3633L32.504 51.343C32.4179 51.4291 32.3054 51.4722 32.1921 51.4722C32.0789 51.4722 31.9664 51.4292 31.8801 51.3431C31.7078 51.1707 31.7078 50.8914 31.8801 50.7191L33.8598 48.7394L31.8801 46.7597Z" stroke="white" stroke-width="0.3"/>
</svg>
