<svg width="124" height="124" viewBox="0 0 124 124" fill="none" xmlns="http://www.w3.org/2000/svg">
<g filter="url(#filter0_d_20483_124311)">
<circle cx="61.2533" cy="58.2651" r="58.2651" fill="#FF8A00"/>
<circle cx="61.2533" cy="58.2651" r="57.7651" stroke="#E68600"/>
</g>
<path d="M79.6838 30.8757H43.0451C41.2296 30.8757 39.7526 32.3528 39.7526 34.1682V82.3615C39.7526 84.177 41.2296 85.6541 43.0451 85.6541H79.6838C81.4993 85.6541 82.9763 84.177 82.9763 82.3617V34.1682C82.9763 32.3528 81.4993 30.8757 79.6838 30.8757ZM80.8365 82.3617C80.8365 82.9973 80.3194 83.5144 79.6838 83.5144H43.0451C42.4095 83.5144 41.8924 82.9973 41.8924 82.3617V34.1682C41.8924 33.5325 42.4095 33.0155 43.0451 33.0155H79.6838C80.3194 33.0155 80.8365 33.5325 80.8365 34.1682V82.3617Z" fill="white"/>
<path fill-rule="evenodd" clip-rule="evenodd" d="M39.3418 34.1682C39.3418 32.1259 41.0027 30.4648 43.0451 30.4648H79.6838C81.7262 30.4648 83.3871 32.1259 83.3871 34.1682V82.3617C83.3871 84.4039 81.7262 86.065 79.6838 86.065H43.0451C41.0027 86.065 39.3418 84.4039 39.3418 82.3615V34.1682ZM43.0451 31.2865C41.4565 31.2865 40.1635 32.5797 40.1635 34.1682V82.3615C40.1635 83.9502 41.4565 85.2433 43.0451 85.2433H79.6838C81.2724 85.2433 82.5654 83.9502 82.5654 82.3617V34.1682C82.5654 32.5797 81.2724 31.2865 79.6838 31.2865H43.0451ZM43.0451 33.4263C42.6364 33.4263 42.3033 33.7595 42.3033 34.1682V82.3617C42.3033 82.7704 42.6364 83.1035 43.0451 83.1035H79.6838C80.0925 83.1035 80.4256 82.7704 80.4256 82.3617V34.1682C80.4256 33.7595 80.0925 33.4263 79.6838 33.4263H43.0451ZM41.4816 34.1682C41.4816 33.3056 42.1826 32.6046 43.0451 32.6046H79.6838C80.5463 32.6046 81.2473 33.3056 81.2473 34.1682V82.3617C81.2473 83.2242 80.5463 83.9252 79.6838 83.9252H43.0451C42.1826 83.9252 41.4816 83.2242 41.4816 82.3617V34.1682Z" fill="white"/>
<path d="M76.1291 46.068H60.2947C59.7038 46.068 59.2248 46.5471 59.2248 47.1379C59.2248 47.7287 59.7038 48.2078 60.2947 48.2078H76.1291C76.72 48.2078 77.199 47.7287 77.199 47.1379C77.199 46.5471 76.72 46.068 76.1291 46.068Z" fill="white"/>
<path fill-rule="evenodd" clip-rule="evenodd" d="M58.814 47.1379C58.814 46.3202 59.4769 45.6571 60.2947 45.6571H76.1291C76.947 45.6571 77.6099 46.3202 77.6099 47.1379C77.6099 47.9556 76.947 48.6186 76.1291 48.6186H60.2947C59.4769 48.6186 58.814 47.9556 58.814 47.1379ZM60.2947 46.4788C59.9308 46.4788 59.6357 46.774 59.6357 47.1379C59.6357 47.5018 59.9308 47.7969 60.2947 47.7969H76.1291C76.4931 47.7969 76.7882 47.5018 76.7882 47.1379C76.7882 46.774 76.4931 46.4788 76.1291 46.4788H60.2947Z" fill="white"/>
<path d="M60.2947 41.3609H67.3771C67.968 41.3609 68.447 40.8818 68.447 40.291C68.447 39.7002 67.968 39.2211 67.3771 39.2211H60.2947C59.7038 39.2211 59.2248 39.7002 59.2248 40.291C59.2248 40.8818 59.7038 41.3609 60.2947 41.3609Z" fill="white"/>
<path fill-rule="evenodd" clip-rule="evenodd" d="M58.814 40.291C58.814 39.4733 59.4769 38.8103 60.2947 38.8103H67.3771C68.1949 38.8103 68.8578 39.4733 68.8578 40.291C68.8578 41.1087 68.1949 41.7717 67.3771 41.7717H60.2947C59.4769 41.7717 58.814 41.1087 58.814 40.291ZM60.2947 39.632C59.9308 39.632 59.6357 39.9271 59.6357 40.291C59.6357 40.6549 59.9308 40.9501 60.2947 40.9501H67.3771C67.7411 40.9501 68.0361 40.6549 68.0361 40.291C68.0361 39.9271 67.7411 39.632 67.3771 39.632H60.2947Z" fill="white"/>
<path d="M76.1286 39.2211H72.3127C71.7218 39.2211 71.2428 39.7002 71.2428 40.291C71.2428 40.8818 71.7218 41.3609 72.3127 41.3609H76.1286C76.7196 41.3609 77.1985 40.8818 77.1985 40.291C77.1985 39.7002 76.7196 39.2211 76.1286 39.2211Z" fill="white"/>
<path fill-rule="evenodd" clip-rule="evenodd" d="M70.8319 40.291C70.8319 39.4733 71.4948 38.8103 72.3127 38.8103H76.1287C76.9465 38.8103 77.6094 39.4733 77.6094 40.291C77.6094 41.1087 76.9465 41.7717 76.1287 41.7717H72.3127C71.4948 41.7717 70.8319 41.1087 70.8319 40.291ZM72.3127 39.632C71.9487 39.632 71.6536 39.9271 71.6536 40.291C71.6536 40.6549 71.9487 40.9501 72.3127 40.9501H76.1287C76.4926 40.9501 76.7877 40.6549 76.7877 40.291C76.7877 39.9271 76.4926 39.632 76.1287 39.632H72.3127Z" fill="white"/>
<path d="M76.1291 60.6185H60.2947C59.7038 60.6185 59.2248 61.0976 59.2248 61.6884C59.2248 62.2792 59.7038 62.7583 60.2947 62.7583H76.1291C76.72 62.7583 77.199 62.2792 77.199 61.6884C77.199 61.0976 76.72 60.6185 76.1291 60.6185Z" fill="white"/>
<path fill-rule="evenodd" clip-rule="evenodd" d="M58.814 61.6884C58.814 60.8708 59.4769 60.2077 60.2947 60.2077H76.1291C76.947 60.2077 77.6099 60.8708 77.6099 61.6884C77.6099 62.5061 76.947 63.1692 76.1291 63.1692H60.2947C59.4769 63.1692 58.814 62.5061 58.814 61.6884ZM60.2947 61.0294C59.9308 61.0294 59.6357 61.3245 59.6357 61.6884C59.6357 62.0524 59.9308 62.3475 60.2947 62.3475H76.1291C76.4931 62.3475 76.7882 62.0524 76.7882 61.6884C76.7882 61.3245 76.4931 61.0294 76.1291 61.0294H60.2947Z" fill="white"/>
<path d="M60.2947 55.9115H67.3771C67.968 55.9115 68.447 55.4324 68.447 54.8416C68.447 54.2508 67.968 53.7717 67.3771 53.7717H60.2947C59.7038 53.7717 59.2248 54.2508 59.2248 54.8416C59.2248 55.4324 59.7038 55.9115 60.2947 55.9115Z" fill="white"/>
<path fill-rule="evenodd" clip-rule="evenodd" d="M58.814 54.8416C58.814 54.0239 59.4769 53.3608 60.2947 53.3608H67.3771C68.1949 53.3608 68.8578 54.0239 68.8578 54.8416C68.8578 55.6592 68.1949 56.3223 67.3771 56.3223H60.2947C59.4769 56.3223 58.814 55.6592 58.814 54.8416ZM60.2947 54.1825C59.9308 54.1825 59.6357 54.4777 59.6357 54.8416C59.6357 55.2055 59.9308 55.5006 60.2947 55.5006H67.3771C67.7411 55.5006 68.0361 55.2055 68.0361 54.8416C68.0361 54.4777 67.7411 54.1825 67.3771 54.1825H60.2947Z" fill="white"/>
<path d="M76.1286 53.7717H72.3127C71.7218 53.7717 71.2428 54.2508 71.2428 54.8416C71.2428 55.4324 71.7218 55.9115 72.3127 55.9115H76.1286C76.7196 55.9115 77.1985 55.4324 77.1985 54.8416C77.1985 54.2508 76.7196 53.7717 76.1286 53.7717Z" fill="white"/>
<path fill-rule="evenodd" clip-rule="evenodd" d="M70.8319 54.8416C70.8319 54.0239 71.4948 53.3608 72.3127 53.3608H76.1287C76.9465 53.3608 77.6094 54.0239 77.6094 54.8416C77.6094 55.6592 76.9465 56.3223 76.1287 56.3223H72.3127C71.4948 56.3223 70.8319 55.6592 70.8319 54.8416ZM72.3127 54.1825C71.9487 54.1825 71.6536 54.4777 71.6536 54.8416C71.6536 55.2055 71.9487 55.5006 72.3127 55.5006H76.1287C76.4926 55.5006 76.7877 55.2055 76.7877 54.8416C76.7877 54.4777 76.4926 54.1825 76.1287 54.1825H72.3127Z" fill="white"/>
<path d="M76.1291 75.1691H60.2947C59.7038 75.1691 59.2248 75.6482 59.2248 76.239C59.2248 76.8298 59.7038 77.3089 60.2947 77.3089H76.1291C76.72 77.3089 77.199 76.8298 77.199 76.239C77.199 75.6482 76.72 75.1691 76.1291 75.1691Z" fill="white"/>
<path fill-rule="evenodd" clip-rule="evenodd" d="M58.814 76.239C58.814 75.4213 59.4769 74.7583 60.2947 74.7583H76.1291C76.947 74.7583 77.6099 75.4213 77.6099 76.239C77.6099 77.0567 76.947 77.7197 76.1291 77.7197H60.2947C59.4769 77.7197 58.814 77.0567 58.814 76.239ZM60.2947 75.58C59.9308 75.58 59.6357 75.8751 59.6357 76.239C59.6357 76.6029 59.9308 76.898 60.2947 76.898H76.1291C76.4931 76.898 76.7882 76.6029 76.7882 76.239C76.7882 75.8751 76.4931 75.58 76.1291 75.58H60.2947Z" fill="white"/>
<path d="M60.2947 70.462H67.3771C67.968 70.462 68.447 69.9829 68.447 69.3921C68.447 68.8013 67.968 68.3222 67.3771 68.3222H60.2947C59.7038 68.3222 59.2248 68.8013 59.2248 69.3921C59.2248 69.9829 59.7038 70.462 60.2947 70.462Z" fill="white"/>
<path fill-rule="evenodd" clip-rule="evenodd" d="M58.814 69.3921C58.814 68.5745 59.4769 67.9114 60.2947 67.9114H67.3771C68.1949 67.9114 68.8578 68.5745 68.8578 69.3921C68.8578 70.2098 68.1949 70.8729 67.3771 70.8729H60.2947C59.4769 70.8729 58.814 70.2098 58.814 69.3921ZM60.2947 68.7331C59.9308 68.7331 59.6357 69.0282 59.6357 69.3921C59.6357 69.7561 59.9308 70.0512 60.2947 70.0512H67.3771C67.7411 70.0512 68.0361 69.7561 68.0361 69.3921C68.0361 69.0282 67.7411 68.7331 67.3771 68.7331H60.2947Z" fill="white"/>
<path d="M76.1286 68.3222H72.3127C71.7218 68.3222 71.2428 68.8013 71.2428 69.3921C71.2428 69.9829 71.7218 70.462 72.3127 70.462H76.1286C76.7196 70.462 77.1985 69.9829 77.1985 69.3921C77.1985 68.8013 76.7196 68.3222 76.1286 68.3222Z" fill="white"/>
<path fill-rule="evenodd" clip-rule="evenodd" d="M70.8319 69.3921C70.8319 68.5745 71.4948 67.9114 72.3127 67.9114H76.1287C76.9465 67.9114 77.6094 68.5745 77.6094 69.3921C77.6094 70.2098 76.9465 70.8729 76.1287 70.8729H72.3127C71.4948 70.8729 70.8319 70.2098 70.8319 69.3921ZM72.3127 68.7331C71.9487 68.7331 71.6536 69.0282 71.6536 69.3921C71.6536 69.7561 71.9487 70.0512 72.3127 70.0512H76.1287C76.4926 70.0512 76.7877 69.7561 76.7877 69.3921C76.7877 69.0282 76.4926 68.7331 76.1287 68.7331H72.3127Z" fill="white"/>
<path d="M52.6933 41.7721L51.7394 42.726L51.2861 43.1793L50.4098 44.0556L48.8404 45.625L47.8528 44.6374L47.359 44.1437C47.3373 44.122 47.3149 44.1014 47.2918 44.0819C46.8715 43.7271 46.242 43.7477 45.8459 44.1437C45.4281 44.5615 45.4281 45.2389 45.8459 45.6568L48.0837 47.8947C48.2927 48.1036 48.5665 48.2081 48.8403 48.2081C49.1141 48.2081 49.3879 48.1036 49.5968 47.8947L54.2062 43.2853C54.624 42.8675 54.624 42.19 54.2062 41.7721C54.1838 41.7497 54.1606 41.7285 54.1367 41.7084C53.9985 41.5924 53.8379 41.5168 53.6704 41.4817C53.5251 41.4512 53.3746 41.4512 53.2293 41.4817C53.0328 41.5228 52.8458 41.6197 52.6933 41.7721Z" fill="white"/>
<path d="M54.2035 54.0851C53.7857 53.6674 53.1083 53.6674 52.6904 54.0851L52.3998 54.3756L50.0233 56.7521L47.6468 54.3755L47.3562 54.0849C46.9384 53.6673 46.261 53.6673 45.8431 54.0849C45.4253 54.5027 45.4253 55.1802 45.8431 55.5981L48.5102 58.2652L45.8431 60.9324C45.4253 61.3501 45.4253 62.0276 45.8431 62.4455C46.052 62.6542 46.3259 62.7588 46.5997 62.7588C46.8735 62.7588 47.1474 62.6542 47.3562 62.4454L50.0233 59.7784L52.6905 62.4455C52.8994 62.6543 53.1732 62.7589 53.447 62.7589C53.7208 62.7589 53.9947 62.6543 54.2035 62.4455C54.6213 62.0277 54.6213 61.3503 54.2035 60.9324L51.5365 58.2652L54.2036 55.5981C54.6213 55.1803 54.6213 54.5028 54.2035 54.0851Z" fill="white"/>
<path d="M54.2035 68.6356C53.7857 68.2179 53.1083 68.2179 52.6904 68.6356L52.3998 68.9262L50.0233 71.3026L47.6468 68.9261L47.3562 68.6355C46.9384 68.2178 46.261 68.2178 45.8431 68.6355C45.4253 69.0533 45.4253 69.7308 45.8431 70.1487L48.5102 72.8158L45.8431 75.4829C45.4253 75.9007 45.4253 76.5782 45.8431 76.9961C46.052 77.2048 46.3259 77.3093 46.5997 77.3093C46.8735 77.3093 47.1474 77.2048 47.3562 76.996L50.0233 74.3289L52.6905 76.9961C52.8994 77.2049 53.1732 77.3094 53.447 77.3094C53.7208 77.3094 53.9947 77.2049 54.2035 76.9961C54.6213 76.5783 54.6213 75.9008 54.2035 75.4829L51.5365 72.8158L54.2036 70.1487C54.6213 69.7309 54.6213 69.0534 54.2035 68.6356Z" fill="white"/>
<path fill-rule="evenodd" clip-rule="evenodd" d="M53.913 68.9261L52.9808 68.9262C53.2383 68.6689 53.6557 68.6689 53.913 68.9261ZM49.0912 72.8158L46.1336 69.8582L53.913 75.7734C54.1704 76.0309 54.1703 76.4482 53.913 76.7056C53.7843 76.8343 53.6162 76.8986 53.447 76.8986C53.2778 76.8986 53.1098 76.8343 52.9809 76.7055L50.0233 73.7479L47.0657 76.7055C46.937 76.8342 46.7689 76.8985 46.5997 76.8985C46.4305 76.8985 46.2625 76.8342 46.1336 76.7056C45.8762 76.4481 45.8762 76.0308 46.1336 75.7734L49.0912 72.8158Z" fill="white"/>
<path fill-rule="evenodd" clip-rule="evenodd" d="M46.1335 54.3755C46.391 54.1183 46.8084 54.1182 47.0657 54.3755L46.1335 54.3755ZM53.913 54.3756L52.9808 54.3756C53.2383 54.1183 53.6557 54.1183 53.913 54.3756Z" fill="white"/>
<path d="M51.7394 42.726L52.6933 41.7721C52.8458 41.6197 53.0328 41.5228 53.2293 41.4817L52.4028 41.4816L50.9035 42.9808L51.7394 42.726Z" fill="white"/>
<path d="M51.2861 43.1793L50.4824 43.5207L50.2762 43.6082L48.8404 45.044L49.7318 44.4826L50.4098 44.0556L51.2861 43.1793Z" fill="white"/>
<path d="M45.8459 45.6568C45.4281 45.2389 45.4281 44.5615 45.8459 44.1437C46.242 43.7477 46.8715 43.7271 47.2918 44.0819L47.7413 43.9449L47.6495 43.8532C47.0713 43.2751 46.1337 43.2751 45.5554 43.8531C44.9772 44.4313 44.9771 45.369 45.5553 45.9473L47.7932 48.1852C48.0822 48.4741 48.4619 48.6189 48.8403 48.6189C49.2186 48.6189 49.5983 48.4742 49.8873 48.1852L54.4967 43.5758C55.075 42.9976 55.0749 42.06 54.4968 41.4817L54.1367 41.7084C54.1606 41.7285 54.1838 41.7497 54.2062 41.7721C54.624 42.19 54.624 42.8675 54.2062 43.2853L49.5968 47.8947C49.3879 48.1036 49.1141 48.2081 48.8403 48.2081C48.5665 48.2081 48.2927 48.1036 48.0837 47.8947L45.8459 45.6568Z" fill="white"/>
<path d="M51.7394 42.726L50.9035 42.9808L50.4824 43.5207L51.2861 43.1793L51.7394 42.726Z" fill="white"/>
<path d="M54.4968 41.4817C53.9187 40.9033 52.9809 40.9035 52.4028 41.4816L53.2293 41.4817C53.3746 41.4512 53.5251 41.4512 53.6704 41.4817L54.4968 41.4817Z" fill="white"/>
<path d="M54.1367 41.7084L54.4968 41.4817L53.6704 41.4817C53.8379 41.5168 53.9985 41.5924 54.1367 41.7084Z" fill="white"/>
<path d="M48.8404 45.625L50.4098 44.0556L49.7318 44.4826L48.8404 45.625Z" fill="white"/>
<path d="M47.8528 44.6374L48.8404 45.625L48.12 44.5239L47.8528 44.6374Z" fill="white"/>
<path d="M52.6904 68.6356C53.1083 68.2179 53.7857 68.2179 54.2035 68.6356C54.6213 69.0534 54.6213 69.7309 54.2036 70.1487L51.5365 72.8158L54.2035 75.4829C54.6213 75.9008 54.6213 76.5783 54.2035 76.9961C53.9947 77.2049 53.7208 77.3094 53.447 77.3094C53.1732 77.3094 52.8994 77.2049 52.6905 76.9961L50.0233 74.3289L47.3562 76.996C47.1474 77.2048 46.8735 77.3093 46.5997 77.3093C46.3259 77.3093 46.052 77.2048 45.8431 76.9961C45.4253 76.5782 45.4253 75.9007 45.8431 75.4829L48.5102 72.8158L45.8431 70.1487C45.4253 69.7308 45.4253 69.0533 45.8431 68.6355C46.261 68.2178 46.9384 68.2178 47.3562 68.6355L47.6468 68.9261L48.2278 68.9261L47.6467 68.345C47.0684 67.7669 46.1309 67.7669 45.5526 68.3449C44.9744 68.9232 44.9744 69.8608 45.5525 70.4392L47.9292 72.8158L45.5525 75.1924C44.9743 75.7707 44.9745 76.7084 45.5527 77.2867C45.8417 77.5754 46.2214 77.7202 46.5997 77.7202C46.978 77.7202 47.3577 77.5754 47.6467 77.2865L50.0233 74.9099L52.4 77.2866C52.689 77.5755 53.0686 77.7203 53.447 77.7203C53.8253 77.7203 54.205 77.5755 54.494 77.2866C55.0723 76.7083 55.0722 75.7707 54.494 75.1924L52.1175 72.8158L54.4942 70.4391C55.0722 69.8609 55.0722 68.9233 54.494 68.3451C53.9157 67.767 52.9782 67.7671 52.3998 68.3451L50.0233 70.7216L48.2278 68.9261L47.6468 68.9261L50.0233 71.3026L52.3998 68.9262L52.6904 68.6356Z" fill="white"/>
<path d="M52.6904 54.0851C53.1083 53.6674 53.7857 53.6674 54.2035 54.0851C54.6213 54.5028 54.6213 55.1803 54.2036 55.5981L51.5365 58.2652L54.2035 60.9324C54.6213 61.3503 54.6213 62.0277 54.2035 62.4455C53.9947 62.6543 53.7208 62.7589 53.447 62.7589C53.1732 62.7589 52.8994 62.6543 52.6905 62.4455L50.0233 59.7784L47.3562 62.4454C47.1474 62.6542 46.8735 62.7588 46.5997 62.7588C46.3259 62.7588 46.052 62.6542 45.8431 62.4455C45.4253 62.0276 45.4253 61.3501 45.8431 60.9324L48.5102 58.2652L45.8431 55.5981C45.4253 55.1802 45.4253 54.5027 45.8431 54.0849C46.261 53.6673 46.9384 53.6673 47.3562 54.0849L47.6468 54.3755L50.0233 56.7521L52.3998 54.3756L51.8188 54.3756L50.0233 56.1711L47.6467 53.7944C47.0684 53.2163 46.1309 53.2163 45.5526 53.7944C44.9744 54.3726 44.9744 55.3103 45.5525 55.8886L47.9292 58.2652L45.5525 60.6418C44.9743 61.2201 44.9745 62.1579 45.5527 62.7362C45.8417 63.0249 46.2214 63.1696 46.5997 63.1696C46.978 63.1696 47.3577 63.0249 47.6467 62.7359L50.0233 60.3594L52.4 62.7361C52.689 63.0249 53.0686 63.1697 53.447 63.1697C53.8253 63.1697 54.205 63.025 54.494 62.736C55.0723 62.1578 55.0722 61.2202 54.494 60.6419L52.1175 58.2652L54.4942 55.8886C55.0722 55.3103 55.0722 54.3727 54.494 53.7945C53.9157 53.2164 52.9782 53.2165 52.3998 53.7945L51.8188 54.3756L52.3998 54.3756L52.6904 54.0851Z" fill="white"/>
<path d="M50.9035 42.9808L50.2762 43.6082L50.4824 43.5207L50.9035 42.9808Z" fill="white"/>
<path d="M47.359 44.1437L47.8528 44.6374L48.12 44.5239L47.7413 43.9449L47.2918 44.0819C47.3149 44.1014 47.3373 44.122 47.359 44.1437Z" fill="white"/>
<path d="M49.7318 44.4826L48.8404 45.044L47.7413 43.9449L48.12 44.5239L48.8404 45.625L49.7318 44.4826Z" fill="white"/>
<defs>
<filter id="filter0_d_20483_124311" x="2.98828" y="0" width="116.53" height="121.53" filterUnits="userSpaceOnUse" color-interpolation-filters="sRGB">
<feFlood flood-opacity="0" result="BackgroundImageFix"/>
<feColorMatrix in="SourceAlpha" type="matrix" values="0 0 0 0 0 0 0 0 0 0 0 0 0 0 0 0 0 0 127 0" result="hardAlpha"/>
<feOffset dy="5"/>
<feComposite in2="hardAlpha" operator="out"/>
<feColorMatrix type="matrix" values="0 0 0 0 0.901961 0 0 0 0 0.52549 0 0 0 0 0 0 0 0 1 0"/>
<feBlend mode="normal" in2="BackgroundImageFix" result="effect1_dropShadow_20483_124311"/>
<feBlend mode="normal" in="SourceGraphic" in2="effect1_dropShadow_20483_124311" result="shape"/>
</filter>
</defs>
</svg>
