<svg width="70" height="40" viewBox="0 0 70 40" fill="none" xmlns="http://www.w3.org/2000/svg">
<g opacity="0.6">
<path d="M30.7234 0.804688L28.005 4.91295C27.6711 5.41712 27.6234 6.05754 27.8823 6.59577C31.5818 14.1787 41.6651 20.2559 49.03 20.6034C49.6228 20.6306 50.1814 20.3309 50.5085 19.8403L53.2405 15.7252L30.7234 0.804688Z" fill="#CA6430"/>
<path d="M38.7963 14.6915C39.1778 14.1056 39.5662 13.5265 39.9477 12.9406C40.1385 12.6476 40.3292 12.3546 40.5132 12.0549C40.6494 11.83 40.8266 11.6052 40.8129 11.3327C40.8129 11.3054 40.7857 11.2918 40.7584 11.2986C40.5064 11.3872 40.3633 11.6393 40.2066 11.8505C40.0022 12.1366 39.8114 12.4228 39.6138 12.7157C39.2187 13.2948 38.8372 13.8739 38.4488 14.4531C38.0264 15.0867 37.5836 15.7203 37.168 16.3607C37.2974 16.4425 37.4269 16.5242 37.5495 16.5992C37.9719 15.9724 38.3739 15.3251 38.7963 14.6915Z" fill="#FFA030"/>
<path d="M35.1106 11.8321C35.4921 11.2462 35.8805 10.6671 36.262 10.0812C36.4528 9.78822 36.6435 9.49526 36.8275 9.19548C36.9637 8.97065 37.1409 8.74582 37.1273 8.4733C37.1273 8.44605 37.1 8.43242 37.0728 8.43924C36.8207 8.52781 36.6776 8.77989 36.5209 8.99109C36.3165 9.27724 36.1257 9.56339 35.9282 9.85635C35.533 10.4355 35.1515 11.0146 34.7631 11.5937C34.3271 12.2477 33.8706 12.895 33.4414 13.5626C33.5572 13.6648 33.6731 13.7602 33.7889 13.8624C34.2317 13.1947 34.6678 12.5066 35.1106 11.8321Z" fill="#FFA030"/>
<path d="M29.341 6.37119C29.7225 5.78527 30.1109 5.20616 30.4924 4.62024C30.6832 4.32728 30.8739 4.03432 31.0579 3.73455C31.1941 3.50972 31.3713 3.28489 31.3577 3.01236C31.3577 2.98511 31.3304 2.97149 31.3032 2.9783C31.0511 3.06687 30.908 3.31895 30.7513 3.53015C30.5469 3.8163 30.3561 4.10245 30.1586 4.39541C29.7634 4.97452 29.3819 5.55363 28.9935 6.13274C28.7414 6.50745 28.4894 6.88217 28.2305 7.25689C28.3122 7.40678 28.394 7.54985 28.4826 7.69292C28.7687 7.25689 29.0549 6.80723 29.341 6.37119Z" fill="#FFA030"/>
<path d="M31.9568 8.98057C32.3383 8.39465 32.7267 7.81554 33.1082 7.22962C33.299 6.93666 33.4897 6.6437 33.6737 6.34392C33.81 6.11909 33.9871 5.89426 33.9735 5.62174C33.9735 5.59449 33.9462 5.58086 33.919 5.58767C33.6669 5.67624 33.5238 5.92833 33.3671 6.13953C33.1627 6.42568 32.972 6.71183 32.7744 7.00479C32.3792 7.58389 31.9977 8.163 31.6093 8.74211C31.221 9.32122 30.819 9.90033 30.4375 10.4863C30.5397 10.6089 30.6419 10.7315 30.7441 10.8473C31.1461 10.2342 31.548 9.60055 31.9568 8.98057Z" fill="#FFA030"/>
<path d="M49.7734 18.6759C50.155 18.09 50.5433 17.5109 50.9248 16.9249C51.1156 16.632 51.3064 16.339 51.4903 16.0392C51.6266 15.8144 51.8037 15.5896 51.7901 15.3171C51.7901 15.2898 51.7628 15.2762 51.7356 15.283C51.4835 15.3716 51.3404 15.6236 51.1837 15.8348C50.9793 16.121 50.7886 16.4071 50.591 16.7001C50.1958 17.2792 49.8143 17.8583 49.426 18.4374C48.9627 19.1255 48.4858 19.8137 48.0293 20.5154C48.1996 20.5358 48.3699 20.5495 48.5403 20.5631C48.9559 19.9431 49.3578 19.3027 49.7734 18.6759Z" fill="#FFA030"/>
<path d="M46.4558 17.8321C46.8373 17.2462 47.2256 16.6671 47.6072 16.0812C47.7979 15.7882 47.9887 15.4953 48.1726 15.1955C48.3089 14.9707 48.486 14.7458 48.4724 14.4733C48.4724 14.446 48.4452 14.4324 48.4179 14.4392C48.1658 14.5278 48.0228 14.7799 47.8661 14.9911C47.6617 15.2772 47.4709 15.5634 47.2733 15.8564C46.8782 16.4355 46.4966 17.0146 46.1083 17.5937C45.6178 18.3295 45.1 19.0653 44.623 19.8147C44.7729 19.8624 44.9228 19.8965 45.0795 19.9374C45.5496 19.2492 45.9993 18.5339 46.4558 17.8321Z" fill="#FFA030"/>
<path d="M42.5731 16.4259C42.9546 15.84 43.343 15.2608 43.7245 14.6749C43.9152 14.382 44.106 14.089 44.29 13.7892C44.4262 13.5644 44.6034 13.3396 44.5897 13.0671C44.5897 13.0398 44.5625 13.0262 44.5352 13.033C44.2832 13.1216 44.1401 13.3736 43.9834 13.5848C43.779 13.871 43.5882 14.1571 43.3906 14.4501C42.9955 15.0292 42.614 15.6083 42.2256 16.1874C41.7487 16.9028 41.2445 17.6114 40.7812 18.3472C40.9175 18.4085 41.0606 18.4698 41.1968 18.5379C41.6669 17.8498 42.1098 17.1276 42.5731 16.4259Z" fill="#FFA030"/>
<path d="M53.2348 15.7238C51.9335 17.686 45.8426 15.9282 39.6291 11.8131C33.4156 7.69123 29.4232 2.7654 30.7245 0.803243C32.0258 -1.15891 38.1166 0.598851 44.3301 4.71393C50.5504 8.83582 54.536 13.7616 53.2348 15.7238Z" fill="#FFD230"/>
<path d="M32.8614 5.04787C33.243 5.0138 33.6245 4.97974 34.006 4.95248C34.1968 4.93886 34.3807 4.93205 34.5715 4.91161C34.6601 4.90479 34.7486 4.89798 34.8304 4.89117C34.9803 4.87073 35.1234 4.81622 35.2733 4.85029C35.3005 4.8571 35.3005 4.81622 35.2733 4.82304C35.062 4.83666 34.8304 4.72765 34.6192 4.7004C34.4353 4.67315 34.2445 4.65271 34.0537 4.63909C33.6586 4.61183 33.2566 4.60502 32.8614 4.61183C32.4867 4.61865 32.1052 4.6459 31.7305 4.67996C31.8395 4.82985 31.9485 4.98655 32.0643 5.14325C32.3368 5.10237 32.5957 5.06831 32.8614 5.04787Z" fill="#FFEF55"/>
<path d="M34.9343 0.546959C34.982 0.873985 35.1114 1.18738 35.2545 1.48035C35.4044 1.79375 35.5679 2.10033 35.745 2.40011C35.9222 2.70669 36.1197 3.01328 36.3923 3.23811C36.4945 3.31987 36.6035 3.18361 36.5694 3.08141C36.4536 2.78845 36.2628 2.52274 36.0925 2.25703C35.9153 1.9777 35.7518 1.69155 35.5951 1.4054C35.4521 1.13969 35.3022 0.860359 35.2204 0.567398C35.2 0.492454 35.1932 0.417511 35.1795 0.342567C35.091 0.322128 35.0024 0.301689 34.9206 0.28125C34.9138 0.376633 34.9206 0.465202 34.9343 0.546959Z" fill="#FFEF55"/>
<path d="M37.9245 10.1803C38.2311 9.8942 38.5309 9.60805 38.8238 9.30828C38.9601 9.1652 39.1032 9.02894 39.2394 8.88587C39.2871 8.83136 39.3416 8.78367 39.3893 8.72917C39.437 8.68148 39.4711 8.60653 39.5187 8.56566C39.5528 8.53159 39.5256 8.47027 39.4779 8.47709C39.328 8.49753 39.2462 8.49753 39.1031 8.59291C38.9396 8.70192 38.7829 8.83136 38.6331 8.954C38.306 9.2129 37.979 9.4786 37.6656 9.74431C37.5225 9.86695 37.3863 9.98958 37.25 10.1122C37.3863 10.2144 37.5225 10.3234 37.6656 10.4256C37.7474 10.3439 37.8359 10.2621 37.9245 10.1803Z" fill="#FFEF55"/>
<path d="M35.7168 7.7886C36.0166 7.61146 36.3232 7.44113 36.6161 7.25037C36.7524 7.16861 36.8818 7.08004 37.0113 6.98466C37.1544 6.87565 37.2429 6.76664 37.3451 6.62357C37.3724 6.5895 37.3315 6.54863 37.2974 6.55544C37.1135 6.56906 36.9704 6.5895 36.7933 6.66445C36.6434 6.72576 36.4935 6.79389 36.3504 6.86884C36.0506 7.01872 35.7509 7.18224 35.4579 7.33894C35.1513 7.50245 34.8516 7.65915 34.5586 7.8431C34.688 7.96574 34.8243 8.08837 34.9606 8.21101C35.2195 8.07475 35.4647 7.93167 35.7168 7.7886Z" fill="#FFEF55"/>
<path d="M38.6054 1.70557C38.5781 1.9781 38.5713 2.25062 38.5849 2.52314C38.6054 3.08862 38.7076 3.64729 38.9801 4.14464C39.0618 4.30134 39.3139 4.2264 39.2799 4.04245C39.1709 3.52466 39.0278 3.01368 38.9528 2.49589C38.9188 2.23699 38.8983 1.9781 38.8983 1.7192C38.8983 1.70557 38.8983 1.69876 38.8983 1.68513C38.803 1.64426 38.7144 1.60338 38.619 1.5625C38.619 1.61019 38.6122 1.65788 38.6054 1.70557Z" fill="#FFEF55"/>
<path d="M34.4152 3.44097C34.5651 3.5091 34.6809 3.26383 34.5447 3.17526C33.2775 2.37132 32.0034 1.58782 30.8043 0.695312C30.7771 0.729378 30.7498 0.75663 30.7294 0.790695C30.7157 0.811134 30.7089 0.831574 30.6953 0.852013C31.8058 1.8876 33.039 2.80736 34.4152 3.44097Z" fill="#FFEF55"/>
<path d="M41.5899 3.30977C41.4809 3.73899 41.3787 4.19546 41.3582 4.63831C41.3514 4.81545 41.3105 5.16292 41.4536 5.29236C41.5149 5.34687 41.5831 5.36049 41.658 5.31962C41.767 5.2583 41.7806 5.12885 41.7875 5.01303C41.8283 4.56337 41.8079 4.11371 41.8556 3.66405C41.8692 3.52097 41.8965 3.37109 41.9169 3.22801C41.8283 3.18032 41.7398 3.12582 41.6512 3.07812C41.6308 3.15307 41.6103 3.22801 41.5899 3.30977Z" fill="#FFEF55"/>
<path d="M45.1797 14.0524C45.2069 13.6777 45.2478 13.3098 45.241 12.9351C45.241 12.7443 45.2274 12.5467 45.2069 12.3559C45.1865 12.1992 45.1865 11.9949 45.057 11.879C45.0298 11.8518 44.9889 11.8518 44.9616 11.8858C44.8595 12.0221 44.8799 12.2197 44.8595 12.3832C44.839 12.5808 44.8118 12.7715 44.7913 12.9623C44.7436 13.3438 44.6959 13.7254 44.6483 14.1069C44.6278 14.284 44.6074 14.4544 44.5938 14.6315C44.7777 14.7133 44.9548 14.8018 45.132 14.8768C45.1456 14.6042 45.1524 14.3249 45.1797 14.0524Z" fill="#FFEF55"/>
<path d="M41.9435 12.2126C42.0934 11.8924 42.2297 11.5653 42.3455 11.2383C42.4272 11.0203 42.5635 10.666 42.3864 10.4616C42.3727 10.4412 42.3455 10.4412 42.3251 10.4548C42.2229 10.5366 42.1956 10.6456 42.1479 10.7614C42.0934 10.9045 42.0321 11.0475 41.964 11.1838C41.8209 11.4904 41.6574 11.7834 41.4939 12.0831C41.3712 12.3148 41.2418 12.5396 41.1191 12.7644C41.2554 12.8462 41.3917 12.9279 41.5279 13.0097C41.6778 12.744 41.8141 12.4783 41.9435 12.2126Z" fill="#FFEF55"/>
<path d="M48.7635 15.4023C48.5182 14.6393 48.2661 13.883 48.1162 13.0995C48.1026 13.0382 48.0072 13.0586 48.0209 13.12C48.1435 13.9988 48.2457 14.8845 48.4637 15.7498C48.4978 15.8792 48.5318 16.0087 48.5659 16.1381C48.7362 16.1858 48.9066 16.2267 49.0701 16.2676C48.9611 15.9746 48.8589 15.6885 48.7635 15.4023Z" fill="#FFEF55"/>
<path d="M52.9008 16.0728C52.8667 16.0387 52.8327 16.0115 52.7986 15.9774C52.4648 15.6776 52.1377 15.3778 51.8039 15.0781C51.1567 14.4853 50.5231 13.8585 49.8349 13.3203C49.8281 13.3203 49.8281 13.3203 49.8281 13.3271C50.2846 14.0834 50.891 14.7715 51.4973 15.4187C51.7903 15.7321 52.0969 16.0387 52.4171 16.3385C52.5942 16.2635 52.7645 16.1818 52.9008 16.0728Z" fill="#FFEF55"/>
<path d="M45.2276 7.54285C45.2208 7.54285 45.2276 7.54966 45.2276 7.54285C45.3503 7.59054 45.4933 7.51559 45.6092 7.47471C45.7727 7.4134 45.9294 7.33164 46.0793 7.24988C46.4063 7.07275 46.7197 6.86835 47.0263 6.65715C46.89 6.55495 46.7538 6.44595 46.6175 6.34375C46.3722 6.52089 46.1201 6.69803 45.8749 6.88198C45.725 6.99099 45.5819 7.11362 45.4457 7.23626C45.3639 7.32483 45.2413 7.42021 45.2276 7.54285Z" fill="#FFEF55"/>
<path d="M50.3723 11.8939C50.1883 11.853 50.0385 11.8598 49.8545 11.8598C49.8272 11.8598 49.8136 11.9007 49.8341 11.9143C49.9908 11.9961 50.1134 12.0778 50.2905 12.1391C50.4745 12.2005 50.6584 12.2618 50.8424 12.3231C51.1967 12.4389 51.5509 12.5615 51.9052 12.6842C52.2595 12.8136 52.6138 12.9499 52.9749 13.0861C52.8795 12.8954 52.7705 12.6978 52.6479 12.5002C52.4503 12.4389 52.2595 12.3844 52.0687 12.3299C51.694 12.2209 51.3261 12.1187 50.9446 12.0301C50.747 11.9756 50.5631 11.9347 50.3723 11.8939Z" fill="#FFEF55"/>
<path d="M48.4147 9.65505C48.5986 9.6278 48.7826 9.59373 48.9665 9.55286C49.3344 9.48472 49.6955 9.40978 50.0634 9.33484C49.9544 9.22583 49.8454 9.11682 49.7296 9.00781C49.3344 9.11001 48.9324 9.21902 48.5441 9.34846C48.367 9.40978 47.8355 9.50516 48.0059 9.79131H48.0127C48.0263 9.6823 48.3465 9.66186 48.4147 9.65505Z" fill="#FFEF55"/>
<path d="M43.6183 6.09162C43.6932 6.00305 43.775 5.92811 43.8431 5.83272C43.9181 5.73734 43.9794 5.63515 44.0407 5.53295C44.1565 5.34218 44.2655 5.15142 44.3882 4.96065C44.4222 4.91296 44.4495 4.86527 44.4835 4.81758C44.429 4.78352 44.3813 4.74945 44.3268 4.70857C44.2655 4.66769 44.1974 4.62682 44.1361 4.58594C44.1224 4.59956 44.1156 4.61319 44.102 4.62682C43.9521 4.83121 43.8022 5.0356 43.6728 5.25362C43.6047 5.36944 43.5433 5.48526 43.4956 5.60789C43.448 5.73053 43.4275 5.85316 43.3934 5.98261C43.3662 6.11206 43.5433 6.18019 43.6183 6.09162Z" fill="#FFEF55"/>
<path d="M50.939 13.9654C49.9852 15.4029 45.2501 13.9449 40.3651 10.7019C35.4802 7.4589 32.2849 3.67085 33.2387 2.23329C34.1925 0.795742 38.9276 2.25373 43.8125 5.49674C48.7043 8.73294 51.8928 12.5278 50.939 13.9654Z" fill="#CA6430"/>
<path d="M43.4445 6.05114C38.8798 3.02615 34.4445 1.54772 33.1091 2.54243C32.7208 4.16393 35.8003 7.67265 40.365 10.6976C44.9298 13.7226 49.3651 15.2011 50.7004 14.2064C51.0956 12.5849 48.0093 9.07613 43.4445 6.05114Z" fill="#FFA030"/>
<path d="M42.4885 6.28017C42.2323 6.39193 42.0046 6.56375 41.815 6.78831L41.7967 6.80899C41.6788 6.95216 41.5768 7.1147 41.4923 7.29394L41.4615 7.36319C41.4557 7.37569 41.4456 7.38358 41.4332 7.38522L41.4275 7.38179L40.1181 7.27873L38.8267 7.17672C38.8186 7.17588 38.8104 7.17255 38.8026 7.16703C38.7949 7.1615 38.7879 7.15395 38.7823 7.14504C38.7767 7.13613 38.7726 7.12613 38.7704 7.11592C38.7682 7.10571 38.768 7.09561 38.7698 7.08649L39.0167 5.92472C39.0191 5.91426 39.024 5.90563 39.0309 5.89986C39.0378 5.89408 39.0465 5.8914 39.0558 5.89213L42.4542 6.15959C42.4655 6.1604 42.4771 6.16623 42.4872 6.17605C42.4972 6.18588 42.505 6.19909 42.5091 6.21335C42.5133 6.22761 42.5135 6.24201 42.5098 6.25404C42.506 6.26606 42.4986 6.27493 42.4888 6.27909" fill="#B08300"/>
<path d="M41.5876 10.5164C41.4314 10.1565 41.32 9.78054 41.2584 9.40451L41.2518 9.37008C41.2146 9.13371 41.197 8.89926 41.1992 8.67055L41.2014 8.58418C41.2018 8.56807 41.197 8.55083 41.1881 8.53597L41.1824 8.53254L40.1308 7.21691L39.0934 5.91963C39.0869 5.91142 39.0793 5.90493 39.0711 5.90077C39.063 5.8966 39.0546 5.8949 39.0468 5.89582C39.039 5.89674 39.0321 5.90024 39.0266 5.90602C39.0211 5.91179 39.0172 5.91964 39.0154 5.92883L38.768 7.09276C38.7658 7.10333 38.7664 7.11524 38.7696 7.12708C38.7727 7.13892 38.7784 7.1502 38.7859 7.15959L41.5158 10.5719C41.5248 10.5833 41.5361 10.5913 41.5476 10.5944C41.559 10.5975 41.57 10.5956 41.5786 10.5889C41.5872 10.5823 41.5928 10.5714 41.5944 10.5581C41.5961 10.5448 41.5937 10.5301 41.5876 10.5164Z" fill="#B08300"/>
<path d="M43.3922 6.23925L43.3652 6.24011L43.3586 6.23611C42.987 6.24012 42.6405 6.34679 42.3424 6.54898C42.0444 6.75117 41.8016 7.0442 41.6303 7.40844C41.4513 7.79364 41.3549 8.24687 41.3482 8.73556C41.3418 9.4881 41.5505 10.2863 41.9389 10.9954C42.0305 11.1625 42.1314 11.323 42.2407 11.4753L42.2473 11.4793L42.2679 11.5087C42.2742 11.5174 42.2819 11.5243 42.2902 11.5289C42.2985 11.5335 42.307 11.5355 42.315 11.5348C42.3231 11.5341 42.3303 11.5307 42.336 11.5249C42.3417 11.5191 42.3456 11.5111 42.3475 11.5017L42.6014 10.3075C42.6044 10.2929 42.6023 10.2758 42.5954 10.2601C42.4726 9.98785 42.3901 9.70043 42.3526 9.41495C42.3152 9.12947 42.3237 8.85178 42.3775 8.59843C42.4314 8.34508 42.5295 8.12127 42.6661 7.94034C42.8026 7.7594 42.9748 7.62506 43.1724 7.54531C43.1781 7.54304 43.183 7.53917 43.1869 7.53395C43.1907 7.52873 43.1935 7.52227 43.1949 7.51496L43.449 6.31969C43.4511 6.31056 43.451 6.30028 43.4488 6.28987C43.4466 6.27946 43.4424 6.26928 43.4365 6.26033C43.4306 6.25138 43.4233 6.24397 43.4153 6.23884C43.4072 6.2337 43.3988 6.23102 43.3907 6.23105" fill="#B08300"/>
<path d="M42.283 6.47548C42.0267 6.58724 41.799 6.75906 41.6094 6.98363L41.5911 7.00431C41.4732 7.14747 41.3712 7.31001 41.2867 7.48925L41.2559 7.55851C41.2501 7.571 41.24 7.57889 41.2277 7.58053L41.222 7.57711L39.9125 7.47404L38.6211 7.37204C38.6131 7.37119 38.6048 7.36786 38.5971 7.36234C38.5893 7.35681 38.5823 7.34926 38.5767 7.34035C38.5711 7.33144 38.567 7.32144 38.5648 7.31123C38.5627 7.30103 38.5625 7.29092 38.5642 7.28181L38.8112 6.12004C38.8135 6.10957 38.8184 6.10094 38.8253 6.09517C38.8323 6.08939 38.8409 6.08671 38.8502 6.08744L42.2486 6.35491C42.2599 6.35571 42.2716 6.36154 42.2816 6.37137C42.2917 6.3812 42.2994 6.3944 42.3036 6.40866C42.3077 6.42292 42.3079 6.43733 42.3042 6.44935C42.3005 6.46137 42.293 6.47024 42.2832 6.4744" fill="#FFD866"/>
<path d="M41.3821 10.7117C41.2258 10.3518 41.1145 9.97585 41.0529 9.59982L41.0463 9.56539C41.009 9.32903 40.9914 9.09457 40.9936 8.86587L40.9959 8.7795C40.9962 8.76338 40.9915 8.74614 40.9826 8.73128L40.9769 8.72785L39.9252 7.41222L38.8878 6.11494C38.8814 6.10673 38.8737 6.10025 38.8655 6.09608C38.8574 6.09192 38.8491 6.09021 38.8413 6.09113C38.8335 6.09205 38.8265 6.09556 38.821 6.10133C38.8155 6.1071 38.8117 6.11495 38.8098 6.12414L38.5624 7.28807C38.5603 7.29864 38.5608 7.31055 38.564 7.32239C38.5672 7.33423 38.5728 7.34551 38.5803 7.3549L41.3103 10.7673C41.3193 10.7786 41.3305 10.7866 41.342 10.7897C41.3535 10.7928 41.3645 10.7909 41.373 10.7842C41.3816 10.7776 41.3872 10.7667 41.3888 10.7534C41.3905 10.7402 41.3881 10.7254 41.3821 10.7117Z" fill="#FFD866"/>
<path d="M43.1886 6.43456L43.1616 6.43542L43.155 6.43143C42.7834 6.43543 42.4369 6.5421 42.1388 6.74429C41.8408 6.94648 41.5979 7.23951 41.4267 7.60375C41.2477 7.98896 41.1513 8.44218 41.1446 8.93087C41.1382 9.68341 41.3469 10.4816 41.7353 11.1907C41.8268 11.3578 41.9278 11.5183 42.0371 11.6706L42.0437 11.6746L42.0642 11.704C42.0706 11.7127 42.0783 11.7196 42.0866 11.7242C42.0948 11.7288 42.1034 11.7308 42.1114 11.7301C42.1194 11.7294 42.1267 11.726 42.1323 11.7202C42.138 11.7144 42.142 11.7064 42.1439 11.697L42.3977 10.5028C42.4008 10.4882 42.3987 10.4712 42.3918 10.4554C42.269 10.1832 42.1865 9.89574 42.149 9.61026C42.1116 9.32478 42.1201 9.04709 42.1739 8.79374C42.2278 8.54039 42.3259 8.31658 42.4625 8.13565C42.599 7.95472 42.7712 7.82037 42.9688 7.74062C42.9745 7.73835 42.9794 7.73448 42.9833 7.72926C42.9871 7.72404 42.9899 7.71758 42.9913 7.71027L43.2454 6.515C43.2475 6.50587 43.2474 6.49559 43.2452 6.48518C43.243 6.47477 43.2388 6.46459 43.2329 6.45564C43.227 6.44669 43.2197 6.43929 43.2117 6.43415C43.2036 6.42902 43.1952 6.42633 43.1871 6.42636" fill="#FFD866"/>
<path d="M8.30273 15.2213L10.0196 19.8406C10.2308 20.406 10.7146 20.8216 11.3073 20.9306C19.6192 22.4091 30.4724 17.8307 35.0848 12.0873C35.4527 11.624 35.5413 10.9972 35.3369 10.4454L33.6132 5.8125L8.30273 15.2213Z" fill="#FFA030"/>
<path d="M24.2786 16.8853C24.0334 16.2313 23.7949 15.5772 23.5428 14.93C23.4134 14.603 23.2907 14.276 23.1613 13.9557C23.0591 13.7105 22.9773 13.438 22.7525 13.2881C22.7321 13.2744 22.7048 13.2812 22.698 13.3085C22.6231 13.5674 22.7389 13.8331 22.8206 14.0784C22.9296 14.4122 23.0523 14.7392 23.1681 15.0663C23.3997 15.7203 23.645 16.3744 23.8903 17.0284C24.156 17.7438 24.4013 18.4728 24.6738 19.1882C24.8169 19.1337 24.9531 19.0723 25.0962 19.0178C24.8305 18.3025 24.5443 17.5939 24.2786 16.8853Z" fill="#CA6430"/>
<path d="M19.804 18.1744C19.5588 17.5204 19.3203 16.8663 19.0682 16.2191C18.9388 15.892 18.8161 15.565 18.6867 15.2448C18.5845 14.9995 18.5027 14.727 18.2779 14.5771C18.2575 14.5635 18.2302 14.5703 18.2234 14.5976C18.1485 14.8565 18.2643 15.1222 18.346 15.3674C18.455 15.7013 18.5777 16.0283 18.6935 16.3553C18.9251 17.0094 19.1704 17.6634 19.4157 18.3175C19.6882 19.0533 19.9471 19.8095 20.2264 20.5453C20.3763 20.5113 20.5194 20.4772 20.6693 20.4432C20.3899 19.6869 20.0834 18.9307 19.804 18.1744Z" fill="#CA6430"/>
<path d="M11.9876 19.6197C11.7423 18.9657 11.5039 18.3116 11.2518 17.6644C11.1224 17.3374 10.9997 17.0103 10.8703 16.6901C10.7681 16.4448 10.6863 16.1723 10.4615 16.0224C10.4411 16.0088 10.4138 16.0156 10.407 16.0429C10.332 16.3018 10.4479 16.5675 10.5296 16.8128C10.6386 17.1466 10.7613 17.4736 10.8771 17.8006C11.1087 18.4547 11.354 19.1087 11.5993 19.7628C11.756 20.1852 11.9059 20.6144 12.0557 21.0368C12.2193 21.0573 12.3896 21.0777 12.5599 21.0913C12.3623 20.6076 12.1716 20.1171 11.9876 19.6197Z" fill="#CA6430"/>
<path d="M15.6321 19.0416C15.3869 18.3875 15.1484 17.7335 14.8963 17.0863C14.7669 16.7592 14.6443 16.4322 14.5148 16.112C14.4126 15.8667 14.3309 15.5942 14.106 15.4443C14.0856 15.4307 14.0583 15.4375 14.0515 15.4648C13.9766 15.7236 14.0924 15.9894 14.1742 16.2346C14.2832 16.5685 14.4058 16.8955 14.5216 17.2225C14.7533 17.8766 14.9985 18.5306 15.2438 19.1847C15.4823 19.8387 15.7139 20.4996 15.9592 21.1605C16.1159 21.1536 16.2726 21.14 16.4293 21.1264C16.1704 20.4315 15.891 19.7365 15.6321 19.0416Z" fill="#CA6430"/>
<path d="M33.9603 10.3541C33.715 9.70005 33.4765 9.04599 33.2245 8.39876C33.095 8.07173 32.9724 7.7447 32.8429 7.42449C32.7407 7.17922 32.659 6.9067 32.4341 6.75681C32.4137 6.74319 32.3865 6.75 32.3796 6.77725C32.3047 7.03615 32.4205 7.30186 32.5023 7.54713C32.6113 7.88096 32.7339 8.20799 32.8497 8.53502C33.0814 9.18907 33.3267 9.84312 33.5719 10.4972C33.8581 11.2739 34.1306 12.071 34.4304 12.8477C34.5462 12.7182 34.662 12.5956 34.771 12.4661C34.5053 11.7576 34.226 11.0558 33.9603 10.3541Z" fill="#CA6430"/>
<path d="M31.3236 12.5338C31.0783 11.8797 30.8398 11.2257 30.5877 10.5784C30.4583 10.2514 30.3357 9.92439 30.2062 9.60418C30.104 9.35891 30.0223 9.08639 29.7974 8.9365C29.777 8.92287 29.7497 8.92969 29.7429 8.95694C29.668 9.21584 29.7838 9.48154 29.8656 9.72681C29.9746 10.0607 30.0972 10.3877 30.213 10.7147C30.4447 11.3688 30.6899 12.0228 30.9352 12.6769C31.2418 13.5081 31.5279 14.3597 31.855 15.1841C31.9776 15.0887 32.1002 14.9865 32.2229 14.8911C31.9367 14.1008 31.6233 13.3173 31.3236 12.5338Z" fill="#CA6430"/>
<path d="M27.9095 14.8541C27.6642 14.2 27.4258 13.546 27.1737 12.8988C27.0442 12.5717 26.9216 12.2447 26.7922 11.9245C26.69 11.6792 26.6082 11.4067 26.3834 11.2568C26.3629 11.2432 26.3357 11.25 26.3289 11.2773C26.2539 11.5361 26.3697 11.8019 26.4515 12.0471C26.5605 12.381 26.6831 12.708 26.799 13.035C27.0306 13.6891 27.2759 14.3431 27.5211 14.9972C27.8209 15.8079 28.1003 16.6323 28.4137 17.4362C28.5499 17.3613 28.6794 17.2864 28.8088 17.2114C28.5159 16.4211 28.2025 15.6376 27.9095 14.8541Z" fill="#CA6430"/>
<path d="M33.6118 5.80563C34.4294 8.00624 29.4286 11.9033 22.4384 14.5059C15.4483 17.1085 9.11895 17.4287 8.29457 15.2213C7.477 13.0206 12.4778 9.12358 19.468 6.521C26.4649 3.92523 32.7943 3.60502 33.6118 5.80563Z" fill="#FFD230"/>
<path d="M12.9821 15.9984C13.1797 15.6714 13.3773 15.3443 13.5817 15.0173C13.6839 14.8606 13.7861 14.6971 13.8814 14.5404C13.9291 14.4655 13.9768 14.3905 14.0177 14.3156C14.0926 14.1861 14.1267 14.0362 14.2425 13.934C14.263 13.9204 14.2357 13.8932 14.2221 13.9136C14.1131 14.0907 13.8814 14.2202 13.7384 14.3701C13.6021 14.5063 13.4795 14.6426 13.3568 14.7925C13.0979 15.0991 12.8595 15.4125 12.6278 15.7395C12.4098 16.0461 12.2122 16.3731 12.0215 16.6933C12.2054 16.6933 12.3962 16.7001 12.5938 16.6933C12.7232 16.4549 12.8527 16.2232 12.9821 15.9984Z" fill="#FFEF55"/>
<path d="M10.5637 11.665C10.8567 11.8217 11.1837 11.8966 11.5039 11.9579C11.8446 12.0192 12.192 12.0669 12.5395 12.101C12.8938 12.1351 13.2549 12.1623 13.6023 12.0737C13.7318 12.0397 13.6841 11.8694 13.5819 11.8421C13.2753 11.7603 12.9483 11.7603 12.6349 11.7399C12.3079 11.7195 11.9808 11.6854 11.6538 11.6377C11.354 11.5968 11.0406 11.556 10.7545 11.4469C10.6864 11.4197 10.6182 11.3856 10.5501 11.3516C10.482 11.4129 10.4138 11.4674 10.3457 11.5287C10.4206 11.5832 10.5024 11.6309 10.5637 11.665Z" fill="#FFEF55"/>
<path d="M20.1159 14.9254C20.0682 14.5098 20.0069 14.0942 19.9388 13.6854C19.9047 13.4879 19.8774 13.2971 19.8434 13.0995C19.8297 13.0314 19.8161 12.9564 19.8093 12.8883C19.7957 12.8202 19.7616 12.7521 19.7548 12.6839C19.748 12.6362 19.6799 12.6226 19.6594 12.6703C19.5845 12.8066 19.5436 12.8679 19.53 13.0382C19.5163 13.2358 19.5368 13.4334 19.5436 13.6309C19.5572 14.0465 19.5845 14.4621 19.6117 14.8777C19.6254 15.0617 19.6458 15.2456 19.6662 15.4296C19.8297 15.3819 20.0001 15.3274 20.1636 15.2797C20.15 15.1639 20.1295 15.0412 20.1159 14.9254Z" fill="#FFEF55"/>
<path d="M16.8856 15.2978C16.9196 14.9504 16.9605 14.6029 16.9809 14.2554C16.9878 14.0987 17.0014 13.942 17.0014 13.7853C17.0014 13.6082 16.9605 13.4719 16.906 13.3016C16.8924 13.2607 16.8379 13.2675 16.8243 13.3016C16.7289 13.4583 16.6607 13.5877 16.613 13.7717C16.5722 13.9284 16.5449 14.0919 16.5177 14.2486C16.4632 14.5825 16.4223 14.9163 16.3746 15.2501C16.3269 15.5908 16.2792 15.9314 16.252 16.2721C16.4291 16.238 16.6062 16.204 16.7902 16.1631C16.8242 15.8769 16.8583 15.584 16.8856 15.2978Z" fill="#FFEF55"/>
<path d="M13.6715 9.37908C13.8759 9.56303 14.0939 9.72655 14.3187 9.88325C14.7888 10.1966 15.2998 10.4487 15.8653 10.5169C16.0424 10.5373 16.131 10.292 15.9607 10.2171C15.477 9.99907 14.9864 9.81512 14.5163 9.56985C14.2847 9.44721 14.0667 9.31095 13.8555 9.16106C13.8486 9.15425 13.8418 9.14744 13.8282 9.14062C13.7396 9.18832 13.6511 9.24282 13.5625 9.29051C13.5966 9.31776 13.6306 9.35183 13.6715 9.37908Z" fill="#FFEF55"/>
<path d="M12.6075 13.7923C12.7506 13.7105 12.6211 13.4721 12.4712 13.5334C11.0746 14.0853 9.6915 14.6507 8.26758 15.1004C8.2812 15.1413 8.28802 15.1822 8.30164 15.223C8.30846 15.2435 8.32208 15.2639 8.3289 15.2844C9.81414 14.9914 11.2858 14.5349 12.6075 13.7923Z" fill="#FFEF55"/>
<path d="M16.7212 7.92177C17.0005 8.26243 17.3071 8.60989 17.6546 8.88923C17.7908 8.99824 18.0497 9.23669 18.2405 9.19581C18.3155 9.17538 18.37 9.12768 18.3836 9.04593C18.404 8.92329 18.295 8.83472 18.2133 8.75978C17.8726 8.46 17.4979 8.21474 17.164 7.90815C17.055 7.81277 16.9528 7.70376 16.8506 7.60156C16.7553 7.64244 16.6667 7.68332 16.5781 7.7242C16.619 7.79914 16.6667 7.86046 16.7212 7.92177Z" fill="#FFEF55"/>
<path d="M27.5145 11.342C27.2284 11.0968 26.9558 10.8515 26.6493 10.6335C26.4926 10.5245 26.329 10.4155 26.1587 10.3269C26.0156 10.2519 25.8521 10.1361 25.6886 10.1702C25.6477 10.177 25.6273 10.2111 25.6409 10.2519C25.6886 10.4155 25.8589 10.5176 25.9816 10.6267C26.1246 10.7561 26.2677 10.8924 26.4108 11.0286C26.6901 11.2943 26.9695 11.5532 27.2488 11.8121C27.3782 11.9279 27.5077 12.0506 27.644 12.1596C27.8211 12.0642 27.9914 11.9688 28.1617 11.8666C27.9437 11.6963 27.7257 11.5192 27.5145 11.342Z" fill="#FFEF55"/>
<path d="M24.122 12.8758C23.9516 12.5693 23.7677 12.2695 23.5701 11.9765C23.4407 11.7858 23.2363 11.4587 22.9706 11.486C22.9433 11.486 22.9297 11.5132 22.9297 11.5337C22.9365 11.6631 23.0046 11.7517 23.0728 11.8539C23.1545 11.9765 23.2363 12.1128 23.3044 12.249C23.4679 12.542 23.6042 12.8486 23.7541 13.1552C23.8699 13.3868 23.9721 13.6253 24.0811 13.8637C24.2242 13.8024 24.3741 13.7411 24.5171 13.6798C24.4013 13.4004 24.2719 13.1347 24.122 12.8758Z" fill="#FFEF55"/>
<path d="M30.7159 9.23377C29.9529 8.98169 29.1966 8.74324 28.4744 8.39577C28.4131 8.36852 28.3791 8.45709 28.4336 8.48434C29.2171 8.90675 29.9937 9.34278 30.8181 9.67662C30.9408 9.72431 31.0634 9.77201 31.1928 9.8197C31.3291 9.71069 31.4654 9.59486 31.588 9.48586C31.295 9.41091 31.0021 9.32234 30.7159 9.23377Z" fill="#FFEF55"/>
<path d="M33.7005 6.28125C33.6528 6.28806 33.6052 6.30169 33.5643 6.3085C33.1282 6.40388 32.6922 6.49245 32.2494 6.58102C31.3909 6.75816 30.512 6.90124 29.6672 7.13969C29.6604 7.13969 29.6604 7.14651 29.6672 7.14651C30.5461 7.22145 31.459 7.13969 32.3379 7.03068C32.7672 6.97618 33.1964 6.90805 33.6188 6.82629C33.6733 6.64234 33.7005 6.45839 33.7005 6.28125Z" fill="#FFEF55"/>
<path d="M22.2896 7.46697C22.3986 7.39203 22.4259 7.23533 22.46 7.11269C22.5077 6.94918 22.5349 6.77204 22.5553 6.60171C22.603 6.23381 22.6235 5.85909 22.6303 5.48438C22.4668 5.53207 22.3033 5.57976 22.1397 5.62745C22.1397 5.93404 22.1329 6.24062 22.1397 6.5404C22.1397 6.72435 22.1534 6.91511 22.1738 7.09907C22.1874 7.22851 22.1943 7.3784 22.2896 7.46697Z" fill="#FFEF55"/>
<path d="M28.8304 5.86906C28.6873 5.9985 28.6123 6.12114 28.4965 6.27102C28.4829 6.29146 28.5033 6.33234 28.5306 6.31872C28.6941 6.23696 28.8304 6.18927 28.9802 6.08026C29.1369 5.96444 29.2937 5.85543 29.4504 5.73961C29.7569 5.52159 30.0567 5.30357 30.3633 5.09918C30.6767 4.88798 30.9969 4.68359 31.3171 4.47238C31.1059 4.43832 30.8879 4.41106 30.6494 4.39062C30.4859 4.51326 30.3224 4.6359 30.1657 4.75853C29.8591 4.99699 29.5525 5.23544 29.2596 5.48753C29.1165 5.61016 28.9734 5.73961 28.8304 5.86906Z" fill="#FFEF55"/>
<path d="M25.8721 6.12868C25.9607 5.96517 26.0356 5.79484 26.1174 5.62452C26.2741 5.28387 26.4308 4.95003 26.5875 4.60938C26.4376 4.62981 26.2809 4.65707 26.131 4.68432C25.9743 5.06585 25.8312 5.45419 25.7018 5.84254C25.6405 6.01968 25.4088 6.5034 25.7427 6.53747C25.7427 6.53747 25.7495 6.53747 25.7427 6.53065C25.6609 6.46252 25.8381 6.19681 25.8721 6.12868Z" fill="#FFEF55"/>
<path d="M20.1698 7.91211C20.1426 7.80311 20.1289 7.68728 20.0949 7.57828C20.0608 7.46245 20.0199 7.35345 19.9722 7.24444C19.8837 7.04005 19.7951 6.83565 19.7133 6.62445C19.6929 6.56995 19.6725 6.51544 19.652 6.46094C19.5907 6.48138 19.5294 6.50181 19.4749 6.52907C19.3999 6.55632 19.3318 6.58357 19.2637 6.61082C19.2705 6.62445 19.2705 6.64489 19.2773 6.66533C19.3522 6.90378 19.434 7.14905 19.5362 7.3807C19.5907 7.50333 19.6452 7.62597 19.7201 7.73498C19.7951 7.84398 19.8768 7.93937 19.9586 8.03475C20.0335 8.13013 20.1971 8.02794 20.1698 7.91211Z" fill="#FFEF55"/>
<path d="M30.8378 6.62527C31.4373 8.23996 27.4722 11.2104 21.974 13.2544C16.4759 15.2983 11.5364 15.6457 10.9369 14.031C10.3374 12.4095 14.3025 9.44587 19.8007 7.40196C25.2988 5.35804 30.2382 5.01058 30.8378 6.62527Z" fill="#CA6430"/>
<path d="M20.0325 8.03518C14.8955 9.94283 11.0938 12.6612 11.1075 14.3236C12.1839 15.5908 16.8372 15.1684 21.9743 13.254C27.1113 11.3463 30.913 8.62791 30.8993 6.95872C29.8161 5.69831 25.1696 6.12753 20.0325 8.03518Z" fill="#FFA030"/>
<path d="M27.3577 8.96513C26.648 9.01917 25.9471 9.11539 25.2847 9.24972L25.2217 9.26202C24.8064 9.34788 24.4096 9.44788 24.0377 9.56038L23.8984 9.60399C23.8727 9.61184 23.8413 9.61629 23.8108 9.6164L23.8007 9.61367L20.8263 9.44157L17.8932 9.2716C17.8751 9.2704 17.8589 9.26753 17.8461 9.26325C17.8332 9.25896 17.8242 9.25339 17.8196 9.24702C17.815 9.24065 17.8151 9.23368 17.8199 9.22672C17.8247 9.21976 17.834 9.21303 17.847 9.20711L19.551 8.45418C19.5666 8.4474 19.5865 8.44205 19.6083 8.43876C19.6302 8.43547 19.6531 8.43437 19.6743 8.4356L27.3938 8.88224C27.4195 8.88366 27.4413 8.88846 27.4553 8.89579C27.4694 8.90312 27.4749 8.91252 27.4708 8.92233C27.4667 8.93213 27.4532 8.94173 27.4329 8.94943C27.4125 8.95713 27.3864 8.96244 27.3593 8.96443" fill="#B08300"/>
<path d="M21.1465 11.7112C21.1278 11.4596 21.2304 11.2008 21.4496 10.9459L21.4675 10.9225C21.6088 10.7624 21.7943 10.6051 22.0208 10.4532L22.1097 10.396C22.1261 10.3853 22.1316 10.3734 22.1251 10.3629L22.1151 10.3601L20.9193 9.40218L19.7393 8.45757C19.7321 8.4516 19.7204 8.44668 19.7053 8.44327C19.6902 8.43985 19.6722 8.43806 19.6531 8.43805C19.6339 8.43805 19.6141 8.43983 19.5956 8.44323C19.5771 8.44664 19.5605 8.45155 19.5473 8.45751L17.8401 9.21184C17.8248 9.2187 17.8145 9.22666 17.8105 9.23479C17.8065 9.24291 17.8089 9.25086 17.8175 9.2577L20.9241 11.7425C20.9343 11.7508 20.953 11.757 20.9769 11.7599C21.0009 11.7629 21.0285 11.7625 21.055 11.7588C21.0816 11.755 21.1053 11.7482 21.122 11.7395C21.1387 11.7308 21.1474 11.7208 21.1465 11.7112Z" fill="#B08300"/>
<path d="M29.5245 9.00274L29.4604 9.00118L29.4486 8.998C28.5723 8.97127 27.6557 9.01479 26.7603 9.12565C25.8648 9.23651 25.0112 9.41214 24.2565 9.64077C23.4636 9.88274 22.7988 10.1765 22.31 10.5009C21.5668 11.0007 21.2842 11.548 21.5098 12.0501C21.563 12.1685 21.6447 12.2832 21.7538 12.3931L21.7656 12.3963L21.7853 12.4175C21.7919 12.4237 21.8032 12.429 21.8182 12.4327C21.8332 12.4364 21.8513 12.4384 21.8708 12.4386C21.8903 12.4387 21.9106 12.437 21.9296 12.4336C21.9485 12.4302 21.9656 12.4252 21.9791 12.4191L23.7307 11.6452C23.7521 11.6357 23.7636 11.6242 23.7626 11.6132C23.7379 11.4224 23.8222 11.2248 24.0106 11.032C24.199 10.8393 24.4876 10.6553 24.8593 10.4911C25.2309 10.3269 25.6778 10.1859 26.1736 10.0764C26.6693 9.96686 27.2036 9.89115 27.7446 9.85376C27.7601 9.85269 27.7754 9.85051 27.7895 9.84735C27.8036 9.84418 27.8163 9.8401 27.8268 9.83536L29.58 9.06072C29.5937 9.05481 29.6035 9.04797 29.6085 9.04088C29.6134 9.03378 29.6133 9.02668 29.6081 9.02027C29.603 9.01385 29.593 9.00835 29.5791 9.0043C29.5652 9.00025 29.5479 8.99779 29.529 8.99717" fill="#B08300"/>
<path d="M26.6898 9.08231C25.98 9.13636 25.2791 9.23258 24.6168 9.3669L24.5538 9.3792C24.1384 9.46507 23.7416 9.56507 23.3697 9.67757L23.2304 9.72118C23.2047 9.72903 23.1733 9.73347 23.1428 9.73359L23.1327 9.73086L20.1584 9.55876L17.2252 9.38879C17.2071 9.38759 17.1909 9.38472 17.1781 9.38043C17.1653 9.37615 17.1562 9.37058 17.1516 9.36421C17.1471 9.35784 17.1472 9.35087 17.1519 9.34391C17.1567 9.33695 17.166 9.33021 17.179 9.32429L18.8831 8.57137C18.8986 8.56459 18.9185 8.55924 18.9404 8.55595C18.9622 8.55266 18.9851 8.55156 19.0063 8.55278L26.7258 8.99943C26.7515 9.00085 26.7733 9.00565 26.7874 9.01298C26.8014 9.02031 26.8069 9.0297 26.8028 9.03951C26.7987 9.04932 26.7853 9.05892 26.7649 9.06662C26.7445 9.07431 26.7185 9.07962 26.6914 9.08161" fill="#FFD866"/>
<path d="M20.4785 11.8284C20.4599 11.5768 20.5624 11.318 20.7817 11.0631L20.7995 11.0397C20.9409 10.8796 21.1263 10.7223 21.3528 10.5704L21.4418 10.5132C21.4582 10.5025 21.4637 10.4906 21.4572 10.48L21.4471 10.4773L20.2513 9.51937L19.0713 8.57476C19.0641 8.56879 19.0524 8.56387 19.0373 8.56045C19.0222 8.55704 19.0043 8.55525 18.9851 8.55524C18.9659 8.55523 18.9462 8.55702 18.9277 8.56042C18.9092 8.56382 18.8925 8.56874 18.8793 8.5747L17.1721 9.32903C17.1568 9.33589 17.1466 9.34385 17.1426 9.35197C17.1386 9.3601 17.141 9.36805 17.1495 9.37488L20.2562 11.8597C20.2663 11.868 20.285 11.8741 20.3089 11.8771C20.3329 11.8801 20.3605 11.8797 20.3871 11.8759C20.4136 11.8722 20.4373 11.8654 20.454 11.8567C20.4708 11.848 20.4794 11.838 20.4785 11.8284Z" fill="#FFD866"/>
<path d="M28.8565 9.11993L28.7924 9.11837L28.7807 9.11519C27.9044 9.08846 26.9878 9.13198 26.0923 9.24284C25.1968 9.35369 24.3432 9.52932 23.5886 9.75796C22.7956 9.99992 22.1308 10.2937 21.642 10.618C20.8988 11.1179 20.6162 11.6651 20.8418 12.1673C20.8951 12.2857 20.9767 12.4004 21.0859 12.5103L21.0976 12.5135L21.1174 12.5347C21.1239 12.5409 21.1353 12.5462 21.1502 12.5499C21.1652 12.5536 21.1834 12.5556 21.2029 12.5558C21.2224 12.5559 21.2426 12.5542 21.2616 12.5508C21.2806 12.5474 21.2976 12.5424 21.3112 12.5363L23.0628 11.7624C23.0841 11.7529 23.0956 11.7414 23.0947 11.7303C23.0699 11.5396 23.1543 11.342 23.3427 11.1492C23.5311 10.9564 23.8197 10.7725 24.1913 10.6083C24.5629 10.4441 25.0099 10.303 25.5056 10.1935C26.0013 10.084 26.5356 10.0083 27.0766 9.97094C27.0921 9.96988 27.1074 9.9677 27.1215 9.96454C27.1357 9.96137 27.1484 9.95729 27.1588 9.95255L28.912 9.17791C28.9258 9.172 28.9356 9.16516 28.9405 9.15807C28.9454 9.15097 28.9453 9.14387 28.9402 9.13745C28.935 9.13104 28.925 9.12553 28.9111 9.12148C28.8972 9.11743 28.88 9.11498 28.861 9.11436" fill="#FFD866"/>
<path d="M69.1674 21.0523C67.689 16.2764 62.2931 12.7881 55.9093 12.8766C49.6889 12.9652 44.5042 16.4262 43.0053 21.0523H42.5693V23.5595C42.5625 23.6889 42.5625 23.8184 42.5625 23.9478C42.6511 29.9501 48.7624 34.7329 56.2226 34.6307C63.6829 34.5217 69.658 29.5686 69.5694 23.5663V21.0591H69.1674V21.0523Z" fill="#FFA030"/>
<path d="M61.2105 29.4437C61.1969 28.6261 61.1833 27.8153 61.156 26.9978C61.1356 26.3846 61.1492 25.7169 60.9789 25.2128C60.9584 25.1582 60.9312 25.1582 60.9175 25.2128C60.7677 25.7169 60.7949 26.3914 60.7949 27.0046C60.7949 27.8153 60.8017 28.6329 60.8085 29.4505C60.8222 30.9289 60.8426 32.4141 60.863 33.8926C61.0061 33.8517 61.1424 33.804 61.2786 33.7563C61.2582 32.3188 61.2378 30.8812 61.2105 29.4437Z" fill="#CA6430"/>
<path d="M68.3863 24.428C68.3727 23.6105 68.359 22.7997 68.3318 21.9821C68.3113 21.369 68.325 20.7013 68.1546 20.1971C68.1342 20.1426 68.1069 20.1426 68.0933 20.1971C67.9434 20.7013 67.9707 21.3758 67.9707 21.989C67.9707 22.7997 67.9775 23.6173 67.9843 24.4348C67.9979 25.8656 68.0184 27.3031 68.0388 28.7339C68.1819 28.509 68.3182 28.2774 68.4476 28.0458C68.4272 26.8398 68.4067 25.6339 68.3863 24.428Z" fill="#CA6430"/>
<path d="M65.19 27.0999C65.1764 26.2823 65.1627 25.4716 65.1355 24.654C65.115 24.0408 65.1287 23.3732 64.9583 22.869C64.9379 22.8145 64.9107 22.8145 64.897 22.869C64.7471 23.3732 64.7744 24.0477 64.7676 24.6608C64.7676 25.4716 64.7744 26.2891 64.7812 27.1067C64.7948 28.7282 64.8221 30.3429 64.8425 31.9644C64.9856 31.869 65.1219 31.7668 65.2581 31.6646C65.2445 30.1385 65.224 28.6192 65.19 27.0999Z" fill="#CA6430"/>
<path d="M57.1226 30.9905C57.109 30.173 57.0954 29.3622 57.0681 28.5446C57.0477 27.9315 57.0613 27.2638 56.891 26.7596C56.8705 26.7051 56.8433 26.7051 56.8296 26.7596C56.6798 27.2638 56.707 27.9383 56.707 28.5515C56.707 29.3622 56.7138 30.1798 56.7206 30.9973C56.7275 32.2032 56.7479 33.4023 56.7683 34.6083C56.9046 34.6014 57.0477 34.5946 57.1839 34.581C57.1635 33.3819 57.1499 32.1896 57.1226 30.9905Z" fill="#CA6430"/>
<path d="M44.5875 27.1624C44.5738 26.3448 44.5602 25.5341 44.533 24.7165C44.5125 24.1033 44.5261 23.4357 44.3558 22.9315C44.3354 22.877 44.3081 22.877 44.2945 22.9315C44.1446 23.4357 44.1719 24.1102 44.1719 24.7233C44.1719 25.5341 44.1787 26.3516 44.1855 27.1692C44.1923 27.7824 44.1991 28.3956 44.2059 29.0087C44.3354 29.2063 44.4784 29.3971 44.6215 29.581C44.6147 28.7771 44.6079 27.9732 44.5875 27.1624Z" fill="#CA6430"/>
<path d="M52.4625 30.2562C52.4488 29.4454 52.4352 28.6278 52.408 27.8103C52.3875 27.1971 52.4011 26.5294 52.2308 26.0253C52.2104 25.9707 52.1831 25.9707 52.1695 26.0253C52.0196 26.5294 52.0469 27.2039 52.0469 27.8171C52.0469 28.6278 52.0537 29.4454 52.0605 30.263C52.0741 31.5643 52.0877 32.8655 52.1082 34.1668C52.2444 34.2009 52.3875 34.2282 52.5238 34.2622C52.5101 32.9269 52.4897 31.5915 52.4625 30.2562Z" fill="#CA6430"/>
<path d="M48.231 28.8343C48.2174 28.0167 48.2038 27.206 48.1765 26.3884C48.1561 25.7752 48.1697 25.1075 47.9994 24.6034C47.9789 24.5489 47.9517 24.5489 47.938 24.6034C47.7882 25.1075 47.8154 25.782 47.8086 26.3952C47.8086 27.206 47.8154 28.0235 47.8222 28.8411C47.829 30.0402 47.8495 31.2393 47.8699 32.4384C48.0062 32.5201 48.1493 32.6019 48.2923 32.6836C48.2787 31.4028 48.2583 30.1151 48.231 28.8343Z" fill="#CA6430"/>
<path d="M56.2232 32.0441C63.6802 31.9375 69.6557 26.9832 69.5699 20.9785C69.484 14.9738 63.3693 10.1924 55.9123 10.2991C48.4553 10.4057 42.4798 15.36 42.5656 21.3647C42.6515 27.3694 48.7662 32.1508 56.2232 32.0441Z" fill="#FFD230"/>
<path d="M46.7735 27.3126C47.0597 26.6926 47.3527 26.0794 47.6524 25.4867C47.7955 25.1937 47.9454 24.9008 48.0885 24.601C48.1566 24.4647 48.2247 24.3285 48.286 24.1854C48.3951 23.9333 48.4768 23.6131 48.6199 23.4632C48.6403 23.4428 48.6199 23.361 48.6063 23.4019C48.4427 23.7289 48.1907 23.8379 47.9999 24.0696C47.8296 24.274 47.6661 24.4988 47.5094 24.7441C47.1687 25.2551 46.8417 25.8001 46.5215 26.3792C46.2217 26.9311 45.9287 27.5306 45.6426 28.137C45.8197 28.3073 45.9969 28.4776 46.1876 28.6343C46.3784 28.1915 46.576 27.7418 46.7735 27.3126Z" fill="#FFEF55"/>
<path d="M45.8392 14.8324C46.0709 15.466 46.3502 15.9361 46.6432 16.3585C46.9498 16.8082 47.2632 17.2238 47.5766 17.6121C47.8968 18.0004 48.2374 18.382 48.5917 18.4705C48.7212 18.5046 48.7348 18.0481 48.6462 17.8914C48.3805 17.4281 48.0739 17.1352 47.781 16.815C47.4744 16.4811 47.1746 16.1132 46.8748 15.7113C46.6023 15.3434 46.3162 14.9754 46.0777 14.4713C46.0164 14.3486 45.9687 14.1988 45.9142 14.0625C45.8324 14.1374 45.7439 14.2192 45.6621 14.301C45.7234 14.4985 45.7847 14.6825 45.8392 14.8324Z" fill="#FFEF55"/>
<path d="M53.8867 31.0087C53.9685 29.9663 54.0434 28.9307 54.1115 27.8747C54.1456 27.3773 54.1728 26.8868 54.2001 26.3894C54.2137 26.2123 54.2205 26.0283 54.2342 25.8512C54.2478 25.6741 54.2342 25.4765 54.2478 25.313C54.2546 25.1835 54.2001 25.1086 54.166 25.1903C54.057 25.4492 53.9889 25.5651 53.9276 25.967C53.8526 26.4303 53.8049 26.9209 53.7504 27.3978C53.6346 28.4129 53.5256 29.4281 53.4234 30.4568C53.3757 30.9133 53.3417 31.3766 53.3008 31.8331C53.4711 31.8603 53.6482 31.8876 53.8186 31.908C53.839 31.6082 53.8663 31.3084 53.8867 31.0087Z" fill="#FFEF55"/>
<path d="M50.6972 29.0793C50.8402 28.2753 50.9901 27.4714 51.1196 26.6606C51.1809 26.2927 51.2354 25.918 51.2831 25.5433C51.3376 25.1073 51.3444 24.7462 51.3444 24.2965C51.3444 24.1875 51.2899 24.1602 51.2694 24.2148C51.1332 24.5077 51.0242 24.7598 50.922 25.1618C50.8334 25.5024 50.7585 25.8635 50.6835 26.2246C50.5268 26.974 50.3837 27.7439 50.227 28.5002C50.0703 29.27 49.9205 30.0467 49.791 30.8438C49.9682 30.9188 50.1521 30.9869 50.3361 31.055C50.4587 30.4078 50.5813 29.7469 50.6972 29.0793Z" fill="#FFEF55"/>
<path d="M49.5046 12.059C49.6409 12.6722 49.7976 13.2649 49.9611 13.8304C50.3086 14.9955 50.7174 16.0379 51.2283 16.7055C51.385 16.9099 51.5485 16.3989 51.4123 16.0651C51.0239 15.1249 50.6083 14.246 50.2473 13.2445C50.0701 12.754 49.8998 12.2294 49.7499 11.6775C49.7431 11.6571 49.7363 11.6298 49.7295 11.6094C49.6273 11.6503 49.5319 11.6979 49.4297 11.7388C49.4569 11.841 49.4774 11.95 49.5046 12.059Z" fill="#FFEF55"/>
<path d="M47.1068 21.7204C47.2703 21.6523 47.2226 20.971 47.0591 20.9846C45.5602 21.08 44.0682 21.2367 42.5693 21.0527C42.5693 21.1617 42.5625 21.2639 42.5625 21.3729C42.5625 21.4342 42.5693 21.4956 42.5693 21.5569C44.0818 22.136 45.6216 22.3267 47.1068 21.7204Z" fill="#FFEF55"/>
<path d="M52.864 11.2332C53.0275 12.296 53.2046 13.4065 53.4431 14.3808C53.5384 14.7691 53.7088 15.5595 53.8995 15.6208C53.9813 15.648 54.0426 15.5731 54.0835 15.3891C54.138 15.103 54.0699 14.81 54.0085 14.5579C53.7769 13.5496 53.5044 12.6162 53.2796 11.6011C53.2046 11.2741 53.1433 10.9266 53.0752 10.5859C52.973 10.6064 52.8708 10.6268 52.7754 10.6473C52.8095 10.8448 52.8299 11.0424 52.864 11.2332Z" fill="#FFEF55"/>
<path d="M62.0423 28.9071C61.8515 28.0759 61.6607 27.2311 61.4427 26.4476C61.3269 26.0456 61.2043 25.6505 61.0748 25.2757C60.9658 24.9692 60.8432 24.5399 60.6728 24.4786C60.632 24.465 60.6047 24.5195 60.5979 24.6285C60.5911 25.0645 60.7274 25.4529 60.8023 25.8208C60.8977 26.2636 60.9931 26.7065 61.0816 27.1561C61.2656 28.035 61.4427 28.9071 61.6335 29.7792C61.7221 30.1743 61.8038 30.5763 61.8992 30.9646C62.0968 30.8897 62.2875 30.8079 62.4783 30.7194C62.3352 30.1198 62.1853 29.5203 62.0423 28.9071Z" fill="#FFEF55"/>
<path d="M58.336 29.6065C58.2678 28.7208 58.1929 27.8351 58.0975 26.9631C58.0362 26.3839 57.9408 25.4301 57.6819 25.253C57.6546 25.2394 57.6342 25.2734 57.6274 25.3347C57.5933 25.6481 57.6274 25.9207 57.6615 26.2272C57.7023 26.602 57.7296 26.9971 57.7568 27.3787C57.8182 28.2303 57.8522 29.0887 57.8999 29.9472C57.934 30.608 57.9612 31.2689 57.9885 31.9298C58.1452 31.9093 58.3019 31.8889 58.4586 31.8684C58.4313 31.1122 58.3905 30.356 58.336 29.6065Z" fill="#FFEF55"/>
<path d="M65.7471 26.6581C65.1067 25.3841 64.4595 24.1509 63.8804 22.6861C63.8327 22.5703 63.7713 22.7474 63.8122 22.87C64.4254 24.5665 65.0249 26.2902 65.7062 27.8163C65.8084 28.048 65.9106 28.266 66.0128 28.4908C66.1764 28.3477 66.3399 28.1978 66.4966 28.0411C66.2377 27.5915 65.9856 27.135 65.7471 26.6581Z" fill="#FFEF55"/>
<path d="M69.5001 22.206C69.4524 22.1924 69.4047 22.1719 69.357 22.1515C68.9142 21.988 68.4713 21.8245 68.0217 21.6609C67.1496 21.3339 66.2707 20.8979 65.3918 20.7344C65.385 20.7344 65.385 20.7548 65.3918 20.7548C66.2026 21.7155 67.1019 22.3082 67.9672 22.8192C68.3896 23.0712 68.8188 23.2825 69.248 23.4596C69.3638 23.0508 69.4524 22.6352 69.5001 22.206Z" fill="#FFEF55"/>
<path d="M58.2884 15.0375C58.4178 14.9557 58.4928 14.6015 58.5609 14.3426C58.6563 13.9883 58.738 13.5863 58.813 13.198C58.9765 12.3531 59.1059 11.4743 59.2354 10.5886C59.065 10.5545 58.8947 10.5273 58.7244 10.5C58.629 11.229 58.5268 11.958 58.4314 12.6938C58.3769 13.1366 58.3224 13.5999 58.2884 14.0564C58.2747 14.3698 58.227 14.7445 58.2884 15.0375Z" fill="#FFEF55"/>
<path d="M65.0055 16.9397C64.8284 17.1169 64.7194 17.3485 64.5627 17.6142C64.5422 17.6483 64.549 17.7573 64.5763 17.7505C64.7534 17.7028 64.9033 17.7028 65.0805 17.5733C65.2644 17.4371 65.4484 17.3076 65.6323 17.1782C65.9866 16.9261 66.3477 16.6672 66.702 16.4356C67.0631 16.2039 67.4378 15.9927 67.8057 15.7611C67.6149 15.4954 67.4173 15.2365 67.1993 14.9844C67.0085 15.1343 66.8178 15.291 66.627 15.4477C66.2591 15.7474 65.898 16.0608 65.5369 16.4083C65.3666 16.5718 65.1826 16.7558 65.0055 16.9397Z" fill="#FFEF55"/>
<path d="M62.1163 14.9618C62.2525 14.6347 62.3752 14.3009 62.5046 13.9602C62.7635 13.2858 63.0156 12.6181 63.2677 11.9436C63.1178 11.8686 62.9611 11.7937 62.8112 11.7188C62.5455 12.4954 62.2866 13.2994 62.0413 14.1238C61.9323 14.5053 61.5576 15.4591 61.8642 15.8202C61.8642 15.8202 61.871 15.8202 61.8642 15.8134C61.8165 15.5749 62.0618 15.0912 62.1163 14.9618Z" fill="#FFEF55"/>
<path d="M56.1333 14.2436C56.1401 13.9507 56.1673 13.6713 56.1673 13.3784C56.1741 13.0718 56.1673 12.772 56.1537 12.4654C56.1401 11.8931 56.1128 11.3276 56.106 10.7553C56.106 10.6055 56.0992 10.4556 56.0992 10.3125C56.0379 10.3125 55.9697 10.3125 55.9084 10.3125C55.8335 10.3125 55.7585 10.3193 55.6836 10.3193C55.6836 10.367 55.6836 10.4079 55.6836 10.4556C55.6836 11.1028 55.6836 11.7501 55.704 12.3973C55.7177 12.7379 55.7313 13.0718 55.7653 13.4056C55.7994 13.7326 55.8539 14.0256 55.9016 14.3458C55.9425 14.6524 56.1264 14.5434 56.1333 14.2436Z" fill="#FFEF55"/>
<path d="M56.1758 28.6543C62.0376 28.5705 66.7384 24.931 66.6754 20.5253C66.6124 16.1195 61.8094 12.6159 55.9476 12.6998C50.0859 12.7836 45.3851 16.4231 45.4481 20.8288C45.5111 25.2346 50.3141 28.7382 56.1758 28.6543Z" fill="#CA6430"/>
<path d="M55.9707 14.4157C50.493 14.4906 46.0305 17.6723 45.5195 21.6852C46.1463 25.6776 50.6974 28.7299 56.1751 28.6549C61.6528 28.58 66.1154 25.3983 66.6263 21.3854C65.9995 17.3862 61.4484 14.3339 55.9707 14.4157Z" fill="#FFA030"/>
<path d="M61.572 23.4502C60.9948 22.9998 60.3624 22.6294 59.7018 22.3547L59.6396 22.3277C59.2229 22.1583 58.7987 22.0275 58.3738 21.9376L58.2125 21.9065C58.1831 21.9004 58.1545 21.8841 58.1329 21.8608L58.1298 21.8484L56.2905 19.2693L54.4771 16.7254C54.4661 16.7095 54.4589 16.6921 54.4562 16.6749C54.4534 16.6576 54.4551 16.6409 54.4612 16.6264C54.4672 16.6118 54.4774 16.5998 54.4909 16.5914C54.5044 16.583 54.5207 16.5784 54.5384 16.5781H56.8307C56.8515 16.5783 56.8732 16.5843 56.8934 16.5953C56.9135 16.6063 56.9312 16.622 56.9443 16.6404L61.7179 23.334C61.7339 23.3562 61.7422 23.3812 61.7414 23.4047C61.7407 23.4283 61.7308 23.4487 61.7137 23.4626C61.6965 23.4765 61.6731 23.4828 61.6476 23.4806C61.6221 23.4783 61.5961 23.4676 61.5742 23.4502" fill="#B08300"/>
<path d="M53.2161 23.4502C53.569 22.9993 54.0175 22.6289 54.5422 22.3547L54.5888 22.3277C54.921 22.1583 55.2801 22.0275 55.6601 21.9376L55.8059 21.9065C55.8329 21.9005 55.854 21.8842 55.8648 21.8609L55.8617 21.8484L56.4149 19.2693L56.9599 16.7255C56.9635 16.7095 56.9624 16.692 56.9568 16.6745C56.9511 16.6571 56.9411 16.6402 56.9277 16.6255C56.9142 16.6107 56.8977 16.5987 56.8798 16.5904C56.8618 16.5821 56.843 16.5779 56.825 16.5781H54.5285C54.5078 16.5783 54.489 16.5843 54.4744 16.5953C54.4598 16.6063 54.4499 16.622 54.446 16.6404L53.0145 23.334C53.0095 23.3562 53.0137 23.3812 53.0262 23.4048C53.0387 23.4283 53.0587 23.4488 53.0828 23.4626C53.1069 23.4765 53.1334 23.4828 53.1578 23.4806C53.1822 23.4783 53.2028 23.4676 53.2161 23.4502Z" fill="#B08300"/>
<path d="M63.0351 25.1823L62.9923 25.1304L62.9887 25.1159C62.412 24.3977 61.7047 23.7704 60.9144 23.2762C60.1241 22.782 59.2689 22.4323 58.4062 22.2505C57.4972 22.0623 56.6029 22.0623 55.7877 22.2505C54.5386 22.5481 53.5441 23.281 52.9722 24.3254C52.8375 24.5716 52.7279 24.8332 52.6448 25.1076L52.6484 25.1221L52.6315 25.174C52.627 25.1899 52.6274 25.2077 52.6325 25.2256C52.6377 25.2435 52.6474 25.2609 52.6609 25.2762C52.6744 25.2914 52.6911 25.304 52.7093 25.3126C52.7276 25.3213 52.7469 25.3257 52.7652 25.3255H55.1215C55.1503 25.3254 55.1751 25.3142 55.1905 25.2944C55.4505 24.9445 55.7972 24.6662 56.2099 24.4761C56.6227 24.2861 57.093 24.1881 57.5929 24.1881C58.0927 24.1881 58.6119 24.2861 59.1194 24.4761C59.627 24.6662 60.1124 24.9445 60.5469 25.2944C60.5593 25.3044 60.5732 25.3123 60.5878 25.3177C60.6023 25.323 60.6172 25.3257 60.6314 25.3255H62.9898C63.008 25.3258 63.0248 25.3214 63.0386 25.3129C63.0524 25.3043 63.0627 25.2919 63.0684 25.2768C63.0741 25.2618 63.0751 25.2445 63.0712 25.2269C63.0673 25.2092 63.0588 25.1917 63.0464 25.1761" fill="#B08300"/>
<path d="M60.9353 23.1377C60.3581 22.6873 59.7257 22.3169 59.065 22.0422L59.0029 22.0152C58.5862 21.8458 58.162 21.715 57.7371 21.6251L57.5758 21.594C57.5463 21.5879 57.5178 21.5716 57.4962 21.5483L57.4931 21.5359L55.6538 18.9568L53.8404 16.4129C53.8294 16.397 53.8222 16.3796 53.8194 16.3624C53.8167 16.3451 53.8184 16.3284 53.8244 16.3139C53.8305 16.2993 53.8407 16.2873 53.8542 16.2789C53.8677 16.2705 53.884 16.2659 53.9017 16.2656H56.194C56.2148 16.2658 56.2365 16.2718 56.2567 16.2828C56.2768 16.2938 56.2945 16.3095 56.3076 16.3279L61.0812 23.0215C61.0972 23.0437 61.1055 23.0687 61.1047 23.0922C61.1039 23.1158 61.0941 23.1362 61.077 23.1501C61.0598 23.164 61.0364 23.1703 61.0109 23.1681C60.9854 23.1658 60.9594 23.1551 60.9374 23.1377" fill="#FFD866"/>
<path d="M52.5794 23.1377C52.9323 22.6868 53.3807 22.3164 53.9055 22.0422L53.9521 22.0152C54.2843 21.8458 54.6433 21.715 55.0234 21.6251L55.1691 21.594C55.1962 21.588 55.2173 21.5717 55.2281 21.5484L55.225 21.5359L55.7782 18.9568L56.3231 16.413C56.3267 16.397 56.3257 16.3795 56.32 16.362C56.3144 16.3446 56.3044 16.3277 56.2909 16.313C56.2775 16.2982 56.261 16.2862 56.2431 16.2779C56.2251 16.2696 56.2063 16.2654 56.1883 16.2656H53.8918C53.8711 16.2658 53.8523 16.2718 53.8377 16.2828C53.8231 16.2938 53.8132 16.3095 53.8092 16.3279L52.3777 23.0215C52.3728 23.0437 52.377 23.0687 52.3895 23.0922C52.402 23.1158 52.422 23.1362 52.4461 23.1501C52.4701 23.164 52.4967 23.1703 52.5211 23.1681C52.5455 23.1658 52.5661 23.1551 52.5794 23.1377Z" fill="#FFD866"/>
<path d="M62.3984 24.8698L62.3556 24.8179L62.352 24.8034C61.7752 24.0852 61.068 23.4579 60.2777 22.9637C59.4873 22.4695 58.6322 22.1198 57.7695 21.938C56.8605 21.7498 55.9662 21.7498 55.151 21.938C53.9019 22.2356 52.9074 22.9685 52.3355 24.0129C52.2007 24.2591 52.0912 24.5207 52.0081 24.7951L52.0117 24.8096L51.9948 24.8615C51.9903 24.8774 51.9906 24.8952 51.9958 24.9131C52.0009 24.931 52.0107 24.9484 52.0242 24.9637C52.0376 24.9789 52.0543 24.9915 52.0726 25.0001C52.0909 25.0088 52.1102 25.0132 52.1285 25.013H54.4847C54.5135 25.0129 54.5384 25.0017 54.5538 24.9819C54.8137 24.632 55.1604 24.3537 55.5732 24.1636C55.9859 23.9736 56.4563 23.8756 56.9561 23.8756C57.456 23.8756 57.9752 23.9736 58.4827 24.1636C58.9902 24.3537 59.4757 24.632 59.9102 24.9819C59.9226 24.9919 59.9365 24.9998 59.9511 25.0052C59.9656 25.0105 59.9805 25.0132 59.9947 25.013H62.3531C62.3713 25.0133 62.3881 25.0089 62.4019 25.0004C62.4157 24.9918 62.4259 24.9794 62.4317 24.9643C62.4374 24.9493 62.4383 24.932 62.4345 24.9144C62.4306 24.8967 62.4221 24.8792 62.4096 24.8636" fill="#FFD866"/>
<path d="M26.7592 22.9898C25.2808 18.2139 19.8849 14.7256 13.501 14.8141C7.28074 14.9027 2.09601 18.3637 0.597146 22.9898H0.161111V25.497C0.154298 25.6264 0.154297 25.7559 0.154297 25.8853C0.242866 31.8876 6.35417 36.6704 13.8144 36.5682C21.2747 36.4592 27.2498 31.5061 27.1612 25.5038V22.9966H26.7592V22.9898Z" fill="#FFA030"/>
<path d="M18.7925 31.3812C18.7789 30.5636 18.7653 29.7528 18.738 28.9353C18.7176 28.3221 18.7312 27.6544 18.5609 27.1503C18.5404 27.0957 18.5132 27.0957 18.4996 27.1503C18.3497 27.6544 18.3769 28.3289 18.3769 28.9421C18.3769 29.7528 18.3837 30.5704 18.3906 31.388C18.4042 32.8664 18.4246 34.3516 18.4451 35.8301C18.5881 35.7892 18.7244 35.7415 18.8607 35.6938C18.8402 34.2563 18.8266 32.8187 18.7925 31.3812Z" fill="#CA6430"/>
<path d="M25.9673 26.3655C25.9537 25.5548 25.9401 24.7372 25.9128 23.9196C25.8924 23.3065 25.906 22.6388 25.7357 22.1346C25.7153 22.0801 25.688 22.0801 25.6744 22.1346C25.5245 22.6388 25.5517 23.3133 25.5449 23.9265C25.5449 24.7372 25.5517 25.5548 25.5586 26.3723C25.5722 27.8031 25.5926 29.2406 25.6131 30.6714C25.7561 30.4465 25.8924 30.2149 26.0218 29.9833C26.0082 28.7773 25.9878 27.5646 25.9673 26.3655Z" fill="#CA6430"/>
<path d="M22.773 29.0374C22.7594 28.2198 22.7458 27.4091 22.7185 26.5915C22.6981 25.9783 22.7117 25.3107 22.5414 24.8065C22.5209 24.752 22.4937 24.752 22.48 24.8065C22.3302 25.3107 22.3574 25.9852 22.3574 26.5983C22.3574 27.4091 22.3642 28.2267 22.371 29.0442C22.3847 30.6657 22.4119 32.2804 22.4323 33.9019C22.5754 33.8065 22.7117 33.7043 22.8479 33.6021C22.8275 32.0828 22.8071 30.5567 22.773 29.0374Z" fill="#CA6430"/>
<path d="M14.7056 32.9202C14.692 32.1026 14.6784 31.2919 14.6511 30.4743C14.6307 29.8612 14.6443 29.1935 14.474 28.6893C14.4535 28.6348 14.4263 28.6348 14.4127 28.6893C14.2628 29.1935 14.29 29.868 14.2832 30.4811C14.2832 31.2919 14.29 32.1095 14.2968 32.927C14.3036 34.1329 14.3241 35.332 14.3445 36.5379C14.4808 36.5311 14.6239 36.5243 14.7601 36.5107C14.7465 35.3184 14.7329 34.1193 14.7056 32.9202Z" fill="#CA6430"/>
<path d="M2.17632 29.0999C2.16269 28.2823 2.14906 27.4716 2.12181 26.654C2.10137 26.0408 2.115 25.3732 1.94467 24.869C1.92423 24.8145 1.89698 24.8145 1.88336 24.869C1.73347 25.3732 1.76072 26.0477 1.75391 26.6608C1.75391 27.4716 1.76072 28.2891 1.76753 29.1067C1.77435 29.7199 1.78116 30.3331 1.78797 30.9462C1.91742 31.1438 2.0605 31.3346 2.20357 31.5185C2.20357 30.7078 2.18994 29.9038 2.17632 29.0999Z" fill="#CA6430"/>
<path d="M10.0455 32.1937C10.0318 31.3829 10.0182 30.5653 9.99095 29.7478C9.97051 29.1346 9.98414 28.4669 9.81381 27.9628C9.79337 27.9082 9.76612 27.9082 9.7525 27.9628C9.60261 28.4669 9.62986 29.1414 9.62305 29.7546C9.62305 30.5653 9.62986 31.3829 9.63667 32.2005C9.6503 33.5018 9.66392 34.803 9.68436 36.1043C9.82062 36.1384 9.9637 36.1657 10.1 36.1997C10.0931 34.8644 10.0727 33.529 10.0455 32.1937Z" fill="#CA6430"/>
<path d="M5.82183 30.7718C5.8082 29.9542 5.79458 29.1435 5.76733 28.3259C5.74689 27.7127 5.76051 27.045 5.59019 26.5409C5.56975 26.4864 5.5425 26.4864 5.52887 26.5409C5.37898 27.045 5.40623 27.7195 5.40623 28.3327C5.40623 29.1435 5.41305 29.961 5.41986 30.7786C5.42667 31.9777 5.44711 33.1768 5.46755 34.3759C5.60381 34.4576 5.74689 34.5394 5.88996 34.6211C5.86271 33.3335 5.84908 32.0526 5.82183 30.7718Z" fill="#CA6430"/>
<path d="M13.8131 33.9816C21.2701 33.875 27.2456 28.9207 27.1597 22.916C27.0738 16.9113 20.9591 12.1299 13.5021 12.2366C6.0451 12.3432 0.0696165 17.2975 0.155493 23.3022C0.241369 29.3069 6.35608 34.0883 13.8131 33.9816Z" fill="#FFD230"/>
<path d="M4.36339 29.2501C4.64953 28.6301 4.9425 28.0169 5.24227 27.4242C5.38534 27.1312 5.53523 26.8383 5.6783 26.5385C5.74643 26.4022 5.81457 26.266 5.87588 26.1229C5.98489 25.8708 6.06665 25.5506 6.20972 25.4007C6.23016 25.3803 6.20972 25.2985 6.19609 25.3394C6.03258 25.6664 5.7805 25.7754 5.58973 26.0071C5.41941 26.2115 5.2559 26.4363 5.0992 26.6816C4.75854 27.1926 4.43152 27.7376 4.1113 28.3167C3.81153 28.8686 3.51857 29.4681 3.23242 30.0745C3.40956 30.2448 3.5867 30.4151 3.77746 30.5718C3.96823 30.129 4.159 29.6861 4.36339 29.2501Z" fill="#FFEF55"/>
<path d="M3.42323 16.7699C3.65488 17.4035 3.93421 17.8736 4.22717 18.296C4.53376 18.7457 4.84716 19.1613 5.16056 19.5496C5.48077 19.9379 5.82142 20.3195 6.1757 20.408C6.30515 20.4421 6.31878 19.9856 6.23021 19.8289C5.9645 19.3656 5.65791 19.0727 5.36495 18.7525C5.05836 18.4186 4.75859 18.0507 4.45881 17.6488C4.18629 17.2809 3.90015 16.9129 3.66169 16.4088C3.60037 16.2861 3.55268 16.1363 3.49818 16C3.41642 16.0818 3.32785 16.1567 3.24609 16.2385C3.30741 16.436 3.36873 16.6268 3.42323 16.7699Z" fill="#FFEF55"/>
<path d="M11.4687 32.9462C11.5505 31.9038 11.6254 30.8682 11.6936 29.8122C11.7276 29.3148 11.7549 28.8243 11.7821 28.3269C11.7958 28.1498 11.8026 27.9658 11.8162 27.7887C11.8298 27.6116 11.8162 27.414 11.8298 27.2505C11.8366 27.121 11.7821 27.0461 11.7481 27.1278C11.6391 27.3867 11.5709 27.5026 11.5096 27.9045C11.4347 28.3678 11.387 28.8584 11.3325 29.3353C11.2167 30.3504 11.1076 31.3655 11.0054 32.3943C10.9578 32.8508 10.9237 33.3141 10.8828 33.7706C11.0531 33.7978 11.2303 33.8251 11.4006 33.8455C11.4279 33.5389 11.4483 33.2391 11.4687 32.9462Z" fill="#FFEF55"/>
<path d="M8.28114 31.0011C8.42421 30.1972 8.5741 29.3933 8.70354 28.5825C8.76486 28.2146 8.81937 27.8399 8.86706 27.4652C8.92156 27.0291 8.92838 26.668 8.92838 26.2184C8.92838 26.1094 8.87387 26.0821 8.85343 26.1366C8.71717 26.4296 8.60816 26.6817 8.50597 27.0836C8.4174 27.4243 8.34245 27.7854 8.26751 28.1465C8.11081 28.8959 7.96774 29.6658 7.81104 30.422C7.65434 31.1919 7.50445 31.9686 7.375 32.7657C7.55214 32.8407 7.73609 32.9088 7.92005 32.9769C8.04268 32.3365 8.16531 31.6756 8.28114 31.0011Z" fill="#FFEF55"/>
<path d="M7.08862 13.9965C7.22488 14.6097 7.38158 15.2024 7.54509 15.7679C7.89255 16.933 8.30134 17.9754 8.81231 18.643C8.96901 18.8474 9.13253 18.3364 8.99627 18.0026C8.60792 17.0624 8.19233 16.1835 7.83124 15.182C7.6541 14.6915 7.48377 14.1669 7.33389 13.615C7.32707 13.5946 7.32026 13.5673 7.31345 13.5469C7.21125 13.5878 7.11587 13.6354 7.01367 13.6763C7.04092 13.7853 7.06136 13.8875 7.08862 13.9965Z" fill="#FFEF55"/>
<path d="M4.69664 23.6579C4.86016 23.5898 4.81246 22.9085 4.64895 22.9221C3.15008 23.0175 1.65803 23.1742 0.159158 22.9902C0.159158 23.0992 0.152344 23.2014 0.152344 23.3104C0.152344 23.3717 0.159158 23.4331 0.159158 23.4944C1.66484 24.0735 3.20459 24.2711 4.69664 23.6579Z" fill="#FFEF55"/>
<path d="M10.4479 13.1629C10.6115 14.2257 10.7886 15.3362 11.0271 16.3105C11.1224 16.6988 11.2928 17.4891 11.4835 17.5505C11.5653 17.5777 11.6266 17.5028 11.6675 17.3188C11.722 17.0327 11.6539 16.7397 11.5925 16.4876C11.3677 15.4793 11.0884 14.5459 10.8635 13.5308C10.7886 13.2037 10.7273 12.8563 10.6591 12.5156C10.5569 12.5361 10.4616 12.5565 10.3594 12.5769C10.3934 12.7745 10.4207 12.9721 10.4479 13.1629Z" fill="#FFEF55"/>
<path d="M19.6243 30.8368C19.4335 30.0056 19.2428 29.1608 19.0247 28.3773C18.9089 27.9753 18.7863 27.5801 18.6568 27.2054C18.5478 26.8988 18.4252 26.4696 18.2549 26.4083C18.214 26.3947 18.1867 26.4492 18.1799 26.5582C18.1731 26.9942 18.3094 27.3826 18.3843 27.7505C18.4797 28.1933 18.5751 28.6362 18.6637 29.0858C18.8476 29.9647 19.0248 30.8368 19.2155 31.7089C19.3041 32.104 19.3858 32.506 19.4812 32.8943C19.6788 32.8194 19.8696 32.7376 20.0603 32.6491C19.9173 32.0563 19.7674 31.45 19.6243 30.8368Z" fill="#FFEF55"/>
<path d="M15.9258 31.5372C15.8577 30.6515 15.7827 29.7658 15.6873 28.8937C15.626 28.3146 15.5306 27.3608 15.2717 27.1905C15.2445 27.1769 15.224 27.2109 15.2172 27.2722C15.1832 27.5856 15.2172 27.8582 15.2513 28.1647C15.2922 28.5395 15.3194 28.9346 15.3467 29.3162C15.408 30.1678 15.4421 31.0262 15.4898 31.8847C15.5238 32.5455 15.5511 33.2064 15.5783 33.8673C15.735 33.8468 15.8917 33.8264 16.0484 33.8059C16.0212 33.0429 15.9803 32.2866 15.9258 31.5372Z" fill="#FFEF55"/>
<path d="M23.3311 28.5878C22.6907 27.3137 22.0434 26.0806 21.4643 24.6158C21.4166 24.5 21.3553 24.6771 21.3962 24.7997C22.0094 26.4962 22.6089 28.2199 23.2902 29.746C23.3924 29.9776 23.4946 30.1957 23.5968 30.4205C23.7603 30.2774 23.9238 30.1275 24.0805 29.9708C23.8217 29.5212 23.5764 29.0647 23.3311 28.5878Z" fill="#FFEF55"/>
<path d="M27.0899 24.1435C27.0422 24.1299 26.9946 24.1094 26.9469 24.089C26.504 23.9255 26.0612 23.762 25.6115 23.5984C24.7394 23.2714 23.8606 22.8354 22.9817 22.6719C22.9749 22.6719 22.9749 22.6923 22.9817 22.6923C23.7924 23.653 24.6917 24.2457 25.557 24.7567C25.9794 25.0087 26.4086 25.22 26.8379 25.3971C26.9469 24.9815 27.0354 24.5659 27.0899 24.1435Z" fill="#FFEF55"/>
<path d="M15.8713 16.975C15.8781 16.975 15.8781 16.975 15.8713 16.975C16.0007 16.8932 16.0757 16.539 16.1438 16.2801C16.2392 15.9258 16.321 15.5238 16.3959 15.1355C16.5594 14.2906 16.6889 13.4118 16.8183 12.5261C16.648 12.492 16.4777 12.4648 16.3073 12.4375C16.2119 13.1665 16.1098 13.8955 16.0144 14.6313C15.9599 15.0741 15.9054 15.5374 15.8713 15.9939C15.8577 16.3073 15.8168 16.682 15.8713 16.975Z" fill="#FFEF55"/>
<path d="M22.5875 18.8616C22.4104 19.0387 22.3014 19.2704 22.1447 19.5361C22.1243 19.5701 22.1311 19.6792 22.1583 19.6723C22.3355 19.6247 22.4853 19.6247 22.6625 19.4952C22.8464 19.3589 23.0304 19.2295 23.2143 19.1001C23.5686 18.848 23.9297 18.5959 24.284 18.3574C24.6451 18.1258 25.0198 17.9146 25.3877 17.6829C25.1969 17.4172 24.9994 17.1583 24.7813 16.9062C24.5906 17.0561 24.3998 17.2128 24.209 17.3695C23.8411 17.6693 23.4801 17.9827 23.119 18.3302C22.9486 18.4937 22.7715 18.6776 22.5875 18.8616Z" fill="#FFEF55"/>
<path d="M19.6992 16.8993C19.8355 16.5722 19.9581 16.2384 20.0876 15.8977C20.3465 15.2233 20.5986 14.5556 20.8506 13.8811C20.7008 13.8061 20.5441 13.7312 20.3874 13.6562C20.1216 14.4329 19.8628 15.2369 19.6175 16.0613C19.5085 16.4428 19.1338 17.3966 19.4403 17.7577C19.4403 17.7577 19.4472 17.7577 19.4403 17.7509C19.3995 17.5192 19.6447 17.0287 19.6992 16.8993Z" fill="#FFEF55"/>
<path d="M13.7231 16.1733C13.7299 15.8804 13.7572 15.601 13.7572 15.3081C13.764 15.0015 13.7572 14.7017 13.7435 14.3951C13.7299 13.8228 13.7027 13.2573 13.6958 12.685C13.6958 12.5351 13.689 12.3853 13.689 12.2422C13.6277 12.2422 13.5596 12.2422 13.4983 12.2422C13.4233 12.2422 13.3484 12.249 13.2734 12.249C13.2734 12.2967 13.2734 12.3376 13.2734 12.3853C13.2734 13.0325 13.2734 13.6797 13.2939 14.327C13.3075 14.6676 13.3211 15.0015 13.3552 15.3353C13.3893 15.6623 13.4438 15.9553 13.4915 16.2755C13.5255 16.5821 13.7095 16.4731 13.7231 16.1733Z" fill="#FFEF55"/>
<path d="M24.2642 22.4636C24.3255 26.8649 19.6245 30.5098 13.7585 30.5916C7.89245 30.6734 3.08925 27.1715 3.02794 22.7702C2.96662 18.369 7.66762 14.724 13.5336 14.6423C19.3929 14.5537 24.2029 18.0556 24.2642 22.4636Z" fill="#CA6430"/>
<path d="M13.5547 16.3532C8.07703 16.4281 3.61449 19.6098 3.10352 23.6227C3.73032 27.6151 8.28143 30.6674 13.7591 30.5924C19.2368 30.5175 23.6993 27.3358 24.2103 23.3229C23.5903 19.3237 19.0392 16.2714 13.5547 16.3532Z" fill="#FFA030"/>
<path d="M18.7673 25.6143C18.1901 25.1639 17.5577 24.7935 16.8971 24.5187L16.8349 24.4918C16.4182 24.3223 15.994 24.1916 15.5691 24.1017L15.4078 24.0706C15.3784 24.0645 15.3498 24.0481 15.3282 24.0249L15.3251 24.0125L13.4858 21.4333L11.6724 18.8895C11.6614 18.8736 11.6542 18.8562 11.6515 18.8389C11.6487 18.8216 11.6504 18.805 11.6565 18.7905C11.6625 18.7759 11.6727 18.7639 11.6862 18.7555C11.6997 18.7471 11.716 18.7425 11.7338 18.7422H14.026C14.0468 18.7424 14.0686 18.7483 14.0887 18.7594C14.1088 18.7704 14.1265 18.786 14.1396 18.8044L18.9132 25.4981C18.9292 25.5203 18.9375 25.5453 18.9367 25.5688C18.936 25.5923 18.9261 25.6128 18.909 25.6267C18.8918 25.6405 18.8685 25.6469 18.8429 25.6446C18.8174 25.6424 18.7914 25.6316 18.7695 25.6143" fill="#B08300"/>
<path d="M10.4115 25.6143C10.7643 25.1634 11.2128 24.7929 11.7376 24.5187L11.7841 24.4918C12.1163 24.3223 12.4754 24.1916 12.8554 24.1017L13.0012 24.0706C13.0282 24.0646 13.0493 24.0483 13.0601 24.0249L13.057 24.0125L13.6102 21.4334L14.1552 18.8895C14.1588 18.8736 14.1577 18.8561 14.1521 18.8386C14.1464 18.8211 14.1364 18.8042 14.123 18.7895C14.1095 18.7748 14.093 18.7628 14.0751 18.7545C14.0571 18.7462 14.0383 18.742 14.0203 18.7422H11.7238C11.7031 18.7424 11.6844 18.7483 11.6697 18.7594C11.6551 18.7704 11.6452 18.786 11.6413 18.8044L10.2098 25.4981C10.2048 25.5203 10.209 25.5453 10.2215 25.5688C10.234 25.5923 10.254 25.6128 10.2781 25.6267C10.3022 25.6405 10.3287 25.6469 10.3531 25.6446C10.3775 25.6424 10.3982 25.6316 10.4115 25.6143Z" fill="#B08300"/>
<path d="M20.2304 27.3542L20.1876 27.3023L20.184 27.2878C19.6073 26.5695 18.9 25.9423 18.1097 25.4481C17.3194 24.9539 16.4642 24.6042 15.6015 24.4223C14.6925 24.2342 13.7982 24.2342 12.983 24.4223C11.7339 24.7199 10.7394 25.4528 10.1675 26.4973C10.0328 26.7434 9.92326 27.0051 9.84013 27.2795L9.84375 27.294L9.82683 27.3459C9.82233 27.3618 9.82267 27.3796 9.82782 27.3975C9.83297 27.4154 9.84275 27.4328 9.85621 27.4481C9.86968 27.4633 9.88637 27.4759 9.90465 27.4845C9.92294 27.4932 9.9422 27.4976 9.96056 27.4974H12.3168C12.3456 27.4973 12.3704 27.4861 12.3858 27.4662C12.6458 27.1163 12.9925 26.8381 13.4052 26.648C13.818 26.4579 14.2883 26.36 14.7882 26.36C15.288 26.36 15.8072 26.4579 16.3147 26.648C16.8223 26.8381 17.3077 27.1163 17.7422 27.4662C17.7546 27.4763 17.7685 27.4842 17.7831 27.4896C17.7976 27.4949 17.8125 27.4976 17.8267 27.4974H20.1851C20.2033 27.4976 20.2202 27.4933 20.2339 27.4847C20.2477 27.4762 20.258 27.4638 20.2637 27.4487C20.2694 27.4336 20.2704 27.4164 20.2665 27.3987C20.2627 27.3811 20.2541 27.3636 20.2417 27.348" fill="#B08300"/>
<path d="M18.1326 25.3018C17.5554 24.8514 16.923 24.481 16.2623 24.2062L16.2001 24.1793C15.7835 24.0098 15.3592 23.8791 14.9344 23.7892L14.7731 23.7581C14.7436 23.752 14.7151 23.7356 14.6935 23.7124L14.6904 23.7L12.8511 21.1208L11.0376 18.577C11.0267 18.5611 11.0195 18.5437 11.0167 18.5264C11.0139 18.5091 11.0156 18.4925 11.0217 18.478C11.0278 18.4634 11.038 18.4514 11.0515 18.443C11.0649 18.4346 11.0813 18.43 11.099 18.4297H13.3912C13.412 18.4299 13.4338 18.4358 13.4539 18.4469C13.4741 18.4579 13.4917 18.4735 13.5049 18.4919L18.2785 25.1856C18.2944 25.2078 18.3028 25.2328 18.302 25.2563C18.3012 25.2798 18.2914 25.3003 18.2742 25.3142C18.2571 25.328 18.2337 25.3344 18.2082 25.3321C18.1827 25.3299 18.1566 25.3191 18.1347 25.3018" fill="#FFD866"/>
<path d="M9.77474 25.3018C10.1276 24.8509 10.5761 24.4804 11.1008 24.2062L11.1474 24.1793C11.4796 24.0098 11.8386 23.8791 12.2187 23.7892L12.3644 23.7581C12.3915 23.7521 12.4126 23.7358 12.4234 23.7124L12.4203 23.7L12.9735 21.1209L13.5185 18.577C13.5221 18.5611 13.521 18.5436 13.5154 18.5261C13.5097 18.5086 13.4997 18.4917 13.4862 18.477C13.4728 18.4623 13.4563 18.4503 13.4384 18.442C13.4204 18.4337 13.4016 18.4295 13.3836 18.4297H11.0871C11.0664 18.4299 11.0476 18.4358 11.033 18.4469C11.0184 18.4579 11.0085 18.4735 11.0045 18.4919L9.57305 25.1856C9.56813 25.2078 9.57228 25.2328 9.58478 25.2563C9.59728 25.2798 9.61732 25.3003 9.64139 25.3142C9.66546 25.328 9.69202 25.3344 9.7164 25.3321C9.74079 25.3299 9.76144 25.3191 9.77474 25.3018Z" fill="#FFD866"/>
<path d="M19.5937 27.0417L19.5509 26.9898L19.5473 26.9753C18.9705 26.257 18.2633 25.6298 17.473 25.1356C16.6827 24.6414 15.8275 24.2917 14.9648 24.1098C14.0558 23.9217 13.1615 23.9217 12.3463 24.1098C11.0972 24.4074 10.1027 25.1403 9.5308 26.1848C9.39605 26.4309 9.28654 26.6926 9.20341 26.967L9.20704 26.9815L9.19011 27.0334C9.18561 27.0493 9.18595 27.0671 9.1911 27.085C9.19625 27.1029 9.20603 27.1203 9.21949 27.1356C9.23296 27.1508 9.24965 27.1634 9.26794 27.172C9.28622 27.1807 9.30548 27.1851 9.32384 27.1849H11.6801C11.7089 27.1848 11.7337 27.1736 11.7491 27.1537C12.0091 26.8038 12.3558 26.5256 12.7685 26.3355C13.1813 26.1454 13.6516 26.0475 14.1515 26.0475C14.6513 26.0475 15.1705 26.1454 15.678 26.3355C16.1855 26.5256 16.671 26.8038 17.1055 27.1537C17.1179 27.1638 17.1318 27.1717 17.1464 27.1771C17.1609 27.1824 17.1758 27.1851 17.19 27.1849H19.5484C19.5666 27.1851 19.5834 27.1808 19.5972 27.1722C19.611 27.1637 19.6213 27.1513 19.627 27.1362C19.6327 27.1211 19.6337 27.1039 19.6298 27.0862C19.6259 27.0686 19.6174 27.0511 19.605 27.0355" fill="#FFD866"/>
<path d="M47.2416 30.5198C48.5089 25.6826 45.77 19.8711 40.2991 16.5804C34.9713 13.3714 28.7442 13.5758 25.0243 16.7166L24.6564 16.485L23.3347 18.6107C23.2665 18.7197 23.1916 18.8219 23.1235 18.9377C20.0303 24.0815 22.7011 31.3715 29.0917 35.2208C35.4823 39.0634 43.1743 38.0142 46.2674 32.8635L47.5891 30.7379L47.2416 30.5198Z" fill="#CA6430"/>
<path d="M36.0507 33.4454C36.4663 32.7437 36.8887 32.0488 37.2975 31.3402C37.6041 30.8088 37.9652 30.2501 38.0878 29.7323C38.1014 29.6778 38.0742 29.6642 38.0333 29.6983C37.6381 30.0457 37.3043 30.6316 36.9841 31.1494C36.5549 31.8376 36.1325 32.5393 35.7101 33.2342C34.9402 34.5015 34.1771 35.7687 33.4141 37.0359C33.5571 37.07 33.7002 37.104 33.8433 37.1381C34.5723 35.9118 35.3149 34.6786 36.0507 33.4454Z" fill="#FFA030"/>
<path d="M44.7931 32.9689C45.2087 32.2671 45.6311 31.5722 46.0399 30.8636C46.3465 30.3322 46.7076 29.7736 46.8302 29.2558C46.8439 29.2013 46.8166 29.1876 46.7757 29.2217C46.3806 29.5692 46.0467 30.1551 45.7265 30.6729C45.2973 31.361 44.8749 32.0627 44.4525 32.7577C43.703 33.984 42.9672 35.2104 42.2246 36.4367C42.4699 36.3209 42.7015 36.1983 42.9332 36.0688C43.5532 35.04 44.1731 34.0045 44.7931 32.9689Z" fill="#FFA030"/>
<path d="M40.6633 33.5548C41.0789 32.8531 41.5013 32.1581 41.91 31.4496C42.2166 30.9182 42.5777 30.3595 42.7004 29.8417C42.714 29.7872 42.6867 29.7736 42.6459 29.8076C42.2507 30.1551 41.9169 30.741 41.5966 31.2588C41.1674 31.9469 40.745 32.6487 40.3226 33.3436C39.4778 34.7267 38.6466 36.1165 37.8086 37.4996C37.9789 37.4927 38.1492 37.4791 38.3196 37.4655C39.1031 36.1642 39.8934 34.8629 40.6633 33.5548Z" fill="#FFA030"/>
<path d="M31.766 32.6017C32.1816 31.8999 32.604 31.205 33.0128 30.4965C33.3194 29.965 33.6805 29.4064 33.8031 28.8886C33.8167 28.8341 33.7895 28.8204 33.7486 28.8545C33.3535 29.202 33.0196 29.7879 32.6994 30.3057C32.2702 30.9938 31.8478 31.6955 31.4254 32.3905C30.7986 33.4192 30.1786 34.448 29.5586 35.4768C29.6812 35.5449 29.8039 35.613 29.9265 35.6744C30.5329 34.6524 31.1528 33.6305 31.766 32.6017Z" fill="#FFA030"/>
<path d="M23.1343 22.7345C23.5499 22.0328 23.9723 21.3378 24.3811 20.6293C24.6877 20.0978 25.0488 19.5392 25.1714 19.0214C25.185 18.9669 25.1578 18.9533 25.1169 18.9873C24.7218 19.3348 24.3879 19.9207 24.0677 20.4385C23.6385 21.1266 23.2161 21.8284 22.7937 22.5233C22.4735 23.0479 22.1601 23.5725 21.8398 24.0971C21.8467 24.3356 21.8671 24.5672 21.8943 24.8057C22.3099 24.1244 22.7255 23.4294 23.1343 22.7345Z" fill="#FFA030"/>
<path d="M28.1962 29.5157C28.6118 28.814 29.0342 28.1191 29.4429 27.4105C29.7495 26.8791 30.1106 26.3204 30.2333 25.8026C30.2469 25.7481 30.2196 25.7345 30.1788 25.7686C29.7836 26.116 29.4498 26.702 29.1295 27.2198C28.7003 27.9079 28.2779 28.6096 27.8555 29.3045C27.1742 30.4151 26.5065 31.5324 25.832 32.6497C25.9342 32.7519 26.0364 32.8473 26.1386 32.9495C26.8199 31.8117 27.5149 30.6671 28.1962 29.5157Z" fill="#FFA030"/>
<path d="M25.3549 26.0782C25.7705 25.3765 26.1929 24.6816 26.6017 23.973C26.9083 23.4416 27.2694 22.8829 27.392 22.3651C27.4056 22.3106 27.3784 22.297 27.3375 22.3311C26.9423 22.6785 26.6085 23.2645 26.2883 23.7823C25.8591 24.4704 25.4367 25.1721 25.0143 25.867C24.3875 26.889 23.7743 27.9178 23.1543 28.9465C23.2292 29.0896 23.3042 29.2327 23.3791 29.3758C24.0332 28.2789 24.7009 27.182 25.3549 26.0782Z" fill="#FFA030"/>
<path d="M47.617 30.6786C50.7134 25.5332 48.0435 18.2449 41.6537 14.3997C35.2639 10.5545 27.5739 11.6084 24.4775 16.7538C21.3812 21.8992 24.051 29.1875 30.4408 33.0327C36.8306 36.8779 44.5207 35.8239 47.617 30.6786Z" fill="#FFD230"/>
<path d="M24.9123 24.0191C25.4846 23.6444 26.0569 23.2833 26.6224 22.929C26.9017 22.7587 27.181 22.5884 27.4604 22.4044C27.5898 22.3227 27.7193 22.2477 27.8487 22.1591C28.0736 22.0024 28.312 21.7776 28.5164 21.7231C28.5505 21.7163 28.5709 21.6345 28.5368 21.6618C28.2303 21.8594 27.9509 21.8117 27.6716 21.9139C27.4195 22.0024 27.1606 22.1046 26.8949 22.2273C26.3362 22.4794 25.7707 22.7723 25.1916 23.0993C24.6466 23.4059 24.0811 23.767 23.5156 24.1281C23.5769 24.3666 23.6383 24.605 23.7132 24.8367C24.1152 24.5573 24.5171 24.2848 24.9123 24.0191Z" fill="#FFEF55"/>
<path d="M30.7035 12.9169C30.5673 13.5709 30.5605 14.1228 30.5809 14.6406C30.6013 15.1856 30.649 15.7034 30.7171 16.1939C30.7853 16.6981 30.8738 17.1955 31.1259 17.4612C31.2213 17.5565 31.4666 17.175 31.4734 16.9979C31.4938 16.4665 31.3848 16.0577 31.3031 15.6216C31.2213 15.172 31.16 14.7019 31.1191 14.2113C31.0782 13.7549 31.0305 13.2916 31.0987 12.7329C31.1123 12.5966 31.1464 12.4468 31.1736 12.2969C31.0578 12.3173 30.9488 12.3446 30.833 12.365C30.7853 12.5762 30.7376 12.767 30.7035 12.9169Z" fill="#FFEF55"/>
<path d="M29.0066 30.9121C29.6266 30.0741 30.2398 29.2293 30.8461 28.3709C31.1323 27.9689 31.4184 27.5601 31.7046 27.1581C31.8068 27.0082 31.9158 26.8652 32.018 26.7153C32.1202 26.5722 32.2155 26.3951 32.3109 26.2588C32.3859 26.1566 32.3791 26.0544 32.3041 26.1089C32.0725 26.2724 31.9567 26.3406 31.6978 26.6403C31.3912 26.9946 31.0914 27.3898 30.7916 27.7645C30.158 28.5684 29.5244 29.3724 28.8976 30.1899C28.6183 30.5578 28.3457 30.9257 28.0664 31.2936C28.1959 31.4095 28.3321 31.5185 28.4684 31.6343C28.6523 31.3958 28.8295 31.1506 29.0066 30.9121Z" fill="#FFEF55"/>
<path d="M27.3185 27.5753C27.8635 26.9621 28.4153 26.3626 28.9536 25.7426C29.1988 25.4632 29.4441 25.1771 29.6826 24.8841C29.9619 24.5435 30.1527 24.2369 30.3911 23.8622C30.4524 23.7668 30.4184 23.7191 30.3639 23.7532C30.0914 23.9303 29.8665 24.087 29.5668 24.3731C29.3147 24.6184 29.0558 24.8841 28.7969 25.1498C28.2655 25.7017 27.7409 26.2808 27.2094 26.8395C26.6712 27.4118 26.133 27.9909 25.6016 28.5972C25.7106 28.7539 25.8264 28.9106 25.949 29.0673C26.4123 28.5836 26.8688 28.0863 27.3185 27.5753Z" fill="#FFEF55"/>
<path d="M35.2833 12.4941C35.0789 13.0868 34.8949 13.6727 34.7382 14.245C34.418 15.4237 34.2136 16.5206 34.2954 17.3586C34.3226 17.6175 34.7314 17.2632 34.7859 16.9089C34.9494 15.9074 35.0653 14.94 35.2833 13.8976C35.3923 13.3866 35.5217 12.8484 35.6853 12.3033C35.6921 12.2829 35.6989 12.2556 35.7057 12.2352C35.5967 12.2216 35.4877 12.2011 35.3855 12.1875C35.3582 12.2897 35.3173 12.3919 35.2833 12.4941Z" fill="#FFEF55"/>
<path d="M28.1495 19.448C28.3266 19.4753 28.64 18.8758 28.4969 18.794C27.1752 18.0786 25.8262 17.4314 24.6476 16.4844C24.5931 16.5729 24.5317 16.6615 24.4772 16.7501C24.4432 16.8046 24.4159 16.8523 24.3887 16.9068C25.3629 18.2013 26.562 19.1755 28.1495 19.448Z" fill="#FFEF55"/>
<path d="M38.5742 13.5617C38.145 14.5496 37.7157 15.592 37.4091 16.539C37.2865 16.9137 37.014 17.6836 37.1434 17.8334C37.1979 17.8948 37.2933 17.8675 37.416 17.7381C37.6135 17.5269 37.7089 17.2339 37.7907 16.9954C38.1313 16.0212 38.3834 15.081 38.7309 14.0999C38.8467 13.7797 38.9693 13.4595 39.092 13.1324C38.9966 13.0984 38.9012 13.0575 38.8058 13.0234C38.7309 13.2074 38.6491 13.3845 38.5742 13.5617Z" fill="#FFEF55"/>
<path d="M37.0468 33.4189C37.3193 32.6082 37.6122 31.7974 37.8371 31.0071C37.9529 30.6051 38.0619 30.2032 38.1437 29.8216C38.2118 29.5014 38.3344 29.079 38.2254 28.9359C38.1982 28.9019 38.1437 28.9291 38.0823 29.0245C37.8507 29.3856 37.7553 29.7944 37.6327 30.1418C37.4828 30.5711 37.3261 30.9935 37.1694 31.4227C36.8628 32.2607 36.5562 33.1055 36.2496 33.9435C36.1134 34.325 35.9771 34.7134 35.8477 35.0881C36.0589 35.129 36.2633 35.163 36.4676 35.1903C36.6516 34.6112 36.8424 34.0185 37.0468 33.4189Z" fill="#FFEF55"/>
<path d="M33.5252 32.0602C33.934 31.2767 34.3359 30.4795 34.7175 29.6892C34.9695 29.1646 35.3988 28.2994 35.2625 28.02C35.2489 27.9928 35.208 28.0132 35.1739 28.0609C34.9763 28.3062 34.8673 28.5582 34.7311 28.8376C34.5676 29.1782 34.3836 29.5257 34.2065 29.8664C33.8113 30.6226 33.3889 31.372 32.9733 32.1215C32.6531 32.7006 32.3261 33.2729 32.0059 33.852C32.1489 33.9201 32.292 33.9814 32.4419 34.0496C32.8166 33.3887 33.1777 32.7278 33.5252 32.0602Z" fill="#FFEF55"/>
<path d="M41.3803 33.4595C41.503 32.0355 41.612 30.6525 41.8913 29.0991C41.9118 28.9765 41.7619 29.0923 41.7414 29.2149C41.3667 30.9795 40.9647 32.7645 40.7399 34.4133C40.7058 34.6586 40.6786 34.9038 40.6445 35.1491C40.8625 35.115 41.0806 35.0742 41.2918 35.0265C41.3054 34.5155 41.3326 33.9977 41.3803 33.4595Z" fill="#FFEF55"/>
<path d="M46.9186 31.6633C46.8845 31.6225 46.8573 31.5816 46.8232 31.5475C46.5302 31.1728 46.2373 30.8049 45.9511 30.4234C45.3856 29.6807 44.8679 28.8495 44.207 28.25C44.207 28.25 44.1934 28.2636 44.1934 28.2704C44.3773 29.5104 44.827 30.4915 45.2903 31.3772C45.5219 31.8132 45.7672 32.222 46.0397 32.5967C46.3599 32.3106 46.6461 31.9972 46.9186 31.6633Z" fill="#FFEF55"/>
<path d="M41.1758 19.6558C41.1758 19.6626 41.1758 19.6626 41.1758 19.6558C41.3257 19.6558 41.5778 19.3901 41.7753 19.2061C42.0479 18.954 42.3272 18.6611 42.5929 18.3681C43.1788 17.7345 43.7511 17.06 44.3302 16.3787C44.2008 16.2629 44.0713 16.1471 43.9419 16.0312C43.4718 16.5967 43.0017 17.169 42.5384 17.7413C42.2591 18.0888 41.9729 18.4567 41.7004 18.8246C41.5164 19.0835 41.278 19.3765 41.1758 19.6558Z" fill="#FFEF55"/>
<path d="M45.8822 24.8177C45.6369 24.879 45.4189 25.0152 45.1532 25.1583C45.1191 25.1788 45.0646 25.2741 45.0987 25.281C45.2758 25.3355 45.4053 25.4104 45.6165 25.3968C45.8481 25.3763 46.0729 25.3627 46.2978 25.3559C46.7338 25.3286 47.1698 25.3014 47.5991 25.2946C48.0283 25.2878 48.4575 25.3082 48.8867 25.3014C48.8663 24.9744 48.8322 24.6473 48.7845 24.3203C48.5393 24.3476 48.294 24.3748 48.0555 24.4089C47.5854 24.4702 47.1153 24.5451 46.6248 24.6473C46.3727 24.695 46.1274 24.7495 45.8822 24.8177Z" fill="#FFEF55"/>
<path d="M44.4666 21.6121C44.7527 21.4077 45.0389 21.1897 45.325 20.9717C45.8973 20.5357 46.4696 20.1064 47.0419 19.6636C46.9533 19.5205 46.8648 19.3774 46.7694 19.2344C46.1358 19.7522 45.4885 20.304 44.8481 20.8695C44.5552 21.1352 43.7308 21.7484 43.7989 22.2185C43.7989 22.2185 43.8057 22.2185 43.8057 22.2117C43.8807 21.98 44.3508 21.6939 44.4666 21.6121Z" fill="#FFEF55"/>
<path d="M39.7644 17.8581C39.928 17.6128 40.0915 17.388 40.2482 17.1427C40.4117 16.8838 40.5684 16.6249 40.7183 16.3592C41.0044 15.8687 41.2837 15.3713 41.5767 14.8808C41.6517 14.7514 41.7266 14.6287 41.8084 14.4993C41.7538 14.4652 41.6993 14.4311 41.6448 14.3971C41.5767 14.3562 41.5154 14.3221 41.4473 14.2812C41.42 14.3221 41.3996 14.3562 41.3723 14.3971C41.0317 14.9421 40.6842 15.494 40.364 16.0526C40.1937 16.3524 40.0301 16.6386 39.8803 16.9451C39.7372 17.2381 39.6282 17.5174 39.4987 17.8104C39.3897 18.0966 39.6009 18.1034 39.7644 17.8581Z" fill="#FFEF55"/>
<path d="M45.4005 28.7587C47.6724 24.9835 45.4422 19.4728 40.4193 16.4502C35.3965 13.4275 29.483 14.0376 27.2112 17.8128C24.9393 21.588 27.1695 27.0988 32.1923 30.1214C37.2152 33.144 43.1287 32.5339 45.4005 28.7587Z" fill="#CA6430"/>
<path d="M39.5353 17.908C34.8411 15.0806 29.3703 15.428 26.8222 18.5688C25.2484 22.2888 27.5035 27.2895 32.1977 30.1101C36.8919 32.9375 42.3627 32.5901 44.9108 29.4493C46.4846 25.7293 44.2295 20.7354 39.5353 17.908Z" fill="#FFA030"/>
<path d="M41.0108 24.4874C40.3526 24.1668 39.657 23.936 38.9536 23.8046L38.8872 23.7911C38.4444 23.712 38.0023 23.6724 37.568 23.6727L37.4037 23.6758C37.3737 23.676 37.3424 23.666 37.3164 23.6477L37.3108 23.6362L34.9754 21.4959L32.6727 19.3846C32.6587 19.3713 32.6481 19.3558 32.6417 19.3395C32.6354 19.3232 32.6337 19.3066 32.6366 19.2911C32.6395 19.2756 32.647 19.2617 32.6584 19.2507C32.6698 19.2396 32.6848 19.2318 32.7021 19.2278L34.9443 18.7512C34.9647 18.7471 34.9872 18.7484 35.0092 18.755C35.0312 18.7616 35.0517 18.7732 35.0684 18.7885L41.1293 24.3434C41.1496 24.3617 41.1629 24.3845 41.167 24.4076C41.1712 24.4308 41.1658 24.4529 41.1519 24.47C41.138 24.4871 41.1165 24.4982 41.0911 24.5013C41.0656 24.5044 41.038 24.4993 41.0129 24.4869" fill="#B08300"/>
<path d="M32.8359 26.2262C33.0873 25.7118 33.449 25.2562 33.9053 24.8789L33.9452 24.8428C34.2349 24.608 34.5589 24.4055 34.912 24.2385L35.0481 24.1778C35.0733 24.1663 35.0905 24.146 35.0963 24.1209L35.0907 24.1093L35.0955 21.4716L35.0997 18.87C35.0999 18.8537 35.0952 18.8368 35.0861 18.8209C35.0769 18.8049 35.0636 18.7905 35.0474 18.7789C35.0312 18.7673 35.0125 18.7589 34.9933 18.7546C34.974 18.7502 34.9547 18.75 34.9372 18.7539L32.6908 19.2314C32.6706 19.2359 32.6535 19.2456 32.6415 19.2595C32.6295 19.2733 32.6231 19.2907 32.623 19.3095L32.6145 26.1545C32.6143 26.1772 32.6236 26.2008 32.6407 26.2212C32.6578 26.2416 32.6816 26.2575 32.7081 26.266C32.7345 26.2746 32.7618 26.2753 32.7852 26.268C32.8086 26.2607 32.8265 26.2459 32.8359 26.2262Z" fill="#B08300"/>
<path d="M42.8008 25.8767L42.7482 25.8349L42.7416 25.8214C42.0281 25.2388 41.2059 24.7723 40.3301 24.4532C39.4543 24.1341 38.5451 23.9698 37.6635 23.9713C36.7352 23.9763 35.8605 24.1623 35.1022 24.5158C33.9423 25.0666 33.1219 25.9902 32.7796 27.1307C32.699 27.3995 32.6463 27.6782 32.622 27.9639L32.6286 27.9774L32.6228 28.0316C32.6217 28.0481 32.6258 28.0654 32.6345 28.0819C32.6433 28.0983 32.6565 28.1133 32.6728 28.1255C32.6892 28.1376 32.7081 28.1464 32.7278 28.151C32.7475 28.1557 32.7672 28.156 32.7851 28.152L35.0899 27.6621C35.118 27.6561 35.14 27.6399 35.1509 27.6173C35.3324 27.221 35.6137 26.8767 35.9779 26.605C36.3421 26.3333 36.7818 26.1397 37.2708 26.0357C37.7597 25.9318 38.2879 25.9197 38.8239 26.0001C39.3598 26.0805 39.8925 26.2517 40.3903 26.5037C40.4045 26.5109 40.4198 26.5157 40.4351 26.518C40.4504 26.5202 40.4655 26.5197 40.4794 26.5165L42.7862 26.0262C42.8041 26.0227 42.8197 26.0149 42.8314 26.0037C42.8431 25.9925 42.8505 25.9782 42.853 25.9623C42.8554 25.9463 42.8528 25.9293 42.8454 25.9128C42.8379 25.8963 42.8259 25.881 42.8105 25.8683" fill="#B08300"/>
<path d="M40.3252 24.3155C39.667 23.9949 38.9714 23.7641 38.2681 23.6327L38.2017 23.6193C37.7589 23.5402 37.3167 23.5005 36.8824 23.5009L36.7182 23.504C36.6881 23.5042 36.6568 23.4941 36.6308 23.4759L36.6252 23.4643L34.2899 21.324L31.9872 19.2128C31.9732 19.1995 31.9625 19.184 31.9562 19.1676C31.9499 19.1513 31.9481 19.1347 31.951 19.1192C31.9539 19.1037 31.9614 19.0898 31.9728 19.0788C31.9843 19.0678 31.9993 19.0599 32.0166 19.0559L34.2587 18.5793C34.2791 18.5752 34.3016 18.5765 34.3236 18.5831C34.3456 18.5897 34.3661 18.6013 34.3828 18.6166L40.4438 24.1715C40.464 24.1899 40.4774 24.2126 40.4815 24.2358C40.4856 24.2589 40.4803 24.281 40.4664 24.2981C40.4525 24.3153 40.4309 24.3264 40.4055 24.3294C40.3801 24.3325 40.3524 24.3274 40.3273 24.315" fill="#FFD866"/>
<path d="M32.1504 26.0543C32.4018 25.5399 32.7634 25.0843 33.2197 24.707L33.2597 24.6709C33.5494 24.4362 33.8734 24.2336 34.2264 24.0667L34.3625 24.0059C34.3878 23.9944 34.405 23.9741 34.4107 23.949L34.4051 23.9375L34.41 21.2997L34.4141 18.6981C34.4143 18.6818 34.4097 18.6649 34.4005 18.649C34.3914 18.6331 34.3781 18.6186 34.3618 18.607C34.3456 18.5954 34.327 18.5871 34.3077 18.5827C34.2884 18.5783 34.2691 18.5781 34.2516 18.5821L32.0053 19.0595C31.9851 19.064 31.9679 19.0738 31.9559 19.0876C31.9439 19.1014 31.9375 19.1188 31.9375 19.1376L31.9289 25.9826C31.9287 26.0053 31.938 26.0289 31.9551 26.0493C31.9722 26.0697 31.9961 26.0856 32.0225 26.0942C32.0489 26.1027 32.0762 26.1034 32.0996 26.0961C32.123 26.0889 32.141 26.0741 32.1504 26.0543Z" fill="#FFD866"/>
<path d="M42.1153 25.7049L42.0626 25.663L42.0561 25.6496C41.3426 25.0669 40.5204 24.6004 39.6446 24.2813C38.7688 23.9623 37.8596 23.798 36.9779 23.7995C36.0497 23.8045 35.175 23.9904 34.4167 24.3439C33.2567 24.8947 32.4363 25.8183 32.0941 26.9588C32.0135 27.2277 31.9607 27.5064 31.9365 27.792L31.9431 27.8055L31.9373 27.8598C31.9362 27.8763 31.9402 27.8936 31.949 27.91C31.9577 27.9265 31.9709 27.9415 31.9873 27.9536C32.0036 27.9657 32.0225 27.9745 32.0422 27.9792C32.0619 27.9838 32.0817 27.9841 32.0996 27.9801L34.4043 27.4902C34.4325 27.4842 34.4544 27.4681 34.4653 27.4454C34.6469 27.0491 34.9282 26.7048 35.2924 26.4331C35.6566 26.1614 36.0963 25.9678 36.5852 25.8639C37.0742 25.7599 37.6024 25.7478 38.1383 25.8282C38.6743 25.9086 39.207 26.0799 39.7047 26.3318C39.7189 26.339 39.7342 26.3439 39.7495 26.3461C39.7649 26.3483 39.78 26.3478 39.7939 26.3446L42.1007 25.8543C42.1186 25.8508 42.1341 25.843 42.1458 25.8318C42.1576 25.8206 42.165 25.8063 42.1674 25.7904C42.1699 25.7745 42.1673 25.7574 42.1598 25.7409C42.1524 25.7244 42.1404 25.7091 42.125 25.6964" fill="#FFD866"/>
</g>
</svg>
