<svg width="40" height="37" viewBox="0 0 40 37" fill="none" xmlns="http://www.w3.org/2000/svg">
<path fill-rule="evenodd" clip-rule="evenodd" d="M0.0587503 36.6575L1.54461 33.2965C1.73023 32.878 2.00773 32.6475 2.3993 32.5155L7.37836 30.8282L14.9979 24.5335L20.0886 21.8281L26.7213 27.0398L29.9415 32.2648C30.1316 32.5716 30.4337 32.8244 30.8992 32.887L37.5745 33.7888C37.9862 33.8449 38.3152 34.0663 38.5254 34.4154L39.8972 36.6934C40.1187 37.0649 39.9666 37.235 39.5907 37.235H0.434531C0.0631253 37.2349 -0.0957809 37.0067 0.0587503 36.6575Z" fill="#4A80AA"/>
<path fill-rule="evenodd" clip-rule="evenodd" d="M26.4997 26.8662L26.7214 27.0407L29.9416 32.2657C30.0825 32.4963 30.2884 32.6954 30.5794 32.8075L28.9256 32.5657C28.4603 32.4986 28.1581 32.2278 27.9679 31.8989L25.2422 27.1504L26.4997 26.8662ZM34.3342 33.3511L37.5745 33.7896C37.9862 33.8457 38.3152 34.0672 38.5255 34.4162L39.8973 36.6943C40.1188 37.0657 39.9667 37.2358 39.5908 37.2358H37.617C37.993 37.2358 38.1473 37.0525 37.9237 36.6563L36.5519 34.2082C36.3414 33.8344 36.0126 33.595 35.6007 33.5346L34.3342 33.3511Z" fill="#407093"/>
<path fill-rule="evenodd" clip-rule="evenodd" d="M14.9978 24.5337L13.4582 9.63266L5.08896 5.21094L1.22217 13.6584L7.37826 30.8284L11.7218 31.4595L14.9978 24.5337Z" fill="#B3E59F"/>
<path fill-rule="evenodd" clip-rule="evenodd" d="M20.0889 21.8287L24.0362 3.87078L35.6412 0.710938L38.4831 11.3695L26.7216 27.0404L23.5619 27.2775L20.0889 21.8287Z" fill="#B3E59F"/>
<path fill-rule="evenodd" clip-rule="evenodd" d="M4.30127 37.2357L6.32416 34.5057C6.56135 34.1833 6.90158 34.0068 7.33119 34.029L13.5274 34.3377C13.9861 34.3625 14.2367 34.1968 14.4181 33.794L16.5127 29.1552C16.6804 28.7858 16.9511 28.674 17.3317 28.8754L21.1088 30.8872C21.4671 31.0775 21.7424 31.3818 21.8919 31.7757L22.3127 32.8832C22.4738 33.3107 22.7043 33.4516 23.1631 33.3913L26.0946 33.0041C26.4995 32.9506 26.8464 33.1072 27.0769 33.4426L27.7909 34.4811C28.046 34.8524 28.0773 35.2372 27.9632 35.6067L27.4707 37.2357H4.30127Z" fill="#407093"/>
<path fill-rule="evenodd" clip-rule="evenodd" d="M16.3921 29.4259L16.513 29.1552C16.6807 28.7858 16.9514 28.674 17.3319 28.8754L21.109 30.8872C21.4673 31.0775 21.7426 31.3818 21.8922 31.7757L22.313 32.8832C22.474 33.3107 22.7046 33.4516 23.1611 33.3913L21.297 33.6372C20.8408 33.6978 20.6147 33.5545 20.4465 33.1293L19.9186 31.7757C19.7665 31.3839 19.4935 31.0775 19.1376 30.8872L16.3921 29.4259ZM24.2307 33.2502L26.0947 33.0041C26.4997 32.9506 26.8466 33.1072 27.0771 33.4426L27.7911 34.4811C28.0462 34.8524 28.0775 35.2372 27.9634 35.6067L27.4709 37.2357H25.4974L25.9917 35.6067C26.1036 35.2372 26.0903 34.839 25.8173 34.4811L25.2131 33.6889C24.9669 33.3643 24.636 33.1966 24.2307 33.2502Z" fill="#365E7D"/>
<path fill-rule="evenodd" clip-rule="evenodd" d="M1.22217 13.6582L6.80756 14.2308L9.33404 21.2529L11.7218 31.4593L7.37826 30.8282L1.22217 13.6582Z" fill="#78C2A4"/>
<path fill-rule="evenodd" clip-rule="evenodd" d="M13.4582 9.63281L6.80762 14.2312L11.7218 31.4597L14.9979 24.5339L13.4582 9.63281Z" fill="#66B394"/>
<path fill-rule="evenodd" clip-rule="evenodd" d="M28.8318 8.9409L24.0362 3.87012L20.0889 21.8281L23.5619 27.2768L26.9879 17.1041L28.8318 8.9409Z" fill="#78C2A4"/>
<path fill-rule="evenodd" clip-rule="evenodd" d="M23.5615 27.2773L28.8314 8.94141L38.4827 11.3693L26.7212 27.0402L23.5615 27.2773Z" fill="#66B394"/>
<path fill-rule="evenodd" clip-rule="evenodd" d="M6.80746 14.231L5.08887 5.21094L13.4581 9.63266L6.80746 14.231Z" fill="#95D6A4"/>
<path fill-rule="evenodd" clip-rule="evenodd" d="M28.8315 8.94156L35.641 0.710938L38.4829 11.3695L28.8315 8.94156Z" fill="#95D6A4"/>
<path fill-rule="evenodd" clip-rule="evenodd" d="M13.7044 3.22853C14.9014 2.80103 16.0204 1.68205 16.4478 0.484941C16.5173 0.287988 16.6717 0.276816 16.7434 0.484941C17.166 1.68432 18.2916 2.79213 19.4867 3.22853C19.6814 3.29783 19.6703 3.45893 19.4867 3.52361C18.2871 3.94658 17.1637 5.06791 16.7434 6.26721C16.6717 6.47541 16.5217 6.47752 16.4478 6.26721C16.0226 5.06783 14.9039 3.94658 13.7044 3.52361C13.5031 3.45439 13.4986 3.30228 13.7044 3.22853Z" fill="#FFE09F"/>
<path fill-rule="evenodd" clip-rule="evenodd" d="M32.2619 25.8028C33.4591 25.3776 34.5779 24.2585 35.0053 23.0591C35.0748 22.8622 35.227 22.8511 35.3008 23.0591C35.7236 24.2586 36.8491 25.3687 38.0443 25.8028C38.2367 25.8742 38.2279 26.0355 38.0443 26.1002C36.8447 26.5232 35.7215 27.6423 35.3008 28.8416C35.2292 29.0498 35.0792 29.0542 35.0053 28.8416C34.5802 27.6444 33.4613 26.5211 32.2619 26.1002C32.0606 26.0287 32.0539 25.8767 32.2619 25.8028Z" fill="#FFE09F"/>
</svg>
