<svg width="40" height="40" viewBox="0 0 40 40" fill="none" xmlns="http://www.w3.org/2000/svg">
<g clip-path="url(#clip0_20934_143656)">
<path d="M39.7566 16.9104L23.0906 0.244328C22.9341 0.0881621 22.7218 0.000587253 22.5007 0.000977864H0.834814C0.374597 0.000196643 0.000860636 0.372605 1.29305e-06 0.832822C-0.000389317 1.05469 0.0877324 1.26757 0.244836 1.42428L38.5767 39.7562C38.7332 39.9124 38.9455 40 39.1667 39.9996C39.2759 39.9995 39.3841 39.978 39.485 39.9362C39.7966 39.8074 39.9999 39.5035 40 39.1662V17.5004C40.0004 17.2792 39.9129 17.067 39.7566 16.9104Z" fill="#FD6845"/>
<path d="M17.5007 13.3337C17.0405 13.3337 16.6673 12.9608 16.6672 12.5006C16.6672 12.4446 16.6728 12.3886 16.6841 12.3337L17.8107 6.69891L14.7574 9.75715C14.4264 10.0769 13.8989 10.0677 13.5791 9.73669C13.2672 9.41373 13.2672 8.9018 13.5791 8.57892L18.5789 3.5791C18.9043 3.25365 19.4319 3.25357 19.7574 3.57895C19.9542 3.77574 20.0398 4.05776 19.9855 4.33071L18.8589 9.96551L21.9138 6.91226C22.2335 6.58126 22.761 6.57204 23.0921 6.89179C23.4232 7.21155 23.4323 7.73903 23.1126 8.07011C23.1059 8.07706 23.0991 8.08386 23.0921 8.09058L18.0923 13.0904C17.9354 13.2469 17.7224 13.3345 17.5007 13.3337Z" fill="#FAFAFA"/>
<path d="M22.5004 18.3333C22.2792 18.3337 22.0669 18.2462 21.9104 18.09L19.4105 15.5901C19.0852 15.2647 19.0852 14.7372 19.4105 14.4118L24.4103 9.41194C24.7357 9.08664 25.2632 9.08664 25.5886 9.41194L28.0885 11.9119C28.4195 12.2316 28.4287 12.7591 28.109 13.0902C27.7892 13.4212 27.2617 13.4303 26.9307 13.1106C26.9237 13.1039 26.9169 13.0971 26.9102 13.0902L25.0003 11.1786L21.1788 15.0001L23.0887 16.91C23.4145 17.235 23.4152 17.7627 23.0902 18.0885C22.9339 18.2452 22.7217 18.3333 22.5004 18.3333Z" fill="#FAFAFA"/>
<path d="M24.1672 14.9999C23.946 15.0003 23.7338 14.9128 23.5772 14.7565L21.9107 13.0899C21.591 12.7589 21.6001 12.2314 21.9311 11.9116C22.2541 11.5998 22.766 11.5998 23.0889 11.9116L24.7555 13.5782C25.0804 13.9041 25.0796 14.4318 24.7536 14.7567C24.598 14.912 24.3871 14.9993 24.1672 14.9999Z" fill="#FAFAFA"/>
<path d="M29.1667 25C28.7065 24.9997 28.3337 24.6263 28.334 24.166C28.3341 24.0768 28.3484 23.9881 28.3767 23.9033L29.5167 20.4851L26.0984 21.625C25.7784 21.7289 25.4274 21.6325 25.2051 21.3801C24.9847 21.1253 24.9393 20.763 25.0901 20.4617L28.4233 13.7953C28.629 13.3835 29.1297 13.2163 29.5417 13.422C29.9536 13.6277 30.1207 14.1284 29.915 14.5403L27.4817 19.4068L30.5733 18.3768C30.873 18.2788 31.2024 18.3567 31.4266 18.5784C31.6501 18.8016 31.7282 19.1321 31.6282 19.4318L30.5983 22.5217L35.4647 20.0884C35.8766 19.8827 36.3773 20.0498 36.583 20.4617C36.7887 20.8736 36.6216 21.3743 36.2097 21.58L29.5434 24.9133C29.4264 24.9713 29.2973 25.001 29.1667 25Z" fill="#FAFAFA"/>
</g>
<defs>
<clipPath id="clip0_20934_143656">
<rect width="40" height="40" fill="white"/>
</clipPath>
</defs>
</svg>
