<svg width="337" height="204" viewBox="0 0 337 204" fill="none" xmlns="http://www.w3.org/2000/svg">
<g clip-path="url(#clip0_21065_370993)">
<path d="M110.747 130.375L98.1831 142.938L74.5132 119.266C71.0438 115.797 71.0438 110.173 74.5132 106.704C77.981 103.234 83.6064 103.234 87.0758 106.704L110.747 130.375Z" fill="#5C626B"/>
<path d="M78.4965 104.402C77.0365 104.791 75.6568 105.555 74.5132 106.7C71.0438 110.17 71.0438 115.794 74.5132 119.263L98.1846 142.934L104.466 136.653L80.7945 112.982C78.4702 110.657 77.7048 107.366 78.4965 104.402Z" fill="#535860"/>
<path d="M98.1836 142.938L110.746 130.375L144.966 164.595L132.404 177.158L98.1836 142.938Z" fill="#DFE0E0"/>
<path d="M98.1836 142.934L104.465 136.652L138.685 170.874L132.404 177.155L98.1836 142.934Z" fill="#C9CACA"/>
<path d="M121.713 130.419L98.2283 153.902C97.5076 154.623 96.3393 154.623 95.6186 153.902L87.2183 145.503C86.4976 144.781 86.4976 143.613 87.2183 142.892L110.701 119.409C111.422 118.687 112.592 118.687 113.313 119.409L121.713 127.808C122.434 128.528 122.434 129.698 121.713 130.419Z" fill="#FBE067"/>
<path d="M104.252 145.269L95.8532 136.869C95.1324 136.148 95.1324 134.979 95.8532 134.258L87.2183 142.893C86.4976 143.613 86.4976 144.782 87.2183 145.504L95.6186 153.903C96.3393 154.623 97.5076 154.623 98.2299 153.903L106.863 145.269C106.142 145.99 104.974 145.99 104.252 145.269Z" fill="#E7CE5F"/>
<path d="M225.187 130.375L237.749 142.938L261.421 119.266C264.89 115.797 264.89 110.173 261.421 106.704C257.953 103.234 252.327 103.234 248.858 106.704L225.187 130.375Z" fill="#5C626B"/>
<path d="M257.437 104.402C258.897 104.791 260.277 105.555 261.421 106.7C264.89 110.17 264.89 115.794 261.421 119.263L237.749 142.934L231.468 136.653L255.139 112.982C257.463 110.657 258.229 107.366 257.437 104.402Z" fill="#535860"/>
<path d="M203.529 177.159L190.967 164.597L225.187 130.375L237.749 142.938L203.529 177.159Z" fill="#DFE0E0"/>
<path d="M197.244 170.878L231.466 136.656L237.747 142.938L203.525 177.159L197.244 170.878Z" fill="#C9CACA"/>
<path d="M214.221 130.419L237.706 153.902C238.427 154.623 239.595 154.623 240.316 153.902L248.716 145.503C249.437 144.781 249.437 143.613 248.716 142.892L225.233 119.409C224.512 118.687 223.342 118.687 222.621 119.409L214.221 127.808C213.5 128.528 213.5 129.698 214.221 130.419Z" fill="#FBE067"/>
<path d="M231.683 145.269L240.081 136.869C240.802 136.148 240.802 134.979 240.081 134.258L248.716 142.891C249.437 143.613 249.437 144.782 248.716 145.502L240.316 153.903C239.595 154.623 238.425 154.623 237.705 153.903L229.071 145.269C229.792 145.99 230.96 145.99 231.683 145.269Z" fill="#E7CE5F"/>
<path d="M100.196 203.229C100.196 165.8 130.538 135.457 167.967 135.457C205.397 135.457 235.738 165.8 235.738 203.229H100.196Z" fill="#494F57"/>
<path d="M235.738 203.225H124.26L188.757 138.707C216.015 147.484 235.738 173.049 235.738 203.225Z" fill="#535860"/>
<path d="M146.792 203.215H124.26L188.747 138.707C194.201 140.465 199.355 142.896 204.108 145.899L146.792 203.215Z" fill="#CB556A"/>
<path d="M100.196 203.225H211.675L147.178 138.707C119.92 147.484 100.196 173.049 100.196 203.225Z" fill="#5C626B"/>
<path d="M174.331 135.756C172.235 135.562 170.113 135.457 167.967 135.457C130.538 135.457 100.196 165.8 100.196 203.229H112.924C112.924 167.945 139.887 138.965 174.331 135.756Z" fill="#535860"/>
<path d="M189.131 203.215H211.664L147.178 138.707C141.722 140.465 136.569 142.896 131.815 145.899L189.131 203.215Z" fill="#E15F76"/>
<path d="M150.843 142.375L147.178 138.707C141.722 140.465 136.569 142.896 131.815 145.899L137.186 151.27C141.342 147.785 145.926 144.792 150.843 142.375Z" fill="#CB556A"/>
<path d="M240.775 73.7506C240.775 113.962 208.177 146.558 167.966 146.558C127.756 146.558 95.1582 113.962 95.1582 73.7506C95.1582 33.5394 127.756 0.941406 167.966 0.941406C208.177 0.941406 240.775 33.5394 240.775 73.7506Z" fill="#5C626B"/>
<path d="M107.367 73.7506C107.367 35.5951 136.718 4.29967 174.071 1.1976C172.059 1.03092 170.023 0.941406 167.966 0.941406C127.756 0.941406 95.1582 33.5394 95.1582 73.7506C95.1582 113.962 127.756 146.558 167.966 146.558C170.023 146.558 172.059 146.469 174.071 146.302C136.718 143.2 107.367 111.905 107.367 73.7506Z" fill="#535860"/>
<path d="M95.1582 73.7495C95.1582 75.532 95.2246 77.2991 95.3511 79.0508C95.6289 79.0724 95.9083 79.0863 96.1891 79.0863H239.744C240.025 79.0863 240.304 79.0724 240.582 79.0508C240.707 77.2991 240.775 75.532 240.775 73.7495C240.775 68.2044 240.152 62.8058 238.979 57.6172H96.9546C95.7802 62.8058 95.1582 68.2044 95.1582 73.7495Z" fill="#535860"/>
<path d="M194.647 104.712L185.568 100.932C174.303 96.2422 161.631 96.2422 150.365 100.932L141.287 104.712C130.42 109.237 118.447 101.253 118.447 89.4825C118.447 80.3692 125.834 72.9844 134.945 72.9844H200.989C210.1 72.9844 217.487 80.3707 217.487 89.4825C217.487 101.253 205.514 109.237 194.647 104.712Z" fill="#F7C2AD"/>
<path d="M96.1897 72.9845H239.745C242.575 72.9845 244.827 70.5754 244.597 67.7542C243.95 59.8092 242.03 52.2268 239.038 45.2094C238.272 43.416 236.51 42.2539 234.561 42.2539H101.374C99.4245 42.2539 97.662 43.416 96.8965 45.2094C93.904 52.2268 91.9841 59.8107 91.3375 67.7542C91.1075 70.5754 93.3592 72.9845 96.1897 72.9845Z" fill="#E15F76"/>
<path d="M103.548 67.7542C104.195 59.8092 106.115 52.2268 109.107 45.2094C109.871 43.416 111.635 42.2539 113.584 42.2539H101.374C99.4245 42.2539 97.662 43.416 96.8965 45.2094C93.904 52.2268 91.9841 59.8092 91.3375 67.7542C91.1075 70.5738 93.3592 72.9829 96.1897 72.9829H108.4C105.57 72.9845 103.318 70.5754 103.548 67.7542Z" fill="#CB556A"/>
<path d="M82.5391 114.726L76.2578 121.007L80.5745 125.324L86.8558 119.044C88.0488 117.851 88.0488 115.919 86.8558 114.726C85.6643 113.534 83.7306 113.534 82.5391 114.726Z" fill="#494F57"/>
<path d="M89.7432 121.93L83.4619 128.211L87.7786 132.528L94.0599 126.247C95.2513 125.055 95.2513 123.121 94.0599 121.93C92.8669 120.737 90.9347 120.737 89.7432 121.93Z" fill="#494F57"/>
<path d="M253.395 114.726C252.204 113.534 250.27 113.534 249.078 114.726C247.885 115.919 247.885 117.851 249.078 119.044L255.36 125.324L259.676 121.007L253.395 114.726Z" fill="#494F57"/>
<path d="M246.191 121.93C244.999 120.737 243.067 120.737 241.874 121.93C240.683 123.121 240.683 125.054 241.874 126.247L248.155 132.528L252.472 128.211L246.191 121.93Z" fill="#494F57"/>
<path d="M193.89 91.4572C192.254 91.4572 190.927 90.1315 190.927 88.494V83.8733C190.927 82.2359 192.254 80.9102 193.89 80.9102C195.527 80.9102 196.853 82.2359 196.853 83.8733V88.494C196.853 90.1315 195.527 91.4572 193.89 91.4572Z" fill="#494F57"/>
<path d="M142.045 91.4572C140.408 91.4572 139.082 90.1315 139.082 88.494V83.8733C139.082 82.2359 140.408 80.9102 142.045 80.9102C143.681 80.9102 145.008 82.2359 145.008 83.8733V88.494C145.008 90.1315 143.681 91.4572 142.045 91.4572Z" fill="#494F57"/>
</g>
<path opacity="0.7" fill-rule="evenodd" clip-rule="evenodd" d="M14.2492 134.154C10.8057 135.793 7.21982 135.633 4.86123 134.992C2.47856 134.344 1.07225 131.887 1.72015 129.504C2.36805 127.122 4.82481 125.715 7.20748 126.363C7.97397 126.572 9.29281 126.61 10.4071 126.08C11.2526 125.677 12.5274 124.704 13.1638 121.738C13.587 118.391 15.3931 113.978 19.4117 110.636C23.655 107.106 29.8834 105.162 38.3315 106.267C40.7798 106.587 42.5049 108.831 42.1847 111.28C41.8644 113.728 39.62 115.453 37.1717 115.133C30.7175 114.289 27.1177 115.857 25.1298 117.51C23.0122 119.272 22.1731 121.582 22.0255 122.94L22.0036 123.142L21.9635 123.34C20.8505 128.861 17.9459 132.395 14.2492 134.154Z" fill="#F15959"/>
<path opacity="0.7" fill-rule="evenodd" clip-rule="evenodd" d="M315.221 47.5846C315.173 47.4757 315.122 47.3712 315.071 47.2744C315.052 47.2531 315.034 47.232 315.016 47.211C315.101 47.4302 315.185 47.5426 315.221 47.5846ZM308.048 44.2839C307.782 47.6096 308.488 50.3343 310.284 52.2473C312.367 54.4663 315.156 54.7751 316.986 54.4917C318.449 54.2719 319.867 53.669 320.908 52.4743C321.943 51.2853 322.265 49.8989 322.294 48.763C322.348 46.6636 321.442 44.685 320.784 43.5859L320.654 43.3685L320.493 43.1728C319.319 41.7465 318.084 40.6147 316.814 39.7433C317.251 39.27 317.775 38.8256 318.399 38.4431C320.549 37.1255 324.49 36.1759 331.384 38.2928C333.177 38.8432 335.076 37.8363 335.627 36.0437C336.177 34.2512 335.17 32.3518 333.378 31.8014C325.249 29.3054 319.149 30.0187 314.85 32.6536C312.724 33.9568 311.188 35.641 310.13 37.3881C308.981 37.3183 307.842 37.4042 306.728 37.6228C302.501 38.4532 299.058 41.1052 297.135 43.2314C295.877 44.6222 295.985 46.7693 297.376 48.027C298.767 49.2847 300.914 49.1767 302.172 47.7859C303.454 46.3681 305.678 44.7495 308.037 44.286C308.041 44.2853 308.044 44.2846 308.048 44.2839Z" fill="#F15959"/>
<path d="M283.229 156.968C283.939 154.318 286.664 152.745 289.315 153.456C291.966 154.166 293.539 156.89 292.829 159.541C292.119 162.191 289.394 163.764 286.743 163.054C284.092 162.343 282.519 159.619 283.229 156.968Z" fill="#C15DFF"/>
<path d="M31.344 145.134C32.4854 140.875 36.8639 138.347 41.1236 139.488C45.3833 140.629 47.9112 145.008 46.7698 149.268C45.6284 153.527 41.2499 156.055 36.9902 154.914C32.7305 153.772 30.2026 149.394 31.344 145.134Z" fill="#F9C160"/>
<path d="M304.651 146.126C305.792 141.867 310.17 139.339 314.43 140.48C318.69 141.622 321.218 146 320.076 150.26C318.935 154.519 314.557 157.047 310.297 155.906C306.037 154.765 303.509 150.386 304.651 146.126Z" fill="#F68B8B"/>
<path fill-rule="evenodd" clip-rule="evenodd" d="M36.0937 54.1424C35.7142 56.4595 33.5281 58.0301 31.2111 57.6506C28.1496 57.1491 23.7333 55.5975 20.1873 52.3942C16.4556 49.0231 13.8079 43.8902 14.7346 36.9504C15.0454 34.6231 17.1839 32.9884 19.5112 33.2992C21.8385 33.6099 23.4732 35.7485 23.1625 38.0758C22.6443 41.9559 24.0123 44.3912 25.887 46.0848C27.9474 47.9461 30.7284 48.9556 32.5856 49.2598C34.9026 49.6393 36.4733 51.8254 36.0937 54.1424Z" fill="#C15DFF"/>
<path fill-rule="evenodd" clip-rule="evenodd" d="M308.968 105.512C306.84 106.48 305.899 108.99 306.867 111.118C308.146 113.929 310.788 117.77 314.79 120.344C319.001 123.052 324.623 124.26 331.052 121.563C333.208 120.658 334.222 118.177 333.317 116.021C332.413 113.866 329.932 112.851 327.776 113.756C324.182 115.264 321.485 114.584 319.369 113.223C317.044 111.727 315.35 109.318 314.574 107.612C313.605 105.484 311.096 104.544 308.968 105.512Z" fill="#72C045"/>
<path d="M43.4995 30.7356C44.2965 27.7611 47.354 25.9958 50.3285 26.7929C53.3031 27.5899 55.0683 30.6474 54.2713 33.6219C53.4742 36.5965 50.4168 38.3617 47.4422 37.5647C44.4677 36.7676 42.7025 33.7102 43.4995 30.7356Z" fill="#14A4BE"/>
<path d="M310.252 174.753C310.685 173.139 312.344 172.182 313.958 172.614C315.572 173.047 316.53 174.706 316.098 176.32C315.665 177.934 314.006 178.892 312.392 178.459C310.778 178.027 309.82 176.368 310.252 174.753Z" fill="#14A4BE"/>
<path d="M263.867 30.2915C264.743 27.0224 268.103 25.0824 271.372 25.9583C274.641 26.8343 276.581 30.1945 275.705 33.4636C274.829 36.7327 271.469 38.6727 268.2 37.7968C264.931 36.9208 262.991 33.5606 263.867 30.2915Z" fill="#72C045"/>
<path d="M317.657 78.4011C318.379 75.7066 321.149 74.1076 323.843 74.8296C326.538 75.5516 328.137 78.3212 327.415 81.0157C326.693 83.7102 323.923 85.3092 321.229 84.5873C318.534 83.8653 316.935 81.0956 317.657 78.4011Z" fill="#F9C160"/>
<path d="M61.6564 143.805C62.1637 141.912 64.1096 140.789 66.0028 141.296C67.896 141.803 69.0195 143.749 68.5123 145.642C68.005 147.536 66.059 148.659 64.1658 148.152C62.2726 147.645 61.1491 145.699 61.6564 143.805Z" fill="#72C045"/>
<path d="M47.8907 170.348C48.398 168.455 50.344 167.332 52.2372 167.839C54.1304 168.346 55.2539 170.292 54.7466 172.185C54.2394 174.079 52.2934 175.202 50.4002 174.695C48.507 174.187 47.3835 172.241 47.8907 170.348Z" fill="#C15DFF"/>
<path d="M11.7462 77.8055C12.3803 75.439 14.8128 74.0346 17.1793 74.6687C19.5458 75.3028 20.9502 77.7353 20.3161 80.1018C19.682 82.4683 17.2495 83.8727 14.883 83.2386C12.5165 82.6045 11.1121 80.172 11.7462 77.8055Z" fill="#72C045"/>
<defs>
<clipPath id="clip0_21065_370993">
<rect width="202.286" height="202.286" fill="white" transform="translate(66.7754 0.941406)"/>
</clipPath>
</defs>
</svg>
