<svg width="48" height="48" viewBox="0 0 48 48" fill="none" xmlns="http://www.w3.org/2000/svg">
<g clip-path="url(#clip0_21074_142070)">
<path d="M10.4341 30.7109L7.45276 33.6919L1.83618 28.075C1.01294 27.2517 1.01294 25.9172 1.83618 25.094C2.65906 24.2708 3.9939 24.2708 4.81714 25.094L10.4341 30.7109Z" fill="#5C626B"/>
<path d="M2.78137 24.5508C2.43494 24.6431 2.10754 24.8243 1.83618 25.0961C1.01294 25.9193 1.01294 27.2538 1.83618 28.077L7.45312 33.694L8.9436 32.2035L3.32666 26.5865C2.77515 26.035 2.59351 25.2539 2.78137 24.5508Z" fill="#535860"/>
<path d="M7.45264 33.6919L10.4336 30.7109L18.5536 38.8309L15.5726 41.8119L7.45264 33.6919Z" fill="#DFE0E0"/>
<path d="M7.45264 33.6936L8.94312 32.2031L17.0631 40.3235L15.5726 41.814L7.45264 33.6936Z" fill="#C9CACA"/>
<path d="M13.0361 30.7216L7.46347 36.2938C7.29245 36.4648 7.01523 36.4648 6.84421 36.2938L4.85092 34.3009C4.6799 34.1295 4.6799 33.8523 4.85092 33.6813L10.4232 28.109C10.5942 27.9376 10.8718 27.9376 11.0428 28.109L13.0361 30.1019C13.2071 30.2729 13.2071 30.5505 13.0361 30.7216Z" fill="#FBE067"/>
<path d="M8.89279 34.2457L6.89987 32.2524C6.72885 32.0814 6.72885 31.8038 6.89987 31.6328L4.85092 33.6818C4.6799 33.8528 4.6799 34.13 4.85092 34.3014L6.84421 36.2943C7.01523 36.4653 7.29245 36.4653 7.46384 36.2943L9.51242 34.2457C9.3414 34.4167 9.06418 34.4167 8.89279 34.2457Z" fill="#E7CE5F"/>
<path d="M37.5889 30.7109L40.5698 33.6919L46.1868 28.075C47.01 27.2517 47.01 25.9172 46.1868 25.094C45.3639 24.2708 44.0291 24.2708 43.2058 25.094L37.5889 30.7109Z" fill="#5C626B"/>
<path d="M45.2418 24.5508C45.5883 24.6431 45.9156 24.8243 46.187 25.0961C47.0103 25.9193 47.0103 27.2538 46.187 28.077L40.5701 33.694L39.0796 32.2035L44.6965 26.5865C45.248 26.035 45.4297 25.2539 45.2418 24.5508Z" fill="#535860"/>
<path d="M32.45 41.8162L29.469 38.8352L37.589 30.7148L40.5699 33.6958L32.45 41.8162Z" fill="#DFE0E0"/>
<path d="M30.9587 40.3235L39.0791 32.2031L40.5696 33.6936L32.4492 41.814L30.9587 40.3235Z" fill="#C9CACA"/>
<path d="M34.9872 30.7216L40.5598 36.2938C40.7308 36.4648 41.008 36.4648 41.179 36.2938L43.1723 34.3009C43.3434 34.1295 43.3434 33.8523 43.1723 33.6813L37.6001 28.109C37.429 27.9376 37.1515 27.9376 36.9804 28.109L34.9872 30.1019C34.8161 30.2729 34.8161 30.5505 34.9872 30.7216Z" fill="#FBE067"/>
<path d="M39.1304 34.2457L41.1233 32.2524C41.2943 32.0814 41.2943 31.8038 41.1233 31.6328L43.1722 33.6814C43.3433 33.8528 43.3433 34.13 43.1722 34.301L41.179 36.2943C41.0079 36.4653 40.7303 36.4653 40.5593 36.2943L38.5107 34.2457C38.6818 34.4167 38.959 34.4167 39.1304 34.2457Z" fill="#E7CE5F"/>
<path d="M7.93018 47.9994C7.93018 39.118 15.1299 31.918 24.0112 31.918C32.8929 31.918 40.0927 39.118 40.0927 47.9994H7.93018Z" fill="#494F57"/>
<path d="M40.0927 48.0009H13.6401L28.9445 32.6914C35.4125 34.774 40.0927 40.8403 40.0927 48.0009Z" fill="#535860"/>
<path d="M18.9868 47.9983H13.6401L28.9423 32.6914C30.2365 33.1085 31.4592 33.6853 32.5872 34.3979L18.9868 47.9983Z" fill="#CB556A"/>
<path d="M7.93018 48.0009H34.3827L19.0784 32.6914C12.6104 34.774 7.93018 40.8403 7.93018 48.0009Z" fill="#5C626B"/>
<path d="M25.5215 31.989C25.0242 31.9429 24.5206 31.918 24.0112 31.918C15.1299 31.918 7.93018 39.118 7.93018 47.9994H10.9503C10.9503 39.6271 17.3484 32.7504 25.5215 31.989Z" fill="#535860"/>
<path d="M29.0334 47.9983H34.3801L19.0784 32.6914C17.7838 33.1085 16.561 33.6853 15.4331 34.3979L29.0334 47.9983Z" fill="#E15F76"/>
<path d="M19.9481 33.5619L19.0784 32.6914C17.7838 33.1085 16.561 33.6853 15.4331 34.3979L16.7075 35.6724C17.6937 34.8455 18.7814 34.1354 19.9481 33.5619Z" fill="#CB556A"/>
<path d="M41.288 17.2767C41.288 26.8184 33.5529 34.5531 24.0112 34.5531C14.47 34.5531 6.73486 26.8184 6.73486 17.2767C6.73486 7.73511 14.47 0 24.0112 0C33.5529 0 41.288 7.73511 41.288 17.2767Z" fill="#5C626B"/>
<path d="M9.63196 17.2767C9.63196 8.2229 16.5966 0.796875 25.46 0.0607911C24.9824 0.0212402 24.4994 0 24.0112 0C14.47 0 6.73486 7.73511 6.73486 17.2767C6.73486 26.8184 14.47 34.5531 24.0112 34.5531C24.4994 34.5531 24.9824 34.5319 25.46 34.4923C16.5966 33.7562 9.63196 26.3302 9.63196 17.2767Z" fill="#535860"/>
<path d="M6.73486 17.2772C6.73486 17.7002 6.75061 18.1195 6.78064 18.5352C6.84656 18.5403 6.91284 18.5436 6.97949 18.5436H41.0433C41.11 18.5436 41.1763 18.5403 41.2422 18.5352C41.2719 18.1195 41.288 17.7002 41.288 17.2772C41.288 15.9614 41.14 14.6804 40.8617 13.4492H7.16113C6.88245 14.6804 6.73486 15.9614 6.73486 17.2772Z" fill="#535860"/>
<path d="M30.3425 24.6223L28.1881 23.7255C25.5151 22.6125 22.5082 22.6125 19.8348 23.7255L17.6808 24.6223C15.1023 25.696 12.2612 23.8016 12.2612 21.0085C12.2612 18.8461 14.0139 17.0938 16.176 17.0938H31.8473C34.0094 17.0938 35.7621 18.8464 35.7621 21.0085C35.7621 23.8016 32.921 25.696 30.3425 24.6223Z" fill="#F7C2AD"/>
<path d="M6.97967 17.0967H41.0435C41.7151 17.0967 42.2494 16.525 42.1949 15.8556C42.0414 13.9703 41.5859 12.1711 40.8758 10.506C40.6941 10.0804 40.2759 9.80469 39.8134 9.80469H8.20977C7.74725 9.80469 7.32903 10.0804 7.14739 10.506C6.43731 12.1711 5.98174 13.9707 5.8283 15.8556C5.77374 16.525 6.30804 17.0967 6.97967 17.0967Z" fill="#E15F76"/>
<path d="M8.72576 15.8556C8.8792 13.9703 9.33477 12.1711 10.0449 10.506C10.2261 10.0804 10.6447 9.80469 11.1072 9.80469H8.20977C7.74725 9.80469 7.32903 10.0804 7.14739 10.506C6.43731 12.1711 5.98174 13.9703 5.8283 15.8556C5.77374 16.5247 6.30804 17.0963 6.97967 17.0963H9.87713C9.2055 17.0967 8.6712 16.525 8.72576 15.8556Z" fill="#CB556A"/>
<path d="M3.74048 27.0011L2.25 28.4916L3.27429 29.5159L4.76477 28.0258C5.04785 27.7427 5.04785 27.2842 4.76477 27.0011C4.48206 26.7184 4.02319 26.7184 3.74048 27.0011Z" fill="#494F57"/>
<path d="M5.44995 28.7123L3.95947 30.2028L4.98376 31.2271L6.47424 29.7366C6.75696 29.4539 6.75696 28.995 6.47424 28.7123C6.19116 28.4292 5.73267 28.4292 5.44995 28.7123Z" fill="#494F57"/>
<path d="M44.2825 27.0011C43.9998 26.7184 43.5409 26.7184 43.2582 27.0011C42.9751 27.2842 42.9751 27.7427 43.2582 28.0258L44.7487 29.5159L45.773 28.4916L44.2825 27.0011Z" fill="#494F57"/>
<path d="M42.5732 28.7123C42.2905 28.4292 41.832 28.4292 41.549 28.7123C41.2662 28.995 41.2662 29.4535 41.549 29.7366L43.0394 31.2271L44.0637 30.2028L42.5732 28.7123Z" fill="#494F57"/>
<path d="M30.1626 21.4792C29.7744 21.4792 29.4595 21.1647 29.4595 20.7761V19.6797C29.4595 19.2911 29.7744 18.9766 30.1626 18.9766C30.5511 18.9766 30.8657 19.2911 30.8657 19.6797V20.7761C30.8657 21.1647 30.5511 21.4792 30.1626 21.4792Z" fill="#494F57"/>
<path d="M17.8604 21.4792C17.4718 21.4792 17.1572 21.1647 17.1572 20.7761V19.6797C17.1572 19.2911 17.4718 18.9766 17.8604 18.9766C18.2485 18.9766 18.5635 19.2911 18.5635 19.6797V20.7761C18.5635 21.1647 18.2485 21.4792 17.8604 21.4792Z" fill="#494F57"/>
</g>
<defs>
<clipPath id="clip0_21074_142070">
<rect width="48" height="48" fill="white"/>
</clipPath>
</defs>
</svg>
