<svg width="248" height="320" viewBox="0 0 248 320" fill="none" xmlns="http://www.w3.org/2000/svg">
<path d="M13.3981 298.96L8.53813 308.36V313H5.11813V308.36L0.258126 298.96H4.13813L6.85813 304.84L9.55813 298.96H13.3981ZM19.5361 313.16C18.4428 313.16 17.4561 312.927 16.5761 312.46C15.7094 311.993 15.0228 311.327 14.5161 310.46C14.0228 309.593 13.7761 308.58 13.7761 307.42C13.7761 306.273 14.0294 305.267 14.5361 304.4C15.0428 303.52 15.7361 302.847 16.6161 302.38C17.4961 301.913 18.4828 301.68 19.5761 301.68C20.6694 301.68 21.6561 301.913 22.5361 302.38C23.4161 302.847 24.1094 303.52 24.6161 304.4C25.1228 305.267 25.3761 306.273 25.3761 307.42C25.3761 308.567 25.1161 309.58 24.5961 310.46C24.0894 311.327 23.3894 311.993 22.4961 312.46C21.6161 312.927 20.6294 313.16 19.5361 313.16ZM19.5361 310.2C20.1894 310.2 20.7428 309.96 21.1961 309.48C21.6628 309 21.8961 308.313 21.8961 307.42C21.8961 306.527 21.6694 305.84 21.2161 305.36C20.7761 304.88 20.2294 304.64 19.5761 304.64C18.9094 304.64 18.3561 304.88 17.9161 305.36C17.4761 305.827 17.2561 306.513 17.2561 307.42C17.2561 308.313 17.4694 309 17.8961 309.48C18.3361 309.96 18.8828 310.2 19.5361 310.2ZM37.8905 301.84V313H34.4705V311.48C34.1238 311.973 33.6505 312.373 33.0505 312.68C32.4638 312.973 31.8105 313.12 31.0905 313.12C30.2371 313.12 29.4838 312.933 28.8305 312.56C28.1771 312.173 27.6705 311.62 27.3105 310.9C26.9505 310.18 26.7705 309.333 26.7705 308.36V301.84H30.1705V307.9C30.1705 308.647 30.3638 309.227 30.7505 309.64C31.1371 310.053 31.6571 310.26 32.3105 310.26C32.9771 310.26 33.5038 310.053 33.8905 309.64C34.2771 309.227 34.4705 308.647 34.4705 307.9V301.84H37.8905ZM40.807 298.96H44.307L42.067 304.32H39.767L40.807 298.96ZM49.4161 303.7C49.8161 303.087 50.3161 302.607 50.9161 302.26C51.5161 301.9 52.1828 301.72 52.9161 301.72V305.34H51.9761C51.1228 305.34 50.4828 305.527 50.0561 305.9C49.6294 306.26 49.4161 306.9 49.4161 307.82V313H45.9961V301.84H49.4161V303.7ZM64.7508 307.24C64.7508 307.56 64.7308 307.893 64.6908 308.24H56.9508C57.0041 308.933 57.2241 309.467 57.6108 309.84C58.0108 310.2 58.4975 310.38 59.0708 310.38C59.9241 310.38 60.5175 310.02 60.8508 309.3H64.4908C64.3041 310.033 63.9641 310.693 63.4708 311.28C62.9908 311.867 62.3841 312.327 61.6508 312.66C60.9175 312.993 60.0975 313.16 59.1908 313.16C58.0975 313.16 57.1241 312.927 56.2708 312.46C55.4175 311.993 54.7508 311.327 54.2708 310.46C53.7908 309.593 53.5508 308.58 53.5508 307.42C53.5508 306.26 53.7841 305.247 54.2508 304.38C54.7308 303.513 55.3975 302.847 56.2508 302.38C57.1041 301.913 58.0841 301.68 59.1908 301.68C60.2708 301.68 61.2308 301.907 62.0708 302.36C62.9108 302.813 63.5641 303.46 64.0308 304.3C64.5108 305.14 64.7508 306.12 64.7508 307.24ZM61.2508 306.34C61.2508 305.753 61.0508 305.287 60.6508 304.94C60.2508 304.593 59.7508 304.42 59.1508 304.42C58.5775 304.42 58.0908 304.587 57.6908 304.92C57.3041 305.253 57.0641 305.727 56.9708 306.34H61.2508ZM75.2333 313.16C74.14 313.16 73.1533 312.927 72.2733 312.46C71.4066 311.993 70.72 311.327 70.2133 310.46C69.72 309.593 69.4733 308.58 69.4733 307.42C69.4733 306.273 69.7266 305.267 70.2333 304.4C70.74 303.52 71.4333 302.847 72.3133 302.38C73.1933 301.913 74.18 301.68 75.2733 301.68C76.3666 301.68 77.3533 301.913 78.2333 302.38C79.1133 302.847 79.8066 303.52 80.3133 304.4C80.82 305.267 81.0733 306.273 81.0733 307.42C81.0733 308.567 80.8133 309.58 80.2933 310.46C79.7866 311.327 79.0866 311.993 78.1933 312.46C77.3133 312.927 76.3266 313.16 75.2333 313.16ZM75.2333 310.2C75.8866 310.2 76.44 309.96 76.8933 309.48C77.36 309 77.5933 308.313 77.5933 307.42C77.5933 306.527 77.3666 305.84 76.9133 305.36C76.4733 304.88 75.9266 304.64 75.2733 304.64C74.6066 304.64 74.0533 304.88 73.6133 305.36C73.1733 305.827 72.9533 306.513 72.9533 307.42C72.9533 308.313 73.1666 309 73.5933 309.48C74.0333 309.96 74.58 310.2 75.2333 310.2ZM93.5877 301.84V313H90.1677V311.48C89.821 311.973 89.3477 312.373 88.7477 312.68C88.161 312.973 87.5077 313.12 86.7877 313.12C85.9343 313.12 85.181 312.933 84.5277 312.56C83.8743 312.173 83.3677 311.62 83.0077 310.9C82.6477 310.18 82.4677 309.333 82.4677 308.36V301.84H85.8677V307.9C85.8677 308.647 86.061 309.227 86.4477 309.64C86.8343 310.053 87.3543 310.26 88.0077 310.26C88.6743 310.26 89.201 310.053 89.5877 309.64C89.9743 309.227 90.1677 308.647 90.1677 307.9V301.84H93.5877ZM101.944 310.1V313H100.204C98.9642 313 97.9976 312.7 97.3042 312.1C96.6109 311.487 96.2642 310.493 96.2642 309.12V304.68H94.9042V301.84H96.2642V299.12H99.6842V301.84H101.924V304.68H99.6842V309.16C99.6842 309.493 99.7642 309.733 99.9242 309.88C100.084 310.027 100.351 310.1 100.724 310.1H101.944ZM112.528 313.16C111.434 313.16 110.448 312.927 109.568 312.46C108.701 311.993 108.014 311.327 107.508 310.46C107.014 309.593 106.768 308.58 106.768 307.42C106.768 306.273 107.021 305.267 107.528 304.4C108.034 303.52 108.728 302.847 109.608 302.38C110.488 301.913 111.474 301.68 112.568 301.68C113.661 301.68 114.648 301.913 115.528 302.38C116.408 302.847 117.101 303.52 117.608 304.4C118.114 305.267 118.368 306.273 118.368 307.42C118.368 308.567 118.108 309.58 117.588 310.46C117.081 311.327 116.381 311.993 115.488 312.46C114.608 312.927 113.621 313.16 112.528 313.16ZM112.528 310.2C113.181 310.2 113.734 309.96 114.188 309.48C114.654 309 114.888 308.313 114.888 307.42C114.888 306.527 114.661 305.84 114.208 305.36C113.768 304.88 113.221 304.64 112.568 304.64C111.901 304.64 111.348 304.88 110.908 305.36C110.468 305.827 110.248 306.513 110.248 307.42C110.248 308.313 110.461 309 110.888 309.48C111.328 309.96 111.874 310.2 112.528 310.2ZM125.462 304.68H123.622V313H120.202V304.68H118.962V301.84H120.202V301.52C120.202 300.147 120.595 299.107 121.382 298.4C122.169 297.68 123.322 297.32 124.842 297.32C125.095 297.32 125.282 297.327 125.402 297.34V300.24C124.749 300.2 124.289 300.293 124.022 300.52C123.755 300.747 123.622 301.153 123.622 301.74V301.84H125.462V304.68ZM134.907 301.68C135.694 301.68 136.381 301.84 136.967 302.16C137.567 302.48 138.027 302.9 138.347 303.42V301.84H141.767V312.98C141.767 314.007 141.561 314.933 141.147 315.76C140.747 316.6 140.127 317.267 139.287 317.76C138.461 318.253 137.427 318.5 136.187 318.5C134.534 318.5 133.194 318.107 132.167 317.32C131.141 316.547 130.554 315.493 130.407 314.16H133.787C133.894 314.587 134.147 314.92 134.547 315.16C134.947 315.413 135.441 315.54 136.027 315.54C136.734 315.54 137.294 315.333 137.707 314.92C138.134 314.52 138.347 313.873 138.347 312.98V311.4C138.014 311.92 137.554 312.347 136.967 312.68C136.381 313 135.694 313.16 134.907 313.16C133.987 313.16 133.154 312.927 132.407 312.46C131.661 311.98 131.067 311.307 130.627 310.44C130.201 309.56 129.987 308.547 129.987 307.4C129.987 306.253 130.201 305.247 130.627 304.38C131.067 303.513 131.661 302.847 132.407 302.38C133.154 301.913 133.987 301.68 134.907 301.68ZM138.347 307.42C138.347 306.567 138.107 305.893 137.627 305.4C137.161 304.907 136.587 304.66 135.907 304.66C135.227 304.66 134.647 304.907 134.167 305.4C133.701 305.88 133.467 306.547 133.467 307.4C133.467 308.253 133.701 308.933 134.167 309.44C134.647 309.933 135.227 310.18 135.907 310.18C136.587 310.18 137.161 309.933 137.627 309.44C138.107 308.947 138.347 308.273 138.347 307.42ZM154.441 307.24C154.441 307.56 154.421 307.893 154.381 308.24H146.641C146.695 308.933 146.915 309.467 147.301 309.84C147.701 310.2 148.188 310.38 148.761 310.38C149.615 310.38 150.208 310.02 150.541 309.3H154.181C153.995 310.033 153.655 310.693 153.161 311.28C152.681 311.867 152.075 312.327 151.341 312.66C150.608 312.993 149.788 313.16 148.881 313.16C147.788 313.16 146.815 312.927 145.961 312.46C145.108 311.993 144.441 311.327 143.961 310.46C143.481 309.593 143.241 308.58 143.241 307.42C143.241 306.26 143.475 305.247 143.941 304.38C144.421 303.513 145.088 302.847 145.941 302.38C146.795 301.913 147.775 301.68 148.881 301.68C149.961 301.68 150.921 301.907 151.761 302.36C152.601 302.813 153.255 303.46 153.721 304.3C154.201 305.14 154.441 306.12 154.441 307.24ZM150.941 306.34C150.941 305.753 150.741 305.287 150.341 304.94C149.941 304.593 149.441 304.42 148.841 304.42C148.268 304.42 147.781 304.587 147.381 304.92C146.995 305.253 146.755 305.727 146.661 306.34H150.941ZM170.166 301.72C171.552 301.72 172.652 302.14 173.466 302.98C174.292 303.82 174.706 304.987 174.706 306.48V313H171.306V306.94C171.306 306.22 171.112 305.667 170.726 305.28C170.352 304.88 169.832 304.68 169.166 304.68C168.499 304.68 167.972 304.88 167.586 305.28C167.212 305.667 167.026 306.22 167.026 306.94V313H163.626V306.94C163.626 306.22 163.432 305.667 163.046 305.28C162.672 304.88 162.152 304.68 161.486 304.68C160.819 304.68 160.292 304.88 159.906 305.28C159.532 305.667 159.346 306.22 159.346 306.94V313H155.926V301.84H159.346V303.24C159.692 302.773 160.146 302.407 160.706 302.14C161.266 301.86 161.899 301.72 162.606 301.72C163.446 301.72 164.192 301.9 164.846 302.26C165.512 302.62 166.032 303.133 166.406 303.8C166.792 303.187 167.319 302.687 167.986 302.3C168.652 301.913 169.379 301.72 170.166 301.72ZM181.318 313.16C180.344 313.16 179.478 312.993 178.718 312.66C177.958 312.327 177.358 311.873 176.918 311.3C176.478 310.713 176.231 310.06 176.178 309.34H179.558C179.598 309.727 179.778 310.04 180.098 310.28C180.418 310.52 180.811 310.64 181.278 310.64C181.704 310.64 182.031 310.56 182.258 310.4C182.498 310.227 182.618 310.007 182.618 309.74C182.618 309.42 182.451 309.187 182.118 309.04C181.784 308.88 181.244 308.707 180.498 308.52C179.698 308.333 179.031 308.14 178.498 307.94C177.964 307.727 177.504 307.4 177.118 306.96C176.731 306.507 176.538 305.9 176.538 305.14C176.538 304.5 176.711 303.92 177.058 303.4C177.418 302.867 177.938 302.447 178.618 302.14C179.311 301.833 180.131 301.68 181.078 301.68C182.478 301.68 183.578 302.027 184.378 302.72C185.191 303.413 185.658 304.333 185.778 305.48H182.618C182.564 305.093 182.391 304.787 182.098 304.56C181.818 304.333 181.444 304.22 180.978 304.22C180.578 304.22 180.271 304.3 180.058 304.46C179.844 304.607 179.738 304.813 179.738 305.08C179.738 305.4 179.904 305.64 180.238 305.8C180.584 305.96 181.118 306.12 181.838 306.28C182.664 306.493 183.338 306.707 183.858 306.92C184.378 307.12 184.831 307.453 185.218 307.92C185.618 308.373 185.824 308.987 185.838 309.76C185.838 310.413 185.651 311 185.278 311.52C184.918 312.027 184.391 312.427 183.698 312.72C183.018 313.013 182.224 313.16 181.318 313.16ZM192.11 298.46L191.71 308.04H188.81L188.41 298.46H192.11ZM190.31 313.16C189.71 313.16 189.217 312.987 188.83 312.64C188.457 312.28 188.27 311.84 188.27 311.32C188.27 310.787 188.457 310.34 188.83 309.98C189.217 309.62 189.71 309.44 190.31 309.44C190.897 309.44 191.377 309.62 191.75 309.98C192.137 310.34 192.33 310.787 192.33 311.32C192.33 311.84 192.137 312.28 191.75 312.64C191.377 312.987 190.897 313.16 190.31 313.16Z" fill="#00A763"/>
<path d="M58.1425 231.636C57.5159 229.404 56.4587 227.602 54.9706 226.193C53.4434 224.783 51.2897 224.078 48.5094 224.078C44.946 224.078 41.5783 225.331 38.3673 227.798C35.1563 230.265 32.2977 233.476 29.8307 237.392C28.3035 239.82 26.9329 242.444 25.7582 245.302C24.5834 248.161 23.6828 251.059 23.0171 253.995C22.3514 256.932 22.0381 259.752 22.0381 262.415C22.0381 267.231 23.0171 270.834 24.975 273.183C26.9329 275.572 29.4391 276.747 32.5326 276.747C35.2738 276.747 38.1715 275.846 41.265 274.045C44.3586 272.243 47.2172 269.659 49.9191 266.252C52.6211 262.924 54.8531 258.89 56.537 254.113C58.26 249.336 59.0823 244.167 59.0823 238.606C59.0431 236.139 58.7299 233.829 58.1425 231.636ZM48.4703 250.863C47.922 253.251 47.0605 255.523 45.9641 257.676C44.8285 259.83 43.4971 261.631 41.8524 263.041C40.2078 264.451 38.4065 265.156 36.2919 265.156C35.1171 265.156 34.1773 264.647 33.4725 263.589C32.7676 262.532 32.4152 261.514 32.4152 260.535C32.4152 258.616 32.6893 256.502 33.2767 254.152C33.8249 251.803 34.6864 249.453 35.8611 247.025C37.0359 244.636 38.4848 242.679 40.2078 241.112C41.9307 239.546 43.8887 238.763 46.0033 238.763C46.9822 238.763 47.6871 239.076 48.157 239.742C48.6269 240.407 48.9402 241.151 49.0577 242.013C49.2143 242.874 49.2534 243.697 49.2534 244.441C49.2926 246.32 49.0185 248.474 48.4703 250.863ZM93.5812 238.528C93.5812 236.139 93.2679 233.868 92.6805 231.636C92.0931 229.404 90.9967 227.602 89.5087 226.193C87.9815 224.783 85.8277 224.078 83.0475 224.078C79.484 224.078 76.1164 225.331 72.9053 227.798C69.6943 230.265 66.8357 233.476 64.3687 237.392C62.8415 239.82 61.471 242.444 60.2962 245.302C59.1215 248.161 58.2208 251.059 57.5551 253.995C56.8894 256.932 56.5761 259.752 56.5761 262.415C56.5761 267.231 57.5551 270.834 59.513 273.183C61.471 275.572 63.9771 276.747 67.0707 276.747C69.8118 276.747 72.7095 275.846 75.8031 274.045C78.8966 272.243 81.7552 269.659 84.4572 266.252C87.1591 262.924 89.3912 258.89 91.075 254.113C92.7197 249.257 93.542 244.088 93.5812 238.528ZM83.0083 250.863C82.4601 253.251 81.5986 255.523 80.5021 257.676C79.3665 259.83 77.996 261.631 76.3905 263.041C74.785 264.451 72.9053 265.156 70.8299 265.156C69.6552 265.156 68.7154 264.647 68.0497 263.589C67.384 262.532 66.9924 261.514 66.9924 260.535C66.9924 258.616 67.2665 256.502 67.8147 254.152C68.3629 251.803 69.2244 249.453 70.3992 247.025C71.574 244.636 73.0228 242.679 74.7458 241.112C76.4688 239.546 78.4267 238.763 80.5413 238.763C81.5203 238.763 82.2643 239.076 82.695 239.742C83.1649 240.407 83.4782 241.151 83.5957 242.013C83.7523 242.874 83.7915 243.697 83.7915 244.441C83.8307 246.32 83.5565 248.474 83.0083 250.863ZM145.349 252.547C144.605 250.863 143.783 249.492 142.804 248.474C141.825 247.456 140.924 246.751 140.141 246.281C138.457 245.263 136.969 244.245 135.677 243.227C134.385 242.209 133.758 240.956 133.758 239.389C133.758 238.449 134.071 237.588 134.698 236.844C135.324 236.061 136.029 235.473 136.852 235.043C137.635 234.612 138.261 234.377 138.653 234.377C139.436 234.377 140.102 234.69 140.572 235.317C141.042 235.943 141.316 236.961 141.316 238.371C141.316 238.763 141.277 239.115 141.198 239.507C141.12 239.898 141.042 240.251 140.963 240.642L151.105 237.705C151.145 237.353 151.223 236.961 151.301 236.609C151.38 236.257 151.419 235.904 151.497 235.591C151.536 235.278 151.575 234.925 151.615 234.612C151.654 234.299 151.654 233.946 151.654 233.633C151.654 231.597 151.223 229.952 150.401 228.738C149.578 227.524 148.443 226.663 147.033 226.114C145.623 225.566 144.096 225.292 142.491 225.292C140.219 225.292 137.791 225.723 135.246 226.584C132.701 227.446 130.312 228.66 128.08 230.226C125.848 231.792 124.008 233.594 122.598 235.669C122.245 236.178 121.932 236.726 121.658 237.275C121.619 235.121 121.266 233.124 120.64 231.323C119.935 229.325 118.76 227.72 117.155 226.545C115.549 225.37 113.317 224.744 110.498 224.744C108.775 224.744 106.817 224.979 104.663 225.449C102.509 225.919 100.473 226.428 98.5935 226.976C98.3194 228.895 97.9278 231.127 97.4579 233.672C96.988 236.217 96.4789 238.919 95.9307 241.739C95.3825 244.597 94.8343 247.417 94.286 250.197C93.7378 252.977 93.2288 255.562 92.7197 257.99C91.4666 264.02 90.1352 270.168 88.7255 276.473L100.826 274.084C100.982 273.144 101.1 272.204 101.256 271.304C101.413 270.364 101.57 269.424 101.726 268.523C101.961 266.918 102.235 265.195 102.549 263.354C102.862 261.475 103.214 259.752 103.606 258.185H104.389C106.621 258.185 108.775 257.637 110.85 256.502C112.926 255.366 114.766 253.878 116.372 251.959C117.977 250.04 119.269 247.887 120.209 245.498C120.366 245.106 120.522 244.676 120.64 244.284C120.953 245.733 121.619 247.025 122.715 248.239C124.243 249.884 125.887 251.372 127.728 252.703C129.607 253.995 131.291 255.327 132.779 256.697C134.267 258.068 135.011 259.556 135.011 261.201C135.011 262.454 134.463 263.472 133.367 264.216C132.27 264.96 131.095 265.351 129.881 265.351C129.098 265.351 128.119 265.117 127.023 264.647C125.926 264.177 124.83 263.55 123.851 262.767C122.833 261.984 122.089 261.122 121.58 260.261L116.411 270.403C118.134 272.596 119.935 274.201 121.815 275.18C123.694 276.159 125.535 276.668 127.414 276.668C130.9 276.668 134.111 275.924 137.008 274.475C139.906 272.987 142.216 270.951 143.9 268.367C145.584 265.782 146.446 262.728 146.446 259.282C146.446 256.462 146.093 254.27 145.349 252.547ZM110.85 244.245C110.145 246.007 109.284 247.495 108.187 248.631C107.13 249.766 106.034 250.471 104.976 250.745C105.564 247.613 106.151 244.676 106.66 241.935C107.169 239.193 107.678 236.257 108.187 233.163C109.127 233.163 109.989 233.594 110.733 234.494C111.516 235.395 111.908 236.687 111.908 238.41C111.908 240.564 111.555 242.483 110.85 244.245ZM172.76 224.078C170.254 229.952 167.944 235.865 165.868 241.817C163.793 247.769 161.717 253.76 159.681 259.791C158.311 259.791 156.979 259.83 155.609 259.948C154.238 260.026 152.907 260.143 151.536 260.222C152.28 257.324 153.024 254.465 153.69 251.607C154.395 248.748 155.1 245.929 155.805 243.07C156.47 240.212 157.136 237.353 157.88 234.494C158.624 231.636 159.329 228.777 160.073 225.919C162.736 225.488 165.163 225.135 167.356 224.861C169.549 224.587 171.351 224.313 172.76 224.078ZM158.35 266.409C159.72 267.701 160.386 269.15 160.386 270.795C160.386 272.674 159.603 274.319 158.076 275.807C156.549 277.295 154.316 278 151.419 278C150.009 278 148.873 277.647 147.934 276.982C147.033 276.316 146.367 275.454 145.897 274.475C145.467 273.457 145.232 272.439 145.232 271.421C145.232 269.541 145.858 267.936 147.072 266.565C148.325 265.195 150.009 264.49 152.202 264.49C154.943 264.49 156.979 265.156 158.35 266.409Z" fill="#00A763"/>
<path d="M146.447 259.125C146.447 259.752 146.407 260.339 146.368 260.927C146.212 259.204 145.898 257.755 145.389 256.502C144.645 254.779 143.823 253.447 142.844 252.429C141.865 251.411 140.964 250.706 140.181 250.236C138.497 249.218 137.009 248.2 135.717 247.182C134.425 246.164 133.798 244.911 133.798 243.344C133.798 242.679 133.955 242.091 134.268 241.504C134.582 242.17 135.091 242.718 135.717 243.227C137.009 244.245 138.497 245.263 140.181 246.281C140.964 246.751 141.865 247.495 142.844 248.474C143.823 249.492 144.684 250.824 145.389 252.547C146.055 254.27 146.447 256.423 146.447 259.125ZM140.964 240.603L141.16 240.564C141.121 240.447 141.121 240.329 141.082 240.212C141.043 240.368 141.004 240.486 140.964 240.603ZM152.242 264.49C150.049 264.49 148.326 265.195 147.112 266.566C145.859 267.936 145.272 269.581 145.272 271.421C145.272 272.048 145.35 272.674 145.546 273.34C145.82 272.283 146.368 271.343 147.151 270.481C148.405 269.111 150.088 268.406 152.281 268.406C154.983 268.406 157.02 269.033 158.39 270.325C159.212 271.108 159.761 271.93 160.074 272.831C160.309 272.165 160.426 271.5 160.426 270.795C160.426 269.15 159.761 267.701 158.39 266.409C157.02 265.117 154.944 264.49 152.242 264.49ZM152.555 260.144C152.947 258.577 153.339 257.05 153.73 255.523C154.435 252.664 155.14 249.845 155.845 246.986C156.51 244.128 157.176 241.269 157.92 238.41C158.664 235.552 159.369 232.693 160.113 229.835C162.776 229.404 165.204 229.051 167.397 228.777C168.767 228.621 169.981 228.425 171.038 228.268C171.626 226.859 172.213 225.488 172.801 224.078C171.391 224.313 169.589 224.548 167.397 224.861C165.204 225.136 162.776 225.488 160.113 225.919C159.369 228.777 158.625 231.636 157.92 234.495C157.176 237.353 156.51 240.212 155.845 243.07C155.14 245.929 154.435 248.788 153.73 251.607C153.025 254.466 152.32 257.324 151.576 260.222C151.89 260.222 152.242 260.183 152.555 260.144ZM123.852 266.526C124.87 267.31 125.927 267.936 127.024 268.406C128.159 268.876 129.099 269.111 129.882 269.111C131.096 269.111 132.232 268.719 133.368 267.975C134.464 267.231 135.012 266.213 135.012 264.96C135.012 264.216 134.856 263.511 134.542 262.846C134.268 263.315 133.877 263.707 133.368 264.059C132.271 264.803 131.096 265.195 129.882 265.195C129.099 265.195 128.12 264.96 127.024 264.49C125.927 264.02 124.831 263.394 123.852 262.611C122.873 261.827 122.09 260.966 121.581 260.104L116.373 270.247C116.764 270.756 117.195 271.265 117.626 271.735L121.542 264.02C122.09 264.882 122.834 265.743 123.852 266.526ZM108.188 252.547C109.246 251.411 110.146 249.962 110.851 248.161C111.556 246.399 111.909 244.441 111.909 242.365C111.909 241.778 111.869 241.23 111.752 240.721C111.595 241.974 111.282 243.149 110.851 244.284C110.146 246.046 109.285 247.534 108.188 248.67C107.405 249.532 106.583 250.158 105.761 250.511C105.487 251.881 105.212 253.291 104.938 254.74C106.035 254.426 107.131 253.722 108.188 252.547ZM22.979 257.833C23.6447 254.896 24.5453 251.999 25.7201 249.14C26.8948 246.281 28.2262 243.658 29.7926 241.23C32.2596 237.314 35.1182 234.103 38.3292 231.636C41.5402 229.169 44.9471 227.916 48.4713 227.916C51.2516 227.916 53.4445 228.621 54.9325 230.03C56.4597 231.44 57.517 233.281 58.1044 235.474C58.5743 237.157 58.8484 238.919 58.9659 240.721C59.0051 239.977 59.0051 239.233 59.0051 238.45C59.0051 236.061 58.6918 233.79 58.1044 231.558C57.517 229.326 56.4206 227.524 54.9325 226.115C53.4054 224.705 51.2516 224 48.4713 224C44.9079 224 41.5402 225.253 38.3292 227.72C35.1182 230.187 32.2596 233.398 29.7926 237.314C28.2654 239.742 26.8948 242.365 25.7201 245.224C24.5453 248.083 23.6447 250.98 22.979 253.917C22.3133 256.854 22 259.674 22 262.336C22 263.002 22 263.668 22.0783 264.294C22.1958 262.219 22.4699 260.065 22.979 257.833ZM33.4735 267.466C34.1784 268.524 35.1182 269.033 36.293 269.033C38.4075 269.033 40.248 268.328 41.8535 266.918C43.459 265.508 44.8296 263.746 45.9652 261.553C47.1008 259.4 47.9231 257.089 48.4713 254.74C49.0196 252.39 49.2937 250.197 49.2937 248.318C49.2937 247.769 49.2545 247.182 49.1762 246.595C49.0587 247.926 48.8238 249.336 48.4322 250.863C47.884 253.252 47.0225 255.523 45.926 257.677C44.7904 259.83 43.459 261.632 41.8143 263.041C40.2088 264.451 38.3684 265.156 36.2538 265.156C35.079 265.156 34.1392 264.647 33.4344 263.59C33.0036 262.963 32.7295 262.336 32.5729 261.749C32.4554 262.689 32.4162 263.59 32.4162 264.451C32.4162 265.391 32.7687 266.409 33.4735 267.466ZM57.0471 256.228C56.6947 258.342 56.4989 260.379 56.4989 262.336C56.4989 263.002 56.5381 263.668 56.5381 264.255C56.6555 262.18 56.9688 260.065 57.4779 257.833C58.1436 254.896 59.0442 251.999 60.219 249.14C61.3937 246.281 62.7251 243.658 64.2915 241.23C66.7585 237.314 69.6171 234.103 72.8281 231.636C76.0391 229.169 79.4459 227.916 82.9702 227.916C85.7505 227.916 87.9434 228.621 89.4314 230.03C90.9586 231.44 92.0159 233.281 92.6033 235.474C93.0732 237.157 93.3473 238.919 93.4648 240.721C93.504 239.977 93.504 239.233 93.504 238.45C93.504 236.061 93.1907 233.79 92.6033 231.558C92.0159 229.326 90.9195 227.524 89.4314 226.115C87.9042 224.705 85.7505 224 82.9702 224C79.4068 224 76.0391 225.253 72.8281 227.72C69.6171 230.187 66.7585 233.398 64.2915 237.314C62.7643 239.742 61.3937 242.365 60.219 245.224C59.5141 246.947 58.9267 248.67 58.4177 250.393C58.0652 252.429 57.6345 254.348 57.0471 256.228ZM88.6483 276.473L89.5489 276.277C90.6062 271.382 91.6635 266.605 92.6425 261.867C93.1515 259.439 93.6606 256.854 94.2088 254.074C94.757 251.294 95.3053 248.474 95.8535 245.616C96.4017 242.757 96.9108 240.094 97.3807 237.549C97.8506 235.004 98.203 232.772 98.5163 230.853C100.396 230.305 102.393 229.796 104.586 229.326C106.74 228.856 108.698 228.621 110.421 228.621C113.201 228.621 115.433 229.208 117.078 230.422C118.722 231.597 119.858 233.202 120.563 235.199C121.189 237.04 121.542 239.037 121.581 241.152C121.855 240.603 122.168 240.055 122.521 239.546C123.93 237.471 125.732 235.669 128.003 234.103C130.235 232.537 132.624 231.323 135.169 230.461C137.714 229.6 140.142 229.169 142.413 229.169C144.058 229.169 145.546 229.443 146.956 229.991C148.365 230.54 149.462 231.401 150.323 232.615C150.872 233.437 151.263 234.416 151.459 235.591V235.552C151.498 235.239 151.537 234.886 151.576 234.573C151.616 234.26 151.616 233.907 151.616 233.594C151.616 231.558 151.185 229.913 150.363 228.699C149.54 227.485 148.405 226.624 146.995 226.075C145.585 225.527 144.058 225.253 142.452 225.253C140.181 225.253 137.753 225.684 135.208 226.545C132.663 227.407 130.274 228.621 128.042 230.187C125.81 231.753 123.969 233.555 122.56 235.63C122.207 236.139 121.894 236.687 121.62 237.236C121.581 235.082 121.228 233.085 120.602 231.284C119.897 229.286 118.722 227.681 117.117 226.506C115.511 225.331 113.279 224.705 110.46 224.705C108.737 224.705 106.779 224.94 104.625 225.41C102.471 225.88 100.435 226.389 98.5554 226.937C98.2813 228.856 97.8897 231.088 97.4198 233.633C96.9499 236.178 96.4409 238.88 95.8926 241.7C95.3444 244.558 94.7962 247.378 94.248 250.158C93.6997 252.938 93.1907 255.523 92.6816 257.951C91.3894 264.02 90.058 270.168 88.6483 276.473ZM68.0116 267.466C68.7164 268.524 69.6562 269.033 70.7919 269.033C72.9064 269.033 74.7469 268.328 76.3524 266.918C77.9579 265.508 79.3285 263.746 80.4641 261.553C81.5997 259.36 82.422 257.089 82.9702 254.74C83.5185 252.351 83.7926 250.197 83.7926 248.318C83.7926 247.769 83.7534 247.182 83.6751 246.595C83.5576 247.926 83.3227 249.336 82.9311 250.863C82.3829 253.252 81.5214 255.523 80.4249 257.677C79.2893 259.83 77.9188 261.632 76.3132 263.041C74.7077 264.451 72.8281 265.156 70.7527 265.156C69.5779 265.156 68.6381 264.647 67.9724 263.59C67.5417 262.963 67.2676 262.336 67.1109 261.749C66.9935 262.689 66.9543 263.59 66.9543 264.451C66.9543 265.391 67.3067 266.409 68.0116 267.466Z" fill="#8EE26B"/>
<path d="M128.379 60.3801C128.308 60.6198 128.2 61.0872 128.045 61.5306C123.824 74.0056 119.59 86.4688 115.404 98.9558C114.927 100.382 114.128 101.281 112.792 101.952C99.4106 108.699 86.0651 115.505 72.6959 122.288C70.1198 123.594 68.8198 123.019 68.0327 120.227C64.3237 107.093 60.6027 93.9586 56.8936 80.8364C56.2019 78.4037 56.7624 77.409 59.2073 76.702C80.9726 70.4105 102.726 64.131 124.491 57.8515C126.781 57.1924 128.403 58.1631 128.367 60.3921L128.379 60.3801Z" fill="#008475"/>
<path d="M63.2971 129.472C62.5457 133.319 61.8182 137.034 61.0907 140.749C59.8743 146.956 58.6697 153.152 57.4413 159.359C57.1074 161.013 56.2606 161.936 54.9487 161.792C54.1616 161.708 53.3148 161.277 52.6828 160.773C41.0428 151.534 29.4386 142.27 17.8224 133.007C16.7371 132.144 15.6519 131.281 14.5785 130.419C12.7776 128.968 12.6345 127.746 14.1014 125.901C17.9894 121.047 21.9012 116.218 25.8011 111.376C32.6109 102.916 39.4208 94.4672 46.2068 86.0067C46.9939 85.036 47.8049 84.1851 49.1884 84.4728C50.5599 84.7604 51.0131 85.8269 51.3589 87.0373C55.1992 100.675 59.0752 114.3 62.9274 127.938C63.0824 128.489 63.1897 129.052 63.2852 129.484L63.2971 129.472Z" fill="#8EE26B"/>
<path d="M88.4953 199.036C74.9114 199.347 61.3274 199.659 47.7554 199.971C47.3737 199.971 46.9802 200.043 46.6104 199.971C46.0857 199.875 45.4417 199.803 45.1197 199.467C44.9527 199.288 45.2509 198.497 45.5132 198.089C47.5049 194.878 49.5204 191.69 51.536 188.49C54.1597 184.32 56.8312 180.185 59.4073 175.991C60.2421 174.637 61.2678 174.11 62.8539 174.337C77.237 176.411 91.6319 178.436 106.027 180.497C106.575 180.581 107.136 180.773 107.649 181.024C115.616 185.027 123.57 189.053 131.537 193.056C132.539 193.559 133.302 194.206 133.386 195.405C133.493 196.963 132.384 198.017 130.535 198.065C123.391 198.245 116.236 198.413 109.092 198.569C102.234 198.724 95.3648 198.88 88.5072 199.024L88.4953 199.036Z" fill="#00A763"/>
<path d="M13.8743 139.24C14.1724 139.396 14.8164 139.6 15.3173 140.007C27.6252 149.798 39.9092 159.589 52.1932 169.403C53.6363 170.554 53.8151 171.716 52.8253 173.298C48.5795 180.069 44.31 186.828 40.0404 193.575C38.9312 195.324 37.6432 195.6 35.9378 194.449C30.4875 190.818 25.0491 187.199 19.6465 183.496C18.9787 183.029 18.3347 182.142 18.1796 181.363C15.7586 168.421 13.4091 155.454 11.0597 142.5C10.7257 140.63 11.811 139.228 13.8743 139.252V139.24Z" fill="#00A763"/>
<path d="M198.515 177.702C198.515 175.017 198.551 172.333 198.503 169.649C198.479 168.007 199.087 166.832 200.471 165.934C206.124 162.279 211.741 158.576 217.394 154.908C219.648 153.446 221.39 153.878 222.785 156.215C225.373 160.577 227.973 164.927 230.489 169.325C230.942 170.116 231.205 171.111 231.229 172.033C231.324 174.909 231.252 177.785 231.264 180.662C231.264 182.112 230.74 183.214 229.535 184.077C225.218 187.157 220.924 190.261 216.643 193.376C215.462 194.239 214.258 194.431 212.874 193.94C208.962 192.549 205.039 191.219 201.127 189.841C199.278 189.194 198.539 188.151 198.527 186.174C198.503 183.346 198.527 180.518 198.527 177.69L198.515 177.702Z" fill="#00A763"/>
<path d="M34.0881 12.9872C34.4101 11.0459 35.1495 9.63177 36.7119 8.81687C42.1383 6.01267 47.5647 3.20847 53.0389 0.500143C55.7819 -0.854022 58.6919 0.643948 59.4075 3.75973C61.7927 14.0658 64.1302 24.3838 66.4916 34.7018C66.8971 36.4754 67.3145 38.249 67.6842 40.0226C68.1613 42.3354 67.2907 44.2289 65.3586 45.2116C63.4504 46.1703 61.3634 45.7508 59.8129 43.9652C55.1736 38.6205 50.5582 33.2518 45.9428 27.883C42.5438 23.9404 39.109 20.0097 35.7578 16.0191C35.0303 15.1443 34.6248 13.9939 34.0762 12.9752L34.0881 12.9872Z" fill="#70D840"/>
<path d="M203.824 115.475C205.732 115.475 207.64 115.451 209.536 115.475C211.444 115.498 212.53 116.469 212.804 118.387C213.448 122.88 214.068 127.386 214.736 131.892C214.939 133.282 214.736 134.493 214.02 135.739C212.076 139.142 210.228 142.606 208.32 146.033C207.258 147.951 206.376 148.37 204.241 148.034C200.949 147.519 197.658 147.004 194.354 146.5C191.241 146.021 190.228 143.996 191.754 141.264C193.567 138.004 195.38 134.744 197.252 131.521C197.956 130.31 198.087 129.148 197.598 127.83C196.692 125.313 195.833 122.773 194.986 120.232C194.08 117.548 195.296 115.75 198.099 115.69C200.007 115.642 201.915 115.69 203.812 115.69C203.812 115.63 203.812 115.57 203.812 115.51L203.824 115.475Z" fill="#70D840"/>
<path d="M163.742 175.495C165.03 175.387 165.984 175.867 166.461 177.113C166.926 178.311 166.509 179.27 165.578 180.049C160.474 184.291 155.358 188.534 150.241 192.764C149.299 193.543 148.273 193.627 147.176 193.075C141.13 190.02 135.083 186.964 129.036 183.92C127.88 183.333 127.283 182.434 127.51 181.128C127.737 179.833 128.607 179.162 129.895 179.03C141.034 177.868 152.185 176.694 163.324 175.531C163.467 175.519 163.611 175.507 163.754 175.495H163.742Z" fill="#00A763"/>
<path d="M225.041 137.141C225.232 136.758 225.47 135.967 225.935 135.344C228.666 131.712 231.433 128.105 234.2 124.51C235.44 122.892 236.764 122.569 238.601 123.42C240.95 124.486 243.276 125.577 245.602 126.703C247.438 127.59 248.046 129.016 247.426 130.969C246.079 135.26 244.707 139.55 243.312 143.828C242.536 146.201 240.7 147.016 238.482 145.985C234.677 144.211 230.897 142.39 227.092 140.604C225.804 139.993 225.1 139.011 225.029 137.153L225.041 137.141Z" fill="#70D840"/>
<path fill-rule="evenodd" clip-rule="evenodd" d="M139.589 122.281C144.551 122.508 149.5 122.724 154.461 122.94L154.438 122.928L154.439 122.928C155.583 122.988 156.728 123.048 157.872 123.096C158.536 123.126 159.2 123.158 159.863 123.189C163.06 123.339 166.252 123.49 169.453 123.599C171.862 123.683 172.995 121.777 171.874 119.644C171.77 119.436 171.659 119.243 171.547 119.048C171.517 118.995 171.487 118.942 171.456 118.889C167.283 111.682 163.112 104.478 158.942 97.2742C154.77 90.0678 150.598 82.8613 146.423 75.6519C144.074 71.6014 141.724 67.5389 139.375 63.4764C138.79 62.4817 137.896 61.7268 136.811 62.0983C136.136 62.3308 135.57 62.9392 135.032 63.5183C134.904 63.6556 134.778 63.7912 134.652 63.9198C134.488 64.0851 134.425 64.3586 134.363 64.6304C134.335 64.7528 134.307 64.8748 134.27 64.9863C132.983 68.7941 131.69 72.6007 130.396 76.4075C127.485 84.977 124.573 93.5479 121.724 102.136C120.853 104.772 119.363 106.522 116.87 107.768C107.278 112.584 97.7095 117.443 88.1409 122.303C82.7317 125.051 77.3223 127.798 71.9082 130.538C70.6679 131.173 69.9046 131.988 69.6303 133.414C68.3057 140.296 66.9591 147.173 65.613 154.048C64.9714 157.324 64.33 160.6 63.691 163.876C63.2021 166.369 63.9176 167.412 66.3744 167.759C70.5967 168.361 74.8189 168.958 79.0405 169.554C86.5766 170.618 94.1109 171.682 101.64 172.78C103.252 173.013 104.848 173.34 106.445 173.668C107.731 173.932 109.017 174.196 110.311 174.41C110.716 174.482 111.444 174.015 111.682 173.595C112.762 171.719 113.779 169.807 114.798 167.893C115.106 167.313 115.415 166.733 115.725 166.153L133.722 132.467C133.769 132.383 133.814 132.299 133.859 132.215C133.904 132.131 133.948 132.048 133.996 131.964C135.117 130.058 137.097 129.435 138.874 130.442C140.567 131.412 141.152 133.414 140.15 135.307C137.211 140.875 134.244 146.424 131.273 151.98C130.881 152.713 130.489 153.447 130.096 154.181C129.142 155.963 128.19 157.746 127.238 159.529C125.666 162.473 124.093 165.418 122.511 168.358C121.974 169.353 121.736 170.324 122.368 171.342C123.036 172.433 124.073 172.624 125.242 172.469C125.433 172.441 125.624 172.43 125.815 172.418C125.958 172.409 126.101 172.4 126.244 172.385C133.972 171.576 141.703 170.764 149.434 169.952C157.165 169.14 164.897 168.328 172.625 167.519C175.094 167.256 175.797 166.501 175.797 164.032V140.304C175.797 139.585 175.8 138.866 175.803 138.147C175.808 136.709 175.813 135.271 175.797 133.833C175.774 131.904 174.963 131.029 173.054 130.849C172.705 130.817 172.355 130.806 172.005 130.796C171.83 130.791 171.655 130.785 171.48 130.777C169.336 130.679 167.192 130.582 165.048 130.484C156.47 130.095 147.893 129.706 139.315 129.255C138.373 129.207 137.288 128.656 136.584 127.997C135.523 127.002 135.439 125.6 136.083 124.27C136.787 122.82 138.003 122.209 139.589 122.281ZM121.462 105.847C121.741 105.635 122.025 105.418 122.296 105.18C122.658 105.382 122.995 105.547 123.306 105.7C123.898 105.99 124.394 106.233 124.777 106.594C128.283 109.901 131.73 113.257 135.177 116.624C136.143 117.562 136.47 118.641 136.18 119.618C136.057 120.044 135.817 120.451 135.462 120.819C134.305 122.005 132.564 122.041 131.24 120.783C127.65 117.367 124.096 113.904 120.542 110.441C119.892 109.813 119.534 109.034 119.614 108.259C119.646 107.935 119.753 107.612 119.947 107.301C120.304 106.731 120.87 106.299 121.462 105.847Z" fill="#00A763"/>
</svg>
