<svg width="56" height="59" viewBox="0 0 56 59" fill="none" xmlns="http://www.w3.org/2000/svg">
<g opacity="0.4">
<ellipse cx="28.0329" cy="55.0709" rx="13.0329" ry="3.07092" fill="#366C00" fill-opacity="0.75"/>
<path d="M52.3629 26.3562C52.3629 22.5522 50.0496 19.2886 46.7532 17.8953C47.3353 16.7699 47.6661 15.4935 47.6661 14.1391C47.6661 9.61655 43.9999 5.95019 39.4772 5.95019C38.1887 5.95019 36.9702 6.24867 35.8857 6.77892C34.922 3.3288 31.7577 0.796875 28.0001 0.796875C24.2424 0.796875 21.0781 3.3288 20.1144 6.77903C19.03 6.24878 17.8114 5.9503 16.5229 5.9503C12.0003 5.9503 8.33399 9.61655 8.33399 14.1392C8.33399 15.4936 8.66485 16.77 9.24694 17.8954C5.95049 19.2887 3.63721 22.5523 3.63721 26.3563C3.63721 31.2861 7.52385 35.303 12.3995 35.523C13.0792 37.9851 15.7042 39.8206 18.8412 39.8206C20.6192 39.8206 22.2319 39.23 23.4206 38.2712C24.6092 39.23 26.2221 39.8206 28.0001 39.8206C29.7781 39.8206 31.3908 39.23 32.5795 38.2712C33.7681 39.23 35.3809 39.8206 37.1589 39.8206C40.296 39.8206 42.921 37.985 43.6006 35.523C48.4763 35.3029 52.3629 31.286 52.3629 26.3562Z" fill="#60A917"/>
<path d="M27.509 0.813062C27.4081 0.819078 27.3077 0.826406 27.208 0.836141C27.1775 0.839094 27.1471 0.842484 27.1165 0.845766C27.0093 0.857359 26.9027 0.870703 26.7967 0.886453C26.7769 0.889406 26.757 0.89225 26.7372 0.895313C26.6111 0.915 26.4859 0.936875 26.3617 0.962141C26.3615 0.962141 26.3613 0.96225 26.3611 0.96225C28.5107 1.39942 30.5235 2.89666 31.7986 4.78392C32.7016 6.12038 34.2444 6.8907 35.8535 6.78133C35.8642 6.78056 35.875 6.77991 35.8857 6.77914C34.9221 3.3288 31.7579 0.796875 28.0002 0.796875C27.8685 0.796875 27.7377 0.800703 27.6074 0.806938C27.5745 0.808469 27.5418 0.811094 27.509 0.813062Z" fill="#A4C400"/>
<path d="M46.7531 17.8943C47.3353 16.7689 47.6661 15.4925 47.6661 14.1381C47.6661 9.61558 43.9998 5.94922 39.4772 5.94922C38.916 5.94922 38.368 6.00598 37.8386 6.11372C41.5754 6.87322 44.3879 10.1771 44.3879 14.1381C44.3879 15.4925 44.057 16.7689 43.4749 17.8943C46.7714 19.2876 49.0847 22.5512 49.0847 26.3552C49.0847 31.2851 45.198 35.302 40.3225 35.5218C39.7654 37.5398 37.9011 39.136 35.5195 39.6466C36.0438 39.7591 36.5928 39.8195 37.1588 39.8195C40.2958 39.8195 42.9209 37.984 43.6006 35.5219C48.4762 35.3021 52.3627 31.2852 52.3627 26.3553C52.363 22.5512 50.0498 19.2877 46.7531 17.8943Z" fill="#A4C400"/>
<path d="M22.1366 36.9158C21.3981 38.1684 18.3375 39.569 17.2025 39.6486C17.3274 39.6754 17.454 39.6988 17.5815 39.7196C17.5918 39.7213 17.602 39.7231 17.6122 39.7248C17.7416 39.7453 17.8722 39.7629 18.0041 39.777C18.0075 39.7774 18.0109 39.7776 18.0143 39.778C18.133 39.7906 18.253 39.7996 18.3736 39.8068C18.403 39.8085 18.4323 39.8102 18.4619 39.8116C18.5875 39.8176 18.7139 39.8217 18.8414 39.8217C20.463 39.8217 21.946 39.3294 23.0963 38.5155L23.298 38.3688L22.2708 36.6836L22.1366 36.9158Z" fill="#009000"/>
<path d="M32.0948 39.005L35.6033 33.4689C35.8807 33.0309 35.7968 32.4561 35.4056 32.1158C34.9879 31.7524 34.3598 31.7762 33.9707 32.17L31.387 34.7858C31.0443 35.1328 30.4572 34.8443 30.5225 34.361L31.2823 28.7317C31.3634 28.1303 30.9188 27.5856 30.3133 27.5447L29.6015 27.4966C29.0666 27.4605 28.5905 27.8334 28.4976 28.3614L27.1415 36.0667C27.066 36.4953 26.5218 36.6367 26.2473 36.2991L21.9998 31.0754C21.706 30.7139 21.2088 30.5896 20.7794 30.7701L20.0358 31.0827C19.447 31.3303 19.2141 32.042 19.5426 32.5896L23.9075 39.865C24.5395 40.9186 24.8002 42.1547 24.6421 43.3731C24.0764 47.7359 23.3738 51.8504 20.4982 55.2021H35.5028C32.4246 51.6141 31.6653 47.152 31.2579 42.447C31.153 41.2389 31.4457 40.0293 32.0948 39.005Z" fill="#BF6101"/>
<path d="M35.603 33.4695C35.8805 33.0316 35.7966 32.4567 35.4054 32.1164C34.9876 31.7531 34.3595 31.7768 33.9705 32.1707L32.8166 33.3388L31.3867 34.7865C31.044 35.1334 30.457 34.8449 30.5222 34.3617L31.282 28.7324C31.3612 28.1461 30.9402 27.6152 30.3581 27.5508L28.2217 40.8298C28.1858 41.0013 28.1577 41.1744 28.1383 41.3488C28.0976 41.7117 28.0921 42.0797 28.1239 42.4475C28.5314 47.1526 29.2906 51.6147 32.3689 55.2026H35.5024C32.4241 51.6146 31.6648 47.1525 31.2574 42.4475C31.1529 41.2394 31.4454 40.0298 32.0946 39.0055L35.603 33.4695Z" fill="#9A4D01"/>
<path d="M26.4417 7.22656C24.1443 7.22656 22.1666 8.59014 21.27 10.5515C20.3438 9.89695 19.2142 9.51119 17.9939 9.51119C14.8542 9.51119 12.3089 12.0565 12.3089 15.1962C12.3089 16.2322 12.5874 17.2024 13.0715 18.0389C10.3452 18.4581 8.25745 20.8139 8.25745 23.6575C8.25745 26.7972 10.8027 29.3425 13.9424 29.3425C17.0821 29.3425 32.1267 16.0513 32.1267 12.9115C32.1267 9.77183 29.5813 7.22656 26.4417 7.22656Z" fill="#A4C400"/>
</g>
</svg>
