<svg width="56" height="58" viewBox="0 0 56 58" fill="none" xmlns="http://www.w3.org/2000/svg">
<g opacity="0.4">
<ellipse cx="26.8189" cy="53.9585" rx="16.2007" ry="3.07182" fill="#366C00" fill-opacity="0.75"/>
<path d="M19.25 32.375V29.75H10.5L12.1931 34.8285C12.7496 36.498 14.3124 37.625 16.0729 37.625C16.9479 37.625 17.7608 38.0083 18.3855 38.6208C19.9614 40.1678 22.1165 41.125 24.5 41.125V37.625C21.6003 37.625 19.25 35.2747 19.25 32.375Z" fill="#9A4D01"/>
<path d="M24.5 37.625V41.125C23.5813 41.125 22.6975 40.985 21.875 40.7225V39.585C21.875 38.9813 21.3938 38.5 20.79 38.5C20.3875 38.5 20.0113 38.2725 19.8275 37.905C19.46 37.17 18.795 36.6362 17.9988 36.435C16.52 36.0675 14.98 36.0675 13.5013 36.435L13.3 36.4875C13.2825 36.4875 13.2738 36.4963 13.2563 36.505C12.775 36.05 12.4075 35.4812 12.1888 34.825L10.5 29.75H19.25V32.375C19.25 35.2712 21.6038 37.625 24.5 37.625Z" fill="#BF6101"/>
<path d="M38.5 29.75L36.5662 31.3189C36.0806 31.7126 35.8059 32.3094 35.8216 32.9341C35.8514 34.0664 34.9414 35 33.8091 35H30.625V38.5H33.6507C35.5504 38.5 37.2864 37.4273 38.136 35.728C38.3766 35.2459 38.6942 34.8057 39.0757 34.4242L41.125 32.375L38.5 29.75Z" fill="#9A4D01"/>
<path d="M41.125 32.375L39.0775 34.4225C38.6925 34.8075 38.3775 35.245 38.1325 35.7263C38.0012 35.9888 37.8437 36.2425 37.6687 36.47L35.875 35.875C35.315 36.435 34.5537 36.75 33.7662 36.75C33.5387 36.75 33.3638 36.9337 33.3638 37.1525C33.3638 37.1875 33.3637 37.2137 33.3725 37.2487L33.6875 38.5H30.625V35H33.81C34.9212 35 35.8225 34.09 35.8225 32.9787V32.935C35.805 32.3137 36.085 31.71 36.5662 31.3163L38.5 29.75L41.125 32.375Z" fill="#BF6101"/>
<path d="M32.375 44.3476V26.25H23.625V43.3834C23.625 46.1895 21.7647 48.6561 19.0663 49.427C18.039 49.7201 17.1036 50.2705 16.3485 51.0265L14 53.375H20.6797C22.5864 53.375 24.4361 52.7266 25.9262 51.5366C26.5641 51.0274 27.356 50.75 28.1724 50.75C29.1576 50.75 30.0781 51.2426 30.625 52.0625C31.1719 52.8824 32.0924 53.375 33.0776 53.375H38.5L35.5976 51.0528C34.6272 50.2766 33.8371 49.2993 33.2815 48.188C32.6856 46.9954 32.375 45.6811 32.375 44.3476Z" fill="#9A4D01"/>
<path d="M32.2455 49.616C31.7747 48.6754 30.8962 48.0043 29.8655 47.7978C28.2721 47.4793 27.125 46.0801 27.125 44.4553V34.125C29.1462 34.125 31.052 33.2439 32.375 31.7389V26.25H23.625V43.3834C23.625 46.1895 21.7647 48.6561 19.0663 49.427C18.039 49.7201 17.1036 50.2705 16.3485 51.0265L14 53.375H20.6797C22.5864 53.375 24.4361 52.7266 25.9262 51.5366C26.5641 51.0274 27.356 50.75 28.1724 50.75C29.1576 50.75 30.0781 51.2426 30.625 52.0625C31.1719 52.8824 32.0924 53.375 33.0776 53.375H38.5L35.3806 52.3355C34.0165 51.8805 32.8886 50.9023 32.2455 49.616Z" fill="#BF6101"/>
<path d="M25.375 49C25.151 49 24.927 48.9143 24.7563 48.7436C24.4142 48.4015 24.4142 47.8485 24.7563 47.5064C26.1931 46.0696 26.8126 44.0239 26.4145 42.0315C26.3016 41.4671 26.25 40.9518 26.25 40.4381V38.5C26.25 38.0161 26.6411 37.625 27.125 37.625C27.6089 37.625 28 38.0161 28 38.5V40.4381C28 40.8363 28.0394 41.2361 28.1181 41.6264C28.644 44.2549 27.8451 46.893 25.9936 48.7436C25.823 48.9143 25.599 49 25.375 49Z" fill="#9A4D01"/>
<path d="M28.875 35.875C28.3911 35.875 28 35.4839 28 35V31.5C28 31.0161 28.3911 30.625 28.875 30.625C29.3589 30.625 29.75 31.0161 29.75 31.5V35C29.75 35.4839 29.3589 35.875 28.875 35.875Z" fill="#9A4D01"/>
<path d="M53.375 25.375C53.375 22.8515 51.5944 20.7463 49.2214 20.2414C49.6361 19.4163 49.875 18.487 49.875 17.5C49.875 14.1173 47.1328 11.375 43.75 11.375C43.4123 11.375 43.0841 11.4091 42.7613 11.4616C42.8313 11.1519 42.875 10.8316 42.875 10.5C42.875 8.08413 40.9159 6.125 38.5 6.125C37.6749 6.125 36.9119 6.36738 36.253 6.76463C35.5276 5.3515 34.0725 4.375 32.375 4.375C32.0924 4.375 31.8168 4.4065 31.549 4.45813C30.7545 3.35212 29.4656 2.625 28 2.625C26.2483 2.625 24.7476 3.66188 24.0494 5.14938C23.2969 4.66113 22.4009 4.375 21.4375 4.375C19.5134 4.375 17.8588 5.50638 17.0879 7.13825C14.3238 7.72975 12.25 10.1841 12.25 13.125C12.25 14.1068 12.4871 15.0316 12.8975 15.8541C10.4011 16.3083 8.43588 18.2735 7.98 20.769C6.35338 21.6615 5.25 23.3888 5.25 25.375C5.25 25.4966 5.25963 25.6156 5.26838 25.7346C3.71437 26.4058 2.625 27.9493 2.625 29.75C2.625 32.1659 4.58413 34.125 7 34.125C7.7455 34.125 8.43763 33.9211 9.05188 33.5921C9.85075 34.4531 10.983 35 12.25 35C13.587 35 14.7691 34.3875 15.5715 33.4416C16.4124 33.8756 17.3635 34.125 18.375 34.125C21.0446 34.125 23.3083 32.4144 24.1474 30.0318C24.8815 31.4195 26.3218 32.375 28 32.375C30.0414 32.375 31.7415 30.9706 32.2245 29.0798C33.0584 29.505 33.9999 29.75 35 29.75C35.1286 29.75 35.2538 29.7386 35.3798 29.7308C35.1391 30.2724 35 30.8691 35 31.5C35 33.9159 36.9591 35.875 39.375 35.875C40.8118 35.875 42.0753 35.1733 42.8733 34.1031C43.6065 34.6588 44.5095 35 45.5 35C47.9159 35 49.875 33.0409 49.875 30.625C49.875 30.5244 49.8523 30.4299 49.8453 30.331C51.8989 29.6179 53.375 27.671 53.375 25.375Z" fill="#A4C400"/>
<path d="M53.2761 26.3472C52.4738 27.3473 51.2575 28.0001 49.8759 28.0001C49.7105 28.0001 49.5478 27.9905 49.3885 27.9721C48.0568 27.819 46.7241 27.9633 45.4983 28.5058C44.772 28.8278 43.9408 28.9565 43.0649 28.8217C41.3481 28.5583 39.9131 27.2327 39.5028 25.5448C39.2551 24.5263 39.3855 23.5638 39.7556 22.7308C39.6296 22.7387 39.5045 22.7501 39.3759 22.7501C39.3636 22.7501 39.3523 22.7501 39.34 22.7501C37.9041 22.7413 36.4481 23.1158 35.4253 24.1238C34.6413 24.8973 33.5668 25.3751 32.3759 25.3751C31.8728 25.3751 31.3906 25.2893 30.9426 25.131C29.4744 24.6138 27.8381 24.739 26.6376 25.7295C25.5806 26.601 24.2279 27.1251 22.7509 27.1251C22.0868 27.1251 21.4524 27.0087 20.8548 26.8118C19.9141 27.1837 18.8274 27.2686 17.6741 26.8241C16.3634 26.3183 15.3414 25.1808 15.0063 23.8167C14.8129 23.0283 14.8418 22.2723 15.0369 21.5855C15.2416 20.8636 15.2539 20.1128 15.0308 19.3971C14.9301 19.0742 14.875 18.7312 14.875 18.3751C14.875 17.0285 15.6441 15.8726 16.7598 15.2872C16.681 15.016 16.625 14.7342 16.625 14.4376C16.625 14.3168 16.632 14.1987 16.646 14.0815C16.7606 13.133 16.6653 12.1687 16.1971 11.3366C15.9128 10.8308 15.75 10.2472 15.75 9.62509C15.75 8.70984 16.1096 7.88472 16.6845 7.26172C14.1286 7.99759 12.25 10.3321 12.25 13.1251C12.25 14.1068 12.4871 15.0317 12.8975 15.8542C10.4011 16.3083 8.43589 18.2736 7.98001 20.7691C6.35339 21.6616 5.25001 23.3888 5.25001 25.3751C5.25001 25.4967 5.25964 25.6157 5.26839 25.7347C3.55426 26.475 2.40539 28.2775 2.66089 30.3145C2.87089 31.9927 4.10289 33.4207 5.71726 33.9247C6.95801 34.3123 8.09814 34.1032 9.05276 33.5922C9.85076 34.4532 10.983 35.0001 12.25 35.0001C13.587 35.0001 14.7691 34.3876 15.5715 33.4417C16.4124 33.8757 17.3635 34.1251 18.375 34.1251C21.0446 34.1251 23.3083 32.4145 24.1474 30.0318C24.8815 31.4196 26.3218 32.3751 28 32.3751C30.0414 32.3751 31.7415 30.9707 32.2245 29.0798C33.0584 29.5051 33.9999 29.7501 35 29.7501C35.1286 29.7501 35.2538 29.7387 35.3798 29.7308C35.0096 30.5638 34.8793 31.5263 35.1269 32.5448C35.5373 34.2327 36.9723 35.5583 38.689 35.8217C40.4049 36.0851 41.9501 35.3396 42.8733 34.1032C43.6065 34.6588 44.5095 35.0001 45.5 35.0001C47.9159 35.0001 49.875 33.041 49.875 30.6251C49.875 30.5245 49.8523 30.43 49.8453 30.3311C51.6005 29.7212 52.9261 28.2075 53.2761 26.3472Z" fill="#60A917"/>
<path d="M42.175 25.375C41.7979 25.375 41.4444 25.4651 41.125 25.613C40.8056 25.4651 40.4521 25.375 40.075 25.375C38.7222 25.375 37.625 26.4416 37.625 27.7568C37.625 29.0728 38.7222 31.5 40.075 31.5C40.4521 31.5 40.8056 31.4099 41.125 31.262C41.4444 31.4099 41.7979 31.5 42.175 31.5C43.5278 31.5 44.625 29.0728 44.625 27.7568C44.625 26.4416 43.5278 25.375 42.175 25.375Z" fill="#40916C"/>
<path d="M35.9187 14.875C35.5889 14.875 35.2791 14.952 35 15.0789C34.7209 14.952 34.4111 14.875 34.0812 14.875C32.8974 14.875 31.9375 15.7894 31.9375 16.9164C31.9375 18.0443 32.8974 20.125 34.0812 20.125C34.4111 20.125 34.7209 20.048 35 19.9211C35.2791 20.048 35.5889 20.125 35.9187 20.125C37.1026 20.125 38.0625 18.0443 38.0625 16.9164C38.0625 15.7894 37.1026 14.875 35.9187 14.875Z" fill="#40916C"/>
<path d="M28.0437 23.625C27.7139 23.625 27.4041 23.702 27.125 23.8289C26.8459 23.702 26.5361 23.625 26.2063 23.625C25.0224 23.625 24.0625 24.5394 24.0625 25.6664C24.0625 26.7942 25.0224 28.875 26.2063 28.875C26.5361 28.875 26.8459 28.798 27.125 28.6711C27.4041 28.798 27.7139 28.875 28.0437 28.875C29.2276 28.875 30.1875 26.7942 30.1875 25.6664C30.1875 24.5394 29.2276 23.625 28.0437 23.625Z" fill="#40916C"/>
<path d="M20.3 14C19.9229 14 19.5694 14.0901 19.25 14.238C18.9306 14.0901 18.5771 14 18.2 14C16.8472 14 15.75 15.0666 15.75 16.3818C15.75 17.6978 16.8472 20.125 18.2 20.125C18.5771 20.125 18.9306 20.0349 19.25 19.887C19.5694 20.0349 19.9229 20.125 20.3 20.125C21.6528 20.125 22.75 17.6978 22.75 16.3818C22.75 15.0666 21.6528 14 20.3 14Z" fill="#40916C"/>
<path d="M47.4443 47.088L46.5841 47.2508L46.4214 46.3907C46.1519 44.9662 47.0873 43.5924 48.5118 43.3229L49.3719 43.1602L49.5346 44.0203C49.8041 45.4448 48.8688 46.8185 47.4443 47.088Z" fill="#5F9B22"/>
<path d="M49.5346 44.0211L49.497 43.8242C49.2143 44.9818 47.7636 45.9872 46.5683 46.2138L46.4082 46.2445C46.4143 46.2943 46.4117 46.3425 46.4213 46.3923L46.5841 47.2516L47.4442 47.0888C48.8678 46.8185 49.8041 45.4456 49.5346 44.0211Z" fill="#6FBE20"/>
<path d="M46.375 49C45.8911 49 45.5 48.6089 45.5 48.125C45.5 47.1599 44.7151 46.375 43.75 46.375C43.2661 46.375 42.875 45.9839 42.875 45.5C42.875 45.0161 43.2661 44.625 43.75 44.625C45.6803 44.625 47.25 46.1947 47.25 48.125C47.25 48.6089 46.8589 49 46.375 49Z" fill="#6FBE20"/>
<path d="M47.425 47.25C47.0479 47.25 46.6944 47.3401 46.375 47.488C46.0556 47.3401 45.7021 47.25 45.325 47.25C43.9722 47.25 42.875 48.3166 42.875 49.6318C42.875 50.9478 43.9722 53.375 45.325 53.375C45.7021 53.375 46.0556 53.2849 46.375 53.137C46.6944 53.2849 47.0479 53.375 47.425 53.375C48.7778 53.375 49.875 50.9478 49.875 49.6318C49.875 48.3166 48.7778 47.25 47.425 47.25Z" fill="#FF7373"/>
<path d="M49.588 51.054C49.175 52.2107 48.363 53.3745 47.425 53.3745C47.047 53.3745 46.697 53.2861 46.375 53.1365C46.053 53.2861 45.703 53.3745 45.325 53.3745C43.974 53.3745 42.875 50.9446 42.875 49.6312C42.875 48.6783 43.449 47.862 44.282 47.4805C44.275 47.5146 44.275 47.5557 44.275 47.5898C44.275 49.6583 45.997 51.3331 48.125 51.3331C48.643 51.3331 49.14 51.2307 49.588 51.054Z" fill="#EF5350"/>
<path d="M43.9443 24.338L43.0841 24.5008L42.9214 23.6407C42.6519 22.2162 43.5873 20.8424 45.0118 20.5729L45.8719 20.4102L46.0346 21.2703C46.3041 22.6948 45.3688 24.0685 43.9443 24.338Z" fill="#5F9B22"/>
<path d="M46.0346 21.2711L45.997 21.0742C45.7143 22.2318 44.2636 23.2372 43.0683 23.4638L42.9082 23.4945C42.9143 23.5443 42.9117 23.5925 42.9213 23.6423L43.0841 24.5016L43.9442 24.3388C45.3678 24.0685 46.3041 22.6956 46.0346 21.2711Z" fill="#6FBE20"/>
<path d="M42.875 26.25C42.3911 26.25 42 25.8589 42 25.375C42 24.4099 41.2151 23.625 40.25 23.625C39.7661 23.625 39.375 23.2339 39.375 22.75C39.375 22.2661 39.7661 21.875 40.25 21.875C42.1803 21.875 43.75 23.4447 43.75 25.375C43.75 25.8589 43.3589 26.25 42.875 26.25Z" fill="#6FBE20"/>
<path d="M43.925 24.5C43.5479 24.5 43.1944 24.5901 42.875 24.738C42.5556 24.5901 42.2021 24.5 41.825 24.5C40.4722 24.5 39.375 25.5666 39.375 26.8818C39.375 28.1978 40.4722 30.625 41.825 30.625C42.2021 30.625 42.5556 30.5349 42.875 30.387C43.1944 30.5349 43.5479 30.625 43.925 30.625C45.2778 30.625 46.375 28.1978 46.375 26.8818C46.375 25.5666 45.2778 24.5 43.925 24.5Z" fill="#FF7373"/>
<path d="M46.088 28.304C45.675 29.4607 44.863 30.6245 43.925 30.6245C43.547 30.6245 43.197 30.5361 42.875 30.3865C42.553 30.5361 42.203 30.6245 41.825 30.6245C40.474 30.6245 39.375 28.1946 39.375 26.8812C39.375 25.9283 39.949 25.112 40.782 24.7305C40.775 24.7646 40.775 24.8057 40.775 24.8398C40.775 26.9083 42.497 28.5831 44.625 28.5831C45.143 28.5831 45.64 28.4807 46.088 28.304Z" fill="#EF5350"/>
<path d="M21.1943 12.963L20.3341 13.1258L20.1714 12.2657C19.9019 10.8412 20.8373 9.46741 22.2618 9.19791L23.1219 9.03516L23.2846 9.89528C23.5541 11.3198 22.6188 12.6935 21.1943 12.963Z" fill="#5F9B22"/>
<path d="M23.2846 9.89609L23.247 9.69922C22.9643 10.8568 21.5136 11.8622 20.3183 12.0888L20.1582 12.1195C20.1643 12.1693 20.1617 12.2175 20.1713 12.2673L20.3341 13.1266L21.1942 12.9638C22.6178 12.6935 23.5541 11.3206 23.2846 9.89609Z" fill="#6FBE20"/>
<path d="M20.125 14.875C19.6411 14.875 19.25 14.4839 19.25 14C19.25 13.0349 18.4651 12.25 17.5 12.25C17.0161 12.25 16.625 11.8589 16.625 11.375C16.625 10.8911 17.0161 10.5 17.5 10.5C19.4303 10.5 21 12.0697 21 14C21 14.4839 20.6089 14.875 20.125 14.875Z" fill="#6FBE20"/>
<path d="M21.175 13.125C20.7979 13.125 20.4444 13.2151 20.125 13.363C19.8056 13.2151 19.4521 13.125 19.075 13.125C17.7222 13.125 16.625 14.1916 16.625 15.5068C16.625 16.8228 17.7222 19.25 19.075 19.25C19.4521 19.25 19.8056 19.1599 20.125 19.012C20.4444 19.1599 20.7979 19.25 21.175 19.25C22.5278 19.25 23.625 16.8228 23.625 15.5068C23.625 14.1916 22.5278 13.125 21.175 13.125Z" fill="#FF7373"/>
<path d="M23.338 16.929C22.925 18.0857 22.113 19.2495 21.175 19.2495C20.797 19.2495 20.447 19.1611 20.125 19.0115C19.803 19.1611 19.453 19.2495 19.075 19.2495C17.724 19.2495 16.625 16.8196 16.625 15.5062C16.625 14.5533 17.199 13.737 18.032 13.3555C18.025 13.3896 18.025 13.4307 18.025 13.4648C18.025 15.5333 19.747 17.2081 21.875 17.2081C22.393 17.2081 22.89 17.1057 23.338 16.929Z" fill="#EF5350"/>
<path d="M8.94426 47.963L8.08414 48.1258L7.92139 47.2657C7.65189 45.8412 8.58726 44.4674 10.0118 44.1979L10.8719 44.0352L11.0346 44.8953C11.3041 46.3198 10.3688 47.6935 8.94426 47.963Z" fill="#5F9B22"/>
<path d="M11.0346 44.8961L10.997 44.6992C10.7143 45.8568 9.26358 46.8622 8.06833 47.0888L7.9082 47.1195C7.91433 47.1693 7.9117 47.2175 7.92133 47.2673L8.08408 48.1266L8.9442 47.9638C10.3678 47.6935 11.3041 46.3206 11.0346 44.8961Z" fill="#6FBE20"/>
<path d="M7.875 49.875C7.39113 49.875 7 49.4839 7 49C7 48.0349 6.21513 47.25 5.25 47.25C4.76613 47.25 4.375 46.8589 4.375 46.375C4.375 45.8911 4.76613 45.5 5.25 45.5C7.18025 45.5 8.75 47.0697 8.75 49C8.75 49.4839 8.35887 49.875 7.875 49.875Z" fill="#6FBE20"/>
<path d="M8.79375 48.125C8.46388 48.125 8.15413 48.202 7.875 48.3289C7.59587 48.202 7.28612 48.125 6.95625 48.125C5.77237 48.125 4.8125 49.0394 4.8125 50.1664C4.8125 51.2943 5.77237 53.375 6.95625 53.375C7.28612 53.375 7.59587 53.298 7.875 53.1711C8.15413 53.298 8.46388 53.375 8.79375 53.375C9.97763 53.375 10.9375 51.2943 10.9375 50.1664C10.9375 49.0394 9.97763 48.125 8.79375 48.125Z" fill="#FF7373"/>
<path d="M10.6864 51.3856C10.325 52.377 9.6145 53.3745 8.79375 53.3745C8.463 53.3745 8.15675 53.2984 7.875 53.1706C7.59325 53.2984 7.287 53.3745 6.95625 53.3745C5.77412 53.3745 4.8125 51.292 4.8125 50.1659C4.8125 49.3495 5.31475 48.6495 6.04362 48.3223C6.0375 48.352 6.0375 48.387 6.0375 48.4159C6.0375 50.1895 7.54425 51.6245 9.40625 51.6245C9.8595 51.6245 10.2944 51.537 10.6864 51.3856Z" fill="#EF5350"/>
<path d="M13.3193 25.213L12.4591 25.3758L12.2964 24.5157C12.0269 23.0912 12.9623 21.7174 14.3868 21.4479L15.2469 21.2852L15.4096 22.1453C15.6791 23.5698 14.7438 24.9435 13.3193 25.213Z" fill="#5F9B22"/>
<path d="M15.4096 22.1461L15.372 21.9492C15.0893 23.1068 13.6386 24.1122 12.4433 24.3388L12.2832 24.3695C12.2893 24.4193 12.2867 24.4675 12.2963 24.5173L12.4591 25.3766L13.3192 25.2138C14.7428 24.9435 15.6791 23.5706 15.4096 22.1461Z" fill="#6FBE20"/>
<path d="M12.25 27.125C11.7661 27.125 11.375 26.7339 11.375 26.25C11.375 25.2849 10.5901 24.5 9.625 24.5C9.14113 24.5 8.75 24.1089 8.75 23.625C8.75 23.1411 9.14113 22.75 9.625 22.75C11.5553 22.75 13.125 24.3197 13.125 26.25C13.125 26.7339 12.7339 27.125 12.25 27.125Z" fill="#6FBE20"/>
<path d="M13.1688 25.375C12.8389 25.375 12.5291 25.452 12.25 25.5789C11.9709 25.452 11.6611 25.375 11.3312 25.375C10.1474 25.375 9.1875 26.2894 9.1875 27.4164C9.1875 28.5434 10.1474 30.625 11.3312 30.625C11.6611 30.625 11.9709 30.548 12.25 30.4211C12.5291 30.548 12.8389 30.625 13.1688 30.625C14.3526 30.625 15.3125 28.5443 15.3125 27.4164C15.3125 26.2885 14.3526 25.375 13.1688 25.375Z" fill="#FF7373"/>
<path d="M15.0614 28.6356C14.7 29.627 13.9895 30.6245 13.1688 30.6245C12.838 30.6245 12.5318 30.5484 12.25 30.4206C11.9683 30.5484 11.662 30.6245 11.3312 30.6245C10.1491 30.6245 9.1875 28.542 9.1875 27.4159C9.1875 26.5995 9.68975 25.8995 10.4186 25.5723C10.4125 25.602 10.4125 25.637 10.4125 25.6659C10.4125 27.4395 11.9193 28.8745 13.7813 28.8745C14.2345 28.8745 14.6694 28.787 15.0614 28.6356Z" fill="#EF5350"/>
<path d="M29.0693 22.588L28.2091 22.7508L28.0464 21.8907C27.7769 20.4662 28.7123 19.0924 30.1368 18.8229L30.9969 18.6602L31.1596 19.5203C31.4291 20.9448 30.4938 22.3185 29.0693 22.588Z" fill="#5F9B22"/>
<path d="M31.1596 19.5211L31.122 19.3242C30.8393 20.4818 29.3886 21.4872 28.1933 21.7138L28.0332 21.7445C28.0393 21.7943 28.0367 21.8425 28.0463 21.8923L28.2091 22.7516L29.0692 22.5888C30.4928 22.3185 31.4291 20.9456 31.1596 19.5211Z" fill="#6FBE20"/>
<path d="M28 24.5C27.5161 24.5 27.125 24.1089 27.125 23.625C27.125 22.6599 26.3401 21.875 25.375 21.875C24.8911 21.875 24.5 21.4839 24.5 21C24.5 20.5161 24.8911 20.125 25.375 20.125C27.3053 20.125 28.875 21.6947 28.875 23.625C28.875 24.1089 28.4839 24.5 28 24.5Z" fill="#6FBE20"/>
<path d="M28.9187 22.75C28.5889 22.75 28.2791 22.827 28 22.9539C27.7209 22.827 27.4111 22.75 27.0813 22.75C25.8974 22.75 24.9375 23.6644 24.9375 24.7914C24.9375 25.9193 25.8974 28 27.0813 28C27.4111 28 27.7209 27.923 28 27.7961C28.2791 27.923 28.5889 28 28.9187 28C30.1026 28 31.0625 25.9193 31.0625 24.7914C31.0625 23.6644 30.1026 22.75 28.9187 22.75Z" fill="#FF7373"/>
<path d="M30.8114 26.0106C30.45 27.002 29.7395 27.9995 28.9187 27.9995C28.588 27.9995 28.2817 27.9234 28 27.7956C27.7182 27.9234 27.412 27.9995 27.0813 27.9995C25.8991 27.9995 24.9375 25.917 24.9375 24.7909C24.9375 23.9745 25.4397 23.2745 26.1686 22.9473C26.1625 22.977 26.1625 23.012 26.1625 23.0409C26.1625 24.8145 27.6692 26.2495 29.5312 26.2495C29.9845 26.2495 30.4194 26.162 30.8114 26.0106Z" fill="#EF5350"/>
<path d="M36.9443 13.838L36.0841 14.0008L35.9214 13.1407C35.6519 11.7162 36.5873 10.3424 38.0118 10.0729L38.8719 9.91016L39.0346 10.7703C39.3041 12.1948 38.3688 13.5685 36.9443 13.838Z" fill="#5F9B22"/>
<path d="M39.0346 10.7711L38.997 10.5742C38.7143 11.7318 37.2636 12.7372 36.0683 12.9638L35.9082 12.9945C35.9143 13.0443 35.9117 13.0925 35.9213 13.1423L36.0841 14.0016L36.9442 13.8388C38.3678 13.5685 39.3041 12.1956 39.0346 10.7711Z" fill="#6FBE20"/>
<path d="M35.875 15.75C35.3911 15.75 35 15.3589 35 14.875C35 13.9099 34.2151 13.125 33.25 13.125C32.7661 13.125 32.375 12.7339 32.375 12.25C32.375 11.7661 32.7661 11.375 33.25 11.375C35.1803 11.375 36.75 12.9447 36.75 14.875C36.75 15.3589 36.3589 15.75 35.875 15.75Z" fill="#6FBE20"/>
<path d="M36.7937 14C36.4639 14 36.1541 14.077 35.875 14.2039C35.5959 14.077 35.2861 14 34.9563 14C33.7724 14 32.8125 14.9144 32.8125 16.0414C32.8125 17.1693 33.7724 19.25 34.9563 19.25C35.2861 19.25 35.5959 19.173 35.875 19.0461C36.1541 19.173 36.4639 19.25 36.7937 19.25C37.9776 19.25 38.9375 17.1693 38.9375 16.0414C38.9375 14.9144 37.9776 14 36.7937 14Z" fill="#FF7373"/>
<path d="M38.6864 17.2606C38.325 18.252 37.6145 19.2495 36.7937 19.2495C36.463 19.2495 36.1567 19.1734 35.875 19.0456C35.5932 19.1734 35.287 19.2495 34.9563 19.2495C33.7741 19.2495 32.8125 17.167 32.8125 16.0409C32.8125 15.2245 33.3148 14.5245 34.0436 14.1973C34.0375 14.227 34.0375 14.262 34.0375 14.2909C34.0375 16.0645 35.5442 17.4995 37.4062 17.4995C37.8595 17.4995 38.2944 17.412 38.6864 17.2606Z" fill="#EF5350"/>
</g>
</svg>
