<svg width="56" height="57" viewBox="0 0 56 57" fill="none" xmlns="http://www.w3.org/2000/svg">
<g opacity="0.4">
<ellipse cx="28.3921" cy="53.3609" rx="13.0367" ry="3.07182" fill="#366C00" fill-opacity="0.75"/>
<path d="M38.4892 9.46941C36.6098 14.9209 31.5454 15.859 31.5454 15.859C31.5454 15.859 28.1896 11.8411 30.0201 6.53127C31.9484 0.938028 37.0128 0 37.0128 0C37.0128 0 40.3931 3.94704 38.4892 9.46941Z" fill="#A4C400"/>
<path d="M37.0129 0C37.0129 0 35.6744 0.248113 34.1117 1.2489C34.9704 2.83268 36.0348 5.80372 34.7711 9.4693C33.8619 12.1065 32.2075 13.6873 30.7416 14.6168C31.1717 15.4107 31.5456 15.8588 31.5456 15.8588C31.5456 15.8588 36.6101 14.9208 38.4894 9.46918C40.3932 3.94704 37.0129 0 37.0129 0Z" fill="#A4C400"/>
<path d="M27.7804 28.7662C27.6968 28.7662 27.6117 28.7537 27.5278 28.7273C27.0824 28.5879 26.8344 28.1138 26.9737 27.6684C27.1807 27.007 32.0721 11.403 34.4551 5.55941C34.6312 5.1273 35.1243 4.91975 35.5566 5.09597C35.9888 5.2722 36.1963 5.76538 36.0199 6.19761C33.6638 11.9755 28.6371 28.012 28.5865 28.1734C28.4735 28.5347 28.14 28.7662 27.7804 28.7662Z" fill="#535353"/>
<path d="M27.7801 53.7654C27.3133 53.7654 26.9351 53.3871 26.9351 52.9204V27.5189C26.9351 27.0522 27.3133 26.6738 27.7801 26.6738C28.2469 26.6738 28.6252 27.0522 28.6252 27.5189V52.9204C28.6252 53.3871 28.2468 53.7654 27.7801 53.7654Z" fill="#535353"/>
<path d="M33.4399 35.0977C30.3524 35.5365 28.0795 34.9059 28.0795 34.9059C28.0795 34.9059 26.1138 27.018 32.2568 20.8555C38.7274 14.3643 46.4267 16.5007 46.4267 16.5007C46.4267 16.5007 48.1156 22.939 43.6401 28.922" fill="#60A917"/>
<path d="M46.4266 16.5004C46.4266 16.5004 44.3621 15.9279 41.473 16.2767C42.2533 16.3745 42.7083 16.5004 42.7083 16.5004C42.7083 16.5004 44.3972 22.9387 39.9217 28.9217L29.7215 35.0975C29.6086 35.1135 29.497 35.1277 29.3864 35.141C30.3488 35.2596 31.7755 35.334 33.4398 35.0975L43.64 28.9217C48.1156 22.9386 46.4266 16.5004 46.4266 16.5004Z" fill="#60A917"/>
<path d="M20.7163 30.9605C26.1964 35.2796 25.2613 41.4705 25.2613 41.4705C25.2613 41.4705 19.3443 43.735 14.0066 39.528C8.38415 35.0966 9.31925 28.9059 9.31925 28.9059C9.31925 28.9059 15.1651 26.5853 20.7163 30.9605Z" fill="#A4C400"/>
<path d="M14.4321 22.0536C19.9496 29.0836 27.8465 27.8747 27.8465 27.8747C27.8465 27.8747 30.7275 20.275 25.3533 13.4276C19.6925 6.21505 11.7956 7.42384 11.7956 7.42384C11.7956 7.42384 8.8429 14.9323 14.4321 22.0536Z" fill="#60A917"/>
<path d="M27.7802 51.7434C27.3134 51.7434 26.9351 51.365 26.9351 50.8983C26.9351 45.9887 25.1207 41.7969 21.5423 38.4395C18.8628 35.9253 16.181 34.8638 16.1543 34.8534C15.7193 34.6841 15.504 34.1942 15.6735 33.7594C15.8427 33.3245 16.3326 33.1091 16.7676 33.2786C16.8894 33.326 19.7833 34.4715 22.6988 37.207C25.4025 39.7437 28.6254 44.1783 28.6254 50.8984C28.6253 51.365 28.2469 51.7434 27.7802 51.7434Z" fill="#535353"/>
<path d="M42.2131 38.285C37.4786 41.5585 32.8452 39.3029 32.8452 39.3029C32.8452 39.3029 32.5161 34.0715 37.1277 30.8831C41.9853 27.5247 46.6185 29.7802 46.6185 29.7802C46.6185 29.7802 47.0092 34.9692 42.2131 38.285Z" fill="#A4C400"/>
<path d="M46.6184 29.7798C46.6184 29.7798 44.2033 28.6046 41.0324 29.2147C42.1891 29.4338 42.9001 29.7798 42.9001 29.7798C42.9001 29.7798 43.2907 34.9687 38.4946 38.2846C37.2109 39.1722 35.9349 39.6526 34.7565 39.8825C36.5443 40.2219 39.36 40.2571 42.2129 38.2846C47.0091 34.9688 46.6184 29.7798 46.6184 29.7798Z" fill="#A4C400"/>
<path d="M27.7796 51.7432C27.3311 51.7432 26.9573 51.3905 26.9361 50.9378C26.9303 50.8143 26.8114 47.8712 28.2935 44.2325C29.657 40.8851 32.6927 36.2909 39.4119 33.4122C39.841 33.2285 40.3377 33.4272 40.5214 33.8562C40.7053 34.2853 40.5065 34.7819 40.0775 34.9658C35.1065 37.0955 31.6684 40.4279 29.8589 44.8702C28.5157 48.1676 28.6233 50.8321 28.6247 50.8586C28.6464 51.3248 28.2863 51.7204 27.82 51.7423C27.8064 51.7429 27.7929 51.7432 27.7796 51.7432Z" fill="#535353"/>
<path d="M27.4937 28.3703C27.1858 28.3703 26.8889 28.2014 26.7398 27.9081C23.508 21.5537 18.0466 16.0131 17.9917 15.9578C17.663 15.6265 17.6652 15.0914 17.9964 14.7627C18.3278 14.434 18.8627 14.4362 19.1915 14.7675C19.4228 15.0006 24.8955 20.5537 28.2462 27.1419C28.4577 27.5579 28.292 28.0666 27.8761 28.2782C27.7534 28.3407 27.6225 28.3703 27.4937 28.3703Z" fill="#535353"/>
<path d="M28.0458 35.7125C27.8831 35.7125 27.7187 35.6655 27.5736 35.5676C27.1868 35.3064 27.0851 34.7811 27.3462 34.3943C27.5789 34.0495 33.1251 25.9063 39.8731 21.9801C40.2765 21.7453 40.7937 21.882 41.0285 22.2854C41.2632 22.6889 41.1264 23.2061 40.7231 23.4408C34.306 27.1746 28.8017 35.2588 28.7469 35.34C28.5837 35.582 28.3171 35.7125 28.0458 35.7125Z" fill="#535353"/>
</g>
</svg>
