<svg width="124" height="124" viewBox="0 0 124 124" fill="none" xmlns="http://www.w3.org/2000/svg">
<circle cx="62" cy="62" r="61" fill="#EDEDED" stroke="#B3B3B3" stroke-width="2"/>
<path d="M73.6132 41.484C71.5324 47.5196 65.9255 48.5582 65.9255 48.5582C65.9255 48.5582 62.2101 44.1098 64.2368 38.231C66.3716 32.0385 71.9786 31 71.9786 31C71.9786 31 75.7211 35.3699 73.6132 41.484Z" fill="#A4C400"/>
<path d="M71.9784 31C71.9784 31 70.4965 31.2747 68.7664 32.3827C69.7171 34.1362 70.8955 37.4255 69.4964 41.4839C68.4898 44.4036 66.6581 46.1538 65.0352 47.1829C65.5113 48.0618 65.9254 48.558 65.9254 48.558C65.9254 48.558 71.5324 47.5194 73.6131 41.4837C75.7209 35.3699 71.9784 31 71.9784 31Z" fill="#A4C400"/>
<path d="M61.7568 62.848C61.6643 62.848 61.5701 62.8342 61.4771 62.805C60.984 62.6507 60.7094 62.1258 60.8638 61.6326C61.0929 60.9004 66.5084 43.6246 69.1467 37.1549C69.3417 36.6764 69.8876 36.4467 70.3662 36.6418C70.8448 36.8369 71.0744 37.3829 70.8792 37.8614C68.2706 44.2584 62.7053 62.0131 62.6493 62.1917C62.5242 62.5918 62.155 62.848 61.7568 62.848Z" fill="#535353"/>
<path d="M61.7564 90.5265C61.2396 90.5265 60.8208 90.1076 60.8208 89.5909V61.4678C60.8208 60.9511 61.2396 60.5322 61.7564 60.5322C62.2732 60.5322 62.692 60.9511 62.692 61.4678V89.5909C62.692 90.1076 62.2731 90.5265 61.7564 90.5265Z" fill="#535353"/>
<path d="M68.0229 69.8588C64.6047 70.3445 62.0883 69.6463 62.0883 69.6463C62.0883 69.6463 59.9119 60.9133 66.7131 54.0906C73.877 46.9039 82.4012 49.2692 82.4012 49.2692C82.4012 49.2692 84.271 56.3973 79.316 63.0213" fill="#60A917"/>
<path d="M53.9361 65.2788C60.0034 70.0606 58.9681 76.9148 58.9681 76.9148C58.9681 76.9148 52.417 79.4219 46.5075 74.7642C40.2826 69.858 41.3179 63.004 41.3179 63.004C41.3179 63.004 47.7901 60.4348 53.9361 65.2788Z" fill="#A4C400"/>
<path d="M46.9786 55.4163C53.0873 63.1995 61.8303 61.8611 61.8303 61.8611C61.8303 61.8611 65.02 53.4472 59.07 45.8661C52.8026 37.8808 44.0596 39.2191 44.0596 39.2191C44.0596 39.2191 40.7906 47.5321 46.9786 55.4163Z" fill="#60A917"/>
<path d="M61.7565 88.2865C61.2397 88.2865 60.8209 87.8676 60.8209 87.3509C60.8209 81.9152 58.8121 77.2743 54.8503 73.5572C51.8837 70.7737 48.9145 69.5984 48.885 69.587C48.4034 69.3995 48.165 68.8571 48.3527 68.3757C48.54 67.8943 49.0824 67.6557 49.564 67.8434C49.6988 67.8959 52.9029 69.1641 56.1307 72.1927C59.1241 75.0012 62.6922 79.9109 62.6922 87.351C62.6921 87.8676 62.2732 88.2865 61.7565 88.2865Z" fill="#535353"/>
<path d="M77.7357 73.387C72.4939 77.0112 67.3641 74.514 67.3641 74.514C67.3641 74.514 66.9997 68.722 72.1054 65.192C77.4834 61.4738 82.6131 63.971 82.6131 63.971C82.6131 63.971 83.0456 69.7159 77.7357 73.387Z" fill="#A4C400"/>
<path d="M82.6134 63.9705C82.6134 63.9705 79.9395 62.6694 76.4288 63.3448C77.7095 63.5874 78.4967 63.9705 78.4967 63.9705C78.4967 63.9705 78.929 69.7153 73.6191 73.3866C72.1979 74.3692 70.7852 74.9011 69.4805 75.1556C71.4599 75.5314 74.5772 75.5704 77.7358 73.3866C83.0459 69.7155 82.6134 63.9705 82.6134 63.9705Z" fill="#A4C400"/>
<path d="M61.7557 88.2868C61.2592 88.2868 60.8453 87.8963 60.8218 87.3951C60.8155 87.2584 60.6837 83.9999 62.3247 79.9714C63.8342 76.2654 67.1952 71.1789 74.6343 67.9918C75.1094 67.7884 75.6593 68.0084 75.8627 68.4834C76.0663 68.9584 75.8462 69.5083 75.3712 69.7119C69.8676 72.0698 66.0611 75.7592 64.0578 80.6774C62.5707 84.3282 62.6898 87.2781 62.6913 87.3074C62.7154 87.8236 62.3167 88.2616 61.8005 88.2858C61.7854 88.2866 61.7704 88.2868 61.7557 88.2868Z" fill="#535353"/>
<path d="M61.4394 62.4102C61.0986 62.4102 60.7698 62.2232 60.6047 61.8985C57.0266 54.8633 50.9801 48.729 50.9193 48.6678C50.5554 48.301 50.5578 47.7086 50.9246 47.3447C51.2915 46.9807 51.8836 46.9832 52.2477 47.3499C52.5038 47.608 58.5628 53.7561 62.2726 61.0502C62.5067 61.5107 62.3232 62.074 61.8628 62.3082C61.7269 62.3774 61.582 62.4102 61.4394 62.4102Z" fill="#535353"/>
<path d="M62.0505 70.5389C61.8704 70.5389 61.6884 70.4869 61.5278 70.3784C61.0996 70.0893 60.9869 69.5077 61.276 69.0794C61.5337 68.6977 67.6741 59.682 75.1451 55.3352C75.5917 55.0752 76.1643 55.2266 76.4243 55.6732C76.6842 56.1199 76.5327 56.6925 76.0861 56.9524C68.9816 61.0862 62.8875 70.0366 62.8268 70.1265C62.6461 70.3944 62.3509 70.5389 62.0505 70.5389Z" fill="#535353"/>
</svg>
