<svg width="83" height="83" viewBox="0 0 83 83" fill="none" xmlns="http://www.w3.org/2000/svg">
<path d="M41.2129 82.0118C62.4956 82.0118 79.7486 64.7588 79.7486 43.4761C79.7486 22.1934 62.4956 4.94043 41.2129 4.94043C19.9303 4.94043 2.67725 22.1934 2.67725 43.4761C2.67725 64.7588 19.9303 82.0118 41.2129 82.0118Z" fill="#B36800"/>
<path d="M41.213 76.4016C62.126 76.4016 79.0794 59.4483 79.0794 38.5353C79.0794 17.6223 62.126 0.668945 41.213 0.668945C20.3 0.668945 3.34668 17.6223 3.34668 38.5353C3.34668 59.4483 20.3 76.4016 41.213 76.4016Z" fill="#FF8A00" stroke="#B36800"/>
<mask id="mask0_26397_680659" style="mask-type:luminance" maskUnits="userSpaceOnUse" x="19" y="17" width="44" height="44">
<path d="M62.6317 17.4033H19.793V60.242H62.6317V17.4033Z" fill="white"/>
</mask>
<g mask="url(#mask0_26397_680659)">
<path fill-rule="evenodd" clip-rule="evenodd" d="M41.7602 54.627C41.8556 53.815 42.0815 52.6484 42.6106 51.3497C43.1362 50.0595 43.8476 48.8959 44.739 47.8619C45.1576 48.0343 46.235 48.412 47.6431 48.412C48.947 48.412 50.534 48.0877 52.1414 46.9763C55.9549 44.3399 55.6946 40.2696 55.6816 40.0978C55.6649 39.8751 55.5312 39.6783 55.3306 39.5806C55.2733 39.5528 54.7306 39.296 53.8732 39.122C54.5725 38.0244 55.0854 36.8329 55.4016 35.5685C55.5977 34.7832 54.3804 34.4791 54.1839 35.2642C53.8505 36.5976 53.2722 37.8408 52.4646 38.9633C51.1056 38.9313 49.3995 39.2392 47.6515 40.4477C46.3487 41.3484 45.5351 42.4446 45.0276 43.4922C43.9264 43.6324 42.9799 43.5808 42.3387 43.502C43.6136 41.7823 46.9368 37.6142 50.6782 35.4373C51.3778 35.0302 50.7466 33.9453 50.0471 34.3526C46.4062 36.4708 43.2371 40.2418 41.7098 42.244C41.6217 40.2905 41.9604 36.8454 44.8359 33.9607C46.71 32.0808 48.9407 30.9913 51.4658 30.723C52.7875 30.5827 53.8508 30.7159 54.3803 30.8114C54.436 31.1388 54.5046 31.6676 54.5163 32.3315C54.5303 33.1333 55.7854 33.1235 55.771 32.3094C55.7483 31.007 55.5297 30.1601 55.5204 30.1248C55.4638 29.9087 55.2965 29.7391 55.0812 29.6794C55.0184 29.662 53.514 29.2538 51.3911 29.4689C49.4372 29.6672 46.5599 30.4536 43.9472 33.0746C43.7291 33.2934 43.5252 33.5149 43.333 33.7384C43.6854 32.6533 44.0702 31.4797 44.4634 30.2993C45.6001 29.9525 48.4072 28.7641 49.6128 25.267C51.1261 20.8771 48.5118 17.7535 48.3997 17.6227C48.2542 17.4525 48.0289 17.373 47.8088 17.4139C47.6405 17.4451 43.6709 18.2282 42.1374 22.6762C40.8641 26.3692 42.6785 29.2553 43.233 30.0162C42.8671 31.1153 42.5098 32.205 42.1798 33.2208C41.9257 31.5231 41.2633 29.5312 39.7587 27.6142C37.4732 24.7019 34.7087 23.5801 32.7918 23.1517C30.7092 22.6862 29.1673 22.9133 29.1026 22.9232C28.8817 22.9571 28.6954 23.1058 28.6136 23.3138C28.5959 23.3587 28.1801 24.4308 28.0382 26.075C27.9687 26.8815 29.2191 26.9892 29.2887 26.1829C29.3686 25.2567 29.5461 24.5338 29.665 24.1303C30.2028 24.0984 31.2741 24.0923 32.5689 24.3881C35.0449 24.9537 37.1318 26.2999 38.7714 28.389C40.3249 30.3684 41.095 32.6647 41.0606 35.214C41.0493 36.0447 40.9498 36.7692 40.8397 37.3256C38.3574 32.7023 34.8426 29.1505 34.6884 28.9958C34.1172 28.4226 33.2284 29.3084 33.7995 29.8817C33.8366 29.919 37.4599 33.5831 39.8602 38.1569C39.2993 38.144 38.5717 38.0822 37.7558 37.9017C35.2988 37.3581 33.2442 36.0519 31.649 34.0195C30.5384 32.6043 29.803 31.0338 29.4633 29.3515C29.3031 28.5582 28.0727 28.8065 28.2331 29.5999C28.6118 31.4759 29.429 33.2236 30.6618 34.7943C32.8936 37.6381 35.6339 38.7267 37.5396 39.1391C38.4892 39.3446 39.4678 39.4422 40.4396 39.4105V41.6703V41.7078V49.9773C40.2503 49.569 40.0458 49.1825 39.8304 48.8166C39.9155 48.0739 40.225 43.6931 36.2102 40.5288C31.8541 37.0956 27.3181 38.8368 27.1271 38.9127C26.9196 38.9951 26.7715 39.1815 26.7382 39.4023C26.7077 39.6047 26.0399 44.4001 30.4508 47.8765C32.4996 49.4911 34.6405 49.9126 36.3173 49.9126C37.4056 49.9126 38.2979 49.7353 38.8435 49.5911C39.7172 51.1169 40.2337 52.8013 40.3889 54.6317L40.4396 55.886V57.3284C40.4396 58.1378 41.6946 58.1378 41.6946 57.3284V55.8824L41.7602 54.627ZM54.4319 40.5697C53.5276 40.2529 51.013 39.6494 48.3653 41.48C46.7653 42.5862 46.0406 44.0428 45.7144 45.2073C46.7983 44.3366 48.1115 43.5241 49.7045 42.8416C50.4486 42.5228 50.9427 43.6764 50.1987 43.9951C48.433 44.7516 46.9286 45.7128 45.6916 46.8704C46.7439 47.1918 49.0535 47.5857 51.4277 45.944C54.0461 44.1338 54.3967 41.5389 54.4319 40.5697ZM44.5263 44.8036C44.2122 44.8265 43.9128 44.8367 43.6316 44.8367C42.8054 44.8367 42.1347 44.7533 41.6946 44.6774V50.3102C42.2267 49.1571 43.0229 47.8557 44.2113 46.5944C44.2398 46.1514 44.3197 45.5207 44.5263 44.8036ZM47.6721 18.7439C46.7551 19.0273 44.3746 20.0373 43.3239 23.0853C42.5176 25.4242 43.1802 27.3799 43.7509 28.4719C44.5841 26.0074 45.4144 23.6532 46.0239 22.1588C46.3294 21.4092 47.4917 21.8831 47.1859 22.6327C46.6018 24.0651 45.7967 26.3467 44.9819 28.755C46.0872 28.2282 47.6484 27.1146 48.4262 24.8582C49.4652 21.8446 48.2168 19.5468 47.6721 18.7439ZM28.1572 42.1193C28.5943 44.0242 29.6274 45.6296 31.2278 46.8908C33.8664 48.9703 36.7255 48.7528 38.1159 48.4694C37.6306 47.8032 37.0707 47.171 36.435 46.5744C34.4453 44.7075 32.4538 43.9192 32.434 43.9116C31.6798 43.6178 32.1352 42.4481 32.8894 42.742C32.9799 42.7773 35.1288 43.6278 37.2938 45.6592C37.7033 46.0432 38.1286 46.4872 38.5465 46.9909C38.5157 46.747 38.4722 46.4855 38.4112 46.2107C37.9912 44.321 36.9894 42.741 35.4334 41.5146C32.2994 39.0447 29.0193 39.6648 27.9497 39.9644C27.9312 40.4018 27.9429 41.1855 28.1572 42.1193Z" fill="white" stroke="white" stroke-width="0.5"/>
</g>
</svg>
