<svg width="371" height="195" viewBox="0 0 371 195" fill="none" xmlns="http://www.w3.org/2000/svg">
<g clip-path="url(#clip0_21053_370536)">
<path d="M130.136 102.462L90.5857 91.8477C90.5068 92.1421 90.3724 92.43 90.3735 92.7313C90.3953 98.0252 95.0753 107.081 102.485 112.729L102.48 112.732C102.401 113.026 102.273 113.314 102.268 113.616C102.123 123.344 115.145 133.823 115.145 133.823C115.067 134.117 114.948 134.406 114.933 134.706C114.672 140.213 119.652 149.946 127.212 154.753L148.931 160.582L130.136 102.462Z" fill="#FFE27A"/>
<path d="M127.213 147.677C120.798 145.956 116.226 140.794 114.935 134.707C113.059 143.537 118.402 152.389 127.213 154.754L148.932 160.583L149.774 156.188L144.252 152.25L127.213 147.677Z" fill="#F9CF58"/>
<path d="M114.547 126.583C108.133 124.862 103.56 119.701 102.269 113.613C100.394 122.444 105.737 131.295 114.547 133.66L138.956 140.211L139.734 136.029L136.286 132.417L114.547 126.583Z" fill="#F9CF58"/>
<path d="M102.653 105.701C96.238 103.979 91.6658 98.8174 90.3747 92.7305C88.499 101.561 93.842 110.413 102.653 112.777L133.235 120.985L133.631 117.033L131.739 113.506L102.653 105.701Z" fill="#F9CF58"/>
<path d="M244.863 102.462L284.414 91.8477C284.492 92.1421 284.627 92.43 284.626 92.7313C284.604 98.0252 279.924 107.081 272.514 112.729L272.519 112.732C272.598 113.026 272.727 113.314 272.731 113.616C272.876 123.344 259.854 133.823 259.854 133.823C259.933 134.117 260.052 134.406 260.066 134.706C260.327 140.213 255.347 149.946 247.787 154.753L226.068 160.582L244.863 102.462Z" fill="#FFE27A"/>
<path d="M247.786 147.673C254.201 145.952 258.773 140.79 260.064 134.703C261.94 143.533 256.597 152.385 247.786 154.75L226.067 160.579L225.225 156.184L230.747 152.246L247.786 147.673Z" fill="#F9CF58"/>
<path d="M260.452 126.583C266.867 124.862 271.439 119.701 272.73 113.613C274.606 122.444 269.263 131.295 260.452 133.66L236.043 140.211L235.265 136.029L238.713 132.417L260.452 126.583Z" fill="#F9CF58"/>
<path d="M272.346 105.701C278.761 103.979 283.333 98.8174 284.624 92.7305C286.5 101.561 281.157 110.413 272.346 112.777L241.764 120.985L241.369 117.033L243.26 113.506L272.346 105.701Z" fill="#F9CF58"/>
<path d="M187.499 69.3594L245.659 93.817C241.764 168.475 187.499 191.571 187.499 191.571C187.499 191.571 133.961 166.594 129.34 93.817L187.499 69.3594Z" fill="#FFCB5B"/>
<path d="M188.199 187.668C187.748 187.842 187.251 187.842 186.8 187.668C180.765 185.349 137.539 166.285 129.938 93.5664L129.34 93.8178C135.261 177.927 187.499 195 187.499 195C187.499 195 239.738 177.927 245.659 93.8178L245.061 93.5664C237.46 166.285 194.234 185.349 188.199 187.668Z" fill="#F7B737"/>
<path d="M219.783 65.9337H155.216C141.969 65.9337 142.412 53.3711 142.412 53.3711H232.588C232.588 53.3711 232.588 65.9337 219.783 65.9337Z" fill="#FFE27A"/>
<path d="M219.783 62.2847H155.216C149.501 62.2847 144.663 58.5401 143.016 53.3711H142.412V56.557C142.412 63.6284 148.145 69.3611 155.216 69.3611H219.783C226.855 69.3611 232.587 63.6284 232.587 56.557V53.3711H231.984C230.337 58.5401 225.498 62.2847 219.783 62.2847Z" fill="#F9CF58"/>
<path d="M224.955 50.4212H150.045L146.617 46.2935V1.96562C146.617 0.879785 147.497 0 148.583 0H226.416C227.502 0 228.382 0.880166 228.382 1.96562V46.2935L224.955 50.4212Z" fill="#0083FD"/>
<path d="M146.617 46.293H228.382V53.3697H146.617V46.293Z" fill="#0072FC"/>
<path d="M205.284 50.4212H169.715L166.288 46.2935V0H208.712V46.2935L205.284 50.4212Z" fill="#8BCAFF"/>
<path d="M166.288 46.293H208.711V53.3697H166.288V46.293Z" fill="#60B8FF"/>
<path d="M188.238 87.0355L229.58 104.421C226.067 156.141 187.5 174.204 187.5 174.204C187.5 174.204 148.79 153.267 145.419 104.421L186.762 87.0355C187.233 86.8371 187.766 86.8371 188.238 87.0355Z" fill="#FF9838"/>
<path d="M186.771 170.286C181.726 168.281 152.006 154.421 146.064 104.152L145.419 104.424C149.702 165.281 187.5 177.634 187.5 177.634C187.5 177.634 225.297 165.281 229.58 104.424L228.935 104.153C222.994 154.421 193.274 168.281 188.228 170.286C187.759 170.472 187.24 170.472 186.771 170.286Z" fill="#FF8709"/>
<path d="M190.981 109.745L194.528 116.941C195.094 118.088 196.187 118.883 197.451 119.067L205.383 120.221C208.568 120.684 209.839 124.602 207.535 126.851L201.795 132.452C200.88 133.345 200.463 134.632 200.679 135.893L202.034 143.801C202.577 146.977 199.248 149.399 196.4 147.899L189.306 144.165C188.175 143.57 186.824 143.57 185.693 144.165L178.599 147.899C175.75 149.399 172.421 146.977 172.966 143.801L174.32 135.893C174.536 134.632 174.119 133.345 173.204 132.452L167.464 126.851C165.16 124.602 166.432 120.684 169.616 120.221L177.548 119.067C178.812 118.883 179.906 118.088 180.471 116.941L184.018 109.745C185.442 106.856 189.557 106.856 190.981 109.745Z" fill="#FFF5F5"/>
<path d="M186.612 136.825L172.935 144.024C172.58 147.088 175.817 149.362 178.598 147.898L185.692 144.164C186.823 143.569 188.175 143.569 189.306 144.164L196.4 147.898C199.181 149.362 202.418 147.088 202.063 144.024L188.386 136.825C187.831 136.532 187.168 136.532 186.612 136.825Z" fill="#EFE2DD"/>
<path d="M240.683 56.3191H134.316C132.687 56.3191 131.367 54.999 131.367 53.3705C131.367 51.7419 132.687 50.4219 134.316 50.4219H240.683C242.312 50.4219 243.632 51.7419 243.632 53.3705C243.632 54.999 242.312 56.3191 240.683 56.3191Z" fill="#FF9838"/>
</g>
<path opacity="0.7" fill-rule="evenodd" clip-rule="evenodd" d="M14.9196 137.696C11.1096 139.468 7.14205 139.296 4.5324 138.602C1.89612 137.902 0.340112 135.245 1.05697 132.669C1.77384 130.093 4.49211 128.572 7.1284 129.272C7.97648 129.498 9.43571 129.539 10.6686 128.966C11.6041 128.531 13.0146 127.478 13.7188 124.271C14.187 120.652 16.1853 115.881 20.6317 112.267C25.3267 108.45 32.218 106.348 41.5654 107.542C44.2743 107.889 46.1831 110.316 45.8287 112.963C45.4743 115.61 42.991 117.476 40.2821 117.129C33.1409 116.216 29.1579 117.912 26.9584 119.7C24.6154 121.604 23.687 124.103 23.5237 125.571L23.4995 125.789L23.4551 126.004C22.2236 131.973 19.0098 135.794 14.9196 137.696Z" fill="#F15959"/>
<path opacity="0.7" fill-rule="evenodd" clip-rule="evenodd" d="M347.929 44.0636C347.876 43.9458 347.819 43.8329 347.763 43.7282C347.743 43.7052 347.722 43.6823 347.702 43.6596C347.797 43.8966 347.89 44.0182 347.929 44.0636ZM339.993 40.4946C339.698 44.0906 340.479 47.0368 342.466 49.1052C344.771 51.5045 347.857 51.8385 349.882 51.532C351.501 51.2944 353.07 50.6425 354.221 49.3506C355.366 48.0651 355.723 46.566 355.755 45.3377C355.815 43.0677 354.813 40.9283 354.084 39.7399L353.94 39.5048L353.762 39.2932C352.463 37.751 351.097 36.5272 349.692 35.5849C350.175 35.0732 350.755 34.5928 351.445 34.1791C353.824 32.7544 358.185 31.7276 365.813 34.0166C367.796 34.6118 369.898 33.523 370.507 31.5847C371.116 29.6465 370.002 27.5928 368.018 26.9977C359.024 24.2988 352.275 25.07 347.519 27.9191C345.167 29.3282 343.467 31.1493 342.296 33.0384C341.025 32.9629 339.764 33.0558 338.532 33.2922C333.855 34.1901 330.045 37.0576 327.918 39.3566C326.526 40.8605 326.646 43.182 328.185 44.5419C329.723 45.9018 332.099 45.7851 333.491 44.2812C334.909 42.7482 337.37 40.998 339.981 40.4969C339.985 40.4961 339.989 40.4954 339.993 40.4946Z" fill="#F15959"/>
<path d="M312.524 162.362C313.31 159.496 316.325 157.795 319.258 158.563C322.191 159.331 323.932 162.277 323.146 165.143C322.36 168.009 319.345 169.709 316.412 168.941C313.479 168.173 311.738 165.227 312.524 162.362Z" fill="#C15DFF"/>
<path d="M33.8336 149.566C35.0965 144.96 39.941 142.227 44.6542 143.461C49.3673 144.695 52.1643 149.429 50.9014 154.035C49.6385 158.641 44.794 161.375 40.0809 160.14C35.3677 158.906 32.5707 154.172 33.8336 149.566Z" fill="#F9C160"/>
<path d="M336.232 150.625C337.495 146.019 342.339 143.285 347.053 144.519C351.766 145.754 354.563 150.488 353.3 155.094C352.037 159.7 347.192 162.433 342.479 161.199C337.766 159.965 334.969 155.231 336.232 150.625Z" fill="#F68B8B"/>
<path fill-rule="evenodd" clip-rule="evenodd" d="M39.0889 51.1701C38.6689 53.6754 36.2502 55.3738 33.6865 54.9634C30.2991 54.4211 25.4128 52.7434 21.4893 49.2798C17.3604 45.6347 14.4309 40.0847 15.4562 32.5808C15.8001 30.0644 18.1663 28.2968 20.7413 28.6329C23.3163 28.9689 25.125 31.2812 24.7812 33.7977C24.2079 37.9932 25.7214 40.6264 27.7957 42.4576C30.0754 44.4701 33.1525 45.5617 35.2073 45.8906C37.771 46.301 39.5088 48.6647 39.0889 51.1701Z" fill="#C15DFF"/>
<path fill-rule="evenodd" clip-rule="evenodd" d="M341.009 106.739C338.655 107.786 337.614 110.499 338.685 112.8C340.101 115.841 343.023 119.993 347.451 122.776C352.111 125.705 358.332 127.011 365.444 124.094C367.829 123.116 368.952 120.433 367.951 118.102C366.95 115.772 364.205 114.675 361.819 115.653C357.843 117.284 354.859 116.548 352.518 115.077C349.945 113.46 348.07 110.854 347.212 109.01C346.141 106.709 343.364 105.692 341.009 106.739Z" fill="#72C045"/>
<path d="M47.2814 25.8485C48.1633 22.6322 51.5462 20.7235 54.8374 21.5853C58.1285 22.4471 60.0817 25.7531 59.1998 28.9693C58.3179 32.1856 54.935 34.0943 51.6438 33.2325C48.3527 32.3707 46.3995 29.0648 47.2814 25.8485Z" fill="#14A4BE"/>
<path d="M342.427 181.596C342.906 179.85 344.741 178.815 346.527 179.282C348.313 179.75 349.373 181.544 348.894 183.289C348.416 185.034 346.58 186.07 344.794 185.602C343.008 185.135 341.949 183.341 342.427 181.596Z" fill="#14A4BE"/>
<path d="M291.103 25.4003C292.072 21.8655 295.79 19.7678 299.407 20.7149C303.024 21.6621 305.171 25.2954 304.202 28.8302C303.232 32.365 299.515 34.4627 295.897 33.5155C292.28 32.5684 290.134 28.9351 291.103 25.4003Z" fill="#72C045"/>
<path d="M350.621 77.3976C351.42 74.4841 354.485 72.7551 357.466 73.5358C360.447 74.3164 362.216 77.3112 361.418 80.2246C360.619 83.1381 357.554 84.8671 354.573 84.0865C351.592 83.3058 349.822 80.3111 350.621 77.3976Z" fill="#F9C160"/>
<path d="M67.3696 148.12C67.9309 146.073 70.084 144.858 72.1787 145.406C74.2734 145.955 75.5165 148.059 74.9553 150.106C74.394 152.153 72.2409 153.368 70.1461 152.819C68.0514 152.271 66.8083 150.167 67.3696 148.12Z" fill="#72C045"/>
<path d="M52.1411 176.819C52.7023 174.772 54.8555 173.557 56.9502 174.105C59.0449 174.654 60.288 176.758 59.7267 178.805C59.1655 180.852 57.0123 182.067 54.9176 181.519C52.8229 180.97 51.5798 178.866 52.1411 176.819Z" fill="#C15DFF"/>
<path d="M12.1472 76.7706C12.8488 74.2118 15.5402 72.6933 18.1586 73.3789C20.777 74.0645 22.3308 76.6947 21.6292 79.2535C20.9276 81.8124 18.2362 83.3309 15.6178 82.6453C12.9994 81.9596 11.4456 79.3295 12.1472 76.7706Z" fill="#72C045"/>
<defs>
<clipPath id="clip0_21053_370536">
<rect width="195" height="195" fill="white" transform="translate(89.9995)"/>
</clipPath>
</defs>
</svg>
