<svg width="32" height="32" viewBox="0 0 32 32" fill="none" xmlns="http://www.w3.org/2000/svg">
<g clip-path="url(#clip0_20483_131530)">
<path d="M31.5964 20.1635L9.23593 2.42051C8.53643 1.86558 7.50073 2.36425 7.50073 3.25875V21.0017C7.50073 21.5926 7.97981 22.0717 8.57082 22.0717H30.9313C31.9426 22.0717 32.3881 20.7917 31.5964 20.1635ZM9.64084 19.9316V5.47387L27.8612 19.9317L9.64084 19.9316Z" fill="#FA8072"/>
<path d="M24.8795 11.5374C27.1306 12.7124 29.8855 11.0839 29.8855 8.49856C29.8855 6.03504 27.3547 4.38349 25.1094 5.34982V1.32338C25.1094 0.749957 24.6445 0.285156 24.0712 0.285156C23.4978 0.285156 23.033 0.749957 23.033 1.32338V10.8866C23.033 11.8614 24.2653 12.2992 24.8795 11.5374ZM26.4592 7.14867C27.2034 7.14867 27.809 7.75422 27.809 8.49856C27.809 9.24284 27.2034 9.84838 26.4592 9.84838C25.7149 9.84838 25.1093 9.24284 25.1093 8.49856C25.1094 7.75422 25.7149 7.14867 26.4592 7.14867Z" fill="#FA8072"/>
<path d="M3.06336 7.21875H2.15407C1.58071 7.21875 1.11584 7.68355 1.11584 8.25698C1.11584 8.8304 1.58071 9.2952 2.15407 9.2952H3.06342C3.60142 9.2952 4.03916 9.73294 4.03916 10.2709V10.5953C2.05414 9.92119 0.00195312 11.4087 0.00195312 13.4899C0.00195312 15.7221 2.33498 17.2101 4.35796 16.2561C5.01431 16.8877 6.11555 16.4226 6.11555 15.5085V10.2709C6.11555 8.58798 4.74632 7.21875 3.06336 7.21875ZM3.05875 14.4702C2.51816 14.4702 2.0784 14.0305 2.0784 13.4899C2.0784 12.9494 2.51816 12.5096 3.05875 12.5096C3.59934 12.5096 4.03909 12.9494 4.03909 13.4899C4.03909 14.0305 3.59928 14.4702 3.05875 14.4702Z" fill="#FA8072"/>
<path d="M19.0523 25.3421C19.6256 25.3421 20.0905 24.8773 20.0905 24.3039C20.0905 23.7304 19.6256 23.2656 19.0523 23.2656C16.7249 23.2656 14.8315 25.159 14.8315 27.4863C14.8315 29.8137 16.7249 31.7071 19.0523 31.7071C19.6256 31.7071 20.0905 31.2423 20.0905 30.6689C20.0905 30.0955 19.6256 29.6307 19.0523 29.6307C17.8699 29.6307 16.908 28.6687 16.908 27.4863C16.9079 26.304 17.8698 25.3421 19.0523 25.3421Z" fill="#FA8072"/>
</g>
<defs>
<clipPath id="clip0_20483_131530">
<rect width="32" height="32" fill="white" transform="translate(0.00195312 -0.00390625)"/>
</clipPath>
</defs>
</svg>
