<svg width="28" height="28" viewBox="0 0 28 28" fill="none" xmlns="http://www.w3.org/2000/svg">
<path d="M25.6018 13.2141C25.6018 11.4027 24.5002 9.84854 22.9305 9.18505C23.2076 8.64917 23.3652 8.04135 23.3652 7.3964C23.3652 5.24281 21.6194 3.49693 19.4657 3.49693C18.8521 3.49693 18.2719 3.63906 17.7555 3.89156C17.2965 2.24865 15.7898 1.04297 14.0004 1.04297C12.211 1.04297 10.7043 2.24865 10.2453 3.89161C9.72894 3.63911 9.14868 3.49698 8.53509 3.49698C6.3815 3.49698 4.63561 5.24281 4.63561 7.39646C4.63561 8.04141 4.79316 8.64922 5.07035 9.1851C3.50061 9.84859 2.39905 11.4027 2.39905 13.2141C2.39905 15.5617 4.24983 17.4745 6.57155 17.5792C6.89525 18.7517 8.14525 19.6257 9.63905 19.6257C10.4857 19.6257 11.2537 19.3445 11.8197 18.8879C12.3857 19.3445 13.1537 19.6257 14.0004 19.6257C14.8471 19.6257 15.615 19.3445 16.1811 18.8879C16.7471 19.3445 17.5151 19.6257 18.3618 19.6257C19.8556 19.6257 21.1056 18.7516 21.4293 17.5792C23.751 17.4744 25.6018 15.5616 25.6018 13.2141Z" fill="#60A917"/>
<path d="M13.7665 1.05068C13.7184 1.05354 13.6706 1.05703 13.6231 1.06167C13.6086 1.06307 13.5941 1.06469 13.5796 1.06625C13.5285 1.07177 13.4778 1.07812 13.4273 1.08562C13.4179 1.08703 13.4084 1.08839 13.399 1.08984C13.3389 1.09922 13.2793 1.10964 13.2202 1.12167C13.2201 1.12167 13.22 1.12172 13.2198 1.12172C14.2435 1.3299 15.2019 2.04286 15.8091 2.94156C16.2391 3.57797 16.9738 3.94479 17.7401 3.89271C17.7452 3.89234 17.7503 3.89203 17.7554 3.89167C17.2965 2.24865 15.7897 1.04297 14.0004 1.04297C13.9377 1.04297 13.8754 1.04479 13.8133 1.04776C13.7977 1.04849 13.7821 1.04974 13.7665 1.05068Z" fill="#A4C400"/>
<path d="M22.9303 9.18422C23.2075 8.64833 23.365 8.04052 23.365 7.39557C23.365 5.24198 21.6192 3.49609 19.4655 3.49609C19.1983 3.49609 18.9373 3.52313 18.6853 3.57443C20.4647 3.93609 21.804 5.50937 21.804 7.39557C21.804 8.04052 21.6464 8.64833 21.3692 9.18422C22.939 9.84771 24.0405 11.4018 24.0405 13.2132C24.0405 15.5608 22.1897 17.4736 19.8681 17.5783C19.6028 18.5392 18.715 19.2993 17.5809 19.5424C17.8306 19.596 18.092 19.6248 18.3616 19.6248C19.8554 19.6248 21.1054 18.7507 21.4291 17.5783C23.7508 17.4736 25.6015 15.5608 25.6015 13.2133C25.6016 11.4018 24.5001 9.84776 22.9303 9.18422Z" fill="#A4C400"/>
<path d="M11.2082 18.2434C10.8566 18.8398 9.39911 19.5068 8.85864 19.5447C8.91812 19.5575 8.97838 19.5686 9.03911 19.5785C9.04401 19.5793 9.04885 19.5802 9.05375 19.581C9.11536 19.5908 9.17755 19.5992 9.24036 19.6059C9.24198 19.606 9.24359 19.6061 9.2452 19.6064C9.30172 19.6123 9.35885 19.6166 9.4163 19.6201C9.43031 19.6209 9.44427 19.6217 9.45833 19.6223C9.51817 19.6252 9.57833 19.6271 9.63906 19.6271C10.4112 19.6271 11.1174 19.3927 11.6652 19.0052L11.7612 18.9353L11.2721 18.1328L11.2082 18.2434Z" fill="#009000"/>
<path d="M15.9502 19.2392L17.6209 16.6029C17.753 16.3944 17.7131 16.1206 17.5267 15.9586C17.3278 15.7856 17.0287 15.7969 16.8435 15.9844L15.6131 17.2301C15.4499 17.3953 15.1703 17.2579 15.2014 17.0278L15.5633 14.3471C15.6019 14.0607 15.3902 13.8014 15.1019 13.7819L14.7629 13.759C14.5082 13.7418 14.2814 13.9194 14.2372 14.1708L13.5914 17.84C13.5555 18.0441 13.2964 18.1114 13.1657 17.9506L11.1431 15.4632C11.0031 15.291 10.7664 15.2318 10.5619 15.3178L10.2078 15.4667C9.92743 15.5845 9.81649 15.9234 9.97295 16.1842L12.0514 19.6487C12.3524 20.1504 12.4765 20.739 12.4013 21.3192C12.1319 23.3967 11.7973 25.356 10.428 26.9521H17.573C16.1072 25.2435 15.7457 23.1187 15.5516 20.8782C15.5017 20.3029 15.6411 19.7269 15.9502 19.2392Z" fill="#BF6101"/>
<path d="M17.6208 16.6016C17.7529 16.3931 17.713 16.1193 17.5267 15.9573C17.3278 15.7843 17.0287 15.7956 16.8434 15.9832L16.2939 16.5394L15.613 17.2288C15.4499 17.394 15.1703 17.2566 15.2014 17.0265L15.5632 14.3459C15.6009 14.0667 15.4004 13.8139 15.1232 13.7832L14.1059 20.1065C14.0888 20.1882 14.0754 20.2707 14.0662 20.3537C14.0468 20.5265 14.0442 20.7017 14.0593 20.8769C14.2533 23.1174 14.6149 25.2422 16.0807 26.9508H17.5729C16.107 25.2422 15.7455 23.1174 15.5515 20.8769C15.5017 20.3016 15.641 19.7256 15.9501 19.2378L17.6208 16.6016Z" fill="#9A4D01"/>
<path d="M13.2583 4.10547C12.1643 4.10547 11.2225 4.75479 10.7956 5.68875C10.3545 5.37708 9.81662 5.19339 9.23553 5.19339C7.74042 5.19339 6.52839 6.40542 6.52839 7.90052C6.52839 8.39385 6.661 8.85589 6.89152 9.25422C5.59329 9.4538 4.59912 10.5756 4.59912 11.9297C4.59912 13.4248 5.81115 14.6369 7.30626 14.6369C8.80136 14.6369 15.9654 8.30771 15.9654 6.8126C15.9654 5.3175 14.7533 4.10547 13.2583 4.10547Z" fill="#A4C400"/>
</svg>
