<svg width="40" height="43" viewBox="0 0 40 43" fill="none" xmlns="http://www.w3.org/2000/svg">
<ellipse cx="19.9994" cy="40.2573" rx="9.31191" ry="2.19478" fill="#366C00" fill-opacity="0.75"/>
<path d="M37.4017 18.827C37.4017 16.1098 35.7494 13.7787 33.3948 12.7834C33.8106 11.9796 34.0469 11.0679 34.0469 10.1005C34.0469 6.87008 31.4281 4.25125 28.1977 4.25125C27.2773 4.25125 26.407 4.46445 25.6323 4.8432C24.9439 2.37883 22.6838 0.570312 19.9997 0.570312C17.3156 0.570312 15.0555 2.37883 14.3671 4.84328C13.5925 4.46453 12.7221 4.25133 11.8017 4.25133C8.57133 4.25133 5.9525 6.87008 5.9525 10.1005C5.9525 11.068 6.18883 11.9797 6.60461 12.7835C4.25 13.7787 2.59766 16.1099 2.59766 18.827C2.59766 22.3484 5.37383 25.2176 8.85641 25.3747C9.34195 27.1334 11.217 28.4444 13.4577 28.4444C14.7277 28.4444 15.8796 28.0226 16.7287 27.3377C17.5777 28.0226 18.7297 28.4444 19.9997 28.4444C21.2697 28.4444 22.4216 28.0226 23.2707 27.3377C24.1197 28.0226 25.2717 28.4444 26.5417 28.4444C28.7825 28.4444 30.6575 27.1333 31.143 25.3747C34.6255 25.2175 37.4017 22.3483 37.4017 18.827Z" fill="#60A917"/>
<path d="M19.649 0.581875C19.577 0.586172 19.5053 0.591406 19.434 0.598359C19.4122 0.600469 19.3905 0.602891 19.3687 0.605234C19.2921 0.613516 19.216 0.623047 19.1403 0.634297C19.1261 0.636406 19.1119 0.638438 19.0978 0.640625C19.0077 0.654688 18.9182 0.670313 18.8296 0.688359C18.8294 0.688359 18.8293 0.688437 18.8291 0.688437C20.3646 1.0007 21.8022 2.07016 22.713 3.4182C23.358 4.37281 24.46 4.92305 25.6094 4.84492C25.6171 4.84438 25.6247 4.84391 25.6324 4.84336C24.9441 2.37883 22.6839 0.570312 19.9999 0.570312C19.9058 0.570312 19.8124 0.573047 19.7193 0.5775C19.6958 0.578594 19.6725 0.580469 19.649 0.581875Z" fill="#A4C400"/>
<path d="M33.3951 12.7822C33.8109 11.9784 34.0472 11.0666 34.0472 10.0992C34.0472 6.86883 31.4284 4.25 28.198 4.25C27.7971 4.25 27.4057 4.29055 27.0276 4.3675C29.6967 4.91 31.7056 7.26992 31.7056 10.0992C31.7056 11.0666 31.4693 11.9784 31.0535 12.7822C33.4081 13.7774 35.0605 16.1086 35.0605 18.8257C35.0605 22.347 32.2843 25.2162 28.8018 25.3733C28.4038 26.8147 27.0722 27.9548 25.3711 28.3195C25.7455 28.3999 26.1377 28.443 26.542 28.443C28.7827 28.443 30.6578 27.132 31.1433 25.3734C34.6259 25.2163 37.402 22.3471 37.402 18.8258C37.4021 16.1086 35.7498 13.7775 33.3951 12.7822Z" fill="#A4C400"/>
<path d="M15.8115 26.369C15.284 27.2637 13.0978 28.2641 12.2871 28.321C12.3763 28.3402 12.4667 28.3569 12.5578 28.3717C12.5652 28.3729 12.5724 28.3742 12.5798 28.3754C12.6722 28.3901 12.7655 28.4027 12.8597 28.4127C12.8621 28.413 12.8645 28.4131 12.867 28.4134C12.9517 28.4224 13.0374 28.4288 13.1236 28.434C13.1446 28.4352 13.1655 28.4364 13.1866 28.4374C13.2764 28.4417 13.3666 28.4446 13.4577 28.4446C14.616 28.4446 15.6753 28.093 16.497 27.5116L16.641 27.4069L15.9073 26.2031L15.8115 26.369Z" fill="#009000"/>
<path d="M22.9244 27.8627L25.4304 23.9083C25.6286 23.5955 25.5687 23.1848 25.2893 22.9418C24.9909 22.6823 24.5422 22.6992 24.2643 22.9806L22.4188 24.849C22.174 25.0968 21.7547 24.8907 21.8013 24.5455L22.344 20.5246C22.402 20.095 22.0844 19.7059 21.6519 19.6767L21.1435 19.6423C20.7614 19.6166 20.4213 19.883 20.355 20.2601L19.3863 25.7639C19.3324 26.07 18.9437 26.171 18.7476 25.9298L15.7137 22.1987C15.5038 21.9405 15.1487 21.8516 14.842 21.9806L14.3108 22.2039C13.8903 22.3807 13.7239 22.8891 13.9586 23.2802L17.0763 28.477C17.5278 29.2295 17.714 30.1124 17.6011 30.9827C17.197 34.099 16.6951 37.038 14.6411 39.432H25.3587C23.16 36.8691 22.6176 33.682 22.3266 30.3213C22.2517 29.4583 22.4608 28.5943 22.9244 27.8627Z" fill="#BF6101"/>
<path d="M25.4311 23.9073C25.6293 23.5945 25.5694 23.1839 25.2899 22.9409C24.9915 22.6813 24.5429 22.6983 24.265 22.9796L23.4408 23.814L22.4194 24.848C22.1747 25.0959 21.7554 24.8898 21.8019 24.5446L22.3447 20.5237C22.4012 20.1049 22.1005 19.7257 21.6847 19.6797L20.1587 29.1647C20.1331 29.2872 20.113 29.4109 20.0991 29.5354C20.0701 29.7946 20.0662 30.0575 20.0889 30.3202C20.3799 33.681 20.9222 36.8682 23.121 39.431H25.3592C23.1604 36.8681 22.6181 33.6809 22.3271 30.3202C22.2524 29.4573 22.4614 28.5933 22.9251 27.8616L25.4311 23.9073Z" fill="#9A4D01"/>
<path d="M18.8872 5.16016C17.2462 5.16016 15.8335 6.13414 15.1931 7.53508C14.5316 7.06758 13.7247 6.79203 12.853 6.79203C10.6104 6.79203 8.79234 8.61008 8.79234 10.8527C8.79234 11.5927 8.99125 12.2858 9.33703 12.8833C7.38969 13.1827 5.89844 14.8654 5.89844 16.8966C5.89844 19.1392 7.71648 20.9573 9.95914 20.9573C12.2018 20.9573 22.9479 11.4635 22.9479 9.22086C22.9479 6.9782 21.1298 5.16016 18.8872 5.16016Z" fill="#A4C400"/>
</svg>
