<svg width="125" height="104" viewBox="0 0 125 104" fill="none" xmlns="http://www.w3.org/2000/svg">
<path d="M113.267 76.1381C117.567 76.9723 120.406 75.4162 121.288 74.5339L121.689 74.213L121.369 75.0152L119.283 81.753L118.561 81.5124C115.834 80.8707 109.337 82.3145 105.006 84.2396C100.674 86.1647 98.589 86.4053 92.5732 87.047C87.7606 87.5604 83.456 92.5015 81.9053 94.9079C79.2744 93.817 72.1999 98.464 68.9915 100.924C63.1361 100.202 60.4892 102.769 57.5214 107.341C54.5536 111.913 49.7411 111.833 46.5326 112.956C43.3242 114.079 35.7043 109.106 31.4532 107.341C30.5548 104.132 25.4641 104.025 23.0311 104.373C19.5821 103.33 14.6091 105.496 11.5611 105.817C8.51309 106.138 2.49734 100.763 4.34217 98.0362C5.81803 95.8544 0.625771 91.4587 -2.15485 89.5336C-2.76979 88.1968 -4.80177 85.8118 -8.01018 86.9668C-11.2186 88.1219 -13.2506 87.0738 -13.8655 86.4053L-14.828 81.5124L-15.951 74.1328L-15.7103 74.2932C-15.443 74.5071 -14.6676 75.2397 -13.7051 76.459C-12.5019 77.983 -7.20808 78.6247 -4.40073 78.9456C-1.59338 79.2664 4.90364 90.2556 7.22973 93.2234C9.55582 96.1913 20.0633 95.71 23.0311 95.8704C25.4053 95.9988 31.9344 98.972 34.9022 100.443C37.1748 101.94 42.5221 104.501 45.7305 102.769C49.7411 100.603 54.2328 102.047 56.5589 101.245C58.885 100.443 62.9757 95.5496 63.5372 94.9079C64.0986 94.2662 70.5957 91.94 73.0822 90.9775C75.5687 90.0149 79.0979 84.3198 81.424 82.876C83.7501 81.4322 91.0492 82.9562 92.5732 81.5124C93.7924 80.3573 98.8029 77.983 101.156 76.9403C103.402 76.3253 108.968 75.3039 113.267 76.1381Z" fill="#B4543E" stroke="#B4543E"/>
<path d="M113.247 59.0111C118.901 59.3966 122.509 61.0992 123.607 61.9024C124.121 62.2255 124.41 63.1614 124.49 63.5889C124.555 67.1227 122.804 71.8077 121.921 73.7084C120.903 76.4123 118.74 82.6072 118.226 85.7555C117.584 89.6909 113.247 89.7712 112.283 89.8515C110.741 89.5302 108.107 91.4578 107.946 92.2609C107.786 93.064 105.564 95.0986 104.654 95.7144C103.112 97.4491 98.6035 98.2576 96.5422 98.445C95.5785 98.3808 94.0526 98.7395 93.4101 98.9269C91.6754 99.1197 84.9239 102.702 81.765 104.469C79.0023 106.525 73.1182 107.681 70.5215 108.002C69.4292 110.38 66.3185 113.223 64.8997 114.347C63.1007 116.146 59.385 117.185 57.752 117.479C55.8888 117.287 52.3176 119.541 50.765 120.692C49.9083 121.629 47.424 123.696 44.3401 124.467C41.2561 125.238 38.5577 124.413 37.5939 123.904C37.1442 123.455 35.2649 122.646 34.3815 122.298C33.2571 121.093 26.4307 120.451 25.5473 120.531C24.8406 120.596 22.5758 119.38 21.5317 118.764C21.9333 118.604 18.4799 116.114 17.8374 115.472C16.0385 114.701 13.1794 111.509 11.9747 110.01C10.8183 109.882 8.22688 108.779 7.07575 108.243C5.36245 107.28 1.75917 104.581 1.05243 101.497C0.169006 97.6419 -0.955345 97.8025 -4.00717 97.8828C-6.44862 97.9471 -8.39749 96.4104 -9.06676 95.6341C-9.95018 94.2955 -11.8134 91.3935 -12.1989 90.494C-13.2911 89.3375 -14.2067 85.4075 -14.5279 83.587C-14.7688 81.9004 -15.2989 78.1578 -15.4917 76.6801C-16.8569 69.2912 -16.0538 65.5165 -15.8932 64.874C-16.6963 62.063 2.89958 59.5733 3.62238 59.4126C6.12808 59.2841 19.7114 57.0568 26.1898 55.9592C30.4463 55.2096 39.3768 53.6461 41.0473 53.3891C42.9748 52.8269 50.0422 52.6663 52.9333 52.345C55.9049 51.7025 70.3608 53.6301 73.0914 53.9513C75.1474 54.3368 86.7443 55.8253 92.2857 56.5214C97.7737 57.1639 109.649 58.5613 113.247 59.0111Z" fill="#B5553D"/>
<path fill-rule="evenodd" clip-rule="evenodd" d="M124.431 63.6817L124.576 63.6544C124.535 63.4354 124.441 63.0884 124.292 62.7541C124.144 62.4234 123.936 62.0913 123.659 61.9162C122.544 61.1016 118.922 59.3977 113.261 59.0114C109.661 58.5613 97.789 57.1643 92.3022 56.5219C86.7586 55.8256 75.1658 54.3376 73.113 53.9527L73.1103 53.9522L73.1076 53.9519C72.7897 53.9145 72.3123 53.8552 71.7123 53.7808C69.7383 53.5358 66.4364 53.126 63.1177 52.7872C60.9538 52.5663 58.7814 52.3754 56.9637 52.2799C55.1533 52.1848 53.6836 52.1836 52.9272 52.346C51.8703 52.4632 50.2561 52.559 48.5372 52.6611C47.9083 52.6984 47.2654 52.7366 46.6306 52.7769C45.4458 52.8522 44.2901 52.9351 43.3098 53.0344C42.3347 53.1332 41.527 53.2487 41.0367 53.3909C39.3519 53.6504 30.4342 55.2116 26.1828 55.9604C22.9438 56.5091 17.9289 57.3403 13.4107 58.0503C8.88931 58.7608 4.87257 59.3488 3.62507 59.4128L3.61835 59.4131L3.61176 59.4146C3.52823 59.4331 3.1714 59.4857 2.60194 59.5696L2.53846 59.579C1.93499 59.6679 1.1131 59.7894 0.149658 59.9394C-1.77712 60.2394 -4.27063 60.6537 -6.71681 61.151C-9.16208 61.6481 -11.5637 62.2288 -13.305 62.8622C-14.1747 63.1785 -14.8858 63.5101 -15.3555 63.8544C-15.4755 63.9423 -15.5817 64.0326 -15.6714 64.1253L-15.7854 64.015C-15.9761 64.2121 -16.0695 64.4838 -15.9906 64.8084C-15.9886 64.8638 -15.9798 64.9198 -15.9636 64.9763L-15.9387 64.9692C-15.9372 64.9732 -15.9356 64.9771 -15.9339 64.981C-15.772 65.3754 -15.366 65.8323 -14.6118 66.3362C-13.1018 67.3449 -10.1591 68.5656 -4.82416 69.8512C0.503639 71.135 3.13076 72.7625 4.2599 74.2588C4.82297 75.005 5.01327 75.718 4.98289 76.3424C4.95248 76.9679 4.70026 77.5106 4.36839 77.9141L4.36725 77.9155L4.36617 77.9169C3.58677 78.9561 3.41428 79.7819 3.53236 80.3977C3.65024 81.0122 4.05453 81.4007 4.39449 81.5707C11.7681 85.2415 24.2659 86.821 36.879 87.3075C49.4965 87.7942 62.2453 87.1877 70.132 86.478L70.135 86.4777L70.138 86.4772C71.1861 86.3026 72.3987 86.0096 73.5311 85.5935C74.6623 85.1778 75.7195 84.6369 76.4515 83.9634C77.185 83.2884 77.5992 82.4722 77.4182 81.5146C77.2385 80.5639 76.4755 79.4957 74.9119 78.3028C73.9402 77.5615 73.5052 76.9394 73.4707 76.4223C73.4369 75.9162 73.7876 75.4707 74.5052 75.0777C75.2198 74.6864 76.2733 74.3623 77.5842 74.0929C78.8937 73.8237 80.4542 73.61 82.1795 73.437C86.5877 72.9949 92.0562 72.8189 97.1395 72.6553C100.019 72.5626 102.775 72.4739 105.145 72.343C115.642 71.7634 122.404 66.3594 124.478 63.7189L124.431 63.6817ZM92.2825 56.6814C86.7455 55.9859 75.1526 54.498 73.0861 54.1111C72.7672 54.0735 72.2899 54.0143 71.6907 53.94C69.7162 53.6949 66.418 53.2856 63.1014 52.947C60.9385 52.7262 58.7691 52.5356 56.9552 52.4403C55.1373 52.3448 53.6877 52.3459 52.9571 52.5039L52.9531 52.5047L52.949 52.5052C51.8877 52.6231 50.2648 52.7194 48.5419 52.8217C47.914 52.859 47.2729 52.897 46.6408 52.9372C45.4564 53.0125 44.3032 53.0952 43.326 53.1942C42.3468 53.2934 41.5505 53.4083 41.0766 53.5465L41.0715 53.548L41.0663 53.5488C39.397 53.8057 30.4677 55.3689 26.2105 56.1186L26.21 56.1187C22.9706 56.6675 17.9548 57.4988 13.4356 58.209C8.92698 58.9175 4.90529 59.5066 3.63979 59.5728C3.5401 59.5938 3.18714 59.6458 2.64947 59.725L2.56187 59.7379C1.95848 59.8268 1.13714 59.9482 0.174362 60.0981C-1.75127 60.398 -4.24207 60.8119 -6.68481 61.3084C-9.12848 61.8052 -11.5204 62.384 -13.2501 63.0131C-14.1158 63.328 -14.8096 63.6534 -15.2606 63.9839C-15.6445 64.2653 -15.831 64.5333 -15.8298 64.7889C-15.8186 64.8313 -15.8039 64.875 -15.7854 64.92C-15.6412 65.2711 -15.2661 65.7059 -14.5225 66.2026C-13.0369 67.1951 -10.1169 68.4106 -4.78653 69.695C0.550972 70.9812 3.22436 72.6198 4.38811 74.162C4.97147 74.9351 5.1757 75.6845 5.14333 76.3502C5.11105 77.014 4.84381 77.5884 4.49361 78.0147C3.73195 79.0308 3.58338 79.8108 3.69012 80.3674C3.79713 80.9254 4.16382 81.2758 4.46634 81.427C11.8057 85.0808 24.2714 86.6604 36.8852 87.147C49.4931 87.6333 62.2333 87.0274 70.1146 86.3183C71.1539 86.1449 72.3554 85.8544 73.4757 85.4427C74.5982 85.0302 75.6331 84.4982 76.3427 83.8452C77.0508 83.1936 77.4277 82.4297 77.2603 81.5444C77.0917 80.6522 76.3669 79.6149 74.8144 78.4305C73.8386 77.686 73.35 77.0256 73.3104 76.433C73.2702 75.8296 73.695 75.3383 74.4281 74.9368C75.164 74.5338 76.2363 74.206 77.5518 73.9355C78.8688 73.6648 80.4353 73.4505 82.1634 73.2772C86.576 72.8346 92.0569 72.6581 97.1447 72.4943C100.022 72.4017 102.774 72.313 105.136 72.1826C115.584 71.6057 122.304 66.2263 124.352 63.6196L124.416 63.6697C124.375 63.4604 124.285 63.1336 124.145 62.8196C124 62.4956 123.807 62.1992 123.571 62.0507L123.569 62.0492L123.566 62.0475C122.484 61.2553 118.891 59.5563 113.248 59.1715L113.246 59.1714L113.244 59.1711C109.646 58.7214 97.7713 57.324 92.2832 56.6814L92.2825 56.6814Z" fill="#68AA0C"/>
<path d="M73.0861 54.1111C75.1526 54.498 86.7455 55.9859 92.2825 56.6814L92.2832 56.6814C97.7713 57.324 109.646 58.7214 113.244 59.1711L113.246 59.1714L113.248 59.1715C118.891 59.5563 122.484 61.2553 123.566 62.0475L123.569 62.0492L123.571 62.0507C123.807 62.1992 124 62.4956 124.145 62.8196C124.285 63.1336 124.375 63.4604 124.416 63.6697L124.352 63.6196C122.304 66.2263 115.584 71.6057 105.136 72.1826C102.774 72.313 100.022 72.4017 97.1447 72.4943C92.0569 72.6581 86.576 72.8346 82.1634 73.2772C80.4353 73.4505 78.8688 73.6648 77.5518 73.9355C76.2363 74.206 75.164 74.5338 74.4281 74.9368C73.695 75.3383 73.2702 75.8296 73.3104 76.433C73.35 77.0256 73.8386 77.686 74.8144 78.4305C76.3669 79.6149 77.0917 80.6522 77.2603 81.5444C77.4277 82.4297 77.0508 83.1936 76.3427 83.8452C75.6331 84.4982 74.5982 85.0302 73.4757 85.4427C72.3554 85.8544 71.1539 86.1449 70.1146 86.3183C62.2333 87.0274 49.4931 87.6333 36.8852 87.147C24.2714 86.6604 11.8057 85.0808 4.46634 81.427C4.16382 81.2758 3.79713 80.9254 3.69012 80.3674C3.58338 79.8108 3.73195 79.0308 4.49361 78.0147C4.84381 77.5884 5.11105 77.014 5.14333 76.3502C5.1757 75.6845 4.97147 74.9351 4.38811 74.162C3.22436 72.6198 0.550972 70.9812 -4.78653 69.695C-10.1169 68.4106 -13.0369 67.1951 -14.5225 66.2026C-15.2661 65.7059 -15.6412 65.2711 -15.7854 64.92C-15.8039 64.875 -15.8186 64.8313 -15.8298 64.7889C-15.831 64.5333 -15.6445 64.2653 -15.2606 63.9839C-14.8096 63.6534 -14.1158 63.328 -13.2501 63.0131C-11.5204 62.384 -9.12848 61.8052 -6.68481 61.3084C-4.24207 60.8119 -1.75127 60.398 0.174362 60.0981C1.13714 59.9482 1.95848 59.8268 2.56187 59.7379L2.64947 59.725C3.18714 59.6458 3.5401 59.5938 3.63979 59.5728C4.90529 59.5066 8.92698 58.9175 13.4356 58.209C17.9548 57.4988 22.9706 56.6675 26.21 56.1187L26.2105 56.1186C30.4677 55.3689 39.397 53.8057 41.0663 53.5488L41.0715 53.548L41.0766 53.5465C41.5505 53.4083 42.3468 53.2934 43.326 53.1942C44.3032 53.0952 45.4564 53.0125 46.6408 52.9372C47.2729 52.897 47.914 52.859 48.5419 52.8217C50.2648 52.7194 51.8877 52.6231 52.949 52.5052L52.9531 52.5047L52.9571 52.5039C53.6877 52.3459 55.1373 52.3448 56.9552 52.4403C58.7691 52.5356 60.9385 52.7262 63.1014 52.947C66.418 53.2856 69.7162 53.6949 71.6907 53.94C72.2899 54.0143 72.7672 54.0735 73.0861 54.1111Z" fill="#68AA0C"/>
<path d="M114.307 78.8734C114.82 78.9376 116.125 72.6971 116.713 69.5688V69.3281L116.392 69.5688L112.141 71.0928L109.173 71.8949L105.002 72.3762L92.5697 72.7773C88.6661 73.0446 80.089 73.6917 77.0089 74.1409C73.9289 74.5901 73.3193 75.9323 73.3995 76.5473C73.5064 76.9751 74.1855 78.1676 76.0464 79.5151C77.9073 80.8627 77.4634 82.7504 77.0089 83.5258C77.2014 85.1942 76.287 89.8358 75.8058 91.9481C75.2283 93.039 74.4957 97.0015 74.2016 98.8464C74.1374 100.643 71.8755 105.477 70.7525 107.67C74.1534 107.413 78.9072 105.317 80.859 104.301C80.8323 97.5897 80.7948 83.9589 80.859 83.1247C80.474 80.8787 81.1798 80.0499 81.5809 79.9162C81.7734 81.2638 82.784 84.007 83.2653 85.2102C85.1101 87.0551 84.5487 74.3013 84.7091 73.9002C84.8695 73.4992 93.3718 73.3388 95.2968 73.0981C96.8368 72.9056 102.409 73.1783 105.002 73.3388C106.157 79.7558 105.483 90.4508 105.002 94.9962C106.125 94.4347 107.328 92.4294 109.013 90.7449C110.36 89.3973 112.248 89.2743 113.023 89.3813C111.227 86.0444 112.542 77.8841 113.424 74.2211C113.745 74.4778 114.146 77.4296 114.307 78.8734Z" fill="#8A4130"/>
<path d="M62.6545 88.1743C62.847 88.3668 65.8361 87.2385 67.3066 86.6503H66.4243L60.7294 87.0513L52.7084 87.3722H41.3186L34.3403 87.1315L23.6724 86.2492L18.4587 85.5273L10.7586 83.8428L5.14386 81.9177L3.78028 80.9552L3.53965 80.0728L3.78028 78.8696L4.50217 77.9071L5.14386 76.6237L4.82302 75.0194L2.25629 72.2922L-1.75421 70.6077L-7.60954 69.0035L-13.5451 66.918V67.4795C-11.62 69.3404 -7.55607 70.3404 -5.76471 70.6077C-5.70054 71.6986 -4.18725 77.6397 -3.43862 80.4739C-1.89858 85.5433 -1.03232 86.5968 -0.791687 86.4898C0.363335 87.1315 0.86599 83.2279 0.972931 81.1958C2.38463 84.0193 3.75355 98.8961 4.26155 105.982C7.21328 108.484 10.7853 109.324 12.2023 109.431C11.304 108.917 9.63562 105.099 8.91373 103.254C6.60368 99.3399 4.52891 87.292 3.78028 81.7573C5.19198 83.6824 8.11163 84.8589 9.39499 85.2064C10.935 86.2332 20.0362 86.9711 24.3943 87.2118C26.5118 88.816 25.8648 109.858 25.2766 120.179C30.2175 119.858 35.4098 122.238 37.3883 123.468C35.2066 112.431 36.2119 95.34 36.9872 88.1743L43.404 87.8535C43.6447 88.415 47.8958 102.212 49.5802 103.655C51.2646 105.099 51.7459 101.008 52.2272 99.8854C52.6122 98.987 53.564 96.7303 53.9918 95.7143C54.0559 94.8159 55.6227 93.4683 56.3981 92.9069C57.2964 94.6395 59.8204 94.3239 60.97 93.9496C62.8149 92.8266 62.4138 87.9337 62.6545 88.1743Z" fill="#8A4130"/>
<path d="M99.4642 81.4371C99.785 83.3622 99.1166 85.4478 98.7423 86.2499C96.0472 84.2607 96.6569 80.9826 97.2986 79.5922C97.8868 79.4051 99.1434 79.512 99.4642 81.4371Z" fill="#8A4130"/>
<path d="M65.776 105.822C68.2786 104.731 67.5139 99.9127 66.8187 97.64C66.4712 97.132 65.7439 96.2764 65.6156 96.9181C65.4873 97.5598 64.3857 98.8967 63.851 99.4849C63.4499 102.052 63.2735 106.913 65.776 105.822Z" fill="#8A4130"/>
<path d="M60.3217 107.426C61.1559 105.822 61.7923 107.078 62.0061 107.907C62.2601 108.549 62.112 109.137 62.0061 109.351C61.0971 109.378 59.4875 109.03 60.3217 107.426Z" fill="#8A4130"/>
<path d="M-1.19936 90.9022C-0.557686 91.6081 0.351364 96.7042 0.725677 99.1641C0.78833 99.5668 0.644836 99.7062 0.565254 99.7256L0.324623 99.1641L-0.0764236 98.6026L-0.477478 98.2817L-1.27958 97.9609L-2.48273 97.8005L-3.60567 97.8807L-5.12965 97.8005L-4.40777 97.239C-3.60567 96.9983 -2.00146 90.0198 -1.19936 90.9022Z" fill="#8A4130"/>
<path d="M112.18 75.6128C106.803 73.5894 104.838 68.6924 104.527 66.4969C121.647 63.3156 119.778 75.4086 119.978 78.7135C118.168 78.4473 111.737 71.6427 110.783 70.8885C112.274 72.3792 112.335 74.6592 112.18 75.6128Z" fill="#68AA0C"/>
<path d="M106.389 53.5401C103.983 54.5141 101.183 58.0516 100.084 59.6987C100.078 61.2018 102.52 63.1088 103.742 63.8745C104.826 63.6933 107.464 62.1241 109.343 57.2965C107.019 57.3178 105.224 58.8292 104.617 59.5822C104.596 59.1396 104.921 57.3117 106.389 53.5401Z" fill="#6EBC30"/>
<path d="M105.634 54.1573C103.227 55.1313 100.427 58.6688 99.3277 60.3159C99.3218 61.819 101.764 63.726 102.986 64.4917C104.07 64.3105 106.708 62.7413 108.587 57.9136C106.263 57.935 104.468 59.4463 103.861 60.1994C103.84 59.7568 104.165 57.9289 105.634 54.1573Z" fill="#68AA0C"/>
<path d="M45.8554 46.9481C47.5907 48.8795 48.5541 53.287 48.8189 55.2494C48.1646 56.6026 45.1333 57.2444 43.6994 57.3961C42.8049 56.7576 41.1232 54.1899 41.5527 49.027C43.6323 50.0664 44.5819 52.2122 44.7968 53.1552C45.0099 52.7668 45.5199 50.9816 45.8554 46.9481Z" fill="#6EBC30"/>
<path d="M46.2578 47.8348C47.993 49.7662 48.9565 54.1738 49.2213 56.1361C48.5669 57.4893 45.5356 58.1311 44.1018 58.2828C43.2072 57.6443 41.5256 55.0766 41.9551 49.9137C44.0346 50.9531 44.9843 53.0989 45.1991 54.0419C45.4122 53.6535 45.9222 51.8683 46.2578 47.8348Z" fill="#68AA0C"/>
<path d="M-5.86623 56.1197C3.30459 50.2506 6.60588 60.5207 4.4962 64.7399C4.4962 67.1253 -2.01424 71.3417 -4.03169 66.2979C-5.64566 62.2629 -8.73904 61.0096 -10.084 60.8873C-7.51631 57.8052 -2.77835 58.1358 -0.730326 58.6864C-1.90412 56.6322 -4.64334 56.1193 -5.86623 56.1197Z" fill="#68AA0C"/>
<path fill-rule="evenodd" clip-rule="evenodd" d="M0.63556 54.5412C-1.04633 54.0744 -3.20859 54.4214 -5.86233 56.1197C-4.69816 56.1193 -2.15981 56.5841 -0.906014 58.401C0.213752 58.4134 1.21386 58.5744 1.90639 58.7606C0.7326 56.7064 -2.00663 56.1936 -3.22952 56.1939C-1.7989 55.2783 -0.511126 54.7555 0.63556 54.5412ZM0.477262 68.477C-0.286651 68.1464 -0.950068 67.4845 -1.39498 66.3722C-3.00894 62.3371 -6.10232 61.0838 -7.44727 60.9615C-6.02267 59.2515 -3.93002 58.592 -1.99935 58.4378C-4.3423 58.1232 -7.9547 58.3361 -10.0801 60.8873C-8.73513 61.0096 -5.64175 62.2629 -4.02779 66.2979C-3.11033 68.5917 -1.26371 68.9703 0.477262 68.477Z" fill="#6EBC30"/>
<path d="M83.8381 79.5144C78.4609 77.491 76.4959 72.594 76.1855 70.3985C84.8095 68.0564 87.3652 74.0806 87.5651 77.3855C85.7551 77.1193 83.395 75.5443 82.4412 74.7901C83.9318 76.2808 83.9936 78.5608 83.8381 79.5144Z" fill="#68AA0C"/>
<path opacity="0.2" d="M44.0177 77.5872C48.1711 73.4277 53.5644 73.6607 55.7418 74.2972C54.2887 83.324 47.5956 83.1664 44.4307 81.9593C45.442 80.3842 47.9052 78.8481 49.0104 78.277C46.9924 79.038 44.8411 78.1343 44.0177 77.5872Z" fill="#949494"/>
<path d="M44.2111 76.9533C47.7177 73.4415 52.271 73.6382 54.1094 74.1755C52.8826 81.7966 47.2318 81.6636 44.5598 80.6444C45.4136 79.3146 47.4932 78.0178 48.4263 77.5356C46.7226 78.1781 44.9062 77.4151 44.2111 76.9533Z" fill="#6EBC30"/>
<path d="M46.0007 76.4348C49.3818 72.8663 53.6314 72.9256 55.3335 73.4013C53.9614 80.9566 48.6844 80.9926 46.2173 80.0662C47.0547 78.729 49.0366 77.3879 49.9229 76.8846C48.3116 77.5689 46.6367 76.8699 46.0007 76.4348Z" fill="#68AA0C"/>
<path d="M36.2823 94.026C33.417 87.6335 35.4094 84.2449 36.7638 83.3496C43.871 80.815 45.2377 90.3862 38.143 95.1972C38.5258 94.8143 39.2047 92.6111 38.9185 86.8587C38.9193 88.9153 37.1943 92.4414 36.2823 94.026Z" fill="#68AA0C"/>
<ellipse cx="52.9991" cy="58.9546" rx="13.9679" ry="3.25924" fill="#366C00" fill-opacity="0.75"/>
<path d="M79.1036 28.2404C79.1036 24.1648 76.625 20.668 73.0931 19.1752C73.7168 17.9694 74.0713 16.6018 74.0713 15.1507C74.0713 10.3051 70.1432 6.37687 65.2975 6.37687C63.9169 6.37687 62.6114 6.69668 61.4494 7.2648C60.4168 3.56824 57.0266 0.855469 53.0005 0.855469C48.9744 0.855469 45.5842 3.56824 44.5516 7.26492C43.3897 6.6968 42.0841 6.37699 40.7036 6.37699C35.858 6.37699 31.9297 10.3051 31.9297 15.1508C31.9297 16.602 32.2842 17.9695 32.9079 19.1753C29.376 20.6681 26.8975 24.1649 26.8975 28.2405C26.8975 33.5225 31.0617 37.8264 36.2856 38.062C37.0139 40.7 39.8264 42.6666 43.1875 42.6666C45.0925 42.6666 46.8204 42.0339 48.094 41.0065C49.3675 42.0339 51.0955 42.6666 53.0005 42.6666C54.9055 42.6666 56.6334 42.0339 57.907 41.0065C59.1805 42.0339 60.9086 42.6666 62.8136 42.6666C66.1747 42.6666 68.9872 40.6999 69.7154 38.062C74.9393 37.8262 79.1036 33.5224 79.1036 28.2404Z" fill="#60A917"/>
<path d="M52.474 0.872812C52.366 0.879258 52.2584 0.887109 52.1515 0.897539C52.1188 0.900703 52.0862 0.904336 52.0536 0.907852C51.9387 0.920273 51.8245 0.93457 51.7109 0.951445C51.6897 0.954609 51.6684 0.957656 51.6471 0.960938C51.512 0.982031 51.3779 1.00547 51.2448 1.03254C51.2446 1.03254 51.2444 1.03266 51.2441 1.03266C53.5473 1.50105 55.7038 3.10523 57.07 5.12731C58.0375 6.55922 59.6905 7.38457 61.4146 7.26738C61.4261 7.26656 61.4376 7.26586 61.4491 7.26504C60.4166 3.56824 57.0264 0.855469 53.0003 0.855469C52.8592 0.855469 52.7191 0.85957 52.5795 0.86625C52.5442 0.867891 52.5092 0.870703 52.474 0.872812Z" fill="#A4C400"/>
<path d="M73.0926 19.1733C73.7164 17.9675 74.0708 16.6 74.0708 15.1488C74.0708 10.3032 70.1427 6.375 65.297 6.375C64.6957 6.375 64.1086 6.43582 63.5414 6.55125C67.5451 7.365 70.5584 10.9049 70.5584 15.1488C70.5584 16.6 70.2039 17.9675 69.5803 19.1733C73.1122 20.6661 75.5907 24.1629 75.5907 28.2386C75.5907 33.5205 71.4264 37.8244 66.2027 38.0599C65.6057 40.222 63.6083 41.9323 61.0566 42.4793C61.6183 42.5999 62.2066 42.6646 62.813 42.6646C66.1741 42.6646 68.9867 40.6979 69.7149 38.06C74.9388 37.8245 79.1029 33.5207 79.1029 28.2387C79.1032 24.1629 76.6248 20.6663 73.0926 19.1733Z" fill="#A4C400"/>
<path d="M46.7182 39.5535C45.927 40.8955 42.6477 42.3962 41.4316 42.4815C41.5655 42.5102 41.7011 42.5353 41.8377 42.5576C41.8487 42.5593 41.8596 42.5613 41.8706 42.5631C42.0093 42.5851 42.1492 42.604 42.2905 42.6191C42.2941 42.6195 42.2978 42.6197 42.3014 42.6202C42.4286 42.6336 42.5571 42.6432 42.6864 42.651C42.7179 42.6529 42.7493 42.6546 42.7809 42.6561C42.9156 42.6626 43.0509 42.6669 43.1876 42.6669C44.925 42.6669 46.5139 42.1395 47.7464 41.2675L47.9625 41.1103L46.862 39.3047L46.7182 39.5535Z" fill="#009000"/>
<path d="M57.3876 41.7901L61.1466 35.8585C61.4439 35.3893 61.3541 34.7734 60.9349 34.4088C60.4873 34.0195 59.8143 34.0449 59.3975 34.4669L56.6292 37.2696C56.262 37.6413 55.633 37.3322 55.7029 36.8144L56.517 30.783C56.604 30.1386 56.1276 29.555 55.4789 29.5112L54.7162 29.4596C54.143 29.4209 53.6329 29.8206 53.5334 30.3862L52.0804 38.642C51.9996 39.1011 51.4166 39.2526 51.1224 38.8909L46.5716 33.2941C46.2567 32.9068 45.7241 32.7736 45.264 32.967L44.4672 33.302C43.8364 33.5672 43.5868 34.3297 43.9388 34.9165L48.6154 42.7115C49.2927 43.8404 49.5719 45.1647 49.4026 46.4702C48.7965 51.1446 48.0437 55.5531 44.9627 59.1441H61.0391C57.7409 55.2998 56.9274 50.519 56.4909 45.478C56.3785 44.1835 56.6921 42.8875 57.3876 41.7901Z" fill="#BF6101"/>
<path d="M61.1456 35.861C61.4429 35.3918 61.3531 34.7759 60.9339 34.4113C60.4863 34.022 59.8133 34.0474 59.3965 34.4694L58.1602 35.721L56.6282 37.2721C56.261 37.6438 55.6321 37.3346 55.7019 36.8169L56.516 30.7855C56.6009 30.1574 56.1498 29.5886 55.5261 29.5195L53.2371 43.747C53.1987 43.9308 53.1686 44.1163 53.1477 44.3031C53.1041 44.6919 53.0983 45.0862 53.1324 45.4803C53.5689 50.5215 54.3824 55.3023 57.6805 59.1465H61.0378C57.7397 55.3022 56.9262 50.5214 56.4897 45.4803C56.3776 44.1859 56.6911 42.8899 57.3866 41.7925L61.1456 35.861Z" fill="#9A4D01"/>
<path d="M51.3308 7.74219C48.8693 7.74219 46.7503 9.20316 45.7897 11.3046C44.7973 10.6033 43.587 10.19 42.2796 10.19C38.9156 10.19 36.1885 12.9171 36.1885 16.2811C36.1885 17.3911 36.4869 18.4306 37.0055 19.3269C34.0845 19.7759 31.8477 22.3 31.8477 25.3468C31.8477 28.7108 34.5747 31.4379 37.9387 31.4379C41.3027 31.4379 57.4218 17.1972 57.4218 13.8332C57.4218 10.4693 54.6946 7.74219 51.3308 7.74219Z" fill="#A4C400"/>
</svg>
