<svg width="125" height="102" viewBox="0 0 125 102" fill="none" xmlns="http://www.w3.org/2000/svg">
<path d="M113.267 74.1381C117.567 74.9723 120.406 73.4162 121.288 72.5339L121.689 72.213L121.369 73.0152L119.283 79.753L118.561 79.5124C115.834 78.8707 109.337 80.3145 105.006 82.2396C100.674 84.1647 98.589 84.4053 92.5732 85.047C87.7606 85.5604 83.456 90.5015 81.9053 92.9079C79.2744 91.817 72.1999 96.464 68.9915 98.9238C63.1361 98.2019 60.4892 100.769 57.5214 105.341C54.5536 109.913 49.7411 109.833 46.5326 110.956C43.3242 112.079 35.7043 107.106 31.4532 105.341C30.5548 102.132 25.4641 102.025 23.0311 102.373C19.5821 101.33 14.6091 103.496 11.5611 103.817C8.51309 104.138 2.49734 98.7634 4.34217 96.0362C5.81803 93.8544 0.625771 89.4587 -2.15485 87.5336C-2.76979 86.1968 -4.80177 83.8118 -8.01018 84.9668C-11.2186 86.1219 -13.2506 85.0738 -13.8655 84.4053L-14.828 79.5124L-15.951 72.1328L-15.7103 72.2932C-15.443 72.5071 -14.6676 73.2397 -13.7051 74.459C-12.5019 75.983 -7.20808 76.6247 -4.40073 76.9456C-1.59338 77.2664 4.90364 88.2556 7.22973 91.2234C9.55582 94.1913 20.0633 93.71 23.0311 93.8704C25.4053 93.9988 31.9344 96.972 34.9022 98.4426C37.1748 99.9399 42.5221 102.501 45.7305 100.769C49.7411 98.603 54.2328 100.047 56.5589 99.2447C58.885 98.4426 62.9757 93.5496 63.5372 92.9079C64.0986 92.2662 70.5957 89.94 73.0822 88.9775C75.5687 88.0149 79.0979 82.3198 81.424 80.876C83.7501 79.4322 91.0492 80.9562 92.5732 79.5124C93.7924 78.3573 98.8029 75.983 101.156 74.9403C103.402 74.3253 108.968 73.3039 113.267 74.1381Z" fill="#B4543E" stroke="#B4543E"/>
<path d="M113.247 57.0111C118.901 57.3966 122.509 59.0992 123.607 59.9024C124.121 60.2255 124.41 61.1614 124.49 61.5889C124.555 65.1227 122.804 69.8077 121.921 71.7084C120.903 74.4123 118.74 80.6072 118.226 83.7555C117.584 87.6909 113.247 87.7712 112.283 87.8515C110.741 87.5302 108.107 89.4578 107.946 90.2609C107.786 91.064 105.564 93.0986 104.654 93.7144C103.112 95.4491 98.6035 96.2576 96.5422 96.445C95.5785 96.3808 94.0526 96.7395 93.4101 96.9269C91.6754 97.1197 84.9239 100.702 81.765 102.469C79.0023 104.525 73.1182 105.681 70.5215 106.002C69.4292 108.38 66.3185 111.223 64.8997 112.347C63.1007 114.146 59.385 115.185 57.752 115.479C55.8888 115.287 52.3176 117.541 50.765 118.692C49.9083 119.629 47.424 121.696 44.3401 122.467C41.2561 123.238 38.5577 122.413 37.5939 121.904C37.1442 121.455 35.2649 120.646 34.3815 120.298C33.2571 119.093 26.4307 118.451 25.5473 118.531C24.8406 118.596 22.5758 117.38 21.5317 116.764C21.9333 116.604 18.4799 114.114 17.8374 113.472C16.0385 112.701 13.1794 109.509 11.9747 108.01C10.8183 107.882 8.22688 106.779 7.07575 106.243C5.36245 105.28 1.75917 102.581 1.05243 99.4969C0.169006 95.6419 -0.955345 95.8025 -4.00717 95.8828C-6.44862 95.9471 -8.39749 94.4104 -9.06676 93.6341C-9.95018 92.2955 -11.8134 89.3935 -12.1989 88.494C-13.2911 87.3375 -14.2067 83.4075 -14.5279 81.587C-14.7688 79.9004 -15.2989 76.1578 -15.4917 74.6801C-16.8569 67.2912 -16.0538 63.5165 -15.8932 62.874C-16.6963 60.063 2.89958 57.5733 3.62238 57.4126C6.12808 57.2841 19.7114 55.0568 26.1898 53.9592C30.4463 53.2096 39.3768 51.6461 41.0473 51.3891C42.9748 50.8269 50.0422 50.6663 52.9333 50.345C55.9049 49.7025 70.3608 51.6301 73.0914 51.9513C75.1474 52.3368 86.7443 53.8253 92.2857 54.5214C97.7737 55.1639 109.649 56.5613 113.247 57.0111Z" fill="#B5553D"/>
<path fill-rule="evenodd" clip-rule="evenodd" d="M124.431 61.6817L124.576 61.6544C124.535 61.4354 124.441 61.0884 124.292 60.7541C124.144 60.4234 123.936 60.0913 123.659 59.9162C122.544 59.1016 118.922 57.3977 113.261 57.0114C109.661 56.5613 97.789 55.1643 92.3022 54.5219C86.7586 53.8256 75.1658 52.3376 73.113 51.9527L73.1103 51.9522L73.1076 51.9519C72.7897 51.9145 72.3123 51.8552 71.7123 51.7808C69.7383 51.5358 66.4364 51.126 63.1177 50.7872C60.9538 50.5663 58.7814 50.3754 56.9637 50.2799C55.1533 50.1848 53.6836 50.1836 52.9272 50.346C51.8703 50.4632 50.2561 50.559 48.5372 50.6611C47.9083 50.6984 47.2654 50.7366 46.6306 50.7769C45.4458 50.8522 44.2901 50.9351 43.3098 51.0344C42.3347 51.1332 41.527 51.2487 41.0367 51.3909C39.3519 51.6504 30.4342 53.2116 26.1828 53.9604C22.9438 54.5091 17.9289 55.3403 13.4107 56.0503C8.88931 56.7608 4.87257 57.3488 3.62507 57.4128L3.61835 57.4131L3.61176 57.4146C3.52823 57.4331 3.1714 57.4857 2.60194 57.5696L2.53846 57.579C1.93499 57.6679 1.1131 57.7894 0.149658 57.9394C-1.77712 58.2394 -4.27063 58.6537 -6.71681 59.151C-9.16208 59.6481 -11.5637 60.2288 -13.305 60.8622C-14.1747 61.1785 -14.8858 61.5101 -15.3555 61.8544C-15.4755 61.9423 -15.5817 62.0326 -15.6714 62.1253L-15.7854 62.015C-15.9761 62.2121 -16.0695 62.4838 -15.9906 62.8084C-15.9886 62.8638 -15.9798 62.9198 -15.9636 62.9763L-15.9387 62.9692C-15.9372 62.9732 -15.9356 62.9771 -15.9339 62.981C-15.772 63.3754 -15.366 63.8323 -14.6118 64.3362C-13.1018 65.3449 -10.1591 66.5656 -4.82416 67.8512C0.503639 69.135 3.13076 70.7625 4.2599 72.2588C4.82297 73.005 5.01327 73.718 4.98289 74.3424C4.95248 74.9679 4.70026 75.5106 4.36839 75.9141L4.36725 75.9155L4.36617 75.9169C3.58677 76.9561 3.41428 77.7819 3.53236 78.3977C3.65024 79.0122 4.05453 79.4007 4.39449 79.5707C11.7681 83.2415 24.2659 84.821 36.879 85.3075C49.4965 85.7942 62.2453 85.1877 70.132 84.478L70.135 84.4777L70.138 84.4772C71.1861 84.3026 72.3987 84.0096 73.5311 83.5935C74.6623 83.1778 75.7195 82.6369 76.4515 81.9634C77.185 81.2884 77.5992 80.4722 77.4182 79.5146C77.2385 78.5639 76.4755 77.4957 74.9119 76.3028C73.9402 75.5615 73.5052 74.9394 73.4707 74.4223C73.4369 73.9162 73.7876 73.4707 74.5052 73.0777C75.2198 72.6864 76.2733 72.3623 77.5842 72.0929C78.8937 71.8237 80.4542 71.61 82.1795 71.437C86.5877 70.9949 92.0562 70.8189 97.1395 70.6553C100.019 70.5626 102.775 70.4739 105.145 70.343C115.642 69.7634 122.404 64.3594 124.478 61.7189L124.431 61.6817ZM92.2825 54.6814C86.7455 53.9859 75.1526 52.498 73.0861 52.1111C72.7672 52.0735 72.2899 52.0143 71.6907 51.94C69.7162 51.6949 66.418 51.2856 63.1014 50.947C60.9385 50.7262 58.7691 50.5356 56.9552 50.4403C55.1373 50.3448 53.6877 50.3459 52.9571 50.5039L52.9531 50.5047L52.949 50.5052C51.8877 50.6231 50.2648 50.7194 48.5419 50.8217C47.914 50.859 47.2729 50.897 46.6408 50.9372C45.4564 51.0125 44.3032 51.0952 43.326 51.1942C42.3468 51.2934 41.5505 51.4083 41.0766 51.5465L41.0715 51.548L41.0663 51.5488C39.397 51.8057 30.4677 53.3689 26.2105 54.1186L26.21 54.1187C22.9706 54.6675 17.9548 55.4988 13.4356 56.209C8.92698 56.9175 4.90529 57.5066 3.63979 57.5728C3.5401 57.5938 3.18714 57.6458 2.64947 57.725L2.56187 57.7379C1.95848 57.8268 1.13714 57.9482 0.174362 58.0981C-1.75127 58.398 -4.24207 58.8119 -6.68481 59.3084C-9.12848 59.8052 -11.5204 60.384 -13.2501 61.0131C-14.1158 61.328 -14.8096 61.6534 -15.2606 61.9839C-15.6445 62.2653 -15.831 62.5333 -15.8298 62.7889C-15.8186 62.8313 -15.8039 62.875 -15.7854 62.92C-15.6412 63.2711 -15.2661 63.7059 -14.5225 64.2026C-13.0369 65.1951 -10.1169 66.4106 -4.78653 67.695C0.550972 68.9812 3.22436 70.6198 4.38811 72.162C4.97147 72.9351 5.1757 73.6845 5.14333 74.3502C5.11105 75.014 4.84381 75.5884 4.49361 76.0147C3.73195 77.0308 3.58338 77.8108 3.69012 78.3674C3.79713 78.9254 4.16382 79.2758 4.46634 79.427C11.8057 83.0808 24.2714 84.6604 36.8852 85.147C49.4931 85.6333 62.2333 85.0274 70.1146 84.3183C71.1539 84.1449 72.3554 83.8544 73.4757 83.4427C74.5982 83.0302 75.6331 82.4982 76.3427 81.8452C77.0508 81.1936 77.4277 80.4297 77.2603 79.5444C77.0917 78.6522 76.3669 77.6149 74.8144 76.4305C73.8386 75.686 73.35 75.0256 73.3104 74.433C73.2702 73.8296 73.695 73.3383 74.4281 72.9368C75.164 72.5338 76.2363 72.206 77.5518 71.9355C78.8688 71.6648 80.4353 71.4505 82.1634 71.2772C86.576 70.8346 92.0569 70.6581 97.1447 70.4943C100.022 70.4017 102.774 70.313 105.136 70.1826C115.584 69.6057 122.304 64.2263 124.352 61.6196L124.416 61.6697C124.375 61.4604 124.285 61.1336 124.145 60.8196C124 60.4956 123.807 60.1992 123.571 60.0507L123.569 60.0492L123.566 60.0475C122.484 59.2553 118.891 57.5563 113.248 57.1715L113.246 57.1714L113.244 57.1711C109.646 56.7214 97.7713 55.324 92.2832 54.6814L92.2825 54.6814Z" fill="#68AA0C"/>
<path d="M73.0861 52.1111C75.1526 52.498 86.7455 53.9859 92.2825 54.6814L92.2832 54.6814C97.7713 55.324 109.646 56.7214 113.244 57.1711L113.246 57.1714L113.248 57.1715C118.891 57.5563 122.484 59.2553 123.566 60.0475L123.569 60.0492L123.571 60.0507C123.807 60.1992 124 60.4956 124.145 60.8196C124.285 61.1336 124.375 61.4604 124.416 61.6697L124.352 61.6196C122.304 64.2263 115.584 69.6057 105.136 70.1826C102.774 70.313 100.022 70.4017 97.1447 70.4943C92.0569 70.6581 86.576 70.8346 82.1634 71.2772C80.4353 71.4505 78.8688 71.6648 77.5518 71.9355C76.2363 72.206 75.164 72.5338 74.4281 72.9368C73.695 73.3383 73.2702 73.8296 73.3104 74.433C73.35 75.0256 73.8386 75.686 74.8144 76.4305C76.3669 77.6149 77.0917 78.6522 77.2603 79.5444C77.4277 80.4297 77.0508 81.1936 76.3427 81.8452C75.6331 82.4982 74.5982 83.0302 73.4757 83.4427C72.3554 83.8544 71.1539 84.1449 70.1146 84.3183C62.2333 85.0274 49.4931 85.6333 36.8852 85.147C24.2714 84.6604 11.8057 83.0808 4.46634 79.427C4.16382 79.2758 3.79713 78.9254 3.69012 78.3674C3.58338 77.8108 3.73195 77.0308 4.49361 76.0147C4.84381 75.5884 5.11105 75.014 5.14333 74.3502C5.1757 73.6845 4.97147 72.9351 4.38811 72.162C3.22436 70.6198 0.550972 68.9812 -4.78653 67.695C-10.1169 66.4106 -13.0369 65.1951 -14.5225 64.2026C-15.2661 63.7059 -15.6412 63.2711 -15.7854 62.92C-15.8039 62.875 -15.8186 62.8313 -15.8298 62.7889C-15.831 62.5333 -15.6445 62.2653 -15.2606 61.9839C-14.8096 61.6534 -14.1158 61.328 -13.2501 61.0131C-11.5204 60.384 -9.12848 59.8052 -6.68481 59.3084C-4.24207 58.8119 -1.75127 58.398 0.174362 58.0981C1.13714 57.9482 1.95848 57.8268 2.56187 57.7379L2.64947 57.725C3.18714 57.6458 3.5401 57.5938 3.63979 57.5728C4.90529 57.5066 8.92698 56.9175 13.4356 56.209C17.9548 55.4988 22.9706 54.6675 26.21 54.1187L26.2105 54.1186C30.4677 53.3689 39.397 51.8057 41.0663 51.5488L41.0715 51.548L41.0766 51.5465C41.5505 51.4083 42.3468 51.2934 43.326 51.1942C44.3032 51.0952 45.4564 51.0125 46.6408 50.9372C47.2729 50.897 47.914 50.859 48.5419 50.8217C50.2648 50.7194 51.8877 50.6231 52.949 50.5052L52.9531 50.5047L52.9571 50.5039C53.6877 50.3459 55.1373 50.3448 56.9552 50.4403C58.7691 50.5356 60.9385 50.7262 63.1014 50.947C66.418 51.2856 69.7162 51.6949 71.6907 51.94C72.2899 52.0143 72.7672 52.0735 73.0861 52.1111Z" fill="#68AA0C"/>
<path d="M114.307 76.8734C114.82 76.9376 116.125 70.6971 116.713 67.5688V67.3281L116.392 67.5688L112.141 69.0928L109.173 69.8949L105.002 70.3762L92.5697 70.7773C88.6661 71.0446 80.089 71.6917 77.0089 72.1409C73.9289 72.5901 73.3193 73.9323 73.3995 74.5473C73.5064 74.9751 74.1855 76.1676 76.0464 77.5151C77.9073 78.8627 77.4634 80.7504 77.0089 81.5258C77.2014 83.1942 76.287 87.8358 75.8058 89.9481C75.2283 91.039 74.4957 95.0015 74.2016 96.8464C74.1374 98.6431 71.8755 103.477 70.7525 105.67C74.1534 105.413 78.9072 103.317 80.859 102.301C80.8323 95.5897 80.7948 81.9589 80.859 81.1247C80.474 78.8787 81.1798 78.0499 81.5809 77.9162C81.7734 79.2638 82.784 82.007 83.2653 83.2102C85.1101 85.0551 84.5487 72.3013 84.7091 71.9002C84.8695 71.4992 93.3718 71.3388 95.2968 71.0981C96.8368 70.9056 102.409 71.1783 105.002 71.3388C106.157 77.7558 105.483 88.4508 105.002 92.9962C106.125 92.4347 107.328 90.4294 109.013 88.7449C110.36 87.3973 112.248 87.2743 113.023 87.3813C111.227 84.0444 112.542 75.8841 113.424 72.2211C113.745 72.4778 114.146 75.4296 114.307 76.8734Z" fill="#8A4130"/>
<path d="M62.6545 86.1743C62.847 86.3668 65.8361 85.2385 67.3066 84.6503H66.4243L60.7294 85.0513L52.7084 85.3722H41.3186L34.3403 85.1315L23.6724 84.2492L18.4587 83.5273L10.7586 81.8428L5.14386 79.9177L3.78028 78.9552L3.53965 78.0728L3.78028 76.8696L4.50217 75.9071L5.14386 74.6237L4.82302 73.0194L2.25629 70.2922L-1.75421 68.6077L-7.60954 67.0035L-13.5451 64.918V65.4795C-11.62 67.3404 -7.55607 68.3404 -5.76471 68.6077C-5.70054 69.6986 -4.18725 75.6397 -3.43862 78.4739C-1.89858 83.5433 -1.03232 84.5968 -0.791687 84.4898C0.363335 85.1315 0.86599 81.2279 0.972931 79.1958C2.38463 82.0193 3.75355 96.8961 4.26155 103.982C7.21328 106.484 10.7853 107.324 12.2023 107.431C11.304 106.917 9.63562 103.099 8.91373 101.254C6.60368 97.3399 4.52891 85.292 3.78028 79.7573C5.19198 81.6824 8.11163 82.8589 9.39499 83.2064C10.935 84.2332 20.0362 84.9711 24.3943 85.2118C26.5118 86.816 25.8648 107.858 25.2766 118.179C30.2175 117.858 35.4098 120.238 37.3883 121.468C35.2066 110.431 36.2119 93.34 36.9872 86.1743L43.404 85.8535C43.6447 86.415 47.8958 100.212 49.5802 101.655C51.2646 103.099 51.7459 99.0083 52.2272 97.8854C52.6122 96.987 53.564 94.7303 53.9918 93.7143C54.0559 92.8159 55.6227 91.4683 56.3981 90.9069C57.2964 92.6395 59.8204 92.3239 60.97 91.9496C62.8149 90.8266 62.4138 85.9337 62.6545 86.1743Z" fill="#8A4130"/>
<path d="M99.4642 79.4371C99.785 81.3622 99.1166 83.4478 98.7423 84.2499C96.0472 82.2607 96.6569 78.9826 97.2986 77.5922C97.8868 77.4051 99.1434 77.512 99.4642 79.4371Z" fill="#8A4130"/>
<path d="M65.776 103.822C68.2786 102.731 67.5139 97.9127 66.8187 95.64C66.4712 95.132 65.7439 94.2764 65.6156 94.9181C65.4873 95.5598 64.3857 96.8967 63.851 97.4849C63.4499 100.052 63.2735 104.913 65.776 103.822Z" fill="#8A4130"/>
<path d="M60.3217 105.426C61.1559 103.822 61.7923 105.078 62.0061 105.907C62.2601 106.549 62.112 107.137 62.0061 107.351C61.0971 107.378 59.4875 107.03 60.3217 105.426Z" fill="#8A4130"/>
<path d="M-1.19936 88.9022C-0.557686 89.6081 0.351364 94.7042 0.725677 97.1641C0.78833 97.5668 0.644836 97.7062 0.565254 97.7256L0.324623 97.1641L-0.0764236 96.6026L-0.477478 96.2817L-1.27958 95.9609L-2.48273 95.8005L-3.60567 95.8807L-5.12965 95.8005L-4.40777 95.239C-3.60567 94.9983 -2.00146 88.0198 -1.19936 88.9022Z" fill="#8A4130"/>
<path d="M112.18 73.6128C106.803 71.5894 104.838 66.6924 104.527 64.4969C121.647 61.3156 119.778 73.4086 119.978 76.7135C118.168 76.4473 111.737 69.6427 110.783 68.8885C112.274 70.3792 112.335 72.6592 112.18 73.6128Z" fill="#68AA0C"/>
<path d="M106.389 51.5401C103.983 52.5141 101.183 56.0516 100.084 57.6987C100.078 59.2018 102.52 61.1088 103.742 61.8745C104.826 61.6933 107.464 60.1241 109.343 55.2965C107.019 55.3178 105.224 56.8292 104.617 57.5822C104.596 57.1396 104.921 55.3117 106.389 51.5401Z" fill="#6EBC30"/>
<path d="M105.634 52.1573C103.227 53.1313 100.427 56.6688 99.3277 58.3159C99.3218 59.819 101.764 61.726 102.986 62.4917C104.07 62.3105 106.708 60.7413 108.587 55.9136C106.263 55.935 104.468 57.4463 103.861 58.1994C103.84 57.7568 104.165 55.9289 105.634 52.1573Z" fill="#68AA0C"/>
<path d="M45.8554 44.9481C47.5907 46.8795 48.5541 51.287 48.8189 53.2494C48.1646 54.6026 45.1333 55.2444 43.6994 55.3961C42.8049 54.7576 41.1232 52.1899 41.5527 47.027C43.6323 48.0664 44.5819 50.2122 44.7968 51.1552C45.0099 50.7668 45.5199 48.9816 45.8554 44.9481Z" fill="#6EBC30"/>
<path d="M46.2578 45.8348C47.993 47.7662 48.9565 52.1738 49.2213 54.1361C48.5669 55.4893 45.5356 56.1311 44.1018 56.2828C43.2072 55.6443 41.5256 53.0766 41.9551 47.9137C44.0346 48.9531 44.9843 51.0989 45.1991 52.0419C45.4122 51.6535 45.9222 49.8683 46.2578 45.8348Z" fill="#68AA0C"/>
<path d="M-5.86623 54.1197C3.30459 48.2506 6.60588 58.5207 4.4962 62.7399C4.4962 65.1253 -2.01424 69.3417 -4.03169 64.2979C-5.64566 60.2629 -8.73904 59.0096 -10.084 58.8873C-7.51631 55.8052 -2.77835 56.1358 -0.730326 56.6864C-1.90412 54.6322 -4.64334 54.1193 -5.86623 54.1197Z" fill="#68AA0C"/>
<path fill-rule="evenodd" clip-rule="evenodd" d="M0.63556 52.5412C-1.04633 52.0744 -3.20859 52.4214 -5.86233 54.1197C-4.69816 54.1193 -2.15981 54.5841 -0.906014 56.401C0.213752 56.4134 1.21386 56.5744 1.90639 56.7606C0.7326 54.7064 -2.00663 54.1936 -3.22952 54.1939C-1.7989 53.2783 -0.511126 52.7555 0.63556 52.5412ZM0.477262 66.477C-0.286651 66.1464 -0.950068 65.4845 -1.39498 64.3722C-3.00894 60.3371 -6.10232 59.0838 -7.44727 58.9615C-6.02267 57.2515 -3.93002 56.592 -1.99935 56.4378C-4.3423 56.1232 -7.9547 56.3361 -10.0801 58.8873C-8.73513 59.0096 -5.64175 60.2629 -4.02779 64.2979C-3.11033 66.5917 -1.26371 66.9703 0.477262 66.477Z" fill="#6EBC30"/>
<path d="M83.8381 77.5144C78.4609 75.491 76.4959 70.594 76.1855 68.3985C84.8095 66.0564 87.3652 72.0806 87.5651 75.3855C85.7551 75.1193 83.395 73.5443 82.4412 72.7901C83.9318 74.2808 83.9936 76.5608 83.8381 77.5144Z" fill="#68AA0C"/>
<path opacity="0.2" d="M44.0177 75.5872C48.1711 71.4277 53.5644 71.6607 55.7418 72.2972C54.2887 81.324 47.5956 81.1664 44.4307 79.9593C45.442 78.3842 47.9052 76.8481 49.0104 76.277C46.9924 77.038 44.8411 76.1343 44.0177 75.5872Z" fill="#949494"/>
<path d="M44.2111 74.9533C47.7177 71.4415 52.271 71.6382 54.1094 72.1755C52.8826 79.7966 47.2318 79.6636 44.5598 78.6444C45.4136 77.3146 47.4932 76.0178 48.4263 75.5356C46.7226 76.1781 44.9062 75.4151 44.2111 74.9533Z" fill="#6EBC30"/>
<path d="M46.0007 74.4348C49.3818 70.8663 53.6314 70.9256 55.3335 71.4013C53.9614 78.9566 48.6844 78.9926 46.2173 78.0662C47.0547 76.729 49.0366 75.3879 49.9229 74.8846C48.3116 75.5689 46.6367 74.8699 46.0007 74.4348Z" fill="#68AA0C"/>
<path d="M36.2823 92.026C33.417 85.6335 35.4094 82.2449 36.7638 81.3496C43.871 78.815 45.2377 88.3862 38.143 93.1972C38.5258 92.8143 39.2047 90.6111 38.9185 84.8587C38.9193 86.9153 37.1943 90.4414 36.2823 92.026Z" fill="#68AA0C"/>
<ellipse cx="51.7349" cy="58.3139" rx="17.3579" ry="3.25924" fill="#366C00" fill-opacity="0.75"/>
<path d="M43.625 34.6875V31.875H34.25L36.0641 37.3163C36.6603 39.105 38.3347 40.3125 40.2209 40.3125C41.1584 40.3125 42.0294 40.7231 42.6988 41.3794C44.3872 43.0369 46.6963 44.0625 49.25 44.0625V40.3125C46.1431 40.3125 43.625 37.7944 43.625 34.6875Z" fill="#9A4D01"/>
<path d="M49.25 40.3125V44.0625C48.2656 44.0625 47.3188 43.9125 46.4375 43.6313V42.4125C46.4375 41.7656 45.9219 41.25 45.275 41.25C44.8438 41.25 44.4406 41.0062 44.2438 40.6125C43.85 39.825 43.1375 39.2531 42.2844 39.0375C40.7 38.6437 39.05 38.6437 37.4656 39.0375L37.25 39.0938C37.2313 39.0938 37.2219 39.1031 37.2031 39.1125C36.6875 38.625 36.2938 38.0156 36.0594 37.3125L34.25 31.875H43.625V34.6875C43.625 37.7906 46.1469 40.3125 49.25 40.3125Z" fill="#BF6101"/>
<path d="M64.25 31.875L62.1781 33.5559C61.6578 33.9778 61.3634 34.6172 61.3803 35.2866C61.4122 36.4997 60.4372 37.5 59.2241 37.5H55.8125V41.25H59.0544C61.0897 41.25 62.9497 40.1006 63.86 38.28C64.1178 37.7634 64.4581 37.2919 64.8669 36.8831L67.0625 34.6875L64.25 31.875Z" fill="#9A4D01"/>
<path d="M67.0625 34.6875L64.8687 36.8813C64.4562 37.2938 64.1187 37.7625 63.8562 38.2781C63.7156 38.5594 63.5469 38.8313 63.3594 39.075L61.4375 38.4375C60.8375 39.0375 60.0219 39.375 59.1781 39.375C58.9344 39.375 58.7469 39.5719 58.7469 39.8062C58.7469 39.8437 58.7469 39.8719 58.7562 39.9094L59.0937 41.25H55.8125V37.5H59.225C60.4156 37.5 61.3812 36.525 61.3812 35.3344V35.2875C61.3625 34.6219 61.6625 33.975 62.1781 33.5531L64.25 31.875L67.0625 34.6875Z" fill="#BF6101"/>
<path d="M57.6875 47.5153V28.125H48.3125V46.4822C48.3125 49.4888 46.3194 52.1316 43.4281 52.9575C42.3275 53.2716 41.3253 53.8613 40.5162 54.6713L38 57.1875H45.1569C47.1997 57.1875 49.1816 56.4928 50.7781 55.2178C51.4616 54.6722 52.31 54.375 53.1847 54.375C54.2403 54.375 55.2266 54.9028 55.8125 55.7813C56.3984 56.6597 57.3847 57.1875 58.4403 57.1875H64.25L61.1403 54.6994C60.1006 53.8678 59.2541 52.8206 58.6587 51.63C58.0203 50.3522 57.6875 48.9441 57.6875 47.5153Z" fill="#9A4D01"/>
<path d="M57.5487 53.16C57.0444 52.1522 56.1031 51.4331 54.9987 51.2119C53.2916 50.8706 52.0625 49.3716 52.0625 47.6306V36.5625C54.2281 36.5625 56.27 35.6184 57.6875 34.0059V28.125H48.3125V46.4822C48.3125 49.4888 46.3194 52.1316 43.4281 52.9575C42.3275 53.2716 41.3253 53.8613 40.5162 54.6713L38 57.1875H45.1569C47.1997 57.1875 49.1816 56.4928 50.7781 55.2178C51.4616 54.6722 52.31 54.375 53.1847 54.375C54.2403 54.375 55.2266 54.9028 55.8125 55.7813C56.3984 56.6597 57.3847 57.1875 58.4403 57.1875H64.25L60.9078 56.0738C59.4462 55.5863 58.2378 54.5381 57.5487 53.16Z" fill="#BF6101"/>
<path d="M50.1877 52.5C49.9477 52.5 49.7077 52.4081 49.5249 52.2253C49.1584 51.8588 49.1584 51.2663 49.5249 50.8997C51.0643 49.3603 51.728 47.1684 51.3015 45.0338C51.1805 44.4291 51.1252 43.8769 51.1252 43.3266V41.25C51.1252 40.7316 51.5443 40.3125 52.0627 40.3125C52.5812 40.3125 53.0002 40.7316 53.0002 41.25V43.3266C53.0002 43.7531 53.0424 44.1816 53.1268 44.5997C53.6902 47.4159 52.8343 50.2425 50.8505 52.2253C50.6677 52.4081 50.4277 52.5 50.1877 52.5Z" fill="#9A4D01"/>
<path d="M53.9375 38.4375C53.4191 38.4375 53 38.0184 53 37.5V33.75C53 33.2316 53.4191 32.8125 53.9375 32.8125C54.4559 32.8125 54.875 33.2316 54.875 33.75V37.5C54.875 38.0184 54.4559 38.4375 53.9375 38.4375Z" fill="#9A4D01"/>
<path d="M80.1875 27.1875C80.1875 24.4838 78.2797 22.2281 75.7372 21.6872C76.1816 20.8031 76.4375 19.8075 76.4375 18.75C76.4375 15.1256 73.4994 12.1875 69.875 12.1875C69.5131 12.1875 69.1616 12.2241 68.8156 12.2803C68.8906 11.9484 68.9375 11.6053 68.9375 11.25C68.9375 8.66156 66.8384 6.5625 64.25 6.5625C63.3659 6.5625 62.5484 6.82219 61.8425 7.24781C61.0653 5.73375 59.5063 4.6875 57.6875 4.6875C57.3847 4.6875 57.0894 4.72125 56.8025 4.77656C55.9513 3.59156 54.5703 2.8125 53 2.8125C51.1231 2.8125 49.5153 3.92344 48.7672 5.51719C47.9609 4.99406 47.0009 4.6875 45.9688 4.6875C43.9072 4.6875 42.1344 5.89969 41.3084 7.64813C38.3469 8.28188 36.125 10.9116 36.125 14.0625C36.125 15.1144 36.3791 16.1053 36.8188 16.9866C34.1441 17.4731 32.0384 19.5788 31.55 22.2525C29.8072 23.2088 28.625 25.0594 28.625 27.1875C28.625 27.3178 28.6353 27.4453 28.6447 27.5728C26.9797 28.2919 25.8125 29.9456 25.8125 31.875C25.8125 34.4634 27.9116 36.5625 30.5 36.5625C31.2988 36.5625 32.0403 36.3441 32.6984 35.9916C33.5544 36.9141 34.7675 37.5 36.125 37.5C37.5575 37.5 38.8241 36.8438 39.6838 35.8303C40.5847 36.2953 41.6038 36.5625 42.6875 36.5625C45.5478 36.5625 47.9731 34.7297 48.8722 32.1769C49.6588 33.6638 51.2019 34.6875 53 34.6875C55.1872 34.6875 57.0088 33.1828 57.5263 31.1569C58.4197 31.6125 59.4284 31.875 60.5 31.875C60.6378 31.875 60.7719 31.8628 60.9069 31.8544C60.6491 32.4347 60.5 33.0741 60.5 33.75C60.5 36.3384 62.5991 38.4375 65.1875 38.4375C66.7269 38.4375 68.0806 37.6856 68.9356 36.5391C69.7213 37.1344 70.6888 37.5 71.75 37.5C74.3384 37.5 76.4375 35.4009 76.4375 32.8125C76.4375 32.7047 76.4131 32.6034 76.4056 32.4975C78.6059 31.7334 80.1875 29.6475 80.1875 27.1875Z" fill="#A4C400"/>
<path d="M80.0812 28.23C79.2215 29.3016 77.9184 30.0009 76.4381 30.0009C76.2609 30.0009 76.0865 29.9906 75.9159 29.9709C74.489 29.8069 73.0612 29.9616 71.7477 30.5428C70.9696 30.8878 70.079 31.0256 69.1406 30.8812C67.3012 30.5991 65.7637 29.1788 65.324 27.3703C65.0587 26.2791 65.1984 25.2478 65.5949 24.3553C65.4599 24.3638 65.3259 24.3759 65.1881 24.3759C65.1749 24.3759 65.1627 24.3759 65.1496 24.3759C63.6112 24.3666 62.0512 24.7678 60.9552 25.8478C60.1152 26.6766 58.964 27.1884 57.6881 27.1884C57.149 27.1884 56.6324 27.0966 56.1524 26.9269C54.5793 26.3728 52.8262 26.5069 51.5399 27.5681C50.4074 28.5019 48.9581 29.0634 47.3756 29.0634C46.664 29.0634 45.9843 28.9388 45.344 28.7278C44.3362 29.1263 43.1718 29.2172 41.9362 28.7409C40.5318 28.1991 39.4368 26.9803 39.0777 25.5187C38.8706 24.6741 38.9015 23.8641 39.1106 23.1281C39.3299 22.3547 39.3431 21.5503 39.104 20.7834C38.9962 20.4375 38.9371 20.07 38.9371 19.6884C38.9371 18.2456 39.7612 17.0072 40.9565 16.38C40.8721 16.0894 40.8121 15.7875 40.8121 15.4697C40.8121 15.3403 40.8196 15.2138 40.8346 15.0881C40.9574 14.0719 40.8552 13.0388 40.3537 12.1472C40.049 11.6053 39.8746 10.98 39.8746 10.3134C39.8746 9.33281 40.2599 8.44875 40.8759 7.78125C38.1374 8.56969 36.1246 11.0709 36.1246 14.0634C36.1246 15.1153 36.3787 16.1062 36.8184 16.9875C34.1437 17.4741 32.0381 19.5797 31.5496 22.2534C29.8068 23.2097 28.6246 25.0603 28.6246 27.1884C28.6246 27.3188 28.6349 27.4462 28.6443 27.5737C26.8077 28.3669 25.5768 30.2981 25.8506 32.4806C26.0756 34.2788 27.3956 35.8088 29.1252 36.3488C30.4546 36.7641 31.6762 36.54 32.699 35.9925C33.554 36.915 34.7671 37.5009 36.1246 37.5009C37.5571 37.5009 38.8237 36.8447 39.6834 35.8313C40.5843 36.2963 41.6034 36.5634 42.6871 36.5634C45.5474 36.5634 47.9727 34.7306 48.8718 32.1778C49.6584 33.6647 51.2015 34.6884 52.9996 34.6884C55.1868 34.6884 57.0084 33.1838 57.5259 31.1578C58.4193 31.6134 59.4281 31.8759 60.4996 31.8759C60.6374 31.8759 60.7715 31.8638 60.9065 31.8553C60.5099 32.7478 60.3702 33.7791 60.6356 34.8703C61.0752 36.6788 62.6127 38.0991 64.4521 38.3812C66.2906 38.6634 67.9462 37.8647 68.9352 36.54C69.7209 37.1353 70.6884 37.5009 71.7496 37.5009C74.3381 37.5009 76.4371 35.4019 76.4371 32.8134C76.4371 32.7056 76.4127 32.6044 76.4052 32.4984C78.2859 31.845 79.7062 30.2231 80.0812 28.23Z" fill="#60A917"/>
<path d="M68.1875 27.1875C67.7834 27.1875 67.4047 27.2841 67.0625 27.4425C66.7203 27.2841 66.3416 27.1875 65.9375 27.1875C64.4881 27.1875 63.3125 28.3303 63.3125 29.7394C63.3125 31.1494 64.4881 33.75 65.9375 33.75C66.3416 33.75 66.7203 33.6534 67.0625 33.495C67.4047 33.6534 67.7834 33.75 68.1875 33.75C69.6369 33.75 70.8125 31.1494 70.8125 29.7394C70.8125 28.3303 69.6369 27.1875 68.1875 27.1875Z" fill="#40916C"/>
<path d="M61.4844 15.9375C61.1309 15.9375 60.7991 16.02 60.5 16.1559C60.2009 16.02 59.8691 15.9375 59.5156 15.9375C58.2472 15.9375 57.2188 16.9172 57.2188 18.1247C57.2188 19.3331 58.2472 21.5625 59.5156 21.5625C59.8691 21.5625 60.2009 21.48 60.5 21.3441C60.7991 21.48 61.1309 21.5625 61.4844 21.5625C62.7528 21.5625 63.7812 19.3331 63.7812 18.1247C63.7812 16.9172 62.7528 15.9375 61.4844 15.9375Z" fill="#40916C"/>
<path d="M53.0469 25.3125C52.6934 25.3125 52.3616 25.395 52.0625 25.5309C51.7634 25.395 51.4316 25.3125 51.0781 25.3125C49.8097 25.3125 48.7812 26.2922 48.7812 27.4997C48.7812 28.7081 49.8097 30.9375 51.0781 30.9375C51.4316 30.9375 51.7634 30.855 52.0625 30.7191C52.3616 30.855 52.6934 30.9375 53.0469 30.9375C54.3153 30.9375 55.3438 28.7081 55.3438 27.4997C55.3438 26.2922 54.3153 25.3125 53.0469 25.3125Z" fill="#40916C"/>
<path d="M44.75 15C44.3459 15 43.9672 15.0966 43.625 15.255C43.2828 15.0966 42.9041 15 42.5 15C41.0506 15 39.875 16.1428 39.875 17.5519C39.875 18.9619 41.0506 21.5625 42.5 21.5625C42.9041 21.5625 43.2828 21.4659 43.625 21.3075C43.9672 21.4659 44.3459 21.5625 44.75 21.5625C46.1994 21.5625 47.375 18.9619 47.375 17.5519C47.375 16.1428 46.1994 15 44.75 15Z" fill="#40916C"/>
<path d="M73.833 50.4506L72.9114 50.625L72.7371 49.7034C72.4483 48.1772 73.4505 46.7053 74.9768 46.4166L75.8983 46.2422L76.0727 47.1637C76.3614 48.69 75.3593 50.1619 73.833 50.4506Z" fill="#5F9B22"/>
<path d="M76.0723 47.1641L76.032 46.9531C75.7292 48.1934 74.1748 49.2706 72.8942 49.5134L72.7227 49.5462C72.7292 49.5997 72.7264 49.6513 72.7367 49.7047L72.9111 50.6253L73.8327 50.4509C75.358 50.1612 76.3611 48.6903 76.0723 47.1641Z" fill="#6FBE20"/>
<path d="M72.6875 52.5C72.1691 52.5 71.75 52.0809 71.75 51.5625C71.75 50.5284 70.9091 49.6875 69.875 49.6875C69.3566 49.6875 68.9375 49.2684 68.9375 48.75C68.9375 48.2316 69.3566 47.8125 69.875 47.8125C71.9431 47.8125 73.625 49.4944 73.625 51.5625C73.625 52.0809 73.2059 52.5 72.6875 52.5Z" fill="#6FBE20"/>
<path d="M73.8125 50.625C73.4084 50.625 73.0297 50.7216 72.6875 50.88C72.3453 50.7216 71.9666 50.625 71.5625 50.625C70.1131 50.625 68.9375 51.7678 68.9375 53.1769C68.9375 54.5869 70.1131 57.1875 71.5625 57.1875C71.9666 57.1875 72.3453 57.0909 72.6875 56.9325C73.0297 57.0909 73.4084 57.1875 73.8125 57.1875C75.2619 57.1875 76.4375 54.5869 76.4375 53.1769C76.4375 51.7678 75.2619 50.625 73.8125 50.625Z" fill="#FF7373"/>
<path d="M76.13 54.6998C75.6875 55.9392 74.8175 57.1861 73.8125 57.1861C73.4075 57.1861 73.0325 57.0914 72.6875 56.9311C72.3425 57.0914 71.9675 57.1861 71.5625 57.1861C70.115 57.1861 68.9375 54.5827 68.9375 53.1755C68.9375 52.1545 69.5525 51.2798 70.445 50.8711C70.4375 50.9077 70.4375 50.9517 70.4375 50.9883C70.4375 53.2045 72.2825 54.9989 74.5625 54.9989C75.1175 54.9989 75.65 54.8892 76.13 54.6998Z" fill="#EF5350"/>
<path d="M70.083 26.0756L69.1614 26.25L68.9871 25.3284C68.6983 23.8022 69.7005 22.3303 71.2268 22.0416L72.1483 21.8672L72.3227 22.7887C72.6114 24.315 71.6093 25.7869 70.083 26.0756Z" fill="#5F9B22"/>
<path d="M72.3223 22.7891L72.282 22.5781C71.9792 23.8184 70.4248 24.8956 69.1442 25.1384L68.9727 25.1713C68.9792 25.2247 68.9764 25.2762 68.9867 25.3297L69.1611 26.2503L70.0827 26.0759C71.608 25.7862 72.6111 24.3153 72.3223 22.7891Z" fill="#6FBE20"/>
<path d="M68.9375 28.125C68.4191 28.125 68 27.7059 68 27.1875C68 26.1534 67.1591 25.3125 66.125 25.3125C65.6066 25.3125 65.1875 24.8934 65.1875 24.375C65.1875 23.8566 65.6066 23.4375 66.125 23.4375C68.1931 23.4375 69.875 25.1194 69.875 27.1875C69.875 27.7059 69.4559 28.125 68.9375 28.125Z" fill="#6FBE20"/>
<path d="M70.0625 26.25C69.6584 26.25 69.2797 26.3466 68.9375 26.505C68.5953 26.3466 68.2166 26.25 67.8125 26.25C66.3631 26.25 65.1875 27.3928 65.1875 28.8019C65.1875 30.2119 66.3631 32.8125 67.8125 32.8125C68.2166 32.8125 68.5953 32.7159 68.9375 32.5575C69.2797 32.7159 69.6584 32.8125 70.0625 32.8125C71.5119 32.8125 72.6875 30.2119 72.6875 28.8019C72.6875 27.3928 71.5119 26.25 70.0625 26.25Z" fill="#FF7373"/>
<path d="M72.38 30.3248C71.9375 31.5642 71.0675 32.8111 70.0625 32.8111C69.6575 32.8111 69.2825 32.7164 68.9375 32.5561C68.5925 32.7164 68.2175 32.8111 67.8125 32.8111C66.365 32.8111 65.1875 30.2077 65.1875 28.8005C65.1875 27.7795 65.8025 26.9048 66.695 26.4961C66.6875 26.5327 66.6875 26.5767 66.6875 26.6133C66.6875 28.8295 68.5325 30.6239 70.8125 30.6239C71.3675 30.6239 71.9 30.5142 72.38 30.3248Z" fill="#EF5350"/>
<path d="M45.708 13.8881L44.7864 14.0625L44.6121 13.1409C44.3233 11.6147 45.3255 10.1428 46.8518 9.85406L47.7733 9.67969L47.9477 10.6012C48.2364 12.1275 47.2343 13.5994 45.708 13.8881Z" fill="#5F9B22"/>
<path d="M47.9473 10.6016L47.907 10.3906C47.6042 11.6309 46.0498 12.7081 44.7692 12.9509L44.5977 12.9838C44.6042 13.0372 44.6014 13.0887 44.6117 13.1422L44.7861 14.0628L45.7077 13.8884C47.233 13.5988 48.2361 12.1278 47.9473 10.6016Z" fill="#6FBE20"/>
<path d="M44.5625 15.9375C44.0441 15.9375 43.625 15.5184 43.625 15C43.625 13.9659 42.7841 13.125 41.75 13.125C41.2316 13.125 40.8125 12.7059 40.8125 12.1875C40.8125 11.6691 41.2316 11.25 41.75 11.25C43.8181 11.25 45.5 12.9319 45.5 15C45.5 15.5184 45.0809 15.9375 44.5625 15.9375Z" fill="#6FBE20"/>
<path d="M45.6875 14.0625C45.2834 14.0625 44.9047 14.1591 44.5625 14.3175C44.2203 14.1591 43.8416 14.0625 43.4375 14.0625C41.9881 14.0625 40.8125 15.2053 40.8125 16.6144C40.8125 18.0244 41.9881 20.625 43.4375 20.625C43.8416 20.625 44.2203 20.5284 44.5625 20.37C44.9047 20.5284 45.2834 20.625 45.6875 20.625C47.1369 20.625 48.3125 18.0244 48.3125 16.6144C48.3125 15.2053 47.1369 14.0625 45.6875 14.0625Z" fill="#FF7373"/>
<path d="M48.005 18.1373C47.5625 19.3767 46.6925 20.6236 45.6875 20.6236C45.2825 20.6236 44.9075 20.5289 44.5625 20.3686C44.2175 20.5289 43.8425 20.6236 43.4375 20.6236C41.99 20.6236 40.8125 18.0202 40.8125 16.613C40.8125 15.592 41.4275 14.7173 42.32 14.3086C42.3125 14.3452 42.3125 14.3892 42.3125 14.4258C42.3125 16.642 44.1575 18.4364 46.4375 18.4364C46.9925 18.4364 47.525 18.3267 48.005 18.1373Z" fill="#EF5350"/>
<path d="M32.583 51.3881L31.6614 51.5625L31.4871 50.6409C31.1983 49.1147 32.2005 47.6428 33.7268 47.3541L34.6483 47.1797L34.8227 48.1012C35.1114 49.6275 34.1093 51.0994 32.583 51.3881Z" fill="#5F9B22"/>
<path d="M34.8223 48.1016L34.782 47.8906C34.4792 49.1309 32.9248 50.2081 31.6442 50.4509L31.4727 50.4837C31.4792 50.5372 31.4764 50.5888 31.4867 50.6422L31.6611 51.5628L32.5827 51.3884C34.108 51.0987 35.1111 49.6278 34.8223 48.1016Z" fill="#6FBE20"/>
<path d="M31.4375 53.4375C30.9191 53.4375 30.5 53.0184 30.5 52.5C30.5 51.4659 29.6591 50.625 28.625 50.625C28.1066 50.625 27.6875 50.2059 27.6875 49.6875C27.6875 49.1691 28.1066 48.75 28.625 48.75C30.6931 48.75 32.375 50.4319 32.375 52.5C32.375 53.0184 31.9559 53.4375 31.4375 53.4375Z" fill="#6FBE20"/>
<path d="M32.4219 51.5625C32.0684 51.5625 31.7366 51.645 31.4375 51.7809C31.1384 51.645 30.8066 51.5625 30.4531 51.5625C29.1847 51.5625 28.1562 52.5422 28.1562 53.7497C28.1562 54.9581 29.1847 57.1875 30.4531 57.1875C30.8066 57.1875 31.1384 57.105 31.4375 56.9691C31.7366 57.105 32.0684 57.1875 32.4219 57.1875C33.6903 57.1875 34.7188 54.9581 34.7188 53.7497C34.7188 52.5422 33.6903 51.5625 32.4219 51.5625Z" fill="#FF7373"/>
<path d="M34.4497 55.0556C34.0625 56.1178 33.3012 57.1866 32.4219 57.1866C32.0675 57.1866 31.7394 57.105 31.4375 56.9681C31.1356 57.105 30.8075 57.1866 30.4531 57.1866C29.1866 57.1866 28.1562 54.9553 28.1562 53.7487C28.1562 52.8741 28.6944 52.1241 29.4753 51.7734C29.4687 51.8053 29.4687 51.8428 29.4687 51.8737C29.4687 53.7741 31.0831 55.3116 33.0781 55.3116C33.5637 55.3116 34.0297 55.2178 34.4497 55.0556Z" fill="#EF5350"/>
<path d="M37.2705 27.0131L36.3489 27.1875L36.1746 26.2659C35.8858 24.7397 36.888 23.2678 38.4143 22.9791L39.3358 22.8047L39.5102 23.7262C39.7989 25.2525 38.7968 26.7244 37.2705 27.0131Z" fill="#5F9B22"/>
<path d="M39.5098 23.7266L39.4695 23.5156C39.1667 24.7559 37.6123 25.8331 36.3317 26.0759L36.1602 26.1088C36.1667 26.1622 36.1639 26.2137 36.1742 26.2672L36.3486 27.1878L37.2702 27.0134C38.7955 26.7237 39.7986 25.2528 39.5098 23.7266Z" fill="#6FBE20"/>
<path d="M36.125 29.0625C35.6066 29.0625 35.1875 28.6434 35.1875 28.125C35.1875 27.0909 34.3466 26.25 33.3125 26.25C32.7941 26.25 32.375 25.8309 32.375 25.3125C32.375 24.7941 32.7941 24.375 33.3125 24.375C35.3806 24.375 37.0625 26.0569 37.0625 28.125C37.0625 28.6434 36.6434 29.0625 36.125 29.0625Z" fill="#6FBE20"/>
<path d="M37.1094 27.1875C36.7559 27.1875 36.4241 27.27 36.125 27.4059C35.8259 27.27 35.4941 27.1875 35.1406 27.1875C33.8722 27.1875 32.8438 28.1672 32.8438 29.3747C32.8438 30.5822 33.8722 32.8125 35.1406 32.8125C35.4941 32.8125 35.8259 32.73 36.125 32.5941C36.4241 32.73 36.7559 32.8125 37.1094 32.8125C38.3778 32.8125 39.4063 30.5831 39.4063 29.3747C39.4063 28.1663 38.3778 27.1875 37.1094 27.1875Z" fill="#FF7373"/>
<path d="M39.1372 30.6806C38.75 31.7428 37.9887 32.8116 37.1094 32.8116C36.755 32.8116 36.4269 32.73 36.125 32.5931C35.8231 32.73 35.495 32.8116 35.1406 32.8116C33.8741 32.8116 32.8438 30.5803 32.8438 29.3737C32.8438 28.4991 33.3819 27.7491 34.1628 27.3984C34.1562 27.4303 34.1562 27.4678 34.1562 27.4988C34.1562 29.3991 35.7706 30.9366 37.7656 30.9366C38.2512 30.9366 38.7172 30.8428 39.1372 30.6806Z" fill="#EF5350"/>
<path d="M54.1455 24.2006L53.2239 24.375L53.0496 23.4534C52.7608 21.9272 53.763 20.4553 55.2893 20.1666L56.2108 19.9922L56.3852 20.9137C56.6739 22.44 55.6718 23.9119 54.1455 24.2006Z" fill="#5F9B22"/>
<path d="M56.3848 20.9141L56.3445 20.7031C56.0417 21.9434 54.4873 23.0206 53.2067 23.2634L53.0352 23.2962C53.0417 23.3497 53.0389 23.4012 53.0492 23.4547L53.2236 24.3753L54.1452 24.2009C55.6705 23.9112 56.6736 22.4403 56.3848 20.9141Z" fill="#6FBE20"/>
<path d="M53 26.25C52.4816 26.25 52.0625 25.8309 52.0625 25.3125C52.0625 24.2784 51.2216 23.4375 50.1875 23.4375C49.6691 23.4375 49.25 23.0184 49.25 22.5C49.25 21.9816 49.6691 21.5625 50.1875 21.5625C52.2556 21.5625 53.9375 23.2444 53.9375 25.3125C53.9375 25.8309 53.5184 26.25 53 26.25Z" fill="#6FBE20"/>
<path d="M53.9844 24.375C53.6309 24.375 53.2991 24.4575 53 24.5934C52.7009 24.4575 52.3691 24.375 52.0156 24.375C50.7472 24.375 49.7188 25.3547 49.7188 26.5622C49.7188 27.7706 50.7472 30 52.0156 30C52.3691 30 52.7009 29.9175 53 29.7816C53.2991 29.9175 53.6309 30 53.9844 30C55.2528 30 56.2812 27.7706 56.2812 26.5622C56.2812 25.3547 55.2528 24.375 53.9844 24.375Z" fill="#FF7373"/>
<path d="M56.0122 27.8681C55.625 28.9303 54.8637 29.9991 53.9844 29.9991C53.63 29.9991 53.3019 29.9175 53 29.7806C52.6981 29.9175 52.37 29.9991 52.0156 29.9991C50.7491 29.9991 49.7188 27.7678 49.7188 26.5612C49.7188 25.6866 50.2569 24.9366 51.0378 24.5859C51.0312 24.6178 51.0312 24.6553 51.0312 24.6863C51.0312 26.5866 52.6456 28.1241 54.6406 28.1241C55.1262 28.1241 55.5922 28.0303 56.0122 27.8681Z" fill="#EF5350"/>
<path d="M62.583 14.8256L61.6614 15L61.4871 14.0784C61.1983 12.5522 62.2005 11.0803 63.7268 10.7916L64.6483 10.6172L64.8227 11.5387C65.1114 13.065 64.1093 14.5369 62.583 14.8256Z" fill="#5F9B22"/>
<path d="M64.8223 11.5391L64.782 11.3281C64.4792 12.5684 62.9248 13.6456 61.6442 13.8884L61.4727 13.9213C61.4792 13.9747 61.4764 14.0262 61.4867 14.0797L61.6611 15.0003L62.5827 14.8259C64.108 14.5363 65.1111 13.0653 64.8223 11.5391Z" fill="#6FBE20"/>
<path d="M61.4375 16.875C60.9191 16.875 60.5 16.4559 60.5 15.9375C60.5 14.9034 59.6591 14.0625 58.625 14.0625C58.1066 14.0625 57.6875 13.6434 57.6875 13.125C57.6875 12.6066 58.1066 12.1875 58.625 12.1875C60.6931 12.1875 62.375 13.8694 62.375 15.9375C62.375 16.4559 61.9559 16.875 61.4375 16.875Z" fill="#6FBE20"/>
<path d="M62.4219 15C62.0684 15 61.7366 15.0825 61.4375 15.2184C61.1384 15.0825 60.8066 15 60.4531 15C59.1847 15 58.1562 15.9797 58.1562 17.1872C58.1562 18.3956 59.1847 20.625 60.4531 20.625C60.8066 20.625 61.1384 20.5425 61.4375 20.4066C61.7366 20.5425 62.0684 20.625 62.4219 20.625C63.6903 20.625 64.7188 18.3956 64.7188 17.1872C64.7188 15.9797 63.6903 15 62.4219 15Z" fill="#FF7373"/>
<path d="M64.4497 18.4931C64.0625 19.5553 63.3012 20.6241 62.4219 20.6241C62.0675 20.6241 61.7394 20.5425 61.4375 20.4056C61.1356 20.5425 60.8075 20.6241 60.4531 20.6241C59.1866 20.6241 58.1562 18.3928 58.1562 17.1863C58.1562 16.3116 58.6944 15.5616 59.4753 15.2109C59.4688 15.2428 59.4688 15.2803 59.4688 15.3113C59.4688 17.2116 61.0831 18.7491 63.0781 18.7491C63.5637 18.7491 64.0297 18.6553 64.4497 18.4931Z" fill="#EF5350"/>
</svg>
