<svg width="198" height="64" viewBox="0 0 198 64" fill="none" xmlns="http://www.w3.org/2000/svg">
<g clip-path="url(#clip0_20565_114214)">
<g opacity="0.5">
<path d="M135.475 22.828C135.199 22.2453 134.637 21.8453 133.987 21.8453C133.752 21.8453 133.529 21.8978 133.327 21.9913C132.885 20.3501 131.527 19.154 129.918 19.154C129.329 19.154 128.774 19.3152 128.285 19.599C127.134 16.2781 123.989 13.8945 120.29 13.8945C117.732 13.8945 115.438 15.0346 113.886 16.8361C113.245 16.5959 112.551 16.4648 111.827 16.4648C109.716 16.4648 107.863 17.5797 106.804 19.26C106.511 19.156 106.196 19.0985 105.869 19.0985C104.284 19.0985 103 20.419 103 22.0477C103 22.3179 103.036 22.5794 103.102 22.8279H135.475V22.828Z" fill="#C6E4FD"/>
<path d="M170.627 9.27515C170.641 9.21087 170.649 9.14503 170.649 9.07751C170.649 8.45046 170.032 7.94226 169.27 7.94226C169.02 7.94226 168.786 7.99775 168.584 8.09334C168.236 7.31249 167.382 6.75942 166.381 6.75942C166.175 6.75942 165.977 6.78516 165.787 6.829C165.001 5.17185 163.074 4 160.819 4C158.384 4 156.33 5.36755 155.685 7.23721C155.533 7.20746 155.376 7.19052 155.214 7.19052C154.024 7.19052 153.059 8.03979 153.059 9.08734C153.059 9.15072 153.062 9.21345 153.069 9.27515H170.627Z" fill="#C6E4FD"/>
<path d="M199.999 18.8257C199.78 18.7656 199.55 18.7304 199.313 18.7304C199.009 18.7304 198.717 18.7837 198.445 18.88C197.464 17.3223 195.746 16.2889 193.79 16.2889C193.118 16.2889 192.475 16.4103 191.88 16.6331C190.441 14.963 188.316 13.9062 185.944 13.9062C182.514 13.9062 179.599 16.1158 178.533 19.1943C178.079 18.9313 177.564 18.7819 177.019 18.7819C175.527 18.7819 174.268 19.8905 173.859 21.4121C173.671 21.3254 173.464 21.2766 173.247 21.2766C172.644 21.2766 172.123 21.6475 171.867 22.1876H199.999V18.8257Z" fill="#C6E4FD"/>
</g>
<path d="M276.802 53C164.972 53 73.3977 58.7203 64 64.7114V65H490V64.7114C480.602 58.7202 388.631 53 276.802 53Z" fill="#A4C400"/>
<ellipse cx="159.5" cy="58.5" rx="8.5" ry="1.5" fill="#366C00" fill-opacity="0.75"/>
<ellipse cx="155.5" cy="58.5" rx="8.5" ry="1.5" fill="#366C00" fill-opacity="0.75"/>
<path d="M171.922 42.0604C171.922 39.8867 170.6 38.0218 168.716 37.2256C169.049 36.5825 169.238 35.8531 169.238 35.0792C169.238 32.4949 167.143 30.3998 164.558 30.3998C163.822 30.3998 163.126 30.5704 162.506 30.8734C161.955 28.9019 160.147 27.4551 158 27.4551C155.853 27.4551 154.045 28.9019 153.494 30.8735C152.874 30.5705 152.178 30.3999 151.442 30.3999C148.857 30.3999 146.762 32.4949 146.762 35.0793C146.762 35.8532 146.951 36.5826 147.284 37.2256C145.4 38.0218 144.078 39.8868 144.078 42.0605C144.078 44.8775 146.299 47.1729 149.085 47.2986C149.474 48.7055 150.974 49.7543 152.766 49.7543C153.782 49.7543 154.704 49.4169 155.383 48.869C156.062 49.4169 156.984 49.7543 158 49.7543C159.016 49.7543 159.938 49.4169 160.617 48.869C161.296 49.4169 162.218 49.7543 163.234 49.7543C165.026 49.7543 166.526 48.7055 166.915 47.2986C169.701 47.1728 171.922 44.8775 171.922 42.0604Z" fill="#60A917"/>
<path d="M157.719 27.4643C157.662 27.4678 157.604 27.472 157.547 27.4775C157.53 27.4792 157.513 27.4811 157.495 27.483C157.434 27.4896 157.373 27.4973 157.312 27.5063C157.301 27.508 157.29 27.5096 157.278 27.5113C157.206 27.5226 157.135 27.5351 157.064 27.5495C157.064 27.5495 157.064 27.5496 157.063 27.5496C158.292 27.7994 159.442 28.655 160.171 29.7334C160.687 30.4971 161.568 30.9373 162.488 30.8748C162.494 30.8743 162.5 30.874 162.506 30.8735C161.955 28.9019 160.147 27.4551 158 27.4551C157.925 27.4551 157.85 27.4573 157.776 27.4608C157.757 27.4617 157.738 27.4632 157.719 27.4643Z" fill="#A4C400"/>
<path d="M168.716 37.2261C169.049 36.5831 169.238 35.8537 169.238 35.0798C169.238 32.4955 167.143 30.4004 164.558 30.4004C164.238 30.4004 163.925 30.4328 163.622 30.4944C165.757 30.9284 167.365 32.8163 167.365 35.0798C167.365 35.8537 167.175 36.5831 166.843 37.2261C168.726 38.0223 170.048 39.8873 170.048 42.061C170.048 44.878 167.827 47.1734 165.041 47.299C164.723 48.4521 163.658 49.3643 162.297 49.656C162.596 49.7203 162.91 49.7548 163.234 49.7548C165.026 49.7548 166.526 48.706 166.915 47.2991C169.701 47.1735 171.922 44.8781 171.922 42.061C171.922 39.8873 170.6 38.0224 168.716 37.2261Z" fill="#A4C400"/>
<path d="M154.649 48.0936C154.227 48.8094 152.479 49.6098 151.83 49.6553C151.901 49.6706 151.974 49.6839 152.047 49.6958C152.052 49.6967 152.058 49.6978 152.064 49.6987C152.138 49.7105 152.213 49.7206 152.288 49.7286C152.29 49.7288 152.292 49.7289 152.294 49.7292C152.362 49.7364 152.43 49.7415 152.499 49.7456C152.516 49.7466 152.533 49.7476 152.55 49.7484C152.621 49.7518 152.694 49.7541 152.766 49.7541C153.693 49.7541 154.541 49.4728 155.198 49.0077L155.313 48.9239L154.726 47.9609L154.649 48.0936Z" fill="#009000"/>
<path d="M160.34 49.2886L162.345 46.1251C162.503 45.8748 162.455 45.5463 162.232 45.3519C161.993 45.1443 161.634 45.1578 161.412 45.3829L159.935 46.8776C159.74 47.0759 159.404 46.911 159.441 46.6349L159.876 43.4181C159.922 43.0744 159.668 42.7632 159.322 42.7398L158.915 42.7123C158.609 42.6917 158.337 42.9048 158.284 43.2065L157.509 47.6096C157.466 47.8544 157.155 47.9353 156.998 47.7423L154.571 44.7574C154.403 44.5508 154.119 44.4798 153.874 44.5829L153.449 44.7616C153.113 44.903 152.979 45.3097 153.167 45.6226L155.661 49.78C156.023 50.3821 156.171 51.0884 156.081 51.7846C155.758 54.2776 155.356 56.6288 153.713 58.5441H162.287C160.528 56.4938 160.094 53.944 159.862 51.2554C159.802 50.5651 159.969 49.8739 160.34 49.2886Z" fill="#BF6101"/>
<path d="M162.345 46.1263C162.503 45.876 162.455 45.5475 162.232 45.3531C161.993 45.1455 161.634 45.159 161.412 45.3841L160.752 46.0516L159.935 46.8788C159.739 47.0771 159.404 46.9122 159.441 46.6361L159.875 43.4193C159.921 43.0843 159.68 42.781 159.348 42.7441L158.127 50.3321C158.106 50.4301 158.09 50.5291 158.079 50.6287C158.056 50.8361 158.053 51.0464 158.071 51.2566C158.304 53.9452 158.738 56.495 160.497 58.5452H162.287C160.528 56.4949 160.094 53.9451 159.861 51.2566C159.802 50.5662 159.969 49.875 160.34 49.2897L162.345 46.1263Z" fill="#9A4D01"/>
<path d="M157.11 31.1289C155.797 31.1289 154.667 31.9081 154.154 33.0288C153.625 32.6548 152.98 32.4344 152.282 32.4344C150.488 32.4344 149.034 33.8888 149.034 35.683C149.034 36.275 149.193 36.8294 149.469 37.3074C147.912 37.5469 146.719 38.8931 146.719 40.518C146.719 42.3122 148.173 43.7666 149.967 43.7666C151.761 43.7666 160.358 36.1716 160.358 34.3775C160.358 32.5833 158.904 31.1289 157.11 31.1289Z" fill="#A4C400"/>
<ellipse cx="107" cy="59.5703" rx="2" ry="0.5" fill="#528200" fill-opacity="0.75"/>
<path d="M106.611 59.375C106.621 57.2823 108.438 54.423 111.738 53.5194C109.766 54.9639 108.602 57.6461 107.52 59.5301C107.17 59.4487 106.611 59.375 106.611 59.375Z" fill="#5E7C00"/>
<path d="M106.732 59.4657C106.281 57.7693 106.72 55.3946 108.595 53.4574C109.242 55.7853 108.349 58.846 107.645 59.5694C107.321 59.5434 106.732 59.4657 106.732 59.4657Z" fill="#93D349"/>
<path d="M107.477 59.5206C107.462 57.4269 105.637 54.4581 102.334 53.3555C104.31 54.9187 105.481 57.6714 106.569 59.6207C106.918 59.5605 107.477 59.5206 107.477 59.5206Z" fill="#93D349"/>
<path d="M107.629 59.5425C108.075 57.8729 107.629 55.4717 105.749 53.4215C105.109 55.7104 106.01 58.8253 106.716 59.591C107.04 59.5848 107.629 59.5425 107.629 59.5425Z" fill="#5E7C00"/>
<path d="M205.428 67.202C205.402 63.6115 202.272 58.5199 196.607 56.6289C199.997 59.3099 202.005 64.0307 203.87 67.3738C204.47 67.2705 205.428 67.202 205.428 67.202Z" fill="#ABE759"/>
</g>
<defs>
<clipPath id="clip0_20565_114214">
<rect width="198" height="64" rx="8" fill="white"/>
</clipPath>
</defs>
</svg>
