<svg width="198" height="64" viewBox="0 0 198 64" fill="none" xmlns="http://www.w3.org/2000/svg">
<g clip-path="url(#clip0_20565_133757)">
<g opacity="0.5">
<path d="M135.475 22.828C135.199 22.2453 134.637 21.8453 133.987 21.8453C133.752 21.8453 133.529 21.8978 133.327 21.9913C132.885 20.3501 131.527 19.154 129.918 19.154C129.329 19.154 128.774 19.3152 128.285 19.599C127.134 16.2781 123.989 13.8945 120.29 13.8945C117.732 13.8945 115.438 15.0346 113.886 16.8361C113.245 16.5959 112.551 16.4648 111.827 16.4648C109.716 16.4648 107.863 17.5797 106.804 19.26C106.511 19.156 106.196 19.0985 105.869 19.0985C104.284 19.0985 103 20.419 103 22.0477C103 22.3179 103.036 22.5794 103.102 22.8279H135.475V22.828Z" fill="#C6E4FD"/>
<path d="M170.627 9.27515C170.641 9.21087 170.649 9.14503 170.649 9.07751C170.649 8.45046 170.032 7.94226 169.27 7.94226C169.02 7.94226 168.786 7.99775 168.584 8.09334C168.236 7.31249 167.382 6.75942 166.381 6.75942C166.175 6.75942 165.977 6.78516 165.787 6.829C165.001 5.17185 163.074 4 160.819 4C158.384 4 156.33 5.36755 155.685 7.23721C155.533 7.20746 155.376 7.19052 155.214 7.19052C154.024 7.19052 153.059 8.03979 153.059 9.08734C153.059 9.15072 153.062 9.21345 153.069 9.27515H170.627Z" fill="#C6E4FD"/>
<path d="M199.999 18.8257C199.78 18.7656 199.55 18.7304 199.313 18.7304C199.009 18.7304 198.717 18.7837 198.445 18.88C197.464 17.3223 195.746 16.2889 193.79 16.2889C193.118 16.2889 192.475 16.4103 191.88 16.6331C190.441 14.963 188.316 13.9062 185.944 13.9062C182.514 13.9062 179.599 16.1158 178.533 19.1943C178.079 18.9313 177.564 18.7819 177.019 18.7819C175.527 18.7819 174.268 19.8905 173.859 21.4121C173.671 21.3254 173.464 21.2766 173.247 21.2766C172.644 21.2766 172.123 21.6475 171.867 22.1876H199.999V18.8257Z" fill="#C6E4FD"/>
</g>
<path d="M276.802 53C164.972 53 73.3977 58.7203 64 64.7114V65H490V64.7114C480.602 58.7202 388.631 53 276.802 53Z" fill="#A4C400"/>
<ellipse cx="159.5" cy="58.5" rx="8.5" ry="1.5" fill="#366C00" fill-opacity="0.75"/>
<ellipse cx="155.5" cy="58.5" rx="8.5" ry="1.5" fill="#366C00" fill-opacity="0.75"/>
<path d="M163.994 32.4111C162.92 35.5262 160.026 36.0623 160.026 36.0623C160.026 36.0623 158.108 33.7664 159.154 30.7322C160.256 27.536 163.15 27 163.15 27C163.15 27 165.082 29.2555 163.994 32.4111Z" fill="#A4C400"/>
<path d="M163.15 27C163.15 27 162.385 27.1418 161.492 27.7137C161.983 28.6187 162.591 30.3164 161.869 32.411C161.35 33.918 160.404 34.8213 159.567 35.3525C159.812 35.8061 160.026 36.0622 160.026 36.0622C160.026 36.0622 162.92 35.5262 163.994 32.411C165.082 29.2555 163.15 27 163.15 27Z" fill="#A4C400"/>
<path d="M157.874 43.4367C157.827 43.4367 157.778 43.4295 157.73 43.4145C157.476 43.3348 157.334 43.0639 157.414 42.8094C157.532 42.4314 160.327 33.5149 161.689 30.1757C161.789 29.9288 162.071 29.8102 162.318 29.9109C162.565 30.0116 162.684 30.2934 162.583 30.5404C161.236 33.842 158.364 43.0058 158.335 43.098C158.271 43.3044 158.08 43.4367 157.874 43.4367Z" fill="#535353"/>
<path d="M157.874 57.7231C157.608 57.7231 157.391 57.5069 157.391 57.2402V42.7251C157.391 42.4584 157.608 42.2422 157.874 42.2422C158.141 42.2422 158.357 42.4584 158.357 42.7251V57.2402C158.357 57.5069 158.141 57.7231 157.874 57.7231Z" fill="#535353"/>
<path d="M161.109 47.0556C159.344 47.3063 158.045 46.9459 158.045 46.9459C158.045 46.9459 156.922 42.4386 160.432 38.9171C164.13 35.2079 168.53 36.4287 168.53 36.4287C168.53 36.4287 169.495 40.1077 166.937 43.5266" fill="#60A917"/>
<path d="M153.838 44.6915C156.969 47.1595 156.435 50.6971 156.435 50.6971C156.435 50.6971 153.054 51.9911 150.004 49.5871C146.791 47.0549 147.325 43.5174 147.325 43.5174C147.325 43.5174 150.666 42.1913 153.838 44.6915Z" fill="#A4C400"/>
<path d="M150.247 39.6026C153.4 43.6197 157.912 42.9289 157.912 42.9289C157.912 42.9289 159.559 38.5863 156.488 34.6734C153.253 30.552 148.74 31.2428 148.74 31.2428C148.74 31.2428 147.053 35.5333 150.247 39.6026Z" fill="#60A917"/>
<path d="M157.874 56.5668C157.608 56.5668 157.392 56.3506 157.392 56.0839C157.392 53.2784 156.355 50.8831 154.31 48.9646C152.779 47.5279 151.246 46.9213 151.231 46.9154C150.982 46.8186 150.859 46.5387 150.956 46.2902C151.053 46.0418 151.333 45.9186 151.581 46.0155C151.651 46.0426 153.305 46.6971 154.971 48.2603C156.516 49.7098 158.357 52.2439 158.357 56.084C158.357 56.3506 158.141 56.5668 157.874 56.5668Z" fill="#535353"/>
<path d="M166.122 48.8772C163.416 50.7477 160.769 49.4588 160.769 49.4588C160.769 49.4588 160.581 46.4694 163.216 44.6475C165.992 42.7284 168.639 44.0173 168.639 44.0173C168.639 44.0173 168.862 46.9824 166.122 48.8772Z" fill="#A4C400"/>
<path d="M168.639 44.0171C168.639 44.0171 167.259 43.3455 165.447 43.6941C166.108 43.8193 166.514 44.0171 166.514 44.0171C166.514 44.0171 166.738 46.9821 163.997 48.8769C163.263 49.3841 162.534 49.6586 161.861 49.79C162.882 49.9839 164.491 50.0041 166.122 48.8769C168.862 46.9822 168.639 44.0171 168.639 44.0171Z" fill="#A4C400"/>
<path d="M157.874 56.5667C157.618 56.5667 157.404 56.3652 157.392 56.1065C157.389 56.0359 157.321 54.3541 158.168 52.2749C158.947 50.3621 160.681 47.7368 164.521 46.0919C164.766 45.9869 165.05 46.1004 165.155 46.3456C165.26 46.5907 165.146 46.8746 164.901 46.9796C162.061 48.1966 160.096 50.1008 159.062 52.6393C158.295 54.5235 158.356 56.0461 158.357 56.0612C158.369 56.3276 158.163 56.5537 157.897 56.5662C157.889 56.5666 157.882 56.5667 157.874 56.5667Z" fill="#535353"/>
<path d="M157.711 43.2108C157.535 43.2108 157.365 43.1142 157.28 42.9466C155.433 39.3156 152.312 36.1495 152.281 36.1179C152.093 35.9286 152.094 35.6228 152.284 35.435C152.473 35.2471 152.779 35.2484 152.967 35.4377C153.099 35.5709 156.226 38.7441 158.141 42.5088C158.262 42.7465 158.167 43.0372 157.929 43.1582C157.859 43.1938 157.784 43.2108 157.711 43.2108Z" fill="#535353"/>
<path d="M158.026 47.4068C157.933 47.4068 157.839 47.38 157.756 47.324C157.535 47.1748 157.477 46.8746 157.626 46.6536C157.759 46.4566 160.929 41.8033 164.785 39.5598C165.015 39.4256 165.311 39.5037 165.445 39.7343C165.579 39.9648 165.501 40.2604 165.27 40.3945C161.603 42.528 158.458 47.1476 158.427 47.194C158.334 47.3323 158.181 47.4068 158.026 47.4068Z" fill="#535353"/>
<ellipse cx="107" cy="59.5703" rx="2" ry="0.5" fill="#528200" fill-opacity="0.75"/>
<path d="M106.611 59.375C106.621 57.2823 108.438 54.423 111.738 53.5194C109.766 54.9639 108.602 57.6461 107.52 59.5301C107.17 59.4487 106.611 59.375 106.611 59.375Z" fill="#5E7C00"/>
<path d="M106.732 59.4657C106.281 57.7693 106.72 55.3946 108.595 53.4574C109.242 55.7853 108.349 58.846 107.645 59.5694C107.321 59.5434 106.732 59.4657 106.732 59.4657Z" fill="#93D349"/>
<path d="M107.477 59.5206C107.462 57.4269 105.637 54.4581 102.334 53.3555C104.31 54.9187 105.481 57.6714 106.569 59.6207C106.918 59.5605 107.477 59.5206 107.477 59.5206Z" fill="#93D349"/>
<path d="M107.629 59.5425C108.075 57.8729 107.629 55.4717 105.749 53.4215C105.109 55.7104 106.01 58.8253 106.716 59.591C107.04 59.5848 107.629 59.5425 107.629 59.5425Z" fill="#5E7C00"/>
<path d="M205.428 67.202C205.402 63.6115 202.272 58.5199 196.607 56.6289C199.997 59.3099 202.005 64.0307 203.87 67.3738C204.47 67.2705 205.428 67.202 205.428 67.202Z" fill="#ABE759"/>
</g>
<defs>
<clipPath id="clip0_20565_133757">
<rect width="198" height="64" rx="8" fill="white"/>
</clipPath>
</defs>
</svg>
