<svg width="28" height="30" viewBox="0 0 28 30" fill="none" xmlns="http://www.w3.org/2000/svg">
<path d="M10.1428 5.26335C10.9401 2.93002 14.1641 2.85935 15.1095 5.05135L15.1895 5.26468L16.2655 8.41135C16.5121 9.13299 16.9105 9.79336 17.434 10.3479C17.9575 10.9025 18.5939 11.3383 19.3001 11.626L19.5895 11.734L22.7361 12.8087C25.0695 13.606 25.1401 16.83 22.9495 17.7753L22.7361 17.8554L19.5895 18.9314C18.8676 19.1778 18.207 19.5762 17.6522 20.0997C17.0974 20.6232 16.6613 21.2596 16.3735 21.966L16.2655 22.254L15.1908 25.402C14.3935 27.7353 11.1695 27.806 10.2255 25.6153L10.1428 25.402L9.06814 22.2553C8.82171 21.5335 8.4233 20.8728 7.89979 20.318C7.37629 19.7633 6.73986 19.3272 6.03347 19.0393L5.74547 18.9314L2.59881 17.8567C0.264139 17.0593 0.193473 13.8353 2.38547 12.8913L2.59881 12.8087L5.74547 11.734C6.46712 11.4874 7.12749 11.0889 7.68204 10.5654C8.23659 10.0419 8.67242 9.4056 8.96014 8.69935L9.06814 8.41135L10.1428 5.26335ZM23.3335 0.666016C23.5829 0.666015 23.8274 0.735987 24.039 0.867978C24.2507 0.999969 24.4211 1.18869 24.5308 1.41268L24.5948 1.56868L25.0615 2.93668L26.4308 3.40335C26.6808 3.48828 26.8999 3.6455 27.0604 3.8551C27.221 4.0647 27.3157 4.31724 27.3325 4.58071C27.3494 4.84418 27.2876 5.10672 27.1551 5.33507C27.0226 5.56341 26.8253 5.74727 26.5881 5.86335L26.4308 5.92735L25.0628 6.39402L24.5961 7.76335C24.5111 8.01325 24.3537 8.23228 24.144 8.39267C23.9344 8.55306 23.6818 8.6476 23.4183 8.66431C23.1549 8.68102 22.8924 8.61914 22.6641 8.48652C22.4359 8.3539 22.2521 8.15651 22.1361 7.91935L22.0721 7.76335L21.6055 6.39535L20.2361 5.92868C19.9862 5.84376 19.767 5.68653 19.6065 5.47693C19.446 5.26733 19.3513 5.01479 19.3344 4.75132C19.3176 4.48785 19.3793 4.22531 19.5118 3.99697C19.6444 3.76862 19.8417 3.58476 20.0788 3.46868L20.2361 3.40468L21.6041 2.93802L22.0708 1.56868C22.1607 1.30525 22.3308 1.07656 22.5573 0.914681C22.7837 0.752801 23.0551 0.665849 23.3335 0.666016Z" fill="#FF8A00"/>
</svg>
