<svg width="24" height="24" viewBox="0 0 24 24" fill="none" xmlns="http://www.w3.org/2000/svg">
<path fill-rule="evenodd" clip-rule="evenodd" d="M9.92753 3.08069C9.85486 3.12614 9.4651 3.4965 9.06137 3.90379C8.44052 4.53014 8.32254 4.67034 8.29598 4.81317C8.26084 5.00219 8.32888 5.285 8.42947 5.36821C8.52306 5.44571 11.9926 5.44571 12.0862 5.36821C12.1868 5.285 12.2548 5.00219 12.2197 4.81317C12.1931 4.6699 12.0738 4.529 11.4323 3.88346C11.0165 3.46498 10.6227 3.09452 10.5573 3.06019C10.3897 2.9722 10.0852 2.98208 9.92753 3.08069ZM8.67469 6.79904C8.51852 6.83394 8.22301 6.94345 8.01799 7.04237C7.71887 7.18674 7.56979 7.29713 7.26255 7.60176C6.76727 8.09287 6.48774 8.59254 6.39913 9.14486L6.37094 9.32049H10.2522C14.0322 9.32049 14.1335 9.31834 14.1335 9.23729C14.1335 9.07689 13.948 8.54938 13.7922 8.2667C13.5861 7.89265 12.9685 7.2782 12.614 7.09445C11.9807 6.76619 11.9281 6.75807 10.3679 6.74622C9.26753 6.73787 8.8964 6.74946 8.67469 6.79904ZM19.9148 9.14161C18.9751 10.0352 17.5734 10.4559 15.0804 10.5926C14.6443 10.6165 12.3093 10.6364 9.89142 10.6369L5.49523 10.6377L5.31113 10.5135C4.80453 10.1716 3.76929 9.57432 3.55917 9.50267C3.0058 9.31404 2.47924 9.34943 1.94031 9.61151C1.31778 9.91417 0.898644 10.4742 0.780481 11.1611C0.731992 11.4429 0.737189 11.5584 0.826416 12.1888C0.881688 12.5794 0.965366 13.064 1.01231 13.2657C1.27097 14.3761 2.12598 15.2856 3.27731 15.6751L3.62964 15.7942L5.56745 15.8202L7.50527 15.8462L7.87438 15.9871C8.96924 16.4051 10.7614 16.5246 12.2698 16.2802C15.1094 15.82 18.0175 14.2065 20.9837 11.4455C21.7088 10.7706 23.25 9.08128 23.25 8.96141C23.25 8.94157 22.5508 8.92532 21.6962 8.92532H20.1423L19.9148 9.14161ZM3.05028 10.729C3.32382 10.8047 4.31056 11.4239 4.33091 11.5326C4.56477 12.7802 4.8151 13.432 5.34051 14.1613L5.58564 14.5016H4.78079C3.9171 14.5016 3.70883 14.4668 3.28101 14.2508C2.95519 14.0863 2.61669 13.7234 2.44119 13.3504C2.3169 13.0863 2.27022 12.896 2.17276 12.2556C2.03984 11.3826 2.04891 11.2373 2.25053 11.0083C2.42414 10.8113 2.54592 10.7468 2.85892 10.6864C2.87103 10.6841 2.95713 10.7032 3.05028 10.729ZM8.10467 17.6401C8.07886 17.7422 7.96651 18.0075 7.85504 18.2295C7.52121 18.8943 6.92595 19.4234 6.22151 19.6814C5.90683 19.7966 5.84667 19.8396 5.72732 20.0348C5.55199 20.3215 5.64523 20.7058 5.93731 20.9003L6.08696 21H10.2578H14.4287L14.5784 20.9003C14.7559 20.7821 14.882 20.5524 14.8821 20.3474C14.8822 20.1465 14.7234 19.8797 14.5568 19.8008C13.5736 19.3353 13.5585 19.3262 13.2381 19.0108C12.8944 18.6724 12.6632 18.3205 12.4972 17.8836L12.3938 17.6114L12.1296 17.6388C10.6683 17.7907 9.44008 17.7431 8.31496 17.4911L8.15153 17.4545L8.10467 17.6401Z" fill="#0A8FFC"/>
</svg>
