<svg width="40" height="41" viewBox="0 0 40 41" fill="none" xmlns="http://www.w3.org/2000/svg">
<ellipse cx="20.2807" cy="38.644" rx="9.31191" ry="2.19478" fill="#366C00" fill-opacity="0.75"/>
<path d="M27.4923 6.76386C26.1499 10.6578 22.5325 11.3279 22.5325 11.3279C22.5325 11.3279 20.1355 8.45795 21.443 4.66519C22.8203 0.67002 26.4378 0 26.4378 0C26.4378 0 28.8523 2.81932 27.4923 6.76386Z" fill="#A4C400"/>
<path d="M26.4375 0C26.4375 0 25.4815 0.177223 24.3653 0.892072C24.9786 2.02334 25.7389 4.14551 24.8362 6.76378C24.1868 8.64748 23.0051 9.77666 21.958 10.4406C22.2652 11.0076 22.5323 11.3277 22.5323 11.3277C22.5323 11.3277 26.1498 10.6577 27.4922 6.7637C28.852 2.81932 26.4375 0 26.4375 0Z" fill="#A4C400"/>
<path d="M19.8431 20.5459C19.7834 20.5459 19.7227 20.5369 19.6627 20.5181C19.3446 20.4185 19.1674 20.0799 19.267 19.7617C19.4148 19.2893 22.9087 8.14362 24.6108 3.96961C24.7366 3.66096 25.0888 3.51271 25.3976 3.63859C25.7063 3.76446 25.8545 4.11673 25.7285 4.42547C24.0456 8.55255 20.4551 20.0072 20.4189 20.1224C20.3382 20.3806 20.1 20.5459 19.8431 20.5459Z" fill="#535353"/>
<path d="M19.8429 38.4058C19.5094 38.4058 19.2393 38.1356 19.2393 37.8022V19.6583C19.2393 19.3249 19.5094 19.0547 19.8429 19.0547C20.1763 19.0547 20.4465 19.3249 20.4465 19.6583V37.8022C20.4465 38.1356 20.1762 38.4058 19.8429 38.4058Z" fill="#535353"/>
<path d="M23.8854 25.0709C21.6801 25.3843 20.0566 24.9339 20.0566 24.9339C20.0566 24.9339 18.6525 19.2997 23.0403 14.8979C27.6622 10.2614 33.1617 11.7873 33.1617 11.7873C33.1617 11.7873 34.3681 16.3861 31.1713 20.6597" fill="#60A917"/>
<path d="M33.1618 11.7871C33.1618 11.7871 31.6872 11.3782 29.6236 11.6274C30.1809 11.6972 30.5059 11.7871 30.5059 11.7871C30.5059 11.7871 31.7122 16.3859 28.5155 20.6595L21.2296 25.0707C21.1489 25.0822 21.0693 25.0923 20.9902 25.1018C21.6777 25.1866 22.6968 25.2397 23.8855 25.0707L31.1714 20.6595C34.3683 16.3858 33.1618 11.7871 33.1618 11.7871Z" fill="#60A917"/>
<path d="M14.7976 22.1138C18.712 25.1989 18.044 29.6209 18.044 29.6209C18.044 29.6209 13.8176 31.2384 10.0049 28.2334C5.98892 25.0682 6.65685 20.6462 6.65685 20.6462C6.65685 20.6462 10.8325 18.9887 14.7976 22.1138Z" fill="#A4C400"/>
<path d="M10.309 15.7542C14.2501 20.7756 19.8908 19.9121 19.8908 19.9121C19.8908 19.9121 21.9486 14.4838 18.1099 9.59279C14.0665 4.44099 8.42581 5.30442 8.42581 5.30442C8.42581 5.30442 6.31676 10.6676 10.309 15.7542Z" fill="#60A917"/>
<path d="M19.8433 36.9609C19.5098 36.9609 19.2397 36.6907 19.2397 36.3573C19.2397 32.8504 17.9436 29.8563 15.3877 27.4582C13.4737 25.6623 11.5581 24.9041 11.5391 24.8967C11.2284 24.7757 11.0746 24.4258 11.1956 24.1152C11.3165 23.8046 11.6665 23.6508 11.9771 23.7718C12.0641 23.8057 14.1313 24.6239 16.2137 26.5778C18.1449 28.3897 20.447 31.5573 20.447 36.3574C20.4469 36.6907 20.1766 36.9609 19.8433 36.9609Z" fill="#535353"/>
<path d="M30.152 27.3464C26.7702 29.6846 23.4607 28.0735 23.4607 28.0735C23.4607 28.0735 23.2256 24.3368 26.5196 22.0594C29.9893 19.6605 33.2988 21.2716 33.2988 21.2716C33.2988 21.2716 33.5778 24.978 30.152 27.3464Z" fill="#A4C400"/>
<path d="M33.299 21.2713C33.299 21.2713 31.5739 20.4319 29.309 20.8676C30.1352 21.0242 30.6431 21.2713 30.6431 21.2713C30.6431 21.2713 30.922 24.9776 27.4963 27.3462C26.5793 27.9801 25.6679 28.3233 24.8262 28.4875C26.1032 28.7299 28.1144 28.7551 30.1522 27.3462C33.578 24.9777 33.299 21.2713 33.299 21.2713Z" fill="#A4C400"/>
<path d="M19.842 36.9589C19.5217 36.9589 19.2546 36.7069 19.2395 36.3836C19.2354 36.2954 19.1504 34.1931 20.2091 31.5941C21.183 29.2031 23.3514 25.9215 28.1508 23.8653C28.4573 23.7341 28.8121 23.876 28.9433 24.1824C29.0747 24.4889 28.9326 24.8437 28.6262 24.975C25.0755 26.4962 22.6197 28.8765 21.3272 32.0496C20.3678 34.4049 20.4447 36.3081 20.4456 36.327C20.4612 36.66 20.2039 36.9426 19.8709 36.9582C19.8612 36.9587 19.8515 36.9589 19.842 36.9589Z" fill="#535353"/>
<path d="M19.638 20.2659C19.4181 20.2659 19.206 20.1452 19.0995 19.9357C16.7911 15.3969 12.8901 11.4393 12.8509 11.3998C12.6161 11.1632 12.6176 10.781 12.8542 10.5462C13.0909 10.3114 13.473 10.313 13.7078 10.5496C13.8731 10.7161 17.7821 14.6826 20.1755 19.3885C20.3266 19.6856 20.2082 20.049 19.9111 20.2001C19.8235 20.2447 19.73 20.2659 19.638 20.2659Z" fill="#535353"/>
<path d="M20.0328 25.5081C19.9166 25.5081 19.7992 25.4745 19.6956 25.4046C19.4193 25.218 19.3466 24.8428 19.5331 24.5665C19.6994 24.3202 23.6609 18.5036 28.4809 15.6992C28.769 15.5315 29.1385 15.6292 29.3062 15.9173C29.4738 16.2055 29.3761 16.575 29.088 16.7426C24.5044 19.4096 20.5728 25.184 20.5336 25.242C20.417 25.4149 20.2266 25.5081 20.0328 25.5081Z" fill="#535353"/>
</svg>
