<svg width="40" height="40" viewBox="0 0 40 40" fill="none" xmlns="http://www.w3.org/2000/svg">
<ellipse cx="19.9994" cy="35.3784" rx="9.31191" ry="2.19478" fill="#366C00" fill-opacity="0.75"/>
<g clip-path="url(#clip0_25329_103613)">
<path d="M31.7121 6.30125C31.7513 5.92742 31.6144 5.58398 31.3741 5.34375L18.8281 17.8898C25.5215 17.8898 31.0293 12.8138 31.7121 6.30125Z" fill="#64AD36"/>
<path d="M31.312 5.90204C31.4545 5.63157 31.466 5.4365 31.3741 5.34462C31.1339 5.10439 30.7905 4.96743 30.4166 5.00665C23.9041 5.68946 18.8281 11.1973 18.8281 17.8906C23.4543 15.8234 28.8287 10.6141 31.312 5.90204Z" fill="#75C231"/>
<path d="M8.97208 5.00523C8.89651 4.99814 8.82267 4.99895 8.75 5.00353L18.7647 16.9775C18.7668 16.9779 18.7668 33.75 18.7668 33.75H21.25V17.1785C21.25 10.8543 15.872 5.65037 8.97208 5.00523Z" fill="#64AD36"/>
<path d="M9.40446 5.0057C9.39407 5.00438 9.384 5.00484 9.37368 5.00391C9.08275 5.02445 8.82025 5.1493 8.62587 5.34367C8.38564 5.58391 8.24868 5.92734 8.2879 6.30117C8.889 12.0343 13.2295 16.6533 18.8261 17.677C18.7396 11.0801 14.6442 5.68125 9.40446 5.0057Z" fill="#75C231"/>
</g>
<defs>
<clipPath id="clip0_25329_103613">
<rect width="40" height="40" fill="white"/>
</clipPath>
</defs>
</svg>
