<svg width="43" height="11" viewBox="0 0 43 11" fill="none" xmlns="http://www.w3.org/2000/svg">
<path d="M17.6535 10.7151C18.487 9.76901 20.123 7.33552 19.9999 5.17028C19.8566 2.65037 18.563 6.43143 18.3424 7.31875C18.6135 5.96875 18.8001 3.57687 17.5553 3.76749C16.2643 3.96518 16.4789 6.38194 16.7476 7.56561C16.5508 6.91858 16.0393 5.70191 15.7315 5.58561C14.5532 5.14046 14.4946 9.60084 17.6535 10.7151Z" fill="#6EBC30"/>
<path d="M29.0203 0C29.3396 0 29.6024 0.393366 29.6429 0.903695C29.8137 0.779168 29.993 0.692464 30.1612 0.647076C30.4081 0.580739 30.6291 0.606343 30.7569 0.738435C30.9902 0.98167 30.8158 1.49316 30.3663 1.88129C30.2988 1.94006 30.2275 1.99244 30.1563 2.03841C30.6942 2.18155 31.0615 2.52022 30.9915 2.82281C30.9153 3.14402 30.3737 3.30288 29.7805 3.17777L29.6749 3.15217L29.6 3.13006C29.5815 3.31394 29.5336 3.48094 29.4661 3.61885C29.3506 3.85161 29.1763 4 28.9797 4C28.6604 4 28.3976 3.60663 28.3571 3.0963C28.2576 3.16846 28.1544 3.23014 28.0537 3.27611C27.7246 3.42566 27.4065 3.4309 27.2431 3.26157C27.0098 3.01833 27.1842 2.50684 27.6337 2.11871C27.7012 2.05994 27.7713 2.00698 27.8425 1.96101C27.3046 1.81786 26.9386 1.47978 27.0086 1.17719C27.0847 0.855979 27.6263 0.69712 28.2195 0.822229C28.2822 0.835612 28.3423 0.85307 28.4001 0.871108C28.4492 0.377073 28.7083 0 29.0203 0Z" fill="#FF8C8C"/>
<path d="M1.97972 2C1.66041 2 1.39758 2.39337 1.35705 2.9037C1.18634 2.77917 1.00703 2.69246 0.838776 2.64708C0.591918 2.58074 0.370852 2.60634 0.243124 2.73843C0.00977649 2.98167 0.184173 3.49316 0.633675 3.88129C0.701223 3.94006 0.772456 3.99244 0.843688 4.03841C0.30576 4.18155 -0.061456 4.52022 0.00854834 4.82281C0.0846934 5.14402 0.626306 5.30288 1.2195 5.17777L1.32512 5.15217L1.40004 5.13006C1.41846 5.31394 1.46636 5.48094 1.53391 5.61885C1.64935 5.85161 1.82375 6 2.02025 6C2.33957 6 2.60239 5.60663 2.64292 5.0963C2.7424 5.16846 2.84557 5.23014 2.94628 5.27611C3.27542 5.42566 3.59351 5.4309 3.75685 5.26157C3.9902 5.01833 3.8158 4.50684 3.3663 4.11871C3.29875 4.05994 3.22875 4.00698 3.15752 3.96101C3.69544 3.81786 4.06143 3.47978 3.99143 3.17719C3.91528 2.85598 3.37367 2.69712 2.78048 2.82223C2.71784 2.83561 2.65766 2.85307 2.59994 2.87111C2.55081 2.37707 2.29167 2 1.97972 2Z" fill="#FF8C8C"/>
<path d="M9.98986 5C9.8302 5 9.69879 5.19668 9.67853 5.45185C9.59317 5.38958 9.50352 5.34623 9.41939 5.32354C9.29596 5.29037 9.18543 5.30317 9.12156 5.36922C9.00489 5.49084 9.09209 5.74658 9.31684 5.94065C9.35061 5.97003 9.38623 5.99622 9.42184 6.0192C9.15288 6.09078 8.96927 6.26011 9.00427 6.41141C9.04235 6.57201 9.31315 6.65144 9.60975 6.58889L9.66256 6.57608L9.70002 6.56503C9.70923 6.65697 9.73318 6.74047 9.76695 6.80943C9.82468 6.92581 9.91187 7 10.0101 7C10.1698 7 10.3012 6.80332 10.3215 6.54815C10.3712 6.58423 10.4228 6.61507 10.4731 6.63806C10.6377 6.71283 10.7968 6.71545 10.8784 6.63078C10.9951 6.50916 10.9079 6.25342 10.6832 6.05935C10.6494 6.02997 10.6144 6.00349 10.5788 5.98051C10.8477 5.90893 11.0307 5.73989 10.9957 5.58859C10.9576 5.42799 10.6868 5.34856 10.3902 5.41111C10.3589 5.41781 10.3288 5.42653 10.3 5.43555C10.2754 5.18854 10.1458 5 9.98986 5Z" fill="#FF8C8C"/>
<path d="M10.5548 5.94881C12.0951 5.90182 9.27118 8.96386 7.6667 10.5007L6.72222 11L3.81604 10.6476C-0.0346222 10.0602 -0.734879 8.85618 0.665402 8.62125C1.78563 8.43329 4.16611 9.48271 5.21632 10.0309C3.9619 9.29672 1.6281 7.76959 2.32824 7.53465C3.02838 7.29972 4.07859 7.71086 4.51618 7.9458C3.3201 7.24099 1.50557 5.67867 3.81604 5.06783C6.1265 4.45699 7.34584 8.12203 7.6667 10.0309C7.98759 8.68979 9.01447 5.9958 10.5548 5.94881Z" fill="#6EBC30"/>
<path d="M28.7399 10C27.7548 9.04369 25.8302 6.5867 26.012 4.40925C26.2237 1.87512 27.7161 5.68582 27.9668 6.57963C27.6629 5.22011 27.4767 2.81296 28.9672 3.01156C30.513 3.21754 30.2175 5.64751 29.8765 6.83675C30.1228 6.18694 30.7556 4.96585 31.1268 4.85056C32.5475 4.40925 32.5475 8.8965 28.7399 10Z" fill="#6EBC30"/>
<path d="M40.7167 11C41.5376 10.1803 43.1415 8.07431 42.99 6.20793C42.8136 4.03582 41.5699 7.30213 41.361 8.06826C41.6143 6.90295 41.7694 4.83968 40.5273 5.00991C39.2392 5.18646 39.4854 7.26929 39.7696 8.28864C39.5644 7.73167 39.037 6.68501 38.7277 6.58619C37.5437 6.20793 37.5437 10.0541 40.7167 11Z" fill="#6EBC30"/>
<path d="M40.9899 3C40.8302 3 40.6988 3.29502 40.6785 3.67777C40.5932 3.58438 40.5035 3.51935 40.4194 3.48531C40.296 3.43555 40.1854 3.45476 40.1216 3.55383C40.0049 3.73625 40.0921 4.11987 40.3168 4.41097C40.3506 4.45505 40.3862 4.49433 40.4218 4.5288C40.1529 4.63617 39.9693 4.89017 40.0043 5.11711C40.0423 5.35802 40.3132 5.47716 40.6098 5.38333L40.6626 5.36413L40.7 5.34754C40.7092 5.48545 40.7332 5.61071 40.767 5.71414C40.8247 5.88871 40.9119 6 41.0101 6C41.1698 6 41.3012 5.70498 41.3215 5.32223C41.3712 5.37635 41.4228 5.42261 41.4731 5.45708C41.6377 5.56925 41.7968 5.57317 41.8784 5.44617C41.9951 5.26375 41.9079 4.88013 41.6832 4.58903C41.6494 4.54495 41.6144 4.50524 41.5788 4.47076C41.8477 4.3634 42.0307 4.10983 41.9957 3.88289C41.9576 3.64198 41.6868 3.52284 41.3902 3.61667C41.3589 3.62671 41.3288 3.6398 41.3 3.65333C41.2754 3.2828 41.1458 3 40.9899 3Z" fill="#FF8C8C"/>
<path d="M17.5856 2.01913C18.1378 2.02215 18.5834 2.70931 18.6418 3.59794C18.9398 3.38282 19.2519 3.2336 19.5439 3.15619C19.9724 3.04307 20.3541 3.08973 20.572 3.32085C20.9699 3.74642 20.6567 4.63504 19.8704 5.30635C19.7523 5.408 19.6279 5.49848 19.5036 5.57782C20.4307 5.83207 21.058 6.42501 20.93 6.95102C20.791 7.50938 19.8507 7.78076 18.8277 7.55738L18.6456 7.51182L18.5166 7.47262C18.4805 7.7925 18.3939 8.08273 18.2739 8.32213C18.0689 8.72617 17.7639 8.98279 17.4241 8.98093C16.8719 8.9779 16.4264 8.29074 16.3679 7.40211C16.1942 7.52676 16.0144 7.63314 15.8392 7.7122C15.2666 7.96938 14.7164 7.97549 14.4378 7.67921C14.0398 7.25364 14.3531 6.36501 15.1393 5.69371C15.2574 5.59205 15.3797 5.50055 15.5039 5.42121C14.5769 5.16696 13.9517 4.57504 14.0797 4.04903C14.2187 3.49067 15.159 3.2193 16.182 3.44267C16.29 3.46656 16.3937 3.49752 16.4931 3.52946C16.5894 2.67003 17.0461 2.01617 17.5856 2.01913Z" fill="#FF8C8C"/>
</svg>
