<svg width="125" height="60" viewBox="0 0 125 60" fill="none" xmlns="http://www.w3.org/2000/svg">
<g opacity="0.8">
<path d="M110.922 26.8577C115.64 27.7914 118.756 26.0497 119.724 25.0622L120.164 24.7031L119.812 25.6008L117.523 33.1422L116.731 32.8729C113.738 32.1546 106.609 33.7706 101.856 35.9253C97.1023 38.08 94.8138 38.3493 88.2121 39.0675C82.9308 39.6421 78.207 45.1725 76.5052 47.8658C73.6181 46.6448 65.8546 51.846 62.3337 54.5992C55.9081 53.7912 53.0034 56.664 49.7466 61.7814C46.4898 66.8987 41.2085 66.809 37.6876 68.0659C34.1667 69.3228 25.8046 63.7565 21.1395 61.7814C20.1536 58.1903 14.5672 58.0706 11.8972 58.4596C8.11224 57.2925 2.65489 59.7165 -0.689941 60.0756C-4.03477 60.4347 -10.6364 54.4196 -8.61191 51.3671C-6.9923 48.9252 -12.6902 44.0053 -15.7417 41.8507C-16.4165 40.3544 -18.6464 37.685 -22.1673 38.9778C-25.6881 40.2706 -27.918 39.0975 -28.5929 38.3493L-29.6491 32.8729L-30.8814 24.6133L-30.6174 24.7928C-30.324 25.0322 -29.4731 25.8522 -28.4168 27.2168C-27.0965 28.9226 -21.287 29.6409 -18.2063 30C-15.1255 30.3591 -7.99576 42.6587 -5.44312 45.9805C-2.89049 49.3022 8.64037 48.7636 11.8972 48.9431C14.5026 49.0868 21.6676 52.4146 24.9244 54.0605C27.4184 55.7363 33.2865 58.6033 36.8074 56.664C41.2085 54.24 46.1377 55.856 48.6903 54.9583C51.243 54.0605 55.7321 48.584 56.3482 47.8658C56.9644 47.1476 64.0941 44.544 66.8228 43.4667C69.5515 42.3893 73.4245 36.0151 75.9771 34.3991C78.5297 32.7831 86.5397 34.4889 88.2121 32.8729C89.5501 31.5801 95.0485 28.9226 97.6305 27.7555C100.095 27.0672 106.204 25.924 110.922 26.8577Z" fill="#666666" stroke="#666666"/>
<path d="M112.042 7.55796C118.33 7.98667 122.343 9.88015 123.563 10.7733C124.135 11.1327 124.457 12.1735 124.546 12.6489C124.617 16.5788 122.67 21.7888 121.688 23.9026C120.557 26.9096 118.151 33.7988 117.579 37.2999C116.865 41.6764 112.042 41.7657 110.97 41.855C109.255 41.4977 106.326 43.6413 106.147 44.5344C105.968 45.4276 103.497 47.6902 102.485 48.375C100.77 50.3042 95.7567 51.2033 93.4642 51.4117C92.3925 51.3403 90.6955 51.7392 89.9809 51.9476C88.0517 52.162 80.5433 56.1454 77.0302 58.1104C73.9578 60.3968 67.414 61.683 64.5261 62.0402C63.3114 64.684 59.852 67.8457 58.274 69.0961C56.2734 71.0968 52.1411 72.2519 50.325 72.5794C48.2529 72.3651 44.2813 74.8718 42.5546 76.152C41.6019 77.194 38.8391 79.4924 35.4093 80.3498C31.9796 81.2073 28.9787 80.2903 27.9069 79.7246C27.4067 79.2245 25.3167 78.3254 24.3343 77.9383C23.0838 76.5986 15.4921 75.8841 14.5096 75.9734C13.7236 76.0448 11.2049 74.6932 10.0438 74.0085C10.4904 73.8298 6.64985 71.0611 5.93533 70.3465C3.93467 69.4891 0.755043 65.9403 -0.584679 64.2731C-1.87082 64.1302 -4.75273 62.9036 -6.03291 62.3082C-7.93831 61.2364 -11.9456 58.2354 -12.7316 54.8057C-13.714 50.5186 -14.9644 50.6972 -18.3584 50.7865C-21.0736 50.858 -23.241 49.1491 -23.9853 48.2857C-24.9677 46.7971 -27.0399 43.5698 -27.4686 42.5695C-28.6833 41.2834 -29.7014 36.9129 -30.0587 34.8884C-30.3267 33.0128 -30.9161 28.8507 -31.1305 27.2073C-32.6488 18.9903 -31.7557 14.7925 -31.5771 14.078C-32.4702 10.9519 -10.6773 8.18316 -9.87347 8.00453C-7.08684 7.86162 8.01936 5.38461 15.2241 4.16397C19.9578 3.33036 29.8897 1.59169 31.7474 1.30589C33.891 0.68067 41.7507 0.502058 44.9661 0.144797C48.2707 -0.569724 64.3475 1.57384 67.3842 1.9311C69.6707 2.35981 82.5678 4.01512 88.7305 4.78919C94.8337 5.50371 108.04 7.05779 112.042 7.55796Z" fill="#949494"/>
<path fill-rule="evenodd" clip-rule="evenodd" d="M124.478 12.7521L124.64 12.7218C124.594 12.4782 124.489 12.0923 124.323 11.7205C124.159 11.3528 123.927 10.9834 123.62 10.7887C122.38 9.88277 118.351 7.98797 112.056 7.55835C108.052 7.05781 94.8492 5.50422 88.7472 4.78985C82.5821 4.01549 69.6896 2.3607 67.4066 1.93264L67.4036 1.93208L67.4006 1.93172C67.0471 1.89013 66.5162 1.82425 65.8489 1.74144C63.6535 1.46899 59.9815 1.0133 56.2906 0.636504C53.8841 0.390828 51.4682 0.178537 49.4467 0.072363C47.4333 -0.0333843 45.7989 -0.0347619 44.9577 0.145855C43.7822 0.276226 41.987 0.382775 40.0754 0.496234C39.3761 0.537745 38.661 0.580184 37.9551 0.62505C36.6375 0.708796 35.3522 0.800986 34.262 0.911409C33.1776 1.02124 32.2793 1.1497 31.734 1.30782C29.8604 1.59651 19.9428 3.33269 15.2147 4.16531C11.6126 4.7756 6.03544 5.6999 1.01064 6.4895C-4.01762 7.27963 -8.4847 7.93351 -9.87207 8.00466L-9.87955 8.00504L-9.88687 8.00667C-9.97977 8.02731 -10.3766 8.08579 -11.0099 8.17913L-11.0805 8.18953C-11.7516 8.28845 -12.6657 8.42351 -13.7371 8.59034C-15.8799 8.92397 -18.653 9.38474 -21.3735 9.93777C-24.0929 10.4906 -26.7637 11.1364 -28.7003 11.8407C-29.6675 12.1925 -30.4583 12.5612 -30.9807 12.9441C-31.1141 13.0419 -31.2323 13.1424 -31.332 13.2454L-31.4587 13.1227C-31.6709 13.3419 -31.7747 13.6441 -31.6869 14.005C-31.6847 14.0667 -31.6749 14.129 -31.657 14.1918L-31.6293 14.1839C-31.6275 14.1883 -31.6258 14.1927 -31.624 14.197C-31.4438 14.6356 -30.9924 15.1438 -30.1535 15.7041C-28.4743 16.8259 -25.2016 18.1834 -19.2686 19.613C-13.3435 21.0408 -10.4218 22.8506 -9.16606 24.5147C-8.53987 25.3445 -8.32823 26.1374 -8.36201 26.8318C-8.39584 27.5274 -8.67633 28.1309 -9.04541 28.5796L-9.04668 28.5812L-9.0479 28.5828C-9.91467 29.7385 -10.1065 30.6568 -9.97517 31.3416C-9.84409 32.025 -9.39447 32.4571 -9.01639 32.6461C-0.816093 36.7283 13.0829 38.4848 27.1102 39.0259C41.1423 39.5672 55.3205 38.8926 64.0914 38.1034L64.0947 38.1031L64.0981 38.1026C65.2636 37.9083 66.6122 37.5825 67.8716 37.1197C69.1296 36.6574 70.3054 36.0559 71.1194 35.3069C71.9351 34.5563 72.3957 33.6486 72.1944 32.5837C71.9946 31.5265 71.146 30.3385 69.4072 29.0119C68.3265 28.1875 67.8428 27.4957 67.8044 26.9207C67.7669 26.3578 68.1569 25.8623 68.9549 25.4254C69.7497 24.9902 70.9212 24.6298 72.3791 24.3301C73.8354 24.0308 75.5709 23.7932 77.4896 23.6008C82.392 23.1091 88.4736 22.9134 94.1269 22.7314C97.3293 22.6283 100.394 22.5297 103.03 22.3842C114.704 21.7396 122.223 15.7299 124.531 12.7934L124.478 12.7521ZM88.7253 4.96713C82.5675 4.19368 69.6749 2.53902 67.3767 2.10878C67.022 2.06703 66.4912 2.00116 65.8248 1.91846C63.629 1.64595 59.961 1.19076 56.2725 0.814211C53.8671 0.568653 51.4545 0.356697 49.4373 0.250748C47.4155 0.14456 45.8034 0.145753 44.9909 0.321422L44.9864 0.322388L44.9819 0.322893C43.8016 0.45404 41.9967 0.561162 40.0807 0.674882C39.3824 0.716325 38.6694 0.758644 37.9665 0.803321C36.6493 0.887037 35.3668 0.979058 34.28 1.08913C33.191 1.19942 32.3055 1.32723 31.7784 1.48096L31.7728 1.4826L31.767 1.48349C29.9105 1.76911 19.98 3.50752 15.2456 4.34126L15.245 4.34136C11.6424 4.95172 6.06428 5.87619 1.03836 6.66596C-3.97574 7.45387 -8.44832 8.10905 -9.85571 8.18268C-9.96657 8.20594 -10.3591 8.26379 -10.9571 8.3519L-11.0545 8.36625C-11.7255 8.46516 -12.6389 8.60013 -13.7097 8.76684C-15.8512 9.10028 -18.6212 9.56057 -21.3379 10.1128C-24.0555 10.6653 -26.7157 11.309 -28.6392 12.0086C-29.602 12.3587 -30.3735 12.7206 -30.8751 13.0882C-31.302 13.4011 -31.5095 13.6991 -31.5082 13.9834C-31.4957 14.0305 -31.4793 14.0791 -31.4587 14.1292C-31.2984 14.5196 -30.8813 15.0032 -30.0543 15.5556C-28.4021 16.6592 -25.1548 18.0109 -19.2268 19.4394C-13.2908 20.8697 -10.3177 22.692 -9.02348 24.4071C-8.37471 25.2668 -8.14758 26.1002 -8.18359 26.8404C-8.21948 27.5786 -8.51669 28.2174 -8.90616 28.6915C-9.7532 29.8215 -9.91843 30.689 -9.79973 31.3079C-9.68073 31.9284 -9.27292 32.3181 -8.93649 32.4863C-0.774208 36.5496 13.089 38.3063 27.117 38.8474C41.1385 39.3882 55.3071 38.7143 64.072 37.9258C65.2279 37.733 66.5641 37.4099 67.81 36.9521C69.0584 36.4933 70.2092 35.9017 70.9984 35.1755C71.7859 34.4509 72.205 33.6014 72.0189 32.6169C71.8314 31.6246 71.0254 30.4711 69.2988 29.1539C68.2136 28.326 67.6702 27.5916 67.6262 26.9326C67.5814 26.2615 68.0538 25.7151 68.8691 25.2687C69.6876 24.8205 70.8801 24.4559 72.3431 24.1552C73.8077 23.8541 75.5499 23.6158 77.4718 23.423C82.379 22.9309 88.4744 22.7346 94.1327 22.5524C97.3329 22.4494 100.393 22.3508 103.02 22.2058C114.639 21.5642 122.113 15.5819 124.39 12.6831L124.461 12.7387C124.416 12.5059 124.316 12.1425 124.16 11.7934C123.999 11.433 123.785 11.1034 123.522 10.9383L123.519 10.9366L123.517 10.9347C122.313 10.0538 118.317 8.16425 112.042 7.73639L112.039 7.73622L112.037 7.73591C108.036 7.2358 94.8295 5.68177 88.7261 4.96723L88.7253 4.96713Z" fill="#B3B3B3"/>
<path d="M67.3767 2.10878C69.6749 2.53902 82.5675 4.19368 88.7253 4.96713L88.7261 4.96723C94.8295 5.68177 108.036 7.2358 112.037 7.73591L112.039 7.73622L112.042 7.73639C118.317 8.16425 122.313 10.0538 123.517 10.9347L123.519 10.9366L123.522 10.9383C123.785 11.1034 123.999 11.433 124.16 11.7934C124.316 12.1425 124.416 12.5059 124.461 12.7387L124.39 12.6831C122.113 15.5819 114.639 21.5642 103.02 22.2058C100.393 22.3508 97.3329 22.4494 94.1327 22.5524C88.4744 22.7346 82.379 22.9309 77.4718 23.423C75.5499 23.6158 73.8077 23.8541 72.3431 24.1552C70.8801 24.4559 69.6876 24.8205 68.8691 25.2687C68.0538 25.7151 67.5814 26.2615 67.6262 26.9326C67.6702 27.5916 68.2136 28.326 69.2988 29.1539C71.0254 30.4711 71.8314 31.6246 72.0189 32.6169C72.205 33.6014 71.7859 34.4509 70.9984 35.1755C70.2092 35.9017 69.0584 36.4933 67.81 36.9521C66.5641 37.4099 65.2279 37.733 64.072 37.9258C55.3071 38.7143 41.1385 39.3882 27.117 38.8474C13.089 38.3063 -0.774208 36.5496 -8.93649 32.4863C-9.27292 32.3181 -9.68073 31.9284 -9.79973 31.3079C-9.91843 30.689 -9.7532 29.8215 -8.90616 28.6915C-8.51669 28.2174 -8.21948 27.5786 -8.18359 26.8404C-8.14758 26.1002 -8.37471 25.2668 -9.02348 24.4071C-10.3177 22.692 -13.2908 20.8697 -19.2268 19.4394C-25.1548 18.0109 -28.4021 16.6592 -30.0543 15.5556C-30.8813 15.0032 -31.2984 14.5196 -31.4587 14.1292C-31.4793 14.0791 -31.4957 14.0305 -31.5082 13.9834C-31.5095 13.6991 -31.302 13.4011 -30.8751 13.0882C-30.3735 12.7206 -29.602 12.3587 -28.6392 12.0086C-26.7157 11.309 -24.0555 10.6653 -21.3379 10.1128C-18.6212 9.56057 -15.8512 9.10028 -13.7097 8.76684C-12.6389 8.60013 -11.7255 8.46516 -11.0545 8.36625L-10.9571 8.3519C-10.3591 8.26379 -9.96657 8.20594 -9.85571 8.18268C-8.44832 8.10905 -3.97574 7.45387 1.03836 6.66596C6.06428 5.87619 11.6424 4.95172 15.245 4.34136L15.2456 4.34126C19.98 3.50752 29.9105 1.76911 31.767 1.48349L31.7728 1.4826L31.7784 1.48096C32.3055 1.32723 33.191 1.19942 34.28 1.08913C35.3668 0.979058 36.6493 0.887037 37.9665 0.803321C38.6694 0.758644 39.3824 0.716325 40.0807 0.674882C41.9967 0.561162 43.8016 0.45404 44.9819 0.322893L44.9864 0.322388L44.9909 0.321422C45.8034 0.145753 47.4155 0.14456 49.4373 0.250748C51.4545 0.356697 53.8671 0.568653 56.2725 0.814211C59.961 1.19076 63.629 1.64595 65.8248 1.91846C66.4912 2.00116 67.022 2.06703 67.3767 2.10878Z" fill="#B3B3B3"/>
<path d="M113.222 29.6347C113.793 29.706 115.244 22.7661 115.898 19.2871V19.0195L115.542 19.2871L110.814 20.982L107.513 21.874L102.875 22.4092L89.0484 22.8553C84.7072 23.1526 75.1684 23.8722 71.743 24.3717C68.3176 24.8712 67.6397 26.3639 67.7289 27.0478C67.8478 27.5235 68.6031 28.8497 70.6726 30.3483C72.7421 31.8469 72.2485 33.9462 71.743 34.8084C71.9571 36.6639 70.9402 41.8257 70.405 44.1748C69.7627 45.3879 68.948 49.7945 68.6209 51.8462C68.5495 53.8443 66.034 59.2203 64.7852 61.6585C68.5674 61.3731 73.8541 59.0419 76.0247 57.912C75.995 50.4487 75.9534 35.2901 76.0247 34.3624C75.5966 31.8648 76.3815 30.943 76.8276 30.7943C77.0416 32.2929 78.1656 35.3437 78.7008 36.6817C80.7525 38.7334 80.1281 24.5501 80.3065 24.1041C80.4849 23.6581 89.9404 23.4797 92.0813 23.2121C93.794 22.998 99.9906 23.3013 102.875 23.4797C104.159 30.6159 103.41 42.5096 102.875 47.5645C104.124 46.94 105.462 44.71 107.335 42.8367C108.834 41.3381 110.933 41.2013 111.795 41.3203C109.797 37.6094 111.26 28.5345 112.241 24.4609C112.598 24.7464 113.044 28.029 113.222 29.6347Z" fill="#666666"/>
<path d="M55.7784 39.9864C55.9925 40.2005 59.3168 38.9457 60.9521 38.2916H59.9709L53.6375 38.7376L44.7172 39.0944H32.0504L24.2897 38.8268L12.4258 37.8456L6.62757 37.0427L-1.93591 35.1695L-8.18011 33.0286L-9.69656 31.9582L-9.96417 30.9769L-9.69656 29.6389L-8.89374 28.5685L-8.18011 27.1412L-8.53693 25.3572L-11.3914 22.3243L-15.8516 20.451L-22.3634 18.6669L-28.9644 16.3477V16.9721C-26.8235 19.0416 -22.3039 20.1536 -20.3117 20.451C-20.2403 21.6642 -18.5574 28.2711 -17.7248 31.4229C-16.0121 37.0606 -15.0487 38.2321 -14.7811 38.1132C-13.4966 38.8268 -12.9376 34.4856 -12.8187 32.2258C-11.2487 35.3657 -9.7263 51.9099 -9.16135 59.7895C-5.87868 62.5726 -1.90617 63.5063 -0.330257 63.6252C-1.32933 63.0543 -3.18475 58.8082 -3.98758 56.7566C-6.55662 52.4035 -8.864 39.0052 -9.69656 32.8502C-8.12659 34.9911 -4.87961 36.2994 -3.45236 36.6859C-1.73966 37.8277 8.3819 38.6484 13.2286 38.916C15.5835 40.7001 14.864 64.101 14.2098 75.5784C19.7047 75.2216 25.4791 77.8679 27.6795 79.2357C25.2531 66.9614 26.3712 47.9552 27.2334 39.9864L34.3697 39.6296C34.6373 40.254 39.365 55.5969 41.2383 57.2026C43.1116 58.8082 43.6468 54.2589 44.182 53.0101C44.6102 52.011 45.6687 49.5014 46.1445 48.3715C46.2158 47.3724 47.9583 45.8738 48.8206 45.2494C49.8196 47.1762 52.6265 46.8253 53.9051 46.409C55.9568 45.1602 55.5108 39.7188 55.7784 39.9864Z" fill="#666666"/>
<path d="M96.7184 32.491C97.0752 34.6319 96.3318 36.9512 95.9156 37.8432C92.9183 35.631 93.5963 31.9856 94.3099 30.4394C94.9641 30.2312 96.3616 30.3502 96.7184 32.491Z" fill="#666666"/>
<path d="M59.2532 59.6087C62.0363 58.3955 61.1859 53.0374 60.4128 50.51C60.0263 49.945 59.2175 48.9935 59.0748 49.7071C58.9321 50.4208 57.707 51.9075 57.1123 52.5616C56.6663 55.4161 56.4701 60.8218 59.2532 59.6087Z" fill="#666666"/>
<path d="M53.1874 61.3927C54.1151 59.6087 54.8228 61.0062 55.0607 61.9279C55.3431 62.6416 55.1784 63.2957 55.0607 63.5336C54.0497 63.5633 52.2597 63.1768 53.1874 61.3927Z" fill="#666666"/>
<path d="M-15.2312 43.0169C-14.5176 43.8019 -13.5067 49.4693 -13.0904 52.2048C-13.0207 52.6527 -13.1803 52.8077 -13.2688 52.8293L-13.5364 52.2048L-13.9824 51.5804L-14.4284 51.2236L-15.3204 50.8668L-16.6585 50.6884L-17.9073 50.7776L-19.6022 50.6884L-18.7994 50.064C-17.9073 49.7964 -16.1233 42.0357 -15.2312 43.0169Z" fill="#666666"/>
</g>
</svg>
