<svg width="125" height="102" viewBox="0 0 125 102" fill="none" xmlns="http://www.w3.org/2000/svg">
<g clip-path="url(#clip0_25256_635417)">
<path d="M113.267 74.1381C117.567 74.9723 120.406 73.4162 121.288 72.5339L121.689 72.213L121.369 73.0152L119.283 79.753L118.561 79.5124C115.834 78.8707 109.337 80.3145 105.006 82.2396C100.674 84.1647 98.589 84.4053 92.5732 85.047C87.7606 85.5604 83.456 90.5015 81.9053 92.9079C79.2744 91.817 72.1999 96.464 68.9915 98.9238C63.1361 98.2019 60.4892 100.769 57.5214 105.341C54.5536 109.913 49.7411 109.833 46.5326 110.956C43.3242 112.079 35.7043 107.106 31.4532 105.341C30.5548 102.132 25.4641 102.025 23.0311 102.373C19.5821 101.33 14.6091 103.496 11.5611 103.817C8.51309 104.138 2.49734 98.7634 4.34217 96.0362C5.81803 93.8544 0.625771 89.4587 -2.15485 87.5336C-2.76979 86.1968 -4.80177 83.8118 -8.01018 84.9668C-11.2186 86.1219 -13.2506 85.0738 -13.8655 84.4053L-14.828 79.5124L-15.951 72.1328L-15.7103 72.2932C-15.443 72.5071 -14.6676 73.2397 -13.7051 74.459C-12.5019 75.983 -7.20808 76.6247 -4.40073 76.9456C-1.59338 77.2664 4.90364 88.2556 7.22973 91.2234C9.55582 94.1913 20.0633 93.71 23.0311 93.8704C25.4053 93.9988 31.9344 96.972 34.9022 98.4426C37.1748 99.9399 42.5221 102.501 45.7305 100.769C49.7411 98.603 54.2328 100.047 56.5589 99.2447C58.885 98.4426 62.9757 93.5496 63.5372 92.9079C64.0986 92.2662 70.5957 89.94 73.0822 88.9775C75.5687 88.0149 79.0979 82.3198 81.424 80.876C83.7501 79.4322 91.0492 80.9562 92.5732 79.5124C93.7924 78.3573 98.8029 75.983 101.156 74.9403C103.402 74.3253 108.968 73.3039 113.267 74.1381Z" fill="#B4543E" stroke="#B4543E"/>
<path d="M113.247 57.0111C118.901 57.3966 122.509 59.0992 123.607 59.9024C124.121 60.2255 124.41 61.1614 124.49 61.5889C124.555 65.1227 122.804 69.8077 121.921 71.7084C120.903 74.4123 118.74 80.6072 118.226 83.7555C117.584 87.6909 113.247 87.7712 112.283 87.8515C110.741 87.5302 108.107 89.4578 107.946 90.2609C107.786 91.064 105.564 93.0986 104.654 93.7144C103.112 95.4491 98.6035 96.2576 96.5422 96.445C95.5785 96.3808 94.0526 96.7395 93.4101 96.9269C91.6754 97.1197 84.9239 100.702 81.765 102.469C79.0023 104.525 73.1182 105.681 70.5215 106.002C69.4292 108.38 66.3185 111.223 64.8997 112.347C63.1007 114.146 59.385 115.185 57.752 115.479C55.8888 115.287 52.3176 117.541 50.765 118.692C49.9083 119.629 47.424 121.696 44.3401 122.467C41.2561 123.238 38.5577 122.413 37.5939 121.904C37.1442 121.455 35.2649 120.646 34.3815 120.298C33.2571 119.093 26.4307 118.451 25.5473 118.531C24.8406 118.596 22.5758 117.38 21.5317 116.764C21.9333 116.604 18.4799 114.114 17.8374 113.472C16.0385 112.701 13.1794 109.509 11.9747 108.01C10.8183 107.882 8.22688 106.779 7.07575 106.243C5.36245 105.28 1.75917 102.581 1.05243 99.4969C0.169006 95.6419 -0.955345 95.8025 -4.00717 95.8828C-6.44862 95.9471 -8.39749 94.4104 -9.06676 93.6341C-9.95018 92.2955 -11.8134 89.3935 -12.1989 88.494C-13.2911 87.3375 -14.2067 83.4075 -14.5279 81.587C-14.7688 79.9004 -15.2989 76.1578 -15.4917 74.6801C-16.8569 67.2912 -16.0538 63.5165 -15.8932 62.874C-16.6963 60.063 2.89958 57.5733 3.62238 57.4126C6.12808 57.2841 19.7114 55.0568 26.1898 53.9592C30.4463 53.2096 39.3768 51.6461 41.0473 51.3891C42.9748 50.8269 50.0422 50.6663 52.9333 50.345C55.9049 49.7025 70.3608 51.6301 73.0914 51.9513C75.1474 52.3368 86.7443 53.8253 92.2857 54.5214C97.7737 55.1639 109.649 56.5613 113.247 57.0111Z" fill="#B5553D"/>
<path fill-rule="evenodd" clip-rule="evenodd" d="M124.431 61.6817L124.576 61.6544C124.535 61.4354 124.441 61.0884 124.292 60.7541C124.144 60.4234 123.936 60.0913 123.659 59.9162C122.544 59.1016 118.922 57.3977 113.261 57.0114C109.661 56.5613 97.789 55.1643 92.3022 54.5219C86.7586 53.8256 75.1658 52.3376 73.113 51.9527L73.1103 51.9522L73.1076 51.9519C72.7897 51.9145 72.3123 51.8552 71.7123 51.7808C69.7383 51.5358 66.4364 51.126 63.1177 50.7872C60.9538 50.5663 58.7814 50.3754 56.9637 50.2799C55.1533 50.1848 53.6836 50.1836 52.9272 50.346C51.8703 50.4632 50.2561 50.559 48.5372 50.6611C47.9083 50.6984 47.2654 50.7366 46.6306 50.7769C45.4458 50.8522 44.2901 50.9351 43.3098 51.0344C42.3347 51.1332 41.527 51.2487 41.0367 51.3909C39.3519 51.6504 30.4342 53.2116 26.1828 53.9604C22.9438 54.5091 17.9289 55.3403 13.4106 56.0503C8.88931 56.7608 4.87258 57.3488 3.62507 57.4128L3.61834 57.4131L3.61177 57.4146C3.52823 57.4331 3.1714 57.4857 2.60194 57.5696L2.53846 57.579C1.93499 57.6679 1.1131 57.7894 0.149659 57.9394C-1.77712 58.2394 -4.27063 58.6537 -6.71681 59.151C-9.16208 59.6481 -11.5637 60.2288 -13.305 60.8622C-14.1747 61.1785 -14.8858 61.5101 -15.3555 61.8544C-15.4755 61.9423 -15.5817 62.0326 -15.6714 62.1253L-15.7854 62.015C-15.9761 62.2121 -16.0695 62.4838 -15.9906 62.8084C-15.9886 62.8638 -15.9798 62.9198 -15.9636 62.9763L-15.9387 62.9692C-15.9372 62.9732 -15.9356 62.9771 -15.9339 62.981C-15.772 63.3754 -15.366 63.8323 -14.6118 64.3362C-13.1018 65.3449 -10.1591 66.5656 -4.82416 67.8512C0.503637 69.135 3.13076 70.7625 4.2599 72.2588C4.82297 73.005 5.01327 73.718 4.9829 74.3424C4.95248 74.9679 4.70026 75.5106 4.36839 75.9141L4.36725 75.9155L4.36616 75.9169C3.58677 76.9561 3.41428 77.7819 3.53237 78.3977C3.65024 79.0122 4.05453 79.4007 4.3945 79.5707C11.7681 83.2415 24.2659 84.821 36.879 85.3075C49.4965 85.7942 62.2453 85.1877 70.132 84.478L70.135 84.4777L70.138 84.4772C71.1861 84.3026 72.3987 84.0096 73.5311 83.5935C74.6623 83.1778 75.7195 82.6369 76.4515 81.9634C77.185 81.2884 77.5992 80.4722 77.4182 79.5146C77.2385 78.5639 76.4755 77.4957 74.9119 76.3028C73.9402 75.5615 73.5052 74.9394 73.4707 74.4223C73.4369 73.9162 73.7876 73.4707 74.5052 73.0777C75.2198 72.6864 76.2733 72.3623 77.5842 72.0929C78.8937 71.8237 80.4542 71.61 82.1795 71.437C86.5877 70.9949 92.0562 70.8189 97.1395 70.6553C100.019 70.5626 102.775 70.4739 105.145 70.343C115.642 69.7634 122.404 64.3594 124.478 61.7189L124.431 61.6817ZM92.2825 54.6814C86.7455 53.9859 75.1526 52.498 73.0861 52.1111C72.7672 52.0735 72.2899 52.0143 71.6907 51.94C69.7162 51.6949 66.418 51.2856 63.1014 50.947C60.9385 50.7262 58.7691 50.5356 56.9552 50.4403C55.1373 50.3448 53.6877 50.3459 52.9571 50.5039L52.9531 50.5047L52.949 50.5052C51.8877 50.6231 50.2648 50.7194 48.5419 50.8217C47.914 50.859 47.2729 50.897 46.6408 50.9372C45.4564 51.0125 44.3032 51.0952 43.326 51.1942C42.3468 51.2934 41.5505 51.4083 41.0766 51.5465L41.0715 51.548L41.0663 51.5488C39.397 51.8057 30.4677 53.3689 26.2105 54.1186L26.21 54.1187C22.9706 54.6675 17.9548 55.4988 13.4356 56.209C8.92698 56.9175 4.90529 57.5066 3.63979 57.5728C3.5401 57.5938 3.18714 57.6458 2.64947 57.725L2.56187 57.7379C1.95848 57.8268 1.13713 57.9482 0.174364 58.0981C-1.75128 58.398 -4.24206 58.8119 -6.68482 59.3084C-9.12848 59.8052 -11.5204 60.384 -13.2501 61.0131C-14.1158 61.328 -14.8096 61.6534 -15.2606 61.9839C-15.6445 62.2653 -15.831 62.5333 -15.8298 62.7889C-15.8186 62.8313 -15.8039 62.875 -15.7854 62.92C-15.6412 63.2711 -15.2661 63.7059 -14.5225 64.2026C-13.0369 65.1951 -10.1169 66.4106 -4.78654 67.695C0.550969 68.9812 3.22436 70.6198 4.38811 72.162C4.97148 72.9351 5.1757 73.6845 5.14333 74.3502C5.11105 75.0139 4.84381 75.5884 4.49361 76.0147C3.73195 77.0308 3.58339 77.8108 3.69012 78.3674C3.79712 78.9254 4.16382 79.2758 4.46634 79.427C11.8057 83.0808 24.2714 84.6604 36.8852 85.147C49.4931 85.6333 62.2333 85.0274 70.1146 84.3183C71.154 84.1449 72.3554 83.8544 73.4757 83.4427C74.5982 83.0302 75.6331 82.4982 76.3427 81.8452C77.0508 81.1936 77.4277 80.4297 77.2603 79.5444C77.0917 78.6522 76.3669 77.6149 74.8144 76.4305C73.8386 75.686 73.35 75.0256 73.3104 74.433C73.2702 73.8296 73.695 73.3383 74.428 72.9368C75.164 72.5338 76.2363 72.206 77.5518 71.9355C78.8688 71.6648 80.4353 71.4505 82.1634 71.2772C86.576 70.8346 92.0569 70.6581 97.1447 70.4943C100.022 70.4017 102.774 70.313 105.136 70.1826C115.584 69.6057 122.304 64.2263 124.352 61.6196L124.416 61.6697C124.375 61.4604 124.285 61.1336 124.145 60.8196C124 60.4956 123.807 60.1992 123.571 60.0507L123.569 60.0492L123.566 60.0475C122.484 59.2553 118.891 57.5563 113.248 57.1715L113.246 57.1714L113.244 57.1711C109.646 56.7214 97.7713 55.324 92.2832 54.6814L92.2825 54.6814Z" fill="#68AA0C"/>
<path d="M73.0861 52.1111C75.1526 52.498 86.7455 53.9859 92.2825 54.6814L92.2832 54.6814C97.7713 55.324 109.646 56.7214 113.244 57.1711L113.246 57.1714L113.248 57.1715C118.891 57.5563 122.484 59.2553 123.566 60.0475L123.569 60.0492L123.571 60.0507C123.807 60.1992 124 60.4956 124.145 60.8196C124.285 61.1336 124.375 61.4604 124.416 61.6697L124.352 61.6196C122.304 64.2263 115.584 69.6057 105.136 70.1826C102.774 70.313 100.022 70.4017 97.1447 70.4943C92.0569 70.6581 86.576 70.8346 82.1634 71.2772C80.4353 71.4505 78.8688 71.6648 77.5518 71.9355C76.2363 72.206 75.164 72.5338 74.428 72.9368C73.695 73.3383 73.2702 73.8296 73.3104 74.433C73.35 75.0256 73.8386 75.686 74.8144 76.4305C76.3669 77.6149 77.0917 78.6522 77.2603 79.5444C77.4277 80.4297 77.0508 81.1936 76.3427 81.8452C75.6331 82.4982 74.5982 83.0302 73.4757 83.4427C72.3554 83.8544 71.154 84.1449 70.1146 84.3183C62.2333 85.0274 49.4931 85.6333 36.8852 85.147C24.2714 84.6604 11.8057 83.0808 4.46634 79.427C4.16382 79.2758 3.79712 78.9254 3.69012 78.3674C3.58339 77.8108 3.73195 77.0308 4.49361 76.0147C4.84381 75.5884 5.11105 75.0139 5.14333 74.3502C5.1757 73.6845 4.97148 72.9351 4.38811 72.162C3.22436 70.6198 0.550969 68.9812 -4.78654 67.695C-10.1169 66.4106 -13.0369 65.1951 -14.5225 64.2026C-15.2661 63.7059 -15.6412 63.2711 -15.7854 62.92C-15.8039 62.875 -15.8186 62.8313 -15.8298 62.7889C-15.831 62.5333 -15.6445 62.2653 -15.2606 61.9839C-14.8096 61.6534 -14.1158 61.328 -13.2501 61.0131C-11.5204 60.384 -9.12848 59.8052 -6.68482 59.3084C-4.24206 58.8119 -1.75128 58.398 0.174364 58.0981C1.13713 57.9482 1.95848 57.8268 2.56187 57.7379L2.64947 57.725C3.18714 57.6458 3.5401 57.5938 3.63979 57.5728C4.90529 57.5066 8.92698 56.9175 13.4356 56.209C17.9548 55.4988 22.9706 54.6675 26.21 54.1187L26.2105 54.1186C30.4677 53.3689 39.397 51.8057 41.0663 51.5488L41.0715 51.548L41.0766 51.5465C41.5505 51.4083 42.3468 51.2934 43.326 51.1942C44.3032 51.0952 45.4564 51.0125 46.6408 50.9372C47.2729 50.897 47.914 50.859 48.5419 50.8217C50.2648 50.7194 51.8877 50.6231 52.949 50.5052L52.9531 50.5047L52.9571 50.5039C53.6877 50.3459 55.1373 50.3448 56.9552 50.4403C58.7691 50.5356 60.9385 50.7262 63.1014 50.947C66.418 51.2856 69.7162 51.6949 71.6907 51.94C72.2899 52.0143 72.7672 52.0735 73.0861 52.1111Z" fill="#68AA0C"/>
<path d="M114.307 76.8734C114.82 76.9376 116.125 70.6971 116.713 67.5688V67.3281L116.392 67.5688L112.141 69.0928L109.173 69.8949L105.002 70.3762L92.5697 70.7773C88.6661 71.0446 80.089 71.6917 77.0089 72.1409C73.9289 72.5901 73.3193 73.9323 73.3995 74.5473C73.5064 74.9751 74.1855 76.1676 76.0464 77.5151C77.9073 78.8627 77.4634 80.7504 77.0089 81.5258C77.2014 83.1942 76.287 87.8358 75.8058 89.9481C75.2283 91.039 74.4957 95.0015 74.2016 96.8464C74.1374 98.6431 71.8755 103.477 70.7525 105.67C74.1534 105.413 78.9072 103.317 80.859 102.301C80.8323 95.5897 80.7948 81.9589 80.859 81.1247C80.474 78.8787 81.1798 78.0499 81.5809 77.9162C81.7734 79.2638 82.784 82.007 83.2653 83.2102C85.1101 85.0551 84.5487 72.3013 84.7091 71.9002C84.8695 71.4992 93.3718 71.3388 95.2968 71.0981C96.8368 70.9056 102.409 71.1783 105.002 71.3388C106.157 77.7558 105.483 88.4508 105.002 92.9962C106.125 92.4347 107.328 90.4294 109.013 88.7449C110.36 87.3973 112.248 87.2743 113.023 87.3813C111.227 84.0444 112.542 75.8841 113.424 72.2211C113.745 72.4778 114.146 75.4296 114.307 76.8734Z" fill="#8A4130"/>
<path d="M62.6545 86.1743C62.847 86.3668 65.8361 85.2385 67.3066 84.6503H66.4243L60.7294 85.0513L52.7084 85.3722H41.3186L34.3403 85.1315L23.6724 84.2492L18.4587 83.5273L10.7586 81.8428L5.14386 79.9177L3.78028 78.9552L3.53965 78.0728L3.78028 76.8696L4.50217 75.9071L5.14386 74.6237L4.82302 73.0194L2.25629 70.2922L-1.75421 68.6077L-7.60954 67.0035L-13.5451 64.918V65.4795C-11.62 67.3404 -7.55607 68.3404 -5.76471 68.6077C-5.70054 69.6986 -4.18725 75.6397 -3.43862 78.4739C-1.89858 83.5433 -1.03232 84.5968 -0.791687 84.4898C0.363335 85.1315 0.86599 81.2279 0.972931 79.1958C2.38463 82.0193 3.75355 96.8961 4.26155 103.982C7.21328 106.484 10.7853 107.324 12.2023 107.431C11.304 106.917 9.63562 103.099 8.91373 101.254C6.60368 97.3399 4.52891 85.292 3.78028 79.7573C5.19198 81.6824 8.11163 82.8589 9.39499 83.2064C10.935 84.2332 20.0362 84.9711 24.3943 85.2118C26.5118 86.816 25.8648 107.858 25.2766 118.179C30.2175 117.858 35.4098 120.238 37.3883 121.468C35.2066 110.431 36.2119 93.34 36.9872 86.1743L43.404 85.8535C43.6447 86.415 47.8958 100.212 49.5802 101.655C51.2646 103.099 51.7459 99.0083 52.2272 97.8854C52.6122 96.987 53.564 94.7303 53.9918 93.7143C54.0559 92.8159 55.6227 91.4683 56.3981 90.9069C57.2964 92.6395 59.8204 92.3239 60.97 91.9496C62.8149 90.8266 62.4138 85.9337 62.6545 86.1743Z" fill="#8A4130"/>
<path d="M99.4642 79.4371C99.785 81.3622 99.1166 83.4478 98.7423 84.2499C96.0472 82.2607 96.6569 78.9826 97.2986 77.5922C97.8868 77.4051 99.1434 77.512 99.4642 79.4371Z" fill="#8A4130"/>
<path d="M65.776 103.822C68.2786 102.731 67.5139 97.9127 66.8187 95.64C66.4712 95.132 65.7439 94.2764 65.6156 94.9181C65.4873 95.5598 64.3857 96.8967 63.851 97.4849C63.4499 100.052 63.2735 104.913 65.776 103.822Z" fill="#8A4130"/>
<path d="M60.3217 105.426C61.1559 103.822 61.7923 105.078 62.0061 105.907C62.2601 106.549 62.112 107.137 62.0061 107.351C61.0971 107.378 59.4875 107.03 60.3217 105.426Z" fill="#8A4130"/>
<path d="M-1.19936 88.9022C-0.557686 89.6081 0.351364 94.7042 0.725677 97.1641C0.78833 97.5668 0.644836 97.7062 0.565254 97.7256L0.324623 97.1641L-0.0764236 96.6026L-0.477478 96.2817L-1.27958 95.9609L-2.48273 95.8005L-3.60567 95.8807L-5.12965 95.8005L-4.40777 95.239C-3.60567 94.9983 -2.00146 88.0198 -1.19936 88.9022Z" fill="#8A4130"/>
<path d="M112.18 73.6128C106.803 71.5894 104.838 66.6924 104.527 64.4969C121.647 61.3156 119.778 73.4086 119.978 76.7135C118.168 76.4473 111.737 69.6427 110.783 68.8885C112.274 70.3792 112.335 72.6592 112.18 73.6128Z" fill="#68AA0C"/>
<path d="M106.389 51.5401C103.983 52.5141 101.183 56.0516 100.084 57.6987C100.078 59.2018 102.52 61.1088 103.742 61.8745C104.826 61.6933 107.464 60.1241 109.343 55.2965C107.019 55.3178 105.224 56.8292 104.617 57.5822C104.596 57.1396 104.921 55.3117 106.389 51.5401Z" fill="#6EBC30"/>
<path d="M105.634 52.1573C103.227 53.1313 100.427 56.6688 99.3277 58.3159C99.3218 59.819 101.764 61.726 102.986 62.4917C104.07 62.3105 106.708 60.7413 108.587 55.9136C106.263 55.935 104.468 57.4463 103.861 58.1994C103.84 57.7568 104.165 55.9289 105.634 52.1573Z" fill="#68AA0C"/>
<path d="M45.8554 44.9481C47.5907 46.8795 48.5541 51.287 48.8189 53.2494C48.1646 54.6026 45.1333 55.2444 43.6994 55.3961C42.8049 54.7576 41.1232 52.1899 41.5527 47.027C43.6323 48.0664 44.5819 50.2122 44.7968 51.1552C45.0099 50.7668 45.5199 48.9816 45.8554 44.9481Z" fill="#6EBC30"/>
<path d="M46.2578 45.8348C47.993 47.7662 48.9565 52.1738 49.2213 54.1361C48.5669 55.4893 45.5356 56.1311 44.1018 56.2828C43.2072 55.6443 41.5256 53.0766 41.9551 47.9137C44.0346 48.9531 44.9843 51.0989 45.1991 52.0419C45.4122 51.6535 45.9222 49.8683 46.2578 45.8348Z" fill="#68AA0C"/>
<path d="M-5.86623 54.1197C3.30459 48.2506 6.60588 58.5207 4.4962 62.7399C4.4962 65.1253 -2.01424 69.3417 -4.03169 64.2979C-5.64566 60.2629 -8.73904 59.0096 -10.084 58.8873C-7.51631 55.8052 -2.77835 56.1358 -0.730326 56.6864C-1.90412 54.6322 -4.64334 54.1193 -5.86623 54.1197Z" fill="#68AA0C"/>
<path fill-rule="evenodd" clip-rule="evenodd" d="M0.63556 52.5412C-1.04633 52.0744 -3.20859 52.4214 -5.86233 54.1197C-4.69816 54.1193 -2.15981 54.5841 -0.906014 56.401C0.213752 56.4134 1.21386 56.5744 1.90639 56.7606C0.7326 54.7064 -2.00663 54.1936 -3.22952 54.1939C-1.7989 53.2783 -0.511126 52.7555 0.63556 52.5412ZM0.477262 66.477C-0.286651 66.1464 -0.950068 65.4845 -1.39498 64.3722C-3.00894 60.3371 -6.10232 59.0838 -7.44727 58.9615C-6.02267 57.2515 -3.93002 56.592 -1.99935 56.4378C-4.3423 56.1232 -7.9547 56.3361 -10.0801 58.8873C-8.73513 59.0096 -5.64175 60.2629 -4.02779 64.2979C-3.11033 66.5917 -1.26371 66.9703 0.477262 66.477Z" fill="#6EBC30"/>
<path d="M83.8381 77.5144C78.4609 75.491 76.4959 70.594 76.1855 68.3985C84.8095 66.0564 87.3652 72.0806 87.5651 75.3855C85.7551 75.1193 83.395 73.5443 82.4412 72.7901C83.9318 74.2808 83.9936 76.5608 83.8381 77.5144Z" fill="#68AA0C"/>
<path opacity="0.2" d="M44.0196 75.5872C48.1731 71.4277 53.5663 71.6607 55.7438 72.2972C54.2907 81.324 47.5976 81.1664 44.4326 79.9593C45.444 78.3842 47.9072 76.8481 49.0124 76.277C46.9944 77.038 44.843 76.1343 44.0196 75.5872Z" fill="#949494"/>
<path d="M44.213 74.9533C47.7197 71.4415 52.273 71.6382 54.1113 72.1755C52.8845 79.7966 47.2338 79.6636 44.5617 78.6444C45.4155 77.3146 47.4952 76.0178 48.4283 75.5356C46.7245 76.1781 44.9082 75.4151 44.213 74.9533Z" fill="#6EBC30"/>
<path d="M46.0027 74.4348C49.3838 70.8663 53.6333 70.9256 55.3355 71.4013C53.9634 78.9566 48.6863 78.9926 46.2193 78.0662C47.0566 76.729 49.0385 75.3879 49.9248 74.8846C48.3135 75.5689 46.6387 74.8699 46.0027 74.4348Z" fill="#68AA0C"/>
<path d="M36.2823 92.026C33.417 85.6335 35.4094 82.2449 36.7638 81.3496C43.871 78.815 45.2377 88.3862 38.143 93.1972C38.5258 92.8143 39.2047 90.6111 38.9185 84.8587C38.9193 86.9153 37.1943 90.4414 36.2823 92.026Z" fill="#68AA0C"/>
<ellipse cx="51.7349" cy="58.3139" rx="17.3579" ry="3.25924" fill="#366C00" fill-opacity="0.75"/>
<path d="M64.2385 10.1458C62.2248 15.9867 56.7988 16.9918 56.7988 16.9918C56.7988 16.9918 53.2032 12.6869 55.1645 6.99779C57.2305 1.00503 62.6567 0 62.6567 0C62.6567 0 66.2784 4.22897 64.2385 10.1458Z" fill="#A4C400"/>
<path d="M62.6568 0C62.6568 0 61.2227 0.265835 59.5484 1.33811C60.4684 3.03501 61.6088 6.21827 60.2548 10.1457C59.2807 12.9712 57.5081 14.665 55.9375 15.6608C56.3983 16.5115 56.799 16.9916 56.799 16.9916C56.799 16.9916 62.2252 15.9866 64.2387 10.1456C66.2785 4.22897 62.6568 0 62.6568 0Z" fill="#A4C400"/>
<path d="M52.7642 30.8188C52.6747 30.8188 52.5835 30.8054 52.4936 30.7772C52.0163 30.6278 51.7506 30.1198 51.9 29.6426C52.1217 28.9339 57.3625 12.2154 59.9157 5.95442C60.1044 5.49144 60.6327 5.26907 61.0959 5.45788C61.559 5.64669 61.7813 6.1751 61.5923 6.6382C59.0679 12.8288 53.6821 30.0108 53.6279 30.1837C53.5068 30.5708 53.1496 30.8188 52.7642 30.8188Z" fill="#535353"/>
<path d="M52.7648 57.6048C52.2646 57.6048 51.8594 57.1995 51.8594 56.6994V29.4836C51.8594 28.9835 52.2646 28.5781 52.7648 28.5781C53.265 28.5781 53.6702 28.9835 53.6702 29.4836V56.6994C53.6702 57.1995 53.2648 57.6048 52.7648 57.6048Z" fill="#535353"/>
<path d="M58.8286 37.6064C55.5206 38.0765 53.0854 37.4008 53.0854 37.4008C53.0854 37.4008 50.9792 28.9495 57.561 22.3468C64.4938 15.392 72.7431 17.681 72.7431 17.681C72.7431 17.681 74.5526 24.5792 69.7574 30.9895" fill="#60A917"/>
<path d="M72.7427 17.6807C72.7427 17.6807 70.5308 17.0673 67.4353 17.441C68.2713 17.5458 68.7588 17.6807 68.7588 17.6807C68.7588 17.6807 70.5684 24.5789 65.7732 30.9892L54.8444 37.6061C54.7234 37.6233 54.6039 37.6385 54.4854 37.6527C55.5166 37.7798 57.0452 37.8595 58.8283 37.6061L69.7571 30.9892C74.5524 24.5787 72.7427 17.6807 72.7427 17.6807Z" fill="#60A917"/>
<path d="M45.1964 33.1727C51.068 37.8003 50.0661 44.4334 50.0661 44.4334C50.0661 44.4334 43.7264 46.8596 38.0074 42.3521C31.9834 37.6042 32.9853 30.9713 32.9853 30.9713C32.9853 30.9713 39.2487 28.485 45.1964 33.1727Z" fill="#A4C400"/>
<path d="M38.4626 23.6274C44.3742 31.1596 52.8352 29.8643 52.8352 29.8643C52.8352 29.8643 55.922 21.7218 50.1639 14.3853C44.0987 6.65759 35.6377 7.95272 35.6377 7.95272C35.6377 7.95272 32.4742 15.9975 38.4626 23.6274Z" fill="#60A917"/>
<path d="M52.7649 55.4394C52.2648 55.4394 51.8595 55.0341 51.8595 54.534C51.8595 49.2737 49.9155 44.7825 46.0815 41.1853C43.2106 38.4916 40.3372 37.3542 40.3086 37.3431C39.8426 37.1617 39.6119 36.6368 39.7935 36.1709C39.9748 35.705 40.4997 35.4742 40.9657 35.6557C41.0962 35.7066 44.1969 36.9339 47.3206 39.8648C50.2174 42.5827 53.6705 47.334 53.6705 54.5341C53.6704 55.0341 53.265 55.4394 52.7649 55.4394Z" fill="#535353"/>
<path d="M68.2281 41.0197C63.1554 44.527 58.191 42.1103 58.191 42.1103C58.191 42.1103 57.8384 36.5052 62.7794 33.089C67.984 29.4907 72.9482 31.9074 72.9482 31.9074C72.9482 31.9074 73.3667 37.467 68.2281 41.0197Z" fill="#A4C400"/>
<path d="M72.9485 31.907C72.9485 31.907 70.3609 30.6478 66.9635 31.3014C68.2028 31.5362 68.9646 31.907 68.9646 31.907C68.9646 31.907 69.383 37.4665 64.2444 41.0193C62.869 41.9702 61.5019 42.485 60.2393 42.7312C62.1548 43.0949 65.1716 43.1327 68.2283 41.0193C73.3671 37.4666 72.9485 31.907 72.9485 31.907Z" fill="#A4C400"/>
<path d="M52.763 55.4402C52.2825 55.4402 51.882 55.0624 51.8593 54.5773C51.8531 54.445 51.7256 51.2917 53.3136 47.3931C54.7745 43.8066 58.0271 38.8842 65.2262 35.7999C65.6859 35.603 66.2181 35.816 66.415 36.2756C66.612 36.7353 66.3989 37.2675 65.9393 37.4645C60.6132 39.7463 56.9296 43.3167 54.9909 48.0763C53.5517 51.6093 53.667 54.4641 53.6684 54.4924C53.6917 54.992 53.3059 55.4158 52.8063 55.4393C52.7917 55.44 52.7772 55.4402 52.763 55.4402Z" fill="#535353"/>
<path d="M52.457 30.3969C52.1272 30.3969 51.8091 30.2159 51.6492 29.9017C48.1866 23.0934 42.3351 17.157 42.2763 17.0978C41.9241 16.7428 41.9264 16.1695 42.2814 15.8174C42.6364 15.4651 43.2095 15.4675 43.5618 15.8224C43.8096 16.0722 49.6732 22.022 53.2633 29.0807C53.4899 29.5265 53.3123 30.0715 52.8667 30.2982C52.7353 30.3651 52.595 30.3969 52.457 30.3969Z" fill="#535353"/>
<path d="M53.0482 38.2621C52.8739 38.2621 52.6977 38.2118 52.5424 38.1069C52.1279 37.827 52.0189 37.2642 52.2986 36.8498C52.5481 36.4803 58.4903 27.7555 65.7204 23.5488C66.1526 23.2972 66.7067 23.4438 66.9583 23.876C67.2098 24.3083 67.0632 24.8624 66.631 25.1139C59.7557 29.1143 53.8582 37.7761 53.7995 37.863C53.6245 38.1223 53.3389 38.2621 53.0482 38.2621Z" fill="#535353"/>
</g>
<defs>
<clipPath id="clip0_25256_635417">
<rect width="125" height="102" fill="white"/>
</clipPath>
</defs>
</svg>
