<svg width="125" height="98" viewBox="0 0 125 98" fill="none" xmlns="http://www.w3.org/2000/svg">
<path d="M113.267 70.1381C117.567 70.9723 120.406 69.4162 121.288 68.5339L121.689 68.213L121.369 69.0152L119.283 75.753L118.561 75.5124C115.834 74.8707 109.337 76.3145 105.006 78.2396C100.674 80.1647 98.589 80.4053 92.5732 81.047C87.7606 81.5604 83.456 86.5015 81.9053 88.9079C79.2744 87.817 72.1999 92.464 68.9915 94.9238C63.1361 94.2019 60.4892 96.7687 57.5214 101.341C54.5536 105.913 49.7411 105.833 46.5326 106.956C43.3242 108.079 35.7043 103.106 31.4532 101.341C30.5548 98.1323 25.4641 98.0254 23.0311 98.373C19.5821 97.3302 14.6091 99.496 11.5611 99.8168C8.51309 100.138 2.49734 94.7634 4.34217 92.0362C5.81803 89.8544 0.625771 85.4587 -2.15485 83.5336C-2.76979 82.1968 -4.80177 79.8118 -8.01018 80.9668C-11.2186 82.1219 -13.2506 81.0738 -13.8655 80.4053L-14.828 75.5124L-15.951 68.1328L-15.7103 68.2932C-15.443 68.5071 -14.6676 69.2397 -13.7051 70.459C-12.5019 71.983 -7.20808 72.6247 -4.40073 72.9456C-1.59338 73.2664 4.90364 84.2556 7.22973 87.2234C9.55582 90.1913 20.0633 89.71 23.0311 89.8704C25.4053 89.9988 31.9344 92.972 34.9022 94.4426C37.1748 95.9399 42.5221 98.5013 45.7305 96.7687C49.7411 94.603 54.2328 96.0468 56.5589 95.2447C58.885 94.4426 62.9757 89.5496 63.5372 88.9079C64.0986 88.2662 70.5957 85.94 73.0822 84.9775C75.5687 84.0149 79.0979 78.3198 81.424 76.876C83.7501 75.4322 91.0492 76.9562 92.5732 75.5124C93.7924 74.3573 98.8029 71.983 101.156 70.9403C103.402 70.3253 108.968 69.3039 113.267 70.1381Z" fill="#B4543E" stroke="#B4543E"/>
<path d="M113.247 53.0111C118.901 53.3966 122.509 55.0992 123.607 55.9024C124.121 56.2255 124.41 57.1614 124.49 57.5889C124.555 61.1227 122.804 65.8077 121.921 67.7084C120.903 70.4123 118.74 76.6072 118.226 79.7555C117.584 83.6909 113.247 83.7712 112.283 83.8515C110.741 83.5302 108.107 85.4578 107.946 86.2609C107.786 87.064 105.564 89.0986 104.654 89.7144C103.112 91.4491 98.6035 92.2576 96.5422 92.445C95.5785 92.3808 94.0526 92.7395 93.4101 92.9269C91.6754 93.1197 84.9239 96.7016 81.765 98.4685C79.0023 100.525 73.1182 101.681 70.5215 102.002C69.4292 104.38 66.3185 107.223 64.8997 108.347C63.1007 110.146 59.385 111.185 57.752 111.479C55.8888 111.287 52.3176 113.541 50.765 114.692C49.9083 115.629 47.424 117.696 44.3401 118.467C41.2561 119.238 38.5577 118.413 37.5939 117.904C37.1442 117.455 35.2649 116.646 34.3815 116.298C33.2571 115.093 26.4307 114.451 25.5473 114.531C24.8406 114.596 22.5758 113.38 21.5317 112.764C21.9333 112.604 18.4799 110.114 17.8374 109.472C16.0385 108.701 13.1794 105.509 11.9747 104.01C10.8183 103.882 8.22688 102.779 7.07575 102.243C5.36245 101.28 1.75917 98.581 1.05243 95.4969C0.169006 91.6419 -0.955345 91.8025 -4.00717 91.8828C-6.44862 91.9471 -8.39749 90.4104 -9.06676 89.6341C-9.95018 88.2955 -11.8134 85.3935 -12.1989 84.494C-13.2911 83.3375 -14.2067 79.4075 -14.5279 77.587C-14.7688 75.9004 -15.2989 72.1578 -15.4917 70.6801C-16.8569 63.2912 -16.0538 59.5165 -15.8932 58.874C-16.6963 56.063 2.89958 53.5733 3.62238 53.4126C6.12808 53.2841 19.7114 51.0568 26.1898 49.9592C30.4463 49.2096 39.3768 47.6461 41.0473 47.3891C42.9748 46.8269 50.0422 46.6663 52.9333 46.345C55.9049 45.7025 70.3608 47.6301 73.0914 47.9513C75.1474 48.3368 86.7443 49.8253 92.2857 50.5214C97.7737 51.1639 109.649 52.5613 113.247 53.0111Z" fill="#B5553D"/>
<path fill-rule="evenodd" clip-rule="evenodd" d="M124.431 57.6817L124.576 57.6544C124.535 57.4354 124.441 57.0884 124.292 56.7541C124.144 56.4234 123.936 56.0913 123.659 55.9162C122.544 55.1016 118.922 53.3977 113.261 53.0114C109.661 52.5613 97.789 51.1643 92.3022 50.5219C86.7586 49.8256 75.1658 48.3376 73.113 47.9527L73.1103 47.9522L73.1076 47.9519C72.7897 47.9145 72.3123 47.8552 71.7123 47.7808C69.7383 47.5358 66.4364 47.126 63.1177 46.7872C60.9538 46.5663 58.7814 46.3754 56.9637 46.2799C55.1533 46.1848 53.6836 46.1836 52.9272 46.346C51.8703 46.4632 50.2561 46.559 48.5372 46.6611C47.9083 46.6984 47.2654 46.7366 46.6306 46.7769C45.4458 46.8522 44.2901 46.9351 43.3098 47.0344C42.3347 47.1332 41.527 47.2487 41.0367 47.3909C39.3519 47.6504 30.4342 49.2116 26.1828 49.9604C22.9438 50.5091 17.9289 51.3403 13.4107 52.0503C8.88931 52.7608 4.87257 53.3488 3.62507 53.4128L3.61835 53.4131L3.61176 53.4146C3.52823 53.4331 3.1714 53.4857 2.60194 53.5696L2.53846 53.579C1.93499 53.6679 1.1131 53.7894 0.149658 53.9394C-1.77712 54.2394 -4.27063 54.6537 -6.71681 55.151C-9.16208 55.6481 -11.5637 56.2288 -13.305 56.8622C-14.1747 57.1785 -14.8858 57.5101 -15.3555 57.8544C-15.4755 57.9423 -15.5817 58.0326 -15.6714 58.1253L-15.7854 58.015C-15.9761 58.2121 -16.0695 58.4838 -15.9906 58.8084C-15.9886 58.8638 -15.9798 58.9198 -15.9636 58.9763L-15.9387 58.9692C-15.9372 58.9732 -15.9356 58.9771 -15.9339 58.981C-15.772 59.3754 -15.366 59.8323 -14.6118 60.3362C-13.1018 61.3449 -10.1591 62.5656 -4.82416 63.8512C0.503639 65.135 3.13076 66.7625 4.2599 68.2588C4.82297 69.005 5.01327 69.718 4.98289 70.3424C4.95248 70.9679 4.70026 71.5106 4.36839 71.9141L4.36725 71.9155L4.36617 71.9169C3.58677 72.9561 3.41428 73.7819 3.53236 74.3977C3.65024 75.0122 4.05453 75.4007 4.39449 75.5707C11.7681 79.2415 24.2659 80.821 36.879 81.3075C49.4965 81.7942 62.2453 81.1877 70.132 80.478L70.135 80.4777L70.138 80.4772C71.1861 80.3026 72.3987 80.0096 73.5311 79.5935C74.6623 79.1778 75.7195 78.6369 76.4515 77.9634C77.185 77.2884 77.5992 76.4722 77.4182 75.5146C77.2385 74.5639 76.4755 73.4957 74.9119 72.3028C73.9402 71.5615 73.5052 70.9394 73.4707 70.4223C73.4369 69.9162 73.7876 69.4707 74.5052 69.0777C75.2198 68.6864 76.2733 68.3623 77.5842 68.0929C78.8937 67.8237 80.4542 67.61 82.1795 67.437C86.5877 66.9949 92.0562 66.8189 97.1395 66.6553C100.019 66.5626 102.775 66.4739 105.145 66.343C115.642 65.7634 122.404 60.3594 124.478 57.7189L124.431 57.6817ZM92.2825 50.6814C86.7455 49.9859 75.1526 48.498 73.0861 48.1111C72.7672 48.0735 72.2899 48.0143 71.6907 47.94C69.7162 47.6949 66.418 47.2856 63.1014 46.947C60.9385 46.7262 58.7691 46.5356 56.9552 46.4403C55.1373 46.3448 53.6877 46.3459 52.9571 46.5039L52.9531 46.5047L52.949 46.5052C51.8877 46.6231 50.2648 46.7194 48.5419 46.8217C47.914 46.859 47.2729 46.897 46.6408 46.9372C45.4564 47.0125 44.3032 47.0952 43.326 47.1942C42.3468 47.2934 41.5505 47.4083 41.0766 47.5465L41.0715 47.548L41.0663 47.5488C39.397 47.8057 30.4677 49.3689 26.2105 50.1186L26.21 50.1187C22.9706 50.6675 17.9548 51.4988 13.4356 52.209C8.92698 52.9175 4.90529 53.5066 3.63979 53.5728C3.5401 53.5938 3.18714 53.6458 2.64947 53.725L2.56187 53.7379C1.95848 53.8268 1.13714 53.9482 0.174362 54.0981C-1.75127 54.398 -4.24207 54.8119 -6.68481 55.3084C-9.12848 55.8052 -11.5204 56.384 -13.2501 57.0131C-14.1158 57.328 -14.8096 57.6534 -15.2606 57.9839C-15.6445 58.2653 -15.831 58.5333 -15.8298 58.7889C-15.8186 58.8313 -15.8039 58.875 -15.7854 58.92C-15.6412 59.2711 -15.2661 59.7059 -14.5225 60.2026C-13.0369 61.1951 -10.1169 62.4106 -4.78653 63.695C0.550972 64.9812 3.22436 66.6198 4.38811 68.162C4.97147 68.9351 5.1757 69.6845 5.14333 70.3502C5.11105 71.014 4.84381 71.5884 4.49361 72.0147C3.73195 73.0308 3.58338 73.8108 3.69012 74.3674C3.79713 74.9254 4.16382 75.2758 4.46634 75.427C11.8057 79.0808 24.2714 80.6604 36.8852 81.147C49.4931 81.6333 62.2333 81.0274 70.1146 80.3183C71.1539 80.1449 72.3554 79.8544 73.4757 79.4427C74.5982 79.0302 75.6331 78.4982 76.3427 77.8452C77.0508 77.1936 77.4277 76.4297 77.2603 75.5444C77.0917 74.6522 76.3669 73.6149 74.8144 72.4305C73.8386 71.686 73.35 71.0256 73.3104 70.433C73.2702 69.8296 73.695 69.3383 74.4281 68.9368C75.164 68.5338 76.2363 68.206 77.5518 67.9355C78.8688 67.6648 80.4353 67.4505 82.1634 67.2772C86.576 66.8346 92.0569 66.6581 97.1447 66.4943C100.022 66.4017 102.774 66.313 105.136 66.1826C115.584 65.6057 122.304 60.2263 124.352 57.6196L124.416 57.6697C124.375 57.4604 124.285 57.1336 124.145 56.8196C124 56.4956 123.807 56.1992 123.571 56.0507L123.569 56.0492L123.566 56.0475C122.484 55.2553 118.891 53.5563 113.248 53.1715L113.246 53.1714L113.244 53.1711C109.646 52.7214 97.7713 51.324 92.2832 50.6814L92.2825 50.6814Z" fill="#68AA0C"/>
<path d="M73.0861 48.1111C75.1526 48.498 86.7455 49.9859 92.2825 50.6814L92.2832 50.6814C97.7713 51.324 109.646 52.7214 113.244 53.1711L113.246 53.1714L113.248 53.1715C118.891 53.5563 122.484 55.2553 123.566 56.0475L123.569 56.0492L123.571 56.0507C123.807 56.1992 124 56.4956 124.145 56.8196C124.285 57.1336 124.375 57.4604 124.416 57.6697L124.352 57.6196C122.304 60.2263 115.584 65.6057 105.136 66.1826C102.774 66.313 100.022 66.4017 97.1447 66.4943C92.0569 66.6581 86.576 66.8346 82.1634 67.2772C80.4353 67.4505 78.8688 67.6648 77.5518 67.9355C76.2363 68.206 75.164 68.5338 74.4281 68.9368C73.695 69.3383 73.2702 69.8296 73.3104 70.433C73.35 71.0256 73.8386 71.686 74.8144 72.4305C76.3669 73.6149 77.0917 74.6522 77.2603 75.5444C77.4277 76.4297 77.0508 77.1936 76.3427 77.8452C75.6331 78.4982 74.5982 79.0302 73.4757 79.4427C72.3554 79.8544 71.1539 80.1449 70.1146 80.3183C62.2333 81.0274 49.4931 81.6333 36.8852 81.147C24.2714 80.6604 11.8057 79.0808 4.46634 75.427C4.16382 75.2758 3.79713 74.9254 3.69012 74.3674C3.58338 73.8108 3.73195 73.0308 4.49361 72.0147C4.84381 71.5884 5.11105 71.014 5.14333 70.3502C5.1757 69.6845 4.97147 68.9351 4.38811 68.162C3.22436 66.6198 0.550972 64.9812 -4.78653 63.695C-10.1169 62.4106 -13.0369 61.1951 -14.5225 60.2026C-15.2661 59.7059 -15.6412 59.2711 -15.7854 58.92C-15.8039 58.875 -15.8186 58.8313 -15.8298 58.7889C-15.831 58.5333 -15.6445 58.2653 -15.2606 57.9839C-14.8096 57.6534 -14.1158 57.328 -13.2501 57.0131C-11.5204 56.384 -9.12848 55.8052 -6.68481 55.3084C-4.24207 54.8119 -1.75127 54.398 0.174362 54.0981C1.13714 53.9482 1.95848 53.8268 2.56187 53.7379L2.64947 53.725C3.18714 53.6458 3.5401 53.5938 3.63979 53.5728C4.90529 53.5066 8.92698 52.9175 13.4356 52.209C17.9548 51.4988 22.9706 50.6675 26.21 50.1187L26.2105 50.1186C30.4677 49.3689 39.397 47.8057 41.0663 47.5488L41.0715 47.548L41.0766 47.5465C41.5505 47.4083 42.3468 47.2934 43.326 47.1942C44.3032 47.0952 45.4564 47.0125 46.6408 46.9372C47.2729 46.897 47.914 46.859 48.5419 46.8217C50.2648 46.7194 51.8877 46.6231 52.949 46.5052L52.9531 46.5047L52.9571 46.5039C53.6877 46.3459 55.1373 46.3448 56.9552 46.4403C58.7691 46.5356 60.9385 46.7262 63.1014 46.947C66.418 47.2856 69.7162 47.6949 71.6907 47.94C72.2899 48.0143 72.7672 48.0735 73.0861 48.1111Z" fill="#68AA0C"/>
<path d="M114.307 72.8734C114.82 72.9376 116.125 66.6971 116.713 63.5688V63.3281L116.392 63.5688L112.141 65.0928L109.173 65.8949L105.002 66.3762L92.5697 66.7773C88.6661 67.0446 80.089 67.6917 77.0089 68.1409C73.9289 68.5901 73.3193 69.9323 73.3995 70.5473C73.5064 70.9751 74.1855 72.1676 76.0464 73.5151C77.9073 74.8627 77.4634 76.7504 77.0089 77.5258C77.2014 79.1942 76.287 83.8358 75.8058 85.9481C75.2283 87.039 74.4957 91.0015 74.2016 92.8464C74.1374 94.6431 71.8755 99.4773 70.7525 101.67C74.1534 101.413 78.9072 99.3169 80.859 98.3008C80.8323 91.5897 80.7948 77.9589 80.859 77.1247C80.474 74.8787 81.1798 74.0499 81.5809 73.9162C81.7734 75.2638 82.784 78.007 83.2653 79.2102C85.1101 81.0551 84.5487 68.3013 84.7091 67.9002C84.8695 67.4992 93.3718 67.3388 95.2968 67.0981C96.8368 66.9056 102.409 67.1783 105.002 67.3388C106.157 73.7558 105.483 84.4508 105.002 88.9962C106.125 88.4347 107.328 86.4294 109.013 84.7449C110.36 83.3973 112.248 83.2743 113.023 83.3813C111.227 80.0444 112.542 71.8841 113.424 68.2211C113.745 68.4778 114.146 71.4296 114.307 72.8734Z" fill="#8A4130"/>
<path d="M62.6545 82.1743C62.847 82.3668 65.8361 81.2385 67.3066 80.6503H66.4243L60.7294 81.0513L52.7084 81.3722H41.3186L34.3403 81.1315L23.6724 80.2492L18.4587 79.5273L10.7586 77.8428L5.14386 75.9177L3.78028 74.9552L3.53965 74.0728L3.78028 72.8696L4.50217 71.9071L5.14386 70.6237L4.82302 69.0194L2.25629 66.2922L-1.75421 64.6077L-7.60954 63.0035L-13.5451 60.918V61.4795C-11.62 63.3404 -7.55607 64.3404 -5.76471 64.6077C-5.70054 65.6986 -4.18725 71.6397 -3.43862 74.4739C-1.89858 79.5433 -1.03232 80.5968 -0.791687 80.4898C0.363335 81.1315 0.86599 77.2279 0.972931 75.1958C2.38463 78.0193 3.75355 92.8961 4.26155 99.9815C7.21328 102.484 10.7853 103.324 12.2023 103.431C11.304 102.917 9.63562 99.0992 8.91373 97.2543C6.60368 93.3399 4.52891 81.292 3.78028 75.7573C5.19198 77.6824 8.11163 78.8589 9.39499 79.2064C10.935 80.2332 20.0362 80.9711 24.3943 81.2118C26.5118 82.816 25.8648 103.858 25.2766 114.179C30.2175 113.858 35.4098 116.238 37.3883 117.468C35.2066 106.431 36.2119 89.34 36.9872 82.1743L43.404 81.8535C43.6447 82.415 47.8958 96.2115 49.5802 97.6553C51.2646 99.0992 51.7459 95.0083 52.2272 93.8854C52.6122 92.987 53.564 90.7303 53.9918 89.7143C54.0559 88.8159 55.6227 87.4683 56.3981 86.9069C57.2964 88.6395 59.8204 88.3239 60.97 87.9496C62.8149 86.8266 62.4138 81.9337 62.6545 82.1743Z" fill="#8A4130"/>
<path d="M99.4642 75.4371C99.785 77.3622 99.1166 79.4478 98.7423 80.2499C96.0472 78.2607 96.6569 74.9826 97.2986 73.5922C97.8868 73.4051 99.1434 73.512 99.4642 75.4371Z" fill="#8A4130"/>
<path d="M65.776 99.8217C68.2786 98.7308 67.5139 93.9127 66.8187 91.64C66.4712 91.132 65.7439 90.2764 65.6156 90.9181C65.4873 91.5598 64.3857 92.8967 63.851 93.4849C63.4499 96.0517 63.2735 100.913 65.776 99.8217Z" fill="#8A4130"/>
<path d="M60.3217 101.426C61.1559 99.8217 61.7923 101.078 62.0061 101.907C62.2601 102.549 62.112 103.137 62.0061 103.351C61.0971 103.378 59.4875 103.03 60.3217 101.426Z" fill="#8A4130"/>
<path d="M-1.19936 84.9022C-0.557686 85.6081 0.351364 90.7042 0.725677 93.1641C0.78833 93.5668 0.644836 93.7062 0.565254 93.7256L0.324623 93.1641L-0.0764236 92.6026L-0.477478 92.2817L-1.27958 91.9609L-2.48273 91.8005L-3.60567 91.8807L-5.12965 91.8005L-4.40777 91.239C-3.60567 90.9983 -2.00146 84.0198 -1.19936 84.9022Z" fill="#8A4130"/>
<path d="M112.18 69.6128C106.803 67.5894 104.838 62.6924 104.527 60.4969C121.647 57.3156 119.778 69.4086 119.978 72.7135C118.168 72.4473 111.737 65.6427 110.783 64.8885C112.274 66.3792 112.335 68.6592 112.18 69.6128Z" fill="#68AA0C"/>
<path d="M106.389 47.5401C103.983 48.5141 101.183 52.0516 100.084 53.6987C100.078 55.2018 102.52 57.1088 103.742 57.8745C104.826 57.6933 107.464 56.1241 109.343 51.2965C107.019 51.3178 105.224 52.8292 104.617 53.5822C104.596 53.1396 104.921 51.3117 106.389 47.5401Z" fill="#6EBC30"/>
<path d="M105.634 48.1573C103.227 49.1313 100.427 52.6688 99.3277 54.3159C99.3218 55.819 101.764 57.726 102.986 58.4917C104.07 58.3105 106.708 56.7413 108.587 51.9136C106.263 51.935 104.468 53.4463 103.861 54.1994C103.84 53.7568 104.165 51.9289 105.634 48.1573Z" fill="#68AA0C"/>
<path d="M45.8554 40.9481C47.5907 42.8795 48.5541 47.287 48.8189 49.2494C48.1646 50.6026 45.1333 51.2444 43.6994 51.3961C42.8049 50.7576 41.1232 48.1899 41.5527 43.027C43.6323 44.0664 44.5819 46.2122 44.7968 47.1552C45.0099 46.7668 45.5199 44.9816 45.8554 40.9481Z" fill="#6EBC30"/>
<path d="M46.2578 41.8348C47.993 43.7662 48.9565 48.1738 49.2213 50.1361C48.5669 51.4893 45.5356 52.1311 44.1018 52.2828C43.2072 51.6443 41.5256 49.0766 41.9551 43.9137C44.0346 44.9531 44.9843 47.0989 45.1991 48.0419C45.4122 47.6535 45.9222 45.8683 46.2578 41.8348Z" fill="#68AA0C"/>
<path d="M-5.86623 50.1197C3.30459 44.2506 6.60588 54.5207 4.4962 58.7399C4.4962 61.1253 -2.01424 65.3417 -4.03169 60.2979C-5.64566 56.2629 -8.73904 55.0096 -10.084 54.8873C-7.51631 51.8052 -2.77835 52.1358 -0.730326 52.6864C-1.90412 50.6322 -4.64334 50.1193 -5.86623 50.1197Z" fill="#68AA0C"/>
<path fill-rule="evenodd" clip-rule="evenodd" d="M0.63556 48.5412C-1.04633 48.0744 -3.20859 48.4214 -5.86233 50.1197C-4.69816 50.1193 -2.15981 50.5841 -0.906014 52.401C0.213752 52.4134 1.21386 52.5744 1.90639 52.7606C0.7326 50.7064 -2.00663 50.1936 -3.22952 50.1939C-1.7989 49.2783 -0.511126 48.7555 0.63556 48.5412ZM0.477262 62.477C-0.286651 62.1464 -0.950068 61.4845 -1.39498 60.3722C-3.00894 56.3371 -6.10232 55.0838 -7.44727 54.9615C-6.02267 53.2515 -3.93002 52.592 -1.99935 52.4378C-4.3423 52.1232 -7.9547 52.3361 -10.0801 54.8873C-8.73513 55.0096 -5.64175 56.2629 -4.02779 60.2979C-3.11033 62.5917 -1.26371 62.9703 0.477262 62.477Z" fill="#6EBC30"/>
<path d="M83.8381 73.5144C78.4609 71.491 76.4959 66.594 76.1855 64.3985C84.8095 62.0564 87.3652 68.0806 87.5651 71.3855C85.7551 71.1193 83.395 69.5443 82.4412 68.7901C83.9318 70.2808 83.9936 72.5608 83.8381 73.5144Z" fill="#68AA0C"/>
<path opacity="0.2" d="M44.0177 71.5872C48.1711 67.4277 53.5644 67.6607 55.7418 68.2972C54.2887 77.324 47.5956 77.1664 44.4307 75.9593C45.442 74.3842 47.9052 72.8481 49.0104 72.277C46.9924 73.038 44.8411 72.1343 44.0177 71.5872Z" fill="#949494"/>
<path d="M44.2111 70.9533C47.7177 67.4415 52.271 67.6382 54.1094 68.1755C52.8826 75.7966 47.2318 75.6636 44.5598 74.6444C45.4136 73.3146 47.4932 72.0178 48.4263 71.5356C46.7226 72.1781 44.9062 71.4151 44.2111 70.9533Z" fill="#6EBC30"/>
<path d="M46.0007 70.4348C49.3818 66.8663 53.6314 66.9256 55.3335 67.4013C53.9614 74.9566 48.6844 74.9926 46.2173 74.0662C47.0547 72.729 49.0366 71.3879 49.9229 70.8846C48.3116 71.5689 46.6367 70.8699 46.0007 70.4348Z" fill="#68AA0C"/>
<path d="M36.2823 88.026C33.417 81.6335 35.4094 78.2449 36.7638 77.3496C43.871 74.815 45.2377 84.3862 38.143 89.1972C38.5258 88.8143 39.2047 86.6111 38.9185 80.8587C38.9193 82.9153 37.1943 86.4414 36.2823 88.026Z" fill="#68AA0C"/>
<ellipse cx="48.9991" cy="51.6733" rx="13.9679" ry="3.25924" fill="#366C00" fill-opacity="0.75"/>
<g clip-path="url(#clip0_25001_322322)">
<path d="M66.5682 9.45188C66.627 8.89113 66.4216 8.37598 66.0612 8.01562L47.2422 26.8347C57.2822 26.8347 65.5439 19.2206 66.5682 9.45188Z" fill="#64AD36"/>
<path d="M65.968 8.85306C66.1818 8.44736 66.199 8.15474 66.0612 8.01693C65.7009 7.65658 65.1857 7.45115 64.625 7.50998C54.8562 8.5342 47.2422 16.7959 47.2422 26.836C54.1814 23.7352 62.2431 15.9211 65.968 8.85306Z" fill="#75C231"/>
<path d="M32.4581 7.50784C32.3448 7.49721 32.234 7.49843 32.125 7.5053L47.147 25.4663C47.1502 25.4669 47.1502 50.625 47.1502 50.625H50.875V25.7677C50.875 16.2815 42.808 8.47556 32.4581 7.50784Z" fill="#64AD36"/>
<path d="M33.1067 7.51051C33.0911 7.50852 33.076 7.50922 33.0605 7.50781C32.6241 7.53863 32.2304 7.7259 31.9388 8.01746C31.5785 8.37781 31.373 8.89297 31.4319 9.45371C32.3335 18.0534 38.8443 24.9819 47.2392 26.5175C47.1094 16.6221 40.9662 8.52383 33.1067 7.51051Z" fill="#75C231"/>
</g>
<defs>
<clipPath id="clip0_25001_322322">
<rect width="60" height="60" fill="white" transform="translate(19)"/>
</clipPath>
</defs>
</svg>
