<svg width="213" height="200" viewBox="0 0 213 200" fill="none" xmlns="http://www.w3.org/2000/svg">
<path d="M195.591 126.928C202.049 128.181 206.314 125.844 207.64 124.518L208.242 124.037L207.76 125.241L204.628 135.363L203.543 135.001C199.446 134.037 189.687 136.206 183.18 139.098C176.674 141.99 173.541 142.351 164.505 143.315C157.275 144.086 150.809 151.509 148.48 155.124C144.528 153.485 133.9 160.465 129.081 164.161C120.285 163.076 116.309 166.932 111.851 173.8C107.393 180.668 100.163 180.547 95.3438 182.234C90.5243 183.921 79.0778 176.451 72.6919 173.8C71.3424 168.98 63.6953 168.82 60.0405 169.342C54.8595 167.775 47.3891 171.029 42.8105 171.511C38.232 171.993 29.1953 163.92 31.9665 159.823C34.1835 156.545 26.3839 149.942 22.2069 147.051C21.2832 145.042 18.2308 141.46 13.4112 143.195C8.59163 144.93 5.53923 143.355 4.61548 142.351L3.16962 135.001L1.48277 123.916L1.84424 124.157C2.24586 124.478 3.4106 125.579 4.85646 127.41C6.6638 129.7 14.6161 130.664 18.8332 131.146C23.0503 131.628 32.81 148.135 36.3041 152.593C39.7983 157.051 55.5824 156.328 60.0405 156.569C63.607 156.762 73.4148 161.229 77.8729 163.438C81.2868 165.687 89.3194 169.534 94.1389 166.932C100.163 163.679 106.911 165.847 110.405 164.642C113.899 163.438 120.044 156.088 120.888 155.124C121.731 154.16 131.491 150.665 135.226 149.219C138.961 147.774 144.262 139.219 147.757 137.05C151.251 134.881 162.215 137.17 164.505 135.001C166.336 133.266 173.863 129.7 177.397 128.133C180.771 127.209 189.133 125.675 195.591 126.928Z" fill="#B4543E" stroke="#B4543E"/>
<path d="M195.563 101.201C204.056 101.78 209.477 104.338 211.125 105.544C211.898 106.03 212.332 107.436 212.452 108.078C212.549 113.386 209.919 120.424 208.592 123.279C207.064 127.341 203.815 136.646 203.043 141.376C202.077 147.287 195.563 147.408 194.115 147.529C191.799 147.046 187.842 149.941 187.6 151.148C187.359 152.354 184.021 155.411 182.654 156.336C180.338 158.942 173.566 160.156 170.469 160.438C169.022 160.341 166.73 160.88 165.764 161.161C163.159 161.451 153.017 166.832 148.272 169.486C144.122 172.574 135.283 174.312 131.382 174.794C129.741 178.365 125.068 182.636 122.937 184.325C120.235 187.027 114.653 188.588 112.2 189.03C109.401 188.741 104.037 192.127 101.704 193.856C100.417 195.263 96.6855 198.368 92.0529 199.526C87.4203 200.684 83.3668 199.446 81.9191 198.682C81.2435 198.006 78.4205 196.792 77.0935 196.269C75.4045 194.459 65.15 193.494 63.823 193.615C62.7613 193.711 59.3593 191.885 57.7909 190.96C58.3941 190.719 53.2066 186.979 52.2415 186.014C49.5391 184.856 45.2443 180.062 43.4347 177.81C41.6975 177.617 37.8048 175.96 36.0756 175.156C33.5019 173.708 28.0892 169.655 27.0275 165.022C25.7005 159.231 24.0115 159.472 19.4272 159.593C15.7597 159.69 12.8321 157.381 11.8268 156.215C10.4997 154.204 7.70087 149.845 7.1218 148.494C5.48108 146.756 4.10576 140.853 3.6232 138.118C3.26128 135.585 2.46506 129.963 2.17551 127.743C0.124619 116.644 1.33104 110.973 1.57233 110.008C0.365921 105.786 29.8023 102.046 30.888 101.804C34.652 101.611 55.0564 98.2656 64.7881 96.6167C71.1821 95.4907 84.5973 93.1422 87.1067 92.7561C90.0021 91.9116 100.618 91.6704 104.962 91.1878C109.425 90.2226 131.141 93.1181 135.242 93.6007C138.331 94.1797 155.751 96.4157 164.076 97.4613C172.319 98.4264 190.158 100.526 195.563 101.201Z" fill="#B5553D"/>
<path fill-rule="evenodd" clip-rule="evenodd" d="M212.356 108.217L212.574 108.176C212.512 107.847 212.371 107.326 212.147 106.824C211.925 106.327 211.612 105.828 211.196 105.565C209.521 104.342 204.08 101.782 195.578 101.202C190.168 100.526 172.335 98.4271 164.093 97.4622C155.766 96.4162 138.351 94.1809 135.268 93.6027L135.264 93.602L135.26 93.6015C134.782 93.5453 134.065 93.4563 133.164 93.3445C130.198 92.9765 125.238 92.3609 120.253 91.852C117.003 91.5201 113.739 91.2334 111.009 91.0899C108.289 90.9471 106.082 90.9452 104.945 91.1892C103.358 91.3653 100.933 91.5092 98.3507 91.6625C97.406 91.7186 96.4402 91.7759 95.4867 91.8365C93.7069 91.9496 91.9709 92.0741 90.4982 92.2233C89.0336 92.3716 87.8203 92.5452 87.0837 92.7588C84.5529 93.1487 71.157 95.4939 64.7706 96.6186C59.905 97.4429 52.3718 98.6914 45.5847 99.758C38.7928 100.825 32.759 101.709 30.885 101.805L30.8749 101.805L30.8651 101.807C30.7396 101.835 30.2036 101.914 29.3481 102.04L29.2528 102.054C28.3463 102.188 27.1116 102.37 25.6644 102.596C22.77 103.046 19.0244 103.669 15.3498 104.416C11.6766 105.163 8.06895 106.035 5.45322 106.986C4.14668 107.461 3.07857 107.96 2.37296 108.477C2.19278 108.609 2.03316 108.744 1.8985 108.884L1.72726 108.718C1.44069 109.014 1.30051 109.422 1.41902 109.91C1.42198 109.993 1.43526 110.077 1.4595 110.162L1.49689 110.151C1.49924 110.157 1.50165 110.163 1.50407 110.169C1.74741 110.761 2.35722 111.448 3.49022 112.205C5.75844 113.72 10.1789 115.554 18.1929 117.485C26.1961 119.413 30.1425 121.858 31.8387 124.106C32.6845 125.227 32.9704 126.298 32.9247 127.236C32.879 128.175 32.5002 128.991 32.0016 129.597L31.9999 129.599L31.9983 129.601C30.8275 131.162 30.5684 132.402 30.7458 133.327C30.9229 134.251 31.5302 134.834 32.0408 135.09C43.1172 140.604 61.891 142.976 80.8381 143.707C99.7918 144.438 118.943 143.527 130.79 142.461L130.794 142.461L130.799 142.46C132.373 142.198 134.195 141.757 135.896 141.132C137.595 140.508 139.183 139.695 140.283 138.684C141.385 137.67 142.007 136.444 141.735 135.005C141.465 133.577 140.319 131.972 137.97 130.181C136.51 129.067 135.857 128.132 135.805 127.356C135.754 126.595 136.281 125.926 137.359 125.336C138.433 124.748 140.015 124.261 141.984 123.857C143.951 123.452 146.296 123.131 148.887 122.871C155.509 122.207 163.724 121.943 171.36 121.697C175.685 121.558 179.825 121.425 183.385 121.228C199.154 120.357 209.311 112.24 212.427 108.273L212.356 108.217ZM164.064 97.7016C155.746 96.6569 138.332 94.4218 135.227 93.8407C134.748 93.7843 134.031 93.6953 133.131 93.5836C130.165 93.2155 125.211 92.6006 120.229 92.092C116.98 91.7603 113.721 91.474 110.996 91.3309C108.265 91.1875 106.088 91.1891 104.99 91.4264L104.984 91.4277L104.978 91.4283C103.384 91.6055 100.946 91.7502 98.3577 91.9038C97.4146 91.9598 96.4515 92.0169 95.502 92.0773C93.7229 92.1904 91.9905 92.3147 90.5226 92.4634C89.0517 92.6123 87.8555 92.785 87.1436 92.9926L87.136 92.9948L87.1282 92.996C84.6205 93.3818 71.2072 95.73 64.8122 96.8562L64.8114 96.8564C59.9453 97.6808 52.4108 98.9296 45.6221 99.9964C38.8494 101.061 32.8082 101.946 30.9072 102.045C30.7574 102.077 30.2272 102.155 29.4195 102.274L29.2879 102.293C28.3815 102.427 27.1477 102.609 25.7015 102.834C22.8089 103.285 19.0673 103.906 15.3978 104.652C11.727 105.399 8.1339 106.268 5.53569 107.213C4.23524 107.686 3.19308 108.175 2.51558 108.671C1.9389 109.094 1.65865 109.497 1.66048 109.881C1.67735 109.944 1.69946 110.01 1.72725 110.077C1.94386 110.605 2.50728 111.258 3.62424 112.004C5.85591 113.495 10.2422 115.321 18.2494 117.25C26.2672 119.182 30.2831 121.644 32.0313 123.96C32.9076 125.122 33.2144 126.247 33.1657 127.247C33.1172 128.245 32.7158 129.107 32.1897 129.748C31.0456 131.274 30.8224 132.446 30.9828 133.282C31.1435 134.12 31.6943 134.646 32.1488 134.874C43.1738 140.362 61.8993 142.735 80.8474 143.466C99.7866 144.197 118.925 143.286 130.764 142.221C132.325 141.961 134.13 141.524 135.813 140.906C137.499 140.286 139.053 139.487 140.119 138.506C141.183 137.527 141.749 136.38 141.498 135.05C141.244 133.71 140.156 132.152 137.824 130.372C136.358 129.254 135.624 128.262 135.564 127.372C135.504 126.465 136.142 125.727 137.243 125.124C138.349 124.519 139.959 124.026 141.936 123.62C143.914 123.214 146.267 122.892 148.863 122.631C155.491 121.966 163.725 121.701 171.368 121.455C175.69 121.316 179.824 121.183 183.372 120.987C199.066 120.12 209.161 112.04 212.237 108.124L212.333 108.199C212.272 107.885 212.137 107.394 211.926 106.922C211.709 106.436 211.419 105.99 211.064 105.767L211.061 105.765L211.057 105.762C209.431 104.572 204.034 102.02 195.558 101.442L195.554 101.442L195.551 101.442C190.147 100.766 172.309 98.6669 164.065 97.7018L164.064 97.7016Z" fill="#68AA0C"/>
<path d="M135.227 93.8407C138.332 94.4218 155.746 96.6569 164.064 97.7016L164.065 97.7018C172.309 98.6669 190.147 100.766 195.551 101.442L195.554 101.442L195.558 101.442C204.034 102.02 209.431 104.572 211.057 105.762L211.061 105.765L211.064 105.767C211.419 105.99 211.709 106.436 211.926 106.922C212.137 107.394 212.272 107.885 212.333 108.199L212.237 108.124C209.161 112.04 199.066 120.12 183.372 120.987C179.824 121.183 175.69 121.316 171.368 121.455C163.725 121.701 155.491 121.966 148.863 122.631C146.267 122.892 143.914 123.214 141.936 123.62C139.959 124.026 138.349 124.519 137.243 125.124C136.142 125.727 135.504 126.465 135.564 127.372C135.624 128.262 136.358 129.254 137.824 130.372C140.156 132.152 141.244 133.71 141.498 135.05C141.749 136.38 141.183 137.527 140.119 138.506C139.053 139.487 137.499 140.286 135.813 140.906C134.13 141.524 132.325 141.961 130.764 142.221C118.925 143.286 99.7866 144.197 80.8474 143.466C61.8993 142.735 43.1738 140.362 32.1488 134.874C31.6943 134.646 31.1435 134.12 30.9828 133.282C30.8224 132.446 31.0456 131.274 32.1897 129.748C32.7158 129.107 33.1172 128.245 33.1657 127.247C33.2144 126.247 32.9076 125.122 32.0313 123.96C30.2831 121.644 26.2672 119.182 18.2494 117.25C10.2422 115.321 5.85591 113.495 3.62424 112.004C2.50728 111.258 1.94386 110.605 1.72725 110.077C1.69946 110.01 1.67735 109.944 1.66048 109.881C1.65865 109.497 1.9389 109.094 2.51558 108.671C3.19308 108.175 4.23524 107.686 5.53569 107.213C8.1339 106.268 11.727 105.399 15.3978 104.652C19.0673 103.906 22.8089 103.285 25.7015 102.834C27.1477 102.609 28.3815 102.427 29.2879 102.293L29.4195 102.274C30.2272 102.155 30.7574 102.077 30.9072 102.045C32.8082 101.946 38.8494 101.061 45.6221 99.9964C52.4108 98.9296 59.9453 97.6808 64.8114 96.8564L64.8122 96.8562C71.2072 95.73 84.6205 93.3818 87.1282 92.996L87.136 92.9948L87.1436 92.9926C87.8555 92.785 89.0517 92.6123 90.5226 92.4634C91.9905 92.3147 93.7229 92.1904 95.502 92.0773C96.4515 92.0169 97.4146 91.9598 98.3577 91.9038C100.946 91.7502 103.384 91.6055 104.978 91.4283L104.984 91.4277L104.99 91.4264C106.088 91.1891 108.265 91.1875 110.996 91.3309C113.721 91.474 116.98 91.7603 120.229 92.092C125.211 92.6006 130.165 93.2155 133.131 93.5836C134.031 93.6953 134.748 93.7843 135.227 93.8407Z" fill="#68AA0C"/>
<path d="M197.151 131.02C197.922 131.117 199.882 121.742 200.766 117.043V116.682L200.284 117.043L193.898 119.332L189.44 120.537L183.174 121.26L164.498 121.863C158.635 122.264 145.75 123.236 141.124 123.911C136.497 124.586 135.581 126.602 135.701 127.526C135.862 128.169 136.882 129.96 139.678 131.984C142.473 134.008 141.806 136.844 141.124 138.009C141.413 140.515 140.039 147.488 139.316 150.661C138.449 152.299 137.348 158.252 136.906 161.023C136.81 163.722 133.412 170.984 131.725 174.277C136.834 173.891 143.975 170.743 146.907 169.216C146.867 159.135 146.811 138.659 146.907 137.406C146.329 134.033 147.389 132.787 147.991 132.587C148.281 134.611 149.799 138.732 150.522 140.539C153.293 143.31 152.449 124.152 152.69 123.55C152.931 122.947 165.703 122.706 168.595 122.345C170.908 122.056 179.278 122.465 183.174 122.706C184.909 132.346 183.897 148.411 183.174 155.239C184.861 154.396 186.668 151.383 189.199 148.853C191.223 146.829 194.058 146.644 195.223 146.805C192.524 141.792 194.5 129.534 195.826 124.032C196.308 124.417 196.91 128.851 197.151 131.02Z" fill="#8A4130"/>
<path d="M119.562 145.001C119.852 145.29 124.342 143.595 126.551 142.711H125.225L116.671 143.314L104.622 143.796H87.5123L77.0297 143.434L61.0047 142.109L53.1729 141.025L41.6059 138.494L33.1717 135.602L31.1234 134.156L30.7619 132.831L31.1234 131.024L32.2078 129.578L33.1717 127.65L32.6897 125.24L28.8341 121.143L22.8096 118.613L14.0139 116.203L5.09769 113.07V113.914C7.98943 116.709 14.0942 118.211 16.7851 118.613C16.8815 120.252 19.1548 129.176 20.2793 133.434C22.5927 141.049 23.894 142.631 24.2555 142.47C25.9905 143.434 26.7456 137.57 26.9062 134.518C29.0268 138.759 31.0832 161.107 31.8463 171.75C36.2803 175.51 41.6461 176.771 43.7747 176.931C42.4252 176.16 39.9191 170.425 38.8347 167.653C35.3646 161.773 32.2479 143.675 31.1234 135.361C33.244 138.253 37.6298 140.02 39.5576 140.543C41.871 142.085 55.5425 143.193 62.0891 143.555C65.27 145.965 64.298 177.574 63.4145 193.077C70.8366 192.595 78.6363 196.17 81.6083 198.018C78.331 181.438 79.8411 155.765 81.0059 145.001L90.645 144.519C91.0065 145.362 97.3924 166.087 99.9227 168.256C102.453 170.425 103.176 164.28 103.899 162.593C104.477 161.243 105.907 157.853 106.55 156.327C106.646 154.978 109 152.953 110.164 152.11C111.514 154.713 115.305 154.239 117.032 153.676C119.803 151.989 119.201 144.639 119.562 145.001Z" fill="#8A4130"/>
<path d="M174.855 134.89C175.337 137.782 174.333 140.915 173.771 142.12C169.722 139.132 170.638 134.208 171.602 132.119C172.486 131.838 174.373 131.998 174.855 134.89Z" fill="#8A4130"/>
<path d="M124.25 171.52C128.009 169.881 126.86 162.644 125.816 159.23C125.294 158.467 124.202 157.181 124.009 158.145C123.816 159.109 122.161 161.117 121.358 162.001C120.756 165.857 120.491 173.159 124.25 171.52Z" fill="#8A4130"/>
<path d="M116.057 173.93C117.31 171.52 118.266 173.408 118.587 174.653C118.968 175.617 118.746 176.5 118.587 176.822C117.221 176.862 114.804 176.34 116.057 173.93Z" fill="#8A4130"/>
<path d="M23.6414 149.108C24.6053 150.169 25.9709 157.824 26.5332 161.519C26.6273 162.124 26.4117 162.333 26.2922 162.363L25.9307 161.519L25.3283 160.676L24.7258 160.194L23.5209 159.712L21.7136 159.471L20.0267 159.591L17.7375 159.471L18.8219 158.627C20.0267 158.266 22.4365 147.783 23.6414 149.108Z" fill="#8A4130"/>
<path d="M193.96 126.139C185.883 123.1 182.931 115.744 182.465 112.446C208.181 107.667 205.375 125.833 205.675 130.797C202.956 130.397 193.295 120.176 191.862 119.043C194.101 121.282 194.194 124.707 193.96 126.139Z" fill="#68AA0C"/>
<path d="M185.244 92.981C181.628 94.444 177.422 99.758 175.771 102.232C175.762 104.49 179.431 107.355 181.266 108.505C182.895 108.233 186.857 105.876 189.681 98.6237C186.189 98.6557 183.493 100.926 182.581 102.057C182.549 101.392 183.038 98.6465 185.244 92.981Z" fill="#6EBC30"/>
<path d="M184.111 93.9088C180.496 95.3718 176.29 100.686 174.639 103.16C174.63 105.418 178.298 108.283 180.134 109.433C181.762 109.161 185.724 106.803 188.548 99.5514C185.056 99.5834 182.36 101.854 181.448 102.985C181.417 102.32 181.905 99.5743 184.111 93.9088Z" fill="#68AA0C"/>
<path d="M94.3143 83.0641C96.921 85.9654 98.3682 92.5862 98.766 95.534C97.7831 97.5667 93.2296 98.5308 91.0757 98.7587C89.7319 97.7996 87.2058 93.9424 87.8509 86.1869C90.9748 87.7483 92.4013 90.9717 92.7241 92.3882C93.0441 91.8047 93.8103 89.123 94.3143 83.0641Z" fill="#6EBC30"/>
<path d="M94.9237 84.4039C97.5303 87.3052 98.9776 93.9261 99.3754 96.8738C98.3925 98.9066 93.8389 99.8706 91.685 100.099C90.3413 99.1394 87.8151 95.2823 88.4603 87.5267C91.5842 89.0881 93.0107 92.3115 93.3334 93.728C93.6535 93.1446 94.4197 90.4629 94.9237 84.4039Z" fill="#68AA0C"/>
<path d="M16.6366 96.8552C30.4127 88.0389 35.3718 103.466 32.2027 109.804C32.2027 113.387 22.4229 119.721 19.3924 112.145C16.9679 106.083 12.3211 104.201 10.3008 104.017C14.1579 99.3872 21.2751 99.8838 24.3516 100.711C22.5883 97.6251 18.4735 96.8547 16.6366 96.8552Z" fill="#68AA0C"/>
<path fill-rule="evenodd" clip-rule="evenodd" d="M26.3757 94.4795C23.8526 93.7882 20.6124 94.314 16.6385 96.8572C18.3852 96.8567 22.1911 97.5531 24.0769 100.274C25.7594 100.293 27.2622 100.535 28.3027 100.814C26.5395 97.7286 22.4247 96.9582 20.5877 96.9587C22.7293 95.5882 24.6577 94.8036 26.3757 94.4795ZM26.1721 115.417C25.0178 114.923 24.015 113.927 23.3435 112.248C20.9191 106.187 16.2723 104.304 14.252 104.121C16.3814 101.564 19.5046 100.571 22.3928 100.333C18.8721 99.8698 13.4808 100.204 10.3027 104.019C12.3231 104.203 16.9699 106.085 19.3943 112.147C20.7743 115.597 23.5538 116.162 26.1721 115.417Z" fill="#6EBC30"/>
<path d="M151.382 131.988C143.305 128.948 140.353 121.592 139.887 118.294C152.841 114.776 156.681 123.825 156.981 128.79C154.262 128.39 150.717 126.024 149.284 124.891C151.523 127.13 151.616 130.555 151.382 131.988Z" fill="#68AA0C"/>
<path opacity="0.2" d="M91.562 129.079C97.8012 122.831 105.903 123.181 109.174 124.137C106.991 137.696 96.9367 137.46 92.1824 135.646C93.7016 133.28 97.4018 130.973 99.062 130.115C96.0306 131.258 92.7989 129.901 91.562 129.079Z" fill="#949494"/>
<path d="M91.8631 128.135C97.1306 122.859 103.971 123.155 106.732 123.962C104.889 135.41 96.4007 135.21 92.3869 133.679C93.6695 131.682 96.7934 129.734 98.1951 129.009C95.6357 129.975 92.9073 128.828 91.8631 128.135Z" fill="#6EBC30"/>
<path d="M94.5547 127.354C99.6337 121.993 106.017 122.082 108.574 122.797C106.513 134.146 98.586 134.2 94.8801 132.809C96.1379 130.8 99.1151 128.785 100.446 128.029C98.026 129.057 95.5101 128.007 94.5547 127.354Z" fill="#68AA0C"/>
<path d="M79.9472 153.784C75.6429 144.181 78.6359 139.091 80.6704 137.746C91.3467 133.939 93.3997 148.316 82.7422 155.543C83.3173 154.968 84.3371 151.658 83.9072 143.017C83.9083 146.107 81.3171 151.403 79.9472 153.784Z" fill="#68AA0C"/>
<ellipse cx="89.8326" cy="113.066" rx="30.5983" ry="7.26374" fill="#366C00" fill-opacity="0.75"/>
<ellipse cx="104.514" cy="113.066" rx="30.5983" ry="7.26374" fill="#366C00" fill-opacity="0.75"/>
<path d="M148.65 54.1868C148.65 46.3662 143.894 39.6564 137.117 36.7918C138.313 34.4781 138.994 31.8539 138.994 29.0694C138.994 19.7713 131.456 12.2335 122.158 12.2335C119.509 12.2335 117.004 12.8472 114.774 13.9374C112.793 6.84413 106.288 1.63867 98.5626 1.63867C90.8372 1.63867 84.332 6.84413 82.3507 13.9376C80.1212 12.8474 77.616 12.2338 74.967 12.2338C65.6692 12.2338 58.1316 19.7713 58.1316 29.0696C58.1316 31.8541 58.8118 34.4783 60.0085 36.792C53.2314 39.6566 48.4756 46.3664 48.4756 54.1871C48.4756 64.3225 56.466 72.581 66.4897 73.0332C67.8872 78.0952 73.2839 81.8687 79.7331 81.8687C83.3885 81.8687 86.704 80.6547 89.1478 78.6832C91.5914 80.6547 94.9072 81.8687 98.5626 81.8687C102.218 81.8687 105.533 80.6547 107.977 78.6832C110.421 80.6547 113.737 81.8687 117.392 81.8687C123.841 81.8687 129.238 78.095 130.635 73.0332C140.659 72.5808 148.65 64.3223 148.65 54.1868Z" fill="#60A917"/>
<path d="M97.5533 1.67195C97.346 1.68432 97.1395 1.69939 96.9345 1.7194C96.8717 1.72547 96.8092 1.73244 96.7465 1.73919C96.5261 1.76302 96.3069 1.79046 96.089 1.82284C96.0483 1.82891 96.0074 1.83476 95.9667 1.84105C95.7074 1.88153 95.4499 1.9265 95.1947 1.97845C95.1943 1.97845 95.1938 1.97867 95.1934 1.97867C99.6128 2.87747 103.751 5.95568 106.372 9.83577C108.229 12.5834 111.4 14.1672 114.709 13.9423C114.731 13.9407 114.753 13.9394 114.775 13.9378C112.794 6.84413 106.288 1.63867 98.5631 1.63867C98.2924 1.63867 98.0235 1.64654 97.7557 1.65936C97.688 1.66251 97.6207 1.6679 97.5533 1.67195Z" fill="#A4C400"/>
<path d="M137.116 36.7926C138.313 34.4789 138.993 31.8547 138.993 29.0702C138.993 19.7722 131.456 12.2344 122.158 12.2344C121.004 12.2344 119.878 12.3511 118.789 12.5726C126.472 14.1341 132.254 20.9266 132.254 29.0702C132.254 31.8547 131.573 34.4789 130.377 36.7926C137.154 39.6572 141.91 46.367 141.91 54.1877C141.91 64.3231 133.919 72.5816 123.896 73.0336C122.75 77.1824 118.918 80.4641 114.021 81.5138C115.099 81.7452 116.228 81.8693 117.392 81.8693C123.841 81.8693 129.238 78.0956 130.635 73.0338C140.659 72.5819 148.649 64.3234 148.649 54.1879C148.649 46.367 143.894 39.6574 137.116 36.7926Z" fill="#A4C400"/>
<path d="M86.5082 75.8934C84.9899 78.4686 78.6976 81.3482 76.3643 81.512C76.621 81.567 76.8812 81.6152 77.1434 81.6579C77.1645 81.6613 77.1855 81.6651 77.2066 81.6685C77.4726 81.7107 77.7411 81.7469 78.0123 81.7759C78.0192 81.7766 78.0262 81.7771 78.0332 81.778C78.2772 81.8038 78.5238 81.8223 78.7718 81.8371C78.8323 81.8407 78.8926 81.8441 78.9533 81.847C79.2117 81.8594 79.4714 81.8677 79.7336 81.8677C83.0674 81.8677 86.1163 80.8556 88.4811 79.1823L88.8958 78.8808L86.7841 75.416L86.5082 75.8934Z" fill="#009000"/>
<path d="M106.981 80.1929L114.194 68.811C114.764 67.9106 114.592 66.7287 113.787 66.0291C112.929 65.2821 111.637 65.3309 110.838 66.1407L105.526 71.5186C104.821 72.2319 103.614 71.6387 103.748 70.6452L105.31 59.0717C105.477 57.8352 104.563 56.7153 103.318 56.6312L101.855 56.5323C100.755 56.4581 99.7764 57.2249 99.5855 58.3103L96.7974 74.152C96.6422 75.0331 95.5236 75.3238 94.9592 74.6296L86.2269 63.8902C85.6227 63.147 84.6007 62.8913 83.7179 63.2626L82.1891 63.9053C80.9786 64.4141 80.4997 65.8773 81.1752 67.0033L90.1487 81.961C91.4482 84.1271 91.984 86.6684 91.6591 89.1734C90.4961 98.1429 89.0516 106.602 83.1398 113.493H113.987C107.659 106.116 106.098 96.9426 105.26 87.2694C105.045 84.7856 105.646 82.2987 106.981 80.1929Z" fill="#BF6101"/>
<path d="M114.194 68.8111C114.764 67.9107 114.592 66.7288 113.787 66.0292C112.929 65.2822 111.637 65.331 110.837 66.1408L108.465 68.5423L105.525 71.5187C104.821 72.232 103.614 71.6388 103.748 70.6453L105.31 59.0718C105.473 57.8665 104.608 56.775 103.411 56.6426L99.0186 83.9433C98.9449 84.2959 98.8871 84.6519 98.8471 85.0103C98.7634 85.7564 98.7522 86.5131 98.8176 87.2693C99.6552 96.9427 101.216 106.116 107.545 113.493H113.987C107.658 106.116 106.097 96.9424 105.26 87.2693C105.045 84.7854 105.646 82.2986 106.981 80.1927L114.194 68.8111Z" fill="#9A4D01"/>
<path d="M95.3592 14.8555C90.6359 14.8555 86.57 17.6589 84.7268 21.6912C82.8227 20.3456 80.5003 19.5525 77.9915 19.5525C71.5367 19.5525 66.3039 24.7854 66.3039 31.2404C66.3039 33.3704 66.8764 35.3652 67.8717 37.085C62.2668 37.9467 57.9746 42.7901 57.9746 48.6364C57.9746 55.0915 63.2074 60.3244 69.6622 60.3244C76.1171 60.3244 107.047 32.9985 107.047 26.5434C107.047 20.0884 101.814 14.8555 95.3592 14.8555Z" fill="#A4C400"/>
</svg>
