<svg width="32" height="32" viewBox="0 0 32 32" fill="none" xmlns="http://www.w3.org/2000/svg">
<path fill-rule="evenodd" clip-rule="evenodd" d="M3.26898 2.73356C2.96277 2.8223 2.48195 3.17312 2.25316 3.47471C1.84565 4.01191 1.84931 3.96287 1.86916 8.64493L1.88711 12.8716L2.10306 13.2698C2.34291 13.7121 2.53971 13.9026 3.01795 14.1548L3.34071 14.3252H7.70152H12.0623L12.4201 14.1495C12.813 13.9565 13.1476 13.6246 13.371 13.2062L13.5159 12.9348L13.5334 8.63968C13.5539 3.62083 13.5837 3.89575 12.9506 3.26015C12.3232 2.63029 12.6216 2.66385 7.70607 2.67043C5.37121 2.67359 3.37813 2.70196 3.26898 2.73356ZM19.7412 2.77401C19.5559 2.8398 19.3244 3.00912 19.077 3.25964C18.4557 3.88899 18.4765 3.74268 18.4768 7.472L18.4772 10.6677L18.8521 10.6405C19.6859 10.5802 20.7696 10.9908 21.4608 11.6289C22.1385 12.2545 22.5221 12.9796 22.6577 13.8913L22.7278 14.3625L25.7059 14.3438L28.684 14.3252L29.0822 14.1092C29.5245 13.8694 29.715 13.6726 29.9673 13.1943L30.1376 12.8716V8.51076V4.14994L29.9619 3.79217C29.7689 3.39931 29.437 3.06467 29.0186 2.84126L28.7472 2.69634L24.3864 2.68465C20.5322 2.67434 19.9925 2.68471 19.7412 2.77401ZM6.74189 6.33743C6.8178 6.37611 7.0656 6.58947 7.29249 6.81162L7.70506 7.21553L8.08249 6.83134C8.52768 6.37819 8.71658 6.26715 9.04238 6.26715C9.6898 6.26715 10.1101 6.89251 9.87852 7.51124C9.84192 7.60908 9.6285 7.87484 9.40433 8.10172L8.99675 8.51429L9.38094 8.89173C9.82973 9.33261 9.94513 9.52619 9.94513 9.83796C9.94513 10.4528 9.35446 10.8821 8.77277 10.6901C8.63113 10.6434 8.38301 10.4515 8.13868 10.1998L7.73723 9.78639L7.26778 10.2323C6.77286 10.7025 6.56247 10.7978 6.17884 10.7259C5.90955 10.6753 5.54791 10.325 5.48926 10.058C5.40312 9.66574 5.505 9.43025 5.96744 8.95341L6.40352 8.50368L6.08379 8.19122C5.62148 7.73946 5.43377 7.39729 5.47593 7.08313C5.51808 6.76908 5.65845 6.54997 5.91953 6.39077C6.14339 6.25432 6.52948 6.22929 6.74189 6.33743ZM26.7934 6.73887C27.1765 6.98991 27.3127 7.56477 27.0796 7.94701C27.0144 8.05401 26.2591 8.70592 25.4014 9.39568C23.8786 10.6202 23.8341 10.6503 23.5137 10.674C23.0495 10.7082 22.9063 10.5965 22.1206 9.58693C21.4577 8.73518 21.4134 8.64581 21.4458 8.22635C21.4893 7.66311 22.1935 7.29478 22.713 7.56351C22.8146 7.61609 23.0448 7.83647 23.2244 8.05331C23.4041 8.27015 23.5712 8.45564 23.596 8.4655C23.6208 8.47543 24.1216 8.09446 24.7089 7.619C25.2962 7.14348 25.8621 6.71555 25.9664 6.66796C26.1947 6.56381 26.5761 6.59655 26.7934 6.73887ZM18.3738 12.5296C17.84 12.6843 17.2398 13.2963 17.0888 13.84C17.0481 13.9866 17.0241 15.5239 17.0239 18.0066C17.0237 20.1704 17.0056 21.9408 16.9837 21.9408C16.9618 21.9408 16.317 21.5534 15.5509 21.0801C14.7847 20.6067 14.032 20.1764 13.8781 20.124C13.5039 19.9965 12.8445 20.0447 12.4906 20.2254C11.5813 20.6897 11.1889 21.8286 11.6357 22.7071C11.8203 23.07 16.7936 28.7655 17.1434 29.0146C17.591 29.3333 17.6171 29.3353 21.3449 29.3346L24.8288 29.334L25.1448 29.1852C25.9265 28.8171 25.9792 28.7044 26.949 25.325C27.7542 22.519 27.7814 22.4047 27.7538 21.9438C27.7182 21.3489 27.5107 20.8855 27.0924 20.4672C26.5127 19.8877 26.4367 19.8692 22.8563 19.4371L20.8839 19.199L20.8655 16.5409L20.8472 13.8828L20.6921 13.5678C20.2741 12.7181 19.2719 12.2693 18.3738 12.5296Z" fill="#FF8A00"/>
</svg>
