<svg width="40" height="42" viewBox="0 0 40 42" fill="none" xmlns="http://www.w3.org/2000/svg">
<ellipse cx="19.1559" cy="39.8041" rx="11.572" ry="2.19478" fill="#366C00" fill-opacity="0.75"/>
<path d="M13.75 23.125V21.25H7.5L8.70938 24.8775C9.10688 26.07 10.2231 26.875 11.4806 26.875C12.1056 26.875 12.6862 27.1487 13.1325 27.5862C14.2581 28.6912 15.7975 29.375 17.5 29.375V26.875C15.4288 26.875 13.75 25.1962 13.75 23.125Z" fill="#9A4D01"/>
<path d="M17.5 26.875V29.375C16.8438 29.375 16.2125 29.275 15.625 29.0875V28.275C15.625 27.8438 15.2812 27.5 14.85 27.5C14.5625 27.5 14.2937 27.3375 14.1625 27.075C13.9 26.55 13.425 26.1687 12.8562 26.025C11.8 25.7625 10.7 25.7625 9.64375 26.025L9.5 26.0625C9.4875 26.0625 9.48125 26.0687 9.46875 26.075C9.125 25.75 8.8625 25.3437 8.70625 24.875L7.5 21.25H13.75V23.125C13.75 25.1937 15.4313 26.875 17.5 26.875Z" fill="#BF6101"/>
<path d="M27.5 21.25L26.1187 22.3706C25.7719 22.6519 25.5756 23.0781 25.5869 23.5244C25.6081 24.3331 24.9581 25 24.1494 25H21.875V27.5H24.0362C25.3931 27.5 26.6331 26.7338 27.24 25.52C27.4119 25.1756 27.6387 24.8612 27.9112 24.5887L29.375 23.125L27.5 21.25Z" fill="#9A4D01"/>
<path d="M29.375 23.125L27.9125 24.5875C27.6375 24.8625 27.4125 25.175 27.2375 25.5188C27.1437 25.7063 27.0312 25.8875 26.9062 26.05L25.625 25.625C25.225 26.025 24.6812 26.25 24.1187 26.25C23.9562 26.25 23.8313 26.3812 23.8313 26.5375C23.8313 26.5625 23.8312 26.5812 23.8375 26.6062L24.0625 27.5H21.875V25H24.15C24.9437 25 25.5875 24.35 25.5875 23.5562V23.525C25.575 23.0812 25.775 22.65 26.1187 22.3688L27.5 21.25L29.375 23.125Z" fill="#BF6101"/>
<path d="M23.125 31.6769V18.75H16.875V30.9881C16.875 32.9925 15.5463 34.7544 13.6188 35.305C12.885 35.5144 12.2169 35.9075 11.6775 36.4475L10 38.125H14.7713C16.1331 38.125 17.4544 37.6619 18.5187 36.8119C18.9744 36.4481 19.54 36.25 20.1231 36.25C20.8269 36.25 21.4844 36.6019 21.875 37.1875C22.2656 37.7731 22.9231 38.125 23.6269 38.125H27.5L25.4269 36.4663C24.7337 35.9119 24.1694 35.2137 23.7725 34.42C23.3469 33.5681 23.125 32.6294 23.125 31.6769Z" fill="#9A4D01"/>
<path d="M23.0325 35.44C22.6963 34.7681 22.0688 34.2887 21.3325 34.1412C20.1944 33.9137 19.375 32.9144 19.375 31.7537V24.375C20.8188 24.375 22.18 23.7456 23.125 22.6706V18.75H16.875V30.9881C16.875 32.9925 15.5463 34.7544 13.6188 35.305C12.885 35.5144 12.2169 35.9075 11.6775 36.4475L10 38.125H14.7713C16.1331 38.125 17.4544 37.6619 18.5187 36.8119C18.9744 36.4481 19.54 36.25 20.1231 36.25C20.8269 36.25 21.4844 36.6019 21.875 37.1875C22.2656 37.7731 22.9231 38.125 23.6269 38.125H27.5L25.2719 37.3825C24.2975 37.0575 23.4919 36.3587 23.0325 35.44Z" fill="#BF6101"/>
<path d="M18.1252 35C17.9652 35 17.8052 34.9388 17.6833 34.8169C17.4389 34.5725 17.4389 34.1775 17.6833 33.9331C18.7095 32.9069 19.152 31.4456 18.8677 30.0225C18.787 29.6194 18.7502 29.2513 18.7502 28.8844V27.5C18.7502 27.1544 19.0295 26.875 19.3752 26.875C19.7208 26.875 20.0002 27.1544 20.0002 27.5V28.8844C20.0002 29.1688 20.0283 29.4544 20.0845 29.7331C20.4602 31.6106 19.8895 33.495 18.567 34.8169C18.4452 34.9388 18.2852 35 18.1252 35Z" fill="#9A4D01"/>
<path d="M20.625 25.625C20.2794 25.625 20 25.3456 20 25V22.5C20 22.1544 20.2794 21.875 20.625 21.875C20.9706 21.875 21.25 22.1544 21.25 22.5V25C21.25 25.3456 20.9706 25.625 20.625 25.625Z" fill="#9A4D01"/>
<path d="M38.125 18.125C38.125 16.3225 36.8531 14.8188 35.1581 14.4581C35.4544 13.8688 35.625 13.205 35.625 12.5C35.625 10.0838 33.6663 8.125 31.25 8.125C31.0088 8.125 30.7744 8.14938 30.5438 8.18688C30.5938 7.96563 30.625 7.73688 30.625 7.5C30.625 5.77438 29.2256 4.375 27.5 4.375C26.9106 4.375 26.3656 4.54813 25.895 4.83188C25.3769 3.8225 24.3375 3.125 23.125 3.125C22.9231 3.125 22.7263 3.1475 22.535 3.18438C21.9675 2.39437 21.0469 1.875 20 1.875C18.7488 1.875 17.6769 2.61563 17.1781 3.67813C16.6406 3.32938 16.0006 3.125 15.3125 3.125C13.9381 3.125 12.7563 3.93313 12.2056 5.09875C10.2313 5.52125 8.75 7.27438 8.75 9.375C8.75 10.0763 8.91938 10.7369 9.2125 11.3244C7.42938 11.6488 6.02563 13.0525 5.7 14.835C4.53813 15.4725 3.75 16.7063 3.75 18.125C3.75 18.2119 3.75688 18.2969 3.76313 18.3819C2.65312 18.8613 1.875 19.9638 1.875 21.25C1.875 22.9756 3.27438 24.375 5 24.375C5.5325 24.375 6.02688 24.2294 6.46563 23.9944C7.03625 24.6094 7.845 25 8.75 25C9.705 25 10.5494 24.5625 11.1225 23.8869C11.7231 24.1969 12.4025 24.375 13.125 24.375C15.0319 24.375 16.6488 23.1531 17.2481 21.4513C17.7725 22.4425 18.8013 23.125 20 23.125C21.4581 23.125 22.6725 22.1219 23.0175 20.7713C23.6131 21.075 24.2856 21.25 25 21.25C25.0919 21.25 25.1813 21.2419 25.2713 21.2363C25.0994 21.6231 25 22.0494 25 22.5C25 24.2256 26.3994 25.625 28.125 25.625C29.1513 25.625 30.0538 25.1238 30.6238 24.3594C31.1475 24.7563 31.7925 25 32.5 25C34.2256 25 35.625 23.6006 35.625 21.875C35.625 21.8031 35.6088 21.7356 35.6038 21.665C37.0706 21.1556 38.125 19.765 38.125 18.125Z" fill="#A4C400"/>
<path d="M38.0541 18.82C37.481 19.5344 36.6122 20.0006 35.6254 20.0006C35.5072 20.0006 35.391 19.9938 35.2772 19.9806C34.326 19.8713 33.3741 19.9744 32.4985 20.3619C31.9797 20.5919 31.386 20.6838 30.7604 20.5875C29.5341 20.3994 28.5091 19.4525 28.216 18.2469C28.0391 17.5194 28.1322 16.8319 28.3966 16.2369C28.3066 16.2425 28.2172 16.2506 28.1254 16.2506C28.1166 16.2506 28.1085 16.2506 28.0997 16.2506C27.0741 16.2444 26.0341 16.5119 25.3035 17.2319C24.7435 17.7844 23.976 18.1256 23.1254 18.1256C22.766 18.1256 22.4216 18.0644 22.1016 17.9513C21.0529 17.5819 19.8841 17.6713 19.0266 18.3788C18.2716 19.0013 17.3054 19.3756 16.2504 19.3756C15.776 19.3756 15.3229 19.2925 14.896 19.1519C14.2241 19.4175 13.4479 19.4781 12.6241 19.1606C11.6879 18.7994 10.9579 17.9869 10.7185 17.0125C10.5804 16.4494 10.601 15.9094 10.7404 15.4188C10.8866 14.9031 10.8954 14.3669 10.736 13.8556C10.6641 13.625 10.6247 13.38 10.6247 13.1256C10.6247 12.1638 11.1741 11.3381 11.971 10.92C11.9147 10.7263 11.8747 10.525 11.8747 10.3131C11.8747 10.2269 11.8797 10.1425 11.8897 10.0588C11.9716 9.38125 11.9035 8.6925 11.5691 8.09813C11.366 7.73688 11.2497 7.32 11.2497 6.87563C11.2497 6.22188 11.5066 5.6325 11.9172 5.1875C10.0916 5.71313 8.74975 7.38063 8.74975 9.37563C8.74975 10.0769 8.91912 10.7375 9.21225 11.325C7.42912 11.6494 6.02537 13.0531 5.69975 14.8356C4.53787 15.4731 3.74975 16.7069 3.74975 18.1256C3.74975 18.2125 3.75662 18.2975 3.76287 18.3825C2.5385 18.9113 1.71787 20.1988 1.90037 21.6538C2.05037 22.8525 2.93037 23.8725 4.0835 24.2325C4.96975 24.5094 5.78412 24.36 6.466 23.995C7.036 24.61 7.84475 25.0006 8.74975 25.0006C9.70475 25.0006 10.5491 24.5631 11.1222 23.8875C11.7229 24.1975 12.4022 24.3756 13.1247 24.3756C15.0316 24.3756 16.6485 23.1538 17.2479 21.4519C17.7722 22.4431 18.801 23.1256 19.9997 23.1256C21.4579 23.1256 22.6722 22.1225 23.0172 20.7719C23.6129 21.0756 24.2854 21.2506 24.9997 21.2506C25.0916 21.2506 25.181 21.2425 25.271 21.2369C25.0066 21.8319 24.9135 22.5194 25.0904 23.2469C25.3835 24.4525 26.4085 25.3994 27.6347 25.5875C28.8604 25.7756 29.9641 25.2431 30.6235 24.36C31.1472 24.7569 31.7922 25.0006 32.4997 25.0006C34.2254 25.0006 35.6247 23.6013 35.6247 21.8756C35.6247 21.8038 35.6085 21.7363 35.6035 21.6656C36.8572 21.23 37.8041 20.1488 38.0541 18.82Z" fill="#60A917"/>
<path d="M30.125 18.125C29.8556 18.125 29.6031 18.1894 29.375 18.295C29.1469 18.1894 28.8944 18.125 28.625 18.125C27.6587 18.125 26.875 18.8869 26.875 19.8263C26.875 20.7663 27.6587 22.5 28.625 22.5C28.8944 22.5 29.1469 22.4356 29.375 22.33C29.6031 22.4356 29.8556 22.5 30.125 22.5C31.0913 22.5 31.875 20.7663 31.875 19.8263C31.875 18.8869 31.0913 18.125 30.125 18.125Z" fill="#40916C"/>
<path d="M25.6562 10.625C25.4206 10.625 25.1994 10.68 25 10.7706C24.8006 10.68 24.5794 10.625 24.3438 10.625C23.4981 10.625 22.8125 11.2781 22.8125 12.0831C22.8125 12.8888 23.4981 14.375 24.3438 14.375C24.5794 14.375 24.8006 14.32 25 14.2294C25.1994 14.32 25.4206 14.375 25.6562 14.375C26.5019 14.375 27.1875 12.8888 27.1875 12.0831C27.1875 11.2781 26.5019 10.625 25.6562 10.625Z" fill="#40916C"/>
<path d="M20.0312 16.875C19.7956 16.875 19.5744 16.93 19.375 17.0206C19.1756 16.93 18.9544 16.875 18.7188 16.875C17.8731 16.875 17.1875 17.5281 17.1875 18.3331C17.1875 19.1387 17.8731 20.625 18.7188 20.625C18.9544 20.625 19.1756 20.57 19.375 20.4794C19.5744 20.57 19.7956 20.625 20.0312 20.625C20.8769 20.625 21.5625 19.1387 21.5625 18.3331C21.5625 17.5281 20.8769 16.875 20.0312 16.875Z" fill="#40916C"/>
<path d="M14.5 10C14.2306 10 13.9781 10.0644 13.75 10.17C13.5219 10.0644 13.2694 10 13 10C12.0337 10 11.25 10.7619 11.25 11.7013C11.25 12.6413 12.0337 14.375 13 14.375C13.2694 14.375 13.5219 14.3106 13.75 14.205C13.9781 14.3106 14.2306 14.375 14.5 14.375C15.4663 14.375 16.25 12.6413 16.25 11.7013C16.25 10.7619 15.4663 10 14.5 10Z" fill="#40916C"/>
<path d="M33.8887 33.6337L33.2743 33.75L33.158 33.1356C32.9655 32.1181 33.6337 31.1369 34.6512 30.9444L35.2655 30.8281L35.3818 31.4425C35.5743 32.46 34.9062 33.4412 33.8887 33.6337Z" fill="#5F9B22"/>
<path d="M35.3816 31.4414L35.3547 31.3008C35.1528 32.1277 34.1166 32.8458 33.2628 33.0077L33.1484 33.0295C33.1528 33.0652 33.1509 33.0995 33.1578 33.1352L33.2741 33.7489L33.8884 33.6327C34.9053 33.4395 35.5741 32.4589 35.3816 31.4414Z" fill="#6FBE20"/>
<path d="M33.125 35C32.7794 35 32.5 34.7206 32.5 34.375C32.5 33.6856 31.9394 33.125 31.25 33.125C30.9044 33.125 30.625 32.8456 30.625 32.5C30.625 32.1544 30.9044 31.875 31.25 31.875C32.6288 31.875 33.75 32.9962 33.75 34.375C33.75 34.7206 33.4706 35 33.125 35Z" fill="#6FBE20"/>
<path d="M33.875 33.75C33.6056 33.75 33.3531 33.8144 33.125 33.92C32.8969 33.8144 32.6444 33.75 32.375 33.75C31.4087 33.75 30.625 34.5119 30.625 35.4513C30.625 36.3913 31.4087 38.125 32.375 38.125C32.6444 38.125 32.8969 38.0606 33.125 37.955C33.3531 38.0606 33.6056 38.125 33.875 38.125C34.8413 38.125 35.625 36.3913 35.625 35.4513C35.625 34.5119 34.8413 33.75 33.875 33.75Z" fill="#FF7373"/>
<path d="M35.42 36.4666C35.125 37.2928 34.545 38.1241 33.875 38.1241C33.605 38.1241 33.355 38.0609 33.125 37.9541C32.895 38.0609 32.645 38.1241 32.375 38.1241C31.41 38.1241 30.625 36.3884 30.625 35.4503C30.625 34.7697 31.035 34.1866 31.63 33.9141C31.625 33.9384 31.625 33.9678 31.625 33.9922C31.625 35.4697 32.855 36.6659 34.375 36.6659C34.745 36.6659 35.1 36.5928 35.42 36.4666Z" fill="#EF5350"/>
<path d="M31.3887 17.3837L30.7743 17.5L30.658 16.8856C30.4655 15.8681 31.1337 14.8869 32.1512 14.6944L32.7655 14.5781L32.8818 15.1925C33.0743 16.21 32.4062 17.1912 31.3887 17.3837Z" fill="#5F9B22"/>
<path d="M32.8816 15.1914L32.8547 15.0508C32.6528 15.8777 31.6166 16.5958 30.7628 16.7577L30.6484 16.7795C30.6528 16.8152 30.6509 16.8495 30.6578 16.8852L30.7741 17.4989L31.3884 17.3827C32.4053 17.1895 33.0741 16.2089 32.8816 15.1914Z" fill="#6FBE20"/>
<path d="M30.625 18.75C30.2794 18.75 30 18.4706 30 18.125C30 17.4356 29.4394 16.875 28.75 16.875C28.4044 16.875 28.125 16.5956 28.125 16.25C28.125 15.9044 28.4044 15.625 28.75 15.625C30.1288 15.625 31.25 16.7462 31.25 18.125C31.25 18.4706 30.9706 18.75 30.625 18.75Z" fill="#6FBE20"/>
<path d="M31.375 17.5C31.1056 17.5 30.8531 17.5644 30.625 17.67C30.3969 17.5644 30.1444 17.5 29.875 17.5C28.9087 17.5 28.125 18.2619 28.125 19.2013C28.125 20.1413 28.9087 21.875 29.875 21.875C30.1444 21.875 30.3969 21.8106 30.625 21.705C30.8531 21.8106 31.1056 21.875 31.375 21.875C32.3413 21.875 33.125 20.1413 33.125 19.2013C33.125 18.2619 32.3413 17.5 31.375 17.5Z" fill="#FF7373"/>
<path d="M32.92 20.2166C32.625 21.0428 32.045 21.8741 31.375 21.8741C31.105 21.8741 30.855 21.8109 30.625 21.7041C30.395 21.8109 30.145 21.8741 29.875 21.8741C28.91 21.8741 28.125 20.1384 28.125 19.2003C28.125 18.5197 28.535 17.9366 29.13 17.6641C29.125 17.6884 29.125 17.7178 29.125 17.7422C29.125 19.2197 30.355 20.4159 31.875 20.4159C32.245 20.4159 32.6 20.3428 32.92 20.2166Z" fill="#EF5350"/>
<path d="M15.1387 9.25875L14.5243 9.375L14.408 8.76063C14.2155 7.74313 14.8837 6.76187 15.9012 6.56937L16.5155 6.45312L16.6318 7.0675C16.8243 8.085 16.1562 9.06625 15.1387 9.25875Z" fill="#5F9B22"/>
<path d="M16.6316 7.06641L16.6047 6.92578C16.4028 7.75266 15.3666 8.47078 14.5128 8.63266L14.3984 8.65453C14.4028 8.69016 14.4009 8.72453 14.4078 8.76016L14.5241 9.37391L15.1384 9.25766C16.1553 9.06453 16.8241 8.08391 16.6316 7.06641Z" fill="#6FBE20"/>
<path d="M14.375 10.625C14.0294 10.625 13.75 10.3456 13.75 10C13.75 9.31062 13.1894 8.75 12.5 8.75C12.1544 8.75 11.875 8.47062 11.875 8.125C11.875 7.77938 12.1544 7.5 12.5 7.5C13.8788 7.5 15 8.62125 15 10C15 10.3456 14.7206 10.625 14.375 10.625Z" fill="#6FBE20"/>
<path d="M15.125 9.375C14.8556 9.375 14.6031 9.43938 14.375 9.545C14.1469 9.43938 13.8944 9.375 13.625 9.375C12.6587 9.375 11.875 10.1369 11.875 11.0763C11.875 12.0163 12.6587 13.75 13.625 13.75C13.8944 13.75 14.1469 13.6856 14.375 13.58C14.6031 13.6856 14.8556 13.75 15.125 13.75C16.0913 13.75 16.875 12.0163 16.875 11.0763C16.875 10.1369 16.0913 9.375 15.125 9.375Z" fill="#FF7373"/>
<path d="M16.67 12.0916C16.375 12.9178 15.795 13.7491 15.125 13.7491C14.855 13.7491 14.605 13.6859 14.375 13.5791C14.145 13.6859 13.895 13.7491 13.625 13.7491C12.66 13.7491 11.875 12.0134 11.875 11.0753C11.875 10.3947 12.285 9.81156 12.88 9.53906C12.875 9.56344 12.875 9.59281 12.875 9.61719C12.875 11.0947 14.105 12.2909 15.625 12.2909C15.995 12.2909 16.35 12.2178 16.67 12.0916Z" fill="#EF5350"/>
<path d="M6.38867 34.2587L5.7743 34.375L5.65805 33.7606C5.46555 32.7431 6.13367 31.7619 7.15117 31.5694L7.76555 31.4531L7.8818 32.0675C8.0743 33.085 7.40617 34.0662 6.38867 34.2587Z" fill="#5F9B22"/>
<path d="M7.88156 32.0664L7.85469 31.9258C7.65281 32.7527 6.61656 33.4708 5.76281 33.6327L5.64844 33.6545C5.65281 33.6902 5.65094 33.7245 5.65781 33.7602L5.77406 34.3739L6.38844 34.2577C7.40531 34.0645 8.07406 33.0839 7.88156 32.0664Z" fill="#6FBE20"/>
<path d="M5.625 35.625C5.27938 35.625 5 35.3456 5 35C5 34.3106 4.43938 33.75 3.75 33.75C3.40438 33.75 3.125 33.4706 3.125 33.125C3.125 32.7794 3.40438 32.5 3.75 32.5C5.12875 32.5 6.25 33.6212 6.25 35C6.25 35.3456 5.97062 35.625 5.625 35.625Z" fill="#6FBE20"/>
<path d="M6.28125 34.375C6.04563 34.375 5.82437 34.43 5.625 34.5206C5.42562 34.43 5.20437 34.375 4.96875 34.375C4.12312 34.375 3.4375 35.0281 3.4375 35.8331C3.4375 36.6388 4.12312 38.125 4.96875 38.125C5.20437 38.125 5.42562 38.07 5.625 37.9794C5.82437 38.07 6.04563 38.125 6.28125 38.125C7.12688 38.125 7.8125 36.6388 7.8125 35.8331C7.8125 35.0281 7.12688 34.375 6.28125 34.375Z" fill="#FF7373"/>
<path d="M7.63312 36.7037C7.375 37.4119 6.8675 38.1244 6.28125 38.1244C6.045 38.1244 5.82625 38.07 5.625 37.9787C5.42375 38.07 5.205 38.1244 4.96875 38.1244C4.12437 38.1244 3.4375 36.6369 3.4375 35.8325C3.4375 35.2494 3.79625 34.7494 4.31687 34.5156C4.3125 34.5369 4.3125 34.5619 4.3125 34.5825C4.3125 35.8494 5.38875 36.8744 6.71875 36.8744C7.0425 36.8744 7.35312 36.8119 7.63312 36.7037Z" fill="#EF5350"/>
<path d="M9.51367 18.0087L8.8993 18.125L8.78305 17.5106C8.59055 16.4931 9.25867 15.5119 10.2762 15.3194L10.8905 15.2031L11.0068 15.8175C11.1993 16.835 10.5312 17.8162 9.51367 18.0087Z" fill="#5F9B22"/>
<path d="M11.0066 15.8164L10.9797 15.6758C10.7778 16.5027 9.74156 17.2208 8.88781 17.3827L8.77344 17.4045C8.77781 17.4402 8.77594 17.4745 8.78281 17.5102L8.89906 18.1239L9.51344 18.0077C10.5303 17.8145 11.1991 16.8339 11.0066 15.8164Z" fill="#6FBE20"/>
<path d="M8.75 19.375C8.40438 19.375 8.125 19.0956 8.125 18.75C8.125 18.0606 7.56438 17.5 6.875 17.5C6.52938 17.5 6.25 17.2206 6.25 16.875C6.25 16.5294 6.52938 16.25 6.875 16.25C8.25375 16.25 9.375 17.3712 9.375 18.75C9.375 19.0956 9.09562 19.375 8.75 19.375Z" fill="#6FBE20"/>
<path d="M9.40625 18.125C9.17063 18.125 8.94938 18.18 8.75 18.2706C8.55063 18.18 8.32938 18.125 8.09375 18.125C7.24812 18.125 6.5625 18.7781 6.5625 19.5831C6.5625 20.3881 7.24812 21.875 8.09375 21.875C8.32938 21.875 8.55063 21.82 8.75 21.7294C8.94938 21.82 9.17063 21.875 9.40625 21.875C10.2519 21.875 10.9375 20.3888 10.9375 19.5831C10.9375 18.7775 10.2519 18.125 9.40625 18.125Z" fill="#FF7373"/>
<path d="M10.7581 20.4538C10.5 21.1619 9.9925 21.8744 9.40625 21.8744C9.17 21.8744 8.95125 21.82 8.75 21.7287C8.54875 21.82 8.33 21.8744 8.09375 21.8744C7.24937 21.8744 6.5625 20.3869 6.5625 19.5825C6.5625 18.9994 6.92125 18.4994 7.44187 18.2656C7.4375 18.2869 7.4375 18.3119 7.4375 18.3325C7.4375 19.5994 8.51375 20.6244 9.84375 20.6244C10.1675 20.6244 10.4781 20.5619 10.7581 20.4538Z" fill="#EF5350"/>
<path d="M20.7637 16.1337L20.1493 16.25L20.033 15.6356C19.8405 14.6181 20.5087 13.6369 21.5262 13.4444L22.1405 13.3281L22.2568 13.9425C22.4493 14.96 21.7812 15.9412 20.7637 16.1337Z" fill="#5F9B22"/>
<path d="M22.2566 13.9414L22.2297 13.8008C22.0278 14.6277 20.9916 15.3458 20.1378 15.5077L20.0234 15.5295C20.0278 15.5652 20.0259 15.5995 20.0328 15.6352L20.1491 16.2489L20.7634 16.1327C21.7803 15.9395 22.4491 14.9589 22.2566 13.9414Z" fill="#6FBE20"/>
<path d="M20 17.5C19.6544 17.5 19.375 17.2206 19.375 16.875C19.375 16.1856 18.8144 15.625 18.125 15.625C17.7794 15.625 17.5 15.3456 17.5 15C17.5 14.6544 17.7794 14.375 18.125 14.375C19.5038 14.375 20.625 15.4962 20.625 16.875C20.625 17.2206 20.3456 17.5 20 17.5Z" fill="#6FBE20"/>
<path d="M20.6562 16.25C20.4206 16.25 20.1994 16.305 20 16.3956C19.8006 16.305 19.5794 16.25 19.3438 16.25C18.4981 16.25 17.8125 16.9031 17.8125 17.7081C17.8125 18.5138 18.4981 20 19.3438 20C19.5794 20 19.8006 19.945 20 19.8544C20.1994 19.945 20.4206 20 20.6562 20C21.5019 20 22.1875 18.5138 22.1875 17.7081C22.1875 16.9031 21.5019 16.25 20.6562 16.25Z" fill="#FF7373"/>
<path d="M22.0081 18.5787C21.75 19.2869 21.2425 19.9994 20.6562 19.9994C20.42 19.9994 20.2012 19.945 20 19.8537C19.7987 19.945 19.58 19.9994 19.3438 19.9994C18.4994 19.9994 17.8125 18.5119 17.8125 17.7075C17.8125 17.1244 18.1712 16.6244 18.6919 16.3906C18.6875 16.4119 18.6875 16.4369 18.6875 16.4575C18.6875 17.7244 19.7637 18.7494 21.0937 18.7494C21.4175 18.7494 21.7281 18.6869 22.0081 18.5787Z" fill="#EF5350"/>
<path d="M26.3887 9.88375L25.7743 10L25.658 9.38563C25.4655 8.36813 26.1337 7.38687 27.1512 7.19437L27.7655 7.07812L27.8818 7.6925C28.0743 8.71 27.4062 9.69125 26.3887 9.88375Z" fill="#5F9B22"/>
<path d="M27.8816 7.69141L27.8547 7.55078C27.6528 8.37766 26.6166 9.09578 25.7628 9.25766L25.6484 9.27953C25.6528 9.31516 25.6509 9.34953 25.6578 9.38516L25.7741 9.99891L26.3884 9.88266C27.4053 9.68953 28.0741 8.70891 27.8816 7.69141Z" fill="#6FBE20"/>
<path d="M25.625 11.25C25.2794 11.25 25 10.9706 25 10.625C25 9.93562 24.4394 9.375 23.75 9.375C23.4044 9.375 23.125 9.09562 23.125 8.75C23.125 8.40438 23.4044 8.125 23.75 8.125C25.1288 8.125 26.25 9.24625 26.25 10.625C26.25 10.9706 25.9706 11.25 25.625 11.25Z" fill="#6FBE20"/>
<path d="M26.2812 10C26.0456 10 25.8244 10.055 25.625 10.1456C25.4256 10.055 25.2044 10 24.9687 10C24.1231 10 23.4375 10.6531 23.4375 11.4581C23.4375 12.2638 24.1231 13.75 24.9687 13.75C25.2044 13.75 25.4256 13.695 25.625 13.6044C25.8244 13.695 26.0456 13.75 26.2812 13.75C27.1269 13.75 27.8125 12.2638 27.8125 11.4581C27.8125 10.6531 27.1269 10 26.2812 10Z" fill="#FF7373"/>
<path d="M27.6331 12.3287C27.375 13.0369 26.8675 13.7494 26.2812 13.7494C26.045 13.7494 25.8262 13.695 25.625 13.6038C25.4237 13.695 25.205 13.7494 24.9688 13.7494C24.1244 13.7494 23.4375 12.2619 23.4375 11.4575C23.4375 10.8744 23.7963 10.3744 24.3169 10.1406C24.3125 10.1619 24.3125 10.1869 24.3125 10.2075C24.3125 11.4744 25.3887 12.4994 26.7187 12.4994C27.0425 12.4994 27.3531 12.4369 27.6331 12.3287Z" fill="#EF5350"/>
</svg>
