<svg width="124" height="124" viewBox="0 0 124 124" fill="none" xmlns="http://www.w3.org/2000/svg">
<g filter="url(#filter0_d_20483_124551)">
<circle cx="61.2533" cy="58.2651" r="58.2651" fill="#FF8A00"/>
<circle cx="61.2533" cy="58.2651" r="57.7651" stroke="#E68600"/>
</g>
<path d="M53.2289 77.6298C53.2289 82.0544 56.8286 85.6541 61.2532 85.6541C65.6777 85.6541 69.2774 82.0544 69.2774 77.6298V70.9964C69.2774 67.3543 70.808 63.7964 73.4768 61.235C75.5119 59.2818 77.0655 56.8488 77.9694 54.199C78.9325 51.3761 79.157 48.4195 78.6366 45.4116C77.953 41.4595 75.8826 37.8172 72.8068 35.1558C69.6165 32.3953 65.5133 30.8751 61.2532 30.875C57.0085 30.875 52.9138 32.3893 49.7231 35.1391C46.6337 37.8017 44.5548 41.4498 43.8696 45.4116C43.3493 48.4196 43.5737 51.3762 44.5367 54.199C45.4407 56.8488 46.9942 59.2817 49.0294 61.235C51.6982 63.7963 53.2289 67.3534 53.2289 70.9941V77.6298ZM51.252 58.9192C47.7302 55.5393 46.1922 50.8152 47.0323 45.9586C48.2225 39.0785 54.2031 34.0848 61.2532 34.0847C68.3032 34.0847 74.2838 39.0785 75.474 45.9586C76.3141 50.8153 74.7761 55.5393 71.2543 58.9192C68.3507 61.706 66.5379 65.4539 66.1474 69.3912L56.3591 69.3894C55.9684 65.4534 54.1556 61.706 51.252 58.9192ZM66.0677 72.601V77.6298C66.0677 80.2846 63.9079 82.4444 61.2532 82.4444C58.5984 82.4444 56.4386 80.2846 56.4386 77.6298V72.5992L66.0677 72.601Z" fill="white"/>
<path d="M59.6482 45.3185C59.6482 44.4336 60.3681 43.7136 61.253 43.7136C62.138 43.7136 62.8579 44.4336 62.8579 45.3185C62.8579 45.8343 62.6191 46.3059 62.2026 46.6125C60.6031 47.7902 59.6482 49.6779 59.6482 51.6622V53.3428H62.8579V51.6622C62.8579 50.694 63.3244 49.7725 64.1056 49.1972C65.3342 48.2927 66.0676 46.8427 66.0676 45.3185C66.0676 42.6637 63.9078 40.5039 61.253 40.5039C58.5983 40.5039 56.4385 42.6637 56.4385 45.3185V46.9233H59.6482V45.3185Z" fill="white"/>
<path d="M35.5527 37.9375L37.822 35.6682L42.5465 40.3928L40.2773 42.662L35.5527 37.9375Z" fill="white"/>
<path d="M33.8633 46.9238H40.3959V50.1335H33.8633V46.9238Z" fill="white"/>
<path d="M35.5869 59.0801L40.308 54.3589L42.5773 56.6282L37.8562 61.3493L35.5869 59.0801Z" fill="white"/>
<path d="M79.9512 40.3975L84.6756 35.673L86.9449 37.9423L82.2204 42.6667L79.9512 40.3975Z" fill="white"/>
<path d="M82.1094 46.9238H88.6421V50.1335H82.1094V46.9238Z" fill="white"/>
<path d="M79.917 56.6338L82.1863 54.3645L86.9074 59.0857L84.6381 61.3549L79.917 56.6338Z" fill="white"/>
<path d="M59.6484 56.5527H62.8582V59.7624H59.6484V56.5527Z" fill="white"/>
<defs>
<filter id="filter0_d_20483_124551" x="2.98828" y="0" width="116.53" height="121.53" filterUnits="userSpaceOnUse" color-interpolation-filters="sRGB">
<feFlood flood-opacity="0" result="BackgroundImageFix"/>
<feColorMatrix in="SourceAlpha" type="matrix" values="0 0 0 0 0 0 0 0 0 0 0 0 0 0 0 0 0 0 127 0" result="hardAlpha"/>
<feOffset dy="5"/>
<feComposite in2="hardAlpha" operator="out"/>
<feColorMatrix type="matrix" values="0 0 0 0 0.901961 0 0 0 0 0.52549 0 0 0 0 0 0 0 0 1 0"/>
<feBlend mode="normal" in2="BackgroundImageFix" result="effect1_dropShadow_20483_124551"/>
<feBlend mode="normal" in="SourceGraphic" in2="effect1_dropShadow_20483_124551" result="shape"/>
</filter>
</defs>
</svg>
