<svg width="84" height="84" viewBox="0 0 84 84" fill="none" xmlns="http://www.w3.org/2000/svg">
<circle cx="41.709" cy="44" r="39" fill="#B36800"/>
<circle cx="42" cy="39" r="38.5" fill="#FF8A00" stroke="#B36800"/>
<path d="M53.1431 30.4823L53.6358 30.3971L53.1431 30.4824C53.4775 32.4152 53.3329 34.3093 52.716 36.1176C52.1369 37.815 51.1408 39.3754 49.8358 40.6279C47.953 42.435 46.8712 44.946 46.8712 47.5225V51.9626C46.8712 54.648 44.6856 56.8337 42.0001 56.8337C39.3146 56.8337 37.129 54.648 37.129 51.9626V47.5209C37.129 44.9454 36.0471 42.4349 34.1643 40.6279C32.8592 39.3753 31.8632 37.815 31.2841 36.1176C30.6672 34.3093 30.5226 32.4153 30.857 30.4823C31.2956 27.9465 32.6272 25.6077 34.6088 23.8999C36.653 22.1383 39.2777 21.167 42.0001 21.167C44.7328 21.1671 47.3628 22.1422 49.4064 23.9105C51.3792 25.6175 52.7055 27.9525 53.1431 30.4823ZM31.9886 30.6781L32.413 30.7515L31.9886 30.6781C31.3983 34.0907 32.4809 37.4205 34.9596 39.7993C36.8175 41.5824 37.9769 43.9804 38.2267 46.4962L38.2714 46.9467L38.7241 46.9468L45.276 46.948L45.7289 46.9481L45.7737 46.4974C46.0233 43.9807 47.1827 41.5824 49.0406 39.7993C51.5193 37.4205 52.6019 34.0908 52.0116 30.6781C51.1729 25.8296 46.9588 22.3154 42.0001 22.3154C37.0414 22.3155 32.8273 25.8296 31.9886 30.6781ZM45.7227 48.5965V48.0966L45.2228 48.0965L38.7775 48.0953L38.2774 48.0952V48.5953V51.9626C38.2774 54.0157 39.947 55.6852 42.0001 55.6852C44.0532 55.6852 45.7227 54.0157 45.7227 51.9626V48.5965Z" fill="white" stroke="white"/>
<path d="M42.932 31.6038C43.3384 31.3046 43.5742 30.8396 43.5742 30.335C43.5742 29.4665 42.8685 28.7607 42 28.7607C41.1315 28.7607 40.4258 29.4665 40.4258 30.335V30.9092H39.2773V30.335C39.2773 28.8341 40.4992 27.6123 42 27.6123C43.5008 27.6123 44.7227 28.8341 44.7227 30.335C44.7227 31.1961 44.3074 32.0173 43.613 32.5286L43.6129 32.5286C42.9623 33.0076 42.5742 33.7738 42.5742 34.5811V35.2061H41.4258V34.5811C41.4258 33.4121 41.9892 32.2979 42.932 31.6038ZM42.932 31.6038L42.6381 31.2046L42.932 31.6038Z" fill="white" stroke="white"/>
<path d="M24.7969 25.3945L26.3158 23.8756L29.4782 27.038L27.9593 28.5569L24.7969 25.3945Z" fill="white"/>
<path d="M23.666 31.4092H28.0387V33.5576H23.666V31.4092Z" fill="white"/>
<path d="M24.8203 39.5469L27.9804 36.3868L29.4994 37.9057L26.3393 41.0658L24.8203 39.5469Z" fill="white"/>
<path d="M54.5156 27.041L57.678 23.8787L59.1969 25.3976L56.0346 28.56L54.5156 27.041Z" fill="white"/>
<path d="M55.959 31.4092H60.3317V33.5576H55.959V31.4092Z" fill="white"/>
<path d="M54.4922 37.9092L56.0111 36.3902L59.1712 39.5504L57.6523 41.0693L54.4922 37.9092Z" fill="white"/>
<path d="M40.9258 37.8545H43.0742V40.0029H40.9258V37.8545Z" fill="white"/>
</svg>
