<svg width="337" height="200" viewBox="0 0 337 200" fill="none" xmlns="http://www.w3.org/2000/svg">
<g clip-path="url(#clip0_22976_273148)">
<path d="M225.773 133.002L221.918 136.982L225.656 141.666C226.097 142.22 226.816 142.474 227.507 142.321L233.84 140.92C234.69 140.732 235.295 139.979 235.295 139.108V134.76C235.295 133.788 234.545 132.981 233.576 132.909L227.243 132.443C226.694 132.402 226.156 132.607 225.773 133.002Z" fill="#FBD1B5"/>
<path fill-rule="evenodd" clip-rule="evenodd" d="M227.473 137.249L228.018 136.687L231.12 136.915V137.245L228.018 137.931L227.473 137.249ZM219.908 141.157H211.514C209.207 141.157 207.338 139.288 207.338 136.982C207.338 134.675 209.207 132.806 211.514 132.806H220.15L222.774 130.097C224.018 128.813 225.767 128.147 227.55 128.278L233.883 128.745C237.033 128.977 239.471 131.601 239.471 134.76V139.108C239.471 141.937 237.505 144.386 234.742 144.997L233.84 140.92M219.908 141.157L222.391 144.27C223.827 146.07 226.161 146.895 228.409 146.398L234.742 144.997L233.84 140.92" fill="#FBD1B5"/>
<path d="M160.635 10.0706L140.787 42.8345C157.968 40.1913 182.363 41.7332 192.412 42.8345L172.906 10.1139C170.141 5.47595 163.432 5.45226 160.635 10.0706Z" fill="#9376E4"/>
<path fill-rule="evenodd" clip-rule="evenodd" d="M169.32 12.2521C168.168 10.3196 165.373 10.3097 164.207 12.234L148.758 37.7378C161.066 36.7779 174.882 37.2599 184.645 37.9575L169.32 12.2521ZM157.064 7.90697C161.494 0.594667 172.116 0.632169 176.494 7.97559L200.294 47.8988L191.958 46.9853C182 45.8939 158.047 44.404 141.423 46.9616L132.582 48.3218L157.064 7.90697Z" fill="#9376E4"/>
<path d="M158.132 38.7056C158.775 26.0425 160.749 19.3413 165.566 7.73047L145.742 39.5316L158.132 38.7056Z" fill="#845FEB"/>
<path d="M218.014 145.639V128.678C218.014 127.199 216.668 126.082 215.191 125.996C206.419 125.481 197.374 116.361 193.647 111.391L196.538 137.41C199.978 144.29 209.47 147.107 215.52 147.913C216.872 148.093 218.014 147.004 218.014 145.639Z" fill="#9376E4"/>
<path fill-rule="evenodd" clip-rule="evenodd" d="M187.807 96.6445L192.47 138.611L192.803 139.277C195.108 143.887 199.276 146.848 203.281 148.721C207.326 150.614 211.647 151.61 214.969 152.052C219.048 152.595 222.189 149.298 222.189 145.639V128.678C222.189 124.432 218.52 122.008 215.435 121.827C212.296 121.643 208.659 119.836 205.086 117.065C201.597 114.358 198.659 111.114 196.987 108.885L187.807 96.6445ZM213.838 130.065V143.4C211.591 142.949 209.102 142.224 206.82 141.157C203.978 139.828 201.816 138.139 200.597 136.129L199.139 123.005C199.412 123.227 199.688 123.447 199.968 123.664C203.774 126.616 208.624 129.437 213.838 130.065Z" fill="#9376E4"/>
<path d="M112.699 145.639V128.678C112.699 127.199 114.045 126.082 115.522 125.996C124.294 125.481 133.338 116.361 137.066 111.391L134.175 137.41C130.735 144.29 121.243 147.107 115.193 147.913C113.841 148.093 112.699 147.004 112.699 145.639Z" fill="#9376E4"/>
<path fill-rule="evenodd" clip-rule="evenodd" d="M142.906 96.6445L138.243 138.611L137.91 139.277C135.605 143.887 131.437 146.848 127.432 148.721C123.387 150.614 119.065 151.61 115.744 152.052C111.665 152.595 108.523 149.298 108.523 145.639V128.678C108.523 124.432 112.193 122.008 115.278 121.827C118.417 121.643 122.054 119.836 125.627 117.065C129.116 114.358 132.054 111.114 133.726 108.885L142.906 96.6445ZM116.875 130.065V143.4C119.122 142.949 121.611 142.224 123.893 141.157C126.735 139.828 128.897 138.139 130.116 136.129L131.574 123.005C131.301 123.227 131.025 123.447 130.745 123.664C126.939 126.616 122.089 129.437 116.875 130.065Z" fill="#9376E4"/>
<path d="M125.15 189.697L140.778 92.8047H190.751L205.215 189.753C205.645 192.637 203.411 195.229 200.495 195.229H129.861C126.922 195.229 124.682 192.598 125.15 189.697Z" fill="#9376E4"/>
<path fill-rule="evenodd" clip-rule="evenodd" d="M137.222 88.6289H194.351L209.346 189.136C210.153 194.544 205.963 199.405 200.496 199.405H129.862C124.352 199.405 120.151 194.472 121.028 189.032L137.222 88.6289ZM144.335 96.9803L129.273 190.362C129.215 190.724 129.495 191.053 129.862 191.053H200.496C200.86 191.053 201.14 190.729 201.086 190.369L187.153 96.9803H144.335Z" fill="#9376E4"/>
<path d="M247.338 66.3738C247.338 80.0595 211.096 91.1539 166.39 91.1539C121.683 91.1539 85.4414 80.0595 85.4414 66.3738C85.4414 52.6882 121.683 41.5938 166.39 41.5938C211.096 41.5938 247.338 52.6882 247.338 66.3738Z" fill="#9376E4"/>
<path d="M140.371 61.0048C140.371 74.6905 170.707 91.1539 140.371 91.1539C110.034 91.1539 85.4414 80.0595 85.4414 66.3738C85.4414 52.6882 110.034 41.5938 140.371 41.5938C203.973 41.5938 140.371 47.3192 140.371 61.0048Z" fill="#845FEB"/>
<path fill-rule="evenodd" clip-rule="evenodd" d="M94.2509 60.1109C90.5802 62.7676 89.617 64.9382 89.617 66.3738C89.617 67.8093 90.5802 69.9799 94.2509 72.6366C97.8269 75.2247 103.27 77.7289 110.373 79.9031C124.526 84.2357 144.332 86.9781 166.39 86.9781C188.447 86.9781 208.253 84.2357 222.406 79.9031C229.509 77.7289 234.952 75.2247 238.528 72.6366C242.199 69.9799 243.162 67.8093 243.162 66.3738C243.162 64.5562 241.562 61.6413 235.67 58.2864C230.068 55.0959 221.757 52.2221 211.372 50.0337C209.115 49.5581 207.671 47.3433 208.147 45.0867C208.622 42.8301 210.837 41.3862 213.094 41.8617C223.912 44.1414 233.154 47.2426 239.803 51.0292C246.164 54.6513 251.514 59.7154 251.514 66.3738C251.514 71.781 247.946 76.1294 243.425 79.402C238.808 82.7431 232.397 85.5786 224.851 87.8887C209.707 92.5247 189.038 95.3295 166.39 95.3295C143.741 95.3295 123.072 92.5247 107.928 87.8887C100.382 85.5786 93.9708 82.7431 89.3544 79.402C84.8327 76.1294 81.2656 71.781 81.2656 66.3738C81.2656 60.9665 84.8327 56.6181 89.3544 53.3455C93.9708 50.0044 100.382 47.1689 107.928 44.8588C123.072 40.2228 143.741 37.418 166.39 37.418H166.461C175.404 37.418 189.46 37.4179 204.265 39.956C206.538 40.3457 208.065 42.5042 207.675 44.7772C207.286 47.0502 205.127 48.577 202.854 48.1873C188.789 45.7762 175.348 45.7694 166.39 45.7694C144.332 45.7694 124.526 48.5118 110.373 52.8444C103.27 55.0186 97.8269 57.5228 94.2509 60.1109Z" fill="#9376E4"/>
<path d="M146.877 54.7836C142.864 55.3575 139.711 58.4851 139.002 62.4758L137.831 69.0618C137.607 70.3208 135.921 70.3566 135.367 69.2042C134.724 67.8687 133.797 66.8908 132.339 66.965C128.314 67.5979 123.679 72.6841 133.028 88.6529C133.858 90.0698 135.401 90.9191 137.043 90.9191H194.875C196.517 90.9191 198.059 90.0701 198.89 88.6543C208.301 72.6298 204.318 66.965 199.578 66.965C198.307 67.0745 197.408 68.0198 196.742 69.2671C196.139 70.395 194.31 70.3208 194.087 69.0618L192.889 62.323C192.192 58.4074 189.14 55.3058 185.208 54.7055C170.776 52.502 160.732 52.8018 146.877 54.7836Z" fill="#FBD1B5"/>
<path fill-rule="evenodd" clip-rule="evenodd" d="M146.286 50.6499C160.473 48.6206 170.935 48.302 185.839 50.5776C191.616 51.4596 196.005 55.9941 197 61.592L197.294 63.2483C197.873 63.0226 198.513 62.8655 199.22 62.8046L199.399 62.7892H199.579C201.591 62.7892 203.762 63.3986 205.544 64.9582C207.349 66.5383 208.381 68.7651 208.687 71.3009C209.267 76.1205 207.322 82.544 202.491 90.7689C200.88 93.5119 197.938 95.0947 194.875 95.0947H137.043C133.98 95.0947 131.034 93.5119 129.425 90.7625C124.607 82.5326 122.833 76.2314 123.537 71.4492C123.906 68.9461 124.96 66.8727 126.551 65.3541C128.109 63.8679 129.973 63.1099 131.691 62.8399L131.908 62.8058L132.127 62.7946C133.069 62.7466 133.906 62.8722 134.647 63.1167L134.891 61.7448C135.907 56.0292 140.438 51.4863 146.286 50.6499ZM184.578 58.8333C170.617 56.7017 160.991 56.983 147.468 58.9172C145.291 59.2286 143.516 60.9408 143.113 63.2066L141.942 69.7926C141.448 72.5722 139.14 74.1129 136.902 74.209C135.072 74.2876 133.189 73.4408 132.048 71.7821C131.953 71.9794 131.859 72.2623 131.8 72.6667C131.518 74.578 132.101 78.8043 136.632 86.5431C136.681 86.6276 136.821 86.7433 137.043 86.7433H194.875C195.095 86.7433 195.238 86.6281 195.29 86.5395C199.871 78.7399 200.638 74.3188 200.395 72.2999C200.355 71.9632 200.29 71.7278 200.231 71.5708C198.999 73.5491 196.841 74.341 195.012 74.2271C192.999 74.1015 190.501 72.7463 189.975 69.7926L188.777 63.0538C188.38 60.8206 186.664 59.1517 184.578 58.8333Z" fill="#FBD1B5"/>
<path d="M179.24 69.2601C177.821 69.2601 176.67 68.291 176.67 67.094V63.7166C176.67 62.5199 177.821 61.5508 179.24 61.5508C180.66 61.5508 181.809 62.5199 181.809 63.7166V67.094C181.809 68.291 180.66 69.2601 179.24 69.2601Z" fill="#494F57"/>
<path d="M154.825 69.2601C153.406 69.2601 152.256 68.291 152.256 67.094V63.7166C152.256 62.5199 153.406 61.5508 154.825 61.5508C156.244 61.5508 157.395 62.5199 157.395 63.7166V67.094C157.395 68.291 156.244 69.2601 154.825 69.2601Z" fill="#494F57"/>
<path fill-rule="evenodd" clip-rule="evenodd" d="M166.387 129.934C168.693 129.934 170.562 131.803 170.562 134.109L170.562 167.264C170.562 169.396 168.964 171.155 166.901 171.408C168.964 171.662 170.562 173.421 170.562 175.553L170.562 192.13C170.562 194.436 168.693 196.306 166.387 196.306C164.08 196.306 162.211 194.436 162.211 192.13L162.211 175.553C162.211 173.421 163.809 171.662 165.872 171.408C163.809 171.155 162.211 169.396 162.211 167.264L162.211 134.109C162.211 131.803 164.08 129.934 166.387 129.934Z" fill="#48299F"/>
<path fill-rule="evenodd" clip-rule="evenodd" d="M166.805 67.1562C169.111 67.1562 170.98 69.0258 170.98 71.332V77.527C170.98 79.8331 169.111 81.7027 166.805 81.7027C164.498 81.7027 162.629 79.8331 162.629 77.527V71.332C162.629 69.0258 164.498 67.1562 166.805 67.1562Z" fill="#E8BC9F"/>
<path d="M213.928 145.874L197.225 120.176L200.565 140.013C203.007 142.661 210.074 144.956 213.928 145.874Z" fill="#845FEB"/>
<path d="M116.281 147.651L132.984 121.953L129.644 141.79C127.202 144.439 120.135 146.733 116.281 147.651Z" fill="#845FEB"/>
<path d="M127.564 192.342L140.367 114.285L152.345 119.241L147.389 192.342H127.564Z" fill="#845FEB"/>
<path d="M140.049 63.485C143.247 52.1149 178.596 51.4341 179.238 51.4341C177.31 50.7916 159.322 50.1478 148.401 51.4327C139.663 52.4606 137.051 56.5723 136.837 58.4996L135.552 64.9241C129.77 62.3543 125.272 67.4939 124.63 72.6335C123.987 77.7731 127.842 85.4825 130.412 89.9796C132.468 93.5773 136.836 94.0485 138.764 93.8343C139.406 92.1211 140.177 88.3093 138.121 86.7674L138.07 86.7292C135.534 84.8286 134.305 83.9071 140.049 63.485Z" fill="#E8BC9F"/>
<path fill-rule="evenodd" clip-rule="evenodd" d="M167.185 51.1776C161.089 51.0971 153.885 51.2576 148.454 51.8965C139.829 52.9112 137.477 56.9286 137.297 58.5539L137.295 58.5739L135.892 65.5865L135.362 65.3511C132.647 64.1443 130.263 64.7439 128.459 66.2472C126.634 67.7686 125.398 70.2255 125.089 72.694C124.783 75.145 125.55 78.2672 126.748 81.3839C127.941 84.4848 129.534 87.5135 130.814 89.7523C131.771 91.4281 133.271 92.3853 134.784 92.9C136.153 93.3655 137.51 93.46 138.425 93.4009C138.703 92.5773 138.976 91.3921 138.989 90.234C139.005 88.9238 138.69 87.7777 137.842 87.1415L137.791 87.1034L137.761 87.081C137.147 86.6212 136.528 86.1567 136.097 85.3994C135.657 84.6238 135.442 83.5962 135.49 82.0412C135.586 78.9539 136.732 73.5626 139.601 63.3624C140.46 60.308 143.443 58.058 147.243 56.3837C151.067 54.6986 155.849 53.5397 160.523 52.7414C164.851 52.0022 169.109 51.5684 172.468 51.3158C170.876 51.2512 169.085 51.2027 167.185 51.1776ZM177.857 50.7387C178.548 50.8145 179.089 50.8985 179.384 50.9969L179.237 51.9011C178.932 51.9011 169.962 52.0705 160.679 53.6561C156.035 54.4493 151.34 55.5925 147.617 57.2329C143.869 58.8841 141.234 60.983 140.495 63.6136C137.62 73.8355 136.509 79.1159 136.418 82.07C136.372 83.5357 136.581 84.3712 136.904 84.9411C137.231 85.5171 137.703 85.8778 138.347 86.3609L138.398 86.3991C139.606 87.3047 139.934 88.8355 139.917 90.245C139.9 91.6712 139.532 93.1065 139.197 94.0001L139.097 94.2669L138.814 94.2983C137.789 94.4122 136.146 94.3433 134.485 93.7786C132.819 93.2118 131.106 92.1347 130.008 90.2127C128.717 87.9544 127.099 84.8799 125.882 81.717C124.672 78.5697 123.832 75.2675 124.168 72.5789C124.502 69.9079 125.836 67.2252 127.865 65.5343C129.797 63.925 132.353 63.2236 135.206 64.2854L136.377 58.4306C136.64 56.1959 139.523 52.0129 148.345 50.975C153.836 50.329 161.087 50.169 167.197 50.2498C170.255 50.2902 173.033 50.3909 175.17 50.5221C176.238 50.5877 177.149 50.661 177.857 50.7387Z" fill="#E8BC9F"/>
<path d="M140.105 105.135L139.406 92.0053L153.472 79.6326L183.258 78.2578L193.186 92.0053C196.496 138.288 159.322 140.575 159.322 139.29C159.322 139.056 159.323 138.828 159.324 138.606C159.357 131.774 155.878 125.588 150.073 121.986C144.195 118.337 140.472 112.044 140.105 105.135Z" fill="#E7E7E7"/>
<path fill-rule="evenodd" clip-rule="evenodd" d="M185.321 73.9844L197.267 90.525L197.351 91.7094C199.101 116.176 190.083 129.796 179.885 136.912C174.917 140.379 169.843 142.18 165.978 143.032C164.049 143.457 162.348 143.663 161.037 143.701C160.409 143.72 159.724 143.706 159.092 143.607C158.815 143.563 158.278 143.465 157.7 143.202C157.415 143.072 156.883 142.798 156.37 142.276C155.813 141.708 155.146 140.694 155.146 139.292C155.146 139.051 155.147 138.816 155.148 138.588C155.174 133.232 152.463 128.385 147.871 125.535C140.832 121.166 136.375 113.632 135.935 105.359L135.129 90.2084L151.815 75.5308L185.321 73.9844ZM155.129 83.7382L143.683 93.8061L144.274 104.915C144.569 110.461 147.557 115.511 152.275 118.44C158.273 122.162 162.247 128.201 163.25 135.064C163.544 135.011 163.854 134.949 164.18 134.877C167.181 134.215 171.194 132.793 175.106 130.063C182.53 124.882 190.295 114.505 189.096 93.4765L181.194 82.5351L155.129 83.7382Z" fill="#E7E7E7"/>
<path d="M135.553 87.4073C140.394 91.4804 145.009 82.5525 150.238 76.609C155.467 70.6655 164.459 74.3397 167.347 82.6292C167.347 82.6292 159.554 95.1295 150.925 96.159C142.295 97.1885 135.553 87.4073 135.553 87.4073Z" fill="#E7E7E7"/>
<path fill-rule="evenodd" clip-rule="evenodd" d="M167.347 82.6292C164.459 74.3397 155.467 70.6655 150.238 76.609C149.08 77.9251 147.952 79.3876 146.845 80.8228C145.304 82.8207 143.804 84.7658 142.321 86.19C140.056 88.3628 137.83 89.3229 135.553 87.4073C135.553 87.4073 138.036 91.0097 141.917 93.612C144.431 95.2977 147.532 96.5637 150.925 96.159C159.554 95.1295 167.347 82.6292 167.347 82.6292ZM147.21 89.7334C148.275 90.1724 149.287 90.3467 150.218 90.2357C152.26 89.9921 155.096 88.0717 158.005 84.9449C158.924 83.9561 159.737 82.9717 160.405 82.1084C159.53 80.945 158.492 80.2075 157.593 79.8738C156.908 79.6193 156.378 79.6167 156.008 79.699C155.675 79.7732 155.229 79.9666 154.716 80.5493C153.695 81.7105 152.692 83.0107 151.567 84.4684C151.426 84.6512 151.283 84.8364 151.138 85.0242C149.971 86.5345 148.623 88.2587 147.21 89.7334Z" fill="#D0D0D0"/>
<path d="M195.937 89.3785C191.131 93.4699 189.594 82.5563 184.473 76.6697C179.353 70.7831 170.452 74.5054 167.545 82.7849C167.545 82.7849 175.151 95.1874 183.662 96.1544C192.172 97.1214 195.937 89.3785 195.937 89.3785Z" fill="#E7E7E7"/>
<path fill-rule="evenodd" clip-rule="evenodd" d="M167.545 82.7849C170.452 74.5054 179.353 70.7831 184.473 76.6697C186.327 78.8003 187.711 81.5895 188.95 84.0873C189.464 85.124 189.954 86.1104 190.442 86.9788C192.026 89.7993 193.593 91.3745 195.937 89.3785C195.937 89.3785 194.058 93.2423 189.955 95.1702C188.25 95.9715 186.16 96.4383 183.662 96.1544C175.151 95.1874 167.545 82.7849 167.545 82.7849ZM185.445 90.2622C185.097 90.2819 184.728 90.2719 184.335 90.2273C182.392 90.0065 179.649 88.161 176.801 85.0669C175.909 84.0983 175.121 83.1327 174.472 82.2838C175.358 81.0881 176.406 80.3309 177.302 79.9896C177.977 79.7328 178.478 79.7341 178.804 79.8053C179.09 79.8679 179.493 80.034 179.973 80.5848C180.794 81.5294 181.595 82.8285 182.469 84.4896C182.723 84.9732 183.078 85.6835 183.46 86.4476C184.027 87.5818 184.653 88.8349 185.097 89.6422C185.2 89.8298 185.316 90.0383 185.445 90.2622Z" fill="#D0D0D0"/>
<path d="M132.593 86.8074C137.629 90.7784 145.872 79.5351 151.702 73.2764C157.532 67.0177 167.032 70.4252 169.815 78.7699C169.815 78.7699 160.99 91.8121 151.7 93.1878C142.411 94.5635 132.593 86.8074 132.593 86.8074Z" fill="#E7E7E7"/>
<path fill-rule="evenodd" clip-rule="evenodd" d="M140.707 84.8655C143.375 82.6777 146.152 79.5226 148.696 76.6317C149.746 75.4395 150.756 74.2923 151.702 73.2764C157.532 67.0177 167.032 70.4252 169.815 78.7699C169.815 78.7699 160.99 91.8121 151.7 93.1878C148.135 93.7159 144.491 92.8983 141.354 91.6905C136.64 89.8751 133.072 87.178 132.637 86.8422C134.867 88.5544 137.718 87.3175 140.707 84.8655ZM147.067 87.1571C148.38 87.3988 149.652 87.4607 150.827 87.2868C153.396 86.9062 156.736 84.5948 159.983 81.2853C161.063 80.1845 162.016 79.0952 162.791 78.1527C161.972 77.158 160.988 76.5202 160.071 76.2245C158.695 75.7811 157.316 76.0016 156.067 77.3421C155.348 78.1147 154.477 79.1026 153.513 80.1961C151.582 82.3865 149.278 85.0008 147.067 87.1571ZM132.593 86.8074C132.608 86.8191 132.623 86.8307 132.637 86.8422C132.608 86.8193 132.593 86.8074 132.593 86.8074Z" fill="#E7E7E7"/>
<path d="M202.017 86.8074C196.981 90.7784 188.737 79.5351 182.907 73.2764C177.078 67.0177 167.578 70.4252 164.794 78.7699C164.794 78.7699 173.62 91.8121 182.909 93.1878C192.198 94.5635 202.017 86.8074 202.017 86.8074Z" fill="#E7E7E7"/>
<path fill-rule="evenodd" clip-rule="evenodd" d="M193.902 84.8655C191.235 82.6777 188.458 79.5226 185.913 76.6317C184.863 75.4395 183.854 74.2923 182.907 73.2764C177.078 67.0177 167.578 70.4252 164.794 78.7699C164.794 78.7699 173.62 91.8121 182.909 93.1878C186.475 93.7159 190.118 92.8983 193.255 91.6905C197.969 89.8751 201.537 87.178 201.972 86.8422C199.742 88.5544 196.891 87.3175 193.902 84.8655ZM187.542 87.1571C186.229 87.3988 184.957 87.4607 183.783 87.2868C181.213 86.9062 177.873 84.5948 174.626 81.2853C173.546 80.1845 172.594 79.0952 171.818 78.1527C172.638 77.158 173.621 76.5202 174.539 76.2245C175.914 75.7811 177.294 76.0016 178.542 77.3421C179.262 78.1147 180.133 79.1026 181.096 80.1961C183.027 82.3865 185.331 85.0008 187.542 87.1571ZM202.017 86.8074C202.002 86.8191 201.987 86.8307 201.972 86.8422C202.002 86.8193 202.017 86.8074 202.017 86.8074Z" fill="#E7E7E7"/>
<path d="M133.822 190.405L109 84.4733L99.5883 86.6785L124.41 192.61C124.768 194.138 126.296 195.087 127.823 194.729L131.703 193.82C133.231 193.462 134.18 191.933 133.822 190.405Z" fill="#E3986D"/>
<path d="M109 84.4733L99.5883 86.6785L103.913 105.135C105.035 105.159 106.171 105.089 107.31 104.911C108.216 104.769 109.121 104.56 110.003 104.292C111.171 103.935 112.278 103.474 113.325 102.93L109 84.4733Z" fill="#D97C40"/>
<path d="M113.744 82.6945C112.152 77.4753 106.629 74.5347 101.41 76.1266C96.1898 77.7187 93.249 83.2401 94.8411 88.4605C96.433 93.6796 101.954 96.6204 107.175 95.0295C112.394 93.4376 115.336 87.9148 113.744 82.6945Z" fill="#EBEBEB"/>
<path d="M100.718 84.2714C99.8299 81.3609 100.353 78.3557 101.895 75.9904C101.733 76.0318 101.57 76.0759 101.408 76.1261C96.1875 77.7182 93.2469 83.2407 94.8388 88.4599C96.4309 93.6803 101.954 96.6209 107.173 95.029C109.481 94.3254 111.343 92.8515 112.565 90.9762C107.493 92.2476 102.261 89.3296 100.718 84.2714Z" fill="#D5D4DA"/>
<path d="M107.48 138.956L110.35 143.321C110.503 143.554 110.709 143.746 110.952 143.883L112.407 144.705C113.486 145.314 114.838 144.64 115.002 143.412L115.737 137.899C115.883 136.805 114.991 135.851 113.89 135.922L108.829 136.248C107.49 136.335 106.742 137.834 107.48 138.956Z" fill="#FBD1B5"/>
<path fill-rule="evenodd" clip-rule="evenodd" d="M110.862 142.861C110.862 142.86 110.862 142.86 110.862 142.859L110.862 142.861ZM113.62 131.755C117.351 131.514 120.369 134.746 119.875 138.451L119.14 143.964C118.586 148.122 114.006 150.403 110.354 148.341L108.899 147.52C108.078 147.056 107.379 146.403 106.861 145.615L103.99 141.25C101.493 137.453 104.024 132.374 108.56 132.081L113.62 131.755Z" fill="#FBD1B5"/>
<g clip-path="url(#clip1_22976_273148)">
<path d="M247.044 160.638C247.044 170.36 239.11 178.23 229.364 178.125C219.678 178.022 211.98 170.164 212.067 160.478C212.082 158.789 212.336 157.158 212.799 155.616C214.009 151.573 216.643 148.145 220.118 145.913C223.39 143.812 225.325 140.15 225.325 136.261V128.285H233.785V136.283C233.785 140.201 235.79 143.832 239.075 145.968C242.055 147.905 244.407 150.725 245.762 154.056C246.589 156.087 247.044 158.309 247.044 160.638Z" fill="#E3F4FF"/>
<path d="M247.043 160.638C247.043 167.383 243.223 173.237 237.63 176.154C242.106 172.987 245.028 167.768 245.028 161.868C245.028 159.539 244.573 157.318 243.746 155.287C242.391 151.954 240.04 149.135 237.06 147.198C233.775 145.063 231.77 141.431 231.77 137.513V128.285H233.784V136.283C233.784 140.201 235.79 143.832 239.075 145.968C242.053 147.904 244.406 150.725 245.761 154.056C246.588 156.087 247.043 158.309 247.043 160.638Z" fill="#BDDFF4"/>
<path d="M247.042 160.477C247.104 167.31 243.291 173.233 237.641 176.166C235.281 177.391 232.599 178.095 229.746 178.125C220 178.229 212.066 170.359 212.066 160.637V160.567C212.076 158.24 214.818 156.997 216.589 158.508C218.643 160.258 221.304 161.314 224.214 161.314H224.286C227.977 161.314 231.414 159.552 233.674 156.636C235.243 154.611 237.698 153.309 240.458 153.309C241.344 153.309 242.198 153.442 243.002 153.692C244.252 154.079 245.378 154.745 246.311 155.615C246.773 157.157 247.028 158.789 247.042 160.477Z" fill="#4C60E1"/>
<path d="M247.042 160.48C247.104 167.313 243.291 173.236 237.64 176.169C237.637 176.165 237.634 176.161 237.631 176.156C242.107 172.989 245.028 167.771 245.028 161.871C245.028 159.542 244.574 157.32 243.747 155.29C243.525 154.744 243.276 154.212 243.002 153.695C244.252 154.082 245.378 154.748 246.311 155.618C246.773 157.161 247.027 158.792 247.042 160.48Z" fill="#364EC6"/>
<path d="M247.043 160.567V160.637C247.043 167.382 243.225 173.235 237.631 176.153H237.631C235.162 177.441 232.347 178.157 229.364 178.125C219.678 178.021 211.98 170.163 212.067 160.477C212.082 158.789 212.336 157.157 212.798 155.615C214.331 154.184 216.388 153.309 218.652 153.309C221.412 153.309 223.867 154.611 225.435 156.636C227.695 159.552 231.133 161.314 234.824 161.314H234.896C237.805 161.314 240.467 160.258 242.52 158.508C243.137 157.982 243.872 157.789 244.567 157.861C245.87 157.994 247.037 159.051 247.043 160.567Z" fill="#43A3F9"/>
<path d="M247.043 160.569V160.64C247.043 167.384 243.225 173.237 237.631 176.155C242.106 172.987 245.028 167.77 245.028 161.87C245.028 160.491 244.869 159.15 244.567 157.863C245.869 157.996 247.036 159.053 247.043 160.569Z" fill="#1685FB"/>
<path d="M223.104 159.233C222.868 159.233 222.634 159.128 222.479 158.927C221.554 157.734 220.159 157.049 218.652 157.049C218.04 157.049 217.442 157.162 216.877 157.385C216.471 157.545 216.012 157.345 215.852 156.939C215.692 156.533 215.892 156.074 216.298 155.914C217.048 155.619 217.84 155.469 218.652 155.469C220.652 155.469 222.502 156.376 223.728 157.959C223.996 158.304 223.933 158.801 223.588 159.068C223.444 159.179 223.273 159.233 223.104 159.233Z" fill="#83D9FF"/>
<path d="M234.821 130.433H224.287C223.701 130.433 223.227 129.958 223.227 129.373V126.806C223.227 126.221 223.701 125.746 224.287 125.746H234.821C235.406 125.746 235.881 126.221 235.881 126.806V129.373C235.881 129.958 235.406 130.433 234.821 130.433Z" fill="#9CC6DB"/>
<path d="M235.882 126.806V129.373C235.882 129.958 235.408 130.433 234.822 130.433H232.078C232.664 130.433 233.138 129.958 233.138 129.373V126.806C233.138 126.221 232.664 125.746 232.078 125.746H234.822C235.408 125.746 235.882 126.221 235.882 126.806Z" fill="#84A1C0"/>
<path d="M239.756 167.102C239.756 168.27 238.809 169.216 237.642 169.216C236.474 169.216 235.527 168.27 235.527 167.102C235.527 165.935 236.474 164.988 237.642 164.988C238.809 164.988 239.756 165.935 239.756 167.102Z" fill="#83D9FF"/>
<path d="M236 150.247C236 151.415 235.053 152.361 233.886 152.361C232.718 152.361 231.771 151.415 231.771 150.247C231.771 149.079 232.718 148.133 233.886 148.133C235.053 148.133 236 149.079 236 150.247Z" fill="#4C60E1"/>
<path d="M230.392 145.373C230.392 146.278 229.659 147.011 228.754 147.011C227.849 147.011 227.115 146.278 227.115 145.373C227.115 144.468 227.849 143.734 228.754 143.734C229.659 143.734 230.392 144.468 230.392 145.373Z" fill="#4C60E1"/>
<path d="M231.293 166.511C230.857 166.511 230.498 166.157 230.498 165.72C230.498 165.284 230.847 164.93 231.284 164.93H231.293C231.73 164.93 232.084 165.284 232.084 165.72C232.084 166.157 231.73 166.511 231.293 166.511Z" fill="#83D9FF"/>
<path d="M227.954 151.038C227.521 151.038 227.163 150.69 227.158 150.256C227.153 149.819 227.499 149.462 227.935 149.457H227.945C228.38 149.457 228.739 149.803 228.744 150.239C228.748 150.676 228.398 151.033 227.962 151.038C227.959 151.038 227.956 151.038 227.954 151.038Z" fill="#4C60E1"/>
<path d="M232.532 168.331C232.095 168.331 231.736 167.977 231.736 167.54C231.736 167.104 232.086 166.75 232.522 166.75H232.532C232.968 166.75 233.322 167.104 233.322 167.54C233.322 167.977 232.968 168.331 232.532 168.331Z" fill="#83D9FF"/>
<path d="M222.559 171.561C222.123 171.561 221.764 171.207 221.764 170.771C221.764 170.334 222.113 169.98 222.549 169.98H222.559C222.996 169.98 223.35 170.335 223.35 170.771C223.35 171.207 222.996 171.561 222.559 171.561Z" fill="#83D9FF"/>
</g>
<path d="M230.799 134.434L234.106 139.463C234.37 139.977 235.14 139.844 235.216 139.271L236.008 133.333C236.165 132.155 235.126 131.166 233.956 131.381L231.944 131.752C230.713 131.979 230.111 133.388 230.799 134.434Z" fill="#FBD1B5"/>
<path fill-rule="evenodd" clip-rule="evenodd" d="M231.079 138.715L231.079 138.717L231.079 138.715ZM233.202 127.272C237.162 126.543 240.681 129.891 240.148 133.883L239.357 139.82C238.753 144.345 232.799 145.472 230.54 141.636L227.312 136.726C224.982 133.183 227.019 128.411 231.189 127.643L233.202 127.272Z" fill="#FBD1B5"/>
<path d="M195.943 68.0673C199.156 67.639 205.066 68.5813 203.01 75.7767C202.582 73.6357 200.569 69.0965 195.943 68.0673Z" fill="#E8BC9F"/>
<path d="M135.332 68.0673C132.12 67.639 126.209 68.5813 128.265 75.7767C128.693 73.6357 130.706 69.0965 135.332 68.0673Z" fill="#D2A587"/>
<path d="M132.098 85.7796C131.656 86.3162 130.459 85.6363 129.202 78.624C129.75 80.6704 131.096 84.9664 132.098 85.7796Z" fill="#D2A587"/>
<path d="M199.818 85.6897C200.26 86.2263 201.457 85.5464 202.714 78.5342C202.166 80.5806 200.82 84.8766 199.818 85.6897Z" fill="#E8BC9F"/>
</g>
<path opacity="0.7" fill-rule="evenodd" clip-rule="evenodd" d="M14.2492 133.154C10.8057 134.793 7.21982 134.633 4.86123 133.992C2.47856 133.344 1.07225 130.887 1.72015 128.504C2.36805 126.122 4.82481 124.715 7.20748 125.363C7.97397 125.572 9.29281 125.61 10.4071 125.08C11.2526 124.677 12.5274 123.704 13.1638 120.738C13.587 117.391 15.3931 112.978 19.4117 109.636C23.655 106.106 29.8834 104.162 38.3315 105.267C40.7798 105.587 42.5049 107.831 42.1847 110.28C41.8644 112.728 39.62 114.453 37.1717 114.133C30.7175 113.289 27.1177 114.857 25.1298 116.51C23.0122 118.272 22.1731 120.582 22.0255 121.94L22.0036 122.142L21.9635 122.34C20.8505 127.861 17.9459 131.395 14.2492 133.154Z" fill="#F15959"/>
<path opacity="0.7" fill-rule="evenodd" clip-rule="evenodd" d="M315.221 46.5846C315.173 46.4757 315.122 46.3712 315.071 46.2744C315.052 46.2531 315.034 46.232 315.016 46.211C315.101 46.4302 315.185 46.5426 315.221 46.5846ZM308.048 43.2839C307.782 46.6096 308.488 49.3343 310.284 51.2473C312.367 53.4663 315.156 53.7751 316.986 53.4917C318.449 53.2719 319.867 52.669 320.908 51.4743C321.943 50.2853 322.265 48.8989 322.294 47.763C322.348 45.6636 321.442 43.685 320.784 42.5859L320.654 42.3685L320.493 42.1728C319.319 40.7465 318.084 39.6147 316.814 38.7433C317.251 38.27 317.775 37.8256 318.399 37.4431C320.549 36.1255 324.49 35.1759 331.384 37.2928C333.177 37.8432 335.076 36.8363 335.627 35.0437C336.177 33.2512 335.17 31.3518 333.378 30.8014C325.249 28.3054 319.149 29.0187 314.85 31.6536C312.724 32.9568 311.188 34.641 310.13 36.3881C308.981 36.3183 307.842 36.4042 306.728 36.6228C302.501 37.4532 299.058 40.1052 297.135 42.2314C295.877 43.6222 295.985 45.7693 297.376 47.027C298.767 48.2847 300.914 48.1767 302.172 46.7859C303.454 45.3681 305.678 43.7495 308.037 43.286C308.041 43.2853 308.044 43.2846 308.048 43.2839Z" fill="#F15959"/>
<path d="M283.229 155.968C283.939 153.318 286.664 151.745 289.315 152.456C291.966 153.166 293.539 155.89 292.829 158.541C292.119 161.191 289.394 162.764 286.743 162.054C284.092 161.343 282.519 158.619 283.229 155.968Z" fill="#C15DFF"/>
<path d="M31.344 144.134C32.4854 139.875 36.8639 137.347 41.1236 138.488C45.3833 139.629 47.9112 144.008 46.7698 148.268C45.6284 152.527 41.2499 155.055 36.9902 153.914C32.7305 152.772 30.2026 148.394 31.344 144.134Z" fill="#F9C160"/>
<path d="M304.651 145.126C305.792 140.867 310.17 138.339 314.43 139.48C318.69 140.622 321.218 145 320.076 149.26C318.935 153.519 314.557 156.047 310.297 154.906C306.037 153.765 303.509 149.386 304.651 145.126Z" fill="#F68B8B"/>
<path fill-rule="evenodd" clip-rule="evenodd" d="M36.0937 53.1424C35.7142 55.4595 33.5281 57.0301 31.2111 56.6506C28.1496 56.1491 23.7333 54.5975 20.1873 51.3942C16.4556 48.0231 13.8079 42.8902 14.7346 35.9504C15.0454 33.6231 17.1839 31.9884 19.5112 32.2992C21.8385 32.6099 23.4732 34.7485 23.1625 37.0758C22.6443 40.9559 24.0123 43.3912 25.887 45.0848C27.9474 46.9461 30.7284 47.9556 32.5856 48.2598C34.9026 48.6393 36.4733 50.8254 36.0937 53.1424Z" fill="#C15DFF"/>
<path fill-rule="evenodd" clip-rule="evenodd" d="M308.968 104.512C306.84 105.48 305.899 107.99 306.867 110.118C308.146 112.929 310.788 116.77 314.79 119.344C319.001 122.052 324.623 123.26 331.052 120.563C333.208 119.658 334.222 117.177 333.317 115.021C332.413 112.866 329.932 111.851 327.776 112.756C324.182 114.264 321.485 113.584 319.369 112.223C317.044 110.727 315.35 108.318 314.574 106.612C313.605 104.484 311.096 103.544 308.968 104.512Z" fill="#72C045"/>
<path d="M43.4995 29.7356C44.2965 26.7611 47.354 24.9958 50.3285 25.7929C53.3031 26.5899 55.0683 29.6474 54.2713 32.6219C53.4742 35.5965 50.4168 37.3617 47.4422 36.5647C44.4677 35.7676 42.7025 32.7102 43.4995 29.7356Z" fill="#14A4BE"/>
<path d="M310.252 173.753C310.685 172.139 312.344 171.182 313.958 171.614C315.572 172.047 316.53 173.706 316.098 175.32C315.665 176.934 314.006 177.892 312.392 177.459C310.778 177.027 309.82 175.368 310.252 173.753Z" fill="#14A4BE"/>
<path d="M263.867 29.2915C264.743 26.0224 268.103 24.0824 271.372 24.9583C274.641 25.8343 276.581 29.1945 275.705 32.4636C274.829 35.7327 271.469 37.6727 268.2 36.7968C264.931 35.9208 262.991 32.5606 263.867 29.2915Z" fill="#72C045"/>
<path d="M317.657 77.4011C318.379 74.7066 321.149 73.1076 323.843 73.8296C326.538 74.5516 328.137 77.3212 327.415 80.0157C326.693 82.7102 323.923 84.3092 321.229 83.5873C318.534 82.8653 316.935 80.0956 317.657 77.4011Z" fill="#F9C160"/>
<path d="M61.6564 142.805C62.1637 140.912 64.1096 139.789 66.0028 140.296C67.896 140.803 69.0195 142.749 68.5123 144.642C68.005 146.536 66.059 147.659 64.1658 147.152C62.2726 146.645 61.1491 144.699 61.6564 142.805Z" fill="#72C045"/>
<path d="M47.8907 169.348C48.398 167.455 50.344 166.332 52.2372 166.839C54.1304 167.346 55.2539 169.292 54.7466 171.185C54.2394 173.079 52.2934 174.202 50.4002 173.695C48.507 173.187 47.3835 171.241 47.8907 169.348Z" fill="#C15DFF"/>
<path d="M11.7462 76.8055C12.3803 74.439 14.8128 73.0346 17.1793 73.6687C19.5458 74.3028 20.9502 76.7353 20.3161 79.1018C19.682 81.4683 17.2495 82.8727 14.883 82.2386C12.5165 81.6045 11.1121 79.172 11.7462 76.8055Z" fill="#72C045"/>
<defs>
<clipPath id="clip0_22976_273148">
<rect width="200" height="200" fill="white" transform="translate(68)"/>
</clipPath>
<clipPath id="clip1_22976_273148">
<rect width="52.381" height="52.3809" fill="white" transform="translate(203.268 125.746)"/>
</clipPath>
</defs>
</svg>
