<svg width="38" height="38" viewBox="0 0 38 38" fill="none" xmlns="http://www.w3.org/2000/svg">
<path d="M14.4436 30.0011C14.4436 32.514 16.488 34.5584 19.0009 34.5584C21.5138 34.5584 23.5582 32.514 23.5582 30.0011V26.2337C23.5582 24.1652 24.4275 22.1446 25.9432 20.6899C27.099 19.5806 27.9813 18.1987 28.4947 16.6939C29.0417 15.0906 29.1692 13.4114 28.8736 11.7031C28.4854 9.45858 27.3095 7.38999 25.5627 5.87849C23.7508 4.31072 21.4204 3.44733 19.0009 3.44727C16.5902 3.44727 14.2647 4.30732 12.4526 5.86901C10.698 7.38118 9.51731 9.45311 9.12812 11.7031C8.83263 13.4115 8.96011 15.0907 9.50704 16.6939C10.0204 18.1987 10.9027 19.5805 12.0586 20.6899C13.5743 22.1445 14.4436 24.1647 14.4436 26.2324V30.0011ZM13.3209 19.3746C11.3207 17.455 10.4472 14.7721 10.9244 12.0138C11.6003 8.10634 14.9969 5.27024 19.0009 5.27018C23.0049 5.27018 26.4015 8.10634 27.0775 12.0138C27.5546 14.7721 26.6811 17.455 24.6809 19.3746C23.0319 20.9574 22.0023 23.0859 21.7806 25.3221L16.2214 25.3211C15.9995 23.0856 14.97 20.9574 13.3209 19.3746ZM21.7353 27.145V30.0011C21.7353 31.5088 20.5087 32.7355 19.0009 32.7355C17.4932 32.7355 16.2665 31.5088 16.2665 30.0011V27.144L21.7353 27.145Z" fill="#FF8A00"/>
<path d="M18.0895 11.6504C18.0895 11.1478 18.4984 10.7389 19.001 10.7389C19.5036 10.7389 19.9124 11.1478 19.9124 11.6504C19.9124 11.9433 19.7768 12.2112 19.5403 12.3853C18.6318 13.0542 18.0895 14.1263 18.0895 15.2532V16.2077H19.9124V15.2532C19.9124 14.7034 20.1774 14.18 20.6211 13.8533C21.3188 13.3396 21.7354 12.516 21.7354 11.6504C21.7354 10.1427 20.5087 8.91602 19.001 8.91602C17.4932 8.91602 16.2666 10.1427 16.2666 11.6504V12.5618H18.0895V11.6504Z" fill="#FF8A00"/>
<path d="M4.40479 7.45801L5.69359 6.16921L8.37683 8.85245L7.08803 10.1413L4.40479 7.45801Z" fill="#FF8A00"/>
<path d="M3.44531 12.5615H7.15543V14.3844H3.44531V12.5615Z" fill="#FF8A00"/>
<path d="M4.42432 19.4658L7.10563 16.7845L8.39443 18.0733L5.71312 20.7546L4.42432 19.4658Z" fill="#FF8A00"/>
<path d="M29.6206 8.85547L32.3038 6.17227L33.5926 7.46107L30.9094 10.1443L29.6206 8.85547Z" fill="#FF8A00"/>
<path d="M30.8462 12.5615H34.5564V14.3844H30.8462V12.5615Z" fill="#FF8A00"/>
<path d="M29.6011 18.0771L30.8899 16.7883L33.5712 19.4697L32.2824 20.7585L29.6011 18.0771Z" fill="#FF8A00"/>
<path d="M18.0894 18.0303H19.9123V19.8532H18.0894V18.0303Z" fill="#FF8A00"/>
</svg>
