<svg width="14" height="14" viewBox="0 0 14 14" fill="none" xmlns="http://www.w3.org/2000/svg">
<mask id="path-1-inside-1_25280_418276" fill="white">
<path d="M11.9587 2.30492C11.6854 2.08056 11.3651 1.91803 11.0207 1.82886C10.6762 1.73969 10.316 1.72608 9.9656 1.78898L8.10769 2.12021C7.67874 2.19755 7.28873 2.41423 7.00032 2.73542C6.71117 2.41367 6.32004 2.19695 5.89005 2.12021L4.03505 1.78898C3.68464 1.72602 3.32442 1.73946 2.97988 1.82834C2.63535 1.91722 2.31493 2.07938 2.04129 2.30332C1.76766 2.52727 1.54751 2.80753 1.39643 3.12427C1.24534 3.44101 1.16702 3.78648 1.16699 4.13624L1.16699 9.28753C1.16702 9.84632 1.36677 10.3874 1.73143 10.8164C2.09609 11.2455 2.60253 11.5352 3.16248 11.6353L6.21817 12.1808C6.73537 12.2731 7.26528 12.2731 7.78248 12.1808L10.8406 11.6353C11.4001 11.5347 11.906 11.2447 12.2702 10.8158C12.6343 10.3868 12.8337 9.84598 12.8337 9.28753V4.13624C12.8339 3.78661 12.7556 3.44123 12.6043 3.12469C12.4531 2.80816 12.2326 2.52825 11.9587 2.30492ZM6.51421 11.2611C6.47338 11.2554 6.43255 11.2487 6.39171 11.2415L3.33651 10.6965C3.00049 10.6364 2.69659 10.4625 2.47778 10.205C2.25898 9.94756 2.13916 9.62285 2.13921 9.28753V4.13624C2.13921 3.75649 2.29286 3.3923 2.56635 3.12378C2.83984 2.85526 3.21077 2.7044 3.59755 2.7044C3.68558 2.70461 3.77342 2.71243 3.86005 2.72779L5.71699 3.06188C5.94041 3.10202 6.14247 3.2177 6.2881 3.38884C6.43372 3.55998 6.51372 3.77578 6.51421 3.99878V11.2611ZM11.8614 9.28753C11.8615 9.62285 11.7417 9.94756 11.5229 10.205C11.3041 10.4625 11.0002 10.6364 10.6641 10.6965L7.60894 11.2415C7.5681 11.2487 7.52727 11.2554 7.48644 11.2611V3.99878C7.4864 3.77523 7.56628 3.55876 7.71215 3.38711C7.85802 3.21545 8.06062 3.09951 8.28463 3.0595L10.1421 2.7254C10.3524 2.68783 10.5686 2.69612 10.7753 2.7497C10.982 2.80328 11.1742 2.90083 11.3383 3.03545C11.5023 3.17006 11.6342 3.33845 11.7247 3.52867C11.8151 3.7189 11.8618 3.92632 11.8614 4.13624V9.28753Z"/>
</mask>
<path d="M11.9587 2.30492L11.1972 3.2324L11.2005 3.23505L11.9587 2.30492ZM9.9656 1.78898L10.1762 2.97035L10.1776 2.9701L9.9656 1.78898ZM8.10769 2.12021L7.89707 0.938836L7.89476 0.939253L8.10769 2.12021ZM7.00032 2.73542L6.10779 3.53754L7.00072 4.53111L7.89321 3.53715L7.00032 2.73542ZM5.89005 2.12021L5.67911 3.30153L5.67923 3.30155L5.89005 2.12021ZM4.03505 1.78898L3.82285 2.97007L3.82411 2.97029L4.03505 1.78898ZM1.16699 4.13624L-0.0330079 4.13616V4.13624H1.16699ZM1.16699 9.28753H-0.0330079V9.28759L1.16699 9.28753ZM3.16248 11.6353L2.95146 12.8166L2.95158 12.8166L3.16248 11.6353ZM6.21817 12.1808L6.00727 13.3621L6.00741 13.3621L6.21817 12.1808ZM7.78248 12.1808L7.57174 10.9994L7.57172 10.9994L7.78248 12.1808ZM10.8406 11.6353L11.0513 12.8166L11.0528 12.8164L10.8406 11.6353ZM12.8337 9.28753H11.6337V9.28769L12.8337 9.28753ZM12.8337 4.13624L11.6337 4.13548V4.13624H12.8337ZM6.51421 11.2611L6.34753 12.4494L7.71421 12.6411V11.2611H6.51421ZM6.39171 11.2415L6.18096 12.4229L6.18448 12.4235L6.39171 11.2415ZM3.33651 10.6965L3.12549 11.8778L3.12575 11.8778L3.33651 10.6965ZM2.13921 9.28753L3.33921 9.28771V9.28753H2.13921ZM2.13921 4.13624H0.939214H2.13921ZM3.59755 2.7044L3.60036 1.5044H3.59755L3.59755 2.7044ZM3.86005 2.72779L4.07254 1.54675L4.06948 1.5462L3.86005 2.72779ZM5.71699 3.06188L5.5045 4.24292L5.50479 4.24297L5.71699 3.06188ZM6.51421 3.99878H7.71422L7.71421 3.99614L6.51421 3.99878ZM11.8614 9.28753H10.6614V9.28771L11.8614 9.28753ZM10.6641 10.6965L10.8749 11.8778L10.8752 11.8778L10.6641 10.6965ZM7.60894 11.2415L7.81617 12.4235L7.81969 12.4229L7.60894 11.2415ZM7.48644 11.2611H6.28644V12.6411L7.65312 12.4494L7.48644 11.2611ZM7.48644 3.99878H8.68644V3.9986L7.48644 3.99878ZM8.28463 3.0595L8.49565 4.2408L8.49707 4.24054L8.28463 3.0595ZM10.1421 2.7254L9.93104 1.5441L9.92963 1.54435L10.1421 2.7254ZM11.8614 4.13624L10.6614 4.13443V4.13624H11.8614ZM12.7201 1.37744C12.3112 1.04175 11.8335 0.799725 11.3214 0.667155L10.72 2.99057C10.8968 3.03633 11.0596 3.11937 11.1972 3.23239L12.7201 1.37744ZM11.3214 0.667155C10.8094 0.534596 10.2742 0.514401 9.75359 0.607856L10.1776 2.9701C10.3578 2.93775 10.5431 2.94479 10.72 2.99057L11.3214 0.667155ZM9.75498 0.607606L7.89707 0.938838L8.3183 3.30158L10.1762 2.97035L9.75498 0.607606ZM7.89476 0.939253C7.20607 1.06342 6.57592 1.41196 6.10744 1.9337L7.89321 3.53715C8.00154 3.4165 8.15141 3.33168 8.32062 3.30117L7.89476 0.939253ZM7.89286 1.93331C7.42316 1.41067 6.79122 1.06207 6.10087 0.938874L5.67923 3.30155C5.84886 3.33182 5.99917 3.41667 6.10779 3.53754L7.89286 1.93331ZM6.10099 0.938895L4.24599 0.607663L3.82411 2.97029L5.67911 3.30153L6.10099 0.938895ZM4.24725 0.607889C3.7269 0.514401 3.19204 0.534321 2.68012 0.666385L3.27964 2.9903C3.45679 2.9446 3.64238 2.93764 3.82285 2.97007L4.24725 0.607889ZM2.68012 0.666385C2.16816 0.798459 1.69047 1.03979 1.28128 1.37468L2.80131 3.23196C2.93938 3.11896 3.10253 3.03599 3.27964 2.9903L2.68012 0.666385ZM1.28128 1.37468C0.872015 1.70963 0.541069 2.1302 0.313336 2.60763L2.47952 3.6409C2.55396 3.48485 2.66331 3.3449 2.80131 3.23196L1.28128 1.37468ZM0.313336 2.60763C0.0855644 3.08514 -0.032972 3.60704 -0.0330079 4.13616L2.36699 4.13632C2.367 3.96593 2.40512 3.79688 2.47952 3.6409L0.313336 2.60763ZM-0.0330079 4.13624V9.28753H2.36699V4.13624H-0.0330079ZM-0.0330079 9.28759C-0.0329655 10.1335 0.269582 10.9494 0.817087 11.5936L2.64578 10.0393C2.46396 9.82536 2.36701 9.55917 2.36699 9.28747L-0.0330079 9.28759ZM0.817087 11.5936C1.36417 12.2372 2.12032 12.6681 2.95146 12.8166L3.3735 10.454C3.08474 10.4024 2.82801 10.2537 2.64578 10.0393L0.817087 11.5936ZM2.95158 12.8166L6.00727 13.3621L6.42907 10.9995L3.37338 10.4539L2.95158 12.8166ZM6.00741 13.3621C6.66402 13.4793 7.33663 13.4793 7.99323 13.3621L7.57172 10.9994C7.19392 11.0668 6.80673 11.0668 6.42893 10.9994L6.00741 13.3621ZM7.99322 13.3621L11.0513 12.8166L10.6299 10.4539L7.57174 10.9994L7.99322 13.3621ZM11.0528 12.8164C11.8833 12.6671 12.6386 12.236 13.185 11.5924L11.3553 10.0392C11.1734 10.2535 10.9169 10.4023 10.6284 10.4542L11.0528 12.8164ZM13.185 11.5924C13.7317 10.9483 14.0338 10.1327 14.0337 9.28736L11.6337 9.28769C11.6337 9.55923 11.5369 9.82528 11.3553 10.0392L13.185 11.5924ZM14.0337 9.28753V4.13624H11.6337V9.28753H14.0337ZM14.0337 4.137C14.034 3.60745 13.9154 3.0851 13.6871 2.60735L11.5216 3.64203C11.5958 3.79736 11.6338 3.96576 11.6337 4.13548L14.0337 4.137ZM13.6871 2.60735C13.4589 2.12969 13.1271 1.70919 12.7168 1.37478L11.2005 3.23505C11.3382 3.34732 11.4473 3.48662 11.5216 3.64203L13.6871 2.60735ZM6.6809 10.0727C6.65782 10.0695 6.63126 10.0652 6.59895 10.0595L6.18448 12.4235C6.23384 12.4321 6.28894 12.4412 6.34753 12.4494L6.6809 10.0727ZM6.60247 10.0602L3.54726 9.51511L3.12575 11.8778L6.18096 12.4229L6.60247 10.0602ZM3.54753 9.51516C3.48274 9.50358 3.42858 9.47078 3.39221 9.42798L1.56336 10.9821C1.96459 11.4543 2.51824 11.7693 3.12549 11.8778L3.54753 9.51516ZM3.39221 9.42798C3.35626 9.38567 3.33921 9.3359 3.33921 9.28771L0.939214 9.28734C0.939119 9.90981 1.16171 10.5095 1.56336 10.9821L3.39221 9.42798ZM3.33921 9.28753V4.13624H0.939214V9.28753H3.33921ZM3.33921 4.13624C3.33921 4.08193 3.36098 4.02529 3.40706 3.98005L1.72564 2.26751C1.22474 2.75931 0.939214 3.43106 0.939214 4.13624H3.33921ZM3.40706 3.98005C3.45389 3.93407 3.52201 3.9044 3.59755 3.9044L3.59755 1.5044C2.89954 1.5044 2.22579 1.77644 1.72564 2.26751L3.40706 3.98005ZM3.59474 3.9044C3.61353 3.90444 3.63224 3.90611 3.65062 3.90937L4.06948 1.5462C3.9146 1.51875 3.75762 1.50477 3.60036 1.5044L3.59474 3.9044ZM3.64756 3.90882L5.5045 4.24292L5.92948 1.88085L4.07254 1.54675L3.64756 3.90882ZM5.50479 4.24297C5.45769 4.23451 5.41068 4.20939 5.37418 4.1665L7.20201 2.61118C6.87427 2.22601 6.42314 1.96954 5.92919 1.88079L5.50479 4.24297ZM5.37418 4.1665C5.33727 4.12312 5.31436 4.06486 5.31422 4.00143L7.71421 3.99614C7.71309 3.4867 7.53017 2.99684 7.20201 2.61118L5.37418 4.1665ZM5.31421 3.99878V11.2611H7.71421V3.99878H5.31421ZM10.6614 9.28771C10.6614 9.3359 10.6444 9.38567 10.6084 9.42798L12.4373 10.9821C12.8389 10.5095 13.0615 9.90981 13.0614 9.28734L10.6614 9.28771ZM10.6084 9.42798C10.5721 9.47078 10.5179 9.50358 10.4531 9.51516L10.8752 11.8778C11.4824 11.7693 12.0361 11.4543 12.4373 10.9821L10.6084 9.42798ZM10.4534 9.51511L7.39818 10.0602L7.81969 12.4229L10.8749 11.8778L10.4534 9.51511ZM7.4017 10.0595C7.36939 10.0652 7.34283 10.0695 7.31975 10.0727L7.65312 12.4494C7.71171 12.4412 7.76681 12.4321 7.81617 12.4235L7.4017 10.0595ZM8.68644 11.2611V3.99878H6.28644V11.2611H8.68644ZM8.68644 3.9986C8.68645 4.06219 8.66356 4.12065 8.62657 4.16417L6.79773 2.61004C6.46901 2.99687 6.28636 3.48828 6.28644 3.99897L8.68644 3.9986ZM8.62657 4.16417C8.59001 4.2072 8.54287 4.23236 8.49565 4.2408L8.07361 1.8782C7.57837 1.96666 7.12602 2.22371 6.79773 2.61004L8.62657 4.16417ZM8.49707 4.24054L10.3545 3.90645L9.92963 1.54435L8.0722 1.87845L8.49707 4.24054ZM10.3531 3.9067C10.3934 3.8995 10.4349 3.90112 10.4742 3.91132L11.0764 1.58808C10.7023 1.49112 10.3114 1.47615 9.93104 1.5441L10.3531 3.9067ZM10.4742 3.91132C10.5135 3.9215 10.5485 3.93966 10.5771 3.96311L12.0995 2.10778C11.8 1.862 11.4505 1.68506 11.0764 1.58808L10.4742 3.91132ZM10.5771 3.96311C10.6056 3.98651 10.6269 4.01438 10.6408 4.04376L12.8085 3.01359C12.6416 2.66251 12.3991 2.35361 12.0995 2.10778L10.5771 3.96311ZM10.6408 4.04376C10.6547 4.07305 10.6615 4.10393 10.6614 4.13443L13.0614 4.13806C13.062 3.74872 12.9754 3.36476 12.8085 3.01359L10.6408 4.04376ZM10.6614 4.13624V9.28753H13.0614V4.13624H10.6614Z" fill="#FF8A00" mask="url(#path-1-inside-1_25280_418276)"/>
</svg>
