<svg width="14" height="14" viewBox="0 0 14 14" fill="none" xmlns="http://www.w3.org/2000/svg">
<g clip-path="url(#clip0_24697_400965)">
<mask id="path-1-inside-1_24697_400965" fill="white">
<path d="M13.8221 8.82152L4.03942 1.05897C3.73339 0.81619 3.28027 1.03436 3.28027 1.4257V9.18825C3.28027 9.44678 3.48987 9.65638 3.74844 9.65638H13.5311C13.9736 9.65638 14.1685 9.09635 13.8221 8.82152ZM4.21657 8.72008V2.39482L12.188 8.72011L4.21657 8.72008Z"/>
</mask>
<path d="M13.8221 8.82152L13.0762 9.76153L13.0762 9.76155L13.8221 8.82152ZM4.03942 1.05897L4.78532 0.118956L4.78522 0.118875L4.03942 1.05897ZM4.21657 8.72008H3.01657V9.92008L4.21657 9.92008L4.21657 8.72008ZM4.21657 2.39482L4.96247 1.4548L3.01657 -0.0892642V2.39482H4.21657ZM12.188 8.72011L12.188 9.92011L15.6309 9.92012L12.9339 7.78009L12.188 8.72011ZM14.568 7.8815L4.78532 0.118956L3.29352 1.99899L13.0762 9.76153L14.568 7.8815ZM4.78522 0.118875C3.69424 -0.746627 2.08027 0.0284669 2.08027 1.4257H4.48027C4.48027 2.04025 3.77254 2.37901 3.29362 1.99907L4.78522 0.118875ZM2.08027 1.4257V9.18825H4.48027V1.4257H2.08027ZM2.08027 9.18825C2.08027 10.1096 2.82717 10.8564 3.74844 10.8564V8.45638C4.15256 8.45638 4.48027 8.784 4.48027 9.18825H2.08027ZM3.74844 10.8564H13.5311V8.45638H3.74844V10.8564ZM13.5311 10.8564C15.1113 10.8564 15.8041 8.86231 14.568 7.88148L13.0762 9.76155C12.5329 9.33039 12.836 8.45638 13.5311 8.45638V10.8564ZM5.41657 8.72008V2.39482H3.01657V8.72008H5.41657ZM3.47067 3.33483L11.4421 9.66013L12.9339 7.78009L4.96247 1.4548L3.47067 3.33483ZM12.188 7.52011L4.21657 7.52008L4.21657 9.92008L12.188 9.92011L12.188 7.52011Z" fill="#FF8A00" mask="url(#path-1-inside-1_24697_400965)"/>
<mask id="path-3-inside-2_24697_400965" fill="white">
<path d="M10.884 5.04788C11.8689 5.56192 13.0742 4.84947 13.0742 3.71836C13.0742 2.64058 11.9669 1.91802 10.9846 2.34079V0.579224C10.9846 0.32835 10.7812 0.125 10.5304 0.125C10.2796 0.125 10.0762 0.32835 10.0762 0.579224V4.76314C10.0762 5.18962 10.6153 5.38116 10.884 5.04788ZM11.5751 3.12779C11.9008 3.12779 12.1657 3.39271 12.1657 3.71836C12.1657 4.04399 11.9008 4.30891 11.5751 4.30891C11.2495 4.30891 10.9846 4.04399 10.9846 3.71836C10.9846 3.39271 11.2495 3.12779 11.5751 3.12779Z"/>
</mask>
<path d="M10.884 5.04788C11.8689 5.56192 13.0742 4.84947 13.0742 3.71836C13.0742 2.64058 11.9669 1.91802 10.9846 2.34079V0.579224C10.9846 0.32835 10.7812 0.125 10.5304 0.125C10.2796 0.125 10.0762 0.32835 10.0762 0.579224V4.76314C10.0762 5.18962 10.6153 5.38116 10.884 5.04788ZM11.5751 3.12779C11.9008 3.12779 12.1657 3.39271 12.1657 3.71836C12.1657 4.04399 11.9008 4.30891 11.5751 4.30891C11.2495 4.30891 10.9846 4.04399 10.9846 3.71836C10.9846 3.39271 11.2495 3.12779 11.5751 3.12779Z" fill="#FF8A00"/>
<path d="M10.884 5.04788L11.4393 3.98407L10.5672 3.5289L9.94984 4.29471L10.884 5.04788ZM10.9846 2.34079H9.78462V4.16366L11.459 3.44304L10.9846 2.34079ZM10.9846 3.71836L9.78459 3.71826V3.71836H10.9846ZM10.3288 6.11169C12.1032 7.03782 14.2742 5.76125 14.2742 3.71836H11.8742C11.8742 3.93768 11.6346 4.08601 11.4393 3.98407L10.3288 6.11169ZM14.2742 3.71836C14.2742 1.77555 12.2821 0.47597 10.5102 1.23854L11.459 3.44304C11.6518 3.36007 11.8742 3.5056 11.8742 3.71836H14.2742ZM12.1846 2.34079V0.579224H9.78462V2.34079H12.1846ZM12.1846 0.579224C12.1846 -0.33444 11.4439 -1.075 10.5304 -1.075V1.325C10.1185 1.325 9.78462 0.991141 9.78462 0.579224H12.1846ZM10.5304 -1.075C9.61686 -1.075 8.87617 -0.33444 8.87617 0.579224H11.2762C11.2762 0.991141 10.9422 1.325 10.5304 1.325V-1.075ZM8.87617 0.579224V4.76314H11.2762V0.579224H8.87617ZM8.87617 4.76314C8.87617 6.3188 10.8372 7.01789 11.8182 5.80105L9.94984 4.29471C10.3935 3.74444 11.2762 4.06044 11.2762 4.76314H8.87617ZM11.5751 4.32779C11.238 4.32779 10.9657 4.05542 10.9657 3.71836H13.3657C13.3657 2.73001 12.5635 1.92779 11.5751 1.92779V4.32779ZM10.9657 3.71836C10.9657 3.38124 11.238 3.10891 11.5751 3.10891V5.50891C12.5635 5.50891 13.3657 4.70673 13.3657 3.71836H10.9657ZM11.5751 3.10891C11.9123 3.10891 12.1846 3.38124 12.1846 3.71836H9.78459C9.78459 4.70673 10.5868 5.50891 11.5751 5.50891V3.10891ZM12.1846 3.71847C12.1846 4.05535 11.9124 4.32779 11.5751 4.32779V1.92779C10.5866 1.92779 9.78468 2.73008 9.78459 3.71826L12.1846 3.71847Z" fill="#FF8A00" mask="url(#path-3-inside-2_24697_400965)"/>
<mask id="path-5-inside-3_24697_400965" fill="white">
<path d="M1.33936 3.16016H0.941549C0.690704 3.16016 0.487325 3.36351 0.487325 3.61438C0.487325 3.86525 0.690704 4.0686 0.941549 4.0686H1.33939C1.57477 4.0686 1.76628 4.26012 1.76628 4.49549V4.63741C0.89783 4.34247 0 4.99326 0 5.90378C0 6.88039 1.0207 7.53138 1.90575 7.11398C2.19291 7.39031 2.6747 7.18682 2.6747 6.78691V4.49549C2.6747 3.75919 2.07566 3.16016 1.33936 3.16016ZM1.33735 6.33268C1.10084 6.33268 0.908448 6.14029 0.908448 5.90378C0.908448 5.6673 1.10084 5.47491 1.33735 5.47491C1.57386 5.47491 1.76625 5.6673 1.76625 5.90378C1.76625 6.14029 1.57383 6.33268 1.33735 6.33268Z"/>
</mask>
<path d="M1.33936 3.16016H0.941549C0.690704 3.16016 0.487325 3.36351 0.487325 3.61438C0.487325 3.86525 0.690704 4.0686 0.941549 4.0686H1.33939C1.57477 4.0686 1.76628 4.26012 1.76628 4.49549V4.63741C0.89783 4.34247 0 4.99326 0 5.90378C0 6.88039 1.0207 7.53138 1.90575 7.11398C2.19291 7.39031 2.6747 7.18682 2.6747 6.78691V4.49549C2.6747 3.75919 2.07566 3.16016 1.33936 3.16016ZM1.33735 6.33268C1.10084 6.33268 0.908448 6.14029 0.908448 5.90378C0.908448 5.6673 1.10084 5.47491 1.33735 5.47491C1.57386 5.47491 1.76625 5.6673 1.76625 5.90378C1.76625 6.14029 1.57383 6.33268 1.33735 6.33268Z" fill="#FF8A00"/>
<path d="M1.76628 4.63741L1.38039 5.77367L2.96628 6.31225V4.63741H1.76628ZM1.90575 7.11398L2.73784 6.24932L2.14192 5.67584L1.39389 6.02862L1.90575 7.11398ZM1.33936 1.96016H0.941549V4.36016H1.33936V1.96016ZM0.941549 1.96016C0.0280111 1.96016 -0.712675 2.70072 -0.712675 3.61438H1.68733C1.68733 4.0263 1.3534 4.36016 0.941549 4.36016V1.96016ZM-0.712675 3.61438C-0.712675 4.52804 0.0280111 5.2686 0.941549 5.2686V2.8686C1.3534 2.8686 1.68733 3.20246 1.68733 3.61438H-0.712675ZM0.941549 5.2686H1.33939V2.8686H0.941549V5.2686ZM1.33939 5.2686C0.912023 5.2686 0.566278 4.92286 0.566278 4.49549H2.96628C2.96628 3.59737 2.23751 2.8686 1.33939 2.8686V5.2686ZM0.566278 4.49549V4.63741H2.96628V4.49549H0.566278ZM2.15216 3.50114C0.500064 2.94007 -1.2 4.17705 -1.2 5.90378H1.2C1.2 5.85902 1.21834 5.82139 1.2584 5.79256C1.27857 5.77805 1.29947 5.77004 1.31774 5.76705C1.33369 5.76444 1.35336 5.76449 1.38039 5.77367L2.15216 3.50114ZM-1.2 5.90378C-1.2 7.75625 0.732799 8.99391 2.41762 8.19933L1.39389 6.02862C1.36592 6.04181 1.34604 6.04339 1.33018 6.04212C1.31124 6.04061 1.28808 6.03377 1.26496 6.01907C1.24182 6.00435 1.22533 5.98594 1.21545 5.96865C1.20707 5.95397 1.2 5.93466 1.2 5.90378H-1.2ZM1.07367 7.97863C2.11992 8.98548 3.8747 8.24934 3.8747 6.78691H1.4747C1.4747 6.1243 2.26589 5.79515 2.73784 6.24932L1.07367 7.97863ZM3.8747 6.78691V4.49549H1.4747V6.78691H3.8747ZM3.8747 4.49549C3.8747 3.09645 2.7384 1.96016 1.33936 1.96016V4.36016C1.41292 4.36016 1.4747 4.42193 1.4747 4.49549H3.8747ZM1.33735 5.13268C1.76358 5.13268 2.10845 5.47755 2.10845 5.90378H-0.291552C-0.291552 6.80303 0.438098 7.53268 1.33735 7.53268V5.13268ZM2.10845 5.90378C2.10845 6.3301 1.76353 6.67491 1.33735 6.67491V4.27491C0.43815 4.27491 -0.291552 5.00451 -0.291552 5.90378H2.10845ZM1.33735 6.67491C0.911167 6.67491 0.566249 6.3301 0.566249 5.90378H2.96625C2.96625 5.00451 2.23655 4.27491 1.33735 4.27491V6.67491ZM0.566249 5.90378C0.566249 5.4775 0.911138 5.13268 1.33735 5.13268V7.53268C2.23652 7.53268 2.96625 6.80308 2.96625 5.90378H0.566249Z" fill="#FF8A00" mask="url(#path-5-inside-3_24697_400965)"/>
<path d="M8.33484 11.0881C8.58569 11.0881 8.78907 10.8848 8.78907 10.6339C8.78907 10.383 8.58569 10.1797 8.33484 10.1797C7.31664 10.1797 6.48828 11.0081 6.48828 12.0262C6.48828 13.0444 7.31664 13.8728 8.33484 13.8728C8.58569 13.8728 8.78907 13.6695 8.78907 13.4186C8.78907 13.1677 8.58569 12.9644 8.33484 12.9644C7.81757 12.9644 7.39673 12.5436 7.39673 12.0262C7.3967 11.509 7.81754 11.0881 8.33484 11.0881Z" fill="#FF8A00"/>
</g>
<defs>
<clipPath id="clip0_24697_400965">
<rect width="14" height="14" fill="white"/>
</clipPath>
</defs>
</svg>
