<svg width="124" height="124" viewBox="0 0 124 124" fill="none" xmlns="http://www.w3.org/2000/svg">
<g filter="url(#filter0_d_19899_224968)">
<circle cx="61.2533" cy="58.2651" r="58.2651" fill="#FF8A00"/>
<circle cx="61.2533" cy="58.2651" r="57.7651" stroke="#E68600"/>
</g>
<path d="M58.0433 43.7134C58.9296 43.7134 59.6482 42.9948 59.6482 42.1085C59.6482 41.2236 60.3681 40.5037 61.253 40.5037C62.138 40.5037 62.8579 41.2236 62.8579 42.1085C62.8579 42.7849 62.4305 43.3924 61.7945 43.6202C60.5107 44.08 59.6482 45.305 59.6482 46.6683V46.9231C59.6482 47.8094 60.3667 48.5279 61.253 48.5279C62.1394 48.5279 62.8579 47.8094 62.8579 46.9231V46.6683C62.8579 46.657 62.8658 46.6459 62.8768 46.642C64.7853 45.9582 66.0676 44.1364 66.0676 42.1085C66.0676 39.4538 63.9078 37.2939 61.253 37.2939C58.5983 37.2939 56.4385 39.4538 56.4385 42.1085C56.4385 42.9948 57.157 43.7134 58.0433 43.7134Z" fill="white"/>
<path d="M61.2533 53.3425C62.1396 53.3425 62.8582 52.624 62.8582 51.7377C62.8582 50.8513 62.1396 50.1328 61.2533 50.1328C60.367 50.1328 59.6484 50.8513 59.6484 51.7377C59.6484 52.624 60.367 53.3425 61.2533 53.3425Z" fill="white"/>
<path d="M87.0375 46.9236H82.116V42.109C82.116 41.2227 81.3974 40.5041 80.5111 40.5041H74.8704C72.8831 34.9 67.5296 30.875 61.2528 30.875C54.976 30.875 49.6225 34.9 47.6353 40.5041H41.9946C41.1082 40.5041 40.3897 41.2227 40.3897 42.109V46.9236H35.4681C34.5818 46.9236 33.8633 47.6421 33.8633 48.5284V80.8395C33.8633 81.7259 34.5818 82.4444 35.4681 82.4444H54.1687L56.9084 85.1841C57.2093 85.4851 57.6175 85.6541 58.0431 85.6541H64.4626C64.8883 85.6541 65.2964 85.4851 65.5973 85.1841L68.337 82.4444H87.0375C87.9238 82.4444 88.6424 81.7259 88.6424 80.8395V48.5284C88.6424 47.6421 87.9238 46.9236 87.0375 46.9236ZM78.9063 43.7139V72.8153H64.4626C63.8999 72.8153 63.36 72.9133 62.8577 73.0914V64.8446C63.9058 61.8492 65.9741 59.3049 68.7009 57.6654C72.9319 55.1215 75.6965 50.516 75.6965 45.3187C75.6965 44.7763 75.6654 44.241 75.6069 43.7139H78.9063ZM61.2528 34.0847C67.4473 34.0847 72.4868 39.1243 72.4868 45.3187C72.4868 49.2794 70.4533 52.8667 67.0469 54.9147C64.6506 56.3555 62.6654 58.362 61.2528 60.7328C59.8404 58.3621 57.855 56.3554 55.4587 54.9147C52.0524 52.8667 50.0188 49.2794 50.0188 45.3187C50.0188 39.1243 55.0584 34.0847 61.2528 34.0847ZM43.5994 43.7139H46.8988C46.8403 44.241 46.8091 44.7763 46.8091 45.3187C46.8091 50.527 49.583 55.1271 53.8048 57.6654C56.5318 59.305 58.6001 61.8494 59.648 64.8446V73.0914C59.1457 72.9133 58.6058 72.8153 58.0431 72.8153H43.5994V43.7139ZM85.4327 79.2347H67.6723C67.2466 79.2347 66.8384 79.4037 66.5375 79.7047L63.7978 82.4444H58.7079L55.9682 79.7047C55.6672 79.4037 55.259 79.2347 54.8334 79.2347H37.073V50.1333H40.3897V74.4201C40.3897 75.3064 41.1082 76.025 41.9946 76.025H58.0431C58.928 76.025 59.648 76.7449 59.648 77.6298C59.648 78.5161 60.3665 79.2347 61.2528 79.2347C62.1391 79.2347 62.8577 78.5161 62.8577 77.6298C62.8577 77.6297 62.8577 77.6296 62.8577 77.6295V77.6294C62.8577 76.7447 63.5776 76.0251 64.4626 76.0251H80.5111C81.3974 76.0251 82.116 75.3065 82.116 74.4202V50.1333H85.4327V79.2347Z" fill="white"/>
<defs>
<filter id="filter0_d_19899_224968" x="2.98828" y="0" width="116.53" height="121.53" filterUnits="userSpaceOnUse" color-interpolation-filters="sRGB">
<feFlood flood-opacity="0" result="BackgroundImageFix"/>
<feColorMatrix in="SourceAlpha" type="matrix" values="0 0 0 0 0 0 0 0 0 0 0 0 0 0 0 0 0 0 127 0" result="hardAlpha"/>
<feOffset dy="5"/>
<feComposite in2="hardAlpha" operator="out"/>
<feColorMatrix type="matrix" values="0 0 0 0 0.901961 0 0 0 0 0.52549 0 0 0 0 0 0 0 0 1 0"/>
<feBlend mode="normal" in2="BackgroundImageFix" result="effect1_dropShadow_19899_224968"/>
<feBlend mode="normal" in="SourceGraphic" in2="effect1_dropShadow_19899_224968" result="shape"/>
</filter>
</defs>
</svg>
