<svg width="481" height="255" viewBox="0 0 481 255" fill="none" xmlns="http://www.w3.org/2000/svg">
<g clip-path="url(#clip0_20931_143655)">
<path opacity="0.3" d="M506.303 8.34642C488.31 23.2217 450.271 14.5445 433.5 8.34642C337.871 -17.3296 310.239 21.1841 304.247 56.8678C291.304 133.945 125.682 143.839 110.925 68.1521C96.8083 -69.1083 -105.164 49.0475 -46.2619 143.839C3.71002 224.258 29.124 175.252 29.124 255.252" stroke="#949494" stroke-width="3" stroke-linecap="round" stroke-dasharray="10 10"/>
<g filter="url(#filter0_d_20931_143655)">
<circle cx="253.935" cy="77.4091" r="58.2651" fill="#FF8A00"/>
<circle cx="253.935" cy="77.4091" r="57.7651" stroke="#E68600"/>
</g>
<path d="M250.725 62.8584C251.611 62.8584 252.33 62.1398 252.33 61.2535C252.33 60.3686 253.05 59.6487 253.935 59.6487C254.82 59.6487 255.54 60.3686 255.54 61.2535C255.54 61.9299 255.112 62.5374 254.476 62.7652C253.192 63.225 252.33 64.45 252.33 65.8134V66.0681C252.33 66.9544 253.048 67.673 253.935 67.673C254.821 67.673 255.54 66.9544 255.54 66.0681V65.8134C255.54 65.802 255.547 65.7909 255.558 65.787C257.467 65.1033 258.749 63.2814 258.749 61.2535C258.749 58.5988 256.589 56.439 253.935 56.439C251.28 56.439 249.12 58.5988 249.12 61.2535C249.12 62.1398 249.839 62.8584 250.725 62.8584Z" fill="white"/>
<path d="M253.935 72.4875C254.821 72.4875 255.54 71.769 255.54 70.8827C255.54 69.9964 254.821 69.2778 253.935 69.2778C253.049 69.2778 252.33 69.9964 252.33 70.8827C252.33 71.769 253.049 72.4875 253.935 72.4875Z" fill="white"/>
<path d="M279.719 66.0681H274.798V61.2535C274.798 60.3672 274.079 59.6487 273.193 59.6487H267.552C265.565 54.0445 260.211 50.0195 253.934 50.0195C247.658 50.0195 242.304 54.0445 240.317 59.6487H234.676C233.79 59.6487 233.071 60.3672 233.071 61.2535V66.0681H228.15C227.263 66.0681 226.545 66.7866 226.545 67.673V99.9841C226.545 100.87 227.263 101.589 228.15 101.589H246.85L249.59 104.329C249.891 104.63 250.299 104.799 250.725 104.799H257.144C257.57 104.799 257.978 104.63 258.279 104.329L261.019 101.589H279.719C280.605 101.589 281.324 100.87 281.324 99.9841V67.673C281.324 66.7866 280.605 66.0681 279.719 66.0681ZM271.588 62.8584V91.9598H257.144C256.582 91.9598 256.042 92.0578 255.539 92.2359V83.9891C256.587 80.9937 258.656 78.4495 261.383 76.8099C265.614 74.266 268.378 69.6605 268.378 64.4632C268.378 63.9208 268.347 63.3855 268.289 62.8584H271.588ZM253.934 53.2292C260.129 53.2292 265.168 58.2688 265.168 64.4632C265.168 68.4239 263.135 72.0112 259.729 74.0592C257.332 75.5001 255.347 77.5066 253.934 79.8774C252.522 77.5067 250.537 75.5 248.14 74.0592C244.734 72.0112 242.7 68.4239 242.7 64.4632C242.7 58.2688 247.74 53.2292 253.934 53.2292ZM236.281 62.8584H239.58C239.522 63.3855 239.491 63.9208 239.491 64.4632C239.491 69.6715 242.265 74.2716 246.486 76.8099C249.213 78.4496 251.282 80.9939 252.33 83.9891V92.2359C251.827 92.0578 251.287 91.9598 250.725 91.9598H236.281V62.8584ZM278.114 98.3792H260.354C259.928 98.3792 259.52 98.5483 259.219 98.8492L256.479 101.589H251.389L248.65 98.8492C248.349 98.5483 247.941 98.3792 247.515 98.3792H229.755V69.2778H233.071V93.5646C233.071 94.451 233.79 95.1695 234.676 95.1695H250.725C251.61 95.1695 252.33 95.8894 252.33 96.7744C252.33 97.6607 253.048 98.3792 253.934 98.3792C254.821 98.3792 255.539 97.6607 255.539 96.7744C255.539 96.7743 255.539 96.7741 255.539 96.774V96.7739C255.539 95.8892 256.259 95.1696 257.144 95.1696H273.193C274.079 95.1696 274.798 94.4511 274.798 93.5648V69.2778H278.114V98.3792Z" fill="white"/>
</g>
<defs>
<filter id="filter0_d_20931_143655" x="195.67" y="19.144" width="116.53" height="121.53" filterUnits="userSpaceOnUse" color-interpolation-filters="sRGB">
<feFlood flood-opacity="0" result="BackgroundImageFix"/>
<feColorMatrix in="SourceAlpha" type="matrix" values="0 0 0 0 0 0 0 0 0 0 0 0 0 0 0 0 0 0 127 0" result="hardAlpha"/>
<feOffset dy="5"/>
<feComposite in2="hardAlpha" operator="out"/>
<feColorMatrix type="matrix" values="0 0 0 0 0.901961 0 0 0 0 0.52549 0 0 0 0 0 0 0 0 1 0"/>
<feBlend mode="normal" in2="BackgroundImageFix" result="effect1_dropShadow_20931_143655"/>
<feBlend mode="normal" in="SourceGraphic" in2="effect1_dropShadow_20931_143655" result="shape"/>
</filter>
<clipPath id="clip0_20931_143655">
<rect width="481" height="255" fill="white"/>
</clipPath>
</defs>
</svg>
