<svg width="84" height="84" viewBox="0 0 84 84" fill="none" xmlns="http://www.w3.org/2000/svg">
<circle cx="41.709" cy="44" r="39" fill="#B36800"/>
<circle cx="42" cy="39" r="38.5" fill="#FF8A00" stroke="#B36800"/>
<path d="M42.531 29.6691C43.1558 29.4453 43.5742 28.8501 43.5742 28.1865C43.5742 27.3181 42.8685 26.6123 42 26.6123C41.1315 26.6123 40.4258 27.3181 40.4258 28.1865C40.4258 28.5036 40.1687 28.7607 39.8516 28.7607L43.0869 31.221L42.9219 30.749C42.9209 30.7494 42.9198 30.7498 42.9188 30.7502C42.7162 30.8224 42.5742 31.0157 42.5742 31.2387V31.4092C42.5742 31.7263 42.3171 31.9834 42 31.9834C41.6829 31.9834 41.4258 31.7263 41.4258 31.4092V31.2387C41.4258 30.5373 41.8704 29.9057 42.531 29.6691ZM42.531 29.6691L42.3624 29.1984L42.531 29.6691C42.531 29.6691 42.531 29.6691 42.531 29.6691Z" fill="white" stroke="white"/>
<path d="M42.5742 34.6318C42.5742 34.949 42.3171 35.2061 42 35.2061C41.6829 35.2061 41.4258 34.949 41.4258 34.6318C41.4258 34.3147 41.6829 34.0576 42 34.0576C42.3171 34.0576 42.5742 34.3147 42.5742 34.6318Z" fill="white" stroke="white"/>
<path d="M59.2585 31.4092H55.9642V28.1865C55.9642 27.5933 55.4832 27.1123 54.89 27.1123H51.1143C49.7841 23.3611 46.2008 20.667 41.9993 20.667C37.7979 20.667 34.2146 23.3611 32.8844 27.1123H29.1087C28.5155 27.1123 28.0345 27.5933 28.0345 28.1865V31.4092H24.7402C24.147 31.4092 23.666 31.8901 23.666 32.4834V54.111C23.666 54.7043 24.147 55.1852 24.7402 55.1852H37.2575L39.0914 57.0191C39.2928 57.2205 39.566 57.3337 39.8509 57.3337H44.1478C44.4327 57.3337 44.7059 57.2205 44.9073 57.0191L46.7412 55.1852H59.2585C59.8517 55.1852 60.3327 54.7043 60.3327 54.111V32.4834C60.3327 31.8901 59.8517 31.4092 59.2585 31.4092ZM53.8158 29.2607V48.7399H44.1478C43.7712 48.7399 43.4098 48.8055 43.0736 48.9247V43.4047C43.7751 41.3997 45.1596 39.6967 46.9847 38.5993C49.8168 36.8965 51.6673 33.8138 51.6673 30.335C51.6673 29.9719 51.6465 29.6136 51.6073 29.2607H53.8158ZM41.9993 22.8154C46.1456 22.8154 49.5189 26.1887 49.5189 30.335C49.5189 32.9861 48.1577 35.3872 45.8776 36.7581C44.2737 37.7225 42.9449 39.0656 41.9993 40.6525C41.0539 39.0656 39.725 37.7224 38.121 36.7581C35.841 35.3872 34.4798 32.9861 34.4798 30.335C34.4798 26.1887 37.8531 22.8154 41.9993 22.8154ZM30.1829 29.2607H32.3914C32.3522 29.6136 32.3314 29.9719 32.3314 30.335C32.3314 33.8212 34.1881 36.9002 37.014 38.5993C38.8393 39.6968 40.2237 41.3998 40.9251 43.4047V48.9247C40.5889 48.8055 40.2275 48.7399 39.8509 48.7399H30.1829V29.2607ZM58.1842 53.0368H46.2962C46.0113 53.0368 45.7381 53.1499 45.5367 53.3514L43.7028 55.1852H40.2959L38.462 53.3514C38.2606 53.1499 37.9874 53.0368 37.7025 53.0368H25.8145V33.5576H28.0345V49.8141C28.0345 50.4074 28.5155 50.8883 29.1087 50.8883H39.8509C40.4432 50.8883 40.9251 51.3702 40.9251 51.9626C40.9251 52.5558 41.4061 53.0368 41.9993 53.0368C42.5926 53.0368 43.0736 52.5558 43.0736 51.9626C43.0736 51.9625 43.0736 51.9624 43.0736 51.9623V51.9623C43.0736 51.3701 43.5555 50.8884 44.1478 50.8884H54.89C55.4832 50.8884 55.9642 50.4075 55.9642 49.8142V33.5576H58.1842V53.0368Z" fill="white"/>
</svg>
