<svg width="32" height="32" viewBox="0 0 32 32" fill="none" xmlns="http://www.w3.org/2000/svg">
<rect x="0.5" y="0.5" width="31" height="31" rx="3.5" fill="#FFF4E6" stroke="#FF8A00"/>
<path d="M24.3334 9.74808V21.9574L16.0001 24.3346L7.66675 21.9574V10.4414C7.66675 9.78275 7.96883 9.17752 8.49591 8.78096C8.66883 8.65062 8.85911 8.56189 9.05564 8.49117V20.9119L16.0001 22.8926L22.9445 20.9119V7.79789C23.1411 7.86861 23.332 7.95735 23.5042 8.08768C24.0313 8.48424 24.3334 9.08947 24.3334 9.74808ZM16.6945 10.0053V19.8935L16.0001 20.0918L15.3056 19.8935V10.0053C15.3056 9.08184 14.6841 8.25892 13.7424 7.9927L12.5834 7.71609C11.4924 7.45611 10.4445 8.28249 10.4445 9.40214V19.949L16.0001 21.5338L21.5556 19.949V9.42571C21.5556 8.31855 20.5299 7.49493 19.4466 7.73273L18.2049 8.00518C17.3154 8.25892 16.6938 9.08184 16.6938 10.0053H16.6945Z" fill="#FF8A00"/>
</svg>
