<svg width="29" height="29" viewBox="0 0 29 29" fill="none" xmlns="http://www.w3.org/2000/svg">
<g clip-path="url(#clip0_19899_277678)">
<path d="M9.95047 4.42819C9.47604 3.01702 9.26612 2.69911 8.05273 1.57308C8.20926 1.47601 8.34273 1.37166 8.49319 1.30492C10.4383 0.431284 12.4901 -0.0322312 14.6087 0.00174367C21.1221 0.108522 26.4708 4.21463 28.3078 10.0571C29.7251 14.5636 29.1075 18.8202 26.489 22.7746C26.3676 22.9591 26.3094 23.2199 26.3094 23.4444C26.3142 24.9599 25.3071 26.1479 23.8753 26.2838C22.5273 26.4112 21.2629 25.4805 21.0263 24.187C20.7424 22.6315 21.5505 21.3841 23.066 20.963C23.322 20.8915 23.5975 20.6767 23.7406 20.451C25.2926 18.0097 25.8398 15.3511 25.2877 12.5094C24.533 8.63015 22.3173 5.86727 18.6602 4.37723C15.9616 3.27789 13.1914 3.25241 10.448 4.3299C10.3363 4.37359 10.2211 4.4112 10.1058 4.44396C10.0718 4.45367 10.0293 4.43668 9.95047 4.42819Z" fill="#FF8A00"/>
<path d="M19.0134 24.5726C19.3022 25.1769 19.5 25.7374 19.8191 26.2155C20.1273 26.6778 20.5605 27.0552 21.0204 27.5612C20.205 27.8669 19.4406 28.2237 18.6385 28.4433C15.1488 29.3982 11.704 29.2502 8.42055 27.6849C4.13122 25.6392 1.38411 22.2672 0.364863 17.609C-0.518485 13.572 0.204695 9.7923 2.50649 6.3305C2.65938 6.10117 2.70913 5.77235 2.72248 5.48599C2.77587 4.2908 3.42624 3.31645 4.45884 2.94758C5.57394 2.54958 6.70239 2.82138 7.44135 3.6659C8.73239 5.14502 8.0347 7.44682 6.15152 8.00862C5.81905 8.10812 5.45139 8.35444 5.26695 8.6408C1.35013 14.7114 4.42122 23.0013 11.3266 25.0082C13.7619 25.7156 16.185 25.6841 18.5633 24.7231C18.7089 24.6636 18.8606 24.6236 19.0134 24.5726Z" fill="#FF8A00"/>
<path d="M14.5192 23.0937C9.47881 23.0961 5.53044 18.7874 5.97454 13.7676C6.32885 9.75247 9.41936 6.56976 13.432 6.02009C15.354 5.75678 17.1086 6.17783 18.8025 7.05268C19.1192 7.21649 19.516 7.30264 19.8727 7.29658C21.3749 7.26624 22.4609 8.5585 22.1551 10.0267C22.1066 10.2585 22.149 10.5509 22.2509 10.7669C24.9799 16.5111 20.858 23.09 14.5192 23.0937ZM14.5083 20.48C19.4274 20.4109 21.5435 15.5367 19.9819 12.1926C19.8861 11.9875 19.6616 11.7716 19.4504 11.7024C18.5598 11.41 18.0635 10.7984 17.7832 9.93206C17.702 9.67967 17.4908 9.39817 17.2615 9.27561C15.951 8.57427 14.5532 8.3777 13.1008 8.72716C10.2554 9.41394 8.20839 12.3103 8.56634 15.1205C8.9704 18.285 11.3996 20.4764 14.5083 20.48Z" fill="#FF8A00"/>
<path d="M10.9526 14.513C10.9551 12.5716 12.615 10.8995 14.5309 10.9092C16.4432 10.9189 18.0849 12.6007 18.0995 14.5348C18.1141 16.4617 16.5403 18.1204 14.5115 18.1083C12.3905 18.0961 10.881 16.3549 10.9526 14.513Z" fill="#FF8A00"/>
</g>
<defs>
<clipPath id="clip0_19899_277678">
<rect width="29" height="29" fill="white"/>
</clipPath>
</defs>
</svg>
