<svg width="371" height="195" viewBox="0 0 371 195" fill="none" xmlns="http://www.w3.org/2000/svg">
<g clip-path="url(#clip0_21053_370536)">
<path d="M130.136 102.462L90.5852 91.8477C90.5064 92.1421 90.3719 92.43 90.3731 92.7313C90.3948 98.0252 95.0748 107.081 102.484 112.729L102.48 112.732C102.401 113.026 102.272 113.314 102.268 113.616C102.123 123.344 115.145 133.823 115.145 133.823C115.066 134.117 114.947 134.406 114.933 134.706C114.672 140.213 119.652 149.946 127.212 154.753L148.931 160.582L130.136 102.462Z" fill="#FFE27A"/>
<path d="M127.213 147.677C120.798 145.956 116.226 140.794 114.935 134.707C113.059 143.537 118.402 152.389 127.213 154.754L148.932 160.583L149.774 156.188L144.252 152.25L127.213 147.677Z" fill="#F9CF58"/>
<path d="M114.547 126.583C108.132 124.862 103.56 119.701 102.269 113.613C100.393 122.444 105.736 131.295 114.547 133.66L138.956 140.211L139.734 136.029L136.285 132.417L114.547 126.583Z" fill="#F9CF58"/>
<path d="M102.652 105.701C96.2375 103.979 91.6653 98.8174 90.3742 92.7305C88.4985 101.561 93.8416 110.413 102.652 112.777L133.235 120.985L133.63 117.033L131.739 113.506L102.652 105.701Z" fill="#F9CF58"/>
<path d="M244.861 102.462L284.412 91.8477C284.491 92.1421 284.625 92.43 284.624 92.7313C284.603 98.0252 279.923 107.081 272.513 112.729L272.518 112.732C272.596 113.026 272.725 113.314 272.73 113.616C272.875 123.344 259.852 133.823 259.852 133.823C259.931 134.117 260.05 134.406 260.065 134.706C260.325 140.213 255.345 149.946 247.786 154.753L226.066 160.582L244.861 102.462Z" fill="#FFE27A"/>
<path d="M247.786 147.673C254.2 145.952 258.773 140.79 260.064 134.703C261.939 143.533 256.596 152.385 247.786 154.75L226.066 160.579L225.225 156.184L230.747 152.246L247.786 147.673Z" fill="#F9CF58"/>
<path d="M260.45 126.583C266.865 124.862 271.437 119.701 272.728 113.613C274.604 122.444 269.261 131.295 260.45 133.66L236.041 140.211L235.264 136.029L238.712 132.417L260.45 126.583Z" fill="#F9CF58"/>
<path d="M272.347 105.701C278.762 103.979 283.334 98.8174 284.625 92.7305C286.501 101.561 281.158 110.413 272.347 112.777L241.765 120.985L241.369 117.033L243.261 113.506L272.347 105.701Z" fill="#F9CF58"/>
<path d="M187.499 69.3594L245.658 93.817C241.764 168.475 187.499 191.571 187.499 191.571C187.499 191.571 133.96 166.594 129.34 93.817L187.499 69.3594Z" fill="#FFCB5B"/>
<path d="M188.199 187.668C187.748 187.842 187.25 187.842 186.799 187.668C180.765 185.349 137.539 166.285 129.937 93.5664L129.34 93.8178C135.26 177.927 187.499 195 187.499 195C187.499 195 239.738 177.927 245.658 93.8178L245.061 93.5664C237.459 166.285 194.233 185.349 188.199 187.668Z" fill="#F7B737"/>
<path d="M219.783 65.9337H155.216C141.969 65.9337 142.412 53.3711 142.412 53.3711H232.588C232.588 53.3711 232.588 65.9337 219.783 65.9337Z" fill="#FFE27A"/>
<path d="M219.783 62.2847H155.216C149.501 62.2847 144.663 58.5401 143.016 53.3711H142.412V56.557C142.412 63.6284 148.145 69.3611 155.216 69.3611H219.783C226.855 69.3611 232.587 63.6284 232.587 56.557V53.3711H231.984C230.337 58.5401 225.498 62.2847 219.783 62.2847Z" fill="#F9CF58"/>
<path d="M224.955 50.4212H150.045L146.617 46.2935V1.96562C146.617 0.879785 147.497 0 148.583 0H226.416C227.502 0 228.382 0.880166 228.382 1.96562V46.2935L224.955 50.4212Z" fill="#0083FD"/>
<path d="M146.617 46.293H228.382V53.3697H146.617V46.293Z" fill="#0072FC"/>
<path d="M205.283 50.4212H169.715L166.287 46.2935V0H208.711V46.2935L205.283 50.4212Z" fill="#8BCAFF"/>
<path d="M166.287 46.293H208.711V53.3697H166.287V46.293Z" fill="#60B8FF"/>
<path d="M188.237 87.0355L229.58 104.421C226.066 156.141 187.499 174.204 187.499 174.204C187.499 174.204 148.789 153.267 145.418 104.421L186.761 87.0355C187.233 86.8371 187.765 86.8371 188.237 87.0355Z" fill="#FF9838"/>
<path d="M186.77 170.286C181.725 168.281 152.005 154.421 146.063 104.152L145.418 104.424C149.701 165.281 187.499 177.634 187.499 177.634C187.499 177.634 225.296 165.281 229.58 104.424L228.934 104.153C222.993 154.421 193.273 168.281 188.227 170.286C187.758 170.472 187.239 170.472 186.77 170.286Z" fill="#FF8709"/>
<path d="M190.98 109.745L194.527 116.941C195.093 118.088 196.186 118.883 197.451 119.067L205.382 120.221C208.567 120.684 209.838 124.602 207.534 126.851L201.795 132.452C200.88 133.345 200.462 134.632 200.678 135.893L202.033 143.801C202.577 146.977 199.248 149.399 196.4 147.899L189.306 144.165C188.175 143.57 186.823 143.57 185.692 144.165L178.598 147.899C175.75 149.399 172.421 146.977 172.965 143.801L174.32 135.893C174.536 134.632 174.118 133.345 173.203 132.452L167.464 126.851C165.159 124.602 166.431 120.684 169.616 120.221L177.547 119.067C178.812 118.883 179.905 118.088 180.471 116.941L184.018 109.745C185.442 106.856 189.556 106.856 190.98 109.745Z" fill="#FFF5F5"/>
<path d="M186.612 136.825L172.935 144.024C172.58 147.088 175.817 149.362 178.598 147.898L185.692 144.164C186.823 143.569 188.175 143.569 189.306 144.164L196.4 147.898C199.181 149.362 202.418 147.088 202.063 144.024L188.386 136.825C187.831 136.532 187.168 136.532 186.612 136.825Z" fill="#EFE2DD"/>
<path d="M240.683 56.3191H134.316C132.687 56.3191 131.367 54.999 131.367 53.3705C131.367 51.7419 132.687 50.4219 134.316 50.4219H240.683C242.312 50.4219 243.632 51.7419 243.632 53.3705C243.632 54.999 242.312 56.3191 240.683 56.3191Z" fill="#FF9838"/>
</g>
<path opacity="0.7" fill-rule="evenodd" clip-rule="evenodd" d="M14.9192 137.696C11.1092 139.468 7.14157 139.296 4.53192 138.602C1.89563 137.902 0.339624 135.245 1.05648 132.669C1.77335 130.093 4.49162 128.572 7.12791 129.272C7.97599 129.498 9.43522 129.539 10.6681 128.966C11.6036 128.531 13.0141 127.478 13.7183 124.271C14.1865 120.652 16.1848 115.881 20.6312 112.267C25.3262 108.45 32.2175 106.348 41.5649 107.542C44.2738 107.889 46.1826 110.316 45.8282 112.963C45.4739 115.61 42.9905 117.476 40.2816 117.129C33.1405 116.216 29.1574 117.912 26.9579 119.7C24.6149 121.604 23.6865 124.103 23.5232 125.571L23.499 125.789L23.4546 126.004C22.2231 131.973 19.0093 135.794 14.9192 137.696Z" fill="#F15959"/>
<path opacity="0.7" fill-rule="evenodd" clip-rule="evenodd" d="M347.929 44.0636C347.875 43.9458 347.819 43.8329 347.762 43.7282C347.742 43.7052 347.722 43.6823 347.702 43.6596C347.796 43.8966 347.889 44.0182 347.929 44.0636ZM339.992 40.4946C339.698 44.0906 340.479 47.0368 342.466 49.1052C344.77 51.5045 347.856 51.8385 349.881 51.532C351.5 51.2944 353.069 50.6425 354.22 49.3506C355.366 48.0651 355.722 46.566 355.755 45.3377C355.814 43.0677 354.812 40.9283 354.084 39.7399L353.94 39.5048L353.762 39.2932C352.463 37.751 351.096 36.5272 349.691 35.5849C350.174 35.0732 350.754 34.5928 351.445 34.1791C353.823 32.7544 358.184 31.7276 365.813 34.0166C367.796 34.6118 369.897 33.523 370.506 31.5847C371.115 29.6465 370.001 27.5928 368.018 26.9977C359.024 24.2988 352.275 25.07 347.519 27.9191C345.166 29.3282 343.466 31.1493 342.295 33.0384C341.025 32.9629 339.764 33.0558 338.532 33.2922C333.854 34.1901 330.045 37.0576 327.917 39.3566C326.526 40.8605 326.645 43.182 328.184 44.5419C329.723 45.9018 332.098 45.7851 333.49 44.2812C334.909 42.7482 337.37 40.998 339.98 40.4969C339.984 40.4961 339.988 40.4954 339.992 40.4946Z" fill="#F15959"/>
<path d="M312.524 162.362C313.309 159.496 316.324 157.795 319.257 158.563C322.19 159.331 323.931 162.277 323.145 165.143C322.36 168.009 319.345 169.709 316.412 168.941C313.479 168.173 311.738 165.227 312.524 162.362Z" fill="#C15DFF"/>
<path d="M33.8341 149.566C35.097 144.96 39.9415 142.227 44.6546 143.461C49.3678 144.695 52.1648 149.429 50.9019 154.035C49.639 158.641 44.7945 161.375 40.0813 160.14C35.3682 158.906 32.5712 154.172 33.8341 149.566Z" fill="#F9C160"/>
<path d="M336.233 150.625C337.495 146.019 342.34 143.285 347.053 144.519C351.766 145.754 354.563 150.488 353.3 155.094C352.037 159.7 347.193 162.433 342.48 161.199C337.767 159.965 334.97 155.231 336.233 150.625Z" fill="#F68B8B"/>
<path fill-rule="evenodd" clip-rule="evenodd" d="M39.0884 51.1701C38.6684 53.6754 36.2497 55.3738 33.686 54.9634C30.2986 54.4211 25.4123 52.7434 21.4888 49.2798C17.3599 45.6347 14.4304 40.0847 15.4557 32.5808C15.7996 30.0644 18.1658 28.2968 20.7408 28.6329C23.3158 28.9689 25.1245 31.2812 24.7807 33.7977C24.2074 37.9932 25.7209 40.6264 27.7952 42.4576C30.075 44.4701 33.152 45.5617 35.2068 45.8906C37.7705 46.301 39.5083 48.6647 39.0884 51.1701Z" fill="#C15DFF"/>
<path fill-rule="evenodd" clip-rule="evenodd" d="M341.009 106.739C338.654 107.786 337.614 110.499 338.685 112.8C340.1 115.841 343.022 119.993 347.45 122.776C352.11 125.705 358.331 127.011 365.444 124.094C367.829 123.116 368.951 120.433 367.95 118.102C366.949 115.772 364.204 114.675 361.819 115.653C357.842 117.284 354.859 116.548 352.518 115.077C349.945 113.46 348.07 110.854 347.211 109.01C346.14 106.709 343.363 105.692 341.009 106.739Z" fill="#72C045"/>
<path d="M47.2819 25.8485C48.1638 22.6322 51.5467 20.7235 54.8378 21.5853C58.129 22.4471 60.0821 25.7531 59.2003 28.9693C58.3184 32.1856 54.9355 34.0943 51.6443 33.2325C48.3532 32.3707 46.4 29.0648 47.2819 25.8485Z" fill="#14A4BE"/>
<path d="M342.427 181.596C342.905 179.85 344.741 178.815 346.527 179.282C348.312 179.75 349.372 181.544 348.894 183.289C348.415 185.034 346.58 186.07 344.794 185.602C343.008 185.135 341.948 183.341 342.427 181.596Z" fill="#14A4BE"/>
<path d="M291.104 25.4003C292.073 21.8655 295.791 19.7678 299.408 20.7149C303.025 21.6621 305.171 25.2954 304.202 28.8302C303.233 32.365 299.515 34.4627 295.898 33.5155C292.281 32.5684 290.134 28.9351 291.104 25.4003Z" fill="#72C045"/>
<path d="M350.621 77.3976C351.42 74.4841 354.484 72.7551 357.465 73.5358C360.447 74.3164 362.216 77.3112 361.417 80.2246C360.618 83.1381 357.554 84.8671 354.573 84.0865C351.591 83.3058 349.822 80.3111 350.621 77.3976Z" fill="#F9C160"/>
<path d="M67.3701 148.12C67.9314 146.073 70.0845 144.858 72.1792 145.406C74.2739 145.955 75.517 148.059 74.9557 150.106C74.3945 152.153 72.2413 153.368 70.1466 152.819C68.0519 152.271 66.8088 150.167 67.3701 148.12Z" fill="#72C045"/>
<path d="M52.1416 176.819C52.7028 174.772 54.856 173.557 56.9507 174.105C59.0454 174.654 60.2885 176.758 59.7272 178.805C59.1659 180.852 57.0128 182.067 54.9181 181.519C52.8234 180.97 51.5803 178.866 52.1416 176.819Z" fill="#C15DFF"/>
<path d="M12.1476 76.7706C12.8492 74.2118 15.5406 72.6933 18.159 73.3789C20.7775 74.0645 22.3313 76.6947 21.6297 79.2535C20.9281 81.8124 18.2367 83.3309 15.6183 82.6453C12.9999 81.9596 11.446 79.3295 12.1476 76.7706Z" fill="#72C045"/>
<defs>
<clipPath id="clip0_21053_370536">
<rect width="195" height="195" fill="white" transform="translate(90)"/>
</clipPath>
</defs>
</svg>
