<svg width="48" height="48" viewBox="0 0 48 48" fill="none" xmlns="http://www.w3.org/2000/svg">
<path d="M9.87982 25.2221L0.144262 22.6094C0.124855 22.6818 0.0917615 22.7527 0.0920428 22.8269C0.0973865 24.13 1.24939 26.3592 3.07329 27.7493L3.07217 27.7502C3.05276 27.8226 3.02107 27.8935 3.01995 27.9677C2.98423 30.3622 6.18973 32.9418 6.18973 32.9418C6.17032 33.0142 6.14107 33.0852 6.13751 33.1592C6.07329 34.5146 7.29917 36.9105 9.16001 38.0938L14.5063 39.5285L9.87982 25.2221Z" fill="#FFE27A"/>
<path d="M9.16008 36.3489C7.58105 35.9252 6.45558 34.6546 6.13777 33.1562C5.67605 35.3298 6.99127 37.5088 9.16008 38.0908L14.5064 39.5256L14.7135 38.4438L13.3543 37.4745L9.16008 36.3489Z" fill="#F9CF58"/>
<path d="M6.04241 31.1575C4.46337 30.7338 3.33791 29.4633 3.02009 27.9648C2.55837 30.1384 3.87359 32.3174 6.04241 32.8994L12.0507 34.5119L12.2422 33.4825L11.3934 32.5935L6.04241 31.1575Z" fill="#F9CF58"/>
<path d="M3.11443 26.0169C1.5354 25.5931 0.409927 24.3225 0.0921145 22.8242C-0.369604 24.9978 0.945614 27.1768 3.11443 27.7588L10.6424 29.7791L10.7398 28.8064L10.2741 27.9383L3.11443 26.0169Z" fill="#F9CF58"/>
<path d="M38.1201 25.2221L47.8557 22.6094C47.8751 22.6818 47.9082 22.7527 47.9079 22.8269C47.9026 24.13 46.7506 26.3592 44.9267 27.7493L44.9278 27.7502C44.9472 27.8226 44.9789 27.8935 44.98 27.9677C45.0157 30.3622 41.8102 32.9418 41.8102 32.9418C41.8296 33.0142 41.8589 33.0852 41.8624 33.1592C41.9267 34.5146 40.7008 36.9105 38.8399 38.0938L33.4937 39.5285L38.1201 25.2221Z" fill="#FFE27A"/>
<path d="M38.8396 36.3489C40.4186 35.9252 41.5441 34.6546 41.8619 33.1562C42.3236 35.3298 41.0084 37.5088 38.8396 38.0908L33.4933 39.5256L33.2861 38.4438L34.6454 37.4745L38.8396 36.3489Z" fill="#F9CF58"/>
<path d="M41.9573 31.1575C43.5364 30.7337 44.6619 29.4633 44.9797 27.9648C45.4414 30.1384 44.1262 32.3174 41.9573 32.8994L35.949 34.5119L35.7576 33.4825L36.6064 32.5935L41.9573 31.1575Z" fill="#F9CF58"/>
<path d="M44.8853 26.0169C46.4643 25.5931 47.5898 24.3225 47.9076 22.8242C48.3693 24.9978 47.0541 27.1768 44.8853 27.7588L37.3574 29.7791L37.26 28.8064L37.7257 27.9383L44.8853 26.0169Z" fill="#F9CF58"/>
<path d="M23.9999 17.0742L38.316 23.0946C37.3574 41.4718 23.9999 47.1572 23.9999 47.1572C23.9999 47.1572 10.8211 41.0088 9.68384 23.0946L23.9999 17.0742Z" fill="#FFCB5B"/>
<path d="M24.1722 46.1948C24.0612 46.2375 23.9387 46.2375 23.8277 46.1948C22.3422 45.6239 11.702 40.9312 9.83093 23.0312L9.68384 23.0931C11.1412 43.7969 23.9999 47.9995 23.9999 47.9995C23.9999 47.9995 36.8587 43.7969 38.316 23.0931L38.1689 23.0312C36.2979 40.9312 25.6576 45.6239 24.1722 46.1948Z" fill="#F7B737"/>
<path d="M31.9465 16.2291H16.0531C12.7924 16.2291 12.9013 13.1367 12.9013 13.1367H35.0984C35.0984 13.1367 35.0984 16.2291 31.9465 16.2291Z" fill="#FFE27A"/>
<path d="M31.9466 15.3308H16.0531C14.6464 15.3308 13.4553 14.4091 13.05 13.1367H12.9014V13.9209C12.9014 15.6616 14.3125 17.0727 16.0531 17.0727H31.9466C33.6872 17.0727 35.0984 15.6616 35.0984 13.9209V13.1367H34.9498C34.5444 14.4091 33.3533 15.3308 31.9466 15.3308Z" fill="#F9CF58"/>
<path d="M33.2196 12.4114H14.7803L13.9365 11.3953V0.483844C13.9365 0.216562 14.1532 0 14.4204 0H33.5794C33.8466 0 34.0632 0.216656 34.0632 0.483844V11.3953L33.2196 12.4114Z" fill="#0083FD"/>
<path d="M13.9365 11.3945H34.0633V13.1365H13.9365V11.3945Z" fill="#0072FC"/>
<path d="M28.3776 12.4114H19.6223L18.7786 11.3953V0H29.2214V11.3953L28.3776 12.4114Z" fill="#8BCAFF"/>
<path d="M18.7786 11.3945H29.2213V13.1365H18.7786V11.3945Z" fill="#60B8FF"/>
<path d="M24.1816 21.4234L34.3583 25.7029C33.4934 38.4338 23.9999 42.8801 23.9999 42.8801C23.9999 42.8801 14.4714 37.7265 13.6416 25.7029L23.8183 21.4234C23.9344 21.3745 24.0655 21.3745 24.1816 21.4234Z" fill="#FF9838"/>
<path d="M23.8206 41.9157C22.5787 41.4222 15.2629 38.0106 13.8004 25.6367L13.6416 25.7035C14.696 40.6837 23.9999 43.7245 23.9999 43.7245C23.9999 43.7245 33.3039 40.6837 34.3583 25.7036L34.1995 25.6368C32.737 38.0106 25.4212 41.4222 24.1793 41.9157C24.0638 41.9616 23.9361 41.9616 23.8206 41.9157Z" fill="#FF8709"/>
<path d="M24.8569 27.0139L25.73 28.7851C25.8693 29.0675 26.1383 29.2632 26.4497 29.3085L28.402 29.5925C29.1859 29.7066 29.4989 30.671 28.9317 31.2246L27.519 32.6033C27.2937 32.8232 27.1909 33.1399 27.2441 33.4503L27.5776 35.397C27.7114 36.1787 26.892 36.7747 26.1909 36.4056L24.4447 35.4865C24.1663 35.34 23.8337 35.34 23.5552 35.4865L21.809 36.4056C21.1079 36.7747 20.2884 36.1786 20.4224 35.397L20.7558 33.4503C20.809 33.1399 20.7062 32.8232 20.481 32.6033L19.0682 31.2246C18.501 30.671 18.814 29.7065 19.5979 29.5925L21.5503 29.3085C21.8615 29.2632 22.1307 29.0675 22.2699 28.7851L23.143 27.0139C23.4935 26.3027 24.5064 26.3027 24.8569 27.0139Z" fill="#FFF5F5"/>
<path d="M23.7816 33.6789L20.4148 35.451C20.3274 36.2052 21.1243 36.765 21.8089 36.4047L23.5551 35.4856C23.8334 35.3391 24.1661 35.3391 24.4446 35.4856L26.1907 36.4047C26.8753 36.765 27.6722 36.2052 27.5848 35.451L24.2181 33.6789C24.0816 33.607 23.9182 33.607 23.7816 33.6789Z" fill="#EFE2DD"/>
<path d="M37.0911 13.8618H10.9084C10.5076 13.8618 10.1826 13.5368 10.1826 13.136C10.1826 12.7351 10.5076 12.4102 10.9084 12.4102H37.0911C37.492 12.4102 37.8169 12.7351 37.8169 13.136C37.8169 13.5368 37.492 13.8618 37.0911 13.8618Z" fill="#FF9838"/>
</svg>
