<svg width="124" height="124" viewBox="0 0 124 124" fill="none" xmlns="http://www.w3.org/2000/svg">
<circle cx="62" cy="62" r="61" fill="#EDEDED" stroke="#B3B3B3" stroke-width="2"/>
<g clip-path="url(#clip0_25509_409220)">
<path d="M80.1543 40.7683C80.215 40.1889 80.0028 39.6565 79.6304 39.2842L60.1841 58.7305C70.5588 58.7305 79.0959 50.8627 80.1543 40.7683Z" fill="#64AD36"/>
<path d="M79.5341 40.1482C79.755 39.7289 79.7728 39.4266 79.6304 39.2842C79.258 38.9118 78.7257 38.6995 78.1463 38.7603C68.0519 39.8187 60.1841 48.3558 60.1841 58.7305C67.3546 55.5263 75.685 47.4518 79.5341 40.1482Z" fill="#75C231"/>
<path d="M44.9072 38.7581C44.7901 38.7471 44.6756 38.7484 44.563 38.7555L60.0857 57.3152C60.0891 57.3158 60.0891 83.3125 60.0891 83.3125H63.938V57.6266C63.938 47.8242 55.6021 39.7581 44.9072 38.7581Z" fill="#64AD36"/>
<path d="M45.5774 38.7606C45.5613 38.7585 45.5457 38.7593 45.5297 38.7578C45.0787 38.7897 44.6719 38.9832 44.3706 39.2844C43.9982 39.6568 43.7859 40.1891 43.8467 40.7686C44.7784 49.6549 51.5063 56.8143 60.181 58.4012C60.0469 48.1759 53.6989 39.8077 45.5774 38.7606Z" fill="#75C231"/>
</g>
<defs>
<clipPath id="clip0_25509_409220">
<rect width="62" height="62" fill="white" transform="translate(31 31)"/>
</clipPath>
</defs>
</svg>
