<svg width="84" height="84" viewBox="0 0 84 84" fill="none" xmlns="http://www.w3.org/2000/svg">
<circle cx="41.709" cy="44" r="39" fill="#B36800"/>
<circle cx="42" cy="39" r="38.5" fill="#FF8A00" stroke="#B36800"/>
<path fill-rule="evenodd" clip-rule="evenodd" d="M39.1015 58.24V41.3851C39.0819 41.3791 39.0613 41.3726 39.0401 41.366L39.0401 41.366C38.9798 41.3471 38.9141 41.3265 38.8477 41.3094C32.3798 39.7056 27.5542 35.9582 24.3324 30.1429C23.085 27.8916 22.3196 25.4685 21.9607 22.9186L21.9451 22.8076L21.9451 22.8076C21.9012 22.4958 21.8572 22.1839 21.8389 21.8699C21.7466 20.257 22.9773 19.0545 24.2286 18.8853C24.2552 18.8817 24.2805 18.8672 24.3059 18.8526L24.3059 18.8526C24.3173 18.8461 24.3286 18.8395 24.3401 18.834H25.1081C25.126 18.8398 25.1439 18.8466 25.1617 18.8535L25.1617 18.8535L25.1617 18.8535C25.2025 18.869 25.2435 18.8847 25.2863 18.8891C26.2106 18.9801 27.1234 19.1468 28.0209 19.3814C34.0311 20.9442 38.6297 24.398 41.8374 29.7121C41.8666 29.7607 41.8988 29.8077 41.935 29.8607L41.935 29.8607L41.935 29.8607C41.9562 29.8916 41.9787 29.9244 42.0028 29.9608C42.0267 29.9233 42.049 29.889 42.07 29.8567L42.07 29.8566L42.07 29.8566C42.1144 29.7884 42.153 29.729 42.1887 29.6672C43.3015 27.7788 44.663 26.089 46.2822 24.6134C49.6899 21.5122 53.6668 19.6032 58.2334 18.9481C58.3946 18.9248 58.5545 18.8972 58.7144 18.8695C58.7835 18.8575 58.8526 18.8456 58.9219 18.834H59.6898C59.7034 18.84 59.7169 18.8468 59.7305 18.8535L59.7305 18.8535C59.7628 18.8696 59.7952 18.8857 59.8295 18.893C61.3295 19.184 62.3167 20.5647 62.1487 22.0891C61.7975 25.2737 60.8488 28.2647 59.1808 31.0018C55.927 36.3402 51.2706 39.7966 45.1861 41.3017C45.1606 41.3081 45.135 41.3143 45.1093 41.3205L45.1089 41.3206C45.0624 41.3319 45.0156 41.3432 44.9694 41.3556C44.9562 41.3591 44.9436 41.3674 44.9263 41.379C44.9183 41.3842 44.9094 41.3902 44.8989 41.3966V58.2208L44.8659 58.2209C44.7799 58.6637 44.3901 58.998 43.9222 58.998C43.3913 58.998 42.9609 58.5676 42.9609 58.0367C42.9609 57.9616 42.9695 57.8886 42.9858 57.8185C42.9853 54.8 42.9791 51.7633 42.9728 48.7286C42.9675 46.1277 42.9622 43.5282 42.9605 40.9427C42.9592 39.5517 42.8194 38.1748 42.5387 36.8107C41.2515 30.548 37.0926 25.266 31.3093 22.5609C29.3234 21.6314 27.235 21.0699 25.0619 20.7776C24.3555 20.6827 23.6068 21.0583 23.7683 22.0327C23.8015 22.2316 23.8321 22.4309 23.8627 22.6301C23.9244 23.0319 23.9861 23.4333 24.0683 23.8301C25.4645 30.5172 30.2132 36.1197 36.5682 38.5941C37.7541 39.0556 38.9733 39.394 40.2208 39.6389C40.731 39.7389 41.0156 40.0863 41.0374 40.6004C41.041 40.6748 41.0402 40.7492 41.0394 40.8241V40.8241C41.039 40.8563 41.0387 40.8886 41.0387 40.921C41.0387 43.8017 41.0358 46.6895 41.0329 49.5773C41.0299 52.4651 41.027 55.3529 41.027 58.2336L41.0068 58.2337C40.9159 58.6701 40.5291 58.998 40.0657 58.998C39.6045 58.998 39.2192 58.6733 39.1259 58.2399L39.1015 58.24ZM44.9122 39.3774L44.9123 39.3774C44.9621 39.3692 45.0039 39.3623 45.0451 39.3517C49.7873 38.112 53.604 35.5031 56.495 31.5544C58.6065 28.6711 59.8372 25.4339 60.2385 21.8827C60.3116 21.2391 59.8398 20.7263 59.1949 20.7622C58.9821 20.7737 58.7706 20.8045 58.559 20.8352C56.1937 21.1686 53.9475 21.8788 51.8412 23.0096C48.045 25.048 45.1592 27.9839 43.1925 31.8198C43.1015 31.998 43.0605 32.1492 43.1476 32.3557C43.9528 34.262 44.4784 36.2454 44.7143 38.303C44.7507 38.6016 44.7835 38.9002 44.8172 39.207L44.8374 39.3902C44.8645 39.3853 44.8892 39.3813 44.9122 39.3774Z" fill="white"/>
</svg>
