<svg width="32" height="32" viewBox="0 0 32 32" fill="none" xmlns="http://www.w3.org/2000/svg">
<g clip-path="url(#clip0_20333_44789)">
<path d="M19.457 15.7022V15.8553L19.5426 15.9821L26.2978 25.9844L26.7122 25.7045L26.2978 25.9844C27.0319 27.0712 27.1055 28.4646 26.4901 29.6227L26.9316 29.8574L26.4901 29.6227C25.8747 30.7808 24.6787 31.4997 23.3673 31.4997H8.63226C7.32082 31.4997 6.12488 30.7809 5.50951 29.6227C4.89421 28.4646 4.96788 27.0712 5.70185 25.9844L12.4571 15.982L12.5428 15.8552V15.7021V8.8645V8.36444H12.0427H11.6185V7.48932H20.3812V8.36444H19.957H19.457V8.8645V15.7022ZM18.5819 8.8645V8.36444H18.0818H13.9179H13.4178V8.8645V16.1231L11.8246 18.4822L11.2978 19.2621H12.239H19.7607H20.7019L20.1751 18.4822L18.5819 16.1231V8.8645ZM6.42718 26.4742L6.42717 26.4742C5.86848 27.3015 5.81406 28.3305 6.28247 29.2121C6.75081 30.0937 7.63409 30.6245 8.63238 30.6245H23.3674C24.3657 30.6245 25.249 30.0937 25.7173 29.2121C26.1857 28.3305 26.1313 27.3014 25.5728 26.4742L25.5728 26.4742L21.4417 20.3575L21.293 20.1373H21.0273H10.9726H10.7069L10.5582 20.3575L6.42718 26.4742Z" stroke="#FF8A00" stroke-width="1.00013"/>
<path d="M15.5621 27.1231H16.4372V27.9983H15.5621V27.1231Z" stroke="#FF8A00" stroke-width="1.00013"/>
<path d="M19.188 23.5938H21.0632V25.4691H19.188V23.5938Z" fill="#FF8A00"/>
<path d="M11.7104 22.4688H13.5857V24.3441H11.7104V22.4688Z" fill="#FF8A00"/>
<path d="M14.7485 4.39139L16.3088 5.43159L16.7967 4.69974C17.3038 3.93914 17.3038 2.95626 16.7968 2.19572C16.711 2.06702 16.711 1.90081 16.7967 1.77217L17.2847 1.04026L15.7244 0L15.2364 0.731908C14.7294 1.49245 14.7294 2.47532 15.2364 3.23592C15.3222 3.36457 15.3222 3.53077 15.2364 3.65948L14.7485 4.39139Z" fill="#FF8A00"/>
<path d="M18.3022 4.39139L19.8625 5.43159L20.3505 4.69968C20.8575 3.93914 20.8575 2.95626 20.3505 2.19572C20.2647 2.06702 20.2647 1.90081 20.3505 1.77211L20.8384 1.0402L19.2781 0L18.7902 0.731908C18.2832 1.49245 18.2832 2.47532 18.7901 3.23586C18.8759 3.3645 18.8759 3.53084 18.7902 3.65948L18.3022 4.39139Z" fill="#FF8A00"/>
<path d="M11.1611 4.39139L12.7214 5.43159L13.2094 4.69968C13.7163 3.93914 13.7163 2.95626 13.2094 2.19572C13.1236 2.06702 13.1236 1.90081 13.2093 1.77211L13.6973 1.0402L12.1369 0L11.649 0.731908C11.142 1.49245 11.142 2.47532 11.6489 3.23586C11.7348 3.3645 11.7348 3.53084 11.649 3.65948L11.1611 4.39139Z" fill="#FF8A00"/>
</g>
<defs>
<clipPath id="clip0_20333_44789">
<rect width="32" height="32" fill="white"/>
</clipPath>
</defs>
</svg>
