<svg width="32" height="32" viewBox="0 0 32 32" fill="none" xmlns="http://www.w3.org/2000/svg">
<g clip-path="url(#clip0_25861_681368)">
<path d="M19.4571 15.7051V15.8582L19.5428 15.985L26.298 25.9873L26.7124 25.7075L26.298 25.9873C27.032 27.0741 27.1056 28.4675 26.4902 29.6257L26.9318 29.8603L26.4902 29.6257C25.8748 30.7838 24.6789 31.5026 23.3674 31.5026H8.63238C7.32095 31.5026 6.12501 30.7838 5.50965 29.6257C4.89433 28.4675 4.968 27.0742 5.70197 25.9873L12.4572 15.985L12.5429 15.8581V15.7051V8.86743V8.36737H12.0428H11.6186V7.49225H20.3814V8.36737H19.9572H19.4571V8.86743V15.7051ZM18.582 8.86743V8.36737H18.0819H13.918H13.4179V8.86743V16.126L11.8247 18.4851L11.298 19.265H12.2391H19.7608H20.702L20.1752 18.4851L18.582 16.126V8.86743ZM6.4273 26.4771L6.42729 26.4771C5.86861 27.3044 5.81419 28.3334 6.28257 29.215C6.75092 30.0966 7.6342 30.6275 8.6325 30.6275H23.3676C24.3658 30.6275 25.2491 30.0966 25.7175 29.215C26.1859 28.3335 26.1315 27.3044 25.5729 26.4771L25.5729 26.4771L21.4418 20.3604L21.2931 20.1402H21.0274H10.9727H10.707L10.5583 20.3604L6.4273 26.4771Z" stroke="#666666" stroke-width="1.00013"/>
<path d="M15.5624 27.1251H16.4376V28.0003H15.5624V27.1251Z" stroke="#666666" stroke-width="1.00013"/>
<path d="M19.1881 23.5938H21.0634V25.4691H19.1881V23.5938Z" fill="#666666"/>
<path d="M11.7107 22.4688H13.5859V24.3441H11.7107V22.4688Z" fill="#666666"/>
<path d="M14.7487 4.39139L16.3089 5.43159L16.7969 4.69974C17.3039 3.93914 17.3039 2.95626 16.7969 2.19572C16.7111 2.06702 16.7111 1.90081 16.7969 1.77217L17.2849 1.04026L15.7245 0L15.2365 0.731908C14.7295 1.49245 14.7295 2.47532 15.2365 3.23592C15.3223 3.36457 15.3223 3.53077 15.2365 3.65948L14.7487 4.39139Z" fill="#666666"/>
<path d="M18.3026 4.39139L19.8629 5.43159L20.3509 4.69968C20.8578 3.93914 20.8578 2.95626 20.3509 2.19572C20.2651 2.06702 20.2651 1.90081 20.3508 1.77211L20.8388 1.0402L19.2785 0L18.7906 0.731908C18.2835 1.49245 18.2835 2.47532 18.7905 3.23586C18.8763 3.3645 18.8763 3.53084 18.7906 3.65948L18.3026 4.39139Z" fill="#666666"/>
<path d="M11.1613 4.39139L12.7215 5.43159L13.2095 4.69968C13.7165 3.93914 13.7165 2.95626 13.2095 2.19572C13.1237 2.06702 13.1237 1.90081 13.2095 1.77211L13.6974 1.0402L12.1371 0L11.6491 0.731908C11.1421 1.49245 11.1421 2.47532 11.6491 3.23586C11.7349 3.3645 11.7349 3.53084 11.6491 3.65948L11.1613 4.39139Z" fill="#666666"/>
</g>
<defs>
<clipPath id="clip0_25861_681368">
<rect width="32" height="32" fill="white"/>
</clipPath>
</defs>
</svg>
