<svg width="56" height="56" viewBox="0 0 56 56" fill="none" xmlns="http://www.w3.org/2000/svg">
<rect width="56" height="56" rx="28" fill="#804B00"/>
<path d="M38.5402 13.6011L38.5403 13.6011L42.7152 18.8196L38.5407 24.0377L38.5407 24.0378C38.4518 24.1489 38.3391 24.2386 38.2109 24.3002C38.0827 24.3618 37.9423 24.3938 37.8001 24.3938H37.7963H37.7962C37.6531 24.3938 37.5126 24.3548 37.3899 24.281C37.2672 24.2072 37.167 24.1013 37.0999 23.9748C37.0329 23.8483 37.0016 23.7059 37.0093 23.5629C37.0171 23.4199 37.0637 23.2818 37.1441 23.1633L37.1463 23.1601L38.5138 21.1279L39.5625 19.5696H37.6842L14.0166 19.5696C13.8177 19.5696 13.6269 19.4906 13.4863 19.35C13.3456 19.2093 13.2666 19.0185 13.2666 18.8196C13.2666 18.6207 13.3456 18.43 13.4863 18.2893C13.6269 18.1487 13.8177 18.0696 14.0166 18.0696L37.6845 18.0696H39.5631L38.5141 16.5112L37.1462 14.4791L37.1439 14.4758C37.0635 14.3573 37.0168 14.2191 37.009 14.0761C37.0012 13.9331 37.0325 13.7906 37.0996 13.6641C37.1667 13.5375 37.267 13.4317 37.3898 13.3578C37.5125 13.284 37.653 13.245 37.7963 13.2451H37.7968H37.7999C37.7999 13.2451 37.8 13.2451 37.8 13.2451C37.9422 13.2452 38.0825 13.2772 38.2106 13.3388C38.3388 13.4004 38.4514 13.49 38.5402 13.6011Z" fill="white" stroke="white" stroke-width="2"/>
<path d="M42 31.0449L14 31.0449C13.8011 31.0449 13.6103 30.9659 13.4697 30.8253C13.329 30.6846 13.25 30.4938 13.25 30.2949C13.25 30.096 13.329 29.9052 13.4697 29.7646C13.6103 29.6239 13.8011 29.5449 14 29.5449L42 29.5449C42.1989 29.5449 42.3897 29.6239 42.5303 29.7646C42.671 29.9052 42.75 30.096 42.75 30.2949C42.75 30.4938 42.671 30.6846 42.5303 30.8252C42.3897 30.9659 42.1989 31.0449 42 31.0449Z" fill="white" stroke="white" stroke-width="2"/>
<path d="M41.9446 42.3535L14.0552 42.3535C13.591 42.3535 13.1459 42.1691 12.8177 41.841C12.4896 41.5128 12.3052 41.0676 12.3052 40.6035C12.3052 40.1394 12.4896 39.6943 12.8177 39.3661C13.1459 39.0379 13.591 38.8535 14.0552 38.8535L41.9446 38.8535C42.4087 38.8535 42.8538 39.0379 43.182 39.3661C43.5102 39.6943 43.6946 40.1394 43.6946 40.6035C43.6946 41.0676 43.5102 41.5128 43.182 41.841C42.8538 42.1691 42.4087 42.3535 41.9446 42.3535Z" fill="white"/>
</svg>
