<svg width="56" height="56" viewBox="0 0 56 56" fill="none" xmlns="http://www.w3.org/2000/svg">
<rect width="56" height="56" rx="28" fill="#804B00"/>
<path d="M17.4598 13.6011L17.4597 13.6011L13.2848 18.8196L17.4593 24.0377L17.4593 24.0378C17.5482 24.1489 17.6609 24.2386 17.7891 24.3002C17.9173 24.3618 18.0577 24.3938 18.1999 24.3938H18.2037H18.2038C18.3469 24.3938 18.4874 24.3548 18.6101 24.281C18.7328 24.2072 18.833 24.1013 18.9001 23.9748C18.9671 23.8483 18.9984 23.7059 18.9907 23.5629C18.9829 23.4199 18.9363 23.2818 18.8559 23.1633L18.8537 23.1601L17.4862 21.1279L16.4375 19.5696H18.3158L41.9834 19.5696C42.1823 19.5696 42.3731 19.4906 42.5137 19.35C42.6544 19.2093 42.7334 19.0185 42.7334 18.8196C42.7334 18.6207 42.6544 18.43 42.5137 18.2893C42.3731 18.1487 42.1823 18.0696 41.9834 18.0696L18.3155 18.0696H16.4369L17.4859 16.5112L18.8538 14.4791L18.8561 14.4758C18.9365 14.3573 18.9832 14.2191 18.991 14.0761C18.9988 13.9331 18.9675 13.7906 18.9004 13.6641C18.8333 13.5375 18.733 13.4317 18.6102 13.3578C18.4875 13.284 18.347 13.245 18.2037 13.2451H18.2032H18.2001C18.2001 13.2451 18.2 13.2451 18.2 13.2451C18.0578 13.2452 17.9175 13.2772 17.7894 13.3388C17.6612 13.4004 17.5486 13.49 17.4598 13.6011Z" fill="white" stroke="white" stroke-width="2"/>
<path d="M14 31.0449L42 31.0449C42.1989 31.0449 42.3897 30.9659 42.5303 30.8253C42.671 30.6846 42.75 30.4938 42.75 30.2949C42.75 30.096 42.671 29.9052 42.5303 29.7646C42.3897 29.6239 42.1989 29.5449 42 29.5449L14 29.5449C13.8011 29.5449 13.6103 29.6239 13.4697 29.7646C13.329 29.9052 13.25 30.096 13.25 30.2949C13.25 30.4938 13.329 30.6846 13.4697 30.8252C13.6103 30.9659 13.8011 31.0449 14 31.0449Z" fill="white" stroke="white" stroke-width="2"/>
<path d="M14.0554 42.3535L41.9448 42.3535C42.409 42.3535 42.8541 42.1691 43.1823 41.841C43.5104 41.5128 43.6948 41.0676 43.6948 40.6035C43.6948 40.1394 43.5104 39.6943 43.1823 39.3661C42.8541 39.0379 42.409 38.8535 41.9448 38.8535L14.0554 38.8535C13.5913 38.8535 13.1462 39.0379 12.818 39.3661C12.4898 39.6943 12.3054 40.1394 12.3054 40.6035C12.3054 41.0676 12.4898 41.5128 12.818 41.841C13.1462 42.1691 13.5913 42.3535 14.0554 42.3535Z" fill="white"/>
</svg>
