<svg width="56" height="56" viewBox="0 0 56 56" fill="none" xmlns="http://www.w3.org/2000/svg">
<path d="M41.1477 0H14.8523C6.64961 0 0 6.64961 0 14.8523V41.1477C0 49.3504 6.64961 56 14.8523 56H41.1477C49.3504 56 56 49.3504 56 41.1477V14.8523C56 6.64961 49.3504 0 41.1477 0Z" fill="#F8D45A"/>
<path d="M37.8059 30.5527C38.9873 30.5527 39.865 31.6667 39.5949 32.8481C38.4135 37.6076 33.6878 41.1519 27.9831 41.1519C22.2785 41.1519 17.5527 37.6076 16.3713 32.8481C16.1013 31.7004 16.9452 30.5527 18.1603 30.5527H37.8059Z" fill="#333333"/>
<path d="M19.0039 20.2946C19.6115 21.341 19.9153 22.8263 19.0039 23.6026C18.2613 24.244 17.1474 24.0415 16.1685 23.9402C13.7043 23.6702 11.1389 24.1765 8.94484 25.3917C8.80982 25.4592 8.6748 25.5604 8.50603 25.5942C8.16847 25.6617 7.83092 25.4592 7.6959 25.1891C7.3921 24.649 7.6959 23.974 8.13472 23.6026C8.60729 23.2313 9.21488 23.0963 9.82248 22.995C12.3204 22.5225 14.9195 22.0161 17.3837 22.6575C17.5187 22.6575 17.6199 22.725 17.755 22.6575C18.16 22.5562 18.0588 21.9486 17.8225 21.6111C17.0124 20.4296 15.6621 19.7208 14.3119 19.282C13.198 18.9106 10.0588 18.8432 9.34991 17.8642C8.43851 16.5815 11.1052 15.8727 12.0166 15.9064C14.6157 16.0414 17.755 18.1343 19.0377 20.3284L19.0039 20.2946Z" fill="#333333"/>
<path d="M36.9619 20.2946C36.3543 21.341 36.0505 22.8263 36.9619 23.6026C37.7045 24.244 38.8185 24.0415 39.7974 23.9402C42.2615 23.6702 44.8269 24.1765 47.021 25.3917C47.156 25.4592 47.291 25.5604 47.4598 25.5942C47.7974 25.6617 48.1349 25.4592 48.2699 25.1891C48.5737 24.649 48.2699 23.974 47.8311 23.6026C47.3586 23.2313 46.751 23.0963 46.1434 22.995C43.6455 22.5225 41.0463 22.0161 38.5822 22.6575C38.4472 22.6575 38.3459 22.725 38.2109 22.6575C37.8058 22.5562 37.9071 21.9486 38.1434 21.6111C38.9535 20.4296 40.3037 19.7208 41.6539 19.282C42.7678 18.9106 45.9071 18.8432 46.6159 17.8642C47.5273 16.5815 44.8607 15.8727 43.9493 15.9064C41.3501 16.0414 38.2109 18.1343 36.9282 20.3284L36.9619 20.2946Z" fill="#333333"/>
</svg>
