<svg width="32" height="32" viewBox="0 0 32 32" fill="none" xmlns="http://www.w3.org/2000/svg">
<g clip-path="url(#clip0_26687_658203)">
<path d="M31.3745 20.1182L31.3765 20.1172H31.4116C31.4121 20.1189 31.4132 20.1204 31.4136 20.1221C31.4155 20.1315 31.4165 20.1386 31.4165 20.1406C31.4164 20.1531 31.41 20.1647 31.4038 20.1709C31.3975 20.177 31.3863 20.1826 31.3745 20.1826M31.3745 20.1182V20.1826M31.3745 20.1182L31.3423 20.1494C31.3469 20.1583 31.3523 20.1656 31.3579 20.1709L31.3745 20.1826M31.3745 20.1182V20.1826M31.3394 20.1445C31.3342 20.1327 31.3335 20.1223 31.3335 20.1172H31.3745L31.3423 20.1484C31.3416 20.147 31.34 20.146 31.3394 20.1445ZM31.4048 20.0947C31.4078 20.1013 31.4097 20.1089 31.4116 20.1162H31.3765L31.4019 20.0908C31.4025 20.0921 31.4041 20.0932 31.4048 20.0947ZM31.3716 20.0625C31.3813 20.0684 31.3905 20.0761 31.3989 20.084C31.3997 20.0853 31.4008 20.0869 31.4019 20.0889L31.3745 20.1162H31.3335C31.3335 20.1112 31.3342 20.1006 31.3394 20.0889C31.3443 20.0777 31.3513 20.0687 31.3579 20.0625C31.3596 20.0609 31.3613 20.0598 31.3628 20.0586C31.3654 20.06 31.3686 20.0607 31.3716 20.0625Z" stroke="#666666" stroke-width="1.33333"/>
<path d="M24.3164 1.43359C24.5506 1.1909 24.9308 1.13742 25.2266 1.3252L25.3418 1.41602C25.5502 1.61667 25.6194 1.92494 25.5166 2.19531L25.4502 2.32617L23.6348 5.18848L26.2891 9.79395L26.3311 9.87988C26.4039 10.0568 26.4041 10.2556 26.3311 10.4326L26.2881 10.5186L23.623 15.127L26.0918 19.4092L28.875 19.4102L29.0176 19.4248C29.1566 19.4528 29.2844 19.5213 29.3867 19.624L29.4775 19.7344C29.5566 19.8525 29.5996 19.9916 29.5996 20.1367L29.584 20.2822C29.5256 20.5652 29.3026 20.7888 29.0195 20.8467L28.874 20.8613L26.0674 20.8594L23.5898 25.1475L26.2451 29.752L26.3047 29.8857C26.3959 30.1599 26.3148 30.4645 26.0986 30.6562L25.9785 30.7422C25.8646 30.8077 25.74 30.8389 25.6172 30.8389C25.398 30.8389 25.1842 30.7395 25.0439 30.5586L24.9883 30.4756L22.3135 25.8359L17.4424 25.8281L15.9033 28.3135C15.7705 28.5282 15.5386 28.6562 15.2861 28.6562C15.1853 28.6562 15.086 28.6352 14.9941 28.5947L14.9043 28.5479C14.5647 28.3373 14.4599 27.8888 14.6699 27.5488L16.1836 25.1074L13.7246 20.8398L8.79883 20.8369L7.24316 23.0781C7.10758 23.2736 6.88399 23.3896 6.64648 23.3896C6.49811 23.3896 6.35497 23.3436 6.2334 23.2588V23.2598C6.11414 23.177 6.02468 23.0621 5.97266 22.9297L5.93359 22.792C5.89935 22.6021 5.94163 22.4076 6.05176 22.249L7.54492 20.0947L5.11621 15.876H0.625C0.224399 15.8758 -0.0996094 15.5507 -0.0996094 15.1504C-0.0994805 14.7502 0.224479 14.4259 0.625 14.4258H5.06641L7.57617 10.084L6.29688 7.74512V7.74414C6.20428 7.57401 6.18241 7.378 6.2373 7.19238L6.29102 7.05957C6.35684 6.93359 6.45879 6.83031 6.58594 6.76074L6.66797 6.72168C6.75207 6.68855 6.84212 6.67191 6.93262 6.67188C7.19826 6.67188 7.4432 6.81503 7.57031 7.04883L8.84375 9.38086L13.7266 9.39258L16.3936 4.79102L16.4463 4.71094C16.5816 4.53396 16.7931 4.42188 17.0215 4.42188L22.3896 4.43164L24.2256 1.5498L24.3164 1.43359ZM14.9844 20.123L17.4336 24.3711L22.3574 24.373L24.8232 20.1104L22.377 15.8682L17.4463 15.8652L14.9844 20.123ZM6.34863 15.1211L8.80859 19.3877L13.7119 19.3896L16.1729 15.1328L13.71 10.8604L8.81348 10.8584L6.34863 15.1211ZM14.9873 10.125L17.4473 14.3916L22.3721 14.3936L24.8232 10.1543L22.3633 5.8877L17.4385 5.88574L14.9873 10.125Z" fill="#666666" stroke="#666666" stroke-width="0.2"/>
<path d="M5.73609 5.83643H5.73682C5.84058 5.83643 5.94385 5.80566 6.03491 5.75562C6.18189 5.67554 6.28833 5.54175 6.3357 5.38159C6.38257 5.22095 6.3645 5.05127 6.28443 4.90503C6.17505 4.70361 5.96436 4.57812 5.7356 4.57812C5.63184 4.57812 5.52808 4.60425 5.43677 4.65479C5.2898 4.73438 5.18286 4.8667 5.13599 5.02661C5.08911 5.18726 5.10718 5.35986 5.18726 5.5061C5.29663 5.70752 5.50733 5.83643 5.73609 5.83643Z" fill="#666666"/>
<path d="M5.57738 24.2056C5.4724 24.1323 5.3491 24.0938 5.22093 24.0938C5.01585 24.0938 4.82396 24.1943 4.70701 24.3625C4.51073 24.6458 4.58079 25.0359 4.864 25.2329C4.96898 25.3059 5.09227 25.3447 5.22044 25.3447C5.42552 25.3447 5.61741 25.2441 5.73436 25.0759C5.93065 24.7927 5.86058 24.4026 5.57738 24.2056Z" fill="#666666"/>
<path d="M14.2988 29.5234C14.1994 29.4622 14.0857 29.4297 13.9699 29.4297C13.7517 29.4297 13.5529 29.5405 13.438 29.7253C13.3498 29.8674 13.3222 30.0354 13.3603 30.1982C13.3987 30.3606 13.498 30.4988 13.6399 30.5864C13.7392 30.6475 13.8525 30.6802 13.9687 30.6802C14.187 30.6802 14.3857 30.5693 14.5007 30.3845C14.5888 30.2424 14.6164 30.075 14.5783 29.9124C14.5395 29.7498 14.4406 29.6118 14.2988 29.5234Z" fill="#666666"/>
<path d="M2.8606 17.4834C3.31524 17.4834 3.69563 17.5966 3.99438 17.8301C4.29644 18.0662 4.4494 18.3831 4.44946 18.7715C4.44946 18.9324 4.418 19.0759 4.32251 19.1621C4.23216 19.2436 4.09662 19.2725 3.94263 19.2725C3.80156 19.2725 3.67827 19.2498 3.58716 19.1924C3.48915 19.1304 3.43861 19.0341 3.43579 18.918V18.917C3.43187 18.8671 3.4276 18.8254 3.42212 18.791V18.79L3.37915 18.6572C3.36722 18.6291 3.35479 18.604 3.34106 18.582L3.29712 18.5244C3.28295 18.5096 3.26379 18.4953 3.2395 18.4805L3.14868 18.4365C3.07849 18.4103 2.99684 18.3965 2.8938 18.3965C2.69287 18.3965 2.56203 18.451 2.47974 18.543C2.39559 18.6371 2.34586 18.7885 2.34595 19.0156V20.7607C2.34595 20.9877 2.39681 21.1393 2.48267 21.2334C2.5669 21.3256 2.70086 21.3799 2.90649 21.3799C3.02927 21.3799 3.11738 21.3613 3.19067 21.3271L3.24048 21.2998C3.2852 21.2705 3.31623 21.2349 3.33716 21.1943C3.37441 21.1217 3.39818 21.0601 3.4104 21.0098L3.427 20.9199C3.43133 20.8859 3.43381 20.8476 3.43579 20.8057L3.43677 20.8037L3.45044 20.7217C3.47288 20.6444 3.52035 20.5801 3.59204 20.5342C3.68186 20.4768 3.80113 20.4541 3.93677 20.4541C4.05263 20.4541 4.15751 20.4709 4.24146 20.5127L4.3186 20.5635L4.35278 20.5986C4.4249 20.6858 4.45044 20.8134 4.45044 20.9551C4.45038 21.3584 4.30046 21.6884 3.99829 21.9336C3.69937 22.1761 3.31794 22.293 2.85864 22.293C2.46633 22.293 2.13578 22.2005 1.86743 22.0098L1.7561 21.9219C1.4609 21.6639 1.33325 21.2678 1.33325 20.7607V19.0156C1.33325 18.5084 1.46173 18.1124 1.75903 17.8545L1.87036 17.7676C2.13947 17.5767 2.46776 17.4834 2.8606 17.4834ZM29.6165 12.292C29.7422 12.292 29.8485 12.3157 29.9446 12.3662L30.0168 12.417C30.0377 12.4368 30.0549 12.4597 30.0686 12.4854C30.0954 12.5355 30.1047 12.5896 30.1047 12.6416V16.708C30.1047 16.761 30.0933 16.8148 30.0647 16.8643C30.0504 16.889 30.0328 16.9111 30.012 16.9307L29.9407 16.9824C29.8436 17.0373 29.7406 17.0645 29.6165 17.0645C29.5224 17.0645 29.4311 17.0498 29.3499 17.0186L29.2727 16.9814C29.1786 16.9268 29.0921 16.8377 29.092 16.708V15H27.9163V16.707C27.9163 16.8317 27.8442 16.9239 27.7405 16.9824C27.6417 17.0382 27.5264 17.0644 27.4045 17.0645C27.3095 17.0645 27.2223 17.0496 27.1438 17.0186L27.0676 16.9814C27.0167 16.9519 26.9747 16.9137 26.9456 16.8652C26.9162 16.8164 26.9036 16.7623 26.9036 16.707V12.6416C26.9036 12.585 26.9164 12.5299 26.9465 12.4805C26.9766 12.4312 27.0201 12.3938 27.0725 12.3662L27.1477 12.333C27.2249 12.3051 27.3097 12.292 27.4036 12.292C27.5281 12.292 27.6434 12.3151 27.7405 12.3662L27.8127 12.415C27.8768 12.4707 27.9162 12.5469 27.9163 12.6416V14.1748H29.092V12.6416C29.0921 12.5113 29.1709 12.4196 29.2727 12.3662L29.3508 12.333C29.4322 12.3049 29.5241 12.292 29.6165 12.292ZM12.6047 1.2207C12.7302 1.2207 12.8386 1.24364 12.9348 1.29395L13.0071 1.34473C13.0281 1.36423 13.0465 1.38684 13.0608 1.41211C13.0889 1.46191 13.0988 1.51635 13.0989 1.57031V5.63672C13.0988 5.69108 13.0872 5.74486 13.0579 5.79395C13.0285 5.84285 12.9852 5.88154 12.9329 5.91113C12.8351 5.96631 12.7286 5.99316 12.6047 5.99316C12.5106 5.99316 12.4206 5.97844 12.3401 5.94727L12.2629 5.91016C12.1653 5.85355 12.0863 5.76353 12.0862 5.63672V3.93359H10.9104V5.63672C10.9103 5.7317 10.8674 5.80683 10.803 5.8623L10.7317 5.91113C10.6327 5.96707 10.5142 5.9931 10.3928 5.99316C10.2977 5.99316 10.2117 5.97829 10.134 5.94727L10.0588 5.91016C10.0068 5.88006 9.96484 5.84143 9.93677 5.79199C9.90871 5.74257 9.89852 5.689 9.89868 5.63574V1.57031C9.89871 1.51539 9.90977 1.46092 9.93872 1.41113C9.96793 1.36093 10.0114 1.322 10.0647 1.29395L10.1379 1.26172C10.2143 1.23374 10.2983 1.2207 10.3928 1.2207C10.4858 1.22075 10.575 1.2328 10.6545 1.26074L10.7307 1.29395L10.802 1.3418C10.8671 1.39652 10.9113 1.47276 10.9114 1.57031V3.1084H12.0862V1.57031C12.0863 1.44191 12.1606 1.34879 12.2649 1.29395L12.3411 1.26074C12.4214 1.23271 12.5119 1.2207 12.6047 1.2207Z" fill="#666666" stroke="#666666" stroke-width="0.2"/>
</g>
<defs>
<clipPath id="clip0_26687_658203">
<rect width="32" height="32" fill="white"/>
</clipPath>
</defs>
</svg>
