<svg width="32" height="32" viewBox="0 0 32 32" fill="none" xmlns="http://www.w3.org/2000/svg">
<g clip-path="url(#clip0_25856_149008)">
<path d="M10.3371 6.57157L10.6907 6.92512L13.1907 4.42505L13.1908 4.42499C13.2728 4.34295 13.384 4.29688 13.5 4.29688C13.6161 4.29688 13.7273 4.34298 13.8094 4.42505L16.3094 6.92512L16.663 6.57157L16.3094 6.92513C16.4803 7.09601 16.4803 7.37303 16.3095 7.54381L16.3094 7.54384L15.3269 8.5264L14.6491 9.20413L15.5927 9.37221C17.5283 9.71699 19.0637 11.2376 19.4296 13.1656L19.5112 13.5953L19.948 13.5716C22.5405 13.4308 24.8566 12.9694 26.2014 11.365C26.2845 11.2659 26.4073 11.2086 26.5367 11.2086H31.0626C31.224 11.2086 31.3723 11.2975 31.4484 11.4398C31.5245 11.5823 31.5159 11.7551 31.4264 11.8891L31.4264 11.8891C31.3634 11.9834 29.5845 14.6256 26.5557 17.2967L26.8864 17.6717L26.5557 17.2967C24.7689 18.8725 22.9222 20.1241 21.0687 21.0217C19.5052 21.7789 17.9338 22.2832 16.3735 22.5366L15.8528 22.6212L15.9651 23.1366C16.6044 26.0711 19.0243 26.789 19.2243 26.8434L19.2321 26.8455L19.24 26.8474C19.451 26.8975 19.5926 27.0966 19.5667 27.3217C19.5418 27.5366 19.3532 27.7073 19.1252 27.7073H7.87501C7.64709 27.7073 7.45842 27.5367 7.43352 27.3217C7.40754 27.0967 7.54917 26.8975 7.76019 26.8474L7.76818 26.8455L7.7761 26.8434C7.9825 26.7872 10.5197 26.0329 11.0798 22.9117L11.1617 22.4557L10.7133 22.3394C9.79307 22.1007 8.97368 21.7527 8.25243 21.3015L8.13077 21.2254H7.98726H5.20143C3.13204 21.2254 1.36995 19.7471 1.01024 17.7092C1.01024 17.7092 1.01024 17.7092 1.01024 17.7092L0.540367 15.0468L0.540365 15.0468C0.364543 14.0508 0.772963 13.087 1.61098 12.5206L1.611 12.5206C2.44899 11.9541 3.49548 11.9344 4.35427 12.469L4.35664 12.4704L6.09695 13.5403L6.21741 13.6144H6.35881H7.07088H7.48839L7.56286 13.2035C7.91562 11.2576 9.45889 9.71927 11.4074 9.37215L12.351 9.20405L11.6733 8.52634L10.6907 7.54377L10.6906 7.54371C10.6086 7.46174 10.5625 7.35045 10.5625 7.23445C10.5625 7.1185 10.6086 7.00722 10.6907 6.92513L10.3371 6.57157ZM13.8535 5.70677L13.5 5.35321L13.1464 5.70677L11.9722 6.88096L11.6187 7.23451L11.9722 7.58807L13.1464 8.76226L13.5 9.11582L13.8535 8.76226L15.0277 7.58807L15.3813 7.23451L15.0277 6.88096L13.8535 5.70677ZM18.0064 13.6165H18.6713L18.4867 12.9777C18.0191 11.3599 16.5252 10.172 14.7565 10.172H12.2435C10.4756 10.172 8.98236 11.3587 8.51412 12.9753L8.32901 13.6144H8.99438H14.0028C14.2613 13.6144 14.5186 13.6153 14.7743 13.6165H14.7767H18.0064ZM1.87178 17.5572L1.87178 17.5572C2.15739 19.1753 3.55818 20.3505 5.20131 20.3505H5.91362H6.93005L6.3097 19.5453C5.19912 18.1039 4.57656 16.171 4.57656 14.052C4.57656 14.038 4.57789 14.0188 4.58209 13.9892L4.62818 13.6647L4.34895 13.493L3.89623 13.2146C3.89579 13.2144 3.89536 13.2141 3.89493 13.2138C3.32923 12.8623 2.65054 12.874 2.10085 13.2456C1.55181 13.6167 1.28673 14.2422 1.4019 14.8948L1.87178 17.5572ZM10.576 26.0043L9.85582 26.8324L10.9533 26.8324L16.0472 26.8325L17.1447 26.8325L16.4245 26.0044C15.8575 25.3524 15.3131 24.4219 15.0706 23.1259L14.9913 22.7023L14.5606 22.7182C14.3835 22.7248 14.2089 22.729 14.0361 22.729C13.4968 22.729 12.9799 22.7033 12.4854 22.6527L12.0235 22.6054L11.9422 23.0626C11.7058 24.3929 11.1517 25.3423 10.576 26.0043ZM5.999 14.4894H5.44562L5.50156 15.04C5.6318 16.3219 6.06619 18.0331 7.34598 19.4277C8.63899 20.8367 10.7315 21.8539 14.036 21.8539C19.0472 21.8539 23.3145 18.9886 25.9767 16.6406C27.5328 15.2683 28.756 13.8935 29.5657 12.8993L30.23 12.0836H29.178H26.9523H26.7412L26.594 12.2349C25.4947 13.3645 23.9863 13.9481 22.1222 14.2377C20.2513 14.5284 18.0867 14.5144 15.7126 14.4975C15.1575 14.4935 14.5815 14.4894 14.0027 14.4894H5.999Z" stroke="#FF8A00"/>
</g>
<defs>
<clipPath id="clip0_25856_149008">
<rect width="32" height="32" fill="white"/>
</clipPath>
</defs>
</svg>
