<svg width="32" height="32" viewBox="0 0 32 32" fill="none" xmlns="http://www.w3.org/2000/svg">
<g clip-path="url(#clip0_26686_658144)">
<mask id="path-1-inside-1_26686_658144" fill="white">
<path d="M27.9764 16.7491C27.6776 16.4063 27.356 16.0638 27.0143 15.7225C27.3385 15.3645 27.6427 15.0061 27.924 14.6486C30.0608 11.9335 30.6902 9.5122 29.6963 7.83071C29.2026 6.99553 28.3688 6.42339 27.2178 6.13022C25.7323 5.75171 23.7524 5.86987 21.5149 6.41782C21.3805 5.95415 21.2352 5.5073 21.079 5.08065C19.8884 1.83028 18.1586 0.0259964 16.2083 0.000299499C14.2612 -0.0263977 12.4815 1.73256 11.2063 4.95048C10.9736 5.53769 10.7609 6.16392 10.5687 6.82228C9.76092 6.64597 8.98264 6.51973 8.24437 6.44671C8.1786 6.25245 8.09225 6.06213 7.9839 5.87881C7.57375 5.185 6.91864 4.69351 6.13935 4.495C5.36188 4.29693 4.5539 4.41441 3.86428 4.82587C2.80045 5.46072 2.26957 6.65716 2.423 7.81739C2.21874 8.03429 2.0468 8.27237 1.91094 8.5309C1.00217 10.2603 1.75176 12.6469 4.02146 15.251C4.32019 15.5938 4.64193 15.9363 4.98356 16.2776C4.65931 16.6357 4.35502 16.9941 4.07379 17.3515C1.93701 20.0666 1.30759 22.4879 2.30152 24.1694C2.7952 25.0046 3.62906 25.5767 4.78005 25.8699C5.36157 26.0181 6.01868 26.0901 6.73751 26.0901C7.85473 26.0901 9.12131 25.9149 10.4827 25.5816C10.6172 26.0455 10.7625 26.4926 10.9188 26.9195C12.1094 30.1698 13.8392 31.9741 15.7896 31.9998C15.8037 32 15.8176 32.0001 15.8318 32.0001C17.7655 32.0001 19.5257 30.2442 20.7916 27.0496C21.0247 26.4614 21.2377 25.834 21.4302 25.1745C21.963 25.2916 22.4826 25.3871 22.9857 25.4598C23.0551 25.7147 23.1584 25.9646 23.299 26.2025C23.7092 26.8963 24.3642 27.3878 25.1435 27.5863C25.3902 27.6491 25.64 27.6802 25.8881 27.6802C26.4219 27.6802 26.9479 27.5363 27.4186 27.2554C28.3342 26.709 28.8543 25.7465 28.8839 24.7493C29.4111 24.409 29.8214 23.9743 30.0868 23.4691C30.9956 21.7398 30.2461 19.3533 27.9764 16.7491ZM4.82538 6.43658C5.00163 6.33142 5.19839 6.27758 5.39808 6.27758C5.49074 6.27758 5.58409 6.28921 5.67625 6.31266C5.96867 6.38712 6.21476 6.57207 6.36919 6.83335C6.68893 7.3743 6.51186 8.07524 5.97448 8.39592C5.71645 8.54991 5.41434 8.59393 5.12361 8.51984C4.83119 8.44537 4.5851 8.26043 4.43067 7.99915C4.11099 7.4582 4.28799 6.75726 4.82538 6.43658ZM5.24309 24.0522C2.10601 23.2735 4.43355 19.7105 6.36068 17.5504C7.2974 18.3555 8.33997 19.1431 9.46475 19.8952C9.58404 21.2503 9.77399 22.5497 10.0303 23.7636C8.07525 24.2417 6.39445 24.3456 5.24309 24.0522ZM9.32976 17.5137C8.74674 17.0865 8.1946 16.6507 7.6771 16.21C8.19767 15.7195 8.75724 15.2327 9.35071 14.7535C9.31582 15.5822 9.30476 16.5848 9.32976 17.5137ZM9.53397 12.2504C8.34947 13.1158 7.26032 14.0194 6.2951 14.9372C5.98986 14.6314 5.70238 14.3249 5.43541 14.0186C3.92674 12.2876 3.21204 10.7168 3.45556 9.71484C3.80013 10.0087 4.20928 10.2225 4.66063 10.3374C4.90734 10.4003 5.15706 10.4313 5.40521 10.4313C5.93897 10.4313 6.46497 10.2874 6.93571 10.0066C7.59107 9.61549 8.04367 9.01102 8.25919 8.33339C8.84915 8.39898 9.46763 8.50158 10.108 8.63901C9.85965 9.77973 9.66714 10.9915 9.53397 12.2504ZM20.5101 10.8426C19.7814 10.4188 18.9362 9.95936 18.0864 9.5409C18.7876 9.2471 19.4814 8.98607 20.162 8.76017C20.2994 9.42786 20.4159 10.1237 20.5101 10.8426ZM12.9499 5.64154C15.5733 -0.737218 18.1996 1.91312 19.7122 6.93439C18.4553 7.34422 17.1426 7.87148 15.8101 8.50614C14.6481 8.02328 13.4983 7.61476 12.3853 7.28851C12.5566 6.70924 12.745 6.1586 12.9499 5.64154ZM11.9249 9.10499C12.4712 9.26667 13.0279 9.44949 13.5919 9.65325C12.9902 9.98912 12.2813 10.4078 11.6068 10.8372C11.6984 10.243 11.8045 9.66444 11.9249 9.10499ZM11.4876 21.1575C12.2171 21.5816 13.0603 22.0404 13.9115 22.4592C13.2102 22.753 12.5164 23.0141 11.8357 23.2399C11.6983 22.5723 11.5819 21.8764 11.4876 21.1575ZM19.0479 26.3586C16.4243 32.7377 13.7979 30.0866 12.2854 25.0654C13.5434 24.6552 14.8572 24.1271 16.1908 23.4918C17.3482 23.9712 18.4989 24.3795 19.6138 24.7067C19.4421 25.2878 19.2533 25.8401 19.0479 26.3586ZM20.0741 22.8893C19.5285 22.7277 18.9731 22.5454 18.4114 22.3432C19.0119 22.0082 19.7181 21.5914 20.391 21.1629C20.2996 21.755 20.194 22.3316 20.0741 22.8893ZM20.803 16.0636C20.7912 16.9657 20.7486 17.8539 20.6773 18.7206C19.3138 19.6708 17.6864 20.6487 16.1366 21.4297C14.5402 20.7265 12.7894 19.7957 11.2643 18.8294C11.1539 17.0893 11.1687 15.0922 11.3204 13.2795C12.6845 12.3288 14.3128 11.3505 15.8634 10.5692C17.4517 11.2716 19.2116 12.206 20.7334 13.1707C20.7921 14.1127 20.8159 15.0805 20.803 16.0636ZM25.2562 7.78407C30.1675 7.76438 28.2091 11.5696 25.6371 14.4496C24.7004 13.6445 23.6578 12.857 22.533 12.1049C22.4137 10.7498 22.2238 9.45049 21.9675 8.23661C23.1922 7.93713 24.3096 7.78407 25.2562 7.78407ZM22.668 14.4864C23.251 14.9137 23.8032 15.3494 24.3207 15.7901C23.8001 16.2807 23.2405 16.7675 22.647 17.2466C22.6819 16.4179 22.693 15.4153 22.668 14.4864ZM26.4574 25.6448C25.0904 26.3634 24.1023 24.4486 25.3083 23.6855C26.6606 22.9562 27.6703 24.8984 26.4574 25.6448ZM28.4265 22.5967C28.3817 22.6819 28.327 22.7596 28.2662 22.8312C26.7669 20.8805 23.8474 21.523 23.0832 23.5789C22.6959 23.5193 22.2977 23.4452 21.8906 23.3571C22.1386 22.2176 22.3307 21.0071 22.4638 19.7497C23.6483 18.8843 24.7374 17.9807 25.7027 17.0629C27.6475 18.9543 29.0935 21.4042 28.4265 22.5967Z"/>
</mask>
<path d="M27.9764 16.7491C27.6776 16.4063 27.356 16.0638 27.0143 15.7225C27.3385 15.3645 27.6427 15.0061 27.924 14.6486C30.0608 11.9335 30.6902 9.5122 29.6963 7.83071C29.2026 6.99553 28.3688 6.42339 27.2178 6.13022C25.7323 5.75171 23.7524 5.86987 21.5149 6.41782C21.3805 5.95415 21.2352 5.5073 21.079 5.08065C19.8884 1.83028 18.1586 0.0259964 16.2083 0.000299499C14.2612 -0.0263977 12.4815 1.73256 11.2063 4.95048C10.9736 5.53769 10.7609 6.16392 10.5687 6.82228C9.76092 6.64597 8.98264 6.51973 8.24437 6.44671C8.1786 6.25245 8.09225 6.06213 7.9839 5.87881C7.57375 5.185 6.91864 4.69351 6.13935 4.495C5.36188 4.29693 4.5539 4.41441 3.86428 4.82587C2.80045 5.46072 2.26957 6.65716 2.423 7.81739C2.21874 8.03429 2.0468 8.27237 1.91094 8.5309C1.00217 10.2603 1.75176 12.6469 4.02146 15.251C4.32019 15.5938 4.64193 15.9363 4.98356 16.2776C4.65931 16.6357 4.35502 16.9941 4.07379 17.3515C1.93701 20.0666 1.30759 22.4879 2.30152 24.1694C2.7952 25.0046 3.62906 25.5767 4.78005 25.8699C5.36157 26.0181 6.01868 26.0901 6.73751 26.0901C7.85473 26.0901 9.12131 25.9149 10.4827 25.5816C10.6172 26.0455 10.7625 26.4926 10.9188 26.9195C12.1094 30.1698 13.8392 31.9741 15.7896 31.9998C15.8037 32 15.8176 32.0001 15.8318 32.0001C17.7655 32.0001 19.5257 30.2442 20.7916 27.0496C21.0247 26.4614 21.2377 25.834 21.4302 25.1745C21.963 25.2916 22.4826 25.3871 22.9857 25.4598C23.0551 25.7147 23.1584 25.9646 23.299 26.2025C23.7092 26.8963 24.3642 27.3878 25.1435 27.5863C25.3902 27.6491 25.64 27.6802 25.8881 27.6802C26.4219 27.6802 26.9479 27.5363 27.4186 27.2554C28.3342 26.709 28.8543 25.7465 28.8839 24.7493C29.4111 24.409 29.8214 23.9743 30.0868 23.4691C30.9956 21.7398 30.2461 19.3533 27.9764 16.7491ZM4.82538 6.43658C5.00163 6.33142 5.19839 6.27758 5.39808 6.27758C5.49074 6.27758 5.58409 6.28921 5.67625 6.31266C5.96867 6.38712 6.21476 6.57207 6.36919 6.83335C6.68893 7.3743 6.51186 8.07524 5.97448 8.39592C5.71645 8.54991 5.41434 8.59393 5.12361 8.51984C4.83119 8.44537 4.5851 8.26043 4.43067 7.99915C4.11099 7.4582 4.28799 6.75726 4.82538 6.43658ZM5.24309 24.0522C2.10601 23.2735 4.43355 19.7105 6.36068 17.5504C7.2974 18.3555 8.33997 19.1431 9.46475 19.8952C9.58404 21.2503 9.77399 22.5497 10.0303 23.7636C8.07525 24.2417 6.39445 24.3456 5.24309 24.0522ZM9.32976 17.5137C8.74674 17.0865 8.1946 16.6507 7.6771 16.21C8.19767 15.7195 8.75724 15.2327 9.35071 14.7535C9.31582 15.5822 9.30476 16.5848 9.32976 17.5137ZM9.53397 12.2504C8.34947 13.1158 7.26032 14.0194 6.2951 14.9372C5.98986 14.6314 5.70238 14.3249 5.43541 14.0186C3.92674 12.2876 3.21204 10.7168 3.45556 9.71484C3.80013 10.0087 4.20928 10.2225 4.66063 10.3374C4.90734 10.4003 5.15706 10.4313 5.40521 10.4313C5.93897 10.4313 6.46497 10.2874 6.93571 10.0066C7.59107 9.61549 8.04367 9.01102 8.25919 8.33339C8.84915 8.39898 9.46763 8.50158 10.108 8.63901C9.85965 9.77973 9.66714 10.9915 9.53397 12.2504ZM20.5101 10.8426C19.7814 10.4188 18.9362 9.95936 18.0864 9.5409C18.7876 9.2471 19.4814 8.98607 20.162 8.76017C20.2994 9.42786 20.4159 10.1237 20.5101 10.8426ZM12.9499 5.64154C15.5733 -0.737218 18.1996 1.91312 19.7122 6.93439C18.4553 7.34422 17.1426 7.87148 15.8101 8.50614C14.6481 8.02328 13.4983 7.61476 12.3853 7.28851C12.5566 6.70924 12.745 6.1586 12.9499 5.64154ZM11.9249 9.10499C12.4712 9.26667 13.0279 9.44949 13.5919 9.65325C12.9902 9.98912 12.2813 10.4078 11.6068 10.8372C11.6984 10.243 11.8045 9.66444 11.9249 9.10499ZM11.4876 21.1575C12.2171 21.5816 13.0603 22.0404 13.9115 22.4592C13.2102 22.753 12.5164 23.0141 11.8357 23.2399C11.6983 22.5723 11.5819 21.8764 11.4876 21.1575ZM19.0479 26.3586C16.4243 32.7377 13.7979 30.0866 12.2854 25.0654C13.5434 24.6552 14.8572 24.1271 16.1908 23.4918C17.3482 23.9712 18.4989 24.3795 19.6138 24.7067C19.4421 25.2878 19.2533 25.8401 19.0479 26.3586ZM20.0741 22.8893C19.5285 22.7277 18.9731 22.5454 18.4114 22.3432C19.0119 22.0082 19.7181 21.5914 20.391 21.1629C20.2996 21.755 20.194 22.3316 20.0741 22.8893ZM20.803 16.0636C20.7912 16.9657 20.7486 17.8539 20.6773 18.7206C19.3138 19.6708 17.6864 20.6487 16.1366 21.4297C14.5402 20.7265 12.7894 19.7957 11.2643 18.8294C11.1539 17.0893 11.1687 15.0922 11.3204 13.2795C12.6845 12.3288 14.3128 11.3505 15.8634 10.5692C17.4517 11.2716 19.2116 12.206 20.7334 13.1707C20.7921 14.1127 20.8159 15.0805 20.803 16.0636ZM25.2562 7.78407C30.1675 7.76438 28.2091 11.5696 25.6371 14.4496C24.7004 13.6445 23.6578 12.857 22.533 12.1049C22.4137 10.7498 22.2238 9.45049 21.9675 8.23661C23.1922 7.93713 24.3096 7.78407 25.2562 7.78407ZM22.668 14.4864C23.251 14.9137 23.8032 15.3494 24.3207 15.7901C23.8001 16.2807 23.2405 16.7675 22.647 17.2466C22.6819 16.4179 22.693 15.4153 22.668 14.4864ZM26.4574 25.6448C25.0904 26.3634 24.1023 24.4486 25.3083 23.6855C26.6606 22.9562 27.6703 24.8984 26.4574 25.6448ZM28.4265 22.5967C28.3817 22.6819 28.327 22.7596 28.2662 22.8312C26.7669 20.8805 23.8474 21.523 23.0832 23.5789C22.6959 23.5193 22.2977 23.4452 21.8906 23.3571C22.1386 22.2176 22.3307 21.0071 22.4638 19.7497C23.6483 18.8843 24.7374 17.9807 25.7027 17.0629C27.6475 18.9543 29.0935 21.4042 28.4265 22.5967Z" stroke="#FF8A00" stroke-width="2.00072" mask="url(#path-1-inside-1_26686_658144)"/>
<path d="M14.5043 13.4766C15.0923 13.1257 15.7662 12.9948 16.433 13.0967L16.7181 13.1543C17.3826 13.3235 17.9535 13.7103 18.3539 14.2578L18.515 14.5029C19.3121 15.8515 18.9063 17.5887 17.6215 18.4473L17.4935 18.5273C17.0339 18.8016 16.523 18.9413 16.0052 18.9414C15.8244 18.9414 15.6419 18.9241 15.4603 18.8896L15.2797 18.8496C14.6152 18.6803 14.0444 18.2937 13.6439 17.7461L13.4828 17.502C12.6856 16.1534 13.0914 14.4153 14.3763 13.5566L14.5043 13.4766ZM15.9965 13.9385C15.6765 13.9385 15.3613 14.0145 15.0736 14.1611L14.9525 14.2285C14.038 14.7744 13.7002 15.923 14.1381 16.8701L14.2357 17.0557C14.4802 17.4693 14.8545 17.7797 15.3002 17.9414L15.4955 18.002C15.9582 18.1198 16.4386 18.0721 16.8656 17.8711L17.0453 17.7764C17.9597 17.2306 18.2972 16.0818 17.8597 15.1348L17.7621 14.9482C17.5175 14.5345 17.1434 14.2242 16.6976 14.0625L16.5023 14.0029C16.3354 13.9604 16.1657 13.9385 15.9965 13.9385Z" stroke="#FF8A00" stroke-width="1.00036"/>
</g>
<defs>
<clipPath id="clip0_26686_658144">
<rect width="32" height="32" fill="white"/>
</clipPath>
</defs>
</svg>
