<svg width="26" height="26" viewBox="0 0 26 26" fill="none" xmlns="http://www.w3.org/2000/svg">
<g clip-path="url(#clip0_24972_12606)">
<path d="M24.5244 14.0469C24.7864 14.0469 25.0484 13.7849 25.0484 13.5229V10.38C25.0484 9.48946 24.3675 8.80859 23.4769 8.80859H19.2861V23.4754H23.4764C24.367 23.4754 25.0479 22.7946 25.0479 21.904V18.7611C25.0476 18.6223 24.9923 18.4891 24.8941 18.3909C24.7959 18.2927 24.6628 18.2374 24.5239 18.2372C23.9738 18.2286 23.4492 18.0042 23.0632 17.6122C22.6773 17.2202 22.4609 16.6921 22.4609 16.142C22.4609 15.5919 22.6773 15.0638 23.0632 14.6719C23.4492 14.2799 23.9738 14.0554 24.5239 14.0469H24.5244Z" fill="#FF8A00"/>
<path d="M24.1576 7.23957C24.4196 7.13498 24.5765 6.82069 24.4719 6.5587L23.424 3.57274C23.162 2.73447 22.2171 2.31559 21.4336 2.57758L6.55762 7.71075H23.3194C23.5678 7.504 23.8519 7.34433 24.1576 7.23957Z" fill="#FF8A00"/>
<path d="M0.953125 10.3839V13.5268C0.953125 13.8411 1.16282 14.0508 1.4771 14.0508C1.75497 14.0465 2.03092 14.0975 2.28889 14.2008C2.54686 14.3042 2.78169 14.4578 2.97972 14.6528C3.17774 14.8478 3.335 15.0802 3.44234 15.3365C3.54969 15.5929 3.60497 15.868 3.60497 16.1459C3.60497 16.4238 3.54969 16.699 3.44234 16.9553C3.335 17.2116 3.17774 17.444 2.97972 17.639C2.78169 17.834 2.54686 17.9876 2.28889 18.091C2.03092 18.1944 1.75497 18.2454 1.4771 18.2411C1.16282 18.2411 0.953125 18.4508 0.953125 18.765V21.9079C0.953125 22.7985 1.63399 23.4793 2.52455 23.4793H18.2388V8.8125H2.52455C1.63601 8.8125 0.953125 9.49337 0.953125 10.3839ZM7.23884 13.0028H10.3817C10.696 13.0028 10.9057 13.2125 10.9057 13.5268C10.9057 13.8411 10.696 14.0508 10.3817 14.0508H7.23884C6.92455 14.0508 6.71486 13.8411 6.71486 13.5268C6.71486 13.2125 6.92455 13.0028 7.23884 13.0028ZM7.23884 15.6217H14.048C14.3623 15.6217 14.572 15.8314 14.572 16.1457C14.572 16.46 14.3623 16.6696 14.048 16.6696H7.23884C6.92455 16.6696 6.71486 16.46 6.71486 16.1457C6.71486 15.8314 6.92455 15.6217 7.23884 15.6217ZM7.23884 18.2406H14.048C14.3623 18.2406 14.572 18.4503 14.572 18.7645C14.572 19.0788 14.3623 19.2885 14.048 19.2885H7.23884C6.92455 19.2885 6.71486 19.0788 6.71486 18.7645C6.71486 18.4503 6.92455 18.2411 7.23884 18.2411V18.2406Z" fill="#FF8A00"/>
</g>
<defs>
<clipPath id="clip0_24972_12606">
<rect width="25.1429" height="25.1429" fill="white" transform="translate(0.428711 0.429688)"/>
</clipPath>
</defs>
</svg>
