<svg width="107" height="100" viewBox="0 0 107 100" fill="none" xmlns="http://www.w3.org/2000/svg">
<path d="M106.351 40.3847C99.6609 89.4676 71.2612 102.034 32.539 99.7446C-8.26832 96.0165 -7.76062 59.7074 17.8418 55.2288C49.807 49.6371 50.318 41.3739 56.5373 20.6667C67.0999 -14.5017 110.169 -2.72109 106.351 40.3847Z" fill="#FFF4E6"/>
<mask id="mask0_24356_512938" style="mask-type:alpha" maskUnits="userSpaceOnUse" x="0" y="0" width="107" height="100">
<path d="M106.351 40.3847C99.6609 89.4676 71.2612 102.034 32.539 99.7446C-8.26832 96.0165 -7.76062 59.7074 17.8418 55.2288C49.807 49.6371 50.318 41.3739 56.5373 20.6667C67.0999 -14.5017 110.169 -2.72109 106.351 40.3847Z" fill="#FFDFB3"/>
</mask>
<g mask="url(#mask0_24356_512938)">
<path fill-rule="evenodd" clip-rule="evenodd" d="M7.54466 72.4316C-7.57101 64.347 -26.3782 70.0474 -34.4624 85.1639C-42.5465 100.28 -36.8464 119.088 -21.7307 127.173C-6.61502 135.258 12.1922 129.557 20.2763 114.441C28.3605 99.3242 22.6603 80.5161 7.54466 72.4316ZM-35.1394 84.8017C-26.8553 69.3113 -7.58283 63.4699 7.90678 71.7544C23.3964 80.039 29.2376 99.3124 20.9534 114.803C12.6693 130.293 -6.6032 136.135 -22.0928 127.85C-37.5824 119.565 -43.4236 100.292 -35.1394 84.8017Z" fill="#FFEACC"/>
<path fill-rule="evenodd" clip-rule="evenodd" d="M10.1306 62.7089C-4.98507 54.6243 -23.7923 60.3248 -31.8764 75.4412C-39.9606 90.5576 -34.2604 109.366 -19.1448 117.45C-4.02908 125.535 14.7781 119.834 22.8623 104.718C30.9464 89.6016 25.2463 70.7935 10.1306 62.7089ZM-32.5535 75.0791C-24.2693 59.5887 -4.9969 53.7472 10.4927 62.0318C25.9823 70.3164 31.8235 89.5898 23.5394 105.08C15.2552 120.571 -4.01726 126.412 -19.5069 118.127C-34.9965 109.843 -40.8377 90.5694 -32.5535 75.0791Z" fill="#FFEACC"/>
<path fill-rule="evenodd" clip-rule="evenodd" d="M5.22701 78.1103C-10.5492 69.6725 -30.1782 75.622 -38.6157 91.399C-47.0531 107.176 -41.1039 126.806 -25.3277 135.244C-9.55145 143.682 10.0776 137.732 18.515 121.955C26.9525 106.178 21.0032 86.5482 5.22701 78.1103ZM-39.2928 91.0369C-30.6553 74.8859 -10.561 68.7953 5.58913 77.4332C21.7393 86.071 27.8296 106.166 19.1921 122.317C10.5547 138.468 -9.53963 144.559 -25.6898 135.921C-41.8399 127.283 -47.9302 107.188 -39.2928 91.0369Z" fill="#FFEACC"/>
<path fill-rule="evenodd" clip-rule="evenodd" d="M128.24 -33.9161C113.124 -42.0007 94.3171 -36.3002 86.233 -21.1838C78.1488 -6.06739 83.8489 12.7407 98.9646 20.8253C114.08 28.9099 132.887 23.2094 140.972 8.093C149.056 -7.02342 143.356 -25.8315 128.24 -33.9161ZM85.5559 -21.5459C93.84 -37.0363 113.112 -42.8778 128.602 -34.5932C144.092 -26.3086 149.933 -7.03524 141.649 8.45514C133.365 23.9455 114.092 29.787 98.6025 21.5024C83.1129 13.2178 77.2717 -6.05557 85.5559 -21.5459Z" fill="#FFEACC"/>
<path fill-rule="evenodd" clip-rule="evenodd" d="M128.846 -51.5528C113.731 -59.6374 94.9236 -53.9369 86.8394 -38.8205C78.7552 -23.7041 84.4554 -4.896 99.5711 3.18857C114.687 11.2731 133.494 5.57269 141.578 -9.54372C149.662 -24.6601 143.962 -43.4682 128.846 -51.5528ZM86.1623 -39.1827C94.4465 -54.673 113.719 -60.5145 129.209 -52.2299C144.698 -43.9454 150.539 -24.672 142.255 -9.18158C133.971 6.30879 114.699 12.1503 99.2089 3.86569C83.7193 -4.41888 77.8782 -23.6923 86.1623 -39.1827Z" fill="#FFEACC"/>
<path fill-rule="evenodd" clip-rule="evenodd" d="M127.407 -28.2334C111.63 -36.6713 92.0014 -30.7217 83.564 -14.9448C75.1266 0.832234 81.0758 20.4622 96.852 28.9001C112.628 37.3379 132.257 31.3884 140.695 15.6114C149.132 -0.165575 143.183 -19.7956 127.407 -28.2334ZM82.8869 -15.3069C91.5243 -31.4578 111.619 -37.5484 127.769 -28.9106C143.919 -20.2727 150.009 -0.177398 141.372 15.9736C132.734 32.1245 112.64 38.2151 96.4899 29.5772C80.3397 20.9394 74.2495 0.844058 82.8869 -15.3069Z" fill="#FFEACC"/>
</g>
<path d="M41.5508 32.5278C41.5508 27.9884 45.2305 24.3086 49.7696 24.3086H68.9473C73.4864 24.3086 77.166 27.9884 77.166 32.5278V79.9032C77.166 84.4426 73.4864 88.1224 68.9473 88.1224H49.7696C45.2305 88.1224 41.5508 84.4426 41.5508 79.9032V32.5278Z" fill="url(#paint0_linear_24356_512938)"/>
<path fill-rule="evenodd" clip-rule="evenodd" d="M68.9473 27.0483H49.7696C46.7435 27.0483 44.2904 29.5016 44.2904 32.5278V79.9032C44.2904 82.9295 46.7435 85.3827 49.7696 85.3827H68.9473C71.9733 85.3827 74.4265 82.9295 74.4265 79.9032V32.5278C74.4265 29.5016 71.9733 27.0483 68.9473 27.0483ZM49.7696 24.3086C45.2305 24.3086 41.5508 27.9884 41.5508 32.5278V79.9032C41.5508 84.4426 45.2305 88.1224 49.7696 88.1224H68.9473C73.4864 88.1224 77.166 84.4426 77.166 79.9032V32.5278C77.166 27.9884 73.4864 24.3086 68.9473 24.3086H49.7696Z" fill="#424672"/>
<mask id="mask1_24356_512938" style="mask-type:alpha" maskUnits="userSpaceOnUse" x="43" y="26" width="33" height="61">
<path d="M43.5303 33.1384C43.5303 29.3556 46.5967 26.2891 50.3793 26.2891H68.3393C72.1219 26.2891 75.1883 29.3556 75.1883 33.1384V79.2961C75.1883 83.0789 72.1219 86.1454 68.3393 86.1454H50.3792C46.5967 86.1454 43.5303 83.0789 43.5303 79.2961V33.1384Z" fill="#FFD88A"/>
</mask>
<g mask="url(#mask1_24356_512938)">
<path opacity="0.5" d="M-9.25586 83.5234L74.2773 19.8564L86.4038 35.7683L2.8706 99.4353L-9.25586 83.5234Z" fill="url(#paint1_linear_24356_512938)"/>
<path opacity="0.5" d="M84.5861 29.2569C84.5861 34.721 80.1568 39.1505 74.6929 39.1505C69.2291 39.1505 64.7998 34.721 64.7998 29.2569C64.7998 23.7928 69.2291 19.3633 74.6929 19.3633C80.1568 19.3633 84.5861 23.7928 84.5861 29.2569Z" fill="#E59B50"/>
<path opacity="0.5" d="M-2.9668 113.809L70.3207 57.9506L80.9599 71.9108L7.6723 127.769L-2.9668 113.809Z" fill="url(#paint2_linear_24356_512938)"/>
</g>
<g opacity="0.9">
<path d="M68.1837 57.8188C68.1837 54.9056 65.8236 52.5469 62.912 52.5469C60.0006 52.5469 57.6413 54.9056 57.6413 57.8188C56.9698 57.8188 56.4248 58.3636 56.4248 59.0354V63.0905C56.4248 63.7622 56.9698 64.307 57.6413 64.307H60.0744C60.2977 64.307 60.479 64.1258 60.479 63.9017V61.0629C60.479 60.6169 60.3167 59.9254 60.1172 59.5264L59.2634 57.8188C59.2634 55.8022 60.8957 54.1691 62.9122 54.1691C64.927 54.1691 66.5618 55.8022 66.5618 57.8188L65.708 59.5264C65.5085 59.9257 65.3453 60.6169 65.3453 61.0629V63.9951C64.6244 64.4584 63.7896 64.7126 62.912 64.7126H62.1011V65.9292H62.912C64.4652 65.9292 65.8711 65.309 66.9036 64.307H68.1837C68.8554 64.307 69.4002 63.7622 69.4002 63.0905V59.0354C69.4002 58.3636 68.8554 57.8188 68.1837 57.8188Z" fill="#FFF4E6"/>
<path d="M62.9116 51.3311C63.1873 51.3311 63.4566 51.354 63.7228 51.3874V48.087C63.7228 47.195 62.9924 46.4648 62.1007 46.4648H51.5576C50.6655 46.4648 49.9355 47.195 49.9355 48.087V52.9533C49.9355 53.8453 50.6655 54.5755 51.5576 54.5755V57.0087L55.6128 54.5755H57.3025C58.4261 52.6395 60.5166 51.3311 62.9116 51.3311ZM59.6677 49.709C60.1161 49.709 60.4786 50.0717 60.4786 50.5199C60.4786 50.9684 60.1161 51.3311 59.6677 51.3311C59.2202 51.3311 58.8567 50.9684 58.8567 50.5202C58.8567 50.0717 59.2202 49.709 59.6677 49.709ZM53.9907 51.3311C53.5432 51.3311 53.1798 50.9684 53.1798 50.5202C53.1798 50.072 53.5432 49.7092 53.9907 49.7092C54.4391 49.7092 54.8016 50.072 54.8016 50.5202C54.8016 50.9684 54.4388 51.3311 53.9907 51.3311ZM56.0181 50.5202C56.0181 50.072 56.3816 49.7092 56.8291 49.7092C57.2772 49.7092 57.64 50.072 57.64 50.5202C57.64 50.9686 57.2772 51.3311 56.8291 51.3311C56.3816 51.3311 56.0181 50.9684 56.0181 50.5202Z" fill="#FFF4E6"/>
</g>
<path d="M51.9385 25.2969H66.7782V26.7048C66.7782 27.8397 65.8583 28.7596 64.7235 28.7596H53.9932C52.8584 28.7596 51.9385 27.8397 51.9385 26.7048V25.2969Z" fill="#424672"/>
<path d="M82.6885 27.4433C82.6885 32.361 78.7021 36.3476 73.7847 36.3476C68.8672 36.3476 64.8809 32.361 64.8809 27.4433C64.8809 22.5256 68.8672 18.5391 73.7847 18.5391C78.7021 18.5391 82.6885 22.5256 82.6885 27.4433Z" fill="white"/>
<g clip-path="url(#clip0_24356_512938)">
<path d="M78.3988 27.0366C78.4954 27.0366 78.592 26.94 78.592 26.8434V25.6848C78.592 25.3565 78.341 25.1055 78.0127 25.1055H76.4678V30.5125H78.0125C78.3408 30.5125 78.5918 30.2615 78.5918 29.9332V28.7746C78.5917 28.7234 78.5713 28.6743 78.5351 28.6381C78.4989 28.6019 78.4498 28.5815 78.3986 28.5814C78.1959 28.5783 78.0025 28.4955 77.8602 28.351C77.7179 28.2065 77.6381 28.0118 77.6381 27.809C77.6381 27.6062 77.7179 27.4115 77.8602 27.267C78.0025 27.1225 78.1959 27.0397 78.3986 27.0366H78.3988Z" fill="#FF8A00"/>
<path d="M78.2635 24.5246C78.3601 24.4861 78.4179 24.3702 78.3793 24.2736L77.993 23.1728C77.8964 22.8638 77.5481 22.7094 77.2593 22.8059L71.7754 24.6983H77.9545C78.046 24.6221 78.1508 24.5633 78.2635 24.5246Z" fill="#FF8A00"/>
<path d="M69.709 25.6848V26.8434C69.709 26.9593 69.7863 27.0366 69.9021 27.0366C70.0046 27.035 70.1063 27.0538 70.2014 27.0919C70.2965 27.13 70.3831 27.1867 70.4561 27.2586C70.5291 27.3304 70.587 27.4161 70.6266 27.5106C70.6662 27.6051 70.6866 27.7066 70.6866 27.809C70.6866 27.9115 70.6662 28.0129 70.6266 28.1074C70.587 28.2019 70.5291 28.2876 70.4561 28.3595C70.3831 28.4313 70.2965 28.488 70.2014 28.5261C70.1063 28.5642 70.0046 28.583 69.9021 28.5814C69.7863 28.5814 69.709 28.6587 69.709 28.7746V29.9332C69.709 30.2615 69.96 30.5125 70.2883 30.5125H76.0812V25.1055H70.2883C69.9607 25.1055 69.709 25.3565 69.709 25.6848ZM72.0262 26.6503H73.1847C73.3006 26.6503 73.3779 26.7276 73.3779 26.8434C73.3779 26.9593 73.3006 27.0366 73.1847 27.0366H72.0262C71.9103 27.0366 71.833 26.9593 71.833 26.8434C71.833 26.7276 71.9103 26.6503 72.0262 26.6503ZM72.0262 27.6157H74.5363C74.6522 27.6157 74.7295 27.693 74.7295 27.8089C74.7295 27.9248 74.6522 28.0021 74.5363 28.0021H72.0262C71.9103 28.0021 71.833 27.9248 71.833 27.8089C71.833 27.693 71.9103 27.6157 72.0262 27.6157ZM72.0262 28.5812H74.5363C74.6522 28.5812 74.7295 28.6585 74.7295 28.7744C74.7295 28.8902 74.6522 28.9676 74.5363 28.9676H72.0262C71.9103 28.9676 71.833 28.8902 71.833 28.7744C71.833 28.6585 71.9103 28.5814 72.0262 28.5814V28.5812Z" fill="#FF8A00"/>
</g>
<path d="M69.5146 74.5757C69.5146 73.0626 70.7412 71.8359 72.2542 71.8359H95.4651C96.9782 71.8359 98.2047 73.0626 98.2047 74.5757V79.9792C98.2047 81.4923 96.9782 82.7189 95.4651 82.7189H72.2542C70.7412 82.7189 69.5146 81.4923 69.5146 79.9792V74.5757Z" fill="#25D09D"/>
<path fill-rule="evenodd" clip-rule="evenodd" d="M77.4752 76.216L75.2092 79.1296C74.9524 79.4598 74.4757 79.5176 74.1474 79.2582L72.5527 77.9982L73.402 76.9233L74.5093 77.7983L76.394 75.375L77.4752 76.216Z" fill="white"/>
<path fill-rule="evenodd" clip-rule="evenodd" d="M94.2474 76.2878H79.9023V74.918H94.2474V76.2878Z" fill="white"/>
<path fill-rule="evenodd" clip-rule="evenodd" d="M89.7955 79.2527H79.9023V77.8828H89.7955V79.2527Z" fill="white"/>
<path opacity="0.5" d="M26.8047 35.1577C26.8047 33.6446 28.0312 32.418 29.5443 32.418H44.8407C46.3537 32.418 47.5803 33.6446 47.5803 35.1577V45.508C47.5803 47.0211 46.3537 48.2478 44.8407 48.2478H29.5443C28.0312 48.2478 26.8047 47.0211 26.8047 45.508V35.1577Z" fill="#897FF8"/>
<path d="M24.3311 28.2319C24.3311 26.7188 25.5576 25.4922 27.0706 25.4922H47.3136C48.8266 25.4922 50.0532 26.7188 50.0532 28.2319V42.5397C50.0532 44.0528 48.8266 45.2794 47.3136 45.2794H27.0706C25.5576 45.2794 24.3311 44.0528 24.3311 42.5397V28.2319Z" fill="url(#paint3_linear_24356_512938)"/>
<path fill-rule="evenodd" clip-rule="evenodd" d="M46.096 33.405H31.751V32.0352H46.096V33.405Z" fill="white"/>
<path fill-rule="evenodd" clip-rule="evenodd" d="M46.096 41.323H31.751V39.9531H46.096V41.323Z" fill="white"/>
<path fill-rule="evenodd" clip-rule="evenodd" d="M41.6441 30.4402H31.751V29.0703H41.6441V30.4402Z" fill="white"/>
<path fill-rule="evenodd" clip-rule="evenodd" d="M41.6441 38.3542H31.751V36.9844H41.6441V38.3542Z" fill="white"/>
<path d="M29.7726 31.4294C29.7726 32.249 29.1082 32.9134 28.2887 32.9134C27.4691 32.9134 26.8047 32.249 26.8047 31.4294C26.8047 30.6097 27.4691 29.9453 28.2887 29.9453C29.1082 29.9453 29.7726 30.6097 29.7726 31.4294Z" fill="white"/>
<path d="M29.7726 39.3395C29.7726 40.1591 29.1082 40.8236 28.2887 40.8236C27.4691 40.8236 26.8047 40.1591 26.8047 39.3395C26.8047 38.5199 27.4691 37.8555 28.2887 37.8555C29.1082 37.8555 29.7726 38.5199 29.7726 39.3395Z" fill="white"/>
<path d="M34.4387 16.3079C34.5117 16.1474 34.7397 16.1474 34.8128 16.3079L35.676 18.2069C35.6966 18.2521 35.7328 18.2883 35.778 18.3089L37.6769 19.1722C37.8375 19.2452 37.8375 19.4733 37.6769 19.5463L35.778 20.4096C35.7328 20.4302 35.6966 20.4664 35.676 20.5116L34.8128 22.4106C34.7397 22.5712 34.5117 22.5712 34.4387 22.4106L33.5754 20.5116C33.5548 20.4664 33.5186 20.4302 33.4734 20.4096L31.5745 19.5463C31.414 19.4733 31.414 19.2452 31.5745 19.1722L33.4734 18.3089C33.5186 18.2883 33.5548 18.2521 33.5754 18.2069L34.4387 16.3079Z" fill="#FF5E75"/>
<path fill-rule="evenodd" clip-rule="evenodd" d="M58.0648 4.76929C58.0648 5.83058 57.2045 6.69092 56.1432 6.69092C55.082 6.69092 54.2217 5.83058 54.2217 4.76929C54.2217 3.708 55.082 2.84766 56.1432 2.84766C57.2045 2.84766 58.0648 3.708 58.0648 4.76929ZM56.1432 6.00599C56.8262 6.00599 57.3799 5.4523 57.3799 4.76929C57.3799 4.08628 56.8262 3.53259 56.1432 3.53259C55.4602 3.53259 54.9066 4.08628 54.9066 4.76929C54.9066 5.4523 55.4602 6.00599 56.1432 6.00599Z" fill="#424672"/>
<path d="M23.8224 30.4489C23.8224 31.2685 23.158 31.9329 22.3385 31.9329C21.5189 31.9329 20.8545 31.2685 20.8545 30.4489C20.8545 29.6293 21.5189 28.9648 22.3385 28.9648C23.158 28.9648 23.8224 29.6293 23.8224 30.4489Z" fill="#FFBF8A"/>
<defs>
<linearGradient id="paint0_linear_24356_512938" x1="47.2393" y1="24.3086" x2="79.3946" y2="94.5521" gradientUnits="userSpaceOnUse">
<stop stop-color="#FFD88A"/>
<stop offset="1" stop-color="#FFAD8A"/>
</linearGradient>
<linearGradient id="paint1_linear_24356_512938" x1="-12.3568" y1="94.001" x2="74.4724" y2="38.4669" gradientUnits="userSpaceOnUse">
<stop stop-color="white"/>
<stop offset="1" stop-color="white" stop-opacity="0"/>
</linearGradient>
<linearGradient id="paint2_linear_24356_512938" x1="-5.68741" y1="123.001" x2="70.4919" y2="74.2784" gradientUnits="userSpaceOnUse">
<stop stop-color="white"/>
<stop offset="1" stop-color="white" stop-opacity="0"/>
</linearGradient>
<linearGradient id="paint3_linear_24356_512938" x1="13.4486" y1="10.4044" x2="40.4495" y2="53.3273" gradientUnits="userSpaceOnUse">
<stop stop-color="#8DC5F9"/>
<stop offset="1" stop-color="#B47FF8"/>
</linearGradient>
<clipPath id="clip0_24356_512938">
<rect width="9.26869" height="9.26915" fill="white" transform="translate(69.5156 22.0156)"/>
</clipPath>
</defs>
</svg>
