<svg width="32" height="32" viewBox="0 0 32 32" fill="none" xmlns="http://www.w3.org/2000/svg">
<g clip-path="url(#clip0_26687_658216)">
<path d="M22.8281 1.41406C22.3749 1.45201 21.9337 1.53352 21.5088 1.6543L20.6748 1.8916L21.291 2.5L29.5244 10.6338L30.1396 11.2412L30.3672 10.4072C30.4761 10.0079 30.5484 9.59433 30.584 9.1709L31.4697 9.18066C31.1631 13.2265 27.7462 16.4453 23.625 16.4502L16.9492 16.4434L16.4424 16.4424L16.4434 16.9492L16.4512 23.624C16.4456 27.7469 13.226 31.1631 9.18066 31.4697L9.1709 30.585C9.62423 30.5467 10.0661 30.4654 10.4912 30.3438L11.3223 30.1055L10.707 29.498L2.47363 21.3652L1.85742 20.7559L1.63086 21.5928C1.52285 21.9918 1.45042 22.4048 1.41504 22.8281L0.52832 22.8184C0.833759 18.7613 4.24102 15.5488 8.34961 15.5488H8.37793L15.0508 15.5566H15.5566V15.0508L15.5488 8.37598V8.375C15.5343 4.2561 18.7519 0.835518 22.8184 0.529297L22.8281 1.41406ZM4.02637 17.9521C3.44295 18.4177 2.93462 18.9751 2.52441 19.6025L2.29883 19.9482L2.59277 20.2383L11.8281 29.3623L12.123 29.6533L12.4658 29.4209C13.0858 29.0024 13.6364 28.4876 14.0947 27.8975L14.3701 27.543L14.0508 27.2285L4.69727 17.9883L4.37793 17.6719L4.02637 17.9521ZM8.35156 16.4336C7.4774 16.4336 6.63866 16.598 5.86523 16.8965L5.13574 17.1777L5.69238 17.7275L14.2988 26.2295L14.8545 26.7793L15.1279 26.0469C15.3749 25.3853 15.5243 24.6774 15.5586 23.9414L15.5664 23.624V23.3623L15.5654 23.1514L15.416 23.0039L8.91309 16.5801L8.76562 16.4346L8.55859 16.4336H8.35156ZM16.8652 5.94629C16.5842 6.70318 16.4308 7.52119 16.4336 8.37207V8.37305L16.4346 8.6377V8.84863L16.584 8.99609L23.0869 15.4199L23.2344 15.5654L23.4414 15.5664H23.626C24.5058 15.5653 25.3505 15.3985 26.1289 15.0967L26.8564 14.8145L26.3018 14.2656L17.6943 5.7627L17.1377 5.21289L16.8652 5.94629ZM16.4375 11.3047L16.4414 15.0537V15.5576L16.9463 15.5586L20.7412 15.5625L21.9746 15.5645L21.0967 14.6982L17.2979 10.9443L16.4355 10.0928L16.4375 11.3047ZM19.5303 2.57324C18.9087 2.99079 18.3571 3.50522 17.8984 4.09473L17.6221 4.44824L17.9414 4.76465L27.2959 14.0049L27.6152 14.3203L27.9658 14.041C28.5496 13.5759 29.0587 13.0192 29.4697 12.3936L29.6973 12.0479L29.4023 11.7568L20.167 2.63281L19.873 2.34277L19.5303 2.57324ZM15.5586 16.4414H15.0537L11.2588 16.4365L10.0264 16.4355L10.9033 17.3018L14.7021 21.0557L15.5645 21.9072L15.5635 20.6953L15.5586 16.9463V16.4414Z" stroke="#666666" stroke-width="1.01101"/>
</g>
<defs>
<clipPath id="clip0_26687_658216">
<rect width="32" height="32" fill="white"/>
</clipPath>
</defs>
</svg>
