<svg width="44" height="44" viewBox="0 0 44 44" fill="none" xmlns="http://www.w3.org/2000/svg">
<rect opacity="0.2" width="44" height="44" rx="8" fill="#8AB424"/>
<path d="M33.0002 23.0002C33.2502 23.0002 33.5003 22.7501 33.5003 22.5V19.5C33.5003 18.6499 32.8504 18 32.0003 18H28V32.0002H31.9998C32.8499 32.0002 33.4998 31.3502 33.4998 30.5002V27.5002C33.4996 27.3676 33.4468 27.2405 33.3531 27.1468C33.2593 27.053 33.1323 27.0003 32.9997 27C32.4746 26.9919 31.9738 26.7776 31.6054 26.4034C31.237 26.0292 31.0305 25.5252 31.0305 25.0001C31.0305 24.475 31.237 23.9709 31.6054 23.5968C31.9738 23.2226 32.4746 23.0083 32.9997 23.0002H33.0002Z" fill="#8AB424"/>
<path d="M32.6496 16.5007C32.8997 16.4009 33.0494 16.1009 32.9496 15.8508L31.9493 13.0005C31.6992 12.2004 30.7973 11.8005 30.0494 12.0506L15.8496 16.9505H31.8495C32.0866 16.7531 32.3578 16.6007 32.6496 16.5007Z" fill="#8AB424"/>
<path d="M10.5 19.5V22.5C10.5 22.8 10.7002 23.0002 11.0002 23.0002C11.2654 22.9961 11.5288 23.0447 11.7751 23.1434C12.0213 23.2421 12.2455 23.3887 12.4345 23.5748C12.6235 23.761 12.7736 23.9828 12.8761 24.2275C12.9785 24.4722 13.0313 24.7348 13.0313 25.0001C13.0313 25.2654 12.9785 25.528 12.8761 25.7727C12.7736 26.0173 12.6235 26.2392 12.4345 26.4253C12.2455 26.6114 12.0213 26.7581 11.7751 26.8568C11.5288 26.9554 11.2654 27.0041 11.0002 27C10.7002 27 10.5 27.2002 10.5 27.5002V30.5002C10.5 31.3502 11.1499 32.0002 12 32.0002H27V18H12C11.1518 18 10.5 18.6499 10.5 19.5ZM16.5 21.9998H19.5C19.8 21.9998 20.0002 22.2 20.0002 22.5C20.0002 22.8 19.8 23.0002 19.5 23.0002H16.5C16.2 23.0002 15.9998 22.8 15.9998 22.5C15.9998 22.2 16.2 21.9998 16.5 21.9998ZM16.5 24.4997H22.9997C23.2997 24.4997 23.4998 24.6998 23.4998 24.9998C23.4998 25.2998 23.2997 25.5 22.9997 25.5H16.5C16.2 25.5 15.9998 25.2998 15.9998 24.9998C15.9998 24.6998 16.2 24.4997 16.5 24.4997ZM16.5 26.9995H22.9997C23.2997 26.9995 23.4998 27.1997 23.4998 27.4997C23.4998 27.7997 23.2997 27.9998 22.9997 27.9998H16.5C16.2 27.9998 15.9998 27.7997 15.9998 27.4997C15.9998 27.1997 16.2 27 16.5 27V26.9995Z" fill="#8AB424"/>
</svg>
