<svg width="56" height="56" viewBox="0 0 56 56" fill="none" xmlns="http://www.w3.org/2000/svg">
<path d="M16.3999 11.1134L13.13 7.83672C12.3715 7.07667 11.3625 6.6582 10.2888 6.6582C9.21506 6.6582 8.20607 7.07678 7.44767 7.83672L5.0774 10.2121C3.51717 11.7754 3.51717 14.3193 5.0774 15.8827L8.35417 19.1662C8.67464 19.4873 9.09496 19.6479 9.51551 19.6479C9.93475 19.6479 10.3542 19.4881 10.6744 19.1686C11.3158 18.5286 15.7571 14.0727 16.3976 13.4335C17.0389 12.7936 17.04 11.7549 16.3999 11.1134Z" fill="#105C6E"/>
<path d="M28 0.328125C27.0939 0.328125 26.3594 1.06269 26.3594 1.96875V7.21875C26.3594 8.12481 27.0939 8.85938 28 8.85938C28.9061 8.85938 29.6406 8.12481 29.6406 7.21875V1.96875C29.6406 1.06269 28.9061 0.328125 28 0.328125Z" fill="#26879C"/>
<path d="M32.0469 0H23.9531C23.0471 0 22.3125 0.734562 22.3125 1.64062C22.3125 2.54669 23.0471 3.28125 23.9531 3.28125H32.0469C32.9529 3.28125 33.6875 2.54669 33.6875 1.64062C33.6875 0.734562 32.9529 0 32.0469 0Z" fill="#7303D2"/>
<path d="M28 0H23.9531C23.0471 0 22.3125 0.734562 22.3125 1.64062C22.3125 2.54669 23.0471 3.28125 23.9531 3.28125H28V0Z" fill="#8A00FF"/>
<path d="M45.7892 12.9734C41.0377 8.21211 34.72 5.58984 27.9999 5.58984C21.2798 5.58984 14.9621 8.21211 10.2106 12.9734C5.46 17.7339 2.84375 24.0631 2.84375 30.7949C2.84375 37.5267 5.46 43.8559 10.2106 48.6163C14.9621 53.3776 21.2798 55.9999 27.9999 55.9999C34.72 55.9999 41.0377 53.3776 45.7892 48.6163C50.5398 43.8559 53.156 37.5267 53.156 30.7949C53.156 24.0631 50.5398 17.7339 45.7892 12.9734Z" fill="#7303D2"/>
<path d="M27.9999 5.58984C21.2798 5.58984 14.9621 8.21211 10.2106 12.9734C5.46 17.7339 2.84375 24.0631 2.84375 30.7949C2.84375 37.5267 5.46 43.8559 10.2106 48.6163C14.9621 53.3776 21.2798 55.9999 27.9999 55.9999V5.58984Z" fill="#8A00FF"/>
<path d="M27.9996 11.8711C17.5851 11.8711 9.1123 20.3601 9.1123 30.7946C9.1123 41.2291 17.5851 49.7182 27.9996 49.7182C38.4141 49.7182 46.8869 41.2291 46.8869 30.7946C46.8869 20.3601 38.4141 11.8711 27.9996 11.8711Z" fill="white"/>
<path d="M28 15.9692C28.9061 15.9692 29.6406 15.2346 29.6406 14.3285V11.9433C29.0998 11.8965 28.5528 11.8711 28 11.8711C27.4472 11.8711 26.9002 11.8965 26.3594 11.9433V14.3285C26.3594 15.2346 27.0939 15.9692 28 15.9692Z" fill="#105C6E"/>
<path d="M28 45.6191C27.0939 45.6191 26.3594 46.3537 26.3594 47.2598V49.645C26.9002 49.6918 27.4472 49.7172 28 49.7172C28.5528 49.7172 29.0998 49.6918 29.6406 49.645V47.2598C29.6406 46.3537 28.9061 45.6191 28 45.6191Z" fill="#105C6E"/>
<path d="M46.8153 29.1543H44.4658C43.5598 29.1543 42.8252 29.8889 42.8252 30.7949C42.8252 31.701 43.5598 32.4355 44.4658 32.4355H46.8153C46.8619 31.8947 46.8871 31.3477 46.8871 30.7949C46.8871 30.2421 46.8619 29.6952 46.8153 29.1543Z" fill="#105C6E"/>
<path d="M13.1742 30.7949C13.1742 29.8889 12.4396 29.1543 11.5335 29.1543H9.18405C9.13746 29.6952 9.1123 30.2421 9.1123 30.7949C9.1123 31.3477 9.13746 31.8947 9.18405 32.4355H11.5335C12.4396 32.4355 13.1742 31.701 13.1742 30.7949Z" fill="#105C6E"/>
<path d="M32.046 29.8483H29.7314V23.2129C29.7314 22.3068 28.9969 21.5723 28.0908 21.5723C27.1848 21.5723 26.4502 22.3068 26.4502 23.2129V31.489C26.4502 32.395 27.1848 33.1296 28.0908 33.1296H32.046C32.9521 33.1296 33.6867 32.395 33.6867 31.489C33.6867 30.5829 32.9521 29.8483 32.046 29.8483Z" fill="#105C6E"/>
</svg>
