<svg width="56" height="56" viewBox="0 0 56 56" fill="none" xmlns="http://www.w3.org/2000/svg">
<rect opacity="0.2" width="56" height="56" rx="8" fill="#949494"/>
<path d="M38.8899 26.4473H17.1121C15.3939 26.4473 14.001 27.8402 14.001 29.5584V40.4473C14.001 42.1655 15.3939 43.5584 17.1121 43.5584H38.8899C40.6081 43.5584 42.001 42.1655 42.001 40.4473V29.5584C42.001 27.8402 40.6081 26.4473 38.8899 26.4473Z" stroke="#949494" stroke-width="2" stroke-linecap="round" stroke-linejoin="round"/>
<path d="M20.2227 26.4473V20.225C20.2227 18.1622 21.0421 16.1839 22.5007 14.7253C23.9593 13.2667 25.9376 12.4473 28.0004 12.4473C30.0632 12.4473 32.0415 13.2667 33.5002 14.7253C34.9588 16.1839 35.7782 18.1622 35.7782 20.225V26.4473" stroke="#949494" stroke-width="2" stroke-linecap="round" stroke-linejoin="round"/>
</svg>
