<svg width="683" height="215" viewBox="0 0 683 215" fill="none" xmlns="http://www.w3.org/2000/svg">
<g opacity="0.7">
<path fill-rule="evenodd" clip-rule="evenodd" d="M495.171 97.3901V97.9154C495.465 97.9154 495.977 98.0204 496.27 98.3793V101.71V102.157H496.49V102.16H498.983V101.714V98.3756C499.277 98.0167 499.788 97.9118 500.083 97.9118V97.3937C500.083 97.3938 500.083 97.394 500.083 97.3941L500.377 96.5004L501.55 96.7238L502.136 96.5004V97.1707C502.307 97.0962 502.635 96.9025 502.576 96.7238C502.518 96.5451 503.041 97.0962 503.309 97.3941H505.069L505.509 98.2133C505.754 97.9651 506.272 97.5132 506.389 97.692C506.536 97.9154 508.369 98.5857 509.029 98.5112C509.457 98.4629 510.44 98.0074 511.118 97.6932C511.485 97.5229 511.763 97.3941 511.815 97.3941C511.962 97.3941 510.862 93.5959 507.196 93.8938L507.562 93.149C508.075 93.2235 509.205 93.3278 509.615 93.149H511.228C511.455 93.149 511.233 92.7818 510.934 92.2883C510.459 91.505 509.792 90.4035 510.422 89.9466C510.96 89.8721 511.551 89.3508 509.615 87.8613L505.509 87.34C505.881 87.1278 506.499 86.6067 506.158 86.1466C506.449 86.3152 507.827 86.5904 511.815 86.7442C512.035 86.6201 512.24 86.2824 511.302 85.925L511.815 85.7015L511.082 83.9141L510.348 83.7652C509.982 83.1694 508.809 82.0523 507.049 82.3502L506.756 80.9351C507.464 81.0096 509.557 80.9798 512.255 80.2649L507.855 78.0306L511.595 76.9135C510.129 76.3922 507.049 75.3793 506.462 75.4985V74.9027L505.949 74.9771C505.876 74.7785 505.802 74.3664 506.096 74.3069C506.165 74.2929 506.28 74.2737 506.427 74.2492C507.062 74.1433 508.286 73.9391 508.882 73.6366L508.295 72.8174L507.709 73.1897V72.445L507.269 72.8174L507.489 71.9981C507.44 71.8492 507.093 71.596 506.096 71.7747L507.269 70.7321C507.269 70.9803 507.65 71.2385 509.175 70.2852C508.931 69.7639 507.943 68.7808 505.949 69.0191L505.802 68.4233L507.709 68.2744L504.861 66.9339H504.043C504.018 66.6608 504.043 66.1146 504.336 66.1146H505.289C505.9 65.643 507.196 64.6996 507.489 64.6996C507.608 64.6996 507.58 64.6601 507.49 64.5348C507.303 64.2753 506.853 63.6481 506.902 62.2419C506.853 61.944 506.022 61.3333 503.089 61.2738L502.87 60.529L504.043 60.8269L506.096 59.1885C505.802 59.114 505.04 58.831 504.336 58.2948C504.368 58.0962 504.518 57.6841 504.861 57.6245C505.289 57.55 505.143 55.5392 503.089 55.7626V55.0179H502.576V54.2731H501.99L502.283 53.6773L501.476 53.9007V53.0815L497.737 48.6875C497.729 48.7083 497.721 48.7294 497.714 48.7508C497.697 48.7022 497.68 48.655 497.663 48.6094L493.777 53.0779V53.8971L492.97 53.6737L493.264 54.2695H492.677V55.0142H492.164V55.759C490.111 55.5355 489.964 57.5464 490.393 57.6208C490.736 57.6804 490.885 58.0925 490.917 58.2911C490.213 58.8273 489.451 59.1103 489.158 59.1848L491.211 60.8233L492.384 60.5254L492.164 61.2701C489.231 61.3297 488.4 61.9404 488.351 62.2383C488.4 63.6444 487.95 64.2717 487.763 64.5311C487.673 64.6565 487.645 64.696 487.764 64.696C488.058 64.696 489.353 65.6393 489.964 66.111H490.917C491.211 66.111 491.235 66.6571 491.211 66.9302H490.393L487.544 68.2707L489.451 68.4197L489.304 69.0155C487.31 68.7772 486.322 69.7602 486.078 70.2816C487.603 71.2348 487.984 70.9767 487.984 70.7284L489.158 71.7711C488.16 71.5923 487.813 71.8455 487.764 71.9945L487.984 72.8137L487.544 72.4413V73.1861L486.958 72.8137L486.371 73.6329C486.967 73.9354 488.192 74.1396 488.827 74.2456C488.973 74.27 489.089 74.2892 489.158 74.3032C489.451 74.3628 489.377 74.7749 489.304 74.9735L488.791 74.899V75.4948C488.204 75.3757 485.125 76.3885 483.658 76.9098L487.398 78.027L482.998 80.2612C485.697 80.9762 487.789 81.006 488.498 80.9315L488.204 82.3465C486.445 82.0486 485.271 83.1657 484.905 83.7615L484.172 83.9105L483.438 85.6979L483.952 85.9213C483.013 86.2788 483.218 86.6164 483.438 86.7405C487.426 86.5867 488.804 86.3116 489.095 86.1429C488.755 86.6031 489.373 87.1242 489.744 87.3363L485.638 87.8576C483.702 89.3471 484.294 89.8685 484.831 89.943C485.461 90.3998 484.794 91.5014 484.32 92.2847C484.021 92.7782 483.798 93.1454 484.025 93.1454H485.638C486.049 93.3241 487.178 93.2198 487.691 93.1454L488.058 93.8901C484.392 93.5922 483.292 97.3904 483.438 97.3904C483.49 97.3904 483.768 97.5193 484.135 97.6896C484.814 98.0038 485.797 98.4593 486.225 98.5076C486.885 98.582 488.718 97.9118 488.864 97.6883C488.982 97.5096 489.5 97.9614 489.744 98.2097L490.184 97.3904H491.944C492.213 97.0925 492.736 96.5414 492.677 96.7202C492.618 96.8989 492.946 97.0925 493.117 97.167V96.4967L493.704 96.7202L494.877 96.4967L495.17 97.3904C495.17 97.3903 495.17 97.3902 495.171 97.3901Z" fill="#B97545"/>
<path fill-rule="evenodd" clip-rule="evenodd" d="M529.743 81.7807V82.306C530.038 82.306 530.549 82.411 530.842 82.7699V86.1006V86.5475H531.063V86.5511H533.556V86.1043V82.7663C533.849 82.4074 534.36 82.3024 534.655 82.3024V81.7843C534.655 81.7845 534.655 81.7846 534.655 81.7847L534.949 80.891L536.122 81.1144L536.709 80.891V81.5613C536.88 81.4868 537.207 81.2932 537.148 81.1144C537.09 80.9357 537.613 81.4868 537.882 81.7847H539.641L540.081 82.6039C540.326 82.3557 540.844 81.9039 540.961 82.0826C541.108 82.306 542.941 82.9763 543.601 82.9018C544.029 82.8535 545.012 82.3981 545.69 82.0838C546.058 81.9135 546.336 81.7847 546.387 81.7847C546.534 81.7847 545.434 77.9865 541.768 78.2844L542.134 77.5396C542.648 77.6141 543.777 77.7184 544.188 77.5396H545.801C546.027 77.5396 545.805 77.1725 545.506 76.6789C545.032 75.8957 544.364 74.7941 544.994 74.3372C545.532 74.2627 546.123 73.7414 544.188 72.2519L540.081 71.7306C540.453 71.5184 541.071 70.9973 540.73 70.5372C541.022 70.7059 542.4 70.981 546.387 71.1348C546.607 71.0107 546.812 70.6731 545.874 70.3156L546.387 70.0922L545.654 68.3048L544.921 68.1558C544.554 67.56 543.381 66.4429 541.621 66.7408L541.328 65.3258C542.037 65.4002 544.129 65.3704 546.827 64.6555L542.428 62.4212L546.167 61.3041C544.701 60.7828 541.621 59.7699 541.035 59.8891V59.2933L540.521 59.3678C540.448 59.1692 540.375 58.7571 540.668 58.6975C540.737 58.6835 540.852 58.6643 540.999 58.6398C541.634 58.5339 542.859 58.3297 543.454 58.0272L542.868 57.208L542.281 57.5804V56.8356L541.841 57.208L542.061 56.3888C542.012 56.2398 541.665 55.9866 540.668 56.1653L541.841 55.1227C541.841 55.3709 542.222 55.6291 543.748 54.6758C543.503 54.1545 542.516 53.1715 540.521 53.4098L540.375 52.814L542.281 52.665L539.433 51.3245H538.615C538.591 51.0514 538.615 50.5053 538.908 50.5053H539.861C540.472 50.0336 541.768 49.0902 542.061 49.0902C542.181 49.0902 542.152 49.0507 542.062 48.9254C541.876 48.666 541.425 48.0387 541.475 46.6326C541.426 46.3347 540.595 45.724 537.662 45.6644L537.442 44.9196L538.615 45.2175L540.668 43.5791C540.375 43.5046 539.612 43.2216 538.908 42.6854C538.94 42.4868 539.09 42.0747 539.433 42.0151C539.861 41.9406 539.715 39.9298 537.662 40.1532V39.4085H537.148V38.6637H536.562L536.855 38.0679L536.049 38.2914V37.4721L532.309 33.0781C532.301 33.0989 532.294 33.12 532.286 33.1414C532.269 33.0928 532.253 33.0456 532.235 33L528.349 37.4685V38.2877L527.543 38.0643L527.836 38.6601H527.249V39.4048H526.736V40.1496C524.683 39.9262 524.536 41.937 524.965 42.0115C525.308 42.071 525.458 42.4831 525.49 42.6817C524.786 43.218 524.023 43.501 523.73 43.5754L525.783 45.2139L526.956 44.916L526.736 45.6607C523.803 45.7203 522.972 46.331 522.923 46.6289C522.973 48.035 522.522 48.6623 522.336 48.9218C522.246 49.0471 522.217 49.0866 522.337 49.0866C522.63 49.0866 523.925 50.0299 524.536 50.5016H525.49C525.783 50.5016 525.807 51.0478 525.783 51.3208H524.965L522.117 52.6614L524.023 52.8103L523.876 53.4061C521.882 53.1678 520.895 54.1509 520.65 54.6722C522.175 55.6255 522.557 55.3673 522.557 55.119L523.73 56.1617C522.733 55.983 522.386 56.2362 522.337 56.3851L522.557 57.2043L522.117 56.832V57.5767L521.53 57.2043L520.944 58.0236C521.539 58.3261 522.764 58.5303 523.399 58.6362C523.546 58.6606 523.661 58.6799 523.73 58.6938C524.023 58.7534 523.95 59.1655 523.876 59.3641L523.363 59.2896V59.8854C522.777 59.7663 519.697 60.7791 518.231 61.3005L521.97 62.4176L517.571 64.6518C520.269 65.3668 522.361 65.3966 523.07 65.3221L522.777 66.7371C521.017 66.4392 519.844 67.5564 519.477 68.1522L518.744 68.3011L518.011 70.0885L518.524 70.3119C517.585 70.6694 517.791 71.007 518.011 71.1311C521.998 70.9773 523.376 70.7022 523.667 70.5335C523.327 70.9937 523.945 71.5148 524.316 71.7269L520.21 72.2483C518.275 73.7378 518.866 74.2591 519.404 74.3336C520.033 74.7905 519.366 75.892 518.892 76.6753C518.593 77.1688 518.37 77.536 518.597 77.536H520.21C520.621 77.7147 521.75 77.6105 522.263 77.536L522.63 78.2807C518.964 77.9828 517.864 81.7811 518.011 81.7811C518.062 81.7811 518.34 81.9099 518.708 82.0802C519.386 82.3944 520.369 82.8499 520.797 82.8982C521.457 82.9727 523.29 82.3024 523.436 82.079C523.554 81.9002 524.072 82.352 524.316 82.6003L524.756 81.7811H526.516C526.785 81.4832 527.308 80.932 527.249 81.1108C527.191 81.2895 527.518 81.4832 527.689 81.5576V80.8874L528.276 81.1108L529.449 80.8874L529.742 81.7811C529.742 81.7809 529.743 81.7808 529.743 81.7807Z" fill="#E39E67"/>
<path fill-rule="evenodd" clip-rule="evenodd" d="M562.686 100.723V101.099C562.896 101.099 563.26 101.174 563.467 101.43V103.788V104.105H563.622V104.107H565.388V103.79V101.428C565.595 101.172 565.959 101.097 566.169 101.097V100.725L566.375 100.097L567.206 100.255L567.622 100.097V100.571C567.743 100.519 567.975 100.382 567.934 100.255C567.892 100.128 568.263 100.519 568.453 100.73H569.7L570.012 101.31C570.185 101.134 570.552 100.814 570.635 100.941C570.739 101.099 572.038 101.574 572.506 101.521C572.809 101.487 573.505 101.164 573.986 100.942C574.246 100.821 574.443 100.73 574.48 100.73C574.584 100.73 573.804 98.0386 571.207 98.2496L571.467 97.7219C571.83 97.7747 572.63 97.8486 572.921 97.7219H574.064C574.225 97.7219 574.067 97.4618 573.855 97.1121C573.519 96.5571 573.046 95.7766 573.493 95.4529C573.874 95.4001 574.293 95.0307 572.921 93.9753L570.012 93.6059C570.275 93.4556 570.713 93.0864 570.472 92.7604C570.678 92.8799 571.654 93.0748 574.48 93.1838C574.636 93.0958 574.781 92.8566 574.116 92.6033L574.48 92.445L573.96 91.1786L573.441 91.073C573.181 90.6509 572.35 89.8593 571.103 90.0704L570.895 89.0678C571.397 89.1206 572.88 89.0995 574.792 88.5929L571.674 87.0098L574.324 86.2183C573.285 85.8489 571.103 85.1312 570.687 85.2157V84.7935L570.324 84.8463C570.272 84.7055 570.22 84.4136 570.427 84.3713C570.476 84.3614 570.558 84.3478 570.662 84.3305C571.112 84.2554 571.98 84.1108 572.402 83.8964L571.986 83.316L571.57 83.5798V83.0521L571.259 83.316L571.415 82.7355C571.38 82.63 571.134 82.4505 570.427 82.5772L571.259 81.8384C571.259 82.0143 571.529 82.1973 572.609 81.5218C572.436 81.1524 571.737 80.4559 570.324 80.6247L570.22 80.2026L571.57 80.097L569.552 79.1472H568.973C568.955 78.9537 568.973 78.5667 569.181 78.5667H569.856C570.289 78.2325 571.207 77.5641 571.415 77.5641C571.499 77.5641 571.479 77.5361 571.415 77.4473C571.283 77.2635 570.964 76.819 570.999 75.8227C570.964 75.6117 570.375 75.179 568.297 75.1367L568.142 74.609L568.973 74.8201L570.427 73.6592C570.22 73.6064 569.679 73.4059 569.181 73.026C569.203 72.8853 569.309 72.5933 569.552 72.551C569.856 72.4983 569.752 71.0735 568.297 71.2318V70.7041H567.934V70.1764H567.518L567.726 69.7543L567.154 69.9126V69.3321L564.505 66.2188C564.5 66.2327 564.494 66.2468 564.489 66.2611C564.478 66.2278 564.466 66.1954 564.454 66.1641L561.701 69.3302V69.9107L561.129 69.7524L561.337 70.1745H560.922V70.7022H560.558V71.2299C559.103 71.0716 558.999 72.4964 559.303 72.5491C559.546 72.5913 559.652 72.8833 559.675 73.0241C559.176 73.404 558.636 73.6045 558.428 73.6573L559.883 74.8182L560.714 74.6071L560.558 75.1348C558.48 75.177 557.891 75.6097 557.856 75.8208C557.891 76.8171 557.572 77.2616 557.44 77.4454C557.376 77.5342 557.356 77.5622 557.441 77.5622C557.649 77.5622 558.566 78.2306 558.999 78.5648H559.675C559.883 78.5648 559.9 78.9518 559.883 79.1453H559.303L557.285 80.0951L558.636 80.2007L558.532 80.6228C557.119 80.454 556.419 81.1505 556.246 81.5199C557.326 82.1953 557.597 82.0124 557.597 81.8365L558.428 82.5753C557.721 82.4486 557.475 82.628 557.441 82.7336L557.597 83.314L557.285 83.0502V83.5779L556.869 83.314L556.454 83.8945C556.876 84.1088 557.743 84.2535 558.193 84.3286C558.297 84.3459 558.379 84.3595 558.428 84.3694C558.636 84.4116 558.584 84.7036 558.532 84.8443L558.168 84.7916V85.2137C557.752 85.1293 555.57 85.847 554.531 86.2163L557.181 87.0079L554.064 88.591C555.976 89.0975 557.458 89.1187 557.96 89.0659L557.752 90.0685C556.506 89.8574 555.674 90.649 555.415 91.0711L554.895 91.1766L554.375 92.4431L554.739 92.6014C554.074 92.8547 554.22 93.0939 554.375 93.1819C557.201 93.0729 558.177 92.878 558.384 92.7584C558.142 93.0845 558.58 93.4537 558.843 93.604L555.934 93.9734C554.563 95.0288 554.982 95.3982 555.363 95.4509C555.809 95.7747 555.336 96.5552 555 97.1102C554.788 97.4599 554.63 97.72 554.791 97.72H555.934C556.225 97.8467 557.025 97.7728 557.389 97.72L557.649 98.2477C555.051 98.0366 554.272 100.728 554.375 100.728C554.412 100.728 554.609 100.819 554.869 100.94C555.35 101.162 556.046 101.485 556.35 101.519C556.817 101.572 558.116 101.097 558.22 100.939C558.303 100.812 558.67 101.132 558.843 101.308L559.155 100.728H560.402C560.593 100.517 560.963 100.126 560.922 100.253C560.88 100.38 561.112 100.517 561.233 100.57V100.095L561.649 100.253L562.48 100.095L562.686 100.723Z" fill="#642E15"/>
</g>
<path d="M602.684 212.526C602.684 205.901 601.713 187.518 597.828 166.981C592.972 141.31 605.112 128.889 668.241 93.2813C731.37 57.6735 553.292 27.7994 465.882 5.44111C378.473 -16.9172 449.696 75.8285 427.034 106.468C408.904 130.979 268.815 103.281 268.815 103.281C235.71 96.3907 161.201 74.8928 128.001 44.0254" stroke="#949494" stroke-width="3" stroke-linecap="round" stroke-dasharray="10 10"/>
<path fill-rule="evenodd" clip-rule="evenodd" d="M154.765 184.244V184.803C155.079 184.803 155.624 184.915 155.939 185.296V188.873V189.351H158.609V189.35H158.848V188.871V185.298C159.163 184.916 159.708 184.805 160.022 184.805V184.242C160.024 184.243 160.025 184.244 160.026 184.245L160.34 183.287L161.597 183.527L162.225 183.287V184.005C162.408 183.926 162.759 183.718 162.696 183.527C162.633 183.335 163.194 183.926 163.482 184.245H165.366L165.838 185.122C166.099 184.856 166.654 184.372 166.78 184.564C166.937 184.803 168.9 185.521 169.607 185.441C170.065 185.389 171.118 184.902 171.845 184.565C172.238 184.383 172.536 184.245 172.591 184.245C172.748 184.245 171.57 180.177 167.644 180.496L168.036 179.698C168.586 179.778 169.796 179.889 170.235 179.698H171.963C172.206 179.698 171.968 179.305 171.648 178.776C171.139 177.937 170.425 176.757 171.099 176.268C171.675 176.188 172.309 175.63 170.235 174.035L165.838 173.476C166.235 173.249 166.897 172.691 166.533 172.198C166.845 172.379 168.32 172.673 172.591 172.838C172.827 172.705 173.047 172.344 172.042 171.961L172.591 171.721L171.806 169.807L171.021 169.648C170.628 169.009 169.372 167.813 167.487 168.132L167.173 166.616C167.932 166.696 170.173 166.664 173.062 165.899L168.351 163.506L172.356 162.309C170.785 161.751 167.487 160.666 166.858 160.794V160.156L166.309 160.235C166.23 160.023 166.152 159.581 166.466 159.517C166.54 159.502 166.663 159.482 166.82 159.456C167.5 159.342 168.812 159.123 169.45 158.799L168.822 157.922L168.194 158.321V157.523L167.722 157.922L167.958 157.045C167.906 156.885 167.534 156.614 166.466 156.805L167.722 155.689C167.722 155.955 168.131 156.231 169.764 155.21C169.502 154.652 168.445 153.599 166.309 153.854L166.152 153.216L168.194 153.056L165.143 151.621H164.267C164.241 151.328 164.267 150.743 164.581 150.743H165.602C166.256 150.238 167.644 149.228 167.958 149.228C168.086 149.228 168.055 149.185 167.959 149.051C167.759 148.773 167.277 148.101 167.33 146.595C167.277 146.276 166.387 145.622 163.246 145.558L163.01 144.761L164.267 145.08L166.466 143.325C166.152 143.245 165.335 142.942 164.581 142.368C164.615 142.155 164.776 141.714 165.143 141.65C165.602 141.57 165.445 139.417 163.246 139.656V138.858H162.696V138.061H162.068L162.382 137.422L161.518 137.662V136.784L157.513 132.078C157.504 132.103 157.495 132.128 157.486 132.153C157.468 132.101 157.45 132.049 157.431 132L153.269 136.786V137.663L152.405 137.424L152.719 138.062H152.091V138.86H151.541V139.657C149.342 139.418 149.185 141.572 149.644 141.652C150.011 141.715 150.172 142.157 150.206 142.369C149.452 142.944 148.635 143.247 148.321 143.327L150.52 145.082L151.777 144.762L151.541 145.56C148.4 145.624 147.51 146.278 147.457 146.597C147.51 148.103 147.028 148.775 146.828 149.053C146.732 149.187 146.701 149.229 146.829 149.229C147.143 149.229 148.531 150.24 149.185 150.745H150.206C150.52 150.745 150.546 151.33 150.52 151.622H149.644L146.593 153.058L148.635 153.218L148.478 153.856C146.342 153.6 145.285 154.653 145.023 155.212C146.656 156.233 147.065 155.956 147.065 155.69L148.321 156.807C147.253 156.616 146.881 156.887 146.829 157.046L147.065 157.924L146.593 157.525V158.323L145.965 157.924L145.337 158.801C145.975 159.125 147.287 159.344 147.967 159.457C148.124 159.483 148.247 159.504 148.321 159.519C148.635 159.583 148.557 160.024 148.478 160.237L147.929 160.157V160.795C147.3 160.668 144.002 161.752 142.431 162.311L146.436 163.507L141.725 165.9C144.614 166.666 146.855 166.698 147.614 166.618L147.3 168.134C145.416 167.815 144.159 169.011 143.766 169.649L142.981 169.809L142.196 171.723L142.745 171.962C141.74 172.345 141.96 172.707 142.196 172.84C146.467 172.675 147.942 172.38 148.254 172.2C147.89 172.693 148.552 173.251 148.949 173.478L144.552 174.036C142.478 175.632 143.112 176.19 143.688 176.27C144.362 176.759 143.648 177.939 143.139 178.778C142.819 179.306 142.581 179.7 142.824 179.7H144.552C144.991 179.891 146.201 179.779 146.751 179.7L147.143 180.497C143.217 180.178 142.039 184.246 142.196 184.246C142.251 184.246 142.549 184.384 142.942 184.567C143.669 184.903 144.722 185.391 145.18 185.443C145.887 185.522 147.85 184.805 148.007 184.565C148.133 184.374 148.688 184.858 148.949 185.124L149.421 184.246H151.305C151.593 183.927 152.154 183.337 152.091 183.528C152.028 183.72 152.379 183.927 152.562 184.007V183.289L153.19 183.528L154.447 183.289L154.761 184.246C154.762 184.245 154.763 184.244 154.765 184.244Z" fill="#E39E67"/>
<path fill-rule="evenodd" clip-rule="evenodd" d="M13.0341 207.941V208.498C13.3501 208.498 13.8983 208.611 14.2122 208.996V212.568V213.047H16.8823V213.045H17.1178V212.566V208.998C17.4317 208.613 17.9799 208.5 18.2958 208.5V207.94L18.6099 206.983L19.8664 207.222L20.4946 206.983V207.701C20.6779 207.621 21.0287 207.413 20.9658 207.222C20.903 207.031 21.4632 207.621 21.7512 207.94H23.6359L24.1071 208.817C24.3689 208.551 24.9238 208.068 25.0495 208.259C25.2066 208.498 27.1698 209.216 27.8766 209.136C28.335 209.085 29.3878 208.597 30.1142 208.26C30.5079 208.078 30.8056 207.94 30.8608 207.94C31.0179 207.94 29.8399 203.872 25.9133 204.191L26.306 203.393C26.8557 203.473 28.0651 203.585 28.5049 203.393H30.2326C30.4754 203.393 30.2372 203 29.917 202.471C29.4089 201.633 28.6943 200.453 29.3687 199.963C29.9446 199.884 30.5781 199.325 28.5049 197.73L24.1071 197.172C24.5048 196.944 25.167 196.386 24.8023 195.893C25.1142 196.074 26.59 196.369 30.8608 196.533C31.0964 196.401 31.3163 196.039 30.3111 195.656L30.8608 195.417L30.0755 193.502L29.2902 193.343C28.8975 192.705 27.641 191.508 25.7563 191.827L25.4421 190.312C26.2013 190.392 28.4421 190.36 31.332 189.594L26.6201 187.201L30.6252 186.004C29.0546 185.446 25.7563 184.361 25.128 184.489V183.851L24.5783 183.931C24.4998 183.718 24.4212 183.277 24.7354 183.213C24.809 183.198 24.9325 183.177 25.0896 183.151C25.7699 183.038 27.0816 182.819 27.7196 182.495L27.0913 181.617L26.4631 182.016V181.219L25.9919 181.617L26.2275 180.74C26.1751 180.58 25.8034 180.309 24.7354 180.501L25.9919 179.384C25.9919 179.65 26.4002 179.926 28.0337 178.905C27.7719 178.347 26.7144 177.294 24.5783 177.549L24.4212 176.911L26.4631 176.752L23.4124 175.316H22.5365C22.5103 175.023 22.5365 174.439 22.8506 174.439H23.8715C24.5259 173.933 25.9133 172.923 26.2275 172.923C26.3554 172.923 26.325 172.881 26.2285 172.746C26.0289 172.469 25.5463 171.797 25.5992 170.291C25.5469 169.972 24.6568 169.318 21.5156 169.254L21.28 168.456L22.5365 168.775L24.7354 167.02C24.4212 166.941 23.6045 166.637 22.8506 166.063C22.8849 165.85 23.0452 165.409 23.4124 165.345C23.8715 165.266 23.7144 163.112 21.5156 163.351V162.553H20.9658V161.756H20.3376L20.6517 161.118L19.7879 161.357V160.48L15.7827 155.773C15.7741 155.796 15.7656 155.819 15.7571 155.843C15.7399 155.792 15.7223 155.743 15.7043 155.695L11.5421 160.481V161.359L10.6783 161.119L10.9924 161.757H10.3641V162.555H9.81441V163.353C7.61553 163.113 7.45846 165.267 7.91754 165.347C8.2848 165.411 8.44512 165.852 8.47938 166.065C7.72547 166.639 6.90874 166.942 6.59461 167.022L8.7935 168.777L10.05 168.458L9.81441 169.255C6.67315 169.319 5.78312 169.973 5.73076 170.292C5.78372 171.798 5.30107 172.47 5.10144 172.748C5.00501 172.882 4.97462 172.925 5.10251 172.925C5.41664 172.925 6.80403 173.935 7.45846 174.44H8.47938C8.7935 174.44 8.81968 175.025 8.7935 175.318H7.91754L4.86691 176.753L6.90874 176.913L6.75168 177.551C4.61561 177.296 3.55805 178.349 3.29628 178.907C4.92974 179.928 5.3381 179.651 5.3381 179.386L6.59461 180.502C5.52658 180.311 5.15486 180.582 5.10251 180.742L5.3381 181.619L4.86691 181.22V182.018L4.23866 181.619L3.6104 182.496C4.24836 182.82 5.56004 183.039 6.24034 183.153C6.39748 183.179 6.52093 183.199 6.59461 183.214C6.90874 183.278 6.83021 183.72 6.75168 183.932L6.20195 183.852V184.491C5.5737 184.363 2.27537 185.448 0.704729 186.006L4.70985 187.203L-0.00205612 189.596C2.88791 190.361 5.12869 190.393 5.88783 190.313L5.5737 191.829C3.68894 191.51 2.43243 192.706 2.03977 193.345L1.25445 193.504L0.469135 195.418L1.01886 195.658C0.0136509 196.041 0.23354 196.402 0.469135 196.535C4.73997 196.37 6.21575 196.076 6.52771 195.895C6.16301 196.388 6.82513 196.946 7.22287 197.173L2.82509 197.732C0.751848 199.327 1.38534 199.885 1.96124 199.965C2.63572 200.454 1.92109 201.634 1.41293 202.473C1.09276 203.002 0.854553 203.395 1.09739 203.395H2.82509C3.26487 203.586 4.47425 203.475 5.02398 203.395L5.41664 204.193C1.49005 203.874 0.312071 207.942 0.469135 207.942C0.524342 207.942 0.822113 208.08 1.2158 208.262C1.94215 208.598 2.99499 209.086 3.45334 209.138C4.16013 209.218 6.12342 208.5 6.28049 208.261C6.40614 208.069 6.96109 208.553 7.22287 208.819L7.69406 207.942H9.57882C9.86677 207.623 10.427 207.032 10.3641 207.224C10.3013 207.415 10.6521 207.623 10.8353 207.702V206.984L11.4636 207.224L12.7201 206.984L13.0341 207.941Z" fill="#B97545"/>
<path d="M41.9123 167.825C40.7444 168.575 39.419 169.432 38.2178 170.215V191.242H75.4602V167.825H41.9123Z" fill="#EBB88D"/>
<path d="M41.3584 168.602L58.2276 156.689L74.2073 168.508L41.3584 168.602Z" fill="#EBB88D"/>
<path d="M75.4619 167.825L84.5667 166V189.263L75.4619 191.242V167.825Z" fill="#E39E67"/>
<path d="M37.36 171.578L58.2264 157.248L76.427 170.925L86.3428 167.297L69.9153 153.06L57.1885 156.594L36.3252 171.206L37.36 171.578Z" fill="#B97545"/>
<rect x="56.3135" y="176.383" width="9.99447" height="13.326" fill="#B97545"/>
<path d="M70.5205 187.933C69.4278 188.636 68.1868 189.44 67.0654 190.171V209.852H101.919V187.933H70.5205Z" fill="#EBB88D"/>
<path d="M69.9971 188.664L85.7873 177.517L100.743 188.578L69.9971 188.664Z" fill="#EBB88D"/>
<path d="M101.919 187.933L110.441 186.226V207.999L101.919 209.852V187.933Z" fill="#E39E67"/>
<path d="M66.2569 191.453L85.7866 178.042L102.822 190.843L112.1 187.446L96.7279 174.121L84.8158 177.43L65.2861 191.106L66.2569 191.453Z" fill="#B97545"/>
<rect x="91.6123" y="197.812" width="7.89751" height="10.53" fill="#B97545"/>
<path d="M98.6583 156.832C97.7377 157.425 96.688 158.099 95.7412 158.718V175.336H125.167V156.832H98.6583Z" fill="#EBB88D"/>
<path d="M98.2158 157.445L111.548 148.032L124.175 157.371L98.2158 157.445Z" fill="#EBB88D"/>
<path d="M125.167 156.832L132.362 155.388V173.77L125.167 175.336V156.832Z" fill="#E39E67"/>
<path d="M95.0585 159.797L111.549 148.473L125.931 159.283L133.766 156.414L120.786 145.164L110.729 147.959L94.2432 159.503L95.0585 159.797Z" fill="#B97545"/>
<rect x="107.405" y="163.594" width="7.89751" height="10.53" fill="#B97545"/>
</svg>
