<svg width="38" height="38" viewBox="0 0 38 38" fill="none" xmlns="http://www.w3.org/2000/svg">
<g clip-path="url(#clip0_26793_443356)">
<path d="M32.2055 12.0106C32.496 11.2976 32.6428 10.5436 32.6428 9.76217C32.6428 9.60372 32.6366 9.44359 32.6242 9.28646C32.6011 8.99392 32.3451 8.77568 32.0528 8.7985C31.9193 8.80901 31.8013 8.86799 31.7145 8.95681C31.6112 9.06264 31.5523 9.21083 31.5648 9.36987C31.575 9.49945 31.5802 9.63143 31.5802 9.76217C31.5802 10.5573 31.3954 11.3176 31.031 12.0221C30.9629 12.1536 30.9529 12.3075 31.0032 12.4468C31.0535 12.5861 31.1597 12.698 31.2961 12.7556C33.3708 13.6326 34.7115 15.6546 34.7115 17.9068C34.7115 20.9011 32.3684 23.3522 29.3773 23.4871C29.1474 23.4975 28.9503 23.6547 28.8892 23.8765C28.4932 25.3107 26.9025 26.3517 25.1068 26.3517C24.2512 26.3517 23.4351 26.1239 22.7629 25.7035L24.5183 22.9334C24.6413 22.7393 24.7045 22.5241 24.711 22.3097C24.7219 21.9524 24.5755 21.5975 24.2866 21.3461C23.7978 20.9209 23.0584 20.949 22.6032 21.4098L21.286 22.7434L21.7155 19.562C21.7608 19.2257 21.6638 18.882 21.4492 18.6191C21.2614 18.3891 20.9951 18.2349 20.7045 18.1846C20.6631 18.1775 20.6211 18.1724 20.5788 18.1695L20.1042 18.1374C19.8681 18.1214 19.6423 18.1728 19.4466 18.276C19.1204 18.4479 18.8775 18.7639 18.8092 19.152L18.3937 21.5127L17.9782 23.8733L15.4128 20.7184C15.3277 20.6138 15.2274 20.5261 15.1171 20.4566L15.1151 20.4552C15.1032 20.4477 15.0908 20.4413 15.0787 20.4342C14.9208 20.3426 14.7448 20.2861 14.5637 20.27C14.558 20.2695 14.5521 20.2696 14.5463 20.2692C14.5196 20.2672 14.4929 20.2655 14.4661 20.2652C14.3026 20.2636 14.1375 20.2945 13.9812 20.3602L13.4854 20.5686C13.1562 20.707 12.9037 20.981 12.7926 21.3203C12.6815 21.6598 12.7231 22.03 12.9068 22.3364L15.0067 25.8364C14.3803 26.1709 13.647 26.3517 12.8952 26.3517C11.0995 26.3517 9.50878 25.3108 9.11284 23.8766C9.05159 23.6548 8.8545 23.4976 8.62466 23.4873C5.63355 23.3524 3.29052 20.9012 3.29052 17.9069C3.29052 15.6546 4.63116 13.6326 6.70593 12.7557C6.84229 12.6981 6.94846 12.5862 6.99877 12.4469C7.04908 12.3076 7.03902 12.1537 6.97099 12.0222C6.60655 11.3177 6.42178 10.5573 6.42178 9.76224C6.42178 7.045 8.63247 4.83431 11.3497 4.83431C12.1071 4.83431 12.8342 5.00202 13.5107 5.33277C13.6524 5.40211 13.8176 5.40481 13.9617 5.34021C14.1055 5.2756 14.2134 5.15041 14.2558 4.99845C14.8477 2.87898 16.7991 1.3987 19.0011 1.3987C21.2032 1.3987 23.1545 2.87898 23.7465 4.99845C23.789 5.15041 23.8968 5.27568 24.0406 5.34021C24.1846 5.40488 24.3499 5.40219 24.4916 5.33277C25.1681 5.00202 25.8952 4.83431 26.6526 4.83431C28.469 4.83431 30.1329 5.82882 30.9948 7.42985C31.0793 7.58676 31.2313 7.68403 31.3956 7.70506C31.5018 7.71866 31.6131 7.70039 31.7145 7.64576C31.9729 7.50671 32.0696 7.18442 31.9304 6.92607C30.8828 4.98036 28.8605 3.7717 26.6526 3.7717C25.9352 3.7717 25.24 3.89558 24.5785 4.14073C23.6887 1.87324 21.475 0.335938 19.0008 0.335938C16.5266 0.335938 14.3128 1.87324 13.4234 4.14066C12.762 3.89551 12.0668 3.77162 11.3493 3.77162C8.04607 3.77162 5.35873 6.45897 5.35873 9.76217C5.35873 10.5436 5.50558 11.2976 5.79608 12.0106C3.61135 13.1519 2.22754 15.4104 2.22754 17.9068C2.22754 21.3469 4.82563 24.1847 8.20809 24.522C8.87309 26.2425 10.7419 27.4143 12.8948 27.4143C13.8386 27.4143 14.7629 27.1799 15.5531 26.7477L15.8164 27.1865C16.1756 27.7853 16.3243 28.4945 16.235 29.1836C16.1577 29.7794 16.0625 30.481 15.9419 31.1677C15.8911 31.4568 16.0843 31.7322 16.3732 31.7829C16.6626 31.8337 16.9377 31.6405 16.9884 31.3516C17.1127 30.644 17.21 29.9277 17.2888 29.3201C17.4087 28.3947 17.2095 27.4428 16.7277 26.6397L13.8178 21.7896C13.7834 21.7322 13.7932 21.678 13.8022 21.6507C13.8111 21.6234 13.8353 21.5739 13.8968 21.548L14.3927 21.3397C14.4609 21.3109 14.5414 21.331 14.5882 21.3886L17.4199 24.8711C17.4274 24.8803 17.4353 24.8889 17.4431 24.8977C17.5484 25.0173 17.6792 25.1032 17.8231 25.1504C17.9759 25.2006 18.1429 25.2072 18.3081 25.1654L18.3136 25.1641C18.4741 25.1224 18.6138 25.0392 18.7224 24.9265C18.7266 24.9221 18.7312 24.9179 18.7354 24.9134C18.7392 24.9093 18.7427 24.9048 18.7464 24.9006C18.8505 24.7831 18.9227 24.637 18.9515 24.4732L19.8556 19.3363C19.8705 19.2514 19.9485 19.1921 20.0325 19.1977L20.5071 19.2297C20.5703 19.234 20.6087 19.2701 20.6259 19.2912C20.6432 19.3123 20.6708 19.357 20.6623 19.42L20.1557 23.1729C20.1494 23.2194 20.147 23.2656 20.1481 23.3113C20.156 23.6314 20.34 23.9254 20.6343 24.0699C20.6553 24.0803 20.6765 24.0897 20.6981 24.0982C20.8055 24.1407 20.9182 24.1607 21.0298 24.1592C21.2531 24.1561 21.4722 24.0671 21.6367 23.9005L23.3592 22.1566C23.3889 22.1265 23.4276 22.1102 23.4671 22.1075L23.4723 22.1069L23.4749 22.107C23.5051 22.1064 23.5355 22.1135 23.5625 22.1291C23.5718 22.1344 23.5807 22.1406 23.5891 22.1479C23.6521 22.2028 23.6654 22.2941 23.6207 22.3647L21.2818 26.0555C20.7905 26.8307 20.5637 27.763 20.6432 28.6804C20.8657 31.2506 21.2514 34.1487 22.9272 36.6067H15.0709C15.6705 35.7174 16.1365 34.7056 16.4849 33.541C16.5689 33.2599 16.6152 30.5841 16.334 30.5C16.0527 30.4159 15.5508 32.9554 15.4668 33.2365C15.0418 34.6571 14.4299 35.8202 13.596 36.792C13.4609 36.9495 13.4298 37.1713 13.5165 37.3599C13.6032 37.5484 13.7917 37.6693 13.9992 37.6693H24.0023C24.2098 37.6693 24.3984 37.5484 24.485 37.3599C24.5717 37.1713 24.5406 36.9495 24.4055 36.7921C22.3595 34.4073 21.9371 31.3072 21.7016 28.5887C21.6422 27.9018 21.8117 27.2041 22.1791 26.6243L22.194 26.6007C23.0357 27.1282 24.0495 27.4143 25.1066 27.4143C27.2595 27.4143 29.1283 26.2426 29.7933 24.522C33.1758 24.1847 35.7739 21.3469 35.7739 17.9069C35.774 15.4104 34.3902 13.1519 32.2055 12.0106Z" fill="#FF8A00"/>
<path d="M32.6242 9.28646C32.6366 9.44359 32.6428 9.60372 32.6428 9.76217C32.6428 10.5436 32.496 11.2976 32.2055 12.0106C34.3902 13.1519 35.774 15.4104 35.7739 17.9069C35.7739 21.3469 33.1758 24.1847 29.7933 24.522C29.1283 26.2426 27.2595 27.4143 25.1066 27.4143C24.0495 27.4143 23.0357 27.1282 22.194 26.6007L22.1791 26.6243C21.8117 27.2041 21.6422 27.9018 21.7016 28.5887C21.9371 31.3072 22.3595 34.4073 24.4055 36.7921C24.5406 36.9495 24.5717 37.1713 24.485 37.3599C24.3984 37.5484 24.2098 37.6693 24.0023 37.6693H13.9992C13.7917 37.6693 13.6032 37.5484 13.5165 37.3599C13.4298 37.1713 13.4609 36.9495 13.596 36.792C14.4299 35.8202 15.0418 34.6571 15.4668 33.2365C15.5508 32.9554 16.0527 30.4159 16.334 30.5M32.6242 9.28646C32.6011 8.99392 32.3451 8.77568 32.0528 8.7985C31.9193 8.80901 31.8013 8.86799 31.7145 8.95681M32.6242 9.28646L31.9304 6.92607M31.5648 9.36987C31.575 9.49945 31.5802 9.63143 31.5802 9.76217C31.5802 10.5573 31.3954 11.3176 31.031 12.0221C30.9629 12.1536 30.9529 12.3075 31.0032 12.4468C31.0535 12.5861 31.1597 12.698 31.2961 12.7556C33.3708 13.6326 34.7115 15.6546 34.7115 17.9068C34.7115 20.9011 32.3684 23.3522 29.3773 23.4871C29.1474 23.4975 28.9503 23.6547 28.8892 23.8765C28.4932 25.3107 26.9025 26.3517 25.1068 26.3517C24.2512 26.3517 23.4351 26.1239 22.7629 25.7035L24.5183 22.9334C24.6413 22.7393 24.7045 22.5241 24.711 22.3097C24.7219 21.9524 24.5755 21.5975 24.2866 21.3461C23.7978 20.9209 23.0584 20.949 22.6032 21.4098L21.286 22.7434L21.7155 19.562C21.7608 19.2257 21.6638 18.882 21.4492 18.6191C21.2614 18.3891 20.995 18.2349 20.7045 18.1846C20.6631 18.1775 20.6211 18.1724 20.5788 18.1695L20.1042 18.1374C19.8681 18.1214 19.6423 18.1728 19.4466 18.276C19.1204 18.4479 18.8775 18.7639 18.8092 19.152L18.3937 21.5127L17.9782 23.8733L15.4128 20.7184C15.3277 20.6138 15.2274 20.5261 15.1171 20.4566L15.1151 20.4552C15.1032 20.4477 15.0908 20.4413 15.0787 20.4342C14.9208 20.3426 14.7448 20.2861 14.5637 20.27C14.558 20.2695 14.5521 20.2696 14.5463 20.2692C14.5196 20.2672 14.4929 20.2655 14.4661 20.2652C14.3026 20.2636 14.1375 20.2945 13.9812 20.3602L13.4854 20.5686C13.1562 20.707 12.9037 20.981 12.7926 21.3203C12.6815 21.6598 12.7231 22.03 12.9068 22.3364L15.0067 25.8364C14.3803 26.1709 13.647 26.3517 12.8952 26.3517C11.0995 26.3517 9.50878 25.3108 9.11284 23.8766C9.05159 23.6548 8.8545 23.4976 8.62466 23.4873C5.63355 23.3524 3.29052 20.9012 3.29052 17.9069C3.29052 15.6546 4.63116 13.6326 6.70593 12.7557C6.84229 12.6981 6.94846 12.5862 6.99877 12.4469C7.04908 12.3076 7.03902 12.1537 6.97099 12.0222C6.60655 11.3177 6.42178 10.5573 6.42178 9.76224C6.42178 7.045 8.63247 4.83431 11.3497 4.83431C12.1071 4.83431 12.8342 5.00202 13.5107 5.33277C13.6524 5.40211 13.8176 5.40481 13.9617 5.34021C14.1055 5.2756 14.2134 5.15041 14.2558 4.99845C14.8477 2.87898 16.7991 1.3987 19.0011 1.3987C21.2032 1.3987 23.1545 2.87898 23.7465 4.99845C23.789 5.15041 23.8968 5.27568 24.0406 5.34021C24.1846 5.40488 24.3499 5.40219 24.4916 5.33277C25.1681 5.00202 25.8952 4.83431 26.6526 4.83431C28.469 4.83431 30.1329 5.82882 30.9948 7.42985M31.5648 9.36987L30.9948 7.42985M31.5648 9.36987C31.5523 9.21083 31.6112 9.06264 31.7145 8.95681M30.9948 7.42985C31.0793 7.58676 31.2313 7.68403 31.3956 7.70506M31.7145 7.64576C31.9729 7.50671 32.0696 7.18442 31.9304 6.92607M31.7145 7.64576L32.0528 8.88752M31.7145 7.64576C31.6131 7.70039 31.5018 7.71866 31.3956 7.70506M31.9304 6.92607C30.8828 4.98036 28.8605 3.7717 26.6526 3.7717C25.9352 3.7717 25.24 3.89558 24.5785 4.14073C23.6887 1.87324 21.475 0.335938 19.0008 0.335938C16.5266 0.335938 14.3128 1.87324 13.4234 4.14066C12.762 3.89551 12.0668 3.77162 11.3493 3.77162C8.04607 3.77162 5.35873 6.45897 5.35873 9.76217C5.35873 10.5436 5.50558 11.2976 5.79608 12.0106C3.61135 13.1519 2.22754 15.4104 2.22754 17.9068C2.22754 21.3469 4.82563 24.1847 8.20809 24.522C8.87309 26.2425 10.7419 27.4143 12.8948 27.4143C13.8386 27.4143 14.7629 27.1799 15.5531 26.7477L15.8164 27.1865C16.1756 27.7853 16.3243 28.4945 16.235 29.1836C16.1577 29.7794 16.0625 30.481 15.9419 31.1677C15.8911 31.4568 16.0843 31.7322 16.3732 31.7829C16.6626 31.8337 16.9377 31.6405 16.9884 31.3516M16.9884 31.3516C17.1127 30.644 17.21 29.9277 17.2888 29.3201C17.4087 28.3947 17.2095 27.4428 16.7277 26.6397L13.8178 21.7896C13.7834 21.7322 13.7932 21.678 13.8022 21.6507C13.8111 21.6234 13.8353 21.5739 13.8968 21.548L14.3927 21.3397C14.4609 21.3109 14.5414 21.331 14.5882 21.3886L17.4199 24.8711C17.4274 24.8803 17.4353 24.8889 17.4431 24.8977C17.5484 25.0173 17.6792 25.1032 17.8231 25.1504C17.9759 25.2006 18.1429 25.2072 18.3081 25.1654L18.3136 25.1641C18.4741 25.1224 18.6138 25.0392 18.7224 24.9265C18.7266 24.9221 18.7312 24.9179 18.7354 24.9134C18.7392 24.9093 18.7427 24.9048 18.7464 24.9006C18.8505 24.7831 18.9227 24.637 18.9515 24.4732L19.8556 19.3363C19.8705 19.2514 19.9485 19.1921 20.0325 19.1977L20.5071 19.2297C20.5703 19.234 20.6087 19.2701 20.6259 19.2912C20.6432 19.3123 20.6708 19.3571 20.6623 19.42L20.1557 23.1729C20.1494 23.2194 20.147 23.2656 20.1481 23.3113C20.156 23.6314 20.34 23.9254 20.6343 24.0699C20.6553 24.0803 20.6766 24.0897 20.6981 24.0982C20.8055 24.1407 20.9182 24.1607 21.0298 24.1592C21.2531 24.1561 21.4722 24.0671 21.6367 23.9005L23.3592 22.1566C23.3889 22.1265 23.4276 22.1102 23.4671 22.1075L23.4723 22.1069L23.4749 22.107C23.5051 22.1064 23.5355 22.1135 23.5625 22.1291C23.5718 22.1344 23.5807 22.1406 23.5891 22.1479C23.6521 22.2028 23.6654 22.2941 23.6207 22.3647L21.2818 26.0555C20.7905 26.8307 20.5637 27.763 20.6432 28.6804C20.8657 31.2506 21.2514 34.1487 22.9272 36.6067H15.0709C15.6705 35.7174 16.1365 34.7056 16.4849 33.541M16.9884 31.3516L16.4849 33.541M16.4849 33.541C16.5689 33.2599 16.6152 30.5841 16.334 30.5M16.4849 33.541L16.334 30.5M31.3956 7.70506L31.7145 8.95681" stroke="#FF8A00" stroke-width="0.5"/>
</g>
<defs>
<clipPath id="clip0_26793_443356">
<rect width="37.3333" height="37.3333" fill="white" transform="translate(0.333984 0.335938)"/>
</clipPath>
</defs>
</svg>
