<svg width="124" height="124" viewBox="0 0 124 124" fill="none" xmlns="http://www.w3.org/2000/svg">
<circle cx="62" cy="62" r="61" fill="#EDEDED" stroke="#B3B3B3" stroke-width="2"/>
<path d="M88.9736 60.1806C88.9736 55.9691 86.4125 52.3558 82.7629 50.8132C83.4073 49.5672 83.7736 48.1541 83.7736 46.6546C83.7736 41.6474 79.7146 37.5883 74.7073 37.5883C73.2807 37.5883 71.9318 37.9187 70.731 38.5058C69.664 34.686 66.1608 31.8828 62.0005 31.8828C57.8402 31.8828 54.337 34.686 53.27 38.5059C52.0694 37.9189 50.7202 37.5884 49.2936 37.5884C44.2865 37.5884 40.2274 41.6474 40.2274 46.6547C40.2274 48.1542 40.5937 49.5673 41.2381 50.8133C37.5885 52.3559 35.0273 55.9692 35.0273 60.1807C35.0273 65.6388 39.3304 70.0861 44.7284 70.3296C45.481 73.0555 48.3873 75.0876 51.8603 75.0876C53.8288 75.0876 55.6144 74.4338 56.9304 73.3722C58.2463 74.4338 60.032 75.0876 62.0005 75.0876C63.969 75.0876 65.7545 74.4338 67.0706 73.3722C68.3865 74.4338 70.1721 75.0876 72.1406 75.0876C75.6139 75.0876 78.5201 73.0554 79.2726 70.3296C84.6706 70.0859 88.9736 65.6387 88.9736 60.1806Z" fill="#60A917"/>
<path d="M61.4564 31.9007C61.3448 31.9074 61.2336 31.9155 61.1232 31.9263C61.0894 31.9296 61.0557 31.9333 61.0219 31.9369C60.9033 31.9498 60.7852 31.9646 60.6679 31.982C60.6459 31.9853 60.6239 31.9884 60.602 31.9918C60.4624 32.0136 60.3237 32.0378 60.1863 32.0658C60.186 32.0658 60.1858 32.0659 60.1855 32.0659C62.5655 32.5499 64.7939 34.2076 66.2056 36.297C67.2054 37.7767 68.9135 38.6296 70.695 38.5085C70.7069 38.5076 70.7188 38.5069 70.7306 38.506C69.6638 34.686 66.1606 31.8828 62.0003 31.8828C61.8545 31.8828 61.7096 31.8871 61.5654 31.894C61.529 31.8956 61.4928 31.8986 61.4564 31.9007Z" fill="#A4C400"/>
<path d="M82.7624 50.8128C83.407 49.5668 83.7731 48.1537 83.7731 46.6542C83.7731 41.6471 79.7141 37.5879 74.7069 37.5879C74.0855 37.5879 73.4788 37.6507 72.8927 37.77C77.0299 38.6109 80.1437 42.2688 80.1437 46.6542C80.1437 48.1537 79.7774 49.5668 79.1329 50.8128C82.7826 52.3554 85.3437 55.9687 85.3437 60.1802C85.3437 65.6383 81.0407 70.0856 75.6428 70.329C75.0259 72.5632 72.9619 74.3304 70.3252 74.8957C70.9056 75.0203 71.5135 75.0871 72.1401 75.0871C75.6132 75.0871 78.5196 73.0549 79.2721 70.3291C84.6701 70.0857 88.973 65.6384 88.973 60.1804C88.9733 55.9687 86.4123 52.3555 82.7624 50.8128Z" fill="#A4C400"/>
<path d="M55.5087 71.8704C54.6911 73.2571 51.3025 74.8079 50.0459 74.896C50.1842 74.9257 50.3243 74.9516 50.4655 74.9746C50.4769 74.9764 50.4881 74.9785 50.4995 74.9803C50.6428 75.0031 50.7874 75.0226 50.9334 75.0382C50.9371 75.0385 50.9409 75.0388 50.9447 75.0393C51.076 75.0532 51.2089 75.0631 51.3424 75.0711C51.375 75.0731 51.4075 75.0749 51.4402 75.0764C51.5793 75.0831 51.7192 75.0876 51.8604 75.0876C53.6557 75.0876 55.2976 74.5425 56.5712 73.6415L56.7945 73.4791L55.6573 71.6133L55.5087 71.8704Z" fill="#009000"/>
<path d="M66.5336 74.1846L70.418 68.0553C70.7252 67.5704 70.6323 66.934 70.1992 66.5573C69.7367 66.155 69.0412 66.1813 68.6105 66.6173L65.7499 69.5134C65.3705 69.8975 64.7205 69.5781 64.7928 69.0431L65.634 62.8106C65.7239 62.1447 65.2316 61.5417 64.5613 61.4964L63.7732 61.4431C63.1809 61.4031 62.6538 61.8161 62.551 62.4006L61.0495 70.9315C60.966 71.406 60.3635 71.5625 60.0596 71.1887L55.357 65.4054C55.0317 65.0052 54.4813 64.8675 54.0059 65.0674L53.1826 65.4135C52.5307 65.6876 52.2728 66.4755 52.6366 67.0818L57.469 75.1367C58.1688 76.3032 58.4574 77.6717 58.2824 79.0207C57.6561 83.8509 56.8782 88.4063 53.6946 92.1171H70.3068C66.8987 88.1446 66.0581 83.2045 65.607 77.9954C65.4909 76.6578 65.8149 75.3186 66.5336 74.1846Z" fill="#BF6101"/>
<path d="M70.4174 68.0558C70.7246 67.5709 70.6317 66.9345 70.1986 66.5577C69.7361 66.1555 69.0407 66.1817 68.6099 66.6178L67.3324 67.9111L65.7493 69.5139C65.37 69.898 64.72 69.5785 64.7922 69.0436L65.6335 62.8111C65.7211 62.162 65.255 61.5743 64.6106 61.5029L62.2453 76.2047C62.2055 76.3946 62.1744 76.5862 62.1529 76.7793C62.1078 77.1811 62.1018 77.5885 62.137 77.9958C62.5881 83.205 63.4287 88.1451 66.8368 92.1175H70.306C66.8979 88.145 66.0573 83.2049 65.6062 77.9958C65.4904 76.6582 65.8144 75.319 66.5331 74.185L70.4174 68.0558Z" fill="#9A4D01"/>
<path d="M60.2751 39C57.7316 39 55.5419 40.5097 54.5493 42.6811C53.5239 41.9565 52.2733 41.5294 50.9222 41.5294C47.4461 41.5294 44.6281 44.3474 44.6281 47.8235C44.6281 48.9705 44.9364 50.0447 45.4724 50.9708C42.454 51.4349 40.1426 54.0431 40.1426 57.1914C40.1426 60.6675 42.9606 63.4855 46.4367 63.4855C49.9128 63.4855 66.5692 48.7702 66.5692 45.2941C66.5692 41.818 63.7511 39 60.2751 39Z" fill="#A4C400"/>
</svg>
