<svg width="84" height="84" viewBox="0 0 84 84" fill="none" xmlns="http://www.w3.org/2000/svg">
<circle cx="41.709" cy="44" r="39" fill="#B36800"/>
<circle cx="42" cy="39" r="38.5" fill="#FF8A00" stroke="#B36800"/>
<g clip-path="url(#clip0_24803_139136)">
<path d="M57.5636 30.7594C57.9059 29.9191 58.079 29.0305 58.079 28.1095C58.079 27.9227 58.0716 27.734 58.057 27.5488C58.0299 27.204 57.7281 26.9468 57.3836 26.9737C57.0389 27.0009 56.7814 27.3024 56.8085 27.6471C56.8205 27.7999 56.8267 27.9554 56.8267 28.1095C56.8267 29.0465 56.6089 29.9427 56.1794 30.773C56.0991 30.928 56.0873 31.1094 56.1466 31.2735C56.2059 31.4377 56.3311 31.5696 56.4918 31.6375C58.937 32.671 60.5171 35.0541 60.5171 37.7085C60.5171 41.2375 57.7556 44.1263 54.2304 44.2853C53.9594 44.2975 53.7271 44.4828 53.655 44.7442C53.1884 46.4345 51.3136 47.6614 49.1973 47.6614C48.1889 47.6614 47.2271 47.393 46.4348 46.8975L48.5037 43.6327C48.6487 43.404 48.7231 43.1504 48.7308 42.8977C48.7436 42.4766 48.5711 42.0583 48.2306 41.762C47.6545 41.2608 46.7831 41.2939 46.2466 41.8371L44.6942 43.4088L45.2003 39.6593C45.2538 39.2629 45.1394 38.8579 44.8865 38.5481C44.6652 38.2769 44.3513 38.0953 44.0089 38.036C43.96 38.0275 43.9105 38.0215 43.8607 38.0182L43.3014 37.9804C43.0231 37.9614 42.757 38.022 42.5263 38.1436C42.1418 38.3463 41.8556 38.7187 41.775 39.1761L41.2854 41.9583L40.7957 44.7405L37.7722 41.0222C37.672 40.8989 37.5537 40.7955 37.4237 40.7136C37.4229 40.7131 37.4221 40.7125 37.4214 40.712C37.4074 40.7032 37.3927 40.6956 37.3784 40.6873C37.1923 40.5793 36.9849 40.5127 36.7715 40.4938C36.7647 40.4932 36.7578 40.4933 36.751 40.4927C36.7195 40.4904 36.6881 40.4884 36.6564 40.4881C36.4638 40.4862 36.2692 40.5226 36.0849 40.6001L35.5007 40.8457C35.1126 41.0087 34.815 41.3317 34.6841 41.7316C34.5531 42.1316 34.6022 42.568 34.8187 42.9291L37.2936 47.0541C36.5554 47.4483 35.6911 47.6615 34.805 47.6615C32.6886 47.6615 30.8139 46.4346 30.3472 44.7444C30.2751 44.4829 30.0428 44.2977 29.7719 44.2855C26.2466 44.1265 23.4852 41.2376 23.4852 37.7086C23.4852 35.0541 25.0653 32.671 27.5105 31.6376C27.6712 31.5697 27.7964 31.4378 27.8557 31.2736C27.915 31.1095 27.9031 30.9281 27.8229 30.7731C27.3934 29.9428 27.1756 29.0466 27.1756 28.1096C27.1756 24.9071 29.7811 22.3017 32.9835 22.3017C33.8762 22.3017 34.7331 22.4993 35.5305 22.8891C35.6975 22.9709 35.8922 22.974 36.0619 22.8979C36.2315 22.8217 36.3586 22.6742 36.4086 22.4951C37.1062 19.9972 39.4061 18.2525 42.0013 18.2525C44.5965 18.2525 46.8964 19.9972 47.594 22.4951C47.6441 22.6742 47.7712 22.8218 47.9407 22.8979C48.1104 22.9741 48.3052 22.9709 48.4722 22.8891C49.2695 22.4993 50.1264 22.3017 51.0191 22.3017C53.1599 22.3017 55.1209 23.4738 56.1367 25.3607C56.3006 25.6652 56.6805 25.7791 56.9849 25.6151C57.2895 25.4513 57.4034 25.0714 57.2394 24.7669C56.0047 22.4738 53.6213 21.0493 51.0191 21.0493C50.1735 21.0493 49.3542 21.1953 48.5747 21.4842C47.526 18.8118 44.9169 17 42.0009 17C39.0849 17 36.4758 18.8118 35.4275 21.4841C34.648 21.1952 33.8287 21.0492 32.9831 21.0492C29.09 21.0492 25.9228 24.2164 25.9228 28.1095C25.9228 29.0305 26.0958 29.9192 26.4382 30.7594C23.8633 32.1045 22.2324 34.7664 22.2324 37.7085C22.2324 41.763 25.2945 45.1075 29.2809 45.505C30.0647 47.5327 32.2673 48.9137 34.8046 48.9137C35.9169 48.9137 37.0063 48.6375 37.9376 48.1281L38.2479 48.6453C38.6712 49.351 38.8465 50.1868 38.7412 50.999C38.6501 51.7012 38.5379 52.5281 38.3957 53.3375C38.3359 53.6781 38.5636 54.0027 38.9041 54.0625C39.2452 54.1224 39.5694 53.8947 39.6292 53.5541C39.7757 52.7203 39.8903 51.876 39.9832 51.1599C40.1245 50.0693 39.8897 48.9474 39.3219 48.0009L35.8924 42.2846C35.8518 42.2171 35.8634 42.1531 35.874 42.121C35.8845 42.0889 35.913 42.0305 35.9855 42L36.5699 41.7544C36.6503 41.7205 36.7452 41.7442 36.8003 41.812L40.1377 45.9164C40.1465 45.9273 40.1559 45.9374 40.1651 45.9478C40.2891 46.0887 40.4434 46.19 40.6129 46.2456C40.793 46.3048 40.9898 46.3125 41.1845 46.2633C41.1866 46.2628 41.1888 46.2624 41.191 46.2618H41.1911C41.3802 46.2127 41.5448 46.1145 41.6728 45.9817C41.6778 45.9765 41.6832 45.9716 41.6881 45.9664C41.6925 45.9615 41.6967 45.9562 41.701 45.9512C41.8238 45.8128 41.9088 45.6406 41.9428 45.4475L43.0083 39.3932C43.0259 39.2932 43.1178 39.2234 43.2168 39.2299L43.7762 39.2677C43.8507 39.2728 43.896 39.3152 43.9163 39.3401C43.9365 39.365 43.9691 39.4177 43.9591 39.4919L43.362 43.915C43.3547 43.9698 43.3517 44.0243 43.3531 44.0781C43.3624 44.4553 43.5793 44.8019 43.9261 44.9722C43.9508 44.9844 43.9759 44.9955 44.0013 45.0055C44.1278 45.0557 44.2607 45.0792 44.3923 45.0774C44.6554 45.0738 44.9137 44.9689 45.1075 44.7725L47.1375 42.7172C47.1726 42.6817 47.2182 42.6626 47.2648 42.6594C47.2669 42.6592 47.2689 42.6587 47.2709 42.6586C47.272 42.6586 47.273 42.6588 47.274 42.6588C47.3096 42.658 47.3453 42.6664 47.3772 42.6847C47.3881 42.691 47.3986 42.6984 47.4085 42.707C47.4828 42.7717 47.4985 42.8792 47.4458 42.9625L44.6892 47.3123C44.1102 48.226 43.8429 49.3247 43.9365 50.406C44.1988 53.4352 44.6533 56.8508 46.6284 59.7476H37.3692C38.0759 58.6995 38.6251 57.5072 39.0357 56.1346C39.1348 55.8033 38.9466 55.4543 38.6152 55.3552C38.2837 55.2561 37.9348 55.4443 37.8358 55.7757C37.335 57.4499 36.6138 58.8207 35.6309 59.9661C35.4717 60.1517 35.4351 60.4131 35.5373 60.6354C35.6394 60.8576 35.8616 61 36.1062 61H47.8955C48.1401 61 48.3623 60.8576 48.4644 60.6354C48.5666 60.4131 48.53 60.1517 48.3707 59.9662C45.9594 57.1555 45.4615 53.5019 45.184 50.2979C45.114 49.4883 45.3138 48.666 45.7468 47.9827L45.7643 47.9549C46.7563 48.5766 47.9512 48.9138 49.197 48.9138C51.7343 48.9138 53.9369 47.5328 54.7207 45.505C58.7071 45.1075 61.7692 41.763 61.7692 37.7086C61.7693 34.7664 60.1384 32.1045 57.5636 30.7594Z" fill="white" stroke="white" stroke-width="0.5"/>
</g>
<defs>
<clipPath id="clip0_24803_139136">
<rect width="44" height="44" fill="white" transform="translate(20 17)"/>
</clipPath>
</defs>
</svg>
