<svg width="40" height="40" viewBox="0 0 40 40" fill="none" xmlns="http://www.w3.org/2000/svg">
<rect x="0.5" y="0.5" width="39" height="39" rx="7.5" fill="#FFEACC" stroke="#FF8A00"/>
<path d="M19.9816 9.5C17.5734 9.5 15.6126 11.4753 15.6126 13.8804C15.6126 16.2855 17.5734 18.2437 19.9816 18.2437C22.3898 18.2437 24.3677 16.2855 24.3677 13.8804C24.3677 11.4753 22.3898 9.5 19.9816 9.5ZM19.6053 20C17.1912 20.0503 14.7855 20.5832 12.5404 21.5991C12.5269 21.6078 12.5136 21.6168 12.5006 21.6262C10.5189 22.6631 9.3585 24.7915 9.51386 27.0214C9.54032 28.9257 11.082 30.4998 12.9899 30.4998H26.9966C28.9186 30.4998 30.4995 28.9177 30.5 26.9941V26.9802C30.5 24.5093 29.0105 22.2706 26.74 21.3014C26.7356 21.3014 26.7312 21.3014 26.7268 21.3014C24.4401 20.3828 22.0194 19.9499 19.6053 20Z" fill="#FF8A00"/>
</svg>
