<svg width="24" height="24" viewBox="0 0 24 24" fill="none" xmlns="http://www.w3.org/2000/svg">
<mask id="path-1-inside-1_21702_81278" fill="white">
<path d="M21.0858 7.22001C20.5225 6.92425 19.8583 6.98637 19.355 7.38452C19.3225 7.4099 19.2917 7.43878 19.2633 7.46853L17.7992 9.02C17.6233 6.77549 15.8483 5 13.6667 5H6.16667C3.86917 4.99913 2 6.96187 2 9.3744V14.6247C2 17.0373 3.86917 19 6.16667 19H13.6667C15.8575 19 17.64 17.2088 17.8017 14.9511L19.265 16.486C19.2933 16.5148 19.3225 16.5411 19.3542 16.5665C19.6475 16.7975 19.9942 16.9147 20.3442 16.9147C20.5967 16.9147 20.8492 16.8544 21.0858 16.7301C21.65 16.4343 22 15.8384 22 15.1778V8.77411C22 8.11169 21.65 7.51578 21.0858 7.22001ZM13.6667 17.2499H6.16667C4.78833 17.2499 3.66667 16.0721 3.66667 14.6247V9.3744C3.66667 7.92706 4.78833 6.74923 6.16667 6.74923H13.6667C15.045 6.74923 16.1667 7.92706 16.1667 9.3744V14.6247C16.1667 16.0721 15.045 17.2499 13.6667 17.2499ZM17.8333 12.5097V11.4693L20.3333 8.81961L20.3542 15.1533L17.8333 12.5088V12.5097Z"/>
</mask>
<path d="M21.0858 7.22001C20.5225 6.92425 19.8583 6.98637 19.355 7.38452C19.3225 7.4099 19.2917 7.43878 19.2633 7.46853L17.7992 9.02C17.6233 6.77549 15.8483 5 13.6667 5H6.16667C3.86917 4.99913 2 6.96187 2 9.3744V14.6247C2 17.0373 3.86917 19 6.16667 19H13.6667C15.8575 19 17.64 17.2088 17.8017 14.9511L19.265 16.486C19.2933 16.5148 19.3225 16.5411 19.3542 16.5665C19.6475 16.7975 19.9942 16.9147 20.3442 16.9147C20.5967 16.9147 20.8492 16.8544 21.0858 16.7301C21.65 16.4343 22 15.8384 22 15.1778V8.77411C22 8.11169 21.65 7.51578 21.0858 7.22001ZM13.6667 17.2499H6.16667C4.78833 17.2499 3.66667 16.0721 3.66667 14.6247V9.3744C3.66667 7.92706 4.78833 6.74923 6.16667 6.74923H13.6667C15.045 6.74923 16.1667 7.92706 16.1667 9.3744V14.6247C16.1667 16.0721 15.045 17.2499 13.6667 17.2499ZM17.8333 12.5097V11.4693L20.3333 8.81961L20.3542 15.1533L17.8333 12.5088V12.5097Z" fill="#FF8A00"/>
<path d="M21.0858 7.22001L11.1689 26.1083L11.1804 26.1143L21.0858 7.22001ZM19.355 7.38452L32.4842 24.1992L32.5373 24.1578L32.5901 24.116L19.355 7.38452ZM19.2633 7.46853L3.8146 -7.24363L3.7813 -7.20867L3.74816 -7.17356L19.2633 7.46853ZM17.7992 9.02L-3.46901 10.6861L0.288966 58.6567L33.3143 23.6621L17.7992 9.02ZM6.16667 5L6.15854 26.3333H6.16667V5ZM17.8017 14.9511L33.242 0.230171L-0.0329258 -34.6709L-3.47718 13.4274L17.8017 14.9511ZM19.265 16.486L3.82464 31.2069L3.93025 31.3177L4.03744 31.4269L19.265 16.486ZM19.3542 16.5665L6.01348 33.2139L6.08398 33.2704L6.15497 33.3263L19.3542 16.5665ZM21.0858 16.7301L11.1804 -2.16416L11.1689 -2.15813L21.0858 16.7301ZM17.8333 11.4693L2.31652 -3.17107L-3.5 2.99367V11.4693H17.8333ZM20.3333 8.81961L41.6665 8.74944L41.4908 -44.6905L4.81652 -5.82073L20.3333 8.81961ZM20.3542 15.1533L4.91272 29.8731L41.8635 68.6354L41.6874 15.0831L20.3542 15.1533ZM17.8333 12.5088L33.2748 -2.21097L-3.5 -40.7886V12.5088H17.8333ZM31.0028 -11.6682C22.9301 -15.9066 13.1973 -14.9454 6.11992 -9.347L32.5901 24.116C26.5194 28.9181 18.1149 29.7551 11.1689 26.1082L31.0028 -11.6682ZM6.22577 -9.43019C5.19594 -8.62607 4.39367 -7.8517 3.8146 -7.24363L34.7121 22.1807C34.1897 22.7293 33.4491 23.4459 32.4842 24.1992L6.22577 -9.43019ZM3.74816 -7.17356L2.284 -5.62208L33.3143 23.6621L34.7785 22.1106L3.74816 -7.17356ZM39.0673 7.35387C38.1125 -4.83437 28.1094 -16.3333 13.6667 -16.3333V26.3333C3.58723 26.3333 -2.86586 18.3853 -3.46901 10.6861L39.0673 7.35387ZM13.6667 -16.3333H6.16667V26.3333H13.6667V-16.3333ZM6.17479 -16.3333C-8.88302 -16.3391 -19.3333 -3.82409 -19.3333 9.3744H23.3333C23.3333 17.7478 16.6214 26.3373 6.15854 26.3333L6.17479 -16.3333ZM-19.3333 9.3744V14.6247H23.3333V9.3744H-19.3333ZM-19.3333 14.6247C-19.3333 27.8252 -8.88302 40.3333 6.16667 40.3333V-2.33333C16.6213 -2.33333 23.3333 6.24927 23.3333 14.6247H-19.3333ZM6.16667 40.3333H13.6667V-2.33333H6.16667V40.3333ZM13.6667 40.3333C28.1637 40.3333 38.2017 28.7468 39.0805 16.4749L-3.47718 13.4274C-2.92174 5.67072 3.55129 -2.33333 13.6667 -2.33333V40.3333ZM2.36131 29.6721L3.82464 31.2069L34.7054 1.76502L33.242 0.230171L2.36131 29.6721ZM4.03744 31.4269C4.68458 32.0865 5.34718 32.68 6.01348 33.2139L32.6949 -0.0809646C33.2978 0.402235 33.9021 0.943197 34.4926 1.545L4.03744 31.4269ZM6.15497 33.3263C10.1725 36.4903 15.1582 38.2481 20.3442 38.2481V-4.41859C24.8302 -4.41859 29.1226 -2.8953 32.5534 -0.193368L6.15497 33.3263ZM20.3442 38.2481C24.0487 38.2481 27.7047 37.35 31.0028 35.6183L11.1689 -2.15813C13.9937 -3.64122 17.1447 -4.41859 20.3442 -4.41859V38.2481ZM30.9913 35.6244C38.9334 31.4607 43.3333 23.366 43.3333 15.1778H0.666666C0.666666 8.31081 4.36662 1.40801 11.1804 -2.16415L30.9913 35.6244ZM43.3333 15.1778V8.77411H0.666666V15.1778H43.3333ZM43.3333 8.77411C43.3333 0.596148 38.9436 -7.50517 30.9913 -11.6742L11.1804 26.1143C4.35635 22.5367 0.666666 15.6272 0.666666 8.77411H43.3333ZM13.6667 -4.08344H6.16667V38.5832H13.6667V-4.08344ZM6.16667 -4.08344C17.5405 -4.08344 25 5.28408 25 14.6247H-17.6667C-17.6667 26.8601 -7.96385 38.5832 6.16667 38.5832V-4.08344ZM25 14.6247V9.3744H-17.6667V14.6247H25ZM25 9.3744C25 18.715 17.5405 28.0826 6.16667 28.0826V-14.5841C-7.96385 -14.5841 -17.6667 -2.86093 -17.6667 9.3744H25ZM6.16667 28.0826H13.6667V-14.5841H6.16667V28.0826ZM13.6667 28.0826C2.29282 28.0826 -5.16667 18.715 -5.16667 9.3744H37.5C37.5 -2.86093 27.7972 -14.5841 13.6667 -14.5841V28.0826ZM-5.16667 9.3744V14.6247H37.5V9.3744H-5.16667ZM-5.16667 14.6247C-5.16667 5.28408 2.29282 -4.08344 13.6667 -4.08344V38.5832C27.7972 38.5832 37.5 26.8601 37.5 14.6247H-5.16667ZM39.1667 12.5097V11.4693H-3.5V12.5097H39.1667ZM33.3501 26.1096L35.8501 23.46L4.81652 -5.82073L2.31652 -3.17107L33.3501 26.1096ZM-0.999886 8.88978L-0.979053 15.2234L41.6874 15.0831L41.6665 8.74944L-0.999886 8.88978ZM35.7956 0.433446L33.2748 -2.21097L2.39189 27.2287L4.91272 29.8731L35.7956 0.433446ZM-3.5 12.5088V12.5097H39.1667V12.5088H-3.5Z" fill="#FF8A00" mask="url(#path-1-inside-1_21702_81278)"/>
</svg>
