<svg width="20" height="20" viewBox="0 0 20 20" fill="none" xmlns="http://www.w3.org/2000/svg">
<path d="M17.5719 6.017C17.1024 5.77053 16.5489 5.8223 16.1295 6.1541C16.1024 6.17524 16.0767 6.19931 16.0531 6.2241L14.833 7.51699C14.6864 5.64656 13.2073 4.16699 11.3892 4.16699H5.13921C3.22463 4.16626 1.66699 5.80189 1.66699 7.81232V12.1876C1.66699 14.198 3.22463 15.8337 5.13921 15.8337H11.3892C13.2149 15.8337 14.7003 14.341 14.835 12.4596L16.0545 13.7386C16.0781 13.7627 16.1024 13.7846 16.1288 13.8057C16.3732 13.9982 16.6621 14.0959 16.9538 14.0959C17.1642 14.0959 17.3746 14.0456 17.5719 13.9421C18.042 13.6956 18.3337 13.199 18.3337 12.6485V7.31208C18.3337 6.76007 18.042 6.26348 17.5719 6.017ZM11.3892 14.3752H5.13921C3.9906 14.3752 3.05588 13.3937 3.05588 12.1876V7.81232C3.05588 6.60621 3.9906 5.62469 5.13921 5.62469H11.3892C12.5378 5.62469 13.4725 6.60621 13.4725 7.81232V12.1876C13.4725 13.3937 12.5378 14.3752 11.3892 14.3752ZM14.8614 10.4251V9.55806L16.9448 7.35L16.9621 12.628L14.8614 10.4244V10.4251Z" fill="white"/>
</svg>
