<svg width="48" height="42" viewBox="0 0 48 42" fill="none" xmlns="http://www.w3.org/2000/svg">
<path d="M42.9569 32.7721C40.8286 30.6243 38.3564 28.8578 35.6455 27.5476L35.3917 27.419C33.6777 26.611 31.8847 25.9875 30.0423 25.5587L29.3395 25.4103C29.2115 25.3813 29.0996 25.3033 29.0271 25.1926V25.1332L23.5509 12.8338L18.1527 0.702542C18.1207 0.626498 18.1076 0.54365 18.1146 0.461283C18.1216 0.378915 18.1485 0.299553 18.1928 0.23017C18.2372 0.160787 18.2976 0.10351 18.3689 0.0633761C18.4402 0.023242 18.5202 0.00147731 18.6017 0H29.0955C29.1904 0.000900213 29.2832 0.0293255 29.3628 0.0819246C29.4423 0.134524 29.5054 0.209096 29.5445 0.296845L43.7574 32.218C43.8052 32.3237 43.8148 32.4431 43.7844 32.5552C43.754 32.6674 43.6856 32.7651 43.5913 32.8312C43.4969 32.8973 43.3826 32.9277 43.2684 32.9169C43.1542 32.9061 43.0474 32.8548 42.9667 32.7721" fill="#6166AE"/>
<path d="M4.70131 32.7722C6.83138 30.6219 9.30718 28.8552 12.0225 27.5476L12.2666 27.419C13.9806 26.611 15.7735 25.9875 17.6159 25.5587L18.3188 25.4103C18.4495 25.3818 18.5646 25.304 18.6409 25.1926V25.1333L24.1172 12.8338L29.5153 0.702581C29.55 0.626719 29.5651 0.543198 29.5592 0.459811C29.5534 0.376425 29.5269 0.295889 29.482 0.225732C29.4372 0.155574 29.3755 0.0980809 29.3028 0.0586135C29.2301 0.019146 29.1487 -0.00100723 29.0663 3.87337e-05H18.553C18.458 0.000938947 18.3653 0.0293642 18.2857 0.0819633C18.2062 0.134562 18.1431 0.209135 18.104 0.296883L3.91062 32.2181C3.86281 32.3238 3.85326 32.4431 3.88363 32.5553C3.91401 32.6674 3.98238 32.7651 4.07673 32.8312C4.17109 32.8974 4.28541 32.9277 4.39963 32.9169C4.51385 32.9061 4.62065 32.8549 4.70131 32.7722Z" fill="#6166AE"/>
<path d="M47.6718 41.0441L47.5352 40.7967V40.7275C45.7147 37.3022 43.1929 34.311 40.139 31.9543C37.085 29.5975 33.5693 27.9297 29.8276 27.0625C25.8809 26.1654 21.7871 26.1654 17.8403 27.0625C11.7823 28.4817 6.39312 31.9768 2.58299 36.9575C1.68508 38.1315 0.88511 39.3793 0.191381 40.6879V40.7571L0.0547043 41.0045C0.0159228 41.0804 -0.00279506 41.1652 0.000337479 41.2505C0.00347002 41.3359 0.0283451 41.419 0.0725784 41.4918C0.116812 41.5645 0.1789 41.6244 0.252749 41.6656C0.326597 41.7068 0.4097 41.7279 0.493988 41.7269H11.2806C11.4125 41.7265 11.5389 41.6731 11.632 41.5784C13.2216 39.9098 15.1264 38.5827 17.2328 37.6763C19.3393 36.7699 21.6042 36.3028 23.8926 36.3028C26.1809 36.3028 28.4459 36.7699 30.5523 37.6763C32.6587 38.5827 34.5635 39.9098 36.1531 41.5784C36.1986 41.6262 36.2532 41.6641 36.3136 41.6896C36.3741 41.7151 36.4391 41.7278 36.5046 41.7269H47.3009C47.384 41.7281 47.4661 41.7074 47.5389 41.6667C47.6118 41.626 47.6728 41.5668 47.7162 41.4949C47.7596 41.423 47.7837 41.3408 47.7862 41.2566C47.7887 41.1723 47.7695 41.0889 47.7304 41.0144" fill="#6166AE"/>
</svg>
