<svg width="120" height="120" viewBox="0 0 120 120" fill="none" xmlns="http://www.w3.org/2000/svg">
<g clip-path="url(#clip0_9229_6450)">
<g clip-path="url(#clip1_9229_6450)">
<path d="M2.56407 85.5351H0.149841L8.64791 65.1089H10.8529L19.2383 85.5351H16.7597L14.3938 79.7971H4.90587L2.56407 85.5351ZM9.63775 67.6834L5.61404 77.9166H13.7339L9.63775 67.6834Z" fill="#FF8A00"/>
<path d="M35.8563 80.5317C35.2962 82.3337 34.1109 83.8747 32.515 84.8754C30.9192 85.8761 29.0187 86.2702 27.158 85.9862C25.2973 85.7021 23.5997 84.7588 22.3731 83.3272C21.1465 81.8957 20.472 80.0707 20.472 78.1832C20.472 76.2957 21.1465 74.4707 22.3731 73.0391C23.5997 71.6076 25.2973 70.6642 27.158 70.3802C29.0187 70.0961 30.9192 70.4902 32.515 71.4909C34.1109 72.4916 35.2962 74.0327 35.8563 75.8347H33.7639C33.3998 74.9409 32.8222 74.1505 32.082 73.5331C31.3417 72.9157 30.4615 72.4903 29.5188 72.2942C28.5761 72.0981 27.5997 72.1374 26.6757 72.4085C25.7517 72.6797 24.9083 73.1745 24.2197 73.8494C23.1243 75.0006 22.5208 76.5355 22.5378 78.1267C22.516 78.9048 22.6514 79.6792 22.9359 80.4035C23.2203 81.1277 23.648 81.7867 24.193 82.3409C24.7381 82.8951 25.3893 83.3329 26.1075 83.6281C26.8257 83.9232 27.5961 84.0696 28.3722 84.0584C29.5199 84.0953 30.651 83.7764 31.6115 83.1453C32.572 82.5143 33.3151 81.6016 33.7398 80.5317H35.8563Z" fill="#FF8A00"/>
<path d="M53.633 85.5353H51.5809V82.4685C50.9991 83.5592 50.1231 84.4638 49.053 85.0788C47.9828 85.6939 46.7618 85.9947 45.5293 85.9469C40.7008 85.9469 37.852 82.1941 37.852 78.1105C37.817 77.0835 37.9905 76.0601 38.3622 75.1025C38.7338 74.145 39.2958 73.2732 40.0139 72.5402C40.732 71.8072 41.5912 71.2283 42.5394 70.8388C43.4875 70.4492 44.5048 70.2571 45.5293 70.2741C46.7692 70.2228 47.9978 70.5283 49.0702 71.1547C50.1425 71.781 51.0137 72.7021 51.5809 73.809V70.6857H53.6169L53.633 85.5353ZM39.8719 78.1428C39.8586 78.9267 40.0037 79.7052 40.2987 80.4312C40.5937 81.1573 41.0323 81.8159 41.5881 82.3672C42.1439 82.9186 42.8054 83.3513 43.5325 83.6392C44.2597 83.9271 45.0375 84.0642 45.819 84.0423C46.9734 84.074 48.1088 83.7423 49.0657 83.0939C50.0226 82.4454 50.7531 81.5127 51.1544 80.4267C51.4855 79.6913 51.6556 78.8932 51.6533 78.0863C51.6809 77.27 51.5213 76.4582 51.1866 75.7136C50.7487 74.6384 49.9958 73.7217 49.0273 73.0848C48.0589 72.4479 46.9205 72.1207 45.7626 72.1465C44.9812 72.1354 44.2056 72.2825 43.4822 72.579C42.7588 72.8755 42.1025 73.3154 41.5526 73.8722C41.0026 74.429 40.5703 75.0913 40.2815 75.8196C39.9928 76.5478 39.8535 77.327 39.8719 78.1105V78.1428Z" fill="#FF8A00"/>
<path d="M72.3995 85.5353H70.444V82.4686C69.8603 83.5701 68.9759 84.4822 67.8942 85.0982C66.8126 85.7141 65.5784 86.0085 64.336 85.9469C59.6042 85.9469 56.6829 82.2507 56.6829 78.0863C56.6457 77.064 56.8163 76.0448 57.1844 75.0908C57.5525 74.1367 58.1105 73.2678 58.8242 72.5369C59.5379 71.806 60.3925 71.2285 61.336 70.8395C62.2794 70.4505 63.2919 70.2581 64.3119 70.2742C67.5309 70.2742 69.7036 72.1465 70.3635 73.696V65.1333H72.3995V85.5353ZM58.7189 78.1105C58.6988 78.8977 58.8392 79.6808 59.1313 80.4117C59.4235 81.1426 59.8614 81.806 60.4181 82.3613C60.9749 82.9167 61.6388 83.3522 62.3692 83.6412C63.0996 83.9302 63.8811 84.0667 64.666 84.0423C65.4473 84.0479 66.2218 83.8973 66.9444 83.5994C67.6671 83.3015 68.3233 82.8622 68.8748 82.3072C69.4236 81.7429 69.8527 81.073 70.1362 80.3379C70.4198 79.6027 70.5519 78.8176 70.5245 78.0298C70.5373 77.2547 70.3926 76.485 70.0993 75.7677C69.806 75.0504 69.3702 74.4005 68.8184 73.8574C67.9849 73.0367 66.9284 72.4808 65.7814 72.2592C64.6343 72.0376 63.4476 72.1601 62.3696 72.6115C61.2917 73.0629 60.3704 73.823 59.721 74.7968C59.0717 75.7706 58.7231 76.9149 58.7189 78.0863V78.1105Z" fill="#FF8A00"/>
<path d="M77.0992 85.5351H74.685L83.1911 65.1089H85.38L93.7815 85.5351H91.3029L88.937 79.7971H79.441L77.0992 85.5351ZM84.1729 67.6834L80.1492 77.9166H88.261L84.1729 67.6834Z" fill="#FF8A00"/>
<path d="M98.0145 65.1252H95.9785V85.5434H98.0145V65.1252Z" fill="#FF8A00"/>
<path d="M103.986 65.1252H101.95V85.5434H103.986V65.1252Z" fill="#FF8A00"/>
<path d="M111.88 85.2768L106.158 70.7017H108.331L112.983 82.7104L117.771 70.7017H120L111.55 91.1763H109.353L111.88 85.2768Z" fill="#FF8A00"/>
<path d="M75.7232 46.6116C73.9685 44.8598 71.9305 43.419 69.6956 42.3504L69.4864 42.2455C68.0734 41.5865 66.5953 41.0779 65.0764 40.7282L64.497 40.6072C64.3915 40.5836 64.2992 40.5199 64.2395 40.4296V40.3812L59.7249 30.3497L55.2747 20.4553C55.2483 20.3933 55.2375 20.3257 55.2433 20.2586C55.249 20.1914 55.2712 20.1266 55.3077 20.0701C55.3443 20.0135 55.3941 19.9667 55.4529 19.934C55.5117 19.9013 55.5776 19.8835 55.6448 19.8823H64.2958C64.3741 19.8831 64.4506 19.9062 64.5162 19.9491C64.5818 19.992 64.6338 20.0529 64.666 20.1244L76.383 46.1596C76.4225 46.2458 76.4303 46.3432 76.4053 46.4347C76.3803 46.5261 76.3239 46.6058 76.2461 46.6597C76.1683 46.7137 76.0741 46.7384 75.9799 46.7296C75.8858 46.7208 75.7977 46.679 75.7312 46.6116" fill="#FF8A00"/>
<path d="M44.1853 46.6116C45.9414 44.8578 47.9824 43.4169 50.2209 42.3504L50.4221 42.2455C51.8351 41.5865 53.3132 41.078 54.8321 40.7283L55.4115 40.6072C55.5193 40.5839 55.6142 40.5205 55.677 40.4297V40.3812L60.1917 30.3497L64.6419 20.4554C64.6704 20.3935 64.6829 20.3254 64.6781 20.2574C64.6733 20.1893 64.6514 20.1237 64.6144 20.0664C64.5775 20.0092 64.5266 19.9623 64.4667 19.9301C64.4068 19.8979 64.3397 19.8815 64.2717 19.8824H55.6046C55.5263 19.8831 55.4499 19.9063 55.3843 19.9492C55.3187 19.9921 55.2667 20.0529 55.2345 20.1245L43.5335 46.1597C43.4941 46.2459 43.4862 46.3432 43.5113 46.4347C43.5363 46.5261 43.5927 46.6058 43.6704 46.6598C43.7482 46.7137 43.8425 46.7384 43.9366 46.7296C44.0308 46.7208 44.1188 46.679 44.1853 46.6116Z" fill="#FF8A00"/>
<path d="M79.61 53.3586L79.4974 53.1568V53.1003C77.9966 50.3066 75.9176 47.867 73.4 45.9448C70.8823 44.0226 67.984 42.6623 64.8993 41.955C61.6457 41.2233 58.2708 41.2233 55.0171 41.955C50.0229 43.1126 45.5801 45.9632 42.439 50.0255C41.6988 50.983 41.0393 52.0007 40.4674 53.068V53.1245L40.3547 53.3263C40.3228 53.3881 40.3073 53.4573 40.3099 53.5269C40.3125 53.5966 40.333 53.6643 40.3695 53.7237C40.4059 53.783 40.4571 53.8318 40.518 53.8654C40.5789 53.899 40.6474 53.9163 40.7169 53.9154H49.6093C49.718 53.9152 49.8222 53.8716 49.899 53.7944C51.2094 52.4334 52.7797 51.351 54.5163 50.6118C56.2528 49.8725 58.12 49.4915 60.0065 49.4915C61.893 49.4915 63.7602 49.8725 65.4968 50.6118C67.2333 51.351 68.8036 52.4334 70.1141 53.7944C70.1515 53.8333 70.1966 53.8642 70.2464 53.885C70.2962 53.9059 70.3498 53.9162 70.4038 53.9154H79.3042C79.3728 53.9165 79.4404 53.8995 79.5005 53.8664C79.5605 53.8332 79.6109 53.7849 79.6466 53.7262C79.6824 53.6676 79.7023 53.6006 79.7043 53.5318C79.7064 53.4631 79.6905 53.395 79.6583 53.3343" fill="#FF8A00"/>
</g>
</g>
<defs>
<clipPath id="clip0_9229_6450">
<rect width="120" height="120" fill="white"/>
</clipPath>
<clipPath id="clip1_9229_6450">
<rect width="119.882" height="71.2941" fill="white" transform="translate(0.117676 19.8823)"/>
</clipPath>
</defs>
</svg>
