<svg width="48" height="42" viewBox="0 0 48 42" fill="none" xmlns="http://www.w3.org/2000/svg">
<path d="M43.1489 32.8149C41.0111 30.6804 38.5278 28.9249 35.8048 27.6229L35.5499 27.4951C33.8282 26.6921 32.0272 26.0725 30.1766 25.6464L29.4706 25.4989C29.3421 25.4701 29.2297 25.3926 29.1569 25.2826V25.2236L23.6561 13.0008L18.2338 0.945232C18.2017 0.869662 18.1885 0.787331 18.1956 0.705477C18.2026 0.623623 18.2296 0.544755 18.2741 0.475805C18.3187 0.406854 18.3794 0.349935 18.451 0.310051C18.5226 0.270167 18.6029 0.248538 18.6848 0.24707H29.2255C29.3209 0.247965 29.4141 0.276213 29.494 0.328484C29.5739 0.380755 29.6373 0.454863 29.6765 0.542064L43.953 32.2642C44.001 32.3693 44.0106 32.4879 43.9801 32.5993C43.9496 32.7108 43.8809 32.8078 43.7861 32.8736C43.6913 32.9393 43.5765 32.9694 43.4618 32.9587C43.3471 32.9479 43.2398 32.897 43.1587 32.8149" fill="#FF8A00"/>
<path d="M4.72226 32.8149C6.86185 30.6781 9.34872 28.9223 12.0762 27.623L12.3213 27.4951C14.043 26.6922 15.844 26.0726 17.6946 25.6465L18.4006 25.499C18.5319 25.4706 18.6475 25.3933 18.7241 25.2826V25.2236L24.2249 13.0009L29.6472 0.94527C29.682 0.869881 29.6972 0.786882 29.6913 0.704015C29.6855 0.621148 29.6588 0.541115 29.6137 0.471394C29.5687 0.401674 29.5068 0.34454 29.4338 0.305318C29.3607 0.266097 29.279 0.246069 29.1961 0.247109H18.6359C18.5405 0.248003 18.4473 0.276251 18.3674 0.328523C18.2875 0.380794 18.2241 0.454901 18.1849 0.542103L3.92804 32.2643C3.88001 32.3693 3.87042 32.4879 3.90092 32.5994C3.93143 32.7108 4.00011 32.8079 4.09489 32.8736C4.18967 32.9393 4.3045 32.9695 4.41922 32.9587C4.53395 32.948 4.64123 32.8971 4.72226 32.8149Z" fill="#FF8A00"/>
<path d="M47.8849 41.0357L47.7477 40.7899V40.7211C45.919 37.3172 43.386 34.3446 40.3184 32.0026C37.2508 29.6605 33.7194 28.0031 29.9609 27.1413C25.9965 26.2498 21.8845 26.2498 17.9201 27.1413C11.835 28.5517 6.4217 32.025 2.59453 36.9746C1.69261 38.1413 0.889067 39.3813 0.192237 40.6817V40.7506L0.0549489 40.9964C0.015994 41.0718 -0.00280755 41.156 0.000338988 41.2409C0.00348553 41.3257 0.0284718 41.4083 0.0729028 41.4806C0.117334 41.5529 0.1797 41.6124 0.253878 41.6533C0.328057 41.6943 0.411532 41.7153 0.496197 41.7142H11.331C11.4635 41.7139 11.5904 41.6609 11.684 41.5667C13.2807 39.9085 15.194 38.5897 17.3098 37.689C19.4257 36.7882 21.7008 36.324 23.9994 36.324C26.298 36.324 28.573 36.7882 30.6889 37.689C32.8047 38.5897 34.718 39.9085 36.3147 41.5667C36.3604 41.6142 36.4152 41.6519 36.476 41.6772C36.5367 41.7026 36.602 41.7152 36.6677 41.7142H47.5123C47.5959 41.7155 47.6783 41.6949 47.7514 41.6545C47.8246 41.614 47.8859 41.5552 47.9295 41.4837C47.9731 41.4122 47.9973 41.3306 47.9998 41.2469C48.0023 41.1631 47.983 41.0802 47.9438 41.0062" fill="#FF8A00"/>
</svg>
