<svg width="76" height="88" viewBox="0 0 76 88" fill="none" xmlns="http://www.w3.org/2000/svg">
<g clip-path="url(#clip0_14897_425504)">
<path d="M71.3429 0H4.08571C1.88571 0 0 1.88571 0 4.08571V83.6C0 86.1143 1.88571 88 4.08571 88H71.0286C73.2286 88 75.1143 86.1143 75.1143 83.9143V4.08571C75.4286 1.88571 73.5429 0 71.3429 0ZM72.2857 69.1429C72.2857 71.0286 70.7143 72.2857 69.1429 72.2857H6.28571C4.4 72.2857 3.14286 70.7143 3.14286 69.1429V6.28571C3.14286 4.4 4.71429 3.14286 6.28571 3.14286H69.1429C71.0286 3.14286 72.2857 4.71429 72.2857 6.28571V69.1429Z" fill="white"/>
<mask id="mask0_14897_425504" style="mask-type:luminance" maskUnits="userSpaceOnUse" x="0" y="0" width="76" height="88">
<path d="M71.3429 0H4.08571C1.88571 0 0 1.88571 0 4.08571V83.6C0 86.1143 1.88571 88 4.08571 88H71.0286C73.2286 88 75.1143 86.1143 75.1143 83.9143V4.08571C75.4286 1.88571 73.5429 0 71.3429 0ZM72.2857 69.1429C72.2857 71.0286 70.7143 72.2857 69.1429 72.2857H6.28571C4.4 72.2857 3.14286 70.7143 3.14286 69.1429V6.28571C3.14286 4.4 4.71429 3.14286 6.28571 3.14286H69.1429C71.0286 3.14286 72.2857 4.71429 72.2857 6.28571V69.1429Z" fill="white"/>
<path d="M18.6635 7.54285H17.395V8.81128H18.6635V7.54285Z" fill="white"/>
<path d="M19.8949 7.54285H18.6265V8.81128H19.8949V7.54285Z" fill="white"/>
<path d="M23.5892 7.54285H22.3208V8.81128H23.5892V7.54285Z" fill="white"/>
<path d="M24.8207 7.54285H23.5522V8.81128H24.8207V7.54285Z" fill="white"/>
<path d="M30.9784 7.54285H29.71V8.81128H30.9784V7.54285Z" fill="white"/>
<path d="M32.2098 7.54285H30.9414V8.81128H32.2098V7.54285Z" fill="white"/>
<path d="M34.6727 7.54285H33.4043V8.81128H34.6727V7.54285Z" fill="white"/>
<path d="M37.1356 7.54285H35.8672V8.81128H37.1356V7.54285Z" fill="white"/>
<path d="M38.3671 7.54285H37.0986V8.81128H38.3671V7.54285Z" fill="white"/>
<path d="M40.83 7.54285H39.5615V8.81128H40.83V7.54285Z" fill="white"/>
<path d="M45.7562 7.54285H44.4878V8.81128H45.7562V7.54285Z" fill="white"/>
<path d="M46.9877 7.54285H45.7192V8.81128H46.9877V7.54285Z" fill="white"/>
<path d="M51.9135 7.54285H50.645V8.81128H51.9135V7.54285Z" fill="white"/>
<path d="M54.3763 7.54285H53.1079V8.81128H54.3763V7.54285Z" fill="white"/>
<path d="M58.0707 7.54285H56.8022V8.81128H58.0707V7.54285Z" fill="white"/>
<path d="M18.6635 8.77432H17.395V10.0428H18.6635V8.77432Z" fill="white"/>
<path d="M19.8949 8.77432H18.6265V10.0428H19.8949V8.77432Z" fill="white"/>
<path d="M21.1263 8.77432H19.8579V10.0428H21.1263V8.77432Z" fill="white"/>
<path d="M24.8207 8.77432H23.5522V10.0428H24.8207V8.77432Z" fill="white"/>
<path d="M26.0521 8.77432H24.7837V10.0428H26.0521V8.77432Z" fill="white"/>
<path d="M29.7465 8.77432H28.478V10.0428H29.7465V8.77432Z" fill="white"/>
<path d="M34.6727 8.77432H33.4043V10.0428H34.6727V8.77432Z" fill="white"/>
<path d="M46.9877 8.77432H45.7192V10.0428H46.9877V8.77432Z" fill="white"/>
<path d="M50.682 8.77432H49.4136V10.0428H50.682V8.77432Z" fill="white"/>
<path d="M51.9135 8.77432H50.645V10.0428H51.9135V8.77432Z" fill="white"/>
<path d="M54.3763 8.77432H53.1079V10.0428H54.3763V8.77432Z" fill="white"/>
<path d="M55.6078 8.77432H54.3394V10.0428H55.6078V8.77432Z" fill="white"/>
<path d="M56.8392 8.77432H55.5708V10.0428H56.8392V8.77432Z" fill="white"/>
<path d="M58.0707 8.77432H56.8022V10.0428H58.0707V8.77432Z" fill="white"/>
<path d="M18.6635 10.0058H17.395V11.2743H18.6635V10.0058Z" fill="white"/>
<path d="M19.8949 10.0058H18.6265V11.2743H19.8949V10.0058Z" fill="white"/>
<path d="M22.3578 10.0058H21.0894V11.2743H22.3578V10.0058Z" fill="white"/>
<path d="M27.2836 10.0058H26.0151V11.2743H27.2836V10.0058Z" fill="white"/>
<path d="M29.7465 10.0058H28.478V11.2743H29.7465V10.0058Z" fill="white"/>
<path d="M32.2098 10.0058H30.9414V11.2743H32.2098V10.0058Z" fill="white"/>
<path d="M33.4413 10.0058H32.1729V11.2743H33.4413V10.0058Z" fill="white"/>
<path d="M35.9042 10.0058H34.6357V11.2743H35.9042V10.0058Z" fill="white"/>
<path d="M37.1356 10.0058H35.8672V11.2743H37.1356V10.0058Z" fill="white"/>
<path d="M38.3671 10.0058H37.0986V11.2743H38.3671V10.0058Z" fill="white"/>
<path d="M39.5985 10.0058H38.3301V11.2743H39.5985V10.0058Z" fill="white"/>
<path d="M40.83 10.0058H39.5615V11.2743H40.83V10.0058Z" fill="white"/>
<path d="M48.2191 10.0058H46.9507V11.2743H48.2191V10.0058Z" fill="white"/>
<path d="M56.8392 10.0058H55.5708V11.2743H56.8392V10.0058Z" fill="white"/>
<path d="M58.0707 10.0058H56.8022V11.2743H58.0707V10.0058Z" fill="white"/>
<path d="M19.8949 11.2373H18.6265V12.5057H19.8949V11.2373Z" fill="white"/>
<path d="M21.1263 11.2373H19.8579V12.5057H21.1263V11.2373Z" fill="white"/>
<path d="M22.3578 11.2373H21.0894V12.5057H22.3578V11.2373Z" fill="white"/>
<path d="M23.5892 11.2373H22.3208V12.5057H23.5892V11.2373Z" fill="white"/>
<path d="M26.0521 11.2373H24.7837V12.5057H26.0521V11.2373Z" fill="white"/>
<path d="M27.2836 11.2373H26.0151V12.5057H27.2836V11.2373Z" fill="white"/>
<path d="M28.515 11.2373H27.2466V12.5057H28.515V11.2373Z" fill="white"/>
<path d="M29.7465 11.2373H28.478V12.5057H29.7465V11.2373Z" fill="white"/>
<path d="M30.9784 11.2373H29.71V12.5057H30.9784V11.2373Z" fill="white"/>
<path d="M38.3671 11.2373H37.0986V12.5057H38.3671V11.2373Z" fill="white"/>
<path d="M39.5985 11.2373H38.3301V12.5057H39.5985V11.2373Z" fill="white"/>
<path d="M43.2928 11.2373H42.0244V12.5057H43.2928V11.2373Z" fill="white"/>
<path d="M44.5243 11.2373H43.2559V12.5057H44.5243V11.2373Z" fill="white"/>
<path d="M46.9877 11.2373H45.7192V12.5057H46.9877V11.2373Z" fill="white"/>
<path d="M48.2191 11.2373H46.9507V12.5057H48.2191V11.2373Z" fill="white"/>
<path d="M49.4506 11.2373H48.1821V12.5057H49.4506V11.2373Z" fill="white"/>
<path d="M51.9135 11.2373H50.645V12.5057H51.9135V11.2373Z" fill="white"/>
<path d="M53.1449 11.2373H51.8765V12.5057H53.1449V11.2373Z" fill="white"/>
<path d="M56.8392 11.2373H55.5708V12.5057H56.8392V11.2373Z" fill="white"/>
<path d="M21.1263 12.4688H19.8579V13.7372H21.1263V12.4688Z" fill="white"/>
<path d="M26.0521 12.4688H24.7837V13.7372H26.0521V12.4688Z" fill="white"/>
<path d="M32.2098 12.4688H30.9414V13.7372H32.2098V12.4688Z" fill="white"/>
<path d="M34.6727 12.4688H33.4043V13.7372H34.6727V12.4688Z" fill="white"/>
<path d="M35.9042 12.4688H34.6357V13.7372H35.9042V12.4688Z" fill="white"/>
<path d="M37.1356 12.4688H35.8672V13.7372H37.1356V12.4688Z" fill="white"/>
<path d="M38.3671 12.4688H37.0986V13.7372H38.3671V12.4688Z" fill="white"/>
<path d="M39.5985 12.4688H38.3301V13.7372H39.5985V12.4688Z" fill="white"/>
<path d="M40.83 12.4688H39.5615V13.7372H40.83V12.4688Z" fill="white"/>
<path d="M42.0614 12.4688H40.793V13.7372H42.0614V12.4688Z" fill="white"/>
<path d="M53.1449 12.4688H51.8765V13.7372H53.1449V12.4688Z" fill="white"/>
<path d="M54.3763 12.4688H53.1079V13.7372H54.3763V12.4688Z" fill="white"/>
<path d="M18.6635 13.7003H17.395V14.9687H18.6635V13.7003Z" fill="white"/>
<path d="M19.8949 13.7003H18.6265V14.9687H19.8949V13.7003Z" fill="white"/>
<path d="M21.1263 13.7003H19.8579V14.9687H21.1263V13.7003Z" fill="white"/>
<path d="M22.3578 13.7003H21.0894V14.9687H22.3578V13.7003Z" fill="white"/>
<path d="M23.5892 13.7003H22.3208V14.9687H23.5892V13.7003Z" fill="white"/>
<path d="M24.8207 13.7003H23.5522V14.9687H24.8207V13.7003Z" fill="white"/>
<path d="M26.0521 13.7003H24.7837V14.9687H26.0521V13.7003Z" fill="white"/>
<path d="M27.2836 13.7003H26.0151V14.9687H27.2836V13.7003Z" fill="white"/>
<path d="M33.4413 13.7003H32.1729V14.9687H33.4413V13.7003Z" fill="white"/>
<path d="M35.9042 13.7003H34.6357V14.9687H35.9042V13.7003Z" fill="white"/>
<path d="M40.83 13.7003H39.5615V14.9687H40.83V13.7003Z" fill="white"/>
<path d="M43.2928 13.7003H42.0244V14.9687H43.2928V13.7003Z" fill="white"/>
<path d="M44.5243 13.7003H43.2559V14.9687H44.5243V13.7003Z" fill="white"/>
<path d="M45.7562 13.7003H44.4878V14.9687H45.7562V13.7003Z" fill="white"/>
<path d="M46.9877 13.7003H45.7192V14.9687H46.9877V13.7003Z" fill="white"/>
<path d="M49.4506 13.7003H48.1821V14.9687H49.4506V13.7003Z" fill="white"/>
<path d="M50.682 13.7003H49.4136V14.9687H50.682V13.7003Z" fill="white"/>
<path d="M51.9135 13.7003H50.645V14.9687H51.9135V13.7003Z" fill="white"/>
<path d="M55.6078 13.7003H54.3394V14.9687H55.6078V13.7003Z" fill="white"/>
<path d="M18.6635 14.9318H17.395V16.2002H18.6635V14.9318Z" fill="white"/>
<path d="M21.1263 14.9318H19.8579V16.2002H21.1263V14.9318Z" fill="white"/>
<path d="M23.5892 14.9318H22.3208V16.2002H23.5892V14.9318Z" fill="white"/>
<path d="M26.0521 14.9318H24.7837V16.2002H26.0521V14.9318Z" fill="white"/>
<path d="M28.515 14.9318H27.2466V16.2002H28.515V14.9318Z" fill="white"/>
<path d="M30.9784 14.9318H29.71V16.2002H30.9784V14.9318Z" fill="white"/>
<path d="M33.4413 14.9318H32.1729V16.2002H33.4413V14.9318Z" fill="white"/>
<path d="M35.9042 14.9318H34.6357V16.2002H35.9042V14.9318Z" fill="white"/>
<path d="M38.3671 14.9318H37.0986V16.2002H38.3671V14.9318Z" fill="white"/>
<path d="M40.83 14.9318H39.5615V16.2002H40.83V14.9318Z" fill="white"/>
<path d="M43.2928 14.9318H42.0244V16.2002H43.2928V14.9318Z" fill="white"/>
<path d="M45.7562 14.9318H44.4878V16.2002H45.7562V14.9318Z" fill="white"/>
<path d="M48.2191 14.9318H46.9507V16.2002H48.2191V14.9318Z" fill="white"/>
<path d="M50.682 14.9318H49.4136V16.2002H50.682V14.9318Z" fill="white"/>
<path d="M53.1449 14.9318H51.8765V16.2002H53.1449V14.9318Z" fill="white"/>
<path d="M55.6078 14.9318H54.3394V16.2002H55.6078V14.9318Z" fill="white"/>
<path d="M58.0707 14.9318H56.8022V16.2002H58.0707V14.9318Z" fill="white"/>
<path d="M18.6635 16.1633H17.395V17.4317H18.6635V16.1633Z" fill="white"/>
<path d="M21.1263 16.1633H19.8579V17.4317H21.1263V16.1633Z" fill="white"/>
<path d="M24.8207 16.1633H23.5522V17.4317H24.8207V16.1633Z" fill="white"/>
<path d="M26.0521 16.1633H24.7837V17.4317H26.0521V16.1633Z" fill="white"/>
<path d="M28.515 16.1633H27.2466V17.4317H28.515V16.1633Z" fill="white"/>
<path d="M29.7465 16.1633H28.478V17.4317H29.7465V16.1633Z" fill="white"/>
<path d="M32.2098 16.1633H30.9414V17.4317H32.2098V16.1633Z" fill="white"/>
<path d="M33.4413 16.1633H32.1729V17.4317H33.4413V16.1633Z" fill="white"/>
<path d="M34.6727 16.1633H33.4043V17.4317H34.6727V16.1633Z" fill="white"/>
<path d="M35.9042 16.1633H34.6357V17.4317H35.9042V16.1633Z" fill="white"/>
<path d="M40.83 16.1633H39.5615V17.4317H40.83V16.1633Z" fill="white"/>
<path d="M46.9877 16.1633H45.7192V17.4317H46.9877V16.1633Z" fill="white"/>
<path d="M49.4506 16.1633H48.1821V17.4317H49.4506V16.1633Z" fill="white"/>
<path d="M53.1449 16.1633H51.8765V17.4317H53.1449V16.1633Z" fill="white"/>
<path d="M54.3763 16.1633H53.1079V17.4317H54.3763V16.1633Z" fill="white"/>
<path d="M55.6078 16.1633H54.3394V17.4317H55.6078V16.1633Z" fill="white"/>
<path d="M56.8392 16.1633H55.5708V17.4317H56.8392V16.1633Z" fill="white"/>
<path d="M11.2743 17.3947H10.0059V18.6632H11.2743V17.3947Z" fill="white"/>
<path d="M12.5057 17.3947H11.2373V18.6632H12.5057V17.3947Z" fill="white"/>
<path d="M13.7372 17.3947H12.4688V18.6632H13.7372V17.3947Z" fill="white"/>
<path d="M16.2006 17.3947H14.9321V18.6632H16.2006V17.3947Z" fill="white"/>
<path d="M18.6635 17.3947H17.395V18.6632H18.6635V17.3947Z" fill="white"/>
<path d="M19.8949 17.3947H18.6265V18.6632H19.8949V17.3947Z" fill="white"/>
<path d="M22.3578 17.3947H21.0894V18.6632H22.3578V17.3947Z" fill="white"/>
<path d="M26.0521 17.3947H24.7837V18.6632H26.0521V17.3947Z" fill="white"/>
<path d="M29.7465 17.3947H28.478V18.6632H29.7465V17.3947Z" fill="white"/>
<path d="M33.4413 17.3947H32.1729V18.6632H33.4413V17.3947Z" fill="white"/>
<path d="M35.9042 17.3947H34.6357V18.6632H35.9042V17.3947Z" fill="white"/>
<path d="M37.1356 17.3947H35.8672V18.6632H37.1356V17.3947Z" fill="white"/>
<path d="M38.3671 17.3947H37.0986V18.6632H38.3671V17.3947Z" fill="white"/>
<path d="M39.5985 17.3947H38.3301V18.6632H39.5985V17.3947Z" fill="white"/>
<path d="M40.83 17.3947H39.5615V18.6632H40.83V17.3947Z" fill="white"/>
<path d="M42.0614 17.3947H40.793V18.6632H42.0614V17.3947Z" fill="white"/>
<path d="M43.2928 17.3947H42.0244V18.6632H43.2928V17.3947Z" fill="white"/>
<path d="M44.5243 17.3947H43.2559V18.6632H44.5243V17.3947Z" fill="white"/>
<path d="M45.7562 17.3947H44.4878V18.6632H45.7562V17.3947Z" fill="white"/>
<path d="M46.9877 17.3947H45.7192V18.6632H46.9877V17.3947Z" fill="white"/>
<path d="M51.9135 17.3947H50.645V18.6632H51.9135V17.3947Z" fill="white"/>
<path d="M54.3763 17.3947H53.1079V18.6632H54.3763V17.3947Z" fill="white"/>
<path d="M55.6078 17.3947H54.3394V18.6632H55.6078V17.3947Z" fill="white"/>
<path d="M56.8392 17.3947H55.5708V18.6632H56.8392V17.3947Z" fill="white"/>
<path d="M58.0707 17.3947H56.8022V18.6632H58.0707V17.3947Z" fill="white"/>
<path d="M59.3021 17.3947H58.0337V18.6632H59.3021V17.3947Z" fill="white"/>
<path d="M60.5341 17.3947H59.2656V18.6632H60.5341V17.3947Z" fill="white"/>
<path d="M61.7655 17.3947H60.4971V18.6632H61.7655V17.3947Z" fill="white"/>
<path d="M65.4598 17.3947H64.1914V18.6632H65.4598V17.3947Z" fill="white"/>
<path d="M66.6913 17.3947H65.4229V18.6632H66.6913V17.3947Z" fill="white"/>
<path d="M67.9227 17.3947H66.6543V18.6632H67.9227V17.3947Z" fill="white"/>
<path d="M11.2743 18.6262H10.0059V19.8947H11.2743V18.6262Z" fill="white"/>
<path d="M13.7372 18.6262H12.4688V19.8947H13.7372V18.6262Z" fill="white"/>
<path d="M14.9686 18.6262H13.7002V19.8947H14.9686V18.6262Z" fill="white"/>
<path d="M19.8949 18.6262H18.6265V19.8947H19.8949V18.6262Z" fill="white"/>
<path d="M21.1263 18.6262H19.8579V19.8947H21.1263V18.6262Z" fill="white"/>
<path d="M22.3578 18.6262H21.0894V19.8947H22.3578V18.6262Z" fill="white"/>
<path d="M23.5892 18.6262H22.3208V19.8947H23.5892V18.6262Z" fill="white"/>
<path d="M27.2836 18.6262H26.0151V19.8947H27.2836V18.6262Z" fill="white"/>
<path d="M29.7465 18.6262H28.478V19.8947H29.7465V18.6262Z" fill="white"/>
<path d="M32.2098 18.6262H30.9414V19.8947H32.2098V18.6262Z" fill="white"/>
<path d="M33.4413 18.6262H32.1729V19.8947H33.4413V18.6262Z" fill="white"/>
<path d="M34.6727 18.6262H33.4043V19.8947H34.6727V18.6262Z" fill="white"/>
<path d="M37.1356 18.6262H35.8672V19.8947H37.1356V18.6262Z" fill="white"/>
<path d="M44.5243 18.6262H43.2559V19.8947H44.5243V18.6262Z" fill="white"/>
<path d="M45.7562 18.6262H44.4878V19.8947H45.7562V18.6262Z" fill="white"/>
<path d="M46.9877 18.6262H45.7192V19.8947H46.9877V18.6262Z" fill="white"/>
<path d="M48.2191 18.6262H46.9507V19.8947H48.2191V18.6262Z" fill="white"/>
<path d="M54.3763 18.6262H53.1079V19.8947H54.3763V18.6262Z" fill="white"/>
<path d="M60.5341 18.6262H59.2656V19.8947H60.5341V18.6262Z" fill="white"/>
<path d="M64.2284 18.6262H62.96V19.8947H64.2284V18.6262Z" fill="white"/>
<path d="M66.6913 18.6262H65.4229V19.8947H66.6913V18.6262Z" fill="white"/>
<path d="M12.5057 19.8577H11.2373V21.1262H12.5057V19.8577Z" fill="white"/>
<path d="M13.7372 19.8577H12.4688V21.1262H13.7372V19.8577Z" fill="white"/>
<path d="M16.2006 19.8577H14.9321V21.1262H16.2006V19.8577Z" fill="white"/>
<path d="M17.432 19.8577H16.1636V21.1262H17.432V19.8577Z" fill="white"/>
<path d="M19.8949 19.8577H18.6265V21.1262H19.8949V19.8577Z" fill="white"/>
<path d="M21.1263 19.8577H19.8579V21.1262H21.1263V19.8577Z" fill="white"/>
<path d="M23.5892 19.8577H22.3208V21.1262H23.5892V19.8577Z" fill="white"/>
<path d="M24.8207 19.8577H23.5522V21.1262H24.8207V19.8577Z" fill="white"/>
<path d="M26.0521 19.8577H24.7837V21.1262H26.0521V19.8577Z" fill="white"/>
<path d="M30.9784 19.8577H29.71V21.1262H30.9784V19.8577Z" fill="white"/>
<path d="M34.6727 19.8577H33.4043V21.1262H34.6727V19.8577Z" fill="white"/>
<path d="M43.2928 19.8577H42.0244V21.1262H43.2928V19.8577Z" fill="white"/>
<path d="M45.7562 19.8577H44.4878V21.1262H45.7562V19.8577Z" fill="white"/>
<path d="M50.682 19.8577H49.4136V21.1262H50.682V19.8577Z" fill="white"/>
<path d="M51.9135 19.8577H50.645V21.1262H51.9135V19.8577Z" fill="white"/>
<path d="M55.6078 19.8577H54.3394V21.1262H55.6078V19.8577Z" fill="white"/>
<path d="M56.8392 19.8577H55.5708V21.1262H56.8392V19.8577Z" fill="white"/>
<path d="M58.0707 19.8577H56.8022V21.1262H58.0707V19.8577Z" fill="white"/>
<path d="M59.3021 19.8577H58.0337V21.1262H59.3021V19.8577Z" fill="white"/>
<path d="M61.7655 19.8577H60.4971V21.1262H61.7655V19.8577Z" fill="white"/>
<path d="M65.4598 19.8577H64.1914V21.1262H65.4598V19.8577Z" fill="white"/>
<path d="M67.9227 19.8577H66.6543V21.1262H67.9227V19.8577Z" fill="white"/>
<path d="M11.2743 21.0892H10.0059V22.3576H11.2743V21.0892Z" fill="white"/>
<path d="M12.5057 21.0892H11.2373V22.3576H12.5057V21.0892Z" fill="white"/>
<path d="M19.8949 21.0892H18.6265V22.3576H19.8949V21.0892Z" fill="white"/>
<path d="M22.3578 21.0892H21.0894V22.3576H22.3578V21.0892Z" fill="white"/>
<path d="M23.5892 21.0892H22.3208V22.3576H23.5892V21.0892Z" fill="white"/>
<path d="M24.8207 21.0892H23.5522V22.3576H24.8207V21.0892Z" fill="white"/>
<path d="M28.515 21.0892H27.2466V22.3576H28.515V21.0892Z" fill="white"/>
<path d="M34.6727 21.0892H33.4043V22.3576H34.6727V21.0892Z" fill="white"/>
<path d="M40.83 21.0892H39.5615V22.3576H40.83V21.0892Z" fill="white"/>
<path d="M44.5243 21.0892H43.2559V22.3576H44.5243V21.0892Z" fill="white"/>
<path d="M45.7562 21.0892H44.4878V22.3576H45.7562V21.0892Z" fill="white"/>
<path d="M46.9877 21.0892H45.7192V22.3576H46.9877V21.0892Z" fill="white"/>
<path d="M48.2191 21.0892H46.9507V22.3576H48.2191V21.0892Z" fill="white"/>
<path d="M50.682 21.0892H49.4136V22.3576H50.682V21.0892Z" fill="white"/>
<path d="M51.9135 21.0892H50.645V22.3576H51.9135V21.0892Z" fill="white"/>
<path d="M55.6078 21.0892H54.3394V22.3576H55.6078V21.0892Z" fill="white"/>
<path d="M58.0707 21.0892H56.8022V22.3576H58.0707V21.0892Z" fill="white"/>
<path d="M60.5341 21.0892H59.2656V22.3576H60.5341V21.0892Z" fill="white"/>
<path d="M61.7655 21.0892H60.4971V22.3576H61.7655V21.0892Z" fill="white"/>
<path d="M62.9969 21.0892H61.7285V22.3576H62.9969V21.0892Z" fill="white"/>
<path d="M66.6913 21.0892H65.4229V22.3576H66.6913V21.0892Z" fill="white"/>
<path d="M10.0428 22.3207H8.77441V23.5891H10.0428V22.3207Z" fill="white"/>
<path d="M11.2743 22.3207H10.0059V23.5891H11.2743V22.3207Z" fill="white"/>
<path d="M13.7372 22.3207H12.4688V23.5891H13.7372V22.3207Z" fill="white"/>
<path d="M14.9686 22.3207H13.7002V23.5891H14.9686V22.3207Z" fill="white"/>
<path d="M16.2006 22.3207H14.9321V23.5891H16.2006V22.3207Z" fill="white"/>
<path d="M17.432 22.3207H16.1636V23.5891H17.432V22.3207Z" fill="white"/>
<path d="M19.8949 22.3207H18.6265V23.5891H19.8949V22.3207Z" fill="white"/>
<path d="M21.1263 22.3207H19.8579V23.5891H21.1263V22.3207Z" fill="white"/>
<path d="M23.5892 22.3207H22.3208V23.5891H23.5892V22.3207Z" fill="white"/>
<path d="M28.515 22.3207H27.2466V23.5891H28.515V22.3207Z" fill="white"/>
<path d="M34.6727 22.3207H33.4043V23.5891H34.6727V22.3207Z" fill="white"/>
<path d="M35.9042 22.3207H34.6357V23.5891H35.9042V22.3207Z" fill="white"/>
<path d="M37.1356 22.3207H35.8672V23.5891H37.1356V22.3207Z" fill="white"/>
<path d="M39.5985 22.3207H38.3301V23.5891H39.5985V22.3207Z" fill="white"/>
<path d="M42.0614 22.3207H40.793V23.5891H42.0614V22.3207Z" fill="white"/>
<path d="M46.9877 22.3207H45.7192V23.5891H46.9877V22.3207Z" fill="white"/>
<path d="M53.1449 22.3207H51.8765V23.5891H53.1449V22.3207Z" fill="white"/>
<path d="M54.3763 22.3207H53.1079V23.5891H54.3763V22.3207Z" fill="white"/>
<path d="M56.8392 22.3207H55.5708V23.5891H56.8392V22.3207Z" fill="white"/>
<path d="M58.0707 22.3207H56.8022V23.5891H58.0707V22.3207Z" fill="white"/>
<path d="M59.3021 22.3207H58.0337V23.5891H59.3021V22.3207Z" fill="white"/>
<path d="M60.5341 22.3207H59.2656V23.5891H60.5341V22.3207Z" fill="white"/>
<path d="M61.7655 22.3207H60.4971V23.5891H61.7655V22.3207Z" fill="white"/>
<path d="M64.2284 22.3207H62.96V23.5891H64.2284V22.3207Z" fill="white"/>
<path d="M65.4598 22.3207H64.1914V23.5891H65.4598V22.3207Z" fill="white"/>
<path d="M67.9227 22.3207H66.6543V23.5891H67.9227V22.3207Z" fill="white"/>
<path d="M8.8114 23.5522H7.54297V24.8206H8.8114V23.5522Z" fill="white"/>
<path d="M10.0428 23.5522H8.77441V24.8206H10.0428V23.5522Z" fill="white"/>
<path d="M12.5057 23.5522H11.2373V24.8206H12.5057V23.5522Z" fill="white"/>
<path d="M13.7372 23.5522H12.4688V24.8206H13.7372V23.5522Z" fill="white"/>
<path d="M14.9686 23.5522H13.7002V24.8206H14.9686V23.5522Z" fill="white"/>
<path d="M21.1263 23.5522H19.8579V24.8206H21.1263V23.5522Z" fill="white"/>
<path d="M22.3578 23.5522H21.0894V24.8206H22.3578V23.5522Z" fill="white"/>
<path d="M23.5892 23.5522H22.3208V24.8206H23.5892V23.5522Z" fill="white"/>
<path d="M24.8207 23.5522H23.5522V24.8206H24.8207V23.5522Z" fill="white"/>
<path d="M26.0521 23.5522H24.7837V24.8206H26.0521V23.5522Z" fill="white"/>
<path d="M27.2836 23.5522H26.0151V24.8206H27.2836V23.5522Z" fill="white"/>
<path d="M37.1356 23.5522H35.8672V24.8206H37.1356V23.5522Z" fill="white"/>
<path d="M42.0614 23.5522H40.793V24.8206H42.0614V23.5522Z" fill="white"/>
<path d="M43.2928 23.5522H42.0244V24.8206H43.2928V23.5522Z" fill="white"/>
<path d="M44.5243 23.5522H43.2559V24.8206H44.5243V23.5522Z" fill="white"/>
<path d="M53.1449 23.5522H51.8765V24.8206H53.1449V23.5522Z" fill="white"/>
<path d="M56.8392 23.5522H55.5708V24.8206H56.8392V23.5522Z" fill="white"/>
<path d="M59.3021 23.5522H58.0337V24.8206H59.3021V23.5522Z" fill="white"/>
<path d="M60.5341 23.5522H59.2656V24.8206H60.5341V23.5522Z" fill="white"/>
<path d="M61.7655 23.5522H60.4971V24.8206H61.7655V23.5522Z" fill="white"/>
<path d="M65.4598 23.5522H64.1914V24.8206H65.4598V23.5522Z" fill="white"/>
<path d="M10.0428 24.7837H8.77441V26.0521H10.0428V24.7837Z" fill="white"/>
<path d="M13.7372 24.7837H12.4688V26.0521H13.7372V24.7837Z" fill="white"/>
<path d="M14.9686 24.7837H13.7002V26.0521H14.9686V24.7837Z" fill="white"/>
<path d="M16.2006 24.7837H14.9321V26.0521H16.2006V24.7837Z" fill="white"/>
<path d="M22.3578 24.7837H21.0894V26.0521H22.3578V24.7837Z" fill="white"/>
<path d="M23.5892 24.7837H22.3208V26.0521H23.5892V24.7837Z" fill="white"/>
<path d="M24.8207 24.7837H23.5522V26.0521H24.8207V24.7837Z" fill="white"/>
<path d="M27.2836 24.7837H26.0151V26.0521H27.2836V24.7837Z" fill="white"/>
<path d="M30.9784 24.7837H29.71V26.0521H30.9784V24.7837Z" fill="white"/>
<path d="M32.2098 24.7837H30.9414V26.0521H32.2098V24.7837Z" fill="white"/>
<path d="M34.6727 24.7837H33.4043V26.0521H34.6727V24.7837Z" fill="white"/>
<path d="M37.1356 24.7837H35.8672V26.0521H37.1356V24.7837Z" fill="white"/>
<path d="M38.3671 24.7837H37.0986V26.0521H38.3671V24.7837Z" fill="white"/>
<path d="M42.0614 24.7837H40.793V26.0521H42.0614V24.7837Z" fill="white"/>
<path d="M43.2928 24.7837H42.0244V26.0521H43.2928V24.7837Z" fill="white"/>
<path d="M45.7562 24.7837H44.4878V26.0521H45.7562V24.7837Z" fill="white"/>
<path d="M48.2191 24.7837H46.9507V26.0521H48.2191V24.7837Z" fill="white"/>
<path d="M49.4506 24.7837H48.1821V26.0521H49.4506V24.7837Z" fill="white"/>
<path d="M50.682 24.7837H49.4136V26.0521H50.682V24.7837Z" fill="white"/>
<path d="M51.9135 24.7837H50.645V26.0521H51.9135V24.7837Z" fill="white"/>
<path d="M55.6078 24.7837H54.3394V26.0521H55.6078V24.7837Z" fill="white"/>
<path d="M56.8392 24.7837H55.5708V26.0521H56.8392V24.7837Z" fill="white"/>
<path d="M58.0707 24.7837H56.8022V26.0521H58.0707V24.7837Z" fill="white"/>
<path d="M64.2284 24.7837H62.96V26.0521H64.2284V24.7837Z" fill="white"/>
<path d="M65.4598 24.7837H64.1914V26.0521H65.4598V24.7837Z" fill="white"/>
<path d="M66.6913 24.7837H65.4229V26.0521H66.6913V24.7837Z" fill="white"/>
<path d="M67.9227 24.7837H66.6543V26.0521H67.9227V24.7837Z" fill="white"/>
<path d="M8.8114 26.0151H7.54297V27.2836H8.8114V26.0151Z" fill="white"/>
<path d="M11.2743 26.0151H10.0059V27.2836H11.2743V26.0151Z" fill="white"/>
<path d="M12.5057 26.0151H11.2373V27.2836H12.5057V26.0151Z" fill="white"/>
<path d="M13.7372 26.0151H12.4688V27.2836H13.7372V26.0151Z" fill="white"/>
<path d="M14.9686 26.0151H13.7002V27.2836H14.9686V26.0151Z" fill="white"/>
<path d="M17.432 26.0151H16.1636V27.2836H17.432V26.0151Z" fill="white"/>
<path d="M18.6635 26.0151H17.395V27.2836H18.6635V26.0151Z" fill="white"/>
<path d="M19.8949 26.0151H18.6265V27.2836H19.8949V26.0151Z" fill="white"/>
<path d="M27.2836 26.0151H26.0151V27.2836H27.2836V26.0151Z" fill="white"/>
<path d="M32.2098 26.0151H30.9414V27.2836H32.2098V26.0151Z" fill="white"/>
<path d="M33.4413 26.0151H32.1729V27.2836H33.4413V26.0151Z" fill="white"/>
<path d="M34.6727 26.0151H33.4043V27.2836H34.6727V26.0151Z" fill="white"/>
<path d="M37.1356 26.0151H35.8672V27.2836H37.1356V26.0151Z" fill="white"/>
<path d="M38.3671 26.0151H37.0986V27.2836H38.3671V26.0151Z" fill="white"/>
<path d="M40.83 26.0151H39.5615V27.2836H40.83V26.0151Z" fill="white"/>
<path d="M44.5243 26.0151H43.2559V27.2836H44.5243V26.0151Z" fill="white"/>
<path d="M45.7562 26.0151H44.4878V27.2836H45.7562V26.0151Z" fill="white"/>
<path d="M48.2191 26.0151H46.9507V27.2836H48.2191V26.0151Z" fill="white"/>
<path d="M49.4506 26.0151H48.1821V27.2836H49.4506V26.0151Z" fill="white"/>
<path d="M56.8392 26.0151H55.5708V27.2836H56.8392V26.0151Z" fill="white"/>
<path d="M58.0707 26.0151H56.8022V27.2836H58.0707V26.0151Z" fill="white"/>
<path d="M59.3021 26.0151H58.0337V27.2836H59.3021V26.0151Z" fill="white"/>
<path d="M62.9969 26.0151H61.7285V27.2836H62.9969V26.0151Z" fill="white"/>
<path d="M64.2284 26.0151H62.96V27.2836H64.2284V26.0151Z" fill="white"/>
<path d="M12.5057 27.2466H11.2373V28.5151H12.5057V27.2466Z" fill="white"/>
<path d="M16.2006 27.2466H14.9321V28.5151H16.2006V27.2466Z" fill="white"/>
<path d="M18.6635 27.2466H17.395V28.5151H18.6635V27.2466Z" fill="white"/>
<path d="M19.8949 27.2466H18.6265V28.5151H19.8949V27.2466Z" fill="white"/>
<path d="M24.8207 27.2466H23.5522V28.5151H24.8207V27.2466Z" fill="white"/>
<path d="M26.0521 27.2466H24.7837V28.5151H26.0521V27.2466Z" fill="white"/>
<path d="M28.515 27.2466H27.2466V28.5151H28.515V27.2466Z" fill="white"/>
<path d="M32.2098 27.2466H30.9414V28.5151H32.2098V27.2466Z" fill="white"/>
<path d="M33.4413 27.2466H32.1729V28.5151H33.4413V27.2466Z" fill="white"/>
<path d="M35.9042 27.2466H34.6357V28.5151H35.9042V27.2466Z" fill="white"/>
<path d="M39.5985 27.2466H38.3301V28.5151H39.5985V27.2466Z" fill="white"/>
<path d="M42.0614 27.2466H40.793V28.5151H42.0614V27.2466Z" fill="white"/>
<path d="M43.2928 27.2466H42.0244V28.5151H43.2928V27.2466Z" fill="white"/>
<path d="M44.5243 27.2466H43.2559V28.5151H44.5243V27.2466Z" fill="white"/>
<path d="M45.7562 27.2466H44.4878V28.5151H45.7562V27.2466Z" fill="white"/>
<path d="M46.9877 27.2466H45.7192V28.5151H46.9877V27.2466Z" fill="white"/>
<path d="M51.9135 27.2466H50.645V28.5151H51.9135V27.2466Z" fill="white"/>
<path d="M53.1449 27.2466H51.8765V28.5151H53.1449V27.2466Z" fill="white"/>
<path d="M54.3763 27.2466H53.1079V28.5151H54.3763V27.2466Z" fill="white"/>
<path d="M56.8392 27.2466H55.5708V28.5151H56.8392V27.2466Z" fill="white"/>
<path d="M61.7655 27.2466H60.4971V28.5151H61.7655V27.2466Z" fill="white"/>
<path d="M64.2284 27.2466H62.96V28.5151H64.2284V27.2466Z" fill="white"/>
<path d="M67.9227 27.2466H66.6543V28.5151H67.9227V27.2466Z" fill="white"/>
<path d="M10.0428 28.4781H8.77441V29.7466H10.0428V28.4781Z" fill="white"/>
<path d="M11.2743 28.4781H10.0059V29.7466H11.2743V28.4781Z" fill="white"/>
<path d="M17.432 28.4781H16.1636V29.7466H17.432V28.4781Z" fill="white"/>
<path d="M18.6635 28.4781H17.395V29.7466H18.6635V28.4781Z" fill="white"/>
<path d="M19.8949 28.4781H18.6265V29.7466H19.8949V28.4781Z" fill="white"/>
<path d="M22.3578 28.4781H21.0894V29.7466H22.3578V28.4781Z" fill="white"/>
<path d="M24.8207 28.4781H23.5522V29.7466H24.8207V28.4781Z" fill="white"/>
<path d="M28.515 28.4781H27.2466V29.7466H28.515V28.4781Z" fill="white"/>
<path d="M48.2191 28.4781H46.9507V29.7466H48.2191V28.4781Z" fill="white"/>
<path d="M49.4506 28.4781H48.1821V29.7466H49.4506V28.4781Z" fill="white"/>
<path d="M58.0707 28.4781H56.8022V29.7466H58.0707V28.4781Z" fill="white"/>
<path d="M59.3021 28.4781H58.0337V29.7466H59.3021V28.4781Z" fill="white"/>
<path d="M61.7655 28.4781H60.4971V29.7466H61.7655V28.4781Z" fill="white"/>
<path d="M62.9969 28.4781H61.7285V29.7466H62.9969V28.4781Z" fill="white"/>
<path d="M64.2284 28.4781H62.96V29.7466H64.2284V28.4781Z" fill="white"/>
<path d="M65.4598 28.4781H64.1914V29.7466H65.4598V28.4781Z" fill="white"/>
<path d="M10.0428 29.7096H8.77441V30.978H10.0428V29.7096Z" fill="white"/>
<path d="M11.2743 29.7096H10.0059V30.978H11.2743V29.7096Z" fill="white"/>
<path d="M13.7372 29.7096H12.4688V30.978H13.7372V29.7096Z" fill="white"/>
<path d="M16.2006 29.7096H14.9321V30.978H16.2006V29.7096Z" fill="white"/>
<path d="M17.432 29.7096H16.1636V30.978H17.432V29.7096Z" fill="white"/>
<path d="M19.8949 29.7096H18.6265V30.978H19.8949V29.7096Z" fill="white"/>
<path d="M21.1263 29.7096H19.8579V30.978H21.1263V29.7096Z" fill="white"/>
<path d="M22.3578 29.7096H21.0894V30.978H22.3578V29.7096Z" fill="white"/>
<path d="M24.8207 29.7096H23.5522V30.978H24.8207V29.7096Z" fill="white"/>
<path d="M26.0521 29.7096H24.7837V30.978H26.0521V29.7096Z" fill="white"/>
<path d="M48.2191 29.7096H46.9507V30.978H48.2191V29.7096Z" fill="white"/>
<path d="M53.1449 29.7096H51.8765V30.978H53.1449V29.7096Z" fill="white"/>
<path d="M54.3763 29.7096H53.1079V30.978H54.3763V29.7096Z" fill="white"/>
<path d="M56.8392 29.7096H55.5708V30.978H56.8392V29.7096Z" fill="white"/>
<path d="M58.0707 29.7096H56.8022V30.978H58.0707V29.7096Z" fill="white"/>
<path d="M60.5341 29.7096H59.2656V30.978H60.5341V29.7096Z" fill="white"/>
<path d="M61.7655 29.7096H60.4971V30.978H61.7655V29.7096Z" fill="white"/>
<path d="M64.2284 29.7096H62.96V30.978H64.2284V29.7096Z" fill="white"/>
<path d="M66.6913 29.7096H65.4229V30.978H66.6913V29.7096Z" fill="white"/>
<path d="M67.9227 29.7096H66.6543V30.978H67.9227V29.7096Z" fill="white"/>
<path d="M8.8114 30.9411H7.54297V32.2095H8.8114V30.9411Z" fill="white"/>
<path d="M10.0428 30.9411H8.77441V32.2095H10.0428V30.9411Z" fill="white"/>
<path d="M11.2743 30.9411H10.0059V32.2095H11.2743V30.9411Z" fill="white"/>
<path d="M12.5057 30.9411H11.2373V32.2095H12.5057V30.9411Z" fill="white"/>
<path d="M13.7372 30.9411H12.4688V32.2095H13.7372V30.9411Z" fill="white"/>
<path d="M14.9686 30.9411H13.7002V32.2095H14.9686V30.9411Z" fill="white"/>
<path d="M24.8207 30.9411H23.5522V32.2095H24.8207V30.9411Z" fill="white"/>
<path d="M26.0521 30.9411H24.7837V32.2095H26.0521V30.9411Z" fill="white"/>
<path d="M27.2836 30.9411H26.0151V32.2095H27.2836V30.9411Z" fill="white"/>
<path d="M49.4506 30.9411H48.1821V32.2095H49.4506V30.9411Z" fill="white"/>
<path d="M51.9135 30.9411H50.645V32.2095H51.9135V30.9411Z" fill="white"/>
<path d="M54.3763 30.9411H53.1079V32.2095H54.3763V30.9411Z" fill="white"/>
<path d="M55.6078 30.9411H54.3394V32.2095H55.6078V30.9411Z" fill="white"/>
<path d="M58.0707 30.9411H56.8022V32.2095H58.0707V30.9411Z" fill="white"/>
<path d="M60.5341 30.9411H59.2656V32.2095H60.5341V30.9411Z" fill="white"/>
<path d="M61.7655 30.9411H60.4971V32.2095H61.7655V30.9411Z" fill="white"/>
<path d="M62.9969 30.9411H61.7285V32.2095H62.9969V30.9411Z" fill="white"/>
<path d="M66.6913 30.9411H65.4229V32.2095H66.6913V30.9411Z" fill="white"/>
<path d="M8.8114 32.1726H7.54297V33.441H8.8114V32.1726Z" fill="white"/>
<path d="M11.2743 32.1726H10.0059V33.441H11.2743V32.1726Z" fill="white"/>
<path d="M13.7372 32.1726H12.4688V33.441H13.7372V32.1726Z" fill="white"/>
<path d="M16.2006 32.1726H14.9321V33.441H16.2006V32.1726Z" fill="white"/>
<path d="M17.432 32.1726H16.1636V33.441H17.432V32.1726Z" fill="white"/>
<path d="M22.3578 32.1726H21.0894V33.441H22.3578V32.1726Z" fill="white"/>
<path d="M26.0521 32.1726H24.7837V33.441H26.0521V32.1726Z" fill="white"/>
<path d="M28.515 32.1726H27.2466V33.441H28.515V32.1726Z" fill="white"/>
<path d="M48.2191 32.1726H46.9507V33.441H48.2191V32.1726Z" fill="white"/>
<path d="M51.9135 32.1726H50.645V33.441H51.9135V32.1726Z" fill="white"/>
<path d="M53.1449 32.1726H51.8765V33.441H53.1449V32.1726Z" fill="white"/>
<path d="M54.3763 32.1726H53.1079V33.441H54.3763V32.1726Z" fill="white"/>
<path d="M55.6078 32.1726H54.3394V33.441H55.6078V32.1726Z" fill="white"/>
<path d="M58.0707 32.1726H56.8022V33.441H58.0707V32.1726Z" fill="white"/>
<path d="M60.5341 32.1726H59.2656V33.441H60.5341V32.1726Z" fill="white"/>
<path d="M61.7655 32.1726H60.4971V33.441H61.7655V32.1726Z" fill="white"/>
<path d="M65.4598 32.1726H64.1914V33.441H65.4598V32.1726Z" fill="white"/>
<path d="M66.6913 32.1726H65.4229V33.441H66.6913V32.1726Z" fill="white"/>
<path d="M67.9227 32.1726H66.6543V33.441H67.9227V32.1726Z" fill="white"/>
<path d="M8.8114 33.4041H7.54297V34.6725H8.8114V33.4041Z" fill="white"/>
<path d="M10.0428 33.4041H8.77441V34.6725H10.0428V33.4041Z" fill="white"/>
<path d="M11.2743 33.4041H10.0059V34.6725H11.2743V33.4041Z" fill="white"/>
<path d="M12.5057 33.4041H11.2373V34.6725H12.5057V33.4041Z" fill="white"/>
<path d="M14.9686 33.4041H13.7002V34.6725H14.9686V33.4041Z" fill="white"/>
<path d="M17.432 33.4041H16.1636V34.6725H17.432V33.4041Z" fill="white"/>
<path d="M19.8949 33.4041H18.6265V34.6725H19.8949V33.4041Z" fill="white"/>
<path d="M23.5892 33.4041H22.3208V34.6725H23.5892V33.4041Z" fill="white"/>
<path d="M24.8207 33.4041H23.5522V34.6725H24.8207V33.4041Z" fill="white"/>
<path d="M28.515 33.4041H27.2466V34.6725H28.515V33.4041Z" fill="white"/>
<path d="M51.9135 33.4041H50.645V34.6725H51.9135V33.4041Z" fill="white"/>
<path d="M53.1449 33.4041H51.8765V34.6725H53.1449V33.4041Z" fill="white"/>
<path d="M59.3021 33.4041H58.0337V34.6725H59.3021V33.4041Z" fill="white"/>
<path d="M60.5341 33.4041H59.2656V34.6725H60.5341V33.4041Z" fill="white"/>
<path d="M65.4598 33.4041H64.1914V34.6725H65.4598V33.4041Z" fill="white"/>
<path d="M8.8114 34.6356H7.54297V35.904H8.8114V34.6356Z" fill="white"/>
<path d="M13.7372 34.6356H12.4688V35.904H13.7372V34.6356Z" fill="white"/>
<path d="M14.9686 34.6356H13.7002V35.904H14.9686V34.6356Z" fill="white"/>
<path d="M16.2006 34.6356H14.9321V35.904H16.2006V34.6356Z" fill="white"/>
<path d="M17.432 34.6356H16.1636V35.904H17.432V34.6356Z" fill="white"/>
<path d="M18.6635 34.6356H17.395V35.904H18.6635V34.6356Z" fill="white"/>
<path d="M21.1263 34.6356H19.8579V35.904H21.1263V34.6356Z" fill="white"/>
<path d="M23.5892 34.6356H22.3208V35.904H23.5892V34.6356Z" fill="white"/>
<path d="M26.0521 34.6356H24.7837V35.904H26.0521V34.6356Z" fill="white"/>
<path d="M28.515 34.6356H27.2466V35.904H28.515V34.6356Z" fill="white"/>
<path d="M48.2191 34.6356H46.9507V35.904H48.2191V34.6356Z" fill="white"/>
<path d="M50.682 34.6356H49.4136V35.904H50.682V34.6356Z" fill="white"/>
<path d="M51.9135 34.6356H50.645V35.904H51.9135V34.6356Z" fill="white"/>
<path d="M53.1449 34.6356H51.8765V35.904H53.1449V34.6356Z" fill="white"/>
<path d="M55.6078 34.6356H54.3394V35.904H55.6078V34.6356Z" fill="white"/>
<path d="M56.8392 34.6356H55.5708V35.904H56.8392V34.6356Z" fill="white"/>
<path d="M58.0707 34.6356H56.8022V35.904H58.0707V34.6356Z" fill="white"/>
<path d="M59.3021 34.6356H58.0337V35.904H59.3021V34.6356Z" fill="white"/>
<path d="M60.5341 34.6356H59.2656V35.904H60.5341V34.6356Z" fill="white"/>
<path d="M61.7655 34.6356H60.4971V35.904H61.7655V34.6356Z" fill="white"/>
<path d="M62.9969 34.6356H61.7285V35.904H62.9969V34.6356Z" fill="white"/>
<path d="M65.4598 34.6356H64.1914V35.904H65.4598V34.6356Z" fill="white"/>
<path d="M66.6913 34.6356H65.4229V35.904H66.6913V34.6356Z" fill="white"/>
<path d="M67.9227 34.6356H66.6543V35.904H67.9227V34.6356Z" fill="white"/>
<path d="M8.8114 35.867H7.54297V37.1355H8.8114V35.867Z" fill="white"/>
<path d="M13.7372 35.867H12.4688V37.1355H13.7372V35.867Z" fill="white"/>
<path d="M18.6635 35.867H17.395V37.1355H18.6635V35.867Z" fill="white"/>
<path d="M21.1263 35.867H19.8579V37.1355H21.1263V35.867Z" fill="white"/>
<path d="M22.3578 35.867H21.0894V37.1355H22.3578V35.867Z" fill="white"/>
<path d="M27.2836 35.867H26.0151V37.1355H27.2836V35.867Z" fill="white"/>
<path d="M49.4506 35.867H48.1821V37.1355H49.4506V35.867Z" fill="white"/>
<path d="M56.8392 35.867H55.5708V37.1355H56.8392V35.867Z" fill="white"/>
<path d="M58.0707 35.867H56.8022V37.1355H58.0707V35.867Z" fill="white"/>
<path d="M62.9969 35.867H61.7285V37.1355H62.9969V35.867Z" fill="white"/>
<path d="M66.6913 35.867H65.4229V37.1355H66.6913V35.867Z" fill="white"/>
<path d="M8.8114 37.0985H7.54297V38.367H8.8114V37.0985Z" fill="white"/>
<path d="M10.0428 37.0985H8.77441V38.367H10.0428V37.0985Z" fill="white"/>
<path d="M12.5057 37.0985H11.2373V38.367H12.5057V37.0985Z" fill="white"/>
<path d="M13.7372 37.0985H12.4688V38.367H13.7372V37.0985Z" fill="white"/>
<path d="M16.2006 37.0985H14.9321V38.367H16.2006V37.0985Z" fill="white"/>
<path d="M18.6635 37.0985H17.395V38.367H18.6635V37.0985Z" fill="white"/>
<path d="M21.1263 37.0985H19.8579V38.367H21.1263V37.0985Z" fill="white"/>
<path d="M22.3578 37.0985H21.0894V38.367H22.3578V37.0985Z" fill="white"/>
<path d="M24.8207 37.0985H23.5522V38.367H24.8207V37.0985Z" fill="white"/>
<path d="M28.515 37.0985H27.2466V38.367H28.515V37.0985Z" fill="white"/>
<path d="M48.2191 37.0985H46.9507V38.367H48.2191V37.0985Z" fill="white"/>
<path d="M50.682 37.0985H49.4136V38.367H50.682V37.0985Z" fill="white"/>
<path d="M53.1449 37.0985H51.8765V38.367H53.1449V37.0985Z" fill="white"/>
<path d="M54.3763 37.0985H53.1079V38.367H54.3763V37.0985Z" fill="white"/>
<path d="M55.6078 37.0985H54.3394V38.367H55.6078V37.0985Z" fill="white"/>
<path d="M58.0707 37.0985H56.8022V38.367H58.0707V37.0985Z" fill="white"/>
<path d="M60.5341 37.0985H59.2656V38.367H60.5341V37.0985Z" fill="white"/>
<path d="M62.9969 37.0985H61.7285V38.367H62.9969V37.0985Z" fill="white"/>
<path d="M64.2284 37.0985H62.96V38.367H64.2284V37.0985Z" fill="white"/>
<path d="M65.4598 37.0985H64.1914V38.367H65.4598V37.0985Z" fill="white"/>
<path d="M66.6913 37.0985H65.4229V38.367H66.6913V37.0985Z" fill="white"/>
<path d="M67.9227 37.0985H66.6543V38.367H67.9227V37.0985Z" fill="white"/>
<path d="M8.8114 38.33H7.54297V39.5984H8.8114V38.33Z" fill="white"/>
<path d="M10.0428 38.33H8.77441V39.5984H10.0428V38.33Z" fill="white"/>
<path d="M13.7372 38.33H12.4688V39.5984H13.7372V38.33Z" fill="white"/>
<path d="M18.6635 38.33H17.395V39.5984H18.6635V38.33Z" fill="white"/>
<path d="M19.8949 38.33H18.6265V39.5984H19.8949V38.33Z" fill="white"/>
<path d="M21.1263 38.33H19.8579V39.5984H21.1263V38.33Z" fill="white"/>
<path d="M22.3578 38.33H21.0894V39.5984H22.3578V38.33Z" fill="white"/>
<path d="M23.5892 38.33H22.3208V39.5984H23.5892V38.33Z" fill="white"/>
<path d="M24.8207 38.33H23.5522V39.5984H24.8207V38.33Z" fill="white"/>
<path d="M26.0521 38.33H24.7837V39.5984H26.0521V38.33Z" fill="white"/>
<path d="M27.2836 38.33H26.0151V39.5984H27.2836V38.33Z" fill="white"/>
<path d="M28.515 38.33H27.2466V39.5984H28.515V38.33Z" fill="white"/>
<path d="M48.2191 38.33H46.9507V39.5984H48.2191V38.33Z" fill="white"/>
<path d="M51.9135 38.33H50.645V39.5984H51.9135V38.33Z" fill="white"/>
<path d="M53.1449 38.33H51.8765V39.5984H53.1449V38.33Z" fill="white"/>
<path d="M54.3763 38.33H53.1079V39.5984H54.3763V38.33Z" fill="white"/>
<path d="M58.0707 38.33H56.8022V39.5984H58.0707V38.33Z" fill="white"/>
<path d="M62.9969 38.33H61.7285V39.5984H62.9969V38.33Z" fill="white"/>
<path d="M67.9227 38.33H66.6543V39.5984H67.9227V38.33Z" fill="white"/>
<path d="M12.5057 39.5615H11.2373V40.8299H12.5057V39.5615Z" fill="white"/>
<path d="M13.7372 39.5615H12.4688V40.8299H13.7372V39.5615Z" fill="white"/>
<path d="M14.9686 39.5615H13.7002V40.8299H14.9686V39.5615Z" fill="white"/>
<path d="M16.2006 39.5615H14.9321V40.8299H16.2006V39.5615Z" fill="white"/>
<path d="M17.432 39.5615H16.1636V40.8299H17.432V39.5615Z" fill="white"/>
<path d="M18.6635 39.5615H17.395V40.8299H18.6635V39.5615Z" fill="white"/>
<path d="M21.1263 39.5615H19.8579V40.8299H21.1263V39.5615Z" fill="white"/>
<path d="M23.5892 39.5615H22.3208V40.8299H23.5892V39.5615Z" fill="white"/>
<path d="M24.8207 39.5615H23.5522V40.8299H24.8207V39.5615Z" fill="white"/>
<path d="M27.2836 39.5615H26.0151V40.8299H27.2836V39.5615Z" fill="white"/>
<path d="M28.515 39.5615H27.2466V40.8299H28.515V39.5615Z" fill="white"/>
<path d="M48.2191 39.5615H46.9507V40.8299H48.2191V39.5615Z" fill="white"/>
<path d="M50.682 39.5615H49.4136V40.8299H50.682V39.5615Z" fill="white"/>
<path d="M51.9135 39.5615H50.645V40.8299H51.9135V39.5615Z" fill="white"/>
<path d="M55.6078 39.5615H54.3394V40.8299H55.6078V39.5615Z" fill="white"/>
<path d="M56.8392 39.5615H55.5708V40.8299H56.8392V39.5615Z" fill="white"/>
<path d="M58.0707 39.5615H56.8022V40.8299H58.0707V39.5615Z" fill="white"/>
<path d="M59.3021 39.5615H58.0337V40.8299H59.3021V39.5615Z" fill="white"/>
<path d="M60.5341 39.5615H59.2656V40.8299H60.5341V39.5615Z" fill="white"/>
<path d="M61.7655 39.5615H60.4971V40.8299H61.7655V39.5615Z" fill="white"/>
<path d="M62.9969 39.5615H61.7285V40.8299H62.9969V39.5615Z" fill="white"/>
<path d="M66.6913 39.5615H65.4229V40.8299H66.6913V39.5615Z" fill="white"/>
<path d="M67.9227 39.5615H66.6543V40.8299H67.9227V39.5615Z" fill="white"/>
<path d="M10.0428 40.793H8.77441V42.0614H10.0428V40.793Z" fill="white"/>
<path d="M13.7372 40.793H12.4688V42.0614H13.7372V40.793Z" fill="white"/>
<path d="M17.432 40.793H16.1636V42.0614H17.432V40.793Z" fill="white"/>
<path d="M18.6635 40.793H17.395V42.0614H18.6635V40.793Z" fill="white"/>
<path d="M21.1263 40.793H19.8579V42.0614H21.1263V40.793Z" fill="white"/>
<path d="M22.3578 40.793H21.0894V42.0614H22.3578V40.793Z" fill="white"/>
<path d="M24.8207 40.793H23.5522V42.0614H24.8207V40.793Z" fill="white"/>
<path d="M26.0521 40.793H24.7837V42.0614H26.0521V40.793Z" fill="white"/>
<path d="M49.4506 40.793H48.1821V42.0614H49.4506V40.793Z" fill="white"/>
<path d="M54.3763 40.793H53.1079V42.0614H54.3763V40.793Z" fill="white"/>
<path d="M55.6078 40.793H54.3394V42.0614H55.6078V40.793Z" fill="white"/>
<path d="M58.0707 40.793H56.8022V42.0614H58.0707V40.793Z" fill="white"/>
<path d="M59.3021 40.793H58.0337V42.0614H59.3021V40.793Z" fill="white"/>
<path d="M61.7655 40.793H60.4971V42.0614H61.7655V40.793Z" fill="white"/>
<path d="M64.2284 40.793H62.96V42.0614H64.2284V40.793Z" fill="white"/>
<path d="M66.6913 40.793H65.4229V42.0614H66.6913V40.793Z" fill="white"/>
<path d="M67.9227 40.793H66.6543V42.0614H67.9227V40.793Z" fill="white"/>
<path d="M8.8114 42.0245H7.54297V43.2929H8.8114V42.0245Z" fill="white"/>
<path d="M12.5057 42.0245H11.2373V43.2929H12.5057V42.0245Z" fill="white"/>
<path d="M14.9686 42.0245H13.7002V43.2929H14.9686V42.0245Z" fill="white"/>
<path d="M16.2006 42.0245H14.9321V43.2929H16.2006V42.0245Z" fill="white"/>
<path d="M24.8207 42.0245H23.5522V43.2929H24.8207V42.0245Z" fill="white"/>
<path d="M26.0521 42.0245H24.7837V43.2929H26.0521V42.0245Z" fill="white"/>
<path d="M27.2836 42.0245H26.0151V43.2929H27.2836V42.0245Z" fill="white"/>
<path d="M51.9135 42.0245H50.645V43.2929H51.9135V42.0245Z" fill="white"/>
<path d="M53.1449 42.0245H51.8765V43.2929H53.1449V42.0245Z" fill="white"/>
<path d="M54.3763 42.0245H53.1079V43.2929H54.3763V42.0245Z" fill="white"/>
<path d="M55.6078 42.0245H54.3394V43.2929H55.6078V42.0245Z" fill="white"/>
<path d="M56.8392 42.0245H55.5708V43.2929H56.8392V42.0245Z" fill="white"/>
<path d="M58.0707 42.0245H56.8022V43.2929H58.0707V42.0245Z" fill="white"/>
<path d="M59.3021 42.0245H58.0337V43.2929H59.3021V42.0245Z" fill="white"/>
<path d="M61.7655 42.0245H60.4971V43.2929H61.7655V42.0245Z" fill="white"/>
<path d="M64.2284 42.0245H62.96V43.2929H64.2284V42.0245Z" fill="white"/>
<path d="M65.4598 42.0245H64.1914V43.2929H65.4598V42.0245Z" fill="white"/>
<path d="M14.9686 43.256H13.7002V44.5244H14.9686V43.256Z" fill="white"/>
<path d="M18.6635 43.256H17.395V44.5244H18.6635V43.256Z" fill="white"/>
<path d="M22.3578 43.256H21.0894V44.5244H22.3578V43.256Z" fill="white"/>
<path d="M23.5892 43.256H22.3208V44.5244H23.5892V43.256Z" fill="white"/>
<path d="M26.0521 43.256H24.7837V44.5244H26.0521V43.256Z" fill="white"/>
<path d="M48.2191 43.256H46.9507V44.5244H48.2191V43.256Z" fill="white"/>
<path d="M53.1449 43.256H51.8765V44.5244H53.1449V43.256Z" fill="white"/>
<path d="M54.3763 43.256H53.1079V44.5244H54.3763V43.256Z" fill="white"/>
<path d="M60.5341 43.256H59.2656V44.5244H60.5341V43.256Z" fill="white"/>
<path d="M65.4598 43.256H64.1914V44.5244H65.4598V43.256Z" fill="white"/>
<path d="M8.8114 44.4875H7.54297V45.7559H8.8114V44.4875Z" fill="white"/>
<path d="M10.0428 44.4875H8.77441V45.7559H10.0428V44.4875Z" fill="white"/>
<path d="M11.2743 44.4875H10.0059V45.7559H11.2743V44.4875Z" fill="white"/>
<path d="M12.5057 44.4875H11.2373V45.7559H12.5057V44.4875Z" fill="white"/>
<path d="M13.7372 44.4875H12.4688V45.7559H13.7372V44.4875Z" fill="white"/>
<path d="M14.9686 44.4875H13.7002V45.7559H14.9686V44.4875Z" fill="white"/>
<path d="M16.2006 44.4875H14.9321V45.7559H16.2006V44.4875Z" fill="white"/>
<path d="M18.6635 44.4875H17.395V45.7559H18.6635V44.4875Z" fill="white"/>
<path d="M19.8949 44.4875H18.6265V45.7559H19.8949V44.4875Z" fill="white"/>
<path d="M21.1263 44.4875H19.8579V45.7559H21.1263V44.4875Z" fill="white"/>
<path d="M22.3578 44.4875H21.0894V45.7559H22.3578V44.4875Z" fill="white"/>
<path d="M23.5892 44.4875H22.3208V45.7559H23.5892V44.4875Z" fill="white"/>
<path d="M26.0521 44.4875H24.7837V45.7559H26.0521V44.4875Z" fill="white"/>
<path d="M48.2191 44.4875H46.9507V45.7559H48.2191V44.4875Z" fill="white"/>
<path d="M49.4506 44.4875H48.1821V45.7559H49.4506V44.4875Z" fill="white"/>
<path d="M50.682 44.4875H49.4136V45.7559H50.682V44.4875Z" fill="white"/>
<path d="M53.1449 44.4875H51.8765V45.7559H53.1449V44.4875Z" fill="white"/>
<path d="M55.6078 44.4875H54.3394V45.7559H55.6078V44.4875Z" fill="white"/>
<path d="M56.8392 44.4875H55.5708V45.7559H56.8392V44.4875Z" fill="white"/>
<path d="M58.0707 44.4875H56.8022V45.7559H58.0707V44.4875Z" fill="white"/>
<path d="M59.3021 44.4875H58.0337V45.7559H59.3021V44.4875Z" fill="white"/>
<path d="M60.5341 44.4875H59.2656V45.7559H60.5341V44.4875Z" fill="white"/>
<path d="M61.7655 44.4875H60.4971V45.7559H61.7655V44.4875Z" fill="white"/>
<path d="M65.4598 44.4875H64.1914V45.7559H65.4598V44.4875Z" fill="white"/>
<path d="M66.6913 44.4875H65.4229V45.7559H66.6913V44.4875Z" fill="white"/>
<path d="M67.9227 44.4875H66.6543V45.7559H67.9227V44.4875Z" fill="white"/>
<path d="M10.0428 45.7189H8.77441V46.9874H10.0428V45.7189Z" fill="white"/>
<path d="M12.5057 45.7189H11.2373V46.9874H12.5057V45.7189Z" fill="white"/>
<path d="M18.6635 45.7189H17.395V46.9874H18.6635V45.7189Z" fill="white"/>
<path d="M22.3578 45.7189H21.0894V46.9874H22.3578V45.7189Z" fill="white"/>
<path d="M24.8207 45.7189H23.5522V46.9874H24.8207V45.7189Z" fill="white"/>
<path d="M26.0521 45.7189H24.7837V46.9874H26.0521V45.7189Z" fill="white"/>
<path d="M49.4506 45.7189H48.1821V46.9874H49.4506V45.7189Z" fill="white"/>
<path d="M51.9135 45.7189H50.645V46.9874H51.9135V45.7189Z" fill="white"/>
<path d="M53.1449 45.7189H51.8765V46.9874H53.1449V45.7189Z" fill="white"/>
<path d="M54.3763 45.7189H53.1079V46.9874H54.3763V45.7189Z" fill="white"/>
<path d="M55.6078 45.7189H54.3394V46.9874H55.6078V45.7189Z" fill="white"/>
<path d="M58.0707 45.7189H56.8022V46.9874H58.0707V45.7189Z" fill="white"/>
<path d="M66.6913 45.7189H65.4229V46.9874H66.6913V45.7189Z" fill="white"/>
<path d="M67.9227 45.7189H66.6543V46.9874H67.9227V45.7189Z" fill="white"/>
<path d="M10.0428 46.9504H8.77441V48.2189H10.0428V46.9504Z" fill="white"/>
<path d="M12.5057 46.9504H11.2373V48.2189H12.5057V46.9504Z" fill="white"/>
<path d="M16.2006 46.9504H14.9321V48.2189H16.2006V46.9504Z" fill="white"/>
<path d="M18.6635 46.9504H17.395V48.2189H18.6635V46.9504Z" fill="white"/>
<path d="M21.1263 46.9504H19.8579V48.2189H21.1263V46.9504Z" fill="white"/>
<path d="M22.3578 46.9504H21.0894V48.2189H22.3578V46.9504Z" fill="white"/>
<path d="M28.515 46.9504H27.2466V48.2189H28.515V46.9504Z" fill="white"/>
<path d="M32.2098 46.9504H30.9414V48.2189H32.2098V46.9504Z" fill="white"/>
<path d="M33.4413 46.9504H32.1729V48.2189H33.4413V46.9504Z" fill="white"/>
<path d="M37.1356 46.9504H35.8672V48.2189H37.1356V46.9504Z" fill="white"/>
<path d="M42.0614 46.9504H40.793V48.2189H42.0614V46.9504Z" fill="white"/>
<path d="M43.2928 46.9504H42.0244V48.2189H43.2928V46.9504Z" fill="white"/>
<path d="M44.5243 46.9504H43.2559V48.2189H44.5243V46.9504Z" fill="white"/>
<path d="M45.7562 46.9504H44.4878V48.2189H45.7562V46.9504Z" fill="white"/>
<path d="M49.4506 46.9504H48.1821V48.2189H49.4506V46.9504Z" fill="white"/>
<path d="M53.1449 46.9504H51.8765V48.2189H53.1449V46.9504Z" fill="white"/>
<path d="M54.3763 46.9504H53.1079V48.2189H54.3763V46.9504Z" fill="white"/>
<path d="M56.8392 46.9504H55.5708V48.2189H56.8392V46.9504Z" fill="white"/>
<path d="M60.5341 46.9504H59.2656V48.2189H60.5341V46.9504Z" fill="white"/>
<path d="M62.9969 46.9504H61.7285V48.2189H62.9969V46.9504Z" fill="white"/>
<path d="M64.2284 46.9504H62.96V48.2189H64.2284V46.9504Z" fill="white"/>
<path d="M65.4598 46.9504H64.1914V48.2189H65.4598V46.9504Z" fill="white"/>
<path d="M67.9227 46.9504H66.6543V48.2189H67.9227V46.9504Z" fill="white"/>
<path d="M8.8114 48.1819H7.54297V49.4503H8.8114V48.1819Z" fill="white"/>
<path d="M11.2743 48.1819H10.0059V49.4503H11.2743V48.1819Z" fill="white"/>
<path d="M19.8949 48.1819H18.6265V49.4503H19.8949V48.1819Z" fill="white"/>
<path d="M21.1263 48.1819H19.8579V49.4503H21.1263V48.1819Z" fill="white"/>
<path d="M22.3578 48.1819H21.0894V49.4503H22.3578V48.1819Z" fill="white"/>
<path d="M23.5892 48.1819H22.3208V49.4503H23.5892V48.1819Z" fill="white"/>
<path d="M26.0521 48.1819H24.7837V49.4503H26.0521V48.1819Z" fill="white"/>
<path d="M27.2836 48.1819H26.0151V49.4503H27.2836V48.1819Z" fill="white"/>
<path d="M28.515 48.1819H27.2466V49.4503H28.515V48.1819Z" fill="white"/>
<path d="M33.4413 48.1819H32.1729V49.4503H33.4413V48.1819Z" fill="white"/>
<path d="M34.6727 48.1819H33.4043V49.4503H34.6727V48.1819Z" fill="white"/>
<path d="M37.1356 48.1819H35.8672V49.4503H37.1356V48.1819Z" fill="white"/>
<path d="M38.3671 48.1819H37.0986V49.4503H38.3671V48.1819Z" fill="white"/>
<path d="M39.5985 48.1819H38.3301V49.4503H39.5985V48.1819Z" fill="white"/>
<path d="M43.2928 48.1819H42.0244V49.4503H43.2928V48.1819Z" fill="white"/>
<path d="M46.9877 48.1819H45.7192V49.4503H46.9877V48.1819Z" fill="white"/>
<path d="M49.4506 48.1819H48.1821V49.4503H49.4506V48.1819Z" fill="white"/>
<path d="M51.9135 48.1819H50.645V49.4503H51.9135V48.1819Z" fill="white"/>
<path d="M53.1449 48.1819H51.8765V49.4503H53.1449V48.1819Z" fill="white"/>
<path d="M56.8392 48.1819H55.5708V49.4503H56.8392V48.1819Z" fill="white"/>
<path d="M60.5341 48.1819H59.2656V49.4503H60.5341V48.1819Z" fill="white"/>
<path d="M61.7655 48.1819H60.4971V49.4503H61.7655V48.1819Z" fill="white"/>
<path d="M64.2284 48.1819H62.96V49.4503H64.2284V48.1819Z" fill="white"/>
<path d="M66.6913 48.1819H65.4229V49.4503H66.6913V48.1819Z" fill="white"/>
<path d="M8.8114 49.4134H7.54297V50.6818H8.8114V49.4134Z" fill="white"/>
<path d="M10.0428 49.4134H8.77441V50.6818H10.0428V49.4134Z" fill="white"/>
<path d="M13.7372 49.4134H12.4688V50.6818H13.7372V49.4134Z" fill="white"/>
<path d="M16.2006 49.4134H14.9321V50.6818H16.2006V49.4134Z" fill="white"/>
<path d="M19.8949 49.4134H18.6265V50.6818H19.8949V49.4134Z" fill="white"/>
<path d="M21.1263 49.4134H19.8579V50.6818H21.1263V49.4134Z" fill="white"/>
<path d="M24.8207 49.4134H23.5522V50.6818H24.8207V49.4134Z" fill="white"/>
<path d="M26.0521 49.4134H24.7837V50.6818H26.0521V49.4134Z" fill="white"/>
<path d="M29.7465 49.4134H28.478V50.6818H29.7465V49.4134Z" fill="white"/>
<path d="M34.6727 49.4134H33.4043V50.6818H34.6727V49.4134Z" fill="white"/>
<path d="M35.9042 49.4134H34.6357V50.6818H35.9042V49.4134Z" fill="white"/>
<path d="M38.3671 49.4134H37.0986V50.6818H38.3671V49.4134Z" fill="white"/>
<path d="M40.83 49.4134H39.5615V50.6818H40.83V49.4134Z" fill="white"/>
<path d="M43.2928 49.4134H42.0244V50.6818H43.2928V49.4134Z" fill="white"/>
<path d="M44.5243 49.4134H43.2559V50.6818H44.5243V49.4134Z" fill="white"/>
<path d="M49.4506 49.4134H48.1821V50.6818H49.4506V49.4134Z" fill="white"/>
<path d="M50.682 49.4134H49.4136V50.6818H50.682V49.4134Z" fill="white"/>
<path d="M53.1449 49.4134H51.8765V50.6818H53.1449V49.4134Z" fill="white"/>
<path d="M55.6078 49.4134H54.3394V50.6818H55.6078V49.4134Z" fill="white"/>
<path d="M56.8392 49.4134H55.5708V50.6818H56.8392V49.4134Z" fill="white"/>
<path d="M59.3021 49.4134H58.0337V50.6818H59.3021V49.4134Z" fill="white"/>
<path d="M60.5341 49.4134H59.2656V50.6818H60.5341V49.4134Z" fill="white"/>
<path d="M66.6913 49.4134H65.4229V50.6818H66.6913V49.4134Z" fill="white"/>
<path d="M67.9227 49.4134H66.6543V50.6818H67.9227V49.4134Z" fill="white"/>
<path d="M10.0428 50.6449H8.77441V51.9133H10.0428V50.6449Z" fill="white"/>
<path d="M12.5057 50.6449H11.2373V51.9133H12.5057V50.6449Z" fill="white"/>
<path d="M13.7372 50.6449H12.4688V51.9133H13.7372V50.6449Z" fill="white"/>
<path d="M14.9686 50.6449H13.7002V51.9133H14.9686V50.6449Z" fill="white"/>
<path d="M28.515 50.6449H27.2466V51.9133H28.515V50.6449Z" fill="white"/>
<path d="M30.9784 50.6449H29.71V51.9133H30.9784V50.6449Z" fill="white"/>
<path d="M32.2098 50.6449H30.9414V51.9133H32.2098V50.6449Z" fill="white"/>
<path d="M33.4413 50.6449H32.1729V51.9133H33.4413V50.6449Z" fill="white"/>
<path d="M34.6727 50.6449H33.4043V51.9133H34.6727V50.6449Z" fill="white"/>
<path d="M37.1356 50.6449H35.8672V51.9133H37.1356V50.6449Z" fill="white"/>
<path d="M38.3671 50.6449H37.0986V51.9133H38.3671V50.6449Z" fill="white"/>
<path d="M40.83 50.6449H39.5615V51.9133H40.83V50.6449Z" fill="white"/>
<path d="M45.7562 50.6449H44.4878V51.9133H45.7562V50.6449Z" fill="white"/>
<path d="M46.9877 50.6449H45.7192V51.9133H46.9877V50.6449Z" fill="white"/>
<path d="M54.3763 50.6449H53.1079V51.9133H54.3763V50.6449Z" fill="white"/>
<path d="M59.3021 50.6449H58.0337V51.9133H59.3021V50.6449Z" fill="white"/>
<path d="M61.7655 50.6449H60.4971V51.9133H61.7655V50.6449Z" fill="white"/>
<path d="M67.9227 50.6449H66.6543V51.9133H67.9227V50.6449Z" fill="white"/>
<path d="M8.8114 51.8764H7.54297V53.1448H8.8114V51.8764Z" fill="white"/>
<path d="M14.9686 51.8764H13.7002V53.1448H14.9686V51.8764Z" fill="white"/>
<path d="M16.2006 51.8764H14.9321V53.1448H16.2006V51.8764Z" fill="white"/>
<path d="M17.432 51.8764H16.1636V53.1448H17.432V51.8764Z" fill="white"/>
<path d="M18.6635 51.8764H17.395V53.1448H18.6635V51.8764Z" fill="white"/>
<path d="M19.8949 51.8764H18.6265V53.1448H19.8949V51.8764Z" fill="white"/>
<path d="M23.5892 51.8764H22.3208V53.1448H23.5892V51.8764Z" fill="white"/>
<path d="M29.7465 51.8764H28.478V53.1448H29.7465V51.8764Z" fill="white"/>
<path d="M30.9784 51.8764H29.71V53.1448H30.9784V51.8764Z" fill="white"/>
<path d="M32.2098 51.8764H30.9414V53.1448H32.2098V51.8764Z" fill="white"/>
<path d="M33.4413 51.8764H32.1729V53.1448H33.4413V51.8764Z" fill="white"/>
<path d="M35.9042 51.8764H34.6357V53.1448H35.9042V51.8764Z" fill="white"/>
<path d="M38.3671 51.8764H37.0986V53.1448H38.3671V51.8764Z" fill="white"/>
<path d="M44.5243 51.8764H43.2559V53.1448H44.5243V51.8764Z" fill="white"/>
<path d="M46.9877 51.8764H45.7192V53.1448H46.9877V51.8764Z" fill="white"/>
<path d="M51.9135 51.8764H50.645V53.1448H51.9135V51.8764Z" fill="white"/>
<path d="M53.1449 51.8764H51.8765V53.1448H53.1449V51.8764Z" fill="white"/>
<path d="M55.6078 51.8764H54.3394V53.1448H55.6078V51.8764Z" fill="white"/>
<path d="M56.8392 51.8764H55.5708V53.1448H56.8392V51.8764Z" fill="white"/>
<path d="M58.0707 51.8764H56.8022V53.1448H58.0707V51.8764Z" fill="white"/>
<path d="M59.3021 51.8764H58.0337V53.1448H59.3021V51.8764Z" fill="white"/>
<path d="M62.9969 51.8764H61.7285V53.1448H62.9969V51.8764Z" fill="white"/>
<path d="M64.2284 51.8764H62.96V53.1448H64.2284V51.8764Z" fill="white"/>
<path d="M65.4598 51.8764H64.1914V53.1448H65.4598V51.8764Z" fill="white"/>
<path d="M66.6913 51.8764H65.4229V53.1448H66.6913V51.8764Z" fill="white"/>
<path d="M11.2743 53.1078H10.0059V54.3763H11.2743V53.1078Z" fill="white"/>
<path d="M12.5057 53.1078H11.2373V54.3763H12.5057V53.1078Z" fill="white"/>
<path d="M13.7372 53.1078H12.4688V54.3763H13.7372V53.1078Z" fill="white"/>
<path d="M14.9686 53.1078H13.7002V54.3763H14.9686V53.1078Z" fill="white"/>
<path d="M26.0521 53.1078H24.7837V54.3763H26.0521V53.1078Z" fill="white"/>
<path d="M27.2836 53.1078H26.0151V54.3763H27.2836V53.1078Z" fill="white"/>
<path d="M29.7465 53.1078H28.478V54.3763H29.7465V53.1078Z" fill="white"/>
<path d="M32.2098 53.1078H30.9414V54.3763H32.2098V53.1078Z" fill="white"/>
<path d="M33.4413 53.1078H32.1729V54.3763H33.4413V53.1078Z" fill="white"/>
<path d="M34.6727 53.1078H33.4043V54.3763H34.6727V53.1078Z" fill="white"/>
<path d="M35.9042 53.1078H34.6357V54.3763H35.9042V53.1078Z" fill="white"/>
<path d="M37.1356 53.1078H35.8672V54.3763H37.1356V53.1078Z" fill="white"/>
<path d="M38.3671 53.1078H37.0986V54.3763H38.3671V53.1078Z" fill="white"/>
<path d="M39.5985 53.1078H38.3301V54.3763H39.5985V53.1078Z" fill="white"/>
<path d="M42.0614 53.1078H40.793V54.3763H42.0614V53.1078Z" fill="white"/>
<path d="M48.2191 53.1078H46.9507V54.3763H48.2191V53.1078Z" fill="white"/>
<path d="M53.1449 53.1078H51.8765V54.3763H53.1449V53.1078Z" fill="white"/>
<path d="M54.3763 53.1078H53.1079V54.3763H54.3763V53.1078Z" fill="white"/>
<path d="M56.8392 53.1078H55.5708V54.3763H56.8392V53.1078Z" fill="white"/>
<path d="M58.0707 53.1078H56.8022V54.3763H58.0707V53.1078Z" fill="white"/>
<path d="M59.3021 53.1078H58.0337V54.3763H59.3021V53.1078Z" fill="white"/>
<path d="M60.5341 53.1078H59.2656V54.3763H60.5341V53.1078Z" fill="white"/>
<path d="M61.7655 53.1078H60.4971V54.3763H61.7655V53.1078Z" fill="white"/>
<path d="M65.4598 53.1078H64.1914V54.3763H65.4598V53.1078Z" fill="white"/>
<path d="M66.6913 53.1078H65.4229V54.3763H66.6913V53.1078Z" fill="white"/>
<path d="M10.0428 54.3394H8.77441V55.6078H10.0428V54.3394Z" fill="white"/>
<path d="M14.9686 54.3394H13.7002V55.6078H14.9686V54.3394Z" fill="white"/>
<path d="M16.2006 54.3394H14.9321V55.6078H16.2006V54.3394Z" fill="white"/>
<path d="M18.6635 54.3394H17.395V55.6078H18.6635V54.3394Z" fill="white"/>
<path d="M21.1263 54.3394H19.8579V55.6078H21.1263V54.3394Z" fill="white"/>
<path d="M22.3578 54.3394H21.0894V55.6078H22.3578V54.3394Z" fill="white"/>
<path d="M23.5892 54.3394H22.3208V55.6078H23.5892V54.3394Z" fill="white"/>
<path d="M24.8207 54.3394H23.5522V55.6078H24.8207V54.3394Z" fill="white"/>
<path d="M26.0521 54.3394H24.7837V55.6078H26.0521V54.3394Z" fill="white"/>
<path d="M27.2836 54.3394H26.0151V55.6078H27.2836V54.3394Z" fill="white"/>
<path d="M28.515 54.3394H27.2466V55.6078H28.515V54.3394Z" fill="white"/>
<path d="M34.6727 54.3394H33.4043V55.6078H34.6727V54.3394Z" fill="white"/>
<path d="M35.9042 54.3394H34.6357V55.6078H35.9042V54.3394Z" fill="white"/>
<path d="M37.1356 54.3394H35.8672V55.6078H37.1356V54.3394Z" fill="white"/>
<path d="M39.5985 54.3394H38.3301V55.6078H39.5985V54.3394Z" fill="white"/>
<path d="M42.0614 54.3394H40.793V55.6078H42.0614V54.3394Z" fill="white"/>
<path d="M43.2928 54.3394H42.0244V55.6078H43.2928V54.3394Z" fill="white"/>
<path d="M46.9877 54.3394H45.7192V55.6078H46.9877V54.3394Z" fill="white"/>
<path d="M48.2191 54.3394H46.9507V55.6078H48.2191V54.3394Z" fill="white"/>
<path d="M49.4506 54.3394H48.1821V55.6078H49.4506V54.3394Z" fill="white"/>
<path d="M50.682 54.3394H49.4136V55.6078H50.682V54.3394Z" fill="white"/>
<path d="M55.6078 54.3394H54.3394V55.6078H55.6078V54.3394Z" fill="white"/>
<path d="M56.8392 54.3394H55.5708V55.6078H56.8392V54.3394Z" fill="white"/>
<path d="M58.0707 54.3394H56.8022V55.6078H58.0707V54.3394Z" fill="white"/>
<path d="M59.3021 54.3394H58.0337V55.6078H59.3021V54.3394Z" fill="white"/>
<path d="M60.5341 54.3394H59.2656V55.6078H60.5341V54.3394Z" fill="white"/>
<path d="M61.7655 54.3394H60.4971V55.6078H61.7655V54.3394Z" fill="white"/>
<path d="M64.2284 54.3394H62.96V55.6078H64.2284V54.3394Z" fill="white"/>
<path d="M65.4598 54.3394H64.1914V55.6078H65.4598V54.3394Z" fill="white"/>
<path d="M66.6913 54.3394H65.4229V55.6078H66.6913V54.3394Z" fill="white"/>
<path d="M67.9227 54.3394H66.6543V55.6078H67.9227V54.3394Z" fill="white"/>
<path d="M10.0428 55.5708H8.77441V56.8393H10.0428V55.5708Z" fill="white"/>
<path d="M11.2743 55.5708H10.0059V56.8393H11.2743V55.5708Z" fill="white"/>
<path d="M12.5057 55.5708H11.2373V56.8393H12.5057V55.5708Z" fill="white"/>
<path d="M18.6635 55.5708H17.395V56.8393H18.6635V55.5708Z" fill="white"/>
<path d="M19.8949 55.5708H18.6265V56.8393H19.8949V55.5708Z" fill="white"/>
<path d="M21.1263 55.5708H19.8579V56.8393H21.1263V55.5708Z" fill="white"/>
<path d="M22.3578 55.5708H21.0894V56.8393H22.3578V55.5708Z" fill="white"/>
<path d="M23.5892 55.5708H22.3208V56.8393H23.5892V55.5708Z" fill="white"/>
<path d="M26.0521 55.5708H24.7837V56.8393H26.0521V55.5708Z" fill="white"/>
<path d="M27.2836 55.5708H26.0151V56.8393H27.2836V55.5708Z" fill="white"/>
<path d="M30.9784 55.5708H29.71V56.8393H30.9784V55.5708Z" fill="white"/>
<path d="M32.2098 55.5708H30.9414V56.8393H32.2098V55.5708Z" fill="white"/>
<path d="M34.6727 55.5708H33.4043V56.8393H34.6727V55.5708Z" fill="white"/>
<path d="M35.9042 55.5708H34.6357V56.8393H35.9042V55.5708Z" fill="white"/>
<path d="M37.1356 55.5708H35.8672V56.8393H37.1356V55.5708Z" fill="white"/>
<path d="M39.5985 55.5708H38.3301V56.8393H39.5985V55.5708Z" fill="white"/>
<path d="M42.0614 55.5708H40.793V56.8393H42.0614V55.5708Z" fill="white"/>
<path d="M44.5243 55.5708H43.2559V56.8393H44.5243V55.5708Z" fill="white"/>
<path d="M48.2191 55.5708H46.9507V56.8393H48.2191V55.5708Z" fill="white"/>
<path d="M50.682 55.5708H49.4136V56.8393H50.682V55.5708Z" fill="white"/>
<path d="M51.9135 55.5708H50.645V56.8393H51.9135V55.5708Z" fill="white"/>
<path d="M54.3763 55.5708H53.1079V56.8393H54.3763V55.5708Z" fill="white"/>
<path d="M55.6078 55.5708H54.3394V56.8393H55.6078V55.5708Z" fill="white"/>
<path d="M62.9969 55.5708H61.7285V56.8393H62.9969V55.5708Z" fill="white"/>
<path d="M65.4598 55.5708H64.1914V56.8393H65.4598V55.5708Z" fill="white"/>
<path d="M66.6913 55.5708H65.4229V56.8393H66.6913V55.5708Z" fill="white"/>
<path d="M8.8114 56.8023H7.54297V58.0707H8.8114V56.8023Z" fill="white"/>
<path d="M10.0428 56.8023H8.77441V58.0707H10.0428V56.8023Z" fill="white"/>
<path d="M11.2743 56.8023H10.0059V58.0707H11.2743V56.8023Z" fill="white"/>
<path d="M16.2006 56.8023H14.9321V58.0707H16.2006V56.8023Z" fill="white"/>
<path d="M21.1263 56.8023H19.8579V58.0707H21.1263V56.8023Z" fill="white"/>
<path d="M22.3578 56.8023H21.0894V58.0707H22.3578V56.8023Z" fill="white"/>
<path d="M27.2836 56.8023H26.0151V58.0707H27.2836V56.8023Z" fill="white"/>
<path d="M35.9042 56.8023H34.6357V58.0707H35.9042V56.8023Z" fill="white"/>
<path d="M37.1356 56.8023H35.8672V58.0707H37.1356V56.8023Z" fill="white"/>
<path d="M38.3671 56.8023H37.0986V58.0707H38.3671V56.8023Z" fill="white"/>
<path d="M39.5985 56.8023H38.3301V58.0707H39.5985V56.8023Z" fill="white"/>
<path d="M40.83 56.8023H39.5615V58.0707H40.83V56.8023Z" fill="white"/>
<path d="M42.0614 56.8023H40.793V58.0707H42.0614V56.8023Z" fill="white"/>
<path d="M43.2928 56.8023H42.0244V58.0707H43.2928V56.8023Z" fill="white"/>
<path d="M44.5243 56.8023H43.2559V58.0707H44.5243V56.8023Z" fill="white"/>
<path d="M45.7562 56.8023H44.4878V58.0707H45.7562V56.8023Z" fill="white"/>
<path d="M46.9877 56.8023H45.7192V58.0707H46.9877V56.8023Z" fill="white"/>
<path d="M49.4506 56.8023H48.1821V58.0707H49.4506V56.8023Z" fill="white"/>
<path d="M50.682 56.8023H49.4136V58.0707H50.682V56.8023Z" fill="white"/>
<path d="M51.9135 56.8023H50.645V58.0707H51.9135V56.8023Z" fill="white"/>
<path d="M53.1449 56.8023H51.8765V58.0707H53.1449V56.8023Z" fill="white"/>
<path d="M55.6078 56.8023H54.3394V58.0707H55.6078V56.8023Z" fill="white"/>
<path d="M56.8392 56.8023H55.5708V58.0707H56.8392V56.8023Z" fill="white"/>
<path d="M58.0707 56.8023H56.8022V58.0707H58.0707V56.8023Z" fill="white"/>
<path d="M59.3021 56.8023H58.0337V58.0707H59.3021V56.8023Z" fill="white"/>
<path d="M60.5341 56.8023H59.2656V58.0707H60.5341V56.8023Z" fill="white"/>
<path d="M61.7655 56.8023H60.4971V58.0707H61.7655V56.8023Z" fill="white"/>
<path d="M62.9969 56.8023H61.7285V58.0707H62.9969V56.8023Z" fill="white"/>
<path d="M64.2284 56.8023H62.96V58.0707H64.2284V56.8023Z" fill="white"/>
<path d="M66.6913 56.8023H65.4229V58.0707H66.6913V56.8023Z" fill="white"/>
<path d="M18.6635 58.0338H17.395V59.3022H18.6635V58.0338Z" fill="white"/>
<path d="M19.8949 58.0338H18.6265V59.3022H19.8949V58.0338Z" fill="white"/>
<path d="M21.1263 58.0338H19.8579V59.3022H21.1263V58.0338Z" fill="white"/>
<path d="M22.3578 58.0338H21.0894V59.3022H22.3578V58.0338Z" fill="white"/>
<path d="M26.0521 58.0338H24.7837V59.3022H26.0521V58.0338Z" fill="white"/>
<path d="M30.9784 58.0338H29.71V59.3022H30.9784V58.0338Z" fill="white"/>
<path d="M32.2098 58.0338H30.9414V59.3022H32.2098V58.0338Z" fill="white"/>
<path d="M35.9042 58.0338H34.6357V59.3022H35.9042V58.0338Z" fill="white"/>
<path d="M40.83 58.0338H39.5615V59.3022H40.83V58.0338Z" fill="white"/>
<path d="M42.0614 58.0338H40.793V59.3022H42.0614V58.0338Z" fill="white"/>
<path d="M48.2191 58.0338H46.9507V59.3022H48.2191V58.0338Z" fill="white"/>
<path d="M50.682 58.0338H49.4136V59.3022H50.682V58.0338Z" fill="white"/>
<path d="M54.3763 58.0338H53.1079V59.3022H54.3763V58.0338Z" fill="white"/>
<path d="M55.6078 58.0338H54.3394V59.3022H55.6078V58.0338Z" fill="white"/>
<path d="M58.0707 58.0338H56.8022V59.3022H58.0707V58.0338Z" fill="white"/>
<path d="M62.9969 58.0338H61.7285V59.3022H62.9969V58.0338Z" fill="white"/>
<path d="M19.8949 59.2653H18.6265V60.5337H19.8949V59.2653Z" fill="white"/>
<path d="M21.1263 59.2653H19.8579V60.5337H21.1263V59.2653Z" fill="white"/>
<path d="M22.3578 59.2653H21.0894V60.5337H22.3578V59.2653Z" fill="white"/>
<path d="M26.0521 59.2653H24.7837V60.5337H26.0521V59.2653Z" fill="white"/>
<path d="M28.515 59.2653H27.2466V60.5337H28.515V59.2653Z" fill="white"/>
<path d="M33.4413 59.2653H32.1729V60.5337H33.4413V59.2653Z" fill="white"/>
<path d="M35.9042 59.2653H34.6357V60.5337H35.9042V59.2653Z" fill="white"/>
<path d="M38.3671 59.2653H37.0986V60.5337H38.3671V59.2653Z" fill="white"/>
<path d="M40.83 59.2653H39.5615V60.5337H40.83V59.2653Z" fill="white"/>
<path d="M44.5243 59.2653H43.2559V60.5337H44.5243V59.2653Z" fill="white"/>
<path d="M46.9877 59.2653H45.7192V60.5337H46.9877V59.2653Z" fill="white"/>
<path d="M48.2191 59.2653H46.9507V60.5337H48.2191V59.2653Z" fill="white"/>
<path d="M49.4506 59.2653H48.1821V60.5337H49.4506V59.2653Z" fill="white"/>
<path d="M51.9135 59.2653H50.645V60.5337H51.9135V59.2653Z" fill="white"/>
<path d="M58.0707 59.2653H56.8022V60.5337H58.0707V59.2653Z" fill="white"/>
<path d="M60.5341 59.2653H59.2656V60.5337H60.5341V59.2653Z" fill="white"/>
<path d="M62.9969 59.2653H61.7285V60.5337H62.9969V59.2653Z" fill="white"/>
<path d="M64.2284 59.2653H62.96V60.5337H64.2284V59.2653Z" fill="white"/>
<path d="M66.6913 59.2653H65.4229V60.5337H66.6913V59.2653Z" fill="white"/>
<path d="M67.9227 59.2653H66.6543V60.5337H67.9227V59.2653Z" fill="white"/>
<path d="M19.8949 60.4968H18.6265V61.7652H19.8949V60.4968Z" fill="white"/>
<path d="M22.3578 60.4968H21.0894V61.7652H22.3578V60.4968Z" fill="white"/>
<path d="M23.5892 60.4968H22.3208V61.7652H23.5892V60.4968Z" fill="white"/>
<path d="M26.0521 60.4968H24.7837V61.7652H26.0521V60.4968Z" fill="white"/>
<path d="M29.7465 60.4968H28.478V61.7652H29.7465V60.4968Z" fill="white"/>
<path d="M30.9784 60.4968H29.71V61.7652H30.9784V60.4968Z" fill="white"/>
<path d="M32.2098 60.4968H30.9414V61.7652H32.2098V60.4968Z" fill="white"/>
<path d="M33.4413 60.4968H32.1729V61.7652H33.4413V60.4968Z" fill="white"/>
<path d="M35.9042 60.4968H34.6357V61.7652H35.9042V60.4968Z" fill="white"/>
<path d="M40.83 60.4968H39.5615V61.7652H40.83V60.4968Z" fill="white"/>
<path d="M42.0614 60.4968H40.793V61.7652H42.0614V60.4968Z" fill="white"/>
<path d="M43.2928 60.4968H42.0244V61.7652H43.2928V60.4968Z" fill="white"/>
<path d="M48.2191 60.4968H46.9507V61.7652H48.2191V60.4968Z" fill="white"/>
<path d="M49.4506 60.4968H48.1821V61.7652H49.4506V60.4968Z" fill="white"/>
<path d="M50.682 60.4968H49.4136V61.7652H50.682V60.4968Z" fill="white"/>
<path d="M54.3763 60.4968H53.1079V61.7652H54.3763V60.4968Z" fill="white"/>
<path d="M55.6078 60.4968H54.3394V61.7652H55.6078V60.4968Z" fill="white"/>
<path d="M56.8392 60.4968H55.5708V61.7652H56.8392V60.4968Z" fill="white"/>
<path d="M58.0707 60.4968H56.8022V61.7652H58.0707V60.4968Z" fill="white"/>
<path d="M62.9969 60.4968H61.7285V61.7652H62.9969V60.4968Z" fill="white"/>
<path d="M18.6635 61.7283H17.395V62.9967H18.6635V61.7283Z" fill="white"/>
<path d="M19.8949 61.7283H18.6265V62.9967H19.8949V61.7283Z" fill="white"/>
<path d="M21.1263 61.7283H19.8579V62.9967H21.1263V61.7283Z" fill="white"/>
<path d="M22.3578 61.7283H21.0894V62.9967H22.3578V61.7283Z" fill="white"/>
<path d="M23.5892 61.7283H22.3208V62.9967H23.5892V61.7283Z" fill="white"/>
<path d="M27.2836 61.7283H26.0151V62.9967H27.2836V61.7283Z" fill="white"/>
<path d="M35.9042 61.7283H34.6357V62.9967H35.9042V61.7283Z" fill="white"/>
<path d="M37.1356 61.7283H35.8672V62.9967H37.1356V61.7283Z" fill="white"/>
<path d="M38.3671 61.7283H37.0986V62.9967H38.3671V61.7283Z" fill="white"/>
<path d="M39.5985 61.7283H38.3301V62.9967H39.5985V61.7283Z" fill="white"/>
<path d="M40.83 61.7283H39.5615V62.9967H40.83V61.7283Z" fill="white"/>
<path d="M42.0614 61.7283H40.793V62.9967H42.0614V61.7283Z" fill="white"/>
<path d="M43.2928 61.7283H42.0244V62.9967H43.2928V61.7283Z" fill="white"/>
<path d="M45.7562 61.7283H44.4878V62.9967H45.7562V61.7283Z" fill="white"/>
<path d="M46.9877 61.7283H45.7192V62.9967H46.9877V61.7283Z" fill="white"/>
<path d="M51.9135 61.7283H50.645V62.9967H51.9135V61.7283Z" fill="white"/>
<path d="M53.1449 61.7283H51.8765V62.9967H53.1449V61.7283Z" fill="white"/>
<path d="M54.3763 61.7283H53.1079V62.9967H54.3763V61.7283Z" fill="white"/>
<path d="M55.6078 61.7283H54.3394V62.9967H55.6078V61.7283Z" fill="white"/>
<path d="M56.8392 61.7283H55.5708V62.9967H56.8392V61.7283Z" fill="white"/>
<path d="M58.0707 61.7283H56.8022V62.9967H58.0707V61.7283Z" fill="white"/>
<path d="M59.3021 61.7283H58.0337V62.9967H59.3021V61.7283Z" fill="white"/>
<path d="M60.5341 61.7283H59.2656V62.9967H60.5341V61.7283Z" fill="white"/>
<path d="M61.7655 61.7283H60.4971V62.9967H61.7655V61.7283Z" fill="white"/>
<path d="M62.9969 61.7283H61.7285V62.9967H62.9969V61.7283Z" fill="white"/>
<path d="M65.4598 61.7283H64.1914V62.9967H65.4598V61.7283Z" fill="white"/>
<path d="M66.6913 61.7283H65.4229V62.9967H66.6913V61.7283Z" fill="white"/>
<path d="M18.6635 62.9597H17.395V64.2282H18.6635V62.9597Z" fill="white"/>
<path d="M19.8949 62.9597H18.6265V64.2282H19.8949V62.9597Z" fill="white"/>
<path d="M23.5892 62.9597H22.3208V64.2282H23.5892V62.9597Z" fill="white"/>
<path d="M26.0521 62.9597H24.7837V64.2282H26.0521V62.9597Z" fill="white"/>
<path d="M27.2836 62.9597H26.0151V64.2282H27.2836V62.9597Z" fill="white"/>
<path d="M28.515 62.9597H27.2466V64.2282H28.515V62.9597Z" fill="white"/>
<path d="M29.7465 62.9597H28.478V64.2282H29.7465V62.9597Z" fill="white"/>
<path d="M32.2098 62.9597H30.9414V64.2282H32.2098V62.9597Z" fill="white"/>
<path d="M33.4413 62.9597H32.1729V64.2282H33.4413V62.9597Z" fill="white"/>
<path d="M37.1356 62.9597H35.8672V64.2282H37.1356V62.9597Z" fill="white"/>
<path d="M39.5985 62.9597H38.3301V64.2282H39.5985V62.9597Z" fill="white"/>
<path d="M40.83 62.9597H39.5615V64.2282H40.83V62.9597Z" fill="white"/>
<path d="M43.2928 62.9597H42.0244V64.2282H43.2928V62.9597Z" fill="white"/>
<path d="M44.5243 62.9597H43.2559V64.2282H44.5243V62.9597Z" fill="white"/>
<path d="M46.9877 62.9597H45.7192V64.2282H46.9877V62.9597Z" fill="white"/>
<path d="M49.4506 62.9597H48.1821V64.2282H49.4506V62.9597Z" fill="white"/>
<path d="M53.1449 62.9597H51.8765V64.2282H53.1449V62.9597Z" fill="white"/>
<path d="M54.3763 62.9597H53.1079V64.2282H54.3763V62.9597Z" fill="white"/>
<path d="M59.3021 62.9597H58.0337V64.2282H59.3021V62.9597Z" fill="white"/>
<path d="M62.9969 62.9597H61.7285V64.2282H62.9969V62.9597Z" fill="white"/>
<path d="M65.4598 62.9597H64.1914V64.2282H65.4598V62.9597Z" fill="white"/>
<path d="M67.9227 62.9597H66.6543V64.2282H67.9227V62.9597Z" fill="white"/>
<path d="M18.6635 64.1913H17.395V65.4597H18.6635V64.1913Z" fill="white"/>
<path d="M21.1263 64.1913H19.8579V65.4597H21.1263V64.1913Z" fill="white"/>
<path d="M22.3578 64.1913H21.0894V65.4597H22.3578V64.1913Z" fill="white"/>
<path d="M24.8207 64.1913H23.5522V65.4597H24.8207V64.1913Z" fill="white"/>
<path d="M26.0521 64.1913H24.7837V65.4597H26.0521V64.1913Z" fill="white"/>
<path d="M27.2836 64.1913H26.0151V65.4597H27.2836V64.1913Z" fill="white"/>
<path d="M29.7465 64.1913H28.478V65.4597H29.7465V64.1913Z" fill="white"/>
<path d="M35.9042 64.1913H34.6357V65.4597H35.9042V64.1913Z" fill="white"/>
<path d="M42.0614 64.1913H40.793V65.4597H42.0614V64.1913Z" fill="white"/>
<path d="M44.5243 64.1913H43.2559V65.4597H44.5243V64.1913Z" fill="white"/>
<path d="M48.2191 64.1913H46.9507V65.4597H48.2191V64.1913Z" fill="white"/>
<path d="M49.4506 64.1913H48.1821V65.4597H49.4506V64.1913Z" fill="white"/>
<path d="M50.682 64.1913H49.4136V65.4597H50.682V64.1913Z" fill="white"/>
<path d="M51.9135 64.1913H50.645V65.4597H51.9135V64.1913Z" fill="white"/>
<path d="M53.1449 64.1913H51.8765V65.4597H53.1449V64.1913Z" fill="white"/>
<path d="M54.3763 64.1913H53.1079V65.4597H54.3763V64.1913Z" fill="white"/>
<path d="M55.6078 64.1913H54.3394V65.4597H55.6078V64.1913Z" fill="white"/>
<path d="M56.8392 64.1913H55.5708V65.4597H56.8392V64.1913Z" fill="white"/>
<path d="M60.5341 64.1913H59.2656V65.4597H60.5341V64.1913Z" fill="white"/>
<path d="M61.7655 64.1913H60.4971V65.4597H61.7655V64.1913Z" fill="white"/>
<path d="M65.4598 64.1913H64.1914V65.4597H65.4598V64.1913Z" fill="white"/>
<path d="M66.6913 64.1913H65.4229V65.4597H66.6913V64.1913Z" fill="white"/>
<path d="M67.9227 64.1913H66.6543V65.4597H67.9227V64.1913Z" fill="white"/>
<path d="M19.8949 65.4227H18.6265V66.6912H19.8949V65.4227Z" fill="white"/>
<path d="M22.3578 65.4227H21.0894V66.6912H22.3578V65.4227Z" fill="white"/>
<path d="M28.515 65.4227H27.2466V66.6912H28.515V65.4227Z" fill="white"/>
<path d="M29.7465 65.4227H28.478V66.6912H29.7465V65.4227Z" fill="white"/>
<path d="M33.4413 65.4227H32.1729V66.6912H33.4413V65.4227Z" fill="white"/>
<path d="M34.6727 65.4227H33.4043V66.6912H34.6727V65.4227Z" fill="white"/>
<path d="M39.5985 65.4227H38.3301V66.6912H39.5985V65.4227Z" fill="white"/>
<path d="M40.83 65.4227H39.5615V66.6912H40.83V65.4227Z" fill="white"/>
<path d="M43.2928 65.4227H42.0244V66.6912H43.2928V65.4227Z" fill="white"/>
<path d="M48.2191 65.4227H46.9507V66.6912H48.2191V65.4227Z" fill="white"/>
<path d="M54.3763 65.4227H53.1079V66.6912H54.3763V65.4227Z" fill="white"/>
<path d="M55.6078 65.4227H54.3394V66.6912H55.6078V65.4227Z" fill="white"/>
<path d="M59.3021 65.4227H58.0337V66.6912H59.3021V65.4227Z" fill="white"/>
<path d="M60.5341 65.4227H59.2656V66.6912H60.5341V65.4227Z" fill="white"/>
<path d="M61.7655 65.4227H60.4971V66.6912H61.7655V65.4227Z" fill="white"/>
<path d="M62.9969 65.4227H61.7285V66.6912H62.9969V65.4227Z" fill="white"/>
<path d="M67.9227 65.4227H66.6543V66.6912H67.9227V65.4227Z" fill="white"/>
<path d="M21.1263 66.6542H19.8579V67.9226H21.1263V66.6542Z" fill="white"/>
<path d="M23.5892 66.6542H22.3208V67.9226H23.5892V66.6542Z" fill="white"/>
<path d="M27.2836 66.6542H26.0151V67.9226H27.2836V66.6542Z" fill="white"/>
<path d="M32.2098 66.6542H30.9414V67.9226H32.2098V66.6542Z" fill="white"/>
<path d="M34.6727 66.6542H33.4043V67.9226H34.6727V66.6542Z" fill="white"/>
<path d="M37.1356 66.6542H35.8672V67.9226H37.1356V66.6542Z" fill="white"/>
<path d="M39.5985 66.6542H38.3301V67.9226H39.5985V66.6542Z" fill="white"/>
<path d="M46.9877 66.6542H45.7192V67.9226H46.9877V66.6542Z" fill="white"/>
<path d="M49.4506 66.6542H48.1821V67.9226H49.4506V66.6542Z" fill="white"/>
<path d="M51.9135 66.6542H50.645V67.9226H51.9135V66.6542Z" fill="white"/>
<path d="M53.1449 66.6542H51.8765V67.9226H53.1449V66.6542Z" fill="white"/>
<path d="M54.3763 66.6542H53.1079V67.9226H54.3763V66.6542Z" fill="white"/>
<path d="M55.6078 66.6542H54.3394V67.9226H55.6078V66.6542Z" fill="white"/>
<path d="M56.8392 66.6542H55.5708V67.9226H56.8392V66.6542Z" fill="white"/>
<path d="M61.7655 66.6542H60.4971V67.9226H61.7655V66.6542Z" fill="white"/>
<path d="M62.9969 66.6542H61.7285V67.9226H62.9969V66.6542Z" fill="white"/>
<path d="M64.2284 66.6542H62.96V67.9226H64.2284V66.6542Z" fill="white"/>
<path d="M65.4598 66.6542H64.1914V67.9226H65.4598V66.6542Z" fill="white"/>
<path d="M66.6913 66.6542H65.4229V67.9226H66.6913V66.6542Z" fill="white"/>
<path d="M67.9227 66.6542H66.6543V67.9226H67.9227V66.6542Z" fill="white"/>
<path d="M7.54297 7.54285V16.1633H16.1634V7.54285H7.54297ZM14.9319 14.9318H8.77446V8.77433H14.9319V14.9318Z" fill="white"/>
<path d="M59.2656 7.54285V16.1633H67.886V7.54285H59.2656ZM66.6545 14.9318H60.4971V8.77433H66.6545V14.9318Z" fill="white"/>
<path d="M7.54297 59.2653V67.8857H16.1634V59.2653H7.54297ZM14.9319 66.6542H8.77446V60.4968H14.9319V66.6542Z" fill="white"/>
<path d="M13.7003 10.0058H10.0059V13.7003H13.7003V10.0058Z" fill="white"/>
<path d="M65.423 10.0058H61.7285V13.7003H65.423V10.0058Z" fill="white"/>
<path d="M13.7003 61.7283H10.0059V65.4227H13.7003V61.7283Z" fill="white"/>
</mask>
<g mask="url(#mask0_14897_425504)">
<path d="M75.4286 0H0V88H75.4286V0Z" fill="black"/>
</g>
<path d="M6.13029 77.7268C5.51217 77.7268 5.06559 77.8983 4.79056 78.2414C4.51553 78.5845 4.37801 79.0537 4.37801 79.6492C4.37801 79.9384 4.41203 80.2007 4.48008 80.436C4.54813 80.6713 4.65021 80.8741 4.78631 81.0442C4.92241 81.2143 5.09253 81.3462 5.29668 81.4397C5.50083 81.5333 5.739 81.5801 6.0112 81.5801C6.15864 81.5801 6.28482 81.5772 6.38973 81.5716C6.49464 81.5659 6.58679 81.5546 6.66618 81.5376V79.4876H7.99315V82.4052C7.83437 82.4676 7.57918 82.5342 7.22759 82.6051C6.876 82.676 6.44219 82.7114 5.92614 82.7114C5.48382 82.7114 5.08261 82.6434 4.72251 82.5073C4.36241 82.3712 4.05477 82.1727 3.79958 81.9118C3.5444 81.651 3.34734 81.3306 3.2084 80.9506C3.06947 80.5707 3 80.1369 3 79.6492C3 79.1558 3.07656 78.7192 3.22967 78.3392C3.38278 77.9593 3.5926 77.6374 3.85913 77.3738C4.12566 77.1101 4.43897 76.9102 4.79907 76.7741C5.15916 76.638 5.54336 76.5699 5.95166 76.5699C6.22953 76.5699 6.48046 76.5883 6.70446 76.6252C6.92846 76.6621 7.12127 76.7046 7.28288 76.7528C7.4445 76.801 7.57777 76.8506 7.68268 76.9017C7.78759 76.9527 7.86272 76.9924 7.90809 77.0207L7.52531 78.084C7.34384 77.9876 7.13544 77.904 6.9001 77.8331C6.66476 77.7622 6.40816 77.7268 6.13029 77.7268ZM13.3266 80.3552C13.3266 80.7068 13.2755 81.0286 13.1734 81.3206C13.0714 81.6127 12.9239 81.8622 12.7311 82.0692C12.5383 82.2762 12.3072 82.4364 12.0379 82.5498C11.7685 82.6632 11.4665 82.7199 11.1319 82.7199C10.803 82.7199 10.5039 82.6632 10.2345 82.5498C9.96518 82.4364 9.73409 82.2762 9.54129 82.0692C9.34848 81.8622 9.1982 81.6127 9.09046 81.3206C8.98271 81.0286 8.92884 80.7068 8.92884 80.3552C8.92884 80.0036 8.98413 79.6832 9.09471 79.394C9.20529 79.1048 9.3584 78.8581 9.55405 78.6539C9.74969 78.4498 9.98219 78.291 10.2516 78.1776C10.5209 78.0642 10.8144 78.0075 11.1319 78.0075C11.4552 78.0075 11.7515 78.0642 12.0209 78.1776C12.2902 78.291 12.5213 78.4498 12.7141 78.6539C12.9069 78.8581 13.0572 79.1048 13.1649 79.394C13.2727 79.6832 13.3266 80.0036 13.3266 80.3552ZM12.0336 80.3552C12.0336 79.9639 11.9556 79.6563 11.7997 79.4323C11.6437 79.2083 11.4212 79.0963 11.1319 79.0963C10.8427 79.0963 10.6187 79.2083 10.46 79.4323C10.3012 79.6563 10.2218 79.9639 10.2218 80.3552C10.2218 80.7465 10.3012 81.057 10.46 81.2866C10.6187 81.5163 10.8427 81.6311 11.1319 81.6311C11.4212 81.6311 11.6437 81.5163 11.7997 81.2866C11.9556 81.057 12.0336 80.7465 12.0336 80.3552ZM18.4898 80.3552C18.4898 80.7068 18.4388 81.0286 18.3367 81.3206C18.2346 81.6127 18.0872 81.8622 17.8944 82.0692C17.7016 82.2762 17.4705 82.4364 17.2011 82.5498C16.9318 82.6632 16.6298 82.7199 16.2952 82.7199C15.9663 82.7199 15.6672 82.6632 15.3978 82.5498C15.1285 82.4364 14.8974 82.2762 14.7046 82.0692C14.5118 81.8622 14.3615 81.6127 14.2537 81.3206C14.146 81.0286 14.0921 80.7068 14.0921 80.3552C14.0921 80.0036 14.1474 79.6832 14.258 79.394C14.3686 79.1048 14.5217 78.8581 14.7173 78.6539C14.913 78.4498 15.1455 78.291 15.4148 78.1776C15.6842 78.0642 15.9777 78.0075 16.2952 78.0075C16.6185 78.0075 16.9148 78.0642 17.1841 78.1776C17.4535 78.291 17.6846 78.4498 17.8774 78.6539C18.0702 78.8581 18.2205 79.1048 18.3282 79.394C18.436 79.6832 18.4898 80.0036 18.4898 80.3552ZM17.1969 80.3552C17.1969 79.9639 17.1189 79.6563 16.963 79.4323C16.807 79.2083 16.5844 79.0963 16.2952 79.0963C16.006 79.0963 15.782 79.2083 15.6232 79.4323C15.4645 79.6563 15.3851 79.9639 15.3851 80.3552C15.3851 80.7465 15.4645 81.057 15.6232 81.2866C15.782 81.5163 16.006 81.6311 16.2952 81.6311C16.5844 81.6311 16.807 81.5163 16.963 81.2866C17.1189 81.057 17.1969 80.7465 17.1969 80.3552ZM20.5483 80.2191C20.5483 80.9279 20.8347 81.2824 21.4075 81.2824C21.5379 81.2824 21.6598 81.2654 21.7732 81.2313C21.8867 81.1973 21.9831 81.1576 22.0624 81.1122V79.0878C22.0001 79.0764 21.9263 79.0665 21.8413 79.058C21.7562 79.0495 21.657 79.0452 21.5436 79.0452C21.209 79.0452 20.9595 79.1558 20.795 79.377C20.6306 79.5981 20.5483 79.8788 20.5483 80.2191ZM23.3299 82.0394C23.3299 82.771 23.1442 83.3139 22.7727 83.6684C22.4013 84.0228 21.8271 84.2 21.0502 84.2C20.778 84.2 20.5058 84.1759 20.2336 84.1277C19.9614 84.0795 19.7091 84.0157 19.4766 83.9363L19.6977 82.873C19.8962 82.9524 20.1046 83.0148 20.3229 83.0602C20.5413 83.1055 20.7893 83.1282 21.0672 83.1282C21.4302 83.1282 21.6868 83.0488 21.837 82.89C21.9873 82.7313 22.0624 82.5271 22.0624 82.2776V82.116C21.9263 82.1784 21.786 82.2251 21.6414 82.2563C21.4968 82.2875 21.3394 82.3031 21.1693 82.3031C20.5512 82.3031 20.0777 82.1202 19.7488 81.7545C19.4198 81.3887 19.2554 80.8769 19.2554 80.2191C19.2554 79.8902 19.3064 79.591 19.4085 79.3217C19.5106 79.0523 19.6594 78.8212 19.8551 78.6284C20.0507 78.4356 20.2903 78.2868 20.5739 78.1818C20.8574 78.0769 21.1778 78.0245 21.5351 78.0245C21.6882 78.0245 21.8455 78.0316 22.0072 78.0457C22.1688 78.0599 22.329 78.0784 22.4878 78.101C22.6465 78.1237 22.7982 78.1507 22.9428 78.1818C23.0874 78.213 23.2165 78.2456 23.3299 78.2797V82.0394ZM26.3071 82.6859C25.9384 82.6802 25.6393 82.6405 25.4096 82.5668C25.18 82.4931 24.9985 82.3896 24.8652 82.2563C24.732 82.1231 24.6413 81.9614 24.593 81.7715C24.5448 81.5815 24.5207 81.3674 24.5207 81.1293V76.2041L25.7882 76V80.8741C25.7882 80.9875 25.7967 81.0896 25.8137 81.1803C25.8307 81.271 25.8633 81.3476 25.9115 81.41C25.9597 81.4723 26.0292 81.5234 26.1199 81.5631C26.2106 81.6028 26.3326 81.6283 26.4857 81.6396L26.3071 82.6859ZM26.9961 80.3977C26.9961 80.0008 27.057 79.6534 27.1789 79.3557C27.3009 79.058 27.4611 78.8099 27.6595 78.6114C27.858 78.4129 28.0863 78.2627 28.3443 78.1606C28.6023 78.0585 28.8674 78.0075 29.1396 78.0075C29.7748 78.0075 30.2766 78.2017 30.6452 78.5901C31.0138 78.9786 31.1981 79.5499 31.1981 80.3041C31.1981 80.3779 31.1953 80.4587 31.1896 80.5466C31.184 80.6345 31.1783 80.7124 31.1726 80.7805H28.2975C28.3259 81.0414 28.4478 81.2483 28.6633 81.4015C28.8788 81.5546 29.168 81.6311 29.5309 81.6311C29.7634 81.6311 29.9917 81.6099 30.2157 81.5673C30.4397 81.5248 30.6225 81.4723 30.7643 81.41L30.9344 82.4392C30.8664 82.4732 30.7757 82.5073 30.6622 82.5413C30.5488 82.5753 30.4226 82.6051 30.2837 82.6306C30.1448 82.6561 29.9959 82.6774 29.8371 82.6944C29.6784 82.7114 29.5196 82.7199 29.3608 82.7199C28.9582 82.7199 28.608 82.6604 28.3103 82.5413C28.0125 82.4222 27.7659 82.2592 27.5702 82.0522C27.3746 81.8452 27.23 81.5999 27.1364 81.3164C27.0428 81.0328 26.9961 80.7266 26.9961 80.3977ZM29.9732 79.9129C29.9676 79.8051 29.9491 79.7002 29.9179 79.5981C29.8868 79.4961 29.8386 79.4053 29.7733 79.3259C29.7081 79.2465 29.6259 79.1813 29.5267 79.1303C29.4274 79.0793 29.3041 79.0537 29.1566 79.0537C29.0149 79.0537 28.8929 79.0778 28.7909 79.126C28.6888 79.1742 28.6037 79.238 28.5357 79.3174C28.4676 79.3968 28.4152 79.489 28.3783 79.5939C28.3415 79.6988 28.3145 79.8051 28.2975 79.9129H29.9732ZM36.0722 76.638C36.9512 76.638 37.626 76.7925 38.0967 77.1016C38.5674 77.4106 38.8027 77.9167 38.8027 78.6199C38.8027 79.3288 38.5645 79.8406 38.0882 80.1553C37.6118 80.47 36.9313 80.6274 36.0467 80.6274H35.6299V82.6008H34.3029V76.7911C34.5921 76.7344 34.8983 76.6947 35.2216 76.672C35.5448 76.6493 35.8284 76.638 36.0722 76.638ZM36.1573 77.7693C36.0609 77.7693 35.9659 77.7721 35.8723 77.7778C35.7787 77.7835 35.6979 77.7891 35.6299 77.7948V79.4961H36.0467C36.506 79.4961 36.8519 79.4337 37.0844 79.3089C37.3169 79.1842 37.4332 78.9517 37.4332 78.6114C37.4332 78.447 37.4034 78.3109 37.3439 78.2031C37.2843 78.0954 37.1993 78.0089 37.0887 77.9437C36.9781 77.8785 36.8434 77.8331 36.6846 77.8076C36.5259 77.7821 36.3501 77.7693 36.1573 77.7693ZM41.4822 82.6859C41.1136 82.6802 40.8144 82.6405 40.5848 82.5668C40.3551 82.4931 40.1736 82.3896 40.0404 82.2563C39.9071 82.1231 39.8164 81.9614 39.7682 81.7715C39.7199 81.5815 39.6958 81.3674 39.6958 81.1293V76.2041L40.9633 76V80.8741C40.9633 80.9875 40.9718 81.0896 40.9888 81.1803C41.0058 81.271 41.0384 81.3476 41.0866 81.41C41.1348 81.4723 41.2043 81.5234 41.295 81.5631C41.3858 81.6028 41.5077 81.6283 41.6608 81.6396L41.4822 82.6859ZM44.0936 81.7162C44.2183 81.7162 44.3374 81.7133 44.4508 81.7077C44.5642 81.702 44.655 81.6935 44.723 81.6822V80.721C44.672 80.7096 44.5954 80.6983 44.4934 80.6869C44.3913 80.6756 44.2977 80.6699 44.2127 80.6699C44.0936 80.6699 43.9816 80.677 43.8767 80.6912C43.7717 80.7054 43.6796 80.7323 43.6002 80.772C43.5208 80.8117 43.4584 80.8656 43.4131 80.9336C43.3677 81.0017 43.345 81.0867 43.345 81.1888C43.345 81.3873 43.4117 81.5248 43.5449 81.6013C43.6782 81.6779 43.8611 81.7162 44.0936 81.7162ZM43.9915 78.0075C44.3658 78.0075 44.6777 78.05 44.9272 78.1351C45.1767 78.2201 45.3766 78.342 45.5269 78.5008C45.6771 78.6596 45.7835 78.8524 45.8458 79.0793C45.9082 79.3061 45.9394 79.5584 45.9394 79.8363V82.4732C45.7579 82.5129 45.5056 82.5597 45.1824 82.6136C44.8591 82.6675 44.4678 82.6944 44.0085 82.6944C43.7193 82.6944 43.457 82.6689 43.2217 82.6178C42.9863 82.5668 42.7836 82.4832 42.6135 82.3669C42.4434 82.2507 42.3129 82.099 42.2222 81.9118C42.1315 81.7247 42.0861 81.495 42.0861 81.2228C42.0861 80.962 42.1386 80.7408 42.2435 80.5593C42.3484 80.3779 42.4887 80.2333 42.6645 80.1255C42.8403 80.0178 43.0416 79.9398 43.2685 79.8916C43.4953 79.8434 43.7306 79.8193 43.9745 79.8193C44.1389 79.8193 44.285 79.8264 44.4125 79.8406C44.5401 79.8547 44.6436 79.8732 44.723 79.8958V79.7768C44.723 79.5613 44.6578 79.3883 44.5274 79.2579C44.397 79.1275 44.1701 79.0622 43.8469 79.0622C43.6314 79.0622 43.4187 79.0778 43.2089 79.109C42.9991 79.1402 42.8176 79.1842 42.6645 79.2409L42.5029 78.2201C42.5766 78.1974 42.6688 78.1733 42.7794 78.1478C42.8899 78.1223 43.0104 78.0996 43.1409 78.0798C43.2713 78.0599 43.4088 78.0429 43.5534 78.0287C43.698 78.0146 43.8441 78.0075 43.9915 78.0075ZM51.0602 78.1266C50.805 78.9885 50.5384 79.7966 50.2606 80.5508C49.9827 81.305 49.6793 82.0366 49.3504 82.7454C49.2313 83.0006 49.1122 83.2175 48.9932 83.3962C48.8741 83.5748 48.7436 83.7222 48.6019 83.8385C48.4601 83.9547 48.2999 84.0398 48.1213 84.0937C47.9426 84.1475 47.7342 84.1745 47.4961 84.1745C47.2976 84.1745 47.1147 84.1561 46.9474 84.1192C46.7801 84.0823 46.6426 84.0412 46.5349 83.9958L46.756 82.9836C46.8864 83.029 47.0027 83.0602 47.1048 83.0772C47.2068 83.0942 47.3146 83.1027 47.428 83.1027C47.6548 83.1027 47.8292 83.0417 47.9511 82.9198C48.0731 82.7979 48.1766 82.6292 48.2616 82.4137C47.9724 81.8466 47.6832 81.2101 47.394 80.504C47.1048 79.798 46.8326 79.0055 46.5774 78.1266H47.9214C47.9781 78.3477 48.0447 78.5873 48.1213 78.8453C48.1978 79.1034 48.2786 79.3642 48.3637 79.6279C48.4487 79.8916 48.5352 80.1482 48.6231 80.3977C48.711 80.6472 48.7947 80.8741 48.8741 81.0782C48.9478 80.8741 49.0243 80.6472 49.1037 80.3977C49.1831 80.1482 49.2611 79.8916 49.3377 79.6279C49.4142 79.3642 49.4879 79.1034 49.5588 78.8453C49.6297 78.5873 49.6935 78.3477 49.7502 78.1266H51.0602ZM53.0251 81.6907C53.2576 81.6907 53.4221 81.668 53.5185 81.6226C53.6149 81.5772 53.6631 81.4893 53.6631 81.3589C53.6631 81.2568 53.6007 81.1675 53.4759 81.091C53.3512 81.0144 53.1612 80.9279 52.906 80.8315C52.7075 80.7578 52.5275 80.6813 52.3659 80.6019C52.2042 80.5225 52.0667 80.4275 51.9533 80.3169C51.8399 80.2063 51.752 80.0745 51.6896 79.9214C51.6272 79.7683 51.5961 79.584 51.5961 79.3685C51.5961 78.9488 51.752 78.6171 52.0639 78.3732C52.3758 78.1294 52.8039 78.0075 53.3483 78.0075C53.6205 78.0075 53.8814 78.0316 54.1309 78.0798C54.3804 78.128 54.5789 78.1804 54.7263 78.2371L54.5052 79.2239C54.3577 79.1728 54.1975 79.1275 54.0246 79.0878C53.8516 79.0481 53.6574 79.0282 53.4419 79.0282C53.0449 79.0282 52.8465 79.1388 52.8465 79.36C52.8465 79.411 52.855 79.4564 52.872 79.4961C52.889 79.5358 52.923 79.574 52.9741 79.6109C53.0251 79.6478 53.0946 79.6874 53.1825 79.73C53.2704 79.7725 53.3824 79.8193 53.5185 79.8703C53.7963 79.9724 54.026 80.0731 54.2075 80.1723C54.3889 80.2715 54.5321 80.3793 54.637 80.4955C54.7419 80.6118 54.8157 80.7408 54.8582 80.8826C54.9007 81.0243 54.922 81.1888 54.922 81.3759C54.922 81.8183 54.7561 82.1528 54.4244 82.3797C54.0926 82.6065 53.6234 82.7199 53.0166 82.7199C52.6196 82.7199 52.2893 82.6859 52.0256 82.6178C51.7619 82.5498 51.579 82.4931 51.477 82.4477L51.6896 81.4185C51.9051 81.5035 52.1263 81.5702 52.3531 81.6184C52.5799 81.6666 52.8039 81.6907 53.0251 81.6907ZM55.8236 77.0122L57.0911 76.8081V78.1266H58.6137V79.1813H57.0911V80.755C57.0911 81.0215 57.1379 81.2342 57.2314 81.3929C57.325 81.5517 57.5136 81.6311 57.7971 81.6311C57.9332 81.6311 58.0735 81.6184 58.2182 81.5928C58.3628 81.5673 58.4946 81.5319 58.6137 81.4865L58.7923 82.4732C58.6392 82.5356 58.4691 82.5895 58.2819 82.6349C58.0948 82.6802 57.8651 82.7029 57.5929 82.7029C57.247 82.7029 56.9606 82.6561 56.7338 82.5626C56.507 82.469 56.3255 82.3386 56.1894 82.1713C56.0533 82.004 55.9583 81.8012 55.9045 81.5631C55.8506 81.3249 55.8236 81.0612 55.8236 80.772V77.0122ZM63.828 80.3552C63.828 80.7068 63.777 81.0286 63.6749 81.3206C63.5728 81.6127 63.4254 81.8622 63.2326 82.0692C63.0398 82.2762 62.8087 82.4364 62.5393 82.5498C62.27 82.6632 61.968 82.7199 61.6334 82.7199C61.3045 82.7199 61.0054 82.6632 60.736 82.5498C60.4666 82.4364 60.2355 82.2762 60.0427 82.0692C59.8499 81.8622 59.6996 81.6127 59.5919 81.3206C59.4842 81.0286 59.4303 80.7068 59.4303 80.3552C59.4303 80.0036 59.4856 79.6832 59.5962 79.394C59.7067 79.1048 59.8599 78.8581 60.0555 78.6539C60.2511 78.4498 60.4836 78.291 60.753 78.1776C61.0224 78.0642 61.3158 78.0075 61.6334 78.0075C61.9566 78.0075 62.2529 78.0642 62.5223 78.1776C62.7917 78.291 63.0228 78.4498 63.2156 78.6539C63.4084 78.8581 63.5586 79.1048 63.6664 79.394C63.7741 79.6832 63.828 80.0036 63.828 80.3552ZM62.5351 80.3552C62.5351 79.9639 62.4571 79.6563 62.3011 79.4323C62.1452 79.2083 61.9226 79.0963 61.6334 79.0963C61.3442 79.0963 61.1202 79.2083 60.9614 79.4323C60.8026 79.6563 60.7232 79.9639 60.7232 80.3552C60.7232 80.7465 60.8026 81.057 60.9614 81.2866C61.1202 81.5163 61.3442 81.6311 61.6334 81.6311C61.9226 81.6311 62.1452 81.5163 62.3011 81.2866C62.4571 81.057 62.5351 80.7465 62.5351 80.3552ZM67.5027 79.2494C67.3893 79.221 67.256 79.1913 67.1029 79.1601C66.9498 79.1289 66.7853 79.1133 66.6095 79.1133C66.5301 79.1133 66.4352 79.1204 66.3246 79.1345C66.214 79.1487 66.1304 79.1643 66.0736 79.1813V82.6008H64.8062V78.3647C65.0331 78.2853 65.301 78.2102 65.6101 78.1393C65.9191 78.0684 66.2636 78.033 66.6436 78.033C66.7116 78.033 66.7938 78.0372 66.8902 78.0457C66.9866 78.0543 67.0831 78.0656 67.1795 78.0798C67.2759 78.0939 67.3723 78.111 67.4687 78.1308C67.5651 78.1507 67.6473 78.1748 67.7153 78.2031L67.5027 79.2494ZM68.1832 80.3977C68.1832 80.0008 68.2442 79.6534 68.3661 79.3557C68.488 79.058 68.6482 78.8099 68.8467 78.6114C69.0452 78.4129 69.2734 78.2627 69.5314 78.1606C69.7895 78.0585 70.0546 78.0075 70.3268 78.0075C70.9619 78.0075 71.4638 78.2017 71.8324 78.5901C72.201 78.9786 72.3853 79.5499 72.3853 80.3041C72.3853 80.3779 72.3824 80.4587 72.3768 80.5466C72.3711 80.6345 72.3654 80.7124 72.3597 80.7805H69.4846C69.513 81.0414 69.6349 81.2483 69.8504 81.4015C70.0659 81.5546 70.3551 81.6311 70.718 81.6311C70.9505 81.6311 71.1788 81.6099 71.4028 81.5673C71.6268 81.5248 71.8097 81.4723 71.9514 81.41L72.1216 82.4392C72.0535 82.4732 71.9628 82.5073 71.8494 82.5413C71.736 82.5753 71.6098 82.6051 71.4708 82.6306C71.3319 82.6561 71.1831 82.6774 71.0243 82.6944C70.8655 82.7114 70.7067 82.7199 70.5479 82.7199C70.1453 82.7199 69.7951 82.6604 69.4974 82.5413C69.1997 82.4222 68.953 82.2592 68.7574 82.0522C68.5617 81.8452 68.4171 81.5999 68.3235 81.3164C68.23 81.0328 68.1832 80.7266 68.1832 80.3977ZM71.1604 79.9129C71.1547 79.8051 71.1363 79.7002 71.1051 79.5981C71.0739 79.4961 71.0257 79.4053 70.9605 79.3259C70.8953 79.2465 70.813 79.1813 70.7138 79.1303C70.6146 79.0793 70.4912 79.0537 70.3438 79.0537C70.202 79.0537 70.0801 79.0778 69.978 79.126C69.8759 79.1742 69.7909 79.238 69.7228 79.3174C69.6548 79.3968 69.6023 79.489 69.5655 79.5939C69.5286 79.6988 69.5017 79.8051 69.4846 79.9129H71.1604Z" fill="white"/>
</g>
<path d="M30.8792 30.7186L37.7984 37.504L30.9307 44.3519C30.8186 44.2054 30.7314 44.0414 30.6726 43.8666C30.6417 43.6686 30.6417 43.4669 30.6726 43.2689V31.6156C30.652 31.3028 30.724 30.9901 30.8784 30.7186M40.779 34.5447L38.5204 36.782L31.6835 30.0583C31.9052 29.9816 32.1427 29.9602 32.3747 29.9966C32.7388 30.0963 33.0864 30.2499 33.4054 30.4502L39.5931 33.8742C39.9952 34.0903 40.3871 34.3175 40.779 34.5447ZM38.5212 38.2363L40.7687 40.4434L39.1395 41.3507L34.1686 44.1136C33.7569 44.3408 33.3437 44.5577 32.9415 44.8055C32.7694 44.9127 32.5765 44.982 32.3755 45.0086C32.1745 45.0352 31.9702 45.0186 31.7762 44.9599L38.5212 38.2363ZM44.3478 37.504C44.354 37.7809 44.2843 38.0542 44.1461 38.2943C44.0079 38.5343 43.8066 38.7319 43.5641 38.8656L41.7068 39.8964L39.263 37.504L41.7171 35.0704C42.3465 35.4211 42.9656 35.7718 43.5839 36.1019C43.8306 36.2396 44.0332 36.4444 44.1683 36.6925C44.3034 36.9407 44.3661 37.222 44.3478 37.504Z" fill="#FF8A00"/>
<defs>
<clipPath id="clip0_14897_425504">
<rect width="75.4286" height="88" fill="white"/>
</clipPath>
</defs>
</svg>
