<svg width="1440" height="900" viewBox="0 0 1440 900" fill="none" xmlns="http://www.w3.org/2000/svg">
<path d="M1440 0H0V900H1440V0Z" fill="#EBF3FA"/>
<g opacity="0.5">
<path d="M858.917 547.865H393.292V145.504C393.292 127.739 407.744 113.286 425.51 113.286H831.875C846.786 113.286 858.917 125.417 858.917 140.329V547.865ZM400.615 540.542H851.593V140.329C851.593 129.455 842.747 120.61 831.874 120.61H425.51C411.783 120.61 400.616 131.777 400.616 145.504V540.542H400.615Z" fill="#C8DBF4"/>
<path d="M855.255 197.646H396.953V205.791H855.255V197.646Z" fill="#C8DBF4"/>
<path d="M855.255 263.229H396.953V271.374H855.255V263.229Z" fill="#C8DBF4"/>
<path d="M855.255 328.812H396.953V336.956H855.255V328.812Z" fill="#C8DBF4"/>
<path d="M855.255 394.633H396.953V402.778H855.255V394.633Z" fill="#C8DBF4"/>
<path d="M496.919 394.634H508.363V352.044H496.919V394.634Z" fill="#C8DBF4"/>
<path d="M484.331 394.634H494.248V348.344H484.331V394.634Z" fill="#C8DBF4"/>
<path d="M468.877 393.84L478.721 395.045L484.345 349.098L474.501 347.893L468.877 393.84Z" fill="#D2E3FC"/>
<path d="M816.694 394.634H828.139V352.044H816.694V394.634Z" fill="#C8DBF4"/>
<path d="M804.107 394.634H814.024V348.344H804.107V394.634Z" fill="#C8DBF4"/>
<path d="M788.651 393.828L798.495 395.033L804.119 349.086L794.275 347.881L788.651 393.828Z" fill="#D2E3FC"/>
<path d="M413.078 394.634H459.874V386.305H413.078V394.634Z" fill="#95C0F4"/>
<path d="M407.356 386.305H454.152V380.577H407.356V386.305Z" fill="#B7D3F3"/>
<path d="M411.957 380.577H456.822V374.85H411.957V380.577Z" fill="#D2E3FC"/>
<path d="M410.871 374.85H451.389V370.475H410.871V374.85Z" fill="#C8DBF4"/>
<path d="M637.696 394.634H684.492V386.305H637.696V394.634Z" fill="#D2E3FC"/>
<path d="M631.974 386.305H678.77V380.577H631.974V386.305Z" fill="#B7D3F3"/>
<path d="M636.575 380.577H681.44V374.85H636.575V380.577Z" fill="#D2E3FC"/>
<path d="M635.488 374.85H676.007V370.475H635.488V374.85Z" fill="#C8DBF4"/>
<path d="M630.432 370.476H677.229V364.748H630.432V370.476Z" fill="#B7D3F3"/>
<path d="M635.034 364.748H679.899V359.02H635.034V364.748Z" fill="#D2E3FC"/>
<path d="M633.948 359.02H674.466V354.645H633.948V359.02Z" fill="#C8DBF4"/>
<path d="M602.616 394.45H610.594V348.344H602.616V394.45Z" fill="#C1D9F4"/>
<path d="M700.71 394.45H708.688V346.231H700.71V394.45Z" fill="#C1D9F4"/>
<path d="M724.875 394.45H732.853V348.344H724.875V394.45Z" fill="#C1D9F4"/>
<path d="M592.534 394.45H602.616V344.543H592.534V394.45Z" fill="#E4EEF9"/>
<path d="M734.515 394.45H744.596V344.543H734.515V394.45Z" fill="#E4EEF9"/>
<path d="M582.453 394.45H592.534V346.921H582.453V394.45Z" fill="#B7D3F3"/>
<path d="M685.94 394.472L695.872 392.738L686.595 339.606L676.663 341.34L685.94 394.472Z" fill="#B7D3F3"/>
<path d="M572.371 394.45H582.453V354.21H572.371V394.45Z" fill="#C8DBF4"/>
<path d="M747.705 394.45H757.787V354.21H747.705V394.45Z" fill="#C8DBF4"/>
<path d="M562.29 394.45H572.372V352.044H562.29V394.45Z" fill="#95C0F4"/>
<path d="M550.595 394.45H560.677V352.044H550.595V394.45Z" fill="#D2E3FC"/>
<path d="M759.188 394.45H769.27V352.044H759.188V394.45Z" fill="#D2E3FC"/>
<path d="M538.63 394.45H548.711V348.344H538.63V394.45Z" fill="#AFCDFB"/>
<path d="M713.769 394.45H723.851V348.344H713.769V394.45Z" fill="#AFCDFB"/>
<path d="M855.255 486.643H396.953V494.787H855.255V486.643Z" fill="#C8DBF4"/>
<path d="M496.919 486.642H508.363V444.052H496.919V486.642Z" fill="#C8DBF4"/>
<path d="M484.331 486.642H494.248V440.352H484.331V486.642Z" fill="#C8DBF4"/>
<path d="M468.866 485.859L478.71 487.063L484.334 441.116L474.49 439.911L468.866 485.859Z" fill="#D2E3FC"/>
<path d="M816.694 486.642H828.139V444.052H816.694V486.642Z" fill="#C8DBF4"/>
<path d="M804.107 486.642H814.024V440.352H804.107V486.642Z" fill="#C8DBF4"/>
<path d="M788.64 485.855L798.483 487.06L804.108 441.113L794.264 439.908L788.64 485.855Z" fill="#D2E3FC"/>
<path d="M413.078 486.642H459.874V478.313H413.078V486.642Z" fill="#95C0F4"/>
<path d="M407.356 478.313H454.152V472.586H407.356V478.313Z" fill="#B7D3F3"/>
<path d="M411.957 472.586H456.822V466.859H411.957V472.586Z" fill="#D2E3FC"/>
<path d="M410.871 466.857H451.389V462.483H410.871V466.857Z" fill="#C8DBF4"/>
<path d="M637.696 486.642H684.492V478.313H637.696V486.642Z" fill="#D2E3FC"/>
<path d="M631.974 478.313H678.77V472.586H631.974V478.313Z" fill="#B7D3F3"/>
<path d="M636.575 472.586H681.44V466.859H636.575V472.586Z" fill="#D2E3FC"/>
<path d="M635.488 466.857H676.007V462.483H635.488V466.857Z" fill="#C8DBF4"/>
<path d="M630.432 462.483H677.229V456.756H630.432V462.483Z" fill="#B7D3F3"/>
<path d="M635.034 456.756H679.899V451.029H635.034V456.756Z" fill="#D2E3FC"/>
<path d="M633.948 451.029H674.466V446.654H633.948V451.029Z" fill="#C8DBF4"/>
<path d="M578.153 486.458H586.13V440.352H578.153V486.458Z" fill="#C1D9F4"/>
<path d="M700.71 486.458H708.688V438.24H700.71V486.458Z" fill="#C1D9F4"/>
<path d="M724.875 486.458H732.853V440.352H724.875V486.458Z" fill="#C1D9F4"/>
<path d="M568.071 486.459H578.153V436.551H568.071V486.459Z" fill="#E4EEF9"/>
<path d="M734.515 486.459H744.596V436.551H734.515V486.459Z" fill="#E4EEF9"/>
<path d="M557.99 486.458H568.072V438.929H557.99V486.458Z" fill="#B7D3F3"/>
<path d="M685.931 486.496L695.862 484.762L686.585 431.63L676.654 433.364L685.931 486.496Z" fill="#B7D3F3"/>
<path d="M547.908 486.459H557.99V446.218H547.908V486.459Z" fill="#C8DBF4"/>
<path d="M747.705 486.459H757.787V446.218H747.705V486.459Z" fill="#C8DBF4"/>
<path d="M537.826 486.458H547.908V444.052H537.826V486.458Z" fill="#95C0F4"/>
<path d="M526.132 486.458H536.214V444.052H526.132V486.458Z" fill="#D2E3FC"/>
<path d="M759.188 486.458H769.27V444.052H759.188V486.458Z" fill="#D2E3FC"/>
<path d="M514.167 486.458H524.249V440.352H514.167V486.458Z" fill="#AFCDFB"/>
<path d="M713.769 486.458H723.851V440.352H713.769V486.458Z" fill="#AFCDFB"/>
<path d="M738.576 155.241H727.131V197.831H738.576V155.241Z" fill="#C8DBF4"/>
<path d="M751.164 151.541H741.247V197.831H751.164V151.541Z" fill="#C8DBF4"/>
<path d="M761.018 151.082L751.174 152.287L756.798 198.234L766.642 197.029L761.018 151.082Z" fill="#D2E3FC"/>
<path d="M554.403 220.646H542.958V263.235H554.403V220.646Z" fill="#C8DBF4"/>
<path d="M566.991 216.945H557.073V263.235H566.991V216.945Z" fill="#C8DBF4"/>
<path d="M576.826 216.535L566.982 217.739L572.602 263.686L582.446 262.482L576.826 216.535Z" fill="#D2E3FC"/>
<path d="M418.8 155.241H407.356V197.831H418.8V155.241Z" fill="#C8DBF4"/>
<path d="M431.388 151.541H421.471V197.831H431.388V151.541Z" fill="#C8DBF4"/>
<path d="M441.241 151.094L431.397 152.299L437.022 198.246L446.865 197.041L441.241 151.094Z" fill="#D2E3FC"/>
<path d="M822.416 189.502H775.62V197.831H822.416V189.502Z" fill="#95C0F4"/>
<path d="M828.139 183.774H781.343V189.502H828.139V183.774Z" fill="#B7D3F3"/>
<path d="M823.538 178.046H778.673V183.773H823.538V178.046Z" fill="#D2E3FC"/>
<path d="M824.624 173.672H784.106V178.046H824.624V173.672Z" fill="#C8DBF4"/>
<path d="M597.799 189.502H551.003V197.831H597.799V189.502Z" fill="#D2E3FC"/>
<path d="M603.522 183.774H556.725V189.502H603.522V183.774Z" fill="#B7D3F3"/>
<path d="M598.92 178.046H554.055V183.773H598.92V178.046Z" fill="#D2E3FC"/>
<path d="M600.006 173.672H559.488V178.046H600.006V173.672Z" fill="#C8DBF4"/>
<path d="M605.063 167.944H558.266V173.672H605.063V167.944Z" fill="#B7D3F3"/>
<path d="M600.461 162.217H555.596V167.945H600.461V162.217Z" fill="#D2E3FC"/>
<path d="M601.547 157.842H561.029V162.216H601.547V157.842Z" fill="#C8DBF4"/>
<path d="M632.879 151.541H624.901V197.647H632.879V151.541Z" fill="#C1D9F4"/>
<path d="M534.785 149.429H526.807V197.648H534.785V149.429Z" fill="#C1D9F4"/>
<path d="M510.619 151.541H502.642V197.647H510.619V151.541Z" fill="#C1D9F4"/>
<path d="M642.96 147.739H632.878V197.646H642.96V147.739Z" fill="#E4EEF9"/>
<path d="M500.98 147.739H490.898V197.646H500.98V147.739Z" fill="#E4EEF9"/>
<path d="M653.042 150.118H642.96V197.647H653.042V150.118Z" fill="#B7D3F3"/>
<path d="M558.812 144.532L548.88 142.798L539.603 195.93L549.535 197.664L558.812 144.532Z" fill="#B7D3F3"/>
<path d="M744.271 254.901H697.475V263.23H744.271V254.901Z" fill="#D2E3FC"/>
<path d="M749.994 249.173H703.198V254.901H749.994V249.173Z" fill="#B7D3F3"/>
<path d="M745.392 243.445H700.527V249.173H745.392V243.445Z" fill="#D2E3FC"/>
<path d="M746.478 239.071H705.96V243.446H746.478V239.071Z" fill="#C8DBF4"/>
<path d="M751.535 233.344H704.739V239.071H751.535V233.344Z" fill="#B7D3F3"/>
<path d="M746.933 227.615H702.068V233.343H746.933V227.615Z" fill="#D2E3FC"/>
<path d="M748.02 223.241H707.501V227.616H748.02V223.241Z" fill="#C8DBF4"/>
<path d="M705.282 209.935L695.351 208.201L686.074 261.333L696.006 263.067L705.282 209.935Z" fill="#B7D3F3"/>
<path d="M663.123 157.406H653.042V197.647H663.123V157.406Z" fill="#C8DBF4"/>
<path d="M487.789 157.406H477.708V197.647H487.789V157.406Z" fill="#C8DBF4"/>
<path d="M673.205 155.241H663.123V197.647H673.205V155.241Z" fill="#95C0F4"/>
<path d="M684.899 155.241H674.817V197.647H684.899V155.241Z" fill="#D2E3FC"/>
<path d="M476.306 155.241H466.224V197.647H476.306V155.241Z" fill="#D2E3FC"/>
<path d="M670.013 213.322H659.932V263.23H670.013V213.322Z" fill="#E4EEF9"/>
<path d="M656.823 222.989H646.741V263.23H656.823V222.989Z" fill="#C8DBF4"/>
<path d="M645.339 220.823H635.258V263.229H645.339V220.823Z" fill="#D2E3FC"/>
<path d="M611.646 220.823H601.565V263.229H611.646V220.823Z" fill="#D2E3FC"/>
<path d="M597.576 220.823H587.494V263.229H597.576V220.823Z" fill="#D2E3FC"/>
<path d="M438.849 213.322H428.767V263.23H438.849V213.322Z" fill="#E4EEF9"/>
<path d="M448.887 212.876L438.88 214.101L444.944 263.639L454.951 262.414L448.887 212.876Z" fill="#E4EEF9"/>
<path d="M425.658 222.989H415.576V263.23H425.658V222.989Z" fill="#C8DBF4"/>
<path d="M414.175 220.823H404.093V263.229H414.175V220.823Z" fill="#D2E3FC"/>
<path d="M696.865 151.541H686.783V197.647H696.865V151.541Z" fill="#AFCDFB"/>
<path d="M587.301 282.706H579.324V328.812H587.301V282.706Z" fill="#C1D9F4"/>
<path d="M597.383 278.904H587.301V328.811H597.383V278.904Z" fill="#E4EEF9"/>
<path d="M607.465 281.283H597.383V328.812H607.465V281.283Z" fill="#B7D3F3"/>
<path d="M617.546 288.572H607.465V328.813H617.546V288.572Z" fill="#C8DBF4"/>
<path d="M627.628 286.406H617.547V328.812H627.628V286.406Z" fill="#95C0F4"/>
<path d="M639.322 286.406H629.24V328.812H639.322V286.406Z" fill="#D2E3FC"/>
<path d="M651.288 282.706H641.206V328.812H651.288V282.706Z" fill="#AFCDFB"/>
<path d="M773.094 217.123H765.116V263.229H773.094V217.123Z" fill="#C1D9F4"/>
<path d="M783.176 213.322H773.094V263.23H783.176V213.322Z" fill="#E4EEF9"/>
<path d="M793.257 215.701H783.176V263.23H793.257V215.701Z" fill="#B7D3F3"/>
<path d="M803.339 222.989H793.257V263.23H803.339V222.989Z" fill="#C8DBF4"/>
<path d="M813.42 220.823H803.339V263.229H813.42V220.823Z" fill="#95C0F4"/>
<path d="M825.115 220.823H815.033V263.229H825.115V220.823Z" fill="#D2E3FC"/>
<path d="M837.08 217.123H826.998V263.229H837.08V217.123Z" fill="#AFCDFB"/>
<path d="M521.726 151.541H511.644V197.647H521.726V151.541Z" fill="#AFCDFB"/>
<path d="M795.943 320.688H749.147V329.017H795.943V320.688Z" fill="#D2E3FC"/>
<path d="M801.666 314.959H754.87V320.687H801.666V314.959Z" fill="#B7D3F3"/>
<path d="M797.064 309.232H752.199V314.96H797.064V309.232Z" fill="#D2E3FC"/>
<path d="M798.151 304.857H757.632V309.232H798.151V304.857Z" fill="#C8DBF4"/>
<path d="M803.207 299.13H756.411V304.857H803.207V299.13Z" fill="#B7D3F3"/>
<path d="M798.605 293.402H753.74V299.13H798.605V293.402Z" fill="#D2E3FC"/>
<path d="M799.691 289.028H759.173V293.403H799.691V289.028Z" fill="#C8DBF4"/>
<path d="M732.929 280.613H724.952V328.832H732.929V280.613Z" fill="#C1D9F4"/>
<path d="M708.764 282.727H700.786V328.832H708.764V282.727Z" fill="#C1D9F4"/>
<path d="M699.125 278.925H689.043V328.832H699.125V278.925Z" fill="#E4EEF9"/>
<path d="M756.955 275.72L747.023 273.986L737.746 327.118L747.678 328.853L756.955 275.72Z" fill="#B7D3F3"/>
<path d="M685.934 288.592H675.852V328.832H685.934V288.592Z" fill="#C8DBF4"/>
<path d="M674.451 286.427H664.369V328.833H674.451V286.427Z" fill="#D2E3FC"/>
<path d="M568.38 278.925H558.299V328.832H568.38V278.925Z" fill="#E4EEF9"/>
<path d="M555.19 288.592H545.108V328.832H555.19V288.592Z" fill="#C8DBF4"/>
<path d="M543.707 286.427H533.625V328.833H543.707V286.427Z" fill="#D2E3FC"/>
<path d="M527.997 278.925H517.915V328.832H527.997V278.925Z" fill="#E4EEF9"/>
<path d="M514.806 288.592H504.724V328.832H514.806V288.592Z" fill="#C8DBF4"/>
<path d="M503.323 286.427H493.241V328.833H503.323V286.427Z" fill="#D2E3FC"/>
<path d="M719.87 282.727H709.789V328.832H719.87V282.727Z" fill="#AFCDFB"/>
</g>
<path d="M90.998 471.999C90.998 471.999 103.04 457.949 91.7406 449.025C91.7406 449.025 83.4865 444.028 76.7561 444.434C76.7561 444.434 86.2928 460.425 83.2075 462.016C80.1223 463.607 73.8654 443.431 73.8654 443.431C73.8654 443.431 55.0821 441.609 49.0397 444.515C49.0397 444.515 65.097 457.655 61.7152 458.437C58.3334 459.219 40.9893 446.322 40.9893 446.322C40.9893 446.322 23.5075 449.297 24.4394 459.962C25.3714 470.626 31.3952 473.919 34.043 473.635C36.6907 473.351 52.1776 467.44 52.515 469.61C52.8524 471.778 43.5298 478.868 37.002 479.2C37.002 479.2 49.3273 492.792 57.5187 488.869C65.7101 484.946 66.409 478.728 71.5152 476.396C76.6214 474.064 80.9802 474.07 78.872 476.448C76.7637 478.826 67.5227 481.139 64.6026 486.304C61.6825 491.469 59.0627 494.953 67.5374 493.677C76.0121 492.402 89.788 486.201 90.393 479.1C90.998 471.999 90.998 471.999 90.998 471.999Z" fill="#C8DBF4"/>
<path d="M33.0299 460.249C33.0299 460.249 80.5119 458.42 90.998 471.999C90.998 471.999 93.3174 478.945 100.453 485.269L101.565 488.301C101.565 488.301 93.3373 479.625 90.393 479.101C90.393 479.101 94.9976 462.276 33.0299 460.249Z" fill="#C8DBF4"/>
<path d="M100.453 485.269C100.453 485.269 110.645 492.807 111.352 506.274L109.503 506.44C109.503 506.44 106.248 492.514 100.364 487.069C94.4814 481.623 100.453 485.269 100.453 485.269Z" fill="#C8DBF4"/>
<path d="M133.103 454.331C133.103 454.331 113.946 443.603 122.886 429.044C122.886 429.044 130.038 420.104 137.701 417.805C137.701 417.805 133.614 439.516 137.701 440.027C141.787 440.538 140.51 415.506 140.51 415.506C140.51 415.506 160.688 405.8 168.607 406.566C168.607 406.566 156.091 427.766 160.177 427.256C164.264 426.745 178.312 405.289 178.312 405.289C178.312 405.289 199.002 401.458 202.322 413.719C205.643 425.979 200.278 432.109 197.214 432.875C194.148 433.642 174.481 433.386 174.992 435.941C175.503 438.495 188.785 442.581 196.192 440.282C196.192 440.282 188.018 460.461 177.29 459.439C166.563 458.418 163.242 451.777 156.601 451.265C149.96 450.755 145.107 452.542 148.427 454.331C151.748 456.119 162.986 454.916 168.35 459.477C173.714 464.037 178.056 466.846 168.095 468.89C158.133 470.934 140.254 469.656 136.678 461.993C133.103 454.331 133.103 454.331 133.103 454.331Z" fill="#C8DBF4"/>
<path d="M192.872 417.55C192.872 417.55 139.233 434.918 133.103 454.331C133.103 454.331 133.358 463.015 127.994 472.976V476.808C127.994 476.808 133.613 463.781 136.679 461.993C136.679 461.993 124.674 445.135 192.872 417.55Z" fill="#C8DBF4"/>
<path d="M127.995 472.977C127.995 472.977 119.723 485.539 124.438 500.829L126.566 500.258C126.566 500.258 124.5 483.416 128.829 474.945C133.156 466.475 127.995 472.977 127.995 472.977Z" fill="#C8DBF4"/>
<path d="M102.626 439.535C102.626 439.535 127.878 425.394 116.094 406.202C116.094 406.202 106.666 394.418 96.5655 391.388C96.5655 391.388 101.953 420.007 96.5655 420.68C91.1784 421.354 92.862 388.358 92.862 388.358C92.862 388.358 66.263 375.563 55.8258 376.573C55.8258 376.573 72.3234 404.519 66.9364 403.845C61.5493 403.172 43.0312 374.89 43.0312 374.89C43.0312 374.89 15.7589 369.839 11.3821 386.001C7.00523 402.162 14.0759 410.243 18.1158 411.252C22.1562 412.263 48.0814 411.926 47.408 415.293C46.7347 418.66 29.2268 424.047 19.4625 421.017C19.4625 421.017 30.2366 447.616 44.3778 446.269C58.5191 444.922 62.8959 436.168 71.6501 435.495C80.4043 434.821 86.8016 437.179 82.4242 439.535C78.0474 441.892 63.2328 440.308 56.1622 446.319C49.0916 452.33 43.3681 456.034 56.4991 458.727C69.6301 461.421 93.1989 459.737 97.9126 449.636C102.626 439.535 102.626 439.535 102.626 439.535Z" fill="#D4E4F8"/>
<path d="M23.8395 391.051C23.8395 391.051 94.5452 413.946 102.626 439.535C102.626 439.535 102.289 450.982 109.36 464.113V469.164C109.36 469.164 101.952 451.993 97.9123 449.636C97.9123 449.635 113.737 427.413 23.8395 391.051Z" fill="#D4E4F8"/>
<path d="M109.36 464.113C109.36 464.113 120.264 480.671 114.048 500.827L111.243 500.074C111.243 500.074 113.966 477.873 108.261 466.707C102.556 455.542 109.36 464.113 109.36 464.113Z" fill="#D4E4F8"/>
<path d="M103.477 544.537C76.1581 544.537 54.012 522.391 54.012 495.072H152.941C152.942 522.392 130.796 544.537 103.477 544.537Z" fill="#D4E4F8"/>
<path d="M53.3291 547.054H153.625C153.625 543.683 150.892 540.951 147.522 540.951H59.4317C56.0613 540.951 53.3291 543.683 53.3291 547.054Z" fill="#D4E4F8"/>
<path d="M52.8873 496.59H154.568V495.073H52.8873V496.59Z" fill="#9FC1F4"/>
<g opacity="0.5">
<path d="M1398.3 106.733H1162.81V553.654H1398.3V106.733Z" fill="#BAD4F4"/>
<path d="M1388.25 114.584H1173.15V553.654H1388.25V114.584Z" fill="#DFEBFD"/>
<path d="M1361.27 340.988C1366.53 340.988 1370.78 336.568 1370.78 331.116C1370.78 325.664 1366.53 321.244 1361.27 321.244C1356.02 321.244 1351.77 325.664 1351.77 331.116C1351.77 336.568 1356.02 340.988 1361.27 340.988Z" fill="#C8DBF4"/>
</g>
<path opacity="0.8" d="M1440 547H0V900H1440V547Z" fill="#B5CFFC"/>
<path d="M1045.32 161.536H969.09C965.59 161.536 962.727 158.673 962.727 155.173V81.598C962.727 78.0985 965.59 75.2354 969.09 75.2354H1045.32C1048.82 75.2354 1051.68 78.0985 1051.68 81.598V155.173C1051.68 158.673 1048.82 161.536 1045.32 161.536Z" fill="#C0D8FB"/>
<path d="M1042.02 157.797H972.392C969.196 157.797 966.581 155.182 966.581 151.986V84.7854C966.581 81.5891 969.196 78.9736 972.392 78.9736H1042.02C1045.21 78.9736 1047.83 81.5886 1047.83 84.7854V151.986C1047.83 155.182 1045.21 157.797 1042.02 157.797Z" fill="#DFEBFD"/>
<path d="M1005.36 86.8508C1005.36 85.833 1006.19 85.0078 1007.2 85.0078C1008.22 85.0078 1009.05 85.833 1009.05 86.8508C1009.05 87.8686 1008.22 88.6933 1007.2 88.6933C1006.19 88.6933 1005.36 87.8686 1005.36 86.8508Z" fill="#B7D3F3"/>
<path d="M1020.23 89.4548C1020.73 88.5651 1021.85 88.2448 1022.74 88.7393C1023.63 89.2337 1023.95 90.3554 1023.45 91.2451C1022.96 92.1343 1021.84 92.4551 1020.95 91.9607C1020.06 91.4662 1019.74 90.3445 1020.23 89.4548Z" fill="#B7D3F3"/>
<path d="M1032.97 99.5759C1033.82 99.024 1034.96 99.2698 1035.52 100.125C1036.07 100.98 1035.82 102.121 1034.97 102.673C1034.11 103.225 1032.97 102.979 1032.42 102.124C1031.87 101.268 1032.11 100.128 1032.97 99.5759Z" fill="#B7D3F3"/>
<path d="M1039.28 115.239C1040.3 115.239 1041.12 116.064 1041.12 117.082C1041.12 118.1 1040.3 118.924 1039.28 118.924C1038.26 118.924 1037.44 118.1 1037.44 117.082C1037.44 116.064 1038.26 115.239 1039.28 115.239Z" fill="#B7D3F3"/>
<path d="M1036.06 133.418C1036.78 134.137 1036.78 135.304 1036.06 136.024C1035.34 136.743 1034.17 136.743 1033.45 136.024C1032.73 135.304 1032.73 134.137 1033.45 133.418C1034.17 132.698 1035.34 132.698 1036.06 133.418Z" fill="#B7D3F3"/>
<path d="M1024.49 145.019C1025.21 145.739 1025.21 146.906 1024.49 147.625C1023.77 148.345 1022.6 148.345 1021.88 147.625C1021.16 146.906 1021.16 145.739 1021.88 145.019C1022.6 144.299 1023.77 144.3 1024.49 145.019Z" fill="#B7D3F3"/>
<path d="M1005.36 150.999C1005.36 149.981 1006.19 149.156 1007.2 149.156C1008.22 149.156 1009.05 149.981 1009.05 150.999C1009.05 152.017 1008.22 152.841 1007.2 152.841C1006.19 152.841 1005.36 152.017 1005.36 150.999Z" fill="#B7D3F3"/>
<path d="M994.12 89.4548C993.626 88.5651 992.504 88.2448 991.614 88.7393C990.725 89.2337 990.405 90.3554 990.899 91.2451C991.393 92.1343 992.515 92.4551 993.404 91.9607C994.294 91.4662 994.614 90.3445 994.12 89.4548Z" fill="#B7D3F3"/>
<path d="M981.381 99.5749C980.526 99.0231 979.386 99.2689 978.834 100.124C978.282 100.979 978.528 102.12 979.383 102.672C980.239 103.224 981.379 102.978 981.931 102.123C982.482 101.267 982.237 100.127 981.381 99.5749Z" fill="#B7D3F3"/>
<path d="M975.072 115.239C974.053 115.239 973.229 116.064 973.229 117.082C973.229 118.1 974.053 118.924 975.072 118.924C976.09 118.924 976.914 118.1 976.914 117.082C976.914 116.064 976.089 115.239 975.072 115.239Z" fill="#B7D3F3"/>
<path d="M978.293 133.418C977.573 134.137 977.573 135.304 978.293 136.024C979.013 136.743 980.18 136.743 980.899 136.024C981.619 135.304 981.619 134.137 980.899 133.418C980.179 132.698 979.013 132.698 978.293 133.418Z" fill="#B7D3F3"/>
<path d="M989.865 145.018C989.145 145.738 989.145 146.905 989.865 147.624C990.584 148.344 991.751 148.344 992.471 147.624C993.19 146.905 993.19 145.738 992.471 145.018C991.751 144.298 990.584 144.299 989.865 145.018Z" fill="#B7D3F3"/>
<path d="M1006.71 117.082C1006.71 116.064 1007.53 115.239 1008.55 115.239C1009.57 115.239 1010.39 116.064 1010.39 117.082C1010.39 118.1 1009.57 118.924 1008.55 118.924C1007.53 118.924 1006.71 118.1 1006.71 117.082Z" fill="#B7D3F3"/>
<path d="M1008.8 94.0615H1008.3V117.081H1008.8V94.0615Z" fill="#B7D3F3"/>
<path d="M1020.03 106.916L1007.83 116.495L1008.76 117.682L1020.96 108.104L1020.03 106.916Z" fill="#B7D3F3"/>
<g opacity="0.5">
<path d="M330.238 162.642H65.0001V352.515H330.238V162.642Z" fill="#8EB2DD"/>
<path d="M324.029 167.574H70.4745V347.022H324.029V167.574Z" fill="#AFCDFB"/>
<g opacity="0.4">
<path d="M155.314 168.028H70.8418V227.198H155.314V168.028Z" fill="#CFDCE5"/>
<path d="M239.786 168.028H155.314V227.198H239.786V168.028Z" fill="#D9E6ED"/>
<path d="M324.397 168.028H239.925V227.198H324.397V168.028Z" fill="#EAF4F9"/>
<path d="M155.314 286.245H70.8418V345.415H155.314V286.245Z" fill="#CFDCE5"/>
<path d="M239.786 286.245H155.314V345.415H239.786V286.245Z" fill="#D9E6ED"/>
<path d="M324.397 286.245H239.925V345.415H324.397V286.245Z" fill="#EAF4F9"/>
<path d="M239.925 285.821H324.397V226.651H239.925V285.821Z" fill="#CFDCE5"/>
<path d="M155.452 285.821H239.924V226.651H155.452V285.821Z" fill="#D9E6ED"/>
<path d="M70.8414 285.821H155.313V226.651H70.8414L70.8414 285.821Z" fill="#EAF4F9"/>
</g>
<path d="M287.592 286.064C287.592 286.064 285.619 291.984 279.37 291.819C273.122 291.655 272.464 297.739 272.793 302.342C273.122 306.946 273.78 310.399 278.877 308.919C283.974 307.439 284.961 306.289 289.564 311.221C294.168 316.154 302.389 308.755 301.896 304.151C301.403 299.547 300.088 291.82 296.47 290.997C292.853 290.175 290.387 284.42 287.592 286.064Z" fill="#699FF0"/>
<path d="M292.625 282.448C291.412 282.331 290.367 283.89 290.128 286.099C289.889 288.309 288.157 289.623 288.814 291.116C289.471 292.609 291.244 291.415 292.625 291.743C297.773 292.968 295.942 288.866 295.404 287.074C294.867 285.283 296.012 282.774 292.625 282.448Z" fill="#A8D29F"/>
<path d="M292.626 286.955L292.07 294.879H293.145L292.626 286.955Z" fill="#AFCDFB"/>
<path d="M282.005 285.188C280.792 285.071 279.747 286.63 279.507 288.84C279.269 291.049 277.536 292.363 278.194 293.857C278.851 295.35 280.624 294.155 282.005 294.484C287.153 295.708 285.321 291.607 284.783 289.815C284.246 288.023 285.39 285.514 282.005 285.188Z" fill="#A8D29F"/>
<path d="M282.005 289.696L281.449 297.62H282.524L282.005 289.696Z" fill="#AFCDFB"/>
<path d="M119.387 199.249C119.387 199.249 109.193 200.4 106.726 195.138C104.26 189.876 95.052 192.614 93.9014 197.247C92.7507 201.879 84.2005 206.976 86.8312 210.758C89.4619 214.54 102.616 208.785 103.767 213.389C104.918 217.993 103.767 221.774 107.877 227.2C111.988 232.626 104.918 237.395 107.22 245.616C109.522 253.837 122.018 259.098 125.142 255.646C128.266 252.193 124.649 246.438 129.581 244.465C134.514 242.492 145.859 239.039 146.845 232.791C147.832 226.543 148.654 215.526 141.748 217.006C134.842 218.486 125.635 220.623 126.621 216.02C127.608 211.416 129.581 198.756 119.387 199.249Z" fill="#699FF0"/>
<path d="M207.254 250.779C207.254 250.779 201.171 252.095 198.704 248.97C196.238 245.846 191.634 247.162 188.51 248.97C185.386 250.779 176.672 255.547 178.809 262.453C180.946 269.359 185.222 274.62 191.305 273.798C197.389 272.976 201.828 277.58 199.855 281.855C197.882 286.13 198.375 291.885 201.664 296.324C204.953 300.764 209.721 308.327 214.325 303.723C218.929 299.119 220.573 294.187 224.025 290.24C227.478 286.294 223.368 277.415 225.834 274.784C228.3 272.154 228.3 267.714 221.559 266.728C214.818 265.741 210.625 249.464 207.254 250.779Z" fill="#699FF0"/>
<path d="M162.367 278.567C162.367 278.567 154.639 279.271 153.159 276.124C151.679 272.977 147.24 265.578 140.827 267.058C134.415 268.537 126.687 271.661 127.016 275.443C127.344 279.225 135.401 291.721 133.099 297.64C130.797 303.559 142.307 327.401 146.911 323.126C151.514 318.851 147.24 310.794 151.186 307.67C155.132 304.546 154.639 290.57 156.94 289.583C159.243 288.597 167.84 278.82 162.367 278.567Z" fill="#699FF0"/>
<path d="M172.308 197.322C168.902 197.322 166.141 200.083 166.141 203.489C166.141 206.896 172.308 214.469 172.308 214.469C172.308 214.469 178.476 206.896 178.476 203.489C178.476 200.083 175.714 197.322 172.308 197.322ZM172.308 206.309C170.716 206.309 169.426 205.019 169.426 203.427C169.426 201.835 170.716 200.544 172.308 200.544C173.9 200.544 175.191 201.835 175.191 203.427C175.191 205.019 173.9 206.309 172.308 206.309Z" fill="#F1A34F"/>
<path d="M210.852 289.188C208.658 289.188 206.88 290.966 206.88 293.159C206.88 295.352 210.852 300.229 210.852 300.229C210.852 300.229 214.824 295.352 214.824 293.159C214.824 290.966 213.046 289.188 210.852 289.188ZM210.852 294.975C209.827 294.975 208.996 294.144 208.996 293.119C208.996 292.093 209.827 291.262 210.852 291.262C211.877 291.262 212.709 292.093 212.709 293.119C212.709 294.144 211.877 294.975 210.852 294.975Z" fill="#F1A34F"/>
<path d="M142.795 181.549C142.795 181.549 139.342 186.482 134.574 187.633C129.806 188.784 125.531 192.237 128.655 195.526C131.779 198.814 132.765 205.255 138.52 206.31C144.275 207.364 151.509 193.717 151.345 190.428C151.181 187.14 145.861 178.273 142.795 181.549Z" fill="#EBF3FA"/>
<path d="M119.774 219.864C116.368 219.864 113.607 222.625 113.607 226.031C113.607 229.437 119.774 237.01 119.774 237.01C119.774 237.01 125.941 229.437 125.941 226.031C125.941 222.625 123.18 219.864 119.774 219.864ZM119.774 228.851C118.182 228.851 116.891 227.561 116.891 225.969C116.891 224.377 118.181 223.086 119.774 223.086C121.366 223.086 122.656 224.377 122.656 225.969C122.656 227.561 121.366 228.851 119.774 228.851Z" fill="#F1A34F"/>
<path d="M262.846 192.27C262.846 192.27 254.954 198.098 247.801 195.879C240.649 193.659 232.51 207.224 227.824 208.21C223.138 209.197 213.272 220.295 208.833 215.362C204.394 210.429 189.102 220.065 192.062 224.496C195.021 228.927 177.017 241.259 182.69 243.232C188.362 245.205 207.847 235.833 209.819 243.232C211.792 250.631 215.245 262.963 224.124 259.757C233.003 256.55 243.115 255.127 244.348 260.278C245.581 265.429 247.801 271.842 251.5 269.129C255.2 266.416 259.146 257.291 262.846 260.004C266.545 262.717 283.809 252.358 283.07 244.466C282.33 236.573 293.429 184.716 262.846 192.27Z" fill="#699FF0"/>
<path d="M214.366 197.346L197.851 188.837L212.619 189.121L211.581 191.654L214.759 194.904L214.366 197.346Z" fill="#CA5F00"/>
<path d="M197.851 188.837L214.899 191.264L227.566 199.334L197.851 188.837Z" fill="#F99746"/>
<path d="M212.619 189.121L197.852 188.837L213.083 183.707L212.619 189.121Z" fill="#F99746"/>
<path d="M253.805 242.959L236.125 242.794L243.45 228.871L245.573 224.831L247.838 229.816L253.805 242.959Z" fill="#AFCDFB"/>
<path d="M247.838 229.816C247.367 229.756 246.899 229.33 246.272 229.394C245.46 229.475 244.919 230.175 244.424 229.394C244.256 229.13 243.877 228.97 243.449 228.871L245.573 224.831L247.838 229.816Z" fill="#E9F3FE"/>
<path d="M243.883 242.959L230.443 242.834L236.011 232.25L237.626 229.179L239.347 232.968L243.883 242.959Z" fill="#AFCDFB"/>
<path d="M239.347 232.968C238.99 232.923 238.634 232.598 238.156 232.647C237.54 232.709 237.128 233.242 236.751 232.647C236.624 232.447 236.336 232.325 236.011 232.25L237.626 229.179L239.347 232.968Z" fill="#E9F3FE"/>
<path d="M247.307 209.594C248.139 209.625 249.28 209.193 249.28 209.193C246.628 207.836 245.334 203.427 245.334 203.427C245.334 203.427 244.039 207.836 241.388 209.193C241.388 209.193 242.529 209.625 243.361 209.594C243.361 209.594 242.59 211.783 240.802 212.183C240.802 212.183 244.378 212.985 245.334 212.183C246.29 212.985 249.866 212.183 249.866 212.183C248.078 211.783 247.307 209.594 247.307 209.594Z" fill="#A8D29F"/>
<path d="M245.334 210.118L244.861 214.146H245.889L245.334 210.118Z" fill="#A9453D"/>
<path d="M254.242 215.008C255.074 215.039 256.215 214.607 256.215 214.607C253.564 213.25 252.269 208.841 252.269 208.841C252.269 208.841 250.974 213.251 248.323 214.607C248.323 214.607 249.464 215.038 250.296 215.008C250.296 215.008 249.525 217.197 247.737 217.597C247.737 217.597 251.313 218.399 252.269 217.597C253.224 218.399 256.801 217.597 256.801 217.597C255.012 217.197 254.242 215.008 254.242 215.008Z" fill="#A8D29F"/>
<path d="M252.269 215.531L251.796 219.559H252.824L252.269 215.531Z" fill="#A9453D"/>
<path d="M239.887 215.637C240.72 215.668 241.86 215.236 241.86 215.236C239.209 213.879 237.914 209.47 237.914 209.47C237.914 209.47 236.619 213.879 233.968 215.236C233.968 215.236 235.109 215.668 235.941 215.637C235.941 215.637 235.17 217.826 233.382 218.226C233.382 218.226 236.958 219.028 237.914 218.226C238.87 219.028 242.446 218.226 242.446 218.226C240.658 217.825 239.887 215.637 239.887 215.637Z" fill="#A8D29F"/>
<path d="M237.914 216.16L237.442 220.189H238.469L237.914 216.16Z" fill="#A9453D"/>
<path d="M162.809 256.002C162.809 256.002 166.436 250.349 171.169 249.312C171.169 249.312 163.953 255.252 164.795 259.454C164.795 259.454 159.453 255.062 157.905 255.867C157.905 255.867 160.7 254.814 162.809 256.002Z" fill="#699FF0"/>
<path d="M153.383 253.569C153.383 253.569 155.691 249.972 158.703 249.312C158.703 249.312 154.111 253.091 154.646 255.766C154.646 255.766 151.247 252.971 150.262 253.483C150.262 253.483 152.041 252.814 153.383 253.569Z" fill="#699FF0"/>
<path d="M197.061 316.717C195.748 317.263 192.237 319.394 192.237 319.394C190.22 318.942 187.03 318.354 183.414 318.153C183.605 317.668 183.934 316.717 183.554 316.717C183.191 316.717 181.853 317.581 181.109 318.082C178.902 318.072 176.601 318.233 174.356 318.672C172.817 318.972 170.621 320.818 174.404 321.442C177.723 321.989 183.284 322.058 192.237 320.4L195.366 321.776C195.366 321.776 194.874 320.873 194.492 319.961C194.111 319.05 197.061 316.717 197.061 316.717Z" fill="#699FF0"/>
<path d="M104.778 294.524C103.8 294.932 101.183 296.52 101.183 296.52C99.6799 296.183 97.3026 295.745 94.6074 295.595C94.7507 295.233 94.9951 294.524 94.7118 294.524C94.4418 294.524 93.4449 295.169 92.8902 295.542C91.2451 295.534 89.5302 295.655 87.8576 295.981C86.7107 296.205 85.0736 297.581 87.8932 298.046C90.3663 298.453 94.5111 298.505 101.183 297.269L103.515 298.294C103.515 298.294 103.148 297.622 102.864 296.942C102.579 296.263 104.778 294.524 104.778 294.524Z" fill="#699FF0"/>
<path d="M112.995 302.152C112.017 302.56 109.4 304.148 109.4 304.148C107.897 303.811 105.52 303.372 102.824 303.223C102.967 302.862 103.212 302.152 102.929 302.152C102.658 302.152 101.661 302.797 101.107 303.17C99.462 303.163 97.7467 303.283 96.074 303.609C94.9272 303.833 93.2906 305.209 96.1096 305.674C98.5832 306.082 102.728 306.133 109.4 304.898L111.731 305.923C111.731 305.923 111.365 305.249 111.08 304.57C110.796 303.891 112.995 302.152 112.995 302.152Z" fill="#699FF0"/>
<path d="M304.539 197.411C310.871 197.411 316.004 192.277 316.004 185.945C316.004 179.613 310.871 174.479 304.539 174.479C298.207 174.479 293.073 179.613 293.073 185.945C293.073 192.277 298.207 197.411 304.539 197.411Z" fill="#E9F3FE"/>
<path d="M304.64 177.316L303.691 185.944H305.388L304.64 177.316Z" fill="#CFDCE5"/>
<path d="M304.439 194.573L305.388 185.944H303.691L304.439 194.573Z" fill="#CFDCE5"/>
<path d="M313.167 185.922L304.539 184.974V186.67L313.167 185.922Z" fill="#CFDCE5"/>
<path d="M295.911 185.722L304.539 186.67V184.974L295.911 185.722Z" fill="#CFDCE5"/>
<path d="M310.021 190.845L304.784 185.506L304.217 186.137L310.021 190.845Z" fill="#CFDCE5"/>
<path d="M298.98 180.797L304.217 186.137L304.784 185.506L298.98 180.797Z" fill="#CFDCE5"/>
<path d="M299.681 191.343L305.021 186.106L304.39 185.539L299.681 191.343Z" fill="#CFDCE5"/>
<path d="M309.73 180.302L304.39 185.539L305.021 186.105L309.73 180.302Z" fill="#CFDCE5"/>
<path d="M306.636 177.575L303.714 185.749L305.364 186.142L306.636 177.575Z" fill="#699FF0"/>
<path d="M302.442 194.315L305.364 186.141L303.714 185.748L302.442 194.315Z" fill="#C65447"/>
<path d="M303.886 185.79C303.972 185.429 304.334 185.207 304.695 185.293C305.055 185.379 305.278 185.741 305.192 186.101C305.106 186.462 304.744 186.685 304.383 186.599C304.023 186.512 303.8 186.15 303.886 185.79Z" fill="white"/>
<path d="M249.341 162.656L210.825 146.764L175.592 162.641H174.873L210.845 145L250.174 162.641L249.341 162.656Z" fill="#AFCDFB"/>
<path d="M209.53 147.185C209.53 146.504 210.083 145.952 210.764 145.952C211.445 145.952 211.997 146.504 211.997 147.185C211.997 147.866 211.445 148.419 210.764 148.419C210.082 148.418 209.53 147.866 209.53 147.185Z" fill="#A9453D"/>
</g>
</svg>
