<svg width="24" height="24" viewBox="0 0 24 24" fill="none" xmlns="http://www.w3.org/2000/svg">
<mask id="path-1-inside-1_9229_7908" fill="white">
<path d="M5.49295 17H18.5063C18.9068 17 19.3014 16.9033 19.6568 16.7181C20.0121 16.5328 20.3177 16.2645 20.5477 15.9358C20.7777 15.6071 20.9254 15.2277 20.9782 14.8297C21.031 14.4316 20.9874 14.0267 20.8511 13.6492L18.4805 7.07833C18.0757 5.61809 17.2049 4.33099 16.0013 3.41389C14.7977 2.49679 13.3277 2.00018 11.8159 2V2C10.2422 1.99998 8.71558 2.53799 7.48802 3.52521C6.26047 4.51244 5.40542 5.88984 5.06405 7.43L3.11072 13.7633C2.99571 14.1372 2.96986 14.533 3.03523 14.9188C3.10061 15.3045 3.25539 15.6695 3.48713 15.9844C3.71887 16.2992 4.02108 16.5551 4.36946 16.7315C4.71784 16.9079 5.10266 16.9999 5.49295 17Z"/>
</mask>
<path d="M5.49295 17H18.5063C18.9068 17 19.3014 16.9033 19.6568 16.7181C20.0121 16.5328 20.3177 16.2645 20.5477 15.9358C20.7777 15.6071 20.9254 15.2277 20.9782 14.8297C21.031 14.4316 20.9874 14.0267 20.8511 13.6492L18.4805 7.07833C18.0757 5.61809 17.2049 4.33099 16.0013 3.41389C14.7977 2.49679 13.3277 2.00018 11.8159 2V2C10.2422 1.99998 8.71558 2.53799 7.48802 3.52521C6.26047 4.51244 5.40542 5.88984 5.06405 7.43L3.11072 13.7633C2.99571 14.1372 2.96986 14.533 3.03523 14.9188C3.10061 15.3045 3.25539 15.6695 3.48713 15.9844C3.71887 16.2992 4.02108 16.5551 4.36946 16.7315C4.71784 16.9079 5.10266 16.9999 5.49295 17Z" fill="#FF8A00"/>
<path d="M18.5063 17L18.5069 -4.33333H18.5063V17ZM20.8511 13.6492L0.783843 20.889L0.785377 20.8932L20.8511 13.6492ZM18.4805 7.07833L-2.07727 12.7781L-1.8612 13.5574L-1.58675 14.3181L18.4805 7.07833ZM11.8159 2L11.8184 -19.3333L-9.5174 -19.3358V2H11.8159ZM11.8159 2L11.8156 23.3333L33.1493 23.3337V2H11.8159ZM5.06405 7.43L25.4498 13.7174L25.7047 12.8909L25.8919 12.0464L5.06405 7.43ZM3.11072 13.7633L-17.2751 7.47593L-17.2775 7.48385L-17.2799 7.49177L3.11072 13.7633ZM5.49295 38.3333H18.5063V-4.33333H5.49295V38.3333ZM18.5057 38.3333C22.3421 38.3334 26.1197 37.407 29.5183 35.6353L9.79521 -2.19914C12.4832 -3.60038 15.4715 -4.33342 18.5069 -4.33333L18.5057 38.3333ZM29.5183 35.6353C32.9167 33.8637 35.8338 31.3005 38.0265 28.167L3.06894 3.70458C4.80163 1.22851 7.10752 -0.798049 9.79521 -2.19914L29.5183 35.6353ZM38.0265 28.167C40.2191 25.0338 41.6239 21.4214 42.1262 17.6358L-0.169753 12.0236C0.226931 9.03399 1.33644 6.18037 3.06894 3.70458L38.0265 28.167ZM42.1262 17.6358C42.6285 13.8503 42.2142 9.99851 40.9169 6.40512L0.785377 20.8932C-0.239281 18.0549 -0.566423 15.013 -0.169753 12.0236L42.1262 17.6358ZM40.9184 6.40937L38.5478 -0.161464L-1.58675 14.3181L0.783843 20.889L40.9184 6.40937ZM39.0384 1.37855C37.391 -4.56295 33.845 -9.81031 28.9311 -13.5547L3.07152 20.3824C0.564718 18.4723 -1.23968 15.7991 -2.07727 12.7781L39.0384 1.37855ZM28.9311 -13.5547C24.0162 -17.2997 18.0056 -19.3326 11.8184 -19.3333L11.8134 23.3333C8.6497 23.333 5.57927 22.2933 3.07152 20.3824L28.9311 -13.5547ZM-9.5174 2V2H33.1493V2H-9.5174ZM11.8163 -19.3333C5.37415 -19.3334 -0.868504 -17.1306 -5.88154 -13.099L20.8576 20.1495C18.2997 22.2066 15.1103 23.3334 11.8156 23.3333L11.8163 -19.3333ZM-5.88154 -13.099C-10.8935 -9.06834 -14.3748 -3.45304 -15.7638 2.81361L25.8919 12.0464C25.1857 15.2327 23.4144 18.0932 20.8576 20.1495L-5.88154 -13.099ZM-15.3217 1.1426L-17.2751 7.47593L23.4965 20.0507L25.4498 13.7174L-15.3217 1.1426ZM-17.2799 7.49177C-18.3743 11.0498 -18.62 14.8142 -17.9982 18.4834L24.0686 11.3541C24.5597 14.2518 24.3657 17.2247 23.5014 20.0349L-17.2799 7.49177ZM-17.9982 18.4834C-17.3763 22.1527 -15.9035 25.6284 -13.6942 28.6301L20.6684 3.33867C22.4142 5.71064 23.5775 8.45632 24.0686 11.3541L-17.9982 18.4834ZM-13.6942 28.6301C-11.4847 31.632 -8.59956 34.077 -5.26748 35.7642L14.0064 -2.30107C16.6417 -0.966708 18.9225 0.966475 20.6684 3.33867L-13.6942 28.6301ZM-5.26748 35.7642C-1.93516 37.4514 1.74874 38.3323 5.48725 38.3333L5.49866 -4.33333C8.45658 -4.33254 11.3709 -3.63555 14.0064 -2.30107L-5.26748 35.7642Z" fill="#FF8A00" mask="url(#path-1-inside-1_9229_7908)"/>
<mask id="path-3-inside-2_9229_7908" fill="white">
<path d="M8 19C8.18736 19.8467 8.68794 20.6078 9.41693 21.1546C10.1459 21.7013 11.0585 22 12 22C12.9415 22 13.8541 21.7013 14.5831 21.1546C15.3121 20.6078 15.8126 19.8467 16 19H8Z"/>
</mask>
<path d="M8 19C8.18736 19.8467 8.68794 20.6078 9.41693 21.1546C10.1459 21.7013 11.0585 22 12 22C12.9415 22 13.8541 21.7013 14.5831 21.1546C15.3121 20.6078 15.8126 19.8467 16 19H8Z" fill="#FF8A00"/>
<path d="M8 19V-2.33333H-18.5704L-12.8294 23.6094L8 19ZM16 19L36.8294 23.6094L42.5704 -2.33333H16V19ZM-12.8294 23.6094C-11.4809 29.7033 -7.9656 34.7844 -3.38307 38.2213L22.2169 4.08792C25.3415 6.43133 27.8556 9.99001 28.8294 14.3906L-12.8294 23.6094ZM-3.38307 38.2213C1.16823 41.6347 6.60724 43.3333 12 43.3333V0.666666C15.5097 0.666666 19.1236 1.76793 22.2169 4.08792L-3.38307 38.2213ZM12 43.3333C17.3928 43.3333 22.8318 41.6347 27.3831 38.2213L1.78307 4.08792C4.87639 1.76793 8.49027 0.666666 12 0.666666V43.3333ZM27.3831 38.2213C31.9656 34.7843 35.4809 29.7033 36.8294 23.6094L-4.82941 14.3906C-3.8556 9.99003 -1.3415 6.43134 1.78307 4.08792L27.3831 38.2213ZM16 -2.33333H8V40.3333H16V-2.33333Z" fill="#FF8A00" mask="url(#path-3-inside-2_9229_7908)"/>
<circle cx="18" cy="4.5" r="4.5" fill="#DC1500"/>
</svg>
