<svg width="24" height="22" viewBox="0 0 24 22" fill="none" xmlns="http://www.w3.org/2000/svg">
<path d="M22.1997 1.16291C21.6296 0.687273 20.9608 0.344557 20.2418 0.159651C19.5227 -0.0252561 18.7716 -0.0477128 18.0428 0.0939112L16.2788 0.525911C15.3582 0.694605 14.526 1.18075 13.9269 1.89973C13.3278 2.61872 12.9997 3.52502 12.9998 4.46091V19.9279C12.3367 20.0249 11.663 20.0249 10.9999 19.9279V4.46091C11.0032 3.53365 10.6827 2.63432 10.0938 1.91812C9.50481 1.20191 8.68432 0.713762 7.7739 0.537911L5.89992 0.0819112C5.17909 -0.049995 4.43807 -0.0218387 3.72933 0.164387C3.02058 0.350613 2.36143 0.690355 1.79854 1.15956C1.23565 1.62877 0.782776 2.21598 0.471976 2.87962C0.161176 3.54326 4.88118e-05 4.2671 0 4.99991L0 15.7929C5.74551e-05 16.9637 0.410971 18.0974 1.16112 18.9963C1.91127 19.8952 2.95307 20.5023 4.10495 20.7119L10.3909 21.8549C11.4548 22.0482 12.5449 22.0482 13.6088 21.8549L19.8997 20.7119C21.0507 20.5013 22.0913 19.8937 22.8405 18.9949C23.5896 18.0961 23.9998 16.963 23.9997 15.7929V4.99991C24.0001 4.26736 23.8391 3.54371 23.528 2.8805C23.2168 2.2173 22.7633 1.63085 22.1997 1.16291Z" fill="#9E9E9E"/>
</svg>
