<svg width="24" height="24" viewBox="0 0 24 24" fill="none" xmlns="http://www.w3.org/2000/svg">
<g clip-path="url(#clip0_9245_10387)">
<path d="M22.1997 2.16291C21.6296 1.68727 20.9608 1.34456 20.2418 1.15965C19.5227 0.974744 18.7716 0.952287 18.0428 1.09391L16.2788 1.52591C15.3582 1.69461 14.526 2.18075 13.9269 2.89973C13.3278 3.61872 12.9997 4.52502 12.9998 5.46091V20.9279C12.3367 21.0249 11.663 21.0249 10.9999 20.9279V5.46091C11.0032 4.53365 10.6827 3.63432 10.0938 2.91812C9.50481 2.20191 8.68432 1.71376 7.7739 1.53791L5.89992 1.08191C5.17909 0.950005 4.43807 0.978161 3.72933 1.16439C3.02058 1.35061 2.36143 1.69035 1.79854 2.15956C1.23565 2.62877 0.782776 3.21598 0.471976 3.87962C0.161176 4.54326 4.88118e-05 5.2671 0 5.99991L0 16.7929C5.74551e-05 17.9637 0.410971 19.0974 1.16112 19.9963C1.91127 20.8952 2.95307 21.5023 4.10495 21.7119L10.3909 22.8549C11.4548 23.0482 12.5449 23.0482 13.6088 22.8549L19.8997 21.7119C21.0507 21.5013 22.0913 20.8937 22.8405 19.9949C23.5896 19.0961 23.9998 17.963 23.9997 16.7929V5.99991C24.0001 5.26736 23.8391 4.54371 23.528 3.8805C23.2168 3.2173 22.7633 2.63085 22.1997 2.16291Z" fill="#9E9E9E"/>
</g>
<defs>
<clipPath id="clip0_9245_10387">
<rect width="23.9997" height="24" fill="white"/>
</clipPath>
</defs>
</svg>
