<svg width="24" height="24" viewBox="0 0 24 24" fill="none" xmlns="http://www.w3.org/2000/svg">
<g clip-path="url(#clip0_8015_5064)">
<path d="M21.9638 10H14.9878C13.3338 10 11.9878 8.654 11.9878 7V0.024C11.8268 0.013 11.6658 0 11.5028 0H6.98782C4.22982 0 1.98682 2.243 1.98682 5V19C1.98682 21.757 4.22982 24 6.98682 24H16.9868C19.7438 24 21.9868 21.757 21.9868 19V10.485C21.9868 10.322 21.9738 10.161 21.9628 10H21.9638ZM8.73482 18.942C8.39982 19.57 7.73182 20 6.96282 20C5.88282 20 5.00682 19.124 5.00682 18.044L4.99882 15.989C4.99882 14.909 5.87482 14.033 6.95482 14.033C7.72282 14.033 8.39182 14.462 8.72682 15.091C8.94782 15.506 8.64682 16.007 8.17682 16.007C7.94982 16.007 7.73782 15.886 7.63182 15.685C7.50782 15.449 7.25282 15.283 6.96682 15.278C6.56782 15.285 6.24582 15.609 6.24682 16.01C6.24682 16.105 6.25482 17.885 6.25482 18.023C6.25382 18.424 6.57582 18.748 6.97482 18.755C7.26182 18.75 7.51582 18.584 7.63982 18.348C7.74582 18.147 7.95782 18.026 8.18482 18.026C8.65482 18.026 8.95582 18.527 8.73482 18.942ZM14.1818 18.457C14.0228 19.351 13.1688 20 12.1528 20C11.3308 20 10.5588 19.669 10.0348 19.091C9.80382 18.837 9.82282 18.444 10.0768 18.214C10.3308 17.983 10.7238 18.002 10.9538 18.256C11.2388 18.57 11.6858 18.757 12.1508 18.757C12.5968 18.757 12.9098 18.493 12.9558 18.238C13.0168 17.895 12.5068 17.679 12.3488 17.62C11.6008 17.344 10.9268 17.043 10.9268 17.043C10.3308 16.663 10.0678 16.08 10.1538 15.473C10.2468 14.827 10.7188 14.301 11.3858 14.1C12.6958 13.705 13.7798 14.596 13.8238 14.634L13.8268 14.636C14.0878 14.856 14.1218 15.246 13.9018 15.507L13.8968 15.512C13.6768 15.773 13.2878 15.807 13.0268 15.587C13.0018 15.567 12.3978 15.095 11.7438 15.289C11.4528 15.377 11.3948 15.57 11.3838 15.648C11.3758 15.707 11.3708 15.852 11.5128 15.949C11.5288 15.949 12.1238 16.211 12.7778 16.453C13.9938 16.902 14.2988 17.781 14.1778 18.455L14.1818 18.457ZM17.8188 19.379C17.7438 19.741 17.4248 20 17.0548 20C16.6968 20 16.3848 19.757 16.2978 19.41L15.1328 14.784C15.0368 14.403 15.3248 14.033 15.7178 14.033C15.9948 14.033 16.2358 14.221 16.3028 14.489L17.0088 17.296L17.5888 14.513C17.6468 14.233 17.8938 14.033 18.1798 14.033H18.1918C18.5748 14.033 18.8608 14.385 18.7828 14.76L17.8188 19.379ZM13.9868 7V0.46C14.8998 0.806 15.7398 1.339 16.4518 2.05L19.9358 5.536C20.6478 6.247 21.1808 7.087 21.5268 8H14.9868C14.4348 8 13.9868 7.551 13.9868 7Z" fill="white"/>
</g>
<defs>
<clipPath id="clip0_8015_5064">
<rect width="24" height="24" fill="white"/>
</clipPath>
</defs>
</svg>
