<svg width="21" height="24" viewBox="0 0 21 24" fill="none" xmlns="http://www.w3.org/2000/svg">
<path d="M16.1531 4.10136L16.2356 4.49998H16.6427H19.7636C20.0466 4.49998 20.2704 4.72702 20.2704 5.00002C20.2704 5.27298 20.0467 5.5 19.7636 5.5H18.7569H18.2569V6V18.9994C18.2539 21.4806 16.2287 23.497 13.7225 23.5H7.68313C5.17708 23.497 3.15195 21.4808 3.14874 18.9998V6V5.5H2.64874H1.64199C1.35898 5.5 1.13525 5.27297 1.13525 4.99997C1.13525 4.727 1.35894 4.49998 1.64199 4.49998H4.76293H5.17001L5.25254 4.10135C5.68569 2.00917 7.53989 0.502846 9.69634 0.5H11.7092C13.8657 0.502846 15.7199 2.00917 16.1531 4.10136ZM10.1961 17V16.5H10.196V11C10.196 10.1684 9.51825 9.50003 8.68928 9.50003C7.8603 9.50003 7.18254 10.1684 7.18254 11V17C7.18254 17.8316 7.86032 18.5 8.68932 18.5C9.5183 18.5 10.1961 17.8316 10.1961 17ZM6.37714 3.83165L6.13819 4.49998H6.84795H14.5577H15.2675L15.0285 3.83165C14.5287 2.43364 13.1991 1.50177 11.7102 1.49997H11.7096L9.69606 1.49997L9.69546 1.49997C8.2066 1.50177 6.87697 2.43364 6.37714 3.83165ZM12.7163 18.5C13.5453 18.5 14.2231 17.8316 14.2231 17V11C14.2231 10.1684 13.5453 9.50003 12.7163 9.50003C11.8874 9.50003 11.2096 10.1684 11.2096 11V17C11.2096 17.8316 11.8874 18.5 12.7163 18.5Z" fill="#FF8A00" stroke="#FF8A00"/>
</svg>
