<svg width="57" height="50" viewBox="0 0 57 50" fill="none" xmlns="http://www.w3.org/2000/svg">
<rect width="57" height="50" fill="white"/>
<rect x="8.75" y="4.75" width="39.5" height="40.5" rx="1.25" fill="white" stroke="#6166AE" stroke-width="1.5"/>
<path d="M16.33 26.68H18.57V28H14.62V20.98H16.33V26.68ZM22.7056 28.07C22.0456 28.07 21.439 27.9167 20.8856 27.61C20.339 27.3033 19.9023 26.8767 19.5756 26.33C19.2556 25.7767 19.0956 25.1567 19.0956 24.47C19.0956 23.7833 19.2556 23.1667 19.5756 22.62C19.9023 22.0733 20.339 21.6467 20.8856 21.34C21.439 21.0333 22.0456 20.88 22.7056 20.88C23.3656 20.88 23.969 21.0333 24.5156 21.34C25.069 21.6467 25.5023 22.0733 25.8156 22.62C26.1356 23.1667 26.2956 23.7833 26.2956 24.47C26.2956 25.1567 26.1356 25.7767 25.8156 26.33C25.4956 26.8767 25.0623 27.3033 24.5156 27.61C23.969 27.9167 23.3656 28.07 22.7056 28.07ZM22.7056 26.51C23.2656 26.51 23.7123 26.3233 24.0456 25.95C24.3856 25.5767 24.5556 25.0833 24.5556 24.47C24.5556 23.85 24.3856 23.3567 24.0456 22.99C23.7123 22.6167 23.2656 22.43 22.7056 22.43C22.139 22.43 21.6856 22.6133 21.3456 22.98C21.0123 23.3467 20.8456 23.8433 20.8456 24.47C20.8456 25.09 21.0123 25.5867 21.3456 25.96C21.6856 26.3267 22.139 26.51 22.7056 26.51ZM31.907 23.2C31.7803 22.9667 31.597 22.79 31.357 22.67C31.1236 22.5433 30.847 22.48 30.527 22.48C29.9736 22.48 29.5303 22.6633 29.197 23.03C28.8636 23.39 28.697 23.8733 28.697 24.48C28.697 25.1267 28.8703 25.6333 29.217 26C29.5703 26.36 30.0536 26.54 30.667 26.54C31.087 26.54 31.4403 26.4333 31.727 26.22C32.0203 26.0067 32.2336 25.7 32.367 25.3H30.197V24.04H33.917V25.63C33.7903 26.0567 33.5736 26.4533 33.267 26.82C32.967 27.1867 32.5836 27.4833 32.117 27.71C31.6503 27.9367 31.1236 28.05 30.537 28.05C29.8436 28.05 29.2236 27.9 28.677 27.6C28.137 27.2933 27.7136 26.87 27.407 26.33C27.107 25.79 26.957 25.1733 26.957 24.48C26.957 23.7867 27.107 23.17 27.407 22.63C27.7136 22.0833 28.137 21.66 28.677 21.36C29.217 21.0533 29.8336 20.9 30.527 20.9C31.367 20.9 32.0736 21.1033 32.647 21.51C33.227 21.9167 33.6103 22.48 33.797 23.2H31.907ZM38.1841 28.07C37.5241 28.07 36.9175 27.9167 36.3641 27.61C35.8175 27.3033 35.3808 26.8767 35.0541 26.33C34.7341 25.7767 34.5741 25.1567 34.5741 24.47C34.5741 23.7833 34.7341 23.1667 35.0541 22.62C35.3808 22.0733 35.8175 21.6467 36.3641 21.34C36.9175 21.0333 37.5241 20.88 38.1841 20.88C38.8441 20.88 39.4475 21.0333 39.9941 21.34C40.5475 21.6467 40.9808 22.0733 41.2941 22.62C41.6141 23.1667 41.7741 23.7833 41.7741 24.47C41.7741 25.1567 41.6141 25.7767 41.2941 26.33C40.9741 26.8767 40.5408 27.3033 39.9941 27.61C39.4475 27.9167 38.8441 28.07 38.1841 28.07ZM38.1841 26.51C38.7441 26.51 39.1908 26.3233 39.5241 25.95C39.8641 25.5767 40.0341 25.0833 40.0341 24.47C40.0341 23.85 39.8641 23.3567 39.5241 22.99C39.1908 22.6167 38.7441 22.43 38.1841 22.43C37.6175 22.43 37.1641 22.6133 36.8241 22.98C36.4908 23.3467 36.3241 23.8433 36.3241 24.47C36.3241 25.09 36.4908 25.5867 36.8241 25.96C37.1641 26.3267 37.6175 26.51 38.1841 26.51Z" fill="#6166AE"/>
</svg>
