<svg width="150" height="150" viewBox="0 0 150 150" fill="none" xmlns="http://www.w3.org/2000/svg">
<g clip-path="url(#clip0_12920_35162)">
<path d="M94.3784 8.15613C91.8549 5.57369 88.8407 3.5217 85.513 2.12072C82.1852 0.719741 78.6109 -0.00195313 75.0003 -0.00195312C71.3896 -0.00195312 67.8154 0.719741 64.4876 2.12072C61.1598 3.5217 58.1456 5.57369 55.6221 8.15613L49.7909 14.1374L41.4471 14.0343C37.8354 13.9915 34.2516 14.6714 30.9065 16.0338C27.5613 17.3963 24.5224 19.4139 21.9683 21.9679C19.4143 24.522 17.3967 27.5609 16.0342 30.9061C14.6717 34.2512 13.9919 37.835 14.0346 41.4468L14.1284 49.7905L8.16589 55.6218C5.58346 58.1452 3.53146 61.1594 2.13048 64.4872C0.729506 67.815 0.0078125 71.3892 0.0078125 74.9999C0.0078125 78.6105 0.729506 82.1848 2.13048 85.5126C3.53146 88.8403 5.58346 91.8545 8.16589 94.378L14.1378 100.209L14.0346 108.553C13.9919 112.165 14.6717 115.749 16.0342 119.094C17.3967 122.439 19.4143 125.478 21.9683 128.032C24.5224 130.586 27.5613 132.603 30.9065 133.966C34.2516 135.328 37.8354 136.008 41.4471 135.965L49.7909 135.872L55.6221 141.834C58.1456 144.417 61.1598 146.469 64.4876 147.87C67.8154 149.271 71.3896 149.992 75.0003 149.992C78.6109 149.992 82.1852 149.271 85.513 147.87C88.8407 146.469 91.8549 144.417 94.3784 141.834L100.21 135.862L108.553 135.965C112.165 136.008 115.749 135.328 119.094 133.966C122.439 132.603 125.478 130.586 128.032 128.032C130.586 125.478 132.604 122.439 133.966 119.094C135.329 115.749 136.009 112.165 135.966 108.553L135.872 100.209L141.835 94.378C144.417 91.8545 146.469 88.8403 147.87 85.5126C149.271 82.1848 149.993 78.6105 149.993 74.9999C149.993 71.3892 149.271 67.815 147.87 64.4872C146.469 61.1594 144.417 58.1452 141.835 55.6218L135.863 49.7905L135.966 41.4468C136.009 37.835 135.329 34.2512 133.966 30.9061C132.604 27.5609 130.586 24.522 128.032 21.9679C125.478 19.4139 122.439 17.3963 119.094 16.0338C115.749 14.6714 112.165 13.9915 108.553 14.0343L100.21 14.128L94.3784 8.15613ZM97.069 64.2561L68.944 92.3811C68.5086 92.8177 67.9913 93.164 67.4218 93.4003C66.8523 93.6366 66.2418 93.7583 65.6253 93.7583C65.0087 93.7583 64.3982 93.6366 63.8287 93.4003C63.2592 93.164 62.7419 92.8177 62.3065 92.3811L48.244 78.3186C47.8082 77.8828 47.4625 77.3654 47.2266 76.796C46.9907 76.2265 46.8693 75.6162 46.8693 74.9999C46.8693 74.3835 46.9907 73.7732 47.2266 73.2038C47.4625 72.6344 47.8082 72.117 48.244 71.6811C48.6798 71.2453 49.1972 70.8996 49.7667 70.6637C50.3361 70.4279 50.9464 70.3065 51.5628 70.3065C52.1791 70.3065 52.7894 70.4279 53.3589 70.6637C53.9283 70.8996 54.4457 71.2453 54.8815 71.6811L65.6253 82.4343L90.4315 57.6186C91.3117 56.7384 92.5055 56.244 93.7503 56.244C94.995 56.244 96.1888 56.7384 97.069 57.6186C97.9492 58.4988 98.4437 59.6926 98.4437 60.9374C98.4437 62.1822 97.9492 63.3759 97.069 64.2561Z" fill="#6FCF97"/>
</g>
<defs>
<clipPath id="clip0_12920_35162">
<rect width="150" height="150" fill="white"/>
</clipPath>
</defs>
</svg>
