<svg width="76" height="88" viewBox="0 0 76 88" fill="none" xmlns="http://www.w3.org/2000/svg">
<g clip-path="url(#clip0_240_11703)">
<path d="M71.7706 0H4.51345C2.31345 0 0.427734 1.88571 0.427734 4.08571V83.6C0.427734 86.1143 2.31345 88 4.51345 88H71.4563C73.6563 88 75.542 86.1143 75.542 83.9143V4.08571C75.8563 1.88571 73.9706 0 71.7706 0ZM72.7134 69.1429C72.7134 71.0286 71.142 72.2857 69.5706 72.2857H6.71345C4.82773 72.2857 3.57059 70.7143 3.57059 69.1429V6.28571C3.57059 4.4 5.14202 3.14286 6.71345 3.14286H69.5706C71.4563 3.14286 72.7134 4.71429 72.7134 6.28571V69.1429Z" fill="black"/>
<path d="M19.12 8H17.8516V9.26843H19.12V8Z" fill="black"/>
<path d="M21.5829 8H20.3145V9.26843H21.5829V8Z" fill="black"/>
<path d="M24.0468 8H22.7783V9.26843H24.0468V8Z" fill="black"/>
<path d="M25.2782 8H24.0098V9.26843H25.2782V8Z" fill="black"/>
<path d="M26.5096 8H25.2412V9.26843H26.5096V8Z" fill="black"/>
<path d="M28.9725 8H27.7041V9.26843H28.9725V8Z" fill="black"/>
<path d="M31.4354 8H30.167V9.26843H31.4354V8Z" fill="black"/>
<path d="M32.6669 8H31.3984V9.26843H32.6669V8Z" fill="black"/>
<path d="M36.3612 8H35.0928V9.26843H36.3612V8Z" fill="black"/>
<path d="M38.8241 8H37.5557V9.26843H38.8241V8Z" fill="black"/>
<path d="M41.287 8H40.0186V9.26843H41.287V8Z" fill="black"/>
<path d="M43.7499 8H42.4814V9.26843H43.7499V8Z" fill="black"/>
<path d="M47.4442 8H46.1758V9.26843H47.4442V8Z" fill="black"/>
<path d="M48.6757 8H47.4072V9.26843H48.6757V8Z" fill="black"/>
<path d="M52.37 8H51.1016V9.26843H52.37V8Z" fill="black"/>
<path d="M53.6024 8H52.334V9.26843H53.6024V8Z" fill="black"/>
<path d="M58.5282 8H57.2598V9.26843H58.5282V8Z" fill="black"/>
<path d="M19.12 9.23242H17.8516V10.5009H19.12V9.23242Z" fill="black"/>
<path d="M20.3514 9.23242H19.083V10.5009H20.3514V9.23242Z" fill="black"/>
<path d="M21.5829 9.23242H20.3145V10.5009H21.5829V9.23242Z" fill="black"/>
<path d="M24.0468 9.23242H22.7783V10.5009H24.0468V9.23242Z" fill="black"/>
<path d="M28.9725 9.23242H27.7041V10.5009H28.9725V9.23242Z" fill="black"/>
<path d="M40.0555 9.23242H38.7871V10.5009H40.0555V9.23242Z" fill="black"/>
<path d="M42.5184 9.23242H41.25V10.5009H42.5184V9.23242Z" fill="black"/>
<path d="M43.7499 9.23242H42.4814V10.5009H43.7499V9.23242Z" fill="black"/>
<path d="M44.9813 9.23242H43.7129V10.5009H44.9813V9.23242Z" fill="black"/>
<path d="M46.2128 9.23242H44.9443V10.5009H46.2128V9.23242Z" fill="black"/>
<path d="M47.4442 9.23242H46.1758V10.5009H47.4442V9.23242Z" fill="black"/>
<path d="M49.9071 9.23242H48.6387V10.5009H49.9071V9.23242Z" fill="black"/>
<path d="M51.1385 9.23242H49.8701V10.5009H51.1385V9.23242Z" fill="black"/>
<path d="M56.0653 9.23242H54.7969V10.5009H56.0653V9.23242Z" fill="black"/>
<path d="M57.2968 9.23242H56.0283V10.5009H57.2968V9.23242Z" fill="black"/>
<path d="M58.5282 9.23242H57.2598V10.5009H58.5282V9.23242Z" fill="black"/>
<path d="M19.12 10.4629H17.8516V11.7313H19.12V10.4629Z" fill="black"/>
<path d="M22.8143 10.4629H21.5459V11.7313H22.8143V10.4629Z" fill="black"/>
<path d="M28.9725 10.4629H27.7041V11.7313H28.9725V10.4629Z" fill="black"/>
<path d="M33.8983 10.4629H32.6299V11.7313H33.8983V10.4629Z" fill="black"/>
<path d="M36.3612 10.4629H35.0928V11.7313H36.3612V10.4629Z" fill="black"/>
<path d="M37.5927 10.4629H36.3242V11.7313H37.5927V10.4629Z" fill="black"/>
<path d="M41.287 10.4629H40.0186V11.7313H41.287V10.4629Z" fill="black"/>
<path d="M47.4442 10.4629H46.1758V11.7313H47.4442V10.4629Z" fill="black"/>
<path d="M48.6757 10.4629H47.4072V11.7313H48.6757V10.4629Z" fill="black"/>
<path d="M49.9071 10.4629H48.6387V11.7313H49.9071V10.4629Z" fill="black"/>
<path d="M51.1385 10.4629H49.8701V11.7313H51.1385V10.4629Z" fill="black"/>
<path d="M52.37 10.4629H51.1016V11.7313H52.37V10.4629Z" fill="black"/>
<path d="M57.2968 10.4629H56.0283V11.7313H57.2968V10.4629Z" fill="black"/>
<path d="M58.5282 10.4629H57.2598V11.7313H58.5282V10.4629Z" fill="black"/>
<path d="M21.5829 11.6953H20.3145V12.9637H21.5829V11.6953Z" fill="black"/>
<path d="M22.8143 11.6953H21.5459V12.9637H22.8143V11.6953Z" fill="black"/>
<path d="M31.4354 11.6953H30.167V12.9637H31.4354V11.6953Z" fill="black"/>
<path d="M36.3612 11.6953H35.0928V12.9637H36.3612V11.6953Z" fill="black"/>
<path d="M37.5927 11.6953H36.3242V12.9637H37.5927V11.6953Z" fill="black"/>
<path d="M40.0555 11.6953H38.7871V12.9637H40.0555V11.6953Z" fill="black"/>
<path d="M42.5184 11.6953H41.25V12.9637H42.5184V11.6953Z" fill="black"/>
<path d="M44.9813 11.6953H43.7129V12.9637H44.9813V11.6953Z" fill="black"/>
<path d="M52.37 11.6953H51.1016V12.9637H52.37V11.6953Z" fill="black"/>
<path d="M53.6024 11.6953H52.334V12.9637H53.6024V11.6953Z" fill="black"/>
<path d="M54.8339 11.6953H53.5654V12.9637H54.8339V11.6953Z" fill="black"/>
<path d="M57.2968 11.6953H56.0283V12.9637H57.2968V11.6953Z" fill="black"/>
<path d="M25.2782 12.9258H24.0098V14.1942H25.2782V12.9258Z" fill="black"/>
<path d="M31.4354 12.9258H30.167V14.1942H31.4354V12.9258Z" fill="black"/>
<path d="M36.3612 12.9258H35.0928V14.1942H36.3612V12.9258Z" fill="black"/>
<path d="M37.5927 12.9258H36.3242V14.1942H37.5927V12.9258Z" fill="black"/>
<path d="M38.8241 12.9258H37.5557V14.1942H38.8241V12.9258Z" fill="black"/>
<path d="M40.0555 12.9258H38.7871V14.1942H40.0555V12.9258Z" fill="black"/>
<path d="M41.287 12.9258H40.0186V14.1942H41.287V12.9258Z" fill="black"/>
<path d="M44.9813 12.9258H43.7129V14.1942H44.9813V12.9258Z" fill="black"/>
<path d="M46.2128 12.9258H44.9443V14.1942H46.2128V12.9258Z" fill="black"/>
<path d="M47.4442 12.9258H46.1758V14.1942H47.4442V12.9258Z" fill="black"/>
<path d="M49.9071 12.9258H48.6387V14.1942H49.9071V12.9258Z" fill="black"/>
<path d="M53.6024 12.9258H52.334V14.1942H53.6024V12.9258Z" fill="black"/>
<path d="M54.8339 12.9258H53.5654V14.1942H54.8339V12.9258Z" fill="black"/>
<path d="M19.12 14.1582H17.8516V15.4266H19.12V14.1582Z" fill="black"/>
<path d="M20.3514 14.1582H19.083V15.4266H20.3514V14.1582Z" fill="black"/>
<path d="M24.0468 14.1582H22.7783V15.4266H24.0468V14.1582Z" fill="black"/>
<path d="M27.7411 14.1582H26.4727V15.4266H27.7411V14.1582Z" fill="black"/>
<path d="M28.9725 14.1582H27.7041V15.4266H28.9725V14.1582Z" fill="black"/>
<path d="M30.204 14.1582H28.9355V15.4266H30.204V14.1582Z" fill="black"/>
<path d="M31.4354 14.1582H30.167V15.4266H31.4354V14.1582Z" fill="black"/>
<path d="M36.3612 14.1582H35.0928V15.4266H36.3612V14.1582Z" fill="black"/>
<path d="M41.287 14.1582H40.0186V15.4266H41.287V14.1582Z" fill="black"/>
<path d="M44.9813 14.1582H43.7129V15.4266H44.9813V14.1582Z" fill="black"/>
<path d="M47.4442 14.1582H46.1758V15.4266H47.4442V14.1582Z" fill="black"/>
<path d="M48.6757 14.1582H47.4072V15.4266H48.6757V14.1582Z" fill="black"/>
<path d="M49.9071 14.1582H48.6387V15.4266H49.9071V14.1582Z" fill="black"/>
<path d="M51.1385 14.1582H49.8701V15.4266H51.1385V14.1582Z" fill="black"/>
<path d="M53.6024 14.1582H52.334V15.4266H53.6024V14.1582Z" fill="black"/>
<path d="M56.0653 14.1582H54.7969V15.4266H56.0653V14.1582Z" fill="black"/>
<path d="M19.12 15.3887H17.8516V16.6571H19.12V15.3887Z" fill="black"/>
<path d="M21.5829 15.3887H20.3145V16.6571H21.5829V15.3887Z" fill="black"/>
<path d="M24.0468 15.3887H22.7783V16.6571H24.0468V15.3887Z" fill="black"/>
<path d="M26.5096 15.3887H25.2412V16.6571H26.5096V15.3887Z" fill="black"/>
<path d="M28.9725 15.3887H27.7041V16.6571H28.9725V15.3887Z" fill="black"/>
<path d="M31.4354 15.3887H30.167V16.6571H31.4354V15.3887Z" fill="black"/>
<path d="M33.8983 15.3887H32.6299V16.6571H33.8983V15.3887Z" fill="black"/>
<path d="M36.3612 15.3887H35.0928V16.6571H36.3612V15.3887Z" fill="black"/>
<path d="M38.8241 15.3887H37.5557V16.6571H38.8241V15.3887Z" fill="black"/>
<path d="M41.287 15.3887H40.0186V16.6571H41.287V15.3887Z" fill="black"/>
<path d="M43.7499 15.3887H42.4814V16.6571H43.7499V15.3887Z" fill="black"/>
<path d="M46.2128 15.3887H44.9443V16.6571H46.2128V15.3887Z" fill="black"/>
<path d="M48.6757 15.3887H47.4072V16.6571H48.6757V15.3887Z" fill="black"/>
<path d="M51.1385 15.3887H49.8701V16.6571H51.1385V15.3887Z" fill="black"/>
<path d="M53.6024 15.3887H52.334V16.6571H53.6024V15.3887Z" fill="black"/>
<path d="M56.0653 15.3887H54.7969V16.6571H56.0653V15.3887Z" fill="black"/>
<path d="M58.5282 15.3887H57.2598V16.6571H58.5282V15.3887Z" fill="black"/>
<path d="M19.12 16.6211H17.8516V17.8895H19.12V16.6211Z" fill="black"/>
<path d="M21.5829 16.6211H20.3145V17.8895H21.5829V16.6211Z" fill="black"/>
<path d="M22.8143 16.6211H21.5459V17.8895H22.8143V16.6211Z" fill="black"/>
<path d="M30.204 16.6211H28.9355V17.8895H30.204V16.6211Z" fill="black"/>
<path d="M33.8983 16.6211H32.6299V17.8895H33.8983V16.6211Z" fill="black"/>
<path d="M35.1298 16.6211H33.8613V17.8895H35.1298V16.6211Z" fill="black"/>
<path d="M36.3612 16.6211H35.0928V17.8895H36.3612V16.6211Z" fill="black"/>
<path d="M41.287 16.6211H40.0186V17.8895H41.287V16.6211Z" fill="black"/>
<path d="M42.5184 16.6211H41.25V17.8895H42.5184V16.6211Z" fill="black"/>
<path d="M46.2128 16.6211H44.9443V17.8895H46.2128V16.6211Z" fill="black"/>
<path d="M49.9071 16.6211H48.6387V17.8895H49.9071V16.6211Z" fill="black"/>
<path d="M52.37 16.6211H51.1016V17.8895H52.37V16.6211Z" fill="black"/>
<path d="M53.6024 16.6211H52.334V17.8895H53.6024V16.6211Z" fill="black"/>
<path d="M54.8339 16.6211H53.5654V17.8895H54.8339V16.6211Z" fill="black"/>
<path d="M56.0653 16.6211H54.7969V17.8895H56.0653V16.6211Z" fill="black"/>
<path d="M11.7313 17.8516H10.4629V19.12H11.7313V17.8516Z" fill="black"/>
<path d="M12.9628 17.8516H11.6943V19.12H12.9628V17.8516Z" fill="black"/>
<path d="M14.1942 17.8516H12.9258V19.12H14.1942V17.8516Z" fill="black"/>
<path d="M16.6571 17.8516H15.3887V19.12H16.6571V17.8516Z" fill="black"/>
<path d="M19.12 17.8516H17.8516V19.12H19.12V17.8516Z" fill="black"/>
<path d="M20.3514 17.8516H19.083V19.12H20.3514V17.8516Z" fill="black"/>
<path d="M22.8143 17.8516H21.5459V19.12H22.8143V17.8516Z" fill="black"/>
<path d="M30.204 17.8516H28.9355V19.12H30.204V17.8516Z" fill="black"/>
<path d="M31.4354 17.8516H30.167V19.12H31.4354V17.8516Z" fill="black"/>
<path d="M32.6669 17.8516H31.3984V19.12H32.6669V17.8516Z" fill="black"/>
<path d="M35.1298 17.8516H33.8613V19.12H35.1298V17.8516Z" fill="black"/>
<path d="M36.3612 17.8516H35.0928V19.12H36.3612V17.8516Z" fill="black"/>
<path d="M37.5927 17.8516H36.3242V19.12H37.5927V17.8516Z" fill="black"/>
<path d="M38.8241 17.8516H37.5557V19.12H38.8241V17.8516Z" fill="black"/>
<path d="M40.0555 17.8516H38.7871V19.12H40.0555V17.8516Z" fill="black"/>
<path d="M41.287 17.8516H40.0186V19.12H41.287V17.8516Z" fill="black"/>
<path d="M47.4442 17.8516H46.1758V19.12H47.4442V17.8516Z" fill="black"/>
<path d="M49.9071 17.8516H48.6387V19.12H49.9071V17.8516Z" fill="black"/>
<path d="M53.6024 17.8516H52.334V19.12H53.6024V17.8516Z" fill="black"/>
<path d="M54.8339 17.8516H53.5654V19.12H54.8339V17.8516Z" fill="black"/>
<path d="M57.2968 17.8516H56.0283V19.12H57.2968V17.8516Z" fill="black"/>
<path d="M58.5282 17.8516H57.2598V19.12H58.5282V17.8516Z" fill="black"/>
<path d="M59.7596 17.8516H58.4912V19.12H59.7596V17.8516Z" fill="black"/>
<path d="M60.9911 17.8516H59.7227V19.12H60.9911V17.8516Z" fill="black"/>
<path d="M62.2225 17.8516H60.9541V19.12H62.2225V17.8516Z" fill="black"/>
<path d="M65.9169 17.8516H64.6484V19.12H65.9169V17.8516Z" fill="black"/>
<path d="M67.1483 17.8516H65.8799V19.12H67.1483V17.8516Z" fill="black"/>
<path d="M68.3798 17.8516H67.1113V19.12H68.3798V17.8516Z" fill="black"/>
<path d="M9.26843 19.084H8V20.3524H9.26843V19.084Z" fill="black"/>
<path d="M12.9628 19.084H11.6943V20.3524H12.9628V19.084Z" fill="black"/>
<path d="M14.1942 19.084H12.9258V20.3524H14.1942V19.084Z" fill="black"/>
<path d="M15.4257 19.084H14.1572V20.3524H15.4257V19.084Z" fill="black"/>
<path d="M17.8885 19.084H16.6201V20.3524H17.8885V19.084Z" fill="black"/>
<path d="M20.3514 19.084H19.083V20.3524H20.3514V19.084Z" fill="black"/>
<path d="M21.5829 19.084H20.3145V20.3524H21.5829V19.084Z" fill="black"/>
<path d="M25.2782 19.084H24.0098V20.3524H25.2782V19.084Z" fill="black"/>
<path d="M27.7411 19.084H26.4727V20.3524H27.7411V19.084Z" fill="black"/>
<path d="M28.9725 19.084H27.7041V20.3524H28.9725V19.084Z" fill="black"/>
<path d="M31.4354 19.084H30.167V20.3524H31.4354V19.084Z" fill="black"/>
<path d="M32.6669 19.084H31.3984V20.3524H32.6669V19.084Z" fill="black"/>
<path d="M35.1298 19.084H33.8613V20.3524H35.1298V19.084Z" fill="black"/>
<path d="M36.3612 19.084H35.0928V20.3524H36.3612V19.084Z" fill="black"/>
<path d="M37.5927 19.084H36.3242V20.3524H37.5927V19.084Z" fill="black"/>
<path d="M38.8241 19.084H37.5557V20.3524H38.8241V19.084Z" fill="black"/>
<path d="M41.287 19.084H40.0186V20.3524H41.287V19.084Z" fill="black"/>
<path d="M43.7499 19.084H42.4814V20.3524H43.7499V19.084Z" fill="black"/>
<path d="M48.6757 19.084H47.4072V20.3524H48.6757V19.084Z" fill="black"/>
<path d="M52.37 19.084H51.1016V20.3524H52.37V19.084Z" fill="black"/>
<path d="M53.6024 19.084H52.334V20.3524H53.6024V19.084Z" fill="black"/>
<path d="M54.8339 19.084H53.5654V20.3524H54.8339V19.084Z" fill="black"/>
<path d="M59.7596 19.084H58.4912V20.3524H59.7596V19.084Z" fill="black"/>
<path d="M60.9911 19.084H59.7227V20.3524H60.9911V19.084Z" fill="black"/>
<path d="M62.2225 19.084H60.9541V20.3524H62.2225V19.084Z" fill="black"/>
<path d="M65.9169 19.084H64.6484V20.3524H65.9169V19.084Z" fill="black"/>
<path d="M67.1483 19.084H65.8799V20.3524H67.1483V19.084Z" fill="black"/>
<path d="M10.4999 20.3145H9.23145V21.5829H10.4999V20.3145Z" fill="black"/>
<path d="M11.7313 20.3145H10.4629V21.5829H11.7313V20.3145Z" fill="black"/>
<path d="M12.9628 20.3145H11.6943V21.5829H12.9628V20.3145Z" fill="black"/>
<path d="M14.1942 20.3145H12.9258V21.5829H14.1942V20.3145Z" fill="black"/>
<path d="M15.4257 20.3145H14.1572V21.5829H15.4257V20.3145Z" fill="black"/>
<path d="M16.6571 20.3145H15.3887V21.5829H16.6571V20.3145Z" fill="black"/>
<path d="M19.12 20.3145H17.8516V21.5829H19.12V20.3145Z" fill="black"/>
<path d="M20.3514 20.3145H19.083V21.5829H20.3514V20.3145Z" fill="black"/>
<path d="M21.5829 20.3145H20.3145V21.5829H21.5829V20.3145Z" fill="black"/>
<path d="M22.8143 20.3145H21.5459V21.5829H22.8143V20.3145Z" fill="black"/>
<path d="M24.0468 20.3145H22.7783V21.5829H24.0468V20.3145Z" fill="black"/>
<path d="M25.2782 20.3145H24.0098V21.5829H25.2782V20.3145Z" fill="black"/>
<path d="M27.7411 20.3145H26.4727V21.5829H27.7411V20.3145Z" fill="black"/>
<path d="M30.204 20.3145H28.9355V21.5829H30.204V20.3145Z" fill="black"/>
<path d="M32.6669 20.3145H31.3984V21.5829H32.6669V20.3145Z" fill="black"/>
<path d="M37.5927 20.3145H36.3242V21.5829H37.5927V20.3145Z" fill="black"/>
<path d="M40.0555 20.3145H38.7871V21.5829H40.0555V20.3145Z" fill="black"/>
<path d="M41.287 20.3145H40.0186V21.5829H41.287V20.3145Z" fill="black"/>
<path d="M43.7499 20.3145H42.4814V21.5829H43.7499V20.3145Z" fill="black"/>
<path d="M46.2128 20.3145H44.9443V21.5829H46.2128V20.3145Z" fill="black"/>
<path d="M49.9071 20.3145H48.6387V21.5829H49.9071V20.3145Z" fill="black"/>
<path d="M51.1385 20.3145H49.8701V21.5829H51.1385V20.3145Z" fill="black"/>
<path d="M53.6024 20.3145H52.334V21.5829H53.6024V20.3145Z" fill="black"/>
<path d="M56.0653 20.3145H54.7969V21.5829H56.0653V20.3145Z" fill="black"/>
<path d="M58.5282 20.3145H57.2598V21.5829H58.5282V20.3145Z" fill="black"/>
<path d="M63.454 20.3145H62.1855V21.5829H63.454V20.3145Z" fill="black"/>
<path d="M65.9169 20.3145H64.6484V21.5829H65.9169V20.3145Z" fill="black"/>
<path d="M67.1483 20.3145H65.8799V21.5829H67.1483V20.3145Z" fill="black"/>
<path d="M68.3798 20.3145H67.1113V21.5829H68.3798V20.3145Z" fill="black"/>
<path d="M10.4999 21.5469H9.23145V22.8153H10.4999V21.5469Z" fill="black"/>
<path d="M11.7313 21.5469H10.4629V22.8153H11.7313V21.5469Z" fill="black"/>
<path d="M14.1942 21.5469H12.9258V22.8153H14.1942V21.5469Z" fill="black"/>
<path d="M15.4257 21.5469H14.1572V22.8153H15.4257V21.5469Z" fill="black"/>
<path d="M17.8885 21.5469H16.6201V22.8153H17.8885V21.5469Z" fill="black"/>
<path d="M21.5829 21.5469H20.3145V22.8153H21.5829V21.5469Z" fill="black"/>
<path d="M24.0468 21.5469H22.7783V22.8153H24.0468V21.5469Z" fill="black"/>
<path d="M25.2782 21.5469H24.0098V22.8153H25.2782V21.5469Z" fill="black"/>
<path d="M27.7411 21.5469H26.4727V22.8153H27.7411V21.5469Z" fill="black"/>
<path d="M30.204 21.5469H28.9355V22.8153H30.204V21.5469Z" fill="black"/>
<path d="M31.4354 21.5469H30.167V22.8153H31.4354V21.5469Z" fill="black"/>
<path d="M35.1298 21.5469H33.8613V22.8153H35.1298V21.5469Z" fill="black"/>
<path d="M37.5927 21.5469H36.3242V22.8153H37.5927V21.5469Z" fill="black"/>
<path d="M43.7499 21.5469H42.4814V22.8153H43.7499V21.5469Z" fill="black"/>
<path d="M44.9813 21.5469H43.7129V22.8153H44.9813V21.5469Z" fill="black"/>
<path d="M46.2128 21.5469H44.9443V22.8153H46.2128V21.5469Z" fill="black"/>
<path d="M47.4442 21.5469H46.1758V22.8153H47.4442V21.5469Z" fill="black"/>
<path d="M49.9071 21.5469H48.6387V22.8153H49.9071V21.5469Z" fill="black"/>
<path d="M51.1385 21.5469H49.8701V22.8153H51.1385V21.5469Z" fill="black"/>
<path d="M56.0653 21.5469H54.7969V22.8153H56.0653V21.5469Z" fill="black"/>
<path d="M57.2968 21.5469H56.0283V22.8153H57.2968V21.5469Z" fill="black"/>
<path d="M63.454 21.5469H62.1855V22.8153H63.454V21.5469Z" fill="black"/>
<path d="M67.1483 21.5469H65.8799V22.8153H67.1483V21.5469Z" fill="black"/>
<path d="M68.3798 21.5469H67.1113V22.8153H68.3798V21.5469Z" fill="black"/>
<path d="M9.26843 22.7773H8V24.0458H9.26843V22.7773Z" fill="black"/>
<path d="M11.7313 22.7773H10.4629V24.0458H11.7313V22.7773Z" fill="black"/>
<path d="M15.4257 22.7773H14.1572V24.0458H15.4257V22.7773Z" fill="black"/>
<path d="M16.6571 22.7773H15.3887V24.0458H16.6571V22.7773Z" fill="black"/>
<path d="M20.3514 22.7773H19.083V24.0458H20.3514V22.7773Z" fill="black"/>
<path d="M25.2782 22.7773H24.0098V24.0458H25.2782V22.7773Z" fill="black"/>
<path d="M26.5096 22.7773H25.2412V24.0458H26.5096V22.7773Z" fill="black"/>
<path d="M28.9725 22.7773H27.7041V24.0458H28.9725V22.7773Z" fill="black"/>
<path d="M31.4354 22.7773H30.167V24.0458H31.4354V22.7773Z" fill="black"/>
<path d="M33.8983 22.7773H32.6299V24.0458H33.8983V22.7773Z" fill="black"/>
<path d="M37.5927 22.7773H36.3242V24.0458H37.5927V22.7773Z" fill="black"/>
<path d="M42.5184 22.7773H41.25V24.0458H42.5184V22.7773Z" fill="black"/>
<path d="M43.7499 22.7773H42.4814V24.0458H43.7499V22.7773Z" fill="black"/>
<path d="M44.9813 22.7773H43.7129V24.0458H44.9813V22.7773Z" fill="black"/>
<path d="M46.2128 22.7773H44.9443V24.0458H46.2128V22.7773Z" fill="black"/>
<path d="M53.6024 22.7773H52.334V24.0458H53.6024V22.7773Z" fill="black"/>
<path d="M56.0653 22.7773H54.7969V24.0458H56.0653V22.7773Z" fill="black"/>
<path d="M57.2968 22.7773H56.0283V24.0458H57.2968V22.7773Z" fill="black"/>
<path d="M58.5282 22.7773H57.2598V24.0458H58.5282V22.7773Z" fill="black"/>
<path d="M59.7596 22.7773H58.4912V24.0458H59.7596V22.7773Z" fill="black"/>
<path d="M60.9911 22.7773H59.7227V24.0458H60.9911V22.7773Z" fill="black"/>
<path d="M62.2225 22.7773H60.9541V24.0458H62.2225V22.7773Z" fill="black"/>
<path d="M64.6854 22.7773H63.417V24.0458H64.6854V22.7773Z" fill="black"/>
<path d="M65.9169 22.7773H64.6484V24.0458H65.9169V22.7773Z" fill="black"/>
<path d="M68.3798 22.7773H67.1113V24.0458H68.3798V22.7773Z" fill="black"/>
<path d="M10.4999 24.0098H9.23145V25.2782H10.4999V24.0098Z" fill="black"/>
<path d="M12.9628 24.0098H11.6943V25.2782H12.9628V24.0098Z" fill="black"/>
<path d="M14.1942 24.0098H12.9258V25.2782H14.1942V24.0098Z" fill="black"/>
<path d="M17.8885 24.0098H16.6201V25.2782H17.8885V24.0098Z" fill="black"/>
<path d="M19.12 24.0098H17.8516V25.2782H19.12V24.0098Z" fill="black"/>
<path d="M20.3514 24.0098H19.083V25.2782H20.3514V24.0098Z" fill="black"/>
<path d="M21.5829 24.0098H20.3145V25.2782H21.5829V24.0098Z" fill="black"/>
<path d="M22.8143 24.0098H21.5459V25.2782H22.8143V24.0098Z" fill="black"/>
<path d="M24.0468 24.0098H22.7783V25.2782H24.0468V24.0098Z" fill="black"/>
<path d="M27.7411 24.0098H26.4727V25.2782H27.7411V24.0098Z" fill="black"/>
<path d="M28.9725 24.0098H27.7041V25.2782H28.9725V24.0098Z" fill="black"/>
<path d="M30.204 24.0098H28.9355V25.2782H30.204V24.0098Z" fill="black"/>
<path d="M32.6669 24.0098H31.3984V25.2782H32.6669V24.0098Z" fill="black"/>
<path d="M33.8983 24.0098H32.6299V25.2782H33.8983V24.0098Z" fill="black"/>
<path d="M35.1298 24.0098H33.8613V25.2782H35.1298V24.0098Z" fill="black"/>
<path d="M36.3612 24.0098H35.0928V25.2782H36.3612V24.0098Z" fill="black"/>
<path d="M37.5927 24.0098H36.3242V25.2782H37.5927V24.0098Z" fill="black"/>
<path d="M38.8241 24.0098H37.5557V25.2782H38.8241V24.0098Z" fill="black"/>
<path d="M41.287 24.0098H40.0186V25.2782H41.287V24.0098Z" fill="black"/>
<path d="M42.5184 24.0098H41.25V25.2782H42.5184V24.0098Z" fill="black"/>
<path d="M43.7499 24.0098H42.4814V25.2782H43.7499V24.0098Z" fill="black"/>
<path d="M49.9071 24.0098H48.6387V25.2782H49.9071V24.0098Z" fill="black"/>
<path d="M52.37 24.0098H51.1016V25.2782H52.37V24.0098Z" fill="black"/>
<path d="M56.0653 24.0098H54.7969V25.2782H56.0653V24.0098Z" fill="black"/>
<path d="M57.2968 24.0098H56.0283V25.2782H57.2968V24.0098Z" fill="black"/>
<path d="M59.7596 24.0098H58.4912V25.2782H59.7596V24.0098Z" fill="black"/>
<path d="M60.9911 24.0098H59.7227V25.2782H60.9911V24.0098Z" fill="black"/>
<path d="M62.2225 24.0098H60.9541V25.2782H62.2225V24.0098Z" fill="black"/>
<path d="M65.9169 24.0098H64.6484V25.2782H65.9169V24.0098Z" fill="black"/>
<path d="M67.1483 24.0098H65.8799V25.2782H67.1483V24.0098Z" fill="black"/>
<path d="M9.26843 25.2402H8V26.5087H9.26843V25.2402Z" fill="black"/>
<path d="M10.4999 25.2402H9.23145V26.5087H10.4999V25.2402Z" fill="black"/>
<path d="M11.7313 25.2402H10.4629V26.5087H11.7313V25.2402Z" fill="black"/>
<path d="M12.9628 25.2402H11.6943V26.5087H12.9628V25.2402Z" fill="black"/>
<path d="M15.4257 25.2402H14.1572V26.5087H15.4257V25.2402Z" fill="black"/>
<path d="M16.6571 25.2402H15.3887V26.5087H16.6571V25.2402Z" fill="black"/>
<path d="M17.8885 25.2402H16.6201V26.5087H17.8885V25.2402Z" fill="black"/>
<path d="M20.3514 25.2402H19.083V26.5087H20.3514V25.2402Z" fill="black"/>
<path d="M26.5096 25.2402H25.2412V26.5087H26.5096V25.2402Z" fill="black"/>
<path d="M27.7411 25.2402H26.4727V26.5087H27.7411V25.2402Z" fill="black"/>
<path d="M30.204 25.2402H28.9355V26.5087H30.204V25.2402Z" fill="black"/>
<path d="M31.4354 25.2402H30.167V26.5087H31.4354V25.2402Z" fill="black"/>
<path d="M32.6669 25.2402H31.3984V26.5087H32.6669V25.2402Z" fill="black"/>
<path d="M33.8983 25.2402H32.6299V26.5087H33.8983V25.2402Z" fill="black"/>
<path d="M37.5927 25.2402H36.3242V26.5087H37.5927V25.2402Z" fill="black"/>
<path d="M38.8241 25.2402H37.5557V26.5087H38.8241V25.2402Z" fill="black"/>
<path d="M40.0555 25.2402H38.7871V26.5087H40.0555V25.2402Z" fill="black"/>
<path d="M41.287 25.2402H40.0186V26.5087H41.287V25.2402Z" fill="black"/>
<path d="M42.5184 25.2402H41.25V26.5087H42.5184V25.2402Z" fill="black"/>
<path d="M43.7499 25.2402H42.4814V26.5087H43.7499V25.2402Z" fill="black"/>
<path d="M47.4442 25.2402H46.1758V26.5087H47.4442V25.2402Z" fill="black"/>
<path d="M49.9071 25.2402H48.6387V26.5087H49.9071V25.2402Z" fill="black"/>
<path d="M52.37 25.2402H51.1016V26.5087H52.37V25.2402Z" fill="black"/>
<path d="M57.2968 25.2402H56.0283V26.5087H57.2968V25.2402Z" fill="black"/>
<path d="M58.5282 25.2402H57.2598V26.5087H58.5282V25.2402Z" fill="black"/>
<path d="M64.6854 25.2402H63.417V26.5087H64.6854V25.2402Z" fill="black"/>
<path d="M65.9169 25.2402H64.6484V26.5087H65.9169V25.2402Z" fill="black"/>
<path d="M67.1483 25.2402H65.8799V26.5087H67.1483V25.2402Z" fill="black"/>
<path d="M68.3798 25.2402H67.1113V26.5087H68.3798V25.2402Z" fill="black"/>
<path d="M9.26843 26.4727H8V27.7411H9.26843V26.4727Z" fill="black"/>
<path d="M12.9628 26.4727H11.6943V27.7411H12.9628V26.4727Z" fill="black"/>
<path d="M14.1942 26.4727H12.9258V27.7411H14.1942V26.4727Z" fill="black"/>
<path d="M15.4257 26.4727H14.1572V27.7411H15.4257V26.4727Z" fill="black"/>
<path d="M17.8885 26.4727H16.6201V27.7411H17.8885V26.4727Z" fill="black"/>
<path d="M20.3514 26.4727H19.083V27.7411H20.3514V26.4727Z" fill="black"/>
<path d="M21.5829 26.4727H20.3145V27.7411H21.5829V26.4727Z" fill="black"/>
<path d="M22.8143 26.4727H21.5459V27.7411H22.8143V26.4727Z" fill="black"/>
<path d="M27.7411 26.4727H26.4727V27.7411H27.7411V26.4727Z" fill="black"/>
<path d="M28.9725 26.4727H27.7041V27.7411H28.9725V26.4727Z" fill="black"/>
<path d="M32.6669 26.4727H31.3984V27.7411H32.6669V26.4727Z" fill="black"/>
<path d="M33.8983 26.4727H32.6299V27.7411H33.8983V26.4727Z" fill="black"/>
<path d="M35.1298 26.4727H33.8613V27.7411H35.1298V26.4727Z" fill="black"/>
<path d="M40.0555 26.4727H38.7871V27.7411H40.0555V26.4727Z" fill="black"/>
<path d="M42.5184 26.4727H41.25V27.7411H42.5184V26.4727Z" fill="black"/>
<path d="M43.7499 26.4727H42.4814V27.7411H43.7499V26.4727Z" fill="black"/>
<path d="M44.9813 26.4727H43.7129V27.7411H44.9813V26.4727Z" fill="black"/>
<path d="M47.4442 26.4727H46.1758V27.7411H47.4442V26.4727Z" fill="black"/>
<path d="M51.1385 26.4727H49.8701V27.7411H51.1385V26.4727Z" fill="black"/>
<path d="M52.37 26.4727H51.1016V27.7411H52.37V26.4727Z" fill="black"/>
<path d="M54.8339 26.4727H53.5654V27.7411H54.8339V26.4727Z" fill="black"/>
<path d="M56.0653 26.4727H54.7969V27.7411H56.0653V26.4727Z" fill="black"/>
<path d="M57.2968 26.4727H56.0283V27.7411H57.2968V26.4727Z" fill="black"/>
<path d="M58.5282 26.4727H57.2598V27.7411H58.5282V26.4727Z" fill="black"/>
<path d="M60.9911 26.4727H59.7227V27.7411H60.9911V26.4727Z" fill="black"/>
<path d="M63.454 26.4727H62.1855V27.7411H63.454V26.4727Z" fill="black"/>
<path d="M65.9169 26.4727H64.6484V27.7411H65.9169V26.4727Z" fill="black"/>
<path d="M68.3798 26.4727H67.1113V27.7411H68.3798V26.4727Z" fill="black"/>
<path d="M9.26843 27.7031H8V28.9716H9.26843V27.7031Z" fill="black"/>
<path d="M14.1942 27.7031H12.9258V28.9716H14.1942V27.7031Z" fill="black"/>
<path d="M16.6571 27.7031H15.3887V28.9716H16.6571V27.7031Z" fill="black"/>
<path d="M25.2782 27.7031H24.0098V28.9716H25.2782V27.7031Z" fill="black"/>
<path d="M26.5096 27.7031H25.2412V28.9716H26.5096V27.7031Z" fill="black"/>
<path d="M27.7411 27.7031H26.4727V28.9716H27.7411V27.7031Z" fill="black"/>
<path d="M28.9725 27.7031H27.7041V28.9716H28.9725V27.7031Z" fill="black"/>
<path d="M31.4354 27.7031H30.167V28.9716H31.4354V27.7031Z" fill="black"/>
<path d="M32.6669 27.7031H31.3984V28.9716H32.6669V27.7031Z" fill="black"/>
<path d="M33.8983 27.7031H32.6299V28.9716H33.8983V27.7031Z" fill="black"/>
<path d="M35.1298 27.7031H33.8613V28.9716H35.1298V27.7031Z" fill="black"/>
<path d="M42.5184 27.7031H41.25V28.9716H42.5184V27.7031Z" fill="black"/>
<path d="M43.7499 27.7031H42.4814V28.9716H43.7499V27.7031Z" fill="black"/>
<path d="M44.9813 27.7031H43.7129V28.9716H44.9813V27.7031Z" fill="black"/>
<path d="M46.2128 27.7031H44.9443V28.9716H46.2128V27.7031Z" fill="black"/>
<path d="M47.4442 27.7031H46.1758V28.9716H47.4442V27.7031Z" fill="black"/>
<path d="M48.6757 27.7031H47.4072V28.9716H48.6757V27.7031Z" fill="black"/>
<path d="M49.9071 27.7031H48.6387V28.9716H49.9071V27.7031Z" fill="black"/>
<path d="M51.1385 27.7031H49.8701V28.9716H51.1385V27.7031Z" fill="black"/>
<path d="M52.37 27.7031H51.1016V28.9716H52.37V27.7031Z" fill="black"/>
<path d="M53.6024 27.7031H52.334V28.9716H53.6024V27.7031Z" fill="black"/>
<path d="M56.0653 27.7031H54.7969V28.9716H56.0653V27.7031Z" fill="black"/>
<path d="M59.7596 27.7031H58.4912V28.9716H59.7596V27.7031Z" fill="black"/>
<path d="M60.9911 27.7031H59.7227V28.9716H60.9911V27.7031Z" fill="black"/>
<path d="M62.2225 27.7031H60.9541V28.9716H62.2225V27.7031Z" fill="black"/>
<path d="M64.6854 27.7031H63.417V28.9716H64.6854V27.7031Z" fill="black"/>
<path d="M68.3798 27.7031H67.1113V28.9716H68.3798V27.7031Z" fill="black"/>
<path d="M10.4999 28.9355H9.23145V30.204H10.4999V28.9355Z" fill="black"/>
<path d="M11.7313 28.9355H10.4629V30.204H11.7313V28.9355Z" fill="black"/>
<path d="M12.9628 28.9355H11.6943V30.204H12.9628V28.9355Z" fill="black"/>
<path d="M15.4257 28.9355H14.1572V30.204H15.4257V28.9355Z" fill="black"/>
<path d="M17.8885 28.9355H16.6201V30.204H17.8885V28.9355Z" fill="black"/>
<path d="M20.3514 28.9355H19.083V30.204H20.3514V28.9355Z" fill="black"/>
<path d="M22.8143 28.9355H21.5459V30.204H22.8143V28.9355Z" fill="black"/>
<path d="M24.0468 28.9355H22.7783V30.204H24.0468V28.9355Z" fill="black"/>
<path d="M27.7411 28.9355H26.4727V30.204H27.7411V28.9355Z" fill="black"/>
<path d="M28.9725 28.9355H27.7041V30.204H28.9725V28.9355Z" fill="black"/>
<path d="M51.1385 28.9355H49.8701V30.204H51.1385V28.9355Z" fill="black"/>
<path d="M52.37 28.9355H51.1016V30.204H52.37V28.9355Z" fill="black"/>
<path d="M53.6024 28.9355H52.334V30.204H53.6024V28.9355Z" fill="black"/>
<path d="M54.8339 28.9355H53.5654V30.204H54.8339V28.9355Z" fill="black"/>
<path d="M56.0653 28.9355H54.7969V30.204H56.0653V28.9355Z" fill="black"/>
<path d="M57.2968 28.9355H56.0283V30.204H57.2968V28.9355Z" fill="black"/>
<path d="M60.9911 28.9355H59.7227V30.204H60.9911V28.9355Z" fill="black"/>
<path d="M64.6854 28.9355H63.417V30.204H64.6854V28.9355Z" fill="black"/>
<path d="M65.9169 28.9355H64.6484V30.204H65.9169V28.9355Z" fill="black"/>
<path d="M67.1483 28.9355H65.8799V30.204H67.1483V28.9355Z" fill="black"/>
<path d="M15.4257 30.166H14.1572V31.4344H15.4257V30.166Z" fill="black"/>
<path d="M16.6571 30.166H15.3887V31.4344H16.6571V30.166Z" fill="black"/>
<path d="M20.3514 30.166H19.083V31.4344H20.3514V30.166Z" fill="black"/>
<path d="M21.5829 30.166H20.3145V31.4344H21.5829V30.166Z" fill="black"/>
<path d="M26.5096 30.166H25.2412V31.4344H26.5096V30.166Z" fill="black"/>
<path d="M49.9071 30.166H48.6387V31.4344H49.9071V30.166Z" fill="black"/>
<path d="M52.37 30.166H51.1016V31.4344H52.37V30.166Z" fill="black"/>
<path d="M59.7596 30.166H58.4912V31.4344H59.7596V30.166Z" fill="black"/>
<path d="M60.9911 30.166H59.7227V31.4344H60.9911V30.166Z" fill="black"/>
<path d="M62.2225 30.166H60.9541V31.4344H62.2225V30.166Z" fill="black"/>
<path d="M63.454 30.166H62.1855V31.4344H63.454V30.166Z" fill="black"/>
<path d="M64.6854 30.166H63.417V31.4344H64.6854V30.166Z" fill="black"/>
<path d="M67.1483 30.166H65.8799V31.4344H67.1483V30.166Z" fill="black"/>
<path d="M68.3798 30.166H67.1113V31.4344H68.3798V30.166Z" fill="black"/>
<path d="M9.26843 31.3984H8V32.6669H9.26843V31.3984Z" fill="black"/>
<path d="M10.4999 31.3984H9.23145V32.6669H10.4999V31.3984Z" fill="black"/>
<path d="M11.7313 31.3984H10.4629V32.6669H11.7313V31.3984Z" fill="black"/>
<path d="M12.9628 31.3984H11.6943V32.6669H12.9628V31.3984Z" fill="black"/>
<path d="M14.1942 31.3984H12.9258V32.6669H14.1942V31.3984Z" fill="black"/>
<path d="M15.4257 31.3984H14.1572V32.6669H15.4257V31.3984Z" fill="black"/>
<path d="M19.12 31.3984H17.8516V32.6669H19.12V31.3984Z" fill="black"/>
<path d="M20.3514 31.3984H19.083V32.6669H20.3514V31.3984Z" fill="black"/>
<path d="M21.5829 31.3984H20.3145V32.6669H21.5829V31.3984Z" fill="black"/>
<path d="M22.8143 31.3984H21.5459V32.6669H22.8143V31.3984Z" fill="black"/>
<path d="M25.2782 31.3984H24.0098V32.6669H25.2782V31.3984Z" fill="black"/>
<path d="M49.9071 31.3984H48.6387V32.6669H49.9071V31.3984Z" fill="black"/>
<path d="M52.37 31.3984H51.1016V32.6669H52.37V31.3984Z" fill="black"/>
<path d="M54.8339 31.3984H53.5654V32.6669H54.8339V31.3984Z" fill="black"/>
<path d="M56.0653 31.3984H54.7969V32.6669H56.0653V31.3984Z" fill="black"/>
<path d="M57.2968 31.3984H56.0283V32.6669H57.2968V31.3984Z" fill="black"/>
<path d="M60.9911 31.3984H59.7227V32.6669H60.9911V31.3984Z" fill="black"/>
<path d="M62.2225 31.3984H60.9541V32.6669H62.2225V31.3984Z" fill="black"/>
<path d="M63.454 31.3984H62.1855V32.6669H63.454V31.3984Z" fill="black"/>
<path d="M67.1483 31.3984H65.8799V32.6669H67.1483V31.3984Z" fill="black"/>
<path d="M68.3798 31.3984H67.1113V32.6669H68.3798V31.3984Z" fill="black"/>
<path d="M9.26843 32.6289H8V33.8973H9.26843V32.6289Z" fill="black"/>
<path d="M14.1942 32.6289H12.9258V33.8973H14.1942V32.6289Z" fill="black"/>
<path d="M15.4257 32.6289H14.1572V33.8973H15.4257V32.6289Z" fill="black"/>
<path d="M16.6571 32.6289H15.3887V33.8973H16.6571V32.6289Z" fill="black"/>
<path d="M19.12 32.6289H17.8516V33.8973H19.12V32.6289Z" fill="black"/>
<path d="M24.0468 32.6289H22.7783V33.8973H24.0468V32.6289Z" fill="black"/>
<path d="M25.2782 32.6289H24.0098V33.8973H25.2782V32.6289Z" fill="black"/>
<path d="M26.5096 32.6289H25.2412V33.8973H26.5096V32.6289Z" fill="black"/>
<path d="M27.7411 32.6289H26.4727V33.8973H27.7411V32.6289Z" fill="black"/>
<path d="M28.9725 32.6289H27.7041V33.8973H28.9725V32.6289Z" fill="black"/>
<path d="M48.6757 32.6289H47.4072V33.8973H48.6757V32.6289Z" fill="black"/>
<path d="M49.9071 32.6289H48.6387V33.8973H49.9071V32.6289Z" fill="black"/>
<path d="M52.37 32.6289H51.1016V33.8973H52.37V32.6289Z" fill="black"/>
<path d="M53.6024 32.6289H52.334V33.8973H53.6024V32.6289Z" fill="black"/>
<path d="M54.8339 32.6289H53.5654V33.8973H54.8339V32.6289Z" fill="black"/>
<path d="M56.0653 32.6289H54.7969V33.8973H56.0653V32.6289Z" fill="black"/>
<path d="M57.2968 32.6289H56.0283V33.8973H57.2968V32.6289Z" fill="black"/>
<path d="M58.5282 32.6289H57.2598V33.8973H58.5282V32.6289Z" fill="black"/>
<path d="M60.9911 32.6289H59.7227V33.8973H60.9911V32.6289Z" fill="black"/>
<path d="M62.2225 32.6289H60.9541V33.8973H62.2225V32.6289Z" fill="black"/>
<path d="M65.9169 32.6289H64.6484V33.8973H65.9169V32.6289Z" fill="black"/>
<path d="M68.3798 32.6289H67.1113V33.8973H68.3798V32.6289Z" fill="black"/>
<path d="M9.26843 33.8613H8V35.1298H9.26843V33.8613Z" fill="black"/>
<path d="M15.4257 33.8613H14.1572V35.1298H15.4257V33.8613Z" fill="black"/>
<path d="M20.3514 33.8613H19.083V35.1298H20.3514V33.8613Z" fill="black"/>
<path d="M27.7411 33.8613H26.4727V35.1298H27.7411V33.8613Z" fill="black"/>
<path d="M28.9725 33.8613H27.7041V35.1298H28.9725V33.8613Z" fill="black"/>
<path d="M53.6024 33.8613H52.334V35.1298H53.6024V33.8613Z" fill="black"/>
<path d="M57.2968 33.8613H56.0283V35.1298H57.2968V33.8613Z" fill="black"/>
<path d="M59.7596 33.8613H58.4912V35.1298H59.7596V33.8613Z" fill="black"/>
<path d="M60.9911 33.8613H59.7227V35.1298H60.9911V33.8613Z" fill="black"/>
<path d="M64.6854 33.8613H63.417V35.1298H64.6854V33.8613Z" fill="black"/>
<path d="M14.1942 35.0918H12.9258V36.3602H14.1942V35.0918Z" fill="black"/>
<path d="M15.4257 35.0918H14.1572V36.3602H15.4257V35.0918Z" fill="black"/>
<path d="M16.6571 35.0918H15.3887V36.3602H16.6571V35.0918Z" fill="black"/>
<path d="M17.8885 35.0918H16.6201V36.3602H17.8885V35.0918Z" fill="black"/>
<path d="M19.12 35.0918H17.8516V36.3602H19.12V35.0918Z" fill="black"/>
<path d="M20.3514 35.0918H19.083V36.3602H20.3514V35.0918Z" fill="black"/>
<path d="M25.2782 35.0918H24.0098V36.3602H25.2782V35.0918Z" fill="black"/>
<path d="M26.5096 35.0918H25.2412V36.3602H26.5096V35.0918Z" fill="black"/>
<path d="M27.7411 35.0918H26.4727V36.3602H27.7411V35.0918Z" fill="black"/>
<path d="M51.1385 35.0918H49.8701V36.3602H51.1385V35.0918Z" fill="black"/>
<path d="M52.37 35.0918H51.1016V36.3602H52.37V35.0918Z" fill="black"/>
<path d="M56.0653 35.0918H54.7969V36.3602H56.0653V35.0918Z" fill="black"/>
<path d="M57.2968 35.0918H56.0283V36.3602H57.2968V35.0918Z" fill="black"/>
<path d="M58.5282 35.0918H57.2598V36.3602H58.5282V35.0918Z" fill="black"/>
<path d="M59.7596 35.0918H58.4912V36.3602H59.7596V35.0918Z" fill="black"/>
<path d="M60.9911 35.0918H59.7227V36.3602H60.9911V35.0918Z" fill="black"/>
<path d="M62.2225 35.0918H60.9541V36.3602H62.2225V35.0918Z" fill="black"/>
<path d="M63.454 35.0918H62.1855V36.3602H63.454V35.0918Z" fill="black"/>
<path d="M64.6854 35.0918H63.417V36.3602H64.6854V35.0918Z" fill="black"/>
<path d="M67.1483 35.0918H65.8799V36.3602H67.1483V35.0918Z" fill="black"/>
<path d="M68.3798 35.0918H67.1113V36.3602H68.3798V35.0918Z" fill="black"/>
<path d="M10.4999 36.3242H9.23145V37.5927H10.4999V36.3242Z" fill="black"/>
<path d="M12.9628 36.3242H11.6943V37.5927H12.9628V36.3242Z" fill="black"/>
<path d="M14.1942 36.3242H12.9258V37.5927H14.1942V36.3242Z" fill="black"/>
<path d="M19.12 36.3242H17.8516V37.5927H19.12V36.3242Z" fill="black"/>
<path d="M22.8143 36.3242H21.5459V37.5927H22.8143V36.3242Z" fill="black"/>
<path d="M24.0468 36.3242H22.7783V37.5927H24.0468V36.3242Z" fill="black"/>
<path d="M25.2782 36.3242H24.0098V37.5927H25.2782V36.3242Z" fill="black"/>
<path d="M26.5096 36.3242H25.2412V37.5927H26.5096V36.3242Z" fill="black"/>
<path d="M51.1385 36.3242H49.8701V37.5927H51.1385V36.3242Z" fill="black"/>
<path d="M54.8339 36.3242H53.5654V37.5927H54.8339V36.3242Z" fill="black"/>
<path d="M56.0653 36.3242H54.7969V37.5927H56.0653V36.3242Z" fill="black"/>
<path d="M57.2968 36.3242H56.0283V37.5927H57.2968V36.3242Z" fill="black"/>
<path d="M58.5282 36.3242H57.2598V37.5927H58.5282V36.3242Z" fill="black"/>
<path d="M63.454 36.3242H62.1855V37.5927H63.454V36.3242Z" fill="black"/>
<path d="M68.3798 36.3242H67.1113V37.5927H68.3798V36.3242Z" fill="black"/>
<path d="M11.7313 37.5566H10.4629V38.8251H11.7313V37.5566Z" fill="black"/>
<path d="M14.1942 37.5566H12.9258V38.8251H14.1942V37.5566Z" fill="black"/>
<path d="M16.6571 37.5566H15.3887V38.8251H16.6571V37.5566Z" fill="black"/>
<path d="M19.12 37.5566H17.8516V38.8251H19.12V37.5566Z" fill="black"/>
<path d="M27.7411 37.5566H26.4727V38.8251H27.7411V37.5566Z" fill="black"/>
<path d="M49.9071 37.5566H48.6387V38.8251H49.9071V37.5566Z" fill="black"/>
<path d="M51.1385 37.5566H49.8701V38.8251H51.1385V37.5566Z" fill="black"/>
<path d="M52.37 37.5566H51.1016V38.8251H52.37V37.5566Z" fill="black"/>
<path d="M53.6024 37.5566H52.334V38.8251H53.6024V37.5566Z" fill="black"/>
<path d="M54.8339 37.5566H53.5654V38.8251H54.8339V37.5566Z" fill="black"/>
<path d="M56.0653 37.5566H54.7969V38.8251H56.0653V37.5566Z" fill="black"/>
<path d="M57.2968 37.5566H56.0283V38.8251H57.2968V37.5566Z" fill="black"/>
<path d="M58.5282 37.5566H57.2598V38.8251H58.5282V37.5566Z" fill="black"/>
<path d="M60.9911 37.5566H59.7227V38.8251H60.9911V37.5566Z" fill="black"/>
<path d="M63.454 37.5566H62.1855V38.8251H63.454V37.5566Z" fill="black"/>
<path d="M65.9169 37.5566H64.6484V38.8251H65.9169V37.5566Z" fill="black"/>
<path d="M67.1483 37.5566H65.8799V38.8251H67.1483V37.5566Z" fill="black"/>
<path d="M12.9628 38.7871H11.6943V40.0555H12.9628V38.7871Z" fill="black"/>
<path d="M14.1942 38.7871H12.9258V40.0555H14.1942V38.7871Z" fill="black"/>
<path d="M19.12 38.7871H17.8516V40.0555H19.12V38.7871Z" fill="black"/>
<path d="M20.3514 38.7871H19.083V40.0555H20.3514V38.7871Z" fill="black"/>
<path d="M21.5829 38.7871H20.3145V40.0555H21.5829V38.7871Z" fill="black"/>
<path d="M24.0468 38.7871H22.7783V40.0555H24.0468V38.7871Z" fill="black"/>
<path d="M25.2782 38.7871H24.0098V40.0555H25.2782V38.7871Z" fill="black"/>
<path d="M26.5096 38.7871H25.2412V40.0555H26.5096V38.7871Z" fill="black"/>
<path d="M28.9725 38.7871H27.7041V40.0555H28.9725V38.7871Z" fill="black"/>
<path d="M49.9071 38.7871H48.6387V40.0555H49.9071V38.7871Z" fill="black"/>
<path d="M52.37 38.7871H51.1016V40.0555H52.37V38.7871Z" fill="black"/>
<path d="M54.8339 38.7871H53.5654V40.0555H54.8339V38.7871Z" fill="black"/>
<path d="M57.2968 38.7871H56.0283V40.0555H57.2968V38.7871Z" fill="black"/>
<path d="M58.5282 38.7871H57.2598V40.0555H58.5282V38.7871Z" fill="black"/>
<path d="M63.454 38.7871H62.1855V40.0555H63.454V38.7871Z" fill="black"/>
<path d="M64.6854 38.7871H63.417V40.0555H64.6854V38.7871Z" fill="black"/>
<path d="M67.1483 38.7871H65.8799V40.0555H67.1483V38.7871Z" fill="black"/>
<path d="M68.3798 38.7871H67.1113V40.0555H68.3798V38.7871Z" fill="black"/>
<path d="M10.4999 40.0195H9.23145V41.288H10.4999V40.0195Z" fill="black"/>
<path d="M11.7313 40.0195H10.4629V41.288H11.7313V40.0195Z" fill="black"/>
<path d="M14.1942 40.0195H12.9258V41.288H14.1942V40.0195Z" fill="black"/>
<path d="M15.4257 40.0195H14.1572V41.288H15.4257V40.0195Z" fill="black"/>
<path d="M16.6571 40.0195H15.3887V41.288H16.6571V40.0195Z" fill="black"/>
<path d="M17.8885 40.0195H16.6201V41.288H17.8885V40.0195Z" fill="black"/>
<path d="M19.12 40.0195H17.8516V41.288H19.12V40.0195Z" fill="black"/>
<path d="M20.3514 40.0195H19.083V41.288H20.3514V40.0195Z" fill="black"/>
<path d="M21.5829 40.0195H20.3145V41.288H21.5829V40.0195Z" fill="black"/>
<path d="M22.8143 40.0195H21.5459V41.288H22.8143V40.0195Z" fill="black"/>
<path d="M26.5096 40.0195H25.2412V41.288H26.5096V40.0195Z" fill="black"/>
<path d="M27.7411 40.0195H26.4727V41.288H27.7411V40.0195Z" fill="black"/>
<path d="M49.9071 40.0195H48.6387V41.288H49.9071V40.0195Z" fill="black"/>
<path d="M51.1385 40.0195H49.8701V41.288H51.1385V40.0195Z" fill="black"/>
<path d="M52.37 40.0195H51.1016V41.288H52.37V40.0195Z" fill="black"/>
<path d="M56.0653 40.0195H54.7969V41.288H56.0653V40.0195Z" fill="black"/>
<path d="M57.2968 40.0195H56.0283V41.288H57.2968V40.0195Z" fill="black"/>
<path d="M58.5282 40.0195H57.2598V41.288H58.5282V40.0195Z" fill="black"/>
<path d="M59.7596 40.0195H58.4912V41.288H59.7596V40.0195Z" fill="black"/>
<path d="M60.9911 40.0195H59.7227V41.288H60.9911V40.0195Z" fill="black"/>
<path d="M62.2225 40.0195H60.9541V41.288H62.2225V40.0195Z" fill="black"/>
<path d="M63.454 40.0195H62.1855V41.288H63.454V40.0195Z" fill="black"/>
<path d="M64.6854 40.0195H63.417V41.288H64.6854V40.0195Z" fill="black"/>
<path d="M68.3798 40.0195H67.1113V41.288H68.3798V40.0195Z" fill="black"/>
<path d="M9.26843 41.25H8V42.5184H9.26843V41.25Z" fill="black"/>
<path d="M10.4999 41.25H9.23145V42.5184H10.4999V41.25Z" fill="black"/>
<path d="M11.7313 41.25H10.4629V42.5184H11.7313V41.25Z" fill="black"/>
<path d="M12.9628 41.25H11.6943V42.5184H12.9628V41.25Z" fill="black"/>
<path d="M14.1942 41.25H12.9258V42.5184H14.1942V41.25Z" fill="black"/>
<path d="M17.8885 41.25H16.6201V42.5184H17.8885V41.25Z" fill="black"/>
<path d="M19.12 41.25H17.8516V42.5184H19.12V41.25Z" fill="black"/>
<path d="M22.8143 41.25H21.5459V42.5184H22.8143V41.25Z" fill="black"/>
<path d="M24.0468 41.25H22.7783V42.5184H24.0468V41.25Z" fill="black"/>
<path d="M25.2782 41.25H24.0098V42.5184H25.2782V41.25Z" fill="black"/>
<path d="M28.9725 41.25H27.7041V42.5184H28.9725V41.25Z" fill="black"/>
<path d="M51.1385 41.25H49.8701V42.5184H51.1385V41.25Z" fill="black"/>
<path d="M52.37 41.25H51.1016V42.5184H52.37V41.25Z" fill="black"/>
<path d="M59.7596 41.25H58.4912V42.5184H59.7596V41.25Z" fill="black"/>
<path d="M62.2225 41.25H60.9541V42.5184H62.2225V41.25Z" fill="black"/>
<path d="M64.6854 41.25H63.417V42.5184H64.6854V41.25Z" fill="black"/>
<path d="M67.1483 41.25H65.8799V42.5184H67.1483V41.25Z" fill="black"/>
<path d="M68.3798 41.25H67.1113V42.5184H68.3798V41.25Z" fill="black"/>
<path d="M10.4999 42.4824H9.23145V43.7509H10.4999V42.4824Z" fill="black"/>
<path d="M12.9628 42.4824H11.6943V43.7509H12.9628V42.4824Z" fill="black"/>
<path d="M14.1942 42.4824H12.9258V43.7509H14.1942V42.4824Z" fill="black"/>
<path d="M15.4257 42.4824H14.1572V43.7509H15.4257V42.4824Z" fill="black"/>
<path d="M16.6571 42.4824H15.3887V43.7509H16.6571V42.4824Z" fill="black"/>
<path d="M17.8885 42.4824H16.6201V43.7509H17.8885V42.4824Z" fill="black"/>
<path d="M19.12 42.4824H17.8516V43.7509H19.12V42.4824Z" fill="black"/>
<path d="M20.3514 42.4824H19.083V43.7509H20.3514V42.4824Z" fill="black"/>
<path d="M26.5096 42.4824H25.2412V43.7509H26.5096V42.4824Z" fill="black"/>
<path d="M27.7411 42.4824H26.4727V43.7509H27.7411V42.4824Z" fill="black"/>
<path d="M48.6757 42.4824H47.4072V43.7509H48.6757V42.4824Z" fill="black"/>
<path d="M52.37 42.4824H51.1016V43.7509H52.37V42.4824Z" fill="black"/>
<path d="M53.6024 42.4824H52.334V43.7509H53.6024V42.4824Z" fill="black"/>
<path d="M54.8339 42.4824H53.5654V43.7509H54.8339V42.4824Z" fill="black"/>
<path d="M57.2968 42.4824H56.0283V43.7509H57.2968V42.4824Z" fill="black"/>
<path d="M58.5282 42.4824H57.2598V43.7509H58.5282V42.4824Z" fill="black"/>
<path d="M59.7596 42.4824H58.4912V43.7509H59.7596V42.4824Z" fill="black"/>
<path d="M60.9911 42.4824H59.7227V43.7509H60.9911V42.4824Z" fill="black"/>
<path d="M64.6854 42.4824H63.417V43.7509H64.6854V42.4824Z" fill="black"/>
<path d="M65.9169 42.4824H64.6484V43.7509H65.9169V42.4824Z" fill="black"/>
<path d="M68.3798 42.4824H67.1113V43.7509H68.3798V42.4824Z" fill="black"/>
<path d="M11.7313 43.7129H10.4629V44.9813H11.7313V43.7129Z" fill="black"/>
<path d="M12.9628 43.7129H11.6943V44.9813H12.9628V43.7129Z" fill="black"/>
<path d="M15.4257 43.7129H14.1572V44.9813H15.4257V43.7129Z" fill="black"/>
<path d="M19.12 43.7129H17.8516V44.9813H19.12V43.7129Z" fill="black"/>
<path d="M20.3514 43.7129H19.083V44.9813H20.3514V43.7129Z" fill="black"/>
<path d="M24.0468 43.7129H22.7783V44.9813H24.0468V43.7129Z" fill="black"/>
<path d="M27.7411 43.7129H26.4727V44.9813H27.7411V43.7129Z" fill="black"/>
<path d="M48.6757 43.7129H47.4072V44.9813H48.6757V43.7129Z" fill="black"/>
<path d="M52.37 43.7129H51.1016V44.9813H52.37V43.7129Z" fill="black"/>
<path d="M53.6024 43.7129H52.334V44.9813H53.6024V43.7129Z" fill="black"/>
<path d="M54.8339 43.7129H53.5654V44.9813H54.8339V43.7129Z" fill="black"/>
<path d="M58.5282 43.7129H57.2598V44.9813H58.5282V43.7129Z" fill="black"/>
<path d="M59.7596 43.7129H58.4912V44.9813H59.7596V43.7129Z" fill="black"/>
<path d="M60.9911 43.7129H59.7227V44.9813H60.9911V43.7129Z" fill="black"/>
<path d="M62.2225 43.7129H60.9541V44.9813H62.2225V43.7129Z" fill="black"/>
<path d="M63.454 43.7129H62.1855V44.9813H63.454V43.7129Z" fill="black"/>
<path d="M64.6854 43.7129H63.417V44.9813H64.6854V43.7129Z" fill="black"/>
<path d="M11.7313 44.9453H10.4629V46.2137H11.7313V44.9453Z" fill="black"/>
<path d="M15.4257 44.9453H14.1572V46.2137H15.4257V44.9453Z" fill="black"/>
<path d="M16.6571 44.9453H15.3887V46.2137H16.6571V44.9453Z" fill="black"/>
<path d="M17.8885 44.9453H16.6201V46.2137H17.8885V44.9453Z" fill="black"/>
<path d="M22.8143 44.9453H21.5459V46.2137H22.8143V44.9453Z" fill="black"/>
<path d="M48.6757 44.9453H47.4072V46.2137H48.6757V44.9453Z" fill="black"/>
<path d="M49.9071 44.9453H48.6387V46.2137H49.9071V44.9453Z" fill="black"/>
<path d="M51.1385 44.9453H49.8701V46.2137H51.1385V44.9453Z" fill="black"/>
<path d="M53.6024 44.9453H52.334V46.2137H53.6024V44.9453Z" fill="black"/>
<path d="M56.0653 44.9453H54.7969V46.2137H56.0653V44.9453Z" fill="black"/>
<path d="M57.2968 44.9453H56.0283V46.2137H57.2968V44.9453Z" fill="black"/>
<path d="M60.9911 44.9453H59.7227V46.2137H60.9911V44.9453Z" fill="black"/>
<path d="M63.454 44.9453H62.1855V46.2137H63.454V44.9453Z" fill="black"/>
<path d="M64.6854 44.9453H63.417V46.2137H64.6854V44.9453Z" fill="black"/>
<path d="M65.9169 44.9453H64.6484V46.2137H65.9169V44.9453Z" fill="black"/>
<path d="M67.1483 44.9453H65.8799V46.2137H67.1483V44.9453Z" fill="black"/>
<path d="M68.3798 44.9453H67.1113V46.2137H68.3798V44.9453Z" fill="black"/>
<path d="M9.26843 46.1758H8V47.4442H9.26843V46.1758Z" fill="black"/>
<path d="M10.4999 46.1758H9.23145V47.4442H10.4999V46.1758Z" fill="black"/>
<path d="M12.9628 46.1758H11.6943V47.4442H12.9628V46.1758Z" fill="black"/>
<path d="M15.4257 46.1758H14.1572V47.4442H15.4257V46.1758Z" fill="black"/>
<path d="M19.12 46.1758H17.8516V47.4442H19.12V46.1758Z" fill="black"/>
<path d="M20.3514 46.1758H19.083V47.4442H20.3514V46.1758Z" fill="black"/>
<path d="M21.5829 46.1758H20.3145V47.4442H21.5829V46.1758Z" fill="black"/>
<path d="M27.7411 46.1758H26.4727V47.4442H27.7411V46.1758Z" fill="black"/>
<path d="M28.9725 46.1758H27.7041V47.4442H28.9725V46.1758Z" fill="black"/>
<path d="M49.9071 46.1758H48.6387V47.4442H49.9071V46.1758Z" fill="black"/>
<path d="M53.6024 46.1758H52.334V47.4442H53.6024V46.1758Z" fill="black"/>
<path d="M58.5282 46.1758H57.2598V47.4442H58.5282V46.1758Z" fill="black"/>
<path d="M62.2225 46.1758H60.9541V47.4442H62.2225V46.1758Z" fill="black"/>
<path d="M63.454 46.1758H62.1855V47.4442H63.454V46.1758Z" fill="black"/>
<path d="M67.1483 46.1758H65.8799V47.4442H67.1483V46.1758Z" fill="black"/>
<path d="M68.3798 46.1758H67.1113V47.4442H68.3798V46.1758Z" fill="black"/>
<path d="M11.7313 47.4082H10.4629V48.6766H11.7313V47.4082Z" fill="black"/>
<path d="M12.9628 47.4082H11.6943V48.6766H12.9628V47.4082Z" fill="black"/>
<path d="M14.1942 47.4082H12.9258V48.6766H14.1942V47.4082Z" fill="black"/>
<path d="M15.4257 47.4082H14.1572V48.6766H15.4257V47.4082Z" fill="black"/>
<path d="M16.6571 47.4082H15.3887V48.6766H16.6571V47.4082Z" fill="black"/>
<path d="M20.3514 47.4082H19.083V48.6766H20.3514V47.4082Z" fill="black"/>
<path d="M21.5829 47.4082H20.3145V48.6766H21.5829V47.4082Z" fill="black"/>
<path d="M22.8143 47.4082H21.5459V48.6766H22.8143V47.4082Z" fill="black"/>
<path d="M25.2782 47.4082H24.0098V48.6766H25.2782V47.4082Z" fill="black"/>
<path d="M27.7411 47.4082H26.4727V48.6766H27.7411V47.4082Z" fill="black"/>
<path d="M28.9725 47.4082H27.7041V48.6766H28.9725V47.4082Z" fill="black"/>
<path d="M30.204 47.4082H28.9355V48.6766H30.204V47.4082Z" fill="black"/>
<path d="M31.4354 47.4082H30.167V48.6766H31.4354V47.4082Z" fill="black"/>
<path d="M32.6669 47.4082H31.3984V48.6766H32.6669V47.4082Z" fill="black"/>
<path d="M35.1298 47.4082H33.8613V48.6766H35.1298V47.4082Z" fill="black"/>
<path d="M36.3612 47.4082H35.0928V48.6766H36.3612V47.4082Z" fill="black"/>
<path d="M37.5927 47.4082H36.3242V48.6766H37.5927V47.4082Z" fill="black"/>
<path d="M44.9813 47.4082H43.7129V48.6766H44.9813V47.4082Z" fill="black"/>
<path d="M47.4442 47.4082H46.1758V48.6766H47.4442V47.4082Z" fill="black"/>
<path d="M48.6757 47.4082H47.4072V48.6766H48.6757V47.4082Z" fill="black"/>
<path d="M52.37 47.4082H51.1016V48.6766H52.37V47.4082Z" fill="black"/>
<path d="M54.8339 47.4082H53.5654V48.6766H54.8339V47.4082Z" fill="black"/>
<path d="M56.0653 47.4082H54.7969V48.6766H56.0653V47.4082Z" fill="black"/>
<path d="M57.2968 47.4082H56.0283V48.6766H57.2968V47.4082Z" fill="black"/>
<path d="M58.5282 47.4082H57.2598V48.6766H58.5282V47.4082Z" fill="black"/>
<path d="M60.9911 47.4082H59.7227V48.6766H60.9911V47.4082Z" fill="black"/>
<path d="M63.454 47.4082H62.1855V48.6766H63.454V47.4082Z" fill="black"/>
<path d="M64.6854 47.4082H63.417V48.6766H64.6854V47.4082Z" fill="black"/>
<path d="M65.9169 47.4082H64.6484V48.6766H65.9169V47.4082Z" fill="black"/>
<path d="M11.7313 48.6387H10.4629V49.9071H11.7313V48.6387Z" fill="black"/>
<path d="M14.1942 48.6387H12.9258V49.9071H14.1942V48.6387Z" fill="black"/>
<path d="M15.4257 48.6387H14.1572V49.9071H15.4257V48.6387Z" fill="black"/>
<path d="M24.0468 48.6387H22.7783V49.9071H24.0468V48.6387Z" fill="black"/>
<path d="M27.7411 48.6387H26.4727V49.9071H27.7411V48.6387Z" fill="black"/>
<path d="M31.4354 48.6387H30.167V49.9071H31.4354V48.6387Z" fill="black"/>
<path d="M32.6669 48.6387H31.3984V49.9071H32.6669V48.6387Z" fill="black"/>
<path d="M33.8983 48.6387H32.6299V49.9071H33.8983V48.6387Z" fill="black"/>
<path d="M35.1298 48.6387H33.8613V49.9071H35.1298V48.6387Z" fill="black"/>
<path d="M38.8241 48.6387H37.5557V49.9071H38.8241V48.6387Z" fill="black"/>
<path d="M41.287 48.6387H40.0186V49.9071H41.287V48.6387Z" fill="black"/>
<path d="M43.7499 48.6387H42.4814V49.9071H43.7499V48.6387Z" fill="black"/>
<path d="M46.2128 48.6387H44.9443V49.9071H46.2128V48.6387Z" fill="black"/>
<path d="M48.6757 48.6387H47.4072V49.9071H48.6757V48.6387Z" fill="black"/>
<path d="M54.8339 48.6387H53.5654V49.9071H54.8339V48.6387Z" fill="black"/>
<path d="M57.2968 48.6387H56.0283V49.9071H57.2968V48.6387Z" fill="black"/>
<path d="M59.7596 48.6387H58.4912V49.9071H59.7596V48.6387Z" fill="black"/>
<path d="M62.2225 48.6387H60.9541V49.9071H62.2225V48.6387Z" fill="black"/>
<path d="M65.9169 48.6387H64.6484V49.9071H65.9169V48.6387Z" fill="black"/>
<path d="M11.7313 49.8711H10.4629V51.1395H11.7313V49.8711Z" fill="black"/>
<path d="M12.9628 49.8711H11.6943V51.1395H12.9628V49.8711Z" fill="black"/>
<path d="M14.1942 49.8711H12.9258V51.1395H14.1942V49.8711Z" fill="black"/>
<path d="M16.6571 49.8711H15.3887V51.1395H16.6571V49.8711Z" fill="black"/>
<path d="M22.8143 49.8711H21.5459V51.1395H22.8143V49.8711Z" fill="black"/>
<path d="M26.5096 49.8711H25.2412V51.1395H26.5096V49.8711Z" fill="black"/>
<path d="M30.204 49.8711H28.9355V51.1395H30.204V49.8711Z" fill="black"/>
<path d="M38.8241 49.8711H37.5557V51.1395H38.8241V49.8711Z" fill="black"/>
<path d="M41.287 49.8711H40.0186V51.1395H41.287V49.8711Z" fill="black"/>
<path d="M42.5184 49.8711H41.25V51.1395H42.5184V49.8711Z" fill="black"/>
<path d="M43.7499 49.8711H42.4814V51.1395H43.7499V49.8711Z" fill="black"/>
<path d="M44.9813 49.8711H43.7129V51.1395H44.9813V49.8711Z" fill="black"/>
<path d="M47.4442 49.8711H46.1758V51.1395H47.4442V49.8711Z" fill="black"/>
<path d="M48.6757 49.8711H47.4072V51.1395H48.6757V49.8711Z" fill="black"/>
<path d="M49.9071 49.8711H48.6387V51.1395H49.9071V49.8711Z" fill="black"/>
<path d="M51.1385 49.8711H49.8701V51.1395H51.1385V49.8711Z" fill="black"/>
<path d="M52.37 49.8711H51.1016V51.1395H52.37V49.8711Z" fill="black"/>
<path d="M56.0653 49.8711H54.7969V51.1395H56.0653V49.8711Z" fill="black"/>
<path d="M57.2968 49.8711H56.0283V51.1395H57.2968V49.8711Z" fill="black"/>
<path d="M59.7596 49.8711H58.4912V51.1395H59.7596V49.8711Z" fill="black"/>
<path d="M60.9911 49.8711H59.7227V51.1395H60.9911V49.8711Z" fill="black"/>
<path d="M62.2225 49.8711H60.9541V51.1395H62.2225V49.8711Z" fill="black"/>
<path d="M63.454 49.8711H62.1855V51.1395H63.454V49.8711Z" fill="black"/>
<path d="M64.6854 49.8711H63.417V51.1395H64.6854V49.8711Z" fill="black"/>
<path d="M65.9169 49.8711H64.6484V51.1395H65.9169V49.8711Z" fill="black"/>
<path d="M67.1483 49.8711H65.8799V51.1395H67.1483V49.8711Z" fill="black"/>
<path d="M68.3798 49.8711H67.1113V51.1395H68.3798V49.8711Z" fill="black"/>
<path d="M9.26843 51.1016H8V52.37H9.26843V51.1016Z" fill="black"/>
<path d="M10.4999 51.1016H9.23145V52.37H10.4999V51.1016Z" fill="black"/>
<path d="M14.1942 51.1016H12.9258V52.37H14.1942V51.1016Z" fill="black"/>
<path d="M17.8885 51.1016H16.6201V52.37H17.8885V51.1016Z" fill="black"/>
<path d="M20.3514 51.1016H19.083V52.37H20.3514V51.1016Z" fill="black"/>
<path d="M25.2782 51.1016H24.0098V52.37H25.2782V51.1016Z" fill="black"/>
<path d="M26.5096 51.1016H25.2412V52.37H26.5096V51.1016Z" fill="black"/>
<path d="M27.7411 51.1016H26.4727V52.37H27.7411V51.1016Z" fill="black"/>
<path d="M30.204 51.1016H28.9355V52.37H30.204V51.1016Z" fill="black"/>
<path d="M31.4354 51.1016H30.167V52.37H31.4354V51.1016Z" fill="black"/>
<path d="M32.6669 51.1016H31.3984V52.37H32.6669V51.1016Z" fill="black"/>
<path d="M33.8983 51.1016H32.6299V52.37H33.8983V51.1016Z" fill="black"/>
<path d="M37.5927 51.1016H36.3242V52.37H37.5927V51.1016Z" fill="black"/>
<path d="M40.0555 51.1016H38.7871V52.37H40.0555V51.1016Z" fill="black"/>
<path d="M44.9813 51.1016H43.7129V52.37H44.9813V51.1016Z" fill="black"/>
<path d="M47.4442 51.1016H46.1758V52.37H47.4442V51.1016Z" fill="black"/>
<path d="M51.1385 51.1016H49.8701V52.37H51.1385V51.1016Z" fill="black"/>
<path d="M53.6024 51.1016H52.334V52.37H53.6024V51.1016Z" fill="black"/>
<path d="M54.8339 51.1016H53.5654V52.37H54.8339V51.1016Z" fill="black"/>
<path d="M58.5282 51.1016H57.2598V52.37H58.5282V51.1016Z" fill="black"/>
<path d="M62.2225 51.1016H60.9541V52.37H62.2225V51.1016Z" fill="black"/>
<path d="M63.454 51.1016H62.1855V52.37H63.454V51.1016Z" fill="black"/>
<path d="M64.6854 51.1016H63.417V52.37H64.6854V51.1016Z" fill="black"/>
<path d="M67.1483 51.1016H65.8799V52.37H67.1483V51.1016Z" fill="black"/>
<path d="M68.3798 51.1016H67.1113V52.37H68.3798V51.1016Z" fill="black"/>
<path d="M10.4999 52.334H9.23145V53.6024H10.4999V52.334Z" fill="black"/>
<path d="M11.7313 52.334H10.4629V53.6024H11.7313V52.334Z" fill="black"/>
<path d="M15.4257 52.334H14.1572V53.6024H15.4257V52.334Z" fill="black"/>
<path d="M16.6571 52.334H15.3887V53.6024H16.6571V52.334Z" fill="black"/>
<path d="M19.12 52.334H17.8516V53.6024H19.12V52.334Z" fill="black"/>
<path d="M21.5829 52.334H20.3145V53.6024H21.5829V52.334Z" fill="black"/>
<path d="M22.8143 52.334H21.5459V53.6024H22.8143V52.334Z" fill="black"/>
<path d="M26.5096 52.334H25.2412V53.6024H26.5096V52.334Z" fill="black"/>
<path d="M30.204 52.334H28.9355V53.6024H30.204V52.334Z" fill="black"/>
<path d="M31.4354 52.334H30.167V53.6024H31.4354V52.334Z" fill="black"/>
<path d="M37.5927 52.334H36.3242V53.6024H37.5927V52.334Z" fill="black"/>
<path d="M38.8241 52.334H37.5557V53.6024H38.8241V52.334Z" fill="black"/>
<path d="M40.0555 52.334H38.7871V53.6024H40.0555V52.334Z" fill="black"/>
<path d="M42.5184 52.334H41.25V53.6024H42.5184V52.334Z" fill="black"/>
<path d="M43.7499 52.334H42.4814V53.6024H43.7499V52.334Z" fill="black"/>
<path d="M44.9813 52.334H43.7129V53.6024H44.9813V52.334Z" fill="black"/>
<path d="M49.9071 52.334H48.6387V53.6024H49.9071V52.334Z" fill="black"/>
<path d="M51.1385 52.334H49.8701V53.6024H51.1385V52.334Z" fill="black"/>
<path d="M57.2968 52.334H56.0283V53.6024H57.2968V52.334Z" fill="black"/>
<path d="M59.7596 52.334H58.4912V53.6024H59.7596V52.334Z" fill="black"/>
<path d="M63.454 52.334H62.1855V53.6024H63.454V52.334Z" fill="black"/>
<path d="M64.6854 52.334H63.417V53.6024H64.6854V52.334Z" fill="black"/>
<path d="M65.9169 52.334H64.6484V53.6024H65.9169V52.334Z" fill="black"/>
<path d="M67.1483 52.334H65.8799V53.6024H67.1483V52.334Z" fill="black"/>
<path d="M68.3798 52.334H67.1113V53.6024H68.3798V52.334Z" fill="black"/>
<path d="M9.26843 53.5645H8V54.8329H9.26843V53.5645Z" fill="black"/>
<path d="M10.4999 53.5645H9.23145V54.8329H10.4999V53.5645Z" fill="black"/>
<path d="M12.9628 53.5645H11.6943V54.8329H12.9628V53.5645Z" fill="black"/>
<path d="M14.1942 53.5645H12.9258V54.8329H14.1942V53.5645Z" fill="black"/>
<path d="M15.4257 53.5645H14.1572V54.8329H15.4257V53.5645Z" fill="black"/>
<path d="M19.12 53.5645H17.8516V54.8329H19.12V53.5645Z" fill="black"/>
<path d="M20.3514 53.5645H19.083V54.8329H20.3514V53.5645Z" fill="black"/>
<path d="M26.5096 53.5645H25.2412V54.8329H26.5096V53.5645Z" fill="black"/>
<path d="M27.7411 53.5645H26.4727V54.8329H27.7411V53.5645Z" fill="black"/>
<path d="M28.9725 53.5645H27.7041V54.8329H28.9725V53.5645Z" fill="black"/>
<path d="M30.204 53.5645H28.9355V54.8329H30.204V53.5645Z" fill="black"/>
<path d="M31.4354 53.5645H30.167V54.8329H31.4354V53.5645Z" fill="black"/>
<path d="M35.1298 53.5645H33.8613V54.8329H35.1298V53.5645Z" fill="black"/>
<path d="M36.3612 53.5645H35.0928V54.8329H36.3612V53.5645Z" fill="black"/>
<path d="M40.0555 53.5645H38.7871V54.8329H40.0555V53.5645Z" fill="black"/>
<path d="M41.287 53.5645H40.0186V54.8329H41.287V53.5645Z" fill="black"/>
<path d="M42.5184 53.5645H41.25V54.8329H42.5184V53.5645Z" fill="black"/>
<path d="M44.9813 53.5645H43.7129V54.8329H44.9813V53.5645Z" fill="black"/>
<path d="M47.4442 53.5645H46.1758V54.8329H47.4442V53.5645Z" fill="black"/>
<path d="M51.1385 53.5645H49.8701V54.8329H51.1385V53.5645Z" fill="black"/>
<path d="M53.6024 53.5645H52.334V54.8329H53.6024V53.5645Z" fill="black"/>
<path d="M56.0653 53.5645H54.7969V54.8329H56.0653V53.5645Z" fill="black"/>
<path d="M58.5282 53.5645H57.2598V54.8329H58.5282V53.5645Z" fill="black"/>
<path d="M62.2225 53.5645H60.9541V54.8329H62.2225V53.5645Z" fill="black"/>
<path d="M64.6854 53.5645H63.417V54.8329H64.6854V53.5645Z" fill="black"/>
<path d="M67.1483 53.5645H65.8799V54.8329H67.1483V53.5645Z" fill="black"/>
<path d="M10.4999 54.7969H9.23145V56.0653H10.4999V54.7969Z" fill="black"/>
<path d="M15.4257 54.7969H14.1572V56.0653H15.4257V54.7969Z" fill="black"/>
<path d="M16.6571 54.7969H15.3887V56.0653H16.6571V54.7969Z" fill="black"/>
<path d="M17.8885 54.7969H16.6201V56.0653H17.8885V54.7969Z" fill="black"/>
<path d="M19.12 54.7969H17.8516V56.0653H19.12V54.7969Z" fill="black"/>
<path d="M22.8143 54.7969H21.5459V56.0653H22.8143V54.7969Z" fill="black"/>
<path d="M24.0468 54.7969H22.7783V56.0653H24.0468V54.7969Z" fill="black"/>
<path d="M27.7411 54.7969H26.4727V56.0653H27.7411V54.7969Z" fill="black"/>
<path d="M28.9725 54.7969H27.7041V56.0653H28.9725V54.7969Z" fill="black"/>
<path d="M31.4354 54.7969H30.167V56.0653H31.4354V54.7969Z" fill="black"/>
<path d="M33.8983 54.7969H32.6299V56.0653H33.8983V54.7969Z" fill="black"/>
<path d="M35.1298 54.7969H33.8613V56.0653H35.1298V54.7969Z" fill="black"/>
<path d="M37.5927 54.7969H36.3242V56.0653H37.5927V54.7969Z" fill="black"/>
<path d="M40.0555 54.7969H38.7871V56.0653H40.0555V54.7969Z" fill="black"/>
<path d="M43.7499 54.7969H42.4814V56.0653H43.7499V54.7969Z" fill="black"/>
<path d="M46.2128 54.7969H44.9443V56.0653H46.2128V54.7969Z" fill="black"/>
<path d="M49.9071 54.7969H48.6387V56.0653H49.9071V54.7969Z" fill="black"/>
<path d="M52.37 54.7969H51.1016V56.0653H52.37V54.7969Z" fill="black"/>
<path d="M54.8339 54.7969H53.5654V56.0653H54.8339V54.7969Z" fill="black"/>
<path d="M56.0653 54.7969H54.7969V56.0653H56.0653V54.7969Z" fill="black"/>
<path d="M58.5282 54.7969H57.2598V56.0653H58.5282V54.7969Z" fill="black"/>
<path d="M59.7596 54.7969H58.4912V56.0653H59.7596V54.7969Z" fill="black"/>
<path d="M60.9911 54.7969H59.7227V56.0653H60.9911V54.7969Z" fill="black"/>
<path d="M63.454 54.7969H62.1855V56.0653H63.454V54.7969Z" fill="black"/>
<path d="M67.1483 54.7969H65.8799V56.0653H67.1483V54.7969Z" fill="black"/>
<path d="M68.3798 54.7969H67.1113V56.0653H68.3798V54.7969Z" fill="black"/>
<path d="M10.4999 56.0273H9.23145V57.2958H10.4999V56.0273Z" fill="black"/>
<path d="M11.7313 56.0273H10.4629V57.2958H11.7313V56.0273Z" fill="black"/>
<path d="M12.9628 56.0273H11.6943V57.2958H12.9628V56.0273Z" fill="black"/>
<path d="M19.12 56.0273H17.8516V57.2958H19.12V56.0273Z" fill="black"/>
<path d="M22.8143 56.0273H21.5459V57.2958H22.8143V56.0273Z" fill="black"/>
<path d="M24.0468 56.0273H22.7783V57.2958H24.0468V56.0273Z" fill="black"/>
<path d="M27.7411 56.0273H26.4727V57.2958H27.7411V56.0273Z" fill="black"/>
<path d="M28.9725 56.0273H27.7041V57.2958H28.9725V56.0273Z" fill="black"/>
<path d="M32.6669 56.0273H31.3984V57.2958H32.6669V56.0273Z" fill="black"/>
<path d="M33.8983 56.0273H32.6299V57.2958H33.8983V56.0273Z" fill="black"/>
<path d="M35.1298 56.0273H33.8613V57.2958H35.1298V56.0273Z" fill="black"/>
<path d="M38.8241 56.0273H37.5557V57.2958H38.8241V56.0273Z" fill="black"/>
<path d="M40.0555 56.0273H38.7871V57.2958H40.0555V56.0273Z" fill="black"/>
<path d="M42.5184 56.0273H41.25V57.2958H42.5184V56.0273Z" fill="black"/>
<path d="M43.7499 56.0273H42.4814V57.2958H43.7499V56.0273Z" fill="black"/>
<path d="M44.9813 56.0273H43.7129V57.2958H44.9813V56.0273Z" fill="black"/>
<path d="M46.2128 56.0273H44.9443V57.2958H46.2128V56.0273Z" fill="black"/>
<path d="M48.6757 56.0273H47.4072V57.2958H48.6757V56.0273Z" fill="black"/>
<path d="M49.9071 56.0273H48.6387V57.2958H49.9071V56.0273Z" fill="black"/>
<path d="M62.2225 56.0273H60.9541V57.2958H62.2225V56.0273Z" fill="black"/>
<path d="M63.454 56.0273H62.1855V57.2958H63.454V56.0273Z" fill="black"/>
<path d="M64.6854 56.0273H63.417V57.2958H64.6854V56.0273Z" fill="black"/>
<path d="M67.1483 56.0273H65.8799V57.2958H67.1483V56.0273Z" fill="black"/>
<path d="M68.3798 56.0273H67.1113V57.2958H68.3798V56.0273Z" fill="black"/>
<path d="M9.26843 57.2598H8V58.5282H9.26843V57.2598Z" fill="black"/>
<path d="M10.4999 57.2598H9.23145V58.5282H10.4999V57.2598Z" fill="black"/>
<path d="M11.7313 57.2598H10.4629V58.5282H11.7313V57.2598Z" fill="black"/>
<path d="M16.6571 57.2598H15.3887V58.5282H16.6571V57.2598Z" fill="black"/>
<path d="M25.2782 57.2598H24.0098V58.5282H25.2782V57.2598Z" fill="black"/>
<path d="M26.5096 57.2598H25.2412V58.5282H26.5096V57.2598Z" fill="black"/>
<path d="M28.9725 57.2598H27.7041V58.5282H28.9725V57.2598Z" fill="black"/>
<path d="M33.8983 57.2598H32.6299V58.5282H33.8983V57.2598Z" fill="black"/>
<path d="M36.3612 57.2598H35.0928V58.5282H36.3612V57.2598Z" fill="black"/>
<path d="M37.5927 57.2598H36.3242V58.5282H37.5927V57.2598Z" fill="black"/>
<path d="M38.8241 57.2598H37.5557V58.5282H38.8241V57.2598Z" fill="black"/>
<path d="M40.0555 57.2598H38.7871V58.5282H40.0555V57.2598Z" fill="black"/>
<path d="M41.287 57.2598H40.0186V58.5282H41.287V57.2598Z" fill="black"/>
<path d="M43.7499 57.2598H42.4814V58.5282H43.7499V57.2598Z" fill="black"/>
<path d="M44.9813 57.2598H43.7129V58.5282H44.9813V57.2598Z" fill="black"/>
<path d="M46.2128 57.2598H44.9443V58.5282H46.2128V57.2598Z" fill="black"/>
<path d="M47.4442 57.2598H46.1758V58.5282H47.4442V57.2598Z" fill="black"/>
<path d="M52.37 57.2598H51.1016V58.5282H52.37V57.2598Z" fill="black"/>
<path d="M53.6024 57.2598H52.334V58.5282H53.6024V57.2598Z" fill="black"/>
<path d="M54.8339 57.2598H53.5654V58.5282H54.8339V57.2598Z" fill="black"/>
<path d="M57.2968 57.2598H56.0283V58.5282H57.2968V57.2598Z" fill="black"/>
<path d="M58.5282 57.2598H57.2598V58.5282H58.5282V57.2598Z" fill="black"/>
<path d="M59.7596 57.2598H58.4912V58.5282H59.7596V57.2598Z" fill="black"/>
<path d="M60.9911 57.2598H59.7227V58.5282H60.9911V57.2598Z" fill="black"/>
<path d="M62.2225 57.2598H60.9541V58.5282H62.2225V57.2598Z" fill="black"/>
<path d="M63.454 57.2598H62.1855V58.5282H63.454V57.2598Z" fill="black"/>
<path d="M68.3798 57.2598H67.1113V58.5282H68.3798V57.2598Z" fill="black"/>
<path d="M19.12 58.4902H17.8516V59.7587H19.12V58.4902Z" fill="black"/>
<path d="M22.8143 58.4902H21.5459V59.7587H22.8143V58.4902Z" fill="black"/>
<path d="M25.2782 58.4902H24.0098V59.7587H25.2782V58.4902Z" fill="black"/>
<path d="M27.7411 58.4902H26.4727V59.7587H27.7411V58.4902Z" fill="black"/>
<path d="M30.204 58.4902H28.9355V59.7587H30.204V58.4902Z" fill="black"/>
<path d="M31.4354 58.4902H30.167V59.7587H31.4354V58.4902Z" fill="black"/>
<path d="M33.8983 58.4902H32.6299V59.7587H33.8983V58.4902Z" fill="black"/>
<path d="M36.3612 58.4902H35.0928V59.7587H36.3612V58.4902Z" fill="black"/>
<path d="M41.287 58.4902H40.0186V59.7587H41.287V58.4902Z" fill="black"/>
<path d="M48.6757 58.4902H47.4072V59.7587H48.6757V58.4902Z" fill="black"/>
<path d="M49.9071 58.4902H48.6387V59.7587H49.9071V58.4902Z" fill="black"/>
<path d="M52.37 58.4902H51.1016V59.7587H52.37V58.4902Z" fill="black"/>
<path d="M58.5282 58.4902H57.2598V59.7587H58.5282V58.4902Z" fill="black"/>
<path d="M63.454 58.4902H62.1855V59.7587H63.454V58.4902Z" fill="black"/>
<path d="M21.5829 59.7227H20.3145V60.9911H21.5829V59.7227Z" fill="black"/>
<path d="M22.8143 59.7227H21.5459V60.9911H22.8143V59.7227Z" fill="black"/>
<path d="M24.0468 59.7227H22.7783V60.9911H24.0468V59.7227Z" fill="black"/>
<path d="M25.2782 59.7227H24.0098V60.9911H25.2782V59.7227Z" fill="black"/>
<path d="M30.204 59.7227H28.9355V60.9911H30.204V59.7227Z" fill="black"/>
<path d="M31.4354 59.7227H30.167V60.9911H31.4354V59.7227Z" fill="black"/>
<path d="M33.8983 59.7227H32.6299V60.9911H33.8983V59.7227Z" fill="black"/>
<path d="M36.3612 59.7227H35.0928V60.9911H36.3612V59.7227Z" fill="black"/>
<path d="M38.8241 59.7227H37.5557V60.9911H38.8241V59.7227Z" fill="black"/>
<path d="M41.287 59.7227H40.0186V60.9911H41.287V59.7227Z" fill="black"/>
<path d="M46.2128 59.7227H44.9443V60.9911H46.2128V59.7227Z" fill="black"/>
<path d="M47.4442 59.7227H46.1758V60.9911H47.4442V59.7227Z" fill="black"/>
<path d="M48.6757 59.7227H47.4072V60.9911H48.6757V59.7227Z" fill="black"/>
<path d="M52.37 59.7227H51.1016V60.9911H52.37V59.7227Z" fill="black"/>
<path d="M54.8339 59.7227H53.5654V60.9911H54.8339V59.7227Z" fill="black"/>
<path d="M58.5282 59.7227H57.2598V60.9911H58.5282V59.7227Z" fill="black"/>
<path d="M60.9911 59.7227H59.7227V60.9911H60.9911V59.7227Z" fill="black"/>
<path d="M63.454 59.7227H62.1855V60.9911H63.454V59.7227Z" fill="black"/>
<path d="M64.6854 59.7227H63.417V60.9911H64.6854V59.7227Z" fill="black"/>
<path d="M67.1483 59.7227H65.8799V60.9911H67.1483V59.7227Z" fill="black"/>
<path d="M68.3798 59.7227H67.1113V60.9911H68.3798V59.7227Z" fill="black"/>
<path d="M21.5829 60.9531H20.3145V62.2216H21.5829V60.9531Z" fill="black"/>
<path d="M22.8143 60.9531H21.5459V62.2216H22.8143V60.9531Z" fill="black"/>
<path d="M24.0468 60.9531H22.7783V62.2216H24.0468V60.9531Z" fill="black"/>
<path d="M25.2782 60.9531H24.0098V62.2216H25.2782V60.9531Z" fill="black"/>
<path d="M27.7411 60.9531H26.4727V62.2216H27.7411V60.9531Z" fill="black"/>
<path d="M30.204 60.9531H28.9355V62.2216H30.204V60.9531Z" fill="black"/>
<path d="M33.8983 60.9531H32.6299V62.2216H33.8983V60.9531Z" fill="black"/>
<path d="M36.3612 60.9531H35.0928V62.2216H36.3612V60.9531Z" fill="black"/>
<path d="M41.287 60.9531H40.0186V62.2216H41.287V60.9531Z" fill="black"/>
<path d="M42.5184 60.9531H41.25V62.2216H42.5184V60.9531Z" fill="black"/>
<path d="M43.7499 60.9531H42.4814V62.2216H43.7499V60.9531Z" fill="black"/>
<path d="M48.6757 60.9531H47.4072V62.2216H48.6757V60.9531Z" fill="black"/>
<path d="M49.9071 60.9531H48.6387V62.2216H49.9071V60.9531Z" fill="black"/>
<path d="M54.8339 60.9531H53.5654V62.2216H54.8339V60.9531Z" fill="black"/>
<path d="M56.0653 60.9531H54.7969V62.2216H56.0653V60.9531Z" fill="black"/>
<path d="M57.2968 60.9531H56.0283V62.2216H57.2968V60.9531Z" fill="black"/>
<path d="M58.5282 60.9531H57.2598V62.2216H58.5282V60.9531Z" fill="black"/>
<path d="M63.454 60.9531H62.1855V62.2216H63.454V60.9531Z" fill="black"/>
<path d="M19.12 62.1855H17.8516V63.454H19.12V62.1855Z" fill="black"/>
<path d="M24.0468 62.1855H22.7783V63.454H24.0468V62.1855Z" fill="black"/>
<path d="M25.2782 62.1855H24.0098V63.454H25.2782V62.1855Z" fill="black"/>
<path d="M26.5096 62.1855H25.2412V63.454H26.5096V62.1855Z" fill="black"/>
<path d="M27.7411 62.1855H26.4727V63.454H27.7411V62.1855Z" fill="black"/>
<path d="M35.1298 62.1855H33.8613V63.454H35.1298V62.1855Z" fill="black"/>
<path d="M36.3612 62.1855H35.0928V63.454H36.3612V62.1855Z" fill="black"/>
<path d="M37.5927 62.1855H36.3242V63.454H37.5927V62.1855Z" fill="black"/>
<path d="M38.8241 62.1855H37.5557V63.454H38.8241V62.1855Z" fill="black"/>
<path d="M40.0555 62.1855H38.7871V63.454H40.0555V62.1855Z" fill="black"/>
<path d="M41.287 62.1855H40.0186V63.454H41.287V62.1855Z" fill="black"/>
<path d="M43.7499 62.1855H42.4814V63.454H43.7499V62.1855Z" fill="black"/>
<path d="M47.4442 62.1855H46.1758V63.454H47.4442V62.1855Z" fill="black"/>
<path d="M51.1385 62.1855H49.8701V63.454H51.1385V62.1855Z" fill="black"/>
<path d="M52.37 62.1855H51.1016V63.454H52.37V62.1855Z" fill="black"/>
<path d="M53.6024 62.1855H52.334V63.454H53.6024V62.1855Z" fill="black"/>
<path d="M54.8339 62.1855H53.5654V63.454H54.8339V62.1855Z" fill="black"/>
<path d="M56.0653 62.1855H54.7969V63.454H56.0653V62.1855Z" fill="black"/>
<path d="M57.2968 62.1855H56.0283V63.454H57.2968V62.1855Z" fill="black"/>
<path d="M58.5282 62.1855H57.2598V63.454H58.5282V62.1855Z" fill="black"/>
<path d="M59.7596 62.1855H58.4912V63.454H59.7596V62.1855Z" fill="black"/>
<path d="M60.9911 62.1855H59.7227V63.454H60.9911V62.1855Z" fill="black"/>
<path d="M62.2225 62.1855H60.9541V63.454H62.2225V62.1855Z" fill="black"/>
<path d="M63.454 62.1855H62.1855V63.454H63.454V62.1855Z" fill="black"/>
<path d="M65.9169 62.1855H64.6484V63.454H65.9169V62.1855Z" fill="black"/>
<path d="M67.1483 62.1855H65.8799V63.454H67.1483V62.1855Z" fill="black"/>
<path d="M19.12 63.416H17.8516V64.6844H19.12V63.416Z" fill="black"/>
<path d="M20.3514 63.416H19.083V64.6844H20.3514V63.416Z" fill="black"/>
<path d="M21.5829 63.416H20.3145V64.6844H21.5829V63.416Z" fill="black"/>
<path d="M25.2782 63.416H24.0098V64.6844H25.2782V63.416Z" fill="black"/>
<path d="M27.7411 63.416H26.4727V64.6844H27.7411V63.416Z" fill="black"/>
<path d="M28.9725 63.416H27.7041V64.6844H28.9725V63.416Z" fill="black"/>
<path d="M30.204 63.416H28.9355V64.6844H30.204V63.416Z" fill="black"/>
<path d="M36.3612 63.416H35.0928V64.6844H36.3612V63.416Z" fill="black"/>
<path d="M38.8241 63.416H37.5557V64.6844H38.8241V63.416Z" fill="black"/>
<path d="M41.287 63.416H40.0186V64.6844H41.287V63.416Z" fill="black"/>
<path d="M42.5184 63.416H41.25V64.6844H42.5184V63.416Z" fill="black"/>
<path d="M49.9071 63.416H48.6387V64.6844H49.9071V63.416Z" fill="black"/>
<path d="M53.6024 63.416H52.334V64.6844H53.6024V63.416Z" fill="black"/>
<path d="M54.8339 63.416H53.5654V64.6844H54.8339V63.416Z" fill="black"/>
<path d="M57.2968 63.416H56.0283V64.6844H57.2968V63.416Z" fill="black"/>
<path d="M59.7596 63.416H58.4912V64.6844H59.7596V63.416Z" fill="black"/>
<path d="M60.9911 63.416H59.7227V64.6844H60.9911V63.416Z" fill="black"/>
<path d="M63.454 63.416H62.1855V64.6844H63.454V63.416Z" fill="black"/>
<path d="M64.6854 63.416H63.417V64.6844H64.6854V63.416Z" fill="black"/>
<path d="M67.1483 63.416H65.8799V64.6844H67.1483V63.416Z" fill="black"/>
<path d="M19.12 64.6484H17.8516V65.9169H19.12V64.6484Z" fill="black"/>
<path d="M21.5829 64.6484H20.3145V65.9169H21.5829V64.6484Z" fill="black"/>
<path d="M22.8143 64.6484H21.5459V65.9169H22.8143V64.6484Z" fill="black"/>
<path d="M24.0468 64.6484H22.7783V65.9169H24.0468V64.6484Z" fill="black"/>
<path d="M26.5096 64.6484H25.2412V65.9169H26.5096V64.6484Z" fill="black"/>
<path d="M30.204 64.6484H28.9355V65.9169H30.204V64.6484Z" fill="black"/>
<path d="M32.6669 64.6484H31.3984V65.9169H32.6669V64.6484Z" fill="black"/>
<path d="M33.8983 64.6484H32.6299V65.9169H33.8983V64.6484Z" fill="black"/>
<path d="M35.1298 64.6484H33.8613V65.9169H35.1298V64.6484Z" fill="black"/>
<path d="M38.8241 64.6484H37.5557V65.9169H38.8241V64.6484Z" fill="black"/>
<path d="M40.0555 64.6484H38.7871V65.9169H40.0555V64.6484Z" fill="black"/>
<path d="M41.287 64.6484H40.0186V65.9169H41.287V64.6484Z" fill="black"/>
<path d="M42.5184 64.6484H41.25V65.9169H42.5184V64.6484Z" fill="black"/>
<path d="M44.9813 64.6484H43.7129V65.9169H44.9813V64.6484Z" fill="black"/>
<path d="M46.2128 64.6484H44.9443V65.9169H46.2128V64.6484Z" fill="black"/>
<path d="M47.4442 64.6484H46.1758V65.9169H47.4442V64.6484Z" fill="black"/>
<path d="M48.6757 64.6484H47.4072V65.9169H48.6757V64.6484Z" fill="black"/>
<path d="M49.9071 64.6484H48.6387V65.9169H49.9071V64.6484Z" fill="black"/>
<path d="M51.1385 64.6484H49.8701V65.9169H51.1385V64.6484Z" fill="black"/>
<path d="M52.37 64.6484H51.1016V65.9169H52.37V64.6484Z" fill="black"/>
<path d="M56.0653 64.6484H54.7969V65.9169H56.0653V64.6484Z" fill="black"/>
<path d="M58.5282 64.6484H57.2598V65.9169H58.5282V64.6484Z" fill="black"/>
<path d="M60.9911 64.6484H59.7227V65.9169H60.9911V64.6484Z" fill="black"/>
<path d="M62.2225 64.6484H60.9541V65.9169H62.2225V64.6484Z" fill="black"/>
<path d="M64.6854 64.6484H63.417V65.9169H64.6854V64.6484Z" fill="black"/>
<path d="M68.3798 64.6484H67.1113V65.9169H68.3798V64.6484Z" fill="black"/>
<path d="M21.5829 65.8789H20.3145V67.1473H21.5829V65.8789Z" fill="black"/>
<path d="M22.8143 65.8789H21.5459V67.1473H22.8143V65.8789Z" fill="black"/>
<path d="M25.2782 65.8789H24.0098V67.1473H25.2782V65.8789Z" fill="black"/>
<path d="M26.5096 65.8789H25.2412V67.1473H26.5096V65.8789Z" fill="black"/>
<path d="M30.204 65.8789H28.9355V67.1473H30.204V65.8789Z" fill="black"/>
<path d="M31.4354 65.8789H30.167V67.1473H31.4354V65.8789Z" fill="black"/>
<path d="M32.6669 65.8789H31.3984V67.1473H32.6669V65.8789Z" fill="black"/>
<path d="M36.3612 65.8789H35.0928V67.1473H36.3612V65.8789Z" fill="black"/>
<path d="M37.5927 65.8789H36.3242V67.1473H37.5927V65.8789Z" fill="black"/>
<path d="M38.8241 65.8789H37.5557V67.1473H38.8241V65.8789Z" fill="black"/>
<path d="M40.0555 65.8789H38.7871V67.1473H40.0555V65.8789Z" fill="black"/>
<path d="M41.287 65.8789H40.0186V67.1473H41.287V65.8789Z" fill="black"/>
<path d="M42.5184 65.8789H41.25V67.1473H42.5184V65.8789Z" fill="black"/>
<path d="M43.7499 65.8789H42.4814V67.1473H43.7499V65.8789Z" fill="black"/>
<path d="M44.9813 65.8789H43.7129V67.1473H44.9813V65.8789Z" fill="black"/>
<path d="M46.2128 65.8789H44.9443V67.1473H46.2128V65.8789Z" fill="black"/>
<path d="M48.6757 65.8789H47.4072V67.1473H48.6757V65.8789Z" fill="black"/>
<path d="M51.1385 65.8789H49.8701V67.1473H51.1385V65.8789Z" fill="black"/>
<path d="M54.8339 65.8789H53.5654V67.1473H54.8339V65.8789Z" fill="black"/>
<path d="M56.0653 65.8789H54.7969V67.1473H56.0653V65.8789Z" fill="black"/>
<path d="M57.2968 65.8789H56.0283V67.1473H57.2968V65.8789Z" fill="black"/>
<path d="M58.5282 65.8789H57.2598V67.1473H58.5282V65.8789Z" fill="black"/>
<path d="M60.9911 65.8789H59.7227V67.1473H60.9911V65.8789Z" fill="black"/>
<path d="M62.2225 65.8789H60.9541V67.1473H62.2225V65.8789Z" fill="black"/>
<path d="M63.454 65.8789H62.1855V67.1473H63.454V65.8789Z" fill="black"/>
<path d="M68.3798 65.8789H67.1113V67.1473H68.3798V65.8789Z" fill="black"/>
<path d="M24.0468 67.1113H22.7783V68.3798H24.0468V67.1113Z" fill="black"/>
<path d="M25.2782 67.1113H24.0098V68.3798H25.2782V67.1113Z" fill="black"/>
<path d="M26.5096 67.1113H25.2412V68.3798H26.5096V67.1113Z" fill="black"/>
<path d="M27.7411 67.1113H26.4727V68.3798H27.7411V67.1113Z" fill="black"/>
<path d="M30.204 67.1113H28.9355V68.3798H30.204V67.1113Z" fill="black"/>
<path d="M31.4354 67.1113H30.167V68.3798H31.4354V67.1113Z" fill="black"/>
<path d="M33.8983 67.1113H32.6299V68.3798H33.8983V67.1113Z" fill="black"/>
<path d="M35.1298 67.1113H33.8613V68.3798H35.1298V67.1113Z" fill="black"/>
<path d="M37.5927 67.1113H36.3242V68.3798H37.5927V67.1113Z" fill="black"/>
<path d="M41.287 67.1113H40.0186V68.3798H41.287V67.1113Z" fill="black"/>
<path d="M43.7499 67.1113H42.4814V68.3798H43.7499V67.1113Z" fill="black"/>
<path d="M44.9813 67.1113H43.7129V68.3798H44.9813V67.1113Z" fill="black"/>
<path d="M46.2128 67.1113H44.9443V68.3798H46.2128V67.1113Z" fill="black"/>
<path d="M47.4442 67.1113H46.1758V68.3798H47.4442V67.1113Z" fill="black"/>
<path d="M51.1385 67.1113H49.8701V68.3798H51.1385V67.1113Z" fill="black"/>
<path d="M53.6024 67.1113H52.334V68.3798H53.6024V67.1113Z" fill="black"/>
<path d="M54.8339 67.1113H53.5654V68.3798H54.8339V67.1113Z" fill="black"/>
<path d="M58.5282 67.1113H57.2598V68.3798H58.5282V67.1113Z" fill="black"/>
<path d="M59.7596 67.1113H58.4912V68.3798H59.7596V67.1113Z" fill="black"/>
<path d="M60.9911 67.1113H59.7227V68.3798H60.9911V67.1113Z" fill="black"/>
<path d="M62.2225 67.1113H60.9541V68.3798H62.2225V67.1113Z" fill="black"/>
<path d="M63.454 67.1113H62.1855V68.3798H63.454V67.1113Z" fill="black"/>
<path d="M64.6854 67.1113H63.417V68.3798H64.6854V67.1113Z" fill="black"/>
<path d="M65.9169 67.1113H64.6484V68.3798H65.9169V67.1113Z" fill="black"/>
<path d="M67.1483 67.1113H65.8799V68.3798H67.1483V67.1113Z" fill="black"/>
<path d="M68.3798 67.1113H67.1113V68.3798H68.3798V67.1113Z" fill="black"/>
<path d="M8 8V16.6204H16.6204V8H8ZM15.3889 15.3889H9.23149V9.23149H15.3889V15.3889Z" fill="black"/>
<path d="M59.7227 8V16.6204H68.3431V8H59.7227ZM67.1116 15.3889H60.9541V9.23149H67.1116V15.3889Z" fill="black"/>
<path d="M8 59.7227V68.3431H16.6204V59.7227H8ZM15.3889 67.1116H9.23149V60.9541H15.3889V67.1116Z" fill="black"/>
<path d="M14.1574 10.4629H10.4629V14.1574H14.1574V10.4629Z" fill="black"/>
<path d="M65.88 10.4629H62.1855V14.1574H65.88V10.4629Z" fill="black"/>
<path d="M14.1574 62.1855H10.4629V65.88H14.1574V62.1855Z" fill="black"/>
<path d="M12.5735 83.4371H11.2894V78.9042H12.5735V83.4371ZM12.6941 77.5943C12.6941 77.8298 12.618 78.0151 12.4657 78.1501C12.3135 78.2851 12.134 78.3527 11.9271 78.3527C11.7203 78.3527 11.5408 78.2851 11.3885 78.1501C11.2363 78.0151 11.1602 77.8298 11.1602 77.5943C11.1602 77.3587 11.2363 77.1735 11.3885 77.0385C11.5408 76.9034 11.7203 76.8359 11.9271 76.8359C12.134 76.8359 12.3135 76.9034 12.4657 77.0385C12.618 77.1735 12.6941 77.3587 12.6941 77.5943ZM14.995 80.4468C14.995 80.7398 15.0309 81.004 15.1028 81.2396C15.1746 81.4751 15.278 81.6777 15.413 81.8471C15.548 82.0166 15.7132 82.1473 15.9085 82.2392C16.1038 82.3312 16.3279 82.3771 16.5807 82.3771C16.8277 82.3771 17.0504 82.3312 17.2486 82.2392C17.4468 82.1473 17.6134 82.0166 17.7484 81.8471C17.8834 81.6777 17.9868 81.4751 18.0586 81.2396C18.1304 81.004 18.1663 80.7398 18.1663 80.4468C18.1663 80.1538 18.1304 79.888 18.0586 79.6496C17.9868 79.4112 17.8834 79.2072 17.7484 79.0378C17.6134 78.8683 17.4468 78.7376 17.2486 78.6457C17.0504 78.5537 16.8277 78.5078 16.5807 78.5078C16.3279 78.5078 16.1038 78.5552 15.9085 78.65C15.7132 78.7448 15.548 78.8769 15.413 79.0464C15.278 79.2159 15.1746 79.4198 15.1028 79.6582C15.0309 79.8967 14.995 80.1595 14.995 80.4468ZM19.5538 80.4468C19.5538 80.9581 19.4777 81.4076 19.3254 81.7954C19.1732 82.1832 18.9649 82.5078 18.7006 82.7692C18.4364 83.0306 18.1218 83.2274 17.757 83.3595C17.3922 83.4917 17.0001 83.5577 16.5807 83.5577C16.1728 83.5577 15.7879 83.4917 15.4259 83.3595C15.064 83.2274 14.748 83.0306 14.478 82.7692C14.208 82.5078 13.9954 82.1832 13.8403 81.7954C13.6851 81.4076 13.6076 80.9581 13.6076 80.4468C13.6076 79.9354 13.688 79.4859 13.8489 79.0981C14.0097 78.7103 14.2266 78.3843 14.4995 78.12C14.7724 77.8557 15.0884 77.6575 15.4475 77.5254C15.8065 77.3932 16.1843 77.3271 16.5807 77.3271C16.9886 77.3271 17.3735 77.3932 17.7355 77.5254C18.0974 77.6575 18.4134 77.8557 18.6834 78.12C18.9534 78.3843 19.166 78.7103 19.3211 79.0981C19.4762 79.4859 19.5538 79.9354 19.5538 80.4468ZM22.3028 82.4116C22.4924 82.4116 22.649 82.3958 22.7725 82.3642C22.896 82.3326 22.9951 82.2895 23.0698 82.2349C23.1445 82.1803 23.1962 82.1157 23.2249 82.041C23.2537 81.9663 23.268 81.883 23.268 81.7911C23.268 81.5958 23.1761 81.4335 22.9923 81.3042C22.8084 81.175 22.4924 81.0356 22.0443 80.8863C21.849 80.8173 21.6536 80.7383 21.4583 80.6493C21.263 80.5602 21.0878 80.4482 20.9326 80.3132C20.7775 80.1782 20.6511 80.0144 20.5535 79.822C20.4558 79.6295 20.407 79.3954 20.407 79.1196C20.407 78.8439 20.4587 78.5954 20.5621 78.3742C20.6655 78.153 20.812 77.9649 21.0016 77.8097C21.1912 77.6546 21.421 77.5354 21.691 77.4521C21.961 77.3688 22.2655 77.3271 22.6045 77.3271C23.0066 77.3271 23.3542 77.3702 23.6472 77.4564C23.9402 77.5426 24.1815 77.6374 24.3711 77.7408L23.9833 78.8008C23.8167 78.7146 23.6314 78.6385 23.4275 78.5724C23.2235 78.5063 22.9779 78.4733 22.6906 78.4733C22.3689 78.4733 22.1377 78.5178 21.9969 78.6069C21.8562 78.6959 21.7858 78.8324 21.7858 79.0162C21.7858 79.1254 21.8116 79.2173 21.8633 79.292C21.915 79.3667 21.9883 79.4342 22.0831 79.4945C22.1779 79.5548 22.287 79.6094 22.4106 79.6582C22.5341 79.7071 22.6705 79.7573 22.8199 79.809C23.1301 79.9239 23.4002 80.0374 23.63 80.1494C23.8598 80.2615 24.0508 80.3922 24.2031 80.5415C24.3553 80.6909 24.4688 80.8661 24.5434 81.0672C24.6181 81.2683 24.6555 81.5125 24.6555 81.7997C24.6555 82.357 24.4601 82.7893 24.0695 83.0967C23.6788 83.4041 23.0899 83.5577 22.3028 83.5577C22.0386 83.5577 21.8001 83.5419 21.5876 83.5103C21.375 83.4787 21.1869 83.44 21.0231 83.394C20.8594 83.348 20.7186 83.2992 20.6009 83.2475C20.4831 83.1958 20.384 83.147 20.3035 83.101L20.6827 82.0324C20.8608 82.1301 21.0806 82.2177 21.342 82.2953C21.6034 82.3728 21.9237 82.4116 22.3028 82.4116ZM31.7565 83.4371C31.6933 83.2303 31.6229 83.0177 31.5453 82.7994C31.4678 82.5811 31.3916 82.3628 31.317 82.1444H28.9902C28.9155 82.3628 28.8394 82.5811 28.7618 82.7994C28.6843 83.0177 28.6139 83.2303 28.5507 83.4371H27.1546C27.3787 82.7936 27.5912 82.199 27.7923 81.6532C27.9934 81.1074 28.1902 80.5933 28.3826 80.1107C28.5751 79.6281 28.7647 79.1699 28.9514 78.7361C29.1381 78.3024 29.332 77.8787 29.5331 77.465H30.8171C31.0125 77.8787 31.2049 78.3024 31.3945 78.7361C31.5841 79.1699 31.7751 79.6281 31.9676 80.1107C32.1601 80.5933 32.3568 81.1074 32.5579 81.6532C32.759 82.199 32.9716 82.7936 33.1956 83.4371H31.7565ZM30.145 78.818C30.1162 78.9042 30.0731 79.022 30.0157 79.1713C29.9582 79.3207 29.8922 79.4931 29.8175 79.6884C29.7428 79.8837 29.6609 80.0992 29.5719 80.3347C29.4828 80.5703 29.3923 80.8173 29.3004 81.0758H30.9981C30.9062 80.8173 30.8171 80.5703 30.731 80.3347C30.6448 80.0992 30.5629 79.8837 30.4854 79.6884C30.4078 79.4931 30.3403 79.3207 30.2828 79.1713C30.2254 79.022 30.1794 78.9042 30.145 78.818ZM36.7892 81.2051C36.7892 80.8087 36.7002 80.4913 36.5221 80.2529C36.344 80.0144 36.0797 79.8952 35.7292 79.8952C35.6143 79.8952 35.508 79.8995 35.4104 79.9081C35.3127 79.9168 35.2323 79.9268 35.1691 79.9383V82.2565C35.2495 82.3082 35.3544 82.3513 35.4836 82.3857C35.6129 82.4202 35.7436 82.4374 35.8757 82.4374C36.4847 82.4374 36.7892 82.0267 36.7892 81.2051ZM38.0991 81.1706C38.0991 81.5211 38.056 81.84 37.9698 82.1272C37.8837 82.4145 37.7573 82.6615 37.5907 82.8683C37.424 83.0752 37.2172 83.236 36.9702 83.3509C36.7231 83.4658 36.4388 83.5233 36.117 83.5233C35.9389 83.5233 35.7723 83.506 35.6172 83.4716C35.4621 83.4371 35.3127 83.3883 35.1691 83.3251V85.0314H33.885V79.0593C33.9999 79.0248 34.1321 78.9918 34.2815 78.9602C34.4308 78.9286 34.5874 78.9013 34.7511 78.8783C34.9149 78.8554 35.0815 78.8367 35.2509 78.8223C35.4204 78.808 35.5827 78.8008 35.7378 78.8008C36.1113 78.8008 36.4445 78.8568 36.7375 78.9688C37.0305 79.0808 37.2775 79.2388 37.4786 79.4428C37.6797 79.6467 37.8334 79.8952 37.9397 80.1882C38.046 80.4812 38.0991 80.8087 38.0991 81.1706ZM41.9943 81.2051C41.9943 80.8087 41.9052 80.4913 41.7271 80.2529C41.5491 80.0144 41.2848 79.8952 40.9343 79.8952C40.8194 79.8952 40.7131 79.8995 40.6155 79.9081C40.5178 79.9168 40.4374 79.9268 40.3742 79.9383V82.2565C40.4546 82.3082 40.5594 82.3513 40.6887 82.3857C40.818 82.4202 40.9487 82.4374 41.0808 82.4374C41.6898 82.4374 41.9943 82.0267 41.9943 81.2051ZM43.3042 81.1706C43.3042 81.5211 43.2611 81.84 43.1749 82.1272C43.0887 82.4145 42.9624 82.6615 42.7957 82.8683C42.6291 83.0752 42.4223 83.236 42.1753 83.3509C41.9282 83.4658 41.6438 83.5233 41.3221 83.5233C41.144 83.5233 40.9774 83.506 40.8223 83.4716C40.6672 83.4371 40.5178 83.3883 40.3742 83.3251V85.0314H39.0901V79.0593C39.205 79.0248 39.3372 78.9918 39.4865 78.9602C39.6359 78.9286 39.7925 78.9013 39.9562 78.8783C40.1199 78.8554 40.2866 78.8367 40.456 78.8223C40.6255 78.808 40.7878 78.8008 40.9429 78.8008C41.3164 78.8008 41.6496 78.8568 41.9426 78.9688C42.2356 79.0808 42.4826 79.2388 42.6837 79.4428C42.8848 79.6467 43.0385 79.8952 43.1448 80.1882C43.251 80.4812 43.3042 80.8087 43.3042 81.1706ZM45.5965 82.515C45.832 82.515 45.9987 82.492 46.0963 82.4461C46.194 82.4001 46.2428 82.3111 46.2428 82.1789C46.2428 82.0755 46.1796 81.985 46.0532 81.9075C45.9268 81.8299 45.7344 81.7423 45.4759 81.6446C45.2748 81.5699 45.0924 81.4924 44.9286 81.4119C44.7649 81.3315 44.6256 81.2353 44.5107 81.1232C44.3958 81.0112 44.3067 80.8776 44.2435 80.7225C44.1803 80.5674 44.1487 80.3807 44.1487 80.1624C44.1487 79.7372 44.3067 79.4011 44.6227 79.1541C44.9387 78.9071 45.3724 78.7835 45.924 78.7835C46.1997 78.7835 46.464 78.808 46.7168 78.8568C46.9696 78.9056 47.1707 78.9588 47.32 79.0162L47.096 80.0159C46.9466 79.9642 46.7843 79.9182 46.6091 79.878C46.4339 79.8378 46.2371 79.8177 46.0188 79.8177C45.6166 79.8177 45.4155 79.9297 45.4155 80.1538C45.4155 80.2055 45.4241 80.2514 45.4414 80.2916C45.4586 80.3319 45.4931 80.3706 45.5448 80.408C45.5965 80.4453 45.6669 80.4855 45.7559 80.5286C45.845 80.5717 45.9584 80.6191 46.0963 80.6708C46.3778 80.7742 46.6105 80.8762 46.7944 80.9767C46.9782 81.0773 47.1233 81.1864 47.2296 81.3042C47.3358 81.422 47.4105 81.5527 47.4536 81.6963C47.4967 81.84 47.5182 82.0066 47.5182 82.1961C47.5182 82.6443 47.3502 82.9832 47.0141 83.213C46.678 83.4428 46.2026 83.5577 45.5879 83.5577C45.1857 83.5577 44.8511 83.5233 44.5839 83.4543C44.3168 83.3854 44.1315 83.3279 44.0281 83.282L44.2435 82.2392C44.4618 82.3254 44.6859 82.3929 44.9157 82.4418C45.1455 82.4906 45.3724 82.515 45.5965 82.515ZM48.4317 77.7753L49.7158 77.5684V78.9042H51.2583V79.9728H49.7158V81.5671C49.7158 81.8371 49.7632 82.0525 49.8579 82.2134C49.9527 82.3742 50.1438 82.4547 50.431 82.4547C50.5689 82.4547 50.7111 82.4418 50.8576 82.4159C51.0041 82.39 51.1377 82.3541 51.2583 82.3082L51.4393 83.3078C51.2842 83.371 51.1118 83.4256 50.9222 83.4716C50.7326 83.5175 50.5 83.5405 50.2242 83.5405C49.8737 83.5405 49.5836 83.4931 49.3538 83.3983C49.124 83.3035 48.9402 83.1714 48.8023 83.0019C48.6644 82.8324 48.5682 82.627 48.5136 82.3857C48.459 82.1444 48.4317 81.8773 48.4317 81.5843V77.7753ZM56.541 81.162C56.541 81.5182 56.4893 81.8443 56.3859 82.1401C56.2824 82.436 56.1331 82.6888 55.9377 82.8985C55.7424 83.1082 55.5083 83.2705 55.2354 83.3854C54.9625 83.5003 54.6566 83.5577 54.3176 83.5577C53.9844 83.5577 53.6813 83.5003 53.4084 83.3854C53.1356 83.2705 52.9014 83.1082 52.7061 82.8985C52.5108 82.6888 52.3585 82.436 52.2494 82.1401C52.1402 81.8443 52.0856 81.5182 52.0856 81.162C52.0856 80.8058 52.1416 80.4812 52.2537 80.1882C52.3657 79.8952 52.5208 79.6453 52.719 79.4385C52.9172 79.2317 53.1528 79.0708 53.4257 78.9559C53.6986 78.841 53.9959 78.7835 54.3176 78.7835C54.6451 78.7835 54.9453 78.841 55.2182 78.9559C55.4911 79.0708 55.7252 79.2317 55.9205 79.4385C56.1158 79.6453 56.2681 79.8952 56.3772 80.1882C56.4864 80.4812 56.541 80.8058 56.541 81.162ZM55.2311 81.162C55.2311 80.7656 55.1521 80.4539 54.9941 80.227C54.8361 80.0001 54.6106 79.8866 54.3176 79.8866C54.0246 79.8866 53.7977 80.0001 53.6368 80.227C53.4759 80.4539 53.3955 80.7656 53.3955 81.162C53.3955 81.5584 53.4759 81.873 53.6368 82.1057C53.7977 82.3383 54.0246 82.4547 54.3176 82.4547C54.6106 82.4547 54.8361 82.3383 54.9941 82.1057C55.1521 81.873 55.2311 81.5584 55.2311 81.162ZM60.2638 80.0417C60.1489 80.013 60.0139 79.9828 59.8588 79.9512C59.7037 79.9196 59.5371 79.9038 59.359 79.9038C59.2785 79.9038 59.1823 79.911 59.0703 79.9254C58.9582 79.9397 58.8735 79.9555 58.8161 79.9728V83.4371H57.532V79.1455C57.7618 79.065 58.0333 78.9889 58.3464 78.9171C58.6595 78.8453 59.0085 78.8094 59.3934 78.8094C59.4624 78.8094 59.5457 78.8137 59.6434 78.8223C59.741 78.8309 59.8387 78.8424 59.9364 78.8568C60.034 78.8712 60.1317 78.8884 60.2294 78.9085C60.327 78.9286 60.4103 78.953 60.4793 78.9817L60.2638 80.0417ZM60.9532 81.2051C60.9532 80.803 61.015 80.4511 61.1385 80.1494C61.262 79.8478 61.4243 79.5965 61.6254 79.3954C61.8265 79.1943 62.0577 79.0421 62.3192 78.9387C62.5806 78.8352 62.8491 78.7835 63.1249 78.7835C63.7684 78.7835 64.2768 78.9803 64.6502 79.3739C65.0237 79.7674 65.2104 80.3462 65.2104 81.1103C65.2104 81.185 65.2075 81.2669 65.2018 81.3559C65.196 81.445 65.1903 81.524 65.1845 81.5929H62.2717C62.3005 81.8572 62.424 82.0669 62.6423 82.222C62.8606 82.3771 63.1536 82.4547 63.5213 82.4547C63.7569 82.4547 63.9881 82.4331 64.215 82.39C64.442 82.347 64.6273 82.2938 64.7709 82.2306L64.9432 83.2734C64.8743 83.3078 64.7824 83.3423 64.6675 83.3768C64.5526 83.4112 64.4247 83.4414 64.284 83.4673C64.1432 83.4931 63.9924 83.5147 63.8316 83.5319C63.6707 83.5491 63.5098 83.5577 63.349 83.5577C62.9411 83.5577 62.5863 83.4974 62.2847 83.3768C61.9831 83.2561 61.7331 83.091 61.5349 82.8813C61.3367 82.6716 61.1902 82.4231 61.0954 82.1358C61.0006 81.8486 60.9532 81.5383 60.9532 81.2051ZM63.9694 80.7139C63.9637 80.6047 63.945 80.4985 63.9134 80.395C63.8818 80.2916 63.833 80.1997 63.7669 80.1193C63.7009 80.0389 63.6175 79.9728 63.517 79.9211C63.4165 79.8694 63.2915 79.8435 63.1421 79.8435C62.9985 79.8435 62.875 79.8679 62.7716 79.9168C62.6682 79.9656 62.582 80.0302 62.513 80.1107C62.4441 80.1911 62.391 80.2845 62.3536 80.3907C62.3163 80.497 62.289 80.6047 62.2717 80.7139H63.9694Z" fill="white"/>
<path d="M44.6241 35.1176C43.641 35.7353 43.0337 36.7941 43.0337 37.9706C43.0337 39.2941 43.8145 40.5 45 41C44.7687 41.7647 44.4217 42.4706 43.988 43.1176C43.3518 44.0294 42.6867 44.9706 41.7036 44.9706C40.7205 44.9706 40.4313 44.3824 39.2747 44.3824C38.147 44.3824 37.7422 45 36.8169 45C35.8916 45 35.2554 44.1471 34.5325 43.0882C33.5783 41.6176 33.0289 39.9118 33 38.1176C33 35.2059 34.8506 33.6471 36.7012 33.6471C37.6843 33.6471 38.494 34.2941 39.1012 34.2941C39.6795 34.2941 40.6048 33.6176 41.7036 33.6176C42.8602 33.5882 43.959 34.1471 44.6241 35.1176ZM41.1831 32.3824C41.6747 31.7941 41.9349 31.0588 41.9639 30.2941C41.9639 30.2059 41.9639 30.0882 41.9349 30C41.0964 30.0882 40.3157 30.5 39.7663 31.1471C39.2747 31.7059 38.9855 32.4118 38.9566 33.1765C38.9566 33.2647 38.9566 33.3529 38.9855 33.4412C39.0434 33.4412 39.1301 33.4706 39.188 33.4706C39.9687 33.4118 40.6916 33 41.1831 32.3824Z" fill="#FF8A00"/>
</g>
<defs>
<clipPath id="clip0_240_11703">
<rect width="75.4286" height="88" fill="white" transform="translate(0.427734)"/>
</clipPath>
</defs>
</svg>
