<svg width="259" height="51" viewBox="0 0 259 51" fill="none" xmlns="http://www.w3.org/2000/svg">
<path d="M42.9569 32.7721C40.8286 30.6243 38.3564 28.8578 35.6455 27.5476L35.3917 27.419C33.6777 26.611 31.8847 25.9875 30.0423 25.5587L29.3395 25.4103C29.2115 25.3813 29.0996 25.3033 29.0271 25.1926V25.1332L23.5509 12.8338L18.1527 0.702542C18.1207 0.626498 18.1076 0.54365 18.1146 0.461283C18.1216 0.378915 18.1485 0.299553 18.1928 0.23017C18.2372 0.160787 18.2976 0.10351 18.3689 0.0633761C18.4402 0.023242 18.5202 0.00147731 18.6017 0H29.0955C29.1904 0.000900213 29.2832 0.0293255 29.3628 0.0819246C29.4423 0.134524 29.5054 0.209096 29.5445 0.296845L43.7574 32.218C43.8052 32.3237 43.8148 32.4431 43.7844 32.5552C43.754 32.6674 43.6856 32.7651 43.5913 32.8312C43.4969 32.8973 43.3826 32.9277 43.2684 32.9169C43.1542 32.9061 43.0474 32.8548 42.9667 32.7721" fill="#6166AE"/>
<path d="M4.70131 32.7722C6.83138 30.6219 9.30718 28.8552 12.0225 27.5476L12.2666 27.419C13.9806 26.611 15.7735 25.9875 17.6159 25.5587L18.3188 25.4103C18.4495 25.3818 18.5646 25.304 18.6409 25.1926V25.1333L24.1172 12.8338L29.5153 0.702581C29.55 0.626719 29.5651 0.543198 29.5592 0.459811C29.5534 0.376425 29.5269 0.295889 29.482 0.225732C29.4372 0.155574 29.3755 0.0980809 29.3028 0.0586135C29.2301 0.019146 29.1487 -0.00100723 29.0663 3.87337e-05H18.553C18.458 0.000938947 18.3653 0.0293642 18.2857 0.0819633C18.2062 0.134562 18.1431 0.209135 18.104 0.296883L3.91062 32.2181C3.86281 32.3238 3.85326 32.4431 3.88363 32.5553C3.91401 32.6674 3.98238 32.7651 4.07673 32.8312C4.17109 32.8974 4.28541 32.9277 4.39963 32.9169C4.51385 32.9061 4.62065 32.8549 4.70131 32.7722Z" fill="#6166AE"/>
<path d="M47.6718 41.0441L47.5352 40.7967V40.7275C45.7147 37.3022 43.1929 34.311 40.139 31.9543C37.085 29.5975 33.5693 27.9297 29.8276 27.0625C25.8809 26.1654 21.7871 26.1654 17.8403 27.0625C11.7823 28.4817 6.39312 31.9768 2.58299 36.9575C1.68508 38.1315 0.88511 39.3793 0.191381 40.6879V40.7571L0.0547043 41.0045C0.0159228 41.0804 -0.00279506 41.1652 0.000337479 41.2505C0.00347002 41.3359 0.0283451 41.419 0.0725784 41.4918C0.116812 41.5645 0.1789 41.6244 0.252749 41.6656C0.326597 41.7068 0.4097 41.7279 0.493988 41.7269H11.2806C11.4125 41.7265 11.5389 41.6731 11.632 41.5784C13.2216 39.9098 15.1264 38.5827 17.2328 37.6763C19.3393 36.7699 21.6042 36.3028 23.8926 36.3028C26.1809 36.3028 28.4459 36.7699 30.5523 37.6763C32.6587 38.5827 34.5635 39.9098 36.1531 41.5784C36.1986 41.6262 36.2532 41.6641 36.3136 41.6896C36.3741 41.7151 36.4391 41.7278 36.5046 41.7269H47.3009C47.384 41.7281 47.4661 41.7074 47.5389 41.6667C47.6118 41.626 47.6728 41.5668 47.7162 41.4949C47.7596 41.423 47.7837 41.3408 47.7862 41.2566C47.7887 41.1723 47.7695 41.0889 47.7304 41.0144" fill="#6166AE"/>
<path d="M57.9021 41.8264H54.0181L67.6899 8.61035H71.2374L84.7279 41.8264H80.7403L76.934 32.4955H61.6696L57.9021 41.8264ZM69.2824 12.7968L62.809 29.4377H75.8723L69.2824 12.7968Z" fill="#6166AE"/>
<path d="M111.463 33.6901C110.562 36.6205 108.655 39.1265 106.088 40.7538C103.521 42.3811 100.463 43.0219 97.4694 42.56C94.476 42.0981 91.7449 40.5641 89.7714 38.2361C87.798 35.9082 86.7129 32.9405 86.7129 29.8711C86.7129 26.8018 87.798 23.8341 89.7714 21.5062C91.7449 19.1782 94.476 17.6442 97.4694 17.1823C100.463 16.7204 103.521 17.3612 106.088 18.9885C108.655 20.6158 110.562 23.1218 111.463 26.0521H108.097C107.511 24.5987 106.582 23.3134 105.391 22.3095C104.2 21.3055 102.784 20.6137 101.268 20.2948C99.7509 19.9759 98.1801 20.0398 96.6935 20.4807C95.2069 20.9217 93.8501 21.7263 92.7423 22.8237C90.98 24.6958 90.009 27.1918 90.0364 29.7793C90.0013 31.0446 90.2192 32.3039 90.6768 33.4817C91.1345 34.6594 91.8225 35.7311 92.6994 36.6322C93.5763 37.5334 94.624 38.2454 95.7795 38.7254C96.9349 39.2053 98.1742 39.4434 99.4228 39.4252C101.269 39.4851 103.089 38.9666 104.634 37.9404C106.18 36.9141 107.375 35.43 108.058 33.6901H111.463Z" fill="#6166AE"/>
<path d="M140.063 41.8269H136.761V36.8399C135.825 38.6135 134.416 40.0845 132.694 41.0847C130.973 42.0849 129.008 42.5741 127.025 42.4962C119.257 42.4962 114.674 36.3937 114.674 29.7531C114.618 28.0831 114.897 26.4189 115.495 24.8618C116.093 23.3046 116.997 21.8869 118.152 20.695C119.307 19.503 120.69 18.5617 122.215 17.9282C123.741 17.2947 125.377 16.9823 127.025 17.01C129.02 16.9265 130.997 17.4234 132.722 18.4419C134.447 19.4605 135.849 20.9582 136.761 22.7582V17.6793H140.037L140.063 41.8269ZM117.924 29.8056C117.902 31.0804 118.136 32.3463 118.61 33.527C119.085 34.7077 119.791 35.7787 120.685 36.6752C121.579 37.5718 122.643 38.2754 123.813 38.7436C124.983 39.2117 126.234 39.4347 127.491 39.399C129.349 39.4506 131.175 38.9113 132.715 37.8568C134.254 36.8024 135.43 35.2857 136.075 33.5196C136.608 32.3237 136.882 31.0259 136.878 29.7138C136.922 28.3863 136.665 27.0663 136.127 25.8554C135.423 24.1069 134.211 22.6163 132.653 21.5806C131.095 20.5449 129.264 20.0128 127.401 20.0547C126.144 20.0367 124.896 20.276 123.732 20.7581C122.568 21.2403 121.512 21.9555 120.628 22.861C119.743 23.7664 119.047 24.8435 118.583 26.0277C118.118 27.212 117.894 28.479 117.924 29.7531V29.8056Z" fill="#6166AE"/>
<path d="M170.255 41.8271H167.109V36.8401C166.169 38.6314 164.747 40.1146 163.006 41.1162C161.266 42.1179 159.281 42.5966 157.282 42.4964C149.669 42.4964 144.969 36.4858 144.969 29.7139C144.91 28.0515 145.184 26.3941 145.776 24.8427C146.369 23.2913 147.266 21.8783 148.414 20.6898C149.563 19.5013 150.938 18.5621 152.455 17.9295C153.973 17.2969 155.602 16.9841 157.243 17.0102C162.422 17.0102 165.917 20.0549 166.979 22.5746V8.65039H170.255V41.8271ZM148.245 29.7533C148.213 31.0334 148.438 32.3068 148.909 33.4953C149.379 34.6839 150.083 35.7627 150.979 36.6657C151.874 37.5688 152.943 38.277 154.118 38.747C155.293 39.217 156.55 39.4389 157.813 39.3992C159.07 39.4083 160.316 39.1634 161.478 38.679C162.641 38.1945 163.697 37.4802 164.584 36.5776C165.467 35.6601 166.157 34.5707 166.613 33.3752C167.07 32.1798 167.282 30.903 167.238 29.6221C167.259 28.3615 167.026 27.1099 166.554 25.9435C166.082 24.7771 165.381 23.7201 164.493 22.8371C163.152 21.5026 161.453 20.5985 159.607 20.2382C157.762 19.8778 155.853 20.0771 154.118 20.8111C152.384 21.545 150.902 22.7812 149.857 24.3647C148.813 25.9483 148.252 27.8089 148.245 29.7139V29.7533Z" fill="#6166AE"/>
<path d="M177.816 41.8264H173.932L187.616 8.61035H191.138L204.654 41.8264H200.667L196.86 32.4955H181.583L177.816 41.8264ZM189.196 12.7968L182.723 29.4377H195.773L189.196 12.7968Z" fill="#6166AE"/>
<path d="M211.465 8.63672H208.189V41.8397H211.465V8.63672Z" fill="#6166AE"/>
<path d="M221.071 8.63672H217.795V41.8397H221.071V8.63672Z" fill="#6166AE"/>
<path d="M233.772 41.4065L224.566 17.7051H228.062L235.545 37.2331L243.249 17.7051H246.835L233.241 50.9999H229.706L233.772 41.4065Z" fill="#6166AE"/>
</svg>
