<svg width="24" height="24" viewBox="0 0 24 24" fill="none" xmlns="http://www.w3.org/2000/svg">
<g clip-path="url(#clip0_6576_11736)">
<path d="M10 8V7H2V15C2 16.654 3.346 18 5 18H10V16C10 14.346 11.346 13 13 13H15.586C16.12 13 16.622 13.208 17 13.586L18.414 15H21C22.654 15 24 16.346 24 18V21C24 22.654 22.654 24 21 24H13C11.346 24 10 22.654 10 21V20H5C2.243 20 0 17.757 0 15V1C0.006 -0.308 1.995 -0.307 2 1V5H10V3C10 1.346 11.346 0 13 0H15.586C16.12 0 16.622 0.208 17 0.586L18.414 2H21C22.654 2 24 3.346 24 5V8C24 9.654 22.654 11 21 11H13C11.346 11 10 9.654 10 8Z" fill="#FF8A00"/>
</g>
<defs>
<clipPath id="clip0_6576_11736">
<rect width="24" height="24" fill="white"/>
</clipPath>
</defs>
</svg>
