<svg width="24" height="24" viewBox="0 0 24 24" fill="none" xmlns="http://www.w3.org/2000/svg">
<mask id="path-1-inside-1_7192_12289" fill="white">
<path d="M12 12C12.9889 12 13.9556 11.7068 14.7778 11.1573C15.6001 10.6079 16.241 9.82705 16.6194 8.91342C16.9978 7.99979 17.0969 6.99445 16.9039 6.02455C16.711 5.05465 16.2348 4.16373 15.5355 3.46447C14.8363 2.76521 13.9454 2.289 12.9755 2.09608C12.0055 1.90315 11.0002 2.00217 10.0866 2.3806C9.17295 2.75904 8.39206 3.3999 7.84265 4.22215C7.29324 5.0444 7 6.01109 7 7C7.00132 8.32568 7.52853 9.59668 8.46593 10.5341C9.40332 11.4715 10.6743 11.9987 12 12ZM12 3.66667C12.6593 3.66667 13.3037 3.86217 13.8519 4.22844C14.4001 4.59471 14.8273 5.1153 15.0796 5.72439C15.3319 6.33348 15.3979 7.0037 15.2693 7.6503C15.1407 8.29691 14.8232 8.89085 14.357 9.35702C13.8908 9.8232 13.2969 10.1407 12.6503 10.2693C12.0037 10.3979 11.3335 10.3319 10.7244 10.0796C10.1153 9.82731 9.59471 9.40006 9.22843 8.8519C8.86216 8.30374 8.66667 7.65927 8.66667 7C8.66667 6.11595 9.01786 5.2681 9.64298 4.64298C10.2681 4.01786 11.1159 3.66667 12 3.66667Z"/>
</mask>
<path d="M12 12C12.9889 12 13.9556 11.7068 14.7778 11.1573C15.6001 10.6079 16.241 9.82705 16.6194 8.91342C16.9978 7.99979 17.0969 6.99445 16.9039 6.02455C16.711 5.05465 16.2348 4.16373 15.5355 3.46447C14.8363 2.76521 13.9454 2.289 12.9755 2.09608C12.0055 1.90315 11.0002 2.00217 10.0866 2.3806C9.17295 2.75904 8.39206 3.3999 7.84265 4.22215C7.29324 5.0444 7 6.01109 7 7C7.00132 8.32568 7.52853 9.59668 8.46593 10.5341C9.40332 11.4715 10.6743 11.9987 12 12ZM12 3.66667C12.6593 3.66667 13.3037 3.86217 13.8519 4.22844C14.4001 4.59471 14.8273 5.1153 15.0796 5.72439C15.3319 6.33348 15.3979 7.0037 15.2693 7.6503C15.1407 8.29691 14.8232 8.89085 14.357 9.35702C13.8908 9.8232 13.2969 10.1407 12.6503 10.2693C12.0037 10.3979 11.3335 10.3319 10.7244 10.0796C10.1153 9.82731 9.59471 9.40006 9.22843 8.8519C8.86216 8.30374 8.66667 7.65927 8.66667 7C8.66667 6.11595 9.01786 5.2681 9.64298 4.64298C10.2681 4.01786 11.1159 3.66667 12 3.66667Z" fill="#6166AE"/>
<path d="M12 12L11.9787 33.3333L11.9893 33.3333H12L12 12ZM7 7H-14.3333V7.01065L-14.3333 7.0213L7 7ZM12 3.66667L12 -17.6667L12 3.66667ZM12 33.3333C17.2082 33.3333 22.2995 31.7889 26.63 28.8954L2.92568 -6.58067C5.61168 -8.3754 8.76957 -9.33333 12 -9.33333L12 33.3333ZM26.63 28.8954C30.9605 26.0018 34.3357 21.8891 36.3288 17.0773L-3.09003 0.749504C-1.8538 -2.23503 0.239686 -4.78594 2.92568 -6.58067L26.63 28.8954ZM36.3288 17.0773C38.3219 12.2655 38.8434 6.97079 37.8273 1.86262L-4.0195 10.1865C-4.64972 7.01812 -4.32627 3.73403 -3.09003 0.749504L36.3288 17.0773ZM37.8273 1.86262C36.8113 -3.24554 34.3033 -7.93769 30.6205 -11.6205L0.450587 18.5494C-1.83367 16.2652 -3.38927 13.3548 -4.0195 10.1865L37.8273 1.86262ZM30.6205 -11.6205C26.9377 -15.3033 22.2455 -17.8113 17.1374 -18.8273L8.81352 23.0195C5.64517 22.3893 2.73485 20.8337 0.450587 18.5494L30.6205 -11.6205ZM17.1374 -18.8273C12.0292 -19.8434 6.73446 -19.3219 1.92267 -17.3288L18.2505 22.09C15.266 23.3263 11.9819 23.6497 8.81352 23.0195L17.1374 -18.8273ZM1.92267 -17.3288C-2.88912 -15.3357 -7.00182 -11.9605 -9.89537 -7.63001L25.5807 16.0743C23.7859 18.7603 21.235 20.8538 18.2505 22.09L1.92267 -17.3288ZM-9.89537 -7.63001C-12.7889 -3.29952 -14.3333 1.79176 -14.3333 7H28.3333C28.3333 10.2304 27.3754 13.3883 25.5807 16.0743L-9.89537 -7.63001ZM-14.3333 7.0213C-14.3264 13.9975 -11.552 20.6861 -6.61902 25.619L23.5509 -4.55087C26.609 -1.49271 28.329 2.65381 28.3333 6.9787L-14.3333 7.0213ZM-6.61902 25.619C-1.68606 30.552 5.00246 33.3264 11.9787 33.3333L12.0213 -9.33332C16.3462 -9.32901 20.4927 -7.60904 23.5509 -4.55087L-6.61902 25.619ZM12 25C8.43993 25 4.95982 23.9443 1.99973 21.9665L25.7041 -13.5096C21.6477 -16.22 16.8786 -17.6667 12 -17.6667L12 25ZM1.99973 21.9665C-0.960345 19.9886 -3.26745 17.1774 -4.62983 13.8883L34.789 -2.43952C32.9221 -6.94677 29.7605 -10.7992 25.7041 -13.5096L1.99973 21.9665ZM-4.62983 13.8883C-5.99221 10.5992 -6.34867 6.98003 -5.65414 3.48838L36.1927 11.8122C37.1445 7.02736 36.656 2.06772 34.789 -2.43952L-4.62983 13.8883ZM-5.65414 3.48838C-4.9596 -0.0032835 -3.24527 -3.21058 -0.727924 -5.72792L29.442 24.442C32.8917 20.9923 35.2409 16.5971 36.1927 11.8122L-5.65414 3.48838ZM-0.727924 -5.72792C1.78942 -8.24527 4.99671 -9.9596 8.48837 -10.6541L16.8122 31.1927C21.5971 30.2409 25.9923 27.8917 29.442 24.442L-0.727924 -5.72792ZM8.48837 -10.6541C11.98 -11.3487 15.5992 -10.9922 18.8883 -9.62983L2.56047 29.789C7.06772 31.656 12.0274 32.1445 16.8122 31.1927L8.48837 -10.6541ZM18.8883 -9.62983C22.1774 -8.26745 24.9886 -5.96033 26.9665 -3.00026L-8.50958 20.7041C-5.79919 24.7605 -1.94679 27.9221 2.56047 29.789L18.8883 -9.62983ZM26.9665 -3.00026C28.9443 -0.0401857 30 3.43993 30 7H-12.6667C-12.6667 11.8786 -11.22 16.6477 -8.50958 20.7041L26.9665 -3.00026ZM30 7C30 11.7739 28.1036 16.3523 24.7279 19.7279L-5.44197 -10.442C-10.0679 -5.81607 -12.6667 0.457998 -12.6667 7H30ZM24.7279 19.7279C21.3523 23.1036 16.7739 25 12 25L12 -17.6667C5.45799 -17.6667 -0.816071 -15.0679 -5.44197 -10.442L24.7279 19.7279Z" fill="#6166AE" mask="url(#path-1-inside-1_7192_12289)"/>
<path d="M12.5 14C10.5116 14.0021 8.60518 14.7614 7.19914 16.1112C5.79309 17.461 5.00221 19.2911 5 21.2C5 21.4122 5.0878 21.6157 5.24408 21.7657C5.40036 21.9157 5.61232 22 5.83333 22C6.05435 22 6.26631 21.9157 6.42259 21.7657C6.57887 21.6157 6.66667 21.4122 6.66667 21.2C6.66667 19.7148 7.28125 18.2904 8.37521 17.2402C9.46917 16.19 10.9529 15.6 12.5 15.6C14.0471 15.6 15.5308 16.19 16.6248 17.2402C17.7188 18.2904 18.3333 19.7148 18.3333 21.2C18.3333 21.4122 18.4211 21.6157 18.5774 21.7657C18.7337 21.9157 18.9457 22 19.1667 22C19.3877 22 19.5996 21.9157 19.7559 21.7657C19.9122 21.6157 20 21.4122 20 21.2C19.9978 19.2911 19.2069 17.461 17.8009 16.1112C16.3948 14.7614 14.4884 14.0021 12.5 14Z" fill="#6166AE"/>
</svg>
