<svg width="24" height="24" viewBox="0 0 24 24" fill="none" xmlns="http://www.w3.org/2000/svg">
<path d="M2.01701 5.72379L4.72218 2.34241C4.8395 2.19576 4.9883 2.07736 5.15756 1.99599C5.32683 1.91461 5.51222 1.87235 5.70003 1.87231H5.70213C5.91106 1.87221 6.11606 1.92906 6.2951 2.03673C6.47413 2.14441 6.62044 2.29884 6.71829 2.48344C6.81613 2.66803 6.86182 2.8758 6.85043 3.08441C6.83904 3.29303 6.77102 3.49459 6.65366 3.66744L5.77428 4.97379H20.9894C21.2877 4.97379 21.5739 5.09231 21.7849 5.30329C21.9959 5.51427 22.1144 5.80042 22.1144 6.09879C22.1144 6.39716 21.9959 6.6833 21.7849 6.89428C21.5739 7.10526 21.2877 7.22379 20.9894 7.22379H5.77451L6.65366 8.53021C6.77092 8.70304 6.83888 8.90454 6.85024 9.11308C6.86159 9.32162 6.81592 9.52932 6.71812 9.71385C6.62032 9.89839 6.47409 10.0528 6.29514 10.1605C6.11619 10.2682 5.91128 10.325 5.70243 10.325H5.70003C5.51217 10.325 5.32671 10.2828 5.15739 10.2014C4.98807 10.12 4.83923 10.0016 4.72188 9.85486L2.01671 6.47341C1.93164 6.36699 1.88533 6.23479 1.88538 6.09855C1.88544 5.96231 1.93186 5.83014 2.01701 5.72379Z" fill="#949494"/>
<path d="M3 14.6008H21C21.2984 14.6008 21.5845 14.4823 21.7955 14.2713C22.0065 14.0603 22.125 13.7742 22.125 13.4758C22.125 13.1775 22.0065 12.8913 21.7955 12.6803C21.5845 12.4694 21.2984 12.3508 21 12.3508H3C2.70163 12.3508 2.41548 12.4694 2.20451 12.6803C1.99353 12.8913 1.875 13.1775 1.875 13.4758C1.875 13.7742 1.99353 14.0603 2.20451 14.2713C2.41548 14.4823 2.70163 14.6008 3 14.6008Z" fill="#949494"/>
<path d="M3.03557 21.2278H20.9645C21.2628 21.2278 21.549 21.1093 21.76 20.8983C21.971 20.6873 22.0895 20.4012 22.0895 20.1028C22.0895 19.8044 21.971 19.5183 21.76 19.3073C21.549 19.0963 21.2628 18.9778 20.9645 18.9778H3.03557C2.7372 18.9778 2.45105 19.0963 2.24007 19.3073C2.0291 19.5183 1.91057 19.8044 1.91057 20.1028C1.91057 20.4012 2.0291 20.6873 2.24007 20.8983C2.45105 21.1093 2.7372 21.2278 3.03557 21.2278Z" fill="#949494"/>
</svg>
