<svg width="31" height="36" viewBox="0 0 31 36" fill="none" xmlns="http://www.w3.org/2000/svg">
<path d="M30.946 15H20.482C18.001 15 15.982 12.981 15.982 10.5V0.036C15.7405 0.0195 15.499 0 15.2545 0H8.48197C4.34497 0 0.980469 3.3645 0.980469 7.5V28.5C0.980469 32.6355 4.34497 36 8.48047 36H23.4805C27.616 36 30.9805 32.6355 30.9805 28.5V15.7275C30.9805 15.483 30.961 15.2415 30.9445 15H30.946ZM11.1025 28.413C10.6 29.355 9.59797 30 8.44447 30C6.82447 30 5.51047 28.686 5.51047 27.066L5.49847 23.9835C5.49847 22.3635 6.81247 21.0495 8.43247 21.0495C9.58447 21.0495 10.588 21.693 11.0905 22.6365C11.422 23.259 10.9705 24.0105 10.2655 24.0105C9.92497 24.0105 9.60697 23.829 9.44797 23.5275C9.26197 23.1735 8.87947 22.9245 8.45047 22.917C7.85197 22.9275 7.36897 23.4135 7.37047 24.015C7.37047 24.1575 7.38247 26.8275 7.38247 27.0345C7.38097 27.636 7.86397 28.122 8.46247 28.1325C8.89297 28.125 9.27397 27.876 9.45997 27.522C9.61897 27.2205 9.93697 27.039 10.2775 27.039C10.9825 27.039 11.434 27.7905 11.1025 28.413ZM19.273 27.6855C19.0345 29.0265 17.7535 30 16.2295 30C14.9965 30 13.8385 29.5035 13.0525 28.6365C12.706 28.2555 12.7345 27.666 13.1155 27.321C13.4965 26.9745 14.086 27.003 14.431 27.384C14.8585 27.855 15.529 28.1355 16.2265 28.1355C16.8955 28.1355 17.365 27.7395 17.434 27.357C17.5255 26.8425 16.7605 26.5185 16.5235 26.43C15.4015 26.016 14.3905 25.5645 14.3905 25.5645C13.4965 24.9945 13.102 24.12 13.231 23.2095C13.3705 22.2405 14.0785 21.4515 15.079 21.15C17.044 20.5575 18.67 21.894 18.736 21.951L18.7405 21.954C19.132 22.284 19.183 22.869 18.853 23.2605L18.8455 23.268C18.5155 23.6595 17.932 23.7105 17.5405 23.3805C17.503 23.3505 16.597 22.6425 15.616 22.9335C15.1795 23.0655 15.0925 23.355 15.076 23.472C15.064 23.5605 15.0565 23.778 15.2695 23.9235C15.2935 23.9235 16.186 24.3165 17.167 24.6795C18.991 25.353 19.4485 26.6715 19.267 27.6825L19.273 27.6855ZM24.7285 29.0685C24.616 29.6115 24.1375 30 23.5825 30C23.0455 30 22.5775 29.6355 22.447 29.115L20.6995 22.176C20.5555 21.6045 20.9875 21.0495 21.577 21.0495C21.9925 21.0495 22.354 21.3315 22.4545 21.7335L23.5135 25.944L24.3835 21.7695C24.4705 21.3495 24.841 21.0495 25.27 21.0495H25.288C25.8625 21.0495 26.2915 21.5775 26.1745 22.14L24.7285 29.0685ZM18.9805 10.5V0.69C20.35 1.209 21.61 2.0085 22.678 3.075L27.904 8.304C28.972 9.3705 29.7715 10.6305 30.2905 12H20.4805C19.6525 12 18.9805 11.3265 18.9805 10.5Z" fill="#FF8A00"/>
</svg>
