<svg width="259" height="51" viewBox="0 0 259 51" fill="none" xmlns="http://www.w3.org/2000/svg">
<path d="M42.9569 32.7721C40.8286 30.6243 38.3564 28.8578 35.6455 27.5476L35.3917 27.419C33.6777 26.611 31.8847 25.9875 30.0423 25.5587L29.3395 25.4103C29.2115 25.3813 29.0996 25.3033 29.0271 25.1926V25.1332L23.5509 12.8338L18.1527 0.702542C18.1207 0.626498 18.1076 0.54365 18.1146 0.461283C18.1216 0.378915 18.1485 0.299553 18.1928 0.23017C18.2372 0.160787 18.2976 0.10351 18.3689 0.0633761C18.4402 0.023242 18.5202 0.00147731 18.6017 0H29.0955C29.1904 0.000900213 29.2832 0.0293255 29.3628 0.0819246C29.4423 0.134524 29.5054 0.209096 29.5445 0.296845L43.7574 32.218C43.8052 32.3237 43.8148 32.4431 43.7844 32.5552C43.754 32.6674 43.6856 32.7651 43.5913 32.8312C43.4969 32.8973 43.3826 32.9277 43.2684 32.9169C43.1542 32.9061 43.0474 32.8548 42.9667 32.7721" fill="#FF8A00"/>
<path d="M4.70131 32.7722C6.83138 30.6219 9.30718 28.8552 12.0225 27.5476L12.2666 27.419C13.9806 26.611 15.7735 25.9875 17.6159 25.5587L18.3188 25.4103C18.4495 25.3818 18.5646 25.304 18.6409 25.1926V25.1333L24.1172 12.8338L29.5153 0.702581C29.55 0.626719 29.5651 0.543198 29.5592 0.459811C29.5534 0.376425 29.5269 0.295889 29.482 0.225732C29.4372 0.155574 29.3755 0.0980809 29.3028 0.0586135C29.2301 0.019146 29.1487 -0.00100723 29.0663 3.87337e-05H18.553C18.458 0.000938947 18.3653 0.0293642 18.2857 0.0819633C18.2062 0.134562 18.1431 0.209135 18.104 0.296883L3.91062 32.2181C3.86281 32.3238 3.85326 32.4431 3.88363 32.5553C3.91401 32.6674 3.98238 32.7651 4.07673 32.8312C4.17109 32.8974 4.28541 32.9277 4.39963 32.9169C4.51385 32.9061 4.62065 32.8549 4.70131 32.7722Z" fill="#FF8A00"/>
<path d="M47.6718 41.0445L47.5352 40.7971V40.7278C45.7147 37.3026 43.1929 34.3114 40.139 31.9546C37.085 29.5979 33.5693 27.93 29.8276 27.0629C25.8809 26.1657 21.7871 26.1657 17.8403 27.0629C11.7823 28.4821 6.39312 31.9772 2.58299 36.9578C1.68508 38.1319 0.88511 39.3797 0.191381 40.6883V40.7575L0.0547043 41.0049C0.0159228 41.0808 -0.00279506 41.1655 0.000337479 41.2509C0.00347002 41.3363 0.0283451 41.4194 0.0725784 41.4921C0.116812 41.5649 0.1789 41.6247 0.252749 41.6659C0.326597 41.7071 0.4097 41.7283 0.493988 41.7272H11.2806C11.4125 41.7269 11.5389 41.6735 11.632 41.5788C13.2216 39.9102 15.1264 38.5831 17.2328 37.6767C19.3393 36.7703 21.6042 36.3032 23.8926 36.3032C26.1809 36.3032 28.4459 36.7703 30.5523 37.6767C32.6587 38.5831 34.5635 39.9102 36.1531 41.5788C36.1986 41.6266 36.2532 41.6645 36.3136 41.69C36.3741 41.7155 36.4391 41.7282 36.5046 41.7272H47.3009C47.384 41.7285 47.4661 41.7078 47.5389 41.6671C47.6118 41.6264 47.6728 41.5672 47.7162 41.4953C47.7596 41.4233 47.7837 41.3412 47.7862 41.2569C47.7887 41.1727 47.7695 41.0892 47.7304 41.0148" fill="#FF8A00"/>
<path d="M57.9021 41.8265H54.0181L67.6899 8.61041H71.2374L84.7279 41.8265H80.7403L76.934 32.4955H61.6696L57.9021 41.8265ZM69.2824 12.7969L62.809 29.4377H75.8723L69.2824 12.7969Z" fill="#FF8A00"/>
<path d="M111.463 33.69C110.562 36.6203 108.655 39.1264 106.088 40.7536C103.521 42.3809 100.463 43.0217 97.4694 42.5598C94.476 42.0979 91.7449 40.5639 89.7714 38.236C87.798 35.9081 86.7129 32.9404 86.7129 29.871C86.7129 26.8017 87.798 23.834 89.7714 21.506C91.7449 19.1781 94.476 17.6441 97.4694 17.1822C100.463 16.7203 103.521 17.3611 106.088 18.9884C108.655 20.6157 110.562 23.1217 111.463 26.052H108.097C107.511 24.5985 106.582 23.3133 105.391 22.3093C104.2 21.3054 102.784 20.6135 101.268 20.2947C99.7509 19.9758 98.1801 20.0396 96.6935 20.4806C95.2069 20.9216 93.8501 21.7262 92.7423 22.8236C90.98 24.6957 90.009 27.1917 90.0364 29.7792C90.0013 31.0444 90.2192 32.3038 90.6768 33.4815C91.1345 34.6593 91.8225 35.7309 92.6994 36.6321C93.5763 37.5333 94.624 38.2452 95.7795 38.7252C96.9349 39.2052 98.1742 39.4433 99.4228 39.4251C101.269 39.485 103.089 38.9665 104.634 37.9402C106.18 36.914 107.375 35.4299 108.058 33.69H111.463Z" fill="#FF8A00"/>
<path d="M140.063 41.8269H136.761V36.8399C135.825 38.6135 134.416 40.0844 132.694 41.0846C130.973 42.0849 129.008 42.574 127.025 42.4962C119.257 42.4962 114.674 36.3937 114.674 29.7531C114.618 28.0831 114.897 26.4189 115.495 24.8617C116.093 23.3045 116.997 21.8869 118.152 20.6949C119.307 19.503 120.69 18.5616 122.215 17.9282C123.741 17.2947 125.377 16.9823 127.025 17.0099C129.02 16.9264 130.997 17.4233 132.722 18.4419C134.447 19.4604 135.849 20.9581 136.761 22.7581V17.6793H140.037L140.063 41.8269ZM117.924 29.8056C117.902 31.0803 118.136 32.3462 118.61 33.5269C119.085 34.7076 119.791 35.7786 120.685 36.6752C121.579 37.5718 122.643 38.2754 123.813 38.7435C124.983 39.2117 126.234 39.4346 127.491 39.399C129.349 39.4506 131.175 38.9113 132.715 37.8568C134.254 36.8023 135.43 35.2856 136.075 33.5196C136.608 32.3236 136.882 31.0259 136.878 29.7137C136.922 28.3863 136.665 27.0662 136.127 25.8553C135.423 24.1069 134.211 22.6162 132.653 21.5805C131.095 20.5448 129.264 20.0127 127.401 20.0547C126.144 20.0366 124.896 20.2759 123.732 20.7581C122.568 21.2403 121.512 21.9555 120.628 22.8609C119.743 23.7664 119.047 24.8434 118.583 26.0277C118.118 27.2119 117.894 28.479 117.924 29.7531V29.8056Z" fill="#FF8A00"/>
<path d="M170.255 41.8267H167.109V36.8397C166.169 38.631 164.747 40.1142 163.006 41.1159C161.266 42.1175 159.281 42.5962 157.282 42.496C149.669 42.496 144.969 36.4854 144.969 29.7136C144.91 28.0512 145.184 26.3938 145.776 24.8423C146.369 23.2909 147.266 21.8779 148.414 20.6894C149.563 19.5009 150.938 18.5618 152.455 17.9292C153.973 17.2966 155.602 16.9838 157.243 17.0098C162.422 17.0098 165.917 20.0545 166.979 22.5743V8.65002H170.255V41.8267ZM148.245 29.7529C148.213 31.0331 148.438 32.3064 148.909 33.495C149.379 34.6836 150.083 35.7624 150.979 36.6654C151.874 37.5684 152.943 38.2766 154.118 38.7466C155.293 39.2166 156.55 39.4386 157.813 39.3989C159.07 39.4079 160.316 39.1631 161.478 38.6786C162.641 38.1942 163.697 37.4798 164.584 36.5773C165.467 35.6597 166.157 34.5703 166.613 33.3749C167.07 32.1794 167.282 30.9027 167.238 29.6217C167.259 28.3612 167.026 27.1096 166.554 25.9431C166.082 24.7767 165.381 23.7198 164.493 22.8367C163.152 21.5022 161.453 20.5982 159.607 20.2378C157.762 19.8774 155.853 20.0767 154.118 20.8107C152.384 21.5447 150.902 22.7808 149.857 24.3643C148.813 25.9479 148.252 27.8086 148.245 29.7136V29.7529Z" fill="#FF8A00"/>
<path d="M177.816 41.8265H173.932L187.616 8.61041H191.138L204.654 41.8265H200.667L196.86 32.4955H181.583L177.816 41.8265ZM189.196 12.7969L182.723 29.4377H195.773L189.196 12.7969Z" fill="#FF8A00"/>
<path d="M211.465 8.63696H208.189V41.8399H211.465V8.63696Z" fill="#FF8A00"/>
<path d="M221.071 8.63696H217.795V41.8399H221.071V8.63696Z" fill="#FF8A00"/>
<path d="M233.772 41.4066L224.566 17.7052H228.062L235.545 37.2333L243.249 17.7052H246.835L233.241 51H229.706L233.772 41.4066Z" fill="#FF8A00"/>
</svg>
