<svg width="20" height="24" viewBox="0 0 20 24" fill="none" xmlns="http://www.w3.org/2000/svg">
<path d="M15.4103 4.10071L15.4924 4.49998H15.9H19C19.2761 4.49998 19.5 4.72385 19.5 5.00002C19.5 5.27615 19.2761 5.5 19 5.5H18H17.5V6V18.9994C17.497 21.4838 15.4838 23.497 12.9994 23.5H7.00059C4.51636 23.497 2.50319 21.484 2.49998 18.9998V6V5.5H1.99998H1C0.723891 5.5 0.500015 5.27614 0.500015 4.99997C0.500015 4.72383 0.723861 4.49998 1 4.49998H4.09998H4.50763L4.58974 4.1007C5.02037 2.00662 6.8624 0.50284 9.0003 0.5H10.9997C13.1376 0.50284 14.9796 2.00662 15.4103 4.10071ZM9.50002 17V16.5H9.49997V11C9.49997 10.1716 8.82841 9.50003 7.99998 9.50003C7.17156 9.50003 6.5 10.1716 6.5 11V17C6.5 17.8285 7.17157 18.5 8.00003 18.5C8.82845 18.5 9.50002 17.8284 9.50002 17ZM5.69985 3.83266L5.46286 4.49998H6.17102H13.829H14.5372L14.3002 3.83266C13.8041 2.43573 12.483 1.50177 11.0006 1.49997H11L9.00002 1.49997L8.99941 1.49997C7.51703 1.50177 6.19594 2.43573 5.69985 3.83266ZM12 18.5C12.8284 18.5 13.5 17.8284 13.5 17V11C13.5 10.1716 12.8284 9.50003 12 9.50003C11.1716 9.50003 10.5 10.1716 10.5 11V17C10.5 17.8284 11.1716 18.5 12 18.5Z" fill="#E95436" stroke="#E95436"/>
</svg>
