<svg width="32" height="32" viewBox="0 0 32 32" fill="none" xmlns="http://www.w3.org/2000/svg">
<path d="M32 16C32 24.8366 24.8366 32 16 32C7.16344 32 0 24.8366 0 16C0 7.16344 7.16344 0 16 0C24.8366 0 32 7.16344 32 16Z" fill="#FF8A00"/>
<path d="M19.814 10L18.872 8.77867C18.6844 8.5372 18.4442 8.34161 18.1698 8.2067C17.8953 8.07179 17.5938 8.00111 17.288 8H14.712C14.4062 8.00111 14.1047 8.07179 13.8302 8.2067C13.5558 8.34161 13.3156 8.5372 13.128 8.77867L12.186 10H19.814Z" fill="white"/>
<path d="M16 20C17.4728 20 18.6667 18.8061 18.6667 17.3333C18.6667 15.8606 17.4728 14.6667 16 14.6667C14.5272 14.6667 13.3333 15.8606 13.3333 17.3333C13.3333 18.8061 14.5272 20 16 20Z" fill="white"/>
<path d="M20.6667 11.3333H11.3333C10.4496 11.3344 9.60237 11.6859 8.97748 12.3108C8.35259 12.9357 8.00106 13.7829 8 14.6667V20.6667C8.00106 21.5504 8.35259 22.3976 8.97748 23.0225C9.60237 23.6474 10.4496 23.9989 11.3333 24H20.6667C21.5504 23.9989 22.3976 23.6474 23.0225 23.0225C23.6474 22.3976 23.9989 21.5504 24 20.6667V14.6667C23.9989 13.7829 23.6474 12.9357 23.0225 12.3108C22.3976 11.6859 21.5504 11.3344 20.6667 11.3333ZM16 21.3333C15.2089 21.3333 14.4355 21.0987 13.7777 20.6592C13.1199 20.2197 12.6072 19.595 12.3045 18.8641C12.0017 18.1332 11.9225 17.3289 12.0769 16.553C12.2312 15.777 12.6122 15.0643 13.1716 14.5049C13.731 13.9455 14.4437 13.5645 15.2196 13.4102C15.9956 13.2559 16.7998 13.3351 17.5307 13.6378C18.2616 13.9406 18.8864 14.4533 19.3259 15.1111C19.7654 15.7688 20 16.5422 20 17.3333C19.9989 18.3939 19.5772 19.4107 18.8273 20.1606C18.0773 20.9105 17.0605 21.3323 16 21.3333Z" fill="white"/>
</svg>
