<svg width="160" height="176" viewBox="0 0 160 176" fill="none" xmlns="http://www.w3.org/2000/svg">
<path d="M18.7274 147.666V156.006H17.3594V147.666H18.7274ZM28.5275 149.286C29.0475 149.286 29.5115 149.394 29.9195 149.61C30.3355 149.826 30.6595 150.146 30.8915 150.57C31.1315 150.994 31.2515 151.506 31.2515 152.106V156.006H29.8955V152.31C29.8955 151.718 29.7475 151.266 29.4515 150.954C29.1555 150.634 28.7515 150.474 28.2395 150.474C27.7275 150.474 27.3195 150.634 27.0155 150.954C26.7195 151.266 26.5715 151.718 26.5715 152.31V156.006H25.2155V152.31C25.2155 151.718 25.0675 151.266 24.7715 150.954C24.4755 150.634 24.0715 150.474 23.5595 150.474C23.0475 150.474 22.6395 150.634 22.3355 150.954C22.0395 151.266 21.8915 151.718 21.8915 152.31V156.006H20.5235V149.394H21.8915V150.15C22.1155 149.878 22.3995 149.666 22.7435 149.514C23.0875 149.362 23.4555 149.286 23.8475 149.286C24.3755 149.286 24.8475 149.398 25.2635 149.622C25.6795 149.846 25.9995 150.17 26.2235 150.594C26.4235 150.194 26.7355 149.878 27.1595 149.646C27.5835 149.406 28.0395 149.286 28.5275 149.286ZM32.5362 152.67C32.5362 152.006 32.6722 151.418 32.9442 150.906C33.2242 150.394 33.6002 149.998 34.0722 149.718C34.5522 149.43 35.0802 149.286 35.6562 149.286C36.1762 149.286 36.6282 149.39 37.0122 149.598C37.4042 149.798 37.7162 150.05 37.9482 150.354V149.394H39.3282V156.006H37.9482V155.022C37.7162 155.334 37.4002 155.594 37.0002 155.802C36.6002 156.01 36.1442 156.114 35.6322 156.114C35.0642 156.114 34.5442 155.97 34.0722 155.682C33.6002 155.386 33.2242 154.978 32.9442 154.458C32.6722 153.93 32.5362 153.334 32.5362 152.67ZM37.9482 152.694C37.9482 152.238 37.8522 151.842 37.6602 151.506C37.4762 151.17 37.2322 150.914 36.9282 150.738C36.6242 150.562 36.2962 150.474 35.9442 150.474C35.5922 150.474 35.2642 150.562 34.9602 150.738C34.6562 150.906 34.4082 151.158 34.2162 151.494C34.0322 151.822 33.9402 152.214 33.9402 152.67C33.9402 153.126 34.0322 153.526 34.2162 153.87C34.4082 154.214 34.6562 154.478 34.9602 154.662C35.2722 154.838 35.6002 154.926 35.9442 154.926C36.2962 154.926 36.6242 154.838 36.9282 154.662C37.2322 154.486 37.4762 154.23 37.6602 153.894C37.8522 153.55 37.9482 153.15 37.9482 152.694ZM43.7891 149.286C44.3011 149.286 44.7531 149.39 45.1451 149.598C45.5451 149.798 45.8571 150.05 46.0811 150.354V149.394H47.4611V156.114C47.4611 156.722 47.3331 157.262 47.0771 157.734C46.8211 158.214 46.4491 158.59 45.9611 158.862C45.4811 159.134 44.9051 159.27 44.2331 159.27C43.3371 159.27 42.5931 159.058 42.0011 158.634C41.4091 158.218 41.0731 157.65 40.9931 156.93H42.3491C42.4531 157.274 42.6731 157.55 43.0091 157.758C43.3531 157.974 43.7611 158.082 44.2331 158.082C44.7851 158.082 45.2291 157.914 45.5651 157.578C45.9091 157.242 46.0811 156.754 46.0811 156.114V155.01C45.8491 155.322 45.5331 155.586 45.1331 155.802C44.7411 156.01 44.2931 156.114 43.7891 156.114C43.2131 156.114 42.6851 155.97 42.2051 155.682C41.7331 155.386 41.3571 154.978 41.0771 154.458C40.8051 153.93 40.6691 153.334 40.6691 152.67C40.6691 152.006 40.8051 151.418 41.0771 150.906C41.3571 150.394 41.7331 149.998 42.2051 149.718C42.6851 149.43 43.2131 149.286 43.7891 149.286ZM46.0811 152.694C46.0811 152.238 45.9851 151.842 45.7931 151.506C45.6091 151.17 45.3651 150.914 45.0611 150.738C44.7571 150.562 44.4291 150.474 44.0771 150.474C43.7251 150.474 43.3971 150.562 43.0931 150.738C42.7891 150.906 42.5411 151.158 42.3491 151.494C42.1651 151.822 42.0731 152.214 42.0731 152.67C42.0731 153.126 42.1651 153.526 42.3491 153.87C42.5411 154.214 42.7891 154.478 43.0931 154.662C43.4051 154.838 43.7331 154.926 44.0771 154.926C44.4291 154.926 44.7571 154.838 45.0611 154.662C45.3651 154.486 45.6091 154.23 45.7931 153.894C45.9851 153.55 46.0811 153.15 46.0811 152.694ZM55.3179 152.538C55.3179 152.786 55.3019 153.01 55.2699 153.21H50.2179C50.2579 153.738 50.4539 154.162 50.8059 154.482C51.1579 154.802 51.5899 154.962 52.1019 154.962C52.8379 154.962 53.3579 154.654 53.6619 154.038H55.1379C54.9379 154.646 54.5739 155.146 54.0459 155.538C53.5259 155.922 52.8779 156.114 52.1019 156.114C51.4699 156.114 50.9019 155.974 50.3979 155.694C49.9019 155.406 49.5099 155.006 49.2219 154.494C48.9419 153.974 48.8019 153.374 48.8019 152.694C48.8019 152.014 48.9379 151.418 49.2099 150.906C49.4899 150.386 49.8779 149.986 50.3739 149.706C50.8779 149.426 51.4539 149.286 52.1019 149.286C52.7259 149.286 53.2819 149.422 53.7699 149.694C54.2579 149.966 54.6379 150.35 54.9099 150.846C55.1819 151.334 55.3179 151.898 55.3179 152.538ZM53.8899 152.106C53.8819 151.602 53.7019 151.198 53.3499 150.894C52.9979 150.59 52.5619 150.438 52.0419 150.438C51.5699 150.438 51.1659 150.59 50.8299 150.894C50.4939 151.19 50.2939 151.594 50.2299 152.106H53.8899ZM62.1813 156.114C61.6613 156.114 61.1933 156.022 60.7773 155.838C60.3693 155.646 60.0453 155.39 59.8053 155.07C59.5653 154.742 59.4373 154.378 59.4213 153.978H60.8373C60.8613 154.258 60.9933 154.494 61.2333 154.686C61.4813 154.87 61.7893 154.962 62.1573 154.962C62.5413 154.962 62.8373 154.89 63.0453 154.746C63.2613 154.594 63.3693 154.402 63.3693 154.17C63.3693 153.922 63.2493 153.738 63.0093 153.618C62.7773 153.498 62.4053 153.366 61.8933 153.222C61.3973 153.086 60.9933 152.954 60.6813 152.826C60.3693 152.698 60.0973 152.502 59.8653 152.238C59.6413 151.974 59.5293 151.626 59.5293 151.194C59.5293 150.842 59.6333 150.522 59.8413 150.234C60.0493 149.938 60.3453 149.706 60.7293 149.538C61.1213 149.37 61.5693 149.286 62.0733 149.286C62.8253 149.286 63.4293 149.478 63.8853 149.862C64.3493 150.238 64.5973 150.754 64.6293 151.41H63.2613C63.2373 151.114 63.1173 150.878 62.9013 150.702C62.6853 150.526 62.3933 150.438 62.0253 150.438C61.6653 150.438 61.3893 150.506 61.1973 150.642C61.0053 150.778 60.9093 150.958 60.9093 151.182C60.9093 151.358 60.9733 151.506 61.1013 151.626C61.2293 151.746 61.3853 151.842 61.5693 151.914C61.7533 151.978 62.0253 152.062 62.3853 152.166C62.8653 152.294 63.2573 152.426 63.5613 152.562C63.8733 152.69 64.1413 152.882 64.3653 153.138C64.5893 153.394 64.7053 153.734 64.7133 154.158C64.7133 154.534 64.6093 154.87 64.4013 155.166C64.1933 155.462 63.8973 155.694 63.5133 155.862C63.1373 156.03 62.6933 156.114 62.1813 156.114ZM66.8875 148.518C66.6395 148.518 66.4315 148.434 66.2635 148.266C66.0955 148.098 66.0115 147.89 66.0115 147.642C66.0115 147.394 66.0955 147.186 66.2635 147.018C66.4315 146.85 66.6395 146.766 66.8875 146.766C67.1275 146.766 67.3315 146.85 67.4995 147.018C67.6675 147.186 67.7515 147.394 67.7515 147.642C67.7515 147.89 67.6675 148.098 67.4995 148.266C67.3315 148.434 67.1275 148.518 66.8875 148.518ZM67.5595 149.394V156.006H66.1915V149.394H67.5595ZM70.5675 154.89H73.5675V156.006H68.9835V154.89L71.9955 150.51H68.9835V149.394H73.5675V150.51L70.5675 154.89ZM81.064 152.538C81.064 152.786 81.048 153.01 81.016 153.21H75.964C76.004 153.738 76.2 154.162 76.552 154.482C76.904 154.802 77.336 154.962 77.848 154.962C78.584 154.962 79.104 154.654 79.408 154.038H80.884C80.684 154.646 80.32 155.146 79.792 155.538C79.272 155.922 78.624 156.114 77.848 156.114C77.216 156.114 76.648 155.974 76.144 155.694C75.648 155.406 75.256 155.006 74.968 154.494C74.688 153.974 74.548 153.374 74.548 152.694C74.548 152.014 74.684 151.418 74.956 150.906C75.236 150.386 75.624 149.986 76.12 149.706C76.624 149.426 77.2 149.286 77.848 149.286C78.472 149.286 79.028 149.422 79.516 149.694C80.004 149.966 80.384 150.35 80.656 150.846C80.928 151.334 81.064 151.898 81.064 152.538ZM79.636 152.106C79.628 151.602 79.448 151.198 79.096 150.894C78.744 150.59 78.308 150.438 77.788 150.438C77.316 150.438 76.912 150.59 76.576 150.894C76.24 151.19 76.04 151.594 75.976 152.106H79.636ZM87.9274 156.114C87.4074 156.114 86.9394 156.022 86.5234 155.838C86.1154 155.646 85.7914 155.39 85.5514 155.07C85.3114 154.742 85.1834 154.378 85.1674 153.978H86.5834C86.6074 154.258 86.7394 154.494 86.9794 154.686C87.2274 154.87 87.5354 154.962 87.9034 154.962C88.2874 154.962 88.5834 154.89 88.7914 154.746C89.0074 154.594 89.1154 154.402 89.1154 154.17C89.1154 153.922 88.9954 153.738 88.7554 153.618C88.5234 153.498 88.1514 153.366 87.6394 153.222C87.1434 153.086 86.7394 152.954 86.4274 152.826C86.1154 152.698 85.8434 152.502 85.6114 152.238C85.3874 151.974 85.2754 151.626 85.2754 151.194C85.2754 150.842 85.3794 150.522 85.5874 150.234C85.7954 149.938 86.0914 149.706 86.4754 149.538C86.8674 149.37 87.3154 149.286 87.8194 149.286C88.5714 149.286 89.1754 149.478 89.6314 149.862C90.0954 150.238 90.3434 150.754 90.3754 151.41H89.0074C88.9834 151.114 88.8634 150.878 88.6474 150.702C88.4314 150.526 88.1394 150.438 87.7714 150.438C87.4114 150.438 87.1354 150.506 86.9434 150.642C86.7514 150.778 86.6554 150.958 86.6554 151.182C86.6554 151.358 86.7194 151.506 86.8474 151.626C86.9754 151.746 87.1314 151.842 87.3154 151.914C87.4994 151.978 87.7714 152.062 88.1314 152.166C88.6114 152.294 89.0034 152.426 89.3074 152.562C89.6194 152.69 89.8874 152.882 90.1114 153.138C90.3354 153.394 90.4514 153.734 90.4594 154.158C90.4594 154.534 90.3554 154.87 90.1474 155.166C89.9394 155.462 89.6434 155.694 89.2594 155.862C88.8834 156.03 88.4394 156.114 87.9274 156.114ZM95.3576 149.286C95.8616 149.286 96.3096 149.394 96.7016 149.61C97.1016 149.826 97.4136 150.146 97.6376 150.57C97.8696 150.994 97.9856 151.506 97.9856 152.106V156.006H96.6296V152.31C96.6296 151.718 96.4816 151.266 96.1856 150.954C95.8896 150.634 95.4856 150.474 94.9736 150.474C94.4616 150.474 94.0536 150.634 93.7496 150.954C93.4536 151.266 93.3056 151.718 93.3056 152.31V156.006H91.9376V147.126H93.3056V150.162C93.5376 149.882 93.8296 149.666 94.1816 149.514C94.5416 149.362 94.9336 149.286 95.3576 149.286ZM102.599 156.114C101.975 156.114 101.411 155.974 100.907 155.694C100.403 155.406 100.007 155.006 99.7185 154.494C99.4305 153.974 99.2865 153.374 99.2865 152.694C99.2865 152.022 99.4345 151.426 99.7305 150.906C100.027 150.386 100.431 149.986 100.943 149.706C101.455 149.426 102.027 149.286 102.659 149.286C103.291 149.286 103.863 149.426 104.375 149.706C104.887 149.986 105.291 150.386 105.587 150.906C105.883 151.426 106.031 152.022 106.031 152.694C106.031 153.366 105.879 153.962 105.575 154.482C105.271 155.002 104.855 155.406 104.327 155.694C103.807 155.974 103.231 156.114 102.599 156.114ZM102.599 154.926C102.951 154.926 103.279 154.842 103.583 154.674C103.895 154.506 104.147 154.254 104.339 153.918C104.531 153.582 104.627 153.174 104.627 152.694C104.627 152.214 104.535 151.81 104.351 151.482C104.167 151.146 103.923 150.894 103.619 150.726C103.315 150.558 102.987 150.474 102.635 150.474C102.283 150.474 101.955 150.558 101.651 150.726C101.355 150.894 101.119 151.146 100.943 151.482C100.767 151.81 100.679 152.214 100.679 152.694C100.679 153.406 100.859 153.958 101.219 154.35C101.587 154.734 102.047 154.926 102.599 154.926ZM113.371 149.394V156.006H112.003V155.226C111.787 155.498 111.503 155.714 111.151 155.874C110.807 156.026 110.439 156.102 110.047 156.102C109.527 156.102 109.059 155.994 108.643 155.778C108.235 155.562 107.911 155.242 107.671 154.818C107.439 154.394 107.323 153.882 107.323 153.282V149.394H108.679V153.078C108.679 153.67 108.827 154.126 109.123 154.446C109.419 154.758 109.823 154.914 110.335 154.914C110.847 154.914 111.251 154.758 111.547 154.446C111.851 154.126 112.003 153.67 112.003 153.078V149.394H113.371ZM116.544 147.126V156.006H115.176V147.126H116.544ZM117.884 152.67C117.884 152.006 118.02 151.418 118.292 150.906C118.572 150.394 118.948 149.998 119.42 149.718C119.9 149.43 120.432 149.286 121.016 149.286C121.448 149.286 121.872 149.382 122.288 149.574C122.712 149.758 123.048 150.006 123.296 150.318V147.126H124.676V156.006H123.296V155.01C123.072 155.33 122.76 155.594 122.36 155.802C121.968 156.01 121.516 156.114 121.004 156.114C120.428 156.114 119.9 155.97 119.42 155.682C118.948 155.386 118.572 154.978 118.292 154.458C118.02 153.93 117.884 153.334 117.884 152.67ZM123.296 152.694C123.296 152.238 123.2 151.842 123.008 151.506C122.824 151.17 122.58 150.914 122.276 150.738C121.972 150.562 121.644 150.474 121.292 150.474C120.94 150.474 120.612 150.562 120.308 150.738C120.004 150.906 119.756 151.158 119.564 151.494C119.38 151.822 119.288 152.214 119.288 152.67C119.288 153.126 119.38 153.526 119.564 153.87C119.756 154.214 120.004 154.478 120.308 154.662C120.62 154.838 120.948 154.926 121.292 154.926C121.644 154.926 121.972 154.838 122.276 154.662C122.58 154.486 122.824 154.23 123.008 153.894C123.2 153.55 123.296 153.15 123.296 152.694ZM130.958 150.378C131.19 150.058 131.506 149.798 131.906 149.598C132.314 149.39 132.766 149.286 133.262 149.286C133.846 149.286 134.374 149.426 134.846 149.706C135.318 149.986 135.69 150.386 135.962 150.906C136.234 151.418 136.37 152.006 136.37 152.67C136.37 153.334 136.234 153.93 135.962 154.458C135.69 154.978 135.314 155.386 134.834 155.682C134.362 155.97 133.838 156.114 133.262 156.114C132.75 156.114 132.294 156.014 131.894 155.814C131.502 155.614 131.19 155.358 130.958 155.046V156.006H129.59V147.126H130.958V150.378ZM134.978 152.67C134.978 152.214 134.882 151.822 134.69 151.494C134.506 151.158 134.258 150.906 133.946 150.738C133.642 150.562 133.314 150.474 132.962 150.474C132.618 150.474 132.29 150.562 131.978 150.738C131.674 150.914 131.426 151.17 131.234 151.506C131.05 151.842 130.958 152.238 130.958 152.694C130.958 153.15 131.05 153.55 131.234 153.894C131.426 154.23 131.674 154.486 131.978 154.662C132.29 154.838 132.618 154.926 132.962 154.926C133.314 154.926 133.642 154.838 133.946 154.662C134.258 154.478 134.506 154.214 134.69 153.87C134.882 153.526 134.978 153.126 134.978 152.67ZM143.783 152.538C143.783 152.786 143.767 153.01 143.735 153.21H138.683C138.723 153.738 138.919 154.162 139.271 154.482C139.623 154.802 140.055 154.962 140.567 154.962C141.303 154.962 141.823 154.654 142.127 154.038H143.603C143.403 154.646 143.039 155.146 142.511 155.538C141.991 155.922 141.343 156.114 140.567 156.114C139.935 156.114 139.367 155.974 138.863 155.694C138.367 155.406 137.975 155.006 137.687 154.494C137.407 153.974 137.267 153.374 137.267 152.694C137.267 152.014 137.403 151.418 137.675 150.906C137.955 150.386 138.343 149.986 138.839 149.706C139.343 149.426 139.919 149.286 140.567 149.286C141.191 149.286 141.747 149.422 142.235 149.694C142.723 149.966 143.103 150.35 143.375 150.846C143.647 151.334 143.783 151.898 143.783 152.538ZM142.355 152.106C142.347 151.602 142.167 151.198 141.815 150.894C141.463 150.59 141.027 150.438 140.507 150.438C140.035 150.438 139.631 150.59 139.295 150.894C138.959 151.19 138.759 151.594 138.695 152.106H142.355ZM36.5758 172.114C36.0558 172.114 35.5878 172.022 35.1718 171.838C34.7638 171.646 34.4398 171.39 34.1998 171.07C33.9598 170.742 33.8318 170.378 33.8158 169.978H35.2318C35.2558 170.258 35.3878 170.494 35.6278 170.686C35.8758 170.87 36.1838 170.962 36.5518 170.962C36.9358 170.962 37.2318 170.89 37.4398 170.746C37.6558 170.594 37.7638 170.402 37.7638 170.17C37.7638 169.922 37.6438 169.738 37.4038 169.618C37.1718 169.498 36.7998 169.366 36.2878 169.222C35.7918 169.086 35.3878 168.954 35.0758 168.826C34.7638 168.698 34.4918 168.502 34.2598 168.238C34.0358 167.974 33.9238 167.626 33.9238 167.194C33.9238 166.842 34.0278 166.522 34.2358 166.234C34.4438 165.938 34.7398 165.706 35.1238 165.538C35.5158 165.37 35.9638 165.286 36.4678 165.286C37.2198 165.286 37.8238 165.478 38.2798 165.862C38.7438 166.238 38.9918 166.754 39.0238 167.41H37.6558C37.6318 167.114 37.5118 166.878 37.2958 166.702C37.0798 166.526 36.7878 166.438 36.4198 166.438C36.0598 166.438 35.7838 166.506 35.5918 166.642C35.3998 166.778 35.3038 166.958 35.3038 167.182C35.3038 167.358 35.3678 167.506 35.4958 167.626C35.6238 167.746 35.7798 167.842 35.9638 167.914C36.1478 167.978 36.4198 168.062 36.7798 168.166C37.2598 168.294 37.6518 168.426 37.9558 168.562C38.2678 168.69 38.5358 168.882 38.7598 169.138C38.9838 169.394 39.0998 169.734 39.1078 170.158C39.1078 170.534 39.0038 170.87 38.7958 171.166C38.5878 171.462 38.2918 171.694 37.9078 171.862C37.5318 172.03 37.0878 172.114 36.5758 172.114ZM48.59 165.286C49.11 165.286 49.574 165.394 49.982 165.61C50.398 165.826 50.722 166.146 50.954 166.57C51.194 166.994 51.314 167.506 51.314 168.106V172.006H49.958V168.31C49.958 167.718 49.81 167.266 49.514 166.954C49.218 166.634 48.814 166.474 48.302 166.474C47.79 166.474 47.382 166.634 47.078 166.954C46.782 167.266 46.634 167.718 46.634 168.31V172.006H45.278V168.31C45.278 167.718 45.13 167.266 44.834 166.954C44.538 166.634 44.134 166.474 43.622 166.474C43.11 166.474 42.702 166.634 42.398 166.954C42.102 167.266 41.954 167.718 41.954 168.31V172.006H40.586V165.394H41.954V166.15C42.178 165.878 42.462 165.666 42.806 165.514C43.15 165.362 43.518 165.286 43.91 165.286C44.438 165.286 44.91 165.398 45.326 165.622C45.742 165.846 46.062 166.17 46.286 166.594C46.486 166.194 46.798 165.878 47.222 165.646C47.646 165.406 48.102 165.286 48.59 165.286ZM52.5987 168.67C52.5987 168.006 52.7347 167.418 53.0067 166.906C53.2867 166.394 53.6627 165.998 54.1347 165.718C54.6147 165.43 55.1427 165.286 55.7187 165.286C56.2387 165.286 56.6907 165.39 57.0747 165.598C57.4667 165.798 57.7787 166.05 58.0107 166.354V165.394H59.3907V172.006H58.0107V171.022C57.7787 171.334 57.4627 171.594 57.0627 171.802C56.6627 172.01 56.2067 172.114 55.6947 172.114C55.1267 172.114 54.6067 171.97 54.1347 171.682C53.6627 171.386 53.2867 170.978 53.0067 170.458C52.7347 169.93 52.5987 169.334 52.5987 168.67ZM58.0107 168.694C58.0107 168.238 57.9147 167.842 57.7227 167.506C57.5387 167.17 57.2947 166.914 56.9907 166.738C56.6867 166.562 56.3587 166.474 56.0067 166.474C55.6547 166.474 55.3267 166.562 55.0227 166.738C54.7187 166.906 54.4707 167.158 54.2787 167.494C54.0947 167.822 54.0027 168.214 54.0027 168.67C54.0027 169.126 54.0947 169.526 54.2787 169.87C54.4707 170.214 54.7187 170.478 55.0227 170.662C55.3347 170.838 55.6627 170.926 56.0067 170.926C56.3587 170.926 56.6867 170.838 56.9907 170.662C57.2947 170.486 57.5387 170.23 57.7227 169.894C57.9147 169.55 58.0107 169.15 58.0107 168.694ZM62.5556 163.126V172.006H61.1876V163.126H62.5556ZM65.7196 163.126V172.006H64.3516V163.126H65.7196ZM70.1769 168.67C70.1769 168.006 70.3129 167.418 70.5849 166.906C70.8649 166.394 71.2409 165.998 71.7129 165.718C72.1929 165.43 72.7209 165.286 73.2969 165.286C73.8169 165.286 74.2689 165.39 74.6529 165.598C75.0449 165.798 75.3569 166.05 75.5889 166.354V165.394H76.9689V172.006H75.5889V171.022C75.3569 171.334 75.0409 171.594 74.6409 171.802C74.2409 172.01 73.7849 172.114 73.2729 172.114C72.7049 172.114 72.1849 171.97 71.7129 171.682C71.2409 171.386 70.8649 170.978 70.5849 170.458C70.3129 169.93 70.1769 169.334 70.1769 168.67ZM75.5889 168.694C75.5889 168.238 75.4929 167.842 75.3009 167.506C75.1169 167.17 74.8729 166.914 74.5689 166.738C74.2649 166.562 73.9369 166.474 73.5849 166.474C73.2329 166.474 72.9049 166.562 72.6009 166.738C72.2969 166.906 72.0489 167.158 71.8569 167.494C71.6729 167.822 71.5809 168.214 71.5809 168.67C71.5809 169.126 71.6729 169.526 71.8569 169.87C72.0489 170.214 72.2969 170.478 72.6009 170.662C72.9129 170.838 73.2409 170.926 73.5849 170.926C73.9369 170.926 74.2649 170.838 74.5689 170.662C74.8729 170.486 75.1169 170.23 75.3009 169.894C75.4929 169.55 75.5889 169.15 75.5889 168.694ZM82.1017 165.286C82.6217 165.286 83.0857 165.394 83.4937 165.61C83.9097 165.826 84.2337 166.146 84.4657 166.57C84.6977 166.994 84.8137 167.506 84.8137 168.106V172.006H83.4577V168.31C83.4577 167.718 83.3097 167.266 83.0137 166.954C82.7177 166.634 82.3137 166.474 81.8017 166.474C81.2897 166.474 80.8817 166.634 80.5777 166.954C80.2817 167.266 80.1337 167.718 80.1337 168.31V172.006H78.7657V165.394H80.1337V166.15C80.3577 165.878 80.6417 165.666 80.9857 165.514C81.3377 165.362 81.7097 165.286 82.1017 165.286ZM86.1027 168.67C86.1027 168.006 86.2387 167.418 86.5107 166.906C86.7907 166.394 87.1667 165.998 87.6387 165.718C88.1187 165.43 88.6507 165.286 89.2347 165.286C89.6667 165.286 90.0907 165.382 90.5067 165.574C90.9307 165.758 91.2667 166.006 91.5147 166.318V163.126H92.8947V172.006H91.5147V171.01C91.2907 171.33 90.9787 171.594 90.5787 171.802C90.1867 172.01 89.7347 172.114 89.2227 172.114C88.6467 172.114 88.1187 171.97 87.6387 171.682C87.1667 171.386 86.7907 170.978 86.5107 170.458C86.2387 169.93 86.1027 169.334 86.1027 168.67ZM91.5147 168.694C91.5147 168.238 91.4187 167.842 91.2267 167.506C91.0427 167.17 90.7987 166.914 90.4947 166.738C90.1907 166.562 89.8627 166.474 89.5107 166.474C89.1587 166.474 88.8307 166.562 88.5267 166.738C88.2227 166.906 87.9747 167.158 87.7827 167.494C87.5987 167.822 87.5067 168.214 87.5067 168.67C87.5067 169.126 87.5987 169.526 87.7827 169.87C87.9747 170.214 88.2227 170.478 88.5267 170.662C88.8387 170.838 89.1667 170.926 89.5107 170.926C89.8627 170.926 90.1907 170.838 90.4947 170.662C90.7987 170.486 91.0427 170.23 91.2267 169.894C91.4187 169.55 91.5147 169.15 91.5147 168.694ZM97.3527 168.694C97.3527 168.014 97.4887 167.418 97.7607 166.906C98.0407 166.386 98.4247 165.986 98.9127 165.706C99.4007 165.426 99.9607 165.286 100.593 165.286C101.393 165.286 102.053 165.478 102.573 165.862C103.101 166.238 103.457 166.778 103.641 167.482H102.165C102.045 167.154 101.853 166.898 101.589 166.714C101.325 166.53 100.993 166.438 100.593 166.438C100.033 166.438 99.5847 166.638 99.2487 167.038C98.9207 167.43 98.7567 167.982 98.7567 168.694C98.7567 169.406 98.9207 169.962 99.2487 170.362C99.5847 170.762 100.033 170.962 100.593 170.962C101.385 170.962 101.909 170.614 102.165 169.918H103.641C103.449 170.59 103.089 171.126 102.561 171.526C102.033 171.918 101.377 172.114 100.593 172.114C99.9607 172.114 99.4007 171.974 98.9127 171.694C98.4247 171.406 98.0407 171.006 97.7607 170.494C97.4887 169.974 97.3527 169.374 97.3527 168.694ZM106.372 163.126V172.006H105.004V163.126H106.372ZM114.228 168.538C114.228 168.786 114.212 169.01 114.18 169.21H109.128C109.168 169.738 109.364 170.162 109.716 170.482C110.068 170.802 110.5 170.962 111.012 170.962C111.748 170.962 112.268 170.654 112.572 170.038H114.048C113.848 170.646 113.484 171.146 112.956 171.538C112.436 171.922 111.788 172.114 111.012 172.114C110.38 172.114 109.812 171.974 109.308 171.694C108.812 171.406 108.42 171.006 108.132 170.494C107.852 169.974 107.712 169.374 107.712 168.694C107.712 168.014 107.848 167.418 108.12 166.906C108.4 166.386 108.788 165.986 109.284 165.706C109.788 165.426 110.364 165.286 111.012 165.286C111.636 165.286 112.192 165.422 112.68 165.694C113.168 165.966 113.548 166.35 113.82 166.846C114.092 167.334 114.228 167.898 114.228 168.538ZM112.8 168.106C112.792 167.602 112.612 167.198 112.26 166.894C111.908 166.59 111.472 166.438 110.952 166.438C110.48 166.438 110.076 166.59 109.74 166.894C109.404 167.19 109.204 167.594 109.14 168.106H112.8ZM115.118 168.67C115.118 168.006 115.254 167.418 115.526 166.906C115.806 166.394 116.182 165.998 116.654 165.718C117.134 165.43 117.662 165.286 118.238 165.286C118.758 165.286 119.21 165.39 119.594 165.598C119.986 165.798 120.298 166.05 120.53 166.354V165.394H121.91V172.006H120.53V171.022C120.298 171.334 119.982 171.594 119.582 171.802C119.182 172.01 118.726 172.114 118.214 172.114C117.646 172.114 117.126 171.97 116.654 171.682C116.182 171.386 115.806 170.978 115.526 170.458C115.254 169.93 115.118 169.334 115.118 168.67ZM120.53 168.694C120.53 168.238 120.434 167.842 120.242 167.506C120.058 167.17 119.814 166.914 119.51 166.738C119.206 166.562 118.878 166.474 118.526 166.474C118.174 166.474 117.846 166.562 117.542 166.738C117.238 166.906 116.99 167.158 116.798 167.494C116.614 167.822 116.522 168.214 116.522 168.67C116.522 169.126 116.614 169.526 116.798 169.87C116.99 170.214 117.238 170.478 117.542 170.662C117.854 170.838 118.182 170.926 118.526 170.926C118.878 170.926 119.206 170.838 119.51 170.662C119.814 170.486 120.058 170.23 120.242 169.894C120.434 169.55 120.53 169.15 120.53 168.694ZM125.075 166.354C125.275 166.018 125.539 165.758 125.867 165.574C126.203 165.382 126.599 165.286 127.055 165.286V166.702H126.707C126.171 166.702 125.763 166.838 125.483 167.11C125.211 167.382 125.075 167.854 125.075 168.526V172.006H123.707V165.394H125.075V166.354Z" fill="black"/>
<path d="M133.452 142.631V129.049C133.452 121.845 130.655 114.935 125.675 109.841C120.695 104.747 113.941 101.885 106.898 101.885H53.7901C46.7475 101.885 39.9934 104.747 35.0135 109.841C30.0337 114.935 27.236 121.845 27.236 129.049V142.631" stroke="#999999" stroke-width="2" stroke-linecap="round" stroke-linejoin="round"/>
<path d="M80.3442 74.7202C95.0096 74.7202 106.898 62.5583 106.898 47.5558C106.898 32.5533 95.0096 20.3914 80.3442 20.3914C65.6788 20.3914 53.7901 32.5533 53.7901 47.5558C53.7901 62.5583 65.6788 74.7202 80.3442 74.7202Z" stroke="#999999" stroke-width="2" stroke-linecap="round" stroke-linejoin="round"/>
</svg>
