<svg width="24" height="24" viewBox="0 0 24 24" fill="none" xmlns="http://www.w3.org/2000/svg">
<g clip-path="url(#clip0_9245_528)">
<path d="M4.34294 10.9999H0C0.00158784 9.67433 0.528875 8.40348 1.4662 7.46614C2.40353 6.52881 3.67436 6.00151 4.99993 5.99992H10.9999V1.63592C11 1.36065 11.0696 1.08987 11.2022 0.848629C11.3348 0.607385 11.526 0.403465 11.7583 0.255731C11.9906 0.107997 12.2563 0.0212198 12.531 0.00342458C12.8057 -0.0143706 13.0804 0.0373912 13.3298 0.153923L16.5298 1.65392C16.6745 1.74361 16.7939 1.86875 16.8767 2.0175C16.9595 2.16625 17.003 2.33368 17.003 2.50392C17.003 2.67417 16.9595 2.8416 16.8767 2.99035C16.7939 3.1391 16.6745 3.26424 16.5298 3.35392L12.9998 4.99992V5.99992H18.9998C20.3253 6.00151 21.5962 6.52881 22.5335 7.46614C23.4708 8.40348 23.9981 9.67433 23.9997 10.9999H19.6567C18.8755 11.0001 18.1249 10.6955 17.5648 10.1509L14.8288 7.17192C14.0641 6.43443 13.0416 6.02483 11.9792 6.03043C10.9169 6.03604 9.89875 6.45641 9.14188 7.20192L6.46392 10.1209C5.90039 10.682 5.13815 10.9979 4.34294 10.9999ZM11.9998 18.9999C11.7346 18.9999 11.4803 19.1053 11.2927 19.2928C11.1052 19.4804 10.9999 19.7347 10.9999 19.9999V23.9999H12.9998V19.9999C12.9998 19.7347 12.8945 19.4804 12.7069 19.2928C12.5194 19.1053 12.2651 18.9999 11.9998 18.9999ZM19.6567 12.9999H23.9997V20.9999C23.9997 21.7956 23.6836 22.5586 23.121 23.1212C22.5584 23.6839 21.7954 23.9999 20.9997 23.9999H14.9998V19.9999C14.9998 19.2043 14.6837 18.4412 14.1211 17.8786C13.5585 17.316 12.7955 16.9999 11.9998 16.9999C11.2042 16.9999 10.4412 17.316 9.87855 17.8786C9.31595 18.4412 8.99988 19.2043 8.99988 19.9999V23.9999H2.99996C2.20432 23.9999 1.44127 23.6839 0.878668 23.1212C0.316066 22.5586 0 21.7956 0 20.9999L0 12.9999H4.34294C5.00669 13.0002 5.66383 12.8681 6.27594 12.6114C6.88805 12.3547 7.44284 11.9785 7.9079 11.5049L10.5859 8.58592C10.964 8.23114 11.4615 8.0312 11.98 8.02564C12.4985 8.02009 13.0002 8.20933 13.3858 8.55592L16.1238 11.5349C16.5867 12.0004 17.1372 12.3696 17.7436 12.621C18.35 12.8725 19.0003 13.0013 19.6567 12.9999ZM5.99992 20.9999C5.99992 20.7347 5.89457 20.4804 5.70703 20.2928C5.5195 20.1053 5.26515 19.9999 4.99993 19.9999H3.99995C3.73473 19.9999 3.48038 20.1053 3.29285 20.2928C3.10532 20.4804 2.99996 20.7347 2.99996 20.9999C2.99996 21.2651 3.10532 21.5195 3.29285 21.707C3.48038 21.8946 3.73473 21.9999 3.99995 21.9999H4.99993C5.26515 21.9999 5.5195 21.8946 5.70703 21.707C5.89457 21.5195 5.99992 21.2651 5.99992 20.9999ZM5.99992 16.9999C5.99992 16.7347 5.89457 16.4804 5.70703 16.2928C5.5195 16.1053 5.26515 15.9999 4.99993 15.9999H3.99995C3.73473 15.9999 3.48038 16.1053 3.29285 16.2928C3.10532 16.4804 2.99996 16.7347 2.99996 16.9999C2.99996 17.2651 3.10532 17.5195 3.29285 17.707C3.48038 17.8946 3.73473 17.9999 3.99995 17.9999H4.99993C5.26515 17.9999 5.5195 17.8946 5.70703 17.707C5.89457 17.5195 5.99992 17.2651 5.99992 16.9999ZM13.9998 12.9999C13.9998 12.6044 13.8825 12.2177 13.6628 11.8888C13.443 11.5599 13.1306 11.3035 12.7652 11.1522C12.3998 11.0008 11.9976 10.9612 11.6097 11.0384C11.2217 11.1155 10.8653 11.306 10.5856 11.5857C10.3059 11.8654 10.1155 12.2218 10.0383 12.6097C9.96113 12.9977 10.0007 13.3998 10.1521 13.7653C10.3035 14.1307 10.5598 14.4431 10.8887 14.6629C11.2176 14.8826 11.6043 14.9999 11.9998 14.9999C12.5303 14.9999 13.039 14.7892 13.414 14.4141C13.7891 14.0391 13.9998 13.5304 13.9998 12.9999ZM20.9997 20.9999C20.9997 20.7347 20.8944 20.4804 20.7068 20.2928C20.5193 20.1053 20.265 19.9999 19.9997 19.9999H18.9998C18.7345 19.9999 18.4802 20.1053 18.2927 20.2928C18.1051 20.4804 17.9998 20.7347 17.9998 20.9999C17.9998 21.2651 18.1051 21.5195 18.2927 21.707C18.4802 21.8946 18.7345 21.9999 18.9998 21.9999H19.9997C20.265 21.9999 20.5193 21.8946 20.7068 21.707C20.8944 21.5195 20.9997 21.2651 20.9997 20.9999ZM19.9997 15.9999H18.9998C18.7345 15.9999 18.4802 16.1053 18.2927 16.2928C18.1051 16.4804 17.9998 16.7347 17.9998 16.9999C17.9998 17.2651 18.1051 17.5195 18.2927 17.707C18.4802 17.8946 18.7345 17.9999 18.9998 17.9999H19.9997C20.265 17.9999 20.5193 17.8946 20.7068 17.707C20.8944 17.5195 20.9997 17.2651 20.9997 16.9999C20.9997 16.7347 20.8944 16.4804 20.7068 16.2928C20.5193 16.1053 20.265 15.9999 19.9997 15.9999Z" fill="#9E9E9E"/>
</g>
<defs>
<clipPath id="clip0_9245_528">
<rect width="23.9997" height="24" fill="white"/>
</clipPath>
</defs>
</svg>
