<svg width="72" height="60" viewBox="0 0 72 60" fill="none" xmlns="http://www.w3.org/2000/svg">
<g clip-path="url(#clip0_14855_1438)">
<path d="M28.3429 28.9999H24C24.0016 27.6743 24.5289 26.4035 25.4662 25.4661C26.4035 24.5288 27.6744 24.0015 28.9999 23.9999H34.9999V19.6359C35 19.3607 35.0696 19.0899 35.2022 18.8486C35.3348 18.6074 35.526 18.4035 35.7583 18.2557C35.9906 18.108 36.2563 18.0212 36.531 18.0034C36.8057 17.9856 37.0804 18.0374 37.3298 18.1539L40.5298 19.6539C40.6745 19.7436 40.7939 19.8687 40.8767 20.0175C40.9595 20.1662 41.003 20.3337 41.003 20.5039C41.003 20.6742 40.9595 20.8416 40.8767 20.9903C40.7939 21.1391 40.6745 21.2642 40.5298 21.3539L36.9998 22.9999V23.9999H42.9998C44.3253 24.0015 45.5962 24.5288 46.5335 25.4661C47.4708 26.4035 47.9981 27.6743 47.9997 28.9999H43.6567C42.8755 29.0001 42.1249 28.6955 41.5648 28.1509L38.8288 25.1719C38.0641 24.4344 37.0416 24.0248 35.9792 24.0304C34.9169 24.036 33.8987 24.4564 33.1419 25.2019L30.4639 28.1209C29.9004 28.682 29.1381 28.9979 28.3429 28.9999ZM35.9998 36.9999C35.7346 36.9999 35.4803 37.1053 35.2927 37.2928C35.1052 37.4804 34.9999 37.7347 34.9999 37.9999V41.9999H36.9998V37.9999C36.9998 37.7347 36.8945 37.4804 36.7069 37.2928C36.5194 37.1053 36.2651 36.9999 35.9998 36.9999ZM43.6567 30.9999H47.9997V38.9999C47.9997 39.7956 47.6836 40.5586 47.121 41.1212C46.5584 41.6839 45.7954 41.9999 44.9997 41.9999H38.9998V37.9999C38.9998 37.2043 38.6837 36.4412 38.1211 35.8786C37.5585 35.316 36.7955 34.9999 35.9998 34.9999C35.2042 34.9999 34.4412 35.316 33.8785 35.8786C33.3159 36.4412 32.9999 37.2043 32.9999 37.9999V41.9999H27C26.2043 41.9999 25.4413 41.6839 24.8787 41.1212C24.3161 40.5586 24 39.7956 24 38.9999V30.9999H28.3429C29.0067 31.0002 29.6638 30.8681 30.2759 30.6114C30.888 30.3547 31.4428 29.9785 31.9079 29.5049L34.5859 26.5859C34.964 26.2311 35.4615 26.0312 35.98 26.0256C36.4985 26.0201 37.0002 26.2093 37.3858 26.5559L40.1238 29.5349C40.5867 30.0004 41.1372 30.3696 41.7436 30.621C42.35 30.8725 43.0003 31.0013 43.6567 30.9999ZM29.9999 38.9999C29.9999 38.7347 29.8946 38.4804 29.707 38.2928C29.5195 38.1053 29.2651 37.9999 28.9999 37.9999H27.9999C27.7347 37.9999 27.4804 38.1053 27.2928 38.2928C27.1053 38.4804 27 38.7347 27 38.9999C27 39.2651 27.1053 39.5195 27.2928 39.707C27.4804 39.8946 27.7347 39.9999 27.9999 39.9999H28.9999C29.2651 39.9999 29.5195 39.8946 29.707 39.707C29.8946 39.5195 29.9999 39.2651 29.9999 38.9999ZM29.9999 34.9999C29.9999 34.7347 29.8946 34.4804 29.707 34.2928C29.5195 34.1053 29.2651 33.9999 28.9999 33.9999H27.9999C27.7347 33.9999 27.4804 34.1053 27.2928 34.2928C27.1053 34.4804 27 34.7347 27 34.9999C27 35.2651 27.1053 35.5195 27.2928 35.707C27.4804 35.8946 27.7347 35.9999 27.9999 35.9999H28.9999C29.2651 35.9999 29.5195 35.8946 29.707 35.707C29.8946 35.5195 29.9999 35.2651 29.9999 34.9999ZM37.9998 30.9999C37.9998 30.6044 37.8825 30.2177 37.6628 29.8888C37.443 29.5599 37.1306 29.3035 36.7652 29.1522C36.3998 29.0008 35.9976 28.9612 35.6097 29.0384C35.2217 29.1155 34.8653 29.306 34.5856 29.5857C34.3059 29.8654 34.1155 30.2218 34.0383 30.6097C33.9611 30.9977 34.0007 31.3998 34.1521 31.7653C34.3035 32.1307 34.5598 32.4431 34.8887 32.6629C35.2176 32.8826 35.6043 32.9999 35.9998 32.9999C36.5303 32.9999 37.039 32.7892 37.414 32.4141C37.7891 32.0391 37.9998 31.5304 37.9998 30.9999ZM44.9997 38.9999C44.9997 38.7347 44.8944 38.4804 44.7068 38.2928C44.5193 38.1053 44.265 37.9999 43.9997 37.9999H42.9998C42.7345 37.9999 42.4802 38.1053 42.2927 38.2928C42.1051 38.4804 41.9998 38.7347 41.9998 38.9999C41.9998 39.2651 42.1051 39.5195 42.2927 39.707C42.4802 39.8946 42.7345 39.9999 42.9998 39.9999H43.9997C44.265 39.9999 44.5193 39.8946 44.7068 39.707C44.8944 39.5195 44.9997 39.2651 44.9997 38.9999ZM43.9997 33.9999H42.9998C42.7345 33.9999 42.4802 34.1053 42.2927 34.2928C42.1051 34.4804 41.9998 34.7347 41.9998 34.9999C41.9998 35.2651 42.1051 35.5195 42.2927 35.707C42.4802 35.8946 42.7345 35.9999 42.9998 35.9999H43.9997C44.265 35.9999 44.5193 35.8946 44.7068 35.707C44.8944 35.5195 44.9997 35.2651 44.9997 34.9999C44.9997 34.7347 44.8944 34.4804 44.7068 34.2928C44.5193 34.1053 44.265 33.9999 43.9997 33.9999Z" fill="#949494"/>
</g>
<defs>
<clipPath id="clip0_14855_1438">
<rect width="23.9997" height="24" fill="white" transform="translate(24 18)"/>
</clipPath>
</defs>
</svg>
