<svg width="702" height="460" viewBox="0 0 702 460" fill="none" xmlns="http://www.w3.org/2000/svg">
<path d="M35.4236 448.95C9.06364 423.65 -4.92635 384.5 4.39365 349.17C13.7036 313.85 48.5436 285.55 84.9736 288.27C97.4636 289.2 112.484 292.53 120.554 282.96C123.514 279.45 124.764 274.84 125.824 270.36C131.244 247.47 134.624 222.36 151.014 205.49C163.654 192.49 182.024 186.78 199.934 183.99C255.184 175.37 313.794 190.96 357.444 225.91C362.744 230.15 368.574 234.92 375.344 234.5C382.364 234.06 387.644 228.22 392.284 222.93C411.264 201.33 433.664 181.62 460.784 172.08C487.914 162.54 520.494 164.8 542.394 183.44C549.204 169.57 567.584 165.32 582.714 168.42C610.464 174.11 631.594 198.5 640.354 225.43C649.114 252.36 647.414 281.55 643.364 309.59C660.384 313.84 678.694 318.89 689.504 332.7C700.554 346.81 700.824 366.39 699.224 384.24C697.354 405.08 692.724 427.43 677.104 441.35" fill="#F2F8FF"/>
<path d="M36.4836 447.89C18.2836 430.25 5.85362 406.26 3.44362 380.89C1.10362 356.31 8.79362 332.11 25.9536 314.19C34.2136 305.56 44.3036 298.56 55.4836 294.28C66.6636 290 77.7336 289.03 89.3836 290.17C99.2436 291.14 111.414 293.04 119.634 286.01C124.174 282.12 125.924 276.38 127.274 270.76C128.764 264.52 130.054 258.24 131.504 251.99C134.364 239.68 137.764 227.2 144.474 216.37C151.594 204.86 162.424 196.83 174.934 191.96C199.004 182.58 227.024 181.59 252.444 184.39C277.864 187.19 305.034 195.52 328.454 208.39C339.844 214.65 349.944 222.29 360.304 230.06C365.004 233.59 370.494 236.73 376.584 235.88C382.214 235.09 386.714 231.19 390.474 227.2C399.414 217.71 407.904 208.03 417.844 199.53C427.784 191.03 439.564 182.92 451.974 177.25C474.874 166.8 502.464 164.29 525.834 174.79C531.424 177.3 536.624 180.58 541.324 184.51C542.024 185.09 543.204 185.13 543.684 184.21C549.454 173 562.344 168.7 574.304 168.99C586.264 169.28 599.034 174.72 608.884 182.25C631.294 199.39 642.144 226.86 644.544 254.29C646.144 272.62 644.514 291.06 641.924 309.21C641.814 310 642.104 310.84 642.974 311.06C663.544 316.21 686.384 323.02 694.564 344.88C698.394 355.12 698.814 366.29 698.254 377.1C697.694 387.94 696.404 398.89 693.584 409.39C690.444 421.08 685.094 432.08 676.044 440.32C674.614 441.62 676.744 443.74 678.164 442.44C695.154 426.98 699.384 402.84 700.994 380.97C701.834 369.54 701.804 357.64 698.314 346.62C694.994 336.12 688.394 327.45 679.164 321.43C668.524 314.49 655.934 311.21 643.754 308.17L644.804 310.02C649.454 277.51 651.334 242.31 636.474 211.98C625.094 188.75 602.754 167.51 575.714 166.06C562.334 165.34 547.544 170.14 541.074 182.71L543.434 182.41C524.584 166.62 498.944 162.38 475.184 166.73C448.994 171.52 426.074 187.05 407.144 205.18C402.134 209.98 397.344 215 392.734 220.18C388.404 225.04 383.734 231.37 376.984 232.79C369.284 234.41 362.694 228.18 357.154 223.82C352.004 219.77 346.664 215.97 341.144 212.45C318.594 198.07 293.144 188.24 266.824 183.49C240.504 178.74 214.024 178.72 188.534 184.68C176.094 187.59 163.834 192.4 153.964 200.7C144.094 209 138.154 219.94 134.024 231.69C129.894 243.44 127.444 256.82 124.464 269.46C122.884 276.16 120.724 282.98 113.994 286.08C108.424 288.65 101.844 288.29 95.8936 287.81C89.9336 287.33 84.0036 286.46 78.0036 286.65C72.3136 286.83 66.6436 287.73 61.1636 289.25C50.2836 292.29 40.1836 297.82 31.4636 304.97C13.0536 320.09 1.68362 342.2 0.183618 366.02C-1.39638 391.13 7.32362 416.46 22.3536 436.43C26.0036 441.27 30.0036 445.8 34.3636 450.02C35.7536 451.36 37.8736 449.25 36.4836 447.9V447.89Z" fill="#F2F8FF"/>
<g style="mix-blend-mode:multiply">
<path d="M35.4236 448.95C9.06364 427.97 -4.92635 395.5 4.39365 366.21C13.7036 336.92 48.5436 313.46 84.9736 315.71C97.4636 316.48 112.484 319.25 120.554 311.31C123.514 308.4 124.764 304.57 125.824 300.86C131.244 281.88 134.624 261.05 151.014 247.07C163.654 236.29 182.024 231.56 199.934 229.24C255.184 222.09 313.794 235.02 357.444 264C362.744 267.52 368.574 271.47 375.344 271.12C382.364 270.75 387.644 265.91 392.284 261.53C411.264 243.62 433.664 227.27 460.784 219.36C487.914 211.45 520.494 213.32 542.394 228.78C549.204 217.28 567.584 213.75 582.714 216.33C610.464 221.05 631.594 241.27 640.354 263.61C649.114 285.94 647.414 310.15 643.364 333.4C660.384 336.92 678.694 341.11 689.504 352.57C700.554 364.27 700.824 380.51 699.224 395.31C697.354 412.59 692.724 431.13 677.104 442.67" fill="#F2F8FF"/>
<path d="M36.3936 447.99C18.5036 433.59 4.5736 412.7 3.0236 389.29C1.5236 366.76 12.7736 346.69 30.6136 333.47C39.6536 326.78 50.0536 321.92 60.9736 319.25C72.5636 316.42 83.7036 317.07 95.4636 317.88C104.854 318.53 116.784 318.84 123.074 310.45C126.234 306.25 127.294 300.75 128.634 295.77C130.114 290.26 131.524 284.73 133.244 279.29C136.744 268.22 141.714 257.53 150.324 249.49C159.564 240.87 171.864 236.27 183.984 233.43C208.794 227.63 235.304 227.4 260.494 230.54C285.684 233.68 310.564 240.75 333.424 251.86C338.814 254.48 344.094 257.33 349.234 260.42C354.374 263.51 359.224 267.31 364.624 269.93C369.414 272.25 374.734 273.31 379.914 271.64C384.824 270.06 388.804 266.63 392.504 263.17C410.804 246.1 431.064 230.94 454.924 222.64C477.604 214.76 503.634 213.28 526.354 221.86C531.794 223.91 536.924 226.62 541.704 229.93C542.324 230.36 543.204 230.03 543.574 229.44C549.544 219.84 562.174 216.93 572.754 216.87C584.664 216.8 596.534 220.54 606.764 226.52C628.244 239.08 641.434 261.14 644.474 285.6C646.434 301.4 644.744 317.39 642.064 333C641.944 333.69 642.244 334.52 643.014 334.68C660.994 338.41 683.664 342.64 693.444 360.18C698.134 368.6 698.934 378.5 698.474 387.95C698.024 397.06 696.734 406.31 694.044 415.04C690.844 425.44 685.184 434.81 676.434 441.44C675.054 442.49 676.414 444.86 677.814 443.8C693.804 431.7 699.034 412.31 700.824 393.19C701.774 383.06 701.684 372.44 697.764 362.89C693.844 353.34 686.914 347.1 678.324 342.63C667.584 337.03 655.514 334.49 643.754 332.05L644.704 333.73C649.544 305.59 650.924 274.76 634.804 249.77C621.654 229.39 598.444 214.42 573.784 214.14C561.894 214.01 547.924 217.31 541.234 228.06L543.104 227.57C523.664 214.08 498.434 211.29 475.484 214.72C450.994 218.38 428.494 230.17 409.114 245.23C404.104 249.12 399.264 253.24 394.584 257.52C389.904 261.8 385.644 266.7 379.714 268.82C372.574 271.36 365.944 267.89 360.054 264.04C354.744 260.58 349.414 257.2 343.844 254.15C321.874 242.1 297.744 234.01 273.084 229.67C247.704 225.21 221.584 224.61 196.084 228.37C183.784 230.18 171.324 233.16 160.314 239.11C150.054 244.65 142.004 252.98 136.694 263.36C131.384 273.74 128.924 284.27 126.034 295.02C124.434 300.99 123.214 308.04 117.804 311.82C112.934 315.22 106.544 315.51 100.814 315.38C89.2136 315.13 78.0936 313.38 66.5036 315.31C54.9136 317.24 44.3836 321.34 34.7236 327.37C17.0536 338.4 3.3636 355.87 0.693598 376.91C-2.1164 399.02 7.0836 420.95 21.4536 437.42C25.4136 441.97 29.8036 446.1 34.5036 449.88C35.8636 450.97 37.8036 449.05 36.4336 447.95L36.3936 447.99Z" fill="#F2F8FF"/>
</g>
<g style="mix-blend-mode:multiply">
<path d="M540.764 76.9805H183.794C170.92 76.9805 160.484 87.4167 160.484 100.29V339.89C160.484 352.764 170.92 363.2 183.794 363.2H540.764C553.637 363.2 564.074 352.764 564.074 339.89V100.29C564.074 87.4167 553.637 76.9805 540.764 76.9805Z" fill="#EFF8FF"/>
<path opacity="0.63" d="M160.484 194.86V100.29C160.484 87.4205 170.924 76.9805 183.794 76.9805H211.024" stroke="#5CA5DF" stroke-width="1.61" stroke-miterlimit="10"/>
<path opacity="0.33" d="M540.764 76.9805C553.634 76.9805 564.074 87.4205 564.074 100.29V339.89C564.074 352.76 553.634 363.2 540.764 363.2H183.784C170.914 363.2 160.474 352.76 160.474 339.89V224.75" stroke="#5CA5DF" stroke-width="1.61" stroke-miterlimit="10"/>
<path d="M305.953 274.219C340.549 274.219 368.593 246.175 368.593 211.579C368.593 176.984 340.549 148.939 305.953 148.939C271.358 148.939 243.313 176.984 243.313 211.579C243.313 246.175 271.358 274.219 305.953 274.219Z" stroke="#C3E5FF" stroke-width="1.61" stroke-miterlimit="10"/>
<path d="M309.154 126.52V132.94" stroke="#C3E5FF" stroke-width="1.07" stroke-miterlimit="10"/>
<path d="M309.154 145.26V286.91" stroke="#C3E5FF" stroke-width="1.07" stroke-miterlimit="10"/>
<path d="M309.154 293.069V299.489" stroke="#C3E5FF" stroke-width="1.07" stroke-miterlimit="10"/>
<path d="M315.914 111.93C315.914 108.39 313.044 105.52 309.504 105.52C305.964 105.52 303.094 108.39 303.094 111.93C303.094 115.47 305.964 118.34 309.504 118.34C313.044 118.34 315.914 115.47 315.914 111.93Z" stroke="#C3E5FF" stroke-width="1.61" stroke-miterlimit="10"/>
<path opacity="0.52" d="M377.484 115.49H339.754C337.594 115.49 335.844 113.74 335.844 111.58C335.844 109.42 337.594 107.67 339.754 107.67H377.484C379.644 107.67 381.394 109.42 381.394 111.58C381.394 113.74 379.644 115.49 377.484 115.49Z" fill="#C3E5FF"/>
<path opacity="0.52" d="M277.473 297.71H239.743C237.583 297.71 235.833 295.96 235.833 293.8C235.833 291.64 237.583 289.89 239.743 289.89H277.473C279.633 289.89 281.383 291.64 281.383 293.8C281.383 295.96 279.633 297.71 277.473 297.71Z" fill="#C3E5FF"/>
<path opacity="0.52" d="M276.764 313.37H239.034C236.874 313.37 235.124 311.62 235.124 309.46C235.124 307.3 236.874 305.55 239.034 305.55H276.764C278.924 305.55 280.674 307.3 280.674 309.46C280.674 311.62 278.924 313.37 276.764 313.37Z" fill="#C3E5FF"/>
<path d="M312.354 210.87L389.234 134" stroke="#C3E5FF" stroke-width="1.07" stroke-miterlimit="10"/>
<path d="M433.364 126.17H395.634V136.85H433.364V126.17Z" stroke="#C3E5FF" stroke-width="1.07" stroke-miterlimit="10"/>
<path opacity="0.24" d="M416.514 284.96C423.677 284.96 429.484 279.153 429.484 271.99C429.484 264.826 423.677 259.02 416.514 259.02C409.351 259.02 403.544 264.826 403.544 271.99C403.544 279.153 409.351 284.96 416.514 284.96Z" fill="#809CFF"/>
<path opacity="0.24" d="M488.344 284.96C495.507 284.96 501.314 279.153 501.314 271.99C501.314 264.826 495.507 259.02 488.344 259.02C481.181 259.02 475.374 264.826 475.374 271.99C475.374 279.153 481.181 284.96 488.344 284.96Z" fill="#809CFF"/>
<path d="M451.214 263.119V276.869" stroke="#809CFF" stroke-miterlimit="10"/>
<path d="M458.084 269.999H444.344" stroke="#809CFF" stroke-miterlimit="10"/>
<path d="M509.744 266.67H523.484" stroke="#809CFF" stroke-miterlimit="10"/>
<path d="M509.744 275.1H523.484" stroke="#809CFF" stroke-miterlimit="10"/>
<path opacity="0.63" d="M230.234 75.27C230.234 77.63 228.324 79.54 225.964 79.54C223.604 79.54 221.694 77.63 221.694 75.27C221.694 72.91 223.604 71 225.964 71C228.324 71 230.234 72.91 230.234 75.27Z" stroke="#5CA5DF" stroke-width="1.61" stroke-miterlimit="10"/>
<path opacity="0.63" d="M127.084 212.37C127.084 214.73 125.174 216.64 122.814 216.64C120.454 216.64 118.544 214.73 118.544 212.37C118.544 210.01 120.454 208.1 122.814 208.1C125.174 208.1 127.084 210.01 127.084 212.37Z" stroke="#5CA5DF" stroke-width="1.61" stroke-miterlimit="10"/>
<path opacity="0.63" d="M585.114 251.96C585.114 248.84 582.584 246.31 579.464 246.31C576.344 246.31 573.814 248.84 573.814 251.96C573.814 255.08 576.344 257.61 579.464 257.61C582.584 257.61 585.114 255.08 585.114 251.96Z" stroke="#5CA5DF" stroke-width="1.61" stroke-miterlimit="10"/>
<path d="M72.4437 252.61H64.2637V260.79H72.4437V252.61Z" fill="#FFA3C5"/>
<path d="M611.54 142.29L603.076 133.826L594.612 142.29L603.076 150.754L611.54 142.29Z" stroke="#FFA3C5" stroke-miterlimit="10"/>
<path d="M144.834 142.97C144.834 140.03 142.454 137.65 139.514 137.65C136.574 137.65 134.194 140.03 134.194 142.97C134.194 145.91 136.574 148.29 139.514 148.29C142.454 148.29 144.834 145.91 144.834 142.97Z" stroke="#FFA3C5" stroke-miterlimit="10"/>
<path d="M638.324 283.96H626.354V295.93H638.324V283.96Z" fill="#FFA3C5"/>
</g>
<g opacity="0.7">
<g opacity="0.3">
<path d="M260.095 70.0215L251.837 118.157L252.034 118.192L243.862 165.352L264.838 122.324L264.933 122.371L285.939 79.167C277.767 74.9904 269.076 71.9151 260.095 70.0215Z" fill="#FFFFBA"/>
<path d="M326.012 115.747C321.118 108.013 315.216 100.965 308.461 94.7871L276.268 130.094L276.354 130.171L243.841 165.77L326.012 115.747Z" fill="#FFFFBA"/>
<path d="M203.788 138.695L243.39 165.644L243.219 165.589L243.6 165.845H243.625H243.66L243.69 165.824L243.715 165.863H243.66L243.681 165.897H243.711H243.762H243.784H243.75L243.904 166.034L243.788 165.892L283.626 192.983C283.605 193.012 283.588 193.042 283.566 193.068L327.753 223.191C331.586 216.691 334.696 209.792 337.026 202.616C337.689 200.567 338.276 198.514 338.807 196.46L289.696 180.595L289.671 180.672L243.805 165.905V165.884V165.845H244.028L243.827 165.901H244.255L244.058 165.837L342 168.262C341.763 158.92 340.25 149.653 337.505 140.719L244.041 165.841L243.887 165.79L243.977 165.734L243.831 165.773L243.955 165.542L243.81 165.7V165.764L243.741 165.786V165.738H243.703L243.728 165.679V165.499L243.69 165.713V165.734L243.617 165.64L243.647 165.713L243.493 165.661L178.988 86.9492C170.937 92.6765 163.752 99.5326 157.657 107.306L203.788 138.695ZM243.634 165.854V165.888H243.608L243.493 165.751L243.634 165.854Z" fill="#FFFFBA"/>
<path d="M224.816 121.355L243.652 165.671L238.087 117.83L232.273 68C222.819 68.6125 213.495 70.524 204.563 73.6807L224.816 121.355Z" fill="#FFFFBA"/>
<path d="M274.311 203.246L274.272 203.28L243.826 166.107L262.628 210.364L262.534 210.402L284.867 263.149C293.815 258.698 302.069 252.974 309.371 246.154L274.311 203.246Z" fill="#FFFFBA"/>
<path d="M243.441 165.999L197.041 178.473C197.041 178.417 197.011 178.361 196.994 178.301L138.316 194C140.667 204.154 144.537 213.896 149.797 222.895L210.312 186.159L243.441 165.999Z" fill="#FFFFBA"/>
<path d="M195.419 164.639L243.592 165.836L142.781 133.378C142.04 135.277 141.343 137.206 140.709 139.174C138.198 146.945 136.617 154.986 136 163.129L195.44 164.664L195.419 164.639Z" fill="#FFFFBA"/>
<path d="M243.46 166.18L169.461 247.193C177.229 254.251 186.036 260.073 195.574 264.458L243.46 166.18Z" fill="#FFFFBA"/>
<path d="M243.703 166.25L225.231 273.088C235.473 274.466 245.865 274.286 256.053 272.553L243.703 166.25Z" fill="#FFFFBA"/>
</g>
<g opacity="0.9">
<g filter="url(#filter0_f_12817_71173)">
<circle cx="247" cy="162" r="130" fill="#FFF2AD" fill-opacity="0.75"/>
</g>
<g filter="url(#filter1_f_12817_71173)">
<circle cx="260.296" cy="168.705" r="79.4798" fill="#FFE767"/>
</g>
</g>
</g>
<mask id="mask0_12817_71173" style="mask-type:luminance" maskUnits="userSpaceOnUse" x="110" y="105" width="296" height="351">
<path d="M405.544 105.68H110.694V455.6H405.544V105.68Z" fill="white"/>
</mask>
<g mask="url(#mask0_12817_71173)">
<path d="M238.424 193.06C241.734 191.16 288.144 184.85 288.144 184.85L268.044 135.73C268.454 132.45 262.524 124.61 259.654 122.97C251.784 118.46 246.784 115.88 233.584 120.48C216.754 126.34 203.244 187.15 203.244 187.15C203.244 187.15 211.434 194.77 233.964 191.61" fill="#000F4C"/>
<path d="M236.604 146.599C236.614 147.039 236.274 147.399 235.834 147.399C234.014 147.399 229.794 146.999 229.204 151.779C228.604 156.609 233.204 159.319 235.964 159.469C236.764 159.509 238.604 159.679 239.144 160.269C240.804 162.079 241.594 166.029 242.874 170.959C245.704 181.849 237.144 186.819 237.144 186.819C237.144 186.819 265.664 200.839 265.404 186.789C265.404 186.789 263.154 160.929 263.284 160.799C265.514 158.569 274.154 157.619 268.724 139.179C261.884 122.769 251.164 123.319 247.974 123.879C245.284 124.359 235.954 124.939 236.604 146.599Z" fill="#FFA5B5"/>
<path d="M252.194 123.15C252.194 123.15 254.364 147.12 236.234 147.26C236.234 147.26 219.704 119.96 252.194 123.15Z" fill="#000F4C"/>
<path d="M231.274 153.15C231.274 153.15 234.144 147.1 237.784 155.21L231.274 153.15Z" fill="#FF6477"/>
<path d="M252.454 146.62C254.824 146.57 256.784 148.44 256.834 150.81C256.884 153.18 255.014 155.14 252.644 155.19C250.274 155.24 248.314 153.37 248.264 151C248.214 148.63 250.084 146.67 252.454 146.62Z" fill="#FF8794"/>
<path d="M270.314 148.22C268.354 147.86 266.844 146.17 266.794 144.1C266.754 142.5 267.604 141.09 268.874 140.33C268.874 140.33 270.704 145.07 270.304 148.22H270.314Z" fill="#FF8794"/>
<path d="M266.704 146.01L260.174 149.26C260.174 149.26 263.374 151.58 265.094 150.31C266.824 149.04 266.704 146 266.704 146V146.01Z" fill="white"/>
<path d="M261.704 141.27L262.734 145.93L265.004 144.93C265.424 144.74 265.494 144.18 265.124 143.9L261.694 141.27H261.704Z" fill="#FF6477"/>
<path d="M253.324 139.52C252.754 140.31 253.084 137.55 254.014 136.91C254.944 136.27 256.144 136.41 256.694 137.22C256.694 137.22 254.684 137.62 253.324 139.52Z" fill="black"/>
<path d="M265.644 134.86C266.584 135.12 264.594 133.17 263.474 133.26C262.354 133.35 261.504 134.2 261.574 135.18C261.574 135.18 263.394 134.23 265.644 134.87V134.86Z" fill="black"/>
<path d="M257.084 142.95C257.404 143.73 257.964 144.24 258.344 144.09C258.724 143.94 258.774 143.18 258.454 142.4C258.134 141.62 257.574 141.11 257.194 141.26C256.814 141.41 256.764 142.17 257.084 142.95Z" fill="black"/>
<path d="M263.134 140.07C263.434 140.82 263.974 141.3 264.334 141.16C264.694 141.01 264.744 140.29 264.444 139.55C264.144 138.8 263.604 138.32 263.244 138.46C262.884 138.61 262.834 139.33 263.134 140.07Z" fill="black"/>
<path d="M263.284 160.79C263.284 160.79 255.144 162.35 251.034 162.08C246.924 161.81 267.504 185.45 263.284 160.79Z" fill="black"/>
<path d="M223.014 259.12C214.934 273.4 210.674 283.85 206.034 302C200.654 323.05 160.514 501.099 157.974 539.389C164.604 540.99 190.554 540.759 194.744 540.52C208.084 502.31 241.814 378.199 247.534 354.129C248.414 350.429 254.134 351.24 253.684 355.02C250.434 382.51 251.424 498.299 242.704 540.59C246.184 542.359 278.224 541.97 282.234 541.46C286.604 494.31 309.794 315.81 274.784 257.95C258.774 255.74 239.244 258.63 223.014 259.11V259.12Z" fill="#000F4C"/>
<path d="M272.704 264.22C272.704 264.22 286.964 299.51 286.964 349.31C286.964 399.11 270.644 525.28 270.644 525.28" stroke="white" stroke-width="0.62" stroke-miterlimit="10"/>
<path d="M173.964 525.28L230.914 262.6" stroke="white" stroke-width="0.62" stroke-miterlimit="10"/>
<path d="M240.894 263.989C240.894 263.989 240.414 309.609 219.934 306.009" stroke="white" stroke-width="0.62" stroke-miterlimit="10"/>
<g style="mix-blend-mode:multiply" opacity="0.21">
<path d="M274.554 265.149L208.644 314.779C208.644 314.779 205.894 287.999 217.604 266.019L274.554 265.159V265.149Z" fill="black"/>
</g>
<path d="M283.384 308.109C262.914 311.709 266.204 266.319 266.204 266.319" stroke="white" stroke-width="0.62" stroke-miterlimit="10"/>
<path d="M243.924 181.22C243.924 181.22 239.744 180.01 240.444 180.9C241.134 181.79 242.614 182.78 244.104 183.76L243.934 181.21L243.924 181.22Z" fill="#E20082"/>
<path d="M385.174 200.219C371.654 206.109 362.754 210.339 361.564 211.029L318.154 230.419L318.234 230.249C318.234 230.249 316.064 231.259 314.474 231.869C313.714 232.159 312.844 231.939 312.334 231.299C299.984 215.859 269.954 173.959 256.774 184.779C256.584 184.939 258.804 185.429 259.664 185.849C267.474 189.699 283.834 218.419 283.834 218.419C284.154 218.829 285.104 220.869 286.474 223.799C295.484 256.459 302.884 255.819 302.884 255.819C304.034 255.949 305.324 255.899 306.714 255.719C306.754 255.739 306.794 255.759 306.824 255.779L306.864 255.699C328.874 252.589 378.254 213.359 378.254 213.359C382.204 210.009 389.104 198.519 385.184 200.229L385.174 200.219Z" fill="#FFA5B5"/>
<path d="M261.114 190.46C261.114 190.46 264.174 179.24 270.494 183.84C278.564 189.71 308.434 223.37 313.284 230.36L330.134 224.38C330.134 224.38 337.394 239.73 336.904 241.96C336.904 241.96 314.224 265.51 302.724 259.9C291.224 254.29 261.124 190.47 261.124 190.47L261.114 190.46Z" fill="#6566E0"/>
<path d="M380.964 180.939L376.814 174.859L372.724 180.569L372.594 183.869L380.773 184.009L380.964 180.939Z" fill="#FFF2E7"/>
<path d="M378.693 177.619L376.813 174.859L375.043 177.339C375.043 177.339 375.983 179.269 378.703 177.619H378.693Z" fill="#000264"/>
<path d="M372.774 180.58C372.884 181.21 373.414 181.7 374.074 181.72C374.734 181.75 375.304 181.31 375.464 180.69H375.534C375.644 181.32 376.174 181.81 376.834 181.84C377.494 181.87 378.064 181.43 378.224 180.81H378.294C378.404 181.44 378.934 181.93 379.594 181.96C380.224 181.99 380.774 181.58 380.964 181L379.104 223.01L370.864 222.64L372.734 180.56H372.784L372.774 180.58Z" fill="#F1820F"/>
<path d="M374.074 181.719C374.734 181.749 375.304 181.309 375.464 180.689H375.534C375.644 181.319 376.174 181.809 376.834 181.839C377.494 181.869 378.064 181.429 378.224 180.809H378.294C378.404 181.439 378.934 181.929 379.594 181.959C380.224 181.989 380.774 181.579 380.964 180.999L379.104 223.009L372.374 222.509C372.374 222.509 373.424 181.679 374.084 181.709L374.074 181.719Z" fill="#FF8F4E"/>
<path d="M370.849 222.575L379.091 222.94L379.179 220.952L370.938 220.587L370.849 222.575Z" fill="#FFF2E7"/>
<path d="M379.104 222.87L370.864 222.5L370.744 225.15C370.644 227.43 372.404 229.35 374.684 229.45C376.964 229.55 378.884 227.79 378.984 225.51L379.104 222.86V222.87Z" fill="#D4368F"/>
<path d="M379.104 222.87L371.864 222.55L371.744 225.2C371.644 227.48 373.184 229.39 375.184 229.48C377.184 229.57 378.884 227.8 378.984 225.52L379.104 222.87Z" fill="#FA53AE"/>
<path d="M378.354 180.68L376.454 218.6" stroke="#FFF2E7" stroke-width="0.3" stroke-miterlimit="10"/>
<path d="M375.574 180.76L373.674 218.68" stroke="#FFF2E7" stroke-width="0.3" stroke-miterlimit="10"/>
<path d="M365.804 208.92C365.804 208.92 372.864 197.77 374.014 199.11C376.284 201.76 369.414 208.92 370.914 209.37C370.914 209.37 367.774 209.01 365.794 208.92H365.804Z" fill="#FFA5B5"/>
<path d="M270.614 184.63C270.144 185.76 283.894 218.51 283.334 229.6C282.774 240.77 275.144 259.56 275.744 261.23C275.744 261.23 267.084 268.06 219.284 260.54C204.594 247.68 217.504 203.99 222.434 190.16C222.434 190.16 231.844 185.45 235.894 185.15C235.894 185.15 251.764 190.22 270.614 184.63Z" fill="white"/>
<path d="M225.244 189.02C225.244 189.02 234.874 184.66 237.274 184.47C237.274 184.47 256.664 213.61 252.474 269.97C252.474 269.97 252.024 268.57 251.424 269.37C250.824 270.17 205.534 268.99 205.534 268.99C205.534 268.99 218.534 210.48 225.244 189.03V189.02Z" fill="#6566E0"/>
<path d="M268.084 187.829C268.084 187.829 272.754 240.439 265.954 268.219C265.954 268.219 299.744 268.719 299.224 263.629C296.894 240.889 270.474 183.439 270.474 183.439L268.074 187.839L268.084 187.829Z" fill="#6566E0"/>
<path d="M235.774 185.1L242.544 176.25C242.544 176.25 250.614 181.98 262.714 186.21L262.504 189.38C262.094 195.62 255.264 199.25 249.864 196.09C244.234 192.8 238.204 188.7 235.774 185.09V185.1Z" fill="#000F4C"/>
<path d="M264.344 175.77C264.344 175.77 266.364 183.44 262.554 186.37L263.644 189.03C264.914 192.69 270.314 192.06 270.644 188.2C270.774 186.69 270.764 185.3 270.544 184.22L264.344 175.78V175.77Z" fill="#000F4C"/>
<path d="M265.104 194.83C265.104 195.98 264.604 196.9 263.994 196.9C263.384 196.9 262.884 195.97 262.884 194.83C262.884 193.69 263.384 192.75 263.994 192.75C264.604 192.75 265.104 193.68 265.104 194.83Z" fill="#000F4C"/>
<path d="M264.554 205.76C265.167 205.76 265.664 204.828 265.664 203.68C265.664 202.531 265.167 201.6 264.554 201.6C263.941 201.6 263.444 202.531 263.444 203.68C263.444 204.828 263.941 205.76 264.554 205.76Z" fill="#000F4C"/>
<path d="M266.084 213.44C266.084 214.59 265.584 215.52 264.974 215.52C264.364 215.52 263.864 214.59 263.864 213.44C263.864 212.29 264.364 211.36 264.974 211.36C265.584 211.36 266.084 212.29 266.084 213.44Z" fill="#000F4C"/>
<path d="M147.734 206.849C147.734 206.849 190.524 261.849 202.464 258.439C202.464 258.439 212.584 257.679 218.114 224.109C219.174 221.029 219.904 218.899 220.184 218.449C220.184 218.449 238.044 183.379 236.234 191.939C235.604 194.919 239.134 191.279 238.884 191.259C221.824 189.699 209.534 209.919 198.844 226.659C198.404 227.349 153.814 194.259 153.814 194.259C153.814 194.259 147.424 183.649 144.804 180.939C144.804 180.939 142.734 180.649 145.174 187.109C147.004 190.139 134.394 179.969 132.554 181.069C131.344 181.799 138.764 186.889 138.944 187.049C138.784 187.989 131.374 182.939 130.164 183.899C128.954 184.859 137.114 189.299 137.114 189.299C137.114 189.299 127.654 185.059 128.354 187.299C129.054 189.539 135.984 191.839 136.204 192.089C136.954 192.949 129.564 189.669 130.204 191.469C130.484 192.279 147.834 206.149 147.734 206.849Z" fill="#FFA5B5"/>
<path d="M144.904 188.479C144.994 189.099 145.064 189.709 145.174 190.299C145.294 190.899 145.404 191.489 145.564 192.069C145.714 192.649 145.894 193.229 146.084 193.799C146.284 194.369 146.514 194.939 146.734 195.529C146.304 195.069 145.964 194.539 145.674 193.979C145.374 193.419 145.164 192.829 144.994 192.219C144.844 191.609 144.734 190.979 144.724 190.349C144.704 189.719 144.744 189.089 144.894 188.479H144.904Z" fill="#D33950"/>
<path d="M190.234 258.65C197.884 261.2 206.304 258.48 211.004 251.93C224.514 233.09 248.894 195.71 236.164 187.35C218.744 175.91 197.524 223.86 197.524 223.86L186.414 217.35L179.534 249.86L190.234 258.65Z" fill="#6566E0"/>
</g>
<path d="M82.6936 404.26C82.3036 405.44 76.4136 427.42 76.4136 427.42" stroke="black" stroke-width="0.89" stroke-miterlimit="10"/>
<path d="M77.9836 422.319L127.144 430.169" stroke="black" stroke-width="0.89" stroke-miterlimit="10"/>
<path d="M128.184 432.38C128.184 432.38 127.004 426.2 126.124 432.53L128.184 432.38Z" fill="black"/>
<path d="M153.673 424.05L137.333 432.44" stroke="black" stroke-width="0.89" stroke-miterlimit="10"/>
<path d="M137.194 401.53L146.614 427.44" stroke="black" stroke-width="0.89" stroke-miterlimit="10"/>
<g opacity="0.24">
<path d="M44.1036 445.18H152.814L136.704 396.72C135.604 391.9 131.324 388.49 126.384 388.49H39.3736C32.5836 388.49 27.5436 394.8 29.0536 401.42L44.0936 445.18H44.1036Z" fill="#809CFF"/>
</g>
<g opacity="0.63">
<path d="M44.1036 445.18H152.814L136.704 396.72C135.604 391.9 131.324 388.49 126.384 388.49H39.3736C32.5836 388.49 27.5436 394.8 29.0536 401.42L44.0936 445.18H44.1036Z" stroke="#5C74DF" stroke-width="1.89" stroke-miterlimit="10"/>
</g>
<path d="M193.893 351.83C193.563 350.99 199.433 340.33 197.083 339.96C194.733 339.58 190.693 350.76 189.773 349.71C188.853 348.66 193.133 337.79 191.833 337.12C190.533 336.45 183.153 356.1 185.673 345.06C188.193 334.02 186.393 333.68 183.833 339.79C182.053 344.02 179.323 349.78 177.803 352.91C177.303 353.95 175.973 354.2 175.303 353.38C173.803 351.55 171.493 348.96 170.313 348.93C168.483 348.88 173.533 364.07 173.533 364.07C173.533 364.07 173.533 364.07 173.543 364.07C170.333 366.35 157.243 387.22 149.783 402.58C145.173 412.08 146.623 422.9 156.643 426.31L158.513 426.92C168.823 430.43 180.983 419.75 182.843 409.07C185.593 393.31 187.593 373.63 187.353 369.99C187.353 369.99 187.353 369.99 187.363 369.98C188.593 368.71 202.493 346.85 199.263 345.6C198.343 345.25 194.223 352.67 193.893 351.83Z" fill="#FFAF9E"/>
<path d="M130.883 368C124.833 370.12 118.253 380.83 122.943 390.03C132.433 408.64 152.963 424.98 152.963 424.98C152.963 424.98 161.273 387.23 159.843 386.28C138.393 371.98 143.153 364.63 130.883 368Z" fill="#6566E0"/>
<path d="M128.763 364.999C128.763 364.999 131.383 364.319 131.283 364.999C131.183 365.669 128.973 366.729 128.973 366.729L128.763 364.999Z" fill="#BF0040"/>
<path d="M111.443 357.4C111.443 357.4 79.4134 340.75 92.8334 314.88C92.8334 314.88 107.543 342.98 111.443 357.4Z" fill="#00243E"/>
<path d="M102.033 337.91C102.033 338.36 101.683 338.72 101.233 338.71C99.3734 338.67 94.9234 339.09 94.2334 343.94C93.5334 348.85 100.363 349.85 103.183 350.05C103.993 350.11 104.743 350.49 105.283 351.1C106.943 352.98 110.553 360.81 111.773 365.86C114.463 377.02 105.943 378.29 105.943 378.29C105.943 378.29 132.273 386.71 140.973 380.87C140.973 380.87 129.423 355.23 132.433 354.11C137.753 352.14 143.213 349.33 139.443 330.43C135.893 312.62 121.383 313.79 118.123 314.31C115.373 314.75 101.763 315.81 102.023 337.91H102.033Z" fill="#FFAF9E"/>
<path d="M131.023 354.92C131.023 354.92 124.353 355.21 117.973 354.18C115.463 353.77 125.123 362.01 127.803 360.52C131.003 358.74 131.033 354.92 131.033 354.92H131.023Z" fill="#1D2F4A"/>
<path d="M90.1035 323.7C90.2335 332.49 98.2135 338.14 101.544 338.49C104.204 340.13 114.884 328.19 125.664 315.3C128.464 316.88 140.264 326.7 140.264 326.7C138.724 318.54 131.574 310.74 128.204 309.99C128.204 309.99 110.424 297.24 93.2335 314.63L90.1135 323.71L90.1035 323.7Z" fill="#00243E"/>
<path d="M96.6636 343.59C96.6636 343.59 99.5736 337.73 102.984 345.71L96.6636 343.59Z" fill="#E8544E"/>
<path d="M137.714 341.449L128.664 343.349C128.664 343.349 131.324 347.289 133.854 346.289C136.374 345.279 137.714 341.449 137.714 341.449Z" fill="white"/>
<path d="M132.524 337.439L132.884 340.979L134.654 340.439C134.984 340.339 135.084 339.929 134.834 339.689L132.524 337.439Z" fill="#E8544E"/>
<path d="M124.674 333.629C123.984 334.389 124.674 331.539 125.724 330.989C126.774 330.439 128.014 330.729 128.494 331.639C128.494 331.639 126.344 331.809 124.684 333.629H124.674Z" fill="#021A2B"/>
<path d="M136.754 330.09C134.684 329.72 133.094 330.53 133.094 330.53C133.024 329.51 133.934 328.61 135.114 328.53C135.554 328.5 136.124 328.77 136.614 329.11C136.614 329.11 137.174 330.13 136.754 330.09Z" fill="#021A2B"/>
<path d="M134.934 336.24C135.214 337.26 135.834 337.97 136.334 337.84C136.824 337.71 137.004 336.77 136.724 335.75C136.444 334.73 135.824 334.02 135.324 334.15C134.834 334.28 134.654 335.22 134.934 336.23V336.24Z" fill="#021A2B"/>
<path d="M128.454 337.79C128.734 338.81 129.354 339.52 129.854 339.39C130.344 339.26 130.524 338.32 130.244 337.3C129.964 336.28 129.344 335.57 128.844 335.7C128.354 335.83 128.174 336.77 128.454 337.78V337.79Z" fill="#021A2B"/>
<path d="M116.624 346.23C116.934 349.21 119.363 351.4 122.063 351.12C124.753 350.84 126.684 348.19 126.374 345.21C126.064 342.23 123.624 340.04 120.934 340.32C118.244 340.6 116.314 343.25 116.624 346.23Z" fill="#FF8C8D"/>
<path d="M139.984 346.19C138.584 345.35 138.124 343.77 137.924 341.9C137.694 339.66 138.484 337.59 140.154 336.59C140.154 336.59 140.924 343.46 139.984 346.19Z" fill="#FF8C8D"/>
<path d="M102.003 308.75C102.003 308.75 102.703 291.76 89.3635 292.89C56.2235 295.7 85.7835 339.98 85.7835 339.98" fill="#00243E"/>
<path d="M137.114 367.729C141.964 377.599 147.454 394.69 149.354 403.99C150.824 411.22 157.004 438.139 157.714 441.009C157.714 441.009 129.514 442.459 87.9136 441.719C88.4036 431.649 92.2636 384 96.7036 372.24C96.7036 372.24 109.194 368.34 112.664 368.15C112.664 368.15 139.364 381.549 137.114 367.729Z" fill="#6566E0"/>
<path d="M114.004 375.94C110.854 370.35 101.154 368.02 92.9235 374.24C76.2635 386.85 65.8435 418.1 65.8435 418.1C65.8435 418.1 102.314 419.73 102.724 418.74C112.514 394.89 119.474 387.44 114.014 375.94H114.004Z" fill="#6566E0"/>
<path d="M104.654 371.209L110.354 364.439L133.074 373.779L129.314 388.839L104.654 371.209Z" fill="white"/>
<path d="M133.073 373.78L135.493 361.68L142.753 370.56V386.69L133.073 373.78Z" fill="white"/>
<path d="M143.014 440.68C143.734 440.13 155.574 442.93 155.304 440.56C155.034 438.2 143.184 437.3 143.954 436.14C144.724 434.98 156.344 436.18 156.634 434.75C156.924 433.32 136.024 431.48 147.324 430.94C158.634 430.4 158.484 428.58 151.904 427.75C147.344 427.17 141.074 426.08 137.644 425.47C136.504 425.27 135.904 424.05 136.524 423.18C137.884 421.25 139.754 418.32 139.474 417.18C139.034 415.4 125.764 424.35 125.764 424.35C125.764 424.35 125.764 424.35 125.764 424.37C122.704 421.89 99.0836 414.89 82.2936 411.83C71.9036 409.94 61.8736 414.24 61.2736 424.81L61.1836 426.77C60.5636 437.64 74.1236 446.49 84.9136 445.41C100.834 443.83 120.334 440.47 123.774 439.26C123.774 439.26 123.774 439.26 123.784 439.26C125.344 440.11 150.124 447.62 150.464 444.17C150.564 443.19 142.294 441.21 143.014 440.67V440.68Z" fill="#FFAF9E"/>
<g opacity="0.51">
<path d="M81.8735 399.39C82.9435 400.81 84.0135 402.24 85.0735 403.66C85.3235 404 85.7835 404.2 86.1735 403.95C86.5035 403.74 86.7335 403.21 86.4635 402.85C85.3935 401.43 84.3235 400 83.2635 398.58C83.0135 398.24 82.5535 398.04 82.1635 398.29C81.8335 398.5 81.6035 399.03 81.8735 399.39Z" fill="white"/>
<path d="M90.4736 395.429L94.0536 393.329C94.4136 393.119 94.5736 392.599 94.3436 392.229C94.1136 391.859 93.6336 391.709 93.2436 391.939L89.6636 394.039C89.3036 394.249 89.1436 394.769 89.3736 395.139C89.6036 395.509 90.0836 395.659 90.4736 395.429Z" fill="white"/>
<path d="M98.7334 382.47C99.5634 383.54 100.393 384.61 101.223 385.68C101.343 385.83 101.613 385.92 101.793 385.92C101.993 385.92 102.223 385.83 102.363 385.68C102.503 385.53 102.603 385.33 102.603 385.11C102.593 384.88 102.503 384.72 102.363 384.54C101.533 383.47 100.703 382.4 99.8734 381.33C99.7534 381.18 99.4834 381.09 99.3034 381.09C99.1034 381.09 98.8734 381.18 98.7334 381.33C98.5934 381.48 98.4934 381.68 98.4934 381.9C98.5034 382.13 98.5934 382.29 98.7334 382.47Z" fill="white"/>
<path d="M98.6836 402.81C99.8636 404.12 101.054 405.43 102.234 406.74C102.514 407.05 103.084 407.05 103.374 406.74C103.684 406.41 103.674 405.94 103.374 405.6C102.194 404.29 101.004 402.98 99.8236 401.67C99.5436 401.36 98.9736 401.36 98.6836 401.67C98.3736 402 98.3836 402.47 98.6836 402.81Z" fill="white"/>
<path d="M109.334 396.47L110.404 395.76C110.574 395.64 110.714 395.49 110.774 395.28C110.804 395.17 110.814 395.07 110.784 394.96C110.784 394.85 110.744 394.75 110.684 394.66C110.574 394.49 110.404 394.34 110.204 394.29C110.004 394.24 109.764 394.25 109.584 394.37L108.514 395.08C108.344 395.2 108.204 395.35 108.144 395.56C108.114 395.67 108.104 395.77 108.134 395.88C108.134 395.99 108.174 396.09 108.234 396.18C108.344 396.35 108.514 396.5 108.714 396.55C108.914 396.6 109.154 396.59 109.334 396.47Z" fill="white"/>
<path d="M93.8236 412.02L94.5336 411.31C94.6136 411.24 94.6636 411.15 94.7036 411.05C94.7536 410.95 94.7736 410.85 94.7736 410.74C94.7736 410.63 94.7536 410.53 94.7036 410.43C94.6736 410.33 94.6136 410.24 94.5336 410.17L94.3736 410.04C94.2436 409.97 94.1136 409.93 93.9636 409.93L93.7536 409.96C93.6136 410 93.5036 410.07 93.4036 410.17L92.6936 410.88C92.6136 410.95 92.5636 411.04 92.5236 411.14C92.4736 411.24 92.4536 411.34 92.4536 411.45C92.4536 411.56 92.4736 411.66 92.5236 411.76C92.5536 411.86 92.6136 411.95 92.6936 412.02L92.8536 412.15C92.9836 412.22 93.1136 412.26 93.2636 412.26L93.4736 412.23C93.6136 412.19 93.7236 412.12 93.8236 412.02Z" fill="white"/>
<path d="M116.194 404.18L118.684 407.03C118.964 407.35 119.544 407.34 119.824 407.03C120.134 406.69 120.124 406.23 119.824 405.89C118.994 404.94 118.164 403.99 117.334 403.04C117.054 402.72 116.474 402.73 116.194 403.04C115.884 403.38 115.894 403.84 116.194 404.18Z" fill="white"/>
<path d="M109.544 414.57C110.254 413.97 110.954 413.37 111.664 412.77C111.814 412.64 111.904 412.39 111.904 412.2C111.904 412.01 111.814 411.77 111.664 411.63C111.514 411.49 111.314 411.39 111.094 411.39C110.874 411.39 110.694 411.48 110.524 411.63C109.814 412.23 109.114 412.83 108.404 413.43C108.254 413.56 108.164 413.81 108.164 414C108.164 414.19 108.254 414.43 108.404 414.57C108.554 414.71 108.754 414.81 108.974 414.81C109.194 414.81 109.374 414.72 109.544 414.57Z" fill="white"/>
<path d="M113.744 386.33C114.684 387.29 115.614 388.26 116.554 389.22C116.844 389.52 117.404 389.54 117.694 389.22C117.984 388.9 118.004 388.41 117.694 388.08C116.754 387.12 115.824 386.15 114.884 385.19C114.594 384.89 114.034 384.87 113.744 385.19C113.454 385.51 113.434 386 113.744 386.33Z" fill="white"/>
<path d="M125.144 398.83C125.844 398.11 126.544 397.39 127.254 396.66C127.544 396.36 127.574 395.82 127.254 395.52C126.934 395.22 126.434 395.2 126.114 395.52C125.414 396.24 124.714 396.96 124.004 397.69C123.714 397.99 123.684 398.53 124.004 398.83C124.324 399.13 124.824 399.15 125.144 398.83Z" fill="white"/>
<path d="M125.163 417.36C125.873 416.53 126.583 415.7 127.303 414.87C127.443 414.71 127.543 414.52 127.543 414.3C127.543 414.1 127.453 413.87 127.303 413.73C127.003 413.45 126.463 413.39 126.163 413.73C125.453 414.56 124.743 415.39 124.023 416.22C123.883 416.38 123.783 416.57 123.783 416.79C123.783 416.99 123.873 417.22 124.023 417.36C124.323 417.64 124.863 417.7 125.163 417.36Z" fill="white"/>
<path d="M132.543 406.709C133.863 408.119 135.183 409.539 136.493 410.949C136.783 411.259 137.343 411.259 137.633 410.949C137.933 410.619 137.943 410.139 137.633 409.809C136.313 408.399 134.993 406.979 133.683 405.569C133.393 405.259 132.833 405.259 132.543 405.569C132.243 405.899 132.233 406.379 132.543 406.709Z" fill="white"/>
<path d="M132.204 387.81C133.014 388.66 133.824 389.51 134.634 390.36C134.924 390.67 135.484 390.67 135.774 390.36C136.064 390.05 136.084 389.55 135.774 389.22C134.964 388.37 134.154 387.52 133.344 386.67C133.054 386.36 132.494 386.36 132.204 386.67C131.914 386.98 131.894 387.48 132.204 387.81Z" fill="white"/>
<path d="M142.213 401.38C142.213 401.38 142.243 401.31 142.253 401.27C142.303 401.15 142.263 401.25 142.233 401.31C142.273 401.24 142.293 401.16 142.333 401.09C142.393 400.95 142.463 400.82 142.543 400.69C142.623 400.56 142.693 400.43 142.783 400.31C142.823 400.24 142.873 400.18 142.913 400.12C142.933 400.09 142.963 400.06 142.983 400.02C143.043 399.94 142.853 400.18 142.963 400.05C143.153 399.82 143.353 399.59 143.573 399.39C143.683 399.28 143.803 399.18 143.933 399.08C143.953 399.06 143.983 399.04 144.003 399.02C143.843 399.16 143.933 399.08 143.973 399.04C144.043 398.99 144.113 398.94 144.183 398.89C144.533 398.65 144.723 398.17 144.473 397.79C144.253 397.45 143.743 397.25 143.373 397.5C142.133 398.35 141.213 399.54 140.673 400.95C140.523 401.34 140.843 401.85 141.233 401.94C141.693 402.04 142.063 401.8 142.223 401.38H142.213Z" fill="white"/>
<path d="M146.843 390.26C148.143 391.45 149.453 392.64 150.753 393.83C151.063 394.11 151.583 394.16 151.893 393.83C152.173 393.52 152.223 393 151.893 392.69C150.593 391.5 149.283 390.31 147.983 389.12C147.673 388.84 147.153 388.79 146.843 389.12C146.563 389.43 146.513 389.95 146.843 390.26Z" fill="white"/>
<path d="M146.524 379.97C146.764 379.73 146.994 379.5 147.234 379.26C147.314 379.19 147.364 379.1 147.404 379C147.454 378.9 147.474 378.8 147.474 378.69C147.474 378.58 147.454 378.48 147.404 378.38C147.374 378.28 147.314 378.19 147.234 378.12L147.074 377.99C146.944 377.92 146.814 377.88 146.664 377.88L146.454 377.91C146.314 377.95 146.204 378.02 146.104 378.12C145.864 378.36 145.634 378.59 145.394 378.83C145.314 378.9 145.264 378.99 145.224 379.09C145.174 379.19 145.154 379.29 145.154 379.4C145.154 379.51 145.174 379.61 145.224 379.71C145.254 379.81 145.314 379.9 145.394 379.97L145.554 380.1C145.684 380.17 145.814 380.21 145.964 380.21L146.174 380.18C146.314 380.14 146.424 380.07 146.524 379.97Z" fill="white"/>
<path d="M148.564 406.36C149.404 407.19 150.234 408.01 151.074 408.84C151.374 409.14 151.914 409.16 152.214 408.84C152.514 408.52 152.534 408.02 152.214 407.7C151.374 406.87 150.544 406.05 149.704 405.22C149.404 404.92 148.864 404.9 148.564 405.22C148.264 405.54 148.244 406.04 148.564 406.36Z" fill="white"/>
<path d="M144.873 417.91C145.343 417.2 145.823 416.49 146.293 415.77C146.403 415.6 146.423 415.34 146.373 415.15C146.323 414.96 146.173 414.76 146.003 414.67C145.603 414.46 145.153 414.58 144.903 414.96C144.433 415.67 143.953 416.38 143.483 417.1C143.373 417.27 143.353 417.53 143.403 417.72C143.453 417.91 143.603 418.11 143.773 418.2C144.173 418.41 144.623 418.29 144.873 417.91Z" fill="white"/>
<path d="M148.243 422.699L149.313 423.769C149.463 423.919 149.673 424.009 149.883 424.009C149.993 424.009 150.093 423.989 150.193 423.939C150.293 423.909 150.383 423.849 150.453 423.769C150.593 423.619 150.693 423.419 150.693 423.199C150.693 422.979 150.613 422.789 150.453 422.629L149.383 421.559C149.233 421.409 149.023 421.319 148.813 421.319C148.703 421.319 148.603 421.339 148.503 421.389C148.403 421.419 148.313 421.479 148.243 421.559C148.103 421.709 148.003 421.909 148.003 422.129C148.003 422.349 148.083 422.539 148.243 422.699Z" fill="white"/>
<path d="M155.524 399.01C155.994 398.3 156.463 397.58 156.933 396.87C157.163 396.52 157.013 395.97 156.643 395.77C156.243 395.56 155.793 395.68 155.543 396.06C155.073 396.77 154.604 397.49 154.134 398.2C153.904 398.55 154.053 399.1 154.423 399.3C154.823 399.51 155.274 399.39 155.524 399.01Z" fill="white"/>
<path d="M93.3036 377.6C94.0136 377.13 94.7236 376.65 95.4436 376.18C95.6136 376.06 95.7536 375.91 95.8136 375.7C95.8636 375.51 95.8436 375.25 95.7336 375.08C95.5136 374.73 95.0136 374.54 94.6336 374.79C93.9236 375.26 93.2136 375.74 92.4936 376.21C92.3236 376.33 92.1836 376.48 92.1236 376.69C92.0736 376.88 92.0936 377.14 92.2036 377.31C92.4236 377.66 92.9236 377.85 93.3036 377.6Z" fill="white"/>
</g>
<path d="M175.763 331.74L169.373 329.26L169.253 335.8L170.893 338.4L177.243 334.19L175.763 331.74Z" fill="#FFF2E7"/>
<path d="M172.273 330.38L169.373 329.26L169.323 332.1C169.323 332.1 171.063 333.08 172.273 330.38Z" fill="#000264"/>
<path d="M169.293 335.78C169.703 336.2 170.373 336.3 170.893 335.97C171.413 335.64 171.623 335 171.423 334.45L171.473 334.42C171.883 334.84 172.553 334.94 173.073 334.61C173.593 334.28 173.803 333.64 173.603 333.09L173.653 333.06C174.063 333.48 174.733 333.58 175.253 333.25C175.753 332.94 175.963 332.34 175.803 331.79L196.533 365.01L190.013 369.08L169.253 335.8L169.293 335.77V335.78Z" fill="#F1820F"/>
<path d="M170.893 335.97C171.413 335.64 171.623 335 171.423 334.45L171.473 334.42C171.883 334.84 172.553 334.94 173.073 334.61C173.593 334.28 173.803 333.64 173.603 333.09L173.653 333.06C174.063 333.48 174.733 333.58 175.253 333.25C175.753 332.94 175.963 332.34 175.803 331.79L196.533 365.01L191.103 368.18C191.103 368.18 170.373 336.29 170.893 335.97Z" fill="#FF8F4E"/>
<path d="M189.968 369.024L196.483 364.959L195.504 363.389L188.988 367.455L189.968 369.024Z" fill="#FFF2E7"/>
<path d="M196.453 364.9L189.933 368.97L191.243 371.07C192.363 372.87 194.733 373.42 196.533 372.3C198.333 371.18 198.883 368.81 197.763 367.01L196.453 364.91V364.9Z" fill="#D4368F"/>
<path d="M196.453 364.9L190.723 368.47L192.033 370.57C193.153 372.37 195.343 373.03 196.933 372.04C198.513 371.05 198.883 368.8 197.763 367L196.453 364.9Z" fill="#FA53AE"/>
<path d="M173.624 332.91L192.174 363.01" stroke="#FFF2E7" stroke-width="0.28" stroke-miterlimit="10"/>
<path d="M171.533 334.439L190.083 364.539" stroke="#FFF2E7" stroke-width="0.28" stroke-miterlimit="10"/>
<path d="M179.313 436.14H127.083V442.31H179.313V436.14Z" fill="#C0EBFF"/>
<path d="M24.1636 458.29H685.874C690.284 458.29 693.854 454.72 693.854 450.31C693.854 445.9 690.284 442.33 685.874 442.33H24.1636C19.7536 442.33 16.1836 445.9 16.1836 450.31C16.1836 454.72 19.7536 458.29 24.1636 458.29Z" fill="#809CFF" stroke="#809CFF" stroke-width="1.67" stroke-miterlimit="10"/>
<g opacity="0.24">
<path d="M468.774 441.129H360.894L376.654 394.65C377.744 389.87 381.994 386.479 386.894 386.479H473.194C479.934 386.479 484.924 392.739 483.434 399.309L468.784 441.129H468.774Z" fill="#809CFF"/>
</g>
<g opacity="0.63">
<path d="M468.774 441.129H360.894L376.654 394.65C377.744 389.87 381.994 386.479 386.894 386.479H473.194C479.934 386.479 484.924 392.739 483.434 399.309L468.784 441.129H468.774Z" stroke="#5C74DF" stroke-width="1.89" stroke-miterlimit="10"/>
</g>
<path d="M408.014 336.63C407.254 333.44 413.724 321.35 416.254 319.22C423.184 313.37 437.454 318.35 445.454 323.85C451.214 327.81 456.284 341.41 458.984 353.41C464.854 379.4 470.024 402.91 470.024 402.91L404.854 407.9" fill="#730070"/>
<path d="M408.014 336.63C407.254 333.44 413.724 321.35 416.254 319.22C423.184 313.37 437.454 318.35 445.454 323.85C451.214 327.81 456.284 341.41 458.984 353.41C464.854 379.4 470.024 402.91 470.024 402.91L404.854 407.9" stroke="#730070" stroke-width="0.93" stroke-miterlimit="10"/>
<path d="M440.814 345.899C440.854 346.339 441.214 346.629 441.634 346.559C443.354 346.229 447.534 345.959 448.634 350.599C449.744 355.289 443.494 357.319 440.894 357.949C440.144 358.129 439.484 358.619 439.034 359.299C437.664 361.389 433.344 369.999 431.074 377.659C429.054 384.499 429.594 392.799 429.594 392.799C429.594 392.799 411.524 390.219 402.894 385.849C402.564 387.179 407.684 378.589 414.454 365.009C414.514 364.889 399.474 364.009 405.344 344.339C411.814 322.679 420.544 325.299 423.624 325.309C426.214 325.309 438.964 324.259 440.804 345.909L440.814 345.899Z" fill="#FFA3C5"/>
<path d="M444.874 352.759C444.874 352.759 444.654 346.789 439.144 352.499L444.874 352.759Z" fill="#CE5181"/>
<path d="M423.704 348.57C421.164 348.97 419.424 351.35 419.824 353.89C420.224 356.43 422.604 358.17 425.134 357.77C427.674 357.37 429.414 354.99 429.014 352.45C428.614 349.91 426.244 348.17 423.704 348.57Z" fill="#F98FBA"/>
<path d="M407.184 350.689L415.304 352.909C415.304 352.909 412.204 356.259 409.964 355.199C407.724 354.149 407.174 350.689 407.174 350.689H407.184Z" fill="white"/>
<path d="M411.724 346.239L411.554 350.249L409.524 349.759C409.154 349.669 409.014 349.209 409.274 348.929L411.724 346.239Z" fill="#CC4285"/>
<path d="M421.094 342.93C421.734 343.56 420.994 341.1 420.044 340.68C419.094 340.25 418.034 340.57 417.664 341.39C417.664 341.39 419.554 341.43 421.094 342.93Z" fill="#00012B"/>
<path d="M407.864 339.83C407.024 340 408.884 338.42 409.864 338.56C410.844 338.71 411.534 339.51 411.404 340.36C411.404 340.36 409.864 339.42 407.854 339.83H407.864Z" fill="#00012B"/>
<path d="M416.594 347.399C416.354 348.529 415.724 349.349 415.174 349.239C414.624 349.129 414.374 348.119 414.614 346.979C414.854 345.849 415.484 345.019 416.034 345.139C416.584 345.249 416.834 346.259 416.594 347.399Z" fill="#00012B"/>
<path d="M409.984 345.029C409.754 346.109 409.154 346.899 408.624 346.789C408.104 346.679 407.864 345.719 408.084 344.639C408.314 343.559 408.914 342.769 409.444 342.879C409.964 342.989 410.204 343.949 409.984 345.029Z" fill="#00012B"/>
<path d="M407.834 327.939L425.864 334.529L429.064 327.76L429.094 334.689L443.854 341.069C443.854 341.069 446.764 324.819 436.194 321.349C434.174 320.689 414.664 309.759 407.844 327.939H407.834Z" fill="#730070" stroke="#730070" stroke-width="0.89" stroke-miterlimit="10"/>
<path d="M413.304 376.04C410.754 377.77 408.064 379.58 405.744 380.69C397.254 382.73 385.244 385.01 380.414 379.44C375.584 373.87 376.694 362.37 374.504 353.79C374.504 353.79 380.864 341.96 378.034 342.47C375.204 342.98 374.164 346.17 372.764 347.16C371.364 348.15 372.784 332.09 370.534 332.3C368.294 332.51 367.114 344.08 367.114 344.08C367.114 344.08 366.504 333.26 365.074 333.43C363.644 333.61 362.714 344.14 362.714 344.14C362.714 344.14 362.954 333.44 361.774 334.7C360.604 335.96 360.204 343.92 360.204 343.92C360.204 343.92 359.884 337.77 358.224 337.68C356.564 337.58 358.164 356.69 358.164 356.69C358.854 368.14 359.744 381.8 362.744 393.52C366.964 410.03 391.994 405.46 398.444 403.61C405.444 401.6 417.654 396.83 419.824 389.32C420.174 388.09 420.524 385.85 420.774 384.06H420.854C420.934 383.28 420.994 381.44 421.054 379.39C421.054 379.39 419.014 377.12 413.304 376.04Z" fill="#FFA3C5"/>
<path d="M445.674 384.6C445.674 384.6 437.014 377.07 431.424 374.85C405.464 385.9 410.524 376.05 409.664 373.85C406.064 373.72 397.014 393.96 395.174 403.14C393.434 411.81 387.164 438.59 387.164 441.99L440.344 442.48C440.344 442.48 449.514 396.27 445.674 384.61V384.6Z" fill="#5C7EF1"/>
<path d="M333.274 442.81H390.844V439.21H333.274V442.81Z" fill="#730070" stroke="#730070" stroke-width="0.89" stroke-miterlimit="10"/>
<path d="M379.134 434.35L380.284 441.11L385.964 437.86L387.354 435.12L380.484 431.82L379.134 434.35Z" fill="#FFF3E7"/>
<path d="M379.764 438.04L380.284 441.11L382.744 439.7C382.744 439.7 382.694 437.7 379.754 438.04H379.764Z" fill="#050064"/>
<path d="M385.924 437.83C386.074 437.26 385.814 436.64 385.274 436.36C384.724 436.08 384.074 436.23 383.694 436.69L383.644 436.66C383.794 436.09 383.534 435.47 382.994 435.19C382.444 434.91 381.794 435.06 381.414 435.52L381.364 435.49C381.514 434.92 381.254 434.3 380.714 434.02C380.184 433.75 379.564 433.88 379.184 434.3L397.074 399.47L403.904 402.98L385.984 437.87L385.944 437.85L385.924 437.83Z" fill="#F18D0F"/>
<path d="M385.264 436.36C384.714 436.08 384.064 436.23 383.684 436.69L383.634 436.66C383.784 436.09 383.524 435.47 382.984 435.19C382.434 434.91 381.784 435.06 381.404 435.52L381.354 435.49C381.504 434.92 381.244 434.3 380.704 434.02C380.174 433.75 379.554 433.88 379.174 434.3L397.064 399.47L402.574 402.51C402.574 402.51 385.824 436.66 385.274 436.38L385.264 436.36Z" fill="#FF984E"/>
<path d="M403.883 403.012L397.051 399.503L396.206 401.149L403.037 404.658L403.883 403.012Z" fill="#FFF3E7"/>
<path d="M396.994 399.579L403.824 403.089L404.954 400.889C405.924 398.999 405.184 396.689 403.294 395.719C401.404 394.749 399.094 395.489 398.124 397.379L396.994 399.579Z" fill="#D4367C"/>
<path d="M396.994 399.58L402.994 402.66L404.124 400.46C405.094 398.57 404.534 396.35 402.874 395.5C401.214 394.65 399.084 395.49 398.114 397.37L396.984 399.57L396.994 399.58Z" fill="#FA539A"/>
<path d="M381.244 435.579L397.574 404.229" stroke="#FFF3E7" stroke-width="0.28" stroke-miterlimit="10"/>
<path d="M383.624 436.6L399.954 405.24" stroke="#FFF3E7" stroke-width="0.28" stroke-miterlimit="10"/>
<path d="M385.804 432.16C396.504 431.99 420.864 430.27 428.754 426.15C436.644 422.03 437.334 407.28 437.304 396.73C435.834 389.9 433.054 379.21 433.174 375.34C433.174 375.34 437.824 376.6 443.494 379.84C443.494 379.84 445.984 381.9 446.804 382.59C453.884 388.54 457.184 408.44 457.584 417.23C457.954 425.33 462.044 445.03 441.454 445.37C420.864 445.71 373.504 442.97 373.504 442.97C373.504 442.97 375.104 432.34 385.804 432.16Z" fill="#FFA3C5"/>
<path d="M414.474 365.01L422.924 366.09C422.924 366.09 410.784 370.81 414.474 365.01Z" fill="#CC4285"/>
<path d="M431.414 374.84C431.414 374.84 451.674 378.84 458.924 390.35L433.914 403.1L431.414 374.84Z" fill="#5C7EF1"/>
<path d="M409.664 373.84C409.664 373.84 402.914 373.84 388.904 382.34L399.654 393.84L409.654 373.83L409.664 373.84Z" fill="#5C7EF1"/>
<path d="M398.154 391.85L401.404 385.1" stroke="black" stroke-width="0.81" stroke-miterlimit="10"/>
<path d="M436.924 401.1L433.674 390.1" stroke="black" stroke-width="0.81" stroke-miterlimit="10"/>
<g opacity="0.31">
<path d="M428.504 384.14C429.954 384.14 429.954 381.88 428.504 381.88C427.054 381.88 427.054 384.14 428.504 384.14Z" fill="white"/>
<path d="M413.834 392.14C415.284 392.14 415.284 389.88 413.834 389.88C412.384 389.88 412.384 392.14 413.834 392.14Z" fill="white"/>
<path d="M420.494 422.49C421.944 422.49 421.944 420.229 420.494 420.229C419.044 420.229 419.044 422.49 420.494 422.49Z" fill="white"/>
<path d="M425.504 406.82C426.954 406.82 426.954 404.56 425.504 404.56C424.054 404.56 424.054 406.82 425.504 406.82Z" fill="white"/>
<path d="M401.494 406.15C402.944 406.15 402.944 403.89 401.494 403.89C400.044 403.89 400.044 406.15 401.494 406.15Z" fill="white"/>
<path d="M401.824 379.14C403.274 379.14 403.274 376.88 401.824 376.88C400.374 376.88 400.374 379.14 401.824 379.14Z" fill="white"/>
<path d="M444.174 388.81C445.624 388.81 445.624 386.55 444.174 386.55C442.724 386.55 442.724 388.81 444.174 388.81Z" fill="white"/>
</g>
<g opacity="0.24">
<path d="M650.164 442.04H542.284L558.044 395.56C559.134 390.78 563.384 387.39 568.284 387.39H654.584C661.324 387.39 666.314 393.65 664.824 400.22L650.174 442.04H650.164Z" fill="#809CFF"/>
</g>
<g opacity="0.63">
<path d="M650.164 442.04H542.284L558.044 395.56C559.134 390.78 563.384 387.39 568.284 387.39H654.584C661.324 387.39 666.314 393.65 664.824 400.22L650.174 442.04H650.164Z" stroke="#5C74DF" stroke-width="1.89" stroke-miterlimit="10"/>
</g>
<path d="M602.024 360.55C602.024 360.55 611.684 360.62 619.394 375.15C627.784 390.94 623.674 442.96 623.674 442.96L553.414 441.47L562.584 384.12C562.754 379.58 564.804 375.4 567.454 371.26C576.744 356.77 598.364 359.94 598.364 359.94L602.044 360.54L602.024 360.55Z" fill="#6583E0"/>
<path d="M612.464 351.15L606.063 366.22C606.063 366.22 595.543 373.99 590.043 371.21C586.613 369.48 584.833 361.31 584.833 361.31L591.633 351.08L611.214 346.72C611.214 346.72 612.514 349.51 612.464 350.22C612.414 350.93 612.464 351.15 612.464 351.15Z" fill="#FFA2A1"/>
<path d="M614.803 347.37L591.263 351.18L586.293 359.79C586.293 359.79 595.853 362.44 604.803 353.67" fill="#080057"/>
<path d="M615.874 342.16C615.874 342.74 618.924 341.58 619.454 341.35C621.254 340.57 624.824 341.67 623.894 347.1C622.624 354.47 613.294 351.81 612.364 352.52C610.474 353.96 601.144 357.4 594.584 356.61C577.454 354.53 577.404 343.16 591.174 317.54C591.174 317.54 593.394 316.75 595.574 318.51C597.754 320.28 611.974 319.71 611.794 328.57C611.714 332.64 615.824 338.74 615.874 342.16Z" fill="#FFA2A1"/>
<path d="M583.134 341.04C583.134 341.04 585.014 342.54 590.284 343.22C590.284 343.22 587.104 345.59 584.924 345.27C583.634 345.08 583.144 341.04 583.144 341.04H583.134Z" fill="white"/>
<path d="M622.334 346.25L616.534 348.46C616.534 348.46 620.714 340.39 622.334 346.25Z" fill="#E35D5D"/>
<path d="M589.804 337.24C589.604 338.13 589.804 338.94 590.254 339.04C590.704 339.14 591.224 338.5 591.424 337.6C591.624 336.71 591.424 335.9 590.974 335.8C590.524 335.7 590.004 336.34 589.804 337.24Z" fill="#080057"/>
<path d="M584.724 335.271C584.524 336.161 584.724 336.971 585.174 337.071C585.624 337.171 586.144 336.531 586.344 335.631C586.544 334.741 586.344 333.931 585.894 333.831C585.444 333.731 584.924 334.371 584.724 335.271Z" fill="#080057"/>
<path d="M597.654 334.5C598.774 335.82 597.793 330.97 596.053 329.98C594.313 328.99 592.204 329.4 591.344 330.9C591.344 330.9 594.963 331.32 597.643 334.5H597.654Z" fill="#080057"/>
<path d="M585.164 330.19C586.994 330.47 588.174 331.19 588.174 331.19C588.344 329.59 587.324 328.13 585.794 327.62" fill="#080057"/>
<path d="M587.894 336.63L584.834 340.03C584.784 340.09 584.834 340.17 584.934 340.2L587.494 340.9C587.584 340.92 587.664 340.9 587.674 340.83L588.174 336.73C588.184 336.62 587.974 336.55 587.894 336.64V336.63Z" fill="#E35D5D"/>
<path d="M614.054 344.41C611.564 340.86 610.584 335.35 609.084 331.28C608.524 329.76 607.854 328.27 607.094 326.83C606.434 325.59 605.654 324.33 604.444 323.61C602.594 322.52 600.134 322.99 598.364 324.22C597.704 324.68 596.944 325.27 596.184 324.99C595.814 324.85 595.554 324.54 595.314 324.22C593.164 321.34 590.534 317.55 590.664 313.96C590.664 313.96 592.644 304.34 606.964 307.89C617.464 310.49 632.754 310.62 628.424 331.69C625.724 344.83 614.044 344.4 614.044 344.4L614.054 344.41Z" fill="#3E65AD"/>
<path d="M592.683 312.01C592.683 312.01 588.253 315.27 587.903 319C587.553 322.73 588.173 323.48 588.173 323.48L594.273 317.11L592.683 312.01Z" fill="#3E65AD"/>
<path d="M562.014 390C562.764 390.14 607.824 442.86 607.824 442.86C607.824 442.86 552.334 441.94 553.404 441.47C554.484 441 562.014 390.01 562.014 390.01V390Z" fill="#002C4C"/>
<path d="M550.554 398.01C550.554 398.01 538.044 433.88 537.334 432.81C537.334 432.81 517.544 441.05 519.884 442.42C522.224 443.79 554.784 442.78 554.784 442.78L574.384 405.66L550.554 398.01Z" fill="#FFA2A1"/>
<path d="M573.294 365.15C559.274 367.43 546.944 397.58 546.944 397.58L577.454 408.87L589.524 391.82L573.284 365.14L573.294 365.15Z" fill="#6583E0"/>
<path d="M624.004 389.55C624.004 389.55 652.774 390.63 664.494 382.76C676.214 374.89 672.434 328.82 672.434 328.82C672.434 328.82 673.774 320.2 672.104 318.16C670.434 316.11 667.834 328.74 667.834 328.74C667.834 328.74 671.014 313.95 669.054 312C667.094 310.05 663.724 327.18 663.724 327.18C663.724 327.18 668.364 310.92 664.934 309.46C661.504 308 658.824 326.21 658.824 326.21C658.824 326.21 662.314 315.24 659.564 312.9C656.814 310.56 655.604 327.3 655.604 327.3C655.604 327.3 653.264 331.03 651.094 324.58C648.924 318.13 645.904 324.7 648.874 334.47C651.844 344.25 652.784 363.52 629.204 362.33L624.014 389.55H624.004Z" fill="#FFA2A1"/>
<path d="M597.654 381.12C597.654 381.12 607.524 407.51 643.974 391.63L628.294 354.79C628.294 354.79 596.694 356.95 597.654 381.12Z" fill="#6583E0"/>
<path d="M663.964 442.52L669.454 438.41L663.974 434.84L660.904 434.86L661.104 442.47L663.964 442.52Z" fill="#FFF2E7"/>
<path d="M666.964 440.27L669.454 438.41L667.074 436.86C667.074 436.86 665.314 437.82 666.964 440.27Z" fill="#000264"/>
<path d="M663.974 434.89C663.394 435.02 662.964 435.53 662.964 436.14C662.964 436.76 663.394 437.27 663.974 437.4V437.46C663.394 437.59 662.964 438.1 662.964 438.71C662.964 439.33 663.394 439.84 663.974 439.97V440.03C663.394 440.16 662.964 440.67 662.964 441.28C662.964 441.87 663.364 442.36 663.904 442.51L624.754 442.49V434.81L663.984 434.83V434.88L663.974 434.89Z" fill="#F1820F"/>
<path d="M662.964 436.14C662.964 436.76 663.394 437.27 663.974 437.4V437.46C663.394 437.59 662.964 438.1 662.964 438.71C662.964 439.33 663.394 439.84 663.974 439.97V440.03C663.394 440.16 662.964 440.67 662.964 441.28C662.964 441.87 663.364 442.36 663.904 442.51L624.754 442.49L624.944 436.2C624.944 436.2 662.974 435.51 662.974 436.13L662.964 436.14Z" fill="#FF8F4E"/>
<path d="M624.843 434.833L624.839 442.513L626.689 442.514L626.693 434.834L624.843 434.833Z" fill="#FFF2E7"/>
<path d="M624.884 442.5V434.82H622.414C620.294 434.82 618.574 436.54 618.574 438.66C618.574 440.78 620.294 442.5 622.414 442.5H624.884Z" fill="#D4368F"/>
<path d="M624.884 442.5V435.75H622.414C620.294 435.75 618.574 437.26 618.574 439.12C618.574 440.98 620.294 442.5 622.414 442.5H624.884Z" fill="#FA53AE"/>
<path d="M664.104 440.08L628.754 439.87" stroke="#FFF2E7" stroke-width="0.28" stroke-miterlimit="10"/>
<path d="M663.924 437.5L628.564 437.28" stroke="#FFF2E7" stroke-width="0.28" stroke-miterlimit="10"/>
<path d="M615.794 437.09H563.564V443.26H615.794V437.09Z" fill="white"/>
<defs>
<filter id="filter0_f_12817_71173" x="85" y="0" width="324" height="324" filterUnits="userSpaceOnUse" color-interpolation-filters="sRGB">
<feFlood flood-opacity="0" result="BackgroundImageFix"/>
<feBlend mode="normal" in="SourceGraphic" in2="BackgroundImageFix" result="shape"/>
<feGaussianBlur stdDeviation="16" result="effect1_foregroundBlur_12817_71173"/>
</filter>
<filter id="filter1_f_12817_71173" x="116.816" y="25.2256" width="286.959" height="286.96" filterUnits="userSpaceOnUse" color-interpolation-filters="sRGB">
<feFlood flood-opacity="0" result="BackgroundImageFix"/>
<feBlend mode="normal" in="SourceGraphic" in2="BackgroundImageFix" result="shape"/>
<feGaussianBlur stdDeviation="32" result="effect1_foregroundBlur_12817_71173"/>
</filter>
</defs>
</svg>
