<svg width="660" height="392" viewBox="0 0 660 392" fill="none" xmlns="http://www.w3.org/2000/svg">
<path opacity="0.1" d="M48.5556 391.18C48.5556 391.18 0.666649 368.849 0.0090679 315.684C-0.646268 262.517 32.4819 208.039 75.4513 185.396C118.421 162.752 156.141 147.655 173.525 125.337C190.909 103.021 230.925 67.2484 259.136 67.2484C287.347 67.2484 309.321 74.7955 326.378 61.9984C343.434 49.199 431.954 -3.72981 485.42 0.208808C538.886 4.14742 598.019 13.5449 635.739 73.931C673.459 134.317 663.315 236.591 631.825 296.649C600.338 356.707 573.767 391.18 573.767 391.18H48.5556Z" fill="#F99247"/>
<path opacity="0.3" d="M467.872 81.0518L492.247 86.6431L315.268 242.557L252.255 191.576L122.346 338.173H147.648L251.867 221.153L316.823 270.968L507.805 102.065L516.102 124.118L530.883 64.4463L467.872 81.0518Z" fill="#B3B3B3"/>
<path d="M317.708 299.863C317.708 299.863 340.037 261.175 353.339 284.079C353.339 284.079 378.086 239.51 398.193 255.294C418.3 271.08 387.676 352.789 387.676 352.789C387.676 352.789 420.775 320.91 409.949 368.265C409.949 368.265 423.87 357.707 432.841 361.129C441.811 364.551 434.077 391.183 434.077 391.183H336.015L317.708 299.865V299.863Z" fill="#258D8C"/>
<path d="M97.3848 360.974C97.3848 360.974 157.411 303.213 167.578 338.986C167.578 338.986 181.353 327.172 185.29 335.047C185.29 335.047 218.09 262.517 258.108 263.831C258.108 263.831 272.214 264.159 266.637 301.571C261.06 338.984 267.941 381.32 267.941 381.32C267.941 381.32 228.914 390.837 227.604 391.167C226.291 391.495 123.953 386.245 122.97 386.245C121.987 386.245 97.3848 360.974 97.3848 360.974Z" fill="#7FC6A6"/>
<path d="M201.298 357.707H61.5679V391.181H201.298V357.707Z" fill="#FEC786"/>
<path d="M201.3 357.707H177.437V391.181H201.3V357.707Z" fill="#F99247"/>
<path d="M377.442 287.557H237.71V391.18H377.442V287.557Z" fill="#FEC786"/>
<path d="M562.11 202.886H422.378V391.18H562.11V202.886Z" fill="#FEC786"/>
<path d="M377.442 287.557H353.579V391.18H377.442V287.557Z" fill="#F99247"/>
<path d="M562.11 202.886H538.247V391.18H562.11V202.886Z" fill="#F99247"/>
<path d="M191.511 391.685C193.151 390.044 205.944 367.072 214.8 378.886C214.8 378.886 229.273 345.576 247.6 352.097C247.6 352.097 259.286 358.865 250.798 375.727C250.798 375.727 279.09 373.921 278.72 391.685H191.511Z" fill="#258D8C"/>
<path d="M445.716 392C446.535 391.344 459.986 365.09 468.842 377.395C468.842 377.395 482.126 332.269 500.331 334.402C518.535 336.536 503.119 370.009 503.119 370.009C503.119 370.009 518.699 363.61 515.092 380.512C515.092 380.512 534.936 376.901 533.46 391.178L445.716 391.997V392Z" fill="#7FC6A6"/>
<path d="M520.265 348.7C517.837 351.63 517.141 355.062 518.71 356.362C520.279 357.662 523.519 356.342 525.948 353.411C528.376 350.481 529.072 347.05 527.503 345.749C525.934 344.449 522.693 345.77 520.265 348.7Z" fill="#7FC6A6"/>
<path d="M523.97 360.23C522.534 361.966 522.121 363.996 523.05 364.766C523.979 365.536 525.896 364.755 527.335 363.019C528.771 361.283 529.184 359.253 528.255 358.483C527.326 357.713 525.407 358.494 523.97 360.23Z" fill="#7FC6A6"/>
<path d="M583.496 390.361H39.4121V392.002H583.496V390.361Z" fill="#49263E"/>
<path d="M493.457 341.176C493.41 341.176 493.363 341.158 493.325 341.122C493.248 341.048 493.246 340.929 493.32 340.852C493.453 340.715 496.615 337.479 500.006 337.479C500.111 337.479 500.197 337.565 500.197 337.67C500.197 337.776 500.111 337.861 500.006 337.861C496.776 337.861 493.626 341.086 493.594 341.119C493.556 341.158 493.507 341.178 493.457 341.178V341.176Z" fill="black"/>
<path d="M495.997 340.915C495.95 340.915 495.901 340.897 495.865 340.861C495.789 340.787 495.789 340.668 495.86 340.591C495.921 340.529 497.387 339.055 500.455 338.586C500.56 338.57 500.657 338.642 500.672 338.746C500.688 338.849 500.616 338.948 500.513 338.963C497.571 339.413 496.15 340.843 496.134 340.859C496.096 340.897 496.047 340.917 495.997 340.917V340.915Z" fill="black"/>
<path d="M457.64 380.968C457.593 380.968 457.546 380.95 457.508 380.914C457.432 380.84 457.429 380.721 457.503 380.644C457.636 380.507 460.798 377.271 464.189 377.271C464.299 377.274 464.382 377.357 464.382 377.462C464.382 377.568 464.297 377.653 464.191 377.653C460.96 377.653 457.811 380.878 457.779 380.909C457.741 380.947 457.692 380.968 457.643 380.968H457.64Z" fill="black"/>
<path d="M460.181 380.707C460.134 380.707 460.084 380.689 460.048 380.653C459.974 380.579 459.972 380.46 460.046 380.384C460.107 380.321 461.572 378.848 464.638 378.379C464.743 378.363 464.84 378.435 464.856 378.538C464.871 378.641 464.8 378.74 464.696 378.756C461.765 379.203 460.333 380.635 460.318 380.651C460.28 380.689 460.23 380.707 460.181 380.707Z" fill="black"/>
<path d="M398.258 348.201C398.211 348.201 398.164 348.183 398.128 348.149C398.052 348.077 398.047 347.956 398.119 347.88C398.263 347.727 401.672 344.137 405.379 344.085H405.382C405.485 344.085 405.57 344.168 405.572 344.274C405.572 344.379 405.489 344.464 405.384 344.467C401.84 344.516 398.431 348.104 398.397 348.14C398.359 348.181 398.31 348.201 398.258 348.201Z" fill="black"/>
<path d="M401.037 347.875C400.99 347.875 400.943 347.858 400.907 347.824C400.83 347.752 400.828 347.631 400.9 347.554C400.965 347.485 402.543 345.852 405.889 345.291C405.992 345.273 406.091 345.343 406.109 345.448C406.127 345.551 406.057 345.65 405.952 345.668C402.74 346.205 401.192 347.801 401.176 347.817C401.138 347.858 401.088 347.875 401.037 347.875Z" fill="black"/>
<path d="M300.083 29.6498C297.036 35.012 290.572 39.9881 292.047 46.5517C293.523 53.1153 303.526 60.3346 321.074 51.4738C338.623 42.6131 342.887 24.3998 335.508 18.8197C328.128 13.2396 309.595 12.9118 300.083 29.6498Z" fill="#FEEFDC"/>
<path d="M250.729 45.741C250.116 41.7125 252.731 37.8682 256.683 36.8892C257.334 36.7275 258.05 36.6085 258.838 36.5411C265.725 35.9663 268.76 41.5464 266.053 45.0741C263.347 48.6018 256.131 51.0628 253.016 49.1766C251.458 48.2335 250.924 47.0232 250.729 45.741Z" fill="#FEEFDC"/>
<path d="M231.165 128.676C241.074 126.972 275.075 121.49 298.851 122.196C301.935 122.288 303.436 118.425 301.075 116.436C299.695 115.273 297.478 114.455 293.93 114.626C293.93 114.626 292.565 92.6559 275.917 93.1589C256.822 93.7337 259.125 115.205 259.125 115.205C259.125 115.205 249.571 108.062 244.598 119.137C244.598 119.137 233.161 114.211 229.11 126.285C228.667 127.6 229.796 128.912 231.165 128.678V128.676Z" fill="white"/>
<path d="M71.1151 221.609C77.1006 220.275 91.1634 217.354 103.644 216.377C108.808 215.973 112.54 211.183 111.591 206.088C111.203 204.002 110.054 201.692 107.661 199.251C98.4507 189.851 87.1147 202.123 88.1202 207.494C88.1202 207.494 84.1657 199.805 76.4206 202.531C68.6733 205.257 73.4267 216.604 73.4267 216.604C73.4267 216.604 70.7627 216.48 69.1782 217.992C67.6184 219.478 69.0144 222.079 71.1173 221.609H71.1151Z" fill="white"/>
<path d="M422.97 42.2982C434.068 40.4345 461.179 36.2803 477.843 37.1201C480.251 37.2414 481.553 34.302 479.818 32.6291C478.566 31.421 476.463 30.5093 472.937 30.6957C472.937 30.6957 474.699 15.1299 459.817 15.1299C444.935 15.1299 445.875 31.1897 445.875 31.1897C445.875 31.1897 436.2 23.6426 432.919 34.4727C432.919 34.4727 423.165 31.2885 419.417 36.7855C417.651 39.3746 419.88 42.8214 422.97 42.3005V42.2982Z" fill="white"/>
<path d="M46.3807 250.564C46.3807 253.69 43.8469 256.225 40.7228 256.225C37.5988 256.225 35.0649 253.69 35.0649 250.564C35.0649 247.438 37.5988 244.903 40.7228 244.903C43.8469 244.903 46.3807 247.438 46.3807 250.564Z" fill="#FEC787"/>
<path d="M362.682 97.0916C362.682 100.217 360.148 102.752 357.024 102.752C353.9 102.752 351.366 100.217 351.366 97.0916C351.366 93.9658 353.9 91.4307 357.024 91.4307C360.148 91.4307 362.682 93.9658 362.682 97.0916Z" fill="#FEC787"/>
<path d="M371.511 79.3293C371.887 77.7349 370.9 76.1372 369.307 75.7609C367.713 75.3846 366.116 76.3721 365.74 77.9665C365.364 79.5609 366.351 81.1586 367.945 81.5349C369.538 81.9112 371.135 80.9237 371.511 79.3293Z" fill="#FEC787"/>
<path d="M608.859 165.758C605.746 163.733 604.862 159.567 606.884 156.453C608.906 153.338 613.071 152.454 616.184 154.477C619.297 156.502 620.181 160.668 618.159 163.782C616.137 166.897 611.972 167.781 608.859 165.758Z" fill="#FEC787"/>
<path d="M621.443 186.595C619.811 185.535 619.349 183.35 620.408 181.718C621.468 180.085 623.651 179.623 625.283 180.683C626.915 181.742 627.377 183.927 626.318 185.56C625.258 187.192 623.074 187.655 621.443 186.595Z" fill="#FEC787"/>
<path d="M62.7796 261.744C63.119 260.313 62.2347 258.878 60.8044 258.538C59.3741 258.198 57.9394 259.083 57.5999 260.514C57.2605 261.945 58.1449 263.381 59.5752 263.72C61.0055 264.06 62.4402 263.175 62.7796 261.744Z" fill="#FEC787"/>
<path d="M29.5442 282.741C29.5442 283.567 28.8731 284.239 28.0472 284.239C27.2213 284.239 26.5503 283.567 26.5503 282.741C26.5503 281.915 27.2213 281.243 28.0472 281.243C28.8731 281.243 29.5442 281.915 29.5442 282.741Z" fill="#FEC787"/>
<path d="M137.418 345.246C137.418 345.246 139.708 317.33 136.738 302.862C133.769 288.394 122.79 305.619 122.79 305.619C122.79 305.619 127.321 338.671 126.632 345.466C125.943 352.261 137.421 345.243 137.421 345.243L137.418 345.246Z" fill="#F48462"/>
<path d="M124.965 304.755C124.965 304.755 119.464 345.879 118.885 346.155C118.306 346.431 109.196 345.297 109.196 345.297V304.755H124.965Z" fill="#F48462"/>
<path d="M135.443 276.648C135.443 276.648 141.591 312.093 140.915 312.926C140.24 313.759 131.157 316.393 122.514 316.261C113.871 316.128 104.811 315.547 104.243 315.214C103.675 314.882 107.154 283.506 111.122 273.699C115.088 263.893 135.441 276.648 135.441 276.648H135.443Z" fill="#F7B369"/>
<path d="M135.244 272.069L136.115 276.603C136.115 276.603 127.243 278.101 119.576 277.265C111.91 276.428 109.086 274.973 109.086 274.973L106.512 256.079L113.407 243.955L118.49 242.525L124.9 242.258L132.515 244.964L143.958 257.186L138.698 269.985L135.244 272.069Z" fill="#92B4EA"/>
<path d="M130.782 267.48L127.775 250.411L115.137 249.944L117.323 267.982L130.782 267.48Z" fill="#EFA459"/>
<path d="M116.576 249.998L118.762 268.036L123.713 267.85L129.424 267.641L132.221 267.533L132.068 266.689L130.991 260.572L129.709 253.308L129.207 250.465L116.576 249.998Z" fill="#F7B369"/>
<path d="M137.214 265.382L134.461 253.486L123.647 253.086L126.179 267.403L137.214 265.382Z" fill="#6876AA"/>
<path d="M125.301 253.145L126.356 259.129L127.828 267.466L129.563 267.15L132.068 266.689L138.868 265.441L136.112 253.546L125.301 253.145Z" fill="#40507F"/>
<path d="M136.842 263.649C136.842 263.649 132.802 263.079 131.942 263.047C131.085 263.016 129.855 264.99 129.855 264.99L127.254 265.639L129.889 274.023C129.889 274.023 135.978 275.045 138.615 272.195C139.604 271.124 136.842 263.649 136.842 263.649Z" fill="#E0705A"/>
<path d="M130.354 243.954C130.354 243.954 134.856 245.247 140.116 249.884C147.731 256.598 151.504 262.879 148.997 268.827C146.717 274.237 137.19 274.288 137.19 274.288L134.676 262.522L142.558 257.775L132.483 247.475L130.354 243.949V243.954Z" fill="#92B4EA"/>
<path d="M119.909 264.989C119.909 264.989 122.348 263.799 123.524 263.538C124.637 263.291 125.468 263.377 125.468 263.377L125.773 265.108C125.773 265.108 129.57 266.085 132.219 267.535C134.867 268.984 134.33 270.194 134.33 270.194C134.33 270.194 136.007 271.362 135.244 272.071C134.481 272.781 131.687 271.939 131.687 271.939C131.687 271.939 135.192 273.421 133.691 274.164C132.189 274.907 128.955 274.543 128.955 274.543C128.955 274.543 121.85 275.509 119.61 272.969C117.37 270.43 119.906 264.991 119.906 264.991L119.909 264.989Z" fill="#F48462"/>
<path d="M114.329 243.666C114.329 243.666 107.049 245.067 100.001 254.673C92.5122 264.875 96.6979 273.284 107.114 275.638C117.527 277.989 123.091 275.307 123.091 275.307L121.044 263.004L115.696 262.007L110.5 260.936L112.969 250.456L114.331 243.668L114.329 243.666Z" fill="#92B4EA"/>
<path d="M129.855 265.277C129.716 265.277 129.593 265.173 129.57 265.032C129.546 264.875 129.656 264.726 129.811 264.704L133.702 264.109C133.857 264.084 134.007 264.194 134.03 264.349C134.054 264.506 133.945 264.655 133.787 264.677L129.896 265.272C129.882 265.274 129.867 265.277 129.853 265.277H129.855Z" fill="black"/>
<path d="M125.773 265.393C125.744 265.393 125.712 265.389 125.681 265.377L123.553 264.661C123.403 264.61 123.322 264.446 123.371 264.295C123.423 264.145 123.587 264.066 123.737 264.113L125.865 264.83C126.015 264.881 126.096 265.045 126.047 265.196C126.006 265.317 125.894 265.391 125.773 265.391V265.393Z" fill="black"/>
<path d="M134.175 270.279C134.146 270.279 134.115 270.275 134.086 270.264L128.666 268.476C128.515 268.427 128.432 268.263 128.482 268.113C128.531 267.96 128.695 267.877 128.845 267.928L134.265 269.716C134.415 269.765 134.499 269.929 134.449 270.08C134.409 270.201 134.297 270.277 134.175 270.277V270.279Z" fill="black"/>
<path d="M132.05 272.323C132.021 272.323 131.99 272.319 131.958 272.308L128.56 271.174C128.41 271.122 128.327 270.96 128.379 270.81C128.43 270.659 128.594 270.581 128.742 270.628L132.14 271.762C132.29 271.814 132.373 271.977 132.322 272.126C132.284 272.247 132.169 272.323 132.048 272.323H132.05Z" fill="black"/>
<path d="M115.694 262.294C115.671 262.294 115.649 262.292 115.627 262.285C115.555 262.267 108.389 260.579 104.234 260.426C104.075 260.419 103.952 260.287 103.956 260.127C103.963 259.968 104.084 259.842 104.255 259.849C108.465 260.006 115.685 261.706 115.759 261.724C115.914 261.76 116.008 261.915 115.974 262.072C115.943 262.204 115.824 262.294 115.694 262.294Z" fill="white"/>
<path d="M109.611 261.068C109.571 261.068 109.531 261.059 109.492 261.041C108.099 260.404 104.856 258.816 104.842 257.806C104.842 257.669 104.889 257.415 105.228 257.249C106.772 256.49 109.344 259.916 109.845 260.61C109.921 260.718 109.917 260.862 109.834 260.963C109.778 261.032 109.694 261.068 109.611 261.068ZM105.72 257.718C105.632 257.718 105.554 257.734 105.482 257.77C105.428 257.797 105.415 257.815 105.415 257.815C105.415 258.133 106.817 259.072 108.622 259.986C107.639 258.823 106.433 257.718 105.72 257.718Z" fill="white"/>
<path d="M137.676 261.006C137.602 261.006 137.526 260.977 137.47 260.918C137.36 260.804 137.362 260.62 137.477 260.51C137.584 260.406 140.125 257.975 142.502 257.494C142.657 257.463 142.809 257.564 142.841 257.721C142.872 257.876 142.771 258.028 142.614 258.06C140.406 258.504 137.903 260.898 137.876 260.923C137.82 260.977 137.748 261.004 137.676 261.004V261.006Z" fill="white"/>
<path d="M140.136 258.989C140.089 258.989 140.042 258.978 139.997 258.955C139.889 258.895 139.831 258.776 139.851 258.652C139.99 257.839 140.392 255.92 141.11 255.661C141.312 255.587 141.523 255.634 141.703 255.789C141.88 255.942 141.974 256.151 141.979 256.393C141.997 257.352 140.5 258.758 140.329 258.915C140.275 258.967 140.206 258.991 140.134 258.991L140.136 258.989ZM141.328 256.225C141.133 256.261 140.852 256.919 140.632 257.763C141.045 257.278 141.411 256.737 141.404 256.4C141.404 256.301 141.366 256.254 141.33 256.225H141.328Z" fill="white"/>
<path d="M133.969 242.123C133.969 242.123 131.482 228.588 127.627 225.062C123.769 221.537 116.266 226.452 116.266 226.452C116.266 226.452 113.782 228.538 112.931 232.739C112.081 236.941 111.757 242.696 111.757 242.696L133.971 242.123H133.969Z" fill="black"/>
<path d="M118.829 238.026L118.641 243.837C118.641 243.837 119.633 245.541 123.024 245.93C125.549 246.217 126.392 244.944 126.392 244.944L125.946 239.838L119.853 238.286L118.829 238.023V238.026Z" fill="#F48462"/>
<path d="M119.85 238.286C119.859 238.446 119.913 238.634 120 238.852C121.205 241.798 124.74 242.541 126.197 242.719L125.941 239.838L119.848 238.286H119.85Z" fill="black"/>
<path d="M127.672 226.629C127.672 226.629 130.484 234.017 129.148 238.027C127.815 242.038 124.144 241.22 121.967 240.327C119.79 239.433 118.827 238.025 118.827 238.025C118.827 238.025 116.724 238.627 115.433 236.635C114.143 234.643 115.101 232.474 116.306 232.025C117.512 231.576 118.876 232.497 118.876 232.497L117.878 230.341C117.878 230.341 123.026 219.877 127.674 226.627L127.672 226.629Z" fill="#F48462"/>
<path d="M125.344 237.502C124.909 237.502 124.233 237.345 123.569 236.557C123.466 236.436 123.481 236.254 123.602 236.15C123.724 236.049 123.905 236.063 124.009 236.184C124.817 237.143 125.582 236.898 125.616 236.889C125.764 236.84 125.93 236.916 125.981 237.067C126.033 237.215 125.957 237.379 125.809 237.433C125.791 237.439 125.613 237.5 125.342 237.5L125.344 237.502Z" fill="black"/>
<path d="M118.49 235.639C118.42 235.639 118.351 235.614 118.295 235.565L116.066 233.526C115.949 233.418 115.94 233.236 116.048 233.117C116.156 233 116.338 232.991 116.457 233.099L118.685 235.138C118.802 235.246 118.811 235.428 118.703 235.547C118.645 235.609 118.569 235.641 118.49 235.641V235.639Z" fill="black"/>
<path d="M116.154 235.504C116.042 235.504 115.934 235.439 115.889 235.329C115.826 235.181 115.896 235.012 116.042 234.949L117.538 234.316C117.687 234.256 117.855 234.323 117.918 234.469C117.981 234.617 117.911 234.785 117.765 234.848L116.268 235.482C116.232 235.495 116.194 235.504 116.156 235.504H116.154Z" fill="black"/>
<path d="M118.876 232.499C118.876 232.499 121.43 232.369 123.133 230.359C124.839 228.347 125.696 226.248 125.696 226.248C125.696 226.248 126.762 226.479 127.407 227.368C127.88 228.022 128.43 228.965 128.43 228.965C128.43 228.965 128.632 226.039 127.229 224.528C125.827 223.016 124.538 223.454 124.538 223.454C124.538 223.454 121.394 221.456 117.963 224.211C114.531 226.966 115.815 232.322 115.815 232.322C115.815 232.322 117.514 231.74 118.876 232.499Z" fill="black"/>
<path d="M127.169 235.566C127.142 235.566 127.113 235.562 127.083 235.553C126.931 235.506 126.845 235.344 126.893 235.191C127.301 233.864 126.282 232.966 126.273 232.957C126.152 232.854 126.139 232.672 126.244 232.551C126.349 232.429 126.531 232.418 126.65 232.521C126.704 232.569 127.965 233.68 127.445 235.362C127.407 235.486 127.292 235.566 127.169 235.566Z" fill="black"/>
<path d="M128.412 233.03C128.273 233.03 128.147 232.926 128.127 232.783L127.847 230.872C127.833 230.784 127.862 230.696 127.921 230.634L128.304 230.225C128.414 230.108 128.596 230.104 128.713 230.211C128.83 230.321 128.834 230.503 128.726 230.62L128.437 230.93L128.699 232.704C128.722 232.861 128.612 233.007 128.457 233.032C128.441 233.032 128.428 233.032 128.412 233.032V233.03Z" fill="black"/>
<path d="M124.229 233.397C124.085 233.397 123.962 233.292 123.944 233.146L123.697 231.199C123.688 231.123 123.71 231.044 123.757 230.981L124.204 230.422C124.305 230.299 124.485 230.278 124.61 230.377C124.734 230.476 124.754 230.658 124.655 230.784L124.285 231.246L124.518 233.074C124.538 233.231 124.426 233.377 124.269 233.397C124.256 233.397 124.244 233.397 124.231 233.397H124.229Z" fill="black"/>
<path d="M128.518 229.562C128.497 229.562 128.477 229.56 128.457 229.555L127.22 229.288C127.066 229.254 126.965 229.102 127 228.944C127.034 228.789 127.191 228.691 127.344 228.724L128.58 228.992C128.735 229.025 128.836 229.178 128.8 229.335C128.771 229.47 128.652 229.562 128.52 229.562H128.518Z" fill="black"/>
<path d="M123.024 229.827C122.891 229.827 122.772 229.735 122.743 229.602C122.709 229.447 122.806 229.292 122.961 229.256L125.331 228.726C125.488 228.693 125.64 228.789 125.676 228.944C125.71 229.099 125.613 229.254 125.459 229.29L123.089 229.82C123.066 229.824 123.048 229.827 123.026 229.827H123.024Z" fill="black"/>
<path d="M121.605 356.348C121.605 357.41 121.248 358.625 120.519 358.93C119.79 359.236 113.883 359.874 108.712 359.422C103.763 358.989 102.737 358.623 102.372 358.174C102.192 357.945 102.542 356.883 102.939 355.854C102.964 355.802 102.982 355.744 103.007 355.692C103.211 355.174 103.422 354.673 103.575 354.316C103.727 353.977 103.913 353.654 104.136 353.339C104.67 352.6 105.731 351.071 106.003 350.281C106.36 349.228 107.794 346.49 108.157 345.421C108.523 344.368 109.414 344.148 109.414 344.148C109.414 344.148 118.701 343.912 119.431 344.523C120.153 345.127 120.517 350.137 120.517 350.894V351.651C120.517 352.356 121.002 353.748 121.316 354.902C121.401 355.189 121.468 355.463 121.52 355.708C121.572 355.953 121.605 356.166 121.605 356.346V356.348Z" fill="#A37B90"/>
<path d="M156.475 357.933C155.795 358.214 126.911 359.002 126.24 357.933C126.035 357.61 125.892 356.516 125.798 355.14C125.715 353.999 125.661 352.665 125.625 351.412C125.562 349.189 125.773 346.975 126.148 344.783C126.172 344.635 126.19 344.503 126.197 344.395C126.231 343.638 138.26 343.357 138.26 343.357L148.351 351.318C148.351 351.318 150.828 350.875 153.537 351.318C154.971 351.547 155.896 353.305 156.356 354.962C156.764 356.433 156.798 357.798 156.475 357.935V357.933Z" fill="#A37B90"/>
<path d="M156.475 357.933C155.795 358.213 126.911 359.002 126.239 357.933C126.035 357.609 125.892 356.516 125.797 355.139C131.289 355.53 144.802 356.269 156.354 354.962C156.762 356.43 156.796 357.798 156.472 357.935L156.475 357.933Z" fill="#68B6D8"/>
<path d="M121.605 356.348C121.605 357.41 121.248 358.625 120.519 358.93C119.79 359.236 113.883 359.874 108.712 359.422C103.763 358.989 102.737 358.623 102.372 358.174C102.192 357.945 102.542 356.883 102.939 355.854C107.531 356.202 115.824 356.517 121.316 354.904C121.401 355.192 121.468 355.466 121.52 355.71C121.572 355.955 121.605 356.169 121.605 356.348Z" fill="#68B6D8"/>
<path d="M108.788 349.945C108.66 349.945 108.546 349.86 108.51 349.73C108.469 349.577 108.559 349.418 108.712 349.377C108.878 349.332 112.828 348.281 114.926 348.643L115.826 348.798C114.659 347.978 112.653 346.799 111.378 347.343C111.232 347.406 111.061 347.338 110.999 347.192C110.936 347.046 111.005 346.876 111.151 346.813C113.348 345.87 116.973 348.933 117.126 349.061C117.224 349.146 117.256 349.285 117.2 349.404C117.144 349.521 117.016 349.593 116.89 349.566L114.827 349.211C112.855 348.868 108.9 349.921 108.86 349.934C108.835 349.943 108.81 349.945 108.786 349.945H108.788Z" fill="#FFB255"/>
<path d="M146.187 349.894C146.158 349.894 141.01 349.364 141.01 349.364C140.904 349.353 140.812 349.285 140.772 349.184C140.731 349.085 140.749 348.971 140.821 348.89L142.616 346.775C142.72 346.656 142.902 346.64 143.023 346.743C143.144 346.847 143.16 347.029 143.056 347.15L141.616 348.847L146.219 349.321C146.378 349.339 146.492 349.481 146.477 349.638C146.461 349.786 146.338 349.896 146.192 349.896L146.187 349.894Z" fill="#FFB255"/>
<path d="M123.728 246.259C122.292 246.259 120.404 245.804 118.447 244.052C118.328 243.946 118.317 243.765 118.425 243.646C118.53 243.527 118.712 243.515 118.831 243.623C122.61 247 126.029 245.224 126.06 245.206C126.201 245.132 126.374 245.182 126.45 245.323C126.525 245.464 126.473 245.637 126.334 245.714C126.314 245.723 125.286 246.259 123.728 246.259Z" fill="white"/>
<path d="M111.122 282.017C110.987 282.017 110.866 281.923 110.839 281.786C110.808 281.628 110.909 281.476 111.066 281.447C113.33 281 115.449 278.478 115.469 278.451C115.572 278.33 115.754 278.312 115.875 278.415C115.997 278.518 116.015 278.698 115.914 278.822C115.822 278.932 113.64 281.527 111.178 282.012C111.16 282.017 111.14 282.019 111.122 282.019V282.017Z" fill="#40507F"/>
<path d="M288.088 108.301C288.088 108.301 278.652 114.176 279.445 124.53C280.237 134.886 293.088 134.185 295.956 130.557C300.301 125.062 296.367 114.218 296.367 114.218C296.367 114.218 298.414 100.581 288.088 108.301Z" fill="black"/>
<path d="M306.21 109.105C306.21 109.105 313.764 115.518 313.993 122.872C314.341 134.003 302.202 128.553 301.185 121.417C300.166 114.283 306.21 109.103 306.21 109.103V109.105Z" fill="black"/>
<path d="M320.248 250.151L317.272 265.796L307.027 271.547L297.567 268.324L299.082 250.151H320.248Z" fill="#F27A5F"/>
<path d="M318.718 258.197H296.614L292.886 268.324L317.272 265.796L318.718 258.197Z" fill="#F7B369"/>
<path d="M294.984 268.325L300.806 279.451L304.489 286.498C304.489 286.498 340.813 287.879 342.655 286.498C344.498 285.117 344.498 281.212 342.655 279.595C340.813 277.987 319.202 266.254 319.202 266.254C319.202 266.254 319.202 263.032 317.858 262.72C316.507 262.41 307.552 266.254 307.552 266.254L297.103 262.706L294.984 268.325Z" fill="#35456D"/>
<path d="M300.806 279.451L304.489 286.498C304.489 286.498 340.813 287.879 342.655 286.498C344.498 285.117 344.498 281.212 342.655 279.595C342.655 279.595 317.725 281.439 303.862 279.595C302.552 279.422 301.551 279.382 300.806 279.451Z" fill="#82A9E0"/>
<path d="M299.928 252.069L297.567 268.325H280.116L279.379 252.069H299.928Z" fill="#F48462"/>
<path d="M297.567 268.325L298.748 260.198H279.748L280.116 268.325H297.567Z" fill="#F7B369"/>
<path d="M274.754 283.509C274.754 285.503 275.975 288.265 280.273 289.183C284.564 290.108 307.009 289.183 307.705 288.417C308.077 288.018 308.313 286.387 308.45 284.926C308.6 283.372 308.214 281.807 307.361 280.502L298.173 266.485C298.173 266.485 295.642 263.883 290.715 264.339C285.789 264.801 283.32 266.485 283.32 266.485C283.32 266.485 281.038 264.173 279.961 264.947C279.072 265.59 276.078 276.561 275.077 281.427C274.871 282.426 274.754 283.174 274.754 283.511V283.509Z" fill="#40507F"/>
<path d="M316.644 162.626C316.644 162.626 322.587 183.954 325.127 202.008C327.668 220.062 329.091 249.352 327.439 250.439C325.787 251.526 306.401 252.867 306.401 252.867C306.401 252.867 299.865 255.346 288.583 255.042C280.394 254.822 273.735 252.902 273.735 252.902C273.735 252.902 277.144 172.628 283.318 160.244C288.15 150.555 316.644 162.624 316.644 162.624V162.626Z" fill="#A37B90"/>
<path d="M318.717 163.028C318.717 163.028 305.052 166.259 295.444 165.57C285.836 164.881 280.964 163.491 280.964 163.491L278.161 139.758L288.556 125.137C289.737 123.478 291.644 122.49 293.678 122.483L300.691 122.245C301.629 122.259 304.002 122.811 304.872 123.157C307.049 124.019 309.796 125.4 310.14 126.247L311.381 137.656L318.715 163.026L318.717 163.028Z" fill="#68B6D8"/>
<path d="M306.073 111.492C306.073 111.492 308.65 108.905 308.149 104.679C307.808 101.816 306.589 100.835 306.589 100.835C306.589 100.835 308.703 97.0487 302.96 97.0083C297.219 96.9657 293.711 99.6154 293.711 99.6154C293.711 99.6154 291.155 98.2007 289.833 101.201C288.511 104.198 289.468 108.764 289.468 108.764L306.075 111.492H306.073Z" fill="black"/>
<path d="M293.265 115.606L293.101 122.612C293.101 122.612 294.317 124.655 298.407 125.084C301.452 125.403 302.455 123.858 302.455 123.858L301.858 117.71L294.499 115.909L293.265 115.604V115.606Z" fill="#F48462"/>
<path d="M293.285 115.179C293.299 115.37 293.366 115.599 293.474 115.859C294.959 119.396 300.438 120.981 302.197 121.181L301.858 117.712L293.285 115.179Z" fill="black"/>
<path d="M303.795 101.775C303.795 101.775 307.265 110.645 305.703 115.493C304.141 120.341 299.708 119.396 297.073 118.345C294.441 117.294 293.265 115.607 293.265 115.607C293.265 115.607 290.738 116.357 289.16 113.971C287.582 111.586 288.713 108.961 290.161 108.404C291.608 107.849 293.263 108.943 293.263 108.943L292.035 106.356C292.035 106.356 298.117 93.6914 303.795 101.773V101.775Z" fill="#F48462"/>
<path d="M293.26 108.945C293.26 108.945 296.972 109.884 299.778 105.838C302.583 101.791 302.428 100.067 302.428 100.067L304.814 104.499C304.814 104.499 305.539 101.542 304.437 99.5793C303.335 97.6167 302.076 97.9513 302.076 97.9513L293.714 99.6175L291.216 106.138L293.263 108.945H293.26Z" fill="black"/>
<path d="M302.974 112.913C302.935 112.913 302.895 112.907 302.855 112.893C302.675 112.828 302.579 112.628 302.646 112.449C303.205 110.895 302.101 109.137 302.089 109.121C301.986 108.959 302.033 108.744 302.195 108.64C302.356 108.539 302.57 108.582 302.675 108.746C302.729 108.831 303.972 110.814 303.301 112.682C303.252 112.826 303.117 112.913 302.976 112.913H302.974Z" fill="black"/>
<path d="M292.718 113.089C292.621 113.089 292.522 113.048 292.455 112.967L290.202 110.349C290.076 110.205 290.094 109.985 290.238 109.86C290.383 109.736 290.603 109.752 290.729 109.895L292.982 112.514C293.108 112.657 293.09 112.878 292.947 113.005C292.879 113.062 292.801 113.089 292.718 113.089Z" fill="black"/>
<path d="M290.24 112.301C290.065 112.301 289.914 112.168 289.894 111.989C289.874 111.798 290.013 111.625 290.202 111.607L291.851 111.434C292.042 111.407 292.212 111.553 292.233 111.742C292.253 111.932 292.114 112.105 291.925 112.123L290.276 112.296C290.262 112.296 290.251 112.298 290.237 112.298L290.24 112.301Z" fill="black"/>
<path d="M300.393 115.772C300.234 115.772 300.079 115.74 299.931 115.671C298.997 115.217 299.111 113.854 299.118 113.796C299.127 113.693 299.181 113.598 299.268 113.54C299.354 113.479 299.459 113.466 299.56 113.493L302.13 114.234C302.249 114.267 302.343 114.364 302.372 114.487C302.402 114.611 302.363 114.737 302.271 114.822C302.15 114.934 301.228 115.772 300.393 115.772ZM299.827 114.294C299.865 114.577 299.969 114.914 300.236 115.047C300.469 115.161 300.898 114.973 301.284 114.717L299.827 114.294Z" fill="black"/>
<path d="M304.998 105.854C304.974 105.854 304.949 105.851 304.922 105.845L303.389 105.499C303.201 105.456 303.084 105.27 303.126 105.084C303.169 104.897 303.351 104.783 303.542 104.821L305.074 105.167C305.263 105.209 305.38 105.396 305.339 105.582C305.301 105.744 305.158 105.854 304.998 105.854Z" fill="black"/>
<path d="M298.517 106.559C298.384 106.559 298.259 106.482 298.2 106.352C298.122 106.177 298.2 105.97 298.375 105.894L300.977 104.731C301.149 104.65 301.356 104.731 301.434 104.906C301.513 105.081 301.434 105.288 301.259 105.364L298.658 106.527C298.613 106.547 298.564 106.559 298.517 106.559Z" fill="black"/>
<path d="M304.823 109.433C304.668 109.433 304.527 109.33 304.487 109.173L304.08 107.576C304.051 107.464 304.08 107.345 304.159 107.257L304.671 106.689C304.801 106.548 305.019 106.536 305.162 106.664C305.306 106.792 305.317 107.012 305.187 107.156L304.801 107.585L305.162 109.002C305.209 109.188 305.099 109.377 304.913 109.424C304.882 109.433 304.855 109.435 304.826 109.435L304.823 109.433Z" fill="black"/>
<path d="M300.402 109.641C300.247 109.641 300.106 109.538 300.065 109.381L299.659 107.784C299.63 107.67 299.659 107.546 299.744 107.461L300.449 106.713C300.579 106.572 300.801 106.565 300.94 106.7C301.082 106.832 301.086 107.052 300.954 107.191L300.379 107.8L300.738 109.212C300.786 109.399 300.676 109.587 300.489 109.634C300.46 109.641 300.431 109.643 300.404 109.643L300.402 109.641Z" fill="black"/>
<path d="M306.403 253.214C306.379 253.214 306.354 253.212 306.327 253.205C306.139 253.162 306.022 252.976 306.064 252.79C310.223 234.21 309.563 177.19 309.557 176.618C309.557 176.478 309.635 176.353 309.763 176.297L316.224 173.42C316.397 173.342 316.606 173.42 316.682 173.598C316.761 173.773 316.682 173.979 316.505 174.056L310.252 176.84C310.295 180.833 310.782 234.889 306.742 252.945C306.709 253.104 306.565 253.214 306.406 253.214H306.403Z" fill="#40507F"/>
<path d="M286.406 247.118C282.057 247.118 277.55 246.909 273.816 246.278C273.627 246.247 273.499 246.069 273.531 245.878C273.562 245.69 273.751 245.562 273.93 245.595C284.97 247.455 302.886 245.611 303.068 245.591C303.256 245.571 303.429 245.71 303.449 245.901C303.47 246.092 303.33 246.264 303.14 246.282C303.021 246.294 295.024 247.118 286.406 247.118Z" fill="#40507F"/>
<path d="M307.552 246.28C307.361 246.28 307.204 246.125 307.204 245.932C307.204 245.739 307.359 245.584 307.552 245.584C315.575 245.584 327.214 243.538 327.331 243.52C327.513 243.482 327.699 243.612 327.733 243.801C327.766 243.992 327.641 244.172 327.45 244.205C327.333 244.225 315.636 246.28 307.552 246.28Z" fill="#40507F"/>
<path d="M274.754 283.509C274.754 285.503 275.975 288.265 280.273 289.183C284.564 290.108 307.009 289.183 307.705 288.417C308.077 288.018 308.313 286.387 308.45 284.926C308.6 283.372 308.214 281.807 307.361 280.502C307.361 280.502 305.925 282.792 292.215 283.271C283.419 283.576 277.903 282.346 275.079 281.427C274.871 282.426 274.754 283.174 274.754 283.511V283.509Z" fill="#92B4EA"/>
<path d="M286.687 275.088C286.537 275.088 286.398 274.989 286.353 274.837C286.299 274.652 286.407 274.462 286.588 274.405C291.676 272.928 297.577 274.343 297.826 274.401C298.012 274.446 298.126 274.637 298.079 274.823C298.034 275.012 297.848 275.124 297.66 275.079C297.601 275.063 291.687 273.649 286.781 275.075C286.75 275.084 286.716 275.088 286.685 275.088H286.687Z" fill="white"/>
<path d="M285.834 271.226C285.684 271.226 285.545 271.128 285.5 270.975C285.446 270.791 285.554 270.598 285.735 270.544C290.825 269.064 296.723 270.479 296.973 270.539C297.159 270.584 297.273 270.775 297.226 270.961C297.181 271.148 296.997 271.267 296.807 271.217C296.748 271.204 290.837 269.787 285.928 271.213C285.897 271.222 285.863 271.226 285.832 271.226H285.834Z" fill="white"/>
<path d="M319.869 271.895C319.692 271.895 319.539 271.758 319.523 271.578C319.507 271.387 319.647 271.219 319.84 271.201L327.36 270.534C327.531 270.509 327.719 270.657 327.737 270.851C327.753 271.041 327.614 271.21 327.421 271.228L319.9 271.895C319.9 271.895 319.88 271.895 319.869 271.895Z" fill="white"/>
<path d="M317.27 268.673C317.095 268.673 316.945 268.54 316.924 268.361C316.904 268.17 317.043 267.999 317.234 267.979L322.048 267.483C322.237 267.456 322.409 267.602 322.43 267.795C322.45 267.986 322.311 268.156 322.12 268.177L317.306 268.673C317.306 268.673 317.281 268.673 317.27 268.673Z" fill="white"/>
<path d="M282.243 173.775C282.057 173.775 281.902 173.627 281.895 173.439C281.891 173.248 282.039 173.086 282.232 173.079C286.058 172.951 287.582 167.764 287.598 167.713C287.652 167.528 287.838 167.416 288.027 167.474C288.211 167.528 288.318 167.719 288.264 167.903C288.199 168.137 286.588 173.632 282.254 173.775C282.25 173.775 282.245 173.775 282.241 173.775H282.243Z" fill="#40507F"/>
<path d="M329.171 151.682C329.171 151.682 328.251 132.824 304.998 123.306L309.267 152.421L329.169 151.682H329.171Z" fill="#68B6D8"/>
<path d="M292.064 122.637C292.064 122.637 268.115 129.674 264.174 147.445C259.095 170.345 289.18 168.092 289.18 168.092L292.064 122.639V122.637Z" fill="#68B6D8"/>
<path d="M315.986 148.684C315.755 148.66 315.618 148.487 315.64 148.296C316.035 144.948 313.297 134.338 313.27 134.232C313.221 134.046 313.333 133.857 313.52 133.808C313.708 133.761 313.897 133.871 313.944 134.057C314.058 134.497 316.742 144.898 316.332 148.377C316.311 148.554 316.161 148.682 315.988 148.682L315.986 148.684Z" fill="#FCBC49"/>
<path d="M294.744 146.057V142.396C294.744 142.396 309.247 144.227 314.081 147.233C318.915 150.24 304.484 153.289 304.484 153.289L294.744 146.057Z" fill="#EBEBED"/>
<path d="M329.885 143.706V147.845L312.03 149.252C312.03 149.252 314.995 143.794 329.885 143.706Z" fill="#EBEBED"/>
<path d="M330.55 145.485L329.912 170.199L313.558 172.199L293.514 170.5V144.62L314.081 147.236L330.55 145.485Z" fill="#5C69A5"/>
<path d="M315.071 147.062H313.183V172.199H315.071V147.062Z" fill="#4D5C91"/>
<path d="M286.886 153.947C286.886 153.947 292.695 150.835 293.512 150.572C293.512 150.572 293.969 153.898 293.7 154.289C293.429 154.682 305.602 156.559 305.568 157.735C305.537 158.912 304.405 159.173 304.405 159.173C304.405 159.173 306.843 159.696 306.19 160.872C305.537 162.049 304.405 162.096 304.405 162.096C304.405 162.096 306.802 163.262 304.405 164.746C302.009 166.23 290.248 167.146 286.478 163.383C283.706 160.616 286.884 153.947 286.884 153.947H286.886Z" fill="#F48462"/>
<path d="M289.501 151.99L289.18 168.09C289.18 168.09 283.309 167.738 275.187 161.906C264.702 154.381 274.66 149.571 274.66 149.571L278.475 146.848L289.501 151.988V151.99Z" fill="#68B6D8"/>
<path d="M325.347 155.632C325.635 155.089 326.077 154.644 326.582 154.294C328.292 153.108 333.669 150.636 335.265 152.149C336.796 153.6 333.849 155.066 333.849 155.066C333.849 155.066 336.459 154.361 336.331 156.303C336.226 157.927 334.563 158.461 334.563 158.461C334.563 158.461 337.348 157.985 336.336 160.312C335.323 162.638 329.567 164.706 327.448 164.641C325.329 164.578 326.831 161.796 326.831 161.796C326.831 161.796 324.555 161.425 324.555 160.163C324.555 158.827 326.344 158.32 326.344 158.32C326.344 158.32 324.315 157.586 325.347 155.627V155.632Z" fill="#F48462"/>
<path d="M304.408 159.523C304.367 159.523 297.408 158.715 297.408 158.715C297.217 158.692 297.082 158.519 297.103 158.331C297.125 158.14 297.302 158.005 297.486 158.025L304.444 158.829C304.634 158.852 304.769 159.025 304.749 159.213C304.729 159.391 304.578 159.521 304.406 159.521L304.408 159.523Z" fill="black"/>
<path d="M304.408 162.447H297.45C297.26 162.447 297.103 162.292 297.103 162.099C297.103 161.906 297.257 161.751 297.45 161.751H304.408C304.598 161.751 304.756 161.906 304.756 162.099C304.756 162.292 304.601 162.447 304.408 162.447Z" fill="black"/>
<path d="M327.012 158.506C326.88 158.506 326.754 158.429 326.696 158.301C326.618 158.126 326.696 157.92 326.869 157.841L333.707 154.751C333.88 154.675 334.089 154.751 334.167 154.924C334.246 155.099 334.167 155.306 333.995 155.384L327.156 158.474C327.109 158.495 327.062 158.506 327.012 158.506Z" fill="black"/>
<path d="M327.666 161.83C327.533 161.83 327.405 161.751 327.347 161.621C327.271 161.446 327.349 161.239 327.527 161.163L334.426 158.147C334.603 158.073 334.807 158.151 334.883 158.327C334.96 158.502 334.879 158.708 334.704 158.785L327.805 161.8C327.76 161.821 327.713 161.83 327.666 161.83Z" fill="black"/>
<path d="M289.124 151.482C289.057 151.482 288.987 151.461 288.927 151.421C288.835 151.358 279.725 145.111 274.924 144.094C274.736 144.053 274.617 143.869 274.657 143.683C274.698 143.494 274.884 143.38 275.068 143.416C280.003 144.462 288.94 150.59 289.317 150.851C289.476 150.961 289.517 151.176 289.407 151.333C289.342 151.43 289.234 151.482 289.124 151.482Z" fill="#F7B369"/>
<path d="M283.219 147.774C283.127 147.774 283.035 147.736 282.968 147.666C281.446 146.07 277.968 142.235 278.522 141.101C278.619 140.903 278.85 140.676 279.382 140.732C281.963 140.993 283.401 146.696 283.556 147.345C283.592 147.498 283.522 147.657 283.383 147.732C283.332 147.763 283.276 147.774 283.217 147.774H283.219ZM279.225 141.422C279.151 141.422 279.121 141.435 279.121 141.435C279.002 141.846 280.466 143.881 282.483 146.124C281.855 144.199 280.697 141.565 279.312 141.426C279.278 141.422 279.249 141.422 279.225 141.422Z" fill="#F7B369"/>
<path d="M298.378 125.335C296.737 125.335 294.731 124.828 292.56 123.162C292.41 123.045 292.381 122.827 292.497 122.674C292.614 122.522 292.832 122.495 292.984 122.611C298.079 126.521 302.022 123.669 302.186 123.543C302.341 123.431 302.559 123.46 302.673 123.613C302.788 123.766 302.756 123.983 302.606 124.1C302.579 124.12 300.918 125.335 298.38 125.335H298.378Z" fill="#F7B369"/>
<path d="M541.016 169.815C540.289 169.815 539.582 169.447 539.178 168.782C538.561 167.767 538.882 166.445 539.896 165.827C548.447 160.615 559.886 151.094 558.54 146.246C557.058 140.913 545.516 142.826 541.591 143.918C540.444 144.239 539.261 143.565 538.945 142.42C538.628 141.275 539.295 140.089 540.442 139.772C541.229 139.552 559.754 134.536 562.685 145.094C565.374 154.779 546.039 167.125 542.134 169.503C541.784 169.714 541.398 169.817 541.018 169.817L541.016 169.815Z" fill="#FCA338"/>
<path d="M527.555 181.505C515.678 181.505 506.05 171.871 506.05 159.988V137.151C506.05 134.731 508.011 132.771 510.428 132.771H544.676C547.096 132.771 549.055 134.733 549.055 137.151V159.988C549.055 171.871 539.427 181.505 527.55 181.505H527.555Z" fill="#FCA338"/>
<path d="M531.615 171.48H523.49V197.299H531.615V171.48Z" fill="#FCA338"/>
<path d="M543.561 202.558H511.544V201.123C511.544 196.105 515.608 192.038 520.624 192.038H534.483C539.499 192.038 543.563 196.105 543.563 201.123V202.558H543.561Z" fill="#FCA338"/>
<path d="M525.005 181.512C513.129 181.512 503.5 171.878 503.5 159.995V137.158C503.5 134.738 505.462 132.777 507.879 132.777H542.127C544.547 132.777 546.506 134.74 546.506 137.158V159.995C546.506 171.878 536.88 181.512 525.001 181.512H525.005Z" fill="#FFB655"/>
<path d="M529.067 171.49H520.943V197.309H529.067V171.49Z" fill="#FFB655"/>
<path d="M541.014 202.567H508.997V201.132C508.997 196.116 513.061 192.047 518.077 192.047H531.936C536.952 192.047 541.016 196.113 541.016 201.132V202.567H541.014Z" fill="#FFB655"/>
<path d="M507.747 169.815C507.365 169.815 506.981 169.714 506.631 169.5C502.728 167.122 483.391 154.776 486.08 145.092C489.011 134.535 507.538 139.552 508.326 139.77C509.468 140.086 510.139 141.272 509.823 142.417C509.506 143.562 508.314 144.234 507.177 143.917C503.247 142.83 491.702 140.928 490.225 146.246C488.879 151.094 500.318 160.615 508.869 165.827C509.883 166.444 510.206 167.767 509.587 168.782C509.183 169.446 508.474 169.815 507.749 169.815H507.747Z" fill="#FFB655"/>
<path d="M529.065 137.306H508.994C508.86 137.306 508.752 137.199 508.752 137.064C508.752 136.929 508.86 136.821 508.994 136.821H529.065C529.2 136.821 529.307 136.929 529.307 137.064C529.307 137.196 529.2 137.306 529.065 137.306Z" fill="#FFDD92"/>
<path d="M513.301 197.548C513.279 197.548 513.254 197.544 513.232 197.537C513.104 197.499 513.032 197.364 513.07 197.236C513.082 197.203 514.134 193.877 519.033 193.877C519.168 193.877 519.276 193.985 519.276 194.119C519.276 194.254 519.168 194.362 519.033 194.362C514.511 194.362 513.571 197.254 513.535 197.378C513.503 197.481 513.407 197.548 513.304 197.548H513.301Z" fill="#FFDD92"/>
<path d="M515.297 53.9529C515.297 53.9529 513.876 71.7283 502.434 77.0457C494.142 80.899 491.92 65.4903 491.92 65.4903C491.92 65.4903 503.521 58.9918 506.333 52.6303C509.143 46.2688 515.297 53.9529 515.297 53.9529Z" fill="#F48462"/>
<path d="M436.589 96.5797C436.589 96.5797 454.851 98.0393 461.539 91.8013C468.229 85.5633 454.597 79.9248 454.597 79.9248C454.597 79.9248 443.957 86.4884 437.06 87.3574C430.161 88.2242 436.589 96.5797 436.589 96.5797Z" fill="#F48462"/>
<path d="M505.788 172.202L511.412 177.344L522.696 168.438L516.053 163.242L505.788 172.202Z" fill="#F48462"/>
<path d="M530.179 177.363C530.903 176.584 530.861 175.345 530.08 174.536C526.994 171.354 519.783 164.052 519.197 164.622C518.448 165.35 513.573 174.48 513.573 174.48C513.573 174.48 509.08 170.281 506.741 174.092C504.948 177.015 504.908 182.501 504.986 184.897C505.011 185.658 504.818 186.39 504.425 187.019C502.737 189.725 498.377 197.458 501.429 200.78C505.161 204.839 506.328 202.825 507.08 202.098C507.724 201.471 525.232 182.674 530.179 177.363Z" fill="#81CEEA"/>
<path d="M492.793 101.286C492.793 101.286 497.351 121.922 506.465 139.195C515.582 156.467 519.931 161.403 519.931 161.403L500.9 178.772C500.9 178.772 479.121 153.106 476.428 135.609C473.735 118.114 473.943 102.411 473.943 102.411L492.793 101.288V101.286Z" fill="#5C69A5"/>
<path d="M451.264 80.6567L453.83 96.0429C453.83 96.0429 468.997 96.2225 471.818 85.1634C474.639 74.1066 470.563 68.5557 470.563 68.5557C470.563 68.5557 457.634 76.5115 451.262 80.6567H451.264Z" fill="#F7B369"/>
<path d="M466.099 180.432L466.184 187.777L480.602 190.377L480.395 180.618L466.099 180.432Z" fill="#F48462"/>
<path d="M480.602 202.567C481.666 202.529 482.512 201.622 482.53 200.499C482.595 196.065 482.216 185.167 481.399 185.154C480.353 185.138 470.456 188.147 470.456 188.147C470.456 188.147 470.247 181.999 465.9 183.038C462.565 183.835 458.66 187.689 457.023 189.436C456.503 189.99 455.847 190.372 455.127 190.541C452.021 191.259 443.472 193.644 443.284 198.151C443.055 203.663 445.301 203.064 446.347 203.079C447.245 203.093 473.353 202.823 480.602 202.567Z" fill="#81CEEA"/>
<path d="M478.425 67.2446L496.287 61.916L503.056 78.5777L493.581 84.8291L493.289 103.37C493.289 103.37 489.013 104.266 483.317 104.457C477.621 104.65 479.783 79.5747 479.783 79.5747L478.425 67.2424V67.2446Z" fill="#F7B369"/>
<path d="M438.925 96.5028C438.925 96.5028 432.286 97.4347 428.285 96.4511C424.283 95.4676 423.195 94.1068 423.289 93.4107C423.383 92.7169 426.054 92.6944 426.054 92.6944C426.054 92.6944 422.326 91.6525 422.555 90.13C422.786 88.6076 426.18 89.1083 426.18 89.1083C426.18 89.1083 423.697 87.7386 424.535 86.7011C425.372 85.6615 430.379 86.9257 430.379 86.9257C430.379 86.9257 427.515 84.4736 428.155 83.6607C428.792 82.8501 434.652 84.4107 436.055 85.5829C437.457 86.755 438.871 89.0904 438.871 89.0904L438.925 96.5028Z" fill="#F48462"/>
<path d="M426.725 143.85C426.703 143.85 426.68 143.85 426.66 143.847C426.128 143.812 425.724 143.351 425.762 142.817L433.359 29.6456C433.395 29.1134 433.842 28.7115 434.389 28.7451C434.921 28.7811 435.325 29.2414 435.287 29.7758L427.69 142.947C427.656 143.459 427.232 143.85 426.727 143.85H426.725Z" fill="#A37B90"/>
<path d="M435.164 32.998L391.148 51.6874L432.475 73.0601L435.164 32.998Z" fill="#EA92A2"/>
<path d="M514.872 55.2689C514.872 55.2689 518.057 49.3677 518.53 45.2719C519.002 41.1784 518.106 39.6806 517.422 39.5279C516.737 39.3752 515.788 41.87 515.788 41.87C515.788 41.87 516.111 38.01 514.605 37.6956C513.099 37.3812 512.386 40.7382 512.386 40.7382C512.386 40.7382 511.966 37.9336 510.702 38.358C509.439 38.7824 508.875 43.9156 508.875 43.9156C508.875 43.9156 507.574 40.3767 506.593 40.6911C505.61 41.0077 505.033 47.0459 505.641 48.7704C506.25 50.495 507.946 52.6349 507.946 52.6349L514.872 55.2667V55.2689Z" fill="#F48462"/>
<path d="M515.788 41.8721C515.788 41.8721 517.651 37.0982 518.726 40.6348C519.543 43.316 518.483 48.2606 517.215 48.1865C515.947 48.1146 515.296 45.4245 515.296 45.4245C515.296 45.4245 514.693 47.3938 513.162 46.8504C511.768 46.3564 511.681 43.9964 511.681 43.9964C511.681 43.9964 511.409 46.3744 509.838 45.7501C507.527 44.8339 509.389 38.5914 510.628 37.8055C512.273 36.7613 512.175 39.8377 512.175 39.8377C512.175 39.8377 513.701 36.5435 515.146 37.8998C516.591 39.2561 515.788 41.8721 515.788 41.8721Z" fill="#F48462"/>
<path d="M511.717 50.8884C511.578 50.8884 511.468 50.7762 511.468 50.6392C511.477 45.1759 508.669 43.8241 508.642 43.8106C508.516 43.7522 508.463 43.604 508.519 43.4805C508.575 43.3548 508.723 43.2986 508.849 43.3548C508.977 43.4132 511.977 44.8278 511.968 50.6392C511.968 50.7762 511.856 50.8884 511.719 50.8884H511.717Z" fill="black"/>
<path d="M517.047 48.3774C517.009 48.3774 516.966 48.3774 516.926 48.3729C516.32 48.3325 515.831 47.8834 515.472 47.0369C515.151 46.2801 515.045 45.4134 515.166 44.5309L515.539 41.8385C515.557 41.7038 515.676 41.6072 515.82 41.6252C515.957 41.6432 516.051 41.7689 516.033 41.9059L515.66 44.5982C515.55 45.3932 515.642 46.1679 515.93 46.8415C516.208 47.4994 516.556 47.8475 516.957 47.8744C517.727 47.9283 517.911 47.3176 517.931 47.2457C517.967 47.1132 518.102 47.0369 518.237 47.0705C518.369 47.1065 518.448 47.2412 518.414 47.3737C518.317 47.7285 517.914 48.3729 517.045 48.3729L517.047 48.3774Z" fill="black"/>
<path d="M513.487 47.1272C513.371 47.1272 513.247 47.1182 513.119 47.0957C511.308 46.8016 511.423 44.0957 511.429 43.9812L511.923 39.8068C511.939 39.6699 512.067 39.5666 512.199 39.589C512.336 39.6047 512.433 39.7305 512.417 39.8652L511.923 44.0216C511.923 44.0216 511.824 46.3794 513.196 46.6017C514.574 46.8218 515.034 45.4094 515.054 45.3487C515.094 45.2185 515.234 45.1444 515.366 45.1848C515.496 45.2275 515.57 45.3645 515.528 45.4969C515.343 46.0942 514.69 47.1249 513.483 47.1249L513.487 47.1272Z" fill="black"/>
<path d="M510.68 45.9479C510.55 45.9479 510.44 45.8468 510.431 45.7144C510.422 45.5774 510.527 45.4584 510.664 45.4494C511.178 45.418 511.396 44.3446 511.434 43.9718C511.447 43.8349 511.551 43.7338 511.705 43.7473C511.842 43.7608 511.941 43.882 511.93 44.019C511.912 44.2099 511.721 45.885 510.696 45.9479C510.689 45.9479 510.684 45.9479 510.68 45.9479Z" fill="black"/>
<path d="M464.618 101.735C464.618 101.735 456.229 124.839 453.948 140.652C451.67 156.467 459.541 182.149 459.541 182.149L483.78 181.812C483.78 181.812 479.222 156.353 478.393 148.615C477.772 140.091 482.123 103.193 482.123 103.193L464.618 101.735Z" fill="#5C69A5"/>
<path d="M491.195 115.365C487.424 115.365 485.687 111.525 485.667 111.48C485.611 111.355 485.667 111.209 485.795 111.153C485.916 111.099 486.067 111.153 486.123 111.281C486.206 111.469 488.228 115.9 492.737 114.647C492.871 114.611 493.006 114.687 493.044 114.82C493.08 114.952 493.004 115.089 492.871 115.127C492.272 115.293 491.713 115.367 491.195 115.367V115.365Z" fill="#A37B90"/>
<path d="M501.115 137.713C500.938 137.713 500.774 137.659 500.63 137.551C500.174 137.21 500.123 136.851 500.161 136.608C500.352 135.393 503.343 134.342 503.685 134.226C503.779 134.192 503.889 134.221 503.954 134.3C504.019 134.378 504.032 134.488 503.985 134.578C503.835 134.87 502.475 137.428 501.319 137.693C501.249 137.708 501.182 137.717 501.115 137.717V137.713ZM503.215 134.931C502.091 135.387 500.747 136.105 500.655 136.682C500.646 136.741 500.619 136.916 500.929 137.147C501.012 137.21 501.099 137.223 501.207 137.199C501.835 137.055 502.695 135.807 503.215 134.929V134.931Z" fill="#A37B90"/>
<path d="M478.425 143.208C478.331 143.208 478.241 143.154 478.198 143.064C475.319 136.83 474.055 119.515 473.914 117.472L466.954 115.357C466.822 115.316 466.748 115.177 466.788 115.044C466.829 114.912 466.972 114.838 467.1 114.878L474.226 117.043C474.325 117.072 474.397 117.162 474.403 117.265C474.417 117.456 475.696 136.451 478.654 142.855C478.712 142.981 478.658 143.129 478.533 143.187C478.497 143.203 478.461 143.21 478.427 143.21L478.425 143.208Z" fill="#A37B90"/>
<path d="M426.056 92.6998C426.056 92.6998 420.935 92.7851 423.875 95.0239C426.103 96.7215 431.104 97.4535 431.476 96.2364C431.849 95.0216 429.557 93.4745 429.557 93.4745C429.557 93.4745 431.611 93.5935 431.636 91.9677C431.658 90.4879 429.477 89.5852 429.477 89.5852C429.477 89.5852 431.799 90.1578 431.764 88.467C431.71 85.9812 425.212 85.5546 424.045 86.4415C422.495 87.6204 425.41 88.5995 425.41 88.5995C425.41 88.5995 421.792 88.8824 422.557 90.7102C423.323 92.5381 426.056 92.6953 426.056 92.6953V92.6998Z" fill="#F48462"/>
<path d="M436.629 92.5961C432.827 92.5961 432.358 88.3723 432.354 88.3274C432.34 88.1904 432.441 88.0669 432.578 88.0557C432.729 88.0332 432.839 88.1432 432.852 88.278C432.87 88.4486 433.317 92.4568 437.13 92.0729C437.264 92.0527 437.39 92.1604 437.401 92.2974C437.415 92.4344 437.314 92.5579 437.177 92.5714C436.988 92.5893 436.804 92.5983 436.629 92.5983V92.5961Z" fill="black"/>
<path d="M430.399 97.0828C430.363 97.0828 430.329 97.0828 430.298 97.0783C430.161 97.0648 430.06 96.9435 430.074 96.8066C430.087 96.6696 430.193 96.5753 430.345 96.582C430.419 96.591 431.052 96.6157 431.27 95.8881C431.384 95.5019 431.18 95.0573 430.662 94.5655C430.13 94.0626 429.434 93.7055 428.653 93.5326L426 92.9443C425.866 92.9151 425.78 92.7804 425.812 92.6479C425.841 92.5132 425.978 92.4323 426.108 92.4593L428.761 93.0476C429.631 93.2407 430.406 93.6404 431.005 94.2063C431.672 94.8395 431.923 95.4548 431.748 96.0341C431.497 96.8739 430.805 97.0872 430.399 97.0872V97.0828Z" fill="black"/>
<path d="M429.654 93.7257C429.616 93.7257 429.58 93.7257 429.544 93.7234C429.407 93.7167 429.302 93.5977 429.311 93.4629C429.317 93.3237 429.457 93.2069 429.571 93.2272C429.634 93.2272 431.124 93.29 431.391 91.9203C431.66 90.5572 429.423 89.8297 429.4 89.823L425.349 88.8439C425.215 88.8102 425.134 88.6755 425.165 88.543C425.199 88.4083 425.336 88.3319 425.466 88.3589L429.533 89.3447C429.659 89.3828 432.233 90.2182 431.88 92.0191C431.611 93.3843 430.363 93.7301 429.654 93.7301V93.7257Z" fill="black"/>
<path d="M430.381 89.9551C429.921 89.9551 429.499 89.8496 429.411 89.8271C429.279 89.7912 429.198 89.6565 429.234 89.5217C429.27 89.3893 429.411 89.3129 429.539 89.3443C429.901 89.4409 430.985 89.6071 431.191 89.1378C431.247 89.012 431.393 88.9559 431.521 89.012C431.647 89.0681 431.703 89.2163 431.647 89.3421C431.431 89.8316 430.884 89.9574 430.381 89.9574V89.9551Z" fill="black"/>
<path d="M464.465 94.7651C464.019 99.5996 463.761 103.523 463.761 103.523C463.761 103.523 468.826 104.511 477.157 104.645C480.878 104.704 484.505 104.412 487.384 104.066C487.384 104.066 481.637 67.6484 481.215 67.6641C477.92 67.7988 474.753 65.9597 469.775 69.054C465.271 71.8497 463.945 85.2239 463.945 85.2239C463.945 85.2239 464.988 89.0705 464.465 94.7651Z" fill="#F7B369"/>
<path d="M481.154 61.9131L481.217 67.6638C481.217 67.6638 480.611 69.5209 477.251 69.8307C474.749 70.062 473.449 69.312 473.449 69.312L473.768 66.3951L474.082 63.5523L480.137 62.1511L481.152 61.9131H481.154Z" fill="#F48462"/>
<path d="M480.139 62.1514C480.126 62.3086 480.068 62.4949 479.978 62.7083C478.723 65.5937 475.213 66.2517 473.77 66.3976L474.084 63.5548L480.139 62.1536V62.1514Z" fill="black"/>
<path d="M472.659 50.4592C472.659 50.4592 469.722 57.701 470.954 61.6935C472.186 65.686 475.833 64.9562 478.003 64.1209C480.173 63.2855 481.156 61.9135 481.156 61.9135C481.156 61.9135 483.221 62.5535 484.541 60.6134C485.86 58.6733 484.96 56.5086 483.778 56.037C482.595 55.5655 481.228 56.448 481.228 56.448L482.263 54.3394C482.263 54.3394 477.402 43.8866 472.662 50.4592H472.659Z" fill="#F48462"/>
<path d="M472.275 57.259C472.105 57.2365 472.008 57.1108 472.029 56.9738L472.217 55.658L471.723 55.4536C471.598 55.3997 471.535 55.256 471.589 55.128C471.643 55 471.788 54.9371 471.914 54.9933L472.585 55.2717C472.691 55.3144 472.753 55.4244 472.736 55.5367L472.52 57.0457C472.502 57.1714 472.397 57.259 472.273 57.259H472.275Z" fill="black"/>
<path d="M476.351 57.5506C476.19 57.5348 476.089 57.4136 476.102 57.2766L476.237 55.9293L475.727 55.6509C475.606 55.5835 475.563 55.433 475.628 55.3118C475.694 55.1905 475.846 55.1479 475.967 55.213L476.62 55.5723C476.708 55.6194 476.76 55.716 476.748 55.8148L476.598 57.3238C476.585 57.454 476.477 57.5483 476.349 57.5483L476.351 57.5506Z" fill="black"/>
<path d="M481.264 56.7373C481.264 56.7373 477.85 55.9222 476.369 53.7845C475.014 51.8287 474.502 49.5607 474.502 49.5607C474.502 49.5607 473.768 50.1333 472.861 51.4559C472.15 52.4933 471.56 53.7665 471.56 53.7665C471.56 53.7665 470.354 49.015 474.65 47.405C478.946 45.795 482.588 48.667 483.674 51.3481C484.761 54.0315 481.264 56.7351 481.264 56.7351V56.7373Z" fill="black"/>
<path d="M483.52 55.7538C483.499 55.7538 483.482 55.7515 483.461 55.747C483.327 55.7134 483.246 55.5786 483.277 55.4461C483.969 52.5988 483.111 51.027 483.102 51.0113C483.035 50.8923 483.078 50.7396 483.197 50.6722C483.313 50.6026 483.468 50.6453 483.535 50.7643C483.576 50.8339 484.505 52.5068 483.762 55.5652C483.735 55.6797 483.634 55.756 483.52 55.756V55.7538Z" fill="#A37B90"/>
<path d="M477.177 54.4088C477.159 54.4088 477.141 54.4088 477.123 54.4021L475.265 53.9889C475.13 53.9597 475.045 53.825 475.076 53.6925C475.106 53.5578 475.242 53.4747 475.373 53.5039L477.231 53.9171C477.366 53.9462 477.451 54.081 477.419 54.2135C477.392 54.3302 477.291 54.4088 477.177 54.4088Z" fill="black"/>
<path d="M471.56 54.0179C471.436 54.0179 471.328 53.9259 471.313 53.8001C471.295 53.6631 471.391 53.5396 471.528 53.5217L472.803 53.36C472.951 53.3398 473.063 53.4408 473.081 53.5756C473.099 53.7125 473.003 53.836 472.866 53.854L471.591 54.0157C471.591 54.0157 471.571 54.0157 471.56 54.0157V54.0179Z" fill="black"/>
<path d="M473.772 59.5712C473.707 59.5712 473.64 59.5442 473.591 59.4926C472.596 58.4327 473.678 56.3489 473.725 56.2613C473.788 56.1401 473.941 56.0929 474.062 56.1558C474.183 56.2187 474.23 56.3713 474.167 56.4926C473.898 57.0068 473.333 58.4844 473.957 59.1513C474.051 59.2501 474.046 59.4095 473.945 59.5038C473.898 59.5487 473.838 59.5712 473.775 59.5712H473.772Z" fill="black"/>
<path d="M475.37 61.296C475.256 61.296 475.153 61.2174 475.128 61.1007C475.099 60.966 475.182 60.8335 475.316 60.8043C475.352 60.7953 476.165 60.5954 476.391 59.6883C476.425 59.5558 476.564 59.4749 476.694 59.5086C476.829 59.5423 476.91 59.677 476.874 59.8118C476.569 61.0221 475.474 61.2826 475.426 61.2938C475.406 61.296 475.388 61.2983 475.37 61.2983V61.296Z" fill="black"/>
<path d="M481.565 59.4794C481.493 59.4794 481.421 59.4502 481.374 59.3895C481.284 59.284 481.3 59.1268 481.405 59.037L483.735 57.0879C483.84 56.9981 483.998 57.0138 484.085 57.1193C484.175 57.2249 484.159 57.3821 484.054 57.4719L481.724 59.421C481.677 59.4592 481.621 59.4794 481.562 59.4794H481.565Z" fill="black"/>
<path d="M483.809 59.0981C483.791 59.0981 483.775 59.0981 483.758 59.0936L482.332 58.7927C482.198 58.7635 482.11 58.631 482.142 58.4963C482.169 58.3615 482.294 58.2785 482.438 58.3032L483.863 58.6041C483.998 58.6333 484.085 58.7657 484.054 58.9005C484.029 59.0172 483.926 59.0981 483.811 59.0981H483.809Z" fill="black"/>
<path d="M476.12 70.0067C475.281 70.0067 474.361 69.8764 473.373 69.5486C473.241 69.5059 473.171 69.3645 473.214 69.2342C473.259 69.104 473.404 69.0321 473.528 69.0748C478.104 70.5883 481.075 67.6534 481.107 67.622C481.203 67.5232 481.361 67.5232 481.459 67.622C481.558 67.7185 481.558 67.8757 481.459 67.9745C481.435 68.0014 479.403 70.0067 476.118 70.0067H476.12Z" fill="white"/>
<path d="M465.071 91.2871C464.925 91.2826 464.818 91.1681 464.822 91.0289L464.966 86.5312C462.724 77.2842 466.157 73.3366 466.305 73.1727C466.397 73.0716 466.557 73.0649 466.658 73.1547C466.759 73.2468 466.768 73.4062 466.676 73.5072C466.642 73.5454 463.267 77.4571 465.457 86.4458C465.462 86.4683 465.466 86.4907 465.464 86.5132L465.318 91.0446C465.311 91.1794 465.201 91.2871 465.067 91.2871H465.071Z" fill="white"/>
</svg>
