<svg width="500" height="478" viewBox="0 0 500 478" fill="none" xmlns="http://www.w3.org/2000/svg">
<g opacity="0.7">
<path d="M249.76 154.3L0 232.99V190.72L249.76 154.3Z" fill="url(#paint0_linear_14897_578519)"/>
<path d="M249.76 154.3L0 370.32V315.57L249.76 154.3Z" fill="url(#paint1_linear_14897_578519)"/>
<path d="M249.76 154.3L81.4597 451.45H32.2197L249.76 154.3Z" fill="url(#paint2_linear_14897_578519)"/>
<path d="M249.76 154.3L182.59 451.45H149.95L249.76 154.3Z" fill="url(#paint3_linear_14897_578519)"/>
<path d="M264.17 451.45H235.37L249.76 154.3L264.17 451.45Z" fill="url(#paint4_linear_14897_578519)"/>
<path d="M349.6 451.45H316.94L249.76 154.3L349.6 451.45Z" fill="url(#paint5_linear_14897_578519)"/>
<path d="M467.31 451.45H418.08L249.76 154.3L467.31 451.45Z" fill="url(#paint6_linear_14897_578519)"/>
<path d="M499.53 315.55V370.28L249.76 154.3L499.53 315.55Z" fill="url(#paint7_linear_14897_578519)"/>
<path d="M499.53 190.7V232.97L249.76 154.3L499.53 190.7Z" fill="url(#paint8_linear_14897_578519)"/>
<path d="M257.24 0L249.76 154.3L242.28 0H257.24Z" fill="url(#paint9_linear_14897_578519)"/>
<path d="M249.76 154.3L197.93 0H214.88L249.76 154.3Z" fill="url(#paint10_linear_14897_578519)"/>
<path d="M249.76 154.3L136.79 0H162.35L249.76 154.3Z" fill="url(#paint11_linear_14897_578519)"/>
<path d="M249.76 154.3L10.7598 0H71.3198L249.76 154.3Z" fill="url(#paint12_linear_14897_578519)"/>
<path d="M249.76 154.3L0 117.92V75.6299L249.76 154.3Z" fill="url(#paint13_linear_14897_578519)"/>
<path d="M499.53 75.6299V117.9L249.76 154.3L499.53 75.6299Z" fill="url(#paint14_linear_14897_578519)"/>
<path d="M488.75 0L249.76 154.3L428.18 0H488.75Z" fill="url(#paint15_linear_14897_578519)"/>
<path d="M362.72 0L249.76 154.3L337.16 0H362.72Z" fill="url(#paint16_linear_14897_578519)"/>
<path d="M301.6 0L249.76 154.3L284.65 0H301.6Z" fill="url(#paint17_linear_14897_578519)"/>
</g>
<path d="M238.54 477.98C307.139 477.98 362.75 473.364 362.75 467.67C362.75 461.976 307.139 457.36 238.54 457.36C169.941 457.36 114.33 461.976 114.33 467.67C114.33 473.364 169.941 477.98 238.54 477.98Z" fill="#EBEBEB"/>
<path d="M68.9102 451.45C184.78 450.84 314.76 450.83 430.62 451.45C314.75 452.07 184.77 452.06 68.9102 451.45Z" fill="#263238"/>
<path d="M76.5307 192.19C76.5307 192.19 176.541 180.71 185.241 76.61C185.241 76.61 260.041 186.57 361.671 96.1C361.671 96.1 377.581 179.83 444.051 167.92C444.051 167.92 402.791 197.44 426.071 247.19C426.071 247.19 358.161 249.22 369.041 311.23C369.041 311.23 325.031 287.07 284.661 345.72C284.661 345.72 222.021 270.49 144.311 332.53C144.311 332.53 115.191 267.71 57.2607 291.13C57.2607 291.13 135.291 243.1 76.5407 192.19H76.5307Z" fill="white"/>
<path d="M446.62 166.83C446.44 166.41 446 166.16 445.55 166.23L443.82 166.48C443.82 166.48 443.79 166.48 443.78 166.48C402.93 174.04 381.79 143.28 372.82 124.27C368.36 114.86 365.06 105.29 363.01 95.81L362.87 95.16C362.8 94.81 362.54 94.53 362.2 94.42C361.86 94.31 361.49 94.39 361.22 94.62L360.74 95.05C360.74 95.05 360.74 95.05 360.73 95.06C343.74 110.43 309.24 135.36 269.01 129.69C253.34 127.65 237.25 121.21 222.49 111.07C208.34 101.28 196.15 89.44 186.26 75.87L185.84 75.29C185.6 74.95 185.17 74.8 184.76 74.91C184.36 75.02 184.06 75.37 184.03 75.79L183.97 76.5C182.02 99.32 175.25 120.12 164.41 136.64C146.05 164.88 113.13 185.28 76.3704 191.2C76.0904 191.24 75.8604 191.4 75.7004 191.62C75.6704 191.68 75.6404 191.74 75.6204 191.81C75.6004 191.89 75.5804 191.98 75.5804 192.06V192.07C75.5804 192.07 75.5804 192.08 75.5804 192.09C75.5904 192.32 75.6904 192.54 75.8504 192.71C75.8604 192.71 75.8704 192.73 75.8804 192.74C90.9204 205.72 98.0904 219.82 97.1804 234.64C96.0204 253.53 81.6104 273.16 56.6104 289.9C55.1637 290.827 54.5104 291.53 54.6504 292.01C54.7304 292.27 54.9104 292.5 55.1604 292.62C55.4104 292.74 55.6904 292.76 55.9504 292.67L57.7004 292.04C66.7204 288.5 75.3604 286.85 83.3704 287.12C118.31 287.99 137.96 322.37 143.14 332.87L143.3 333.21C143.43 333.49 143.68 333.69 143.98 333.76C144.28 333.83 144.59 333.76 144.83 333.57C156.59 324.19 168.79 317.4 181.09 313.38C222.25 299.73 261.04 321.5 283.61 346.42L283.94 346.8C284.13 347.02 284.4 347.14 284.69 347.14C284.71 347.14 284.73 347.14 284.75 347.14C285.06 347.12 285.34 346.96 285.51 346.71L285.79 346.3C299.69 326.13 315.53 313.66 332.88 309.22C345.03 306.18 357.96 307.3 368.36 312.3L369.16 312.7C369.5 312.87 369.9 312.84 370.21 312.61C370.51 312.38 370.66 312.01 370.6 311.63L370.45 310.75C367.08 292.73 371.36 275.98 381.91 265.95C394.94 253.17 413.16 249.39 426.13 248.47L426.88 248.43C427.21 248.41 427.52 248.23 427.69 247.95C427.86 247.66 427.88 247.31 427.74 247.01L427.42 246.33C413.86 218.11 420.57 188.42 444.91 168.86L446.3 167.8C446.66 167.52 446.79 167.04 446.62 166.62V166.83ZM176.56 118.77C181.48 106.78 184.71 93.75 186.17 79.99C195.85 92.71 207.56 103.87 221.02 113.21C236.11 123.6 252.58 130.21 268.65 132.32C272.8 132.91 276.88 133.18 280.9 133.18C315.55 133.18 344.77 112.77 360.82 98.68C362.93 107.62 366.11 116.62 370.28 125.47C376.23 138.29 393.65 168.32 426.84 170.34C430.71 170.61 434.83 170.5 439.34 170.01C417.43 189.93 411.51 218.43 423.79 245.87C410.5 247.11 392.8 251.34 379.84 264.06C369.11 274.29 364.45 290.87 367.15 308.82C356.52 304.43 344.22 303.66 332.18 306.67C314.56 311.19 298.53 323.57 284.5 343.5C276.16 334.43 266.17 326.52 254.79 319.97C239.73 311.22 223.17 306.72 207.04 306.72C198.71 306.72 190.49 307.92 182.65 310.36C169.96 314.07 157.21 320.86 144.74 330.53C130.38 302.45 107.55 285.41 83.4104 284.83C77.2204 284.69 70.9904 285.5 64.8304 287.26C66.5904 285.92 68.3704 284.49 70.2004 282.94C89.2604 266.78 99.3604 249.37 99.4104 232.61C99.4504 218.51 92.5104 205.14 78.7804 192.84C123.6 185.14 160.95 156.91 176.56 118.77Z" fill="#FFC727"/>
<path d="M136.67 132.67L61.41 84.3L57.25 90.99L136.67 132.67Z" fill="#263238"/>
<path d="M138.161 129.02L78.4307 83.35L85.3107 78.16L138.161 129.02Z" fill="#263238"/>
<path d="M138.69 310.65L80.5901 357.17L74.8701 348.48L138.69 310.65Z" fill="#263238"/>
<path d="M244.891 143.7L271.361 88.41L277.571 91.2L244.891 143.7Z" fill="#263238"/>
<path d="M243.8 130.56L260.55 60.91L270.16 63.1L243.8 130.56Z" fill="#263238"/>
<path d="M341.99 299.1L385.1 361.6L391.17 356.71L341.99 299.1Z" fill="#263238"/>
<path d="M388.38 243.35L439.81 265.25L442.84 256.9L388.38 243.35Z" fill="#263238"/>
<path d="M370.55 143.7L410.32 105.51L415.61 111.62L370.55 143.7Z" fill="#263238"/>
<path d="M110.04 227.66L55.4002 234.94L54.7402 226.89L110.04 227.66Z" fill="#263238"/>
<path d="M235.78 294.2L239.21 365.68L230.7 366.49L235.78 294.2Z" fill="#263238"/>
<path d="M229.121 300.11L210.181 348.98L217.201 351.43L229.121 300.11Z" fill="#263238"/>
<path d="M352.88 171.12C359.31 182.55 384.66 197.94 406.56 198.94C406.56 198.94 391.87 210.07 376.67 198.33C361.47 186.59 352.88 171.12 352.88 171.12Z" fill="#FFC727"/>
<path d="M133.43 143.8C143.89 145.86 183.07 140 198.8 129.65C214.54 119.31 176.19 165.96 161.76 160.92C147.33 155.87 133.43 143.8 133.43 143.8Z" fill="#FFC727"/>
<path d="M270.9 133.41C250.83 132.36 242.72 114.14 226.49 115.68C210.26 117.22 176.19 149.28 160.22 149.07C144.24 148.87 136.51 139.37 126.72 146.29C116.93 153.21 105.85 188.24 99.4097 189.42L92.9697 190.59C92.9697 190.59 100.18 193.93 104.05 190.59C107.92 187.25 126.21 170.67 143.99 171.12C161.77 171.57 203.51 223.5 250.15 223.4C296.79 223.3 327.71 200.6 346 199.27C364.29 197.93 381.56 215.29 406.55 198.94C406.55 198.94 400.52 203.33 389.03 200.7C361.97 194.49 331.28 129.81 306.67 128.16C294.11 127.32 291.21 134.48 270.9 133.41Z" fill="#FFC727"/>
<g opacity="0.2">
<path d="M270.9 133.41C250.83 132.36 242.72 114.14 226.49 115.68C210.26 117.22 176.19 149.28 160.22 149.07C144.24 148.87 136.51 139.37 126.72 146.29C116.93 153.21 105.85 188.24 99.4097 189.42L92.9697 190.59C92.9697 190.59 100.18 193.93 104.05 190.59C107.92 187.25 126.21 170.67 143.99 171.12C161.77 171.57 203.51 223.5 250.15 223.4C296.79 223.3 327.71 200.6 346 199.27C364.29 197.93 381.56 215.29 406.55 198.94C406.55 198.94 400.52 203.33 389.03 200.7C361.97 194.49 331.28 129.81 306.67 128.16C294.11 127.32 291.21 134.48 270.9 133.41Z" fill="black"/>
</g>
<g opacity="0.1">
<path d="M151.72 173.49C148.8 172.03 146.21 171.18 143.99 171.12C139.53 171.01 135.04 171.97 130.75 173.52C135.52 168.6 152.31 154.03 158.38 154.88C160.55 155.19 154.79 167.33 151.72 173.49Z" fill="black"/>
<path d="M354.26 199.77C351.51 199.29 348.77 199.07 346 199.27C342.96 199.49 339.56 200.31 335.8 201.51C332.16 194.66 327.03 183.9 329.72 182.48C334.13 180.16 347.04 192.46 354.26 199.77Z" fill="black"/>
<path d="M175.49 189.67C172.45 187.41 169.54 185.25 166.78 183.24C171.99 175.24 185.81 154.36 188.22 154.3C190.62 154.24 179.83 179.67 175.49 189.67Z" fill="black"/>
<path d="M320.07 207.41C317.1 208.59 313.97 209.82 310.68 211.06C306.88 200.65 300.2 181.61 301.44 179.85C302.67 178.12 313.77 196.6 320.07 207.41Z" fill="black"/>
<path d="M184.5 196.23C182.69 194.94 180.92 193.66 179.19 192.39C181.13 186.35 186.06 171.38 187.54 171.12C188.96 170.87 185.97 188.17 184.5 196.23Z" fill="black"/>
</g>
<path d="M285.99 137.75C305.13 145.6 331.6 161.08 334.44 163.18C345.52 171.38 363.92 193.19 367.71 200.71C369.98 205.22 336.03 224.43 333.68 219.57C332.55 217.22 308.79 183.55 308.33 183.08C306.37 181.12 284.16 161.04 276.31 154.38C256.37 137.46 268.48 130.55 285.99 137.74V137.75Z" fill="#D3766A"/>
<path d="M360.78 251.3C362.33 249.23 361.9 245.85 361.9 245.85C361.9 245.85 364.98 246.64 367.63 245.13C370.67 243.39 369.27 237.87 369.27 237.87C369.27 237.87 372.55 238.03 375.19 236.14C377.93 234.18 377.32 228.41 377.32 228.41C377.32 228.41 380.39 226.85 381.57 223.61C384.91 214.4 367.34 196.03 361.23 191.86L328.4 210.09C328.4 210.09 333.25 234.94 340.1 242.66C343.9 246.94 357.72 255.39 360.78 251.31V251.3Z" fill="#D3766A"/>
<path d="M361.74 245.86C356.31 242.74 351.63 238.33 347.16 234.03C347.06 233.93 347.21 233.79 347.31 233.88C352 237.9 357.36 241.48 361.91 245.63C362.04 245.74 361.88 245.95 361.73 245.87L361.74 245.86Z" fill="#263238"/>
<path d="M369.06 237.93C367.85 237.19 366.89 236.05 365.93 235.03C364.89 233.93 363.88 232.81 362.88 231.67C360.88 229.39 358.93 227.07 357.05 224.7C356.97 224.59 357.11 224.44 357.2 224.55C359.2 226.81 361.23 229.05 363.32 231.23C364.37 232.32 365.42 233.4 366.48 234.48C367.47 235.48 368.59 236.45 369.34 237.65C369.45 237.83 369.23 238.06 369.05 237.95L369.06 237.93Z" fill="#263238"/>
<path d="M377.23 228.31C376.15 227.71 375.34 226.47 374.55 225.54C373.66 224.48 372.77 223.43 371.86 222.39C370.06 220.3 368.26 218.21 366.38 216.18C366.29 216.08 366.44 215.93 366.53 216.03C368.44 218.08 370.39 220.1 372.28 222.17C373.21 223.19 374.14 224.2 375.06 225.23C375.84 226.1 376.92 227.1 377.33 228.22C377.35 228.28 377.27 228.34 377.22 228.31H377.23Z" fill="#263238"/>
<path d="M287.54 167.23L312.57 146.81C312.57 146.81 293.59 138.31 279.76 135.37C265.93 132.43 257.56 135.32 271.92 150.65C280.26 159.55 287.54 167.23 287.54 167.23Z" fill="#455A64"/>
<path d="M304.9 145.26C300.9 147.91 294.38 152.52 285.62 160.46C285.5 160.56 285.63 160.74 285.76 160.65C287.48 159.48 302.23 148.31 305.02 145.39C305.09 145.31 304.98 145.2 304.9 145.26Z" fill="#263238"/>
<path opacity="0.1" d="M291.57 163.94L287.53 167.23C287.53 167.23 280.24 159.55 271.91 150.65C261.34 139.36 263.09 134.83 270.27 134.39L291.57 163.94Z" fill="black"/>
<path d="M222.78 202.68C222.84 202.76 295.01 202.68 295.01 202.68C295.26 202.4 283.97 154.44 274.57 134.72C271.79 128.89 256.19 125.4 248.99 134.72C230.35 158.81 222.78 202.68 222.78 202.68Z" fill="#455A64"/>
<path d="M255.791 64.44C254.941 64.05 254.021 63.8 253.071 63.76C248.781 63.58 245.201 66.46 242.601 69.54C239.831 72.85 237.621 77.03 233.831 79.31C232.351 80.2 230.601 80.76 228.881 80.44C226.931 80.07 225.621 78.59 224.641 76.97C223.611 75.27 222.761 73.02 220.771 72.21C219.131 71.53 217.231 72.09 215.781 73C212.041 75.37 211.101 80.35 208.701 83.82C206.141 87.53 202.491 90.4 198.271 92.01C194.341 93.52 189.971 93.77 185.871 92.88C183.871 92.45 181.891 91.73 180.101 90.74C178.091 89.62 176.361 88.1 174.411 86.89C172.591 85.78 170.331 84.88 168.191 85.53C166.541 86.02 162.301 90.78 161.701 98.54C161.661 99.1 160.661 98.98 160.501 98.4C160.181 97.29 159.921 96.17 159.741 95.03C158.191 85.58 161.291 75.76 168.101 69C171.741 65.39 176.221 62.8 181.121 61.32C183.831 60.51 186.651 59.91 189.201 58.64C191.471 57.51 193.281 55.79 194.781 53.76C197.621 49.9 199.501 45.4 203.021 42.04C206.161 39.05 210.091 36.96 214.271 35.82C223.011 33.46 232.331 35.26 239.791 40.32C247.131 45.31 256.281 64.64 255.801 64.43L255.791 64.44Z" fill="#263238"/>
<path d="M255.52 64.32C253.76 63.75 251.9 63.34 250.04 63.61C248.37 63.85 246.81 64.6 245.46 65.61C242.43 67.88 240.6 71.16 238.69 74.34C236.9 77.33 234.84 80.4 231.55 81.87C230.16 82.49 228.56 82.84 227.04 82.61C225.31 82.35 223.96 81.31 222.92 79.95C221.02 77.46 219.43 73.72 215.8 73.55C212.3 73.38 209.94 76.9 208.21 79.43C203.99 85.61 199.43 94.24 190.89 94.57C186.57 94.74 182.03 93.11 178.21 91.23C175.45 89.87 171.97 88.13 168.91 89.53C168.8 89.58 168.9 89.74 169.01 89.7C172.27 88.27 175.46 90.62 178.22 92.12C181.46 93.88 185.11 95.25 188.8 95.66C192.6 96.08 196.15 94.91 199.17 92.61C202.24 90.27 204.5 87.15 206.58 83.94C207.65 82.3 208.68 80.63 209.8 79.02C210.81 77.57 211.93 76.08 213.49 75.19C215.15 74.24 216.97 74.49 218.41 75.71C219.83 76.9 220.69 78.55 221.76 80.03C222.72 81.35 223.85 82.54 225.4 83.15C226.64 83.64 227.99 83.73 229.3 83.55C232.3 83.12 234.89 81.33 236.78 79.02C239.46 75.74 240.97 71.68 243.72 68.45C245.12 66.8 246.85 65.31 248.93 64.61C251.12 63.88 253.24 64.34 255.43 64.78C255.72 64.84 255.82 64.42 255.54 64.33L255.52 64.32Z" fill="#263238"/>
<path d="M238.76 36.51C231.34 31.28 221.39 31.16 213.36 35.01C208.86 37.17 205.07 40.48 202.06 44.44C199.25 48.13 196.89 52.28 193.31 55.31C189.35 58.67 184.26 59.25 179.43 60.56C175.52 61.62 171.91 63.48 168.79 66.08C162.81 71.06 158.89 78.46 158.24 86.22C158.16 87.21 158.12 88.2 158.13 89.19C158.13 89.31 158.32 89.31 158.32 89.19C158.28 81.36 161.99 73.79 167.66 68.49C170.45 65.88 173.74 63.82 177.35 62.53C181.8 60.95 186.67 60.69 190.92 58.51C194.9 56.47 197.64 52.78 200.14 49.19C202.87 45.27 205.58 41.42 209.5 38.58C216.78 33.31 226.58 31.78 234.87 35.58C244.12 39.81 249.08 49.16 252.56 58.21C253.03 59.42 253.48 60.63 253.94 61.85C253.99 61.99 254.21 61.93 254.16 61.79C251.07 52.41 247.12 42.42 238.74 36.51H238.76Z" fill="#263238"/>
<path d="M260.961 63.2101C260.801 61.6801 259.441 59.8701 258.421 59.7301C257.401 59.5901 250.531 63.7001 250.151 65.6601C249.781 67.6201 253.241 68.8301 253.241 68.8301L260.961 63.2001V63.2101Z" fill="#FFC727"/>
<path d="M256.01 130.67C256.32 132.33 263.66 143.34 271.17 143.33C273.62 143.33 274.18 129.96 274.18 129.96L274.45 128.98L278.18 115.3L260.14 102.65C260.14 102.65 255.89 129.96 256.01 130.66V130.67Z" fill="#D3766A"/>
<path d="M278.181 115.31L274.451 128.98L274.191 129.96C274.191 129.96 274.081 132.38 273.781 135.16C263.631 133.17 259.301 125.28 257.511 119.88C258.691 111.99 260.151 102.65 260.151 102.65L278.181 115.3V115.31Z" fill="#263238"/>
<path d="M292.26 100.34C292.26 100.34 297.05 89.8101 301.71 91.3501C306.37 92.8901 303.97 107.31 299.34 110.08C294.72 112.85 292.07 108.62 292.07 108.62L292.25 100.34H292.26Z" fill="#D3766A"/>
<path opacity="0.1" d="M292.26 100.34C292.26 100.34 297.05 89.8101 301.71 91.3501C306.37 92.8901 303.97 107.31 299.34 110.08C294.72 112.85 292.07 108.62 292.07 108.62L292.25 100.34H292.26Z" fill="black"/>
<path d="M300.921 95.4701C301.001 95.4501 301.031 95.5601 300.971 95.6001C297.751 97.6601 296.511 101.22 295.851 104.81C296.651 103.33 297.931 102.36 299.881 103.28C299.981 103.33 299.921 103.49 299.821 103.48C298.341 103.44 297.351 103.88 296.601 105.2C296.071 106.14 295.791 107.24 295.471 108.27C295.361 108.61 294.771 108.55 294.821 108.17C294.821 108.14 294.821 108.11 294.831 108.08C293.921 103.66 296.221 96.8101 300.911 95.4801L300.921 95.4701Z" fill="#263238"/>
<path d="M300.3 95.25C300.04 125.62 281.82 128.89 275.27 128.83C269.32 128.77 249.09 127.82 246.21 97.58C243.33 67.34 257.54 57.86 271.14 57.28C284.75 56.69 300.56 64.88 300.3 95.25Z" fill="#D3766A"/>
<path d="M290.93 90.6101C290.22 90.5401 289.57 90.3501 288.87 90.2101C288.08 90.0501 287.44 90.0001 286.85 89.4001C286.53 89.0801 286.55 88.4201 286.83 88.0801C287.49 87.3001 288.5 87.2601 289.46 87.4101C290.5 87.5801 291.26 87.9801 291.95 88.7601C292.62 89.5201 291.87 90.7001 290.93 90.6001V90.6101Z" fill="#263238"/>
<path d="M269.851 91.1701C270.561 91.0801 271.201 90.8701 271.901 90.7101C272.681 90.5201 273.331 90.4501 273.901 89.8401C274.211 89.5101 274.171 88.8501 273.881 88.5201C273.201 87.7601 272.181 87.7501 271.231 87.9301C270.201 88.1301 269.451 88.5501 268.781 89.3601C268.131 90.1401 268.921 91.2901 269.861 91.1701H269.851Z" fill="#263238"/>
<path d="M272.491 95.47C269.161 95.35 269.151 102.02 272.241 102.14C275.281 102.25 275.281 95.58 272.491 95.47Z" fill="#263238"/>
<path d="M271.181 95.82C270.601 96.2 270.031 96.86 269.321 96.93C268.511 97.01 267.891 96.31 267.361 95.64C267.301 95.57 267.251 95.63 267.251 95.72C267.231 97 267.721 98.31 269.091 98.5C270.341 98.67 271.241 97.54 271.561 96.26C271.621 96.02 271.411 95.67 271.181 95.82Z" fill="#263238"/>
<path d="M288.51 95.5C291.84 95.28 292.04 101.95 288.96 102.16C285.93 102.37 285.72 95.69 288.51 95.5Z" fill="#263238"/>
<path d="M289.91 95.89C290.45 96.23 290.99 96.85 291.62 96.88C292.35 96.91 292.87 96.17 293.31 95.46C293.36 95.39 293.41 95.44 293.42 95.53C293.49 96.8 293.11 98.15 291.9 98.43C290.79 98.69 289.93 97.62 289.59 96.36C289.53 96.13 289.7 95.76 289.91 95.9V95.89Z" fill="#263238"/>
<path d="M274.771 113.44C275.211 113.97 275.631 114.69 276.371 114.83C277.081 114.96 277.951 114.73 278.631 114.54C278.701 114.52 278.761 114.6 278.711 114.65C278.091 115.38 276.921 115.76 275.981 115.5C275.071 115.24 274.691 114.39 274.551 113.51C274.531 113.39 274.691 113.36 274.761 113.44H274.771Z" fill="#263238"/>
<path d="M283.75 106.37C283.75 106.37 284.03 109.48 283.97 110.93C283.97 111.07 283.61 111.11 283.11 111.12C283.09 111.12 283.07 111.13 283.05 111.12C280.46 111.4 277.91 110.39 276.45 108.22C276.36 108.07 276.55 107.93 276.68 108.03C278.53 109.53 280.64 109.99 282.91 110.13C283.03 109.73 282.25 104.77 282.48 104.82C283.44 105.03 285.13 105.54 285.75 105.72C285.61 103.7 284.94 97.9801 284.69 94.3001C284.67 94.0701 285.03 94.0101 285.07 94.2201C286.25 99.7701 286.78 102.68 287.18 107.03C287.21 107.37 284.32 106.63 283.75 106.36V106.37Z" fill="#263238"/>
<path d="M283.04 110C283.04 110 281.74 112.03 279.83 112.85C279.13 113.16 278.36 113.31 277.53 113.15C275.83 112.82 275.68 111.29 275.9 109.96C276.07 108.86 276.51 107.9 276.51 107.9C276.51 107.9 279.11 110.02 283.04 109.99V110Z" fill="#263238"/>
<path d="M279.84 112.86C279.14 113.17 278.37 113.32 277.54 113.16C275.84 112.83 275.69 111.3 275.91 109.97C277.71 110.03 279.57 111.13 279.84 112.86Z" fill="#FF9CBD"/>
<path d="M247.28 99.67C254.21 97.34 255.34 90.27 255.34 90.27C263.91 87.74 269.09 81.77 269.62 81.16C269.35 81.77 267.37 86.14 266.3 88.34C285.56 87.19 293.14 73.06 293.14 73.06C298.5 80.17 299.51 84.88 300.16 87.01C300.16 87.01 301.44 76.99 296.44 68.21C290.33 57.46 280.19 58.01 280.19 58.01C280.19 58.01 266.09 51.58 253.23 62.85C239.38 75.01 247.28 99.66 247.28 99.66V99.67Z" fill="#263238"/>
<path d="M280.99 87.01C277.79 88.36 274.31 89.1 270.9 89.4C270.87 89.4 270.87 89.36 270.9 89.35C276.39 88.5 281.49 86.25 285.74 82.53C287.54 80.96 289.13 79.18 290.49 77.2C291.91 75.13 293.36 72.62 293.87 70.11C293.91 69.92 294.2 69.98 294.16 70.17C293.63 72.83 293.11 75.28 291.76 77.64C290.48 79.89 288.79 81.91 286.82 83.53C285.06 84.98 283.08 86.12 281 86.99L280.99 87.01Z" fill="#263238"/>
<path d="M251.01 99.96C251.01 99.96 245.31 89.89 240.81 91.84C236.3 93.78 239.96 107.94 244.81 110.29C249.66 112.64 251.92 108.2 251.92 108.2L251.01 99.97V99.96Z" fill="#D3766A"/>
<path d="M241.96 95.87C241.88 95.85 241.85 95.97 241.92 96C245.31 97.76 246.85 101.21 247.83 104.72C246.91 103.32 245.55 102.46 243.68 103.54C243.58 103.6 243.66 103.75 243.76 103.74C245.23 103.57 246.25 103.92 247.12 105.17C247.73 106.05 248.11 107.14 248.51 108.13C248.64 108.46 249.23 108.35 249.14 107.97C249.14 107.94 249.13 107.91 249.12 107.89C249.64 103.4 246.75 96.78 241.96 95.87Z" fill="#263238"/>
<path d="M242.87 144.62C211.99 147.8 182.31 149.56 175.37 140.94C166.73 130.2 152.95 101.57 151.41 89.18C150.79 84.17 186.95 74.92 189.1 79.87C193.4 89.78 205.84 114.5 205.8 115.15C205.73 116.51 236.23 122.64 246.13 125.45C266.18 131.15 257.07 143.15 242.87 144.61V144.62Z" fill="#D3766A"/>
<path d="M141.98 77.96C143.57 86.79 153.89 103.57 157.94 106.66C161.99 109.75 191.09 93.16 191.83 87.98C192.56 82.81 184.9 53.5 178 47.49C171.1 41.48 140.34 68.82 141.99 77.96H141.98Z" fill="#D3766A"/>
<path d="M186.74 58.86C185.04 63.3 180.78 58.76 180.78 58.76C180.78 58.76 185.33 66.78 181.81 70.67C178.41 74.42 173.46 68.75 173.1 68.35C173.34 68.78 177.33 76.25 173.39 79.8C169.29 83.49 165.3 76.95 165.04 76.52C165.14 76.99 166.32 83.26 162.72 85.28C156.52 88.75 153.04 72.79 148.08 69.89C148.08 69.89 142.2 77.75 141.98 77.94C141.98 77.94 138.36 62.83 142.65 56.35C144.91 52.93 148.54 54.37 148.54 54.37C148.54 54.37 146.84 49.63 149.85 46.73C151.4 45.25 155.15 46.41 155.15 46.41C155.15 46.41 153.94 42.56 156.79 40.15C159.05 38.22 162.46 39.69 162.46 39.69C162.46 39.69 163.02 35.45 165.97 34.23C171.92 31.76 190.37 49.35 186.74 58.86Z" fill="#D3766A"/>
<path d="M163.04 39.84C162.97 39.79 163.04 39.68 163.11 39.73C170.59 44.04 177.49 51.06 181.04 58.98C181.16 59.24 180.79 59.54 180.6 59.28C175.38 51.82 170.15 45.61 163.04 39.84Z" fill="#263238"/>
<path d="M155.1 46.3C155.02 46.24 155.12 46.11 155.22 46.16C162.9 50.64 170.45 58.76 173.47 68.38C173.57 68.71 173.34 69.11 173.19 68.74C170.7 62.5 161.53 51.46 155.1 46.3Z" fill="#263238"/>
<path d="M165.03 77.28C161.78 68.17 155.93 61.03 148.88 54.55C148.79 54.47 148.92 54.34 149.01 54.39C153.33 56.62 157.39 61.22 160.26 65.06C163 68.74 164.74 72.62 165.35 77.16C165.37 77.34 165.1 77.47 165.03 77.27V77.28Z" fill="#263238"/>
<path d="M180.79 58.76C181.51 60.39 182.12 62.07 182.53 63.78C182.92 65.48 183.13 67.3 182.62 68.86C182.36 69.63 181.88 70.28 181.2 70.66C180.51 71.04 179.7 71.3 178.93 71.28C177.36 71.28 175.85 70.29 174.84 69.11L172.32 66.14L173.66 69.81C174.24 71.41 174.64 73.18 174.67 74.88C174.71 76.57 174.29 78.26 173.15 79.29C171.98 80.38 170.42 80.64 169.08 79.81C167.72 79.04 166.56 77.61 165.74 76.18L163.43 72.18L164.3 76.69C164.54 77.91 164.63 79.25 164.55 80.51C164.45 81.76 164.15 83.02 163.44 83.9C162.75 84.77 161.57 85.26 160.55 85C159.47 84.74 158.46 83.83 157.6 82.88C155.86 80.92 154.52 78.55 153.08 76.28C152.37 75.13 151.65 73.98 150.88 72.86C150.1 71.77 149.28 70.61 148.09 69.92C149.19 70.72 149.86 71.93 150.56 73.06C151.24 74.22 151.86 75.42 152.49 76.61C153.74 79.01 155.03 81.4 156.76 83.6C157.65 84.65 158.66 85.77 160.21 86.25C161.82 86.74 163.55 86.01 164.54 84.79C165.55 83.55 165.89 82.04 166.03 80.63C166.15 79.19 166.07 77.81 165.82 76.38L164.38 76.9C165.34 78.6 166.5 80.14 168.29 81.23C169.17 81.76 170.32 82.06 171.42 81.87C172.53 81.69 173.46 81.15 174.23 80.43C175.81 78.93 176.22 76.73 176.15 74.85C176.07 72.91 175.64 71.09 174.95 69.3L173.76 70C175.09 71.46 176.91 72.49 178.95 72.42C179.96 72.37 180.89 72.02 181.72 71.5C182.58 70.96 183.18 70.05 183.43 69.12C183.93 67.22 183.49 65.37 182.98 63.66C182.44 61.94 181.69 60.3 180.79 58.76Z" fill="#263238"/>
<path d="M191.4 82.75C191.4 82.75 199.931 45.66 183.801 49.43C179.011 50.55 160.661 60.87 162.661 64.6C165.241 69.41 173.71 66.53 178.73 63.88C178.73 63.88 174.051 76.09 181.581 81.88C186.301 85.51 191.4 82.76 191.4 82.76V82.75Z" fill="#D3766A"/>
<path d="M185.16 49.21C183.22 49.35 181.36 50 179.55 50.69C177.74 51.39 175.99 52.26 174.29 53.2C170.9 55.12 167.61 57.12 164.55 59.63C163.79 60.27 163.05 60.96 162.43 61.88C162.13 62.34 161.85 62.9 161.76 63.52C161.71 63.83 161.7 64.1 161.76 64.5C161.83 64.84 161.93 65.15 162.08 65.41C162.65 66.51 163.65 67.2 164.66 67.61C165.7 67.99 166.76 68.11 167.79 68.12C169.87 68.11 171.82 67.59 173.68 66.92C175.55 66.26 177.31 65.39 179.03 64.49L178.1 63.64C177.6 65.09 177.28 66.51 177.06 67.98C176.85 69.44 176.77 70.93 176.86 72.41C176.96 73.89 177.27 75.35 177.79 76.73C178.3 78.11 179.08 79.38 180.06 80.45C179.24 79.26 178.62 77.95 178.24 76.58C177.85 75.21 177.72 73.79 177.72 72.38C177.72 70.97 177.87 69.55 178.16 68.17C178.44 66.79 178.84 65.4 179.36 64.15L180.02 62.55L178.42 63.3C176.7 64.11 174.98 64.92 173.19 65.48C171.42 66.06 169.59 66.54 167.8 66.52C166.06 66.52 164.2 65.99 163.51 64.67C162.8 63.57 164.21 61.98 165.56 60.79C166.95 59.55 168.51 58.42 170.06 57.31C171.62 56.19 173.19 55.09 174.81 54.08C178.07 52.12 181.4 50.1 185.16 49.22V49.21Z" fill="#263238"/>
<path d="M226.35 148.16L218.21 116.9C218.21 116.9 238.55 121.25 251.44 127.05C264.33 132.85 269.39 140.12 248.74 144.01C236.76 146.27 226.34 148.17 226.34 148.17L226.35 148.16Z" fill="#455A64"/>
<path d="M225.31 120.18C226.97 124.68 229.51 132.25 231.9 143.83C231.93 143.98 231.72 144.05 231.67 143.9C230.97 141.94 225.67 124.22 225.14 120.21C225.13 120.11 225.28 120.08 225.32 120.18H225.31Z" fill="#263238"/>
<path d="M241.76 146.86C240.6 146.88 239.43 146.91 238.27 146.89C237.93 146.89 237.6 146.89 237.26 146.89C240.32 146.32 243.38 145.69 246.31 144.66C246.38 144.64 246.34 144.54 246.28 144.54C242.6 144.82 238.98 145.61 235.35 146.25C233.55 146.57 231.77 146.92 229.98 147.26C229.08 147.43 226.91 147.84 226.78 147.8C226.57 147.74 226.26 147.45 226.12 146.91C226.08 146.74 225.83 146.8 225.88 146.98C226.05 147.51 226.22 148.36 226.47 148.55C226.71 148.75 232.26 147.8 234.29 147.43C234.81 147.34 235.32 147.24 235.84 147.15C236.65 147.21 237.47 147.27 238.28 147.25C239.45 147.22 240.62 147.15 241.78 146.99C241.85 146.98 241.83 146.88 241.76 146.88V146.86Z" fill="#263238"/>
<path d="M229.18 115.59C229.18 115.59 236.04 115.16 249.17 122.11C254.24 124.79 256.7 125.35 256.7 125.35C256.7 125.35 264.83 136.79 270.64 141.07C270.64 141.07 271.43 143.55 270.78 143.51C262.86 143.01 257.81 135.17 244.43 123.78C237.46 117.85 233.7 116.73 229.17 115.6L229.18 115.59Z" fill="#FFC727"/>
<path d="M270.651 141.06C271.121 140.41 272.271 138.75 273.941 133.51C273.941 133.51 282.941 133.11 288.411 131.63C293.881 130.15 298.231 128.46 302.311 128.19C302.311 128.19 295.041 131.05 290.921 132.6C277.191 137.77 278.141 142.73 270.791 143.5C270.791 143.5 270.181 141.71 270.651 141.06Z" fill="#FFC727"/>
<path d="M264.15 148.85C262.77 146.14 267.32 139.18 270.27 141.72C273.22 144.26 267.02 149.8 264.15 148.85Z" fill="#FFC727"/>
<path opacity="0.1" d="M266.35 146.28C265.49 144.61 268.31 140.3 270.14 141.87C271.97 143.44 268.13 146.87 266.35 146.28Z" fill="black"/>
<path d="M277.15 148.85C278.53 146.14 273.98 139.18 271.03 141.72C268.08 144.26 274.28 149.8 277.15 148.85Z" fill="#FFC727"/>
<path opacity="0.1" d="M274.95 146.28C275.81 144.61 272.99 140.3 271.16 141.87C269.33 143.44 273.17 146.87 274.95 146.28Z" fill="black"/>
<path d="M256.61 363.86L305.18 365.68C305.18 365.68 314.49 324.77 312.59 291.26C311.18 266.38 295 202.68 295 202.68H241.26C241.26 202.68 261.43 292.13 261.67 297.81C262.35 314.56 256.61 363.86 256.61 363.86Z" fill="#263238"/>
<path opacity="0.1" d="M295.01 202.69L255.64 294.23C248.97 269.51 241.26 202.69 241.26 202.69H295H295.01Z" fill="black"/>
<path d="M261.219 463.11C255.899 452.36 250.599 412.65 250.229 410.58C250.139 408.7 253.519 394.27 253.519 394.27C253.709 393.89 257.709 352.69 257.709 352.69H307.969L298.849 400.16C298.849 400.16 304.029 429.49 313.249 444.41C317.569 451.39 314.359 459.09 313.429 462.34C311.379 469.52 264.169 469.09 261.199 463.09L261.219 463.11Z" fill="#D3766A"/>
<path d="M313.449 462.35C311.399 469.53 264.189 469.09 261.219 463.1C255.889 452.35 250.599 412.64 250.229 410.57C250.139 408.69 253.529 394.27 253.529 394.27C253.569 394.18 254.659 383.69 254.659 383.69L277.579 388.88L301.139 387.76L298.869 400.16C298.869 400.16 304.049 429.49 313.279 444.41C317.589 451.39 314.389 459.09 313.459 462.34L313.449 462.35Z" fill="#EBEBEB"/>
<path d="M313.449 462.35C311.399 469.53 264.189 469.09 261.219 463.1C255.889 452.35 250.599 412.64 250.229 410.57C250.139 408.69 253.529 394.27 253.529 394.27C253.529 394.25 253.549 394.12 253.549 393.89C255.869 396.33 260.679 400.97 265.189 402.76C265.189 402.76 264.559 395.36 266.209 393.7C267.879 392.03 292.549 391.66 296.719 393.18C299.489 394.2 298.859 400.17 298.859 400.17C298.859 400.17 304.039 429.5 313.269 444.42C317.579 451.4 314.379 459.1 313.449 462.35Z" fill="#FFC727"/>
<path d="M313.32 447.76C304.29 442.13 297.59 441.16 290.23 441.29C281.63 441.44 272.22 445.05 267.51 451.2C267.39 451.35 267.83 451.61 267.98 451.47C279.11 441.74 297.26 440.01 313.12 448.11C313.44 448.27 313.63 447.95 313.32 447.76Z" fill="#263238"/>
<path d="M294.829 412.09C288.019 409.89 279.479 409.4 273.799 412.66C273.579 412.79 273.829 413.07 274.059 413.05C281.049 412.36 287.529 412.24 294.729 412.81C295.239 412.85 295.319 412.24 294.829 412.08V412.09Z" fill="#263238"/>
<path d="M296.279 416.76C289.469 414.56 280.929 414.07 275.249 417.33C275.029 417.46 275.279 417.74 275.509 417.72C282.499 417.03 288.979 416.91 296.179 417.48C296.689 417.52 296.769 416.91 296.279 416.75V416.76Z" fill="#263238"/>
<path d="M297.729 421.42C290.919 419.22 282.379 418.73 276.699 421.99C276.479 422.12 276.729 422.4 276.959 422.38C283.949 421.69 290.429 421.57 297.629 422.14C298.139 422.18 298.219 421.57 297.729 421.41V421.42Z" fill="#263238"/>
<path d="M299.179 426.08C292.369 423.88 283.829 423.39 278.149 426.65C277.929 426.78 278.179 427.06 278.409 427.04C285.399 426.35 291.879 426.23 299.079 426.8C299.589 426.84 299.669 426.23 299.179 426.07V426.08Z" fill="#263238"/>
<path d="M252.129 410.02C253.929 418.36 255.589 426.73 257.259 435.09L259.719 447.64C260.819 451.91 262.049 456.38 263.839 460.41C263.959 460.66 264.049 460.67 264.249 460.81C267.499 462.49 271.289 462.89 274.859 463.54C281.149 464.44 287.529 465.36 293.889 464.87C298.139 464.59 302.379 464.17 306.569 463.41C308.559 462.91 310.959 462.81 312.519 461.36C311.009 462.87 308.589 463.06 306.609 463.61C302.429 464.47 298.179 465.02 293.919 465.39C287.519 465.98 281.079 465.19 274.719 464.39C271.019 463.74 267.129 463.36 263.739 461.59C263.169 461.28 262.889 460.66 262.649 460.12C261.039 456.09 259.739 452.05 258.769 447.83L256.409 435.25C254.919 426.85 253.439 418.45 252.109 410.02H252.129Z" fill="#263238"/>
<path d="M257.59 287.76C263.66 260.13 266.51 244.79 266.51 244.79L270.97 240.83C272.72 239.81 282.9 209.83 283.83 202.68H222.78C222.78 202.68 210.72 237.17 213.78 247.43C213.78 247.43 211.87 281.03 212.68 288.62C214.83 308.54 251.61 314.96 257.59 287.76Z" fill="#263238"/>
<path d="M222.78 202.68C222.78 202.68 216.93 213.08 216.93 221.45C216.93 221.45 251.93 219.48 266.51 244.78C266.51 244.78 273.78 243.51 276.37 241C278.95 238.49 285.3 225.51 299.4 220.73C299.4 220.73 297.53 207.13 295.01 202.68H222.78Z" fill="#455A64"/>
<path d="M226.649 243.64L231.869 244.61L233.029 250.1L234.199 244.61L239.409 243.64L234.219 242.37L233.029 237.18L231.849 242.37L226.649 243.64Z" fill="#FFC727"/>
<path d="M189.77 132.05L194.98 133.02L196.15 138.52L197.32 133.02L202.53 132.05L197.34 130.78L196.15 125.59L194.96 130.78L189.77 132.05Z" fill="#FFC727"/>
<path d="M303.869 170.39L309.089 171.35L310.249 176.85L311.419 171.35L316.629 170.38L311.439 169.11L310.249 163.92L309.059 169.11L303.869 170.39Z" fill="#FFC727"/>
<path d="M126.27 204.58L129.18 205.12L129.84 208.19L130.49 205.12L133.4 204.58L130.5 203.87L129.84 200.97L129.17 203.87L126.27 204.58Z" fill="#FFC727"/>
<path d="M364.939 153.31L367.859 153.85L368.509 156.93L369.159 153.85L372.079 153.31L369.169 152.6L368.509 149.7L367.849 152.6L364.939 153.31Z" fill="#FFC727"/>
<path d="M183.649 214.88L186.559 215.42L187.209 218.5L187.859 215.42L190.779 214.88L187.879 214.17L187.209 211.27L186.549 214.17L183.649 214.88Z" fill="#FFC727"/>
<path d="M143.09 259.85L146 260.39L146.65 263.46L147.3 260.39L150.22 259.85L147.32 259.14L146.65 256.24L145.99 259.14L143.09 259.85Z" fill="#FFC727"/>
<path d="M290.25 200.08L293.17 200.62L293.82 203.69L294.47 200.62L297.38 200.08L294.48 199.37L293.82 196.47L293.15 199.37L290.25 200.08Z" fill="#FFC727"/>
<path d="M330.029 105.95L332.949 106.49L333.599 109.56L334.249 106.49L337.159 105.95L334.259 105.24L333.599 102.34L332.929 105.24L330.029 105.95Z" fill="#FFC727"/>
<path d="M181.85 264.09C182.94 264.09 182.94 265.78 181.85 265.78C180.76 265.78 180.76 264.09 181.85 264.09Z" fill="#FFC727"/>
<path d="M183.97 158.88C185.06 158.88 185.06 160.57 183.97 160.57C182.88 160.57 182.88 158.88 183.97 158.88Z" fill="#FFC727"/>
<path d="M305.31 152.47C306.4 152.47 306.4 154.16 305.31 154.16C304.22 154.16 304.22 152.47 305.31 152.47Z" fill="#FFC727"/>
<path d="M335.949 200.97C337.039 200.97 337.039 202.66 335.949 202.66C334.859 202.66 334.859 200.97 335.949 200.97Z" fill="#FFC727"/>
<path d="M366.15 191.69C366.92 191.69 366.92 192.89 366.15 192.89C365.38 192.89 365.38 191.69 366.15 191.69Z" fill="#FFC727"/>
<path d="M360.36 117.89C361.13 117.89 361.13 119.09 360.36 119.09C359.59 119.09 359.59 117.89 360.36 117.89Z" fill="#FFC727"/>
<path d="M269.669 182.79C270.439 182.79 270.439 183.99 269.669 183.99C268.899 183.99 268.899 182.79 269.669 182.79Z" fill="#FFC727"/>
<path d="M252.209 281.71C254.289 281.71 254.299 284.95 252.209 284.95C250.119 284.95 250.119 281.71 252.209 281.71Z" fill="#FFC727"/>
<path d="M146.65 211.64C148.73 211.64 148.74 214.88 146.65 214.88C144.56 214.88 144.56 211.64 146.65 211.64Z" fill="#FFC727"/>
<path d="M352.09 144.1C354.17 144.1 354.18 147.34 352.09 147.34C350 147.34 350 144.1 352.09 144.1Z" fill="#FFC727"/>
<defs>
<linearGradient id="paint0_linear_14897_578519" x1="99.748" y1="167.726" x2="101.158" y2="240.676" gradientUnits="userSpaceOnUse">
<stop stop-color="#D6B24C"/>
<stop offset="0.871942" stop-color="#F2E6C4"/>
</linearGradient>
<linearGradient id="paint1_linear_14897_578519" x1="99.748" y1="191.157" x2="110.346" y2="390.934" gradientUnits="userSpaceOnUse">
<stop stop-color="#D6B24C"/>
<stop offset="0.871942" stop-color="#F2E6C4"/>
</linearGradient>
<linearGradient id="paint2_linear_14897_578519" x1="119.1" y1="205" x2="142.028" y2="478.658" gradientUnits="userSpaceOnUse">
<stop stop-color="#D6B24C"/>
<stop offset="0.871942" stop-color="#F2E6C4"/>
</linearGradient>
<linearGradient id="paint3_linear_14897_578519" x1="189.812" y1="205" x2="238.512" y2="471.686" gradientUnits="userSpaceOnUse">
<stop stop-color="#D6B24C"/>
<stop offset="0.871942" stop-color="#F2E6C4"/>
</linearGradient>
<linearGradient id="paint4_linear_14897_578519" x1="246.872" y1="205" x2="371.4" y2="401.77" gradientUnits="userSpaceOnUse">
<stop stop-color="#D6B24C"/>
<stop offset="0.871942" stop-color="#F2E6C4"/>
</linearGradient>
<linearGradient id="paint5_linear_14897_578519" x1="289.633" y1="205" x2="338.32" y2="471.691" gradientUnits="userSpaceOnUse">
<stop stop-color="#D6B24C"/>
<stop offset="0.871942" stop-color="#F2E6C4"/>
</linearGradient>
<linearGradient id="paint6_linear_14897_578519" x1="336.644" y1="205" x2="359.571" y2="478.658" gradientUnits="userSpaceOnUse">
<stop stop-color="#D6B24C"/>
<stop offset="0.871942" stop-color="#F2E6C4"/>
</linearGradient>
<linearGradient id="paint7_linear_14897_578519" x1="349.512" y1="191.151" x2="360.106" y2="390.89" gradientUnits="userSpaceOnUse">
<stop stop-color="#D6B24C"/>
<stop offset="0.871942" stop-color="#F2E6C4"/>
</linearGradient>
<linearGradient id="paint8_linear_14897_578519" x1="349.512" y1="167.723" x2="350.921" y2="240.655" gradientUnits="userSpaceOnUse">
<stop stop-color="#D6B24C"/>
<stop offset="0.871942" stop-color="#F2E6C4"/>
</linearGradient>
<linearGradient id="paint9_linear_14897_578519" x1="250.531" y1="269.5" x2="261.858" y2="269.153" gradientUnits="userSpaceOnUse">
<stop offset="0.0294512" stop-color="#D6B24C"/>
<stop offset="0.884105" stop-color="#E8D49B"/>
</linearGradient>
<linearGradient id="paint10_linear_14897_578519" x1="226.515" y1="269.5" x2="265.36" y2="265.383" gradientUnits="userSpaceOnUse">
<stop offset="0.0294512" stop-color="#D6B24C"/>
<stop offset="0.884105" stop-color="#E8D49B"/>
</linearGradient>
<linearGradient id="paint11_linear_14897_578519" x1="199.095" y1="269.5" x2="280.377" y2="250.722" gradientUnits="userSpaceOnUse">
<stop offset="0.0294512" stop-color="#D6B24C"/>
<stop offset="0.884105" stop-color="#E8D49B"/>
</linearGradient>
<linearGradient id="paint12_linear_14897_578519" x1="142.573" y1="269.5" x2="253.913" y2="183.319" gradientUnits="userSpaceOnUse">
<stop offset="0.0294512" stop-color="#D6B24C"/>
<stop offset="0.765751" stop-color="#DBBB5F"/>
</linearGradient>
<linearGradient id="paint13_linear_14897_578519" x1="387" y1="325" x2="373.635" y2="13.9166" gradientUnits="userSpaceOnUse">
<stop stop-color="#D6B24C"/>
<stop offset="0.757227" stop-color="#DFC372" stop-opacity="0.98"/>
</linearGradient>
<linearGradient id="paint14_linear_14897_578519" x1="387.513" y1="213.035" x2="481.992" y2="118.385" gradientUnits="userSpaceOnUse">
<stop offset="0.0294512" stop-color="#D6B24C"/>
<stop offset="0.884105" stop-color="#E8D49B"/>
</linearGradient>
<linearGradient id="paint15_linear_14897_578519" x1="381.567" y1="269.5" x2="527.775" y2="198.045" gradientUnits="userSpaceOnUse">
<stop offset="0.0294512" stop-color="#D6B24C"/>
<stop offset="0.884105" stop-color="#E8D49B"/>
</linearGradient>
<linearGradient id="paint16_linear_14897_578519" x1="312.059" y1="269.5" x2="393.334" y2="250.726" gradientUnits="userSpaceOnUse">
<stop offset="0.0294512" stop-color="#D6B24C"/>
<stop offset="0.884105" stop-color="#E8D49B"/>
</linearGradient>
<linearGradient id="paint17_linear_14897_578519" x1="278.35" y1="269.5" x2="303.182" y2="267.394" gradientUnits="userSpaceOnUse">
<stop offset="0.0294512" stop-color="#D6B24C"/>
<stop offset="1" stop-color="#E8D49B"/>
</linearGradient>
</defs>
</svg>
