<svg width="564" height="438" viewBox="0 0 564 438" fill="none" xmlns="http://www.w3.org/2000/svg">
<g clip-path="url(#clip0_14897_425431)">
<path opacity="0.2" d="M563.76 178.417C563.76 79.9133 437.64 0.0625 282.066 0.0625C126.491 0.0625 0.374023 79.9133 0.374023 178.417C0.374023 276.921 116.63 350.366 263.588 356.391C290.474 385.228 340.056 404.575 396.775 404.575C482.13 404.575 551.324 360.765 551.324 306.723C551.324 289.807 544.545 273.895 532.613 260.015C552.519 235.564 563.76 207.82 563.76 178.417Z" fill="#869309"/>
<path d="M273.178 437.271C424.05 437.271 546.356 424.291 546.356 408.28C546.356 392.269 424.05 379.29 273.178 379.29C122.306 379.29 0 392.269 0 408.28C0 424.291 122.306 437.271 273.178 437.271Z" fill="#BFD34B"/>
<path d="M206.179 391.471C206.179 391.471 226.043 324.861 220.877 318.986C215.712 313.112 199.027 358.308 199.027 358.308C199.027 358.308 223.261 275.598 212.137 271.531C201.014 267.465 191.877 343.393 191.877 343.393C191.877 343.393 194.66 245.317 189.098 238.989C183.536 232.66 181.946 304.975 181.946 304.975C181.946 304.975 180.754 258.424 171.618 258.424C162.481 258.424 169.234 332.094 169.234 332.094C169.234 332.094 160.098 274.244 154.932 280.118C149.767 285.993 154.932 347.009 154.932 347.009C154.932 347.009 146.192 310.007 139.043 313.818C131.89 317.629 146.592 378.644 146.592 378.644C146.592 378.644 139.838 351.076 134.277 351.076C128.715 351.076 134.277 390.512 134.277 390.512L206.183 391.474L206.179 391.471Z" fill="#869309"/>
<path d="M204.713 392.263C204.096 389.602 202.521 386.743 198.573 386.516C193.586 386.228 191.19 389.25 190.146 391.311C191.618 387.311 194.529 378.175 190.388 378.175C187.603 378.175 184.197 382.168 181.594 385.96C182.051 380.919 181.923 375.53 179.818 373.131C176.294 369.118 173.892 379.957 173.026 384.775C173.972 378.686 176.24 361.634 172.668 357.57C168.298 352.599 163.136 373.84 163.136 373.84C163.136 373.84 169.25 339.668 166.71 336.78C164.174 333.892 155.29 358.024 155.29 358.024C155.29 358.024 159.957 320.542 155.29 320.542C150.623 320.542 146.463 360.285 146.463 360.285C146.463 360.285 143.47 318.932 137.71 312.377C131.951 305.822 142.876 387.404 141.684 388.758C141.684 388.758 132.548 289.779 126.587 292.037C123.91 293.053 125.562 310.205 128.194 328.794C126.638 323.823 124.897 320.542 123.012 320.542C115.221 320.542 129.369 382.43 129.369 385.142C129.369 387.854 121.425 334.521 113.47 338.31C107.762 341.026 114.952 368.939 119.47 384.487C119.064 384.391 118.626 384.324 118.157 384.299C113.17 384.011 110.774 387.033 109.729 389.094C111.202 385.094 114.112 375.958 109.972 375.958C107.187 375.958 103.781 379.951 101.178 383.743C101.634 378.702 101.507 373.313 99.4014 370.914C95.8747 366.905 93.4756 377.744 92.6098 382.558C93.5554 376.469 95.8235 359.417 92.2521 355.353C87.8819 350.382 82.7163 371.623 82.7163 371.623C82.7163 371.623 88.8307 337.451 86.291 334.563C83.7514 331.675 74.8705 355.807 74.8705 355.807C74.8705 355.807 79.5378 318.322 74.8705 318.322C70.2033 318.322 66.044 358.065 66.044 358.065C66.044 358.065 63.0507 316.712 57.291 310.157C51.5312 303.602 62.4566 385.184 61.2618 386.538C61.2618 386.538 52.1254 287.559 46.1644 289.817C43.4874 290.833 45.1389 307.984 47.7712 326.573C46.2155 321.603 44.4745 318.322 42.5897 318.322C34.7982 318.322 48.9468 380.21 48.9468 382.922C48.9468 385.634 41.002 332.301 33.0476 336.087C30.3258 337.384 30.5399 344.415 31.9966 353.101C30.9136 351.973 29.7572 351.248 28.5241 351.06C27.0642 349.772 25.4765 349.207 23.7547 349.702C12.5993 352.9 39.7529 389.279 41.9923 392.256H204.719L204.713 392.263Z" fill="#A4B739"/>
<path d="M386.245 282.182C380.917 282.182 376.598 286.936 376.598 292.798C376.598 298.66 380.917 303.413 386.245 303.413C391.574 303.413 395.893 298.66 395.893 292.798C395.893 286.936 391.574 282.182 386.245 282.182ZM386.245 301.563C381.945 301.563 378.451 297.631 378.451 292.798C378.451 287.964 381.945 284.035 386.245 284.035C390.545 284.035 394.04 287.967 394.04 292.798C394.04 297.628 390.542 301.563 386.245 301.563Z" fill="#3F6C19"/>
<path d="M390.395 284.834C390.395 284.834 402.215 278.314 412.508 273.921C422.804 269.529 449.261 232.338 448.846 225.993C448.181 215.822 437.103 215.007 427.452 230.06C417.801 245.113 416.22 254.46 410.892 258.836C406.662 262.312 385.262 282.182 385.262 282.182L390.399 284.834H390.395Z" fill="#F15F5C"/>
<path d="M322.929 290.849C324.313 287.737 332.366 288.118 335.656 288.411C330.986 288.68 321.367 294.369 322.929 290.849Z" fill="#B9BCFC"/>
<path d="M320.955 297.216C318.908 299.806 316.697 308.757 315.291 305.544C314.01 302.618 318.805 298.759 320.955 297.216Z" fill="#B9BCFC"/>
<path d="M322.757 314C320.297 312.824 325.871 306.231 325.871 306.231C325.871 306.231 325.216 315.175 322.757 314Z" fill="#B9BCFC"/>
<path d="M329.907 324.008C325.85 324.008 329.907 316.591 329.907 316.591C329.907 316.591 333.437 324.008 329.907 324.008Z" fill="#B9BCFC"/>
<path d="M324.447 338.847C321.623 338.847 324.447 333.681 324.447 333.681C324.447 333.681 326.906 338.847 324.447 338.847Z" fill="#B9BCFC"/>
<path d="M324.78 362.883C321.956 362.883 324.78 357.717 324.78 357.717C324.78 357.717 327.239 362.883 324.78 362.883Z" fill="#B9BCFC"/>
<path d="M434.327 378.664C441.959 377.408 449.821 374.664 457.424 376.581C457.104 394.793 457.159 414.934 456.957 416.455C456.609 419.113 446.38 417.215 437.375 418.838C428.373 420.461 422.578 418.078 425.989 415.462C429.398 412.845 438.758 413.494 438.378 406.118C438.269 404.012 436.458 393.228 434.327 378.664Z" fill="#3F6C19"/>
<path d="M434.327 378.664C428.995 342.185 421.661 281.965 434.052 274.831C451.392 264.852 469.333 289.287 469.333 289.287C469.333 289.287 456.168 327.442 454.021 343.725C453.236 349.673 459.858 360.768 461.66 372.364C462.107 375.23 459.676 377.744 456.785 377.488C449.479 376.843 440.365 377.673 434.324 378.667L434.327 378.664Z" fill="#C40052"/>
<path d="M467.33 379.769C474.779 377.686 481.363 377.255 489.129 378.328C490.806 396.467 493.017 418.806 492.985 420.34C492.927 423.02 478.986 421.228 470.214 423.825C461.442 426.422 457.874 422.234 460.979 419.26C464.084 416.286 473.453 415.909 472.272 408.619C471.933 406.539 471.035 394.013 467.33 379.769Z" fill="#3F6C19"/>
<path d="M468.658 380.925C466.729 381.353 464.818 380.143 464.326 378.229C455.081 342.316 442.453 286.769 453.618 278.595C469.764 266.778 490.266 289.105 490.266 289.105C490.266 289.105 481.353 328.471 480.999 344.888C480.865 351.082 488.448 362.554 491.103 374.479C491.621 376.811 489.828 379.005 487.442 378.945C481.446 378.788 474.386 379.651 468.661 380.922L468.658 380.925Z" fill="#EA0062"/>
<path opacity="0.33" d="M426.248 276.279C442.393 264.462 462.896 286.789 462.896 286.789C462.896 286.789 461.113 304.988 459.858 321.81C447.322 316.29 432.276 308.706 422.172 300.413C421.29 288.309 422.226 279.221 426.245 276.275L426.248 276.279Z" fill="#750031"/>
<path d="M432.924 220.23C430.819 221.265 425.619 234.612 424.165 245.566C422.702 256.607 418.076 328.727 418.076 328.727C418.076 328.727 445.006 343.482 484.689 334.854C505.533 330.324 506.121 325.529 506.121 325.529C506.121 325.529 474.795 241.062 462.918 222.895C455.577 211.669 434.579 219.413 432.921 220.227L432.924 220.23Z" fill="#D9E021"/>
<path d="M432.755 220.336C430.295 221.946 424.708 235.874 423.248 246.151C420.926 264.503 418.274 308.662 418.076 328.73C423.587 282.524 422.648 250.093 427.714 233.018C429.027 228.651 430.522 224.339 432.755 220.336Z" fill="#F0F3A6"/>
<path d="M411.882 192.713C411.882 192.713 423.516 199.338 426.465 187.097C429.417 174.858 426.526 165.693 432.95 162.071C439.377 158.451 448.137 155.349 456.494 157.799C458.302 158.33 449.383 160.288 449.383 160.288C449.383 160.288 438.361 192.272 438.774 199.948C439.186 207.621 448.258 213.959 443.7 215.966C429.682 222.128 420.798 208.672 420.798 208.672C420.798 208.672 425.04 209.704 426.149 208.644C426.149 208.644 420.954 208.097 417.386 205.852C413.818 203.606 411.882 192.716 411.882 192.716V192.713Z" fill="#00114D"/>
<path d="M438.132 203.21C438.132 203.21 441.646 217.777 437.164 222.07C432.682 226.361 453.772 228.75 454.006 217.857C454.089 214.001 451.632 197.46 451.632 197.46L438.132 203.213V203.21Z" fill="#F37575"/>
<path d="M453.421 210.8C449.99 212.078 444.38 212.819 439.422 212.787C439.269 207.928 438.132 203.213 438.132 203.213L451.632 197.46C451.632 197.46 452.718 204.769 453.421 210.803V210.8Z" fill="#F15F5C"/>
<path d="M438.4 163.051C435.416 164.85 430.068 170.006 430.404 174.453C430.739 178.903 426.973 184.681 428.165 193.885C429.356 203.088 438.441 208.155 440.92 207.797C451.443 206.283 456.289 201.063 460.289 194.907C464.292 188.751 473.386 188.585 464.116 172.437C454.845 156.292 444.259 159.512 438.397 163.048L438.4 163.051Z" fill="#F37575"/>
<path d="M437.755 185.419C436.09 186.815 434.5 186.969 434.199 187.071C434.691 188.096 435.285 189.502 436.295 191.035C436.103 189.933 435.819 188.882 435.499 187.844C437.969 187.285 439.719 185.062 440.064 182.621C438.854 184.512 438.483 184.761 437.758 185.416L437.755 185.419Z" fill="black"/>
<path d="M442.156 182.972C443.469 181.247 445.827 179.775 447.763 180.286C449.746 180.861 449.999 182.679 451.941 183.097C449.884 183.643 448.695 181.666 447.232 181.314C445.824 180.912 443.916 181.921 442.159 182.976L442.156 182.972Z" fill="black"/>
<path d="M437.272 182.356C436.224 181.056 434.371 179.848 432.876 180.056C431.346 180.305 431.18 181.554 429.679 181.698C431.286 182.234 432.174 180.947 433.305 180.813C434.394 180.64 435.889 181.49 437.269 182.359L437.272 182.356Z" fill="black"/>
<path d="M445.818 174.462C447.275 174.344 448.677 175.318 449.632 176.519C447.064 174.769 445.69 175.13 444.166 176.152C442.63 177.174 442.397 177.931 441.988 177.401C441.451 176.705 443.959 174.683 445.818 174.462Z" fill="black"/>
<path d="M433.592 175.682C432.858 175.583 432.001 176.152 431.101 176.539C432.752 174.216 434.599 174.063 436.09 176.848C436.336 177.305 435.758 177.752 435.461 177.34C435.461 177.34 434.027 175.74 433.592 175.679V175.682Z" fill="black"/>
<path d="M432.749 187.537C432.71 189.285 430.554 190.655 427.931 190.604C427.906 188.269 428.174 186.18 428.545 184.292C430.941 184.509 432.784 185.895 432.749 187.537Z" fill="#F15F5C"/>
<path d="M449.383 160.285C449.383 160.285 461.116 181.819 452.766 200.993C449.644 208.161 441.636 218.802 441.636 218.802C441.636 218.802 461.372 219.63 465.681 220.943L468.096 202.798L470.32 220.464C470.32 220.464 474.335 221.997 485.724 217.036C497.112 212.075 489.509 207.82 489.509 207.82C489.509 207.82 478.686 194.636 476.935 181.858C475.185 169.079 462.343 151.171 449.379 160.285H449.383Z" fill="#172866"/>
<path d="M440.311 162.013C440.311 162.013 447.492 174.491 457.759 174.711C468.023 174.932 469.604 178.768 469.541 181.695C469.477 184.621 466.097 187.154 462.89 184.985C459.682 182.819 459.494 181.477 459.494 181.477C459.494 181.477 458.216 185.426 460.657 187.975C463.097 190.521 470.758 192.364 473.358 185.816C474.975 181.746 474.553 176.654 472.115 172.98C470.975 171.261 469.652 170.613 467.832 169.811C465.008 168.571 462.315 167.022 459.864 165.147C458.622 164.195 457.443 163.157 456.344 162.042C455.271 160.952 454.36 159.687 452.993 158.937C451.792 158.272 450.552 157.751 449.185 157.541C445.463 156.966 442.294 158.946 440.314 162.013H440.311Z" fill="#00114D"/>
<path d="M461.547 175.44C462.442 175.012 463.512 175.213 464.189 175.938C465.54 177.382 467.965 176.532 468.118 174.561C468.195 173.574 468.904 172.75 469.872 172.523C471.799 172.076 472.275 169.549 470.642 168.431C469.824 167.869 469.463 166.843 469.751 165.894C470.326 164.003 468.377 162.329 466.595 163.179C465.7 163.607 464.63 163.406 463.953 162.681C462.601 161.237 460.177 162.086 460.023 164.057C459.947 165.045 459.238 165.872 458.27 166.096C456.343 166.546 455.867 169.07 457.5 170.188C458.318 170.747 458.675 171.775 458.388 172.724C457.816 174.619 459.762 176.289 461.544 175.44H461.547Z" fill="#F14E76"/>
<path d="M464.579 172.715C464.863 172.287 465.394 172.092 465.889 172.236C466.876 172.52 467.729 171.494 467.272 170.574C467.045 170.114 467.141 169.555 467.512 169.201C468.253 168.488 467.793 167.236 466.767 167.169C466.253 167.137 465.818 166.776 465.694 166.275C465.448 165.278 464.132 165.048 463.563 165.904C463.279 166.332 462.749 166.527 462.253 166.383C461.266 166.099 460.41 167.124 460.867 168.044C461.094 168.504 460.998 169.06 460.627 169.418C459.886 170.13 460.349 171.383 461.372 171.446C461.886 171.478 462.32 171.843 462.442 172.341C462.688 173.338 464.004 173.564 464.573 172.712L464.579 172.715Z" fill="#FFF7CF"/>
<path d="M443.38 189.413C443.351 190.866 445.096 192.083 447.281 192.128C449.466 192.176 451.264 191.035 451.293 189.582C451.325 188.128 449.578 186.911 447.392 186.867C445.207 186.819 443.409 187.959 443.377 189.413H443.38Z" fill="#F15F5C"/>
<path d="M437.09 196.955C440.138 197.022 444.85 196.032 445.086 195.981C445.291 195.939 445.409 195.773 445.351 195.613C445.29 195.453 445.083 195.358 444.875 195.402C444.808 195.415 438.096 196.827 435.758 196.207C435.557 196.153 435.34 196.239 435.272 196.396C435.205 196.552 435.317 196.725 435.518 196.776C435.943 196.888 436.486 196.942 437.09 196.955Z" fill="black"/>
<path d="M474.115 383.027C475.166 388.334 479.006 407.9 476.811 412.896C474.422 417.35 467.349 418.155 465.394 420.023L465.346 420.068C464.461 420.915 463.18 419.576 464.065 418.73C469.352 415.372 475.521 416.021 476.265 409.922C476.476 408.178 476.469 406.373 476.428 404.578C476.175 397.377 475.22 390.174 474.118 383.024L474.115 383.027Z" fill="#89D83D"/>
<path d="M397.899 293.251C397.899 293.251 413.645 284.92 425.366 280.109C437.087 275.298 467.217 234.571 466.745 227.626C465.984 216.486 455.267 217.489 444.274 233.973C433.288 250.457 429.589 258.801 423.523 263.593C418.705 267.398 396.666 286.916 396.666 286.916L397.899 293.251Z" fill="#F37575"/>
<path d="M390.226 303.327L381.15 283.463L362.884 285.527L364.542 296.069L341.768 287.606L341.036 290.497L366.618 309.301L366.727 310.003C367.401 312.37 369.864 313.747 372.234 313.073L387.153 308.837C389.52 308.166 390.897 305.7 390.226 303.33V303.327Z" fill="#3F6C19"/>
<path d="M384.466 286.354C383.572 285.498 383.396 284.134 384.041 283.077C385.491 280.697 387.97 276.844 388.325 277.738C388.833 279.016 386.472 282.559 386.472 282.559C386.472 282.559 389.028 279.412 390.414 279.48C391.797 279.55 387.907 283.974 387.907 283.974C387.907 283.974 392.219 280.061 393.139 281.035C394.059 282.01 390.826 285.805 390.826 285.805C390.826 285.805 394.308 281.383 394.538 282.617C394.765 283.853 393.299 287.677 390.587 289.082C388.779 290.018 386.236 288.047 384.469 286.354H384.466Z" fill="#F37575"/>
<path d="M397.982 293.251C397.982 293.251 394.142 296.315 393.216 296.605C392.29 296.893 391.999 293.711 391.999 293.711C391.999 293.711 391.13 291.801 391.13 291.453V289.6C391.13 289.6 391.245 287.817 396.746 286.913L397.979 293.248L397.982 293.251Z" fill="#F37575"/>
<path d="M303.351 119.95C303.351 142.747 280.5 161.23 280.5 161.23C280.5 161.23 257.649 142.75 257.649 119.95C257.649 97.151 280.5 62.2953 280.5 62.2953C280.5 62.2953 303.351 97.1542 303.351 119.95Z" fill="#39B54A"/>
<path d="M250.414 141.034C261.777 152.356 259.64 172.922 259.64 172.922C259.64 172.922 239.083 175.133 227.72 163.812C216.357 152.49 208 120.081 208 120.081C208 120.081 239.051 129.713 250.414 141.031V141.034Z" fill="#39B54A"/>
<path d="M255.091 183.915C261.081 187.186 262.655 195.84 262.655 195.84C262.655 195.84 254.522 199.191 248.532 195.92C242.543 192.649 236.693 179.085 236.693 179.085C236.693 179.085 249.101 180.644 255.088 183.915H255.091Z" fill="#39B54A"/>
<path d="M280.382 206.408C278.775 213.039 270.824 216.806 270.824 216.806C270.824 216.806 265.48 209.819 267.086 203.187C268.693 196.556 275.951 188.221 275.951 188.221C275.951 188.221 281.986 199.779 280.379 206.408H280.382Z" fill="#39B54A"/>
<path d="M322.348 165.048C312.528 180.928 320.483 203.641 320.483 203.641C320.483 203.641 344.359 200.613 354.179 184.733C363.999 168.853 364.324 133.502 364.324 133.502C364.324 133.502 332.168 149.165 322.348 165.045V165.048Z" fill="#39B54A"/>
<path d="M325.924 209.826C317.634 213.273 314.372 224.377 314.372 224.377C314.372 224.377 324.547 229.891 332.837 226.444C341.126 222.997 349.95 208.695 349.95 208.695C349.95 208.695 334.217 206.382 325.927 209.829L325.924 209.826Z" fill="#39B54A"/>
<path d="M297.377 270.011C289.065 273.4 285.724 284.482 285.724 284.482C285.724 284.482 295.86 290.066 304.172 286.674C312.484 283.284 315.826 272.202 315.826 272.202C315.826 272.202 305.69 266.618 297.377 270.011Z" fill="#39B54A"/>
<path d="M290.164 239.385C291.346 248.285 301.223 254.313 301.223 254.313C301.223 254.313 309.184 245.914 308.002 237.014C306.82 228.114 295.99 214.272 295.99 214.272C295.99 214.272 288.982 230.485 290.164 239.382V239.385Z" fill="#39B54A"/>
<path d="M265.942 216.758C272.679 220.566 274.325 230.405 274.325 230.405C274.325 230.405 265.048 234.072 258.31 230.264C251.573 226.456 241.469 214.659 241.469 214.659C241.469 214.659 259.205 212.953 265.942 216.758Z" fill="#39B54A"/>
<path d="M320.42 205.027C318.893 207.449 317.65 210.04 316.66 212.723C315.458 215.988 314.634 219.377 313.928 222.78C313.19 226.329 312.551 229.9 311.81 233.449C311.44 235.219 311.111 237.027 310.564 238.752C310.034 240.423 309.264 242.004 308.383 243.515C306.571 246.614 304.319 249.438 302.108 252.256C297.62 257.98 293.343 263.858 290.02 270.353C287.659 274.966 285.765 279.805 284.328 284.782C285.107 278.122 285.893 271.458 286.669 264.797C287.104 261.073 287.532 257.345 287.928 253.616C288.318 249.933 288.768 246.247 288.972 242.544C289.375 235.168 288.883 227.747 287.937 220.428C287.001 213.209 285.672 206.053 284.308 198.907C282.992 192.023 281.612 185.138 280.817 178.168C280.136 172.216 279.922 166.067 281.727 160.291C281.433 160.965 281.152 161.642 280.913 162.339C279.833 165.469 279.414 168.824 279.277 172.121C279.136 175.468 279.283 178.835 279.565 182.174C280.171 189.349 281.328 196.46 282.401 203.574C283.5 210.858 284.58 218.141 285.203 225.482C285.784 232.303 285.915 239.142 285.327 245.966C285.085 248.774 284.775 251.575 284.491 254.377C284.289 256.338 284.088 258.3 283.887 260.261C282.829 245.624 279.213 235.711 276.549 228.961C275.194 225.524 273.722 222.134 272.115 218.806C270.885 216.256 269.499 213.768 268.368 211.171C266.892 207.775 265.707 204.296 264.764 200.715C263.844 197.21 263.135 193.661 262.455 190.106C261.809 186.745 261.209 183.375 260.413 180.046C259.765 177.334 258.944 174.686 257.902 172.098C259.605 177.8 260.298 183.717 261.113 189.591C262.106 196.747 263.407 203.884 266.084 210.628C267.441 214.052 269.246 217.282 270.792 220.62C272.37 223.974 273.865 227.367 275.22 230.817C277.887 237.605 280.002 244.589 281.277 251.773C282.222 257.092 282.67 262.469 283.104 267.848C282.427 274.448 281.746 281.048 281.159 287.658C280.513 294.903 279.935 302.154 279.545 309.419C279.175 316.293 278.954 323.174 278.97 330.059C278.983 336.032 279.271 341.997 279.811 347.948C279.811 347.795 279.811 347.641 279.807 347.491C279.747 341.374 279.884 335.266 280.197 329.158C280.552 322.261 281.108 315.373 281.769 308.499C282.251 303.474 282.778 298.452 283.337 293.433C284.938 286.702 287.18 280.141 290.209 273.911C293.394 267.359 297.531 261.37 301.984 255.629C304.169 252.815 306.408 250.026 308.395 247.068C310.35 244.161 311.967 241.075 312.708 237.631C313.478 234.053 314.085 230.45 314.669 226.837C315.225 223.412 315.775 219.975 316.592 216.598C317.413 213.212 318.535 209.899 320.075 206.769C321.333 204.216 322.863 201.836 324.528 199.533C323.042 201.28 321.646 203.076 320.42 205.018V205.027Z" fill="#3C8F7C"/>
<path d="M227.365 318.772C240.984 309.866 331.36 309.221 341.567 321.957C298.006 330.73 227.365 318.772 227.365 318.772Z" fill="#B75742"/>
<path d="M327.303 424.678H236.211C234.067 424.678 232.329 422.94 232.329 420.796L218.404 320.51C218.404 318.367 220.142 316.629 222.286 316.629H341.225C343.368 316.629 345.106 318.367 345.106 320.51L331.181 420.796C331.181 422.94 329.443 424.678 327.3 424.678H327.303Z" fill="#F47458"/>
<path d="M32.55 105.172C33.586 105.172 34.4913 105.377 35.266 105.788C36.0407 106.198 36.638 106.777 37.058 107.524C37.4873 108.261 37.702 109.115 37.702 110.086C37.702 111.047 37.4873 111.901 37.058 112.648C36.638 113.394 36.036 113.973 35.252 114.384C34.4773 114.794 33.5767 115 32.55 115H28.868V105.172H32.55ZM32.396 112.928C33.3013 112.928 34.006 112.68 34.51 112.186C35.014 111.691 35.266 110.991 35.266 110.086C35.266 109.18 35.014 108.476 34.51 107.972C34.006 107.468 33.3013 107.216 32.396 107.216H31.262V112.928H32.396ZM40.2439 106.376C39.8239 106.376 39.4785 106.254 39.2079 106.012C38.9465 105.76 38.8159 105.452 38.8159 105.088C38.8159 104.714 38.9465 104.406 39.2079 104.164C39.4785 103.912 39.8239 103.786 40.2439 103.786C40.6545 103.786 40.9905 103.912 41.2519 104.164C41.5225 104.406 41.6579 104.714 41.6579 105.088C41.6579 105.452 41.5225 105.76 41.2519 106.012C40.9905 106.254 40.6545 106.376 40.2439 106.376ZM41.4339 107.188V115H39.0399V107.188H41.4339ZM46.3468 115.112C45.6654 115.112 45.0588 114.995 44.5268 114.762C43.9948 114.528 43.5748 114.211 43.2668 113.81C42.9588 113.399 42.7861 112.942 42.7488 112.438H45.1148C45.1428 112.708 45.2688 112.928 45.4928 113.096C45.7168 113.264 45.9921 113.348 46.3188 113.348C46.6174 113.348 46.8461 113.292 47.0048 113.18C47.1728 113.058 47.2568 112.904 47.2568 112.718C47.2568 112.494 47.1401 112.33 46.9068 112.228C46.6734 112.116 46.2954 111.994 45.7728 111.864C45.2128 111.733 44.7461 111.598 44.3728 111.458C43.9994 111.308 43.6774 111.08 43.4068 110.772C43.1361 110.454 43.0008 110.03 43.0008 109.498C43.0008 109.05 43.1221 108.644 43.3648 108.28C43.6168 107.906 43.9808 107.612 44.4568 107.398C44.9421 107.183 45.5161 107.076 46.1788 107.076C47.1588 107.076 47.9288 107.318 48.4888 107.804C49.0581 108.289 49.3848 108.933 49.4688 109.736H47.2568C47.2194 109.465 47.0981 109.25 46.8928 109.092C46.6968 108.933 46.4354 108.854 46.1088 108.854C45.8288 108.854 45.6141 108.91 45.4648 109.022C45.3154 109.124 45.2408 109.269 45.2408 109.456C45.2408 109.68 45.3574 109.848 45.5908 109.96C45.8334 110.072 46.2068 110.184 46.7108 110.296C47.2894 110.445 47.7608 110.594 48.1248 110.744C48.4888 110.884 48.8061 111.117 49.0768 111.444C49.3568 111.761 49.5014 112.19 49.5108 112.732C49.5108 113.189 49.3801 113.6 49.1188 113.964C48.8668 114.318 48.4981 114.598 48.0128 114.804C47.5368 115.009 46.9814 115.112 46.3468 115.112ZM50.4994 111.094C50.4994 110.282 50.6628 109.572 50.9894 108.966C51.3254 108.359 51.7874 107.892 52.3754 107.566C52.9728 107.239 53.6541 107.076 54.4194 107.076C55.3994 107.076 56.2161 107.332 56.8694 107.846C57.5321 108.359 57.9661 109.082 58.1714 110.016H55.6234C55.4088 109.418 54.9934 109.12 54.3774 109.12C53.9388 109.12 53.5888 109.292 53.3274 109.638C53.0661 109.974 52.9354 110.459 52.9354 111.094C52.9354 111.728 53.0661 112.218 53.3274 112.564C53.5888 112.9 53.9388 113.068 54.3774 113.068C54.9934 113.068 55.4088 112.769 55.6234 112.172H58.1714C57.9661 113.086 57.5321 113.805 56.8694 114.328C56.2068 114.85 55.3901 115.112 54.4194 115.112C53.6541 115.112 52.9728 114.948 52.3754 114.622C51.7874 114.295 51.3254 113.828 50.9894 113.222C50.6628 112.615 50.4994 111.906 50.4994 111.094ZM63.008 115.112C62.2427 115.112 61.552 114.948 60.936 114.622C60.3293 114.295 59.8487 113.828 59.494 113.222C59.1487 112.615 58.976 111.906 58.976 111.094C58.976 110.291 59.1533 109.586 59.508 108.98C59.8627 108.364 60.348 107.892 60.964 107.566C61.58 107.239 62.2707 107.076 63.036 107.076C63.8013 107.076 64.492 107.239 65.108 107.566C65.724 107.892 66.2093 108.364 66.564 108.98C66.9187 109.586 67.096 110.291 67.096 111.094C67.096 111.896 66.914 112.606 66.55 113.222C66.1953 113.828 65.7053 114.295 65.08 114.622C64.464 114.948 63.7733 115.112 63.008 115.112ZM63.008 113.04C63.4653 113.04 63.8527 112.872 64.17 112.536C64.4967 112.2 64.66 111.719 64.66 111.094C64.66 110.468 64.5013 109.988 64.184 109.652C63.876 109.316 63.4933 109.148 63.036 109.148C62.5693 109.148 62.182 109.316 61.874 109.652C61.566 109.978 61.412 110.459 61.412 111.094C61.412 111.719 61.5613 112.2 61.86 112.536C62.168 112.872 62.5507 113.04 63.008 113.04ZM71.88 112.76L73.574 107.188H76.122L73.35 115H70.396L67.624 107.188H70.186L71.88 112.76ZM84.4937 110.968C84.4937 111.192 84.4797 111.425 84.4517 111.668H79.0337C79.0711 112.153 79.2251 112.526 79.4957 112.788C79.7757 113.04 80.1164 113.166 80.5177 113.166C81.1151 113.166 81.5304 112.914 81.7637 112.41H84.3117C84.1811 112.923 83.9431 113.385 83.5977 113.796C83.2617 114.206 82.8371 114.528 82.3237 114.762C81.8104 114.995 81.2364 115.112 80.6017 115.112C79.8364 115.112 79.1551 114.948 78.5577 114.622C77.9604 114.295 77.4937 113.828 77.1577 113.222C76.8217 112.615 76.6537 111.906 76.6537 111.094C76.6537 110.282 76.8171 109.572 77.1437 108.966C77.4797 108.359 77.9464 107.892 78.5437 107.566C79.1411 107.239 79.8271 107.076 80.6017 107.076C81.3577 107.076 82.0297 107.234 82.6177 107.552C83.2057 107.869 83.6631 108.322 83.9897 108.91C84.3257 109.498 84.4937 110.184 84.4937 110.968ZM82.0437 110.338C82.0437 109.927 81.9037 109.6 81.6237 109.358C81.3437 109.115 80.9937 108.994 80.5737 108.994C80.1724 108.994 79.8317 109.11 79.5517 109.344C79.2811 109.577 79.1131 109.908 79.0477 110.338H82.0437ZM88.1507 108.49C88.4307 108.06 88.7807 107.724 89.2007 107.482C89.6207 107.23 90.0873 107.104 90.6007 107.104V109.638H89.9427C89.3453 109.638 88.8973 109.768 88.5987 110.03C88.3 110.282 88.1507 110.73 88.1507 111.374V115H85.7567V107.188H88.1507V108.49ZM102.692 107.188L97.7918 118.71H95.2158L97.0078 114.734L93.8297 107.188H96.5038L98.3098 112.074L100.102 107.188H102.692ZM107.113 115.112C106.348 115.112 105.657 114.948 105.041 114.622C104.435 114.295 103.954 113.828 103.599 113.222C103.254 112.615 103.081 111.906 103.081 111.094C103.081 110.291 103.259 109.586 103.613 108.98C103.968 108.364 104.453 107.892 105.069 107.566C105.685 107.239 106.376 107.076 107.141 107.076C107.907 107.076 108.597 107.239 109.213 107.566C109.829 107.892 110.315 108.364 110.669 108.98C111.024 109.586 111.201 110.291 111.201 111.094C111.201 111.896 111.019 112.606 110.655 113.222C110.301 113.828 109.811 114.295 109.185 114.622C108.569 114.948 107.879 115.112 107.113 115.112ZM107.113 113.04C107.571 113.04 107.958 112.872 108.275 112.536C108.602 112.2 108.765 111.719 108.765 111.094C108.765 110.468 108.607 109.988 108.289 109.652C107.981 109.316 107.599 109.148 107.141 109.148C106.675 109.148 106.287 109.316 105.979 109.652C105.671 109.978 105.517 110.459 105.517 111.094C105.517 111.719 105.667 112.2 105.965 112.536C106.273 112.872 106.656 113.04 107.113 113.04ZM120.186 107.188V115H117.792V113.936C117.549 114.281 117.218 114.561 116.798 114.776C116.387 114.981 115.93 115.084 115.426 115.084C114.828 115.084 114.301 114.953 113.844 114.692C113.386 114.421 113.032 114.034 112.78 113.53C112.528 113.026 112.402 112.433 112.402 111.752V107.188H114.782V111.43C114.782 111.952 114.917 112.358 115.188 112.648C115.458 112.937 115.822 113.082 116.28 113.082C116.746 113.082 117.115 112.937 117.386 112.648C117.656 112.358 117.792 111.952 117.792 111.43V107.188H120.186ZM124.299 108.49C124.579 108.06 124.929 107.724 125.349 107.482C125.769 107.23 126.236 107.104 126.749 107.104V109.638H126.091C125.494 109.638 125.046 109.768 124.747 110.03C124.448 110.282 124.299 110.73 124.299 111.374V115H121.905V107.188H124.299V108.49ZM133.254 108.294C133.488 107.93 133.81 107.636 134.22 107.412C134.631 107.188 135.112 107.076 135.662 107.076C136.306 107.076 136.89 107.239 137.412 107.566C137.935 107.892 138.346 108.359 138.644 108.966C138.952 109.572 139.106 110.277 139.106 111.08C139.106 111.882 138.952 112.592 138.644 113.208C138.346 113.814 137.935 114.286 137.412 114.622C136.89 114.948 136.306 115.112 135.662 115.112C135.121 115.112 134.64 115 134.22 114.776C133.81 114.552 133.488 114.262 133.254 113.908V118.724H130.86V107.188H133.254V108.294ZM136.67 111.08C136.67 110.482 136.502 110.016 136.166 109.68C135.84 109.334 135.434 109.162 134.948 109.162C134.472 109.162 134.066 109.334 133.73 109.68C133.404 110.025 133.24 110.496 133.24 111.094C133.24 111.691 133.404 112.162 133.73 112.508C134.066 112.853 134.472 113.026 134.948 113.026C135.424 113.026 135.83 112.853 136.166 112.508C136.502 112.153 136.67 111.677 136.67 111.08ZM139.886 111.08C139.886 110.277 140.035 109.572 140.334 108.966C140.642 108.359 141.057 107.892 141.58 107.566C142.103 107.239 142.686 107.076 143.33 107.076C143.881 107.076 144.361 107.188 144.772 107.412C145.192 107.636 145.514 107.93 145.738 108.294V107.188H148.132V115H145.738V113.894C145.505 114.258 145.178 114.552 144.758 114.776C144.347 115 143.867 115.112 143.316 115.112C142.681 115.112 142.103 114.948 141.58 114.622C141.057 114.286 140.642 113.814 140.334 113.208C140.035 112.592 139.886 111.882 139.886 111.08ZM145.738 111.094C145.738 110.496 145.57 110.025 145.234 109.68C144.907 109.334 144.506 109.162 144.03 109.162C143.554 109.162 143.148 109.334 142.812 109.68C142.485 110.016 142.322 110.482 142.322 111.08C142.322 111.677 142.485 112.153 142.812 112.508C143.148 112.853 143.554 113.026 144.03 113.026C144.506 113.026 144.907 112.853 145.234 112.508C145.57 112.162 145.738 111.691 145.738 111.094ZM154.218 112.97V115H153C152.132 115 151.455 114.79 150.97 114.37C150.485 113.94 150.242 113.245 150.242 112.284V109.176H149.29V107.188H150.242V105.284H152.636V107.188H154.204V109.176H152.636V112.312C152.636 112.545 152.692 112.713 152.804 112.816C152.916 112.918 153.103 112.97 153.364 112.97H154.218ZM160.354 107.104C161.25 107.104 161.968 107.402 162.51 108C163.051 108.588 163.322 109.4 163.322 110.436V115H160.942V110.758C160.942 110.235 160.806 109.829 160.536 109.54C160.265 109.25 159.901 109.106 159.444 109.106C158.986 109.106 158.622 109.25 158.352 109.54C158.081 109.829 157.946 110.235 157.946 110.758V115H155.552V104.64H157.946V108.238C158.188 107.892 158.52 107.617 158.94 107.412C159.36 107.206 159.831 107.104 160.354 107.104Z" fill="#6C7606"/>
<path d="M331.752 23.1715V32.9995H329.358V23.1715H331.752ZM338.247 25.1035C339.162 25.1035 339.89 25.4022 340.431 25.9995C340.982 26.5875 341.257 27.3995 341.257 28.4355V32.9995H338.877V28.7575C338.877 28.2348 338.742 27.8288 338.471 27.5395C338.2 27.2502 337.836 27.1055 337.379 27.1055C336.922 27.1055 336.558 27.2502 336.287 27.5395C336.016 27.8288 335.881 28.2348 335.881 28.7575V32.9995H333.487V25.1875H335.881V26.2235C336.124 25.8782 336.45 25.6075 336.861 25.4115C337.272 25.2062 337.734 25.1035 338.247 25.1035ZM344.125 24.3755C343.705 24.3755 343.359 24.2542 343.089 24.0115C342.827 23.7595 342.697 23.4515 342.697 23.0875C342.697 22.7142 342.827 22.4062 343.089 22.1635C343.359 21.9115 343.705 21.7855 344.125 21.7855C344.535 21.7855 344.871 21.9115 345.133 22.1635C345.403 22.4062 345.539 22.7142 345.539 23.0875C345.539 23.4515 345.403 23.7595 345.133 24.0115C344.871 24.2542 344.535 24.3755 344.125 24.3755ZM345.315 25.1875V32.9995H342.921V25.1875H345.315ZM351.404 30.9695V32.9995H350.186C349.318 32.9995 348.641 32.7895 348.156 32.3695C347.67 31.9402 347.428 31.2448 347.428 30.2835V27.1755H346.476V25.1875H347.428V23.2835H349.822V25.1875H351.39V27.1755H349.822V30.3115C349.822 30.5448 349.878 30.7128 349.99 30.8155C350.102 30.9182 350.288 30.9695 350.55 30.9695H351.404ZM353.941 24.3755C353.521 24.3755 353.176 24.2542 352.905 24.0115C352.644 23.7595 352.513 23.4515 352.513 23.0875C352.513 22.7142 352.644 22.4062 352.905 22.1635C353.176 21.9115 353.521 21.7855 353.941 21.7855C354.352 21.7855 354.688 21.9115 354.949 22.1635C355.22 22.4062 355.355 22.7142 355.355 23.0875C355.355 23.4515 355.22 23.7595 354.949 24.0115C354.688 24.2542 354.352 24.3755 353.941 24.3755ZM355.131 25.1875V32.9995H352.737V25.1875H355.131ZM356.39 29.0795C356.39 28.2768 356.539 27.5722 356.838 26.9655C357.146 26.3588 357.561 25.8922 358.084 25.5655C358.607 25.2388 359.19 25.0755 359.834 25.0755C360.385 25.0755 360.865 25.1875 361.276 25.4115C361.696 25.6355 362.018 25.9295 362.242 26.2935V25.1875H364.636V32.9995H362.242V31.8935C362.009 32.2575 361.682 32.5515 361.262 32.7755C360.851 32.9995 360.371 33.1115 359.82 33.1115C359.185 33.1115 358.607 32.9482 358.084 32.6215C357.561 32.2855 357.146 31.8142 356.838 31.2075C356.539 30.5915 356.39 29.8822 356.39 29.0795ZM362.242 29.0935C362.242 28.4962 362.074 28.0248 361.738 27.6795C361.411 27.3342 361.01 27.1615 360.534 27.1615C360.058 27.1615 359.652 27.3342 359.316 27.6795C358.989 28.0155 358.826 28.4822 358.826 29.0795C358.826 29.6768 358.989 30.1528 359.316 30.5075C359.652 30.8528 360.058 31.0255 360.534 31.0255C361.01 31.0255 361.411 30.8528 361.738 30.5075C362.074 30.1622 362.242 29.6908 362.242 29.0935ZM370.722 30.9695V32.9995H369.504C368.636 32.9995 367.959 32.7895 367.474 32.3695C366.989 31.9402 366.746 31.2448 366.746 30.2835V27.1755H365.794V25.1875H366.746V23.2835H369.14V25.1875H370.708V27.1755H369.14V30.3115C369.14 30.5448 369.196 30.7128 369.308 30.8155C369.42 30.9182 369.607 30.9695 369.868 30.9695H370.722ZM379.419 28.9675C379.419 29.1915 379.406 29.4248 379.378 29.6675H373.96C373.997 30.1528 374.151 30.5262 374.422 30.7875C374.702 31.0395 375.042 31.1655 375.444 31.1655C376.041 31.1655 376.456 30.9135 376.69 30.4095H379.238C379.107 30.9228 378.869 31.3848 378.524 31.7955C378.188 32.2062 377.763 32.5282 377.25 32.7615C376.736 32.9948 376.162 33.1115 375.528 33.1115C374.762 33.1115 374.081 32.9482 373.484 32.6215C372.886 32.2948 372.42 31.8282 372.084 31.2215C371.748 30.6148 371.58 29.9055 371.58 29.0935C371.58 28.2815 371.743 27.5722 372.07 26.9655C372.406 26.3588 372.872 25.8922 373.47 25.5655C374.067 25.2388 374.753 25.0755 375.528 25.0755C376.284 25.0755 376.956 25.2342 377.544 25.5515C378.132 25.8688 378.589 26.3215 378.916 26.9095C379.252 27.4975 379.419 28.1835 379.419 28.9675ZM376.97 28.3375C376.97 27.9268 376.83 27.6002 376.55 27.3575C376.27 27.1148 375.92 26.9935 375.5 26.9935C375.098 26.9935 374.758 27.1102 374.478 27.3435C374.207 27.5768 374.039 27.9082 373.974 28.3375H376.97ZM392.077 23.1715L388.675 29.7515V32.9995H386.281V29.7515L382.879 23.1715H385.595L387.499 27.2875L389.389 23.1715H392.077ZM396.598 33.1115C395.832 33.1115 395.142 32.9482 394.526 32.6215C393.919 32.2948 393.438 31.8282 393.084 31.2215C392.738 30.6148 392.566 29.9055 392.566 29.0935C392.566 28.2908 392.743 27.5862 393.098 26.9795C393.452 26.3635 393.938 25.8922 394.554 25.5655C395.17 25.2388 395.86 25.0755 396.626 25.0755C397.391 25.0755 398.082 25.2388 398.698 25.5655C399.314 25.8922 399.799 26.3635 400.154 26.9795C400.508 27.5862 400.686 28.2908 400.686 29.0935C400.686 29.8962 400.504 30.6055 400.14 31.2215C399.785 31.8282 399.295 32.2948 398.67 32.6215C398.054 32.9482 397.363 33.1115 396.598 33.1115ZM396.598 31.0395C397.055 31.0395 397.442 30.8715 397.76 30.5355C398.086 30.1995 398.25 29.7188 398.25 29.0935C398.25 28.4682 398.091 27.9875 397.774 27.6515C397.466 27.3155 397.083 27.1475 396.626 27.1475C396.159 27.1475 395.772 27.3155 395.464 27.6515C395.156 27.9782 395.002 28.4588 395.002 29.0935C395.002 29.7188 395.151 30.1995 395.45 30.5355C395.758 30.8715 396.14 31.0395 396.598 31.0395ZM409.67 25.1875V32.9995H407.276V31.9355C407.033 32.2808 406.702 32.5608 406.282 32.7755C405.871 32.9808 405.414 33.0835 404.91 33.0835C404.313 33.0835 403.785 32.9528 403.328 32.6915C402.871 32.4208 402.516 32.0335 402.264 31.5295C402.012 31.0255 401.886 30.4328 401.886 29.7515V25.1875H404.266V29.4295C404.266 29.9522 404.401 30.3582 404.672 30.6475C404.943 30.9368 405.307 31.0815 405.764 31.0815C406.231 31.0815 406.599 30.9368 406.87 30.6475C407.141 30.3582 407.276 29.9522 407.276 29.4295V25.1875H409.67ZM413.783 26.4895C414.063 26.0602 414.413 25.7242 414.833 25.4815C415.253 25.2295 415.72 25.1035 416.233 25.1035V27.6375H415.575C414.978 27.6375 414.53 27.7682 414.231 28.0295C413.933 28.2815 413.783 28.7295 413.783 29.3735V32.9995H411.389V25.1875H413.783V26.4895ZM312.967 51.1515H316.103V52.9995H310.573V43.1715H312.967V51.1515ZM324.609 48.9675C324.609 49.1915 324.595 49.4248 324.567 49.6675H319.149C319.186 50.1528 319.34 50.5262 319.611 50.7875C319.891 51.0395 320.232 51.1655 320.633 51.1655C321.23 51.1655 321.646 50.9135 321.879 50.4095H324.427C324.296 50.9228 324.058 51.3848 323.713 51.7955C323.377 52.2062 322.952 52.5282 322.439 52.7615C321.926 52.9948 321.352 53.1115 320.717 53.1115C319.952 53.1115 319.27 52.9482 318.673 52.6215C318.076 52.2948 317.609 51.8282 317.273 51.2215C316.937 50.6148 316.769 49.9055 316.769 49.0935C316.769 48.2815 316.932 47.5722 317.259 46.9655C317.595 46.3588 318.062 45.8922 318.659 45.5655C319.256 45.2388 319.942 45.0755 320.717 45.0755C321.473 45.0755 322.145 45.2342 322.733 45.5515C323.321 45.8688 323.778 46.3215 324.105 46.9095C324.441 47.4975 324.609 48.1835 324.609 48.9675ZM322.159 48.3375C322.159 47.9268 322.019 47.6002 321.739 47.3575C321.459 47.1148 321.109 46.9935 320.689 46.9935C320.288 46.9935 319.947 47.1102 319.667 47.3435C319.396 47.5768 319.228 47.9082 319.163 48.3375H322.159ZM325.396 49.0795C325.396 48.2768 325.545 47.5722 325.844 46.9655C326.152 46.3588 326.567 45.8922 327.09 45.5655C327.613 45.2388 328.196 45.0755 328.84 45.0755C329.391 45.0755 329.871 45.1875 330.282 45.4115C330.702 45.6355 331.024 45.9295 331.248 46.2935V45.1875H333.642V52.9995H331.248V51.8935C331.015 52.2575 330.688 52.5515 330.268 52.7755C329.857 52.9995 329.377 53.1115 328.826 53.1115C328.191 53.1115 327.613 52.9482 327.09 52.6215C326.567 52.2855 326.152 51.8142 325.844 51.2075C325.545 50.5915 325.396 49.8822 325.396 49.0795ZM331.248 49.0935C331.248 48.4962 331.08 48.0248 330.744 47.6795C330.417 47.3342 330.016 47.1615 329.54 47.1615C329.064 47.1615 328.658 47.3342 328.322 47.6795C327.995 48.0155 327.832 48.4822 327.832 49.0795C327.832 49.6768 327.995 50.1528 328.322 50.5075C328.658 50.8528 329.064 51.0255 329.54 51.0255C330.016 51.0255 330.417 50.8528 330.744 50.5075C331.08 50.1622 331.248 49.6908 331.248 49.0935ZM337.768 46.4895C338.048 46.0602 338.398 45.7242 338.818 45.4815C339.238 45.2295 339.705 45.1035 340.218 45.1035V47.6375H339.56C338.963 47.6375 338.515 47.7682 338.216 48.0295C337.917 48.2815 337.768 48.7295 337.768 49.3735V52.9995H335.374V45.1875H337.768V46.4895ZM346.122 45.1035C347.037 45.1035 347.765 45.4022 348.306 45.9995C348.857 46.5875 349.132 47.3995 349.132 48.4355V52.9995H346.752V48.7575C346.752 48.2348 346.617 47.8288 346.346 47.5395C346.075 47.2502 345.711 47.1055 345.254 47.1055C344.797 47.1055 344.433 47.2502 344.162 47.5395C343.891 47.8288 343.756 48.2348 343.756 48.7575V52.9995H341.362V45.1875H343.756V46.2235C343.999 45.8782 344.325 45.6075 344.736 45.4115C345.147 45.2062 345.609 45.1035 346.122 45.1035ZM352 44.3755C351.58 44.3755 351.234 44.2542 350.964 44.0115C350.702 43.7595 350.572 43.4515 350.572 43.0875C350.572 42.7142 350.702 42.4062 350.964 42.1635C351.234 41.9115 351.58 41.7855 352 41.7855C352.41 41.7855 352.746 41.9115 353.008 42.1635C353.278 42.4062 353.414 42.7142 353.414 43.0875C353.414 43.4515 353.278 43.7595 353.008 44.0115C352.746 44.2542 352.41 44.3755 352 44.3755ZM353.19 45.1875V52.9995H350.796V45.1875H353.19ZM359.685 45.1035C360.599 45.1035 361.327 45.4022 361.869 45.9995C362.419 46.5875 362.695 47.3995 362.695 48.4355V52.9995H360.315V48.7575C360.315 48.2348 360.179 47.8288 359.909 47.5395C359.638 47.2502 359.274 47.1055 358.817 47.1055C358.359 47.1055 357.995 47.2502 357.725 47.5395C357.454 47.8288 357.319 48.2348 357.319 48.7575V52.9995H354.925V45.1875H357.319V46.2235C357.561 45.8782 357.888 45.6075 358.299 45.4115C358.709 45.2062 359.171 45.1035 359.685 45.1035ZM367.326 45.0755C367.877 45.0755 368.358 45.1875 368.768 45.4115C369.188 45.6355 369.51 45.9295 369.734 46.2935V45.1875H372.128V52.9855C372.128 53.7042 371.984 54.3528 371.694 54.9315C371.414 55.5195 370.98 55.9862 370.392 56.3315C369.814 56.6768 369.09 56.8495 368.222 56.8495C367.065 56.8495 366.127 56.5742 365.408 56.0235C364.69 55.4822 364.279 54.7448 364.176 53.8115H366.542C366.617 54.1102 366.794 54.3435 367.074 54.5115C367.354 54.6888 367.7 54.7775 368.11 54.7775C368.605 54.7775 368.997 54.6328 369.286 54.3435C369.585 54.0635 369.734 53.6108 369.734 52.9855V51.8795C369.501 52.2435 369.179 52.5422 368.768 52.7755C368.358 52.9995 367.877 53.1115 367.326 53.1115C366.682 53.1115 366.099 52.9482 365.576 52.6215C365.054 52.2855 364.638 51.8142 364.33 51.2075C364.032 50.5915 363.882 49.8822 363.882 49.0795C363.882 48.2768 364.032 47.5722 364.33 46.9655C364.638 46.3588 365.054 45.8922 365.576 45.5655C366.099 45.2388 366.682 45.0755 367.326 45.0755ZM369.734 49.0935C369.734 48.4962 369.566 48.0248 369.23 47.6795C368.904 47.3342 368.502 47.1615 368.026 47.1615C367.55 47.1615 367.144 47.3342 366.808 47.6795C366.482 48.0155 366.318 48.4822 366.318 49.0795C366.318 49.6768 366.482 50.1528 366.808 50.5075C367.144 50.8528 367.55 51.0255 368.026 51.0255C368.502 51.0255 368.904 50.8528 369.23 50.5075C369.566 50.1622 369.734 49.6908 369.734 49.0935ZM382.987 43.1715V49.8635C382.987 50.8995 382.693 51.6975 382.105 52.2575C381.526 52.8175 380.742 53.0975 379.753 53.0975C378.717 53.0975 377.886 52.8035 377.261 52.2155C376.636 51.6275 376.323 50.7922 376.323 49.7095H378.703C378.703 50.1202 378.787 50.4328 378.955 50.6475C379.123 50.8528 379.366 50.9555 379.683 50.9555C379.972 50.9555 380.196 50.8622 380.355 50.6755C380.514 50.4888 380.593 50.2182 380.593 49.8635V43.1715H382.987ZM388.477 53.1115C387.711 53.1115 387.021 52.9482 386.405 52.6215C385.798 52.2948 385.317 51.8282 384.963 51.2215C384.617 50.6148 384.445 49.9055 384.445 49.0935C384.445 48.2908 384.622 47.5862 384.977 46.9795C385.331 46.3635 385.817 45.8922 386.433 45.5655C387.049 45.2388 387.739 45.0755 388.505 45.0755C389.27 45.0755 389.961 45.2388 390.577 45.5655C391.193 45.8922 391.678 46.3635 392.033 46.9795C392.387 47.5862 392.565 48.2908 392.565 49.0935C392.565 49.8962 392.383 50.6055 392.019 51.2215C391.664 51.8282 391.174 52.2948 390.549 52.6215C389.933 52.9482 389.242 53.1115 388.477 53.1115ZM388.477 51.0395C388.934 51.0395 389.321 50.8715 389.639 50.5355C389.965 50.1995 390.129 49.7188 390.129 49.0935C390.129 48.4682 389.97 47.9875 389.653 47.6515C389.345 47.3155 388.962 47.1475 388.505 47.1475C388.038 47.1475 387.651 47.3155 387.343 47.6515C387.035 47.9782 386.881 48.4588 386.881 49.0935C386.881 49.7188 387.03 50.1995 387.329 50.5355C387.637 50.8715 388.019 51.0395 388.477 51.0395ZM401.549 45.1875V52.9995H399.155V51.9355C398.912 52.2808 398.581 52.5608 398.161 52.7755C397.75 52.9808 397.293 53.0835 396.789 53.0835C396.191 53.0835 395.664 52.9528 395.207 52.6915C394.749 52.4208 394.395 52.0335 394.143 51.5295C393.891 51.0255 393.765 50.4328 393.765 49.7515V45.1875H396.145V49.4295C396.145 49.9522 396.28 50.3582 396.551 50.6475C396.821 50.9368 397.185 51.0815 397.643 51.0815C398.109 51.0815 398.478 50.9368 398.749 50.6475C399.019 50.3582 399.155 49.9522 399.155 49.4295V45.1875H401.549ZM405.662 46.4895C405.942 46.0602 406.292 45.7242 406.712 45.4815C407.132 45.2295 407.599 45.1035 408.112 45.1035V47.6375H407.454C406.857 47.6375 406.409 47.7682 406.11 48.0295C405.812 48.2815 405.662 48.7295 405.662 49.3735V52.9995H403.268V45.1875H405.662V46.4895ZM414.017 45.1035C414.931 45.1035 415.659 45.4022 416.201 45.9995C416.751 46.5875 417.027 47.3995 417.027 48.4355V52.9995H414.647V48.7575C414.647 48.2348 414.511 47.8288 414.241 47.5395C413.97 47.2502 413.606 47.1055 413.149 47.1055C412.691 47.1055 412.327 47.2502 412.057 47.5395C411.786 47.8288 411.651 48.2348 411.651 48.7575V52.9995H409.257V45.1875H411.651V46.2235C411.893 45.8782 412.22 45.6075 412.631 45.4115C413.041 45.2062 413.503 45.1035 414.017 45.1035ZM426.054 48.9675C426.054 49.1915 426.04 49.4248 426.012 49.6675H420.594C420.632 50.1528 420.786 50.5262 421.056 50.7875C421.336 51.0395 421.677 51.1655 422.078 51.1655C422.676 51.1655 423.091 50.9135 423.324 50.4095H425.872C425.742 50.9228 425.504 51.3848 425.158 51.7955C424.822 52.2062 424.398 52.5282 423.884 52.7615C423.371 52.9948 422.797 53.1115 422.162 53.1115C421.397 53.1115 420.716 52.9482 420.118 52.6215C419.521 52.2948 419.054 51.8282 418.718 51.2215C418.382 50.6148 418.214 49.9055 418.214 49.0935C418.214 48.2815 418.378 47.5722 418.704 46.9655C419.04 46.3588 419.507 45.8922 420.104 45.5655C420.702 45.2388 421.388 45.0755 422.162 45.0755C422.918 45.0755 423.59 45.2342 424.178 45.5515C424.766 45.8688 425.224 46.3215 425.55 46.9095C425.886 47.4975 426.054 48.1835 426.054 48.9675ZM423.604 48.3375C423.604 47.9268 423.464 47.6002 423.184 47.3575C422.904 47.1148 422.554 46.9935 422.134 46.9935C421.733 46.9935 421.392 47.1102 421.112 47.3435C420.842 47.5768 420.674 47.9082 420.608 48.3375H423.604ZM435.297 45.1875L430.397 56.7095H427.821L429.613 52.7335L426.435 45.1875H429.109L430.915 50.0735L432.707 45.1875H435.297Z" fill="#6C7606"/>
<path d="M397.462 120.072C397.462 119.101 397.672 118.238 398.092 117.482C398.512 116.716 399.095 116.124 399.842 115.704C400.598 115.274 401.452 115.06 402.404 115.06C403.571 115.06 404.569 115.368 405.4 115.984C406.231 116.6 406.786 117.44 407.066 118.504H404.434C404.238 118.093 403.958 117.78 403.594 117.566C403.239 117.351 402.833 117.244 402.376 117.244C401.639 117.244 401.041 117.5 400.584 118.014C400.127 118.527 399.898 119.213 399.898 120.072C399.898 120.93 400.127 121.616 400.584 122.13C401.041 122.643 401.639 122.9 402.376 122.9C402.833 122.9 403.239 122.792 403.594 122.578C403.958 122.363 404.238 122.05 404.434 121.64H407.066C406.786 122.704 406.231 123.544 405.4 124.16C404.569 124.766 403.571 125.07 402.404 125.07C401.452 125.07 400.598 124.86 399.842 124.44C399.095 124.01 398.512 123.418 398.092 122.662C397.672 121.906 397.462 121.042 397.462 120.072ZM412.088 125.112C411.323 125.112 410.632 124.948 410.016 124.622C409.409 124.295 408.929 123.828 408.574 123.222C408.229 122.615 408.056 121.906 408.056 121.094C408.056 120.291 408.233 119.586 408.588 118.98C408.943 118.364 409.428 117.892 410.044 117.566C410.66 117.239 411.351 117.076 412.116 117.076C412.881 117.076 413.572 117.239 414.188 117.566C414.804 117.892 415.289 118.364 415.644 118.98C415.999 119.586 416.176 120.291 416.176 121.094C416.176 121.896 415.994 122.606 415.63 123.222C415.275 123.828 414.785 124.295 414.16 124.622C413.544 124.948 412.853 125.112 412.088 125.112ZM412.088 123.04C412.545 123.04 412.933 122.872 413.25 122.536C413.577 122.2 413.74 121.719 413.74 121.094C413.74 120.468 413.581 119.988 413.264 119.652C412.956 119.316 412.573 119.148 412.116 119.148C411.649 119.148 411.262 119.316 410.954 119.652C410.646 119.978 410.492 120.459 410.492 121.094C410.492 121.719 410.641 122.2 410.94 122.536C411.248 122.872 411.631 123.04 412.088 123.04ZM422.206 117.104C423.121 117.104 423.849 117.402 424.39 118C424.941 118.588 425.216 119.4 425.216 120.436V125H422.836V120.758C422.836 120.235 422.701 119.829 422.43 119.54C422.159 119.25 421.795 119.106 421.338 119.106C420.881 119.106 420.517 119.25 420.246 119.54C419.975 119.829 419.84 120.235 419.84 120.758V125H417.446V117.188H419.84V118.224C420.083 117.878 420.409 117.608 420.82 117.412C421.231 117.206 421.693 117.104 422.206 117.104ZM426.404 121.108C426.404 120.333 426.562 119.642 426.88 119.036C427.206 118.429 427.64 117.958 428.182 117.622C428.732 117.276 429.33 117.104 429.974 117.104C430.468 117.104 430.912 117.192 431.304 117.37C431.696 117.538 432.013 117.776 432.256 118.084V117.188H434.65V128.724H432.256V124.02C431.985 124.346 431.654 124.608 431.262 124.804C430.879 125 430.44 125.098 429.946 125.098C429.311 125.098 428.723 124.93 428.182 124.594C427.64 124.258 427.206 123.786 426.88 123.18C426.562 122.573 426.404 121.882 426.404 121.108ZM432.256 121.094C432.256 120.674 432.172 120.324 432.004 120.044C431.845 119.754 431.635 119.54 431.374 119.4C431.112 119.25 430.837 119.176 430.548 119.176C430.268 119.176 429.997 119.25 429.736 119.4C429.474 119.54 429.26 119.754 429.092 120.044C428.924 120.333 428.84 120.688 428.84 121.108C428.84 121.528 428.924 121.882 429.092 122.172C429.26 122.452 429.474 122.666 429.736 122.816C429.997 122.956 430.268 123.026 430.548 123.026C430.828 123.026 431.098 122.956 431.36 122.816C431.63 122.666 431.845 122.447 432.004 122.158C432.172 121.868 432.256 121.514 432.256 121.094ZM444.096 117.188V125H441.702V123.936C441.459 124.281 441.128 124.561 440.708 124.776C440.297 124.981 439.84 125.084 439.336 125.084C438.738 125.084 438.211 124.953 437.754 124.692C437.296 124.421 436.942 124.034 436.69 123.53C436.438 123.026 436.312 122.433 436.312 121.752V117.188H438.692V121.43C438.692 121.952 438.827 122.358 439.098 122.648C439.368 122.937 439.732 123.082 440.19 123.082C440.656 123.082 441.025 122.937 441.296 122.648C441.566 122.358 441.702 121.952 441.702 121.43V117.188H444.096ZM453.179 120.968C453.179 121.192 453.165 121.425 453.137 121.668H447.719C447.757 122.153 447.911 122.526 448.181 122.788C448.461 123.04 448.802 123.166 449.203 123.166C449.801 123.166 450.216 122.914 450.449 122.41H452.997C452.867 122.923 452.629 123.385 452.283 123.796C451.947 124.206 451.523 124.528 451.009 124.762C450.496 124.995 449.922 125.112 449.287 125.112C448.522 125.112 447.841 124.948 447.243 124.622C446.646 124.295 446.179 123.828 445.843 123.222C445.507 122.615 445.339 121.906 445.339 121.094C445.339 120.282 445.503 119.572 445.829 118.966C446.165 118.359 446.632 117.892 447.229 117.566C447.827 117.239 448.513 117.076 449.287 117.076C450.043 117.076 450.715 117.234 451.303 117.552C451.891 117.869 452.349 118.322 452.675 118.91C453.011 119.498 453.179 120.184 453.179 120.968ZM450.729 120.338C450.729 119.927 450.589 119.6 450.309 119.358C450.029 119.115 449.679 118.994 449.259 118.994C448.858 118.994 448.517 119.11 448.237 119.344C447.967 119.577 447.799 119.908 447.733 120.338H450.729ZM456.836 118.49C457.116 118.06 457.466 117.724 457.886 117.482C458.306 117.23 458.773 117.104 459.286 117.104V119.638H458.628C458.031 119.638 457.583 119.768 457.284 120.03C456.986 120.282 456.836 120.73 456.836 121.374V125H454.442V117.188H456.836V118.49ZM471.377 117.188L466.477 128.71H463.901L465.693 124.734L462.515 117.188H465.189L466.995 122.074L468.787 117.188H471.377ZM475.799 125.112C475.034 125.112 474.343 124.948 473.727 124.622C473.12 124.295 472.64 123.828 472.285 123.222C471.94 122.615 471.767 121.906 471.767 121.094C471.767 120.291 471.944 119.586 472.299 118.98C472.654 118.364 473.139 117.892 473.755 117.566C474.371 117.239 475.062 117.076 475.827 117.076C476.592 117.076 477.283 117.239 477.899 117.566C478.515 117.892 479 118.364 479.355 118.98C479.71 119.586 479.887 120.291 479.887 121.094C479.887 121.896 479.705 122.606 479.341 123.222C478.986 123.828 478.496 124.295 477.871 124.622C477.255 124.948 476.564 125.112 475.799 125.112ZM475.799 123.04C476.256 123.04 476.644 122.872 476.961 122.536C477.288 122.2 477.451 121.719 477.451 121.094C477.451 120.468 477.292 119.988 476.975 119.652C476.667 119.316 476.284 119.148 475.827 119.148C475.36 119.148 474.973 119.316 474.665 119.652C474.357 119.978 474.203 120.459 474.203 121.094C474.203 121.719 474.352 122.2 474.651 122.536C474.959 122.872 475.342 123.04 475.799 123.04ZM488.871 117.188V125H486.477V123.936C486.234 124.281 485.903 124.561 485.483 124.776C485.072 124.981 484.615 125.084 484.111 125.084C483.514 125.084 482.986 124.953 482.529 124.692C482.072 124.421 481.717 124.034 481.465 123.53C481.213 123.026 481.087 122.433 481.087 121.752V117.188H483.467V121.43C483.467 121.952 483.602 122.358 483.873 122.648C484.144 122.937 484.508 123.082 484.965 123.082C485.432 123.082 485.8 122.937 486.071 122.648C486.342 122.358 486.477 121.952 486.477 121.43V117.188H488.871ZM492.985 118.49C493.265 118.06 493.615 117.724 494.035 117.482C494.455 117.23 494.921 117.104 495.435 117.104V119.638H494.777C494.179 119.638 493.731 119.768 493.433 120.03C493.134 120.282 492.985 120.73 492.985 121.374V125H490.591V117.188H492.985V118.49ZM499.07 121.094C499.07 120.282 499.233 119.572 499.56 118.966C499.896 118.359 500.358 117.892 500.946 117.566C501.543 117.239 502.224 117.076 502.99 117.076C503.97 117.076 504.786 117.332 505.44 117.846C506.102 118.359 506.536 119.082 506.742 120.016H504.194C503.979 119.418 503.564 119.12 502.948 119.12C502.509 119.12 502.159 119.292 501.898 119.638C501.636 119.974 501.506 120.459 501.506 121.094C501.506 121.728 501.636 122.218 501.898 122.564C502.159 122.9 502.509 123.068 502.948 123.068C503.564 123.068 503.979 122.769 504.194 122.172H506.742C506.536 123.086 506.102 123.805 505.44 124.328C504.777 124.85 503.96 125.112 502.99 125.112C502.224 125.112 501.543 124.948 500.946 124.622C500.358 124.295 499.896 123.828 499.56 123.222C499.233 122.615 499.07 121.906 499.07 121.094ZM511.578 125.112C510.813 125.112 510.122 124.948 509.506 124.622C508.9 124.295 508.419 123.828 508.064 123.222C507.719 122.615 507.546 121.906 507.546 121.094C507.546 120.291 507.724 119.586 508.078 118.98C508.433 118.364 508.918 117.892 509.534 117.566C510.15 117.239 510.841 117.076 511.606 117.076C512.372 117.076 513.062 117.239 513.678 117.566C514.294 117.892 514.78 118.364 515.134 118.98C515.489 119.586 515.666 120.291 515.666 121.094C515.666 121.896 515.484 122.606 515.12 123.222C514.766 123.828 514.276 124.295 513.65 124.622C513.034 124.948 512.344 125.112 511.578 125.112ZM511.578 123.04C512.036 123.04 512.423 122.872 512.74 122.536C513.067 122.2 513.23 121.719 513.23 121.094C513.23 120.468 513.072 119.988 512.754 119.652C512.446 119.316 512.064 119.148 511.606 119.148C511.14 119.148 510.752 119.316 510.444 119.652C510.136 119.978 509.982 120.459 509.982 121.094C509.982 121.719 510.132 122.2 510.43 122.536C510.738 122.872 511.121 123.04 511.578 123.04ZM521.696 117.104C522.611 117.104 523.339 117.402 523.88 118C524.431 118.588 524.706 119.4 524.706 120.436V125H522.326V120.758C522.326 120.235 522.191 119.829 521.92 119.54C521.65 119.25 521.286 119.106 520.828 119.106C520.371 119.106 520.007 119.25 519.736 119.54C519.466 119.829 519.33 120.235 519.33 120.758V125H516.936V117.188H519.33V118.224C519.573 117.878 519.9 117.608 520.31 117.412C520.721 117.206 521.183 117.104 521.696 117.104ZM525.894 121.094C525.894 120.282 526.057 119.572 526.384 118.966C526.72 118.359 527.182 117.892 527.77 117.566C528.367 117.239 529.049 117.076 529.814 117.076C530.794 117.076 531.611 117.332 532.264 117.846C532.927 118.359 533.361 119.082 533.566 120.016H531.018C530.803 119.418 530.388 119.12 529.772 119.12C529.333 119.12 528.983 119.292 528.722 119.638C528.461 119.974 528.33 120.459 528.33 121.094C528.33 121.728 528.461 122.218 528.722 122.564C528.983 122.9 529.333 123.068 529.772 123.068C530.388 123.068 530.803 122.769 531.018 122.172H533.566C533.361 123.086 532.927 123.805 532.264 124.328C531.601 124.85 530.785 125.112 529.814 125.112C529.049 125.112 528.367 124.948 527.77 124.622C527.182 124.295 526.72 123.828 526.384 123.222C526.057 122.615 525.894 121.906 525.894 121.094ZM542.211 120.968C542.211 121.192 542.197 121.425 542.169 121.668H536.751C536.788 122.153 536.942 122.526 537.213 122.788C537.493 123.04 537.833 123.166 538.235 123.166C538.832 123.166 539.247 122.914 539.481 122.41H542.029C541.898 122.923 541.66 123.385 541.315 123.796C540.979 124.206 540.554 124.528 540.041 124.762C539.527 124.995 538.953 125.112 538.319 125.112C537.553 125.112 536.872 124.948 536.275 124.622C535.677 124.295 535.211 123.828 534.875 123.222C534.539 122.615 534.371 121.906 534.371 121.094C534.371 120.282 534.534 119.572 534.861 118.966C535.197 118.359 535.663 117.892 536.261 117.566C536.858 117.239 537.544 117.076 538.319 117.076C539.075 117.076 539.747 117.234 540.335 117.552C540.923 117.869 541.38 118.322 541.707 118.91C542.043 119.498 542.211 120.184 542.211 120.968ZM539.761 120.338C539.761 119.927 539.621 119.6 539.341 119.358C539.061 119.115 538.711 118.994 538.291 118.994C537.889 118.994 537.549 119.11 537.269 119.344C536.998 119.577 536.83 119.908 536.765 120.338H539.761ZM545.867 118.294C546.101 117.93 546.423 117.636 546.833 117.412C547.244 117.188 547.725 117.076 548.275 117.076C548.919 117.076 549.503 117.239 550.025 117.566C550.548 117.892 550.959 118.359 551.257 118.966C551.565 119.572 551.719 120.277 551.719 121.08C551.719 121.882 551.565 122.592 551.257 123.208C550.959 123.814 550.548 124.286 550.025 124.622C549.503 124.948 548.919 125.112 548.275 125.112C547.734 125.112 547.253 125 546.833 124.776C546.423 124.552 546.101 124.262 545.867 123.908V128.724H543.473V117.188H545.867V118.294ZM549.283 121.08C549.283 120.482 549.115 120.016 548.779 119.68C548.453 119.334 548.047 119.162 547.561 119.162C547.085 119.162 546.679 119.334 546.343 119.68C546.017 120.025 545.853 120.496 545.853 121.094C545.853 121.691 546.017 122.162 546.343 122.508C546.679 122.853 547.085 123.026 547.561 123.026C548.037 123.026 548.443 122.853 548.779 122.508C549.115 122.153 549.283 121.677 549.283 121.08ZM557.329 122.97V125H556.111C555.243 125 554.567 124.79 554.081 124.37C553.596 123.94 553.353 123.245 553.353 122.284V119.176H552.401V117.188H553.353V115.284H555.747V117.188H557.315V119.176H555.747V122.312C555.747 122.545 555.803 122.713 555.915 122.816C556.027 122.918 556.214 122.97 556.475 122.97H557.329ZM561.841 125.112C561.16 125.112 560.553 124.995 560.021 124.762C559.489 124.528 559.069 124.211 558.761 123.81C558.453 123.399 558.28 122.942 558.243 122.438H560.609C560.637 122.708 560.763 122.928 560.987 123.096C561.211 123.264 561.486 123.348 561.813 123.348C562.112 123.348 562.34 123.292 562.499 123.18C562.667 123.058 562.751 122.904 562.751 122.718C562.751 122.494 562.634 122.33 562.401 122.228C562.168 122.116 561.79 121.994 561.267 121.864C560.707 121.733 560.24 121.598 559.867 121.458C559.494 121.308 559.172 121.08 558.901 120.772C558.63 120.454 558.495 120.03 558.495 119.498C558.495 119.05 558.616 118.644 558.859 118.28C559.111 117.906 559.475 117.612 559.951 117.398C560.436 117.183 561.01 117.076 561.673 117.076C562.653 117.076 563.423 117.318 563.983 117.804C564.552 118.289 564.879 118.933 564.963 119.736H562.751C562.714 119.465 562.592 119.25 562.387 119.092C562.191 118.933 561.93 118.854 561.603 118.854C561.323 118.854 561.108 118.91 560.959 119.022C560.81 119.124 560.735 119.269 560.735 119.456C560.735 119.68 560.852 119.848 561.085 119.96C561.328 120.072 561.701 120.184 562.205 120.296C562.784 120.445 563.255 120.594 563.619 120.744C563.983 120.884 564.3 121.117 564.571 121.444C564.851 121.761 564.996 122.19 565.005 122.732C565.005 123.189 564.874 123.6 564.613 123.964C564.361 124.318 563.992 124.598 563.507 124.804C563.031 125.009 562.476 125.112 561.841 125.112Z" fill="#6C7606"/>
<path d="M170 112L203 119" stroke="white" stroke-width="2" stroke-linecap="round"/>
<path d="M282 58.2144L298.867 28.9996L316 28.9996" stroke="white" stroke-width="2" stroke-linecap="round"/>
<path d="M367 132.214L393 119" stroke="white" stroke-width="2" stroke-linecap="round"/>
</g>
<defs>
<clipPath id="clip0_14897_425431">
<rect width="563.76" height="437.208" fill="white" transform="translate(0 0.0625)"/>
</clipPath>
</defs>
</svg>
