<svg width="88" height="88" viewBox="0 0 88 88" fill="none" xmlns="http://www.w3.org/2000/svg">
<g clip-path="url(#clip0_12860_23827)">
<path d="M71.9529 72.2506V86.2744H16.0474V72.2506C16.0474 60.0951 25.9012 50.2412 38.0567 50.2412H49.9436C62.099 50.2412 71.9529 60.0953 71.9529 72.2506Z" fill="#67CCD1"/>
<path d="M48.6848 67.1005C48.6848 60.9395 50.6815 55.2456 54.0607 50.6274C52.7268 50.3749 51.3509 50.2412 49.9436 50.2412H38.0567C25.9012 50.2412 16.0474 60.0951 16.0474 72.2506V86.2744H56.3087C51.5831 81.2722 48.6848 74.5253 48.6848 67.1005Z" fill="#27A2CC"/>
<path d="M28.3418 26.2295V37.3159C28.3418 45.9636 35.3522 52.9741 44 52.9741C52.6478 52.9741 59.6582 45.9636 59.6582 37.3159V26.2295H28.3418Z" fill="#FDE0BE"/>
<path d="M28.3418 38.3354C28.3418 38.3744 28.3444 38.4129 28.3447 38.4519H40.4978C41.7307 38.4519 42.9237 38.173 44 37.6599C45.0762 38.1732 46.2694 38.4519 47.5022 38.4519H59.6553C59.6556 38.4129 59.6582 38.3746 59.6582 38.3354V26.457H28.3418V38.3354Z" fill="#F7B073"/>
<path d="M47.426 7.79199H40.5743C32.014 7.79199 25.0745 14.7315 25.0745 23.2918V29.2932H40.498L44.0002 23.2271L47.5024 29.2934H62.926V23.292C62.9258 14.7315 55.9863 7.79199 47.426 7.79199Z" fill="#D46B5C"/>
<path d="M9.33984 76.6113H34.3374C39.674 76.6113 44.0001 80.9375 44.0001 86.274H9.33984V76.6113Z" fill="#D2DCFD"/>
<path d="M78.6604 76.6113H53.6628C48.3262 76.6113 44.0001 80.9375 44.0001 86.274H78.6604V76.6113Z" fill="white"/>
<path d="M44 45.382C46.1578 45.382 47.907 43.5277 47.907 41.2403C47.907 38.9529 46.1578 37.0986 44 37.0986C41.8422 37.0986 40.093 38.9529 40.093 41.2403C40.093 43.5277 41.8422 45.382 44 45.382Z" fill="#DB4B86"/>
<path d="M83.8587 84.5485H80.3858V76.6113C80.3858 75.6583 79.6131 74.8858 78.6603 74.8858H73.6783V72.2501C73.6783 61.5133 66.4953 52.2753 56.4613 49.4229C59.5058 46.2903 61.3839 42.0185 61.3839 37.3155V31.0187H62.926C63.8788 31.0187 64.6515 30.2463 64.6515 29.2933V23.2919C64.6515 13.7938 56.9243 6.06641 47.4262 6.06641H40.5745C31.0764 6.06641 23.3492 13.7936 23.3492 23.2919V29.2933C23.3492 30.2463 24.1219 31.0187 25.0747 31.0187H26.6167V37.3155C26.6167 42.0185 28.4948 46.2903 31.5392 49.4229C21.505 52.2755 14.3222 61.5133 14.3222 72.2503V74.886H9.33985C8.38704 74.886 7.61437 75.6585 7.61437 76.6115V84.5487H4.1415C3.18869 84.5487 2.41602 85.3212 2.41602 86.2741C2.41602 87.2271 3.18869 87.9996 4.1415 87.9996H83.8587C84.8115 87.9996 85.5842 87.2271 85.5842 86.2741C85.5842 85.3212 84.8117 84.5485 83.8587 84.5485ZM76.9348 84.5485H45.9167C46.707 80.9992 49.879 78.3368 53.6628 78.3368H76.9348V84.5485ZM26.8 23.2919C26.8 15.6967 32.9793 9.51737 40.5743 9.51737H47.426C55.0212 9.51737 61.2004 15.6967 61.2004 23.2919V27.5678H48.4986L45.4945 22.3644C45.1864 21.8306 44.6166 21.5017 44.0003 21.5017C43.3839 21.5017 42.8142 21.8306 42.506 22.3644L39.5019 27.5678H26.8002V23.2919H26.8ZM30.0674 31.0187H40.4979C41.1142 31.0187 41.684 30.6899 41.9921 30.156L44.0001 26.6781L46.008 30.156C46.3162 30.6899 46.886 31.0187 47.5023 31.0187H57.9328V37.3155C57.9328 44.9981 51.6826 51.2483 44.0001 51.2483C36.3176 51.2483 30.0674 44.9981 30.0674 37.3155V31.0187ZM17.7728 72.2501C17.7728 62.1927 25.1458 53.6741 35.0188 52.1944C37.6417 53.7835 40.7158 54.6992 44.0001 54.6992C47.2842 54.6992 50.3585 53.7835 52.9812 52.1944C62.8542 53.6741 70.2274 62.1927 70.2274 72.2501V74.8858H53.6628C49.5912 74.8858 46.0137 77.0351 44.0001 80.2572C41.9865 77.0351 38.409 74.8858 34.3374 74.8858H17.7728V72.2501ZM11.0653 78.3368H34.3374C38.1214 78.3368 41.2933 80.9992 42.0834 84.5485H11.0653V78.3368Z" fill="#052A75"/>
<path d="M9.58621 26.0578C9.58034 26.0419 9.57413 26.0259 9.56757 26.0102C9.24767 25.2332 8.49864 24.7314 7.6585 24.7314C7.65764 24.7314 7.65661 24.7314 7.65574 24.7314C6.81474 24.7325 6.06554 25.2363 5.74719 26.0149C5.74201 26.0276 5.73684 26.0406 5.73201 26.0537L0.113496 40.8057C-0.225733 41.6962 0.221166 42.693 1.11169 43.0322C2.00221 43.3713 2.99902 42.9244 3.33825 42.0339L4.31435 39.4712H10.9599L11.9251 42.029C12.1858 42.7201 12.8422 43.1458 13.5396 43.1458C13.742 43.1458 13.9479 43.1099 14.1486 43.0341C15.0401 42.6977 15.4899 41.7021 15.1535 40.8105L9.58621 26.0578ZM5.62865 36.0202L7.65229 30.707L9.65747 36.0202H5.62865Z" fill="#FD7DA0"/>
<path d="M80.8893 12.6431C80.8893 10.7891 80.0069 9.13814 78.641 8.08543C79.2111 7.25461 79.5457 6.25003 79.5457 5.1685C79.5457 2.31853 77.227 0 74.3772 0H70.0309C69.0781 0 68.3054 0.772498 68.3054 1.72548V16.6883C68.3054 17.1473 68.4883 17.5873 68.8134 17.9112C69.1369 18.2332 69.5747 18.4138 70.0309 18.4138H70.0385C70.039 18.4138 74.0349 18.396 75.1364 18.396C78.3085 18.3962 80.8893 15.8154 80.8893 12.6431ZM74.3772 3.45096C75.3242 3.45096 76.0948 4.22139 76.0948 5.1685C76.0948 6.11562 75.3242 6.88605 74.3772 6.88605C74.0573 6.88605 71.7564 6.89002 71.7564 6.89002V3.45096H74.3772ZM71.7564 10.3449C72.0979 10.3436 75.1364 10.341 75.1364 10.341C76.4057 10.341 77.4386 11.3737 77.4386 12.6431C77.4386 13.9124 76.4059 14.9451 75.1364 14.9451C74.5166 14.9451 72.9832 14.9506 71.7564 14.9556V10.3449Z" fill="#FD7DA0"/>
<path d="M87.383 54.2883C86.653 53.6761 85.5644 53.7715 84.9521 54.5021C84.8177 54.6625 84.6721 54.8127 84.5196 54.9485C83.7384 55.6442 82.743 55.997 81.5611 55.997C78.387 55.997 75.805 53.415 75.805 50.2412C75.805 47.0673 78.3872 44.4851 81.5611 44.4851C82.7147 44.4851 83.8271 44.8247 84.7782 45.4671C85.5676 46.0006 86.6405 45.7931 87.1739 45.0033C87.7074 44.2137 87.4997 43.1412 86.7101 42.6076C85.1865 41.5784 83.4061 41.0342 81.5612 41.0342C76.4844 41.0342 72.3542 45.1645 72.3542 50.2412C72.3542 55.3179 76.4845 59.448 81.5612 59.448C83.5859 59.448 85.4027 58.7832 86.8146 57.5256C87.0917 57.2789 87.3549 57.0075 87.5966 56.719C88.209 55.9887 88.1134 54.9005 87.383 54.2883Z" fill="#FD7DA0"/>
</g>
<defs>
<clipPath id="clip0_12860_23827">
<rect width="88" height="88" fill="white"/>
</clipPath>
</defs>
</svg>
