<svg width="88" height="88" viewBox="0 0 88 88" fill="none" xmlns="http://www.w3.org/2000/svg">
<g clip-path="url(#clip0_12860_23847)">
<path fill-rule="evenodd" clip-rule="evenodd" d="M59.089 28.1717C59.7933 28.8874 60.773 29.3314 61.8565 29.3314H65.5719V81.1043C65.5719 83.9517 67.9017 86.2815 70.7491 86.2815C73.5968 86.2815 75.9265 83.9517 75.9265 81.1043C75.9265 83.9517 78.2563 86.2815 81.1038 86.2815C83.9514 86.2816 86.2811 83.9519 86.2811 81.1044C86.2811 64.7096 86.2811 48.3148 86.2811 31.9202C86.2811 26.2015 81.6452 21.5655 75.9265 21.5655C74.9472 21.5655 63.4642 21.5655 63.4642 21.5655L57.2439 15.3452C55.7278 13.8289 53.2693 13.8289 51.7532 15.3452C50.2369 16.8615 50.2369 19.3198 51.7532 20.8359L59.089 28.1717Z" fill="white"/>
<path fill-rule="evenodd" clip-rule="evenodd" d="M34.5084 57.8066H22.8594H13.7992H1.71875V65.5725H5.17034H43.1372H46.5888V57.8066H34.5084Z" fill="#D46B5C"/>
<path fill-rule="evenodd" clip-rule="evenodd" d="M5.17041 65.5723H43.1372V86.2815H5.17041V65.5723Z" fill="#FDE0BE"/>
<path fill-rule="evenodd" clip-rule="evenodd" d="M22.8593 57.8062H34.5083V50.0402C34.5083 44.3215 29.8723 39.6855 24.1537 39.6855C18.4351 39.6855 13.7991 44.3215 13.7991 50.0402V57.8062H22.8593Z" fill="#FDCB50"/>
<path d="M29.6604 35.1318C30.2458 32.0899 28.2546 29.1493 25.2128 28.5639C22.171 27.9784 19.2305 29.9698 18.645 33.0117C18.0596 36.0536 20.0508 38.9941 23.0926 39.5796C26.1344 40.165 29.0749 38.1736 29.6604 35.1318Z" fill="#D46B5C"/>
<path d="M81.309 17.5934C82.2073 14.6289 80.5324 11.4976 77.5681 10.5993C74.6037 9.70098 71.4724 11.3759 70.5741 14.3404C69.6757 17.3048 71.3506 20.4362 74.315 21.3345C77.2793 22.2328 80.4106 20.5578 81.309 17.5934Z" fill="#FDBEB9"/>
<path fill-rule="evenodd" clip-rule="evenodd" d="M86.2812 44.8633H65.572V81.1045C65.572 83.952 67.9018 86.2817 70.7492 86.2817C73.5969 86.2817 75.9266 83.952 75.9266 81.1045C75.9266 83.952 78.2564 86.2817 81.1038 86.2817C83.9515 86.2817 86.2812 83.952 86.2812 81.1045C86.2812 68.9285 86.2812 56.9406 86.2812 44.8633Z" fill="#6864F7"/>
<path fill-rule="evenodd" clip-rule="evenodd" d="M20.9622 65.5717C21.2286 62.9021 21.7432 60.3056 22.4828 57.8057H13.7992H1.71875V65.5717H5.17034H20.9622Z" fill="#B55348"/>
<path fill-rule="evenodd" clip-rule="evenodd" d="M20.9623 65.5723H5.17041V86.2815H24.0755C21.9351 81.2222 20.7514 75.6596 20.7514 69.8205C20.7514 68.3867 20.8229 66.9696 20.9623 65.5723Z" fill="#F7B073"/>
<path fill-rule="evenodd" clip-rule="evenodd" d="M39.6855 1.71875H8.62183V21.5218L15.5248 17.2074H39.6855V1.71875Z" fill="white"/>
<path d="M46.5888 56.0879H36.2273V50.0406C36.2273 45.2675 33.4431 41.1323 29.4133 39.1742C30.6927 37.8543 31.4813 36.0562 31.4813 34.0774C31.4813 30.0371 28.1942 26.75 24.1539 26.75C20.1135 26.75 16.8264 30.0371 16.8264 34.0774C16.8264 36.0563 17.6151 37.8545 18.8944 39.1743C14.8646 41.1327 12.0804 45.2676 12.0804 50.0408V56.088H1.71875C0.769656 56.088 0 56.8575 0 57.8068V65.5728C0 66.522 0.769656 67.2915 1.71875 67.2915H3.45159V86.2817C3.45159 87.2309 4.22125 88.0004 5.17034 88.0004H43.1372C44.0863 88.0004 44.8559 87.2309 44.8559 86.2817V67.2912H46.5886C47.5377 67.2912 48.3074 66.5217 48.3074 65.5724V57.8064C48.3075 56.8573 47.5379 56.0879 46.5888 56.0879ZM24.1538 30.1873C26.2986 30.1873 28.0436 31.9324 28.0436 34.0772C28.0436 36.222 26.2988 37.9671 24.1538 37.9671C22.0088 37.9671 20.2637 36.222 20.2637 34.0772C20.2637 31.9324 22.0089 30.1873 24.1538 30.1873ZM15.5179 50.0406C15.5179 45.2788 19.392 41.4047 24.1538 41.4047C28.9156 41.4047 32.7896 45.2788 32.7896 50.0406V56.0879H28.0259C28.3061 55.4217 28.461 54.6903 28.461 53.9236C28.461 50.8348 25.948 48.3219 22.8592 48.3219H21.565C20.6159 48.3219 19.8462 49.0913 19.8462 50.0406C19.8462 50.9899 20.6159 51.7594 21.565 51.7594H22.8594C24.0527 51.7594 25.0236 52.7301 25.0236 53.9236C25.0236 55.1171 24.0529 56.0879 22.8594 56.0879H15.5179V50.0406ZM41.4184 84.5629H6.88909V67.2912H41.4184V84.5629ZM44.87 63.8537H3.4375V59.5252H44.87V63.8537Z" fill="#052A75"/>
<path d="M81.186 21.0532C82.4655 19.7334 83.254 17.9353 83.254 15.9563C83.254 11.916 79.9669 8.62891 75.9265 8.62891C71.8862 8.62891 68.5991 11.916 68.5991 15.9563C68.5991 17.3844 69.0099 18.7183 69.7194 19.8463H64.1764L58.4593 14.1294C57.4014 13.0714 55.9948 12.4889 54.4985 12.4889C53.0023 12.4889 51.5957 13.0715 50.5378 14.1294C48.3539 16.3134 48.3539 19.8668 50.5378 22.0508L57.864 29.377C58.9256 30.4557 60.3434 31.0498 61.8564 31.0498H63.8531V81.104C63.8531 84.9065 66.9467 88.0001 70.7493 88.0001C72.8097 88.0001 74.6618 87.0919 75.9265 85.6547C77.1913 87.0919 79.0436 88.0001 81.104 88.0001C84.9064 88.0001 88 84.9065 88 81.104V31.9197C88 27.1465 85.2158 23.0116 81.186 21.0532ZM75.9266 12.0666C78.0715 12.0666 79.8167 13.8116 79.8167 15.9565C79.8167 18.1013 78.0716 19.8463 75.9266 19.8463C73.7816 19.8463 72.0368 18.1013 72.0368 15.9565C72.0368 13.8116 73.7816 12.0666 75.9266 12.0666ZM84.5625 81.104C84.5625 83.0111 83.0112 84.5626 81.104 84.5626C79.1969 84.5626 77.6454 83.0111 77.6454 81.104V55.2175C77.6454 54.2682 76.8757 53.4988 75.9266 53.4988C74.9776 53.4988 74.2079 54.2682 74.2079 55.2175V81.104C74.2079 83.0111 72.6566 84.5626 70.7494 84.5626C68.8423 84.5626 67.2908 83.0111 67.2908 81.104V29.3311C67.2908 28.3818 66.5211 27.6123 65.572 27.6123H61.8566C61.2722 27.6123 60.7245 27.3829 60.3046 26.9561L52.9686 19.6201C52.1249 18.7766 52.1249 17.4036 52.9686 16.5601C53.3773 16.1515 53.9206 15.9264 54.4985 15.9264C55.0765 15.9264 55.6198 16.1515 56.0285 16.5602L62.2488 22.7806C62.5713 23.1028 63.0084 23.284 63.4642 23.284H75.9265C80.6883 23.284 84.5623 27.1581 84.5623 31.9199V81.104H84.5625Z" fill="#052A75"/>
<path d="M7.78858 23.0251C8.04828 23.1689 8.33514 23.2404 8.62183 23.2404C8.93842 23.2404 9.25467 23.1529 9.53276 22.9792L16.0178 18.926H39.6855C40.6346 18.926 41.4042 18.1565 41.4042 17.2073V1.71875C41.4042 0.769484 40.6346 0 39.6855 0H8.62183C7.67273 0 6.90308 0.769484 6.90308 1.71875V21.5218C6.90308 22.1466 7.24219 22.7222 7.78858 23.0251ZM10.3406 3.4375H37.9667V15.4887H15.5248C15.2027 15.4887 14.887 15.5793 14.6139 15.7499L10.3406 18.4209V3.4375Z" fill="#052A75"/>
<path d="M16.3886 11.2031C15.4395 11.2031 14.6692 10.4336 14.6692 9.48437C14.6692 8.53511 15.4382 7.76562 16.3873 7.76562H16.3886C17.3377 7.76562 18.1074 8.53511 18.1074 9.48437C18.1074 10.4336 17.3377 11.2031 16.3886 11.2031Z" fill="#6864F7"/>
<path d="M24.1543 11.2031C23.2052 11.2031 22.4351 10.4336 22.4351 9.48438C22.4351 8.53511 23.204 7.76562 24.1531 7.76562H24.1543C25.1034 7.76562 25.8731 8.53511 25.8731 9.48438C25.8731 10.4336 25.1036 11.2031 24.1543 11.2031Z" fill="#6864F7"/>
<path d="M31.9202 11.2031C30.9711 11.2031 30.2009 10.4336 30.2009 9.48438C30.2009 8.53511 30.9699 7.76562 31.919 7.76562H31.9202C32.8693 7.76562 33.6389 8.53511 33.6389 9.48438C33.6389 10.4336 32.8693 11.2031 31.9202 11.2031Z" fill="#6864F7"/>
</g>
<defs>
<clipPath id="clip0_12860_23847">
<rect width="88" height="88" fill="white"/>
</clipPath>
</defs>
</svg>
