<svg width="24" height="24" viewBox="0 0 24 24" fill="none" xmlns="http://www.w3.org/2000/svg">
<g clip-path="url(#clip0_11241_21042)">
<path d="M7.4999 13C6.6099 13 5.73988 12.7361 4.99987 12.2416C4.25986 11.7472 3.68309 11.0443 3.3425 10.2221C3.00191 9.39981 2.91279 8.49501 3.08643 7.6221C3.26006 6.74918 3.68863 5.94736 4.31796 5.31802C4.94729 4.68869 5.7491 4.2601 6.62201 4.08647C7.49491 3.91284 8.3997 4.00195 9.22195 4.34254C10.0442 4.68314 10.747 5.25991 11.2415 5.99994C11.7359 6.73996 11.9998 7.60999 11.9998 8.5C11.9985 9.69307 11.524 10.8369 10.6804 11.6805C9.83676 12.5241 8.69295 12.9987 7.4999 13ZM14.9998 20C14.9982 18.6744 14.4709 17.4036 13.5336 16.4662C12.5963 15.5289 11.3254 15.0016 9.99987 15H4.99993C3.67436 15.0016 2.40353 15.5289 1.4662 16.4662C0.528875 17.4036 0.00158784 18.6744 0 20L0 24H14.9998V20ZM17.4998 9C16.6098 9 15.7397 8.73608 14.9997 8.24162C14.2597 7.74715 13.683 7.04435 13.3424 6.22208C13.0018 5.39981 12.9127 4.49501 13.0863 3.6221C13.2599 2.74918 13.6885 1.94736 14.3178 1.31802C14.9472 0.688685 15.749 0.260102 16.6219 0.0864683C17.4948 -0.0871652 18.3996 0.00194979 19.2218 0.342544C20.0441 0.683139 20.7469 1.25991 21.2413 1.99994C21.7358 2.73996 21.9997 3.60999 21.9997 4.5C21.9984 5.69307 21.5239 6.83689 20.6802 7.68052C19.8366 8.52415 18.6928 8.99868 17.4998 9ZM18.9998 11H13.9998C13.8243 11.0081 13.6494 11.0257 13.4758 11.053C13.1122 11.8943 12.5752 12.6494 11.8998 13.269C13.3661 13.6839 14.6572 14.5654 15.5775 15.78C16.4978 16.9946 16.9971 18.4761 16.9998 20H23.9997V16C23.9981 14.6744 23.4708 13.4036 22.5335 12.4662C21.5962 11.5289 20.3253 11.0016 18.9998 11Z" fill="#FF8A00"/>
</g>
<defs>
<clipPath id="clip0_11241_21042">
<rect width="23.9997" height="24" fill="white"/>
</clipPath>
</defs>
</svg>
