<svg width="400" height="238" viewBox="0 0 400 238" fill="none" xmlns="http://www.w3.org/2000/svg">
<path d="M8.54741 219.117H0.5L28.8269 151.03H36.1769L64.1282 219.117H55.8663L47.9798 199.99H16.3534L8.54741 219.117ZM32.1264 159.611L18.714 193.722H45.7801L32.1264 159.611Z" fill="white"/>
<path d="M119.521 202.439C117.654 208.445 113.703 213.582 108.384 216.918C103.064 220.254 96.7292 221.567 90.5269 220.62C84.3247 219.674 78.6661 216.529 74.5773 211.757C70.4885 206.985 68.2402 200.902 68.2402 194.61C68.2402 188.319 70.4885 182.235 74.5773 177.464C78.6661 172.692 84.3247 169.547 90.5269 168.6C96.7292 167.654 103.064 168.967 108.384 172.303C113.703 175.639 117.654 180.775 119.521 186.782H112.547C111.333 183.803 109.408 181.168 106.94 179.11C104.473 177.052 101.539 175.634 98.3963 174.98C95.2539 174.327 91.9994 174.458 88.9193 175.362C85.8392 176.266 83.0279 177.915 80.7326 180.164C77.0814 184.002 75.0696 189.118 75.1263 194.422C75.0536 197.016 75.505 199.597 76.4532 202.011C77.4014 204.426 78.8268 206.622 80.6437 208.47C82.4606 210.317 84.6314 211.776 87.0254 212.76C89.4194 213.744 91.9872 214.232 94.5742 214.195C98.3998 214.317 102.17 213.255 105.372 211.151C108.574 209.047 111.051 206.005 112.466 202.439H119.521Z" fill="white"/>
<path d="M178.776 219.118H171.936V208.895C169.997 212.531 167.076 215.546 163.509 217.596C159.942 219.646 155.872 220.649 151.764 220.49C135.669 220.49 126.173 207.98 126.173 194.368C126.056 190.945 126.635 187.534 127.873 184.342C129.112 181.15 130.985 178.244 133.379 175.801C135.773 173.357 138.637 171.428 141.797 170.129C144.958 168.831 148.349 168.19 151.764 168.247C155.897 168.076 159.992 169.094 163.567 171.182C167.141 173.27 170.045 176.34 171.936 180.03V169.619H178.723L178.776 219.118ZM132.906 194.476C132.861 197.089 133.345 199.684 134.329 202.104C135.312 204.524 136.774 206.72 138.627 208.557C140.479 210.395 142.684 211.838 145.108 212.797C147.532 213.757 150.125 214.214 152.729 214.141C156.578 214.247 160.362 213.141 163.552 210.98C166.742 208.818 169.176 205.709 170.514 202.089C171.618 199.638 172.185 196.977 172.177 194.288C172.269 191.567 171.737 188.861 170.622 186.379C169.162 182.795 166.652 179.739 163.424 177.616C160.196 175.493 156.401 174.402 152.542 174.488C149.937 174.451 147.352 174.942 144.94 175.93C142.529 176.918 140.341 178.385 138.508 180.241C136.675 182.097 135.234 184.304 134.271 186.732C133.309 189.159 132.844 191.757 132.906 194.368V194.476Z" fill="white"/>
<path d="M241.333 219.118H234.815V208.895C232.869 212.567 229.921 215.607 226.315 217.66C222.71 219.714 218.596 220.695 214.455 220.49C198.682 220.49 188.944 208.169 188.944 194.288C188.82 190.88 189.389 187.483 190.616 184.302C191.843 181.122 193.703 178.226 196.082 175.79C198.461 173.353 201.31 171.428 204.455 170.132C207.599 168.835 210.975 168.194 214.374 168.247C225.104 168.247 232.347 174.488 234.546 179.653V151.111H241.333V219.118ZM195.731 194.368C195.664 196.992 196.132 199.602 197.106 202.039C198.08 204.475 199.539 206.687 201.395 208.538C203.251 210.389 205.464 211.84 207.899 212.804C210.333 213.767 212.938 214.222 215.555 214.141C218.159 214.159 220.741 213.657 223.149 212.664C225.558 211.671 227.746 210.207 229.584 208.357C231.413 206.476 232.844 204.243 233.789 201.793C234.734 199.342 235.174 196.725 235.083 194.099C235.126 191.515 234.643 188.95 233.666 186.559C232.688 184.168 231.235 182.001 229.396 180.191C226.618 177.456 223.096 175.603 219.273 174.864C215.449 174.125 211.493 174.534 207.9 176.038C204.307 177.543 201.236 180.077 199.071 183.323C196.907 186.569 195.745 190.383 195.731 194.288V194.368Z" fill="white"/>
<path d="M256.999 219.117H248.951L277.305 151.03H284.601L312.606 219.117H304.344L296.458 199.99H264.805L256.999 219.117ZM280.578 159.611L267.165 193.722H294.204L280.578 159.611Z" fill="white"/>
<path d="M326.716 151.084H319.93V219.145H326.716V151.084Z" fill="white"/>
<path d="M346.619 151.084H339.832V219.145H346.619V151.084Z" fill="white"/>
<path d="M372.934 218.256L353.861 169.672H361.104L376.609 209.702L392.569 169.672H400L371.834 237.921H364.511L372.934 218.256Z" fill="white"/>
<path d="M252.412 89.3719C246.563 83.5326 239.77 78.7299 232.32 75.1679L231.623 74.8182C226.913 72.6216 221.986 70.9264 216.923 69.7607L214.991 69.3572C214.64 69.2785 214.332 69.0664 214.133 68.7654V68.604L199.084 35.1655L184.25 2.18441C184.162 1.97767 184.126 1.75243 184.146 1.5285C184.165 1.30457 184.239 1.08881 184.361 0.900175C184.482 0.711544 184.649 0.555827 184.845 0.446714C185.04 0.337602 185.26 0.27843 185.484 0.274414H214.321C214.582 0.276861 214.837 0.354141 215.055 0.497142C215.274 0.640143 215.447 0.842883 215.555 1.08144L254.612 87.8654C254.743 88.1528 254.769 88.4773 254.686 88.7822C254.602 89.087 254.414 89.3527 254.155 89.5324C253.896 89.7122 253.582 89.7947 253.268 89.7653C252.954 89.7359 252.66 89.5967 252.439 89.3719" fill="white"/>
<path d="M147.285 89.372C153.138 83.5262 159.942 78.7228 167.404 75.1681L168.074 74.8183C172.784 72.6217 177.711 70.9266 182.774 69.7609L184.706 69.3573C185.065 69.2798 185.381 69.0683 185.591 68.7655V68.6041L200.639 35.1656L215.474 2.18452C215.569 1.97827 215.61 1.75121 215.594 1.5245C215.578 1.2978 215.505 1.07885 215.382 0.888109C215.259 0.697371 215.089 0.541066 214.89 0.433766C214.69 0.326466 214.466 0.271676 214.24 0.274519H185.349C185.088 0.276967 184.833 0.354247 184.615 0.497247C184.396 0.640248 184.223 0.842988 184.115 1.08155L145.112 87.8655C144.981 88.1529 144.955 88.4775 145.038 88.7823C145.122 89.0872 145.309 89.3528 145.569 89.5325C145.828 89.7123 146.142 89.7948 146.456 89.7654C146.77 89.736 147.063 89.5968 147.285 89.372Z" fill="white"/>
<path d="M265.367 111.862L264.991 111.189V111.001C259.988 101.689 253.059 93.5563 244.666 87.149C236.274 80.7417 226.613 76.2073 216.331 73.8498C205.485 71.4107 194.236 71.4107 183.39 73.8498C166.743 77.7082 151.933 87.2103 141.463 100.751C138.996 103.943 136.798 107.335 134.891 110.893V111.081L134.516 111.754C134.409 111.96 134.358 112.191 134.366 112.423C134.375 112.655 134.443 112.881 134.565 113.079C134.686 113.276 134.857 113.439 135.06 113.551C135.263 113.663 135.491 113.721 135.723 113.718H165.364C165.726 113.717 166.074 113.572 166.33 113.314C170.698 108.778 175.932 105.17 181.721 102.706C187.509 100.241 193.733 98.9714 200.022 98.9714C206.31 98.9714 212.534 100.241 218.322 102.706C224.111 105.17 229.345 108.778 233.713 113.314C233.838 113.444 233.988 113.547 234.154 113.616C234.321 113.686 234.499 113.72 234.679 113.718H264.347C264.576 113.721 264.801 113.665 265.001 113.554C265.201 113.444 265.369 113.283 265.489 113.087C265.608 112.892 265.674 112.668 265.681 112.439C265.688 112.21 265.635 111.983 265.528 111.781" fill="white"/>
</svg>
