<svg width="76" height="15" viewBox="0 0 76 15" fill="none" xmlns="http://www.w3.org/2000/svg">
<g clip-path="url(#clip0_16264_12163)">
<path d="M20.5364 12.3022H19.38L23.3278 2.57471H24.3646L28.3124 12.3022H27.1559L26.0394 9.56381H21.6131L20.5364 12.3022ZM23.8462 3.80087L21.9321 8.66463H25.7204L23.8462 3.80087Z" fill="#FFFCF8"/>
<path d="M36.0481 9.93212C35.6094 11.4444 34.2536 12.5071 32.6187 12.5071C30.3058 12.5071 28.9102 10.6678 28.9102 8.78771C28.9102 6.70324 30.4653 5.06836 32.5389 5.06836C34.0941 5.06836 35.5696 6.00841 36.0481 7.72504H35.091C34.6524 6.53975 33.5757 5.96754 32.5788 5.96754C31.7813 5.96754 31.223 6.21277 30.6249 6.78498C30.1463 7.23457 29.8273 8.01114 29.8273 8.82858C29.8273 10.5043 31.0635 11.6487 32.5389 11.6487C33.8549 11.6487 34.7321 10.8313 35.0512 9.97299H36.0481V9.93212Z" fill="#FFFCF8"/>
<path d="M44.3029 12.3025H43.3459V10.8312C42.8275 11.8938 41.7508 12.466 40.5146 12.466C38.2815 12.466 36.9257 10.6677 36.9257 8.74669C36.9257 6.66222 38.4012 5.02734 40.5146 5.02734C41.99 5.02734 42.987 5.92653 43.3459 6.70309V5.2317H44.3029V12.3025ZM37.9226 8.78756C37.9226 10.0546 38.7999 11.6077 40.6741 11.6077C41.9103 11.6077 42.7876 10.872 43.1465 9.8911C43.306 9.56413 43.3857 9.15541 43.3857 8.78756C43.3857 8.37884 43.306 8.011 43.1863 7.64315C42.7876 6.66222 41.8704 5.9674 40.6741 5.9674C39.0791 5.92653 37.9226 7.19356 37.9226 8.78756Z" fill="#FFFCF8"/>
<path d="M53.0359 12.3022H52.1187V10.8308C51.6402 11.7709 50.723 12.4657 49.2875 12.4657C47.0943 12.4657 45.7385 10.7082 45.7385 8.7055C45.7385 6.62103 47.2139 4.98615 49.2875 4.98615C50.8028 4.98615 51.7997 5.88533 52.1187 6.62103V5.10877V2.57471H53.0758V12.3022H53.0359ZM46.6556 8.78724C46.6556 10.2178 47.6127 11.6074 49.4071 11.6074C50.1648 11.6074 50.8825 11.2804 51.3611 10.79C51.8795 10.2586 52.1586 9.52293 52.1187 8.74637C52.1187 7.92893 51.8396 7.27498 51.3212 6.74364C50.8427 6.21231 50.1249 5.92621 49.3672 5.92621C47.8519 5.92621 46.6556 7.19323 46.6556 8.78724Z" fill="#FFFCF8"/>
<path d="M55.2287 12.3027H54.0723L58.02 2.5752H59.0568L62.9647 12.3027H61.8083L60.6918 9.5643H56.2655L55.2287 12.3027ZM58.5384 3.80135L56.6642 8.66511H60.4525L58.5384 3.80135Z" fill="#FFFCF8"/>
<path d="M64.9989 2.57471H64.0419V12.3022H64.9989V2.57471Z" fill="#FFFCF8"/>
<path d="M67.7902 2.57471H66.8332V12.3022H67.7902V2.57471Z" fill="#FFFCF8"/>
<path d="M71.4589 12.1797L68.7872 5.23145H69.7841L71.9374 10.9535L74.1705 5.23145H75.2073L71.2994 14.9998H70.2626L71.4589 12.1797Z" fill="#FFFCF8"/>
<path d="M12.4814 9.6049C11.8832 8.99183 11.1654 8.46049 10.3679 8.09264C10.328 8.09264 10.328 8.05177 10.2882 8.05177C9.80964 7.80654 9.29125 7.64305 8.73298 7.52044C8.65322 7.52044 8.61335 7.47956 8.53359 7.47956C8.49372 7.47956 8.45384 7.43869 8.45384 7.39782L6.85878 3.80109L5.30359 0.245232C5.22383 0.122616 5.30359 0 5.42322 0H8.49372C8.53359 0 8.61335 0.0408719 8.61335 0.0817439L12.7206 9.44142C12.8004 9.6049 12.601 9.72752 12.4814 9.6049Z" fill="#FFFCF8"/>
<path d="M1.39527 9.6049C1.99342 8.99183 2.7112 8.46049 3.50873 8.09264C3.54861 8.09264 3.54861 8.05177 3.58848 8.05177C4.067 7.80654 4.5854 7.64305 5.14367 7.52044C5.22342 7.52044 5.2633 7.47956 5.34305 7.47956C5.38293 7.47956 5.42281 7.43869 5.42281 7.39782L7.01787 3.80109L8.57306 0.245232C8.61294 0.122616 8.57306 0 8.45343 0H5.38293C5.34305 0 5.2633 0.0408719 5.2633 0.0817439L1.15601 9.44142C1.07626 9.6049 1.27564 9.72752 1.39527 9.6049Z" fill="#FFFCF8"/>
<path d="M13.8374 12.0572C13.8374 12.0163 13.7975 12.0163 13.7975 11.9754C12.7607 9.97271 10.8865 8.50132 8.65341 7.96998C8.09514 7.84737 7.49699 7.76562 6.89884 7.76562C6.30069 7.76562 5.70254 7.84737 5.14427 7.96998C4.26698 8.17434 3.42957 8.54219 2.67192 9.03265C1.91426 9.52312 1.27623 10.1362 0.717962 10.8719C0.478703 11.1989 0.239443 11.5667 0.0400598 11.9754C0.0400598 12.0163 0.000183223 12.0163 0.000183223 12.0572C-0.0396934 12.1389 0.00018322 12.2615 0.119813 12.2615H3.23019C3.27007 12.2615 3.30994 12.2615 3.34982 12.2207C4.26698 11.2806 5.50316 10.6675 6.89884 10.6675C8.29452 10.6675 9.57057 11.2806 10.4479 12.2207C10.4877 12.2615 10.5276 12.2615 10.5675 12.2615H13.7177C13.8374 12.2615 13.9171 12.1389 13.8374 12.0572Z" fill="#FFFCF8"/>
</g>
<defs>
<clipPath id="clip0_16264_12163">
<rect width="75.2073" height="15" fill="white"/>
</clipPath>
</defs>
</svg>
