<svg width="341" height="146" viewBox="0 0 341 146" fill="none" xmlns="http://www.w3.org/2000/svg">
<g clip-path="url(#clip0_22889_24891)">
<rect width="341" height="146" rx="8" fill="#FFF7F3"/>
<g clip-path="url(#clip1_22889_24891)">
<path d="M299.343 8.64285C300.345 6.94028 301.982 5.70537 303.894 5.2097C305.807 4.71402 307.837 4.99817 309.54 5.99964L323.189 14.0295C324.891 15.0315 326.126 16.6687 326.622 18.581C327.118 20.4934 326.834 22.5243 325.832 24.2272L317.803 37.8762C316.801 39.5788 315.164 40.8137 313.252 41.3094C311.34 41.805 309.309 41.5209 307.606 40.5194L293.95 32.4914C292.248 31.4894 291.013 29.8522 290.517 27.9399C290.022 26.0276 290.306 23.9966 291.307 22.2938L299.343 8.64285ZM254.477 141.184L265.295 138.38L257.817 109.533L228.971 117.01L231.775 127.828C233.015 132.61 236.103 136.703 240.36 139.208C244.618 141.713 249.696 142.424 254.477 141.184ZM248.47 73.4734L255.947 102.321L227.102 109.798L219.624 80.9506L248.47 73.4734ZM292.005 92.9744L263.159 100.452L255.681 71.6041L284.527 64.1268L292.005 92.9744ZM265.028 107.664L293.874 100.186L301.352 129.034L272.506 136.511L265.028 107.664ZM291.738 62.2575L299.216 91.1051L328.062 83.6279L320.584 54.7803L291.738 62.2575ZM301.086 98.317L329.931 90.8398L332.735 101.658C333.975 106.439 333.264 111.518 330.76 115.775C328.255 120.033 324.162 123.121 319.38 124.361L308.563 127.165L301.086 98.317ZM217.754 73.7387L246.6 66.2615L239.123 37.4139L228.305 40.2179C223.524 41.4573 219.431 44.5455 216.926 48.8032C214.422 53.0608 213.711 58.1391 214.95 62.9209L217.754 73.7387ZM253.812 64.3922L246.334 35.5446L275.18 28.0674L282.658 56.9149L253.812 64.3922Z" fill="#FBEBE3"/>
</g>
</g>
<defs>
<clipPath id="clip0_22889_24891">
<rect width="341" height="146" fill="white"/>
</clipPath>
<clipPath id="clip1_22889_24891">
<rect width="143.07" height="143.07" fill="white" transform="translate(192 21.8984) rotate(-14.532)"/>
</clipPath>
</defs>
</svg>
