<svg width="341" height="146" viewBox="0 0 341 146" fill="none" xmlns="http://www.w3.org/2000/svg">
<g clip-path="url(#clip0_22889_24806)">
<rect width="341" height="146" rx="8" fill="#E3F7FF"/>
<g clip-path="url(#clip1_22889_24806)">
<path d="M271.398 39.315C280.906 36.7658 290.997 37.6896 299.787 41.914C308.578 46.1383 315.468 53.3746 319.17 62.2723L334.725 76.2733C335.748 77.1953 336.047 78.8968 334.558 80.0556L326.045 86.6388L329.806 100.674C330.487 103.214 330.108 105.927 328.754 108.216C327.4 110.504 325.18 112.181 322.584 112.877L312.8 115.498L316.645 129.87L272.595 141.673L267.854 123.979C266.339 118.326 262.771 113.548 257.523 109.779C251.401 105.379 246.689 99.3583 243.929 92.4095C241.17 85.4607 240.475 77.8668 241.925 70.5027C243.375 63.1386 246.911 56.304 252.125 50.7862C257.339 45.2684 264.02 41.292 271.398 39.315Z" fill="#D4F3FF"/>
<path fill-rule="evenodd" clip-rule="evenodd" d="M229.717 36.5514C231.575 34.3298 234.881 34.0346 237.103 35.892L243.911 41.5845C246.133 43.4419 246.428 46.7486 244.571 48.9701C242.713 51.1917 239.407 51.4869 237.185 49.6295L230.377 43.937C228.155 42.0796 227.86 38.7729 229.717 36.5514ZM213.5 49.9114C214.559 47.2165 217.603 45.8908 220.298 46.9503L237.129 53.5679C239.824 54.6275 241.15 57.6711 240.09 60.366C239.031 63.061 235.987 64.3867 233.292 63.3271L216.461 56.7095C213.766 55.65 212.44 52.6063 213.5 49.9114ZM213.629 71.8916C213.612 68.9959 215.946 66.6346 218.842 66.6175L230.336 66.5497C233.231 66.5326 235.593 68.8662 235.61 71.7619C235.627 74.6576 233.293 77.0189 230.397 77.036L218.904 77.1038C216.008 77.1209 213.647 74.7873 213.629 71.8916Z" fill="#D4F3FF"/>
</g>
</g>
<defs>
<clipPath id="clip0_22889_24806">
<rect width="341" height="146" fill="white"/>
</clipPath>
<clipPath id="clip1_22889_24806">
<rect width="147.01" height="147.01" fill="white" transform="translate(183 29.0488) rotate(-15)"/>
</clipPath>
</defs>
</svg>
