<svg width="27" height="28" viewBox="0 0 27 28" fill="none" xmlns="http://www.w3.org/2000/svg">
<path d="M6.15212 19.8335H20.7271C21.1757 19.8335 21.6176 19.7207 22.0156 19.5046C22.4136 19.2885 22.7559 18.9754 23.0135 18.5919C23.2711 18.2085 23.4365 17.7658 23.4956 17.3014C23.5548 16.8371 23.506 16.3647 23.3533 15.9242L20.6982 8.25822C20.2448 6.5546 19.2695 5.05299 17.9215 3.98304C16.5735 2.91309 14.927 2.3337 13.2339 2.3335C11.4713 2.33347 9.76147 2.96115 8.3866 4.11291C7.01174 5.26467 6.05409 6.87164 5.67175 8.6685L3.48402 16.0574C3.35521 16.4936 3.32626 16.9553 3.39948 17.4054C3.4727 17.8555 3.64606 18.2813 3.9056 18.6486C4.16515 19.0159 4.50363 19.3145 4.89381 19.5203C5.284 19.7261 5.715 19.8334 6.15212 19.8335Z" fill="#6166AE"/>
<path d="M8.95999 22.1665C9.16983 23.1543 9.73049 24.0423 10.547 24.6802C11.3634 25.318 12.3855 25.6665 13.44 25.6665C14.4945 25.6665 15.5166 25.318 16.333 24.6802C17.1495 24.0423 17.7102 23.1543 17.92 22.1665H8.95999Z" fill="#6166AE"/>
</svg>
