<svg width="16" height="16" viewBox="0 0 16 16" fill="none" xmlns="http://www.w3.org/2000/svg">
<path d="M13.6667 2.63419C13.3544 2.37779 12.9884 2.19203 12.5947 2.09013C12.201 1.98822 11.7894 1.97266 11.3889 2.04455L9.26556 2.4231C8.77533 2.51149 8.32961 2.75912 8 3.1262C7.66954 2.75848 7.22253 2.5108 6.73111 2.4231L4.61111 2.04455C4.21065 1.9726 3.79896 1.98795 3.40521 2.08953C3.01146 2.19111 2.64526 2.37643 2.33254 2.63237C2.01982 2.8883 1.76822 3.2086 1.59555 3.57059C1.42288 3.93258 1.33336 4.32741 1.33334 4.72713L1.33334 10.6143C1.33337 11.2529 1.56166 11.8713 1.97841 12.3616C2.39516 12.852 2.97395 13.1831 3.61389 13.2974L7.10611 13.9209C7.6972 14.0264 8.3028 14.0264 8.89389 13.9209L12.3889 13.2974C13.0283 13.1826 13.6065 12.8511 14.0227 12.3609C14.4389 11.8706 14.6668 11.2526 14.6667 10.6143V4.72713C14.6669 4.32755 14.5774 3.93283 14.4046 3.57108C14.2317 3.20932 13.9798 2.88943 13.6667 2.63419ZM7.44445 12.8698C7.39778 12.8633 7.35111 12.8556 7.30445 12.8474L3.81278 12.2245C3.42876 12.1559 3.08144 11.9572 2.83138 11.6629C2.58133 11.3686 2.44439 10.9975 2.44445 10.6143V4.72713C2.44445 4.29314 2.62004 3.87691 2.9326 3.57003C3.24516 3.26315 3.66909 3.09074 4.11111 3.09074C4.21172 3.09098 4.31211 3.09992 4.41111 3.11747L6.53334 3.4993C6.78868 3.54517 7.0196 3.67737 7.18603 3.87296C7.35245 4.06855 7.44388 4.31518 7.44445 4.57004V12.8698ZM13.5556 10.6143C13.5556 10.9975 13.4187 11.3686 13.1686 11.6629C12.9186 11.9572 12.5712 12.1559 12.1872 12.2245L8.69556 12.8474C8.64889 12.8556 8.60222 12.8633 8.55556 12.8698V4.57004C8.55552 4.31455 8.64681 4.06715 8.81352 3.87098C8.98022 3.67481 9.21177 3.5423 9.46778 3.49657L11.5906 3.11474C11.831 3.0718 12.078 3.08128 12.3143 3.14251C12.5505 3.20375 12.7702 3.31523 12.9577 3.46908C13.1452 3.62293 13.2959 3.81537 13.3992 4.03277C13.5026 4.25018 13.5559 4.48723 13.5556 4.72713V10.6143Z" fill="#6166AE"/>
</svg>
