<svg width="14" height="14" viewBox="0 0 14 14" fill="none" xmlns="http://www.w3.org/2000/svg">
<path d="M10.4026 2.13921H9.9165V1.6531C9.9165 1.38477 9.69873 1.16699 9.43039 1.16699C9.16206 1.16699 8.94428 1.38477 8.94428 1.6531V2.13921H5.05539V1.6531C5.05539 1.38477 4.83761 1.16699 4.56928 1.16699C4.30095 1.16699 4.08317 1.38477 4.08317 1.6531V2.13921H3.59706C2.25685 2.13921 1.1665 3.22956 1.1665 4.56977V10.4031C1.1665 11.7433 2.25685 12.8337 3.59706 12.8337H10.4026C11.7428 12.8337 12.8332 11.7433 12.8332 10.4031V4.56977C12.8332 3.22956 11.7428 2.13921 10.4026 2.13921ZM3.59706 3.11144H10.4026C11.2066 3.11144 11.8609 3.76574 11.8609 4.56977V5.05588H2.13873V4.56977C2.13873 3.76574 2.79303 3.11144 3.59706 3.11144ZM10.4026 11.8614H3.59706C2.79303 11.8614 2.13873 11.2071 2.13873 10.4031V6.0281H11.8609V10.4031C11.8609 11.2071 11.2066 11.8614 10.4026 11.8614ZM8.94428 8.94477C8.94428 9.2131 8.7265 9.43088 8.45817 9.43088H5.5415C5.27317 9.43088 5.05539 9.2131 5.05539 8.94477C5.05539 8.67644 5.27317 8.45866 5.5415 8.45866H8.45817C8.7265 8.45866 8.94428 8.67644 8.94428 8.94477Z" fill="#6166AE"/>
</svg>
