<svg width="21" height="22" viewBox="0 0 21 22" fill="none" xmlns="http://www.w3.org/2000/svg">
<path d="M4.33543 4.95508H4.33543C4.30623 4.95508 4.28056 4.96539 4.25876 4.98714L4.33543 4.95508ZM4.33543 4.95508H4.33544M4.33543 4.95508H4.33544M4.33544 4.95508H4.33544M4.33544 4.95508H4.33544M4.33544 4.95508H4.33544M4.33544 4.95508H4.33544M4.33544 4.95508H4.33545M4.33544 4.95508H4.33545M4.33545 4.95508H4.33545M4.33545 4.95508H4.33545M4.33545 4.95508H4.33545M4.33545 4.95508H4.33545M4.33545 4.95508H4.33545M4.33545 4.95508H4.33545M4.33545 4.95508H4.33546M4.33545 4.95508H4.33546M4.33546 4.95508H4.33546M4.33546 4.95508H4.33546M4.33546 4.95508H4.33546M4.33546 4.95508H4.33546M4.33546 4.95508H4.33546M4.33546 4.95508H4.33546M4.33546 4.95508H4.33547M4.33546 4.95508H4.33547M4.33547 4.95508H4.33547M4.33547 4.95508H4.33547M4.33547 4.95508H4.33547M4.33547 4.95508H4.33547M4.33547 4.95508H4.33548M4.33547 4.95508H4.33548M4.33548 4.95508H4.33548M4.33548 4.95508H4.33548M4.33548 4.95508H4.33548M4.33548 4.95508H4.33548M4.33548 4.95508H4.33548M4.33548 4.95508H4.33548M4.33548 4.95508H4.33549M4.33548 4.95508H4.33549M4.33549 4.95508H4.33549M4.33549 4.95508H4.33549M4.33549 4.95508H4.33549M4.33549 4.95508H4.33549M4.33549 4.95508H4.33549M4.33549 4.95508H4.33549M4.33549 4.95508H4.3355M4.33549 4.95508H4.3355M4.3355 4.95508H4.3355M4.3355 4.95508H4.3355M4.3355 4.95508H4.3355M4.3355 4.95508H4.3355M4.3355 4.95508H4.33551M4.3355 4.95508H4.33551M4.33551 4.95508H4.33551M4.33551 4.95508H4.33551M4.33551 4.95508H4.33551M4.33551 4.95508H4.33551M4.33551 4.95508H4.33551M4.33551 4.95508H4.33551M4.33551 4.95508H4.33552M4.33551 4.95508H4.33552M4.33552 4.95508H4.33552M4.33552 4.95508H4.33552M4.33552 4.95508H4.33552M4.33552 4.95508H4.33552M4.33552 4.95508H4.33552M4.33552 4.95508H4.33552M4.33552 4.95508H4.33553M4.33552 4.95508H4.33553M4.33553 4.95508H4.33553M4.33553 4.95508H4.33553M4.33553 4.95508H4.33553M4.33553 4.95508H4.33553M4.33553 4.95508H4.33554M4.33553 4.95508H4.33554M4.33554 4.95508H4.33554M4.33554 4.95508H4.33554M4.33554 4.95508H4.33554M4.33554 4.95508H4.33554M4.33554 4.95508H4.33554M4.33554 4.95508H4.33554M4.33554 4.95508H4.33555M4.33554 4.95508H4.33555M4.33555 4.95508H4.33555M4.33555 4.95508H4.33555M4.33555 4.95508H4.33555M4.33555 4.95508H4.33555M4.33555 4.95508H4.33555M4.33555 4.95508H4.33555M4.33555 4.95508H4.33556M4.33555 4.95508H4.33556M4.33556 4.95508H4.33556M4.33556 4.95508H4.33556M4.33556 4.95508H4.33556M4.33556 4.95508H4.33556M4.33556 4.95508H4.33557M4.33556 4.95508H4.33557M4.33557 4.95508H4.33557M4.33557 4.95508H4.33557M4.33557 4.95508H4.33557M4.33557 4.95508H4.33557M4.33557 4.95508H4.33557M4.33557 4.95508H4.33557M4.33557 4.95508H4.33558M4.33557 4.95508H4.33558M4.33558 4.95508H4.33558M4.33558 4.95508H4.33558M4.33558 4.95508H4.33558M4.33558 4.95508H4.33558M4.33558 4.95508H4.33559M4.33558 4.95508H4.33559M4.33559 4.95508H4.33559M4.33559 4.95508H4.33559M4.33559 4.95508H4.33559M4.33559 4.95508H4.33559M4.33559 4.95508H4.33559M4.33559 4.95508H4.33559M4.33559 4.95508H4.3356M4.33559 4.95508H4.3356M4.3356 4.95508H4.3356M4.3356 4.95508H4.3356M4.3356 4.95508H4.3356M4.3356 4.95508H4.3356M4.3356 4.95508H4.3356M4.3356 4.95508H4.3356M4.3356 4.95508H4.33561M4.3356 4.95508H4.33561M4.33561 4.95508H4.33561M4.33561 4.95508H4.33561M4.33561 4.95508H4.33561M4.33561 4.95508H4.33561M4.33561 4.95508H4.33562M4.33561 4.95508H4.33562M4.33562 4.95508H4.33562M4.33562 4.95508H4.33562M4.33562 4.95508H4.33562M4.33562 4.95508H4.33562M4.33562 4.95508H4.33562M4.33562 4.95508H4.33562M4.33562 4.95508H4.33563M4.33562 4.95508H4.33563M4.33563 4.95508H4.33563M4.33563 4.95508H4.33563M4.33563 4.95508H4.33563M4.33563 4.95508H4.33563M4.33563 4.95508H4.33564M4.33563 4.95508H4.33564M4.33564 4.95508H4.33564M4.33564 4.95508H4.33564M4.33564 4.95508H4.33564M4.33564 4.95508H4.33564M4.33564 4.95508H4.33564M4.33564 4.95508H4.33564M4.33564 4.95508H4.33565M4.33564 4.95508H4.33565M4.33565 4.95508H4.33565M4.33565 4.95508H4.33565M4.33565 4.95508H4.33565M4.33565 4.95508H4.33565M4.33565 4.95508H4.33565M4.33565 4.95508H4.33565M4.33565 4.95508H4.33566M4.33565 4.95508H4.33566M4.33566 4.95508H4.33566M4.33566 4.95508H4.33566M4.33566 4.95508H4.33566M4.33566 4.95508H4.33566M4.33566 4.95508H4.33567M4.33566 4.95508H4.33567M4.33567 4.95508H4.33567M4.33567 4.95508H4.33567M4.33567 4.95508H4.33567M4.33567 4.95508H4.33567M4.33567 4.95508H4.33567M4.33567 4.95508H4.33567M4.33567 4.95508H4.33568M4.33567 4.95508H4.33568M4.33568 4.95508H4.33568M4.33568 4.95508H4.33568M4.33568 4.95508H4.33568M4.33568 4.95508H4.33568M4.33568 4.95508H4.33569M4.33568 4.95508H4.33569M4.33569 4.95508H4.33569M4.33569 4.95508H4.33569M4.33569 4.95508H4.33569M4.33569 4.95508H4.33569M4.33569 4.95508H4.33569M4.33569 4.95508H4.33569M4.33569 4.95508H4.3357M4.33569 4.95508H4.3357M4.3357 4.95508H4.3357M4.3357 4.95508H4.3357M4.3357 4.95508H4.3357M4.3357 4.95508H4.3357M4.3357 4.95508H4.33571M4.3357 4.95508H4.33571M4.33571 4.95508H4.33571M4.33571 4.95508H4.33571M4.33571 4.95508H4.33571M4.33571 4.95508H4.33571M4.33571 4.95508H4.33571M4.33571 4.95508H4.33571M4.33571 4.95508H4.33572M4.33571 4.95508H4.33572M4.33572 4.95508H4.33572M4.33572 4.95508H4.33572M4.33572 4.95508H4.33572M4.33572 4.95508H4.33572M4.33572 4.95508H4.33572M4.33572 4.95508H4.33572M4.33572 4.95508H4.33573M4.33572 4.95508H4.33573M4.33573 4.95508H4.33573M4.33573 4.95508H4.33573M4.33573 4.95508H4.33573M4.33573 4.95508H4.33573M4.33573 4.95508H4.33574M4.33573 4.95508H4.33574M4.33574 4.95508H4.33574M4.33574 4.95508H4.33574M4.33574 4.95508H4.33574M4.33574 4.95508H4.33574M4.33574 4.95508H4.33574M4.33574 4.95508H4.33574M4.33574 4.95508H4.33575M4.33574 4.95508H4.33575M4.33575 4.95508H4.33575M4.33575 4.95508H4.33575M4.33575 4.95508H4.33575M4.33575 4.95508H4.33575M4.33575 4.95508H4.33576M4.33575 4.95508H4.33576M4.33576 4.95508H4.33576M4.33576 4.95508H4.33576M4.33576 4.95508H4.33576M4.33576 4.95508H4.33576M4.33576 4.95508H4.33576M4.33576 4.95508H4.33576M4.33576 4.95508H4.33577M4.33576 4.95508H4.33577M4.33577 4.95508H4.33577M4.33577 4.95508H4.33577M4.33577 4.95508H4.33577M4.33577 4.95508H4.33577M4.33577 4.95508H4.33578M4.33577 4.95508H4.33578M4.33578 4.95508H4.33578M4.33578 4.95508H4.33578M4.33578 4.95508H4.33578M4.33578 4.95508H4.33578M4.33578 4.95508H4.33578M4.33578 4.95508H4.33578M4.33578 4.95508H4.33579M4.33578 4.95508H4.33579M4.33579 4.95508H4.33579M4.33579 4.95508H4.33579M4.33579 4.95508H4.33579M4.33579 4.95508H4.33579M4.33579 4.95508H4.3358M4.33579 4.95508H4.3358M4.3358 4.95508H4.3358M4.3358 4.95508H4.3358M4.3358 4.95508H4.3358M4.3358 4.95508H4.3358M4.3358 4.95508H4.3358M4.3358 4.95508H4.3358M4.3358 4.95508H4.33581M4.3358 4.95508H4.33581M4.33581 4.95508H4.33581M4.33581 4.95508H4.33581M4.33581 4.95508H4.33581M4.33581 4.95508H4.33581M4.33581 4.95508H4.33582M4.33581 4.95508H4.33582M4.33582 4.95508H4.33582M4.33582 4.95508H4.33582M4.33582 4.95508H4.33582M4.33582 4.95508H4.33582M4.33582 4.95508H4.33582M4.33582 4.95508H4.33582M4.33582 4.95508H4.33583M4.33582 4.95508H4.33583M4.33583 4.95508H4.33583M4.33583 4.95508H4.33583M4.33583 4.95508H4.33583M4.33583 4.95508H4.33583M4.33583 4.95508H4.33584M4.33583 4.95508H4.33584M4.33584 4.95508H4.33584M4.33584 4.95508H4.33584M4.33584 4.95508H4.33584M4.33584 4.95508H4.33584M4.33584 4.95508H4.33584M4.33584 4.95508H4.33584M4.33584 4.95508H4.33585M4.33584 4.95508H4.33585M4.33585 4.95508H4.33585M4.33585 4.95508H4.33585M4.33585 4.95508H4.33585M4.33585 4.95508H4.33585M4.33585 4.95508H4.33586M4.33585 4.95508H4.33586M4.33586 4.95508H4.33586M4.33586 4.95508H4.33586M4.33586 4.95508H4.33586M4.33586 4.95508H4.33586M4.33586 4.95508H4.33586M4.33586 4.95508H4.33586M4.33586 4.95508H4.33587M4.33586 4.95508H4.33587M4.33587 4.95508H4.33587M4.33587 4.95508H4.33587M4.33587 4.95508H4.33587M4.33587 4.95508H4.33587M4.33587 4.95508H4.33588M4.33587 4.95508H4.33588M4.33588 4.95508H4.33588M4.33588 4.95508H4.33588M4.33588 4.95508H4.33588M4.33588 4.95508H4.33588M4.33588 4.95508H4.33588M4.33588 4.95508H4.33588M4.33588 4.95508H4.33589M4.33588 4.95508H4.33589M4.33589 4.95508H4.33589M4.33589 4.95508H4.33589M4.33589 4.95508H4.33589M4.33589 4.95508H4.33589M4.33589 4.95508H4.3359M4.33589 4.95508H4.3359M4.3359 4.95508H4.3359M4.3359 4.95508H4.3359M4.3359 4.95508H4.3359M4.3359 4.95508H4.3359M4.3359 4.95508H4.3359M4.3359 4.95508H4.3359M4.3359 4.95508H4.33591M4.3359 4.95508H4.33591M4.33591 4.95508H4.33591M4.33591 4.95508H4.33591M4.33591 4.95508H4.33591M4.33591 4.95508H4.33591M4.33591 4.95508H4.33592M4.33591 4.95508H4.33592M4.33592 4.95508H4.33592M4.33592 4.95508H4.33592M4.33592 4.95508H4.33592M4.33592 4.95508H4.33592M4.33592 4.95508H4.33592M4.33592 4.95508H4.33592M4.33592 4.95508H4.33593M4.33592 4.95508H4.33593M4.33593 4.95508H4.33593M4.33593 4.95508H4.33593M4.33593 4.95508H4.33593M4.33593 4.95508H4.33593M4.33593 4.95508H4.33594M4.33593 4.95508H4.33594M4.33594 4.95508H4.33594M4.33594 4.95508H4.33594M4.33594 4.95508H4.33594M4.33594 4.95508H4.33594M4.33594 4.95508H4.33594M4.33594 4.95508H4.33594M4.33594 4.95508H4.33595M4.33594 4.95508H4.33595M4.33595 4.95508H4.33595M4.33595 4.95508H4.33595M4.33595 4.95508H4.33595M4.33595 4.95508H4.33595M4.33595 4.95508H4.33596M4.33595 4.95508H4.33596M4.33596 4.95508H4.33596M4.33596 4.95508H4.33596M4.33596 4.95508H4.33596M4.33596 4.95508H4.33596M4.33596 4.95508H4.33596M4.33596 4.95508H4.33596M4.33596 4.95508H4.33597M4.33596 4.95508H4.33597M4.33597 4.95508H4.33597M4.33597 4.95508H4.33597M4.33597 4.95508H4.33597M4.33597 4.95508H4.33597M4.33597 4.95508H4.33598M4.33597 4.95508H4.33598M4.33598 4.95508H4.33598M4.33598 4.95508H4.33598M4.33598 4.95508H4.33598M4.33598 4.95508H4.33598M4.33598 4.95508H4.33598M4.33598 4.95508H4.33598M4.33598 4.95508H4.33599M4.33598 4.95508H4.33599M4.33599 4.95508H4.33599M4.33599 4.95508H4.33599M4.33599 4.95508H4.33599M4.33599 4.95508H4.33599M4.33599 4.95508H4.336M4.33599 4.95508H4.336M4.336 4.95508H4.336M4.336 4.95508H4.336M4.336 4.95508H4.336M4.336 4.95508H4.336M4.336 4.95508H4.336M4.336 4.95508H4.336M4.336 4.95508H4.33601M4.336 4.95508H4.33601M4.33601 4.95508H4.33601M4.33601 4.95508H4.33601M4.33601 4.95508H4.33601M4.33601 4.95508H4.33601M4.33601 4.95508H4.33602M4.33601 4.95508H4.33602M4.33602 4.95508H4.33602M4.33602 4.95508H4.33602M4.33602 4.95508H4.33602M4.33602 4.95508H4.33602M4.33602 4.95508H4.33602M4.33602 4.95508H4.33602M4.33602 4.95508H4.33603M4.33602 4.95508H4.33603M4.33603 4.95508H4.33603M4.33603 4.95508H4.33603M4.33603 4.95508H4.33603M4.33603 4.95508H4.33603M4.33603 4.95508H4.33604M4.33603 4.95508H4.33604M4.33604 4.95508H4.33604M4.33604 4.95508H4.33604M4.33604 4.95508H4.33604M4.33604 4.95508H4.33604M4.33604 4.95508H4.33604M4.33604 4.95508H4.33604M4.33604 4.95508H4.33605M4.33604 4.95508H4.33605M4.33605 4.95508H4.33605M4.33605 4.95508H4.33605M4.33605 4.95508H4.33605M4.33605 4.95508H4.33605M4.33605 4.95508H4.33606M4.33605 4.95508H4.33606M4.33606 4.95508H4.33606M4.33606 4.95508H4.33606M4.33606 4.95508H4.33606M4.33606 4.95508H4.33606M4.33606 4.95508H4.33606M4.33606 4.95508H4.33606M4.33606 4.95508H4.33607M4.33606 4.95508H4.33607M4.33607 4.95508H4.33607M4.33607 4.95508H4.33607M4.33607 4.95508H4.33607M4.33607 4.95508H4.33607M4.33607 4.95508H4.33608M4.33607 4.95508H4.33608M4.33608 4.95508H4.33608M4.33608 4.95508H4.33608M4.33608 4.95508H4.33608M4.33608 4.95508H4.33608M4.33608 4.95508H4.33608M4.33608 4.95508H4.33608M4.33608 4.95508H4.33609M4.33608 4.95508H4.33609M4.33609 4.95508H4.33609M4.33609 4.95508H4.33609M4.33609 4.95508H4.33609M4.33609 4.95508H4.33609M4.33609 4.95508H4.3361M4.33609 4.95508H4.3361M4.3361 4.95508H4.3361M4.3361 4.95508H4.3361M4.3361 4.95508H4.3361M4.3361 4.95508H4.3361M4.3361 4.95508H4.3361M4.3361 4.95508H4.3361M4.3361 4.95508H4.33611M4.3361 4.95508H4.33611M4.33611 4.95508H4.33611M4.33611 4.95508H4.33611M4.33611 4.95508H4.33611M4.33611 4.95508H4.33611M4.33611 4.95508H4.33612M4.33611 4.95508H4.33612M4.33612 4.95508H4.33612M4.33612 4.95508H4.33612M4.33612 4.95508H4.33612M4.33612 4.95508H4.33612M4.33612 4.95508H4.33612M4.33612 4.95508H4.33612M4.33612 4.95508H4.33613M4.33612 4.95508H4.33613M4.33613 4.95508H4.33613M4.33613 4.95508H4.33613M4.33613 4.95508H4.33613M4.33613 4.95508H4.33613M4.33613 4.95508H4.33614M4.33613 4.95508H4.33614M4.33614 4.95508H4.33614M4.33614 4.95508H4.33614M4.33614 4.95508H4.33614M4.33614 4.95508H4.33614M4.33614 4.95508H4.33614M4.33614 4.95508H4.33614M4.33614 4.95508H4.33615M4.33614 4.95508H4.33615M4.33615 4.95508H4.33615M4.33615 4.95508H4.33615M4.33615 4.95508H4.33615M4.33615 4.95508H4.33615M4.33615 4.95508H4.33616M4.33615 4.95508H4.33616M4.33616 4.95508H4.33616M4.33616 4.95508H4.33616M4.33616 4.95508H4.33616M4.33616 4.95508H4.33616M4.33616 4.95508H4.33616M4.33616 4.95508H4.33616M4.33616 4.95508H4.33617M4.33616 4.95508H4.33617M4.33617 4.95508H4.33617M4.33617 4.95508H4.33617M4.33617 4.95508H4.33617M4.33617 4.95508H4.33617M4.33617 4.95508H4.33618M4.33617 4.95508H4.33618M4.33618 4.95508H4.33618M4.33618 4.95508H4.33618M4.33618 4.95508H4.33618M4.33618 4.95508H4.33618M4.33618 4.95508H4.33618M4.33618 4.95508H4.33618M4.33618 4.95508H4.33619M4.33618 4.95508H4.33619M4.33619 4.95508H4.33619M4.33619 4.95508H4.33619M4.33619 4.95508H4.33619M4.33619 4.95508H4.33619M4.33619 4.95508H4.3362M4.33619 4.95508H4.3362M4.3362 4.95508H4.3362M4.3362 4.95508H4.3362M4.3362 4.95508H4.3362M4.3362 4.95508H4.3362M4.3362 4.95508H4.3362M4.3362 4.95508H4.3362M4.3362 4.95508H4.33621M4.3362 4.95508H4.33621M4.33621 4.95508H4.33621M4.33621 4.95508H4.33621M4.33621 4.95508H4.33621M4.33621 4.95508H4.33621M4.33621 4.95508H4.33622M4.33621 4.95508H4.33622M4.33622 4.95508H4.33622M4.33622 4.95508H4.33622M4.33622 4.95508H4.33622M4.33622 4.95508H4.33622M4.33622 4.95508H4.33622M4.33622 4.95508H4.33622M4.33622 4.95508H4.33623M4.33622 4.95508H4.33623M4.33623 4.95508H4.33623M4.33623 4.95508H4.33623M4.33623 4.95508H4.33623M4.33623 4.95508H4.33623M4.33623 4.95508H4.33624M4.33623 4.95508H4.33624M4.33624 4.95508H4.33624M4.33624 4.95508H4.33624M4.33624 4.95508H4.33624M4.33624 4.95508H4.33624M4.33624 4.95508H4.33625M4.33624 4.95508H4.33625M4.33625 4.95508H4.33625M4.33625 4.95508H4.33625M4.33625 4.95508H4.33625M4.33625 4.95508H4.33625M4.33625 4.95508H4.33625M4.33625 4.95508H4.33625M4.33625 4.95508H4.33626M4.33625 4.95508H4.33626M4.33626 4.95508H4.33626M4.33626 4.95508H4.33626M4.33626 4.95508H4.33626M4.33626 4.95508H4.33626M4.33626 4.95508H4.33627M4.33626 4.95508H4.33627M4.33627 4.95508H4.33627M4.33627 4.95508H4.33627M4.33627 4.95508H4.33627M4.33627 4.95508H4.33627M4.33627 4.95508H4.33627M4.33627 4.95508H4.33627M4.33627 4.95508H4.33628M4.33627 4.95508H4.33628M4.33628 4.95508H4.33628M4.33628 4.95508H4.33628M4.33628 4.95508H4.33628M4.33628 4.95508H4.33628M4.33628 4.95508H4.33628M4.33628 4.95508H4.33628M4.33628 4.95508C5.74019 4.95845 8.09373 5.29155 9.30054 7.23473C9.30217 7.23736 9.30979 7.25188 9.30979 7.28187V15.8142C7.62417 14.6004 5.58576 14.3834 4.34058 14.3804C4.27561 14.3802 4.2251 14.3269 4.2251 14.2671V5.06853C4.2251 5.03658 4.23648 5.00936 4.25876 4.98714L4.33628 4.95508Z" fill="#6166AE" stroke="#6166AE"/>
<path d="M16.8468 14.2672V5.06853C16.8468 4.90391 16.7827 4.74928 16.6663 4.63315C16.5511 4.51828 16.3985 4.45508 16.2366 4.45508C16.236 4.45508 16.2355 4.45508 16.2351 4.45508C14.804 4.45848 12.2011 4.78991 10.8465 6.97128C10.7914 7.06017 10.7622 7.16758 10.7622 7.28193V16.9085C12.4125 15.1814 14.8048 14.8838 16.2327 14.8804C16.5713 14.8795 16.8468 14.6044 16.8468 14.2672Z" fill="#6166AE"/>
<path d="M18.2441 6.57617H17.7993V14.2669C17.7993 15.1281 17.0976 15.8304 16.235 15.8325C15.0239 15.8354 13.0269 16.0722 11.6125 17.4108C14.0586 16.8119 16.6372 17.2013 18.1068 17.5362C18.2903 17.5779 18.4799 17.5348 18.6269 17.4176C18.7734 17.3007 18.8574 17.126 18.8574 16.9385V7.18951C18.8575 6.85132 18.5823 6.57617 18.2441 6.57617Z" fill="#6166AE"/>
<path d="M2.77248 14.2669V6.57617H2.32769C1.98957 6.57617 1.71436 6.85132 1.71436 7.18951V16.9383C1.71436 17.1259 1.7984 17.3005 1.94489 17.4174C2.09179 17.5345 2.28123 17.5779 2.46501 17.536C3.93456 17.201 6.51322 16.8118 8.95917 17.4107C7.54491 16.0721 5.5479 15.8354 4.33676 15.8325C3.47425 15.8304 2.77248 15.1281 2.77248 14.2669Z" fill="#6166AE"/>
</svg>
