<svg width="24" height="24" viewBox="0 0 24 24" fill="none" xmlns="http://www.w3.org/2000/svg">
<g clip-path="url(#clip0_15474_20636)">
<path d="M23.729 15.1027C23.729 15.2135 23.6401 15.3009 23.5312 15.3009C23.5311 15.3009 23.531 15.3009 23.5309 15.3009C23.4939 15.3008 23.446 15.2863 23.4042 15.2467C23.3984 15.2412 23.3929 15.2354 23.3878 15.2294L23.5153 15.1027L23.5309 15.0871L23.5312 15.0868L23.5326 15.0854H23.7282C23.7287 15.0915 23.729 15.0973 23.729 15.1027ZM23.5133 15.1027L23.3872 15.2287C23.3571 15.1929 23.3382 15.1478 23.3343 15.1027C23.3338 15.0969 23.3335 15.0912 23.3335 15.0854H23.5305L23.5133 15.1027ZM23.5336 15.0845L23.6721 14.9468C23.6733 14.9479 23.6903 14.9655 23.706 15.0005C23.7194 15.0303 23.7261 15.06 23.7282 15.0849L23.5336 15.0845ZM23.5315 15.0845L23.5312 15.0845L23.5309 15.0845L23.3335 15.084C23.3336 15.0256 23.36 14.9653 23.4041 14.9236C23.445 14.8848 23.492 14.87 23.529 14.8694C23.5295 14.8695 23.5301 14.8695 23.5309 14.8696C23.531 14.8696 23.5311 14.8697 23.5312 14.8697C23.5366 14.8704 23.5475 14.8723 23.5626 14.8773C23.5943 14.8879 23.6347 14.9093 23.6707 14.9453L23.5315 15.0845ZM23.5312 14.8694H23.5309C23.531 14.8694 23.5311 14.8694 23.5312 14.8694Z" stroke="#6166AE" stroke-width="1.33333"/>
<path d="M21.6563 14.5329L21.6567 14.5329C21.8078 14.5335 21.9509 14.5926 22.058 14.7C22.0581 14.7001 22.0581 14.7001 22.0582 14.7002L21.9873 14.7707C22.0759 14.8594 22.1246 14.9771 22.1246 15.1024L21.6563 14.5329ZM21.6563 14.5329L19.5836 14.5316L17.7471 11.3453L19.7382 7.90161L19.7382 7.90157M21.6563 14.5329L19.7382 7.90157M5.69985 5.27456C5.60008 5.09105 5.40809 4.97861 5.19983 4.97861C5.10503 4.97861 5.01115 5.00288 4.92784 5.04831L4.92774 5.04836C4.79468 5.1211 4.69735 5.24156 4.65453 5.38756L4.75049 5.41571L4.65459 5.38735C4.61151 5.53303 4.62805 5.68697 4.70076 5.82042L4.70083 5.82054L5.65366 7.56363L3.78623 10.794H0.469116C0.154768 10.794 -0.0998169 11.0489 -0.0998169 11.363C-0.0998169 11.6771 0.154768 11.9319 0.469116 11.9319H3.82311L5.62998 15.0701L4.5184 16.6726C4.43201 16.7969 4.3989 16.9494 4.42576 17.0984L4.42579 17.0986C4.453 17.2477 4.53647 17.3785 4.66112 17.465C4.75644 17.5315 4.86862 17.5672 4.98505 17.5672C5.17127 17.5672 5.34657 17.4765 5.45298 17.3232C5.45299 17.3231 5.453 17.3231 5.45301 17.3231L6.61294 15.653L10.2792 15.6555L12.1093 18.83L10.9815 20.6487L10.9815 20.6488C10.8167 20.9155 10.8989 21.2668 11.1655 21.432L11.1656 21.4321C11.2558 21.4877 11.3592 21.5173 11.4648 21.5173C11.6627 21.5173 11.8446 21.4166 11.9488 21.2482L5.612 5.32232M5.69985 5.27456L5.612 5.32232M5.69985 5.27456L5.69977 5.27441L5.612 5.32232M5.69985 5.27456L6.64774 7.01086M5.612 5.32232L6.58832 7.11071M6.64774 7.01086L6.58856 7.01071L6.58832 7.11071M6.64774 7.01086L10.2811 7.01973M6.64774 7.01086L6.67609 7.0628L6.58832 7.11071M6.58832 7.11071L10.2811 7.01973M10.2811 7.01973L12.2736 3.58059C12.3742 3.40648 12.5612 3.29166 12.7663 3.29166H12.7665L16.7795 3.29925L18.1481 1.1487L10.2811 7.01973ZM19.7382 7.90157C19.8399 7.72553 19.8402 7.50872 19.7386 7.33268C19.7386 7.33267 19.7386 7.33266 19.7386 7.33265L17.7554 3.89272L19.1091 1.75808L19.1091 1.75804M19.7382 7.90157L19.1091 1.75804M19.1091 1.75804C19.2773 1.49263 19.1987 1.14116 18.9332 0.972954M19.1091 1.75804L18.9332 0.972954M18.9332 0.972954C18.6679 0.804622 18.3166 0.883282 18.1482 1.14858L18.9332 0.972954ZM11.2703 7.59382L13.094 4.43945L16.7586 4.44176L18.5889 7.61638L16.765 10.7709L13.1004 10.7686L11.2703 7.59382ZM12.1015 11.3503L10.2698 14.5182L6.62121 14.5159L4.79089 11.3411L6.6253 8.16876L10.2684 8.17106L12.1015 11.3503ZM18.5889 15.0832L16.7545 18.2557L13.0901 18.2534L11.2679 15.0925L13.0997 11.9243L16.769 11.9266L18.5889 15.0832Z" fill="#6166AE" stroke="#6166AE" stroke-width="0.2"/>
<path d="M4.30225 4.37634H4.3028C4.38062 4.37634 4.45807 4.35327 4.52637 4.31573C4.6366 4.25568 4.71643 4.15533 4.75196 4.03522C4.78711 3.91473 4.77356 3.78748 4.7135 3.6778C4.63147 3.52673 4.47345 3.43262 4.30188 3.43262C4.22406 3.43262 4.14624 3.45221 4.07776 3.49011C3.96753 3.5498 3.88733 3.64905 3.85217 3.76898C3.81702 3.88947 3.83057 4.01892 3.89063 4.1286C3.97266 4.27966 4.13068 4.37634 4.30225 4.37634Z" fill="#6166AE"/>
<path d="M4.18321 18.1537C4.10448 18.0988 4.01201 18.0698 3.91588 18.0698C3.76207 18.0698 3.61815 18.1453 3.53044 18.2714C3.38323 18.4838 3.43578 18.7764 3.64818 18.9242C3.72692 18.9789 3.81938 19.0081 3.91551 19.0081C4.06932 19.0081 4.21324 18.9326 4.30095 18.8065C4.44817 18.5941 4.39562 18.3015 4.18321 18.1537Z" fill="#6166AE"/>
<path d="M10.7243 22.144C10.6498 22.0981 10.5645 22.0737 10.4777 22.0737C10.314 22.0737 10.1649 22.1569 10.0787 22.2955C10.0126 22.402 9.99189 22.528 10.0205 22.6501C10.0492 22.7719 10.1237 22.8755 10.2301 22.9413C10.3046 22.9871 10.3896 23.0116 10.4768 23.0116C10.6404 23.0116 10.7895 22.9285 10.8757 22.7899C10.9418 22.6833 10.9625 22.5577 10.934 22.4357C10.9049 22.3138 10.8307 22.2103 10.7243 22.144Z" fill="#6166AE"/>
<path d="M9.71285 0.948988L9.71318 0.949159C9.75687 0.972217 9.79298 1.00428 9.81721 1.04699C9.84112 1.08915 9.84945 1.13462 9.84945 1.17841V4.22784C9.84945 4.27254 9.83954 4.31753 9.81465 4.35898C9.78992 4.40016 9.75411 4.43168 9.71182 4.45555C9.63442 4.49925 9.55055 4.5201 9.45374 4.5201C9.35645 4.5201 9.26314 4.50035 9.18492 4.45496M9.71285 0.948988L9.18708 0.9491L9.23364 1.0376M9.71285 0.948988C9.63647 0.909031 9.55111 0.890723 9.45374 0.890723C9.35811 0.890723 9.26444 0.908385 9.18707 0.949106M9.71285 0.948988L9.13989 2.30704M9.18492 4.45496L9.23511 4.36847M9.18492 4.45496C9.18496 4.45499 9.185 4.45501 9.18504 4.45503L9.23511 4.36847M9.18492 4.45496C9.10691 4.4098 9.03989 4.3351 9.03989 4.22784V2.97598M9.23511 4.36847C9.1756 4.33405 9.13989 4.28717 9.13989 4.22784V2.97598H9.03989M9.23511 4.36847C9.29443 4.40289 9.36932 4.4201 9.45374 4.4201C9.53503 4.4201 9.60168 4.40289 9.66266 4.36847C9.72363 4.33405 9.74945 4.28717 9.74945 4.22784V1.17841C9.74945 1.11597 9.72583 1.06891 9.6665 1.0376C9.60699 1.00647 9.53815 0.990723 9.45374 0.990723C9.36932 0.990723 9.29279 1.00647 9.23364 1.0376M9.03989 2.97598V2.87598H8.20828V2.97598M9.03989 2.97598H8.20828M9.23364 1.0376C9.17413 1.06891 9.13989 1.11597 9.13989 1.17841V2.30704M9.23364 1.0376L9.18707 0.949106M9.13989 2.30704H9.03989M9.13989 2.30704L9.18707 0.949106M9.18707 0.949106C9.1026 0.993553 9.03989 1.07069 9.03989 1.17841V2.30704M9.03989 2.30704V2.40704L8.20828 2.97598M9.03989 2.30704H8.20846V1.17841C8.20846 1.06908 8.14236 0.992669 8.05992 0.949159L8.05971 0.949047C7.98245 0.908509 7.89041 0.890723 7.79443 0.890723C7.69676 0.890723 7.61289 0.909149 7.53685 0.949047L7.53675 0.9491C7.49334 0.971938 7.45702 1.00366 7.43236 1.04604C7.40789 1.08809 7.3989 1.13378 7.3989 1.17841L7.3989 4.22735C7.3989 4.22741 7.3989 4.22747 7.3989 4.22752V4.22766H7.4989M7.4989 4.22766C7.49872 4.28717 7.52234 4.33405 7.58185 4.36847M7.4989 4.22766V1.17841C7.4989 1.11597 7.5238 1.06891 7.58331 1.0376L7.4989 4.22766ZM7.58185 4.36847L7.53166 4.45496C7.5317 4.45499 7.53174 4.45501 7.53178 4.45503C7.60894 4.49978 7.69575 4.5201 7.79443 4.5201C7.88899 4.5201 7.98258 4.5002 8.06149 4.45555C8.06153 4.45553 8.06157 4.45551 8.0616 4.45549L8.01233 4.36847M7.58185 4.36847C7.64117 4.40289 7.71002 4.4201 7.79443 4.4201C7.87573 4.4201 7.95154 4.40289 8.01233 4.36847M7.58185 4.36847H8.01233M8.01233 4.36847C8.0733 4.33405 8.10828 4.28717 8.10828 4.22784V2.97598H8.20828M20.9623 11.2754V12.5311C20.9623 12.636 20.9013 12.7119 20.8179 12.759C20.7393 12.8034 20.6482 12.8236 20.5532 12.8236C20.4547 12.8236 20.3663 12.8034 20.2887 12.7585L20.2886 12.7584C20.2475 12.7345 20.2123 12.7032 20.1878 12.6624C20.1631 12.6214 20.1527 12.5765 20.1527 12.5311V9.48187C20.1527 9.43559 20.1631 9.38953 20.1885 9.34782C20.2138 9.3062 20.2503 9.27514 20.293 9.25275C20.293 9.25273 20.293 9.25272 20.2931 9.2527L20.9623 11.2754ZM20.9623 11.2754H21.7939V12.5313C21.7939 12.6414 21.8675 12.7153 21.9419 12.7584L21.942 12.7585C22.0206 12.8039 22.1154 12.8236 22.2125 12.8236C22.3096 12.8236 22.3912 12.8025 22.468 12.759M20.9623 11.2754L22.4682 12.759C22.4681 12.759 22.4681 12.759 22.468 12.759M21.9435 9.25264C21.8612 9.29568 21.7939 9.37196 21.7939 9.48187V10.6065H20.9623V9.48187C20.9623 9.37599 20.9032 9.29801 20.8169 9.25275H22.4702M21.9435 9.25264L21.9899 9.34125L21.9432 9.25281C21.9433 9.25275 21.9434 9.2527 21.9435 9.25264ZM21.9435 9.25264C22.0214 9.21165 22.1173 9.19419 22.2123 9.19419C22.31 9.19419 22.394 9.21263 22.4702 9.25275M22.4702 9.25275C22.5149 9.2762 22.5507 9.30907 22.574 9.35267C22.5967 9.39511 22.6035 9.44016 22.6035 9.48187V12.5313C22.6035 12.5745 22.5948 12.6192 22.5707 12.6609C22.5465 12.7027 22.5109 12.7348 22.468 12.759M22.4702 9.25275L22.468 12.759M2.65228 15.6086C2.66162 15.4804 2.76178 15.4163 2.95258 15.4163C3.06207 15.4163 3.14117 15.4376 3.1897 15.4797L2.65228 15.6086ZM2.65228 15.6086C2.64917 15.6743 2.64203 15.73 2.63123 15.7752M2.65228 15.6086L2.63123 15.7752M2.52704 13.8423L2.45454 13.9112C2.47561 13.9334 2.49452 13.9629 2.51153 14.0031C2.53039 14.0486 2.53914 14.0789 2.54192 14.0969L2.542 14.0974C2.54606 14.1229 2.54942 14.1543 2.55239 14.1926C2.55546 14.2862 2.59699 14.3653 2.67749 14.4161C2.75167 14.4629 2.84944 14.4796 2.95715 14.4796C3.07467 14.4796 3.18398 14.4579 3.2587 14.3905C3.33857 14.3184 3.36202 14.2017 3.36202 14.0793C3.36202 13.7804 3.24438 13.5352 3.0116 13.3532C2.78211 13.1738 2.49075 13.0879 2.14545 13.0879C1.80409 13.0879 1.52467 13.1807 1.30305 13.3727L1.30301 13.3728C1.07241 13.5728 0.974829 13.8779 0.974829 14.2622V15.5712C0.974829 15.9553 1.07156 16.2604 1.30054 16.4604L1.30054 16.4604C1.52085 16.6529 1.80295 16.7455 2.14417 16.7455C2.49312 16.7455 2.78506 16.6561 3.01468 16.4697C3.24757 16.2807 3.36294 16.0262 3.36294 15.7166C3.36294 15.593 3.33768 15.476 3.25541 15.4043L3.25524 15.4042C3.17955 15.3385 3.07076 15.3163 2.95258 15.3163C2.84859 15.3163 2.75364 15.3333 2.68047 15.3802C2.60147 15.4307 2.55929 15.5087 2.55255 15.6013L2.55251 15.6013L2.55239 15.6039C2.54948 15.6655 2.54289 15.7146 2.53396 15.752L2.63123 15.7752M2.52704 13.8423L2.45473 13.9114C2.43688 13.8927 2.40615 13.8715 2.35283 13.8516C2.30351 13.8331 2.24562 13.8228 2.17072 13.8228C2.02439 13.8228 1.9344 13.8624 1.87891 13.9244C1.82148 13.9886 1.78449 14.0949 1.78457 14.2623L1.78457 14.2624V15.5712C1.78457 15.7383 1.82215 15.8443 1.88066 15.9084C1.93754 15.9707 2.03005 16.0107 2.18005 16.0107C2.26944 16.0107 2.33155 15.9969 2.38245 15.9731C2.43259 15.9498 2.46302 15.9197 2.48108 15.8845C2.50854 15.8309 2.5255 15.7869 2.53403 15.7517L2.63123 15.7752M2.52704 13.8423C2.55835 13.8753 2.58325 13.916 2.60376 13.9645L2.17072 13.7228C2.25513 13.7228 2.32526 13.7345 2.38788 13.7579C2.4505 13.7814 2.49573 13.8096 2.52704 13.8423Z" fill="#6166AE" stroke="#6166AE" stroke-width="0.2"/>
</g>
<defs>
<clipPath id="clip0_15474_20636">
<rect width="24" height="24" fill="white"/>
</clipPath>
</defs>
</svg>
