<svg width="30" height="30" viewBox="0 0 30 30" fill="none" xmlns="http://www.w3.org/2000/svg">
<path d="M22.9906 2.63958H7.10561C6.31849 2.63958 5.67813 3.28886 5.67813 4.08685V25.2712C5.67813 26.0692 6.31849 26.7185 7.10561 26.7185H22.9906C23.7778 26.7185 24.4181 26.0692 24.4181 25.2712V4.08685C24.4181 3.28886 23.7778 2.63958 22.9906 2.63958ZM23.4904 25.2712C23.4904 25.5506 23.2662 25.7779 22.9906 25.7779H7.10561C6.83003 25.7779 6.60585 25.5506 6.60585 25.2712V4.08685C6.60585 3.80745 6.83003 3.58016 7.10561 3.58016H22.9906C23.2662 3.58016 23.4904 3.80745 23.4904 4.08685V25.2712Z" fill="#6166AE"/>
<path fill-rule="evenodd" clip-rule="evenodd" d="M5.5 4.08685C5.5 3.18913 6.22011 2.45898 7.10561 2.45898H22.9906C23.8762 2.45898 24.5963 3.18913 24.5963 4.08685V25.2712C24.5963 26.169 23.8762 26.8991 22.9906 26.8991H7.10561C6.2201 26.8991 5.5 26.1689 5.5 25.2712V4.08685ZM7.10561 2.82017C6.41687 2.82017 5.85625 3.3886 5.85625 4.08685V25.2712C5.85625 25.9695 6.41687 26.5379 7.10561 26.5379H22.9906C23.6794 26.5379 24.24 25.9695 24.24 25.2712V4.08685C24.24 3.3886 23.6794 2.82017 22.9906 2.82017H7.10561ZM7.10561 3.76076C6.92841 3.76076 6.78397 3.90719 6.78397 4.08685V25.2712C6.78397 25.4509 6.92841 25.5973 7.10561 25.5973H22.9906C23.1679 25.5973 23.3123 25.4509 23.3123 25.2712V4.08685C23.3123 3.90719 23.1679 3.76076 22.9906 3.76076H7.10561ZM6.42772 4.08685C6.42772 3.70771 6.73166 3.39957 7.10561 3.39957H22.9906C23.3646 3.39957 23.6685 3.70771 23.6685 4.08685V25.2712C23.6685 25.6504 23.3646 25.9585 22.9906 25.9585H7.10561C6.73166 25.9585 6.42772 25.6504 6.42772 25.2712V4.08685Z" fill="#6166AE"/>
<path d="M21.4495 9.31765H14.5843C14.3282 9.31765 14.1205 9.52824 14.1205 9.78794C14.1205 10.0476 14.3282 10.2582 14.5843 10.2582H21.4495C21.7057 10.2582 21.9134 10.0476 21.9134 9.78794C21.9134 9.52824 21.7057 9.31765 21.4495 9.31765Z" fill="#6166AE"/>
<path fill-rule="evenodd" clip-rule="evenodd" d="M13.9424 9.78794C13.9424 9.42852 14.2298 9.13705 14.5843 9.13705H21.4495C21.8041 9.13705 22.0915 9.42852 22.0915 9.78794C22.0915 10.1474 21.8041 10.4388 21.4495 10.4388H14.5843C14.2298 10.4388 13.9424 10.1474 13.9424 9.78794ZM14.5843 9.49824C14.4265 9.49824 14.2986 9.62797 14.2986 9.78794C14.2986 9.94791 14.4265 10.0776 14.5843 10.0776H21.4495C21.6073 10.0776 21.7352 9.94791 21.7352 9.78794C21.7352 9.62797 21.6073 9.49824 21.4495 9.49824H14.5843Z" fill="#6166AE"/>
<path d="M14.5843 7.24856H17.655C17.9112 7.24856 18.1188 7.03796 18.1188 6.77826C18.1188 6.51857 17.9112 6.30797 17.655 6.30797H14.5843C14.3282 6.30797 14.1205 6.51857 14.1205 6.77826C14.1205 7.03796 14.3282 7.24856 14.5843 7.24856Z" fill="#6166AE"/>
<path fill-rule="evenodd" clip-rule="evenodd" d="M13.9424 6.77826C13.9424 6.41884 14.2298 6.12738 14.5843 6.12738H17.655C18.0095 6.12738 18.297 6.41884 18.297 6.77826C18.297 7.13769 18.0095 7.42915 17.655 7.42915H14.5843C14.2298 7.42915 13.9424 7.13769 13.9424 6.77826ZM14.5843 6.48857C14.4265 6.48857 14.2986 6.6183 14.2986 6.77826C14.2986 6.93823 14.4265 7.06796 14.5843 7.06796H17.655C17.8128 7.06796 17.9407 6.93823 17.9407 6.77826C17.9407 6.6183 17.8128 6.48857 17.655 6.48857H14.5843Z" fill="#6166AE"/>
<path d="M21.4493 6.30797H19.7948C19.5386 6.30797 19.331 6.51857 19.331 6.77826C19.331 7.03796 19.5386 7.24856 19.7948 7.24856H21.4493C21.7055 7.24856 21.9131 7.03796 21.9131 6.77826C21.9131 6.51857 21.7055 6.30797 21.4493 6.30797Z" fill="#6166AE"/>
<path fill-rule="evenodd" clip-rule="evenodd" d="M19.1528 6.77826C19.1528 6.41884 19.4403 6.12738 19.7948 6.12738H21.4493C21.8039 6.12738 22.0913 6.41884 22.0913 6.77826C22.0913 7.13769 21.8039 7.42915 21.4493 7.42915H19.7948C19.4403 7.42915 19.1528 7.13769 19.1528 6.77826ZM19.7948 6.48857C19.637 6.48857 19.5091 6.6183 19.5091 6.77826C19.5091 6.93823 19.637 7.06796 19.7948 7.06796H21.4493C21.6071 7.06796 21.735 6.93823 21.735 6.77826C21.735 6.6183 21.6071 6.48857 21.4493 6.48857H19.7948Z" fill="#6166AE"/>
<path d="M21.4495 15.7136H14.5843C14.3282 15.7136 14.1205 15.9242 14.1205 16.1839C14.1205 16.4436 14.3282 16.6542 14.5843 16.6542H21.4495C21.7057 16.6542 21.9134 16.4436 21.9134 16.1839C21.9134 15.9242 21.7057 15.7136 21.4495 15.7136Z" fill="#6166AE"/>
<path fill-rule="evenodd" clip-rule="evenodd" d="M13.9424 16.1839C13.9424 15.8245 14.2298 15.533 14.5843 15.533H21.4495C21.8041 15.533 22.0915 15.8245 22.0915 16.1839C22.0915 16.5433 21.8041 16.8348 21.4495 16.8348H14.5843C14.2298 16.8348 13.9424 16.5433 13.9424 16.1839ZM14.5843 15.8942C14.4265 15.8942 14.2986 16.0239 14.2986 16.1839C14.2986 16.3439 14.4265 16.4736 14.5843 16.4736H21.4495C21.6073 16.4736 21.7352 16.3439 21.7352 16.1839C21.7352 16.0239 21.6073 15.8942 21.4495 15.8942H14.5843Z" fill="#6166AE"/>
<path d="M14.5843 13.6445H17.655C17.9112 13.6445 18.1188 13.4339 18.1188 13.1742C18.1188 12.9145 17.9112 12.704 17.655 12.704H14.5843C14.3282 12.704 14.1205 12.9145 14.1205 13.1742C14.1205 13.4339 14.3282 13.6445 14.5843 13.6445Z" fill="#6166AE"/>
<path fill-rule="evenodd" clip-rule="evenodd" d="M13.9424 13.1742C13.9424 12.8148 14.2298 12.5234 14.5843 12.5234H17.655C18.0095 12.5234 18.297 12.8148 18.297 13.1742C18.297 13.5337 18.0095 13.8251 17.655 13.8251H14.5843C14.2298 13.8251 13.9424 13.5337 13.9424 13.1742ZM14.5843 12.8845C14.4265 12.8845 14.2986 13.0143 14.2986 13.1742C14.2986 13.3342 14.4265 13.4639 14.5843 13.4639H17.655C17.8128 13.4639 17.9407 13.3342 17.9407 13.1742C17.9407 13.0143 17.8128 12.8845 17.655 12.8845H14.5843Z" fill="#6166AE"/>
<path d="M21.4493 12.704H19.7948C19.5386 12.704 19.331 12.9145 19.331 13.1742C19.331 13.4339 19.5386 13.6445 19.7948 13.6445H21.4493C21.7055 13.6445 21.9131 13.4339 21.9131 13.1742C21.9131 12.9145 21.7055 12.704 21.4493 12.704Z" fill="#6166AE"/>
<path fill-rule="evenodd" clip-rule="evenodd" d="M19.1528 13.1742C19.1528 12.8148 19.4403 12.5234 19.7948 12.5234H21.4493C21.8039 12.5234 22.0913 12.8148 22.0913 13.1742C22.0913 13.5337 21.8039 13.8251 21.4493 13.8251H19.7948C19.4403 13.8251 19.1528 13.5337 19.1528 13.1742ZM19.7948 12.8845C19.637 12.8845 19.5091 13.0143 19.5091 13.1742C19.5091 13.3342 19.637 13.4639 19.7948 13.4639H21.4493C21.6071 13.4639 21.735 13.3342 21.735 13.1742C21.735 13.0143 21.6071 12.8845 21.4493 12.8845H19.7948Z" fill="#6166AE"/>
<path d="M21.4495 22.1096H14.5843C14.3282 22.1096 14.1205 22.3202 14.1205 22.5799C14.1205 22.8396 14.3282 23.0502 14.5843 23.0502H21.4495C21.7057 23.0502 21.9134 22.8396 21.9134 22.5799C21.9134 22.3202 21.7057 22.1096 21.4495 22.1096Z" fill="#6166AE"/>
<path fill-rule="evenodd" clip-rule="evenodd" d="M13.9424 22.5799C13.9424 22.2205 14.2298 21.929 14.5843 21.929H21.4495C21.8041 21.929 22.0915 22.2205 22.0915 22.5799C22.0915 22.9393 21.8041 23.2308 21.4495 23.2308H14.5843C14.2298 23.2308 13.9424 22.9393 13.9424 22.5799ZM14.5843 22.2902C14.4265 22.2902 14.2986 22.4199 14.2986 22.5799C14.2986 22.7399 14.4265 22.8696 14.5843 22.8696H21.4495C21.6073 22.8696 21.7352 22.7399 21.7352 22.5799C21.7352 22.4199 21.6073 22.2902 21.4495 22.2902H14.5843Z" fill="#6166AE"/>
<path d="M14.5843 20.0405H17.655C17.9112 20.0405 18.1188 19.8299 18.1188 19.5702C18.1188 19.3105 17.9112 19.0999 17.655 19.0999H14.5843C14.3282 19.0999 14.1205 19.3105 14.1205 19.5702C14.1205 19.8299 14.3282 20.0405 14.5843 20.0405Z" fill="#6166AE"/>
<path fill-rule="evenodd" clip-rule="evenodd" d="M13.9424 19.5702C13.9424 19.2108 14.2298 18.9193 14.5843 18.9193H17.655C18.0095 18.9193 18.297 19.2108 18.297 19.5702C18.297 19.9296 18.0095 20.2211 17.655 20.2211H14.5843C14.2298 20.2211 13.9424 19.9296 13.9424 19.5702ZM14.5843 19.2805C14.4265 19.2805 14.2986 19.4103 14.2986 19.5702C14.2986 19.7302 14.4265 19.8599 14.5843 19.8599H17.655C17.8128 19.8599 17.9407 19.7302 17.9407 19.5702C17.9407 19.4103 17.8128 19.2805 17.655 19.2805H14.5843Z" fill="#6166AE"/>
<path d="M21.4493 19.0999H19.7948C19.5386 19.0999 19.331 19.3105 19.331 19.5702C19.331 19.8299 19.5386 20.0405 19.7948 20.0405H21.4493C21.7055 20.0405 21.9131 19.8299 21.9131 19.5702C21.9131 19.3105 21.7055 19.0999 21.4493 19.0999Z" fill="#6166AE"/>
<path fill-rule="evenodd" clip-rule="evenodd" d="M19.1528 19.5702C19.1528 19.2108 19.4403 18.9193 19.7948 18.9193H21.4493C21.8039 18.9193 22.0913 19.2108 22.0913 19.5702C22.0913 19.9296 21.8039 20.2211 21.4493 20.2211H19.7948C19.4403 20.2211 19.1528 19.9296 19.1528 19.5702ZM19.7948 19.2805C19.637 19.2805 19.5091 19.4103 19.5091 19.5702C19.5091 19.7302 19.637 19.8599 19.7948 19.8599H21.4493C21.6071 19.8599 21.735 19.7302 21.735 19.5702C21.735 19.4103 21.6071 19.2805 21.4493 19.2805H19.7948Z" fill="#6166AE"/>
<path d="M11.2887 7.42933L10.8751 7.84863L10.6786 8.04787L10.2986 8.43306L9.6182 9.12294L9.19001 8.68882L8.97594 8.47178C8.96652 8.46223 8.9568 8.45319 8.94681 8.44463C8.76457 8.28867 8.49166 8.29772 8.3199 8.47178C8.13876 8.65542 8.13876 8.95321 8.3199 9.13691L9.29015 10.1206C9.38075 10.2124 9.49945 10.2584 9.61815 10.2584C9.73685 10.2584 9.8556 10.2124 9.94615 10.1206L11.9446 8.09446C12.1257 7.91081 12.1257 7.61302 11.9446 7.42933C11.9349 7.41946 11.9248 7.41012 11.9145 7.40132C11.8546 7.3503 11.7849 7.31708 11.7123 7.30164C11.6493 7.28824 11.5841 7.28824 11.521 7.30164C11.4359 7.31974 11.3548 7.3623 11.2887 7.42933Z" fill="#6166AE"/>
<path d="M11.9434 12.8417C11.7623 12.6581 11.4686 12.6581 11.2874 12.8417L11.1614 12.9694L10.1311 14.014L9.10071 12.9694L8.97472 12.8417C8.79358 12.6581 8.49986 12.6581 8.31868 12.8417C8.13754 13.0253 8.13754 13.3231 8.31868 13.5068L9.47504 14.6792L8.31868 15.8516C8.13754 16.0352 8.13754 16.333 8.31868 16.5167C8.40927 16.6085 8.52802 16.6544 8.64672 16.6544C8.76543 16.6544 8.88417 16.6085 8.97472 16.5167L10.1311 15.3443L11.2874 16.5167C11.378 16.6085 11.4967 16.6544 11.6154 16.6544C11.7341 16.6544 11.8529 16.6085 11.9434 16.5167C12.1246 16.333 12.1246 16.0353 11.9434 15.8516L10.7871 14.6792L11.9435 13.5068C12.1246 13.3231 12.1246 13.0253 11.9434 12.8417Z" fill="#6166AE"/>
<path d="M11.9434 19.2377C11.7623 19.0541 11.4686 19.0541 11.2874 19.2377L11.1614 19.3654L10.1311 20.41L9.10071 19.3654L8.97472 19.2376C8.79358 19.054 8.49986 19.054 8.31868 19.2376C8.13754 19.4213 8.13754 19.7191 8.31868 19.9028L9.47504 21.0752L8.31868 22.2475C8.13754 22.4312 8.13754 22.729 8.31868 22.9127C8.40927 23.0044 8.52802 23.0504 8.64672 23.0504C8.76543 23.0504 8.88417 23.0044 8.97472 22.9126L10.1311 21.7403L11.2874 22.9127C11.378 23.0045 11.4967 23.0504 11.6154 23.0504C11.7341 23.0504 11.8529 23.0045 11.9434 22.9127C12.1246 22.729 12.1246 22.4312 11.9434 22.2475L10.7871 21.0752L11.9435 19.9028C12.1246 19.7191 12.1246 19.4213 11.9434 19.2377Z" fill="#6166AE"/>
<path fill-rule="evenodd" clip-rule="evenodd" d="M11.8175 19.3654L11.4133 19.3654C11.525 19.2523 11.7059 19.2523 11.8175 19.3654ZM9.72695 21.0752L8.44465 19.7751L11.8175 22.3752C11.9291 22.4884 11.929 22.6719 11.8175 22.785C11.7617 22.8416 11.6888 22.8698 11.6154 22.8698C11.5421 22.8698 11.4692 22.8416 11.4134 22.7849L10.1311 21.4849L8.84877 22.7849C8.79296 22.8415 8.7201 22.8698 8.64672 22.8698C8.57338 22.8698 8.50052 22.8415 8.44465 22.785C8.33304 22.6718 8.33307 22.4884 8.44463 22.3752L9.72695 21.0752Z" fill="#6166AE"/>
<path fill-rule="evenodd" clip-rule="evenodd" d="M8.4446 12.9694C8.55624 12.8563 8.73721 12.8563 8.84877 12.9694L8.4446 12.9694ZM11.8175 12.9694L11.4133 12.9694C11.5249 12.8563 11.7059 12.8563 11.8175 12.9694Z" fill="#6166AE"/>
<path d="M10.8751 7.84863L11.2887 7.42933C11.3548 7.3623 11.4359 7.31974 11.521 7.30164L11.1627 7.30163L10.5127 7.96064L10.8751 7.84863Z" fill="#6166AE"/>
<path d="M10.6786 8.04787L10.3301 8.19792L10.2407 8.23641L9.6182 8.86754L10.0047 8.62078L10.2986 8.43306L10.6786 8.04787Z" fill="#6166AE"/>
<path d="M8.3199 9.13691C8.13876 8.95321 8.13876 8.65542 8.3199 8.47178C8.49166 8.29772 8.76457 8.28867 8.94681 8.44463L9.14167 8.38441L9.10189 8.34408C8.85118 8.08996 8.4447 8.08997 8.19397 8.34404C7.94327 8.59823 7.94326 9.01038 8.19393 9.26459L9.1642 10.2483C9.2895 10.3753 9.4541 10.439 9.61815 10.439C9.78217 10.439 9.94682 10.3753 10.0721 10.2483L12.0706 8.22216C12.3213 7.96798 12.3212 7.55586 12.0706 7.30165L11.9145 7.40132C11.9248 7.41012 11.9349 7.41946 11.9446 7.42933C12.1257 7.61302 12.1257 7.91081 11.9446 8.09446L9.94615 10.1206C9.8556 10.2124 9.73685 10.2584 9.61815 10.2584C9.49945 10.2584 9.38075 10.2124 9.29015 10.1206L8.3199 9.13691Z" fill="#6166AE"/>
<path d="M10.8751 7.84863L10.5127 7.96064L10.3301 8.19792L10.6786 8.04787L10.8751 7.84863Z" fill="#6166AE"/>
<path d="M12.0706 7.30165C11.8199 7.04742 11.4134 7.04748 11.1627 7.30163L11.521 7.30164C11.5841 7.28824 11.6493 7.28824 11.7123 7.30164L12.0706 7.30165Z" fill="#6166AE"/>
<path d="M11.9145 7.40132L12.0706 7.30165L11.7123 7.30164C11.7849 7.31708 11.8546 7.3503 11.9145 7.40132Z" fill="#6166AE"/>
<path d="M9.6182 9.12294L10.2986 8.43306L10.0047 8.62078L9.6182 9.12294Z" fill="#6166AE"/>
<path d="M9.19001 8.68882L9.6182 9.12294L9.30589 8.63892L9.19001 8.68882Z" fill="#6166AE"/>
<path d="M11.2874 19.2377C11.4686 19.0541 11.7623 19.0541 11.9434 19.2377C12.1246 19.4213 12.1246 19.7191 11.9435 19.9028L10.7871 21.0752L11.9434 22.2475C12.1246 22.4312 12.1246 22.729 11.9434 22.9127C11.8529 23.0045 11.7341 23.0504 11.6154 23.0504C11.4967 23.0504 11.378 23.0045 11.2874 22.9127L10.1311 21.7403L8.97472 22.9126C8.88417 23.0044 8.76543 23.0504 8.64672 23.0504C8.52802 23.0504 8.40927 23.0044 8.31868 22.9127C8.13754 22.729 8.13754 22.4312 8.31868 22.2475L9.47504 21.0752L8.31868 19.9028C8.13754 19.7191 8.13754 19.4213 8.31868 19.2376C8.49986 19.054 8.79358 19.054 8.97472 19.2376L9.10071 19.3654H9.35262L9.10066 19.1099C8.84995 18.8558 8.44349 18.8558 8.19276 19.1099C7.94205 19.3641 7.94206 19.7763 8.19273 20.0305L9.22313 21.0752L8.19273 22.1198C7.94202 22.374 7.94212 22.7862 8.19279 23.0404C8.31809 23.1674 8.4827 23.231 8.64672 23.231C8.81075 23.231 8.97539 23.1674 9.10067 23.0403L10.1311 21.9957L11.1615 23.0404C11.2868 23.1674 11.4514 23.231 11.6154 23.231C11.7795 23.231 11.9441 23.1674 12.0694 23.0404C12.3201 22.7862 12.3201 22.3741 12.0694 22.1198L11.039 21.0752L12.0694 20.0304C12.3201 19.7763 12.3201 19.3641 12.0694 19.11C11.8187 18.8558 11.4122 18.8559 11.1614 19.11L10.1311 20.1546L9.35262 19.3654H9.10071L10.1311 20.41L11.1614 19.3654L11.2874 19.2377Z" fill="#6166AE"/>
<path d="M11.2874 12.8417C11.4686 12.6581 11.7623 12.6581 11.9434 12.8417C12.1246 13.0253 12.1246 13.3231 11.9435 13.5068L10.7871 14.6792L11.9434 15.8516C12.1246 16.0353 12.1246 16.333 11.9434 16.5167C11.8529 16.6085 11.7341 16.6544 11.6154 16.6544C11.4967 16.6544 11.378 16.6085 11.2874 16.5167L10.1311 15.3443L8.97472 16.5167C8.88417 16.6085 8.76543 16.6544 8.64672 16.6544C8.52802 16.6544 8.40927 16.6085 8.31868 16.5167C8.13754 16.333 8.13754 16.0352 8.31868 15.8516L9.47504 14.6792L8.31868 13.5068C8.13754 13.3231 8.13754 13.0253 8.31868 12.8417C8.49986 12.6581 8.79358 12.6581 8.97472 12.8417L9.10071 12.9694L10.1311 14.014L11.1614 12.9694L10.9095 12.9694L10.1311 13.7586L9.10066 12.7139C8.84995 12.4598 8.44349 12.4598 8.19276 12.7139C7.94205 12.9681 7.94206 13.3803 8.19273 13.6345L9.22313 14.6792L8.19273 15.7239C7.94202 15.9781 7.94212 16.3903 8.19279 16.6445C8.31809 16.7714 8.4827 16.835 8.64672 16.835C8.81075 16.835 8.97539 16.7714 9.10067 16.6444L10.1311 15.5997L11.1615 16.6444C11.2868 16.7714 11.4514 16.835 11.6154 16.835C11.7795 16.835 11.9441 16.7714 12.0694 16.6444C12.3201 16.3902 12.3201 15.9781 12.0694 15.7239L11.039 14.6792L12.0694 13.6345C12.3201 13.3803 12.3201 12.9682 12.0694 12.714C11.8187 12.4599 11.4122 12.4599 11.1614 12.714L10.9095 12.9694L11.1614 12.9694L11.2874 12.8417Z" fill="#6166AE"/>
<path d="M10.5127 7.96064L10.2407 8.23641L10.3301 8.19792L10.5127 7.96064Z" fill="#6166AE"/>
<path d="M8.97594 8.47178L9.19001 8.68882L9.30589 8.63892L9.14167 8.38441L8.94681 8.44463C8.9568 8.45319 8.96652 8.46223 8.97594 8.47178Z" fill="#6166AE"/>
<path d="M10.0047 8.62078L9.6182 8.86754L9.14167 8.38441L9.30589 8.63892L9.6182 9.12294L10.0047 8.62078Z" fill="#6166AE"/>
</svg>
