<svg width="52" height="52" viewBox="0 0 52 52" fill="none" xmlns="http://www.w3.org/2000/svg">
<rect opacity="0.1" width="52" height="52" rx="8" fill="#1445A1"/>
<path d="M36.7741 14H24.5592C23.1457 14 22 15.1311 22 16.5262V22.4655C22.6457 22.7823 23.3434 23.1248 23.9946 23.4443L24.9909 21.4765C25.5942 20.2866 27.0648 19.8031 28.2698 20.3976C29.4774 20.9941 29.9668 22.4418 29.3622 23.634L27.5862 27.1413C27.6333 27.6055 27.5915 28.0734 27.4589 28.5263H28.6315L25.5388 36.921C25.3553 37.419 25.71 38 26.3045 38C26.6369 38 26.9496 37.7975 27.0697 37.4705L30.3647 28.5263H30.9355L34.2641 37.4732C34.3852 37.7986 34.697 38 35.0292 38C35.5848 38 35.992 37.4522 35.7933 36.9189L32.6709 28.5263H36.7741C38.1875 28.5263 39.3333 27.3952 39.3333 26.0001V16.5262C39.3333 15.1311 38.1875 14 36.7741 14ZM35.0288 25.0817H31.3742C30.9245 25.0817 30.5597 24.7216 30.5597 24.2777C30.5597 23.8334 30.9245 23.4737 31.3742 23.4737H35.0288C35.4789 23.4737 35.8433 23.8334 35.8433 24.2777C35.8433 24.7216 35.4789 25.0817 35.0288 25.0817ZM35.0288 22.0672H31.3742C30.9245 22.0672 30.5597 21.7075 30.5597 21.2632C30.5597 20.8193 30.9245 20.4591 31.3742 20.4591H35.0288C35.4789 20.4591 35.8433 20.8193 35.8433 21.2632C35.8433 21.7075 35.4789 22.0672 35.0288 22.0672ZM35.0288 19.0531H26.3045C25.8544 19.0531 25.49 18.693 25.49 18.2491C25.49 17.8052 25.8544 17.445 26.3045 17.445H35.0288C35.4789 17.445 35.8433 17.8052 35.8433 18.2491C35.8433 18.693 35.4789 19.0531 35.0288 19.0531Z" fill="#6166AE"/>
<path d="M26.5968 28.061C26.7399 27.6301 26.7388 27.1799 26.618 26.7692L28.5829 22.7297C28.7783 22.3276 28.62 21.8386 28.2289 21.6377C27.838 21.4365 27.3623 21.5995 27.1667 22.0016L25.4908 25.4468C24.4892 24.934 22.9674 24.1562 21.7415 23.5294C20.6009 22.9463 19.787 22.4234 18.3981 22.4234H17.6986C18.78 22.4234 19.7451 21.9118 20.3768 21.111C20.8589 20.5016 21.1471 19.725 21.1471 18.8787C21.1471 16.9204 19.6033 15.3333 17.6982 15.3333C15.7939 15.3333 14.2501 16.9204 14.2501 18.8787C14.2501 19.8191 14.6063 20.6737 15.1876 21.3079C15.816 21.9948 16.7085 22.4234 17.698 22.4236C16.3714 22.4236 15.0746 22.9762 14.1416 23.9379C13.1905 24.9131 12.6666 26.2124 12.6666 27.5964V30.2118C12.6666 31.3377 13.3777 32.2957 14.3626 32.6366V37.186C14.3626 37.6356 14.7171 37.9999 15.1544 37.9999H20.2424C20.6797 37.9999 21.0341 37.6356 21.0341 37.186V28.0411C21.7848 28.4269 22.771 28.9337 23.5689 29.344C24.1282 29.6314 24.7818 29.6573 25.3647 29.4135C25.9459 29.1677 26.3939 28.6783 26.5937 28.0706C26.5947 28.0674 26.5958 28.0642 26.5968 28.061Z" fill="#6166AE"/>
</svg>
