<svg width="52" height="52" viewBox="0 0 52 52" fill="none" xmlns="http://www.w3.org/2000/svg">
<rect opacity="0.1" width="52" height="52" rx="8" fill="#8AB424"/>
<path d="M16.746 15.8135C16.7452 15.8135 16.7444 15.8135 16.7437 15.8135C16.4915 15.8135 16.2543 15.9118 16.0752 16.0905C15.8941 16.2711 15.7943 16.5117 15.7943 16.7677V31.0767C15.7943 31.6014 16.2229 32.0293 16.7497 32.0306C18.9709 32.0359 22.6922 32.4989 25.2594 35.1854V20.2107C25.2594 20.0328 25.214 19.8657 25.1282 19.7275C23.0212 16.3342 18.9721 15.8187 16.746 15.8135Z" fill="#8AB424"/>
<path d="M36.2061 31.0767V16.7677C36.2061 16.5117 36.1063 16.2711 35.9252 16.0905C35.7461 15.9118 35.5087 15.8135 35.2568 15.8135C35.256 15.8135 35.2551 15.8135 35.2544 15.8135C33.0283 15.8188 28.9793 16.3343 26.8722 19.7276C26.7864 19.8658 26.7411 20.0329 26.7411 20.2108V35.1854C29.3083 32.4989 33.0296 32.0359 35.2507 32.0306C35.7775 32.0293 36.2061 31.6014 36.2061 31.0767Z" fill="#8AB424"/>
<path d="M38.3794 19.1135H37.6875V31.0768C37.6875 32.4166 36.596 33.509 35.2542 33.5123C33.3702 33.5168 30.2638 33.8852 28.0637 35.9675C31.8687 35.0358 35.8799 35.6414 38.1658 36.1624C38.4513 36.2274 38.7462 36.1602 38.9749 35.978C39.2028 35.7961 39.3335 35.5244 39.3335 35.2326V20.0676C39.3336 19.5415 38.9055 19.1135 38.3794 19.1135Z" fill="#8AB424"/>
<path d="M14.3126 31.0768V19.1135H13.6207C13.0947 19.1135 12.6666 19.5415 12.6666 20.0676V35.2324C12.6666 35.5242 12.7974 35.7959 13.0252 35.9777C13.2537 36.1599 13.5484 36.2273 13.8343 36.1621C16.1203 35.6411 20.1315 35.0356 23.9363 35.9672C21.7364 33.885 18.6299 33.5167 16.7459 33.5122C15.4042 33.509 14.3126 32.4166 14.3126 31.0768Z" fill="#8AB424"/>
</svg>
