<svg width="52" height="52" viewBox="0 0 52 52" fill="none" xmlns="http://www.w3.org/2000/svg">
<rect opacity="0.1" width="52" height="52" rx="8" fill="#FF8A00"/>
<path d="M16.7461 15.8135C16.7454 15.8135 16.7446 15.8135 16.7438 15.8135C16.4916 15.8135 16.2544 15.9118 16.0753 16.0905C15.8942 16.2711 15.7944 16.5117 15.7944 16.7677V31.0767C15.7944 31.6014 16.223 32.0293 16.7499 32.0306C18.971 32.0359 22.6923 32.4989 25.2595 35.1854V20.2107C25.2595 20.0328 25.2141 19.8657 25.1283 19.7275C23.0213 16.3342 18.9723 15.8187 16.7461 15.8135Z" fill="#FF8A00"/>
<path d="M36.2062 31.0767V16.7677C36.2062 16.5117 36.1065 16.2711 35.9254 16.0905C35.7462 15.9118 35.5088 15.8135 35.2569 15.8135C35.2561 15.8135 35.2553 15.8135 35.2546 15.8135C33.0285 15.8188 28.9794 16.3343 26.8723 19.7276C26.7866 19.8658 26.7412 20.0329 26.7412 20.2108V35.1854C29.3084 32.4989 33.0297 32.0359 35.2509 32.0306C35.7776 32.0293 36.2062 31.6014 36.2062 31.0767Z" fill="#FF8A00"/>
<path d="M38.3797 19.1135H37.6878V31.0768C37.6878 32.4166 36.5962 33.509 35.2545 33.5123C33.3705 33.5168 30.264 33.8852 28.064 35.9675C31.869 35.0358 35.8801 35.6414 38.1661 36.1624C38.4515 36.2274 38.7465 36.1602 38.9752 35.978C39.203 35.7961 39.3338 35.5244 39.3338 35.2326V20.0676C39.3339 19.5415 38.9058 19.1135 38.3797 19.1135Z" fill="#FF8A00"/>
<path d="M14.3127 31.0768V19.1135H13.6208C13.0949 19.1135 12.6667 19.5415 12.6667 20.0676V35.2324C12.6667 35.5242 12.7975 35.7959 13.0254 35.9777C13.2539 36.1599 13.5485 36.2273 13.8344 36.1621C16.1204 35.6411 20.1316 35.0356 23.9365 35.9672C21.7365 33.885 18.63 33.5167 16.746 33.5122C15.4044 33.509 14.3127 32.4166 14.3127 31.0768Z" fill="#FF8A00"/>
</svg>
