<svg width="30" height="30" viewBox="0 0 30 30" fill="none" xmlns="http://www.w3.org/2000/svg">
<path d="M13.6049 8.67562C13.9901 8.67562 14.3024 8.3633 14.3024 7.97807C14.3024 7.59344 14.6153 7.28053 15 7.28053C15.3846 7.28053 15.6975 7.59344 15.6975 7.97807C15.6975 8.27206 15.5117 8.53611 15.2353 8.63511C14.6773 8.83498 14.3024 9.36739 14.3024 9.95998V10.0707C14.3024 10.4559 14.6147 10.7682 15 10.7682C15.3852 10.7682 15.6975 10.4559 15.6975 10.0707V9.95998C15.6975 9.95505 15.7009 9.95022 15.7057 9.94854C16.5352 9.65134 17.0926 8.85949 17.0926 7.97807C17.0926 6.82419 16.1538 5.88544 15 5.88544C13.8461 5.88544 12.9073 6.82419 12.9073 7.97807C12.9073 8.3633 13.2196 8.67562 13.6049 8.67562Z" fill="#6166AE"/>
<path d="M14.9999 12.8609C15.3852 12.8609 15.6975 12.5486 15.6975 12.1634C15.6975 11.7781 15.3852 11.4658 14.9999 11.4658C14.6147 11.4658 14.3024 11.7781 14.3024 12.1634C14.3024 12.5486 14.6147 12.8609 14.9999 12.8609Z" fill="#6166AE"/>
<path d="M26.2072 10.0707H24.068V7.97809C24.068 7.59286 23.7557 7.28054 23.3705 7.28054H20.9188C20.055 4.84472 17.7281 3.09528 14.9999 3.09528C12.2718 3.09528 9.94489 4.84472 9.08114 7.28054H6.62941C6.24418 7.28054 5.93187 7.59286 5.93187 7.97809V10.0707H3.79273C3.4075 10.0707 3.09518 10.383 3.09518 10.7683V24.8122C3.09518 25.1974 3.4075 25.5097 3.79273 25.5097H11.9208L13.1116 26.7005C13.2425 26.8313 13.4199 26.9048 13.6049 26.9048H16.395C16.5801 26.9048 16.7575 26.8313 16.8882 26.7005L18.079 25.5097H26.2072C26.5924 25.5097 26.9047 25.1974 26.9047 24.8122V10.7683C26.9047 10.383 26.5924 10.0707 26.2072 10.0707ZM22.6729 8.67563V21.3244H16.395C16.1505 21.3244 15.9158 21.367 15.6975 21.4445V17.86C16.153 16.5581 17.052 15.4522 18.2372 14.7396C20.0762 13.6339 21.2778 11.6322 21.2778 9.37318C21.2778 9.13741 21.2643 8.90475 21.2389 8.67563H22.6729ZM14.9999 4.49037C17.6923 4.49037 19.8828 6.68079 19.8828 9.37318C19.8828 11.0947 18.9989 12.6539 17.5183 13.544C16.4768 14.1703 15.6139 15.0424 14.9999 16.0729C14.386 15.0424 13.5231 14.1702 12.4815 13.544C11.001 12.6539 10.1171 11.0947 10.1171 9.37318C10.1171 6.68079 12.3076 4.49037 14.9999 4.49037ZM7.32695 8.67563H8.76101C8.73558 8.90475 8.72204 9.13741 8.72204 9.37318C8.72204 11.6369 9.92768 13.6363 11.7627 14.7396C12.948 15.4523 13.847 16.5582 14.3024 17.86V21.4445C14.0841 21.367 13.8494 21.3244 13.6049 21.3244H7.32695V8.67563ZM25.5096 24.1146H17.7901C17.6051 24.1146 17.4277 24.1881 17.2969 24.3189L16.1061 25.5097H13.8938L12.703 24.3189C12.5722 24.1881 12.3948 24.1146 12.2098 24.1146H4.49027V11.4658H5.93187V22.022C5.93187 22.4072 6.24418 22.7195 6.62941 22.7195H13.6049C13.9895 22.7195 14.3024 23.0324 14.3024 23.4171C14.3024 23.8023 14.6147 24.1146 14.9999 24.1146C15.3852 24.1146 15.6975 23.8023 15.6975 23.4171C15.6975 23.417 15.6975 23.417 15.6975 23.4169V23.4169C15.6975 23.0324 16.0104 22.7196 16.395 22.7196H23.3705C23.7557 22.7196 24.068 22.4073 24.068 22.022V11.4658H25.5096V24.1146Z" fill="#6166AE"/>
</svg>
