<svg width="20" height="20" viewBox="0 0 20 20" fill="none" xmlns="http://www.w3.org/2000/svg">
<path d="M2.33335 16.8333V13.1667H3.50002V16.8333H2.33335Z" fill="#EDEDED" stroke="#EDEDED" stroke-width="1.33333"/>
<path d="M7.33335 16.8335V9.00016H8.50002V16.8335H7.33335Z" fill="#EDEDED" stroke="#EDEDED" stroke-width="1.33333"/>
<path d="M11.25 10.8335H12.9167C13.1469 10.8335 13.3333 11.0201 13.3333 11.2502V17.0834C13.3333 17.3135 13.1469 17.5002 12.9167 17.5002H11.25C11.0199 17.5002 10.8333 17.3135 10.8333 17.0834V11.2502C10.8333 11.0201 11.0199 10.8335 11.25 10.8335Z" fill="#EDEDED"/>
<path d="M16.25 7.5H17.9166C18.1467 7.5 18.3333 7.70358 18.3333 7.9546V17.0454C18.3333 17.2964 18.1467 17.5 17.9166 17.5H16.25C16.0199 17.5 15.8333 17.2964 15.8333 17.0454V7.9546C15.8333 7.70358 16.0199 7.5 16.25 7.5Z" fill="#EDEDED"/>
<path d="M16.9445 2.5C16.1778 2.50076 15.5564 3.05999 15.5556 3.74999C15.5574 3.8861 15.5842 4.02098 15.6349 4.14916L13.3173 5.38908C13.0131 5.0987 12.5721 4.95802 12.1327 5.01097C11.6931 5.06392 11.3089 5.30409 11.1002 5.65626L9.05601 4.74501C9.06601 4.69145 9.07195 4.63743 9.07415 4.58327C9.07517 4.07729 8.73727 3.62075 8.21813 3.42651C7.699 3.23242 7.10102 3.33907 6.70344 3.69674C6.3057 4.0544 6.18685 4.59242 6.40234 5.0598L3.7507 6.84079C3.54047 6.72803 3.30039 6.66791 3.05558 6.66669C2.28857 6.66669 1.66669 7.22622 1.66669 7.91668C1.66669 8.60698 2.28857 9.16667 3.05558 9.16667C3.82258 9.16667 4.44446 8.60698 4.44446 7.91668C4.44328 7.76623 4.41174 7.61745 4.35139 7.47723L7.02947 5.67838C7.55336 5.94129 8.20677 5.86423 8.63758 5.48856L10.9622 6.52478C11.1171 7.14596 11.7666 7.56283 12.4697 7.49233C13.1728 7.42184 13.7045 6.88672 13.7037 6.24997C13.7037 6.21823 13.6959 6.18833 13.6933 6.1572L16.2141 4.80848C16.4326 4.93284 16.6857 4.99922 16.9445 4.99998C17.7115 4.99998 18.3334 4.44029 18.3334 3.74999C18.3334 3.05969 17.7115 2.5 16.9445 2.5Z" fill="#EDEDED"/>
</svg>
