<svg width="24" height="24" viewBox="0 0 24 24" fill="none" xmlns="http://www.w3.org/2000/svg">
<path d="M2.50006 15H4.49994C4.77606 15 5 15.2238 5 15.4999V20.4999C5 20.7761 4.77606 21 4.49994 21H2.50006C2.22394 21 2 20.7761 2 20.4999V15.4999C2 15.2238 2.22394 15 2.50006 15Z" fill="#6166AE"/>
<path d="M8.49988 10H10.4999C10.7761 10 11 10.2463 11 10.5501V20.4499C11 20.7537 10.7761 21 10.4999 21H8.49988C8.22375 21 8 20.7537 8 20.4499V10.5501C8 10.2463 8.22375 10 8.49988 10Z" fill="#6166AE"/>
<path d="M13.5001 13H15.5001C15.7762 13 16 13.2239 16 13.5001V20.4999C16 20.7761 15.7762 21 15.5001 21H13.5001C13.2239 21 13 20.7761 13 20.4999V13.5001C13 13.2239 13.2239 13 13.5001 13Z" fill="#6166AE"/>
<path d="M19.5001 9H21.4999C21.7761 9 22 9.24429 22 9.54552V20.4545C22 20.7557 21.7761 21 21.4999 21H19.5001C19.2239 21 19 20.7557 19 20.4545V9.54552C19 9.24429 19.2239 9 19.5001 9Z" fill="#6166AE"/>
<path d="M20.3333 3C19.4133 3.00092 18.6677 3.67199 18.6667 4.49999C18.6689 4.66332 18.701 4.82518 18.7619 4.97899L15.9807 6.46689C15.6157 6.11845 15.0865 5.94962 14.5592 6.01316C14.0317 6.0767 13.5706 6.3649 13.3202 6.78751L10.8672 5.69401C10.8792 5.62974 10.8863 5.56492 10.889 5.49992C10.8902 4.89275 10.4847 4.3449 9.86173 4.11181C9.23877 3.8789 8.5212 4.00689 8.04411 4.43609C7.56681 4.86528 7.42419 5.51091 7.68278 6.07175L4.50081 8.20894C4.24854 8.07363 3.96045 8.00149 3.66667 8.00002C2.74626 8.00002 2 8.67147 2 9.50001C2 10.3284 2.74626 11 3.66667 11C4.58708 11 5.33333 10.3284 5.33333 9.50001C5.33191 9.31947 5.29407 9.14094 5.22164 8.97267L8.43534 6.81406C9.06401 7.12955 9.8481 7.03708 10.3651 6.58628L13.1546 7.82974C13.3405 8.57515 14.12 9.07539 14.9637 8.9908C15.8074 8.9062 16.4454 8.26406 16.4444 7.49997C16.4444 7.46188 16.435 7.42599 16.432 7.38864L19.4569 5.77018C19.7191 5.91941 20.0229 5.99906 20.3333 5.99998C21.2537 5.99998 22 5.32835 22 4.49999C22 3.67163 21.2537 3 20.3333 3Z" fill="#6166AE"/>
</svg>
