<svg width="56" height="56" viewBox="0 0 56 56" fill="none" xmlns="http://www.w3.org/2000/svg">
<path d="M28 -1.22392e-06C20.5739 -8.99315e-07 13.452 2.94999 8.20101 8.20101C2.94999 13.452 -9.8787e-07 20.5739 -1.22392e-06 28C-1.45997e-06 35.4261 2.94999 42.548 8.20101 47.799C13.452 53.05 20.5739 56 28 56L28 28L28 -1.22392e-06Z" fill="white"/>
<g clip-path="url(#clip0_15470_55330)">
<path d="M7 34H13V32H7V34ZM7 22V24H25V22H7ZM7 29H19V27H7V29Z" fill="#6166AE"/>
</g>
<defs>
<clipPath id="clip0_15470_55330">
<rect width="24" height="24" fill="white" transform="translate(4 16)"/>
</clipPath>
</defs>
</svg>
