<svg width="71" height="64" viewBox="0 0 71 64" fill="none" xmlns="http://www.w3.org/2000/svg">
<g opacity="0.14" filter="url(#filter0_d_19416_24201)">
<rect x="8" y="4" width="54.0567" height="48" rx="2" fill="#6166AE"/>
</g>
<g clip-path="url(#clip0_19416_24201)">
<path d="M42.155 24.3672C40.627 24.3672 39.3839 25.4711 39.3839 26.828C39.3839 28.6289 41.4997 29.8165 43.3257 29.0576L42.8388 28.6253C42.4523 28.2821 42.4523 27.7256 42.8388 27.3824C43.2253 27.0392 43.852 27.0392 44.2386 27.3824L44.7031 27.7948C45.4845 26.1778 44.1401 24.3672 42.155 24.3672Z" fill="#6166AE"/>
<path d="M48.9515 17.1309H21.105C19.4677 17.1309 18.1356 18.3137 18.1356 19.7676V33.889C18.1356 35.343 19.4677 36.5257 21.105 36.5257H32.5538L34.2365 38.5179C34.6325 38.9868 35.425 38.9858 35.8202 38.5179L37.5028 36.5257H48.9515C50.5889 36.5257 51.921 35.343 51.921 33.889V19.7676C51.921 18.3137 50.5889 17.1309 48.9515 17.1309ZM26.8979 25.911C27.4445 25.911 27.8877 26.3045 27.8877 26.7899C27.8877 27.2753 27.4445 27.6688 26.8979 27.6688H25.1016V30.1679C25.1016 30.6532 24.6584 31.0468 24.1118 31.0468C23.5652 31.0468 23.122 30.6532 23.122 30.1679V23.5375C23.122 23.0521 23.5652 22.6586 24.1118 22.6586H27.1382C27.6848 22.6586 28.128 23.0521 28.128 23.5375C28.128 24.0229 27.6848 24.4164 27.1382 24.4164H25.1016V25.911H26.8979ZM35.8069 30.9902C35.2953 31.1617 34.7244 30.9322 34.5314 30.4782L34.0759 29.4067H30.9043L30.4436 30.4807C30.2487 30.9351 29.6761 31.1617 29.1664 30.9892C28.6556 30.8165 28.3991 30.3087 28.5937 29.855L31.4182 23.2698C31.5795 22.8885 32.0012 22.6101 32.4999 22.6096C32.971 22.6092 33.3936 22.8583 33.574 23.248C33.5836 23.2687 33.4582 22.9742 36.3836 29.8575C36.5765 30.3116 36.3183 30.8188 35.8069 30.9902ZM46.645 30.7624C46.2584 31.1056 45.6317 31.1056 45.2452 30.7624L44.7751 30.3449C44.0234 30.7879 43.1228 31.0468 42.155 31.0468C39.5353 31.0468 37.4042 29.1544 37.4042 26.8282C37.4042 24.5021 39.5353 22.6097 42.155 22.6097C44.7746 22.6097 46.9059 24.5021 46.9059 26.8282C46.9059 27.6603 46.6321 28.4362 46.1619 29.0904L46.645 29.5194C47.0315 29.8626 47.0315 30.4192 46.645 30.7624Z" fill="#6166AE"/>
<path d="M31.6583 27.6489H33.3289L32.4974 25.6924L31.6583 27.6489Z" fill="#6166AE"/>
</g>
<defs>
<filter id="filter0_d_19416_24201" x="0" y="0" width="70.0566" height="64" filterUnits="userSpaceOnUse" color-interpolation-filters="sRGB">
<feFlood flood-opacity="0" result="BackgroundImageFix"/>
<feColorMatrix in="SourceAlpha" type="matrix" values="0 0 0 0 0 0 0 0 0 0 0 0 0 0 0 0 0 0 127 0" result="hardAlpha"/>
<feOffset dy="4"/>
<feGaussianBlur stdDeviation="4"/>
<feComposite in2="hardAlpha" operator="out"/>
<feColorMatrix type="matrix" values="0 0 0 0 0.0980392 0 0 0 0 0.145098 0 0 0 0 0.270588 0 0 0 0.24 0"/>
<feBlend mode="normal" in2="BackgroundImageFix" result="effect1_dropShadow_19416_24201"/>
<feBlend mode="normal" in="SourceGraphic" in2="effect1_dropShadow_19416_24201" result="shape"/>
</filter>
<clipPath id="clip0_19416_24201">
<rect width="33.7854" height="30" fill="white" transform="translate(18.1356 13)"/>
</clipPath>
</defs>
</svg>
