<svg width="27" height="28" viewBox="0 0 27 28" fill="none" xmlns="http://www.w3.org/2000/svg">
<g clip-path="url(#clip0_19653_57266)">
<path d="M16.684 20.3005C16.606 20.2193 16.5134 20.1548 16.4115 20.1108C16.3095 20.0668 16.2003 20.0442 16.09 20.0442C15.9796 20.0442 15.8704 20.0668 15.7685 20.1108C15.6665 20.1548 15.5739 20.2193 15.4959 20.3005C14.9503 20.8679 14.2109 21.1865 13.44 21.1865C12.6691 21.1865 11.9297 20.8679 11.3841 20.3005C11.2266 20.1364 11.0129 20.0442 10.7901 20.0442C10.5673 20.0442 10.3536 20.1364 10.196 20.3005C10.0385 20.4647 9.94998 20.6872 9.94998 20.9193C9.94998 21.1514 10.0385 21.374 10.196 21.5381C11.0571 22.4329 12.2237 22.9354 13.44 22.9354C14.6563 22.9354 15.8229 22.4329 16.684 21.5381C16.762 21.4569 16.8239 21.3604 16.8661 21.2542C16.9084 21.1481 16.9301 21.0343 16.9301 20.9193C16.9301 20.8044 16.9084 20.6906 16.8661 20.5844C16.8239 20.4783 16.762 20.3818 16.684 20.3005ZM24.2025 10.5142V8.94141C24.2025 4.2525 20.5401 0.4375 16.0388 0.4375H10.815C6.31367 0.4375 2.65126 4.2525 2.65126 8.94141V10.5175C2.0373 10.592 1.47094 10.8986 1.05965 11.3793C0.648357 11.8599 0.42075 12.4811 0.420013 13.125V18.9219C0.420708 19.6178 0.686431 20.2851 1.15887 20.7772C1.63131 21.2694 2.27188 21.5462 2.94001 21.5469H5.72252C6.61335 21.5459 7.46741 21.1768 8.09732 20.5206C8.72723 19.8645 9.08154 18.9748 9.08252 18.0469V14C9.08154 13.0721 8.72723 12.1824 8.09732 11.5262C7.46741 10.8701 6.61335 10.501 5.72252 10.5H4.33127V8.94141C4.33321 7.15078 5.01694 5.43408 6.23246 4.16791C7.44798 2.90175 9.09602 2.18953 10.815 2.1875H16.0388C17.7578 2.18953 19.4058 2.90175 20.6213 4.16791C21.8368 5.43408 22.5206 7.15078 22.5225 8.94141V10.5H21.1575C20.2667 10.501 19.4126 10.8701 18.7827 11.5262C18.1528 12.1824 17.7985 13.0721 17.7975 14V18.0469C17.7985 18.9748 18.1528 19.8645 18.7827 20.5206C19.4126 21.1768 20.2667 21.5459 21.1575 21.5469H22.4369C22.2425 22.5196 21.7326 23.393 20.993 24.0204C20.2533 24.6478 19.3289 24.9909 18.375 24.9922H15.54C15.3172 24.9922 15.1036 25.0844 14.946 25.2485C14.7885 25.4126 14.7 25.6351 14.7 25.8672C14.7 26.0993 14.7885 26.3218 14.946 26.4859C15.1036 26.65 15.3172 26.7422 15.54 26.7422H18.375C19.7761 26.7402 21.1297 26.2133 22.1887 25.2578C23.2477 24.3023 23.9414 22.9818 24.1432 21.5376C24.7739 21.4837 25.3622 21.1849 25.7913 20.7004C26.2204 20.2159 26.4591 19.5811 26.46 18.9219V13.125C26.4593 12.4763 26.2284 11.8509 25.8117 11.3689C25.3949 10.8869 24.8218 10.5825 24.2025 10.5142ZM4.72502 14.4922C4.72502 14.2601 4.81352 14.0376 4.97105 13.8735C5.12858 13.7094 5.34223 13.6172 5.56502 13.6172C5.7878 13.6172 6.00145 13.7094 6.15899 13.8735C6.31652 14.0376 6.40502 14.2601 6.40502 14.4922V17.5547C6.40502 17.7868 6.31652 18.0093 6.15899 18.1734C6.00145 18.3375 5.7878 18.4297 5.56502 18.4297C5.34223 18.4297 5.12858 18.3375 4.97105 18.1734C4.81352 18.0093 4.72502 17.7868 4.72502 17.5547V14.4922ZM22.155 17.5547C22.155 17.7868 22.0665 18.0093 21.909 18.1734C21.7515 18.3375 21.5378 18.4297 21.315 18.4297C21.0922 18.4297 20.8786 18.3375 20.7211 18.1734C20.5635 18.0093 20.475 17.7868 20.475 17.5547V14.4922C20.475 14.2601 20.5635 14.0376 20.7211 13.8735C20.8786 13.7094 21.0922 13.6172 21.315 13.6172C21.5378 13.6172 21.7515 13.7094 21.909 13.8735C22.0665 14.0376 22.155 14.2601 22.155 14.4922V17.5547Z" fill="#6166AE"/>
</g>
<defs>
<clipPath id="clip0_19653_57266">
<rect width="26.88" height="28" fill="white"/>
</clipPath>
</defs>
</svg>
