<svg width="24" height="24" viewBox="0 0 24 24" fill="none" xmlns="http://www.w3.org/2000/svg">
<g clip-path="url(#clip0_16325_19878)">
<path d="M23.3734 15.5317L23.6961 15.125L23.3734 15.5317C23.5823 15.6974 23.4636 16.0371 23.1972 16.0371H6.42689C6.27031 16.0371 6.14344 15.9102 6.14344 15.7537V2.4465C6.14344 2.21079 6.41799 2.07771 6.60306 2.22447C6.60307 2.22448 6.60309 2.22449 6.6031 2.2245L23.3734 15.5317ZM6.7103 14.9512V15.4703L7.22941 15.4703L20.8947 15.4703L22.3841 15.4703L21.2174 14.5446L7.55208 3.7012L6.7103 3.03324V4.10784V14.9512Z" stroke="#6166AE" stroke-width="1.03823"/>
<path d="M18.8986 8.19533L18.5213 7.99843L18.2542 8.32971C18.1017 8.51884 17.7926 8.41004 17.7926 8.1674V0.994978C17.7926 0.851628 17.9088 0.735421 18.0521 0.735421C18.1954 0.735421 18.3117 0.851628 18.3117 0.994978V4.0148V4.80337L19.036 4.49163C20.3784 3.91388 21.8937 4.90293 21.8937 6.37636C21.8937 7.92096 20.2453 8.89827 18.8986 8.19533ZM18.3116 6.37632V6.37636C18.3116 7.22127 18.9982 7.90784 19.8431 7.90784C20.688 7.90784 21.3746 7.22127 21.3746 6.37636C21.3746 5.53142 20.688 4.84483 19.8431 4.84483C18.9981 4.84483 18.3117 5.53145 18.3116 6.37632Z" fill="#6166AE" stroke="#6166AE" stroke-width="1.03823"/>
<path d="M2.29624 5.4165H1.61427C1.18425 5.4165 0.835598 5.7651 0.835598 6.19517C0.835598 6.62524 1.18425 6.97384 1.61427 6.97384H2.29628C2.69978 6.97384 3.02809 7.30215 3.02809 7.70565V7.94893C1.53932 7.44333 0.000183105 8.55897 0.000183105 10.1199C0.000183105 11.794 1.74995 12.91 3.26719 12.1945C3.75945 12.6682 4.58538 12.3194 4.58538 11.6338V7.70565C4.58538 6.44342 3.55846 5.4165 2.29624 5.4165ZM2.29278 10.8551C1.88734 10.8551 1.55752 10.5253 1.55752 10.1199C1.55752 9.71447 1.88734 9.38465 2.29278 9.38465C2.69822 9.38465 3.02804 9.71447 3.02804 10.1199C3.02804 10.5253 2.69818 10.8551 2.29278 10.8551Z" fill="#6166AE"/>
<path d="M14.2879 19.01C14.718 19.01 15.0666 18.6614 15.0666 18.2313C15.0666 17.8012 14.718 17.4526 14.2879 17.4526C12.5425 17.4526 11.1224 18.8727 11.1224 20.6182C11.1224 22.3637 12.5425 23.7838 14.2879 23.7838C14.718 23.7838 15.0666 23.4352 15.0666 23.0051C15.0666 22.575 14.718 22.2264 14.2879 22.2264C13.4012 22.2264 12.6797 21.505 12.6797 20.6182C12.6797 19.7314 13.4011 19.01 14.2879 19.01Z" fill="#6166AE"/>
</g>
<defs>
<clipPath id="clip0_16325_19878">
<rect width="24" height="24" fill="white"/>
</clipPath>
</defs>
</svg>
