<svg width="265" height="228" viewBox="0 0 265 228" fill="none" xmlns="http://www.w3.org/2000/svg">
<path d="M77.0393 61.7655H47.2188C44.8984 61.7655 43 59.8671 43 57.5468V27.7266C43 25.4062 44.8984 23.5078 47.2188 23.5078H77.0393C79.3597 23.5078 81.2581 25.4062 81.2581 27.7266V57.5471C81.2581 59.8671 79.3597 61.7655 77.0393 61.7655Z" fill="#EFEFEF"/>
<path d="M77.0393 113.325H47.2188C44.8984 113.325 43 111.427 43 109.107V79.2861C43 76.9658 44.8984 75.0674 47.2188 75.0674H77.0393C79.3597 75.0674 81.2581 76.9658 81.2581 79.2861V109.107C81.2581 111.427 79.3597 113.325 77.0393 113.325Z" fill="#EFEFEF"/>
<path d="M77.0393 164.885H47.2188C44.8984 164.885 43 162.987 43 160.666V130.846C43 128.525 44.8984 126.627 47.2188 126.627H77.0393C79.3597 126.627 81.2581 128.525 81.2581 130.846V160.666C81.2581 162.987 79.3597 164.885 77.0393 164.885Z" fill="#EFEFEF"/>
<path d="M76.9117 55.1989H47.3464C44.9557 55.1989 43 53.2432 43 50.8525V57.4194C43 59.81 44.9557 61.7657 47.3464 61.7657H76.9117C79.3023 61.7657 81.2581 59.81 81.2581 57.4194V50.8525C81.2577 53.2432 79.302 55.1989 76.9117 55.1989Z" fill="#E2E2E2"/>
<path d="M76.9117 106.758H47.3464C44.9557 106.758 43 104.803 43 102.412V108.979C43 111.37 44.9557 113.325 47.3464 113.325H76.9117C79.3023 113.325 81.2581 111.37 81.2581 108.979V102.412C81.2577 104.803 79.302 106.758 76.9117 106.758Z" fill="#E2E2E2"/>
<path d="M76.9117 158.318H47.3464C44.9557 158.318 43 156.362 43 153.972V160.539C43 162.929 44.9557 164.885 47.3464 164.885H76.9117C79.3023 164.885 81.2581 162.929 81.2581 160.539V153.972C81.2577 156.362 79.302 158.318 76.9117 158.318Z" fill="#E2E2E2"/>
<path d="M215.152 23.5078C140.519 23.5078 148.373 23.5078 117.709 23.5078C113.393 23.5078 109.861 27.0393 109.861 31.3557V53.918C109.861 58.2341 113.392 61.7659 117.709 61.7659C120.76 61.7659 210.914 61.7659 215.152 61.7659C219.469 61.7659 223 58.2345 223 53.918V31.3554C223 27.0393 219.469 23.5078 215.152 23.5078Z" fill="#EFEFEF"/>
<path d="M215.152 126.627C194.936 126.627 136.486 126.627 117.709 126.627C113.393 126.627 109.861 130.158 109.861 134.475V157.037C109.861 161.353 113.392 164.885 117.709 164.885C121.838 164.885 211.034 164.885 215.152 164.885C219.469 164.885 223 161.354 223 157.037V134.475C223 130.158 219.469 126.627 215.152 126.627Z" fill="#EFEFEF"/>
<path d="M215.152 75.0674C212.543 75.0674 120.196 75.0674 117.709 75.0674C113.393 75.0674 109.861 78.5988 109.861 82.9153V105.478C109.861 109.794 113.392 113.325 117.709 113.325C121.382 113.325 211.244 113.325 215.152 113.325C219.469 113.325 223 109.794 223 105.478V82.9153C223 78.5988 219.469 75.0674 215.152 75.0674Z" fill="#EFEFEF"/>
<path d="M215.152 54.4085C133.32 54.4085 154.473 54.4085 117.709 54.4085C113.393 54.4085 109.861 50.877 109.861 46.5605V53.9177C109.861 58.2338 113.392 61.7656 117.709 61.7656C121.337 61.7656 211.705 61.7656 215.152 61.7656C219.469 61.7656 223 58.2342 223 53.9177V46.5609C223 50.877 219.469 54.4085 215.152 54.4085Z" fill="#E2E2E2"/>
<path d="M215.152 157.528C211.269 157.528 121.523 157.528 117.709 157.528C113.393 157.528 109.861 153.996 109.861 149.68V157.037C109.861 161.353 113.392 164.885 117.709 164.885C121.838 164.885 211.033 164.885 215.152 164.885C219.469 164.885 223 161.353 223 157.037V149.68C223 153.996 219.469 157.528 215.152 157.528Z" fill="#E2E2E2"/>
<path d="M215.152 105.968C210.926 105.968 121.923 105.968 117.709 105.968C113.393 105.968 109.861 102.437 109.861 98.1201V105.477C109.861 109.793 113.392 113.325 117.709 113.325C118.522 113.325 212.82 113.325 215.152 113.325C219.469 113.325 223 109.794 223 105.477V98.1201C223 102.437 219.469 105.968 215.152 105.968Z" fill="#E2E2E2"/>
<g opacity="0.8">
<path d="M207.196 45.353H125.666C124.166 45.353 122.949 44.1369 122.949 42.6364C122.949 41.136 124.165 39.9199 125.666 39.9199H207.195C208.695 39.9199 209.912 41.136 209.912 42.6364C209.912 44.1369 208.696 45.353 207.196 45.353Z" fill="#8AB424"/>
<path d="M207.196 96.9125H125.666C124.166 96.9125 122.949 95.6965 122.949 94.196C122.949 92.6955 124.165 91.4795 125.666 91.4795H207.195C208.695 91.4795 209.912 92.6955 209.912 94.196C209.912 95.6965 208.696 96.9125 207.196 96.9125Z" fill="#8AB424"/>
<path d="M207.196 148.472H125.666C124.166 148.472 122.949 147.256 122.949 145.756C122.949 144.255 124.165 143.039 125.666 143.039H207.195C208.695 143.039 209.912 144.255 209.912 145.756C209.912 147.256 208.696 148.472 207.196 148.472Z" fill="#8AB424"/>
</g>
<g opacity="0.8">
<path d="M69.9231 55.4438C69.8662 55.4438 69.8096 55.4431 69.7526 55.4417C67.7824 55.3904 65.941 54.4535 64.7397 52.8915L56.0195 41.5557C53.8166 38.693 54.3528 34.5871 57.2152 32.3845C60.0783 30.1827 64.1835 30.7178 66.3864 33.5809L70.1942 38.5305L88.2803 17.402C90.6287 14.6587 94.7582 14.3385 97.5011 16.6862C100.245 19.0353 100.565 23.1634 98.2165 25.9073L74.8917 53.1569C73.6472 54.6099 71.831 55.4438 69.9231 55.4438Z" fill="#9DCA45"/>
<path d="M97.5104 16.6953L74.8909 43.1209C72.1937 46.2716 67.2704 46.1464 64.7395 42.8554L56.8947 32.6577C54.3209 34.9126 53.9033 38.8054 56.0193 41.5557L64.7395 52.8915C65.9408 54.4535 67.7819 55.3904 69.7524 55.4417C69.809 55.4435 69.866 55.4438 69.9229 55.4438C71.8305 55.4438 73.647 54.6099 74.8909 53.1569L98.2156 25.9073C100.562 23.1669 100.244 19.0459 97.5104 16.6953Z" fill="#8AB424"/>
</g>
<g opacity="0.8">
<path d="M69.9231 107.262C69.8662 107.262 69.8096 107.262 69.7526 107.26C67.7824 107.209 65.941 106.272 64.7397 104.71L56.0195 93.3741C53.8166 90.5113 54.3528 86.4054 57.2152 84.2029C60.0783 82.001 64.1835 82.5361 66.3864 85.3992L70.1942 90.3489L88.2803 69.2203C90.6287 66.4771 94.7582 66.1568 97.5011 68.5046C100.245 70.8537 100.565 74.9817 98.2165 77.7257L74.8917 104.975C73.6472 106.428 71.831 107.262 69.9231 107.262Z" fill="#9DCA45"/>
<path d="M97.5104 68.5137L74.8909 94.9392C72.1937 98.0899 67.2704 97.9648 64.7395 94.6738L56.8947 84.476C54.3209 86.7309 53.9033 90.6238 56.0193 93.3741L64.7395 104.71C65.9408 106.272 67.7819 107.209 69.7524 107.26C69.809 107.262 69.866 107.262 69.9229 107.262C71.8305 107.262 73.647 106.428 74.8909 104.975L98.2156 77.7257C100.562 74.9852 100.244 70.8642 97.5104 68.5137Z" fill="#8AB424"/>
</g>
<g opacity="0.8">
<path d="M69.9231 159.081C69.8662 159.081 69.8096 159.08 69.7526 159.078C67.7824 159.027 65.941 158.09 64.7397 156.528L56.0195 145.192C53.8166 142.33 54.3528 138.224 57.2152 136.021C60.0783 133.819 64.1835 134.354 66.3864 137.218L70.1942 142.167L88.2803 121.039C90.6287 118.295 94.7582 117.975 97.5011 120.323C100.245 122.672 100.565 126.8 98.2165 129.544L74.8917 156.794C73.6472 158.247 71.831 159.081 69.9231 159.081Z" fill="#9DCA45"/>
<path d="M97.5104 120.332L74.8909 146.758C72.1937 149.908 67.2704 149.783 64.7395 146.492L56.8947 136.294C54.3209 138.549 53.9033 142.442 56.0193 145.192L64.7395 156.528C65.9408 158.09 67.7819 159.027 69.7524 159.078C69.809 159.08 69.866 159.081 69.9229 159.081C71.8305 159.081 73.647 158.247 74.8909 156.794L98.2156 129.544C100.562 126.804 100.244 122.683 97.5104 120.332Z" fill="#8AB424"/>
</g>
<path d="M12.0196 222H9.9676L3.7936 212.658V222H1.7416V209.472H3.7936L9.9676 218.796V209.472H12.0196V222ZM19.0163 222.162C18.0803 222.162 17.2343 221.952 16.4783 221.532C15.7223 221.1 15.1283 220.5 14.6963 219.732C14.2643 218.952 14.0483 218.052 14.0483 217.032C14.0483 216.024 14.2703 215.13 14.7143 214.35C15.1583 213.57 15.7643 212.97 16.5323 212.55C17.3003 212.13 18.1583 211.92 19.1063 211.92C20.0543 211.92 20.9123 212.13 21.6803 212.55C22.4483 212.97 23.0543 213.57 23.4983 214.35C23.9423 215.13 24.1643 216.024 24.1643 217.032C24.1643 218.04 23.9363 218.934 23.4803 219.714C23.0243 220.494 22.4003 221.1 21.6083 221.532C20.8283 221.952 19.9643 222.162 19.0163 222.162ZM19.0163 220.434C19.5443 220.434 20.0363 220.302 20.4923 220.038C20.9603 219.774 21.3383 219.39 21.6263 218.886C21.9143 218.37 22.0583 217.752 22.0583 217.032C22.0583 216.312 21.9203 215.7 21.6443 215.196C21.3683 214.68 21.0023 214.296 20.5463 214.044C20.0903 213.78 19.5983 213.648 19.0703 213.648C18.5423 213.648 18.0563 213.78 17.6123 214.044C17.1683 214.296 16.8083 214.68 16.5323 215.196C16.2683 215.7 16.1363 216.312 16.1363 217.032C16.1363 217.752 16.2623 218.37 16.5143 218.886C16.7783 219.402 17.1263 219.792 17.5583 220.056C18.0023 220.308 18.4883 220.434 19.0163 220.434ZM39.6713 209.49V211.092H36.3413V222H34.2893V211.092H30.9413V209.49H39.6713ZM41.0654 216.996C41.0654 216 41.2694 215.118 41.6774 214.35C42.0974 213.582 42.6614 212.988 43.3694 212.568C44.0894 212.136 44.8814 211.92 45.7454 211.92C46.5254 211.92 47.2034 212.076 47.7794 212.388C48.3674 212.688 48.8354 213.066 49.1834 213.522V212.082H51.2534V222H49.1834V220.524C48.8354 220.992 48.3614 221.382 47.7614 221.694C47.1614 222.006 46.4774 222.162 45.7094 222.162C44.8574 222.162 44.0774 221.946 43.3694 221.514C42.6614 221.07 42.0974 220.458 41.6774 219.678C41.2694 218.886 41.0654 217.992 41.0654 216.996ZM49.1834 217.032C49.1834 216.348 49.0394 215.754 48.7514 215.25C48.4754 214.746 48.1094 214.362 47.6534 214.098C47.1974 213.834 46.7054 213.702 46.1774 213.702C45.6494 213.702 45.1574 213.834 44.7014 214.098C44.2454 214.35 43.8734 214.728 43.5854 215.232C43.3094 215.724 43.1714 216.312 43.1714 216.996C43.1714 217.68 43.3094 218.28 43.5854 218.796C43.8734 219.312 44.2454 219.708 44.7014 219.984C45.1694 220.248 45.6614 220.38 46.1774 220.38C46.7054 220.38 47.1974 220.248 47.6534 219.984C48.1094 219.72 48.4754 219.336 48.7514 218.832C49.0394 218.316 49.1834 217.716 49.1834 217.032ZM57.5126 222.162C56.7446 222.162 56.0546 222.024 55.4426 221.748C54.8306 221.46 54.3446 221.076 53.9846 220.596C53.6246 220.104 53.4326 219.558 53.4086 218.958H55.5326C55.5686 219.414 55.7666 219.792 56.1266 220.092C56.4986 220.392 56.9606 220.542 57.5126 220.542C58.0886 220.542 58.5326 220.428 58.8446 220.2C59.1686 219.96 59.3306 219.642 59.3306 219.246C59.3306 218.886 59.1506 218.61 58.7906 218.418C58.4306 218.226 57.8726 218.034 57.1166 217.842C56.3846 217.638 55.7846 217.446 55.3166 217.266C54.8606 217.074 54.4646 216.786 54.1286 216.402C53.7926 216.006 53.6246 215.496 53.6246 214.872C53.6246 214.332 53.7746 213.84 54.0746 213.396C54.3746 212.94 54.8066 212.58 55.3706 212.316C55.9466 212.052 56.6186 211.92 57.3866 211.92C58.5146 211.92 59.4206 212.208 60.1046 212.784C60.8006 213.348 61.1726 214.122 61.2206 215.106H59.1686C59.1326 214.626 58.9526 214.248 58.6286 213.972C58.3046 213.684 57.8666 213.54 57.3146 213.54C56.7746 213.54 56.3606 213.654 56.0726 213.882C55.7846 214.098 55.6406 214.392 55.6406 214.764C55.6406 215.028 55.7366 215.25 55.9286 215.43C56.1206 215.61 56.3606 215.754 56.6486 215.862C56.9366 215.958 57.3446 216.078 57.8726 216.222C58.5926 216.414 59.1806 216.606 59.6366 216.798C60.0926 216.99 60.4826 217.284 60.8066 217.68C61.1306 218.064 61.2926 218.568 61.2926 219.192C61.2926 219.756 61.1426 220.266 60.8426 220.722C60.5426 221.166 60.1046 221.52 59.5286 221.784C58.9646 222.036 58.2926 222.162 57.5126 222.162ZM67.4879 217.05L72.0599 222H69.2879L65.6159 217.734V222H63.5639V208.68H65.6159V216.42L69.2159 212.082H72.0599L67.4879 217.05ZM77.0947 222.162C76.3267 222.162 75.6367 222.024 75.0247 221.748C74.4127 221.46 73.9267 221.076 73.5667 220.596C73.2067 220.104 73.0147 219.558 72.9907 218.958H75.1147C75.1507 219.414 75.3487 219.792 75.7087 220.092C76.0807 220.392 76.5427 220.542 77.0947 220.542C77.6707 220.542 78.1147 220.428 78.4267 220.2C78.7507 219.96 78.9127 219.642 78.9127 219.246C78.9127 218.886 78.7327 218.61 78.3727 218.418C78.0127 218.226 77.4547 218.034 76.6987 217.842C75.9667 217.638 75.3667 217.446 74.8987 217.266C74.4427 217.074 74.0467 216.786 73.7107 216.402C73.3747 216.006 73.2067 215.496 73.2067 214.872C73.2067 214.332 73.3567 213.84 73.6567 213.396C73.9567 212.94 74.3887 212.58 74.9527 212.316C75.5287 212.052 76.2007 211.92 76.9687 211.92C78.0967 211.92 79.0027 212.208 79.6867 212.784C80.3827 213.348 80.7547 214.122 80.8027 215.106H78.7507C78.7147 214.626 78.5347 214.248 78.2107 213.972C77.8867 213.684 77.4487 213.54 76.8967 213.54C76.3567 213.54 75.9427 213.654 75.6547 213.882C75.3667 214.098 75.2227 214.392 75.2227 214.764C75.2227 215.028 75.3187 215.25 75.5107 215.43C75.7027 215.61 75.9427 215.754 76.2307 215.862C76.5187 215.958 76.9267 216.078 77.4547 216.222C78.1747 216.414 78.7627 216.606 79.2187 216.798C79.6747 216.99 80.0647 217.284 80.3887 217.68C80.7127 218.064 80.8747 218.568 80.8747 219.192C80.8747 219.756 80.7247 220.266 80.4247 220.722C80.1247 221.166 79.6867 221.52 79.1107 221.784C78.5467 222.036 77.8747 222.162 77.0947 222.162ZM96.0844 219.444H90.8464L89.9464 222H87.8044L92.2864 209.472H94.6624L99.1444 222H96.9844L96.0844 219.444ZM95.5264 217.842L93.4744 211.956L91.4044 217.842H95.5264ZM104.927 220.164L107.735 212.082H109.949L106.169 222H103.685L99.9232 212.082H102.119L104.927 220.164ZM110.78 216.996C110.78 216 110.984 215.118 111.392 214.35C111.812 213.582 112.376 212.988 113.084 212.568C113.804 212.136 114.596 211.92 115.46 211.92C116.24 211.92 116.918 212.076 117.494 212.388C118.082 212.688 118.55 213.066 118.898 213.522V212.082H120.968V222H118.898V220.524C118.55 220.992 118.076 221.382 117.476 221.694C116.876 222.006 116.192 222.162 115.424 222.162C114.572 222.162 113.792 221.946 113.084 221.514C112.376 221.07 111.812 220.458 111.392 219.678C110.984 218.886 110.78 217.992 110.78 216.996ZM118.898 217.032C118.898 216.348 118.754 215.754 118.466 215.25C118.19 214.746 117.824 214.362 117.368 214.098C116.912 213.834 116.42 213.702 115.892 213.702C115.364 213.702 114.872 213.834 114.416 214.098C113.96 214.35 113.588 214.728 113.3 215.232C113.024 215.724 112.886 216.312 112.886 216.996C112.886 217.68 113.024 218.28 113.3 218.796C113.588 219.312 113.96 219.708 114.416 219.984C114.884 220.248 115.376 220.38 115.892 220.38C116.42 220.38 116.912 220.248 117.368 219.984C117.824 219.72 118.19 219.336 118.466 218.832C118.754 218.316 118.898 217.716 118.898 217.032ZM124.707 210.768C124.335 210.768 124.023 210.642 123.771 210.39C123.519 210.138 123.393 209.826 123.393 209.454C123.393 209.082 123.519 208.77 123.771 208.518C124.023 208.266 124.335 208.14 124.707 208.14C125.067 208.14 125.373 208.266 125.625 208.518C125.877 208.77 126.003 209.082 126.003 209.454C126.003 209.826 125.877 210.138 125.625 210.39C125.373 210.642 125.067 210.768 124.707 210.768ZM125.715 212.082V222H123.663V212.082H125.715ZM130.462 208.68V222H128.41V208.68H130.462ZM132.472 216.996C132.472 216 132.676 215.118 133.084 214.35C133.504 213.582 134.068 212.988 134.776 212.568C135.496 212.136 136.288 211.92 137.152 211.92C137.932 211.92 138.61 212.076 139.186 212.388C139.774 212.688 140.242 213.066 140.59 213.522V212.082H142.66V222H140.59V220.524C140.242 220.992 139.768 221.382 139.168 221.694C138.568 222.006 137.884 222.162 137.116 222.162C136.264 222.162 135.484 221.946 134.776 221.514C134.068 221.07 133.504 220.458 133.084 219.678C132.676 218.886 132.472 217.992 132.472 216.996ZM140.59 217.032C140.59 216.348 140.446 215.754 140.158 215.25C139.882 214.746 139.516 214.362 139.06 214.098C138.604 213.834 138.112 213.702 137.584 213.702C137.056 213.702 136.564 213.834 136.108 214.098C135.652 214.35 135.28 214.728 134.992 215.232C134.716 215.724 134.578 216.312 134.578 216.996C134.578 217.68 134.716 218.28 134.992 218.796C135.28 219.312 135.652 219.708 136.108 219.984C136.576 220.248 137.068 220.38 137.584 220.38C138.112 220.38 138.604 220.248 139.06 219.984C139.516 219.72 139.882 219.336 140.158 218.832C140.446 218.316 140.59 217.716 140.59 217.032ZM147.407 213.558C147.755 213.078 148.229 212.688 148.829 212.388C149.441 212.076 150.119 211.92 150.863 211.92C151.739 211.92 152.531 212.13 153.239 212.55C153.947 212.97 154.505 213.57 154.913 214.35C155.321 215.118 155.525 216 155.525 216.996C155.525 217.992 155.321 218.886 154.913 219.678C154.505 220.458 153.941 221.07 153.221 221.514C152.513 221.946 151.727 222.162 150.863 222.162C150.095 222.162 149.411 222.012 148.811 221.712C148.223 221.412 147.755 221.028 147.407 220.56V222H145.355V208.68H147.407V213.558ZM153.437 216.996C153.437 216.312 153.293 215.724 153.005 215.232C152.729 214.728 152.357 214.35 151.889 214.098C151.433 213.834 150.941 213.702 150.413 213.702C149.897 213.702 149.405 213.834 148.937 214.098C148.481 214.362 148.109 214.746 147.821 215.25C147.545 215.754 147.407 216.348 147.407 217.032C147.407 217.716 147.545 218.316 147.821 218.832C148.109 219.336 148.481 219.72 148.937 219.984C149.405 220.248 149.897 220.38 150.413 220.38C150.941 220.38 151.433 220.248 151.889 219.984C152.357 219.708 152.729 219.312 153.005 218.796C153.293 218.28 153.437 217.68 153.437 216.996ZM159.606 208.68V222H157.554V208.68H159.606ZM171.39 216.762C171.39 217.11 171.366 217.434 171.318 217.734H163.722C163.782 218.562 164.076 219.222 164.604 219.714C165.132 220.194 165.786 220.434 166.566 220.434C167.67 220.434 168.45 219.972 168.906 219.048H171.12C170.82 219.96 170.274 220.71 169.482 221.298C168.702 221.874 167.73 222.162 166.566 222.162C165.618 222.162 164.766 221.952 164.01 221.532C163.266 221.1 162.678 220.5 162.246 219.732C161.826 218.952 161.616 218.052 161.616 217.032C161.616 216.012 161.82 215.118 162.228 214.35C162.648 213.57 163.23 212.97 163.974 212.55C164.73 212.13 165.594 211.92 166.566 211.92C167.502 211.92 168.336 212.124 169.068 212.532C169.8 212.94 170.37 213.51 170.778 214.242C171.186 214.974 171.39 215.814 171.39 216.762ZM169.248 216.258C169.236 215.454 168.966 214.818 168.438 214.35C167.922 213.882 167.268 213.648 166.476 213.648C165.756 213.648 165.138 213.882 164.622 214.35C164.118 214.818 163.824 215.454 163.74 216.258H169.248ZM182.964 213.756H181.128V222H179.058V213.756H177.888V212.082H179.058V211.38C179.058 210.24 179.358 209.412 179.958 208.896C180.57 208.368 181.524 208.104 182.82 208.104V209.814C182.196 209.814 181.758 209.934 181.506 210.174C181.254 210.402 181.128 210.804 181.128 211.38V212.082H182.964V213.756ZM189.085 222.162C188.149 222.162 187.303 221.952 186.547 221.532C185.791 221.1 185.197 220.5 184.765 219.732C184.333 218.952 184.117 218.052 184.117 217.032C184.117 216.024 184.339 215.13 184.783 214.35C185.227 213.57 185.833 212.97 186.601 212.55C187.369 212.13 188.227 211.92 189.175 211.92C190.123 211.92 190.981 212.13 191.749 212.55C192.517 212.97 193.123 213.57 193.567 214.35C194.011 215.13 194.233 216.024 194.233 217.032C194.233 218.04 194.005 218.934 193.549 219.714C193.093 220.494 192.469 221.1 191.677 221.532C190.897 221.952 190.033 222.162 189.085 222.162ZM189.085 220.434C189.613 220.434 190.105 220.302 190.561 220.038C191.029 219.774 191.407 219.39 191.695 218.886C191.983 218.37 192.127 217.752 192.127 217.032C192.127 216.312 191.989 215.7 191.713 215.196C191.437 214.68 191.071 214.296 190.615 214.044C190.159 213.78 189.667 213.648 189.139 213.648C188.611 213.648 188.125 213.78 187.681 214.044C187.237 214.296 186.877 214.68 186.601 215.196C186.337 215.7 186.205 216.312 186.205 217.032C186.205 217.752 186.331 218.37 186.583 218.886C186.847 219.402 187.195 219.792 187.627 220.056C188.071 220.308 188.557 220.434 189.085 220.434ZM198.313 213.81C198.613 213.21 199.009 212.748 199.501 212.424C200.005 212.088 200.599 211.92 201.283 211.92V214.044H200.761C199.957 214.044 199.345 214.248 198.925 214.656C198.517 215.064 198.313 215.772 198.313 216.78V222H196.261V212.082H198.313V213.81ZM210.96 213.756V219.246C210.96 219.618 211.044 219.888 211.212 220.056C211.392 220.212 211.692 220.29 212.112 220.29H213.372V222H211.752C210.828 222 210.12 221.784 209.628 221.352C209.136 220.92 208.89 220.218 208.89 219.246V213.756H207.72V212.082H208.89V209.616H210.96V212.082H213.372V213.756H210.96ZM219.565 222.162C218.629 222.162 217.783 221.952 217.027 221.532C216.271 221.1 215.677 220.5 215.245 219.732C214.813 218.952 214.597 218.052 214.597 217.032C214.597 216.024 214.819 215.13 215.263 214.35C215.707 213.57 216.313 212.97 217.081 212.55C217.849 212.13 218.707 211.92 219.655 211.92C220.603 211.92 221.461 212.13 222.229 212.55C222.997 212.97 223.603 213.57 224.047 214.35C224.491 215.13 224.713 216.024 224.713 217.032C224.713 218.04 224.485 218.934 224.029 219.714C223.573 220.494 222.949 221.1 222.157 221.532C221.377 221.952 220.513 222.162 219.565 222.162ZM219.565 220.434C220.093 220.434 220.585 220.302 221.041 220.038C221.509 219.774 221.887 219.39 222.175 218.886C222.463 218.37 222.607 217.752 222.607 217.032C222.607 216.312 222.469 215.7 222.193 215.196C221.917 214.68 221.551 214.296 221.095 214.044C220.639 213.78 220.147 213.648 219.619 213.648C219.091 213.648 218.605 213.78 218.161 214.044C217.717 214.296 217.357 214.68 217.081 215.196C216.817 215.7 216.685 216.312 216.685 217.032C216.685 217.752 216.811 218.37 217.063 218.886C217.327 219.402 217.675 219.792 218.107 220.056C218.551 220.308 219.037 220.434 219.565 220.434ZM226.058 216.996C226.058 216 226.262 215.118 226.67 214.35C227.09 213.582 227.654 212.988 228.362 212.568C229.082 212.136 229.88 211.92 230.756 211.92C231.404 211.92 232.04 212.064 232.664 212.352C233.3 212.628 233.804 213 234.176 213.468V208.68H236.246V222H234.176V220.506C233.84 220.986 233.372 221.382 232.772 221.694C232.184 222.006 231.506 222.162 230.738 222.162C229.874 222.162 229.082 221.946 228.362 221.514C227.654 221.07 227.09 220.458 226.67 219.678C226.262 218.886 226.058 217.992 226.058 216.996ZM234.176 217.032C234.176 216.348 234.032 215.754 233.744 215.25C233.468 214.746 233.102 214.362 232.646 214.098C232.19 213.834 231.698 213.702 231.17 213.702C230.642 213.702 230.15 213.834 229.694 214.098C229.238 214.35 228.866 214.728 228.578 215.232C228.302 215.724 228.164 216.312 228.164 216.996C228.164 217.68 228.302 218.28 228.578 218.796C228.866 219.312 229.238 219.708 229.694 219.984C230.162 220.248 230.654 220.38 231.17 220.38C231.698 220.38 232.19 220.248 232.646 219.984C233.102 219.72 233.468 219.336 233.744 218.832C234.032 218.316 234.176 217.716 234.176 217.032ZM238.257 216.996C238.257 216 238.461 215.118 238.869 214.35C239.289 213.582 239.853 212.988 240.561 212.568C241.281 212.136 242.073 211.92 242.937 211.92C243.717 211.92 244.395 212.076 244.971 212.388C245.559 212.688 246.027 213.066 246.375 213.522V212.082H248.445V222H246.375V220.524C246.027 220.992 245.553 221.382 244.953 221.694C244.353 222.006 243.669 222.162 242.901 222.162C242.049 222.162 241.269 221.946 240.561 221.514C239.853 221.07 239.289 220.458 238.869 219.678C238.461 218.886 238.257 217.992 238.257 216.996ZM246.375 217.032C246.375 216.348 246.231 215.754 245.943 215.25C245.667 214.746 245.301 214.362 244.845 214.098C244.389 213.834 243.897 213.702 243.369 213.702C242.841 213.702 242.349 213.834 241.893 214.098C241.437 214.35 241.065 214.728 240.777 215.232C240.501 215.724 240.363 216.312 240.363 216.996C240.363 217.68 240.501 218.28 240.777 218.796C241.065 219.312 241.437 219.708 241.893 219.984C242.361 220.248 242.853 220.38 243.369 220.38C243.897 220.38 244.389 220.248 244.845 219.984C245.301 219.72 245.667 219.336 245.943 218.832C246.231 218.316 246.375 217.716 246.375 217.032ZM252.256 212.082L255.046 219.642L257.944 212.082H260.068L253.984 226.662H251.86L253.876 221.838L249.97 212.082H252.256ZM262.445 222.126C262.073 222.126 261.761 222 261.509 221.748C261.257 221.496 261.131 221.184 261.131 220.812C261.131 220.44 261.257 220.128 261.509 219.876C261.761 219.624 262.073 219.498 262.445 219.498C262.805 219.498 263.111 219.624 263.363 219.876C263.615 220.128 263.741 220.44 263.741 220.812C263.741 221.184 263.615 221.496 263.363 221.748C263.111 222 262.805 222.126 262.445 222.126Z" fill="#949494"/>
</svg>
