<svg width="32" height="32" viewBox="0 0 32 32" fill="none" xmlns="http://www.w3.org/2000/svg">
<path d="M12.0936 25.4272C12.0936 27.5811 13.846 29.3334 15.9999 29.3334C18.1538 29.3334 19.9061 27.5811 19.9061 25.4272V22.198C19.9061 20.425 20.6512 18.693 21.9504 17.4461C22.9411 16.4953 23.6974 15.3109 24.1374 14.021C24.6062 12.6467 24.7156 11.2075 24.4622 9.74321C24.1294 7.8193 23.1216 6.04623 21.6243 4.75065C20.0712 3.40685 18.0737 2.6668 15.9999 2.66675C13.9336 2.66675 11.9403 3.40394 10.387 4.74253C8.88307 6.03868 7.87109 7.81461 7.5375 9.74321C7.28422 11.2075 7.39349 12.6468 7.86229 14.021C8.30234 15.3109 9.05859 16.4952 10.0493 17.4461C11.3485 18.6929 12.0936 20.4246 12.0936 22.1969V25.4272ZM11.1313 16.3188C9.41687 14.6734 8.66818 12.3737 9.07714 10.0095C9.65651 6.66024 12.5679 4.2293 15.9999 4.22925C19.4319 4.22925 22.3433 6.66024 22.9227 10.0095C23.3316 12.3738 22.5829 14.6734 20.8685 16.3188C19.455 17.6754 18.5726 19.4999 18.3824 21.4166L13.6174 21.4157C13.4272 19.4996 12.5448 17.6754 11.1313 16.3188ZM18.3436 22.9791V25.4272C18.3436 26.7195 17.2922 27.7709 15.9999 27.7709C14.7076 27.7709 13.6561 26.7195 13.6561 25.4272V22.9783L18.3436 22.9791Z" fill="#6166AE"/>
<path d="M15.2188 9.698C15.2188 9.26722 15.5692 8.91675 16 8.91675C16.4308 8.91675 16.7812 9.26722 16.7812 9.698C16.7812 9.94909 16.665 10.1787 16.4622 10.3279C15.6836 10.9012 15.2188 11.8202 15.2188 12.7861V13.6042H16.7812V12.7861C16.7812 12.3148 17.0083 11.8662 17.3886 11.5862C17.9867 11.1459 18.3438 10.44 18.3438 9.698C18.3438 8.40565 17.2923 7.35425 16 7.35425C14.7077 7.35425 13.6562 8.40565 13.6562 9.698V10.4792H15.2188V9.698Z" fill="#6166AE"/>
<path d="M3.4892 6.10474L4.59388 5.00005L6.89381 7.29997L5.78912 8.40466L3.4892 6.10474Z" fill="#6166AE"/>
<path d="M2.66669 10.4792H5.84679V12.0417H2.66669V10.4792Z" fill="#6166AE"/>
<path d="M3.50598 16.3972L5.80425 14.099L6.90893 15.2036L4.61067 17.5019L3.50598 16.3972Z" fill="#6166AE"/>
<path d="M25.1027 7.30225L27.4025 5.00236L28.5072 6.10705L26.2073 8.40693L25.1027 7.30225Z" fill="#6166AE"/>
<path d="M26.153 10.4792H29.3332V12.0417H26.153V10.4792Z" fill="#6166AE"/>
<path d="M25.0859 15.2063L26.1906 14.1016L28.4888 16.3999L27.3841 17.5046L25.0859 15.2063Z" fill="#6166AE"/>
<path d="M15.2188 15.1667H16.7812V16.7292H15.2188V15.1667Z" fill="#6166AE"/>
</svg>
