<svg width="56" height="56" viewBox="0 0 56 56" fill="none" xmlns="http://www.w3.org/2000/svg">
<path d="M41.9737 5.51983C42.5205 4.97313 43.2621 4.66602 44.0353 4.66602C44.8085 4.66602 45.55 4.97313 46.0969 5.51983L50.4796 9.90281C51.0262 10.4497 51.3333 11.1913 51.3333 11.9645C51.3333 12.7378 51.0262 13.4794 50.4796 14.0263L46.0969 18.4092C45.55 18.9559 44.8085 19.2631 44.0353 19.2631C43.2621 19.2631 42.5205 18.9559 41.9737 18.4092L37.588 14.0263C37.0414 13.4794 36.7343 12.7378 36.7343 11.9645C36.7343 11.1913 37.0414 10.4497 37.588 9.90281L41.9737 5.51983ZM11.9566 51.3327H16.3306V39.668H4.66667V44.0423C4.66667 45.9758 5.43471 47.8302 6.80184 49.1974C8.16897 50.5646 10.0232 51.3327 11.9566 51.3327ZM16.3306 25.0873V36.7519H4.66667V25.0873H16.3306ZM30.9105 36.7519H19.2466V25.0873H30.9105V36.7519ZM19.2466 39.668H30.9105V51.3327H19.2466V39.668ZM33.8264 25.0873V36.7519H45.4903V25.0873H33.8264ZM33.8264 39.668H45.4903V44.0423C45.4903 45.9758 44.7223 47.8302 43.3552 49.1974C41.988 50.5646 40.1338 51.3327 38.2004 51.3327H33.8264V39.668ZM4.66667 22.1711H16.3306V10.5065H11.9566C10.0232 10.5065 8.16897 11.2746 6.80184 12.6418C5.43471 14.009 4.66667 15.8633 4.66667 17.7969V22.1711ZM19.2466 22.1711V10.5065H30.9105V22.1711H19.2466Z" fill="#E96217"/>
</svg>
