<svg width="18" height="18" viewBox="0 0 18 18" fill="none" xmlns="http://www.w3.org/2000/svg">
<g id="sort-alt 1" clip-path="url(#clip0_22109_33802)">
<g id="Vector">
<mask id="path-1-inside-1_22109_33802" fill="white">
<path d="M9.0501 13.0837C9.4866 13.5255 9.48285 14.238 9.0411 14.6745L6.19635 17.487C5.83335 17.8492 5.3556 18.0315 4.8771 18.0315C4.3986 18.0315 3.9156 17.8493 3.5496 17.4833L0.709349 14.6752C0.267599 14.2387 0.263849 13.5262 0.700349 13.0845C1.13685 12.642 1.8501 12.639 2.29185 13.0755L3.7506 14.5178V1.125C3.7506 0.504 4.25385 0 4.8756 0C5.49735 0 6.0006 0.504 6.0006 1.125V14.5178L7.45935 13.0755C7.90185 12.639 8.6136 12.642 9.05085 13.0845L9.0501 13.0837ZM17.2911 3.35775L14.4508 0.54975C13.7203 -0.1815 12.5308 -0.1815 11.8041 0.54525L8.95935 3.35775C8.5176 3.79425 8.51385 4.50675 8.95035 4.9485C9.38685 5.391 10.1001 5.394 10.5418 4.9575L12.0006 3.51525V16.875C12.0006 17.496 12.5038 18 13.1256 18C13.7473 18 14.2506 17.496 14.2506 16.875V3.5145L15.7093 4.95675C15.9283 5.1735 16.2148 5.28225 16.5006 5.28225C16.7908 5.28225 17.0803 5.17125 17.3008 4.9485C17.7373 4.50675 17.7328 3.79425 17.2911 3.35775Z"/>
</mask>
<path d="M9.0501 13.0837C9.4866 13.5255 9.48285 14.238 9.0411 14.6745L6.19635 17.487C5.83335 17.8492 5.3556 18.0315 4.8771 18.0315C4.3986 18.0315 3.9156 17.8493 3.5496 17.4833L0.709349 14.6752C0.267599 14.2387 0.263849 13.5262 0.700349 13.0845C1.13685 12.642 1.8501 12.639 2.29185 13.0755L3.7506 14.5178V1.125C3.7506 0.504 4.25385 0 4.8756 0C5.49735 0 6.0006 0.504 6.0006 1.125V14.5178L7.45935 13.0755C7.90185 12.639 8.6136 12.642 9.05085 13.0845L9.0501 13.0837ZM17.2911 3.35775L14.4508 0.54975C13.7203 -0.1815 12.5308 -0.1815 11.8041 0.54525L8.95935 3.35775C8.5176 3.79425 8.51385 4.50675 8.95035 4.9485C9.38685 5.391 10.1001 5.394 10.5418 4.9575L12.0006 3.51525V16.875C12.0006 17.496 12.5038 18 13.1256 18C13.7473 18 14.2506 17.496 14.2506 16.875V3.5145L15.7093 4.95675C15.9283 5.1735 16.2148 5.28225 16.5006 5.28225C16.7908 5.28225 17.0803 5.17125 17.3008 4.9485C17.7373 4.50675 17.7328 3.79425 17.2911 3.35775Z" fill="black" stroke="#6166AE" stroke-width="42.6667" mask="url(#path-1-inside-1_22109_33802)"/>
</g>
</g>
<defs>
<clipPath id="clip0_22109_33802">
<rect width="18" height="18" fill="white"/>
</clipPath>
</defs>
</svg>
