<svg width="40" height="40" viewBox="0 0 40 40" fill="none" xmlns="http://www.w3.org/2000/svg">
<g clip-path="url(#clip0_21165_87127)">
<path d="M18.9565 39.9989C29.4259 39.9989 37.913 31.5118 37.913 21.0424C37.913 10.573 29.4259 2.08594 18.9565 2.08594C8.48711 2.08594 0 10.573 0 21.0424C0 31.5118 8.48711 39.9989 18.9565 39.9989Z" fill="#1C4CC3"/>
<path d="M37.9132 21.0427C37.9132 31.5118 29.4258 39.9993 18.9566 39.9993C18.4351 39.9993 17.9183 39.9779 17.4071 39.937C27.1512 39.1488 34.8142 30.9904 34.8142 21.0427C34.8142 11.095 27.1512 2.93648 17.407 2.1482C17.9182 2.10734 18.435 2.08594 18.9565 2.08594C29.4258 2.08594 37.9132 10.5734 37.9132 21.0427Z" fill="#1F2165"/>
<path d="M18.9566 35.7325C27.0693 35.7325 33.646 29.1558 33.646 21.043C33.646 12.9302 27.0693 6.35352 18.9566 6.35352C10.8438 6.35352 4.26709 12.9302 4.26709 21.043C4.26709 29.1558 10.8438 35.7325 18.9566 35.7325Z" fill="#EEF4F5"/>
<path d="M33.6457 21.0428C33.6457 29.1556 27.0694 35.732 18.9565 35.732C18.4331 35.732 17.9164 35.705 17.407 35.6511C24.7911 34.8768 30.5467 28.6323 30.5467 21.0428C30.5467 13.4532 24.7912 7.20867 17.407 6.43437C17.9164 6.38047 18.4331 6.35352 18.9565 6.35352C27.0694 6.35352 33.6457 12.9299 33.6457 21.0428Z" fill="#CBE5E7"/>
<path d="M18.9566 31.4659C24.7127 31.4659 29.3789 26.7996 29.3789 21.0435C29.3789 15.2874 24.7127 10.6211 18.9566 10.6211C13.2004 10.6211 8.53418 15.2874 8.53418 21.0435C8.53418 26.7996 13.2004 31.4659 18.9566 31.4659Z" fill="#3B3E98"/>
<path d="M29.3793 21.0438C29.3793 26.8003 24.7131 31.4665 18.9566 31.4665C18.4305 31.4665 17.9128 31.4274 17.4071 31.3522C22.4284 30.603 26.2794 26.2733 26.2794 21.0438C26.2794 15.8143 22.4284 11.4846 17.4071 10.7354C17.9127 10.6601 18.4305 10.6211 18.9566 10.6211C24.7131 10.621 29.3793 15.2872 29.3793 21.0438Z" fill="#1F2165"/>
<path d="M18.9565 27.1545C22.3313 27.1545 25.067 24.4188 25.067 21.0441C25.067 17.6693 22.3313 14.9336 18.9565 14.9336C15.5818 14.9336 12.8461 17.6693 12.8461 21.0441C12.8461 24.4188 15.5818 27.1545 18.9565 27.1545Z" fill="#EEF4F5"/>
<path d="M25.0673 21.0443C25.0673 24.4194 22.3316 27.155 18.9566 27.155C18.4546 27.155 17.9666 27.0945 17.5 26.9802C20.1715 26.3268 22.1532 23.9174 22.1532 21.0443C22.1532 18.1711 20.1715 15.7618 17.5 15.1084C17.9666 14.994 18.4546 14.9336 18.9566 14.9336C22.3317 14.9336 25.0673 17.6691 25.0673 21.0443Z" fill="#CBE5E7"/>
<path d="M18.9566 23.2705C20.1871 23.2705 21.1846 22.273 21.1846 21.0425C21.1846 19.812 20.1871 18.8145 18.9566 18.8145C17.726 18.8145 16.7285 19.812 16.7285 21.0425C16.7285 22.273 17.726 23.2705 18.9566 23.2705Z" fill="#3B3E98"/>
<path d="M21.1847 21.0425C21.1847 22.2732 20.1873 23.2705 18.9566 23.2705C18.5784 23.2705 18.2214 23.1766 17.9091 23.0094C18.8348 22.8337 19.5348 22.0195 19.5348 21.0425C19.5348 20.0655 18.8348 19.2513 17.9091 19.0756C18.2214 18.9084 18.5783 18.8145 18.9566 18.8145C20.1873 18.8144 21.1847 19.8118 21.1847 21.0425Z" fill="#1F2165"/>
<path d="M18.9565 21.6473C18.8021 21.6473 18.6476 21.5883 18.5297 21.4705C18.294 21.2347 18.294 20.8525 18.5297 20.6167L34.9951 4.15133C35.2308 3.9157 35.613 3.9157 35.8488 4.15133C36.0846 4.38711 36.0846 4.76922 35.8488 5.00508L19.3834 21.4705C19.2655 21.5883 19.1111 21.6473 18.9565 21.6473Z" fill="#688D97"/>
<path d="M27.8211 4.36402C27.5387 4.64645 27.4173 5.05199 27.4983 5.44309L28.7083 11.2925L30.7157 9.28512L29.8215 4.96254C29.6302 4.03824 28.4885 3.6966 27.8211 4.36402Z" fill="#31A7FB"/>
<path d="M29.8284 2.35623C29.546 2.63866 29.4247 3.0442 29.5056 3.4353L30.7157 9.28467L32.723 7.27733L31.8288 2.95467C31.6376 2.03038 30.4958 1.68881 29.8284 2.35623Z" fill="#A3E440"/>
<path d="M31.8358 0.348422C31.5534 0.630844 31.4321 1.03639 31.513 1.42748L32.7231 7.27686L34.7305 5.26952L33.8362 0.94686C33.645 0.0225629 32.5032 -0.319 31.8358 0.348422Z" fill="#31A7FB"/>
<path d="M35.6368 12.1798C35.3544 12.4622 34.9488 12.5835 34.5577 12.5026L28.7084 11.2925L30.7157 9.28516L35.0383 10.1794C35.9626 10.3706 36.3042 11.5123 35.6368 12.1798Z" fill="#1C96F9"/>
<path d="M37.6441 10.172C37.3617 10.4544 36.9562 10.5757 36.5651 10.4948L30.7157 9.28469L32.723 7.27734L37.0457 8.17156C37.97 8.36273 38.3116 9.50453 37.6441 10.172Z" fill="#8DC637"/>
<path d="M39.6515 8.16414C39.369 8.44656 38.9635 8.56789 38.5724 8.48695L32.723 7.27688L34.7304 5.26953L39.0529 6.16375C39.9773 6.355 40.3189 7.4968 39.6515 8.16414Z" fill="#1C96F9"/>
</g>
<defs>
<clipPath id="clip0_21165_87127">
<rect width="40" height="40" fill="white"/>
</clipPath>
</defs>
</svg>
