<svg width="52" height="52" viewBox="0 0 52 52" fill="none" xmlns="http://www.w3.org/2000/svg">
<g opacity="0.14" filter="url(#filter0_d_21166_33319)">
<rect x="8" y="4" width="36" height="36" rx="4" fill="#6166AE"/>
</g>
<path d="M29.7838 17.7115C29.7838 19.8023 28.0889 21.4972 25.9981 21.4972C23.9073 21.4972 22.2124 19.8023 22.2124 17.7115C22.2124 15.6207 23.9073 13.9258 25.9981 13.9258C28.0889 13.9258 29.7838 15.6207 29.7838 17.7115Z" fill="#6166AE" stroke="#6166AE"/>
<path d="M25.9979 23.4258C22.4491 23.4297 19.5733 26.3056 19.5693 29.8544C19.5693 30.2488 19.8891 30.5686 20.2836 30.5686H31.7122C32.1067 30.5686 32.4264 30.2488 32.4264 29.8544C32.4225 26.3056 29.5467 23.4297 25.9979 23.4258Z" fill="#6166AE"/>
<defs>
<filter id="filter0_d_21166_33319" x="0" y="0" width="52" height="52" filterUnits="userSpaceOnUse" color-interpolation-filters="sRGB">
<feFlood flood-opacity="0" result="BackgroundImageFix"/>
<feColorMatrix in="SourceAlpha" type="matrix" values="0 0 0 0 0 0 0 0 0 0 0 0 0 0 0 0 0 0 127 0" result="hardAlpha"/>
<feOffset dy="4"/>
<feGaussianBlur stdDeviation="4"/>
<feComposite in2="hardAlpha" operator="out"/>
<feColorMatrix type="matrix" values="0 0 0 0 0.0980392 0 0 0 0 0.145098 0 0 0 0 0.270588 0 0 0 0.24 0"/>
<feBlend mode="normal" in2="BackgroundImageFix" result="effect1_dropShadow_21166_33319"/>
<feBlend mode="normal" in="SourceGraphic" in2="effect1_dropShadow_21166_33319" result="shape"/>
</filter>
</defs>
</svg>
