<svg width="72" height="72" viewBox="0 0 72 72" fill="none" xmlns="http://www.w3.org/2000/svg">
<g opacity="0.14" filter="url(#filter0_d_20779_83730)">
<rect x="8" y="4" width="56" height="56" rx="4" fill="#6166AE"/>
</g>
<g clip-path="url(#clip0_20779_83730)">
<path d="M51.2718 36.574L51.5945 36.1674L51.2718 36.574C51.6786 36.8968 51.4486 37.5565 50.9294 37.5565H28.5689C28.2646 37.5565 28.018 37.3098 28.018 37.0056V19.2627C28.018 18.8033 28.5514 18.5456 28.9114 18.8311C28.9114 18.8311 28.9114 18.8311 28.9114 18.8311L51.2718 36.574ZM29.1198 35.9355V36.4546L29.6389 36.4546L47.8594 36.4547L49.3487 36.4547L48.182 35.5289L29.9616 21.0711L29.1198 20.4032V21.4778V35.9355Z" stroke="#6166AE" stroke-width="1.03823"/>
<path d="M45.1178 27.0812L44.7405 26.8843L44.4735 27.2155C44.1674 27.5951 43.5501 27.3769 43.5501 26.8905V17.3273C43.5501 17.0406 43.7826 16.8082 44.0693 16.8082C44.3559 16.8082 44.5884 17.0406 44.5884 17.3273V21.3537V22.1423L45.3127 21.8305C47.2164 21.0112 49.3645 22.4132 49.3645 24.5025C49.3645 26.6934 47.0273 28.0778 45.1178 27.0812ZM44.5883 24.5024V24.5025C44.5883 25.5334 45.4263 26.3714 46.4572 26.3714C47.4882 26.3714 48.3262 25.5334 48.3262 24.5025C48.3262 23.4714 47.4882 22.6335 46.4572 22.6335C45.4262 22.6335 44.5884 23.4715 44.5883 24.5024Z" stroke="#6166AE" stroke-width="1.03823"/>
<path d="M23.0614 23.2227H22.1521C21.5788 23.2227 21.1139 23.6875 21.1139 24.2609C21.1139 24.8343 21.5788 25.2991 22.1521 25.2991H23.0615C23.5995 25.2991 24.0372 25.7368 24.0372 26.2748V26.5992C22.0522 25.9251 20 27.4126 20 29.4938C20 31.726 22.333 33.214 24.356 32.26C25.0124 32.8916 26.1136 32.4265 26.1136 31.5124V26.2748C26.1136 24.5919 24.7444 23.2227 23.0614 23.2227ZM23.0568 30.4741C22.5162 30.4741 22.0765 30.0344 22.0765 29.4938C22.0765 28.9533 22.5162 28.5135 23.0568 28.5135C23.5974 28.5135 24.0371 28.9533 24.0371 29.4938C24.0371 30.0344 23.5973 30.4741 23.0568 30.4741Z" fill="#6166AE"/>
<path d="M39.0503 41.346C39.6237 41.346 40.0886 40.8812 40.0886 40.3078C40.0886 39.7343 39.6237 39.2695 39.0503 39.2695C36.723 39.2695 34.8296 41.1629 34.8296 43.4902C34.8296 45.8176 36.723 47.711 39.0503 47.711C39.6237 47.711 40.0886 47.2462 40.0886 46.6728C40.0886 46.0994 39.6237 45.6346 39.0503 45.6346C37.868 45.6346 36.9061 44.6727 36.9061 43.4902C36.906 42.3079 37.8679 41.346 39.0503 41.346Z" fill="#6166AE"/>
</g>
<defs>
<filter id="filter0_d_20779_83730" x="0" y="0" width="72" height="72" filterUnits="userSpaceOnUse" color-interpolation-filters="sRGB">
<feFlood flood-opacity="0" result="BackgroundImageFix"/>
<feColorMatrix in="SourceAlpha" type="matrix" values="0 0 0 0 0 0 0 0 0 0 0 0 0 0 0 0 0 0 127 0" result="hardAlpha"/>
<feOffset dy="4"/>
<feGaussianBlur stdDeviation="4"/>
<feComposite in2="hardAlpha" operator="out"/>
<feColorMatrix type="matrix" values="0 0 0 0 0.0980392 0 0 0 0 0.145098 0 0 0 0 0.270588 0 0 0 0.24 0"/>
<feBlend mode="normal" in2="BackgroundImageFix" result="effect1_dropShadow_20779_83730"/>
<feBlend mode="normal" in="SourceGraphic" in2="effect1_dropShadow_20779_83730" result="shape"/>
</filter>
<clipPath id="clip0_20779_83730">
<rect width="32" height="32" fill="white" transform="translate(20 16)"/>
</clipPath>
</defs>
</svg>
