<svg width="48" height="48" viewBox="0 0 48 48" fill="none" xmlns="http://www.w3.org/2000/svg">
<g opacity="0.14" filter="url(#filter0_d_21173_24086)">
<rect x="8" y="4" width="32" height="32" rx="4" fill="#6166AE"/>
</g>
<path d="M20.3272 20.0861L20.1598 20.4212L20.1598 20.4212L20.3272 20.0861L20.3272 20.0861ZM24.6946 27.296L24.6946 27.296L24.6946 27.296Z" stroke="#6166AE" stroke-width="1.33333"/>
<mask id="path-3-inside-1_21173_24086" fill="white">
<path d="M30.1362 14.4531H24.5575C24.2698 14.4531 24.0366 14.6863 24.0366 14.974C24.0366 15.2616 24.2698 15.4948 24.5575 15.4948H30.1362C30.4237 15.4948 30.657 15.2616 30.657 14.974C30.657 14.6863 30.4239 14.4531 30.1362 14.4531Z"/>
</mask>
<path d="M30.1362 13.1198H24.5575V15.7865H30.1362V13.1198ZM24.5575 13.1198C23.5334 13.1198 22.7033 13.9499 22.7033 14.974H25.37C25.37 15.4227 25.0062 15.7865 24.5575 15.7865V13.1198ZM22.7033 14.974C22.7033 15.998 23.5334 16.8281 24.5575 16.8281V14.1615C25.0062 14.1615 25.37 14.5253 25.37 14.974H22.7033ZM24.5575 16.8281H30.1362V14.1615H24.5575V16.8281ZM30.1362 16.8281C31.1599 16.8281 31.9904 15.9982 31.9904 14.974H29.3237C29.3237 14.525 29.6876 14.1615 30.1362 14.1615V16.8281ZM31.9904 14.974C31.9904 13.9499 31.1603 13.1198 30.1362 13.1198V15.7865C29.6875 15.7865 29.3237 15.4227 29.3237 14.974H31.9904Z" fill="#6166AE" mask="url(#path-3-inside-1_21173_24086)"/>
<path d="M30.1362 16.4043H27.3468C27.0592 16.4043 26.8259 16.6375 26.8259 16.9251C26.8259 17.2128 27.0592 17.446 27.3468 17.446H30.1362C30.4237 17.446 30.657 17.2128 30.657 16.9251C30.657 16.6375 30.4239 16.4043 30.1362 16.4043Z" fill="#6166AE"/>
<path d="M30.1362 18.3574H27.3468C27.0592 18.3574 26.8259 18.5906 26.8259 18.8783C26.8259 19.1658 27.0592 19.3991 27.3468 19.3991H30.1362C30.4237 19.3991 30.657 19.1658 30.657 18.8783C30.657 18.5906 30.4239 18.3574 30.1362 18.3574Z" fill="#6166AE"/>
<defs>
<filter id="filter0_d_21173_24086" x="0" y="0" width="48" height="48" filterUnits="userSpaceOnUse" color-interpolation-filters="sRGB">
<feFlood flood-opacity="0" result="BackgroundImageFix"/>
<feColorMatrix in="SourceAlpha" type="matrix" values="0 0 0 0 0 0 0 0 0 0 0 0 0 0 0 0 0 0 127 0" result="hardAlpha"/>
<feOffset dy="4"/>
<feGaussianBlur stdDeviation="4"/>
<feComposite in2="hardAlpha" operator="out"/>
<feColorMatrix type="matrix" values="0 0 0 0 0.0980392 0 0 0 0 0.145098 0 0 0 0 0.270588 0 0 0 0.24 0"/>
<feBlend mode="normal" in2="BackgroundImageFix" result="effect1_dropShadow_21173_24086"/>
<feBlend mode="normal" in="SourceGraphic" in2="effect1_dropShadow_21173_24086" result="shape"/>
</filter>
</defs>
</svg>
