<svg width="32" height="32" viewBox="0 0 32 32" fill="none" xmlns="http://www.w3.org/2000/svg">
<circle cx="16" cy="16" r="16" fill="#6166AE"/>
<path d="M9.6667 18H11C11.184 18 11.3333 18.1492 11.3333 18.3333V21.6666C11.3333 21.8507 11.184 22 11 22H9.6667C9.48262 22 9.33333 21.8507 9.33333 21.6666V18.3333C9.33333 18.1492 9.48262 18 9.6667 18Z" fill="white"/>
<path d="M13.6666 14.6665H15C15.184 14.6665 15.3333 14.8307 15.3333 15.0332V21.6331C15.3333 21.8356 15.184 21.9998 15 21.9998H13.6666C13.4825 21.9998 13.3333 21.8356 13.3333 21.6331V15.0332C13.3333 14.8307 13.4825 14.6665 13.6666 14.6665Z" fill="white"/>
<path d="M17 16.6665H18.3334C18.5175 16.6665 18.6667 16.8158 18.6667 16.9999V21.6665C18.6667 21.8505 18.5175 21.9998 18.3334 21.9998H17C16.816 21.9998 16.6667 21.8505 16.6667 21.6665V16.9999C16.6667 16.8158 16.816 16.6665 17 16.6665Z" fill="white"/>
<path d="M21 14H22.3333C22.5174 14 22.6667 14.1629 22.6667 14.3637V21.6363C22.6667 21.8371 22.5174 22 22.3333 22H21C20.816 22 20.6667 21.8371 20.6667 21.6363V14.3637C20.6667 14.1629 20.816 14 21 14Z" fill="white"/>
<path d="M21.5556 10C20.9422 10.0006 20.4451 10.448 20.4444 11C20.4459 11.1089 20.4674 11.2168 20.5079 11.3193L18.6538 12.3113C18.4105 12.079 18.0577 11.9664 17.7061 12.0088C17.3544 12.0511 17.0471 12.2433 16.8801 12.525L15.2448 11.796C15.2528 11.7532 15.2575 11.7099 15.2593 11.6666C15.2601 11.2618 14.9898 10.8966 14.5745 10.7412C14.1592 10.5859 13.6808 10.6713 13.3627 10.9574C13.0445 11.2435 12.9495 11.6739 13.1218 12.0478L11.0005 13.4726C10.8324 13.3824 10.6403 13.3343 10.4444 13.3333C9.83083 13.3333 9.33333 13.781 9.33333 14.3333C9.33333 14.8856 9.83083 15.3333 10.4444 15.3333C11.058 15.3333 11.5556 14.8856 11.5556 14.3333C11.5546 14.213 11.5294 14.094 11.4811 13.9818L13.6236 12.5427C14.0427 12.753 14.5654 12.6914 14.91 12.3909L16.7697 13.2198C16.8937 13.7168 17.4133 14.0503 17.9758 13.9939C18.5382 13.9375 18.9636 13.5094 18.9629 13C18.9629 12.9746 18.9567 12.9507 18.9546 12.9258L20.9712 11.8468C21.1461 11.9463 21.3486 11.9994 21.5556 12C22.1692 12 22.6667 11.5522 22.6667 11C22.6667 10.4478 22.1692 10 21.5556 10Z" fill="white"/>
</svg>
