<svg width="56" height="56" viewBox="0 0 56 56" fill="none" xmlns="http://www.w3.org/2000/svg">
<path d="M31.5137 12.4922C35.2635 12.4916 38.8854 13.8264 41.7034 16.2474C44.5214 18.6685 46.343 22.0103 46.8281 25.6492L51.1711 32.3344C51.4568 32.7746 51.3989 33.4301 50.7368 33.7097L46.9555 35.2927V40.8275C46.9555 41.8295 46.5488 42.7904 45.8248 43.499C45.1008 44.2075 44.1189 44.6055 43.0951 44.6055H39.2365L39.2346 50.2726H21.8626V43.2945C21.8626 41.0655 21.021 38.9555 19.4614 37.0513C17.6426 34.8289 16.5024 32.1489 16.1721 29.32C15.8418 26.4911 16.3348 23.6285 17.5944 21.0618C18.854 18.4952 20.8288 16.329 23.2915 14.8129C25.7541 13.2967 28.6043 12.4923 31.5137 12.4922Z" fill="#00B6FF"/>
<path fill-rule="evenodd" clip-rule="evenodd" d="M16.4499 7.36695C17.3523 6.73265 18.5981 6.95004 19.2324 7.85249L21.1764 10.6183C21.8107 11.5208 21.5933 12.7665 20.6908 13.4008C19.7884 14.0351 18.5426 13.8177 17.9083 12.9153L15.9643 10.1495C15.33 9.24703 15.5474 8.00124 16.4499 7.36695ZM9.16554 10.6838C9.8211 9.79672 11.0717 9.609 11.9588 10.2646L17.4994 14.3589C18.3865 15.0145 18.5742 16.2651 17.9187 17.1522C17.2631 18.0393 16.0125 18.227 15.1254 17.5715L9.58482 13.4771C8.69769 12.8216 8.50997 11.571 9.16554 10.6838ZM7.04619 18.7842C7.3254 17.717 8.41683 17.0783 9.48398 17.3575L13.7198 18.4657C14.787 18.745 15.4257 19.8364 15.1465 20.9035C14.8673 21.9707 13.7759 22.6094 12.7087 22.3302L8.47289 21.222C7.40574 20.9428 6.76699 19.8513 7.04619 18.7842Z" fill="#00B6FF"/>
</svg>
