<svg width="34" height="32" viewBox="0 0 34 32" fill="none" xmlns="http://www.w3.org/2000/svg">
<g clip-path="url(#clip0_21165_87140)">
<path d="M28.3714 8H21.6528C20.5402 8 19.6373 8.896 19.6373 10C19.6373 11.104 20.5402 12 21.6528 12H26.1932L18.2935 19.8387L12.7588 14.3467C11.3653 12.964 9.09716 12.964 7.70373 14.3467L1.41515 20.5853C0.627731 21.3667 0.627731 22.632 1.41515 23.4133C2.20256 24.1947 3.47775 24.1947 4.26516 23.4133L10.2299 17.4947L15.7647 22.9867C16.4621 23.6787 17.3758 24.024 18.2922 24.024C19.2086 24.024 20.1223 23.6773 20.8197 22.9867L29.0419 14.828V19.3333C29.0419 20.4373 29.9449 21.3333 31.0575 21.3333C32.1701 21.3333 33.073 20.4373 33.073 19.3333V12.6667C33.073 10.0933 30.9648 8 28.3714 8Z" fill="#8AB424"/>
</g>
<defs>
<clipPath id="clip0_21165_87140">
<rect width="32.2491" height="32" fill="white" transform="translate(0.825317)"/>
</clipPath>
</defs>
</svg>
