<svg width="24" height="24" viewBox="0 0 24 24" fill="none" xmlns="http://www.w3.org/2000/svg">
<g clip-path="url(#clip0_16325_19037)">
<path d="M4.71703 19.7859L4.71704 19.7859L7.81532 15.1984L7.96403 14.9782H8.22973H15.7707H16.0364L16.1852 15.1984L19.2834 19.7859L19.2835 19.7859C19.7282 20.4447 19.7717 21.2659 19.3987 21.9679L4.71703 19.7859ZM4.71703 19.7859C4.27214 20.4447 4.22871 21.266 4.60171 21.968C4.97467 22.67 5.67959 23.0937 6.47455 23.0937H17.5258C18.3207 23.0937 19.0257 22.67 19.3987 21.968L4.71703 19.7859ZM14.468 11.7769V11.9299L14.5536 12.0568L19.62 19.5585L20.0344 19.2786L19.62 19.5585C20.1447 20.3353 20.1973 21.3308 19.7574 22.1586L20.199 22.3933L19.7574 22.1586C19.3176 22.9864 18.4631 23.5 17.5257 23.5H6.47445C5.53712 23.5 4.68263 22.9864 4.2428 22.1587C3.80301 21.3309 3.85565 20.3353 4.38026 19.5585L9.44669 12.0567L9.53235 11.9299V11.7769V6.64862V6.14856H9.03229H8.83917V5.74225H15.1612V6.14856H14.968H14.468V6.64862V11.7769ZM14.0617 6.64862V6.14856H13.5616H10.4387H9.93861V6.64862V12.0543L8.76508 13.7919L8.23834 14.5718H9.17949H14.8208H15.7619L15.2352 13.7919L14.0617 12.0543V6.64862Z" stroke="#6166AE" stroke-width="1.00013"/>
<path d="M11.797 20.4669H12.2033V20.8733H11.797V20.4669Z" fill="#6166AE" stroke="#6166AE" stroke-width="1.00013"/>
<path d="M14.3913 17.6958H15.7977V19.1023H14.3913V17.6958Z" fill="#6166AE"/>
<path d="M8.7832 16.8516H10.1896V18.2581H8.7832V16.8516Z" fill="#6166AE"/>
<path d="M11.0616 3.29354L12.2318 4.07369L12.5978 3.52481C12.9781 2.95436 12.9781 2.2172 12.5978 1.64679C12.5335 1.55027 12.5335 1.42561 12.5978 1.32913L12.9638 0.780196L11.7935 0L11.4275 0.548931C11.0473 1.11933 11.0473 1.85649 11.4275 2.42694C11.4919 2.52342 11.4919 2.64808 11.4275 2.74461L11.0616 3.29354Z" fill="#6166AE"/>
<path d="M14.8471 1.05179L14.8472 1.05169L14.9358 0.918838L14.5977 0.69347L14.5092 0.82631C14.5091 0.826312 14.5091 0.826315 14.5091 0.826318C14.2409 1.2287 14.2409 1.74695 14.509 2.14937L14.8471 1.05179ZM14.8471 1.05179C14.6709 1.31623 14.6709 1.65965 14.8472 1.92415L14.8471 1.05179ZM14.7586 3.38024L14.8472 3.2474C14.8472 3.24738 14.8472 3.24737 14.8473 3.24735C15.1154 2.84494 15.1155 2.32664 14.8473 1.92423L14.7586 3.38024ZM14.7586 3.38024L14.4206 3.15485L14.5091 3.022C14.6854 2.75759 14.6855 2.41403 14.5091 2.14954L14.7586 3.38024Z" fill="#6166AE" stroke="#6166AE" stroke-width="1.00013"/>
<path d="M8.37112 3.29354L9.54132 4.07369L9.90732 3.52476C10.2875 2.95436 10.2875 2.2172 9.90732 1.64679C9.84296 1.55027 9.84296 1.42561 9.90728 1.32908L10.2732 0.780149L9.10299 0L8.73703 0.548931C8.35678 1.11933 8.35678 1.85649 8.73698 2.4269C8.80135 2.52338 8.80135 2.64813 8.73703 2.74461L8.37112 3.29354Z" fill="#6166AE"/>
</g>
<defs>
<clipPath id="clip0_16325_19037">
<rect width="24" height="24" fill="white"/>
</clipPath>
</defs>
</svg>
