<svg width="20" height="20" viewBox="0 0 20 20" fill="none" xmlns="http://www.w3.org/2000/svg">
<g clip-path="url(#clip0_16260_12216)">
<path d="M16.9814 7.11917L15.9547 8.6645C16.4499 9.65274 16.6923 10.7485 16.6602 11.8535C16.6282 12.9585 16.3227 14.0383 15.7711 14.9962H4.20226C3.4854 13.7517 3.18835 12.3091 3.35516 10.8823C3.52197 9.45556 4.14375 8.12057 5.12833 7.07526C6.11291 6.02995 7.40787 5.32996 8.82123 5.07908C10.2346 4.8282 11.6911 5.03977 12.9749 5.68243L14.5191 4.65499C12.9469 3.64611 11.0821 3.19403 9.22285 3.37106C7.36362 3.54809 5.61743 4.344 4.2636 5.63149C2.90977 6.91897 2.02651 8.62363 1.75512 10.4728C1.48372 12.322 1.83987 14.2088 2.76658 15.8315C2.91225 16.084 3.1214 16.2939 3.37327 16.4405C3.62513 16.587 3.91093 16.6651 4.20226 16.6668H15.7628C16.0569 16.668 16.3462 16.5913 16.6012 16.4447C16.8563 16.298 17.068 16.0864 17.2151 15.8315C17.9842 14.4983 18.3702 12.9783 18.3304 11.4394C18.2906 9.90047 17.8267 8.40248 16.9898 7.11082L16.9814 7.11917Z" fill="#6166AE"/>
<path d="M8.82481 12.8416C8.9796 12.9966 9.16341 13.1195 9.36574 13.2034C9.56807 13.2872 9.78495 13.3304 10.004 13.3304C10.223 13.3304 10.4399 13.2872 10.6422 13.2034C10.8445 13.1195 11.0284 12.9966 11.1831 12.8416L15.8998 5.7666L8.82481 10.4833C8.66985 10.6381 8.54692 10.8219 8.46304 11.0242C8.37917 11.2265 8.336 11.4434 8.336 11.6624C8.336 11.8815 8.37917 12.0983 8.46304 12.3007C8.54692 12.503 8.66985 12.6868 8.82481 12.8416Z" fill="#6166AE"/>
</g>
<defs>
<clipPath id="clip0_16260_12216">
<rect width="20" height="20" fill="white"/>
</clipPath>
</defs>
</svg>
