<svg width="20" height="20" viewBox="0 0 20 20" fill="none" xmlns="http://www.w3.org/2000/svg">
<g clip-path="url(#clip0_18630_16102)">
<path d="M16.9814 7.11893L15.9547 8.66426C16.4499 9.6525 16.6923 10.7482 16.6602 11.8533C16.6282 12.9583 16.3227 14.0381 15.7711 14.9959H4.20226C3.4854 13.7514 3.18835 12.3088 3.35516 10.8821C3.52197 9.45531 4.14375 8.12032 5.12833 7.07501C6.11291 6.0297 7.40787 5.32972 8.82123 5.07883C10.2346 4.82795 11.6911 5.03952 12.9749 5.68219L14.5191 4.65475C12.9469 3.64587 11.0821 3.19379 9.22285 3.37082C7.36362 3.54785 5.61743 4.34376 4.2636 5.63124C2.90977 6.91872 2.02651 8.62339 1.75512 10.4726C1.48372 12.3217 1.83987 14.2086 2.76658 15.8313C2.91225 16.0838 3.1214 16.2937 3.37327 16.4402C3.62513 16.5868 3.91093 16.6648 4.20226 16.6666H15.7628C16.0569 16.6677 16.3462 16.5911 16.6012 16.4444C16.8563 16.2977 17.068 16.0862 17.2151 15.8313C17.9842 14.498 18.3702 12.978 18.3304 11.4391C18.2906 9.90022 17.8267 8.40224 16.9898 7.11057L16.9814 7.11893Z" fill="white"/>
<path d="M8.82481 12.8416C8.9796 12.9966 9.16341 13.1195 9.36574 13.2034C9.56807 13.2872 9.78495 13.3304 10.004 13.3304C10.223 13.3304 10.4399 13.2872 10.6422 13.2034C10.8445 13.1195 11.0284 12.9966 11.1831 12.8416L15.8998 5.7666L8.82481 10.4833C8.66985 10.6381 8.54692 10.8219 8.46304 11.0242C8.37917 11.2265 8.336 11.4434 8.336 11.6624C8.336 11.8815 8.37917 12.0983 8.46304 12.3007C8.54692 12.503 8.66985 12.6868 8.82481 12.8416V12.8416Z" fill="white"/>
</g>
<defs>
<clipPath id="clip0_18630_16102">
<rect width="20" height="20" fill="white"/>
</clipPath>
</defs>
</svg>
