<svg width="52" height="52" viewBox="0 0 52 52" fill="none" xmlns="http://www.w3.org/2000/svg">
<g opacity="0.14" filter="url(#filter0_d_21147_54483)">
<rect x="8" y="4" width="36" height="36" rx="4" fill="#E95436"/>
<rect x="8" y="4" width="36" height="36" rx="4" fill="#EDEDED" fill-opacity="0.2"/>
</g>
<path d="M29.7843 17.7134C29.7843 19.8042 28.0894 21.4992 25.9986 21.4992C23.9078 21.4992 22.2129 19.8042 22.2129 17.7134C22.2129 15.6227 23.9078 13.9277 25.9986 13.9277C28.0894 13.9277 29.7843 15.6227 29.7843 17.7134Z" fill="#E95436"/>
<path d="M29.7843 17.7134C29.7843 19.8042 28.0894 21.4992 25.9986 21.4992C23.9078 21.4992 22.2129 19.8042 22.2129 17.7134C22.2129 15.6227 23.9078 13.9277 25.9986 13.9277C28.0894 13.9277 29.7843 15.6227 29.7843 17.7134Z" fill="#EDEDED" fill-opacity="0.2"/>
<path d="M29.7843 17.7134C29.7843 19.8042 28.0894 21.4992 25.9986 21.4992C23.9078 21.4992 22.2129 19.8042 22.2129 17.7134C22.2129 15.6227 23.9078 13.9277 25.9986 13.9277C28.0894 13.9277 29.7843 15.6227 29.7843 17.7134Z" stroke="#E95436"/>
<path d="M29.7843 17.7134C29.7843 19.8042 28.0894 21.4992 25.9986 21.4992C23.9078 21.4992 22.2129 19.8042 22.2129 17.7134C22.2129 15.6227 23.9078 13.9277 25.9986 13.9277C28.0894 13.9277 29.7843 15.6227 29.7843 17.7134Z" stroke="#EDEDED" stroke-opacity="0.2"/>
<path d="M25.9986 23.4277C22.4499 23.4317 19.574 26.3075 19.5701 29.8563C19.5701 30.2508 19.8899 30.5706 20.2843 30.5706H31.7129C32.1074 30.5706 32.4272 30.2508 32.4272 29.8563C32.4233 26.3075 29.5474 23.4317 25.9986 23.4277Z" fill="#E95436"/>
<path d="M25.9986 23.4277C22.4499 23.4317 19.574 26.3075 19.5701 29.8563C19.5701 30.2508 19.8899 30.5706 20.2843 30.5706H31.7129C32.1074 30.5706 32.4272 30.2508 32.4272 29.8563C32.4233 26.3075 29.5474 23.4317 25.9986 23.4277Z" fill="#EDEDED" fill-opacity="0.2"/>
<defs>
<filter id="filter0_d_21147_54483" x="0" y="0" width="52" height="52" filterUnits="userSpaceOnUse" color-interpolation-filters="sRGB">
<feFlood flood-opacity="0" result="BackgroundImageFix"/>
<feColorMatrix in="SourceAlpha" type="matrix" values="0 0 0 0 0 0 0 0 0 0 0 0 0 0 0 0 0 0 127 0" result="hardAlpha"/>
<feOffset dy="4"/>
<feGaussianBlur stdDeviation="4"/>
<feComposite in2="hardAlpha" operator="out"/>
<feColorMatrix type="matrix" values="0 0 0 0 0.0980392 0 0 0 0 0.145098 0 0 0 0 0.270588 0 0 0 0.24 0"/>
<feBlend mode="normal" in2="BackgroundImageFix" result="effect1_dropShadow_21147_54483"/>
<feBlend mode="normal" in="SourceGraphic" in2="effect1_dropShadow_21147_54483" result="shape"/>
</filter>
</defs>
</svg>
