<svg width="56" height="56" viewBox="0 0 56 56" fill="none" xmlns="http://www.w3.org/2000/svg">
<g opacity="0.14" filter="url(#filter0_d_23781_38354)">
<rect x="8" y="4" width="40" height="40" rx="4" fill="#6166AE"/>
</g>
<path d="M32.5 19C32.5 21.4853 30.4853 23.5 28 23.5C25.5147 23.5 23.5 21.4853 23.5 19C23.5 16.5147 25.5147 14.5 28 14.5C30.4853 14.5 32.5 16.5147 32.5 19Z" fill="#6166AE" stroke="#6166AE"/>
<path d="M28 25.6666C23.8598 25.6712 20.5046 29.0264 20.5 33.1666C20.5 33.6269 20.8731 33.9999 21.3333 33.9999H34.6666C35.1269 33.9999 35.5 33.6269 35.5 33.1666C35.4954 29.0264 32.1402 25.6712 28 25.6666Z" fill="#6166AE"/>
<defs>
<filter id="filter0_d_23781_38354" x="0" y="0" width="56" height="56" filterUnits="userSpaceOnUse" color-interpolation-filters="sRGB">
<feFlood flood-opacity="0" result="BackgroundImageFix"/>
<feColorMatrix in="SourceAlpha" type="matrix" values="0 0 0 0 0 0 0 0 0 0 0 0 0 0 0 0 0 0 127 0" result="hardAlpha"/>
<feOffset dy="4"/>
<feGaussianBlur stdDeviation="4"/>
<feComposite in2="hardAlpha" operator="out"/>
<feColorMatrix type="matrix" values="0 0 0 0 0.0980392 0 0 0 0 0.145098 0 0 0 0 0.270588 0 0 0 0.24 0"/>
<feBlend mode="normal" in2="BackgroundImageFix" result="effect1_dropShadow_23781_38354"/>
<feBlend mode="normal" in="SourceGraphic" in2="effect1_dropShadow_23781_38354" result="shape"/>
</filter>
</defs>
</svg>
