<svg width="52" height="52" viewBox="0 0 52 52" fill="none" xmlns="http://www.w3.org/2000/svg">
<g opacity="0.14" filter="url(#filter0_d_23780_38870)">
<rect x="8" y="4" width="36" height="36" rx="4" fill="#6166AE"/>
</g>
<path d="M20.0481 15.9551H20.0481C20.0189 15.9551 19.9932 15.9654 19.9714 15.9871L20.0481 15.9551ZM20.0481 15.9551H20.0481M20.0481 15.9551H20.0481M20.0481 15.9551H20.0481M20.0481 15.9551H20.0481M20.0481 15.9551H20.0481M20.0481 15.9551H20.0481M20.0481 15.9551H20.0481M20.0481 15.9551H20.0481M20.0481 15.9551H20.0481M20.0481 15.9551H20.0481M20.0481 15.9551H20.0481M20.0481 15.9551H20.0481M20.0481 15.9551H20.0481M20.0481 15.9551H20.0481M20.0481 15.9551H20.0481M20.0481 15.9551H20.0481M20.0481 15.9551H20.0481M20.0481 15.9551H20.0481M20.0481 15.9551H20.0481M20.0481 15.9551H20.0481M20.0481 15.9551H20.0481M20.0481 15.9551H20.0481M20.0481 15.9551H20.0481M20.0481 15.9551H20.0481M20.0481 15.9551H20.0481M20.0481 15.9551H20.0481M20.0481 15.9551H20.0481M20.0481 15.9551H20.0481M20.0481 15.9551H20.0481M20.0481 15.9551H20.0481M20.0481 15.9551H20.0481M20.0481 15.9551H20.0481M20.0481 15.9551H20.0481M20.0481 15.9551H20.0481M20.0481 15.9551H20.0481M20.0481 15.9551H20.0481M20.0481 15.9551H20.0481M20.0481 15.9551H20.0481M20.0481 15.9551H20.0481M20.0481 15.9551H20.0481M20.0481 15.9551H20.0481M20.0481 15.9551H20.0481M20.0481 15.9551H20.0481M20.0481 15.9551H20.0481M20.0481 15.9551H20.0481M20.0481 15.9551H20.0481M20.0481 15.9551H20.0481M20.0481 15.9551H20.0481M20.0481 15.9551H20.0481M20.0481 15.9551H20.0481M20.0481 15.9551H20.0482M20.0481 15.9551H20.0482M20.0482 15.9551H20.0482M20.0482 15.9551H20.0482M20.0482 15.9551H20.0482M20.0482 15.9551H20.0482M20.0482 15.9551H20.0482M20.0482 15.9551H20.0482M20.0482 15.9551H20.0482M20.0482 15.9551H20.0482M20.0482 15.9551H20.0482M20.0482 15.9551H20.0482M20.0482 15.9551H20.0482M20.0482 15.9551H20.0482M20.0482 15.9551H20.0482M20.0482 15.9551H20.0482M20.0482 15.9551H20.0482M20.0482 15.9551H20.0482M20.0482 15.9551H20.0482M20.0482 15.9551H20.0482M20.0482 15.9551H20.0482M20.0482 15.9551H20.0482M20.0482 15.9551H20.0482M20.0482 15.9551H20.0482M20.0482 15.9551H20.0482M20.0482 15.9551H20.0482M20.0482 15.9551H20.0482M20.0482 15.9551H20.0482M20.0482 15.9551H20.0482M20.0482 15.9551H20.0482M20.0482 15.9551H20.0482M20.0482 15.9551H20.0482M20.0482 15.9551H20.0482M20.0482 15.9551H20.0482M20.0482 15.9551H20.0482M20.0482 15.9551H20.0482M20.0482 15.9551H20.0482M20.0482 15.9551H20.0482M20.0482 15.9551H20.0482M20.0482 15.9551H20.0482M20.0482 15.9551H20.0482M20.0482 15.9551H20.0482M20.0482 15.9551H20.0482M20.0482 15.9551H20.0482M20.0482 15.9551H20.0482M20.0482 15.9551H20.0482M20.0482 15.9551H20.0482M20.0482 15.9551H20.0482M20.0482 15.9551H20.0482M20.0482 15.9551H20.0482M20.0482 15.9551H20.0482M20.0482 15.9551H20.0482M20.0482 15.9551H20.0482M20.0482 15.9551H20.0482M20.0482 15.9551H20.0482M20.0482 15.9551H20.0482M20.0482 15.9551H20.0482M20.0482 15.9551H20.0482M20.0482 15.9551H20.0482M20.0482 15.9551H20.0482M20.0482 15.9551H20.0482M20.0482 15.9551H20.0482M20.0482 15.9551H20.0482M20.0482 15.9551H20.0482M20.0482 15.9551H20.0482M20.0482 15.9551H20.0482M20.0482 15.9551H20.0482M20.0482 15.9551H20.0482M20.0482 15.9551H20.0482M20.0482 15.9551H20.0482M20.0482 15.9551H20.0482M20.0482 15.9551H20.0482M20.0482 15.9551H20.0483M20.0482 15.9551H20.0483M20.0483 15.9551H20.0483M20.0483 15.9551H20.0483M20.0483 15.9551H20.0483M20.0483 15.9551H20.0483M20.0483 15.9551H20.0483M20.0483 15.9551H20.0483M20.0483 15.9551H20.0483M20.0483 15.9551H20.0483M20.0483 15.9551H20.0483M20.0483 15.9551H20.0483M20.0483 15.9551H20.0483M20.0483 15.9551H20.0483M20.0483 15.9551H20.0483M20.0483 15.9551H20.0483M20.0483 15.9551H20.0483M20.0483 15.9551H20.0483M20.0483 15.9551H20.0483M20.0483 15.9551H20.0483M20.0483 15.9551H20.0483M20.0483 15.9551H20.0483M20.0483 15.9551H20.0483M20.0483 15.9551H20.0483M20.0483 15.9551H20.0483M20.0483 15.9551H20.0483M20.0483 15.9551H20.0483M20.0483 15.9551H20.0483M20.0483 15.9551H20.0483M20.0483 15.9551H20.0483M20.0483 15.9551H20.0483M20.0483 15.9551H20.0483M20.0483 15.9551H20.0483M20.0483 15.9551H20.0483M20.0483 15.9551H20.0483M20.0483 15.9551H20.0483M20.0483 15.9551H20.0483M20.0483 15.9551H20.0483M20.0483 15.9551H20.0483M20.0483 15.9551H20.0483M20.0483 15.9551H20.0483M20.0483 15.9551H20.0483M20.0483 15.9551H20.0483M20.0483 15.9551H20.0483M20.0483 15.9551H20.0483M20.0483 15.9551H20.0483M20.0483 15.9551H20.0483M20.0483 15.9551H20.0483M20.0483 15.9551H20.0483M20.0483 15.9551H20.0483M20.0483 15.9551H20.0483M20.0483 15.9551H20.0483M20.0483 15.9551H20.0483M20.0483 15.9551H20.0483M20.0483 15.9551H20.0483M20.0483 15.9551H20.0483M20.0483 15.9551H20.0483M20.0483 15.9551H20.0483M20.0483 15.9551H20.0483M20.0483 15.9551H20.0483M20.0483 15.9551H20.0483M20.0483 15.9551H20.0483M20.0483 15.9551H20.0483M20.0483 15.9551H20.0483M20.0483 15.9551H20.0483M20.0483 15.9551H20.0483M20.0483 15.9551H20.0483M20.0483 15.9551H20.0483M20.0483 15.9551H20.0483M20.0483 15.9551H20.0483M20.0483 15.9551H20.0483M20.0483 15.9551H20.0483M20.0483 15.9551H20.0484M20.0483 15.9551H20.0484M20.0484 15.9551H20.0484M20.0484 15.9551H20.0484M20.0484 15.9551H20.0484M20.0484 15.9551H20.0484M20.0484 15.9551H20.0484M20.0484 15.9551H20.0484M20.0484 15.9551H20.0484M20.0484 15.9551H20.0484M20.0484 15.9551H20.0484M20.0484 15.9551H20.0484M20.0484 15.9551H20.0484M20.0484 15.9551H20.0484M20.0484 15.9551H20.0484M20.0484 15.9551H20.0484M20.0484 15.9551H20.0484M20.0484 15.9551H20.0484M20.0484 15.9551H20.0484M20.0484 15.9551H20.0484M20.0484 15.9551H20.0484M20.0484 15.9551H20.0484M20.0484 15.9551H20.0484M20.0484 15.9551H20.0484M20.0484 15.9551H20.0484M20.0484 15.9551H20.0484M20.0484 15.9551H20.0484M20.0484 15.9551H20.0484M20.0484 15.9551H20.0484M20.0484 15.9551H20.0484M20.0484 15.9551H20.0484M20.0484 15.9551H20.0484M20.0484 15.9551H20.0484M20.0484 15.9551H20.0484M20.0484 15.9551H20.0484M20.0484 15.9551H20.0484M20.0484 15.9551H20.0484M20.0484 15.9551H20.0484M20.0484 15.9551H20.0484M20.0484 15.9551H20.0484M20.0484 15.9551H20.0484M20.0484 15.9551H20.0484M20.0484 15.9551H20.0484M20.0484 15.9551H20.0484M20.0484 15.9551H20.0484M20.0484 15.9551H20.0484M20.0484 15.9551H20.0484M20.0484 15.9551H20.0484M20.0484 15.9551H20.0484M20.0484 15.9551H20.0484M20.0484 15.9551H20.0484M20.0484 15.9551H20.0484M20.0484 15.9551H20.0484M20.0484 15.9551H20.0484M20.0484 15.9551H20.0484M20.0484 15.9551H20.0484M20.0484 15.9551H20.0484M20.0484 15.9551H20.0484M20.0484 15.9551H20.0484M20.0484 15.9551H20.0484M20.0484 15.9551H20.0484M20.0484 15.9551H20.0484M20.0484 15.9551H20.0484M20.0484 15.9551H20.0484M20.0484 15.9551H20.0484M20.0484 15.9551H20.0484M20.0484 15.9551H20.0484M20.0484 15.9551H20.0484M20.0484 15.9551H20.0484M20.0484 15.9551H20.0484M20.0484 15.9551H20.0485M20.0484 15.9551H20.0485M20.0485 15.9551H20.0485M20.0485 15.9551H20.0485M20.0485 15.9551H20.0485M20.0485 15.9551H20.0485M20.0485 15.9551H20.0485M20.0485 15.9551H20.0485M20.0485 15.9551H20.0485M20.0485 15.9551H20.0485M20.0485 15.9551H20.0485M20.0485 15.9551H20.0485M20.0485 15.9551H20.0485M20.0485 15.9551H20.0485M20.0485 15.9551H20.0485M20.0485 15.9551H20.0485M20.0485 15.9551H20.0485M20.0485 15.9551H20.0485M20.0485 15.9551H20.0485M20.0485 15.9551H20.0485M20.0485 15.9551H20.0485M20.0485 15.9551H20.0485M20.0485 15.9551H20.0485M20.0485 15.9551H20.0485M20.0485 15.9551H20.0485M20.0485 15.9551H20.0485M20.0485 15.9551H20.0485M20.0485 15.9551H20.0485M20.0485 15.9551H20.0485M20.0485 15.9551H20.0485M20.0485 15.9551H20.0485M20.0485 15.9551H20.0485M20.0485 15.9551H20.0485M20.0485 15.9551H20.0485M20.0485 15.9551H20.0485M20.0485 15.9551H20.0485M20.0485 15.9551H20.0485M20.0485 15.9551H20.0485M20.0485 15.9551H20.0485M20.0485 15.9551H20.0485M20.0485 15.9551H20.0485M20.0485 15.9551H20.0485M20.0485 15.9551H20.0485M20.0485 15.9551H20.0485M20.0485 15.9551H20.0485M20.0485 15.9551H20.0485M20.0485 15.9551H20.0485M20.0485 15.9551H20.0485M20.0485 15.9551H20.0485M20.0485 15.9551H20.0485M20.0485 15.9551H20.0485M20.0485 15.9551H20.0485M20.0485 15.9551H20.0485M20.0485 15.9551H20.0485M20.0485 15.9551H20.0485M20.0485 15.9551H20.0485M20.0485 15.9551H20.0485M20.0485 15.9551H20.0485M20.0485 15.9551H20.0485M20.0485 15.9551H20.0485M20.0485 15.9551H20.0485M20.0485 15.9551H20.0485M20.0485 15.9551H20.0485M20.0485 15.9551H20.0485M20.0485 15.9551H20.0485M20.0485 15.9551H20.0485M20.0485 15.9551H20.0485M20.0485 15.9551H20.0485M20.0485 15.9551H20.0485M20.0485 15.9551H20.0485M20.0485 15.9551H20.0486M20.0485 15.9551H20.0486M20.0486 15.9551H20.0486M20.0486 15.9551H20.0486M20.0486 15.9551H20.0486M20.0486 15.9551H20.0486M20.0486 15.9551H20.0486M20.0486 15.9551H20.0486M20.0486 15.9551H20.0486M20.0486 15.9551H20.0486M20.0486 15.9551H20.0486M20.0486 15.9551H20.0486M20.0486 15.9551H20.0486M20.0486 15.9551H20.0486M20.0486 15.9551H20.0486M20.0486 15.9551H20.0486M20.0486 15.9551H20.0486M20.0486 15.9551H20.0486M20.0486 15.9551H20.0486M20.0486 15.9551H20.0486M20.0486 15.9551H20.0486M20.0486 15.9551H20.0486M20.0486 15.9551H20.0486M20.0486 15.9551H20.0486M20.0486 15.9551H20.0486M20.0486 15.9551H20.0486M20.0486 15.9551H20.0486M20.0486 15.9551H20.0486M20.0486 15.9551H20.0486M20.0486 15.9551H20.0486M20.0486 15.9551H20.0486M20.0486 15.9551H20.0486M20.0486 15.9551H20.0486M20.0486 15.9551H20.0486M20.0486 15.9551H20.0486M20.0486 15.9551H20.0486M20.0486 15.9551H20.0486M20.0486 15.9551H20.0486M20.0486 15.9551H20.0486M20.0486 15.9551H20.0486M20.0486 15.9551H20.0486M20.0486 15.9551H20.0486M20.0486 15.9551H20.0486M20.0486 15.9551H20.0486M20.0486 15.9551H20.0486M20.0486 15.9551H20.0486M20.0486 15.9551H20.0486M20.0486 15.9551H20.0486M20.0486 15.9551H20.0486M20.0486 15.9551H20.0486M20.0486 15.9551H20.0486M20.0486 15.9551H20.0486M20.0486 15.9551H20.0486M20.0486 15.9551H20.0486M20.0486 15.9551H20.0486M20.0486 15.9551H20.0486M20.0486 15.9551H20.0486M20.0486 15.9551H20.0486M20.0486 15.9551H20.0486M20.0486 15.9551H20.0486M20.0486 15.9551H20.0486M20.0486 15.9551H20.0486M20.0486 15.9551H20.0486M20.0486 15.9551H20.0486M20.0486 15.9551H20.0486M20.0486 15.9551H20.0486M20.0486 15.9551H20.0486M20.0486 15.9551H20.0486M20.0486 15.9551H20.0486M20.0486 15.9551H20.0486M20.0486 15.9551H20.0487M20.0486 15.9551H20.0487M20.0487 15.9551H20.0487M20.0487 15.9551H20.0487M20.0487 15.9551H20.0487M20.0487 15.9551H20.0487M20.0487 15.9551H20.0487M20.0487 15.9551H20.0487M20.0487 15.9551H20.0487M20.0487 15.9551H20.0487M20.0487 15.9551H20.0487M20.0487 15.9551H20.0487M20.0487 15.9551H20.0487M20.0487 15.9551H20.0487M20.0487 15.9551H20.0487M20.0487 15.9551H20.0487M20.0487 15.9551H20.0487M20.0487 15.9551H20.0487M20.0487 15.9551H20.0487M20.0487 15.9551H20.0487M20.0487 15.9551H20.0487M20.0487 15.9551H20.0487M20.0487 15.9551H20.0487M20.0487 15.9551H20.0487M20.0487 15.9551H20.0487M20.0487 15.9551H20.0487M20.0487 15.9551H20.0487M20.0487 15.9551H20.0487M20.0487 15.9551H20.0487M20.0487 15.9551H20.0487M20.0487 15.9551H20.0487M20.0487 15.9551H20.0487M20.0487 15.9551H20.0487M20.0487 15.9551H20.0487M20.0487 15.9551H20.0487M20.0487 15.9551H20.0487M20.0487 15.9551H20.0487M20.0487 15.9551H20.0487M20.0487 15.9551H20.0487M20.0487 15.9551H20.0487M20.0487 15.9551H20.0487M20.0487 15.9551H20.0487M20.0487 15.9551H20.0487M20.0487 15.9551H20.0487M20.0487 15.9551H20.0487M20.0487 15.9551H20.0487M20.0487 15.9551H20.0487M20.0487 15.9551H20.0487M20.0487 15.9551H20.0487M20.0487 15.9551H20.0487M20.0487 15.9551H20.0487M20.0487 15.9551H20.0487M20.0487 15.9551H20.0487M20.0487 15.9551H20.0487M20.0487 15.9551H20.0487M20.0487 15.9551H20.0487M20.0487 15.9551H20.0487M20.0487 15.9551H20.0487M20.0487 15.9551H20.0487M20.0487 15.9551H20.0487M20.0487 15.9551H20.0487M20.0487 15.9551H20.0487M20.0487 15.9551H20.0487M20.0487 15.9551H20.0487M20.0487 15.9551H20.0487M20.0487 15.9551H20.0487M20.0487 15.9551H20.0487M20.0487 15.9551H20.0487M20.0487 15.9551H20.0487M20.0487 15.9551H20.0487M20.0487 15.9551H20.0488M20.0487 15.9551H20.0488M20.0488 15.9551H20.0488M20.0488 15.9551H20.0488M20.0488 15.9551H20.0488M20.0488 15.9551H20.0488M20.0488 15.9551H20.0488M20.0488 15.9551H20.0488M20.0488 15.9551H20.0488M20.0488 15.9551H20.0488M20.0488 15.9551H20.0488M20.0488 15.9551H20.0488M20.0488 15.9551H20.0488M20.0488 15.9551H20.0488M20.0488 15.9551H20.0488M20.0488 15.9551H20.0488M20.0488 15.9551H20.0488M20.0488 15.9551H20.0488M20.0488 15.9551H20.0488M20.0488 15.9551H20.0488M20.0488 15.9551H20.0488M20.0488 15.9551H20.0488M20.0488 15.9551H20.0488M20.0488 15.9551H20.0488M20.0488 15.9551H20.0488M20.0488 15.9551H20.0488M20.0488 15.9551H20.0488M20.0488 15.9551H20.0488M20.0488 15.9551H20.0488M20.0488 15.9551H20.0488M20.0488 15.9551H20.0488M20.0488 15.9551H20.0488M20.0488 15.9551H20.0488M20.0488 15.9551H20.0488M20.0488 15.9551H20.0488M20.0488 15.9551H20.0488M20.0488 15.9551H20.0488M20.0488 15.9551H20.0488M20.0488 15.9551H20.0488M20.0488 15.9551H20.0488M20.0488 15.9551H20.0488M20.0488 15.9551H20.0488M20.0488 15.9551H20.0488M20.0488 15.9551H20.0488M20.0488 15.9551H20.0488M20.0488 15.9551H20.0488M20.0488 15.9551H20.0488M20.0488 15.9551H20.0488M20.0488 15.9551H20.0488M20.0488 15.9551H20.0488M20.0488 15.9551H20.0488M20.0488 15.9551H20.0488M20.0488 15.9551H20.0488M20.0488 15.9551H20.0488M20.0488 15.9551H20.0488M20.0488 15.9551H20.0488M20.0488 15.9551H20.0488M20.0488 15.9551H20.0488M20.0488 15.9551H20.0488M20.0488 15.9551H20.0488M20.0488 15.9551H20.0488M20.0488 15.9551H20.0488M20.0488 15.9551H20.0488M20.0488 15.9551H20.0488M20.0488 15.9551H20.0488M20.0488 15.9551H20.0488M20.0488 15.9551H20.0488M20.0488 15.9551H20.0488M20.0488 15.9551H20.0488M20.0488 15.9551H20.0488M20.0488 15.9551H20.0489M20.0488 15.9551H20.0489M20.0489 15.9551H20.0489M20.0489 15.9551H20.0489M20.0489 15.9551H20.0489M20.0489 15.9551H20.0489M20.0489 15.9551H20.0489M20.0489 15.9551H20.0489M20.0489 15.9551H20.0489M20.0489 15.9551H20.0489M20.0489 15.9551H20.0489M20.0489 15.9551H20.0489M20.0489 15.9551H20.0489M20.0489 15.9551H20.0489M20.0489 15.9551H20.0489M20.0489 15.9551H20.0489M20.0489 15.9551H20.0489M20.0489 15.9551H20.0489M20.0489 15.9551H20.0489M20.0489 15.9551H20.0489M20.0489 15.9551H20.0489M20.0489 15.9551H20.0489M20.0489 15.9551H20.0489M20.0489 15.9551H20.0489M20.0489 15.9551H20.0489M20.0489 15.9551H20.0489M20.0489 15.9551H20.0489M20.0489 15.9551H20.0489M20.0489 15.9551H20.0489M20.0489 15.9551H20.0489M20.0489 15.9551H20.0489M20.0489 15.9551H20.0489M20.0489 15.9551H20.0489M20.0489 15.9551H20.0489M20.0489 15.9551H20.0489M20.0489 15.9551H20.0489M20.0489 15.9551H20.0489M20.0489 15.9551H20.0489M20.0489 15.9551H20.0489M20.0489 15.9551H20.0489M20.0489 15.9551H20.0489M20.0489 15.9551H20.0489M20.0489 15.9551H20.0489M20.0489 15.9551H20.0489M20.0489 15.9551H20.0489M20.0489 15.9551H20.0489M20.0489 15.9551H20.0489M20.0489 15.9551H20.0489M20.0489 15.9551H20.0489M20.0489 15.9551H20.0489M20.0489 15.9551H20.0489M20.0489 15.9551H20.0489M20.0489 15.9551H20.0489M20.0489 15.9551H20.0489M20.0489 15.9551H20.0489M20.0489 15.9551H20.0489M20.0489 15.9551H20.0489M20.0489 15.9551H20.0489M20.0489 15.9551C21.4528 15.9585 23.8064 16.2916 25.0132 18.2347C25.0148 18.2374 25.0224 18.2519 25.0224 18.2819V26.8142C23.3368 25.6004 21.2984 25.3834 20.0532 25.3804C19.9883 25.3802 19.9377 25.3269 19.9377 25.2671V16.0685C19.9377 16.0366 19.9491 16.0094 19.9714 15.9871L20.0489 15.9551Z" fill="#6166AE" stroke="#6166AE"/>
<path d="M32.5595 25.2672V16.0685C32.5595 15.9039 32.4954 15.7493 32.3789 15.6331C32.2638 15.5183 32.1112 15.4551 31.9492 15.4551C31.9487 15.4551 31.9482 15.4551 31.9477 15.4551C30.5167 15.4585 27.9137 15.7899 26.5591 17.9713C26.504 18.0602 26.4749 18.1676 26.4749 18.2819V27.9085C28.1252 26.1814 30.5175 25.8838 31.9453 25.8804C32.284 25.8795 32.5595 25.6044 32.5595 25.2672Z" fill="#6166AE"/>
<path d="M33.9567 17.5762H33.5119V25.2669C33.5119 26.1281 32.8102 26.8304 31.9477 26.8325C30.7365 26.8354 28.7395 27.0722 27.3252 28.4108C29.7713 27.8119 32.3499 28.2013 33.8194 28.5362C34.0029 28.5779 34.1925 28.5348 34.3395 28.4176C34.486 28.3007 34.5701 28.126 34.5701 27.9385V18.1895C34.5701 17.8513 34.2949 17.5762 33.9567 17.5762Z" fill="#6166AE"/>
<path d="M18.4851 25.2669V17.5762H18.0403C17.7022 17.5762 17.427 17.8513 17.427 18.1895V27.9383C17.427 28.1259 17.511 28.3005 17.6575 28.4174C17.8044 28.5345 17.9939 28.5779 18.1777 28.536C19.6472 28.201 22.2259 27.8118 24.6718 28.4107C23.2576 27.0721 21.2606 26.8354 20.0494 26.8325C19.1869 26.8304 18.4851 26.1281 18.4851 25.2669Z" fill="#6166AE"/>
<defs>
<filter id="filter0_d_23780_38870" x="0" y="0" width="52" height="52" filterUnits="userSpaceOnUse" color-interpolation-filters="sRGB">
<feFlood flood-opacity="0" result="BackgroundImageFix"/>
<feColorMatrix in="SourceAlpha" type="matrix" values="0 0 0 0 0 0 0 0 0 0 0 0 0 0 0 0 0 0 127 0" result="hardAlpha"/>
<feOffset dy="4"/>
<feGaussianBlur stdDeviation="4"/>
<feComposite in2="hardAlpha" operator="out"/>
<feColorMatrix type="matrix" values="0 0 0 0 0.0980392 0 0 0 0 0.145098 0 0 0 0 0.270588 0 0 0 0.24 0"/>
<feBlend mode="normal" in2="BackgroundImageFix" result="effect1_dropShadow_23780_38870"/>
<feBlend mode="normal" in="SourceGraphic" in2="effect1_dropShadow_23780_38870" result="shape"/>
</filter>
</defs>
</svg>
