<svg width="150" height="150" viewBox="0 0 150 150" fill="none" xmlns="http://www.w3.org/2000/svg">
<g clip-path="url(#clip0_24666_519987)">
<path d="M94.3779 8.15808C91.8544 5.57565 88.8402 3.52365 85.5125 2.12267C82.1847 0.721694 78.6104 0 74.9998 0C71.3891 0 67.8149 0.721694 64.4871 2.12267C61.1593 3.52365 58.1451 5.57565 55.6217 8.15808L49.7904 14.1393L41.4467 14.0362C37.8349 13.9935 34.2511 14.6733 30.906 16.0358C27.5608 17.3983 24.5219 19.4158 21.9678 21.9699C19.4138 24.5239 17.3962 27.5629 16.0337 30.908C14.6713 34.2532 13.9914 37.837 14.0342 41.4487L14.1279 49.7925L8.16541 55.6237C5.58297 58.1472 3.53097 61.1614 2.13 64.4892C0.729018 67.8169 0.00732422 71.3912 0.00732422 75.0018C0.00732422 78.6125 0.729018 82.1867 2.13 85.5145C3.53097 88.8423 5.58297 91.8565 8.16541 94.38L14.1373 100.211L14.0342 108.555C13.9914 112.167 14.6713 115.75 16.0337 119.096C17.3962 122.441 19.4138 125.48 21.9678 128.034C24.5219 130.588 27.5608 132.605 30.906 133.968C34.2511 135.33 37.8349 136.01 41.4467 135.967L49.7904 135.874L55.6217 141.836C58.1451 144.419 61.1593 146.471 64.4871 147.872C67.8149 149.273 71.3891 149.994 74.9998 149.994C78.6104 149.994 82.1847 149.273 85.5125 147.872C88.8402 146.471 91.8544 144.419 94.3779 141.836L100.209 135.864L108.553 135.967C112.165 136.01 115.748 135.33 119.094 133.968C122.439 132.605 125.478 130.588 128.032 128.034C130.586 125.48 132.603 122.441 133.966 119.096C135.328 115.75 136.008 112.167 135.965 108.555L135.872 100.211L141.834 94.38C144.417 91.8565 146.469 88.8423 147.87 85.5145C149.271 82.1867 149.992 78.6125 149.992 75.0018C149.992 71.3912 149.271 67.8169 147.87 64.4892C146.469 61.1614 144.417 58.1472 141.834 55.6237L135.862 49.7925L135.965 41.4487C136.008 37.837 135.328 34.2532 133.966 30.908C132.603 27.5629 130.586 24.5239 128.032 21.9699C125.478 19.4158 122.439 17.3983 119.094 16.0358C115.748 14.6733 112.165 13.9935 108.553 14.0362L100.209 14.13L94.3779 8.15808ZM97.0685 64.2581L68.9435 92.3831C68.5081 92.8196 67.9908 93.1659 67.4213 93.4023C66.8519 93.6386 66.2413 93.7602 65.6248 93.7602C65.0082 93.7602 64.3977 93.6386 63.8282 93.4023C63.2587 93.1659 62.7415 92.8196 62.306 92.3831L48.2435 78.3206C47.8077 77.8848 47.462 77.3674 47.2261 76.7979C46.9903 76.2285 46.8689 75.6182 46.8689 75.0018C46.8689 74.3855 46.9903 73.7752 47.2261 73.2057C47.462 72.6363 47.8077 72.1189 48.2435 71.6831C48.6794 71.2473 49.1968 70.9015 49.7662 70.6657C50.3356 70.4298 50.9459 70.3084 51.5623 70.3084C52.1786 70.3084 52.7889 70.4298 53.3584 70.6657C53.9278 70.9015 54.4452 71.2473 54.881 71.6831L65.6248 82.4362L90.431 57.6206C91.3112 56.7404 92.505 56.2459 93.7498 56.2459C94.9946 56.2459 96.1883 56.7404 97.0685 57.6206C97.9487 58.5008 98.4432 59.6946 98.4432 60.9393C98.4432 62.1841 97.9487 63.3779 97.0685 64.2581Z" fill="#6FCF97"/>
</g>
<defs>
<clipPath id="clip0_24666_519987">
<rect width="150" height="150" fill="white"/>
</clipPath>
</defs>
</svg>
