<svg width="107" height="100" viewBox="0 0 107 100" fill="none" xmlns="http://www.w3.org/2000/svg">
<path d="M106.355 40.3853C99.6648 89.4677 71.264 102.034 32.5403 99.7446C-8.26864 96.0165 -7.76092 59.7078 17.8425 55.2292C49.809 49.6375 50.32 41.3745 56.5395 20.6675C67.1026 -14.5006 110.174 -2.72009 106.355 40.3853Z" fill="#ECEDFB"/>
<mask id="mask0_19416_23735" style="mask-type:alpha" maskUnits="userSpaceOnUse" x="0" y="0" width="107" height="100">
<path d="M106.355 40.3843C99.6648 89.4667 71.264 102.033 32.5403 99.7436C-8.26864 96.0156 -7.76092 59.7068 17.8425 55.2282C49.809 49.6366 50.32 41.3735 56.5395 20.6665C67.1026 -14.5016 110.174 -2.72106 106.355 40.3843Z" fill="#6166AE"/>
</mask>
<g mask="url(#mask0_19416_23735)">
<path fill-rule="evenodd" clip-rule="evenodd" d="M7.54513 72.4334C-7.57113 64.3489 -26.379 70.0493 -34.4635 85.1655C-42.548 100.282 -36.8476 119.09 -21.7314 127.174C-6.6151 135.259 12.1928 129.558 20.2773 114.442C28.3618 99.3258 22.6614 80.5178 7.54513 72.4334ZM-35.1406 84.8034C-26.8562 69.3132 -7.58295 63.4718 7.90727 71.7562C23.3975 80.0407 29.2389 99.3139 20.9544 114.804C12.6699 130.294 -6.60328 136.136 -22.0935 127.851C-37.5837 119.567 -43.4251 100.294 -35.1406 84.8034Z" fill="#D5D8FF"/>
<path fill-rule="evenodd" clip-rule="evenodd" d="M10.1303 62.7127C-4.98598 54.6282 -23.7939 60.3286 -31.8784 75.4448C-39.9629 90.5611 -34.2625 109.369 -19.1462 117.453C-4.02996 125.538 14.778 119.838 22.8624 104.721C30.9469 89.6051 25.2465 70.7971 10.1303 62.7127ZM-32.5555 75.0827C-24.271 59.5925 -4.99781 53.7511 10.4924 62.0355C25.9826 70.32 31.824 89.5932 23.5396 105.083C15.2551 120.574 -4.01814 126.415 -19.5084 118.131C-34.9986 109.846 -40.84 90.5729 -32.5555 75.0827Z" fill="#D5D8FF"/>
<path fill-rule="evenodd" clip-rule="evenodd" d="M5.22747 78.117C-10.5494 69.6792 -30.1792 75.6287 -38.6169 91.4055C-47.0547 107.182 -41.1052 126.812 -25.3284 135.25C-9.55156 143.688 10.0782 137.738 18.516 121.961C26.9538 106.185 21.0043 86.5548 5.22747 78.117ZM-39.2941 91.0434C-30.6563 74.8926 -10.5612 68.8021 5.5896 77.4399C21.7404 86.0776 27.8309 106.173 19.1931 122.324C10.5554 138.474 -9.53974 144.565 -25.6905 135.927C-41.8413 127.289 -47.9318 107.194 -39.2941 91.0434Z" fill="#D5D8FF"/>
<path fill-rule="evenodd" clip-rule="evenodd" d="M128.247 -33.9163C113.13 -42.0007 94.3224 -36.3004 86.2379 -21.1841C78.1534 -6.06782 83.8538 12.7401 98.9701 20.8246C114.086 28.9091 132.894 23.2087 140.979 8.09242C149.063 -7.02385 143.363 -25.8318 128.247 -33.9163ZM85.5608 -21.5462C93.8453 -37.0364 113.118 -42.8778 128.609 -34.5934C144.099 -26.3089 149.94 -7.03567 141.656 8.45455C133.371 23.9448 114.098 29.7862 98.6079 21.5017C83.1177 13.2172 77.2763 -6.056 85.5608 -21.5462Z" fill="#D5D8FF"/>
<path fill-rule="evenodd" clip-rule="evenodd" d="M128.853 -51.5549C113.736 -59.6394 94.9285 -53.939 86.844 -38.8228C78.7595 -23.7065 84.4599 -4.89858 99.5762 3.18591C114.692 11.2704 133.5 5.57001 141.585 -9.54626C149.669 -24.6625 143.969 -43.4704 128.853 -51.5549ZM86.1669 -39.1849C94.4514 -54.6751 113.725 -60.5165 129.215 -52.232C144.705 -43.9476 150.546 -24.6743 142.262 -9.18412C133.977 6.3061 114.704 12.1475 99.2141 3.86303C83.7238 -4.42146 77.8824 -23.6947 86.1669 -39.1849Z" fill="#D5D8FF"/>
<path fill-rule="evenodd" clip-rule="evenodd" d="M127.413 -28.2365C111.636 -36.6743 92.0061 -30.7248 83.5683 -14.948C75.1305 0.828852 81.08 20.4587 96.8568 28.8964C112.634 37.3342 132.263 31.3847 140.701 15.6079C149.139 -0.168948 143.19 -19.7988 127.413 -28.2365ZM82.8912 -15.3101C91.529 -31.4609 111.624 -37.5514 127.775 -28.9136C143.926 -20.2759 150.016 -0.180771 141.378 15.97C132.741 32.1208 112.645 38.2113 96.4947 29.5736C80.3439 20.9358 74.2534 0.840674 82.8912 -15.3101Z" fill="#D5D8FF"/>
</g>
<path d="M41.5529 32.5287C41.5529 27.9894 45.2327 24.3096 49.772 24.3096H68.9505C73.4898 24.3096 77.1696 27.9894 77.1696 32.5287V79.9036C77.1696 84.4429 73.4898 88.1227 68.9505 88.1227H49.772C45.2327 88.1227 41.5529 84.4429 41.5529 79.9036V32.5287Z" fill="url(#paint0_linear_19416_23735)"/>
<path fill-rule="evenodd" clip-rule="evenodd" d="M68.9505 27.0493H49.772C46.7458 27.0493 44.2926 29.5025 44.2926 32.5287V79.9036C44.2926 82.9298 46.7458 85.383 49.772 85.383H68.9505C71.9767 85.383 74.4299 82.9298 74.4299 79.9036V32.5287C74.4299 29.5025 71.9767 27.0493 68.9505 27.0493ZM49.772 24.3096C45.2327 24.3096 41.5529 27.9894 41.5529 32.5287V79.9036C41.5529 84.4429 45.2327 88.1227 49.772 88.1227H68.9505C73.4898 88.1227 77.1696 84.4429 77.1696 79.9036V32.5287C77.1696 27.9894 73.4898 24.3096 68.9505 24.3096H49.772Z" fill="#424672"/>
<mask id="mask1_19416_23735" style="mask-type:alpha" maskUnits="userSpaceOnUse" x="43" y="26" width="33" height="61">
<path d="M43.5314 33.1373C43.5314 29.3546 46.5979 26.2881 50.3806 26.2881H68.3414C72.1241 26.2881 75.1906 29.3546 75.1906 33.1373V79.2946C75.1906 83.0773 72.1241 86.1439 68.3414 86.1439H50.3806C46.5979 86.1439 43.5314 83.0773 43.5314 79.2946V33.1373Z" fill="#525696"/>
</mask>
<g mask="url(#mask1_19416_23735)">
<path opacity="0.5" d="M-9.25671 83.5225L74.2798 19.8561L86.4067 35.7678L2.87022 99.4342L-9.25671 83.5225Z" fill="url(#paint1_linear_19416_23735)"/>
<path opacity="0.5" d="M84.5895 29.2578C84.5895 34.7218 80.16 39.1513 74.6959 39.1513C69.2319 39.1513 64.8024 34.7218 64.8024 29.2578C64.8024 23.7937 69.2319 19.3643 74.6959 19.3643C80.16 19.3643 84.5895 23.7937 84.5895 29.2578Z" fill="#6166AE"/>
<path opacity="0.5" d="M-2.9682 113.806L70.3222 57.9482L80.9617 71.9083L7.67132 127.766L-2.9682 113.806Z" fill="url(#paint2_linear_19416_23735)"/>
</g>
<g opacity="0.9">
<path d="M68.1855 57.8148C68.1855 54.9016 65.8254 52.543 62.9137 52.543C60.0022 52.543 57.6428 54.9016 57.6428 57.8148C56.9712 57.8148 56.4262 58.3596 56.4262 59.0314V63.0864C56.4262 63.7582 56.9712 64.303 57.6428 64.303H60.0759C60.2993 64.303 60.4805 64.1217 60.4805 63.8976V61.0589C60.4805 60.6129 60.3182 59.9214 60.1187 59.5224L59.2649 57.8148C59.2649 55.7983 60.8973 54.1651 62.9139 54.1651C64.9288 54.1651 66.5636 55.7983 66.5636 57.8148L65.7098 59.5224C65.5103 59.9217 65.347 60.6129 65.347 61.0589V63.9911C64.6261 64.4543 63.7913 64.7086 62.9137 64.7086H62.1027V65.9252H62.9137C64.467 65.9252 65.8728 65.305 66.9054 64.303H68.1855C68.8573 64.303 69.4021 63.7582 69.4021 63.0864V59.0314C69.4021 58.3596 68.8573 57.8148 68.1855 57.8148Z" fill="#6166AE"/>
<path d="M62.9136 51.3272C63.1893 51.3272 63.4586 51.3501 63.7248 51.3834V48.0831C63.7248 47.1911 62.9944 46.4609 62.1026 46.4609H51.5592C50.6669 46.4609 49.937 47.1911 49.937 48.0831V52.9494C49.937 53.8413 50.6669 54.5715 51.5592 54.5715V57.0047L55.6145 54.5715H57.3043C58.4279 52.6355 60.5184 51.3272 62.9136 51.3272ZM59.6695 49.705C60.1179 49.705 60.4805 50.0678 60.4805 50.516C60.4805 50.9644 60.1179 51.3272 59.6695 51.3272C59.2221 51.3272 58.8586 50.9644 58.8586 50.5162C58.8586 50.0678 59.2221 49.705 59.6695 49.705ZM53.9923 51.3272C53.5449 51.3272 53.1813 50.9644 53.1813 50.5162C53.1813 50.068 53.5449 49.7053 53.9923 49.7053C54.4407 49.7053 54.8033 50.068 54.8033 50.5162C54.8033 50.9644 54.4405 51.3272 53.9923 51.3272ZM56.0198 50.5162C56.0198 50.068 56.3833 49.7053 56.8308 49.7053C57.279 49.7053 57.6418 50.068 57.6418 50.5162C57.6418 50.9647 57.279 51.3272 56.8308 51.3272C56.3833 51.3272 56.0198 50.9644 56.0198 50.5162Z" fill="#6166AE"/>
</g>
<path d="M51.941 25.2959H66.7813V26.7039C66.7813 27.8387 65.8614 28.7586 64.7265 28.7586H53.9958C52.861 28.7586 51.941 27.8387 51.941 26.7039V25.2959Z" fill="#424672"/>
<path d="M82.6918 27.4423C82.6918 32.3599 78.7052 36.3464 73.7876 36.3464C68.87 36.3464 64.8834 32.3599 64.8834 27.4423C64.8834 22.5246 68.87 18.5381 73.7876 18.5381C78.7052 18.5381 82.6918 22.5246 82.6918 27.4423Z" fill="white"/>
<g clip-path="url(#clip0_19416_23735)">
<path d="M78.4009 27.0346C78.4975 27.0346 78.594 26.938 78.594 26.8415V25.6828C78.594 25.3545 78.343 25.1035 78.0147 25.1035H76.4698V30.5105H78.0145C78.3428 30.5105 78.5939 30.2595 78.5939 29.9312V28.7726C78.5938 28.7214 78.5734 28.6723 78.5372 28.6361C78.501 28.5999 78.4519 28.5795 78.4007 28.5794C78.1979 28.5763 78.0045 28.4935 77.8622 28.349C77.7199 28.2045 77.6402 28.0098 77.6402 27.807C77.6402 27.6042 77.7199 27.4096 77.8622 27.265C78.0045 27.1205 78.1979 27.0378 78.4007 27.0346H78.4009Z" fill="#6166AE"/>
<path d="M78.2657 24.5246C78.3623 24.4861 78.4201 24.3702 78.3816 24.2736L77.9952 23.1728C77.8987 22.8638 77.5503 22.7094 77.2615 22.8059L71.7774 24.6983H77.9567C78.0483 24.6221 78.153 24.5632 78.2657 24.5246Z" fill="#6166AE"/>
<path d="M69.7111 25.6828V26.8415C69.7111 26.9573 69.7884 27.0346 69.9043 27.0346C70.0067 27.033 70.1085 27.0519 70.2036 27.09C70.2987 27.1281 70.3852 27.1847 70.4582 27.2566C70.5312 27.3285 70.5892 27.4141 70.6288 27.5086C70.6684 27.6031 70.6887 27.7046 70.6887 27.807C70.6887 27.9095 70.6684 28.0109 70.6288 28.1054C70.5892 28.1999 70.5312 28.2856 70.4582 28.3575C70.3852 28.4293 70.2987 28.486 70.2036 28.5241C70.1085 28.5622 70.0067 28.581 69.9043 28.5794C69.7884 28.5794 69.7111 28.6567 69.7111 28.7726V29.9312C69.7111 30.2595 69.9621 30.5105 70.2904 30.5105H76.0836V25.1035H70.2904C69.9629 25.1035 69.7111 25.3545 69.7111 25.6828ZM72.0284 26.6483H73.187C73.3029 26.6483 73.3802 26.7256 73.3802 26.8415C73.3802 26.9573 73.3029 27.0346 73.187 27.0346H72.0284C71.9125 27.0346 71.8352 26.9573 71.8352 26.8415C71.8352 26.7256 71.9125 26.6483 72.0284 26.6483ZM72.0284 27.6138H74.5386C74.6545 27.6138 74.7318 27.6911 74.7318 27.8069C74.7318 27.9228 74.6545 28.0001 74.5386 28.0001H72.0284C71.9125 28.0001 71.8352 27.9228 71.8352 27.8069C71.8352 27.6911 71.9125 27.6138 72.0284 27.6138ZM72.0284 28.5792H74.5386C74.6545 28.5792 74.7318 28.6565 74.7318 28.7724C74.7318 28.8883 74.6545 28.9656 74.5386 28.9656H72.0284C71.9125 28.9656 71.8352 28.8883 71.8352 28.7724C71.8352 28.6565 71.9125 28.5794 72.0284 28.5794V28.5792Z" fill="#6166AE"/>
</g>
<path d="M69.5179 74.5747C69.5179 73.0616 70.7445 71.835 72.2576 71.835H95.4694C96.9825 71.835 98.2091 73.0616 98.2091 74.5747V79.9781C98.2091 81.4912 96.9825 82.7178 95.4694 82.7178H72.2576C70.7446 82.7178 69.5179 81.4912 69.5179 79.9781V74.5747Z" fill="#25D09D"/>
<path fill-rule="evenodd" clip-rule="evenodd" d="M77.4788 76.2131L75.2127 79.1267C74.9558 79.4569 74.4791 79.5146 74.1509 79.2553L72.5561 77.9952L73.4053 76.9204L74.5127 77.7953L76.3975 75.3721L77.4788 76.2131Z" fill="white"/>
<path fill-rule="evenodd" clip-rule="evenodd" d="M94.2518 76.2868H79.9062V74.917H94.2518V76.2868Z" fill="white"/>
<path fill-rule="evenodd" clip-rule="evenodd" d="M89.7997 79.2536H79.9062V77.8838H89.7997V79.2536Z" fill="white"/>
<path opacity="0.5" d="M26.8047 35.1547C26.8047 33.6416 28.0313 32.415 29.5444 32.415H44.8414C46.3545 32.415 47.5811 33.6416 47.5811 35.1547V45.505C47.5811 47.0181 46.3545 48.2447 44.8414 48.2447H29.5444C28.0313 48.2447 26.8047 47.0181 26.8047 45.505V35.1547Z" fill="#897FF8"/>
<path d="M24.3313 28.2299C24.3313 26.7168 25.5579 25.4902 27.071 25.4902H47.3147C48.8278 25.4902 50.0544 26.7168 50.0544 28.2299V42.5376C50.0544 44.0507 48.8278 45.2773 47.3147 45.2773H27.071C25.5579 45.2773 24.3313 44.0507 24.3313 42.5376V28.2299Z" fill="url(#paint3_linear_19416_23735)"/>
<path fill-rule="evenodd" clip-rule="evenodd" d="M46.097 33.404H31.7514V32.0342H46.097V33.404Z" fill="white"/>
<path fill-rule="evenodd" clip-rule="evenodd" d="M46.097 41.321H31.7514V39.9512H46.097V41.321Z" fill="white"/>
<path fill-rule="evenodd" clip-rule="evenodd" d="M41.6449 30.4402H31.7514V29.0703H41.6449V30.4402Z" fill="white"/>
<path fill-rule="evenodd" clip-rule="evenodd" d="M41.6449 38.3523H31.7514V36.9824H41.6449V38.3523Z" fill="white"/>
<path d="M29.7727 31.4254C29.7727 32.245 29.1083 32.9095 28.2887 32.9095C27.4691 32.9095 26.8047 32.245 26.8047 31.4254C26.8047 30.6058 27.4691 29.9414 28.2887 29.9414C29.1083 29.9414 29.7727 30.6058 29.7727 31.4254Z" fill="white"/>
<path d="M29.7727 39.3414C29.7727 40.1611 29.1083 40.8255 28.2887 40.8255C27.4691 40.8255 26.8047 40.1611 26.8047 39.3414C26.8047 38.5218 27.4691 37.8574 28.2887 37.8574C29.1083 37.8574 29.7727 38.5218 29.7727 39.3414Z" fill="white"/>
<path d="M34.4403 16.3079C34.5133 16.1474 34.7414 16.1474 34.8144 16.3079L35.6777 18.2069C35.6983 18.2521 35.7345 18.2883 35.7797 18.3089L37.6786 19.1722C37.8392 19.2452 37.8392 19.4733 37.6786 19.5463L35.7797 20.4096C35.7345 20.4301 35.6983 20.4664 35.6777 20.5116L34.8144 22.4105C34.7414 22.5711 34.5133 22.5711 34.4403 22.4105L33.577 20.5116C33.5564 20.4664 33.5202 20.4301 33.475 20.4096L31.5761 19.5463C31.4155 19.4733 31.4155 19.2452 31.5761 19.1722L33.475 18.3089C33.5202 18.2883 33.5564 18.2521 33.577 18.2069L34.4403 16.3079Z" fill="#FF5E75"/>
<path fill-rule="evenodd" clip-rule="evenodd" d="M58.0673 4.76829C58.0673 5.82957 57.207 6.68991 56.1457 6.68991C55.0844 6.68991 54.2241 5.82957 54.2241 4.76829C54.2241 3.70702 55.0844 2.84668 56.1457 2.84668C57.207 2.84668 58.0673 3.70702 58.0673 4.76829ZM56.1457 6.00498C56.8287 6.00498 57.3824 5.4513 57.3824 4.76829C57.3824 4.08529 56.8287 3.5316 56.1457 3.5316C55.4627 3.5316 54.909 4.08529 54.909 4.76829C54.909 5.4513 55.4627 6.00498 56.1457 6.00498Z" fill="#424672"/>
<path d="M23.8235 30.4498C23.8235 31.2695 23.159 31.9339 22.3394 31.9339C21.5198 31.9339 20.8554 31.2695 20.8554 30.4498C20.8554 29.6302 21.5198 28.9658 22.3394 28.9658C23.159 28.9658 23.8235 29.6302 23.8235 30.4498Z" fill="#FFBF8A"/>
<defs>
<linearGradient id="paint0_linear_19416_23735" x1="47.2417" y1="24.3096" x2="79.3956" y2="94.5535" gradientUnits="userSpaceOnUse">
<stop stop-color="#ABAED5"/>
<stop offset="1" stop-color="#E2E4FF"/>
</linearGradient>
<linearGradient id="paint1_linear_19416_23735" x1="-12.3578" y1="93.9999" x2="74.4723" y2="38.4625" gradientUnits="userSpaceOnUse">
<stop stop-color="white"/>
<stop offset="1" stop-color="white" stop-opacity="0"/>
</linearGradient>
<linearGradient id="paint2_linear_19416_23735" x1="-5.68892" y1="122.998" x2="70.4912" y2="74.2725" gradientUnits="userSpaceOnUse">
<stop stop-color="white"/>
<stop offset="1" stop-color="white" stop-opacity="0"/>
</linearGradient>
<linearGradient id="paint3_linear_19416_23735" x1="13.4484" y1="10.4026" x2="40.4485" y2="53.3263" gradientUnits="userSpaceOnUse">
<stop stop-color="#8DC5F9"/>
<stop offset="1" stop-color="#B47FF8"/>
</linearGradient>
<clipPath id="clip0_19416_23735">
<rect width="9.26906" height="9.26906" fill="white" transform="translate(69.5179 22.0146)"/>
</clipPath>
</defs>
</svg>
