<svg width="26" height="26" viewBox="0 0 26 26" fill="none" xmlns="http://www.w3.org/2000/svg">
<g clip-path="url(#clip0_19996_11940)">
<path d="M24.524 14.0478C24.786 14.0478 25.048 13.7858 25.048 13.5239V10.381C25.048 9.49044 24.3671 8.80957 23.4766 8.80957H19.2858V23.4764H23.4761C24.3666 23.4764 25.0475 22.7955 25.0475 21.905V18.7621C25.0472 18.6232 24.9919 18.4901 24.8937 18.3919C24.7955 18.2937 24.6624 18.2384 24.5235 18.2381C23.9735 18.2296 23.4488 18.0051 23.0629 17.6131C22.6769 17.2212 22.4606 16.6931 22.4606 16.143C22.4606 15.5929 22.6769 15.0648 23.0629 14.6728C23.4488 14.2808 23.9735 14.0564 24.5235 14.0478H24.524Z" fill="#6166AE"/>
<path d="M24.1574 7.23859C24.4194 7.134 24.5763 6.81971 24.4717 6.55772L23.4238 3.57176C23.1618 2.7335 22.2169 2.31462 21.4335 2.5766L6.55743 7.70977H23.3192C23.5676 7.50303 23.8517 7.34335 24.1574 7.23859Z" fill="#6166AE"/>
<path d="M0.952576 10.381V13.5239C0.952576 13.8381 1.16227 14.0478 1.47655 14.0478C1.75442 14.0435 2.03038 14.0945 2.28834 14.1979C2.54631 14.3013 2.78114 14.4549 2.97917 14.6499C3.17719 14.8449 3.33445 15.0773 3.4418 15.3336C3.54914 15.59 3.60442 15.8651 3.60442 16.143C3.60442 16.4209 3.54914 16.696 3.4418 16.9524C3.33445 17.2087 3.17719 17.4411 2.97917 17.6361C2.78114 17.8311 2.54631 17.9847 2.28834 18.0881C2.03038 18.1914 1.75442 18.2424 1.47655 18.2381C1.16227 18.2381 0.952576 18.4478 0.952576 18.7621V21.905C0.952576 22.7955 1.63344 23.4764 2.524 23.4764H18.2383V8.80957H2.524C1.63546 8.80957 0.952576 9.49044 0.952576 10.381ZM7.23829 12.9999H10.3811C10.6954 12.9999 10.9051 13.2096 10.9051 13.5239C10.9051 13.8381 10.6954 14.0478 10.3811 14.0478H7.23829C6.92401 14.0478 6.71431 13.8381 6.71431 13.5239C6.71431 13.2096 6.92401 12.9999 7.23829 12.9999ZM7.23829 15.6188H14.0475C14.3618 15.6188 14.5715 15.8285 14.5715 16.1427C14.5715 16.457 14.3618 16.6667 14.0475 16.6667H7.23829C6.92401 16.6667 6.71431 16.457 6.71431 16.1427C6.71431 15.8285 6.92401 15.6188 7.23829 15.6188ZM7.23829 18.2376H14.0475C14.3618 18.2376 14.5715 18.4473 14.5715 18.7616C14.5715 19.0759 14.3618 19.2856 14.0475 19.2856H7.23829C6.92401 19.2856 6.71431 19.0759 6.71431 18.7616C6.71431 18.4473 6.92401 18.2381 7.23829 18.2381V18.2376Z" fill="#6166AE"/>
</g>
<defs>
<clipPath id="clip0_19996_11940">
<rect width="25.1429" height="25.1429" fill="white" transform="translate(0.428589 0.428711)"/>
</clipPath>
</defs>
</svg>
