<svg width="54" height="54" viewBox="0 0 54 54" fill="none" xmlns="http://www.w3.org/2000/svg">
<path fill-rule="evenodd" clip-rule="evenodd" d="M26.9981 49.7264C24.3102 49.7264 22.1232 47.5403 22.1232 44.8524C22.1232 44.3951 22.187 43.9426 22.3117 43.5065C22.3833 43.2571 22.6105 43.0859 22.8696 43.0859H31.1267C31.3858 43.0859 31.613 43.2571 31.6845 43.5065C31.8093 43.9426 31.8731 44.3951 31.8731 44.8514C31.8731 47.5403 29.686 49.7264 26.9981 49.7264Z" fill="#FFA81C"/>
<path fill-rule="evenodd" clip-rule="evenodd" d="M29.7475 10.5632C29.7146 10.5632 29.6817 10.5603 29.6488 10.5545C27.9017 10.2567 26.0975 10.2567 24.3504 10.5545C24.1164 10.5951 23.8815 10.4888 23.7577 10.2867C23.3922 9.69016 23.1989 9.00368 23.1989 8.30076C23.1989 6.20459 24.9034 4.5 26.9996 4.5C29.0958 4.5 30.8004 6.20459 30.8004 8.30076C30.8004 9.00368 30.607 9.69016 30.2415 10.2867C30.1352 10.4608 29.9466 10.5632 29.7475 10.5632Z" fill="#FFA81C"/>
<path fill-rule="evenodd" clip-rule="evenodd" d="M7.04556 20.2951C6.78934 20.2951 6.55536 20.1249 6.48574 19.8658C5.83697 17.4467 6.16958 14.9193 7.42167 12.7506C8.67474 10.581 10.6965 9.0301 13.1156 8.38133C13.425 8.29817 13.7431 8.48188 13.8262 8.79225C13.9094 9.10164 13.7257 9.41974 13.4163 9.50289C11.2959 10.0704 9.52461 11.4299 8.42722 13.3307C7.32982 15.2306 7.03783 17.4457 7.60634 19.5651C7.6895 19.8745 7.50579 20.1926 7.19639 20.2758C7.14611 20.2893 7.09487 20.2951 7.04556 20.2951Z" fill="#FFA81C"/>
<path fill-rule="evenodd" clip-rule="evenodd" d="M3.24498 20.8427C2.98876 20.8427 2.75478 20.6716 2.68517 20.4125C0.86842 13.6309 4.90703 6.6346 11.6887 4.81785C11.9981 4.7347 12.3162 4.91841 12.3993 5.22781C12.4825 5.5372 12.2987 5.8553 11.9894 5.93846C5.82556 7.58987 2.15436 13.948 3.80577 20.1118C3.88892 20.4222 3.70521 20.7403 3.39582 20.8224C3.34554 20.836 3.29526 20.8427 3.24498 20.8427Z" fill="#FFA81C"/>
<path fill-rule="evenodd" clip-rule="evenodd" d="M46.956 20.2948C46.9067 20.2948 46.8554 20.289 46.8052 20.2754C46.4958 20.1923 46.3121 19.8742 46.3952 19.5648C47.568 15.1887 44.9613 10.6744 40.5853 9.5016C40.2759 9.41941 40.0922 9.10131 40.1753 8.79192C40.2585 8.48155 40.5766 8.29881 40.886 8.381C45.8799 9.71914 48.854 14.8706 47.5158 19.8655C47.4462 20.1246 47.2122 20.2948 46.956 20.2948Z" fill="#FFA81C"/>
<path fill-rule="evenodd" clip-rule="evenodd" d="M50.7557 20.8427C50.7055 20.8427 50.6552 20.836 50.6049 20.8224C50.2955 20.7403 50.1118 20.4222 50.195 20.1118C51.8464 13.948 48.1752 7.58987 42.0114 5.93846C41.702 5.8553 41.5183 5.5372 41.6014 5.22781C41.6846 4.91841 42.0027 4.7347 42.3121 4.81785C49.0937 6.6346 53.1323 13.6309 51.3156 20.4125C51.2459 20.6716 51.012 20.8427 50.7557 20.8427Z" fill="#FFA81C"/>
<path fill-rule="evenodd" clip-rule="evenodd" d="M43.307 44.246H10.6906C8.11392 44.246 6.01678 42.1498 6.01678 39.5722C6.01678 37.2304 7.77745 35.2628 10.0438 34.9447V26.1249C10.0438 21.6145 11.8122 17.3612 15.0241 14.1493C18.2351 10.9383 22.4884 9.16992 26.9988 9.16992C31.5102 9.16992 35.7625 10.9383 38.9745 14.1503C42.1854 17.3612 43.9538 21.6145 43.9538 26.1249V34.9447C46.2202 35.2628 47.9809 37.2304 47.9809 39.5722C47.9809 42.1498 45.8837 44.246 43.307 44.246Z" fill="#FFCF2C"/>
<path fill-rule="evenodd" clip-rule="evenodd" d="M40.1561 26.7051C39.8361 26.7051 39.576 26.445 39.576 26.125C39.576 19.1916 33.9353 13.5509 27.0019 13.5509C26.6809 13.5509 26.4218 13.2908 26.4218 12.9707C26.4218 12.6507 26.6809 12.3906 27.0019 12.3906C30.6528 12.3906 34.0968 13.8245 36.6996 16.4273C39.3024 19.0301 40.7363 22.4741 40.7363 26.125C40.7363 26.445 40.4762 26.7051 40.1561 26.7051Z" fill="#FFA81C"/>
</svg>
