<svg width="54" height="54" viewBox="0 0 54 54" fill="none" xmlns="http://www.w3.org/2000/svg">
<g clip-path="url(#clip0_15707_36193)">
<path d="M20.5663 27.9368H16.0235C14.115 27.9368 12.2265 27.3013 10.706 26.1476L4.75746 21.6338C1.99049 19.5343 0.909643 15.9236 2.06801 12.649C3.17511 9.51929 6.14954 7.38998 9.46938 7.35043C12.7133 7.31193 14.5563 7.41445 14.6331 7.41888L14.43 10.9893C14.4123 10.9884 12.6191 10.8897 9.51188 10.9264C7.68517 10.9482 6.0485 12.1197 5.43942 13.8417C4.80207 15.6433 5.3967 17.6299 6.91915 18.7851L12.8676 23.2989C13.7699 23.9836 14.8907 24.3606 16.0233 24.3606H20.5661V27.9368H20.5663Z" fill="#FFD064"/>
<path d="M10.7061 24.264L4.75758 19.7502C2.99404 18.4121 1.91689 16.4597 1.6664 14.3721C1.33649 17.1298 2.46997 19.8985 4.75758 21.6343L10.7061 26.1481C12.2266 27.3018 14.1151 27.9372 16.0237 27.9372H20.5664V26.0532H16.0237C14.1151 26.0532 12.2266 25.4177 10.7061 24.264Z" fill="#ECBE6B"/>
<path d="M33.4503 27.9368H37.993C39.9016 27.9368 41.79 27.3013 43.3105 26.1476L49.2591 21.6338C52.026 19.5343 53.1069 15.9236 51.9485 12.649C50.8414 9.51929 47.867 7.38998 44.5471 7.35043C41.3032 7.31193 39.4602 7.41445 39.3834 7.41888L39.5865 10.9893C39.6043 10.9884 41.3974 10.8897 44.5046 10.9264C46.3314 10.9482 47.968 12.1197 48.5771 13.8417C49.2145 15.6433 48.6198 17.6299 47.0974 18.7851L41.149 23.2989C40.2467 23.9836 39.1258 24.3606 37.9932 24.3606H33.4505V27.9368H33.4503Z" fill="#FFD064"/>
<path d="M51.9484 12.649C51.4302 11.1841 50.5027 9.93838 49.3222 9.02344C49.8315 9.67987 50.2433 10.4211 50.5293 11.2301C51.6877 14.5046 50.6068 18.1154 47.8399 20.2149L41.8913 24.7287C40.3709 25.8824 38.4823 26.5179 36.5738 26.5179H33.45V27.9368H37.9928C39.9013 27.9368 41.7897 27.3014 43.3103 26.1477L49.2588 21.6339C52.0259 19.5343 53.1068 15.9236 51.9484 12.649Z" fill="#ECBE6B"/>
<path d="M32.7999 41.0351L30.6844 39.4318C29.7753 38.7428 29.2412 37.6677 29.2412 36.527V29.4102H24.4498V36.527C24.4498 37.6677 23.9157 38.7428 23.0066 39.4318L20.8911 41.0351C20.2317 41.5348 20.5851 42.5863 21.4124 42.5863H32.2785C33.1059 42.5862 33.4593 41.5348 32.7999 41.0351Z" fill="#FFD064"/>
<path d="M32.7999 41.0351L30.6844 39.4318C29.7753 38.7428 29.2412 37.6677 29.2412 36.527V29.4102H26.7578V36.527C26.7578 37.6677 27.2919 38.7428 28.201 39.4318L30.3165 41.0351C30.9759 41.5348 30.6225 42.5863 29.7952 42.5863H32.2786C33.1059 42.5862 33.4593 41.5348 32.7999 41.0351Z" fill="#ECBE6B"/>
<path d="M40.4457 2.14844H13.5708C13.056 2.14844 12.6386 2.56578 12.6386 3.08068V12.7042C12.6386 16.8245 13.7859 20.8634 15.952 24.3685L18.4337 28.3841C22.3232 34.6777 31.4613 34.7208 35.4098 28.4639L37.954 24.4325C40.1907 20.888 41.3779 16.7825 41.3779 12.5913V3.08068C41.3779 2.56588 40.9606 2.14844 40.4457 2.14844Z" fill="#FFE07D"/>
<path d="M40.4457 2.14844H36.138V7.35142C36.138 11.5426 34.9509 15.6482 32.7141 19.1927L30.17 23.2242C27.3532 27.6876 21.8958 28.944 17.5865 27.0133L18.4337 28.3842C22.3232 34.6778 31.4613 34.7209 35.4099 28.464L37.954 24.4326C40.1908 20.8881 41.3779 16.7826 41.3779 12.5914V3.08068C41.3779 2.56588 40.9606 2.14844 40.4457 2.14844Z" fill="#FFD064"/>
<path d="M27 48.4893C21.8985 48.4893 16.9481 46.9662 12.684 44.0846C8.53757 41.2825 5.23313 37.3416 3.12797 32.6879C2.94287 32.279 3.12449 31.7975 3.53339 31.6125C3.9424 31.4274 4.42376 31.6091 4.60865 32.0179C8.68839 41.0366 17.4776 46.864 27 46.864C36.5223 46.864 45.3114 41.0366 49.3912 32.0179C49.5761 31.6092 50.0576 31.4275 50.4665 31.6125C50.8754 31.7975 51.057 32.279 50.8719 32.6879C48.7667 37.3416 45.4623 41.2826 41.3159 44.0846C37.0518 46.9661 32.1015 48.4893 27 48.4893Z" fill="#0DC183"/>
<path d="M53.0053 30.7808C52.1178 32.8813 50.6046 34.2487 49.6256 33.835C48.6465 33.4214 48.5722 31.3832 49.4597 29.2827C50.1026 27.7609 52.2214 25.3416 53.3401 24.124C53.5817 23.8609 54.0194 24.0459 53.9992 24.4025C53.9061 26.0534 53.6482 29.259 53.0053 30.7808Z" fill="#AAD880"/>
<path d="M53.3402 24.124C53.0299 24.4617 52.6425 24.8921 52.2312 25.37C52.084 26.9895 51.8218 28.9197 51.3651 30.0006C50.7399 31.4803 49.8043 32.5953 48.9636 32.981C49.0893 33.3991 49.3103 33.7017 49.6257 33.835C50.6047 34.2487 52.1179 32.8813 53.0054 30.7808C53.6483 29.259 53.9061 26.0535 53.9993 24.4026C54.0195 24.0459 53.5818 23.861 53.3402 24.124Z" fill="#80CB8E"/>
<path d="M47.0606 35.4506C47.1272 37.6035 46.3678 39.3739 45.3644 39.405C44.361 39.4361 43.4934 37.716 43.4266 35.5632C43.3783 34.0035 44.2426 31.0915 44.7226 29.6052C44.8263 29.2842 45.2749 29.2703 45.3982 29.5844C45.9693 31.038 47.0123 33.891 47.0606 35.4506Z" fill="#AAD880"/>
<path d="M40.9921 39.7042C41.8403 41.684 41.7799 43.6095 40.8571 44.0049C39.9342 44.4003 38.4985 43.1159 37.6502 41.1361C37.0356 39.7018 36.7769 36.6752 36.6809 35.1164C36.6603 34.7796 37.0727 34.6029 37.3022 34.8502C38.3647 35.9949 40.3775 38.27 40.9921 39.7042Z" fill="#AAD880"/>
<path d="M40.9921 39.7043C40.3775 38.27 38.3647 35.995 37.3022 34.8502C37.0727 34.6029 36.6603 34.7796 36.6809 35.1164C36.7083 35.562 36.7492 36.1277 36.8077 36.7417C37.7996 37.8911 38.9079 39.2997 39.3364 40.2998C39.9306 41.6866 40.0783 43.0459 39.7967 43.8721C40.1802 44.0803 40.5475 44.1375 40.8571 44.0049C41.7799 43.6096 41.8403 41.684 40.9921 39.7043Z" fill="#80CB8E"/>
<path d="M46.4021 44.3163C44.3684 43.6072 42.9876 42.2639 43.3181 41.3158C43.6486 40.3679 45.5653 40.1741 47.5991 40.8833C49.0725 41.397 51.4815 43.2474 52.6971 44.228C52.9597 44.4398 52.812 44.8636 52.4746 44.8662C50.9127 44.8785 47.8755 44.83 46.4021 44.3163Z" fill="#AAD880"/>
<path d="M39.9426 48.7577C37.9088 48.0486 36.528 46.7053 36.8586 45.7572C37.1891 44.8093 39.1058 44.6155 41.1395 45.3247C42.6129 45.8384 45.022 47.6888 46.2376 48.6694C46.5002 48.8812 46.3524 49.305 46.0151 49.3076C44.4533 49.32 41.4161 49.2714 39.9426 48.7577Z" fill="#AAD880"/>
<path d="M52.697 44.2276C52.203 43.8291 51.5119 43.287 50.7667 42.7493C49.1251 42.747 46.5029 42.6637 45.1667 42.1978C44.4629 41.9524 43.8375 41.6311 43.3339 41.2764C43.3286 41.2894 43.3225 41.302 43.3179 41.3154C42.9873 42.2633 44.3681 43.6067 46.4019 44.3159C47.8753 44.8296 50.9126 44.8781 52.4743 44.8659C52.8118 44.8633 52.9596 44.4395 52.697 44.2276Z" fill="#80CB8E"/>
<path d="M46.2376 48.669C45.7436 48.2705 45.0525 47.7284 44.3073 47.1908C42.6656 47.1884 40.0435 47.1051 38.7073 46.6393C38.0035 46.3938 37.3781 46.0725 36.8746 45.7178C36.8693 45.7309 36.8632 45.7435 36.8586 45.7568C36.528 46.7047 37.9088 48.0481 39.9426 48.7573C41.416 49.271 44.4533 49.3195 46.0151 49.3072C46.3523 49.3046 46.5001 48.8808 46.2376 48.669Z" fill="#80CB8E"/>
<path d="M0.994609 30.7808C1.88213 32.8813 3.39529 34.2487 4.37436 33.835C5.35342 33.4214 5.42767 31.3832 4.54026 29.2827C3.89732 27.7609 1.77856 25.3416 0.659852 24.124C0.418223 23.8609 -0.0194726 24.0459 0.000671887 24.4025C0.0938008 26.0534 0.351672 29.259 0.994609 30.7808Z" fill="#AAD880"/>
<path d="M4.5402 29.2827C3.89726 27.7609 1.7785 25.3416 0.659791 24.124C0.418162 23.8609 -0.0195337 24.0459 0.000610852 24.4025C0.0265562 24.8625 0.0653687 25.4431 0.121689 26.0743C1.19599 27.3213 2.4381 28.8965 2.90438 30.0001C3.51894 31.4547 3.67198 32.8789 3.38299 33.755C3.74053 33.922 4.08141 33.9587 4.37429 33.835C5.35347 33.4214 5.42772 31.3832 4.5402 29.2827Z" fill="#80CB8E"/>
<path d="M6.93938 35.4506C6.87272 37.6035 7.63209 39.3739 8.63552 39.405C9.63895 39.4361 10.5065 37.716 10.5733 35.5632C10.6216 34.0035 9.75729 31.0915 9.2773 29.6052C9.17363 29.2842 8.72507 29.2703 8.60177 29.5844C8.03066 31.038 6.98768 33.891 6.93938 35.4506Z" fill="#AAD880"/>
<path d="M47.0605 35.4506C47.0122 33.8909 45.9693 31.038 45.3982 29.5843C45.2749 29.2703 44.8263 29.2842 44.7226 29.6052C44.5813 30.0428 44.4067 30.6043 44.2319 31.218C44.7352 32.6496 45.2518 34.3638 45.2854 35.4506C45.3313 36.9321 44.986 38.2324 44.439 38.9095C44.7167 39.2336 45.033 39.4151 45.3643 39.4049C46.3678 39.3739 47.1273 37.6034 47.0605 35.4506Z" fill="#80CB8E"/>
<path d="M9.27735 29.6052C9.17367 29.2842 8.72512 29.2703 8.60172 29.5843C8.42854 30.0252 8.21201 30.595 7.99285 31.2181C8.41187 32.6893 8.83217 34.4628 8.7981 35.5632C8.75338 37.0053 8.34912 38.2522 7.78571 38.9097C8.03345 39.2165 8.32265 39.3953 8.63557 39.405C9.639 39.4362 10.5066 37.7161 10.5733 35.5632C10.6217 34.0036 9.75734 31.0915 9.27735 29.6052Z" fill="#80CB8E"/>
<path d="M13.0079 39.7042C12.1596 41.684 12.22 43.6095 13.1429 44.0049C14.0657 44.4003 15.5015 43.1159 16.3498 41.1361C16.9643 39.7018 17.223 36.6752 17.319 35.1164C17.3397 34.7796 16.9272 34.6029 16.6977 34.8502C15.6352 35.9949 13.6224 38.27 13.0079 39.7042Z" fill="#AAD880"/>
<path d="M16.6977 34.8502C16.3662 35.2073 15.9422 35.6745 15.497 36.192C15.348 37.6887 15.0937 39.4268 14.6713 40.4126C14.104 41.7366 13.2742 42.7486 12.5105 43.1562C12.6249 43.5719 12.8359 43.8734 13.1428 44.0049C14.0656 44.4003 15.5014 43.1159 16.3497 41.136C16.9642 39.7018 17.2229 36.6751 17.3189 35.1163C17.3397 34.7796 16.9272 34.6029 16.6977 34.8502Z" fill="#80CB8E"/>
<path d="M7.59783 44.3163C9.63158 43.6072 11.0124 42.2639 10.6818 41.3158C10.3513 40.3679 8.43462 40.1741 6.40086 40.8833C4.92747 41.397 2.51845 43.2474 1.30282 44.228C1.04031 44.4398 1.18797 44.8636 1.52536 44.8662C3.08725 44.8785 6.12443 44.83 7.59783 44.3163Z" fill="#AAD880"/>
<path d="M14.0574 48.7577C16.0911 48.0486 17.4719 46.7053 17.1414 45.7572C16.8108 44.8093 14.8942 44.6155 12.8604 45.3247C11.387 45.8384 8.97799 47.6888 7.76236 48.6694C7.49984 48.8812 7.6475 49.305 7.98489 49.3076C9.54668 49.32 12.5839 49.2714 14.0574 48.7577Z" fill="#AAD880"/>
<path d="M10.6819 41.3156C10.5466 40.9276 10.1453 40.6661 9.57917 40.541C9.26698 41.3674 8.09121 42.286 6.52922 42.8305C5.55047 43.1718 3.88196 43.3077 2.41404 43.3569C1.99069 43.6788 1.60889 43.9809 1.30293 44.2278C1.04031 44.4396 1.18807 44.8633 1.52547 44.866C3.08725 44.8782 6.12443 44.8297 7.59794 44.3159C9.63169 43.607 11.0125 42.2636 10.6819 41.3156Z" fill="#80CB8E"/>
<path d="M17.1414 45.757C17.0061 45.369 16.6048 45.1075 16.0386 44.9824C15.7264 45.8088 14.5506 46.7274 12.9886 47.2719C12.0099 47.6132 10.3414 47.7491 8.87347 47.7983C8.45012 48.1202 8.06832 48.4223 7.76236 48.6692C7.49984 48.881 7.6475 49.3047 7.98489 49.3074C9.54668 49.3196 12.5839 49.2711 14.0574 48.7575C16.0911 48.0483 17.4719 46.7049 17.1414 45.757Z" fill="#80CB8E"/>
<path d="M26.7578 21.8361C30.1163 21.8361 32.8389 19.1135 32.8389 15.7549C32.8389 12.3964 30.1163 9.67383 26.7578 9.67383C23.3993 9.67383 20.6767 12.3964 20.6767 15.7549C20.6767 19.1135 23.3993 21.8361 26.7578 21.8361Z" fill="#ECBE6B"/>
<path d="M29.0219 10.1113C29.303 10.8113 29.4592 11.5749 29.4592 12.3754C29.4592 15.734 26.7366 18.4565 23.378 18.4565C22.5775 18.4565 21.8139 18.3003 21.114 18.0193C22.0121 20.2562 24.1998 21.8364 26.7578 21.8364C30.1163 21.8364 32.8389 19.1138 32.8389 15.7553C32.839 13.1971 31.2588 11.0096 29.0219 10.1113Z" fill="#EAB14D"/>
<path d="M27.2017 13.0505L27.8385 14.3405C27.8964 14.4577 28.0082 14.539 28.1376 14.5578L29.5612 14.7646C29.887 14.8119 30.017 15.2123 29.7813 15.4421L28.7512 16.4463C28.6575 16.5375 28.6148 16.669 28.637 16.7978L28.8802 18.2157C28.9359 18.5402 28.5953 18.7876 28.3039 18.6344L27.0306 17.965C26.9149 17.9042 26.7766 17.9042 26.6609 17.965L25.3876 18.6344C25.0962 18.7876 24.7556 18.5402 24.8113 18.2157L25.0545 16.7978C25.0767 16.6689 25.0339 16.5375 24.9403 16.4463L23.9102 15.4421C23.6745 15.2123 23.8045 14.8119 24.1303 14.7646L25.5539 14.5578C25.6833 14.539 25.7951 14.4577 25.853 14.3405L26.4897 13.0505C26.6351 12.7553 27.0561 12.7553 27.2017 13.0505Z" fill="#FFE07D"/>
<path d="M29.7812 15.4424C30.0169 15.2126 29.8869 14.8122 29.5611 14.7649L29.0421 14.6895L27.6587 16.038C27.52 16.1731 27.4568 16.3678 27.4895 16.5586L27.8002 18.3699L28.3038 18.6346C28.5952 18.7878 28.9358 18.5403 28.8801 18.2159L28.6369 16.798C28.6147 16.6691 28.6574 16.5377 28.7511 16.4465L29.7812 15.4424Z" fill="#FFD064"/>
<path d="M34.8982 51.8516H19.1183C18.6197 51.8516 18.2157 51.4474 18.2157 50.949V43.4885C18.2157 42.99 18.6199 42.5859 19.1183 42.5859H34.8982C35.3968 42.5859 35.8008 42.9901 35.8008 43.4885V50.949C35.8009 51.4474 35.3968 51.8516 34.8982 51.8516Z" fill="#407093"/>
<path d="M34.9006 42.5859H33.1911V48.3417C33.1911 48.8389 32.7881 49.2419 32.2909 49.2419H18.2157V50.9514C18.2157 51.4486 18.6187 51.8516 19.1159 51.8516H34.9006C35.3978 51.8516 35.8008 51.4486 35.8008 50.9514V43.4861C35.8009 42.9889 35.3978 42.5859 34.9006 42.5859Z" fill="#365E7D"/>
</g>
<defs>
<clipPath id="clip0_15707_36193">
<rect width="54" height="54" fill="white"/>
</clipPath>
</defs>
</svg>
