<svg width="20" height="20" viewBox="0 0 20 20" fill="none" xmlns="http://www.w3.org/2000/svg">
<g clip-path="url(#clip0_19990_16820)">
<path d="M3.09754 5.08939L3.09708 5.08984C2.96737 5.21922 2.96672 5.42979 3.09754 5.56061L4.1717 6.63478C4.41455 6.87762 4.733 6.99917 5.05398 6.99917C5.37497 6.99917 5.69342 6.87762 5.93626 6.63478L7.7521 4.81895C7.88267 4.68837 7.88267 4.47829 7.7521 4.34772C7.62153 4.21715 7.41144 4.21715 7.28087 4.34772L5.46504 6.16355L5.45976 6.16883L5.45972 6.16879C5.32565 6.29892 5.16275 6.33063 5.05325 6.33063C4.94473 6.33063 4.77781 6.29927 4.6421 6.16355L4.64196 6.16342L3.56876 5.08939C3.56872 5.08934 3.56867 5.08929 3.56863 5.08925M3.09754 5.08939L2.74398 4.73583C3.06982 4.41 3.59648 4.41 3.92232 4.73583L3.56863 5.08925M3.09754 5.08939C3.22806 4.95886 3.43804 4.95882 3.56863 5.08925M3.09754 5.08939L3.56863 5.08925M5.93626 11.6348L5.93634 11.6347L7.75293 9.81895C7.75296 9.81892 7.75298 9.81889 7.75301 9.81886C7.8835 9.68829 7.88347 9.47826 7.75293 9.34772C7.62236 9.21715 7.41227 9.21715 7.2817 9.34772L5.46587 11.1636L5.46059 11.1688L5.46055 11.1688C5.32648 11.2989 5.16359 11.3306 5.05409 11.3306C4.94557 11.3306 4.77865 11.2993 4.64293 11.1636L4.64279 11.1634L3.5696 10.0894L5.93626 11.6348ZM5.93626 11.6348C5.69342 11.8776 5.37497 11.9992 5.05398 11.9992C4.73306 11.9992 4.41467 11.8777 4.17184 11.6349C4.17179 11.6349 4.17175 11.6348 4.1717 11.6348L3.09851 10.5608L3.09837 10.5606M5.93626 11.6348L3.09837 10.5606M3.09837 10.5606C2.96755 10.4298 2.9682 10.2192 3.09792 10.0898L3.09837 10.0894M3.09837 10.5606V10.0894M3.09837 10.0894C3.2289 9.95886 3.43888 9.95882 3.56946 10.0892L3.09837 10.0894ZM12.8331 15V15.5H13.3331H13.7498C14.6228 15.5 15.3331 16.2103 15.3331 17.0833V17.5C15.3331 18.6022 14.4353 19.5 13.3331 19.5H2.91508C1.58356 19.4993 0.499817 18.4156 0.499817 17.0833V3.75C0.499817 1.95864 1.95846 0.5 3.74982 0.5H9.58315C11.3745 0.5 12.8331 1.95864 12.8331 3.75V15ZM11.6665 15.5H12.1665V15V3.75C12.1665 2.32469 11.0085 1.16667 9.58315 1.16667H3.74982C2.32451 1.16667 1.16648 2.32469 1.16648 3.75V17.0833C1.16648 18.0486 1.95117 18.8333 2.91648 18.8333C3.88179 18.8333 4.66648 18.0486 4.66648 17.0833C4.66648 16.2103 5.37679 15.5 6.24982 15.5H11.6665ZM5.10018 18.1181L4.75907 18.8333H5.55148H13.3331C14.0693 18.8333 14.6665 18.2361 14.6665 17.5V17.0833C14.6665 16.578 14.2551 16.1667 13.7498 16.1667H6.24982C5.74451 16.1667 5.33315 16.578 5.33315 17.0833C5.33315 17.4541 5.24958 17.8048 5.10018 18.1181ZM17.1463 13.3419L17.4998 13.6954L17.8534 13.3419L17.9542 13.2411C18.5195 12.6757 18.8331 11.9203 18.8331 11.1192V2.5C18.8331 1.76386 18.236 1.16667 17.4998 1.16667C16.7637 1.16667 16.1665 1.76386 16.1665 2.5V11.1192C16.1665 11.9203 16.4801 12.6757 17.0454 13.2411L17.1463 13.3419ZM15.4998 2.5C15.4998 1.39781 16.3976 0.5 17.4998 0.5C18.602 0.5 19.4998 1.39781 19.4998 2.5V11.1192C19.4998 12.0998 19.1184 13.0193 18.4254 13.7123L17.7354 14.4023C17.6702 14.4675 17.5856 14.5 17.4998 14.5C17.414 14.5 17.3294 14.4675 17.2642 14.4023L16.5742 13.7123C15.8812 13.0193 15.4998 12.0998 15.4998 11.1192V2.5Z" fill="#6166AE" stroke="#6166AE"/>
</g>
<defs>
<clipPath id="clip0_19990_16820">
<rect width="20" height="20" fill="white"/>
</clipPath>
</defs>
</svg>
