<svg width="40" height="40" viewBox="0 0 40 40" fill="none" xmlns="http://www.w3.org/2000/svg">
<path d="M36.2372 12.1749C35.9689 12.0001 35.628 11.9648 35.3271 12.0806L26.2063 15.5917V12.9532C26.2063 11.3248 24.8297 10 23.1377 10H6.40163C4.70964 10 3.33301 11.3248 3.33301 12.9532V27.0468C3.33301 28.6752 4.70964 30 6.40163 30H23.1377C24.8297 30 26.2063 28.6752 26.2063 27.0468V24.4083L35.3271 27.9194C35.4441 27.9645 35.5672 27.9867 35.6897 27.9867C35.8822 27.9867 36.0733 27.9319 36.2372 27.8251C36.5056 27.6502 36.6663 27.3587 36.6663 27.0468V12.9532C36.6663 12.6414 36.5056 12.3498 36.2372 12.1749ZM24.2531 27.0468C24.2531 27.6387 23.7527 28.1203 23.1377 28.1203H6.40163C5.78659 28.1203 5.28613 27.6387 5.28613 27.0468V12.9532C5.28613 12.3613 5.78659 11.8797 6.40163 11.8797H23.1377C23.7527 11.8797 24.2531 12.3613 24.2531 12.9532V27.0468ZM34.7132 25.6586L26.2063 22.3838V17.6162L34.7132 14.3414V25.6586Z" fill="#6166AE"/>
</svg>
