<svg width="76" height="88" viewBox="0 0 76 88" fill="none" xmlns="http://www.w3.org/2000/svg">
<g clip-path="url(#clip0_14897_427550)">
<path d="M71.7706 0H4.51345C2.31345 0 0.427734 1.88571 0.427734 4.08571V83.6C0.427734 86.1143 2.31345 88 4.51345 88H71.4563C73.6563 88 75.542 86.1143 75.542 83.9143V4.08571C75.8563 1.88571 73.9706 0 71.7706 0ZM72.7134 69.1429C72.7134 71.0286 71.142 72.2857 69.5706 72.2857H6.71345C4.82773 72.2857 3.57059 70.7143 3.57059 69.1429V6.28571C3.57059 4.4 5.14202 3.14286 6.71345 3.14286H69.5706C71.4563 3.14286 72.7134 4.71429 72.7134 6.28571V69.1429Z" fill="black"/>
<path d="M19.1205 7.99988H17.8521V9.26831H19.1205V7.99988Z" fill="black"/>
<path d="M21.5834 7.99988H20.3149V9.26831H21.5834V7.99988Z" fill="black"/>
<path d="M24.0463 7.99988H22.7778V9.26831H24.0463V7.99988Z" fill="black"/>
<path d="M25.2777 7.99988H24.0093V9.26831H25.2777V7.99988Z" fill="black"/>
<path d="M26.5092 7.99988H25.2407V9.26831H26.5092V7.99988Z" fill="black"/>
<path d="M28.972 7.99988H27.7036V9.26831H28.972V7.99988Z" fill="black"/>
<path d="M31.4354 7.99988H30.167V9.26831H31.4354V7.99988Z" fill="black"/>
<path d="M32.6669 7.99988H31.3984V9.26831H32.6669V7.99988Z" fill="black"/>
<path d="M36.3612 7.99988H35.0928V9.26831H36.3612V7.99988Z" fill="black"/>
<path d="M38.8241 7.99988H37.5557V9.26831H38.8241V7.99988Z" fill="black"/>
<path d="M41.287 7.99988H40.0186V9.26831H41.287V7.99988Z" fill="black"/>
<path d="M43.7499 7.99988H42.4814V9.26831H43.7499V7.99988Z" fill="black"/>
<path d="M47.4447 7.99988H46.1763V9.26831H47.4447V7.99988Z" fill="black"/>
<path d="M48.6761 7.99988H47.4077V9.26831H48.6761V7.99988Z" fill="black"/>
<path d="M52.3705 7.99988H51.1021V9.26831H52.3705V7.99988Z" fill="black"/>
<path d="M53.6019 7.99988H52.3335V9.26831H53.6019V7.99988Z" fill="black"/>
<path d="M58.5277 7.99988H57.2593V9.26831H58.5277V7.99988Z" fill="black"/>
<path d="M19.1205 9.23135H17.8521V10.4998H19.1205V9.23135Z" fill="black"/>
<path d="M20.3519 9.23135H19.0835V10.4998H20.3519V9.23135Z" fill="black"/>
<path d="M21.5834 9.23135H20.3149V10.4998H21.5834V9.23135Z" fill="black"/>
<path d="M24.0463 9.23135H22.7778V10.4998H24.0463V9.23135Z" fill="black"/>
<path d="M28.972 9.23135H27.7036V10.4998H28.972V9.23135Z" fill="black"/>
<path d="M40.0555 9.23135H38.7871V10.4998H40.0555V9.23135Z" fill="black"/>
<path d="M42.5184 9.23135H41.25V10.4998H42.5184V9.23135Z" fill="black"/>
<path d="M43.7499 9.23135H42.4814V10.4998H43.7499V9.23135Z" fill="black"/>
<path d="M44.9813 9.23135H43.7129V10.4998H44.9813V9.23135Z" fill="black"/>
<path d="M46.2133 9.23135H44.9448V10.4998H46.2133V9.23135Z" fill="black"/>
<path d="M47.4447 9.23135H46.1763V10.4998H47.4447V9.23135Z" fill="black"/>
<path d="M49.9076 9.23135H48.6392V10.4998H49.9076V9.23135Z" fill="black"/>
<path d="M51.139 9.23135H49.8706V10.4998H51.139V9.23135Z" fill="black"/>
<path d="M56.0648 9.23135H54.7964V10.4998H56.0648V9.23135Z" fill="black"/>
<path d="M57.2963 9.23135H56.0278V10.4998H57.2963V9.23135Z" fill="black"/>
<path d="M58.5277 9.23135H57.2593V10.4998H58.5277V9.23135Z" fill="black"/>
<path d="M19.1205 10.4629H17.8521V11.7313H19.1205V10.4629Z" fill="black"/>
<path d="M22.8148 10.4629H21.5464V11.7313H22.8148V10.4629Z" fill="black"/>
<path d="M28.972 10.4629H27.7036V11.7313H28.972V10.4629Z" fill="black"/>
<path d="M33.8983 10.4629H32.6299V11.7313H33.8983V10.4629Z" fill="black"/>
<path d="M36.3612 10.4629H35.0928V11.7313H36.3612V10.4629Z" fill="black"/>
<path d="M37.5927 10.4629H36.3242V11.7313H37.5927V10.4629Z" fill="black"/>
<path d="M41.287 10.4629H40.0186V11.7313H41.287V10.4629Z" fill="black"/>
<path d="M47.4447 10.4629H46.1763V11.7313H47.4447V10.4629Z" fill="black"/>
<path d="M48.6761 10.4629H47.4077V11.7313H48.6761V10.4629Z" fill="black"/>
<path d="M49.9076 10.4629H48.6392V11.7313H49.9076V10.4629Z" fill="black"/>
<path d="M51.139 10.4629H49.8706V11.7313H51.139V10.4629Z" fill="black"/>
<path d="M52.3705 10.4629H51.1021V11.7313H52.3705V10.4629Z" fill="black"/>
<path d="M57.2963 10.4629H56.0278V11.7313H57.2963V10.4629Z" fill="black"/>
<path d="M58.5277 10.4629H57.2593V11.7313H58.5277V10.4629Z" fill="black"/>
<path d="M21.5834 11.6943H20.3149V12.9628H21.5834V11.6943Z" fill="black"/>
<path d="M22.8148 11.6943H21.5464V12.9628H22.8148V11.6943Z" fill="black"/>
<path d="M31.4354 11.6943H30.167V12.9628H31.4354V11.6943Z" fill="black"/>
<path d="M36.3612 11.6943H35.0928V12.9628H36.3612V11.6943Z" fill="black"/>
<path d="M37.5927 11.6943H36.3242V12.9628H37.5927V11.6943Z" fill="black"/>
<path d="M40.0555 11.6943H38.7871V12.9628H40.0555V11.6943Z" fill="black"/>
<path d="M42.5184 11.6943H41.25V12.9628H42.5184V11.6943Z" fill="black"/>
<path d="M44.9813 11.6943H43.7129V12.9628H44.9813V11.6943Z" fill="black"/>
<path d="M52.3705 11.6943H51.1021V12.9628H52.3705V11.6943Z" fill="black"/>
<path d="M53.6019 11.6943H52.3335V12.9628H53.6019V11.6943Z" fill="black"/>
<path d="M54.8334 11.6943H53.5649V12.9628H54.8334V11.6943Z" fill="black"/>
<path d="M57.2963 11.6943H56.0278V12.9628H57.2963V11.6943Z" fill="black"/>
<path d="M25.2777 12.9258H24.0093V14.1942H25.2777V12.9258Z" fill="black"/>
<path d="M31.4354 12.9258H30.167V14.1942H31.4354V12.9258Z" fill="black"/>
<path d="M36.3612 12.9258H35.0928V14.1942H36.3612V12.9258Z" fill="black"/>
<path d="M37.5927 12.9258H36.3242V14.1942H37.5927V12.9258Z" fill="black"/>
<path d="M38.8241 12.9258H37.5557V14.1942H38.8241V12.9258Z" fill="black"/>
<path d="M40.0555 12.9258H38.7871V14.1942H40.0555V12.9258Z" fill="black"/>
<path d="M41.287 12.9258H40.0186V14.1942H41.287V12.9258Z" fill="black"/>
<path d="M44.9813 12.9258H43.7129V14.1942H44.9813V12.9258Z" fill="black"/>
<path d="M46.2133 12.9258H44.9448V14.1942H46.2133V12.9258Z" fill="black"/>
<path d="M47.4447 12.9258H46.1763V14.1942H47.4447V12.9258Z" fill="black"/>
<path d="M49.9076 12.9258H48.6392V14.1942H49.9076V12.9258Z" fill="black"/>
<path d="M53.6019 12.9258H52.3335V14.1942H53.6019V12.9258Z" fill="black"/>
<path d="M54.8334 12.9258H53.5649V14.1942H54.8334V12.9258Z" fill="black"/>
<path d="M19.1205 14.1573H17.8521V15.4257H19.1205V14.1573Z" fill="black"/>
<path d="M20.3519 14.1573H19.0835V15.4257H20.3519V14.1573Z" fill="black"/>
<path d="M24.0463 14.1573H22.7778V15.4257H24.0463V14.1573Z" fill="black"/>
<path d="M27.7406 14.1573H26.4722V15.4257H27.7406V14.1573Z" fill="black"/>
<path d="M28.972 14.1573H27.7036V15.4257H28.972V14.1573Z" fill="black"/>
<path d="M30.2035 14.1573H28.9351V15.4257H30.2035V14.1573Z" fill="black"/>
<path d="M31.4354 14.1573H30.167V15.4257H31.4354V14.1573Z" fill="black"/>
<path d="M36.3612 14.1573H35.0928V15.4257H36.3612V14.1573Z" fill="black"/>
<path d="M41.287 14.1573H40.0186V15.4257H41.287V14.1573Z" fill="black"/>
<path d="M44.9813 14.1573H43.7129V15.4257H44.9813V14.1573Z" fill="black"/>
<path d="M47.4447 14.1573H46.1763V15.4257H47.4447V14.1573Z" fill="black"/>
<path d="M48.6761 14.1573H47.4077V15.4257H48.6761V14.1573Z" fill="black"/>
<path d="M49.9076 14.1573H48.6392V15.4257H49.9076V14.1573Z" fill="black"/>
<path d="M51.139 14.1573H49.8706V15.4257H51.139V14.1573Z" fill="black"/>
<path d="M53.6019 14.1573H52.3335V15.4257H53.6019V14.1573Z" fill="black"/>
<path d="M56.0648 14.1573H54.7964V15.4257H56.0648V14.1573Z" fill="black"/>
<path d="M19.1205 15.3888H17.8521V16.6572H19.1205V15.3888Z" fill="black"/>
<path d="M21.5834 15.3888H20.3149V16.6572H21.5834V15.3888Z" fill="black"/>
<path d="M24.0463 15.3888H22.7778V16.6572H24.0463V15.3888Z" fill="black"/>
<path d="M26.5092 15.3888H25.2407V16.6572H26.5092V15.3888Z" fill="black"/>
<path d="M28.972 15.3888H27.7036V16.6572H28.972V15.3888Z" fill="black"/>
<path d="M31.4354 15.3888H30.167V16.6572H31.4354V15.3888Z" fill="black"/>
<path d="M33.8983 15.3888H32.6299V16.6572H33.8983V15.3888Z" fill="black"/>
<path d="M36.3612 15.3888H35.0928V16.6572H36.3612V15.3888Z" fill="black"/>
<path d="M38.8241 15.3888H37.5557V16.6572H38.8241V15.3888Z" fill="black"/>
<path d="M41.287 15.3888H40.0186V16.6572H41.287V15.3888Z" fill="black"/>
<path d="M43.7499 15.3888H42.4814V16.6572H43.7499V15.3888Z" fill="black"/>
<path d="M46.2133 15.3888H44.9448V16.6572H46.2133V15.3888Z" fill="black"/>
<path d="M48.6761 15.3888H47.4077V16.6572H48.6761V15.3888Z" fill="black"/>
<path d="M51.139 15.3888H49.8706V16.6572H51.139V15.3888Z" fill="black"/>
<path d="M53.6019 15.3888H52.3335V16.6572H53.6019V15.3888Z" fill="black"/>
<path d="M56.0648 15.3888H54.7964V16.6572H56.0648V15.3888Z" fill="black"/>
<path d="M58.5277 15.3888H57.2593V16.6572H58.5277V15.3888Z" fill="black"/>
<path d="M19.1205 16.6203H17.8521V17.8887H19.1205V16.6203Z" fill="black"/>
<path d="M21.5834 16.6203H20.3149V17.8887H21.5834V16.6203Z" fill="black"/>
<path d="M22.8148 16.6203H21.5464V17.8887H22.8148V16.6203Z" fill="black"/>
<path d="M30.2035 16.6203H28.9351V17.8887H30.2035V16.6203Z" fill="black"/>
<path d="M33.8983 16.6203H32.6299V17.8887H33.8983V16.6203Z" fill="black"/>
<path d="M35.1298 16.6203H33.8613V17.8887H35.1298V16.6203Z" fill="black"/>
<path d="M36.3612 16.6203H35.0928V17.8887H36.3612V16.6203Z" fill="black"/>
<path d="M41.287 16.6203H40.0186V17.8887H41.287V16.6203Z" fill="black"/>
<path d="M42.5184 16.6203H41.25V17.8887H42.5184V16.6203Z" fill="black"/>
<path d="M46.2133 16.6203H44.9448V17.8887H46.2133V16.6203Z" fill="black"/>
<path d="M49.9076 16.6203H48.6392V17.8887H49.9076V16.6203Z" fill="black"/>
<path d="M52.3705 16.6203H51.1021V17.8887H52.3705V16.6203Z" fill="black"/>
<path d="M53.6019 16.6203H52.3335V17.8887H53.6019V16.6203Z" fill="black"/>
<path d="M54.8334 16.6203H53.5649V17.8887H54.8334V16.6203Z" fill="black"/>
<path d="M56.0648 16.6203H54.7964V17.8887H56.0648V16.6203Z" fill="black"/>
<path d="M11.7313 17.8518H10.4629V19.1202H11.7313V17.8518Z" fill="black"/>
<path d="M12.9628 17.8518H11.6943V19.1202H12.9628V17.8518Z" fill="black"/>
<path d="M14.1942 17.8518H12.9258V19.1202H14.1942V17.8518Z" fill="black"/>
<path d="M16.6576 17.8518H15.3892V19.1202H16.6576V17.8518Z" fill="black"/>
<path d="M19.1205 17.8518H17.8521V19.1202H19.1205V17.8518Z" fill="black"/>
<path d="M20.3519 17.8518H19.0835V19.1202H20.3519V17.8518Z" fill="black"/>
<path d="M22.8148 17.8518H21.5464V19.1202H22.8148V17.8518Z" fill="black"/>
<path d="M30.2035 17.8518H28.9351V19.1202H30.2035V17.8518Z" fill="black"/>
<path d="M31.4354 17.8518H30.167V19.1202H31.4354V17.8518Z" fill="black"/>
<path d="M32.6669 17.8518H31.3984V19.1202H32.6669V17.8518Z" fill="black"/>
<path d="M35.1298 17.8518H33.8613V19.1202H35.1298V17.8518Z" fill="black"/>
<path d="M36.3612 17.8518H35.0928V19.1202H36.3612V17.8518Z" fill="black"/>
<path d="M37.5927 17.8518H36.3242V19.1202H37.5927V17.8518Z" fill="black"/>
<path d="M38.8241 17.8518H37.5557V19.1202H38.8241V17.8518Z" fill="black"/>
<path d="M40.0555 17.8518H38.7871V19.1202H40.0555V17.8518Z" fill="black"/>
<path d="M41.287 17.8518H40.0186V19.1202H41.287V17.8518Z" fill="black"/>
<path d="M47.4447 17.8518H46.1763V19.1202H47.4447V17.8518Z" fill="black"/>
<path d="M49.9076 17.8518H48.6392V19.1202H49.9076V17.8518Z" fill="black"/>
<path d="M53.6019 17.8518H52.3335V19.1202H53.6019V17.8518Z" fill="black"/>
<path d="M54.8334 17.8518H53.5649V19.1202H54.8334V17.8518Z" fill="black"/>
<path d="M57.2963 17.8518H56.0278V19.1202H57.2963V17.8518Z" fill="black"/>
<path d="M58.5277 17.8518H57.2593V19.1202H58.5277V17.8518Z" fill="black"/>
<path d="M59.7592 17.8518H58.4907V19.1202H59.7592V17.8518Z" fill="black"/>
<path d="M60.9911 17.8518H59.7227V19.1202H60.9911V17.8518Z" fill="black"/>
<path d="M62.2225 17.8518H60.9541V19.1202H62.2225V17.8518Z" fill="black"/>
<path d="M65.9169 17.8518H64.6484V19.1202H65.9169V17.8518Z" fill="black"/>
<path d="M67.1483 17.8518H65.8799V19.1202H67.1483V17.8518Z" fill="black"/>
<path d="M68.3798 17.8518H67.1113V19.1202H68.3798V17.8518Z" fill="black"/>
<path d="M9.26843 19.0833H8V20.3517H9.26843V19.0833Z" fill="black"/>
<path d="M12.9628 19.0833H11.6943V20.3517H12.9628V19.0833Z" fill="black"/>
<path d="M14.1942 19.0833H12.9258V20.3517H14.1942V19.0833Z" fill="black"/>
<path d="M15.4257 19.0833H14.1572V20.3517H15.4257V19.0833Z" fill="black"/>
<path d="M17.889 19.0833H16.6206V20.3517H17.889V19.0833Z" fill="black"/>
<path d="M20.3519 19.0833H19.0835V20.3517H20.3519V19.0833Z" fill="black"/>
<path d="M21.5834 19.0833H20.3149V20.3517H21.5834V19.0833Z" fill="black"/>
<path d="M25.2777 19.0833H24.0093V20.3517H25.2777V19.0833Z" fill="black"/>
<path d="M27.7406 19.0833H26.4722V20.3517H27.7406V19.0833Z" fill="black"/>
<path d="M28.972 19.0833H27.7036V20.3517H28.972V19.0833Z" fill="black"/>
<path d="M31.4354 19.0833H30.167V20.3517H31.4354V19.0833Z" fill="black"/>
<path d="M32.6669 19.0833H31.3984V20.3517H32.6669V19.0833Z" fill="black"/>
<path d="M35.1298 19.0833H33.8613V20.3517H35.1298V19.0833Z" fill="black"/>
<path d="M36.3612 19.0833H35.0928V20.3517H36.3612V19.0833Z" fill="black"/>
<path d="M37.5927 19.0833H36.3242V20.3517H37.5927V19.0833Z" fill="black"/>
<path d="M38.8241 19.0833H37.5557V20.3517H38.8241V19.0833Z" fill="black"/>
<path d="M41.287 19.0833H40.0186V20.3517H41.287V19.0833Z" fill="black"/>
<path d="M43.7499 19.0833H42.4814V20.3517H43.7499V19.0833Z" fill="black"/>
<path d="M48.6761 19.0833H47.4077V20.3517H48.6761V19.0833Z" fill="black"/>
<path d="M52.3705 19.0833H51.1021V20.3517H52.3705V19.0833Z" fill="black"/>
<path d="M53.6019 19.0833H52.3335V20.3517H53.6019V19.0833Z" fill="black"/>
<path d="M54.8334 19.0833H53.5649V20.3517H54.8334V19.0833Z" fill="black"/>
<path d="M59.7592 19.0833H58.4907V20.3517H59.7592V19.0833Z" fill="black"/>
<path d="M60.9911 19.0833H59.7227V20.3517H60.9911V19.0833Z" fill="black"/>
<path d="M62.2225 19.0833H60.9541V20.3517H62.2225V19.0833Z" fill="black"/>
<path d="M65.9169 19.0833H64.6484V20.3517H65.9169V19.0833Z" fill="black"/>
<path d="M67.1483 19.0833H65.8799V20.3517H67.1483V19.0833Z" fill="black"/>
<path d="M10.4999 20.3148H9.23145V21.5832H10.4999V20.3148Z" fill="black"/>
<path d="M11.7313 20.3148H10.4629V21.5832H11.7313V20.3148Z" fill="black"/>
<path d="M12.9628 20.3148H11.6943V21.5832H12.9628V20.3148Z" fill="black"/>
<path d="M14.1942 20.3148H12.9258V21.5832H14.1942V20.3148Z" fill="black"/>
<path d="M15.4257 20.3148H14.1572V21.5832H15.4257V20.3148Z" fill="black"/>
<path d="M16.6576 20.3148H15.3892V21.5832H16.6576V20.3148Z" fill="black"/>
<path d="M19.1205 20.3148H17.8521V21.5832H19.1205V20.3148Z" fill="black"/>
<path d="M20.3519 20.3148H19.0835V21.5832H20.3519V20.3148Z" fill="black"/>
<path d="M21.5834 20.3148H20.3149V21.5832H21.5834V20.3148Z" fill="black"/>
<path d="M22.8148 20.3148H21.5464V21.5832H22.8148V20.3148Z" fill="black"/>
<path d="M24.0463 20.3148H22.7778V21.5832H24.0463V20.3148Z" fill="black"/>
<path d="M25.2777 20.3148H24.0093V21.5832H25.2777V20.3148Z" fill="black"/>
<path d="M27.7406 20.3148H26.4722V21.5832H27.7406V20.3148Z" fill="black"/>
<path d="M30.2035 20.3148H28.9351V21.5832H30.2035V20.3148Z" fill="black"/>
<path d="M32.6669 20.3148H31.3984V21.5832H32.6669V20.3148Z" fill="black"/>
<path d="M37.5927 20.3148H36.3242V21.5832H37.5927V20.3148Z" fill="black"/>
<path d="M40.0555 20.3148H38.7871V21.5832H40.0555V20.3148Z" fill="black"/>
<path d="M41.287 20.3148H40.0186V21.5832H41.287V20.3148Z" fill="black"/>
<path d="M43.7499 20.3148H42.4814V21.5832H43.7499V20.3148Z" fill="black"/>
<path d="M46.2133 20.3148H44.9448V21.5832H46.2133V20.3148Z" fill="black"/>
<path d="M49.9076 20.3148H48.6392V21.5832H49.9076V20.3148Z" fill="black"/>
<path d="M51.139 20.3148H49.8706V21.5832H51.139V20.3148Z" fill="black"/>
<path d="M53.6019 20.3148H52.3335V21.5832H53.6019V20.3148Z" fill="black"/>
<path d="M56.0648 20.3148H54.7964V21.5832H56.0648V20.3148Z" fill="black"/>
<path d="M58.5277 20.3148H57.2593V21.5832H58.5277V20.3148Z" fill="black"/>
<path d="M63.454 20.3148H62.1855V21.5832H63.454V20.3148Z" fill="black"/>
<path d="M65.9169 20.3148H64.6484V21.5832H65.9169V20.3148Z" fill="black"/>
<path d="M67.1483 20.3148H65.8799V21.5832H67.1483V20.3148Z" fill="black"/>
<path d="M68.3798 20.3148H67.1113V21.5832H68.3798V20.3148Z" fill="black"/>
<path d="M10.4999 21.5462H9.23145V22.8147H10.4999V21.5462Z" fill="black"/>
<path d="M11.7313 21.5462H10.4629V22.8147H11.7313V21.5462Z" fill="black"/>
<path d="M14.1942 21.5462H12.9258V22.8147H14.1942V21.5462Z" fill="black"/>
<path d="M15.4257 21.5462H14.1572V22.8147H15.4257V21.5462Z" fill="black"/>
<path d="M17.889 21.5462H16.6206V22.8147H17.889V21.5462Z" fill="black"/>
<path d="M21.5834 21.5462H20.3149V22.8147H21.5834V21.5462Z" fill="black"/>
<path d="M24.0463 21.5462H22.7778V22.8147H24.0463V21.5462Z" fill="black"/>
<path d="M25.2777 21.5462H24.0093V22.8147H25.2777V21.5462Z" fill="black"/>
<path d="M27.7406 21.5462H26.4722V22.8147H27.7406V21.5462Z" fill="black"/>
<path d="M30.2035 21.5462H28.9351V22.8147H30.2035V21.5462Z" fill="black"/>
<path d="M31.4354 21.5462H30.167V22.8147H31.4354V21.5462Z" fill="black"/>
<path d="M35.1298 21.5462H33.8613V22.8147H35.1298V21.5462Z" fill="black"/>
<path d="M37.5927 21.5462H36.3242V22.8147H37.5927V21.5462Z" fill="black"/>
<path d="M43.7499 21.5462H42.4814V22.8147H43.7499V21.5462Z" fill="black"/>
<path d="M44.9813 21.5462H43.7129V22.8147H44.9813V21.5462Z" fill="black"/>
<path d="M46.2133 21.5462H44.9448V22.8147H46.2133V21.5462Z" fill="black"/>
<path d="M47.4447 21.5462H46.1763V22.8147H47.4447V21.5462Z" fill="black"/>
<path d="M49.9076 21.5462H48.6392V22.8147H49.9076V21.5462Z" fill="black"/>
<path d="M51.139 21.5462H49.8706V22.8147H51.139V21.5462Z" fill="black"/>
<path d="M56.0648 21.5462H54.7964V22.8147H56.0648V21.5462Z" fill="black"/>
<path d="M57.2963 21.5462H56.0278V22.8147H57.2963V21.5462Z" fill="black"/>
<path d="M63.454 21.5462H62.1855V22.8147H63.454V21.5462Z" fill="black"/>
<path d="M67.1483 21.5462H65.8799V22.8147H67.1483V21.5462Z" fill="black"/>
<path d="M68.3798 21.5462H67.1113V22.8147H68.3798V21.5462Z" fill="black"/>
<path d="M9.26843 22.7777H8V24.0461H9.26843V22.7777Z" fill="black"/>
<path d="M11.7313 22.7777H10.4629V24.0461H11.7313V22.7777Z" fill="black"/>
<path d="M15.4257 22.7777H14.1572V24.0461H15.4257V22.7777Z" fill="black"/>
<path d="M16.6576 22.7777H15.3892V24.0461H16.6576V22.7777Z" fill="black"/>
<path d="M20.3519 22.7777H19.0835V24.0461H20.3519V22.7777Z" fill="black"/>
<path d="M25.2777 22.7777H24.0093V24.0461H25.2777V22.7777Z" fill="black"/>
<path d="M26.5092 22.7777H25.2407V24.0461H26.5092V22.7777Z" fill="black"/>
<path d="M28.972 22.7777H27.7036V24.0461H28.972V22.7777Z" fill="black"/>
<path d="M31.4354 22.7777H30.167V24.0461H31.4354V22.7777Z" fill="black"/>
<path d="M33.8983 22.7777H32.6299V24.0461H33.8983V22.7777Z" fill="black"/>
<path d="M37.5927 22.7777H36.3242V24.0461H37.5927V22.7777Z" fill="black"/>
<path d="M42.5184 22.7777H41.25V24.0461H42.5184V22.7777Z" fill="black"/>
<path d="M43.7499 22.7777H42.4814V24.0461H43.7499V22.7777Z" fill="black"/>
<path d="M44.9813 22.7777H43.7129V24.0461H44.9813V22.7777Z" fill="black"/>
<path d="M46.2133 22.7777H44.9448V24.0461H46.2133V22.7777Z" fill="black"/>
<path d="M53.6019 22.7777H52.3335V24.0461H53.6019V22.7777Z" fill="black"/>
<path d="M56.0648 22.7777H54.7964V24.0461H56.0648V22.7777Z" fill="black"/>
<path d="M57.2963 22.7777H56.0278V24.0461H57.2963V22.7777Z" fill="black"/>
<path d="M58.5277 22.7777H57.2593V24.0461H58.5277V22.7777Z" fill="black"/>
<path d="M59.7592 22.7777H58.4907V24.0461H59.7592V22.7777Z" fill="black"/>
<path d="M60.9911 22.7777H59.7227V24.0461H60.9911V22.7777Z" fill="black"/>
<path d="M62.2225 22.7777H60.9541V24.0461H62.2225V22.7777Z" fill="black"/>
<path d="M64.6854 22.7777H63.417V24.0461H64.6854V22.7777Z" fill="black"/>
<path d="M65.9169 22.7777H64.6484V24.0461H65.9169V22.7777Z" fill="black"/>
<path d="M68.3798 22.7777H67.1113V24.0461H68.3798V22.7777Z" fill="black"/>
<path d="M10.4999 24.0092H9.23145V25.2776H10.4999V24.0092Z" fill="black"/>
<path d="M12.9628 24.0092H11.6943V25.2776H12.9628V24.0092Z" fill="black"/>
<path d="M14.1942 24.0092H12.9258V25.2776H14.1942V24.0092Z" fill="black"/>
<path d="M17.889 24.0092H16.6206V25.2776H17.889V24.0092Z" fill="black"/>
<path d="M19.1205 24.0092H17.8521V25.2776H19.1205V24.0092Z" fill="black"/>
<path d="M20.3519 24.0092H19.0835V25.2776H20.3519V24.0092Z" fill="black"/>
<path d="M21.5834 24.0092H20.3149V25.2776H21.5834V24.0092Z" fill="black"/>
<path d="M22.8148 24.0092H21.5464V25.2776H22.8148V24.0092Z" fill="black"/>
<path d="M24.0463 24.0092H22.7778V25.2776H24.0463V24.0092Z" fill="black"/>
<path d="M27.7406 24.0092H26.4722V25.2776H27.7406V24.0092Z" fill="black"/>
<path d="M28.972 24.0092H27.7036V25.2776H28.972V24.0092Z" fill="black"/>
<path d="M30.2035 24.0092H28.9351V25.2776H30.2035V24.0092Z" fill="black"/>
<path d="M32.6669 24.0092H31.3984V25.2776H32.6669V24.0092Z" fill="black"/>
<path d="M33.8983 24.0092H32.6299V25.2776H33.8983V24.0092Z" fill="black"/>
<path d="M35.1298 24.0092H33.8613V25.2776H35.1298V24.0092Z" fill="black"/>
<path d="M36.3612 24.0092H35.0928V25.2776H36.3612V24.0092Z" fill="black"/>
<path d="M37.5927 24.0092H36.3242V25.2776H37.5927V24.0092Z" fill="black"/>
<path d="M38.8241 24.0092H37.5557V25.2776H38.8241V24.0092Z" fill="black"/>
<path d="M41.287 24.0092H40.0186V25.2776H41.287V24.0092Z" fill="black"/>
<path d="M42.5184 24.0092H41.25V25.2776H42.5184V24.0092Z" fill="black"/>
<path d="M43.7499 24.0092H42.4814V25.2776H43.7499V24.0092Z" fill="black"/>
<path d="M49.9076 24.0092H48.6392V25.2776H49.9076V24.0092Z" fill="black"/>
<path d="M52.3705 24.0092H51.1021V25.2776H52.3705V24.0092Z" fill="black"/>
<path d="M56.0648 24.0092H54.7964V25.2776H56.0648V24.0092Z" fill="black"/>
<path d="M57.2963 24.0092H56.0278V25.2776H57.2963V24.0092Z" fill="black"/>
<path d="M59.7592 24.0092H58.4907V25.2776H59.7592V24.0092Z" fill="black"/>
<path d="M60.9911 24.0092H59.7227V25.2776H60.9911V24.0092Z" fill="black"/>
<path d="M62.2225 24.0092H60.9541V25.2776H62.2225V24.0092Z" fill="black"/>
<path d="M65.9169 24.0092H64.6484V25.2776H65.9169V24.0092Z" fill="black"/>
<path d="M67.1483 24.0092H65.8799V25.2776H67.1483V24.0092Z" fill="black"/>
<path d="M9.26843 25.2407H8V26.5091H9.26843V25.2407Z" fill="black"/>
<path d="M10.4999 25.2407H9.23145V26.5091H10.4999V25.2407Z" fill="black"/>
<path d="M11.7313 25.2407H10.4629V26.5091H11.7313V25.2407Z" fill="black"/>
<path d="M12.9628 25.2407H11.6943V26.5091H12.9628V25.2407Z" fill="black"/>
<path d="M15.4257 25.2407H14.1572V26.5091H15.4257V25.2407Z" fill="black"/>
<path d="M16.6576 25.2407H15.3892V26.5091H16.6576V25.2407Z" fill="black"/>
<path d="M17.889 25.2407H16.6206V26.5091H17.889V25.2407Z" fill="black"/>
<path d="M20.3519 25.2407H19.0835V26.5091H20.3519V25.2407Z" fill="black"/>
<path d="M26.5092 25.2407H25.2407V26.5091H26.5092V25.2407Z" fill="black"/>
<path d="M27.7406 25.2407H26.4722V26.5091H27.7406V25.2407Z" fill="black"/>
<path d="M30.2035 25.2407H28.9351V26.5091H30.2035V25.2407Z" fill="black"/>
<path d="M31.4354 25.2407H30.167V26.5091H31.4354V25.2407Z" fill="black"/>
<path d="M32.6669 25.2407H31.3984V26.5091H32.6669V25.2407Z" fill="black"/>
<path d="M33.8983 25.2407H32.6299V26.5091H33.8983V25.2407Z" fill="black"/>
<path d="M37.5927 25.2407H36.3242V26.5091H37.5927V25.2407Z" fill="black"/>
<path d="M38.8241 25.2407H37.5557V26.5091H38.8241V25.2407Z" fill="black"/>
<path d="M40.0555 25.2407H38.7871V26.5091H40.0555V25.2407Z" fill="black"/>
<path d="M41.287 25.2407H40.0186V26.5091H41.287V25.2407Z" fill="black"/>
<path d="M42.5184 25.2407H41.25V26.5091H42.5184V25.2407Z" fill="black"/>
<path d="M43.7499 25.2407H42.4814V26.5091H43.7499V25.2407Z" fill="black"/>
<path d="M47.4447 25.2407H46.1763V26.5091H47.4447V25.2407Z" fill="black"/>
<path d="M49.9076 25.2407H48.6392V26.5091H49.9076V25.2407Z" fill="black"/>
<path d="M52.3705 25.2407H51.1021V26.5091H52.3705V25.2407Z" fill="black"/>
<path d="M57.2963 25.2407H56.0278V26.5091H57.2963V25.2407Z" fill="black"/>
<path d="M58.5277 25.2407H57.2593V26.5091H58.5277V25.2407Z" fill="black"/>
<path d="M64.6854 25.2407H63.417V26.5091H64.6854V25.2407Z" fill="black"/>
<path d="M65.9169 25.2407H64.6484V26.5091H65.9169V25.2407Z" fill="black"/>
<path d="M67.1483 25.2407H65.8799V26.5091H67.1483V25.2407Z" fill="black"/>
<path d="M68.3798 25.2407H67.1113V26.5091H68.3798V25.2407Z" fill="black"/>
<path d="M9.26843 26.4722H8V27.7406H9.26843V26.4722Z" fill="black"/>
<path d="M12.9628 26.4722H11.6943V27.7406H12.9628V26.4722Z" fill="black"/>
<path d="M14.1942 26.4722H12.9258V27.7406H14.1942V26.4722Z" fill="black"/>
<path d="M15.4257 26.4722H14.1572V27.7406H15.4257V26.4722Z" fill="black"/>
<path d="M17.889 26.4722H16.6206V27.7406H17.889V26.4722Z" fill="black"/>
<path d="M20.3519 26.4722H19.0835V27.7406H20.3519V26.4722Z" fill="black"/>
<path d="M21.5834 26.4722H20.3149V27.7406H21.5834V26.4722Z" fill="black"/>
<path d="M22.8148 26.4722H21.5464V27.7406H22.8148V26.4722Z" fill="black"/>
<path d="M27.7406 26.4722H26.4722V27.7406H27.7406V26.4722Z" fill="black"/>
<path d="M28.972 26.4722H27.7036V27.7406H28.972V26.4722Z" fill="black"/>
<path d="M32.6669 26.4722H31.3984V27.7406H32.6669V26.4722Z" fill="black"/>
<path d="M33.8983 26.4722H32.6299V27.7406H33.8983V26.4722Z" fill="black"/>
<path d="M35.1298 26.4722H33.8613V27.7406H35.1298V26.4722Z" fill="black"/>
<path d="M40.0555 26.4722H38.7871V27.7406H40.0555V26.4722Z" fill="black"/>
<path d="M42.5184 26.4722H41.25V27.7406H42.5184V26.4722Z" fill="black"/>
<path d="M43.7499 26.4722H42.4814V27.7406H43.7499V26.4722Z" fill="black"/>
<path d="M44.9813 26.4722H43.7129V27.7406H44.9813V26.4722Z" fill="black"/>
<path d="M47.4447 26.4722H46.1763V27.7406H47.4447V26.4722Z" fill="black"/>
<path d="M51.139 26.4722H49.8706V27.7406H51.139V26.4722Z" fill="black"/>
<path d="M52.3705 26.4722H51.1021V27.7406H52.3705V26.4722Z" fill="black"/>
<path d="M54.8334 26.4722H53.5649V27.7406H54.8334V26.4722Z" fill="black"/>
<path d="M56.0648 26.4722H54.7964V27.7406H56.0648V26.4722Z" fill="black"/>
<path d="M57.2963 26.4722H56.0278V27.7406H57.2963V26.4722Z" fill="black"/>
<path d="M58.5277 26.4722H57.2593V27.7406H58.5277V26.4722Z" fill="black"/>
<path d="M60.9911 26.4722H59.7227V27.7406H60.9911V26.4722Z" fill="black"/>
<path d="M63.454 26.4722H62.1855V27.7406H63.454V26.4722Z" fill="black"/>
<path d="M65.9169 26.4722H64.6484V27.7406H65.9169V26.4722Z" fill="black"/>
<path d="M68.3798 26.4722H67.1113V27.7406H68.3798V26.4722Z" fill="black"/>
<path d="M9.26843 27.7037H8V28.9721H9.26843V27.7037Z" fill="black"/>
<path d="M14.1942 27.7037H12.9258V28.9721H14.1942V27.7037Z" fill="black"/>
<path d="M16.6576 27.7037H15.3892V28.9721H16.6576V27.7037Z" fill="black"/>
<path d="M25.2777 27.7037H24.0093V28.9721H25.2777V27.7037Z" fill="black"/>
<path d="M26.5092 27.7037H25.2407V28.9721H26.5092V27.7037Z" fill="black"/>
<path d="M27.7406 27.7037H26.4722V28.9721H27.7406V27.7037Z" fill="black"/>
<path d="M28.972 27.7037H27.7036V28.9721H28.972V27.7037Z" fill="black"/>
<path d="M31.4354 27.7037H30.167V28.9721H31.4354V27.7037Z" fill="black"/>
<path d="M32.6669 27.7037H31.3984V28.9721H32.6669V27.7037Z" fill="black"/>
<path d="M33.8983 27.7037H32.6299V28.9721H33.8983V27.7037Z" fill="black"/>
<path d="M35.1298 27.7037H33.8613V28.9721H35.1298V27.7037Z" fill="black"/>
<path d="M42.5184 27.7037H41.25V28.9721H42.5184V27.7037Z" fill="black"/>
<path d="M43.7499 27.7037H42.4814V28.9721H43.7499V27.7037Z" fill="black"/>
<path d="M44.9813 27.7037H43.7129V28.9721H44.9813V27.7037Z" fill="black"/>
<path d="M46.2133 27.7037H44.9448V28.9721H46.2133V27.7037Z" fill="black"/>
<path d="M47.4447 27.7037H46.1763V28.9721H47.4447V27.7037Z" fill="black"/>
<path d="M48.6761 27.7037H47.4077V28.9721H48.6761V27.7037Z" fill="black"/>
<path d="M49.9076 27.7037H48.6392V28.9721H49.9076V27.7037Z" fill="black"/>
<path d="M51.139 27.7037H49.8706V28.9721H51.139V27.7037Z" fill="black"/>
<path d="M52.3705 27.7037H51.1021V28.9721H52.3705V27.7037Z" fill="black"/>
<path d="M53.6019 27.7037H52.3335V28.9721H53.6019V27.7037Z" fill="black"/>
<path d="M56.0648 27.7037H54.7964V28.9721H56.0648V27.7037Z" fill="black"/>
<path d="M59.7592 27.7037H58.4907V28.9721H59.7592V27.7037Z" fill="black"/>
<path d="M60.9911 27.7037H59.7227V28.9721H60.9911V27.7037Z" fill="black"/>
<path d="M62.2225 27.7037H60.9541V28.9721H62.2225V27.7037Z" fill="black"/>
<path d="M64.6854 27.7037H63.417V28.9721H64.6854V27.7037Z" fill="black"/>
<path d="M68.3798 27.7037H67.1113V28.9721H68.3798V27.7037Z" fill="black"/>
<path d="M10.4999 28.9352H9.23145V30.2036H10.4999V28.9352Z" fill="black"/>
<path d="M11.7313 28.9352H10.4629V30.2036H11.7313V28.9352Z" fill="black"/>
<path d="M12.9628 28.9352H11.6943V30.2036H12.9628V28.9352Z" fill="black"/>
<path d="M15.4257 28.9352H14.1572V30.2036H15.4257V28.9352Z" fill="black"/>
<path d="M17.889 28.9352H16.6206V30.2036H17.889V28.9352Z" fill="black"/>
<path d="M20.3519 28.9352H19.0835V30.2036H20.3519V28.9352Z" fill="black"/>
<path d="M22.8148 28.9352H21.5464V30.2036H22.8148V28.9352Z" fill="black"/>
<path d="M24.0463 28.9352H22.7778V30.2036H24.0463V28.9352Z" fill="black"/>
<path d="M27.7406 28.9352H26.4722V30.2036H27.7406V28.9352Z" fill="black"/>
<path d="M28.972 28.9352H27.7036V30.2036H28.972V28.9352Z" fill="black"/>
<path d="M51.139 28.9352H49.8706V30.2036H51.139V28.9352Z" fill="black"/>
<path d="M52.3705 28.9352H51.1021V30.2036H52.3705V28.9352Z" fill="black"/>
<path d="M53.6019 28.9352H52.3335V30.2036H53.6019V28.9352Z" fill="black"/>
<path d="M54.8334 28.9352H53.5649V30.2036H54.8334V28.9352Z" fill="black"/>
<path d="M56.0648 28.9352H54.7964V30.2036H56.0648V28.9352Z" fill="black"/>
<path d="M57.2963 28.9352H56.0278V30.2036H57.2963V28.9352Z" fill="black"/>
<path d="M60.9911 28.9352H59.7227V30.2036H60.9911V28.9352Z" fill="black"/>
<path d="M64.6854 28.9352H63.417V30.2036H64.6854V28.9352Z" fill="black"/>
<path d="M65.9169 28.9352H64.6484V30.2036H65.9169V28.9352Z" fill="black"/>
<path d="M67.1483 28.9352H65.8799V30.2036H67.1483V28.9352Z" fill="black"/>
<path d="M15.4257 30.1666H14.1572V31.4351H15.4257V30.1666Z" fill="black"/>
<path d="M16.6576 30.1666H15.3892V31.4351H16.6576V30.1666Z" fill="black"/>
<path d="M20.3519 30.1666H19.0835V31.4351H20.3519V30.1666Z" fill="black"/>
<path d="M21.5834 30.1666H20.3149V31.4351H21.5834V30.1666Z" fill="black"/>
<path d="M26.5092 30.1666H25.2407V31.4351H26.5092V30.1666Z" fill="black"/>
<path d="M49.9076 30.1666H48.6392V31.4351H49.9076V30.1666Z" fill="black"/>
<path d="M52.3705 30.1666H51.1021V31.4351H52.3705V30.1666Z" fill="black"/>
<path d="M59.7592 30.1666H58.4907V31.4351H59.7592V30.1666Z" fill="black"/>
<path d="M60.9911 30.1666H59.7227V31.4351H60.9911V30.1666Z" fill="black"/>
<path d="M62.2225 30.1666H60.9541V31.4351H62.2225V30.1666Z" fill="black"/>
<path d="M63.454 30.1666H62.1855V31.4351H63.454V30.1666Z" fill="black"/>
<path d="M64.6854 30.1666H63.417V31.4351H64.6854V30.1666Z" fill="black"/>
<path d="M67.1483 30.1666H65.8799V31.4351H67.1483V30.1666Z" fill="black"/>
<path d="M68.3798 30.1666H67.1113V31.4351H68.3798V30.1666Z" fill="black"/>
<path d="M9.26843 31.3981H8V32.6666H9.26843V31.3981Z" fill="black"/>
<path d="M10.4999 31.3981H9.23145V32.6666H10.4999V31.3981Z" fill="black"/>
<path d="M11.7313 31.3981H10.4629V32.6666H11.7313V31.3981Z" fill="black"/>
<path d="M12.9628 31.3981H11.6943V32.6666H12.9628V31.3981Z" fill="black"/>
<path d="M14.1942 31.3981H12.9258V32.6666H14.1942V31.3981Z" fill="black"/>
<path d="M15.4257 31.3981H14.1572V32.6666H15.4257V31.3981Z" fill="black"/>
<path d="M19.1205 31.3981H17.8521V32.6666H19.1205V31.3981Z" fill="black"/>
<path d="M20.3519 31.3981H19.0835V32.6666H20.3519V31.3981Z" fill="black"/>
<path d="M21.5834 31.3981H20.3149V32.6666H21.5834V31.3981Z" fill="black"/>
<path d="M22.8148 31.3981H21.5464V32.6666H22.8148V31.3981Z" fill="black"/>
<path d="M25.2777 31.3981H24.0093V32.6666H25.2777V31.3981Z" fill="black"/>
<path d="M49.9076 31.3981H48.6392V32.6666H49.9076V31.3981Z" fill="black"/>
<path d="M52.3705 31.3981H51.1021V32.6666H52.3705V31.3981Z" fill="black"/>
<path d="M54.8334 31.3981H53.5649V32.6666H54.8334V31.3981Z" fill="black"/>
<path d="M56.0648 31.3981H54.7964V32.6666H56.0648V31.3981Z" fill="black"/>
<path d="M57.2963 31.3981H56.0278V32.6666H57.2963V31.3981Z" fill="black"/>
<path d="M60.9911 31.3981H59.7227V32.6666H60.9911V31.3981Z" fill="black"/>
<path d="M62.2225 31.3981H60.9541V32.6666H62.2225V31.3981Z" fill="black"/>
<path d="M63.454 31.3981H62.1855V32.6666H63.454V31.3981Z" fill="black"/>
<path d="M67.1483 31.3981H65.8799V32.6666H67.1483V31.3981Z" fill="black"/>
<path d="M68.3798 31.3981H67.1113V32.6666H68.3798V31.3981Z" fill="black"/>
<path d="M9.26843 32.6296H8V33.898H9.26843V32.6296Z" fill="black"/>
<path d="M14.1942 32.6296H12.9258V33.898H14.1942V32.6296Z" fill="black"/>
<path d="M15.4257 32.6296H14.1572V33.898H15.4257V32.6296Z" fill="black"/>
<path d="M16.6576 32.6296H15.3892V33.898H16.6576V32.6296Z" fill="black"/>
<path d="M19.1205 32.6296H17.8521V33.898H19.1205V32.6296Z" fill="black"/>
<path d="M24.0463 32.6296H22.7778V33.898H24.0463V32.6296Z" fill="black"/>
<path d="M25.2777 32.6296H24.0093V33.898H25.2777V32.6296Z" fill="black"/>
<path d="M26.5092 32.6296H25.2407V33.898H26.5092V32.6296Z" fill="black"/>
<path d="M27.7406 32.6296H26.4722V33.898H27.7406V32.6296Z" fill="black"/>
<path d="M28.972 32.6296H27.7036V33.898H28.972V32.6296Z" fill="black"/>
<path d="M48.6761 32.6296H47.4077V33.898H48.6761V32.6296Z" fill="black"/>
<path d="M49.9076 32.6296H48.6392V33.898H49.9076V32.6296Z" fill="black"/>
<path d="M52.3705 32.6296H51.1021V33.898H52.3705V32.6296Z" fill="black"/>
<path d="M53.6019 32.6296H52.3335V33.898H53.6019V32.6296Z" fill="black"/>
<path d="M54.8334 32.6296H53.5649V33.898H54.8334V32.6296Z" fill="black"/>
<path d="M56.0648 32.6296H54.7964V33.898H56.0648V32.6296Z" fill="black"/>
<path d="M57.2963 32.6296H56.0278V33.898H57.2963V32.6296Z" fill="black"/>
<path d="M58.5277 32.6296H57.2593V33.898H58.5277V32.6296Z" fill="black"/>
<path d="M60.9911 32.6296H59.7227V33.898H60.9911V32.6296Z" fill="black"/>
<path d="M62.2225 32.6296H60.9541V33.898H62.2225V32.6296Z" fill="black"/>
<path d="M65.9169 32.6296H64.6484V33.898H65.9169V32.6296Z" fill="black"/>
<path d="M68.3798 32.6296H67.1113V33.898H68.3798V32.6296Z" fill="black"/>
<path d="M9.26843 33.8611H8V35.1295H9.26843V33.8611Z" fill="black"/>
<path d="M15.4257 33.8611H14.1572V35.1295H15.4257V33.8611Z" fill="black"/>
<path d="M20.3519 33.8611H19.0835V35.1295H20.3519V33.8611Z" fill="black"/>
<path d="M27.7406 33.8611H26.4722V35.1295H27.7406V33.8611Z" fill="black"/>
<path d="M28.972 33.8611H27.7036V35.1295H28.972V33.8611Z" fill="black"/>
<path d="M53.6019 33.8611H52.3335V35.1295H53.6019V33.8611Z" fill="black"/>
<path d="M57.2963 33.8611H56.0278V35.1295H57.2963V33.8611Z" fill="black"/>
<path d="M59.7592 33.8611H58.4907V35.1295H59.7592V33.8611Z" fill="black"/>
<path d="M60.9911 33.8611H59.7227V35.1295H60.9911V33.8611Z" fill="black"/>
<path d="M64.6854 33.8611H63.417V35.1295H64.6854V33.8611Z" fill="black"/>
<path d="M14.1942 35.0926H12.9258V36.361H14.1942V35.0926Z" fill="black"/>
<path d="M15.4257 35.0926H14.1572V36.361H15.4257V35.0926Z" fill="black"/>
<path d="M16.6576 35.0926H15.3892V36.361H16.6576V35.0926Z" fill="black"/>
<path d="M17.889 35.0926H16.6206V36.361H17.889V35.0926Z" fill="black"/>
<path d="M19.1205 35.0926H17.8521V36.361H19.1205V35.0926Z" fill="black"/>
<path d="M20.3519 35.0926H19.0835V36.361H20.3519V35.0926Z" fill="black"/>
<path d="M25.2777 35.0926H24.0093V36.361H25.2777V35.0926Z" fill="black"/>
<path d="M26.5092 35.0926H25.2407V36.361H26.5092V35.0926Z" fill="black"/>
<path d="M27.7406 35.0926H26.4722V36.361H27.7406V35.0926Z" fill="black"/>
<path d="M51.139 35.0926H49.8706V36.361H51.139V35.0926Z" fill="black"/>
<path d="M52.3705 35.0926H51.1021V36.361H52.3705V35.0926Z" fill="black"/>
<path d="M56.0648 35.0926H54.7964V36.361H56.0648V35.0926Z" fill="black"/>
<path d="M57.2963 35.0926H56.0278V36.361H57.2963V35.0926Z" fill="black"/>
<path d="M58.5277 35.0926H57.2593V36.361H58.5277V35.0926Z" fill="black"/>
<path d="M59.7592 35.0926H58.4907V36.361H59.7592V35.0926Z" fill="black"/>
<path d="M60.9911 35.0926H59.7227V36.361H60.9911V35.0926Z" fill="black"/>
<path d="M62.2225 35.0926H60.9541V36.361H62.2225V35.0926Z" fill="black"/>
<path d="M63.454 35.0926H62.1855V36.361H63.454V35.0926Z" fill="black"/>
<path d="M64.6854 35.0926H63.417V36.361H64.6854V35.0926Z" fill="black"/>
<path d="M67.1483 35.0926H65.8799V36.361H67.1483V35.0926Z" fill="black"/>
<path d="M68.3798 35.0926H67.1113V36.361H68.3798V35.0926Z" fill="black"/>
<path d="M10.4999 36.3241H9.23145V37.5925H10.4999V36.3241Z" fill="black"/>
<path d="M12.9628 36.3241H11.6943V37.5925H12.9628V36.3241Z" fill="black"/>
<path d="M14.1942 36.3241H12.9258V37.5925H14.1942V36.3241Z" fill="black"/>
<path d="M19.1205 36.3241H17.8521V37.5925H19.1205V36.3241Z" fill="black"/>
<path d="M22.8148 36.3241H21.5464V37.5925H22.8148V36.3241Z" fill="black"/>
<path d="M24.0463 36.3241H22.7778V37.5925H24.0463V36.3241Z" fill="black"/>
<path d="M25.2777 36.3241H24.0093V37.5925H25.2777V36.3241Z" fill="black"/>
<path d="M26.5092 36.3241H25.2407V37.5925H26.5092V36.3241Z" fill="black"/>
<path d="M51.139 36.3241H49.8706V37.5925H51.139V36.3241Z" fill="black"/>
<path d="M54.8334 36.3241H53.5649V37.5925H54.8334V36.3241Z" fill="black"/>
<path d="M56.0648 36.3241H54.7964V37.5925H56.0648V36.3241Z" fill="black"/>
<path d="M57.2963 36.3241H56.0278V37.5925H57.2963V36.3241Z" fill="black"/>
<path d="M58.5277 36.3241H57.2593V37.5925H58.5277V36.3241Z" fill="black"/>
<path d="M63.454 36.3241H62.1855V37.5925H63.454V36.3241Z" fill="black"/>
<path d="M68.3798 36.3241H67.1113V37.5925H68.3798V36.3241Z" fill="black"/>
<path d="M11.7313 37.5556H10.4629V38.824H11.7313V37.5556Z" fill="black"/>
<path d="M14.1942 37.5556H12.9258V38.824H14.1942V37.5556Z" fill="black"/>
<path d="M16.6576 37.5556H15.3892V38.824H16.6576V37.5556Z" fill="black"/>
<path d="M19.1205 37.5556H17.8521V38.824H19.1205V37.5556Z" fill="black"/>
<path d="M27.7406 37.5556H26.4722V38.824H27.7406V37.5556Z" fill="black"/>
<path d="M49.9076 37.5556H48.6392V38.824H49.9076V37.5556Z" fill="black"/>
<path d="M51.139 37.5556H49.8706V38.824H51.139V37.5556Z" fill="black"/>
<path d="M52.3705 37.5556H51.1021V38.824H52.3705V37.5556Z" fill="black"/>
<path d="M53.6019 37.5556H52.3335V38.824H53.6019V37.5556Z" fill="black"/>
<path d="M54.8334 37.5556H53.5649V38.824H54.8334V37.5556Z" fill="black"/>
<path d="M56.0648 37.5556H54.7964V38.824H56.0648V37.5556Z" fill="black"/>
<path d="M57.2963 37.5556H56.0278V38.824H57.2963V37.5556Z" fill="black"/>
<path d="M58.5277 37.5556H57.2593V38.824H58.5277V37.5556Z" fill="black"/>
<path d="M60.9911 37.5556H59.7227V38.824H60.9911V37.5556Z" fill="black"/>
<path d="M63.454 37.5556H62.1855V38.824H63.454V37.5556Z" fill="black"/>
<path d="M65.9169 37.5556H64.6484V38.824H65.9169V37.5556Z" fill="black"/>
<path d="M67.1483 37.5556H65.8799V38.824H67.1483V37.5556Z" fill="black"/>
<path d="M12.9628 38.787H11.6943V40.0555H12.9628V38.787Z" fill="black"/>
<path d="M14.1942 38.787H12.9258V40.0555H14.1942V38.787Z" fill="black"/>
<path d="M19.1205 38.787H17.8521V40.0555H19.1205V38.787Z" fill="black"/>
<path d="M20.3519 38.787H19.0835V40.0555H20.3519V38.787Z" fill="black"/>
<path d="M21.5834 38.787H20.3149V40.0555H21.5834V38.787Z" fill="black"/>
<path d="M24.0463 38.787H22.7778V40.0555H24.0463V38.787Z" fill="black"/>
<path d="M25.2777 38.787H24.0093V40.0555H25.2777V38.787Z" fill="black"/>
<path d="M26.5092 38.787H25.2407V40.0555H26.5092V38.787Z" fill="black"/>
<path d="M28.972 38.787H27.7036V40.0555H28.972V38.787Z" fill="black"/>
<path d="M49.9076 38.787H48.6392V40.0555H49.9076V38.787Z" fill="black"/>
<path d="M52.3705 38.787H51.1021V40.0555H52.3705V38.787Z" fill="black"/>
<path d="M54.8334 38.787H53.5649V40.0555H54.8334V38.787Z" fill="black"/>
<path d="M57.2963 38.787H56.0278V40.0555H57.2963V38.787Z" fill="black"/>
<path d="M58.5277 38.787H57.2593V40.0555H58.5277V38.787Z" fill="black"/>
<path d="M63.454 38.787H62.1855V40.0555H63.454V38.787Z" fill="black"/>
<path d="M64.6854 38.787H63.417V40.0555H64.6854V38.787Z" fill="black"/>
<path d="M67.1483 38.787H65.8799V40.0555H67.1483V38.787Z" fill="black"/>
<path d="M68.3798 38.787H67.1113V40.0555H68.3798V38.787Z" fill="black"/>
<path d="M10.4999 40.0185H9.23145V41.287H10.4999V40.0185Z" fill="black"/>
<path d="M11.7313 40.0185H10.4629V41.287H11.7313V40.0185Z" fill="black"/>
<path d="M14.1942 40.0185H12.9258V41.287H14.1942V40.0185Z" fill="black"/>
<path d="M15.4257 40.0185H14.1572V41.287H15.4257V40.0185Z" fill="black"/>
<path d="M16.6576 40.0185H15.3892V41.287H16.6576V40.0185Z" fill="black"/>
<path d="M17.889 40.0185H16.6206V41.287H17.889V40.0185Z" fill="black"/>
<path d="M19.1205 40.0185H17.8521V41.287H19.1205V40.0185Z" fill="black"/>
<path d="M20.3519 40.0185H19.0835V41.287H20.3519V40.0185Z" fill="black"/>
<path d="M21.5834 40.0185H20.3149V41.287H21.5834V40.0185Z" fill="black"/>
<path d="M22.8148 40.0185H21.5464V41.287H22.8148V40.0185Z" fill="black"/>
<path d="M26.5092 40.0185H25.2407V41.287H26.5092V40.0185Z" fill="black"/>
<path d="M27.7406 40.0185H26.4722V41.287H27.7406V40.0185Z" fill="black"/>
<path d="M49.9076 40.0185H48.6392V41.287H49.9076V40.0185Z" fill="black"/>
<path d="M51.139 40.0185H49.8706V41.287H51.139V40.0185Z" fill="black"/>
<path d="M52.3705 40.0185H51.1021V41.287H52.3705V40.0185Z" fill="black"/>
<path d="M56.0648 40.0185H54.7964V41.287H56.0648V40.0185Z" fill="black"/>
<path d="M57.2963 40.0185H56.0278V41.287H57.2963V40.0185Z" fill="black"/>
<path d="M58.5277 40.0185H57.2593V41.287H58.5277V40.0185Z" fill="black"/>
<path d="M59.7592 40.0185H58.4907V41.287H59.7592V40.0185Z" fill="black"/>
<path d="M60.9911 40.0185H59.7227V41.287H60.9911V40.0185Z" fill="black"/>
<path d="M62.2225 40.0185H60.9541V41.287H62.2225V40.0185Z" fill="black"/>
<path d="M63.454 40.0185H62.1855V41.287H63.454V40.0185Z" fill="black"/>
<path d="M64.6854 40.0185H63.417V41.287H64.6854V40.0185Z" fill="black"/>
<path d="M68.3798 40.0185H67.1113V41.287H68.3798V40.0185Z" fill="black"/>
<path d="M9.26843 41.25H8V42.5185H9.26843V41.25Z" fill="black"/>
<path d="M10.4999 41.25H9.23145V42.5185H10.4999V41.25Z" fill="black"/>
<path d="M11.7313 41.25H10.4629V42.5185H11.7313V41.25Z" fill="black"/>
<path d="M12.9628 41.25H11.6943V42.5185H12.9628V41.25Z" fill="black"/>
<path d="M14.1942 41.25H12.9258V42.5185H14.1942V41.25Z" fill="black"/>
<path d="M17.889 41.25H16.6206V42.5185H17.889V41.25Z" fill="black"/>
<path d="M19.1205 41.25H17.8521V42.5185H19.1205V41.25Z" fill="black"/>
<path d="M22.8148 41.25H21.5464V42.5185H22.8148V41.25Z" fill="black"/>
<path d="M24.0463 41.25H22.7778V42.5185H24.0463V41.25Z" fill="black"/>
<path d="M25.2777 41.25H24.0093V42.5185H25.2777V41.25Z" fill="black"/>
<path d="M28.972 41.25H27.7036V42.5185H28.972V41.25Z" fill="black"/>
<path d="M51.139 41.25H49.8706V42.5185H51.139V41.25Z" fill="black"/>
<path d="M52.3705 41.25H51.1021V42.5185H52.3705V41.25Z" fill="black"/>
<path d="M59.7592 41.25H58.4907V42.5185H59.7592V41.25Z" fill="black"/>
<path d="M62.2225 41.25H60.9541V42.5185H62.2225V41.25Z" fill="black"/>
<path d="M64.6854 41.25H63.417V42.5185H64.6854V41.25Z" fill="black"/>
<path d="M67.1483 41.25H65.8799V42.5185H67.1483V41.25Z" fill="black"/>
<path d="M68.3798 41.25H67.1113V42.5185H68.3798V41.25Z" fill="black"/>
<path d="M10.4999 42.4815H9.23145V43.7499H10.4999V42.4815Z" fill="black"/>
<path d="M12.9628 42.4815H11.6943V43.7499H12.9628V42.4815Z" fill="black"/>
<path d="M14.1942 42.4815H12.9258V43.7499H14.1942V42.4815Z" fill="black"/>
<path d="M15.4257 42.4815H14.1572V43.7499H15.4257V42.4815Z" fill="black"/>
<path d="M16.6576 42.4815H15.3892V43.7499H16.6576V42.4815Z" fill="black"/>
<path d="M17.889 42.4815H16.6206V43.7499H17.889V42.4815Z" fill="black"/>
<path d="M19.1205 42.4815H17.8521V43.7499H19.1205V42.4815Z" fill="black"/>
<path d="M20.3519 42.4815H19.0835V43.7499H20.3519V42.4815Z" fill="black"/>
<path d="M26.5092 42.4815H25.2407V43.7499H26.5092V42.4815Z" fill="black"/>
<path d="M27.7406 42.4815H26.4722V43.7499H27.7406V42.4815Z" fill="black"/>
<path d="M48.6761 42.4815H47.4077V43.7499H48.6761V42.4815Z" fill="black"/>
<path d="M52.3705 42.4815H51.1021V43.7499H52.3705V42.4815Z" fill="black"/>
<path d="M53.6019 42.4815H52.3335V43.7499H53.6019V42.4815Z" fill="black"/>
<path d="M54.8334 42.4815H53.5649V43.7499H54.8334V42.4815Z" fill="black"/>
<path d="M57.2963 42.4815H56.0278V43.7499H57.2963V42.4815Z" fill="black"/>
<path d="M58.5277 42.4815H57.2593V43.7499H58.5277V42.4815Z" fill="black"/>
<path d="M59.7592 42.4815H58.4907V43.7499H59.7592V42.4815Z" fill="black"/>
<path d="M60.9911 42.4815H59.7227V43.7499H60.9911V42.4815Z" fill="black"/>
<path d="M64.6854 42.4815H63.417V43.7499H64.6854V42.4815Z" fill="black"/>
<path d="M65.9169 42.4815H64.6484V43.7499H65.9169V42.4815Z" fill="black"/>
<path d="M68.3798 42.4815H67.1113V43.7499H68.3798V42.4815Z" fill="black"/>
<path d="M11.7313 43.713H10.4629V44.9814H11.7313V43.713Z" fill="black"/>
<path d="M12.9628 43.713H11.6943V44.9814H12.9628V43.713Z" fill="black"/>
<path d="M15.4257 43.713H14.1572V44.9814H15.4257V43.713Z" fill="black"/>
<path d="M19.1205 43.713H17.8521V44.9814H19.1205V43.713Z" fill="black"/>
<path d="M20.3519 43.713H19.0835V44.9814H20.3519V43.713Z" fill="black"/>
<path d="M24.0463 43.713H22.7778V44.9814H24.0463V43.713Z" fill="black"/>
<path d="M27.7406 43.713H26.4722V44.9814H27.7406V43.713Z" fill="black"/>
<path d="M48.6761 43.713H47.4077V44.9814H48.6761V43.713Z" fill="black"/>
<path d="M52.3705 43.713H51.1021V44.9814H52.3705V43.713Z" fill="black"/>
<path d="M53.6019 43.713H52.3335V44.9814H53.6019V43.713Z" fill="black"/>
<path d="M54.8334 43.713H53.5649V44.9814H54.8334V43.713Z" fill="black"/>
<path d="M58.5277 43.713H57.2593V44.9814H58.5277V43.713Z" fill="black"/>
<path d="M59.7592 43.713H58.4907V44.9814H59.7592V43.713Z" fill="black"/>
<path d="M60.9911 43.713H59.7227V44.9814H60.9911V43.713Z" fill="black"/>
<path d="M62.2225 43.713H60.9541V44.9814H62.2225V43.713Z" fill="black"/>
<path d="M63.454 43.713H62.1855V44.9814H63.454V43.713Z" fill="black"/>
<path d="M64.6854 43.713H63.417V44.9814H64.6854V43.713Z" fill="black"/>
<path d="M11.7313 44.9445H10.4629V46.2129H11.7313V44.9445Z" fill="black"/>
<path d="M15.4257 44.9445H14.1572V46.2129H15.4257V44.9445Z" fill="black"/>
<path d="M16.6576 44.9445H15.3892V46.2129H16.6576V44.9445Z" fill="black"/>
<path d="M17.889 44.9445H16.6206V46.2129H17.889V44.9445Z" fill="black"/>
<path d="M22.8148 44.9445H21.5464V46.2129H22.8148V44.9445Z" fill="black"/>
<path d="M48.6761 44.9445H47.4077V46.2129H48.6761V44.9445Z" fill="black"/>
<path d="M49.9076 44.9445H48.6392V46.2129H49.9076V44.9445Z" fill="black"/>
<path d="M51.139 44.9445H49.8706V46.2129H51.139V44.9445Z" fill="black"/>
<path d="M53.6019 44.9445H52.3335V46.2129H53.6019V44.9445Z" fill="black"/>
<path d="M56.0648 44.9445H54.7964V46.2129H56.0648V44.9445Z" fill="black"/>
<path d="M57.2963 44.9445H56.0278V46.2129H57.2963V44.9445Z" fill="black"/>
<path d="M60.9911 44.9445H59.7227V46.2129H60.9911V44.9445Z" fill="black"/>
<path d="M63.454 44.9445H62.1855V46.2129H63.454V44.9445Z" fill="black"/>
<path d="M64.6854 44.9445H63.417V46.2129H64.6854V44.9445Z" fill="black"/>
<path d="M65.9169 44.9445H64.6484V46.2129H65.9169V44.9445Z" fill="black"/>
<path d="M67.1483 44.9445H65.8799V46.2129H67.1483V44.9445Z" fill="black"/>
<path d="M68.3798 44.9445H67.1113V46.2129H68.3798V44.9445Z" fill="black"/>
<path d="M9.26843 46.176H8V47.4444H9.26843V46.176Z" fill="black"/>
<path d="M10.4999 46.176H9.23145V47.4444H10.4999V46.176Z" fill="black"/>
<path d="M12.9628 46.176H11.6943V47.4444H12.9628V46.176Z" fill="black"/>
<path d="M15.4257 46.176H14.1572V47.4444H15.4257V46.176Z" fill="black"/>
<path d="M19.1205 46.176H17.8521V47.4444H19.1205V46.176Z" fill="black"/>
<path d="M20.3519 46.176H19.0835V47.4444H20.3519V46.176Z" fill="black"/>
<path d="M21.5834 46.176H20.3149V47.4444H21.5834V46.176Z" fill="black"/>
<path d="M27.7406 46.176H26.4722V47.4444H27.7406V46.176Z" fill="black"/>
<path d="M28.972 46.176H27.7036V47.4444H28.972V46.176Z" fill="black"/>
<path d="M49.9076 46.176H48.6392V47.4444H49.9076V46.176Z" fill="black"/>
<path d="M53.6019 46.176H52.3335V47.4444H53.6019V46.176Z" fill="black"/>
<path d="M58.5277 46.176H57.2593V47.4444H58.5277V46.176Z" fill="black"/>
<path d="M62.2225 46.176H60.9541V47.4444H62.2225V46.176Z" fill="black"/>
<path d="M63.454 46.176H62.1855V47.4444H63.454V46.176Z" fill="black"/>
<path d="M67.1483 46.176H65.8799V47.4444H67.1483V46.176Z" fill="black"/>
<path d="M68.3798 46.176H67.1113V47.4444H68.3798V46.176Z" fill="black"/>
<path d="M11.7313 47.4075H10.4629V48.6759H11.7313V47.4075Z" fill="black"/>
<path d="M12.9628 47.4075H11.6943V48.6759H12.9628V47.4075Z" fill="black"/>
<path d="M14.1942 47.4075H12.9258V48.6759H14.1942V47.4075Z" fill="black"/>
<path d="M15.4257 47.4075H14.1572V48.6759H15.4257V47.4075Z" fill="black"/>
<path d="M16.6576 47.4075H15.3892V48.6759H16.6576V47.4075Z" fill="black"/>
<path d="M20.3519 47.4075H19.0835V48.6759H20.3519V47.4075Z" fill="black"/>
<path d="M21.5834 47.4075H20.3149V48.6759H21.5834V47.4075Z" fill="black"/>
<path d="M22.8148 47.4075H21.5464V48.6759H22.8148V47.4075Z" fill="black"/>
<path d="M25.2777 47.4075H24.0093V48.6759H25.2777V47.4075Z" fill="black"/>
<path d="M27.7406 47.4075H26.4722V48.6759H27.7406V47.4075Z" fill="black"/>
<path d="M28.972 47.4075H27.7036V48.6759H28.972V47.4075Z" fill="black"/>
<path d="M30.2035 47.4075H28.9351V48.6759H30.2035V47.4075Z" fill="black"/>
<path d="M31.4354 47.4075H30.167V48.6759H31.4354V47.4075Z" fill="black"/>
<path d="M32.6669 47.4075H31.3984V48.6759H32.6669V47.4075Z" fill="black"/>
<path d="M35.1298 47.4075H33.8613V48.6759H35.1298V47.4075Z" fill="black"/>
<path d="M36.3612 47.4075H35.0928V48.6759H36.3612V47.4075Z" fill="black"/>
<path d="M37.5927 47.4075H36.3242V48.6759H37.5927V47.4075Z" fill="black"/>
<path d="M44.9813 47.4075H43.7129V48.6759H44.9813V47.4075Z" fill="black"/>
<path d="M47.4447 47.4075H46.1763V48.6759H47.4447V47.4075Z" fill="black"/>
<path d="M48.6761 47.4075H47.4077V48.6759H48.6761V47.4075Z" fill="black"/>
<path d="M52.3705 47.4075H51.1021V48.6759H52.3705V47.4075Z" fill="black"/>
<path d="M54.8334 47.4075H53.5649V48.6759H54.8334V47.4075Z" fill="black"/>
<path d="M56.0648 47.4075H54.7964V48.6759H56.0648V47.4075Z" fill="black"/>
<path d="M57.2963 47.4075H56.0278V48.6759H57.2963V47.4075Z" fill="black"/>
<path d="M58.5277 47.4075H57.2593V48.6759H58.5277V47.4075Z" fill="black"/>
<path d="M60.9911 47.4075H59.7227V48.6759H60.9911V47.4075Z" fill="black"/>
<path d="M63.454 47.4075H62.1855V48.6759H63.454V47.4075Z" fill="black"/>
<path d="M64.6854 47.4075H63.417V48.6759H64.6854V47.4075Z" fill="black"/>
<path d="M65.9169 47.4075H64.6484V48.6759H65.9169V47.4075Z" fill="black"/>
<path d="M11.7313 48.6389H10.4629V49.9074H11.7313V48.6389Z" fill="black"/>
<path d="M14.1942 48.6389H12.9258V49.9074H14.1942V48.6389Z" fill="black"/>
<path d="M15.4257 48.6389H14.1572V49.9074H15.4257V48.6389Z" fill="black"/>
<path d="M24.0463 48.6389H22.7778V49.9074H24.0463V48.6389Z" fill="black"/>
<path d="M27.7406 48.6389H26.4722V49.9074H27.7406V48.6389Z" fill="black"/>
<path d="M31.4354 48.6389H30.167V49.9074H31.4354V48.6389Z" fill="black"/>
<path d="M32.6669 48.6389H31.3984V49.9074H32.6669V48.6389Z" fill="black"/>
<path d="M33.8983 48.6389H32.6299V49.9074H33.8983V48.6389Z" fill="black"/>
<path d="M35.1298 48.6389H33.8613V49.9074H35.1298V48.6389Z" fill="black"/>
<path d="M38.8241 48.6389H37.5557V49.9074H38.8241V48.6389Z" fill="black"/>
<path d="M41.287 48.6389H40.0186V49.9074H41.287V48.6389Z" fill="black"/>
<path d="M43.7499 48.6389H42.4814V49.9074H43.7499V48.6389Z" fill="black"/>
<path d="M46.2133 48.6389H44.9448V49.9074H46.2133V48.6389Z" fill="black"/>
<path d="M48.6761 48.6389H47.4077V49.9074H48.6761V48.6389Z" fill="black"/>
<path d="M54.8334 48.6389H53.5649V49.9074H54.8334V48.6389Z" fill="black"/>
<path d="M57.2963 48.6389H56.0278V49.9074H57.2963V48.6389Z" fill="black"/>
<path d="M59.7592 48.6389H58.4907V49.9074H59.7592V48.6389Z" fill="black"/>
<path d="M62.2225 48.6389H60.9541V49.9074H62.2225V48.6389Z" fill="black"/>
<path d="M65.9169 48.6389H64.6484V49.9074H65.9169V48.6389Z" fill="black"/>
<path d="M11.7313 49.8704H10.4629V51.1389H11.7313V49.8704Z" fill="black"/>
<path d="M12.9628 49.8704H11.6943V51.1389H12.9628V49.8704Z" fill="black"/>
<path d="M14.1942 49.8704H12.9258V51.1389H14.1942V49.8704Z" fill="black"/>
<path d="M16.6576 49.8704H15.3892V51.1389H16.6576V49.8704Z" fill="black"/>
<path d="M22.8148 49.8704H21.5464V51.1389H22.8148V49.8704Z" fill="black"/>
<path d="M26.5092 49.8704H25.2407V51.1389H26.5092V49.8704Z" fill="black"/>
<path d="M30.2035 49.8704H28.9351V51.1389H30.2035V49.8704Z" fill="black"/>
<path d="M38.8241 49.8704H37.5557V51.1389H38.8241V49.8704Z" fill="black"/>
<path d="M41.287 49.8704H40.0186V51.1389H41.287V49.8704Z" fill="black"/>
<path d="M42.5184 49.8704H41.25V51.1389H42.5184V49.8704Z" fill="black"/>
<path d="M43.7499 49.8704H42.4814V51.1389H43.7499V49.8704Z" fill="black"/>
<path d="M44.9813 49.8704H43.7129V51.1389H44.9813V49.8704Z" fill="black"/>
<path d="M47.4447 49.8704H46.1763V51.1389H47.4447V49.8704Z" fill="black"/>
<path d="M48.6761 49.8704H47.4077V51.1389H48.6761V49.8704Z" fill="black"/>
<path d="M49.9076 49.8704H48.6392V51.1389H49.9076V49.8704Z" fill="black"/>
<path d="M51.139 49.8704H49.8706V51.1389H51.139V49.8704Z" fill="black"/>
<path d="M52.3705 49.8704H51.1021V51.1389H52.3705V49.8704Z" fill="black"/>
<path d="M56.0648 49.8704H54.7964V51.1389H56.0648V49.8704Z" fill="black"/>
<path d="M57.2963 49.8704H56.0278V51.1389H57.2963V49.8704Z" fill="black"/>
<path d="M59.7592 49.8704H58.4907V51.1389H59.7592V49.8704Z" fill="black"/>
<path d="M60.9911 49.8704H59.7227V51.1389H60.9911V49.8704Z" fill="black"/>
<path d="M62.2225 49.8704H60.9541V51.1389H62.2225V49.8704Z" fill="black"/>
<path d="M63.454 49.8704H62.1855V51.1389H63.454V49.8704Z" fill="black"/>
<path d="M64.6854 49.8704H63.417V51.1389H64.6854V49.8704Z" fill="black"/>
<path d="M65.9169 49.8704H64.6484V51.1389H65.9169V49.8704Z" fill="black"/>
<path d="M67.1483 49.8704H65.8799V51.1389H67.1483V49.8704Z" fill="black"/>
<path d="M68.3798 49.8704H67.1113V51.1389H68.3798V49.8704Z" fill="black"/>
<path d="M9.26843 51.1019H8V52.3704H9.26843V51.1019Z" fill="black"/>
<path d="M10.4999 51.1019H9.23145V52.3704H10.4999V51.1019Z" fill="black"/>
<path d="M14.1942 51.1019H12.9258V52.3704H14.1942V51.1019Z" fill="black"/>
<path d="M17.889 51.1019H16.6206V52.3704H17.889V51.1019Z" fill="black"/>
<path d="M20.3519 51.1019H19.0835V52.3704H20.3519V51.1019Z" fill="black"/>
<path d="M25.2777 51.1019H24.0093V52.3704H25.2777V51.1019Z" fill="black"/>
<path d="M26.5092 51.1019H25.2407V52.3704H26.5092V51.1019Z" fill="black"/>
<path d="M27.7406 51.1019H26.4722V52.3704H27.7406V51.1019Z" fill="black"/>
<path d="M30.2035 51.1019H28.9351V52.3704H30.2035V51.1019Z" fill="black"/>
<path d="M31.4354 51.1019H30.167V52.3704H31.4354V51.1019Z" fill="black"/>
<path d="M32.6669 51.1019H31.3984V52.3704H32.6669V51.1019Z" fill="black"/>
<path d="M33.8983 51.1019H32.6299V52.3704H33.8983V51.1019Z" fill="black"/>
<path d="M37.5927 51.1019H36.3242V52.3704H37.5927V51.1019Z" fill="black"/>
<path d="M40.0555 51.1019H38.7871V52.3704H40.0555V51.1019Z" fill="black"/>
<path d="M44.9813 51.1019H43.7129V52.3704H44.9813V51.1019Z" fill="black"/>
<path d="M47.4447 51.1019H46.1763V52.3704H47.4447V51.1019Z" fill="black"/>
<path d="M51.139 51.1019H49.8706V52.3704H51.139V51.1019Z" fill="black"/>
<path d="M53.6019 51.1019H52.3335V52.3704H53.6019V51.1019Z" fill="black"/>
<path d="M54.8334 51.1019H53.5649V52.3704H54.8334V51.1019Z" fill="black"/>
<path d="M58.5277 51.1019H57.2593V52.3704H58.5277V51.1019Z" fill="black"/>
<path d="M62.2225 51.1019H60.9541V52.3704H62.2225V51.1019Z" fill="black"/>
<path d="M63.454 51.1019H62.1855V52.3704H63.454V51.1019Z" fill="black"/>
<path d="M64.6854 51.1019H63.417V52.3704H64.6854V51.1019Z" fill="black"/>
<path d="M67.1483 51.1019H65.8799V52.3704H67.1483V51.1019Z" fill="black"/>
<path d="M68.3798 51.1019H67.1113V52.3704H68.3798V51.1019Z" fill="black"/>
<path d="M10.4999 52.3334H9.23145V53.6018H10.4999V52.3334Z" fill="black"/>
<path d="M11.7313 52.3334H10.4629V53.6018H11.7313V52.3334Z" fill="black"/>
<path d="M15.4257 52.3334H14.1572V53.6018H15.4257V52.3334Z" fill="black"/>
<path d="M16.6576 52.3334H15.3892V53.6018H16.6576V52.3334Z" fill="black"/>
<path d="M19.1205 52.3334H17.8521V53.6018H19.1205V52.3334Z" fill="black"/>
<path d="M21.5834 52.3334H20.3149V53.6018H21.5834V52.3334Z" fill="black"/>
<path d="M22.8148 52.3334H21.5464V53.6018H22.8148V52.3334Z" fill="black"/>
<path d="M26.5092 52.3334H25.2407V53.6018H26.5092V52.3334Z" fill="black"/>
<path d="M30.2035 52.3334H28.9351V53.6018H30.2035V52.3334Z" fill="black"/>
<path d="M31.4354 52.3334H30.167V53.6018H31.4354V52.3334Z" fill="black"/>
<path d="M37.5927 52.3334H36.3242V53.6018H37.5927V52.3334Z" fill="black"/>
<path d="M38.8241 52.3334H37.5557V53.6018H38.8241V52.3334Z" fill="black"/>
<path d="M40.0555 52.3334H38.7871V53.6018H40.0555V52.3334Z" fill="black"/>
<path d="M42.5184 52.3334H41.25V53.6018H42.5184V52.3334Z" fill="black"/>
<path d="M43.7499 52.3334H42.4814V53.6018H43.7499V52.3334Z" fill="black"/>
<path d="M44.9813 52.3334H43.7129V53.6018H44.9813V52.3334Z" fill="black"/>
<path d="M49.9076 52.3334H48.6392V53.6018H49.9076V52.3334Z" fill="black"/>
<path d="M51.139 52.3334H49.8706V53.6018H51.139V52.3334Z" fill="black"/>
<path d="M57.2963 52.3334H56.0278V53.6018H57.2963V52.3334Z" fill="black"/>
<path d="M59.7592 52.3334H58.4907V53.6018H59.7592V52.3334Z" fill="black"/>
<path d="M63.454 52.3334H62.1855V53.6018H63.454V52.3334Z" fill="black"/>
<path d="M64.6854 52.3334H63.417V53.6018H64.6854V52.3334Z" fill="black"/>
<path d="M65.9169 52.3334H64.6484V53.6018H65.9169V52.3334Z" fill="black"/>
<path d="M67.1483 52.3334H65.8799V53.6018H67.1483V52.3334Z" fill="black"/>
<path d="M68.3798 52.3334H67.1113V53.6018H68.3798V52.3334Z" fill="black"/>
<path d="M9.26843 53.5649H8V54.8333H9.26843V53.5649Z" fill="black"/>
<path d="M10.4999 53.5649H9.23145V54.8333H10.4999V53.5649Z" fill="black"/>
<path d="M12.9628 53.5649H11.6943V54.8333H12.9628V53.5649Z" fill="black"/>
<path d="M14.1942 53.5649H12.9258V54.8333H14.1942V53.5649Z" fill="black"/>
<path d="M15.4257 53.5649H14.1572V54.8333H15.4257V53.5649Z" fill="black"/>
<path d="M19.1205 53.5649H17.8521V54.8333H19.1205V53.5649Z" fill="black"/>
<path d="M20.3519 53.5649H19.0835V54.8333H20.3519V53.5649Z" fill="black"/>
<path d="M26.5092 53.5649H25.2407V54.8333H26.5092V53.5649Z" fill="black"/>
<path d="M27.7406 53.5649H26.4722V54.8333H27.7406V53.5649Z" fill="black"/>
<path d="M28.972 53.5649H27.7036V54.8333H28.972V53.5649Z" fill="black"/>
<path d="M30.2035 53.5649H28.9351V54.8333H30.2035V53.5649Z" fill="black"/>
<path d="M31.4354 53.5649H30.167V54.8333H31.4354V53.5649Z" fill="black"/>
<path d="M35.1298 53.5649H33.8613V54.8333H35.1298V53.5649Z" fill="black"/>
<path d="M36.3612 53.5649H35.0928V54.8333H36.3612V53.5649Z" fill="black"/>
<path d="M40.0555 53.5649H38.7871V54.8333H40.0555V53.5649Z" fill="black"/>
<path d="M41.287 53.5649H40.0186V54.8333H41.287V53.5649Z" fill="black"/>
<path d="M42.5184 53.5649H41.25V54.8333H42.5184V53.5649Z" fill="black"/>
<path d="M44.9813 53.5649H43.7129V54.8333H44.9813V53.5649Z" fill="black"/>
<path d="M47.4447 53.5649H46.1763V54.8333H47.4447V53.5649Z" fill="black"/>
<path d="M51.139 53.5649H49.8706V54.8333H51.139V53.5649Z" fill="black"/>
<path d="M53.6019 53.5649H52.3335V54.8333H53.6019V53.5649Z" fill="black"/>
<path d="M56.0648 53.5649H54.7964V54.8333H56.0648V53.5649Z" fill="black"/>
<path d="M58.5277 53.5649H57.2593V54.8333H58.5277V53.5649Z" fill="black"/>
<path d="M62.2225 53.5649H60.9541V54.8333H62.2225V53.5649Z" fill="black"/>
<path d="M64.6854 53.5649H63.417V54.8333H64.6854V53.5649Z" fill="black"/>
<path d="M67.1483 53.5649H65.8799V54.8333H67.1483V53.5649Z" fill="black"/>
<path d="M10.4999 54.7964H9.23145V56.0648H10.4999V54.7964Z" fill="black"/>
<path d="M15.4257 54.7964H14.1572V56.0648H15.4257V54.7964Z" fill="black"/>
<path d="M16.6576 54.7964H15.3892V56.0648H16.6576V54.7964Z" fill="black"/>
<path d="M17.889 54.7964H16.6206V56.0648H17.889V54.7964Z" fill="black"/>
<path d="M19.1205 54.7964H17.8521V56.0648H19.1205V54.7964Z" fill="black"/>
<path d="M22.8148 54.7964H21.5464V56.0648H22.8148V54.7964Z" fill="black"/>
<path d="M24.0463 54.7964H22.7778V56.0648H24.0463V54.7964Z" fill="black"/>
<path d="M27.7406 54.7964H26.4722V56.0648H27.7406V54.7964Z" fill="black"/>
<path d="M28.972 54.7964H27.7036V56.0648H28.972V54.7964Z" fill="black"/>
<path d="M31.4354 54.7964H30.167V56.0648H31.4354V54.7964Z" fill="black"/>
<path d="M33.8983 54.7964H32.6299V56.0648H33.8983V54.7964Z" fill="black"/>
<path d="M35.1298 54.7964H33.8613V56.0648H35.1298V54.7964Z" fill="black"/>
<path d="M37.5927 54.7964H36.3242V56.0648H37.5927V54.7964Z" fill="black"/>
<path d="M40.0555 54.7964H38.7871V56.0648H40.0555V54.7964Z" fill="black"/>
<path d="M43.7499 54.7964H42.4814V56.0648H43.7499V54.7964Z" fill="black"/>
<path d="M46.2133 54.7964H44.9448V56.0648H46.2133V54.7964Z" fill="black"/>
<path d="M49.9076 54.7964H48.6392V56.0648H49.9076V54.7964Z" fill="black"/>
<path d="M52.3705 54.7964H51.1021V56.0648H52.3705V54.7964Z" fill="black"/>
<path d="M54.8334 54.7964H53.5649V56.0648H54.8334V54.7964Z" fill="black"/>
<path d="M56.0648 54.7964H54.7964V56.0648H56.0648V54.7964Z" fill="black"/>
<path d="M58.5277 54.7964H57.2593V56.0648H58.5277V54.7964Z" fill="black"/>
<path d="M59.7592 54.7964H58.4907V56.0648H59.7592V54.7964Z" fill="black"/>
<path d="M60.9911 54.7964H59.7227V56.0648H60.9911V54.7964Z" fill="black"/>
<path d="M63.454 54.7964H62.1855V56.0648H63.454V54.7964Z" fill="black"/>
<path d="M67.1483 54.7964H65.8799V56.0648H67.1483V54.7964Z" fill="black"/>
<path d="M68.3798 54.7964H67.1113V56.0648H68.3798V54.7964Z" fill="black"/>
<path d="M10.4999 56.0279H9.23145V57.2963H10.4999V56.0279Z" fill="black"/>
<path d="M11.7313 56.0279H10.4629V57.2963H11.7313V56.0279Z" fill="black"/>
<path d="M12.9628 56.0279H11.6943V57.2963H12.9628V56.0279Z" fill="black"/>
<path d="M19.1205 56.0279H17.8521V57.2963H19.1205V56.0279Z" fill="black"/>
<path d="M22.8148 56.0279H21.5464V57.2963H22.8148V56.0279Z" fill="black"/>
<path d="M24.0463 56.0279H22.7778V57.2963H24.0463V56.0279Z" fill="black"/>
<path d="M27.7406 56.0279H26.4722V57.2963H27.7406V56.0279Z" fill="black"/>
<path d="M28.972 56.0279H27.7036V57.2963H28.972V56.0279Z" fill="black"/>
<path d="M32.6669 56.0279H31.3984V57.2963H32.6669V56.0279Z" fill="black"/>
<path d="M33.8983 56.0279H32.6299V57.2963H33.8983V56.0279Z" fill="black"/>
<path d="M35.1298 56.0279H33.8613V57.2963H35.1298V56.0279Z" fill="black"/>
<path d="M38.8241 56.0279H37.5557V57.2963H38.8241V56.0279Z" fill="black"/>
<path d="M40.0555 56.0279H38.7871V57.2963H40.0555V56.0279Z" fill="black"/>
<path d="M42.5184 56.0279H41.25V57.2963H42.5184V56.0279Z" fill="black"/>
<path d="M43.7499 56.0279H42.4814V57.2963H43.7499V56.0279Z" fill="black"/>
<path d="M44.9813 56.0279H43.7129V57.2963H44.9813V56.0279Z" fill="black"/>
<path d="M46.2133 56.0279H44.9448V57.2963H46.2133V56.0279Z" fill="black"/>
<path d="M48.6761 56.0279H47.4077V57.2963H48.6761V56.0279Z" fill="black"/>
<path d="M49.9076 56.0279H48.6392V57.2963H49.9076V56.0279Z" fill="black"/>
<path d="M62.2225 56.0279H60.9541V57.2963H62.2225V56.0279Z" fill="black"/>
<path d="M63.454 56.0279H62.1855V57.2963H63.454V56.0279Z" fill="black"/>
<path d="M64.6854 56.0279H63.417V57.2963H64.6854V56.0279Z" fill="black"/>
<path d="M67.1483 56.0279H65.8799V57.2963H67.1483V56.0279Z" fill="black"/>
<path d="M68.3798 56.0279H67.1113V57.2963H68.3798V56.0279Z" fill="black"/>
<path d="M9.26843 57.2593H8V58.5278H9.26843V57.2593Z" fill="black"/>
<path d="M10.4999 57.2593H9.23145V58.5278H10.4999V57.2593Z" fill="black"/>
<path d="M11.7313 57.2593H10.4629V58.5278H11.7313V57.2593Z" fill="black"/>
<path d="M16.6576 57.2593H15.3892V58.5278H16.6576V57.2593Z" fill="black"/>
<path d="M25.2777 57.2593H24.0093V58.5278H25.2777V57.2593Z" fill="black"/>
<path d="M26.5092 57.2593H25.2407V58.5278H26.5092V57.2593Z" fill="black"/>
<path d="M28.972 57.2593H27.7036V58.5278H28.972V57.2593Z" fill="black"/>
<path d="M33.8983 57.2593H32.6299V58.5278H33.8983V57.2593Z" fill="black"/>
<path d="M36.3612 57.2593H35.0928V58.5278H36.3612V57.2593Z" fill="black"/>
<path d="M37.5927 57.2593H36.3242V58.5278H37.5927V57.2593Z" fill="black"/>
<path d="M38.8241 57.2593H37.5557V58.5278H38.8241V57.2593Z" fill="black"/>
<path d="M40.0555 57.2593H38.7871V58.5278H40.0555V57.2593Z" fill="black"/>
<path d="M41.287 57.2593H40.0186V58.5278H41.287V57.2593Z" fill="black"/>
<path d="M43.7499 57.2593H42.4814V58.5278H43.7499V57.2593Z" fill="black"/>
<path d="M44.9813 57.2593H43.7129V58.5278H44.9813V57.2593Z" fill="black"/>
<path d="M46.2133 57.2593H44.9448V58.5278H46.2133V57.2593Z" fill="black"/>
<path d="M47.4447 57.2593H46.1763V58.5278H47.4447V57.2593Z" fill="black"/>
<path d="M52.3705 57.2593H51.1021V58.5278H52.3705V57.2593Z" fill="black"/>
<path d="M53.6019 57.2593H52.3335V58.5278H53.6019V57.2593Z" fill="black"/>
<path d="M54.8334 57.2593H53.5649V58.5278H54.8334V57.2593Z" fill="black"/>
<path d="M57.2963 57.2593H56.0278V58.5278H57.2963V57.2593Z" fill="black"/>
<path d="M58.5277 57.2593H57.2593V58.5278H58.5277V57.2593Z" fill="black"/>
<path d="M59.7592 57.2593H58.4907V58.5278H59.7592V57.2593Z" fill="black"/>
<path d="M60.9911 57.2593H59.7227V58.5278H60.9911V57.2593Z" fill="black"/>
<path d="M62.2225 57.2593H60.9541V58.5278H62.2225V57.2593Z" fill="black"/>
<path d="M63.454 57.2593H62.1855V58.5278H63.454V57.2593Z" fill="black"/>
<path d="M68.3798 57.2593H67.1113V58.5278H68.3798V57.2593Z" fill="black"/>
<path d="M19.1205 58.4908H17.8521V59.7593H19.1205V58.4908Z" fill="black"/>
<path d="M22.8148 58.4908H21.5464V59.7593H22.8148V58.4908Z" fill="black"/>
<path d="M25.2777 58.4908H24.0093V59.7593H25.2777V58.4908Z" fill="black"/>
<path d="M27.7406 58.4908H26.4722V59.7593H27.7406V58.4908Z" fill="black"/>
<path d="M30.2035 58.4908H28.9351V59.7593H30.2035V58.4908Z" fill="black"/>
<path d="M31.4354 58.4908H30.167V59.7593H31.4354V58.4908Z" fill="black"/>
<path d="M33.8983 58.4908H32.6299V59.7593H33.8983V58.4908Z" fill="black"/>
<path d="M36.3612 58.4908H35.0928V59.7593H36.3612V58.4908Z" fill="black"/>
<path d="M41.287 58.4908H40.0186V59.7593H41.287V58.4908Z" fill="black"/>
<path d="M48.6761 58.4908H47.4077V59.7593H48.6761V58.4908Z" fill="black"/>
<path d="M49.9076 58.4908H48.6392V59.7593H49.9076V58.4908Z" fill="black"/>
<path d="M52.3705 58.4908H51.1021V59.7593H52.3705V58.4908Z" fill="black"/>
<path d="M58.5277 58.4908H57.2593V59.7593H58.5277V58.4908Z" fill="black"/>
<path d="M63.454 58.4908H62.1855V59.7593H63.454V58.4908Z" fill="black"/>
<path d="M21.5834 59.7223H20.3149V60.9908H21.5834V59.7223Z" fill="black"/>
<path d="M22.8148 59.7223H21.5464V60.9908H22.8148V59.7223Z" fill="black"/>
<path d="M24.0463 59.7223H22.7778V60.9908H24.0463V59.7223Z" fill="black"/>
<path d="M25.2777 59.7223H24.0093V60.9908H25.2777V59.7223Z" fill="black"/>
<path d="M30.2035 59.7223H28.9351V60.9908H30.2035V59.7223Z" fill="black"/>
<path d="M31.4354 59.7223H30.167V60.9908H31.4354V59.7223Z" fill="black"/>
<path d="M33.8983 59.7223H32.6299V60.9908H33.8983V59.7223Z" fill="black"/>
<path d="M36.3612 59.7223H35.0928V60.9908H36.3612V59.7223Z" fill="black"/>
<path d="M38.8241 59.7223H37.5557V60.9908H38.8241V59.7223Z" fill="black"/>
<path d="M41.287 59.7223H40.0186V60.9908H41.287V59.7223Z" fill="black"/>
<path d="M46.2133 59.7223H44.9448V60.9908H46.2133V59.7223Z" fill="black"/>
<path d="M47.4447 59.7223H46.1763V60.9908H47.4447V59.7223Z" fill="black"/>
<path d="M48.6761 59.7223H47.4077V60.9908H48.6761V59.7223Z" fill="black"/>
<path d="M52.3705 59.7223H51.1021V60.9908H52.3705V59.7223Z" fill="black"/>
<path d="M54.8334 59.7223H53.5649V60.9908H54.8334V59.7223Z" fill="black"/>
<path d="M58.5277 59.7223H57.2593V60.9908H58.5277V59.7223Z" fill="black"/>
<path d="M60.9911 59.7223H59.7227V60.9908H60.9911V59.7223Z" fill="black"/>
<path d="M63.454 59.7223H62.1855V60.9908H63.454V59.7223Z" fill="black"/>
<path d="M64.6854 59.7223H63.417V60.9908H64.6854V59.7223Z" fill="black"/>
<path d="M67.1483 59.7223H65.8799V60.9908H67.1483V59.7223Z" fill="black"/>
<path d="M68.3798 59.7223H67.1113V60.9908H68.3798V59.7223Z" fill="black"/>
<path d="M21.5834 60.9538H20.3149V62.2223H21.5834V60.9538Z" fill="black"/>
<path d="M22.8148 60.9538H21.5464V62.2223H22.8148V60.9538Z" fill="black"/>
<path d="M24.0463 60.9538H22.7778V62.2223H24.0463V60.9538Z" fill="black"/>
<path d="M25.2777 60.9538H24.0093V62.2223H25.2777V60.9538Z" fill="black"/>
<path d="M27.7406 60.9538H26.4722V62.2223H27.7406V60.9538Z" fill="black"/>
<path d="M30.2035 60.9538H28.9351V62.2223H30.2035V60.9538Z" fill="black"/>
<path d="M33.8983 60.9538H32.6299V62.2223H33.8983V60.9538Z" fill="black"/>
<path d="M36.3612 60.9538H35.0928V62.2223H36.3612V60.9538Z" fill="black"/>
<path d="M41.287 60.9538H40.0186V62.2223H41.287V60.9538Z" fill="black"/>
<path d="M42.5184 60.9538H41.25V62.2223H42.5184V60.9538Z" fill="black"/>
<path d="M43.7499 60.9538H42.4814V62.2223H43.7499V60.9538Z" fill="black"/>
<path d="M48.6761 60.9538H47.4077V62.2223H48.6761V60.9538Z" fill="black"/>
<path d="M49.9076 60.9538H48.6392V62.2223H49.9076V60.9538Z" fill="black"/>
<path d="M54.8334 60.9538H53.5649V62.2223H54.8334V60.9538Z" fill="black"/>
<path d="M56.0648 60.9538H54.7964V62.2223H56.0648V60.9538Z" fill="black"/>
<path d="M57.2963 60.9538H56.0278V62.2223H57.2963V60.9538Z" fill="black"/>
<path d="M58.5277 60.9538H57.2593V62.2223H58.5277V60.9538Z" fill="black"/>
<path d="M63.454 60.9538H62.1855V62.2223H63.454V60.9538Z" fill="black"/>
<path d="M19.1205 62.1853H17.8521V63.4537H19.1205V62.1853Z" fill="black"/>
<path d="M24.0463 62.1853H22.7778V63.4537H24.0463V62.1853Z" fill="black"/>
<path d="M25.2777 62.1853H24.0093V63.4537H25.2777V62.1853Z" fill="black"/>
<path d="M26.5092 62.1853H25.2407V63.4537H26.5092V62.1853Z" fill="black"/>
<path d="M27.7406 62.1853H26.4722V63.4537H27.7406V62.1853Z" fill="black"/>
<path d="M35.1298 62.1853H33.8613V63.4537H35.1298V62.1853Z" fill="black"/>
<path d="M36.3612 62.1853H35.0928V63.4537H36.3612V62.1853Z" fill="black"/>
<path d="M37.5927 62.1853H36.3242V63.4537H37.5927V62.1853Z" fill="black"/>
<path d="M38.8241 62.1853H37.5557V63.4537H38.8241V62.1853Z" fill="black"/>
<path d="M40.0555 62.1853H38.7871V63.4537H40.0555V62.1853Z" fill="black"/>
<path d="M41.287 62.1853H40.0186V63.4537H41.287V62.1853Z" fill="black"/>
<path d="M43.7499 62.1853H42.4814V63.4537H43.7499V62.1853Z" fill="black"/>
<path d="M47.4447 62.1853H46.1763V63.4537H47.4447V62.1853Z" fill="black"/>
<path d="M51.139 62.1853H49.8706V63.4537H51.139V62.1853Z" fill="black"/>
<path d="M52.3705 62.1853H51.1021V63.4537H52.3705V62.1853Z" fill="black"/>
<path d="M53.6019 62.1853H52.3335V63.4537H53.6019V62.1853Z" fill="black"/>
<path d="M54.8334 62.1853H53.5649V63.4537H54.8334V62.1853Z" fill="black"/>
<path d="M56.0648 62.1853H54.7964V63.4537H56.0648V62.1853Z" fill="black"/>
<path d="M57.2963 62.1853H56.0278V63.4537H57.2963V62.1853Z" fill="black"/>
<path d="M58.5277 62.1853H57.2593V63.4537H58.5277V62.1853Z" fill="black"/>
<path d="M59.7592 62.1853H58.4907V63.4537H59.7592V62.1853Z" fill="black"/>
<path d="M60.9911 62.1853H59.7227V63.4537H60.9911V62.1853Z" fill="black"/>
<path d="M62.2225 62.1853H60.9541V63.4537H62.2225V62.1853Z" fill="black"/>
<path d="M63.454 62.1853H62.1855V63.4537H63.454V62.1853Z" fill="black"/>
<path d="M65.9169 62.1853H64.6484V63.4537H65.9169V62.1853Z" fill="black"/>
<path d="M67.1483 62.1853H65.8799V63.4537H67.1483V62.1853Z" fill="black"/>
<path d="M19.1205 63.4168H17.8521V64.6852H19.1205V63.4168Z" fill="black"/>
<path d="M20.3519 63.4168H19.0835V64.6852H20.3519V63.4168Z" fill="black"/>
<path d="M21.5834 63.4168H20.3149V64.6852H21.5834V63.4168Z" fill="black"/>
<path d="M25.2777 63.4168H24.0093V64.6852H25.2777V63.4168Z" fill="black"/>
<path d="M27.7406 63.4168H26.4722V64.6852H27.7406V63.4168Z" fill="black"/>
<path d="M28.972 63.4168H27.7036V64.6852H28.972V63.4168Z" fill="black"/>
<path d="M30.2035 63.4168H28.9351V64.6852H30.2035V63.4168Z" fill="black"/>
<path d="M36.3612 63.4168H35.0928V64.6852H36.3612V63.4168Z" fill="black"/>
<path d="M38.8241 63.4168H37.5557V64.6852H38.8241V63.4168Z" fill="black"/>
<path d="M41.287 63.4168H40.0186V64.6852H41.287V63.4168Z" fill="black"/>
<path d="M42.5184 63.4168H41.25V64.6852H42.5184V63.4168Z" fill="black"/>
<path d="M49.9076 63.4168H48.6392V64.6852H49.9076V63.4168Z" fill="black"/>
<path d="M53.6019 63.4168H52.3335V64.6852H53.6019V63.4168Z" fill="black"/>
<path d="M54.8334 63.4168H53.5649V64.6852H54.8334V63.4168Z" fill="black"/>
<path d="M57.2963 63.4168H56.0278V64.6852H57.2963V63.4168Z" fill="black"/>
<path d="M59.7592 63.4168H58.4907V64.6852H59.7592V63.4168Z" fill="black"/>
<path d="M60.9911 63.4168H59.7227V64.6852H60.9911V63.4168Z" fill="black"/>
<path d="M63.454 63.4168H62.1855V64.6852H63.454V63.4168Z" fill="black"/>
<path d="M64.6854 63.4168H63.417V64.6852H64.6854V63.4168Z" fill="black"/>
<path d="M67.1483 63.4168H65.8799V64.6852H67.1483V63.4168Z" fill="black"/>
<path d="M19.1205 64.6483H17.8521V65.9167H19.1205V64.6483Z" fill="black"/>
<path d="M21.5834 64.6483H20.3149V65.9167H21.5834V64.6483Z" fill="black"/>
<path d="M22.8148 64.6483H21.5464V65.9167H22.8148V64.6483Z" fill="black"/>
<path d="M24.0463 64.6483H22.7778V65.9167H24.0463V64.6483Z" fill="black"/>
<path d="M26.5092 64.6483H25.2407V65.9167H26.5092V64.6483Z" fill="black"/>
<path d="M30.2035 64.6483H28.9351V65.9167H30.2035V64.6483Z" fill="black"/>
<path d="M32.6669 64.6483H31.3984V65.9167H32.6669V64.6483Z" fill="black"/>
<path d="M33.8983 64.6483H32.6299V65.9167H33.8983V64.6483Z" fill="black"/>
<path d="M35.1298 64.6483H33.8613V65.9167H35.1298V64.6483Z" fill="black"/>
<path d="M38.8241 64.6483H37.5557V65.9167H38.8241V64.6483Z" fill="black"/>
<path d="M40.0555 64.6483H38.7871V65.9167H40.0555V64.6483Z" fill="black"/>
<path d="M41.287 64.6483H40.0186V65.9167H41.287V64.6483Z" fill="black"/>
<path d="M42.5184 64.6483H41.25V65.9167H42.5184V64.6483Z" fill="black"/>
<path d="M44.9813 64.6483H43.7129V65.9167H44.9813V64.6483Z" fill="black"/>
<path d="M46.2133 64.6483H44.9448V65.9167H46.2133V64.6483Z" fill="black"/>
<path d="M47.4447 64.6483H46.1763V65.9167H47.4447V64.6483Z" fill="black"/>
<path d="M48.6761 64.6483H47.4077V65.9167H48.6761V64.6483Z" fill="black"/>
<path d="M49.9076 64.6483H48.6392V65.9167H49.9076V64.6483Z" fill="black"/>
<path d="M51.139 64.6483H49.8706V65.9167H51.139V64.6483Z" fill="black"/>
<path d="M52.3705 64.6483H51.1021V65.9167H52.3705V64.6483Z" fill="black"/>
<path d="M56.0648 64.6483H54.7964V65.9167H56.0648V64.6483Z" fill="black"/>
<path d="M58.5277 64.6483H57.2593V65.9167H58.5277V64.6483Z" fill="black"/>
<path d="M60.9911 64.6483H59.7227V65.9167H60.9911V64.6483Z" fill="black"/>
<path d="M62.2225 64.6483H60.9541V65.9167H62.2225V64.6483Z" fill="black"/>
<path d="M64.6854 64.6483H63.417V65.9167H64.6854V64.6483Z" fill="black"/>
<path d="M68.3798 64.6483H67.1113V65.9167H68.3798V64.6483Z" fill="black"/>
<path d="M21.5834 65.8798H20.3149V67.1482H21.5834V65.8798Z" fill="black"/>
<path d="M22.8148 65.8798H21.5464V67.1482H22.8148V65.8798Z" fill="black"/>
<path d="M25.2777 65.8798H24.0093V67.1482H25.2777V65.8798Z" fill="black"/>
<path d="M26.5092 65.8798H25.2407V67.1482H26.5092V65.8798Z" fill="black"/>
<path d="M30.2035 65.8798H28.9351V67.1482H30.2035V65.8798Z" fill="black"/>
<path d="M31.4354 65.8798H30.167V67.1482H31.4354V65.8798Z" fill="black"/>
<path d="M32.6669 65.8798H31.3984V67.1482H32.6669V65.8798Z" fill="black"/>
<path d="M36.3612 65.8798H35.0928V67.1482H36.3612V65.8798Z" fill="black"/>
<path d="M37.5927 65.8798H36.3242V67.1482H37.5927V65.8798Z" fill="black"/>
<path d="M38.8241 65.8798H37.5557V67.1482H38.8241V65.8798Z" fill="black"/>
<path d="M40.0555 65.8798H38.7871V67.1482H40.0555V65.8798Z" fill="black"/>
<path d="M41.287 65.8798H40.0186V67.1482H41.287V65.8798Z" fill="black"/>
<path d="M42.5184 65.8798H41.25V67.1482H42.5184V65.8798Z" fill="black"/>
<path d="M43.7499 65.8798H42.4814V67.1482H43.7499V65.8798Z" fill="black"/>
<path d="M44.9813 65.8798H43.7129V67.1482H44.9813V65.8798Z" fill="black"/>
<path d="M46.2133 65.8798H44.9448V67.1482H46.2133V65.8798Z" fill="black"/>
<path d="M48.6761 65.8798H47.4077V67.1482H48.6761V65.8798Z" fill="black"/>
<path d="M51.139 65.8798H49.8706V67.1482H51.139V65.8798Z" fill="black"/>
<path d="M54.8334 65.8798H53.5649V67.1482H54.8334V65.8798Z" fill="black"/>
<path d="M56.0648 65.8798H54.7964V67.1482H56.0648V65.8798Z" fill="black"/>
<path d="M57.2963 65.8798H56.0278V67.1482H57.2963V65.8798Z" fill="black"/>
<path d="M58.5277 65.8798H57.2593V67.1482H58.5277V65.8798Z" fill="black"/>
<path d="M60.9911 65.8798H59.7227V67.1482H60.9911V65.8798Z" fill="black"/>
<path d="M62.2225 65.8798H60.9541V67.1482H62.2225V65.8798Z" fill="black"/>
<path d="M63.454 65.8798H62.1855V67.1482H63.454V65.8798Z" fill="black"/>
<path d="M68.3798 65.8798H67.1113V67.1482H68.3798V65.8798Z" fill="black"/>
<path d="M24.0463 67.1112H22.7778V68.3797H24.0463V67.1112Z" fill="black"/>
<path d="M25.2777 67.1112H24.0093V68.3797H25.2777V67.1112Z" fill="black"/>
<path d="M26.5092 67.1112H25.2407V68.3797H26.5092V67.1112Z" fill="black"/>
<path d="M27.7406 67.1112H26.4722V68.3797H27.7406V67.1112Z" fill="black"/>
<path d="M30.2035 67.1112H28.9351V68.3797H30.2035V67.1112Z" fill="black"/>
<path d="M31.4354 67.1112H30.167V68.3797H31.4354V67.1112Z" fill="black"/>
<path d="M33.8983 67.1112H32.6299V68.3797H33.8983V67.1112Z" fill="black"/>
<path d="M35.1298 67.1112H33.8613V68.3797H35.1298V67.1112Z" fill="black"/>
<path d="M37.5927 67.1112H36.3242V68.3797H37.5927V67.1112Z" fill="black"/>
<path d="M41.287 67.1112H40.0186V68.3797H41.287V67.1112Z" fill="black"/>
<path d="M43.7499 67.1112H42.4814V68.3797H43.7499V67.1112Z" fill="black"/>
<path d="M44.9813 67.1112H43.7129V68.3797H44.9813V67.1112Z" fill="black"/>
<path d="M46.2133 67.1112H44.9448V68.3797H46.2133V67.1112Z" fill="black"/>
<path d="M47.4447 67.1112H46.1763V68.3797H47.4447V67.1112Z" fill="black"/>
<path d="M51.139 67.1112H49.8706V68.3797H51.139V67.1112Z" fill="black"/>
<path d="M53.6019 67.1112H52.3335V68.3797H53.6019V67.1112Z" fill="black"/>
<path d="M54.8334 67.1112H53.5649V68.3797H54.8334V67.1112Z" fill="black"/>
<path d="M58.5277 67.1112H57.2593V68.3797H58.5277V67.1112Z" fill="black"/>
<path d="M59.7592 67.1112H58.4907V68.3797H59.7592V67.1112Z" fill="black"/>
<path d="M60.9911 67.1112H59.7227V68.3797H60.9911V67.1112Z" fill="black"/>
<path d="M62.2225 67.1112H60.9541V68.3797H62.2225V67.1112Z" fill="black"/>
<path d="M63.454 67.1112H62.1855V68.3797H63.454V67.1112Z" fill="black"/>
<path d="M64.6854 67.1112H63.417V68.3797H64.6854V67.1112Z" fill="black"/>
<path d="M65.9169 67.1112H64.6484V68.3797H65.9169V67.1112Z" fill="black"/>
<path d="M67.1483 67.1112H65.8799V68.3797H67.1483V67.1112Z" fill="black"/>
<path d="M68.3798 67.1112H67.1113V68.3797H68.3798V67.1112Z" fill="black"/>
<path d="M8 7.99988V16.6203H16.6204V7.99988H8ZM15.3889 15.3888H9.23149V9.23136H15.3889V15.3888Z" fill="black"/>
<path d="M59.7227 7.99988V16.6203H68.3431V7.99988H59.7227ZM67.1116 15.3888H60.9541V9.23136H67.1116V15.3888Z" fill="black"/>
<path d="M8 59.7223V68.3427H16.6204V59.7223H8ZM15.3889 67.1112H9.23149V60.9538H15.3889V67.1112Z" fill="black"/>
<path d="M14.1574 10.4629H10.4629V14.1573H14.1574V10.4629Z" fill="black"/>
<path d="M65.88 10.4629H62.1855V14.1573H65.88V10.4629Z" fill="black"/>
<path d="M14.1574 62.1853H10.4629V65.8798H14.1574V62.1853Z" fill="black"/>
<path d="M12.5735 83.4378H11.2894V78.9049H12.5735V83.4378ZM12.6941 77.595C12.6941 77.8306 12.618 78.0159 12.4657 78.1509C12.3135 78.2859 12.134 78.3534 11.9271 78.3534C11.7203 78.3534 11.5408 78.2859 11.3885 78.1509C11.2363 78.0159 11.1602 77.8306 11.1602 77.595C11.1602 77.3595 11.2363 77.1742 11.3885 77.0392C11.5408 76.9042 11.7203 76.8367 11.9271 76.8367C12.134 76.8367 12.3135 76.9042 12.4657 77.0392C12.618 77.1742 12.6941 77.3595 12.6941 77.595ZM14.995 80.4475C14.995 80.7405 15.0309 81.0048 15.1028 81.2403C15.1746 81.4759 15.278 81.6784 15.413 81.8479C15.548 82.0173 15.7132 82.148 15.9085 82.24C16.1038 82.3319 16.3279 82.3779 16.5807 82.3779C16.8277 82.3779 17.0504 82.3319 17.2486 82.24C17.4468 82.148 17.6134 82.0173 17.7484 81.8479C17.8834 81.6784 17.9868 81.4759 18.0586 81.2403C18.1304 81.0048 18.1663 80.7405 18.1663 80.4475C18.1663 80.1545 18.1304 79.8888 18.0586 79.6504C17.9868 79.4119 17.8834 79.208 17.7484 79.0385C17.6134 78.869 17.4468 78.7383 17.2486 78.6464C17.0504 78.5545 16.8277 78.5085 16.5807 78.5085C16.3279 78.5085 16.1038 78.5559 15.9085 78.6507C15.7132 78.7455 15.548 78.8776 15.413 79.0471C15.278 79.2166 15.1746 79.4205 15.1028 79.659C15.0309 79.8974 14.995 80.1602 14.995 80.4475ZM19.5538 80.4475C19.5538 80.9588 19.4777 81.4084 19.3254 81.7962C19.1732 82.184 18.9649 82.5086 18.7006 82.77C18.4364 83.0314 18.1218 83.2281 17.757 83.3603C17.3922 83.4924 17.0001 83.5585 16.5807 83.5585C16.1728 83.5585 15.7879 83.4924 15.4259 83.3603C15.064 83.2281 14.748 83.0314 14.478 82.77C14.208 82.5086 13.9954 82.184 13.8403 81.7962C13.6851 81.4084 13.6076 80.9588 13.6076 80.4475C13.6076 79.9362 13.688 79.4866 13.8489 79.0988C14.0097 78.711 14.2266 78.385 14.4995 78.1207C14.7724 77.8564 15.0884 77.6582 15.4475 77.5261C15.8065 77.3939 16.1843 77.3279 16.5807 77.3279C16.9886 77.3279 17.3735 77.3939 17.7355 77.5261C18.0974 77.6582 18.4134 77.8564 18.6834 78.1207C18.9534 78.385 19.166 78.711 19.3211 79.0988C19.4762 79.4866 19.5538 79.9362 19.5538 80.4475ZM22.3028 82.4123C22.4924 82.4123 22.649 82.3965 22.7725 82.3649C22.896 82.3333 22.9951 82.2902 23.0698 82.2357C23.1445 82.1811 23.1962 82.1164 23.2249 82.0418C23.2537 81.9671 23.268 81.8838 23.268 81.7918C23.268 81.5965 23.1761 81.4342 22.9923 81.3049C22.8084 81.1757 22.4924 81.0364 22.0443 80.887C21.849 80.818 21.6536 80.7391 21.4583 80.65C21.263 80.561 21.0878 80.4489 20.9326 80.3139C20.7775 80.1789 20.6511 80.0152 20.5535 79.8227C20.4558 79.6302 20.407 79.3961 20.407 79.1204C20.407 78.8446 20.4587 78.5961 20.5621 78.3749C20.6655 78.1537 20.812 77.9656 21.0016 77.8105C21.1912 77.6554 21.421 77.5361 21.691 77.4528C21.961 77.3695 22.2655 77.3279 22.6045 77.3279C23.0066 77.3279 23.3542 77.371 23.6472 77.4571C23.9402 77.5433 24.1815 77.6381 24.3711 77.7415L23.9833 78.8015C23.8167 78.7153 23.6314 78.6392 23.4275 78.5731C23.2235 78.5071 22.9779 78.474 22.6906 78.474C22.3689 78.474 22.1377 78.5186 21.9969 78.6076C21.8562 78.6967 21.7858 78.8331 21.7858 79.0169C21.7858 79.1261 21.8116 79.218 21.8633 79.2927C21.915 79.3674 21.9883 79.4349 22.0831 79.4952C22.1779 79.5556 22.287 79.6101 22.4106 79.659C22.5341 79.7078 22.6705 79.7581 22.8199 79.8098C23.1301 79.9247 23.4002 80.0381 23.63 80.1502C23.8598 80.2622 24.0508 80.3929 24.203 80.5423C24.3553 80.6917 24.4688 80.8669 24.5434 81.068C24.6181 81.269 24.6555 81.5132 24.6555 81.8005C24.6555 82.3577 24.4601 82.7901 24.0695 83.0974C23.6788 83.4048 23.0899 83.5585 22.3028 83.5585C22.0386 83.5585 21.8001 83.5427 21.5876 83.5111C21.375 83.4795 21.1869 83.4407 21.0231 83.3947C20.8594 83.3488 20.7186 83.2999 20.6009 83.2482C20.4831 83.1965 20.384 83.1477 20.3035 83.1017L20.6827 82.0331C20.8608 82.1308 21.0806 82.2184 21.342 82.296C21.6034 82.3735 21.9237 82.4123 22.3028 82.4123ZM31.7565 83.4378C31.6933 83.231 31.6229 83.0184 31.5453 82.8001C31.4678 82.5818 31.3916 82.3635 31.317 82.1452H28.9902C28.9155 82.3635 28.8394 82.5818 28.7618 82.8001C28.6843 83.0184 28.6139 83.231 28.5507 83.4378H27.1546C27.3787 82.7944 27.5912 82.1998 27.7923 81.654C27.9934 81.1082 28.1902 80.594 28.3826 80.1114C28.5751 79.6288 28.7647 79.1706 28.9514 78.7369C29.1381 78.3031 29.332 77.8794 29.5331 77.4658H30.8171C31.0125 77.8794 31.2049 78.3031 31.3945 78.7369C31.5841 79.1706 31.7751 79.6288 31.9676 80.1114C32.1601 80.594 32.3568 81.1082 32.5579 81.654C32.759 82.1998 32.9716 82.7944 33.1956 83.4378H31.7565ZM30.145 78.8187C30.1162 78.9049 30.0731 79.0227 30.0157 79.1721C29.9582 79.3214 29.8922 79.4938 29.8175 79.6891C29.7428 79.8845 29.6609 80.0999 29.5719 80.3355C29.4828 80.571 29.3923 80.818 29.3004 81.0766H30.9981C30.9062 80.818 30.8171 80.571 30.731 80.3355C30.6448 80.0999 30.5629 79.8845 30.4854 79.6891C30.4078 79.4938 30.3403 79.3214 30.2828 79.1721C30.2254 79.0227 30.1794 78.9049 30.145 78.8187ZM36.7892 81.2058C36.7892 80.8094 36.7002 80.492 36.5221 80.2536C36.344 80.0152 36.0797 79.896 35.7292 79.896C35.6143 79.896 35.508 79.9003 35.4104 79.9089C35.3127 79.9175 35.2323 79.9276 35.1691 79.939V82.2572C35.2495 82.3089 35.3544 82.352 35.4836 82.3865C35.6129 82.4209 35.7436 82.4382 35.8757 82.4382C36.4847 82.4382 36.7892 82.0274 36.7892 81.2058ZM38.0991 81.1714C38.0991 81.5218 38.056 81.8407 37.9698 82.1279C37.8837 82.4152 37.7573 82.6622 37.5907 82.8691C37.424 83.0759 37.2172 83.2368 36.9702 83.3517C36.7231 83.4666 36.4388 83.524 36.117 83.524C35.9389 83.524 35.7723 83.5068 35.6172 83.4723C35.4621 83.4378 35.3127 83.389 35.1691 83.3258V85.0321H33.885V79.06C33.9999 79.0256 34.1321 78.9925 34.2815 78.9609C34.4308 78.9293 34.5874 78.902 34.7511 78.8791C34.9149 78.8561 35.0815 78.8374 35.2509 78.8231C35.4204 78.8087 35.5827 78.8015 35.7378 78.8015C36.1113 78.8015 36.4445 78.8575 36.7375 78.9696C37.0305 79.0816 37.2775 79.2396 37.4786 79.4435C37.6797 79.6475 37.8334 79.896 37.9397 80.189C38.046 80.482 38.0991 80.8094 38.0991 81.1714ZM41.9943 81.2058C41.9943 80.8094 41.9052 80.492 41.7271 80.2536C41.549 80.0152 41.2848 79.896 40.9343 79.896C40.8194 79.896 40.7131 79.9003 40.6155 79.9089C40.5178 79.9175 40.4374 79.9276 40.3742 79.939V82.2572C40.4546 82.3089 40.5594 82.352 40.6887 82.3865C40.818 82.4209 40.9487 82.4382 41.0808 82.4382C41.6898 82.4382 41.9943 82.0274 41.9943 81.2058ZM43.3042 81.1714C43.3042 81.5218 43.2611 81.8407 43.1749 82.1279C43.0887 82.4152 42.9624 82.6622 42.7957 82.8691C42.6291 83.0759 42.4223 83.2368 42.1753 83.3517C41.9282 83.4666 41.6438 83.524 41.3221 83.524C41.144 83.524 40.9774 83.5068 40.8223 83.4723C40.6672 83.4378 40.5178 83.389 40.3742 83.3258V85.0321H39.0901V79.06C39.205 79.0256 39.3372 78.9925 39.4865 78.9609C39.6359 78.9293 39.7925 78.902 39.9562 78.8791C40.1199 78.8561 40.2866 78.8374 40.456 78.8231C40.6255 78.8087 40.7878 78.8015 40.9429 78.8015C41.3164 78.8015 41.6496 78.8575 41.9426 78.9696C42.2356 79.0816 42.4826 79.2396 42.6837 79.4435C42.8848 79.6475 43.0385 79.896 43.1448 80.189C43.251 80.482 43.3042 80.8094 43.3042 81.1714ZM45.5965 82.5157C45.832 82.5157 45.9987 82.4928 46.0963 82.4468C46.194 82.4008 46.2428 82.3118 46.2428 82.1796C46.2428 82.0762 46.1796 81.9857 46.0532 81.9082C45.9268 81.8306 45.7344 81.743 45.4758 81.6453C45.2748 81.5707 45.0924 81.4931 44.9286 81.4127C44.7649 81.3322 44.6256 81.236 44.5107 81.124C44.3958 81.0119 44.3067 80.8784 44.2435 80.7233C44.1803 80.5681 44.1487 80.3814 44.1487 80.1631C44.1487 79.738 44.3067 79.4019 44.6227 79.1548C44.9387 78.9078 45.3724 78.7843 45.924 78.7843C46.1997 78.7843 46.464 78.8087 46.7168 78.8575C46.9696 78.9064 47.1707 78.9595 47.32 79.0169L47.096 80.0166C46.9466 79.9649 46.7843 79.9189 46.6091 79.8787C46.4338 79.8385 46.2371 79.8184 46.0188 79.8184C45.6166 79.8184 45.4155 79.9304 45.4155 80.1545C45.4155 80.2062 45.4241 80.2522 45.4414 80.2924C45.4586 80.3326 45.4931 80.3714 45.5448 80.4087C45.5965 80.4461 45.6669 80.4863 45.7559 80.5294C45.845 80.5724 45.9584 80.6198 46.0963 80.6715C46.3778 80.775 46.6105 80.8769 46.7944 80.9775C46.9782 81.078 47.1233 81.1872 47.2295 81.3049C47.3358 81.4227 47.4105 81.5534 47.4536 81.6971C47.4967 81.8407 47.5182 82.0073 47.5182 82.1969C47.5182 82.645 47.3502 82.984 47.0141 83.2138C46.678 83.4436 46.2026 83.5585 45.5879 83.5585C45.1857 83.5585 44.8511 83.524 44.5839 83.4551C44.3168 83.3861 44.1315 83.3287 44.0281 83.2827L44.2435 82.24C44.4618 82.3261 44.6859 82.3937 44.9157 82.4425C45.1455 82.4913 45.3724 82.5157 45.5965 82.5157ZM48.4317 77.776L49.7158 77.5692V78.9049H51.2583V79.9735H49.7158V81.5678C49.7158 81.8378 49.7632 82.0533 49.8579 82.2141C49.9527 82.375 50.1438 82.4554 50.431 82.4554C50.5689 82.4554 50.7111 82.4425 50.8576 82.4166C51.0041 82.3908 51.1377 82.3549 51.2583 82.3089L51.4393 83.3086C51.2842 83.3718 51.1118 83.4263 50.9222 83.4723C50.7326 83.5183 50.5 83.5412 50.2242 83.5412C49.8737 83.5412 49.5836 83.4938 49.3538 83.3991C49.124 83.3043 48.9402 83.1721 48.8023 83.0026C48.6644 82.8332 48.5682 82.6278 48.5136 82.3865C48.459 82.1452 48.4317 81.878 48.4317 81.585V77.776ZM56.541 81.1628C56.541 81.519 56.4893 81.845 56.3859 82.1409C56.2824 82.4367 56.1331 82.6895 55.9377 82.8992C55.7424 83.1089 55.5083 83.2712 55.2354 83.3861C54.9625 83.501 54.6566 83.5585 54.3176 83.5585C53.9844 83.5585 53.6813 83.501 53.4084 83.3861C53.1356 83.2712 52.9014 83.1089 52.7061 82.8992C52.5108 82.6895 52.3585 82.4367 52.2494 82.1409C52.1402 81.845 52.0856 81.519 52.0856 81.1628C52.0856 80.8066 52.1416 80.482 52.2537 80.189C52.3657 79.896 52.5208 79.646 52.719 79.4392C52.9172 79.2324 53.1528 79.0715 53.4257 78.9566C53.6986 78.8417 53.9959 78.7843 54.3176 78.7843C54.6451 78.7843 54.9453 78.8417 55.2182 78.9566C55.4911 79.0715 55.7252 79.2324 55.9205 79.4392C56.1158 79.646 56.2681 79.896 56.3772 80.189C56.4864 80.482 56.541 80.8066 56.541 81.1628ZM55.2311 81.1628C55.2311 80.7663 55.1521 80.4547 54.9941 80.2277C54.8361 80.0008 54.6106 79.8873 54.3176 79.8873C54.0246 79.8873 53.7977 80.0008 53.6368 80.2277C53.4759 80.4547 53.3955 80.7663 53.3955 81.1628C53.3955 81.5592 53.4759 81.8737 53.6368 82.1064C53.7977 82.3391 54.0246 82.4554 54.3176 82.4554C54.6106 82.4554 54.8361 82.3391 54.9941 82.1064C55.1521 81.8737 55.2311 81.5592 55.2311 81.1628ZM60.2638 80.0425C60.1489 80.0137 60.0139 79.9836 59.8588 79.952C59.7037 79.9204 59.5371 79.9046 59.359 79.9046C59.2785 79.9046 59.1823 79.9118 59.0703 79.9261C58.9582 79.9405 58.8735 79.9563 58.8161 79.9735V83.4378H57.532V79.1462C57.7618 79.0658 58.0333 78.9897 58.3464 78.9178C58.6595 78.846 59.0085 78.8101 59.3934 78.8101C59.4624 78.8101 59.5457 78.8144 59.6433 78.8231C59.741 78.8317 59.8387 78.8432 59.9364 78.8575C60.034 78.8719 60.1317 78.8891 60.2294 78.9092C60.327 78.9293 60.4103 78.9538 60.4793 78.9825L60.2638 80.0425ZM60.9532 81.2058C60.9532 80.8037 61.015 80.4518 61.1385 80.1502C61.262 79.8486 61.4243 79.5972 61.6254 79.3961C61.8265 79.195 62.0577 79.0428 62.3192 78.9394C62.5806 78.836 62.8491 78.7843 63.1249 78.7843C63.7684 78.7843 64.2768 78.981 64.6502 79.3746C65.0237 79.7681 65.2104 80.3469 65.2104 81.1111C65.2104 81.1857 65.2075 81.2676 65.2018 81.3567C65.196 81.4457 65.1903 81.5247 65.1845 81.5936H62.2718C62.3005 81.8579 62.424 82.0676 62.6423 82.2227C62.8606 82.3779 63.1536 82.4554 63.5213 82.4554C63.7569 82.4554 63.9881 82.4339 64.215 82.3908C64.442 82.3477 64.6273 82.2945 64.7709 82.2314L64.9432 83.2741C64.8743 83.3086 64.7824 83.343 64.6675 83.3775C64.5526 83.412 64.4247 83.4421 64.284 83.468C64.1432 83.4938 63.9924 83.5154 63.8316 83.5326C63.6707 83.5499 63.5098 83.5585 63.349 83.5585C62.9411 83.5585 62.5863 83.4982 62.2847 83.3775C61.9831 83.2569 61.7331 83.0917 61.5349 82.882C61.3367 82.6723 61.1902 82.4238 61.0954 82.1366C61.0006 81.8493 60.9532 81.5391 60.9532 81.2058ZM63.9694 80.7146C63.9637 80.6055 63.945 80.4992 63.9134 80.3958C63.8818 80.2924 63.833 80.2004 63.7669 80.12C63.7009 80.0396 63.6175 79.9735 63.517 79.9218C63.4165 79.8701 63.2915 79.8442 63.1421 79.8442C62.9985 79.8442 62.875 79.8687 62.7716 79.9175C62.6682 79.9663 62.582 80.031 62.5131 80.1114C62.4441 80.1918 62.391 80.2852 62.3536 80.3915C62.3163 80.4978 62.289 80.6055 62.2718 80.7146H63.9694Z" fill="white"/>
<g clip-path="url(#clip1_14897_427550)">
<path fill-rule="evenodd" clip-rule="evenodd" d="M38.5002 29.5833C42.8725 29.5833 46.4168 33.1276 46.4168 37.5C46.4168 41.8724 42.8725 45.4167 38.5002 45.4167C34.1278 45.4167 30.5835 41.8724 30.5835 37.5C30.5835 33.1276 34.1278 29.5833 38.5002 29.5833ZM38.896 38.2917H33.9877C33.7777 38.2917 33.5763 38.3751 33.4279 38.5236C33.2794 38.672 33.196 38.8734 33.196 39.0833C33.196 39.2933 33.2794 39.4947 33.4279 39.6431C33.5763 39.7916 33.7777 39.875 33.9877 39.875H34.3946L34.1674 40.2796C34.1165 40.3703 34.0841 40.4702 34.0718 40.5735C34.0596 40.6768 34.0678 40.7815 34.0961 40.8816C34.1243 40.9818 34.172 41.0753 34.2364 41.157C34.3008 41.2387 34.3806 41.307 34.4714 41.3578C34.5621 41.4086 34.662 41.4411 34.7653 41.4533C34.8686 41.4656 34.9733 41.4573 35.0735 41.4291C35.1736 41.4009 35.2672 41.3532 35.3489 41.2888C35.4306 41.2244 35.4988 41.1446 35.5496 41.0538L36.2091 39.875H38.896C39.106 39.875 39.3073 39.7916 39.4558 39.6431C39.6043 39.4947 39.6877 39.2933 39.6877 39.0833C39.6877 38.8734 39.6043 38.672 39.4558 38.5236C39.3073 38.3751 39.106 38.2917 38.896 38.2917ZM40.3946 35.9262C40.2968 35.7483 40.1344 35.6148 39.941 35.5533C39.7476 35.4917 39.5379 35.5068 39.3553 35.5954C39.1727 35.684 39.0311 35.8394 38.9598 36.0294C38.8884 36.2195 38.8928 36.4296 38.972 36.6165L39.0132 36.6996L41.4515 41.0538C41.5502 41.2299 41.7125 41.3615 41.9051 41.4219C42.0977 41.4823 42.3061 41.4668 42.4877 41.3787C42.6693 41.2905 42.8104 41.1363 42.882 40.9476C42.9537 40.7589 42.9506 40.5499 42.8733 40.3635L42.8322 40.2796L42.6057 39.8758H43.0127C43.2157 39.8774 43.4115 39.801 43.5598 39.6623C43.708 39.5236 43.7973 39.3332 43.8092 39.1305C43.8211 38.9279 43.7547 38.7284 43.6237 38.5733C43.4927 38.4182 43.3071 38.3194 43.1053 38.2972L43.0127 38.2917H41.7191L40.3946 35.9262ZM38.3996 32.3637C38.3018 32.1858 38.1394 32.0523 37.946 31.9908C37.7526 31.9292 37.5429 31.9443 37.3603 32.0329C37.1777 32.1215 37.0361 32.2769 36.9648 32.4669C36.8934 32.657 36.8978 32.8671 36.977 33.054L37.0174 33.1371L37.5929 34.1639L36.1624 36.7178C36.0628 36.8942 36.0347 37.102 36.0836 37.2984C36.1326 37.4949 36.255 37.6652 36.4256 37.7742C36.5963 37.8832 36.8022 37.9226 37.0011 37.8845C37.1999 37.8463 37.3766 37.7333 37.4947 37.5689L37.5446 37.4913L39.983 33.1371C40.0838 32.9607 40.113 32.7523 40.0645 32.555C40.0159 32.3577 39.8934 32.1866 39.7222 32.0771C39.551 31.9677 39.3442 31.9282 39.1448 31.967C38.9453 32.0057 38.7683 32.1197 38.6506 32.2853L38.6015 32.3629L38.5002 32.5442L38.3996 32.3637Z" fill="#FF8A00"/>
</g>
</g>
<defs>
<clipPath id="clip0_14897_427550">
<rect width="75.4286" height="88" fill="white" transform="translate(0.427734)"/>
</clipPath>
<clipPath id="clip1_14897_427550">
<rect width="19" height="19" fill="white" transform="translate(29 28)"/>
</clipPath>
</defs>
</svg>
